/* XPM */
static char *_A1721607242[] = {
/* columns rows colors chars-per-pixel */
"64 64 240 2 ",
"   c #31231B",
".  c #352A26",
"X  c #2A2D33",
"o  c #343437",
"O  c #522E1B",
"+  c #52392D",
"@  c #483D38",
"#  c #683C29",
"$  c #574234",
"%  c #67422C",
"&  c #744529",
"*  c #704D37",
"=  c #373C44",
"-  c #3B424A",
";  c #484646",
":  c #43454A",
">  c #594942",
",  c #524D4C",
"<  c #444B57",
"1  c #4E5158",
"2  c #575659",
"3  c #6E544B",
"4  c #7D6657",
"5  c #4A5667",
"6  c #575A64",
"7  c #4D5D74",
"8  c #615F60",
"9  c #536174",
"0  c #58667A",
"q  c #686466",
"w  c #6B6A6D",
"e  c #656A77",
"r  c #6B6C72",
"t  c #716D72",
"y  c #787476",
"u  c #75767A",
"i  c #79797D",
"p  c #C6301D",
"a  c #DC1F25",
"s  c #E31C23",
"d  c #EC1C24",
"f  c #D53237",
"g  c #BA4F16",
"h  c #B96A14",
"j  c #8C5031",
"k  c #B95A21",
"l  c #9C6E2E",
"z  c #AF6A2F",
"x  c #C45915",
"c  c #D87735",
"v  c #CB3C41",
"b  c #875B4F",
"n  c #BA5A5C",
"m  c #8F6756",
"M  c #AC6848",
"N  c #A77958",
"B  c #B47F5E",
"V  c #876D66",
"C  c #847D7D",
"Z  c #A47B7C",
"A  c #CB6347",
"S  c #938616",
"D  c #B58710",
"F  c #BDB405",
"G  c #BCB20B",
"H  c #B9AF14",
"J  c #A59025",
"K  c #B5AB2A",
"L  c #B2A433",
"P  c #C3B807",
"I  c #D6B806",
"U  c #C4B81A",
"Y  c #C79A29",
"T  c #C8B925",
"R  c #C8B038",
"E  c #D7BE39",
"W  c #D8CD06",
"Q  c #D6C908",
"!  c #D6CA14",
"~  c #DED118",
"^  c #E6DA05",
"/  c #ECD90E",
"(  c #EEE202",
")  c #F6E902",
"_  c #FBED01",
"`  c #F7E608",
"'  c #FEF100",
"]  c #EEE21A",
"[  c #F8EB16",
"{  c #D8CD2B",
"}  c #DAC833",
"|  c #E6D928",
" . c #E7DB34",
".. c #F5E929",
"X. c #ECE035",
"o. c #8F8957",
"O. c #B99450",
"+. c #B6AD58",
"@. c #8A8671",
"#. c #B38161",
"$. c #B59C6B",
"%. c #AA8E75",
"&. c #B68977",
"*. c #B9A669",
"=. c #B8AC71",
"-. c #C99155",
";. c #E98A41",
":. c #CBBC45",
">. c #D4BB48",
",. c #C7AA51",
"<. c #C5B75A",
"1. c #D09871",
"2. c #C5AB67",
"3. c #C9B463",
"4. c #DBA27A",
"5. c #C5B878",
"6. c #E6A470",
"7. c #D9C44A",
"8. c #DAD24E",
"9. c #E6DC4A",
"0. c #E3D956",
"q. c #EEE345",
"w. c #D8CF6D",
"e. c #CEC67E",
"r. c #576B88",
"t. c #5D728C",
"y. c #5C7593",
"u. c #597398",
"i. c #667489",
"p. c #7C7E83",
"a. c #767D8C",
"s. c #677C98",
"d. c #787F90",
"f. c #587CAB",
"g. c #637FA6",
"h. c #837F82",
"j. c #7A828A",
"k. c #6E829B",
"l. c #798796",
"z. c #5A86B3",
"x. c #6A86A7",
"c. c #758DA8",
"v. c #728EB1",
"b. c #708FB3",
"n. c #7997B7",
"m. c #3D92D0",
"M. c #2A90E4",
"N. c #3997E3",
"B. c #4C8ECD",
"V. c #699CCC",
"C. c #4AA1DE",
"Z. c #60A3D5",
"A. c #77AFD7",
"S. c #4298E4",
"D. c #53AAE7",
"F. c #62A2E4",
"G. c #838284",
"H. c #898587",
"J. c #8C8B8E",
"K. c #938989",
"L. c #868A96",
"P. c #8C8D93",
"I. c #948F92",
"U. c #8F9194",
"Y. c #939294",
"T. c #95959A",
"R. c #9B9699",
"E. c #9A9A9D",
"W. c #AB9387",
"Q. c #A69A8C",
"!. c #A49D9C",
"~. c #A89998",
"^. c #B7A987",
"/. c #B4AA87",
"(. c #AAA399",
"). c #B3AB95",
"_. c #B8B497",
"`. c #8A96A8",
"'. c #8B96AB",
"]. c #979BA6",
"[. c #9D9DA3",
"{. c #859CB5",
"}. c #A39EA2",
"|. c #A89EA3",
" X c #8DA2B8",
".X c #98A5B6",
"XX c #A4A2A5",
"oX c #AAA4A4",
"OX c #ABA9A5",
"+X c #A7A6AB",
"@X c #A9A7A9",
"#X c #ACABAD",
"$X c #B0AFAD",
"%X c #A8ABB1",
"&X c #B3B3B5",
"*X c #B5B6BA",
"=X c #BCBBBC",
"-X c #C1BA86",
";X c #E1A885",
":X c #CAC285",
">X c #D9D093",
",X c #809EC5",
"<X c #87A6C6",
"1X c #8AABCC",
"2X c #9CB1C8",
"3X c #87ADD4",
"4X c #8DB4D8",
"5X c #94B9DA",
"6X c #A2B6CC",
"7X c #BEBEC1",
"8X c #95BDE3",
"9X c #A6C4DE",
"0X c #9BC6E9",
"qX c #A4C8E5",
"wX c #A3CDED",
"eX c #A9D2EF",
"rX c #A6D1F2",
"tX c #ABD5F4",
"yX c #AED9F5",
"uX c #ACD8F9",
"iX c #B0D7F4",
"pX c #C4C4C5",
"aX c #C7C7CA",
"sX c #CCCBCC",
"dX c #D3D0C9",
"fX c #CDCED1",
"gX c #D3D3D4",
"hX c #D9D8D6",
"jX c #DCDCDC",
"kX c #E2DFDF",
"lX c #E8E4C0",
"zX c #E4E3DF",
"xX c #DDDDE0",
"cX c #E5E4E3",
"vX c #E9E8E6",
"bX c #ECEBEB",
"nX c #F0EFED",
"mX c #EEEEF0",
"MX c #F4F4F4",
"NX c #F8F8F7",
/* pixels */
"+X+X+X+X+X+X+X+X+X+X+X+X+X+X+X+X+X+X+X+X+X+X+X+X+X+X+X+X+X+X+X+X+X+X+X+X+X+X+X+X+X+X+X+X+X+X+X+X+X+X+X+X+X+X+X+X+X+X+X+X+X+X+X+X",
"+X+X+X+X+X+X+X+X+X+X+X+X+X+X+X+X+X+X+X+X+X+X+X+X+X+X+X+X+X+X+X+X+X+X+X+X+X+X+X+X+X+X+X+X+X+X+X+X+X+X+X+X+X+X+X+X+X+X+X+X+X+X+X+X",
"+X+X+X+X+X+X+X+X+X+X+X+X+X+X+X+X+X+X+X+X+X+X+X+X+X+X+X#X+X+X+X@X+X+X+X+X+X+X+X+X+X+X+X+X+X+X+X+X+X+X+X+X+X+X+X+X+X+X+X+X+X+X+X+X",
"+X+X+X+X+X+X+X+X+X+X+X+X+X+X+X+X+X+X+X+X+X+X+X+X+X+X+X+X+X+X+X@X+X+X+X+X+X+X+X+X+X+X+X+X+X+X+X+X+X+X+X+X+X+X+X+X+X+X+X+X+X+X+X+X",
"+X+X+X+X+X+X+X+X+X+X+X+X+X+X+X+X+X+X+X+X+X+X+X+X+X+X+X+X+X+X@X@X+X}.+X+X+X+X+X+X+X+X+X+X+X+X+X+X+X+X+X+X+X+X+X+X+X+X+X+X+X+X+X+X",
"+X+X+X+X+X+X+X+X+X+X+X+X+X+X+X+X+X+X+X+X+X+X+X+X+X+X+X+X}.Q.&.-.B W.}.XX+X+X+X+X+X+X+X+X+X+X+X+X+X+X+X+X+X+X+X+X+X+X+X+X+X+X+X+X",
"+X+X+X+X+X+X+X+X+X+X+X+X+X+X+X+X%X+X+X+X+X+X+X+X+X+X+XXXW.A ;.;.c c N !.+X+X+X+X+X+X+X+X+X+X+X+X+X+X+X+X+X+X+X+X+X+X+X+X+X+X+X#X",
"+X+X+X+X+X+X+X+X+X+X+X+X+X+X@XoX=.=.OX+X+X+X+X+X+X+X+X!.M z j * # & j V +X+X+X+X+X+X+X@XoXoX).(.+X+X+X+X+X+X+X+X+X+X+X+X+X+X+X+X",
"+X+X+X+X+X+X+X+X+X+X+X+X+X+XoX>.' [ 9._.@X@X+X+X+X+X@X@.& O % % # O   # E.@X+X+X+X+X+X+X_.8...] $.|.+X+X+X+X+X+X+X+X+X+X+X+X+X+X",
"+X+X+X+X+X+X+X+X+X+X+X+X+X+X2.) ' ' ' w.@X+X+X+X+X+X@Xq . % 6.6.1.&   . p.%X+X+X+X+X+XOX0.' ' ' ] ^.+X+X+X+X+X+X+X+X+X+X+X+X+X+X",
"+X+X+X+X+X+X+X+X+X+X+X+X+X+X3._ ' ' ' 0.@X@X%X+X+X+XE.8 . * N 1.B *   @ q XX+X+X+X+X+X_...' ' ' _ 2.+X+X+X+X+X+X+X+X+X+X+X+X+X+X",
"+X+X+X+X+X+X+X+X+X+X+X+X+X+X^.| ' ' [ :XXX@X+X+X+X+Xi , 3 m 4.1.B N + $ q XX+X+X+X+X+X+X9.' ' ' [ -X+X+X+X+X+X+X+X+X+X+X%X+X+X+X",
"+X+X+X+X+X+X+X+X+X+X+X+X+X+X|.M I ' q.+X+X%X+X%X+XT.H.y $ #.;X4.#.#.o $ P.@X+X+X+X+X%X+X_.[ ' ^ O.}.+X+X+X+X+X+X+X+X+X+X+X+X+X+X",
"+X+X+X+X+X+X+X#X+X+X+X+X+X+X|.n D ' ..0.:X_.^.=.XXT.Y.w @ $ 2.;X#.> . $ i @X+XXX!.+X@X(.:X..' h v !.+X+X+X+X+X+X+X+X+X+X+X+X+X+X",
"+X+X+X+X+X+X+X+X+X+X+X+X+X+X|.~.T ) ( F W ..X.:X$XE.E.H., . 3 %.4 . . ; i @X+X(.} w.8.| ~ ' ( L W.+X+X+X+X+X+X+X+X+X+X+X+X+X+X+X",
"+X+X+X+X+X+X+X+X+X+X+X+X+X+X#X^.G ' ' ( <.>XlXvXbXkXpX$XE.w : $ o o : 2 q +X+X+X<.' ( G Q ( ) U (.+X+X+X+X+X+X+X+X+X+X+X+X+X+X+X",
"+X+X+X+X+X+X+X+X+X+X+X+X+X+X|.).U Q X.e.dXhXNXNXNXMXhXpX&X&XOXJ.G.G.G.w I.fXjX7X-X' ) F _ ' ^ H ).+X+X+X+X+X+X+X+X+X+X+X+X+X+X+X",
"+X+X+X+X+X+X+X+X+X+X+X+X+X+X%X|.*.2.pXhXhXvXNXNXNXjXY.G.H.Y.Y.*X7X&Xh.8 K.=XvXbXcX>Xq.! G I H :.(.+X+X+X+X+X+X+X+X+X+X+X+X+X+X+X",
"+X+X+X+X+X+X+X+X+X+X+X+X+X+X+X%X#XsXjXvXvXvXnXnXcXXX(.j.w [.P.=X#X7XP.w t }.fXbXbXnXcXlX>X5.-XQ.|.+X+X+X+X+X+X+X+X+X+X+X+X+X+X+X",
"+X+X+X+X+X#X+X+X+X+X+X+X+X+X+X%XfXcXdXpXhXdXdXpX&Xu L.r q G.u gXhXsXu 2 , G.!.hXjXMXMXmXNXbXmXaX&X+X+X+X+X+X+X+X+X+X+X+X+X+X+X+X",
"+X+X+X+X+X+X+X+X+X+X+X+X+X@XoX9XvXvX=XY.Y.Y.E.E.E.2 8 : u e w XX@XY.w T.2 2 q H.XX&XhXdXjXgXjXjXzX+XoXoXoX#X+X+X+X+X+X+X+X+X+X+X",
"+X+X+X+X+X+X+X+X+X+X+X+X+XoXOXgXbXgXXXP.I.E.oX@X@Xw : : #XP.U.cXcX=Xu $Xy , Y.C t w C C @.G.h.[.+Xm B W.W.~.+X#X+X+X+X+X+X+X%X+X",
"+X+X+X+X+X+X+X+X+X+X#X|.|.$.7.>XdX&X[.XX+X+X+X+X@Xj.o 1 oX[.T.cXnXsXG.j.H.6 XXXX|.[.Y.K.@.G.i @.$.K l b b h.oXoX+X+X+X+X+X+X+X+X",
"+X+X+X+X+X+X+X+X+X+X+X~.R ` ' ' ..5.oX+X+X+X+X+X@XH.o J.%Xu L.fXjXjXJ.i p.w +X+X+X@X@XXXXXXX-X ._ ' ) Y b R.#XoX+X+X+X+X+X+X+X+X",
"+X+X+X+X+X+X+X+X+X+X+X$.R ^ ' H K | _.OX+X+X+X+X+XJ., E.&Xh.}.sXdXjX[.i j.y }.+X+X+X+X+X+X_. .K ! ' ~ { -.|.+X+X+X+X+X+X+X+X+X+X",
"+X+X+X+X+X+X+X+X+X+X~.O.@.L ^ o.@.! e.@X+X+X+X+X+XU.2 i a.h.%XgXfXfX*Xt i G.XX+X+X+X+X+X+X:X! @.@.W K @.O.|.+X+X+X+X+X+X+X+X+X+X",
"+X+X+X+X+X+X+X+X+X+X|.R K h h J K ] _.OX+X+X+X+X@XJ.U.1 p.T.&X7XpX=X$Xy p.r XX+X+X+X+X+X+X_.] H J h z L R |.+X+X+X+X+X+X+X+X+X+X",
"+X+X+X+X+X+X+X+X+X+X@X%.z a s p { e.@X@X+X+X+X+X@XG.i , R.$X=X7X9X=XpX$X, u XX+X+X+X+X@X+X+X-X .g a d z ^.+X+X+X+X+X+X+X+X+X+X+X",
"+X+X+X+X+X+X+X+X+X+X+X}.v d d p *.OX@X%X+X+X+X+X@XU.; @ q H.h.h.t 8 2 3 ; G.+X+X@X+X+X@X@X+X%X=.p d d f |.|.+X+X+X+X+X+X+X+X+X+X",
"+X+X+X+X+X+X+X+X+X+X+X~.f s s p } e.-XOXXXOXQ.XX@X@Xi . + $ # 3 b b j 3 3 ].+X+XXX/.XXXX)._.:X7.p s s f ~.+X+X+X+X+X+X+X+X+X+X+X",
"+X+X+X+X+X+X+X+X+X+X+X+XZ k x D W _ [ { +.} } E.+X+Xi : 6 i.y e q t L.c.w J.+X+XXX+. .<.} [ _ ^ D g k Z |.+X+X+X+X#X+X+X+X+X+X+X",
"+X+X+X+X+X+X+X#X+X+X+X+X^.` ' ' F ) ' W S W 5.XX+X[.0 k.c.c.1XqX4X8X4X<X<X{.+X+X%X=.Q S Q ' ' P ' ) ` =.+X+X+X+X+X+X+X+X+X+X+X+X",
"+X+X+X+X+X+X+X+X+X+X+X+X*._ ' ' P ^ ' ' G ! ^.+XXX[.{.5X5Xn.s.<X1X5X<X1X5XqX.X+X+X).~ H _ ' ^ F ' ' ' 2.+X+X+X+X+X+X+X+X+X+X+X+X",
"+X+X+X+X+X+X+X+X+X+X+X+X$.` ' ' ( F G G G E |.+X].{.5XqXrXqX1Xc.c.g.v.<X1XwXqX%X+XXX>.P G F P ^ ' ' ) $.+X+X+X+X+X+X+X+X+X+X+X+X",
"+X+X+X+X+X+X+X+X+X+X+X+X}.,./ _ ' _ ^ ! E W.+X+X'.5XeXqX<X X{.x.7 r.r.s.<X9XtXqX+X+X~.>.~ ^ _ ' _ ` ,.!.+X+X+X+X+X+X+X+X+X+X+X+X",
"+X+X+X+X+X+X+X%X+X+X+X+X+X}./.2.7.7.3.^.(.@X+X+X<XtXiXtX4X{.i.5 o = 5 c.V.4XrXtX6X@X@X!.Q.<.7.7.2.Q.(.oX+X+X+X+X+X+X+X+X+X+X+X+X",
"+X+X+X+X+X+X+X+X+X+X+X+X+X+X+X+XXX+X+X+X+X+X+X[.5XyXyXtX9XV.i.6 @ X < y.<X8XtXiXqX%XXX+X+X+XXX+XoXXX+X+X+X+X+X+X+X+X+X+X+X+X+X+X",
"+X+X+X+X+X+X+X+X+X+X+X+X+X%X+X+X+X+X+X+X+X+X+X XwXiXyXeX2XV.c.R.].q = u.s.4XwXiXyX2X+X+X+X+X+X+X+X+X+X+X+X+X+X+X+X+X+X+X+X+X+X+X",
"+X+X+X+X+X+X+X+X+X+X+X+X+X+X+X+X+X+X+X+X+X+XXX<XrXyXyX0X3Xn.L.+X}.}.u 5 V.v.4XwXtX9X%X+X+X+X+X+X+X+X+X+X+X+X+X+X+X+X+X+X+X+X%X+X",
"+X+X+X+X+X+X+X+X+X+X+X+X+X+X+X+X+X+X+X+X@X@X].3XtXtXyX5Xn.`.+X+X+X%X|.h.5 u.n.8XtXtX.X+X+X+X+X+X+X+X+X+X+X+X+X+X+X+X+X+X+X+X+X+X",
"+X+X+X+X+X+X+X+X+X+X+X+X+X+X+X+X+X+X+X+X+XXX'.8XuXuXwX<X'.}.+X+X+X+X+X+Xa.0 t.A.0XrX2X+X+X+X+X+X+X+X+X+X+X+X+X%X+X+X+X+X+X+X+X+X",
"+X+X+X+X+X+X+X+X+X+X+X+X+X+X+X+X+X+X+X+X+XT.c.0XuXyX8Xv.].|.+X+X+X+X+X+X}.1 < s.v.b.'.}.+X+X+X+X+X+X+X+X+X+X+X+X+X+X+X+X+X+X+X+X",
"+X+X+X+X+X+X+X+X+X+X+X+X+X+X+X+X+X+X+X+XXXy 5 4XrX0XV.].+X+X+X+X+X+X+X+X}.1 < 5 5 6 L.+X+X+X+X+X+X+X+X+X+X+X+X+X+X+X+X+X+X+X+X+X",
"+X+X+X+X+X+X+X+X+X+X+X+X+X+X+X+X+X+X+X+X}.9 < 9 v.n.L.}.%X+X+X+X+X+X+X+XP.5 = = < 6 [.+X+X+X+X+X+X+X+X+X+X+X+X+X+X+X+X+X+X+X+X+X",
"+X+X+X+X+X+X+X+X+X+X+X+X+X+X+X+X+X+X+X+X].1 : ; , 2 L.+X+X+X+X+X+X+X+XXXd.r.u.= o h.XX+X+X+X+X+X+X+X+X+X+X+X+X+X+X+X+X+X+X+X+X+X",
"+X+X+X+X+X+X+X+X+X+X+X+X+X+X+X+X+X+X+X+XL.< : , , y XX+X+X+X+X+X+X+X+X].e f.u.7 0 [.+X+X+X+X+X+X+X+X+X+X+X+X+X+X+X+X+X+X+X+X+X+X",
"+X+X+X+X+X+X+X+X+X+X+X+X+X+X+X+X+X+X+XXX0 - - : 6 T.+X+X+X+X+X+X+X+X+XT.9 u.f.g.'.+X+X+X+X+X+X+X+X+X+X+X+X+X+X+X+X+X+X+X+X+X+X+X",
"+X+X+X+X+X+X+X+X+X+X+X+X+X+X+X+X+X+X+XXX2 o = - p.+X+X+X+X+X+X+X+X+X}.d.u.f.f.s.}.+X+X+X+X+X+X+X+X+X+X+X+X+X+X+X+X+X+X+X+X+X+X+X",
"+X+X+X+X+X+X+X+X+X+X+X+X+X+X+X+X+X+X+X[.0 X X : U.+X+X+X+X+X+X+X+X+X}.a.r.g.r.l.+X+X+X+X+X+X+X+X+X+X+X+X+X+X+X+X+X+X+X+X+X+X+X+X",
"+X+X+X+X+X+X+X+X+X+X+X+X+X+X+X+X+X+X+X].y.o o G.+X+X+X+X+X+X+X+X+X}.L.t.y.s.x.[.+X+X#X+X+X+X+X+X+X+X+X+X+X+X+X+X+X+X+X+X+X+X+X+X",
"+X+X+X+X+X+X+X+X+X+X+X+X+X+X+X+X+X+XXXs.B.7 0 E.+X+X+X+X+X+X+X+X+X[.6 9 s.u.i.}.+X+X+X+X+X+X+X+X+X+X+X+X+X+X+X+X+X+X+X+X+X+X+X+X",
"+X+X+X+X+X+X+X+X+X+X+X+X+X+X+X+X+X+X[.f.N.N.z.(.+X+X+X+X+X+X+X+X+X[.i.s.r.5 L.+X+X+X+X+X+X+X+X+X+X+X+X+X+X+X+X+X+X+X+X+X+X+X+X+X",
"+X+X+X+X+X+X+X+X+X+X+X+X+X+X+X+X+X+X].B.N.N.v.XX+X+X+X+X+X+X+X+X%X].r.t.x.s.].+X+X+X+X+X+X+X+X+X+X+X+X+X+X#X+X+X+X+X+X+X+X+X+X+X",
"+X+X+X+X+X+X+X+X+X+X+X+X+X+X+X+X@X+XT.m.S.S.c.@X+X+X+X+X+X+X+X+X.XF.C.B.z.j.XX+X+X+X+X+X+X+X+X+X+X+X+X+X+X+X+X+X+X+X+X+X+X+X+X+X",
"+X+X+X+X+X+X#X+X+X+X+X+X+X+X+X+X+X+X].m.N.V.].@X+X%X+X+X+X+X+X[..XF.N.M.M.'.+X+X+X+X+X+X+X+X+X+X+X+X+X+X+X+X+X+X+X+X+X+X+X+X+X+X",
"+X+X+X+X+X+X+X+X+X+X+X+X+X+X%X+X+X+XXXc.V.'.+X+X+X+X+X+X+X+X+XXXt '.D.N.M.V.+X+X+X+X+X+X+X+X+X+X+X+X+X+X+X+X+X+X+X#X+X+X+X+X%X+X",
"+X+X+X+X+X+X+X+X+X+X+X+X+X+X+X+X+X+X+X+XXX+X+X+X+X+X+X+X+X+X+X+XXXP.A.S.M.Z.@X@X+X+X+X+X+X+X+X+X+X+X+X+X+X+X+X+X+X+X+X+X+X+X+X+X",
"+X+X+X+X+X+X+X+X+X+X+X+X+X+X+X+X+X+X+X+X+X+X+X+X+X+X+X+X+X+X+X+X+XXXl.D.N.Z.+X@X+X+X+X+X+X+X+X+X+X+X+X+X+X+X+X+X+X+X+X+X+X+X+X+X",
"+X+X+X+X+X+X+X+X+X+X+X+X+X+X+X+X+X+X%X+X+X+X+X+X+X+X+X+X+X+X%X+X+X+XP.j.A.D..X@X+X+X+X+X+X+X+X+X+X+X+X+X+X+X+X+X+X+X+X+X+X+X+X+X",
"+X+X+X+X+X+X+X+X%X+X+X+X+X+X+X+X+X+X+X+X+X+X+X+X+X+X+X+X+X+X+X+X+X+XXXG.q k.%X@X+X+X+X+X+X+X+X+X+X+X+X+X+X+X+X+X+X+X+X+X+X+X+X+X",
"+X+X+X+X+X+X+X+X+X+X+X+X+X+X+X+X+X+X+X+X+X+X+X+X+X+X+X+X+X+X+X+X+X+X+X+XXX].+X+X+X+X+X+X+X+X+X+X+X+X+X+X+X#X+X+X+X+X+X+X+X+X+X+X",
"+X+X+X+X+X+X+X+X+X+X+X+X+X+X+X+X+X+X+X+X+X+X+X+X+X+X+X+X+X+X+X+X+X+X+X+X+X+X+X+X#X+X+X+X+X+X+X+X+X+X+X+X+X+X+X+X+X+X+X+X+X+X+X+X",
"+X+X+X+X+X+X+X+X+X+X+X+X+X+X+X+X+X+X+X+X+X+X+X+X+X+X+X+X+X+X+X+X+X+X+X+X+X+X+X+X+X+X+X+X+X+X+X+X+X+X+X+X+X+X+X+X+X+X+X+X+X+X+X+X",
"+X+X+X+X+X+X+X+X%X+X+X+X+X+X+X+X+X+X+X+X@X+X+X+X+X+X+X+X+X+X+X+X+X+X+X+X+X+X+X+X+X+X+X+X+X+X+X+X+X+X+X+X+X+X+X+X+X+X+X+X+X+X+X+X"
};
