/* XPM */
static char *_B1721607242[] = {
/* columns rows colors chars-per-pixel */
"64 64 233 2 ",
"   c #2E221C",
".  c #37251B",
"X  c #342A26",
"o  c #2E2F33",
"O  c #353436",
"+  c #522E1B",
"@  c #543B2D",
"#  c #493C36",
"$  c #683E26",
"%  c #574234",
"&  c #67422C",
"*  c #744529",
"=  c #704D37",
"-  c #373C44",
";  c #3B424A",
":  c #3C4450",
">  c #484546",
",  c #43454A",
"<  c #544C47",
"1  c #444C58",
"2  c #545252",
"3  c #57575A",
"4  c #6B5348",
"5  c #6A6043",
"6  c #69625E",
"7  c #7C7157",
"8  c #4B5565",
"9  c #575B65",
"0  c #4D5D74",
"q  c #615F60",
"w  c #566271",
"e  c #576376",
"r  c #5B697B",
"t  c #666567",
"y  c #6B6A6D",
"u  c #756A6D",
"i  c #686B73",
"p  c #747374",
"a  c #7B7476",
"s  c #757679",
"d  c #7A797C",
"f  c #B8271D",
"g  c #AD3219",
"h  c #B2362E",
"j  c #C0251D",
"k  c #DE1C23",
"l  c #E31C23",
"z  c #EB1C24",
"x  c #CB2420",
"c  c #DA292C",
"v  c #E2252C",
"b  c #B45316",
"n  c #84761C",
"m  c #AE7712",
"M  c #8D5430",
"N  c #AC6B36",
"B  c #D87735",
"V  c #E07D24",
"C  c #A2594E",
"Z  c #8B6559",
"A  c #956B50",
"S  c #AE754D",
"D  c #A77958",
"F  c #8E766A",
"G  c #887C72",
"H  c #837D7D",
"J  c #B27678",
"K  c #C64E4E",
"L  c #D07F45",
"P  c #9A911F",
"I  c #B6AC11",
"U  c #968F2A",
"Y  c #A99833",
"T  c #B5A433",
"R  c #CABA0A",
"E  c #D1BB06",
"W  c #E1A41F",
"Q  c #D8B02A",
"!  c #CABA3C",
"~  c #D7C905",
"^  c #DDD30C",
"/  c #DACB16",
"(  c #E2D404",
")  c #EADB06",
"_  c #E9D114",
"`  c #F2DD1B",
"'  c #EEE102",
"]  c #F3E503",
"[  c #FBEC02",
"{  c #F8EA09",
"}  c #FFF200",
"|  c #FDF00D",
" . c #F6E718",
".. c #D2C42C",
"X. c #E8D92C",
"o. c #F2DD27",
"O. c #E2D43B",
"+. c #F3E627",
"@. c #EEE330",
"#. c #F1E434",
"$. c #948A45",
"%. c #978A51",
"&. c #AB9753",
"*. c #B8A247",
"=. c #898779",
"-. c #A9836B",
";. c #B38161",
":. c #AD9271",
">. c #B89878",
",. c #BDA968",
"<. c #BCAB78",
"1. c #BDB17E",
"2. c #D4905F",
"3. c #E98A41",
"4. c #CCB949",
"5. c #C5A952",
"6. c #C9B458",
"7. c #C6936D",
"8. c #CD9B79",
"9. c #D39C72",
"0. c #C4AA67",
"q. c #D0AD74",
"w. c #E6A470",
"e. c #CCC143",
"r. c #DAC44B",
"t. c #DAC755",
"y. c #DED55C",
"u. c #E1CC45",
"i. c #E6D84E",
"p. c #EDE042",
"a. c #D9D06B",
"s. c #CCC37A",
"d. c #D5CE74",
"f. c #576B88",
"g. c #5D738C",
"h. c #5D7593",
"j. c #597398",
"k. c #6F788A",
"l. c #7A7D88",
"z. c #677D9A",
"x. c #587CAB",
"c. c #637FA6",
"v. c #867B82",
"b. c #76838E",
"n. c #788596",
"m. c #5A86B3",
"M. c #6A87AB",
"N. c #748FAC",
"B. c #7793B5",
"V. c #2A8DE2",
"C. c #2B94E5",
"Z. c #3997E3",
"A. c #4C8ECD",
"S. c #659AC9",
"D. c #6D9ED0",
"F. c #4AA1DE",
"G. c #60A3D5",
"H. c #77AFD7",
"J. c #4298E4",
"K. c #53AAE7",
"L. c #62A2E4",
"P. c #838284",
"I. c #8A8484",
"U. c #868788",
"Y. c #8D8B8D",
"T. c #868A94",
"R. c #8C8D93",
"E. c #918E92",
"W. c #8F9194",
"Q. c #939295",
"!. c #9B9496",
"~. c #95959A",
"^. c #9B9A9C",
"/. c #A68B82",
"(. c #B49B83",
"). c #A79A98",
"_. c #93A29B",
"`. c #ACAC84",
"'. c #B6A587",
"]. c #ABA29E",
"[. c #B1A999",
"{. c #B8B498",
"}. c #8A96A7",
"|. c #8A99AF",
" X c #979BA6",
".X c #9D9DA3",
"XX c #A29EA2",
"oX c #A89FA4",
"OX c #9BA0AC",
"+X c #98A5B5",
"@X c #A4A2A5",
"#X c #A9A5A4",
"$X c #ADAAA4",
"%X c #A7A6AB",
"&X c #A8A7AA",
"*X c #ABABAD",
"=X c #B0AEA2",
"-X c #A8AAB1",
";X c #AEB8B1",
":X c #B3B3B5",
">X c #B7B7B9",
",X c #BCBBBC",
"<X c #C2BC8C",
"1X c #F7B583",
"2X c #C8C286",
"3X c #DAD29B",
"4X c #809EC5",
"5X c #8AABCE",
"6X c #9CB3CA",
"7X c #89AED3",
"8X c #B0BAC7",
"9X c #92BBE3",
"0X c #A7C4DE",
"qX c #9AC6EA",
"wX c #A4CCEC",
"eX c #ADD5F2",
"rX c #ABD5F4",
"tX c #AAD6F5",
"yX c #C5C4C5",
"uX c #CBC8C3",
"iX c #CCCBCC",
"pX c #D1CECE",
"aX c #D4D4D5",
"sX c #D7D7D8",
"dX c #DBDBDC",
"fX c #E6E2D5",
"gX c #DDDDE0",
"hX c #E4E3E3",
"jX c #E9E8E7",
"kX c #EBEBEC",
"lX c #EFEFEE",
"zX c #F4F4F4",
"xX c #F8F8F7",
/* pixels */
"%X%X%X%X%X%X%X%X%X%X%X%X%X%X%X%X%X%X%X%X%X%X%X%X%X%X%X%X%X%X%X%X&X%X%X%X%X%X%X%X%X%X%X%X%X%X%X%X%X%X%X%X%X%X%X%X%X%X%X%X%X%X%X%X",
"%X%X%X%X%X%X%X%X%X%X%X%X%X%X%X%X%X%X%X%X%X%X%X%X%X%X%X%X%X%X*X{.{.&X%X%X%X%X%X%X%X%X%X%X%X%X%X%X%X%X%X%X%X%X%X%X%X%X%X%X%X%X%X%X",
"%X%X%X%X%X%X%X%X%X%X%X%X%X%X%X%X%X%X%X%X&X%X%X%X%X%X%X%X%X=Xq.#.| y.[.%X%X%X%X%X%X%X%X%X%X%X%X%X%X%X%X%X%X%X%X%X%X%X%X%X%X%X%X%X",
"%X%X%X%X%X%X%X%X%X%X%X%X%X%X%X%X%X%X%X%X%X%X%X%X%X%X%X%X*Xd.| } } } #.$X%X%X%X%X%X%X%X%X%X%X%X%X%X%X%X%X%X%X%X%X%X%X%X%X%X%X%X%X",
"%X%X%X%X%X%X%X%X%X%X%X%X%X%X%X%X%X%X%X%X%X%X%X%X%X%X%X%X$X#.{ [ } } | <X%X%X%X%X%X%X%X%X%X%X%X%X%X%X%X%X%X%X%X%X%X%X%X%X%X%X%X%X",
"%X%X%X%X%X%X%X%X%X%X%X%X%X%X%X%X%X%X%X%X%X%X%X%X%X%X%X%X$X4.Q W W Q +.{.%X%X%X%X%X%X%X%X%X%X%X%X%X%X%X%X%X%X%X%X%X%X%X%X%X%X%X%X",
"%X%X%X%X%X%X%X%X%X%X%X%X%X%X%X%X%X%X%X%X%X%X%X%X%X%X%XoX/.L 3.3.B B S ^.%X%X%X%X%X%X%X%X%X%X%X%X%X%X%X%X%X%X%X%X%X%X-X%X%X%X%X%X",
"%X%X%X%X%X%X%X%X%X%X%X%X%X%X%X%X%X%X%X%X%X%X%X%X%X%X%X).S N M * & * M F %X%X%X%X%X%X%X%X%X%X%X%X%X%X%X%X%X%X%X%X%X%X%X%X%X%X%X%X",
"%X%X%X%X%X%X%X%X%X%X%X%X%X%X%X%X%X%X%X-X%X%X%X%X&X&X&XH * @ $ & $ + . @ ).&X%X%X&X%X%X%X%X%X%X%X%X%X%X%X%X%X%X%X%X%X%X%X%X%X%X%X",
"%X%X%X%X%X%X%X%X%X%X%X%X%X%X%X%X%X%X%X&X%X%X%X%X%X&X#X6 X % w.w.2.*   X &.#X%X%X%X%X%X%X%X%X%X%X%X%X%X%X%X%X%X%X%X%X%X%X%X%X%X%X",
"%X%X%X%X%X%X%X%X%X%X%X%X%X%X%X%X%X%X%X%X%X%X%X%X%X%X^.q X = D 9.D = . # 5 oX%X%X%X%X%X%X%X%X%X&X%X%X%X%X%X%X%X%X%X%X%X%X%X%X%X%X",
"%X%X%X%X%X%X%X%X%X%X%X%X%X%X%X%X%X%X%X%X%X%X%X%X%X%XH 2 4 A 9.9.;.D % % q %X%X%X%X%X%X%X%X%X%X%X%X%X%X%X%X%X%X%X%X%X%X%X%X%X%X%X",
"%X%X%X%X%X%X%X%X%X%X%X&X%X%X%X%X%X%X%X%X%X%X%X%X%X~.U.a < %.1X9.;.;.@ < I.oX%X%X%X%X%X%X%X%X%X%X%X%X%X%X%X%X%X%X@X&X%X&X%X%X%X%X",
"%X%X%X%X%X%X%X%XoX0.4.[.%X%X%X%X%X%X%X%X%X%X%X%X%X~.~.t % % 8.9.;.< X # l.%X%X%X%X%X%X%X%X%X%X%X%X%X%X%X%X%X%X&X1.0.'.&X%X%X%X%X",
"%X%X%X%X%X%X%XoX5. .}  .{.%X%X%X%X%X%X%X%X%X%X>X:X^.^.P.< X 4 -.7 X X > s %X%X%X%X%X%X%X%X%X%X%X%X%X%X%X%X%X%Xs.{ [ _ >.%X%X%X%X",
"%X%X%X%X%X%X%X).&.Y { } y.%X%X%X%X%X%X%X-X>XaXjXjXgXyX:X!.p > < O O > 3 t %X%X%X%X%X&X%X%X%X%X%X%X%X%X%X%X%X$X#.} ^ &.&.%X%X%X%X",
"%X%X%X%X%X%XoXJ Y Y ] } y.%X%X%X%X*X*X:XiXsXzXxXxXzXaXyX;X:X#XR.P.P.P.y E.pXdXyX-X%X%X%X%X%X%X%X%X%X%X%X%X%X$X#.} ^ $.N ).=X*X*X",
"%X%X%X%X%XoXJ K W [ [  .<X-X%X%X%X:XyXsXhXjXxXxXxXdX!.P.U.Q.Q.>X,X:XH t Y.,XjXkXgX>X-X%X%X%X%X%X%X%X%X%X%X%X%Xd.| } ] V K v.oX$X",
"%X%X%X%X%X%XoX).q.[ } y.&X%X%X%X%XiXdXjXkXkXlXlXhX#X].b.y ^.R.>X*X0XW.y p XXaXkXlXzXgXaX8X>X:X%X&X&X%X%X-X%X%X=X@.}  .'.oXoX*X*X",
"%X%X%X%X%X%X%X%X]. .} i.2Xa.a.{.pXjXpXyXsXiXiXyX>Xp T.y t U.s aXfXuXs 3 > v.).sXgXzXzXlXxXlXkXiX:X&X`.{.2Xd.s.2X+.} r.#XoX%X%XoX",
"%X%X%X%X%X%X%X%X[.o.[ [ { } X.3XjXjX,XW.Q.Q.^.^.).3 9 , s i y ].#X!.y ~.3 3 t v.XX:XaXaXsXaXsXgXhX#Xt.p...{ } | { } t.%X*X%X%X%X",
"%X%X%X%X%X%X%X%X[.+.[ ~ }  .d.aXkXaX@XW.Q.).%X&X&Xy , , ;XW.W.jXfX,Xs *Xs < Q.H u u a v.=.H v.oX&XZ ;.8.:.O.} ] ~ [ u.oX%X%X%X%X",
"%X%X%X%X%X%X%X%X#XX.} I { O.{.sXsX>X.X@X%X%X&X%X%Xb.o 3 @X_.:.3XfXuXU.l.Y.3 .XoXXX).Q.Y.P.H a H H 6 4 4 Z *.} ) ~ } t.%X%X%X%X%X",
"%X%X%X%X%X%X%X%X%X0.[ ( I *.=.XX#X@X@X%X%X%X%X%X&XU.O Y.[... .} { p.5.G l.i %X%X%X%X%X%X%X@X&X%X&X%X).D M T ~ I ] ` (.%X%X%X%X%X",
"%X%X%X%X%X%X%X%X%X%X8.r.5.8.7.F Y.@X&X&X%X%X%X%X%XY.2 ,.@.} } } } ' { e.b.a XX%X%X%X%X%X%X%X%X%X%X%X%X#X<.T Q ..r.'.@X%X%X%X%X%X",
"%X%X%X%X%X%X%X%X%X%X&XQ.D >.:./.@X&X%X%X%X%X%X%X%XR.U / I ^ } } ^ %.$.^ &.b.@X%X%X%X%X%X%X%X%X%X%X%X%X%X&X@X].#X@X&X%X%X%X%X%X%X",
"%X%X%X%X%X%X%X%X%X%X%XU.F ).!.).%X%X%X%X%X%X%X%X#XY.5.$.G U ~ E I b.=.I 4.u @X%X%X%X%X%X%X%X%X%X%X%X%X%X&X&X%X%X&X%X%X%X%X%X%X%X",
"%X%X%X%X%X&X%X%X%X%X%X^.I.@X].@X%X%X%X%X%X%X%X%X%XU.4.U 7 P b x b P I ^ T s @X%X%X%X%X%X%X%X%X%X%X%X%X%X%X&X%X%X%X%X%X%X%X%X%X%X",
"%X%X%X%X%X%X%X%X%X%X%X%X@X%X%X%X%X%X%X%X%X%X%X%X&XW.U ] ~ b c z k b R ..5 P.%X%X%X%X%X%X%X%X%X%X%X%X%X%X%X%X%X%X%X%X%X%X%X%X%X%X",
"%X%X%X%X%X%X%X%X%X%X%X%X%X%X%X%X%X%X%X%X%X%X%X%X&X&XH n P x z z z k h M 3 ^.%X%X%X%X%X%X%X%X%X%X%X%X%X%X%X%X%X%X%X%X%X%X%X%X%X%X",
"%X%X%X%X%X%X%X%X%X%X%X%X%X%X%X%X%X%X%X%X%X%X%X%X&XOXd > h z z z z z v v.i Y.%X%X%X%X%X%X%X&X%X%X%X%X%X%X%X%X%X%X%X%X%X%X%X%X%X%X",
"%X%X%X%X%X%X%X%X%X%X%X%X%X%X%X%X%X%X%X&X%X%X%X%X%X@Xi s v z z z z l l C _.|.%X%X%X%X%X%X%X%X%X%X%X%X%X%X%X%X%X%X&X%X%X%X%X%X%X%X",
"%X%X%X%X%X%X%X%X%X%X%X*X%X%X%X%X%X%X%X%X%X%X%X%X@X X`.T f j f f f g b m ..;X+X+X%X%X%X%X%X%X%X%X%X%X%X%X%X%X%X%X%X%X%X%X-X%X%X%X",
"%X%X%X%X%X%X%X%X%X%X%X%X%X%X%X%X%X%X%X%X%X%X%X%X.X`.! ' ~ E R ~ ~ ( ] ( R o.;X+X%X%X%X%X%X%X%X%X%X%X%X%X%X%X%X%X%X%X%X%X%X%X%X%X",
"%X%X%X%X%X%X%X%X%X%X%X%X%X%X%X%X%X%X%X%X%X%X%X%X<.` R ( } } } } [ } } ) I } i.0X%X%X%X%X%X%X%X%X%X%X%X%X%X%X%X%X%X%X%X%X%X%X%X%X",
"%X%X%X%X%X%X%X%X%X%X%X%X%X%X%X%X%X%X%X%X%X%X%X%X,.^ I ] } } } } } } } [ I R q.eX6X%X%X%X%X%X%X%X%X%X%X%X%X%X%X%X%X%X%X%X%X%X%X%X",
"%X%X%X%X%X%X%X-X%X%X%X%X%X%X%X%X%X%X%X%X%X%X%XOX5X$.) } } } } } } } } [ ] T 6XtXwX%X%X%X%X%X%X%X%X%X%X%X%X%X%X%X%X%X%X%X%X%X%X%X",
"%X%X%X%X%X%X%X%X%X%X%X%X%X%X%X%X%X%X%X%X%X%X%X|.qX:X) } } } } } } } } [ ] ,.wXtXeX6X@X%X%X%X%X%X%X%X%X%X%X%X%X%X%X%X%X%X%X%X%X%X",
"%X%X%X%X%X%X%X%X%X%X%X%X%X%X%X%X%X%X%X%X%X%XoX5XrXeX:X4._ [ [ { } [ ] _ &.n.7XwXrX0X%X%X%X%X%X%X%X%X%X%X%X%X%X%X%X%X%X%X%X%X%X%X",
"%X%X%X%X%X%X%X%X%X%X%X%X%X%X%X%X%X%X%X%X%X%X X7XtXtXeX5X}.:.0.6.0.q.'.G 0 h.B.qXrXtX+X%X%X%X%X%X%X%X%X%X*X%X%X%X%X%X%X%X%X%X%X%X",
"%X%X%X%X%X%X%X%X%X%X%X%X%X%X%X%X%X%X%X%X%X%X}.9XtXtXwX5X}..X%X%X-X%X%X@Xl.r g.7XqXtX5X%X%X%X%X%X%X%X%X%X%X%X%X%X%X%X%X%X%X%X%X%X",
"%X%X%X%X%X%X%X%X%X%X%X%X%X%X%X%X%X%X%X%X%X~.N.qXtXtX9XB. X%X%X%X%X%X%X%XXX3 1 h.M.B.}.%X%X%X%X%X%X%X%X%X%X%X%X%X%X%X%X%X%X%X%X%X",
"%X%X%X%X%X%X%X%X%X%X%X%X%X%X%X%X%X%X%X%X%Xs 8 7XtXqX4X}.%X%X%X%X%X%X%X%X.X8 1 0 8 9 T.%X%X%X%X%X-X%X%X%X%X%X%X%X%X%X%X%X%X%X%X%X",
"%X%X%X%X%X%X%X%X%X%X%X%X%X%X%X%X%X%X%X%XXX9 1 r B.B.n.@X%X%X%X%X%X%X%X%XR.1 - - 1 9 .X%X%X%X%X%X%X%X%X%X%X%X%X%X%X%X%X%X%X%X%X%X",
"%X%X%X%X%X%X%X%X%X%X%X%X%X%X%X%X%X%X%X%X X1 > > 2 3 T.%X%X%X%X%X%X%X&X%Xb.f.f.- O b.%X%X%X%X%X%X%X%X%X%X%X%X%X%X%X%X%X%X%X%X%X%X",
"%X%X%X%X%X%X%X%X%X%X%X%X%X%X%X%X%X%X%X%XT.1 , 2 < s .X%X%X%X%X%X%X%X&X Xf.j.j.0 r ).%X%X%X%X%X%X%X%X%X%X%X%X%X%X%X%X%X%X%X%X%X%X",
"%X%X%X%X%X%X%X%X%X%X%X%X%X%X%X%X%X%X%X@Xi ; - , 3 ~.%X%X%X%X%X%X%X%X%XW.e j.x.M.}.&X%X%X%X%X%X%X%X%X%X%X%X%X%X*X%X%X%X%X%X%X%X%X",
"%X%X%X%X%X%X%X%X%X%X%X%X%X%X%X%X%X%X%X@X8 O - : l.%X%X%X%X%X%X%X%X%X%Xb.h.x.x.z..X%X%X%X%X%X%X%X%X%X%X%X%X%X%X%X%X%X%X%X%X%X%X%X",
"*X%X%X%X%X%X%X%X%X%X%X%X%X%X%X%X%X%X%X Xe o o , W.%X%X%X%X%X%X%X%X%XXXl.f.c.f.n.%X%X%X%X%X%X%X%X%X%X%X%X%X%X%X%X%X%X%X%X%X%X%X%X",
"%X%X%X%X%X%X%X%X%X%X%X%X%X%X%X%X%X%X%X~.j.O O P.%X%X%X%X%X%X%X%X%X%XT.f.f.z.M. X%X%X%X%X%X%X%X%X%X%X%X%X%X%X%X%X%X%X%X%X%X%X%X%X",
"%X%X%X%X%X%X%X%X%X%X%X%X%X%X%X%X%X%X@Xk.A.w e ^.%X%X%X%X%X%X%X%X%X.X9 0 z.h.k..X%X%X%X%X%X%X%X%X%X%X%X%X&X%X%X%X%X%X%X%X%X%X%X%X",
"%X%X%X%X%X%X%X%X%X%X%X%X%X%X%X%X%X%X.Xx.Z.Z.m.@X%X%X%X%X%X%X%X%X%X.Xk.z.f.8 T.%X%X%X%X%X%X%X%X%X%X%X%X%X%X%X%X%X-X%X%X%X%X%X%X%X",
"%X%X%X%X%X%X%X%X%X%X%X%X%X%X%X%X%X%X_.A.Z.Z.m.@X%X%X%X%X%X%X%X%X%XOXr g.M.z..X%X%X%X%X%X%X%X%X%X%X%X%X%X%X%X%X%X%X%X%X%X%X%X%X%X",
"%X%X%X%X%X%X%X%X%X%X%X%X%X%X%X%X%X%X}.J.J.J.}.%X%X%X%X%X%X%X%X%X+XL.F.A.m.l.@X%X%X%X%X%X%X%X%X%X%X%X%X%X%X%X%X%X%X%X%X%X%X%X%X%X",
"%X%X%X%X%X%X%X-X%X%X%X%X%X%X%X%X%X%XOXA.Z.S.OX%X%X%X%X%X%X%X%X@X+XL.C.C.V.|.%X%X%X%X%X%X%X%X%X%X%X%X%X%X%X%X%X%X%X%X%X%X%X%X&X%X",
"%X%X%X%X%X%X%X%X%X%X%X%X%X%X%X%X%X&X&XB.m.|.%X%X%X%X%X%X%X%X%X%Xp |.K.Z.V.D.-X%X%X%X%X%X%X%X%X%X%X%X%X%X%X%X%X%X%X%X%X%X%X%X%X%X",
"%X%X%X%X%X%X%X%X&X%X%X%X%X%X%X%X%X%X%X%X@X%X%X%X%X%X%X%X%X*X%X%X@XR.H.J.C.D.%X%X%X%X%X%X%X%X%X%X%X%X%X%X%X%X%X%X&X%X%X%X%X%X%X%X",
"%X%X%X%X%X%X%X%X%X%X%X%X%X%X%X%X%X%X%X%X%X%X%X%X%X%X%X%X%X%X%X%X%X%Xb.K.Z.G.%X%X%X%X%X%X%X%X%X%X%X%X%X%X%X%X%X%X%X%X%X%X%X%X%X%X",
"%X%X%X%X%X%X%X%X-X%X%X%X%X%X%X%X%X%X*X%X%X%X%X%X%X%X%X%X%X%X%X%X%X%XY.b.H.K.+X%X%X%X%X%X%X%X%X%X%X%X%X%X%X%X%X%X%X-X%X%X%X%X%X%X",
"%X%X%X%X%X%X%X%X%X%X%X%X%X%X%X%X%X%X%X%X%X%X%X%X%X%X%X%X%X%X%X%X%X%X%Xv.w b.-X%X%X%X%X%X%X%X%X%X%X%X%X%X%X%X%X%X%X%X%X%X%X%X%X%X",
"%X%X%X%X&X-X%X%X%X%X%X%X%X%X%X%X%X%X%X%X%X%X%X%X%X%X%X%X%X%X%X%X%X%X%X%X@X.X%X%X%X%X%X&X%X%X%X%X%X%X%X%X&X-X%X%X%X%X%X%X%X%X%X%X",
"%X%X%X%X%X%X%X%X%X%X%X%X%X%X%X%X%X%X%X%X%X%X%X%X%X%X%X%X%X%X%X%X%X%X%X%X-X%X%X%X%X%X%X%X%X%X%X%X%X%X%X%X%X%X%X%X%X%X%X%X%X%X%X%X",
"%X%X%X%X%X%X%X%X%X%X&X%X%X%X%X%X%X%X%X%X%X%X%X%X%X%X%X%X%X%X%X%X%X%X%X%X%X%X%X%X%X%X%X%X%X%X%X%X%X%X%X%X%X%X%X%X%X%X&X%X%X%X%X%X",
"%X&X%X%X%X%X%X%X%X%X%X%X%X%X%X%X%X%X%X%X%X%X%X%X%X%X%X%X%X%X%X%X%X%X%X%X%X%X%X%X%X%X%X&X%X%X%X%X%X%X%X%X%X%X%X%X%X%X%X%X%X%X%X%X"
};
