/* XPM */
static char *_A1721607243[] = {
/* columns rows colors chars-per-pixel */
"64 64 238 2 ",
"   c #2E201A",
".  c #2B2A2B",
"X  c #362924",
"o  c #292C32",
"O  c #363232",
"+  c #3A3738",
"@  c #59321D",
"#  c #45342C",
"$  c #563626",
"%  c #463B35",
"&  c #653B26",
"*  c #4F423C",
"=  c #57453C",
"-  c #724A32",
";  c #383E46",
":  c #3E4145",
">  c #3C424A",
",  c #3D4853",
"<  c #454345",
"1  c #4D4B4C",
"2  c #554B49",
"3  c #454B57",
"4  c #4B515B",
"5  c #585658",
"6  c #70534A",
"7  c #675A59",
"8  c #726258",
"9  c #4B5566",
"0  c #555964",
"q  c #535F77",
"w  c #605F60",
"e  c #5D6065",
"r  c #576478",
"t  c #646263",
"y  c #696669",
"u  c #746969",
"i  c #676B75",
"p  c #6D6E72",
"a  c #6A7079",
"s  c #737375",
"d  c #7A7172",
"f  c #74757A",
"g  c #78787C",
"h  c #7A7A7D",
"j  c #C6301D",
"k  c #DC1F25",
"l  c #E31C23",
"z  c #EC1C24",
"x  c #D53237",
"c  c #BA4F16",
"v  c #B96A14",
"b  c #865837",
"n  c #B15B2B",
"m  c #AF6B33",
"M  c #C45915",
"N  c #CE7638",
"B  c #CD3E43",
"V  c #8D5646",
"C  c #BA5A5C",
"Z  c #866156",
"A  c #8F6E57",
"S  c #9E7457",
"D  c #AD6D4D",
"F  c #9E7060",
"G  c #847A7A",
"H  c #A77A73",
"J  c #C96249",
"K  c #938616",
"L  c #B58710",
"P  c #BFB605",
"I  c #BDB20B",
"U  c #B9AF14",
"Y  c #A59025",
"T  c #B4AC2A",
"R  c #B4A834",
"E  c #C1810D",
"W  c #C4B807",
"Q  c #D6B806",
"!  c #C4BA19",
"~  c #C6B626",
"^  c #CDAC3A",
"/  c #D7BE39",
"(  c #D7CC06",
")  c #D7CA13",
"_  c #DED118",
"`  c #E4D805",
"'  c #EADE03",
"]  c #EED90D",
"[  c #EFE30E",
"{  c #F7E806",
"}  c #FBED02",
"|  c #FFF100",
" . c #FAED12",
".. c #F7E91A",
"X. c #D8CD2B",
"o. c #DAC833",
"O. c #E6D928",
"+. c #E7DC36",
"@. c #F5E826",
"#. c #B79446",
"$. c #B89257",
"%. c #888671",
"&. c #AC8269",
"*. c #B68563",
"=. c #B29473",
"-. c #BAA96E",
";. c #D18C4A",
":. c #CBBC45",
">. c #CBB150",
",. c #C5B75B",
"<. c #C5AB67",
"1. c #C9B463",
"2. c #DCA178",
"3. c #C3B87A",
"4. c #EBAA76",
"5. c #D9C44A",
"6. c #DAD24E",
"7. c #E6DC4A",
"8. c #E3D956",
"9. c #ECE24F",
"0. c #D3CB74",
"q. c #E7E078",
"w. c #576C89",
"e. c #536E8D",
"r. c #5A769B",
"t. c #677589",
"y. c #747C87",
"u. c #7D7E83",
"i. c #677C95",
"p. c #637B9B",
"a. c #767F91",
"s. c #5B7AA6",
"d. c #507DB5",
"f. c #617BA1",
"g. c #817E82",
"h. c #7B828E",
"j. c #6C829C",
"k. c #76869B",
"l. c #5D86B5",
"z. c #6884A8",
"x. c #738CA9",
"c. c #7791AC",
"v. c #6485B3",
"b. c #728EB0",
"n. c #7A95B5",
"m. c #3A9BDD",
"M. c #2B90E4",
"N. c #3A98E4",
"B. c #498FD0",
"V. c #6796C1",
"C. c #7A9EC4",
"Z. c #59A8DC",
"A. c #72A7CF",
"S. c #4699E3",
"D. c #6DAEE6",
"F. c #828285",
"G. c #84858A",
"H. c #8B8588",
"J. c #8C8A8C",
"K. c #968B8C",
"L. c #8C8C91",
"P. c #858B9A",
"I. c #918F92",
"U. c #89919C",
"Y. c #939295",
"T. c #95959A",
"R. c #9A9698",
"E. c #9B9A9D",
"W. c #AD9689",
"Q. c #A79D8A",
"!. c #A89997",
"~. c #A49C9B",
"^. c #ABA189",
"/. c #B7A987",
"(. c #BDB183",
"). c #AAA599",
"_. c #ABA29C",
"`. c #B3A996",
"'. c #B9B497",
"]. c #8B95A6",
"[. c #9398A4",
"{. c #9D9DA3",
"}. c #849AB6",
"|. c #909DB3",
" X c #A49EA2",
".X c #A89EA3",
"XX c #9CA1AB",
"oX c #8AA3BE",
"OX c #9AA7B8",
"+X c #A4A2A5",
"@X c #AAA7A5",
"#X c #A7A6AB",
"$X c #A9A7A9",
"%X c #ABABAD",
"&X c #B3B3AB",
"*X c #A9ACB3",
"=X c #B1AFB2",
"-X c #B4B2B5",
";X c #B6B8BA",
":X c #BCBBBD",
">X c #C2BB87",
",X c #F3B282",
"<X c #C1BEB6",
"1X c #CBC485",
"2X c #D7D195",
"3X c #DDD7A1",
"4X c #EAE5B0",
"5X c #86A6C5",
"6X c #8CABCC",
"7X c #97ACC5",
"8X c #86ABD2",
"9X c #8DB3D9",
"0X c #94B8D8",
"qX c #A2B5CB",
"wX c #95BEE3",
"eX c #9AC4E7",
"rX c #9FCCF1",
"tX c #A5CBE9",
"yX c #AAD5F3",
"uX c #ACD5F3",
"iX c #A9D5F5",
"pX c #AED9F5",
"aX c #C4C2C4",
"sX c #C7C5C8",
"dX c #CCCBCD",
"fX c #D0CECF",
"gX c #D8D6C9",
"hX c #CCCDD0",
"jX c #D3D3D4",
"kX c #D7D6D8",
"lX c #DCDCDC",
"zX c #E5E4DB",
"xX c #E6E5E5",
"cX c #EBEAEA",
"vX c #F2F1EE",
"bX c #EEEEF0",
"nX c #F3F3F4",
"mX c #F9F8F7",
/* pixels */
"#X#X#X#X#X#X#X#X#X#X#X#X#X#X#X#X#X#X#X#X#X#X#X#X#X#X#X#X#X#X#X#X#X#X#X#X#X#X#X#X#X#X#X#X#X#X#X#X#X#X#X#X#X#X#X%X#X#X#X#X#X#X#X#X",
"#X#X#X#X#X#X#X#X#X#X#X#X#X#X#X#X#X#X#X#X#X#X#X%X#X#X#X#X#X#X#X#X#X#X#X#X#X#X#X#X#X#X#X#X#X#X#X#X#X#X#X#X#X#X#X#X#X#X#X#X#X#X#X#X",
"#X#X#X#X#X#X#X#X#X#X#X#X#X#X#X#X#X#X#X#X#X#X#X#X#X#X#X#X#X#X#X*X#X#X#X#X#X#X#X#X#X#X#X#X#X#X#X#X#X#X#X#X#X#X#X#X#X#X#X#X#X#X#X#X",
"#X#X#X#X#X#X#X#X#X#X#X#X#X#X#X#X#X#X#X#X#X#X#X#X#X#X#X#X#X#X.X%X.X#X#X#X#X#X#X#X#X#X#X#X#X%X#X#X#X#X#X#X#X#X#X#X#X#X#X#X#X#X#X#X",
"#X#X#X#X#X#X#X#X#X#X#X#X#X#X#X#X#X#X#X#X#X#X#X#X#X#X%X#X.X&.;.N J D !.#X#X#X#X#X#X#X#X#X#X#X#X#X#X#X#X#X#X#X#X#X#X#X#X#X#X#X#X#X",
"#X#X#X#X#X#X#X#X#X#X#X#X#X#X#X#X#X#X#X#X#X#X#X#X#X#X%X+X&.N ;.N N N D !.#X#X#X#X#X#X#X#X#X#X#X#X#X#X#X#X#X#X#X#X#X#X#X#X#X#X#X#X",
"#X#X#X#X#X#X#X#X#X#X#X#X#X#X#X#X#X#X#X#X#X#X#X#X#X#X#XK.D b - & $ $ & Z #X#X#X#X#X#X%XXX#X#X$X$X#X#X#X#X#X#X#X#X#X#X#X#X#X#X#X#X",
"#X#X#X#X#X#X#X#X#X#X#X#X#X#X#X@X-.(.$X#X#X#X#X#X#X#X#Xg.$ $ b b - @ X # T.#X#X#X#X#X$X$X$X$X/.).#X#X#X#X#X#X#X#X#X%X#X#X#X#X#X#X",
"#X#X#X#X#X#X#X#X#X#X#X#X#X#X@X:.}  .7.'.#X#X#X#X$X%X@X8 X = 2.4.4.-   % s #X#X#X#X#X#X#X'.6.@.O.-.#X#X#X#X#X#X#X#X#X#X#X#X#X#X#X",
"#X#X#X#X#X#X#X#X#X#X#X#X#X#X<.{ | | | 8.#X#X#X#X$XXXJ.5 # - S $.D - X % 7 #X#X#X#X#X#X$X8.| | | ] Q.#X#X#X#X#X#X#X#X#X#X#X#X#X#X",
"#X#X#X#X#X#X#X#X#X#X#X#X#X#X1.} | | | 8.#X#X#X#X$XXXh 5 Z &.,X2.*.*.= = s +X#X#X#X#X#X'.@.| | | } <.#X#X#X#X#X*X#X#X#X#X#X#X#X#X",
"#X#X#X#X#X#X#X#X#X#X#X#X#X.X/.O.| |  .1X#X#X#X#X$XY.H.d * A ,X2.*.S # * J.#X#X#X#X#X#X#X7.| | } ] >X#X#X#X#X#X#X#X#X#X#X#X#X#X#X",
"#X#X#X#X#X#X#X#X#X#X#X#X#X#X.XJ Q | 7.%X#X#X#XOX$XT.E.s = X *.2.&.* X * s $X#X#X#X#X+X$X'...| ` #.@X$X#X#X#X#X#X#X#X#X#X#X#X#X#X",
"#X#X#X#X#X#X#X#X#X#X#X#X#X#X XC L | ..8.0.'.&X2X:X%XE.Y.0 + = A 2   O 2 f XX#XXXQ.#X@X&X1X@.} v B  X#X#X#X#X#X#X#X#X#X#X#X#X#X#X",
"#X#X#X#X#X#X#X#X#X#X#X#X#X#X#X~.~ } ' T 2X3XzXnXvXcXjX&X@Xu.t 1 * : 5 t p &X-X).o.0.6.O._ } { R W.#X#X#X#X#X#X#X#X#X#X#X#X#X#X#X",
"#X#X#X#X#X#X#X#X#X#X#X#X#X#X#X/.! | 9.2XhXzXnXmXmXcXdX:X@X:X#X).E.T.h.y Y.gXcXsX1X} ' I ( { { ! _.#X#X#X#X#X#X#X#X#X#X#X#X#X#X#X",
"#X#X#X#X#X#X#X#X#X#X#X#X#X#X#X/.~ 0.gXzXlXcXmXmXmXfXY.h f I.L.:X:X:XG.t H.=XxXbXcX4Xq.R  .| ' T `.#X#X#X#X#X#X#X#X#X#X#X#X#X#X#X",
"#X#X#X#X#X#X#X#X#X#X#X#X#X#X#X+X'.fXkXxXcXxXcXcXlXR.XXF.y E.Y.:X=X-XJ.u y E.dXcXcXmXnXzXgX3X1X,._.#X#X#X#X#X#X#X#X#X#X#X#X#X#X#X",
"#X#X#X#X#X#X#X#X#X#X#X#X#X#X#X=XkXcXdX<XsX:X:X-X@Xy y.t t h p hXkXsXp t 1 h J.sXkXnXbXxXmXvXnXfX:X#X#X#X%X#X#X#X#X#X#X#X#X#X#X#X",
"#X#X#X#X#X#X#X#X#X#X#X#X#X#X#XsXcXxX-XF.J.I.E.~.+X0 5 ; h.p h %X*XY.p #X5 5 u d J.Y.<XaXaXaXsXkXxX!.`._..X.X#X#X#X#X#X#X#X#X#X#X",
"#X#X#X#X%X#X#X#X#X#X#X#X#X+X*XkXcXfX+XY.E. X#X#X#Xf : 1 ;X{.Y.cXcX3Xt.{.u.1 R.J.G d d d h d d J.K.6 F W.H W.#X#X#X#X#X#X#X#X#X#X",
"#X#X#X#X#X#X#X#X#X#X#X#X#XY.R.dXsX-X{.+X#X#X#X#X#XG.. t T.L.L.lXcXjXG.f G.y  X#X+X+X XR.L.L.H.%.K.g.6 - V g.#X#X#X#X#X#X#X#X#X#X",
"#X#X#X#X#X#X#X#X#X#X+X+X~.$.~ 1.^.XX#X#X#X#X#X#X#XL.+ T.;Xs L.hXlXlXL.y.u.y +X#X#X#X#X#X#X#X$X).3.>.-.K.g.!.#X#X#X#X#X#X#X#X#X#X",
"#X#X#X#X#X#X#X#X#X#X#X!.^ { | | ..3.#X#X#X#X#X#X#XI.1 Y.#Xh *XhXhXlX{.s g.u.+X#X#X#X#X#X#X$X>X+. .} { >.!.$X#X#X#X#X#X#X#X#X#X#X",
"#X#X#X#X#X#X#X#X#X#X#X$.~ _ | W T O.'.+X#X#X#X#X#XL.w a G.y.=XhXjXhXqXg g g.#X#X#X#X#X#X#X'.O.T ) } ` o.;.#X#X#X#X#X#X#X#X#X#X#X",
"#X#X#X#X#X#X#X#X#X#X+X#.%.R ` %.%.) 0.#X#X#X#X#X#XL.Y.1 a..X=X-XqX*X*Xg.d p  X#X#X#X#X#X#X1X_ %.%.( R %.$..X#X#X#X#X#X#X#X#X#X#X",
"#X#X#X#X#X#X#X#X#X#X+X^ T v v m U O.'.#X#X#X$X$X$XH.y 5 ~.=X<XaX<X;XaX=X1 u..X#X#X#XXX$X#X'.@.U Y v m T ^ +X#X#X#X#X#X#X#X#X#X#X",
"#X#X#X#X#X#X#X#X#X#X#X^.m k l M X.0.#X#X#X#X#X$X$XR.2 O 2 t u 8 8 2 & 2 < L.#X#X%X+X%X$X#XXX(.+.c k l m (.+X#X#X#X*X#X#X#X#X#X#X",
"#X#X#X#X#X#X#X#X#X#X#X.XB z z j -.#X#X#X#X#XXX%X#X#Xg.X $ 6 - 6 V Z V Z 7  X#X#X$X$X$X$X%XXXOX-.j z z x .X.X#X#X#X#X#X#X#X#X#X#X",
"#X#X#X#X#X#X#X#X#X#X#X!.x l l j :.0.1X@X#X+XQ.+X#X+Xi 9 t.j.k.k.t.k.}.}.t.g. X#XXXR.XX@X).'.0.5.j l l x !.#X#X#X#X#X#X#X#X#X#X#X",
"#X#X#X#X#X#X#X#X#X#X#X+XH n M E ( }  .X.,.o.o. X#XXXa c.c.x.oXeX0XwX9X5X0X5X#X#X{.o.6.,.X. .{ ` v v c H .X#X#X#X#X#X#X#X#X#X#X#X",
"%X#X#X#X#X#X#X#X#X#X#X#X/.[ | | P | | ( K ( -.XX#X[.5XeXeX5Xj.C.5X9X5X6X0XeX7X#X$X3.( K ( | } ( } } { (.#X#X#X#X#X#X#X#X#X#X#X#X",
"#X#X#X#X#X#X#X#X#X#X#X#X-.} | | W ` | } U ) /.#X{.}.0XtXtXtX0Xb.p.p.n.}.6XtXuX*X#X`._ I } } ` W } | | <.#X#X#X#X#X#X#X#X#X#X#X#X",
"#X#X#X#X#X#X#X#X#X#X#X#X=.{ | | ' I I I U o. X#X|.eXpXtXoXc.j.p.9 q q i.5X0XpXtX*X@X:.! I W W ' | | { =.#X#X#X#X#X#X#X#X#X#X#X#X",
"#X#X#X#X#X#X#X#X#X#X#X#X~.>.[ | | } ' _ / W.XX X6XyXpXuX0XoXt.3 o o q c.C.9XyXpXqX#X!.5.) ' { | } [ >.~.#X#X#X#X#X#X#X#X#X$X#X#X",
"#X#X#X#X#X#X#X#X#X#X#X#X#X X^.<.5.5.,.^._.#X#X{.0XyXpXyX0X5Xp.i 5 . ; w.n.wXyXpXtXOX#X X^.,.5.:.<.^.).+X#X#X#X#X#X#X#X#X#X#X#X#X",
"#X#X#X#X#X#X#X#X#X#X#X#X#X#X#X#X+X#X#X#X#X#X#X7XtXpXpXtX6X5Xx.{.#Xu.< r.b.A.tXyXyXqX#X#X#X#X#X#X@X+X#X#X#X#X#X#X#X#X#X#X#X#X#X#X",
"#X#X#X#X#X#X#X#X#X#X#X#X#X#X#X#X#X#X#X#X#X#X{.6XyXpXpXeX8Xn.T.+X#X#XL.4 v.b.8XeXyXtXXX#X#X#X#X#X#X#X#X#X#X#X#X#X#X#X#X#X#X#X#X#X",
"#X#X#X#X#X#X#X#X#X#X#X#X#X#X#X#X#X#X#X#X#X#X|.9XiXpXiX9Xn.U.#X#X#X#X#XL.9 e.b.eXyXiXqX#X#X#X#X#X#X#X#X#X#X#X#X#X#X#X#X#X#X#X#X#X",
"#X#X#X#X#X#X#X#X#X#X#X#X#X#X#X#X#X#X#X#X#X#X].wXiXpXrXC.U.+X#X#X#X#X#X#XL.q r C.eXeX7X X#X#X#X#X#X#X#X#X#X#X#X#X#X#X#X#X#X#X#X#X",
"#X#X#X#X#X#X#X#X#X#X#X#X#X#X#X#X#X#X#X#X#XJ.j.eXpXyX9X}.XX+X#X#X#X#X#X#X X4 , w.p.p.]..X#X#X#X#X#X#X%X#X#X#X#X#X#X#X#X#X#X#X#X#X",
"#X#X#X#X#X#X#X#X#X#X#X#X#X#X#X#X#X#X#X#X#Xi , 5XrXwXn.{.#X#X#X#X#X#X#X#X{.4 3 3 4 9 Y.#X#X#X#X#X#X#X#X#X#X#X#X#X#X#X#X#X#X#X#X#X",
"#X#X#X#X#X#X#X#X#X#X#X#X#X#X#X#X#X#X#X#X{.0 4 9 i.j.k.+X#X#X#X#X#X#X#X#XP.4 ; ; > t  X#X#X#X#X#X#X#X#X#X#X#X#X#X#X#X#X#X#X#X#X#X",
"#X#X#X#X#X#X#X#X#X#X#X#X#X#X#X#X#X#X#X#XR.3 < 1 2 5 Y.#X#X#X#X#X#X#X#XXXt.e.s., ; J.#X#X#X#X#X#X#X#X#X#X#X#X#X#X#X#X#X#X#X#X#X#X",
"#X#X#X#X#X#X#X#X#X#X#X#X#X#X#X#X#X#X#X#Xh.3 : 1 2 h.$X#X#X#X#X#X#X#X#X[.r r.e.w.t. X#X#X#X#X#X#X#X#X#X#X#X#X#X#X#X#X#X#X#X#X#X#X",
"#X#X#X#X#X#X#X#X#X#X#X#X#X#X#X#X#X#X#X+Xe ; > > 0 {.$X%X#X#X#X#X#X#X#XJ.q s.v.z.].#X#X#X#X#X#X#X#X#X#X#X#X#X#X#X#X#X#X#X#X#X#X#X",
"#X#X#X#X#X#X#X#X#X#X#X#X#X$X#X#X#X#X#X+X0 o ; > h.+X#X#X#X#X#X$X#X#X+Xa.p.s.s.i.+X#X#X#X#X#X#X#X#X#X#X#X#X#X#X#X#X#X#X#X#X%X#X#X",
"#X#X#X#X#X#X#X#X#X#X#X#X#X#X#X#X#X#X#XXXr o o 4 T.#X#X#X#X#X#X#X#X#X{.y.q v.r.P.#X#X#X#X#X#X#X#X#X#X#X#X#X#X#X#X#X#X#X#X#X#X#X#X",
"#X#X#X#X#X#X#X#X#X#X#X#X#X#X#X#X#X#X#XU.r.: : L.+X$X#X#X#X#X#X#X#X#Xa.t.p.w.p.{.#X#X#X#X#X#X#X#X#X#X#X#X#X#X#X#X#X#X#X#X#X#X#X#X",
"#X#X#X#X#X#X#X#X#X#X#X#X#X#X#X#X#X#XXXj.B.e.t. X$X$X#X#X#X#X#X#X#X X0 9 p.f.a. X#X#X#X#X#X#X#X#X#X#X#X#X#X#X#X#X#X#X#X#X#X#X#X#X",
"#X#X#X#X#X#X#X#X#X#X#X#X#X#X#X#X#X#XE.d.N.N.l.XX#X#X#X#X#X#X#X#X#X{.y.z.w.0 P.#X#X#X#X#X#X#X#X#X#X#X#X#X#X#X#X#X#X#X#X#X#X#X#X#X",
"#X#X#X#X#X#X#X#X#X#X#X%X#X#X#X#X#X$X].B.M.N.b.XX#X#X#X#X#X#X#X#X$X5Xr.e.p.i.{.#X#X#X#X#X#X#X#X#X#X#X#X#X#X#X#X#X#X#X#X#X#X#X#X%X",
"#X#X#X*X#X#X#X#X#X#X#X#X#X#X#X#X#X#X[.B.S.B.].#X#X#X#X#X#X#X#X#X7XZ.S.m.B.a. X#X#X#X#X#X#X#X#X#X#X#X#X#X%X#X#X#X#X#X#X#X#X#X#X#X",
"#X#X#X#X#X#X#X#X#X#X#X#X#X#X#X#X#X#XXXB.N.V.XX#X#X#X#X#X#X#X$XXXU.D.N.M.M.}.#X#X#X#X#X#X#X#X#X#X#X#X#X#X#X#X#X#X#X#X#X#X#X#X#X#X",
"#X#X#X#X#X#X#X#X#X#X#X#X#X#X#X#X#X#X+X|.n.XX#X#X#X#X#X#X#X#X#X#Xg.U.D.N.M.A.#X#X#X#X#X#X#X#X%X#X#X#X#X#X#X#X#X#X#X#X#X#X#X#X#X#X",
"#X#X#X#X#X#X#X#X#X#X#X#X#X#X#X#X#X#X#X#X#XXX#X#X#X#X#X#X#X#X#X#X#XR.C.N.M.A.#X#X#X#X#X*X#X#X#X#X#X#X#X#X#X#X#X#X#X#X#X#X#X#X#X#X",
"#X#X#X#X#X#X#X#X#X#X#X#X#X#X#X#X#X#X#X#X#X#X#X#X#X#X#X#X#X#X#X#X#X Xy.D.N.Z.#X#X#X#X#X#X#X#X#X#X#X#X#X#X#X#X#X#X#X#X#X#X#X%X#X#X",
"#X#X#X#X#X#X#X#X%X#X#X#X#X#X#X#X#X#X#X#X#X#X#X#X#X#X#X#X#X#X#X#X#X#XT.p 5XZ.OX#X#X#X#X#X#X#X#X#X#X#X#X#X#X#X#X#X#X#X#X#X#X#X#X#X",
"#X#X#X#X#X#X#X#X#X#X#X#X#X#X#X#X#X#X#X#X#X#X#X#X#X#X#X#X#X%X#X#X#X#X#XT.y h.$X#X#X#X#X#X#X#X#X#X#X#X#X#X#X#X#X#X#X#X#X#X#X#X#X#X",
"#X#X#X#X#X#X#X#X#X#X#X#X#X#X#X#X#X#X#X#X#X#X#X#X#X#X#X#X#X#X#X#X#X#X#X#X$X#X#X#X#X#X#X#X#X#X#X#X#X#X#X#X#X#X#X#X#X#X#X#X#X#X#X#X",
"#X#X#X#X#X#X#X#X#X#X#X#X#X#X#X#X%X#X#X#X#X#X#X#X#X#X#X#X#X#X#X#X#X#X$X#X$X#X#X#X#X#X#X#X#X#X#X#X#X#X#X#X#X#X#X#X#X#X#X#X#X#X#X#X",
"#X#X#X#X#X#X#X#X#X#X#X#X#X#X#X#X#X#X#X#X#X#X#X#X#X#X#X#X#X#X#X#X#X#X#X#XXX%X$X#X#X#X#X#X#X#X%X#X#X#X#X#X#X#X%X#X#X#X#X#X#X#X#X#X",
"#X#X#X#X#X#X#X%X#X#X#X#X#X#X#X#X#X#X#X#X#X#X#X#X#X#X#X#X#X#X#X#X#X#X#X#X#X#X#X#X#X#X#X#X#X#X#X#X#X#X#X#X#X#X#X#X#X#X#X#X#X#X#X#X",
"#X#X#X#X#X#X#X#X#X#X#X#X#X#X#X#X#X#X#X#X#X#X#X#X#X#X#X#X#X#X#X#X#X#X#X#X#X#X#X#X#X#X#X#X#X#X#X#X#X#X#X#X#X#X#X#X#X#X#X#X#X#X#X#X"
};
