/* XPM */
static char *_B1721607243[] = {
/* columns rows colors chars-per-pixel */
"64 64 231 2 ",
"   c #291D19",
".  c #32221A",
"X  c #2D2D2F",
"o  c #342923",
"O  c #3A3839",
"+  c #59321D",
"@  c #45342C",
"#  c #573622",
"$  c #463B35",
"%  c #623A24",
"&  c #4F423C",
"*  c #57453C",
"=  c #6B462F",
"-  c #7C4D31",
";  c #72513D",
":  c #383E45",
">  c #3E4145",
",  c #3C424A",
"<  c #3D4853",
"1  c #454344",
"2  c #4C4B4D",
"3  c #544C47",
"4  c #454C57",
"5  c #4B515B",
"6  c #575658",
"7  c #71574A",
"8  c #7A6D4E",
"9  c #67615D",
"0  c #4D586C",
"q  c #565A64",
"w  c #5D6065",
"e  c #58667A",
"r  c #646263",
"t  c #65656A",
"y  c #6B686B",
"u  c #756B6C",
"i  c #6D6E72",
"p  c #69697B",
"a  c #6A7179",
"s  c #747374",
"d  c #7A7372",
"f  c #75767B",
"g  c #7B7A7C",
"h  c #BB241D",
"j  c #AF311C",
"k  c #DE1C23",
"l  c #E31C23",
"z  c #EB1C24",
"x  c #CB2420",
"c  c #E22A35",
"v  c #B45316",
"b  c #AC7313",
"n  c #865837",
"m  c #AC6B36",
"M  c #CF7737",
"N  c #E07D24",
"B  c #E13944",
"V  c #80594D",
"C  c #AE5557",
"Z  c #877157",
"A  c #9E7359",
"S  c #A57859",
"D  c #8E7764",
"F  c #857A78",
"G  c #B27678",
"H  c #C64E4E",
"J  c #9A911F",
"K  c #B5AC0E",
"L  c #BCB215",
"P  c #98902A",
"I  c #AF912F",
"U  c #A79B3C",
"Y  c #B8A62C",
"T  c #BFAC3C",
"R  c #C9B90A",
"E  c #D1BB06",
"W  c #C7B712",
"Q  c #D5952F",
"!  c #E89F27",
"~  c #C7B233",
"^  c #D6C807",
"/  c #DACE0F",
"(  c #DED114",
")  c #E2D404",
"_  c #EBDB05",
"`  c #E6CC17",
"'  c #EBD618",
"]  c #F2DD1B",
"[  c #EEE102",
"{  c #F2E503",
"}  c #F7E807",
"|  c #FBEC02",
" . c #FFF200",
".. c #F6E719",
"X. c #D3C52E",
"o. c #D7C739",
"O. c #E8D828",
"+. c #F2DD27",
"@. c #F3E626",
"#. c #EFE331",
"$. c #8D8C4E",
"%. c #938C46",
"&. c #9E9148",
"*. c #AE9350",
"=. c #AC9255",
"-. c #B9A44E",
";. c #928B7B",
":. c #AB8568",
">. c #B68465",
",. c #AE9571",
"<. c #B9AC70",
"1. c #BAA978",
"2. c #DF8640",
"3. c #CEB041",
"4. c #C5AC57",
"5. c #C8B359",
"6. c #D19972",
"7. c #C4AA67",
"8. c #D0AC73",
"9. c #EBAA76",
"0. c #D5C54E",
"q. c #DED55C",
"w. c #E1CC45",
"e. c #E6D84E",
"r. c #EEE043",
"t. c #D6CD6E",
"y. c #CCC37A",
"u. c #D9D073",
"i. c #566C89",
"p. c #536E8D",
"a. c #5A769B",
"s. c #67758A",
"d. c #787D85",
"f. c #677C97",
"g. c #767F91",
"h. c #5B7AA6",
"j. c #617BA1",
"k. c #807C81",
"l. c #6A819D",
"z. c #798493",
"x. c #5D86B5",
"c. c #6884A8",
"v. c #718EAE",
"b. c #7992AE",
"n. c #7C95B9",
"m. c #3A9BDD",
"M. c #2B90E4",
"N. c #3A98E4",
"B. c #498FD0",
"V. c #709BC4",
"C. c #59A8DC",
"Z. c #6EA7D0",
"A. c #4699E3",
"S. c #41A3E6",
"D. c #6DAEE6",
"F. c #828184",
"G. c #8A8687",
"H. c #84858A",
"J. c #8C898C",
"K. c #948C8B",
"L. c #9C968A",
"P. c #8C8C91",
"I. c #848B9A",
"U. c #908F93",
"Y. c #89919C",
"T. c #939294",
"R. c #959599",
"E. c #98989B",
"W. c #9B9A9D",
"Q. c #B39E8A",
"!. c #A89998",
"~. c #ABA58A",
"^. c #B7A688",
"/. c #AAA39C",
"(. c #B2A898",
"). c #B6B199",
"_. c #8A96A6",
"`. c #9398A7",
"'. c #9D9DA3",
"]. c #859AB4",
"[. c #9599B2",
"{. c #A39EA3",
"}. c #A89FA4",
"|. c #9CA1AD",
" X c #8DA4BD",
".X c #9AA7B8",
"XX c #A4A2A5",
"oX c #ABA8A4",
"OX c #A7A6AB",
"+X c #A8A7AA",
"@X c #ABAAAC",
"#X c #ABB5AD",
"$X c #AAACB3",
"%X c #B1AFB2",
"&X c #B4B2B5",
"*X c #B6B6B8",
"=X c #B7B9B9",
"-X c #BCBBBD",
";X c #C2BC8C",
":X c #F3B282",
">X c #BAC8AD",
",X c #CDC685",
"<X c #DBD4BD",
"1X c #87A7C6",
"2X c #97ADC5",
"3X c #91B4D7",
"4X c #A1B1C4",
"5X c #BFBEC2",
"6X c #A2BAD1",
"7X c #94BEE6",
"8X c #ADC2C3",
"9X c #99C5E9",
"0X c #9FCCF1",
"qX c #A8CBE7",
"wX c #ACD5F3",
"eX c #AAD6F6",
"rX c #B0D8F6",
"tX c #C3C2C4",
"yX c #C7C5C8",
"uX c #CCCBCC",
"iX c #D0CFD1",
"pX c #D2D2D2",
"aX c #D7D7D7",
"sX c #DDDDDD",
"dX c #E1E0DF",
"fX c #E3E2E3",
"gX c #E9E8E7",
"hX c #EBEAEA",
"jX c #F0F0F0",
"kX c #F3F3F3",
"lX c #F9F8F7",
/* pixels */
"OXOXOXOXOXOXOXOXOXOXOXOXOXOXOXOXOXOXOXOXOXOXOXOXOXOXOXOX+X+X+X}.OXOXOXOXOXOXOXOXOXOXOXOXOXOXOXOXOXOXOXOXOXOXOXOXOXOXOXOXOXOXOXOX",
"OXOXOXOXOXOXOXOXOXOXOXOXOXOXOX+XOXOXOXOXOXOXOXOXOXOXOXOX+X+X@X).;X@XOXOXOXOXOXOXOXOXOXOXOXOXOXOXOXOXOXOXOXOXOXOXOXOXOXOXOXOXOXOX",
"OXOXOXOX+XOXOXOXOXOXOXOXOXOXOXOXOXOXOXOXOXOXOXOXOXOXOXOX+XoX;X#...q.).OXOXOXOXOXOXOXOXOXOXOXOXOXOXOXOXOXOXOXOXOXOXOXOXOXOXOXOXOX",
"OXOXOXOXOXOXOXOXOX+XOXOXOXOXOXOXOXOXOXOXOXOXOXOXOXOXOXOX+Xu...} | | #.+XOXOXOXOXOXOXOXOXOXOXOXOXOXOXOXOXOXOXOXOXOXOXOXOXOXOXOXOX",
"OXOXOXOXOXOXOXOXOXOXOXOXOXOXOXOXOXOXOXOXOXOXOXOXOXOXOXOX/.3.! Q Q Q O.;XOXOXOXOXOXOXOXOXOXOXOXOXOXOXOXOXOXOXOXOXOXOXOXOXOXOXOXOX",
"OXOXOXOXOXOXOXOXOXOXOXOXOXOXOX+XOXOXOXOXOXOXOXOXOXOXOX}.>.M M Q M M m ^.OXOXOXOXOXOXOXOXOXOXOXOXOXOXOXOXOXOXOXOX@XOXOXOXOXOXOXOX",
"OXOXOXOXOXOXOXOXOXOXOXOXOXOXOXOXOXOXOXOXOXOXOXOXOXOXOXT.C n % = + + - V OXOXOXOXOXOXOXOXOXOXOXOXOXOXOXOXOXOX@XOXOXOXOXOXOXOXOXOX",
"OXOXOXOXOXOXOXOXOXOXOXOXOXOXOXOXOXOXOXOXOXOXOXOXOX$XOXF % # n n - + . @ R.OXOXOXOXOXOXOXOXOXOXOXOXOXOXOXOXOXOXOXOXOXOXOXOXOXOXOX",
"OXOXOXOXOXOXOXOXOXOXOXOXOXOXOXOXOXOXOXOXOXOXOXOX+X+XoX9   = 9.9.6.-   @ d }.XXOXOXOXOXOXOXOXOXOXOXOXOXOXOXOXOXOXOXOXOXOXOXOXOXOX",
"OXOXOXOXOXOXOXOXOXOXOXOXOXOXOXOXOXOXOXOXOXOXOXOXOXXXP.6 O ; A G m 7 o @ 8 oXOX+XOXOXOXOXOXOXOXOXOXOXOXOXOXOXOXOXOXOXOXOXOXOXOXOX",
"OXOXOXOXOXOXOXOXOXOXOXOXOXOXOXOXOXOXOXOXOXOXOXOXOXXXg 6 V S :X9.>.>.* * 8 {.OXOXOXOXOX+XOXOXOXOXOXOXOXOXOXOXOXOXOXOXOXOXOXOXOXOX",
"OXOXOXOXOXOXOXOXOXOXOXOXOXOXOXOXOXOXOXOXOXOXOXOXOXU.G.F * Z :X6.S A @ * F OXOXOXOXOXOX@XOXOXOXOX@XOXOXOXOXOXOXOXOXOXOXOXOXOXOXOX",
"OXOXOXOXOXOXOXOX+X+XXXXXOXOXOXOXOXOXOXOXOXOXOXOXOXR.`.s $ o >.8.:.3 o $ s OXOXOXOXOXOXOXOXOXOXOXOXOXOXOXOXOXOXOXOX+XOXOXOXOXOXOX",
"OXOXOXOXOXOXOXOX/.7.5.).OXOXOXOXOXOXOXOXOXOX%X5X>X$XW.U.9 O 3 A 3 o O 2 s OXOXOXOXOX@XOXOXOXOXOXOXOXOXOXOXOXOXOX8.4.Q.oXOXOXOXOX",
"OXOXOXOXOXOXOX}.4.}  .@.).OXOXOXOXOXOXOX=X5XsXjXkXgXaX%XOXF.9 3 $ 1 6 r i %X&XOXOXOXOXOXOXOXOXOXOXOXOXOXOXOXOXy...| ' Q.OXOXOXOX",
"OXOXOXOXOXOXOX!.*.U }  .q.OXOXOXOXOX%X=XpXdXlXlXlXkXuX=XOX>XXXXX{.R.k.t R.iXgXyX&XOXOXOXOXOXOXOXOXOXOXOXOX@XoX#. ./ &.=.OXOXOXOX",
"OXOXOXOXOXOX}.k.I U {  .q.OXOXOXOX*XpXsXdXhXlXlXkXuXT.g f U.J.-X=X5XG.r k.%XfXkXhXuX&X$XOXOXOXOXOXOXOXOXOXOX).#. .( %.m !.OX+XOX",
"OXOXOXOXOX}.G B !  . ...;XOX@X@X%XiXaXdXgXgXgXgXsXR.oXF.t E.T.-X%X&XJ.y y !.uXhXhXkXjXfXaX5X5XOXOXOXOXOXOXOXOXt. .| } N H G OXOX",
"OXOXOXOX@X}.(.}.8.}  .q.+XOXOX#XaXgXuX-XuX=X-X&XoXy z.t t f i uXaXyXi r 2 d.G.yXaXkXjXfXkXkXkXiX-XOXOXOX@X+XOX).#. .@.^.!.}.OXOX",
"OXOXOXOX@X+X+X+X/... .e.,Xt.,XtXhXgX*Xz.G.T.W.!.|.6 6 O z.i g #X%XT.i OX6 6 u s k.R.5XyX5XyXyXaXfX!.^.(.).y.,X,X@. .o.+X+XOXOXOX",
"OXOXOXOX}.OXOXOX(.+. .| } ..,XaXgXpXXXT.W.XXOXOXOXf > 2 >XE.Y.hXgXtXd.XXd.2 }.J.k.d u d F d d K.U.7 A 6.G 0.| ..}  .w.+X+XOXOXOX",
"OXOXOXOXOXOXOXOX/.@.| ^  .o.~.uXyX%X|.OX+X+XOXOXOXF.X w R.P.Y.fXgXpXH.s F t }.+XOX}.}.'.J.K.k.G.K.k.7 = 7 ~  .{ ^ | w.oXOXOXOXOX",
"OXOX$X}.OXOXOXOXoXO. .L @.4.D G.L.!.XX+XOXOXOXOXOXP.O E.=Xs ,.u.<XaXJ.d.d.y }.OXOXOXOXOXOXOXOXOX@XOXQ.U P O. .) ^  .5.@XOXOXOXOX",
"OXOXOXOXOXOXOXOXOX7.| ( *.6.6.:.;.oXOXOXOXOXOXOX+XU.2 T.~.0... ...e.5.F d.d.{.OXOXOXOXOXOXOXOXOX@X+X}.7.W W ^ L { ] ^.OXOXOXOXOX",
"OXOXOXOXOXOXOXOXOX}.^.4.:.>.=.,./.OXOXOXOXOXOXOXOXP.9 -.O. . . . .{ { ~ g z.XXXXOXOXOX+XOXOXOXOXOXOXOXXX<.~ ~ X.0.1.OXOXOXOXOXOX",
"OXOXOXOXOXOXOXOXOXOXOXG.F !.E.!.OXOXOXOXOXOXOXOXOXJ.1.^ K )  . .) $.%./ *.a XXoXOXOXOXOXOXOXOXOXOXOXOXOXOX!.(.}.OXOXOXOXOXOXOXOX",
"OXOX$XOXOXOXOXOXOXOXOX{.J.XXXXXXOXOXOXOXOX@XOXOXXXG.T $.F P ^ E L z.;.L Y g OXOXOXOXOXOXOXOXOXOXOXOXOXOXOXOXOXOXOXOXOXOXOXOXOXOX",
"OXOXOXOXOXOXOXOXOXOXOXOXOXOXOXOXOXOXOXOXOXOXOXOXXXT.~ P Z J v x v J J [ Y J.OXOXOXOXOXOXOXOXOXOXOXOXOXOXOXOXOXOXOXOXOXOXOXOXOXOX",
"OXOXOXOXOXOXOXOXOXOXOXOXOXOXOXOXOXOXOXOXOXOXOXOX+XOX<.{ ^ b k z l v ^ ~ 8 |.XXoX+XOXOXOXOXOXOXOXOXOXOXOXOXOXOXOXOXOXOXOXOXOXOXOX",
"OXOXOXOXOXOXOXOXOXOXOXOXOXOXOXOXOXOXOX@XOXOXOXOXOXOXi $.I x z z z l C _.a H.OXOXOXOXOXOXOXOXOXOXOXOXOXOXOXOXOXOXOXOXOXOXOXOXOXOX",
"OXOXOXOXOXOXOXOXOXOXOXOXOXOXOXOXOXOXOXOXOXOXOXOXOX|.a b.C z z z z z c `.3X X|.@XOXOXOXOXOXOXOXOXOXOXOXOXOXOXOXOXOXOXOXOXOXOXOXOX",
"OXOXOXOXOXOXOXOXOXOXOXOXOXOXOXOXOXOXOXOXOXOXOXOXOX`. X[.B z l z z l z A #X9X2XOXOXOXOXOXOXOXOXOXOXOXOXOXOXOXOXOXOXOXOXOXOXOXOXOX",
"OXOXOXOXOXOXOXOXOXOXOXOXOX@XOXOXOXOXOXOXOXOXOXOXW._.>XU j h h h h j v b X.8XqX4XOXOXOXOXOXOXOXOXOXOXOXOXOXOXOXOXOXOXOXOXOXOXOXOX",
"OXOXOXOXOXOXOXOXOXOXOXOXOXOXOXOXOXOXOXOXOXOXOXOX`.#X0.[ ^ E E E ^ ^ [ ) R +.>XqX$XOXOXOXOXOXOXOXOXOXOXOXOXOXOXOXOXOXOXOXOXOX$XOX",
"@XOXOXOXOXOXOXOXOXOXOXOXOXOXOXOXOXOXOXOXOXOXOXOX~.@.R _  . . . . . . ._ K  .e.wX6XOXOXOXOXOXOXOXOXOXOXOXOXOXOXOXOXOXOXOXOXOXOXOX",
"OXOXOXOXOXOXOXOXOXOXOXOXOXOXOXOXOXOXOXOXOXOXOX|.^.) K {  . . . . . . . .K W 7.rXqX.XOXOXOXOXOXOXOXOXOXOXOXOXOXOXOXOXOXOXOXOXOXOX",
"OXOXOXOXOXOXOXOXOXOXOXOXOXOXOXOXOXOXOXOXOXOXOX X3X&.)  . . . . . . . . .{ Y 2XeXwX6XOXOXOXOXOXOXOXOXOXOXOXOXOXOXOXOXOXOXOXOXOXOX",
"OXOXOXOXOXOXOXOXOXOXOXOXOXOXOXOXOXOXOXOXOXOX'.1XeX>X_  . . . . . . . .| { -.1X0XwXqX'.OXOXOXOXOXOXOXOXOXOXOXOXOXOXOXOXOXOXOXOXOX",
"OXOXOXOXOXOXOXOXOXOXOXOXOXOXOXOXOXOXOXOXOXOX`.3XeXeX$X3.` |  . . .| { ` I p v.7XeXwX2X$XOXOXOXOXOXOXOXOXOXOXOXOXOXOXOXOXOXOXOXOX",
"OXOXOXOXOXOXOXOXOXOXOXOXOXOXOXOXOXOXOXOXOXXX].9XeXeX0Xn.K.1.<.4.7.8.Q.!.J.0 i.V.7X0X2X{.OXOXOXOXOXOXOXOXOXOXOXOXOXOXOXOXOXOXOXOX",
"OXOXOXOXOXOXOXOXOXOXOXOXOXOXOXOXOXOXOXOXOXJ.l.9XeXwX3X].XXOXOXOXOXOXOXOX{.5 < i.f.j.Y.OXOXOXOXOXOXOXOXOXOXOXOXOXOXOXOXOXOXOXOXOX",
"OXOXOXOXOXOXOXOXOXOXOXOXOXOXOXOXOXOXOXOXOXp 4 1X0X7Xn.`.OXOXOXOXOXOXOXOX'.5 4 4 4 0 T.OXOXOXOXOXOXOXOXOXOXOXOXOXOXOXOXOXOXOXOXOX",
"OXOXOXOXOXOXOXOXOXOX@XOXOXOXOXOXOXOXOXOX'.q 4 5 f.l.z.OXOXOXOXOXOXOXOXOXP.4 : : : t {.OXOXOXOXOXOXOXOXOXOXOXOXOXOXOXOXOXOXOXOXOX",
"OXOXOXOXOXOXOXOXOXOXOXOXOXOXOXOXOXOXOXOX`.4 1 2 3 6 T.OXOXOXOXOXOXOXOX|.s.a.h.< : J.OXOXOXOXOXOXOXOXOXOXOXOXOXOXOXOXOXOXOXOXOXOX",
"OXOXOXOXOXOXOXOXOXOXOXOXOXOXOXOXOXOXOXOXH.4 : 2 3 F.OXOXOXOXOXOXOXOXOX'.e p.i.i.s.}.OXOXOXOXOXOXOXOXOXOXOXOXOXOXOXOXOXOXOXOXOXOX",
"OXOXOXOXOXOXOXOXOXOXOXOXOXOXOXOXOXOXOXXXq , , , q W.OXOXOXOXOXOXOXOXOXP.e h.x.c.`.OXOXOXOXOXOXOXOXOXOXOXOXOXOX$XOXOXOXOXOXOXOXOX",
"OXOXOXOXOXOXOXOXOXOXOXOXOXOXOXOXOXOX+XXX0 X : > z.oXOXOXOXOXOXOXOXOXOXz.h.h.h.f.{.OXOXOXOXOXOXOXOXOXOXOXOXOXOXOXOXOXOXOXOXOXOXOX",
"+XOXOXOXOXOXOXOXOXOXOXOXOXOXOXOXOXOX+X|.e X X 5 E.OXOXOXOXOXOXOXOXOXE.s.e c.a.I.OXOXOXOXOXOXOXOXOXOXOXOXOXOXOXOXOXOXOXOXOXOXOXOX",
"OXOXOXOXOXOXOXOXOXOXOXOXOXOXOXOXOXOXOXY.a., > J.OXOXOXOXOXOXOXOXOXOXg.s.a.i.f.'.OXOXOXOXOXOXOXOXOXOXOXOXOXOXOXOXOXOXOXOXOXOXOXOX",
"OXOXOXOXOXOXOXOXOXOXOXOXOXOXOXOXOXOX}.f.B.p.s.'.OXOXOXOXOXOXOXOXOXXXq 0 f.f.g.OXOXOXOXOXOXOXOXOXOXOXOXOXOXOXOXOXOXOXOXOXOXOXOXOX",
"OXOXOXOXOXOXOXOXOXOXOXOXOXOXOXOXOXOXE.h.N.N.x.|.OXOXOXOXOXOXOXOXOX'.d.c.i.0 I.OXOXOXOXOXOXOXOXOXOXOXOXOXOXOXOXOXOXOXOXOXOXOXOXOX",
"OXOXOXOXOXOXOXOXOXOXOXOXOXOXOXOXOXOX_.B.M.N.v.OXOXOXOXOXOXOXOXOXOX Xp.p.f.f.'.OXOXOXOXOXOXOXOXOXOXOXOXOXOXOXOXOXOXOXOXOXOXOXOXOX",
"OXOXOXOXOXOXOXOXOXOXOXOXOXOXOXOXOXOX_.m.A.B._.OXOXOXOXOXOXOXOXOX2XB.S.A.B.z.}.OXOXOXOXOXOXOXOXOXOXOXOXOXOXOXOXOXOXOXOXOXOXOXOXOX",
"OXOXOXOXOXOXOXOXOXOXOXOXOXOXOXOXOXOX|.B.N.V.|.OXOXOXOXOXOXOXXX|._.D.A.M.M.].OXOXOXOXOXOXOXOXOXOXOXOXOXOXOXOXOXOXOXOXOXOXOXOXOXOX",
"OXOXOXOXOXOXOXOXOXOXOXOXOXOXOXOXOXOX@X`.v.[.OXOXOXOXOXOXOXOXOXOX;.Y.D.N.M.Z.OXOXOXOXOXOXOXOXOXOXOXOXOXOXOXOXOXOXOXOXOXOXOXOXOXOX",
"OXOXOXOXOXOXOXOXOXOXOXOXOXOXOXOXOXOX@X+XOXXXOXOXOXOXOXOXOXOXOXOX|.E.V.N.M.Z.OXOXOXOXOXOXOXOX@XOXOXOXOXOXOXOXOXOXOXOXOXOXOXOXOXOX",
"OXOXOXOXOXOXOXOXOXOX+XOXOXOXOXOXOXOXOXOXOXOXOXOXOXOXOXOXOXOXOXOXOXXXd.D.N.C.oX+XOXOXOXOXOXOXOXOXOXOXOXOXOXOXOXOXOXOX$XOXOXOXOXOX",
"OXOXOXOXOXOXOXOXOXOX$XOXOXOXOXOXOXOXOXOXOXOXOXOXOXOXOXOXOXOXOXOXOXOXR.i Z.C..X+XOXOXOXOXOXOXOXOXOXOXOXOXOXOXOXOXOXOXOXOXOXOXOXOX",
"OXOXOXOX$XOXOXOXOXOXOXOXOXOXOXOXOXOXOXOXOXOXOXOXOXOXOXOXOXOXOXOXOXOXOXR.i d.OXOXOXOXOXOXOXOXOXOXOXOXOXOXOXOXOXOXOXOXOXOXOXOXOXOX",
"OXOXOXOXOXOXOXOXOXOXOXOXOXOXOXOXOXOXOXOXOXOXOXOXOXOXOX+XOXOXOXOXOXOXOXOXOXOXOXOXOXOXOXOXOXOXOXOXOXOXOXOXOXOXOXOXOXOXOXOXOXOXOXOX",
"OXOXOXOXOXOXOXOXOXOXOXOXOXOXOXOX@XOXOXOXOXOXOXOXOXOXOXOXOX+XOXOXOXOXOXOXOXOXOXOXOXOXOXOXOXOXOXOXOXOXOXOXOXOXOXOXOXOXOXOXOXOXOXOX",
"OXOXOXOXOXOXOXOXOXOXOXOXOXOXOXOXOXOXOXOXOXOXOXOXOXOXOX+XOXOXOXOXOXOXOXOXOXOXOXOXOXOXOXOXOXOXOXOXOXOXOXOXOX$XOXOXOXOXOXOXOXOXOXOX",
"OXOXOXOXOXOXOXOXOXOXOXOXOXOXOXOXOXOXOXOXOXOXOXOXOXOXOXOXOXOXOXOXOXOXOXOXOXOXOXOXOXOXOXOXOXOX@XOXOXOXOXOXOXOXOXOXOXOXOXOXOXOXOXOX",
"OXOXOXOXOXOXOXOXOXOXOXOXOXOXOXOXOXOXOXOXOXOXOXOX@XOXOXOXOXOXOXOXOXOXOXOXOXOXOXOXOXOXOXOXOXOXOXOXOXOXOXOXOXOXOXOXOXOXOXOXOXOXOXOX"
};
