/* XPM */
static char *_A1721607244[] = {
/* columns rows colors chars-per-pixel */
"64 64 241 2 ",
"   c #2A1F1B",
".  c #2F231D",
"X  c #29282A",
"o  c #362B27",
"O  c #3F302E",
"+  c #2A2D35",
"@  c #38393D",
"#  c #463227",
"$  c #563522",
"%  c #473B36",
"&  c #523F35",
"*  c #4B423D",
"=  c #58433A",
"-  c #734A34",
";  c #373C43",
":  c #3D4349",
">  c #3E4754",
",  c #47474A",
"<  c #564943",
"1  c #524C4C",
"2  c #444B57",
"3  c #4D4F53",
"4  c #48505E",
"5  c #585658",
"6  c #674C48",
"7  c #68524C",
"8  c #785747",
"9  c #675B5B",
"0  c #7B604F",
"q  c #4A5464",
"w  c #48566B",
"e  c #585C65",
"r  c #615F61",
"t  c #5A626E",
"y  c #52637B",
"u  c #586578",
"i  c #636265",
"p  c #64656A",
"a  c #6A696A",
"s  c #746C6C",
"d  c #7B716F",
"f  c #626977",
"g  c #6D6C71",
"h  c #6F7075",
"j  c #737275",
"k  c #797577",
"l  c #7B7A7D",
"z  c #C6301D",
"x  c #DC1F25",
"c  c #E31C23",
"v  c #EC1C24",
"b  c #D53237",
"n  c #BA4F16",
"m  c #B96A14",
"M  c #985733",
"N  c #B15926",
"B  c #B06728",
"V  c #B16B35",
"C  c #C45915",
"Z  c #D27A3A",
"A  c #CD3E43",
"S  c #845B52",
"D  c #BA5A5C",
"F  c #94694D",
"G  c #B36E48",
"H  c #AE7B5A",
"J  c #826C68",
"K  c #9C7B65",
"L  c #837A79",
"P  c #AA7B66",
"I  c #A47B7C",
"U  c #938616",
"Y  c #B58710",
"T  c #BFB605",
"R  c #BDB20B",
"E  c #B9B015",
"W  c #A59025",
"Q  c #B4AC2A",
"!  c #B2A433",
"~  c #C7901A",
"^  c #C4B905",
"/  c #C4B91B",
"(  c #C8B925",
")  c #CCAD3A",
"_  c #D7BC37",
"`  c #D9CE07",
"'  c #D7CA13",
"]  c #DED118",
"[  c #E5D905",
"{  c #EED90D",
"}  c #FBED01",
"|  c #F7E708",
" . c #FFF100",
".. c #EEE21A",
"X. c #F7E915",
"o. c #D5C830",
"O. c #E6D928",
"+. c #E7DC36",
"@. c #F5E927",
"#. c #B9954D",
"$. c #B7875A",
"%. c #888671",
"&. c #B88666",
"*. c #B29674",
"=. c #BBAC66",
"-. c #BAA877",
";. c #CE954A",
":. c #EA8B43",
">. c #CBBC45",
",. c #CAB050",
"<. c #C7B959",
"1. c #D59A6E",
"2. c #C5AB67",
"3. c #C7B566",
"4. c #D9A179",
"5. c #C3B87B",
"6. c #E9A979",
"7. c #D9C44A",
"8. c #D9D249",
"9. c #E5DB4E",
"0. c #EAE045",
"q. c #D4CC71",
"w. c #E3DB7E",
"e. c #566A87",
"r. c #5D718C",
"t. c #526B91",
"y. c #5B7699",
"u. c #677589",
"i. c #6F7789",
"p. c #777B85",
"a. c #7C7D81",
"s. c #647B98",
"d. c #597DA9",
"f. c #617CA4",
"g. c #827F80",
"h. c #7E8187",
"j. c #6C8197",
"k. c #758396",
"l. c #4B86B8",
"z. c #5A87B3",
"x. c #6A85A5",
"c. c #798EA9",
"v. c #7B92AA",
"b. c #6E8DB5",
"n. c #7896B7",
"m. c #3C94DB",
"M. c #268CE3",
"N. c #3799E5",
"B. c #4E91CF",
"V. c #498DD3",
"C. c #759DC6",
"Z. c #64A3CD",
"A. c #7FA5C8",
"S. c #4598E4",
"D. c #59A7E3",
"F. c #858486",
"G. c #848589",
"H. c #8C8A8D",
"J. c #988A89",
"K. c #848996",
"L. c #8E8D91",
"P. c #928F93",
"I. c #8F929C",
"U. c #939295",
"Y. c #95959A",
"T. c #98979A",
"R. c #99979B",
"E. c #9B999D",
"W. c #A79D8A",
"Q. c #B0978C",
"!. c #A99897",
"~. c #A49C9C",
"^. c #B3A787",
"/. c #B7A986",
"(. c #AAA49A",
"). c #B3AA94",
"_. c #B9B597",
"`. c #828FA2",
"'. c #8A95A7",
"]. c #9499A5",
"[. c #9C9DA3",
"{. c #869EBC",
"}. c #A39EA2",
"|. c #A89EA3",
" X c #9DA1AB",
".X c #86A2BC",
"XX c #9EA8B6",
"oX c #A3A2A6",
"OX c #A9A5A5",
"+X c #ABA9A5",
"@X c #A7A6AB",
"#X c #A8A7A9",
"$X c #ACAAAD",
"%X c #B0ADAF",
"&X c #B1B0AA",
"*X c #A7AAB1",
"=X c #B3B3B6",
"-X c #B7B6BA",
";X c #BBBBBC",
":X c #C2BB87",
">X c #C4BD94",
",X c #F4B382",
"<X c #C9C384",
"1X c #DDD69B",
"2X c #D1CDAC",
"3X c #829FC1",
"4X c #85A5C6",
"5X c #8AABCD",
"6X c #96ABC4",
"7X c #98B4CD",
"8X c #8AAED5",
"9X c #8BB3DA",
"0X c #93B4D3",
"qX c #96BCDD",
"wX c #A2BAD3",
"eX c #8DBDE3",
"rX c #96BEE2",
"tX c #9BC0DC",
"yX c #B2C0CD",
"uX c #99C4E7",
"iX c #A6CAE5",
"pX c #A3CCEB",
"aX c #AAD5F3",
"sX c #AED4F1",
"dX c #A8D4F5",
"fX c #AED9F5",
"gX c #C5C5C6",
"hX c #CACACC",
"jX c #D1CFCD",
"kX c #D5D5D6",
"lX c #D9D9D5",
"zX c #DCDBDA",
"xX c #E0DFDD",
"cX c #EAE8CF",
"vX c #E4E3E3",
"bX c #E8E7E7",
"nX c #ECECEB",
"mX c #F2F1EF",
"MX c #EEEFF1",
"NX c #F4F4F4",
"BX c #F9F9F7",
/* pixels */
"@X@X@X@X@X@X@X@X@X@X@X@X@X@X@X@X@X@X@X@X@X@X@X@X@X@X@X@X@X@X@X@X@X@X@X@X@X@X@X@X#X@X@X@X@X@X@X@X@X@X@X@X@X@X@X@X@X@X@X@X@X@X@X@X",
"@X@X@X@X@X@X@X@X@X@X@X@X@X@X@X@X@X@X@X@X@X@X@X@X@X@X@X@X@X@X@X@X@X@X@X#X@X@X@X@X@X@X@X@X@X@X@X@X@X@X@X@X@X@X@X@X@X@X@X@X@X@X@X@X",
"@X@X@X@X@X@X@X@X@X@X@X@X@X@X@X@X@X@X@X@X@X@X@X@X@X@X@X@XoXoX~.Q.!.oX#X#X@X@X@X@X@X@X@X@X@X@X@X@X@X@X@X@X@X@X@X@X@X@X@X@X@X@X@X@X",
"@X@X@X@X@X@X@X@X@X@X@X@X@X@X@X@X@X@X@X@X@X@X@X@X@X@X@X@XR.&.:.:.Z G J.OX@X@X@X@X@X@X@X@X@X@X@X@X@X@X@X@X@X@X@X@X@X@X@X@X@X@X@X@X",
"@X@X@X@X@X@X@X@X@X@X@X@X@X@X@X@X@X@X@X@X@X@X@X@X@X@X@X}.H Z Z V V N M J.@X@X@X@X@X@X@X@X@X@X@X@X@X@X@X@X@X@X@X@X@X@X@X@X@X@X@X@X",
"@X@X@X@X@X@X@X@X@X@X@X@X@X@X@X@X@X#X@X@X@X@X@X@X@X@X#XJ.M - # # $ $ $ 8 oX@X@X@X@X@X@X@X@X@X@X@X@X@X@X@X@X@X@X@X@X@X@X@X@X@X@X@X",
"@X@X@X@X@X@X@X@X@X@X@X@X@X@X@X@XOX#X@X@X@X@X@X@X@X@XoXd $ $ G H F $ . # L.@X@X@X@X@X@X@X@X@X#X@X@X@X@X@X@X@X@X@X@X@X@X@X@X@X@X@X",
"@X@X@X@X@X@X@X@X@X@X@X@X@X@X#XOX-.:X+X@X@X@X@X@X@X@X@Xi   - 1.6.1.M . % s @X@X@X@X@X@X@X@X+X).(.@X@X@X@X@X@X@X@X@X@X@X@X@X@X@X@X",
"@X@X@X@X@X@X@X@X@X@X@X@X@X@XOX>.| X.0._.+X#X@X@X#XoXh.5 = 8 $.$.F 8 o & 5 #X@X@X@X@X@X@X&X8.@...=.#X@X@X@X@X@X@X@X@X@X*X@X@X@X@X",
"@X@X@X@X@X@X@X@X@X@X@X@X@X@X2.|  . . .q.#X#X@X@X#XoXg.r 8 K ,X6.H ;.= < a.@X@X@X@X@X@X+X9. . . .{ Q.@X@X@X@X@X@X@X@X@X@X@X@X@X@X",
"@X@X@X@X@X@X@X@X@X@X@X@X@X@X3.}  . . .9.#X@X@X@X#XR.L.h % - 6.4.&.S o * L *X@X@X#X#X@X&X@. . . .} 2.@X@X@X@X@X@X@X@X@X@X$X@X@X@X",
"@X@X@X@X@X@X@X@X@X@X@X@X@X|./.O. . .X.<X#X#X@X@X@XY.Y.a % O K 4.I % o * a.@X@X@X@X#X#X+X9. . . .X.:X@X@X@X@X@X@X@X@X@X@X@X@X@X@X",
"@X@X@X@X@X@X@X@X@X@X@X@X@X@X|.G '  .0.&X@X+X;XjXhX-X$XY.k * < 7 & X % 5 g oX@X@X@X@X@X@X_.X. .[ #.|.oX@X@X@X@X@X@X@X@X@X@X@X@X@X",
"@X@X@X@X@X@X@X@X@X@X@X@X@X@X|.D Y  .@.q.2XgXbXmXBXmXlX-X+XL.g i 5 3 p p l gX;X#X~.oX@X_._.@. .m A }.@X@X@X@X@X@X@X@X@X@X@X@X@X@X",
"@X@X@X@X@X@X@X@X@X@X@X@X@X@X|.~.Q X.w.2XlXvXBXBXBXnX;X$XR.;X+X&XoX[.F.9 U.hXmXzX1Xq.q.O.] } | ! J.#X@X@X@X@X@X@X@X@X@X@X@X@X@X@X",
"@X@X@X@X@X@X@X@X@X@X@X@X@X@X$X/.E 1XlXvXvXMXmXBXmXyXU.l j H.H.;X;XgXH.p %.*XzXMXmXcX1X<.o.X.| E ).@X@X@X@X@X@X@X@X@X@X@X@X@X@X@X",
"@X@X@X@X@X@X@X@X@X@X@X@X@X@X@X).>XlXkXzXbXzXvXxXjXH.[.k p I.P.gX-X=XG.i 9 P.gXbXvXNXNXnXcXcXcX3.).|.*X*X@X@X@X@X@X@X@X@X@X@X@X@X",
"@X@X@X@X@X@X@X@X@X@X@X@X@X@X@X-XvXnXgXOX-X&X$X+X}.p h e p g i ;XhX;Xg g , g L $XhXvXnXbXMXnXnXzXjX$X@X|.@X@X@X@X@X@X@X@X$X@X@X@X",
"@X@X@X@X@X@X@X@X@X@X@X@X@X@X@XhXnXvX%XH.F.U.oXoX}.r 3 @ U.a.h.yXyX(.j %Xp 3 k s k L R.$X$X$X$XhXkXQ.).Q.!.OX@X@X@X@X@X@X@X@X@X@X",
"@X@X@X@X@X@X@X@X@X@X@X@X@XoX@XlXvXgXOXY.oXoX@X@X#Xl @ 3 =XoXY.bXnXhXl R.G.1 }.R.P.L L k d k s l F.8 S P P J.@X@X@X@X@X@X@X@X@X@X",
"@X@X@X@X@X@X@X@X@X@X@X@X#XP.H.;XgX#X}.@X#X@X@X@X@XG.X g Y.a.Y.zXvXkXG.j a.a }.@X#X#XoX}.R.R.Y.L.T.P.d 7 8 J.@X@X@X@X@X@X@X@X@X@X",
"@X@X@X@X@X@X@X@X@X@X@X@X!.*.K L P.[.@X@X#X@X@X@X@XH., E.;Xa.I.hXlXxXU.g.a.a @X@X@X@X@X@X@X@X+X#X#X~.+X[.P.E.@X@X@X@X@X@X@X@X@X@X",
"@X@X@X@X@X@X@X@X@X@X@XOX*.;._ ,.W.@X@X@X@X@X@X@X@XL.5 H.[.a.%XhXhXkXoXf F.F.oX@X@X@X@X@X@X@X@X(.:X<.4.}.#X@X@X@X@X@X@X@X@X@X@X@X",
"@X@X@X@X@X@X@X@X@X@X#XJ.~ {  . .@.5.#X@X@X@X@X@X@XL.j p i.g.-XhXkXhX;Xa.a.a.oX@X@X@X@X@X#X#X:X+.| } | ;.!.@X@X@X@X@X@X@X@X@X@X@X",
"@X@X@X@X@X@X@X@X@X@X@X$.( { } ^ Q O._.oX@X@X@X@X@XG.U.1 g.@X=X=X=X*X-XL.p j }.@X@X@X@X@X@X_.+.Q '  .[ o.$.@X@X@X@X@X@X@X@X@X@X@X",
"@X@X@X@X@X@X@X@X@X@XOX#.%.Q [ %.%.' <X@X@X@X@X@X@XG.5 3 R.-X;X-X$X X|.!.1 k }.@X@X@X@X@X*X<X' %.%.` ! %.;.|.@X@X@X@X@X@X@X@X@X@X",
"@X@X@X@X@X@X@X@X@X#XOX) Q B m B E .._.+X@X@X@X@X@X[.5 o % 1 6 7 7 7 = = 1 U.@X@X@X@X@X@X@X_...E W m V Q ( oX@X@X@X@X@X@X@X@X@X@X",
"@X@X@X@X@X@X@X@X@X#XOXW.V x c n o.<X+X@X@X@X@X@X@X@Xg.# & 9 - 6 S 0 S J 9 ].@X@X@X@X@X@X@X@X:X+.n x c V /.@X@X@X@X@X@X@X@X@X@X@X",
"%X@X@X@X@X@X@X@X@X#X@X|.A v v z =.@X#X@X@X@X@X@X@X}.a u j.c.3X4Xx.{.5X3Xi.G.@X@X X@X@X@X+XXX X-.z v v b }.|.@X@X@X@X@X@X@X@X@X@X",
"@X@X@X@X@X@X@X@X@X@X@X!.b c v z >.q._._.oX+XW.oX*X}.s.4X.Xs.v.qX0XrX8X5XrX0X*X@X XW. X+X+X:X<X7.z c c b !.@X@X@X@X@X@X@X@X@X@X@X",
"@X@X@X@X@X@X@X@X@X@X@XoXI N C Y ` } X.o.<.o.o.E.@X'.4XuXpXqXv.n.4X5X4X5X8XiX7X@X[.o.8.<.o.X.| [ m m n I #X@X@X@X@X@X@X@X@X@X@X@X",
"@X@X@X@X@X@X@X@X@X@X@X@X/.X. . .T  . .` U ` 3.XX].4XiXpXtXtX0Xn.r.t.c.n.0XpXaX7XoX5.` U `  .| `  .} } /.@X@X@X@X@X@X@X@X@X@X@X@X",
"@X@X@X@X@X@X@X@X@X@X@X@X=.}  . .^ [  .} / ' ^.@X{.pXaXpX6Xc.u.u 2 q q s.4X0XaXsX*X).] E }  .[ R  . . .2.@X@X@X@X@X@X@X@X@X@X@X@X",
"@X@X@X@X@X@X@X@X@X@X@X@X*.|  . .[ R R R R o.|. X7XaXfXaXqX4Xs.2 X X e x.5XqXaXaXtXoX>./ R ^ ^ [  . .} *.@X@X@X@X@X@X@X@X@X@X@X@X",
"@X@X@X@X@X@X@X@X@X@X@X@X|.,.{  . . .[ ' _ Q.@X XrXfXfXdX0X4Xx.a.k @ ; e.n.eXpXfXaX*XQ.>.' [ }  .} | ,.~.@X@X@X@X@X@X@X@X@X@X@X@X",
"@X@X@X@X@X@X@X@X@X@X@X@X@X}.^.2.7.7.<.^.|.}.|.3XpXfXfXiX4XA.c.[.@XL.4 t.b.n.uXaXfXwX@X|.Q.<.7.7.2.W.(.oX@X@X@X@X@X@X@X@X@X@X@X@X",
"@X@X@X@X@X@X@X@X@X@X@X@X@X@X@X#X@X#X#X@X@X@X[.8XdXfXfXrX4X'.[.@X@X@XR.e y.x.A.uXaXiXXX#X@X@X|.#XoX#X@X@X@X@X@X@X@X@X@X@X@X#X@X@X",
"@X@X@X@X@X@X@X@X@X@X@X@X@X@X@X@X@X@X@X@X@X@X X9XdXfXdX9Xc.].@X@X@X@X@XE.t e.x.eXdXaX6XoX@X@X@X@X@X@X@X@X@X@X@X@X@X@X@X@X@X@X@X@X",
"@X@X@X@X@X@X@X@X@X@X@X@X@X@X@X@X@X@X@X@X*X|.{.rXfXdXrXC.'.#X@X@X@X@X@X@XY.q y b.9XeX6X|.@X@X@X@X@X@X@X@X@X@X@X@X@X@X@X@X@X@X@X@X",
"@X@X@X@X@X@X@X@X@X@X@X@X@X@X@X@X@X@X@X@X|.g.y.rXdXdX8X'.oX@X@X@X@X@X@X#X X5 : y e.r.K.@X@X@X@X@X@X@X@X@X@X@X@X@X@X@X@X@X@X@X@X@X",
"@X@X@X@X@X@X@X@X@X@X@X@X@X@X@X@X@X@X@X@XoXa 4 b.uX9Xc.[.@X@X@X@X@X@X@X@XR.3 > 2 4 5 Y.|.@X@X@X@X@X@X@X@X@X@X@X@X@X@X@X@X@X@X@X@X",
"@X@X@X@X@X@X@X@X@X@X@X@X@X@X@X@X@X@X@X@X[.q , , t u K.oX*X@X@X@X@X@X@X@XK.w > ; ; g |.*X@X@X@X@X@X@X@X@X@X@X@X@X@X@X@X@X@X@X@X@X",
"@X@X@X@X@X@X@X@X@X@X@X@X@X@X@X@X@X@X@X@XY.2 , 1 1 r ].@X@X@X@X@X@X@X@XoXi.f.f.4 2 I.@X@X@X@X@X@X@X@X@X@X@X@X@X@X@X@X@X@X@X@X@X@X",
"@X@X@X@X@X@X@X*X@X@X@X@X@X@X@X@X@X@X@XoXp.> : , 3 H.#X@X@X@X@X@X@X#X#X].u t.t.y.s.@X@X@X@X@X@X@X@X@X@X@X@X@X@X@X@X@X@X@X@X@X@X@X",
"@X@X@X@X@X@X@X@X@X@X@X@X@X@X@X@X@X@X@XoXe ; : > a [.@X@X@X@X*X@X@X@X@XG.e.d.B.f.}.|.@X@X@X@X@X@X@X@X@X@X@X@X@X@X@X@X@X@X@X@X@X@X",
"@X@X@X@X@X@X@X@X@X@X@X@X@X@X@X@X@X@X@X Xe + @ : G.@X@X@X@X@X@X@X@X@XoXi.s.d.t.i.}.*X@X@X@X@X@X@X@X@X@X@X@X@X@X@X@X@X@X@X@X@X@X@X",
"@X@X@X@X@X@X@X@X@X@X#X@X@X@X@X@X@X@X@XE.u + X e [.oX@X@X@X@X@X@X@XoXY.u.y f.x.'.@X@X@X@X@X@X*X@X*X@X@X@X@X@X@X@X@X@X@X@X@X@X@X@X",
"@X@X@X@X@X@X@X@X@X@X@X@X@X@X@X@X@X@X#Xk.z.2 3 Y.@X@X@X@X@X@X@X@X@XoXi.u.s.e.u.}.@X@X@X@X@X@X@X@X@X@X@X@X@X@X@X@X@X@X@X@X@X@X@X@X",
"@X@X@X@X@X@X@X@X@X@X@X@X@X@X@X@X@X@XoXy.V.l.y.}.@X@X@X@X@X@X@X@X+X[.y y e.y.p.@X@X@X@X@X@X@X@X@X@X@X@X$X@X@X@X@X@X@X@X@X@X@X@X@X",
"@X@X@X@X@X@X@X@X@X@X@X@X@X@X@X@X@X@X].B.N.N.z.}.@X@X@X@X@X@X@X@X#X Xt j.f.y I.@X@X@X@X@X@X@X@X@X@X@X@X@X@X@X@X@X@X@X@X@X@X@X@X@X",
"@X@X@X@X@X@X@X@X@X@X@X@X@X@X@X@X@X@XI.V.N.m.c.@X@X@X@X@X@X@X@X@XXXA.z.y.s.i.}.@X@X@X@X@X@X@X@X@X@X@X@X@X@X@X@X@X@X@X@X@X@X@X@X@X",
"@X@X@X@X@X@X@X@X@X@X@X@X@X@X@X@X@XoXI.m.S.B.].@X@X@X@X@X@X@X@XoX6XS.N.N.S.`.@X@X@X@X@X@X*X@X@X@X@X@X@X@X@X@X@X@X@X@X@X@X@X@X@X@X",
"@X@X@X@X@X@X@X@X@X@X@X@X@X@X@X@X@X@X XZ.N.n. X@X@X@X@X*X@X@X@X}.l 9XN.N.M.3XoX@X@X@X@X@X@X@X@X@X@X@X@X@X@X@X@X@X@X@X@X@X@X@X@X$X",
"@X@X@X@X@X@X@X@X@X@X@X@X@X@X@X@X@X@X@X X'. X+X@X@X@X@X@X@X@X@X@XU.G.D.S.M.Z.@X@X@X@X@X@X@X@X@X@X@X@X@X@X@X@X@X@X@X@X@X@X@X@X@X@X",
"@X@X@X@X@X@X@X@X@X@X@X@X@X@X@X@X@X@X@X@X#X#X@X@X@X@X@X@X@X@X@X@X@X[..XS.N.Z.@X@X@X@X@X@X@X@X@X@X@X@X@X@X@X@X@X@X@X@X@X@X@X@X@X@X",
"@X@X@X@X@X@X@X@X@X@X@X@X@X@X@X@X@X@X@X@X@X@X@X@X@X@X@X@X@X@X@X@X@XoXl 5XS.D.*X@X$X@X@X@X@X@X@X@X@X@X@X@X@X@X@X@X@X@X@X@X@X@X@X@X",
"@X@X@X@X@X@X@X@X@X@X@X@X@X@X@X@X@X@X@X@X@X@X@X*X@X@X@X@X*X@X@X@X#X@XE.a v.Z.XX@X@X@X@X@X@X@X@X@X@X@X@X@X@X@X@X@X@X@X@X@X@X@X@X@X",
"@X@X@X@X@X@X@X@X@X@X@X@X@X@X@X@X@X@X@X@X@X@X#X@X@X@X@X@X+X@X@X@X@X@X+X XF.F.@X@X@X@X@X@X@X@X@X@X@X@X@X@X@X@X@X@X@X@X@X@X@X@X@X@X",
"%X@X@X@X@X@X@X@X@X@X@X@X@X@X@X@X@X@X@X@X@X@X@X@X@X@X@X@X@X@X@X@X@X@X@X@X@X@X@X@X@X@X$X@X@X@X@X@X@X@X@X@X@X@X@X@X@X@X@X@X@X@X@X@X",
"@X@X@X@X@X@X@X@X@X@X@X@X@X@X@X@X@X#X@X@X@X@X@X@X@X@X@X@X@X@X@X@X@X@X@X@X@X@X@X@X@X@X@X@X@X@X@X@X@X@X@X@X@X@X@X@X@X@X@X@X@X@X@X@X",
"@X@X@X@X@X@X@X@X@X@X@X@X@X@X@X@X@X@X@X@X@X@X@X@X@X@X@X@X@X@X@X@X@X@X@X@X@X@X@X@X@X@X@X@X@X@X@X@X@X@X@X@X@X@X@X@X@X@X@X@X@X@X@X@X",
"@X@X@X@X@X@X@X@X@X@X@X@X@X@X*X@X@X@X@X@X@X*X@X@X@X@X@X@X@X@X@X@X@X@X@X@X@X@X@X@X@X@X@X@X@X@X@X@X@X@X@X@X@X@X@X@X@X@X@X@X@X@X@X@X",
"@X@X@X@X@X@X@X@X@X@X@X@X@X@X@X@X@X@X@X@X@X@X@X@X@X@X@X@X@X@X@X@X@X@X@X@X@X@X@X@X@X@X@X@X@X@X@X@X@X@X@X@X@X@X$X@X@X@X@X@X@X@X@X*X",
"@X@X@X@X@X@X@X@X@X@X@X@X@X@X@X@X@X@X@X@X@X@X@X@X@X@X@X@X@X@X@X@X@X@X@X@X@X@X@X@X@X@X@X@X@X@X@X@X@X@X@X@X@X@X@X@X@X@X@X@X@X@X@X@X"
};
