/* XPM */
static char *_B1721607243[] = {
/* columns rows colors chars-per-pixel */
"64 64 230 2 ",
"   c #2A1F1B",
".  c #2F231D",
"X  c #372C27",
"o  c #2A2D35",
"O  c #303033",
"+  c #4E2E1D",
"@  c #463227",
"#  c #553522",
"$  c #5D3620",
"%  c #463B36",
"&  c #513F36",
"*  c #4B423D",
"=  c #5A483C",
"-  c #755033",
";  c #373C42",
":  c #3D4349",
">  c #3E4754",
",  c #47474A",
"<  c #544C47",
"1  c #454C57",
"2  c #4D4F53",
"3  c #48505E",
"4  c #575558",
"5  c #785746",
"6  c #635A54",
"7  c #7B6E53",
"8  c #4A576C",
"9  c #595B63",
"0  c #615F61",
"q  c #5A626E",
"w  c #556379",
"e  c #636365",
"r  c #65656A",
"t  c #6A686A",
"y  c #746C6C",
"u  c #7B716F",
"i  c #626977",
"p  c #6D6C71",
"a  c #706F72",
"s  c #6E7177",
"d  c #737275",
"f  c #797577",
"g  c #7C7B7D",
"h  c #B8271D",
"j  c #AD3219",
"k  c #C0251D",
"l  c #DE1C23",
"z  c #E31C23",
"x  c #EB1C24",
"c  c #CB2420",
"v  c #D52520",
"b  c #E22933",
"n  c #B45316",
"m  c #AC7313",
"M  c #A55D28",
"N  c #916536",
"B  c #B16935",
"V  c #CE7A3A",
"C  c #E07D24",
"Z  c #E23A44",
"A  c #835B4D",
"S  c #A85854",
"D  c #936D4C",
"F  c #AD7857",
"G  c #AE7C58",
"H  c #9A7A64",
"J  c #837A78",
"K  c #A77C66",
"L  c #B27678",
"P  c #C64E4E",
"I  c #C56B7B",
"U  c #9A911F",
"Y  c #B4AA0F",
"T  c #BBB214",
"R  c #979127",
"E  c #B1962F",
"W  c #A69938",
"Q  c #B8AB25",
"!  c #BCAB39",
"~  c #C9B90A",
"^  c #CDBA09",
"/  c #EDAC15",
"(  c #D48232",
")  c #E78F3E",
"_  c #C5B030",
"`  c #C7B236",
"'  c #D7C905",
"]  c #D6CB0D",
"[  c #DDD20A",
"{  c #D5C717",
"}  c #E2D404",
"|  c #EBDB06",
" . c #ECD717",
".. c #EED81A",
"X. c #EEE102",
"o. c #F2E503",
"O. c #FBED02",
"+. c #F7E809",
"@. c #FFF200",
"#. c #F6E619",
"$. c #D3C433",
"%. c #EAD82A",
"&. c #F3E726",
"*. c #EFE330",
"=. c #968C46",
"-. c #948A4E",
";. c #B0974F",
":. c #B9865C",
">. c #AB9956",
",. c #B7A555",
"<. c #8D866D",
"1. c #B2946C",
"2. c #BBAA73",
"3. c #BCAA7A",
"4. c #CCB44F",
"5. c #C3A859",
"6. c #C9B458",
"7. c #D19A6F",
"8. c #C4AB68",
"9. c #CCB270",
"0. c #E9A979",
"q. c #DAC449",
"w. c #D0C253",
"e. c #DBD35D",
"r. c #E1CC45",
"t. c #E7DA49",
"y. c #CCC57A",
"u. c #D9D070",
"i. c #596B86",
"p. c #526B91",
"a. c #5B7799",
"s. c #687589",
"d. c #7C7D81",
"f. c #7A7D88",
"g. c #687992",
"h. c #597DA9",
"j. c #617CA4",
"k. c #827F80",
"l. c #758397",
"z. c #4B86B8",
"x. c #5A87B3",
"c. c #6884A7",
"v. c #7B8FA9",
"b. c #7D93A2",
"n. c #7194B6",
"m. c #3C94DB",
"M. c #268CE3",
"N. c #3799E5",
"B. c #4E91CF",
"V. c #498DD3",
"C. c #53A3DD",
"Z. c #6DA7CC",
"A. c #6FA8D8",
"S. c #4598E4",
"D. c #48A0E7",
"F. c #868686",
"G. c #848589",
"H. c #8B8B8D",
"J. c #938C8E",
"K. c #96918B",
"L. c #848996",
"P. c #8E8D91",
"I. c #939295",
"U. c #95959A",
"Y. c #99969A",
"T. c #97999D",
"R. c #9A999C",
"E. c #B29B8C",
"W. c #A99A98",
"Q. c #B5A286",
"!. c #A8A29E",
"~. c #B1A99A",
"^. c #B1B493",
"/. c #B6B299",
"(. c #8995A7",
"). c #9499A5",
"_. c #9C9DA3",
"`. c #9091A9",
"'. c #889FBC",
"]. c #A29EA2",
"[. c #A89FA4",
"{. c #9DA1AB",
"}. c #9FB1AB",
"|. c #88A3BA",
" X c #9BA9B8",
".X c #A3A2A6",
"XX c #A8A5A4",
"oX c #ACAAA4",
"OX c #A7A6AB",
"+X c #A8A7AB",
"@X c #ABAAAD",
"#X c #B0ADAB",
"$X c #A4A8B3",
"%X c #B4B3B5",
"&X c #B7B7B9",
"*X c #BBBBBD",
"=X c #C2BC8B",
"-X c #B9CBB5",
";X c #CAC384",
":X c #CAD0B6",
">X c #87A7C8",
",X c #95ACC5",
"<X c #96B3CF",
"1X c #8BB4DC",
"2X c #97BADA",
"3X c #BFBFC0",
"4X c #A2BAD3",
"5X c #8DBDE3",
"6X c #B2C0CD",
"7X c #99C4E7",
"8X c #A4CAE8",
"9X c #ADD1EE",
"0X c #ABD5F3",
"qX c #A8D5F6",
"wX c #B0D8F5",
"eX c #C4C3C4",
"rX c #C7C6C9",
"tX c #CBCACC",
"yX c #CFCFD0",
"uX c #D5D4D5",
"iX c #D8D7D7",
"pX c #DBDBDB",
"aX c #E0DFDD",
"sX c #E4E3E4",
"dX c #E8E7E7",
"fX c #ECECEB",
"gX c #F2F1EF",
"hX c #EEEFF1",
"jX c #F4F4F4",
"kX c #F9F9F7",
/* pixels */
"OXOXOXOXOXOXOXOXOXOXOXOXOXOXOXOXOXOXOXOXOXOXOXOXOXOXOXOXOXOXOXOXOXOXOXOXOXOXOXOXOXOXOXOXOXOXOXOXOXOXOXOXOXOXOXOXOXOXOXOXOXOXOXOX",
"OXOXOXOXOXOX+XOXOXOXOXOXOX+XOXOXOXOXOXOXOXOXOXOXOXOXOXOXOXOXoX/.=XOXOXOXOXOXOXOXOXOX+XOXOXOXOXOXOXOXOXOXOXOXOXOXOX+XOXOXOXOXOXOX",
"OXOXOXOXOXOXOXOXOXOXOXOXOXOXOXOXOXOXOXOXOXOXOXOXOXOXOXOX.X!.9.r.%.6./.OXOXOX+XOXOXOXOXOXOXOXOXOXOXOXOXOXOXOXOXOXOXOXOXOXOXOXOXOX",
"OXOXOXOXOXOXOXOXOXOXOXOXOXOXOXOXOXOXOXOXOXOXOXOXOXOXOXOXW.:.) ) V ( 4.oXOXOXOXOXOXOXOXOXOXOXOXOXOXOXOXOXOXOXOXOXOXOXOXOXOXOXOXOX",
"OXOXOXOXOXOXOXOXOXOXOXOXOXOXOXOXOXOXOXOXOXOXOXOXOXOX+X[.F V V B M B M 1.OXOXOXOXOXOXOXOXOXOXOXOXOXOXOXOXOXOXOXOXOXOXOXOXOXOXOXOX",
"OXOXOXOXOXOXOXOXOXOXOXOXOXOXOXOXOXOXOXOXOXOXOXOXOXOX[.J.M - $ + $ @ # 5 .XOXOXOXOXOXOXOXOXOXOXOXOXOXOXOXOXOXOXOXOXOXOXOXOXOXOXOX",
"OXOXOXOXOXOXOXOXOXOXOXOXOXOX+XOXOXOXOXOXOXOXOXOXOXOXOXu # # F F D $ . @ J.OXOXOXOX+XOXOXOXOXOXOXOXOXOXOXOXOXOXOXOXOXOXOXOXOXOXOX",
"OXOXOXOXOXOXOXOXOX+XOXOXOXOXOXOXOXOXOXOXOXOXOXOXOXOXOX0   = 7.0.7.N   % y OXOXOXOXOXOXOXOXOXOXOXOXOXOXOXOXOXOXOXOXOXOXOXOXOXOXOX",
"OXOXOXOXOXOXOXOXOXOXOXOXOXOX+XOXOXOXOXOXOXOXOXOXOXOXF.4 * 5 H :.D A @ & 6 {..XOXOXOXOXOXOXOXOXOXOXOXOXOXOXOXOXOXOXOXOXOXOXOXOXOX",
"OXOXOXOXOXOXOXOXOXOXOXOXOXOXOXOXOXOXOXOXOXOXOXOXOX].g 0 7 :.0.0.F G = < >.XXoXOXOXOXOXOXOXOXOXOXOXOXOXOXOXOXOXOXOXOXOXOXOXOXOXOX",
"OXOXOXOXOXOXOXOXOXOXOXOXOXOXOXOXOXOXOXOXOXOXOXOXOXY.H.d @ 5 0.0.1.A + & H !.OXOXOXOXOXOXOXOXOXOXOXOXOXOXOXOXOXOXOXOXOXOXOXOXOXOX",
"OXOXOXOXOXOXOXOXOXOXOXOXOXOXOXOXOXOXOXOXOXOXOX@XOXU.Y.t % X H 7.K % X * f OXOXOXOXOXOXOXOXOXOXOXOXOXOXOXOXOXOXOXOXOXOXOXOXOXOXOX",
"OXOXOXOXOXOXOXOXOXOX.XOXOXOXOXOXOXOXOXOX+X+X*XtXtX&X@XI.g * = 6 *   % 4 p [.OXOXOXOXOXOXOXOXOXOXOXOXOX+XOX+XOX+XOXOXOX$XOXOXOXOX",
"OXOXOXOXOXOXOXOXW.8.6.^.OXOXOXOXOXOXOXOX6XrXdXjXkXgXpX&XXXH.a e 9 3 r t d.rX*XOXOXOXOX+XOXOXOXOXOXOXOXOXOXOXOX+X3.5.E.OXOXOXOXOX",
"OXOXOXOXOXOXOX.X5.+.@.#./.OXOXOXOX@X&X:XiXsXjXkXkXfX*X@XT.*X@X@X[._.F.0 P.yXgXpX6XXX+XOXOXOXOXOXOXOXOXOXOXOXOX;X#.@. .1.OXOXOXOX",
"OXOXOXOXOXOXOXW.;.;.+.@.e.OXOXOXOX3XuXsXsXfXjXjXgXrXI.f d H.P.&X3XeXH.0 k.@XpXhXjXpXeX%X@XOXOXOXOXOXOXOXOXOXoX*.@.} ;.>.OXOXOXOX",
"OXOXOXOXOX.X[.L E W X.@.e.@XOXOX*XiXiXpXdXpXsXaXyXF._.f r I.P.rX&X&XH.0 9 J.eXdXsXjXjXfXsXyXuX%XOXOXOXOXOXOXoX*.@.[ =.B W.#X#X[.",
"OXOXOXOXOX].L P / O.O.&.=XOXOX&XsXfXrXoX&X#X@XoX{.e s 0 r p e *XyX&Xt s , a J @XtXsXfXdXhXhXhXpXyXOX+XOXOX.X+Xu.+.@.O.C P k.[.@X",
"OXOXOXOXOXOXW.[.9.+.@.e.oXOXOXtXfXsX%XF.F.I..X.X.X0 4 O I.d.l.-X3X].d #Xt 2 f y f k._.@XOX@X@XtXuXK.~.E.W.oX@X/.*.@.&.Q.W.[.@X@X",
"OXOXOXOXOX+X+X+X!.#.@.t.;Xy./.iXsXrX.XI.].OXOXOX+Xg ; 2 &X{.K.fXfXrXg Y.H., ].Y.k.k.J f u u y J J 5 A L K 2.;X=X&.@.r..XOXOXOXOX",
"OXOXOXOXOXOXOXOX!.%.@.O.+.` K.*XeX~._.OXOXOXOXOXOXF.o t U.d.U.pXdXiXG.d d.p [.OX@X[.[.[.R.Y.Y.J.W.K.D - 7 ` @.+.+.@.q.[.OXOXOXOX",
"OXOXOXOXOXOXOXOX~.&.O.' *.4.<.J 1.E.OXOXOXOXOXOXOXH., T.3Xd.I.tXiXpXK.l.d.p [.OX$X@XOX$XOXOXOXOXOXOX8.Q Q ..@.o.[ @.r.@XOXOXOXOX",
"OXOX+XOXOXOXOXOX[.%.+.Q 5.7.7.>.>..XOXOXOXOXOXOXOXH.4 H.T.d.^.u.:XuX.Xp d.k.[.OXOXOXOXOX+XOXOXOXOXOXE.Q [ @.@.[ ' @.4.#XOXOXOXOX",
"OXOXOXOXOXOXOXOXOX8.+.` H 5.>.1.Q.OXOXOXOXOXOXOXoXH.f t <.4.&.@.#.*.9.g f.d.OXOXOXOXOXOXOXOXOXOXOXOXXX8.T ] ] T o...E.OXOXOXOXOX",
"OXOXOXOXOXOXOXOXOX[.=X;.H ,.1.Q.}.OXOXOXOXOXOXOXOXF.K.E ..@.@.@.@.o.X.! t s }.XXOXOXOXOX+XOXOXOXOXOXOXXX2.` _ $.q.Q.OXOXOXOXOXOX",
"OXOXOX+XOXOXOXOXOXOXOX].K.[.!.+X.XOXOXOXOXOXOXOXOXF.=.{ Q [ @.@.[ -.=.[ N g }.+XOXOXOXOXOXOXOXOXOXOXOXOX.XW.~.XX.XOXOXOXOXOXOXOX",
"OXOXOXOXOXOXOXOXOXOXOXOXOXOXOXOXOXOXOXOXOXOXOXOXOX!.` -.<.R ' ^ Y <.F.T _ I..X.XOXOXOXOXOXOXOXOXOXOXOX+X+XOXOXOXOXOXOXOXOXOXOXOX",
"OXOXOXOXOXOXOXOXOXOXOXOXOXOXOXOXOXOXOXOXOXOXOXOXOXXX4.R 7 U n c n R W X.! T.+X+XOXOXOXOXOXOXOXOXOXOXOXOXOXOXOXOXOXOXOX+XOXOXOXOX",
"OXOXOXOXOXOXOXOXOXOXOXOXOXOXOXOXOXOXOXOXOXOXOXOXOX{.>.o.' m v x l n { e.F.l.XX+XOXOXOXOXOXOXOXOXOXOXOXOX+XOXOXOXOXOXOXOXOXOXOXOX",
"OXOXOXOXOXOXOXOXOXOXOXOXOXOXOXOXOXOXOXOXOXOXOXOX+X_.l.^.W c x x x z S ,X2X2X{.+XOXOXOXOXOXOXOXOXOXOXOXOXOXOXOXOXOXOXOXOXOXOXOXOX",
"OXOXOXOXOXOXOXOXOXOXOXOXOXOXOXOXOXOXOX+XOXOXOXOX.X(.>X7XI x x x x x b ).<X8X<XOXOXOXOXOXOXOXOXOXOXOXOXOXOXOXOXOXOXOXOXOXOXOXOXOX",
"OXOXOXOXOXOXOXOXOXOXOXOXOXOXOXOXOXOXOXOXOXOXOXOX).|.8X$XZ x z x x z z S }.8X9X<XOXOXOXOXOXOXOXOXOXOXOXOXOXOXOXOXOXOXOXOXOXOXOXOX",
"OXOXOXOXOXOXOXOXOXOXOXOXOXOXOXOXOXOXOXOX$XOX$X_.|.7X-X! j k h k h j n m $.}.0X9X{.OXOXOXOXOXOXOXOXOXOXOXOXOXOXOXOXOXOXOXOXOXOXOX",
"OXOXOXOXOXOXOXOXOXOXOXOX+XOXOXOXOXOXOXOXOXOXOX{.,X-Xw.X.' ^ ^ ^ ^ [ X.} ~ &.-X0X8X$XOXOXOXOXOXOXOXOXOXOXOXOXOXOXOXOXOXOXOXOXOXOX",
"OXOXOXOX+XOXOXOXOXOXOXOXOXOXOXOXOXOXOXOXOXOXOX{./.&.~ | @.@.@.@.@.@.@.| Y @.t.9X9X XOXOXOXOXOXOXOXOXOXOXOXOXOXOXOXOXOXOXOXOXOXOX",
"OXOXOXOXOXOXOXOXOXOXOXOXOXOXOXOXOXOXOXOXOXOX[.,X/.} Y o.@.@.@.@.@.@.@.@.Y ~ 8.0XwX4XOXOXOXOXOXOXOXOXOXOXOXOXOXOXOXOX+XOX+XOXOXOX",
"OXOXOXOXOXOXOXOXOXOXOXOXOXOXOXOXOXOXOXOXOXOX_.>X8X=.| @.@.@.@.@.@.@.@.@.o.E (.7X0X8X$XOXOXOXOXOXOXOXOXOXOXOXOXOXOXOXOX+XOXOXOXOX",
"OX+XOXOXOXOXOXOX+XOXOXOXOXOXOXOXOXOXOXOXOXOX).5X0X%X| @.@.@.@.@.@.@.@.O.o.;.l.1XqX0X,X.XOXOXOXOXOXOXOXOXOXOXOXOXOXOXOXOXOXOXOXOX",
"OXOXOXOXOX+XOXOXOXOXOXOXOXOXOXOXOXOXOXOXOX].'.7XqXqX+X` | o.@.@.@.O.X. .;.4 w n.1X1X>X[.OXOXOXOXOXOXOXOXOXOXOXOXOXOXOXOXOXOXOXOX",
"OXOXOXOXOXOXOXOXOXOXOXOX+XOXOXOXOXOXOXOX$Xk.i.7XqXqX>X`.W.3.2.8.9.3.Q.E.W.3 > w i.s.L.OXOX@XOXOXOXOXOXOXOXOXOXOXOXOXOXOXOXOXOXOX",
"OXOXOXOXOXOXOXOXOXOXOXOXOXOXOXOXOXOXOXOX[.r 3 n.7X1Xv._.OXOXOXOX+X.XOX+XU.2 1 3 3 3 ).OXOXOXOXOXOXOXOXOXOXOXOXOXOXOXOXOXOXOXOXOX",
"OXOXOXOXOXOXOXOXOXOXOXOXOXOXOXOXOXOXOXOX_.9 : , q w L..XOXOXOXOX+X+XOXOXP.8 ; ; ; p [.OXOXOXOXOXOXOXOXOXOXOXOXOXOXOXOXOXOXOXOXOX",
"OXOX+XOX@XOXOXOXOXOXOXOXOXOXOXOXOXOXOXOX).1 , < < e T.OXOXOXOXOXOXOXOX{.s.j.h.3 1 I.OXOXOXOXOXOXOXOXOXOXOXOXOXOXOXOXOX+XOXOXOXOX",
"OXOXOXOXOXOXOXOXOXOXOXOXOXOXOXOXOXOXOXOXf.> ; , 2 G.OXOXOXOXOXOXOX+X+XT.w p.p.a.l.[.OXOXOXOXOXOXOXOXOXOXOXOXOXOXOXOXOXOXOXOXOXOX",
"OXOXOXOXOXOX$XOXOXOXOXOXOXOXOXOXOXOXOX{.9 ; : > r _.OXOXOXOXOXOXOXOXOXG.w h.x.c.).OXOXOXOXOXOXOX@XOXOXOXOXOXOXOXOXOXOXOXOXOXOXOX",
"OXOXOXOXOXOXOXOXOXOXOXOXOXOXOXOXOXOXOX.X9 o ; ; G.OXOXOXOXOXOXOXOXOX.Xl.j.h.p.g..XOXOXOXOXOXOXOXOXOXOXOXOXOXOXOXOXOXOXOX@XOXOXOX",
"OXOXOXOXOXOXOXOXOXOXOXOXOXOXOXOXOXOXOX_.i.o o 9 _.OXOXOXOXOXOXOXOX.XT.i w c.c.`.OXOXOXOXOXOXOXOXOXOXOXOXOXOXOXOXOXOXOXOXOXOXOXOX",
"OXOXOXOXOXOXOXOXOXOXOXOXOXOXOXOXOXOXOXl.h., 2 U.OXOXOXOXOXOXOXOXOX.Xs.s.j.w g._.OXOXOXOXOXOXOXOXOXOXOXOXOXOXOXOXOXOXOXOXOXOXOXOX",
"OXOXOXOXOXOXOXOXOXOXOXOXOX@XOXOXOXOX{.a.V.z.j.].OXOXOXOXOXOXOXOX+X_.q 8 i.a.f.OXOXOXOXOXOXOXOXOXOXOXOXOXOXOXOXOX@XOXOXOXOXOXOXOX",
"OXOXOXOXOXOXOXOXOXOXOXOXOXOXOXOXOXOXT.z.N.N.x.].OXOXOXOXOXOXOXOX+X_.i c.j.q `.OXOXOXOXOXOXOXOXOXOXOXOXOXOXOXOXOXOXOXOXOXOXOXOXOX",
"OXOXOXOXOXOXOXOXOXOXOXOXOXOXOXOXOXOX).V.N.N.v.OXOXOXOXOXOXOXOXOX}.Z.z.c.a.g.].OXOXOXOXOXOXOXOXOXOXOXOXOXOXOXOXOXOXOXOXOXOXOXOXOX",
"OXOXOXOXOXOXOXOXOXOXOXOXOXOXOXOXOXOX).V.S.V.).OXOXOXOXOXOXOXOXOX<XB.N.N.V.(.OXOXOXOXOXOXOXOXOXOXOXOXOXOXOXOXOXOXOXOXOXOXOXOXOXOX",
"OXOXOXOXOXOXOXOXOXOXOXOXOXOXOXOXOXOX.XB.N.n.OXOXOXOXOXOXOXOXOX].d.1XN.m.M.n.OXOXOXOXOXOXOXOXOXOXOXOXOXOXOXOXOXOXOXOXOXOXOXOXOXOX",
"OXOXOXOXOXOXOXOXOXOXOXOXOXOXOXOXOXOXOX{.(.{.OXOXOXOXOXOXOXOXOXOXP.G.A.S.M.Z.OXOXOXOXOXOXOXOXOXOXOXOXOXOXOXOXOXOXOXOXOXOXOXOXOXOX",
"OXOXOXOXOXOXOXOXOXOXOXOXOXOXOXOXOXOXOX+X+X+XOXOXOXOXOXOXOXOXOXOXOX_.Z.S.N.A.OXOXOXOXOXOXOXOXOXOXOXOXOXOXOXOXOXOXOXOXOXOXOXOXOXOX",
"OXOXOXOXOXOXOXOXOXOXOXOXOXOXOXOXOXOXOX+X+X+XOXOXOXOXOXOXOXOXOXOXOXOXd.>XD.C.$XOXOXOXOXOXOXOXOXOXOXOXOXOXOXOXOXOXOXOXOXOXOXOXOXOX",
"OXOXOXOXOXOXOXOXOXOXOXOXOXOXOXOXOXOXOXOXOXOXOXOXOXOXOXOXOXOXOXOXOXOXR.t b.Z. XOXOXOX@XOXOXOXOXOXOXOXOXOXOXOX@XOXOXOXOXOX@XOXOXOX",
"OXOXOXOXOXOXOXOXOXOXOXOXOXOXOXOXOXOXOXOXOXOXOXOXOXOXOXOXOXOXOXOXOXOXOX{.F.G.OXOXOXOXOXOXOXOXOXOXOXOXOXOXOXOXOXOXOXOXOXOXOXOXOXOX",
"OXOXOXOXOXOXOXOXOXOXOXOXOXOXOXOXOXOXOXOXOXOXOXOXOXOXOXOXOXOXOXOXOXOXOXOXOXOXOXOXOXOXOXOXOXOXOXOXOXOXOXOXOXOXOXOXOXOXOXOXOXOXOXOX",
"OXOXOXOXOXOXOXOXOXOXOXOXOXOXOXOXOXOXOXOXOXOXOXOXOXOXOXOXOXOXOXOXOXOXOXOXOXOXOXOXOXOXOXOXOXOXOXOXOXOXOXOXOXOXOXOXOXOXOXOXOXOXOXOX",
"OXOXOXOXOXOXOXOXOX@XOXOXOX+XOXOXOXOXOXOXOXOXOXOXOXOXOXOXOXOXOXOXOXOXOXOXOXOXOXOXOXOXOXOXOXOXOXOXOXOXOXOX$XOXOXOXOXOXOXOXOXOXOXOX",
"OXOXOXOXOXOXOXOXOXOXOXOXOXOXOXOXOXOXOXOXOXOXOXOXOXOXOX+XOXOXOXOXOXOXOXOXOXOXOXOXOXOXOXOXOXOXOXOXOXOXOXOXOXOXOXOXOXOXOXOXOXOXOXOX",
"OXOXOXOXOXOXOXOXOXOXOXOXOXOXOXOXOXOXOXOXOXOXOXOXOXOXOXOXOXOXOXOXOXOXOXOXOXOXOXOXOXOXOXOXOXOXOXOXOXOXOXOXOXOXOXOXOXOXOXOXOXOXOXOX",
"OXOXOXOXOXOXOXOXOXOXOXOXOXOXOXOXOXOXOXOXOXOXOXOXOXOXOXOXOXOXOXOXOXOXOXOXOXOXOXOXOXOXOXOXOXOXOXOXOXOXOXOXOXOXOXOXOXOXOXOXOXOXOXOX"
};
