/* XPM */
static char *_A1721607245[] = {
/* columns rows colors chars-per-pixel */
"64 64 239 2 ",
"   c #2D211B",
".  c #2A2828",
"X  c #352A25",
"o  c #2E3036",
"O  c #373639",
"+  c #472A1B",
"@  c #453229",
"#  c #5A3727",
"$  c #4A3C37",
"%  c #633C25",
"&  c #544238",
"*  c #674A3B",
"=  c #784D35",
"-  c #383D47",
";  c #3C434C",
":  c #464546",
">  c #4A494C",
",  c #564C4A",
"<  c #454C57",
"1  c #514F52",
"2  c #4D515B",
"3  c #575659",
"4  c #674F46",
"5  c #74584C",
"6  c #645A5D",
"7  c #765A57",
"8  c #4A576A",
"9  c #575B64",
"0  c #4E5F7B",
"q  c #605F60",
"w  c #566173",
"e  c #596578",
"r  c #666468",
"t  c #6C6A6C",
"y  c #766B6B",
"u  c #686B73",
"i  c #726E72",
"p  c #6E7278",
"a  c #727275",
"s  c #7C7676",
"d  c #757579",
"f  c #7B7A7D",
"g  c #C1231E",
"h  c #D81E22",
"j  c #E31D22",
"k  c #EA1B23",
"l  c #D02A2B",
"z  c #CC3325",
"x  c #B6531B",
"c  c #B36314",
"v  c #90522D",
"b  c #B54B27",
"n  c #B86E38",
"m  c #C97036",
"M  c #BC585C",
"N  c #8E6A50",
"B  c #B07753",
"V  c #93766C",
"C  c #827A7A",
"Z  c #AD786C",
"A  c #C46653",
"S  c #B78A15",
"D  c #B6AB0B",
"F  c #BEB408",
"G  c #B3AB15",
"H  c #BAAC14",
"J  c #998F28",
"K  c #B29333",
"L  c #B6AC23",
"P  c #B8A733",
"I  c #D1A60A",
"U  c #C7BB08",
"Y  c #C4BC18",
"T  c #D1B310",
"R  c #CBB02F",
"E  c #D8BD36",
"W  c #D8C808",
"Q  c #DED308",
"!  c #D2C411",
"~  c #E0CB03",
"^  c #E6D706",
"/  c #EDD819",
"(  c #EFE202",
")  c #F6E903",
"_  c #FAED01",
"`  c #F6E30A",
"'  c #FFF201",
"]  c #FDF00A",
"[  c #EFE01E",
"{  c #F4E618",
"}  c #D7C82A",
"|  c #DBCA3B",
" . c #E3CB28",
".. c #E7D624",
"X. c #E3CB38",
"o. c #E7DB38",
"O. c #EDE22E",
"+. c #94924E",
"@. c #AB9454",
"#. c #B7B05A",
"$. c #85856A",
"%. c #9E8D73",
"&. c #B98764",
"*. c #B9986B",
"=. c #AE9271",
"-. c #BBA56A",
";. c #B7A473",
":. c #B2AF7C",
">. c #C38D56",
",. c #EC8C43",
"<. c #C8B34B",
"1. c #CC9369",
"2. c #CEAF6F",
"3. c #E0A67D",
"4. c #D7C54C",
"5. c #D9CC5C",
"6. c #E6DC49",
"7. c #E3D955",
"8. c #DCD368",
"9. c #D1C870",
"0. c #F0E560",
"q. c #576A86",
"w. c #51698E",
"e. c #59769B",
"r. c #636E82",
"t. c #657389",
"y. c #7C7D82",
"u. c #767D8B",
"i. c #647B99",
"p. c #767F91",
"a. c #5B7DA8",
"s. c #627EA4",
"d. c #7F8082",
"f. c #6E859C",
"g. c #7A8494",
"h. c #5983AC",
"j. c #5985B4",
"k. c #6C87A6",
"l. c #768BA6",
"z. c #7A92AB",
"x. c #6D96BA",
"c. c #7997BA",
"v. c #3B92DB",
"b. c #2891E5",
"n. c #3798E5",
"m. c #4D90CD",
"M. c #759FC7",
"N. c #7DA1C6",
"B. c #6AA3D4",
"V. c #4599E4",
"C. c #5298E2",
"Z. c #4FA6E5",
"A. c #7AB5E0",
"S. c #848385",
"D. c #8B8686",
"F. c #858589",
"G. c #8B8A8D",
"H. c #928788",
"J. c #858C96",
"K. c #8B8C91",
"L. c #8E9197",
"P. c #949190",
"I. c #939295",
"U. c #95959A",
"Y. c #989599",
"T. c #9B9A9D",
"R. c #B18D87",
"E. c #A99888",
"W. c #A59895",
"Q. c #A59B9C",
"!. c #AEA28B",
"~. c #BEAD84",
"^. c #B5A888",
"/. c #BDB98B",
"(. c #ACA396",
"). c #B3AC99",
"_. c #BAB695",
"`. c #858EA1",
"'. c #8695A8",
"]. c #959AA5",
"[. c #9D9DA3",
"{. c #849DB8",
"}. c #A19EA3",
"|. c #9DA0AB",
" X c #88A2BE",
".X c #9AA3B3",
"XX c #A3A2A5",
"oX c #A9A5A4",
"OX c #ADABA3",
"+X c #A7A6AB",
"@X c #A9A7A9",
"#X c #AAAAAB",
"$X c #A7ADB4",
"%X c #B1AFB1",
"&X c #B4B4B6",
"*X c #B5B6B9",
"=X c #B8B7B8",
"-X c #BBBABC",
";X c #C6AF8E",
":X c #C9C385",
">X c #C9C49E",
",X c #E2DA9A",
"<X c #CEC9B3",
"1X c #E0DBAC",
"2X c #85A7CA",
"3X c #8CACCB",
"4X c #96AEC7",
"5X c #94B2CB",
"6X c #88ACD2",
"7X c #8DB4D7",
"8X c #95B9DA",
"9X c #A8B8CB",
"0X c #95BDE2",
"qX c #C1BFC0",
"wX c #BEC1C6",
"eX c #9BC5E7",
"rX c #A6CAE6",
"tX c #A3CCEC",
"yX c #A6D0EE",
"uX c #A3CEF1",
"iX c #ABD5F3",
"pX c #A8D5F5",
"aX c #AED9F5",
"sX c #C4C4C5",
"dX c #CAC8C6",
"fX c #CACBCD",
"gX c #D7D3CB",
"hX c #CFCFD1",
"jX c #D4D3D4",
"kX c #DBDADB",
"lX c #F1EECB",
"zX c #E6E4DB",
"xX c #DFDFE2",
"cX c #E0DFE1",
"vX c #E3E3E3",
"bX c #E7E7E8",
"nX c #EDECEB",
"mX c #F3F3F3",
"MX c #F9F8F7",
/* pixels */
"+X+X+X+X+X+X+X+X+X+X+X+X+X+X+X+X+X+X+X+X+X+X+X+X+X+X+X+X+X+X+X+X+X+X+X+X+X+X+X+X+X+X+X+X+X+X+X+X+X+X+X+X+X+X+X+X+X+X+X+X+X+X+X+X",
"+X+X+X+X+X+X+X+X+X+X+X+X+X+X+X+X+X+X+X+X+X+X+X+X+X+X+X+X+X(.E.*.=.W.+X#X+X+X+X+X+X+X+X+X+X+X$X+X+X+X+X+X+X+X+X+X+X+X+X+X+X+X+X+X",
"+X+X+X+X+X+X+X+X+X+X+X+X+X+X+X+X+X+X+X+X+X+X+X+X+X+X+X+XP.A ,.,.m m Z }.+X+X+X+X+X+X+X+X+X+X+X+X+X+X+X+X+X+X+X+X+X+X+X+X+X+X+X+X",
"+X+X+X+X+X+X+X+X+X+X+X+X+X+X+X+X+XXXoX+X+X+X+X+X+X+X+XQ.B n n v v v v %.+X+X+X+X+X+X+X+X+X+X+X+X+X+X+X+X+X+X+X+X+X+X+X+X+X+X+X+X",
"+X+X+X+X+X+X+X+X+X+X+X+X+X+X+X+X+X2.| 9.).#X+X+X+X+X+XH.v % # # # + + * }.+X+X+X+X+X+X+X+X+X#X_.5.E.+X+X+X+X+X+X+X+X+X+X+X+X+X+X",
"+X+X+X+X+X+X+X+X+X+X+X+X+X+X+X+X*.` _ _ 6.).+X+X+X+XXXy @ # >.1.B %   @ G.+X+X+X+X+X+X+X+XOX8.{ ' ^ 1.@X+X+X+X+X+X+X+X+X+X+X+X+X",
"+X+X+X+X+X+X+X+X+X+X+X+X+X+X+X+X} _ ' ' ' :X+X+X+X+X[.3   * &.3.>.v   $ y +X+X+X+X+X+X+X+X_.{ ' ' ' / Q.+X+X+X+X+X#X+X+X+X+X+X+X",
"+X+X+X+X+X+X+X+X+X+X+X+X+X+X+XoX6.' ' ' ] :X+X+X+X+Xy.1 4 N &.>.Z N $ $ 6 }.+X+X+X+X+X+X+X:X] ' ' ' { ^.+X+X+X+X+X+X+X+X+X+X+X+X",
"+X+X+X+X+X+X+X+X+X+X+X+X+X+X+X+X=.! ] ' 7.OX+X+XOXU.f t 5 &.3.3.B &.& , $.$X+X+X+X#X+X+X+XOXo.' ' _ <.oX+X+X+X+X+X+X+X+X+X+X+X+X",
"+X+X+X+X+X+X+X+X+X+X+X+X+X+X+X+XR.b ~ ' 8.OX+X#X(.T.I.t @ * 3.3.&.5 X $ %.OX+X+X+X+X+X+X+X+X:X] ) S Z +X+X+X+X+X+X+X+X+X+X+X+X+X",
"+X+X+X+X+X+X+X+X+X+X+X+X+X+X+X+XQ.Z W ' { o.8._.9.L.U.f : X y *.V X X : s XX+X+X+X!.:.oX_.9.7.] ^ b Z #X+X+X+X+X+X+X+X+X+X+X+X+X",
"+X+X+X+X+X+X+X+X+X+X+X+X+X+X+X+X+X;.! ' | #.,XlXzXdX-X(.P.3 & * @ . : 1 t XX+X+X+X!.[ o.[ ! Q ' ^ @.XX+X+X+X+X+X+X+X+X+X+X+X+X+X",
"+X+X+X+X+X+X+X+X+X+X+X+X+X+X+X+XXX#.} 0.1XgXnXMXMXmXkX-X#X+XS.a i u d t G.hXfX&X+XXX} ' W F ( ' Q P +X+X+X+X+X+X+X+X+X+X+X+X+X+X",
"+X+X+X+X+X+X+X+X+X+X+X+X+X+X+X+X+X~.>X<XzXzXmXMXMXcXOXU.K.#XoX=X&X#XF.q P.sXnXbXjX+X9.' ( F _ ] ! <.oX+X+X+X+X+X+X+X+X+X+X+X+X+X",
"+X+X+X+X+X+X+X+X+X+X+X+X+X+X+X+X#XqXkXbXbXnXmXmXnX=X[.y.u K.G.*X&XsXG.t f OXkXmXmXbXjX,X0.| P H P ;.+X+X+X+X+X+X+X+X+X+X+X$X+X+X",
"+X+X+X+X+X+X+X+X+X+X+X+X+X+X+X%XsXcXjXgXcXjXjXjXsXd.I.p q G.S.jXfXqXS.3 1 D.%XkXcXmXmXmXmXzXzX>X).+X+X+X+X+X+X+X+X+X+X+X+X+X+X+X",
"+X+X+X+X+X+X+X+X+X+X+X+X+X+X}.9XzXnXqX}.+X}.}.Q.[.q r 1 p u q $X*XXXt d.> t y }.-XhXvXxXbXbXbXvXkX@XoXXX+X+X+X+X+X#X+X+X+X+X+X+X",
"+X+X+X+X+X+X+X+X+X+X+X+X+X+X+XfXnXzX#XD.G.Y.}.XX}.r < O }.G.K.jXjX&Xi %Xt > F.i y y S.I.I.I.Y.=XqXV R.;XR.}.+X+X+X+X+X+X+X+X+X+X",
"+X+X+X+X+X+X+X+X+X+X+X+X+X[.+XdXgX-X}.}.XX+X+X+X}.S.O 3 %X[.U.bXnXdXS.G.G.3 XX}.T.P.D.C C s y s C 5 v N Z V +X+X+X+X+X+X+X+X+X+X",
"#X+X+X+X+X+X+X+X+X+X+X+XXX%.@.| [ 4.~.}.+X+X+X+X+XF.o f [.f I.jXvXkXL.s y.t XX+X+XXX+X+XXXQ.}.[.(.2. ./ K %.+X+X+X+X+X+X+X+X+X+X",
"+X+X+X+X+X+X+X+X+X+X+X+XR.>.^ _ ' ) ..9.+X+X+X+X+XL.> T.9Xd }.fXjXkXU.y.y.i }.+X+X+X+X+X+X+X+X_.6.( _ ' _ R Q.OX+X+X+X+X+X+X+X+X",
"+X#X+X+X+X+X+X+X+X+X+XT.Z P @.^ Q +.+...OX+X+X+X+XH.3 F.P.y.#XhXfXjX$Xu a G.+X+X+X+X+X+X+X+X+X9.L +.L _ P R =.+X+X+X+X+X+X+X+X+X",
"+X+X+X+X+X+X+X+X+X+X+XD.N P $.R H $.+.[ _.+X+X+X#XK.S.9 y.K.&XqXfXwX*Xy.y.f XX+X+X+X+X+X+X+X+X8.! $.J ! +.%.@.+X+X+X+X+X+X+X+X+X",
"+X+X+X+X+X+X+X+X+X+X+XI.V } S z b D / 5.#X+X+X+X}.S.S.1 H.#X-X9X-X*XwXXX3 f XX+X+X+X+X+X+X+X+X/.O.! c z b ! -.#X+X#X+X+X+X+X+X+X",
"+X+X+X+X+X+X+X+X+X+X+X+XT.E.z k k x 9.(.+X+X+X+X+XG., > S.oX#X}.K.S.y C , i }.#X+X+X+X+X+X+X+X+X;XR h k k Z }.+X+X+X+X+X+X+X+X+X",
"#X+X+X+X+X+X+X+X+X+X+X+X|.R.h k k b /.+X+X+X+X+X+X|.t X @ $ % 4 5 7 = 4 1 }.+X#X+X+X+XXX+X+X+XOX).@.h k k M oX+X+X+X+X+X+X+X+X+X",
"+X+X+X+X+X+X+X+X+X+X+X+X+XR.l h h c O.6.8./.).:.=.+Xf $ , t 5 6 7 y V y.6 K.+X+X+X+XW.-.)._.9.8.6.T g j h M }.+X+X+X+X+X+X+X+X+X",
"+X+X+X#X+X+X+X+X+X+X+X+X+X$X=.I I Q W ' ] H Y ( -.XXe t.l.k.3X7X X5X6XN.z.`.+X+X+X+XQ...} L Q ' ) ^ I I K W.+X+X+X+X+X+X+X+X+X+X",
"+X+X+X+X+X+X+X+X+X+X+X+X+X+X<.' ' ( U ' ' ^ J  .).[.z.7X3Xf.f.7X6X8X2X2X0X0X.X+X+X+X+X5.G G ) ' ( W _ ' { !.+X+X+X+X+X+X+X+X+X+X",
"+X+X+X+X+X+X+X+X+X+X+X+X+X}.| ' ' _ F Q ) ^ H X.(.'.3XeXyXeX Xc.c.M.{.3X3XtX8X+X+X+X+X:.! D ) ( F Q ' ' ` !.+X+X+X+X+X+X+X+X+X+X",
"+X+X+X+X+X+X+X+X+X+X+X+X+X+X*.) ' ' ( F D G ! ;.].3XuXrX5X5X3Xc.q.q.f.l.3XrXiX9X.X#X+XQ.| F D D Q ' ' _ E W.+X+X#X+X+X+X+X+X+X+X",
"+X+X+X+X+X+X+X#X+X+X+X+X+X+X}.1...` _ _ / E ;.XX XuXaXyX5Xz.t.8 - - 8 k. X7XaXiX$X+X+X+XT.2. .` _ ) { <.W.+X+X+X+X+X+X+X+X+X+X+X",
"+X+X+X+X+X+X+X+X+X+X+X+X+X+X+X+XQ.!.~.;XQ.}.+X|.8XiXiXiX0X Xi.2 o . 8 p.6X0XpXaXrX+X+X+X+X+X}.^.;X^.(.}.+X+X+X+X+X+X+X+X+X+X+X+X",
"+X+X+X+X+X+X+X+X+X+X+X+X+X+X+X+X+X+X}.+X#X+X+X.XtXaXaXuX5Xc.k.K.L.> - w.k.7XuXaXiX9X}.+X+X+X+X+X+X+X#X}.+X+X+X+X+X+X+X+X+X+X+X+X",
"+X+X+X+X+X+X+X+X+X+X+X+X+X+X+X+X+X+X+X+X#X+X|. XtXiXaXtX7X X`.XX+X}.q 0 x.c.0XuXaX9X+X+X+X+X+X+X+X+X+X+X+X+X+X+X+X+X+X+X+X+X+X+X",
"+X#X+X+X+X+X+X+X+X+X+X+X+X+X+X+X+X+X+X+X+X+X].6XiXaXiX0XM.'.}.+X+X+X}.u w.e.M.eXiXrX4X+X+X+X+X+X+X+X+X+X+X+X+X+X+X+X+X+X+X+X+X+X",
"+X+X+X+X+X+X+X+X+X+X+X+X+X+X+X+X+X+X+X+X+X}..X0XiXaXpX6Xl.}.+X+X+X+X+X}.u q.i.7XuXpX4X+X+X+X+X+X+X+X+X+X+X+X+X+X+X+X+X+X+X+X+X+X",
"+X+X+X+X+X+X+X+X+X+X#X+X+X+X+X+X+X+X+X+X+X}.'.0XaXpX0Xc.].+X+X+X+X+X+X+X[.1 8 k.2X2X{.}.+X+X+X+X+X+X+X+X+X+X+X+X+X+X+X+X+X+X+X+X",
"+X+X+X+X+X+X+X+X+X+X+X+X+X+X+X+X+X+X+X+X}.y.w 0XpXuX2X'.+X+X+X+X+X+X+X+X[.9 ; 8 8 e J.+X+X+X+X+X+X+X+X+X+X+X+X+X+X+X#X}.+X+X+X#X",
"+X+X+X+X+X+X+X+X+X+X+X+X+X+X+X+X+X+X+X+X}.w 2 e.6X2Xl.}.+X+X+X+X+X+X+X+XL.8 ; ; < 9 }.+X+X+X+X+X+X+X+X+X#X+X+X+X+X+X+X+X+X+X+X+X",
"+X+X+X+X+X+X+X+X+X+X+X+X+X+X+X+X+X+X+X+X}.2 > : 3 9 F.+X+X+X+X+X+X+X+X+Xp.q.8 - o d }.#X+X+X+X+X+X+X+X+X+X+X+X+X+X+X+X+X+X+X+X+X",
"+X+X+X+X+X+X+X+X+X+X+X+X+X+X+X+X+X+X+X+XL.< : 1 1 t [.+X+X+X+X+X+X+X+X}.r.s.e.8 8 Y.+X+X+X+X+X+X+X+X+X+X+X+X+X+X+X#X+X+X+X+X+X+X",
"+X+X+X+X+X+X+X+X+X+X+X+X+X+X+X+X+X+X+X+Xr.; - : 2 I.+X+X+X+X+X+X+X+X+XU.r.w.e.s.`.+X+X+X+X+X+X+X+X+X+X+X+X+X+X+X+X+X+X+X+X+X+X+X",
"+X+X+X+X+X+X+X$X+X+X+X#X+X+X+X+X+X+X+X}.9 - - - p }.+X#X+X+X+X+X+X@X+Xu.w.a.j.s.].+X+X+X+X+X+X+X+X+X+X+X+X+X+X+X+X+X+X+X+X+X+X+X",
"+X+X+X+X+X+X+X+X+X+X+X+X+X+X+X+X+X+X+XXXr . o - J.+X+X+X+X+X+X+X+X+X}.p.w.s.w.p.}.#X+X+X+X+X+X+X+X+X+X+X+X+X+X+X#X+X+X+X+X+X+X+X",
"+X+X+X+X+X+X+X+X+X+X+X+X+X+X+X+X+X+X+X].q.- o p }.+X+X+X+X+X+X+X+X+XU.r.q.s.k.].+X+X+X+X+X+X+X+X#X+X+X+X+X+X+X+X+X+X+X+X+X+X+X+X",
"+X+X+X+X+X+X+X+X+X+X+X+X+X+X+X+X+X+XXXg.a.2 8 U.+X+X+X+X+X+X+X+X+X}.u q.s.q.r.}.+X+X+X+X+X+X+X+X+X+X+X+X+X+X+X+X+X+X+X+X+X+X+X+X",
"+X+X+X+X+X+X+X+X+X+X+X+X+X+X+X+X+X+X].a.n.v.k.XX+X+X+X+X+X+X+X+X+X}.r.q.e q.J.XX+X+X+X+X+X+X+X+X+X+X+X+X+X+X+X+X+X+X+X+X+X+X+X+X",
"+X+X+X+X+X+X+X+X+X+X+X+X+X+X+X+X+X+X].m.n.n.h.}.+X+X+X+X+X+X+X+X+X+Xe i.k.r.].+X+X+X+X+X+X+X+X+X+X+X+X+X+X+X+X+X#X+X+X+X+X+X+X+X",
"+X+X+X+X+X+X+X+X+X+X+X+X+X+X+X+X+X+XU.m.n.v.'.+X+X+X+X+X+X+X+X#X.XB.m.j.e.p.}.+X+X+X+X+X+X+X+X+X+X+X+X+X+X+X+X+X+X+X+X+X+X+X+X+X",
"+X+X+X+X+X+X+X+X+X+X+X+X+X+X+X+X+X+X].v.n.m.].+X+X+X+X+X+X+X+XXX4XC.n.b.n.z.+X+X+X+X+X+X+X+X+X+X+X+X+X+X+X+X+X+X+X+X+X+X+X+X+X+X",
"+X+X+X+X+X+X+X+X+X+X+X+X+X+X+X#X+X#XXXx.m.{.+X+X+X+X+X+X+X+X+X}.a 5XV.n.b.N.+X+X+X+X+X+X+X+X+X+X$X+X+X+X+X+X+X+X+X+X+X+X+X+X+X+X",
"+X+X+X+X+X+X+X+X+X+X+X+X+X+X+X+X+X+X+X|.|.+X+X+X+X+X+X+X+X+X+X+XT.F.A.V.b.M.#X+X+X+X+X+X+X+X+X+X+X+X+X+X+X+X+X+X+X+X+X+X+X+X+X+X",
"+X+X#X+X+X+X+X+X+X+X+X+X+X+X+X+X+X+X+X+X+X+X+X+X+X+X#X+X+X+X+X+X#XXXf.V.n.B.+X+X#X+X+X+X+X+X+X+X+X+X+X+X+X+X+X+X+X+X+X+X+X+X+X+X",
"+X+X+X+X+X+X+X+X+X+X+X+X+X+X+X+X+X+X+X+X+X+X+X+X#X+X+X+X+X+X+X+X+X+XF.{.Z.Z.$X+X+X+X+X+X+X+X+X+X+X+X+X+X+X+X+X+X+X#X+X+X+X+X+X+X",
"+X+X+X+X+X+X+X+X+X+X+X+X+X+X+X+X+X+X+X+X+X+X+X+X+X+X+X+X+X+X+X+X+XOXXXt r.c..X+X+X+X+X+X+X+X+X+X+X+X+X+X+X+X+X+X+X+X+X+X+X+X+X+X",
"+X+X+X+X+X+X+X+X+X+X+X+X+X+X+X+X+X+X+X+X+X+X+X+X+X+X+X+X+X+X+X+X+X+X+X|.T.I.+X+X+X+X+X+X+X+X+X+X+X+X+X+X+X+X+X+X+X+X+X+X+X+X+X+X",
"+X+X+X+X+X+X+X+X+X+X+X+X+X+X+X+X+X+X+X+X+X+X+X+X+X+X+X+X+X+X#X+X+X+X+X+X+X+X+X+X+X+X+X+X+X+X+X+X+X+X+X+X+X+X+X+X+X+X+X+X+X+X+X+X",
"+X+X+X+X+X+X+X+X+X+X+X+X+X+X+X+X+X+X+X+X+X+X+X+X+X+X+X+X+X+X+X+X+X+X+X+X+X+X+X+X+X+X+X+X+X+X+X+X+X+X+X+X+X+X+X+X+X+X+X+X+X+X+X+X",
"+X+X+X+X+X+X+X+X+X+X+X+X+X+X+X+X+X+X+X+X+X+X+X+X+X+X+X+X+X+X+X+X+X+X+X+X+X+X+X+X+X+X+X+X+X+X#X+X+X+X+X+X+X+X+X+X+X+X+X+X+X+X+X+X",
"+X+X+X+X+X+X+X+X+X+X+X+X+X+X+X+X+X+X+X+X+X+X+X+X+X+X+X+X+X+X+X+X+X+X+X+X+X+X+X+X+X+X+X+X+X+X+X+X+X+X+X+X+X+X+X+X#X+X+X+X+X+X+X+X",
"+X+X#X+X+X+X+X+X+X+X+X+X+X+X+X+X+X+X+X+X+X+X+X+X+X+X+X+X+X+X+X+X+X+X+X+X+X+X+X+X+X+X+X+X+X+X+X+X+X+X$X+X+X+X+X+X+X+X+X+X+X+X+X+X",
"+X+X+X+X$X#X+X+X+X+X+X+X+X+X+X+X+X+X+X+X+X+X+X+X+X+X+X+X+X+X+X+X+X+X+X+X+X+X+X+X+X+X+X+X+X+X+X+X+X+X+X+X+X+X+X+X+X+X+X+X+X+X+X+X",
"+X+X+X+X+X+X+X+X+X+X+X+X+X+X+X+X+X#X+X+X+X+X+X+X+X+X+X+X+X+X+X+X+X+X+X+X+X+X+X+X+X+X+X+X+X+X+X+X+X+X+X+X+X+X+X+X+X+X+X+X+X+X+X+X"
};
