/* XPM */
static char *_B1721607245[] = {
/* columns rows colors chars-per-pixel */
"64 64 234 2 ",
"   c #291F1A",
".  c #31221C",
"X  c #342C28",
"o  c #2D2D31",
"O  c #37383A",
"+  c #472A1B",
"@  c #453228",
"#  c #583622",
"$  c #493C36",
"%  c #633C25",
"&  c #544238",
"*  c #674B3B",
"=  c #734C31",
"-  c #393E46",
";  c #3C434C",
":  c #474648",
">  c #564C49",
",  c #454C57",
"<  c #514F52",
"1  c #4D525B",
"2  c #565558",
"3  c #6B4F42",
"4  c #745B49",
"5  c #665A5A",
"6  c #746F4E",
"7  c #49586C",
"8  c #575B64",
"9  c #4E5F7B",
"0  c #605F60",
"q  c #5F626A",
"w  c #596578",
"e  c #676668",
"r  c #6C6A6C",
"t  c #756C6C",
"y  c #696C73",
"u  c #726E72",
"i  c #6E7278",
"p  c #727275",
"a  c #7A7577",
"s  c #7B7A7D",
"d  c #B7281C",
"f  c #B9361A",
"g  c #A53036",
"h  c #C6291E",
"j  c #E31C23",
"k  c #EB1C24",
"l  c #C52B2D",
"z  c #A54819",
"x  c #B47710",
"c  c #8C522E",
"v  c #94532B",
"b  c #8B743B",
"n  c #B86E38",
"m  c #D16236",
"M  c #B9474A",
"N  c #886550",
"B  c #AE7550",
"V  c #B77750",
"C  c #897A6A",
"Z  c #987868",
"A  c #827B7B",
"S  c #937F7A",
"D  c #AB6B65",
"F  c #C25152",
"G  c #C17F54",
"H  c #AD8E10",
"J  c #B5AA0B",
"K  c #B8AB14",
"L  c #96922F",
"P  c #A59333",
"I  c #AEA72C",
"U  c #B7A63D",
"Y  c #C3B80B",
"T  c #D5B70E",
"R  c #C9BB17",
"E  c #C19D2D",
"W  c #E89C26",
"Q  c #C9B338",
"!  c #D2C405",
"~  c #D9CC0A",
"^  c #DCD104",
"/  c #DED409",
"(  c #CFC41C",
")  c #D6CA17",
"_  c #E8DC02",
"`  c #E8D516",
"'  c #F1DD14",
"]  c #EEE207",
"[  c #F3E602",
"{  c #FBED02",
"}  c #F6E608",
"|  c #FBEE0B",
" . c #FFF200",
".. c #FDF008",
"X. c #F5E417",
"o. c #D7C62A",
"O. c #DECE36",
"+. c #E8D427",
"@. c #E8DB32",
"#. c #F4E627",
"$. c #928D51",
"%. c #AD9A46",
"&. c #BDA84B",
"*. c #93896A",
"=. c #8A8278",
"-. c #9E977A",
";. c #AC8368",
":. c #B88865",
">. c #AF8878",
",. c #B29374",
"<. c #B5A56B",
"1. c #BBA37B",
"2. c #C38A5F",
"3. c #EC8C43",
"4. c #D0B64F",
"5. c #CD9567",
"6. c #C69877",
"7. c #C5AC67",
"8. c #CDB862",
"9. c #D7A277",
"0. c #C2B47B",
"q. c #D6C555",
"w. c #E8D754",
"e. c #D4CC6E",
"r. c #DCD464",
"t. c #D0CA78",
"y. c #E0D761",
"u. c #576A85",
"i. c #51698E",
"p. c #5A779D",
"a. c #636E82",
"s. c #6B7588",
"d. c #7D7D82",
"f. c #757D8F",
"g. c #657C9A",
"h. c #5B7DA8",
"j. c #627EA4",
"k. c #76838C",
"l. c #7A8494",
"z. c #5983AC",
"x. c #5985B4",
"c. c #6A87A8",
"v. c #7692AD",
"b. c #7A97BA",
"n. c #3B92DB",
"m. c #2891E5",
"M. c #3798E5",
"N. c #4D90CD",
"B. c #6C9FCC",
"V. c #74A2CD",
"C. c #4599E4",
"Z. c #4FA6E5",
"A. c #7AB5E0",
"S. c #848385",
"D. c #8B8582",
"F. c #85868A",
"G. c #8B8688",
"H. c #8A8A8C",
"J. c #918889",
"K. c #9D9386",
"L. c #8A8C94",
"P. c #928F92",
"I. c #8E919B",
"U. c #939295",
"Y. c #95959B",
"T. c #989699",
"R. c #9B9A9E",
"E. c #AD8084",
"W. c #A9968D",
"Q. c #B39E88",
"!. c #AA9897",
"~. c #A39B9D",
"^. c #ADA58D",
"/. c #B8A988",
"(. c #B8BB87",
"). c #A8A192",
"_. c #ABA39C",
"`. c #B1AA96",
"'. c #B8B499",
"]. c #8696AA",
"[. c #8698AF",
"{. c #959AA2",
"}. c #9D9DA3",
"|. c #949BAA",
" X c #A19EA2",
".X c #94A1B5",
"XX c #9AA3B3",
"oX c #A3A1A5",
"OX c #A9A5A7",
"+X c #A7A6AB",
"@X c #AAAAAC",
"#X c #B2AFA8",
"$X c #A7ABB3",
"%X c #B0AFB3",
"&X c #B3B3B4",
"*X c #B6B6B9",
"=X c #B8B7B8",
"-X c #BCBBBD",
";X c #C2BD8D",
":X c #F7B583",
">X c #CDC78C",
",X c #C5C4BF",
"<X c #EBE1AF",
"1X c #83A7CD",
"2X c #96ABC5",
"3X c #8DAFD1",
"4X c #97B9D8",
"5X c #A8B8CB",
"6X c #95BFE6",
"7X c #C1BFC1",
"8X c #B1C6D5",
"9X c #96C3E9",
"0X c #A7CDEB",
"qX c #A3CEF0",
"wX c #A8D5F5",
"eX c #ABD5F4",
"rX c #AED9F6",
"tX c #C5C3C4",
"yX c #C9C9C8",
"uX c #CACACC",
"iX c #D1D0D1",
"pX c #D4D4D4",
"aX c #D6D6D8",
"sX c #DBDBDB",
"dX c #E3E0DB",
"fX c #DFDFE2",
"gX c #E0DFE1",
"hX c #E3E3E4",
"jX c #E9E8E7",
"kX c #E7E6E8",
"lX c #ECECEB",
"zX c #EFEFF1",
"xX c #F4F3F3",
"cX c #F9F8F7",
/* pixels */
"+X+X+X+X+X+X+X+X+X+X+X+X+X+X+X+X+X+X+X+X+X+X+X+X+X+X+X+X+X+X+XOXOX+X+X+X+X+X+X+X+X+X+X+X+X+X+X+X+X+X+X+X+X+X+X+X+X+X+X+X+X+X+X+X",
"+X+X+X+X+X@X+X+X+X+X+X+X+X+X+X+X+X+X+X+X+X+X+X+X+X+X+X+X+X~.W.,.>.!.OXOX+X+X+X+X+X+X+X+X+X+X+X+X+X+X+X+X+X+X+X+X+X+X+X+X+X@X+X+X",
"+X+X+X+X+X+X+X+X+X+X+X+X+X+X+X+X+X+X+X+X+X+X+X+X+X+X+X+XW.V 3.3.3.m Z oX+X+X+X+X+X+X+X+X+X+X+X+X+X+X+X+X+X+X+X+X+X+X+X+X+X+X+X+X",
"+X+X+X+X+X+X+X+X+X+X+X+X+X+X+X+X+X+X+X+X+X+X+X+X+X+X+X~.B n n v c v v =.OX+X+X+X+X+X+X+X+X+X@X+X+X+X+X+X+X+X+XOX+X+X+X+X+X+X+X+X",
"+X+X+X+X+X+X+X+X+X+X+X+X+X+X+X+X+X+X+X+X+X+X+X+X+X+XOXD.c % # # % + + *  X+X+X+X+X+X+X+X+X+X+X+X+X+X+X+X+X+X+X+X+X+X+X+X+X+X+X+X",
"+X+X+X+X+X+X+X+X+X+X+X+X+X+X+X+X+X+X+X+X+X+X+X+X+X+XOXt @ % 5.5.V % . X G.+X+X+X+X+X+X+X+X+X+X+X+X+X+X+X+X+X+X+X+X+X+X+X+X+X+X+X",
"+X+X+X+X+X+X+X+X+X+X+X+X+X+X+X+X+X+X+X+X+X+X+X+X+X+X}.2   * :.9.2.c   $ r +X+X+X+X+X+X+X+X+X+X@X+X+X+X+X+X+X+X+X+X+X+X+X+X+X+X+X",
"+X+X+X+X+X+X+X+X+X@X+X+X+X+X+X+X+X+X+X+X+X+X+X+X+X+Xd.< 3 N :.2.B N $ & 5 oX+X+X+X+X+X+X+X+X+X+X+X+X+X+X+X+X+X+X+X+X+X+X+X+X+X+X",
"+X+X+X+X+X+X+X+X+X+X+X+X+X+X+X+X+X+X+X+X+X+X+X+X+XY.s r 4 D :X9.;.:.& > -.+X+X+X+X+X+X+X+X+X+X+X+X+X+X+X+X+X+X@X+X+X+X+X+X+X@X+X",
"+X+X+X+X+X+X+XOXQ.8.0.+X+X+X+X+X+X+X+X+X+X+X+X+X+XR.U.r $ % ;X:X;.4 X & *.OX+X+X+X+X+X+X+X+X+X+X+X+X+X+X+X+X+X`.7.1.!.OX+X+X+X+X",
"+X+X+X+X+X+XOX1.+.{ | t.+X+X+X@X+X+X+X+X+X+X+X@X@XY.Y.s > X 6 6.Z o X $ a OX+X+X+X+X+X+X+X+X+X+X+X+X+X+X+X+X'.@.{ } 7. X+X+X+X+X",
"+X+X+X+X+X+XOX:.P ~  .#.'.+X+X+X+X+X+X+X@X%XyXsXsXyX=X_.P.< & & O . : 2 e oX+X+X+X+X+X+X+X+X+X+X+X+X+X+X+X+Xe. .} I &.!.+X+X+X+X",
"+X+X+X+X+X X!.G L )  .#.#X+X+X+X+X+X+X@XyXpXlXcXcXxXsX-X@XOXS.p t r p r H.iXuX%X+X+X+X+X+X+XOX+X+X+X+X+X+X+Xr. .[ U P D +XOXOX+X",
"+X+X+X+X+XE.F m } { ..r.OX+X+X+XOX#X7XyXsXdXxXcXcXdX@XT.L.#XOX=X&XOXG.0 P.tXzXjXpX@XOXOX+X+X@X@X+X+X+X+X+X+X(.#.{  .W F D  X+X+X",
"+X+X+X+X+X+X!.Q.#.{ #.'.+X+X+XOX+X8XsXjXjXjXxXxXlX&XR.k.e L.H.*X=XyXJ.u A OXsXzXxXkXaX8X=X@X@XOX+X+X+X+X+X+XOXr. .{ 8.!.!. X+X+X",
"+X+X+X+X+X+X+XOXq. .#.>Xt.e.>X'.,XdXpXiXdXaXaXiX,XS.Y.u q H.S.pXyX5XD.2 < G.#XgXgXxXxXxXlXhXhX5X@X)./.'.>Xt.;Xy. .X._.+X%X+X+X+X",
"+X+X+X+X+X+X+X+Xq. .{ | | [ ( >XlXlXtX~.OXoX_.T.R.8 e < p r 8 @X=XOXr d.: r t  X-XiXgXgXkXkXkXhXsX/.#.o.'  .| |  .X._.@X+X+X+X+X",
"+X+X+X+X+X+X+X+Xq. ._ [  .{ q.yXlXfX@XS.F.T.oX+XoXe , O }.H.L.pXpX&Xp &Xu : D.u t t G.T.U.P.T.*XtXZ 0.6.<.#. .^ [ X.`.+X+X+X+X+X",
"+X+X+X+X+X+X+X+X8.{ ^ ^  .@.'.pXsX5X_.}.+X+X+X+X+Xd.O 2 &X'.q.<XdX,Xd.H.L.2 oX XT.P.H.A A C t A A 4 3 N D 4.[ Y { +._.+X+X+X+X+X",
"+X+X+X+X+X+X+X+X^.` { J ) U =.&X*X+XoX+X+X+X+X+X@XF.X =.8.`  .{ #.w.-.a s r oX+X@X X+X X X}. XR. X~.S b = %.Y _ | 4.OX+X+X+X+X+X",
"+X+X+X+X+X+X+X+X+XW.4.O.4.5.:.C H.oX+X+X+X+X+X+X+XH.b +.{  . .{ [ _ ` *.d.u oX+X@X+X+X+X+X+X+X+X X+X X/.&.4.R O.7._.+X+X+X+X+X+X",
"+X+X+X+X+X+X+X+X+X+X@X!.Z 6.,.>.}.+X+X+X+X+X+X+X+XK.( K Y {  .[ L *.I Q p L.+X+X+X+X+X+X+X+X+X+X+X+X+X+X X~._.oXOX+X+X+X+X+X+X+X",
"+X+X+X+X+X+X+X+X+X+X+XJ.C W.K.!.oX+X+X+X+X+X+X+X@X<.I *.6 ! Y ! $.H.P ` S p  X+X+X+X+X+X+X+X+X+X+X+X+X+X+X+X+X+X+X+X+X@X+X+X+X+X",
"+X+X+X+X+X+X+X+X+X+X+XT.A  X~.~.+X+X+X+X+X+X+X+XOX<.Y 6 b H h h H L / O.5 d. X+X+X+X+X+X+X+X+X+X+X+X+X+X+X+X+X+X+X+X+X+X+X+X+X+X",
"+X+X+X+X+X+X+X+X+X+X+X+X}.OX+X+X+X+X+X+X+X+X+X+X+XK.` ] H h k k d H ` $.< a +X+X+X+X+X+X+X+X+X+X+X+X+X+X+X+X+X+X+X+X+X+X+X+X+X+X",
"+X+X+X+X+X+X+X+X+X+X+X+X+X+X+X+X+X+X+X+X+X+X+X+X+XoXt H f k k k k l c * 2 R.+X+X+X+X+X+X+X+X+X+X+X+X+X+X+X+X+X+X+X+X+X+X+X+X+X+X",
"+X+X+X+X+X+X+X+X+X+X+X+X@X+X+X+X+X+X+X+X+X+X+X+X+X+Xd.g j k k k k k M s 8 L.+X+X+X+X+X+X+X+X+X+X+X+X+X+X+X+X+X+X+X+X+X+X+X+X+X+X",
"+X+X+X+X+X+X+X+X+X+X+X+X+X+X+X+X+X+X+X+X+X+X+X+X+X_.r g k j k j j k l K.v.L.+X+X+X+X+X+X+X+X+X+X+X+X+X+X+X+X+X+X+X+X+X+X+X+X+X+X",
"+X+X+X+X+X+X+X+X+X+X+X+X+X+X+X+X+X+X+X+X+X+X+X+X+X^.o.v d d d d f z x Y (.4XXX+X+X+X+X+X+X+X+X+X+X+X+X+X+X@X+X+X+X+X+X+X+X+X+X+X",
"+X+X+X+X+X+X+X+X+X+X+X+X+X+X+X+X+X+X+X+X+X+X+XOX-.q.~ [ ^ T ! ! ^ _ { K } e.5XXX+X+X+X+X+X+X+X+X+X+X+X+X+X+X+X+X+X+X+X+X+X+X+X+X",
"+X+X+X+X+X+X+X+X+X+X+X+X+X+X+X+X+X+X+X+X+X+X+X_.@./ Y  . . . . . . . .H [ X.8X8X+X@X+X+X+X+X@X+X+X+X+X+X+X+X+X+X+X+X+X+X+X+X+X+X",
"+X+X+X+X+X+X+X+X+X+X+X+X+X+X+X+X+X+X+X+X+X+X+X_.) J ^  . . . . . . .{ ! J Q 8XqX2X+X+X+X+X+X+X+X+X+X+X+X+X+X+X+X+X+X+X+X+X+X+X+X",
"+X+X+X+X+X+X+X+X+X+X+X+X+X+X+X+X+X+X+X+X+X+X X|.=.!  . . . . . . . . . .~ R.qXrX0X X+X+X+X+X+X+X+X+X+X+X+X+X+X+X+X+X+X+X+X+X+X+X",
"+X+X+X+X+X+X+X+X+X+X+X+X+X@X+X+X+X+X+X+X+X+X+X.X5X4.{  . . . . . . .{ { Q $XqXrXeX5X+X+X+X+X+X+X+X+X+X+X+X+X+X+X+X+X+X+X+X+X+X+X",
"+X+X+X+X+X+X+X+X+X+X+X+X+X+X+X+X+X+X+X+X+X+X X2XqX8X0.o.] {  . .{ } ` E L.b.4XwXrX4XXX+X+X+X+X+X+X+X+X+X+X+X+X+X+X+X+X+X+X+X+X+X",
"+X+X+X+X+X@X+X+X+X+X+X+X+X+X+X+X+X+X+X+X+X+X|.3XwXwXwX3X|.,.<.7.0.Q.W.e u.p.b.9XwX0X$X+X+X+X+X+X+X+X+X+X+X+X+X+X+X+X+X+X+X+X+X+X",
"+X+X+X+X+X+X+X+X+X+X+X+X+X+X+X+X+X+X+X+X+X X|.6XwXrXwX1Xv. X X+X+X+X+XoXy u.g.3XqXqX2X+X+X+X+X+X+X+X+X+X+X+X+X@X+X+X+X+X+X+X+X+X",
"+X+X+X+X+X+X+X+X+X+X+X+X+X+X+X+X+X+X+X+X+X{.[.6XwXrX6Xb.{.+X+X+X+X+X+X+X{.1 7 c.1X1X.X X+X+X+X+X+X+X+X+X+X+X+X+X+X+X+X+X+X+X+X@X",
"+X+X+X+X+X+X+X+X+X+X+X+X+X+X+X+X+X+X+X@X+Xd.9 6XwXqX1X|.+X+X+X+X+X+X+X+X}.8 ; 7 7 u.L.+X+X+X+X+X+X+X+X+X+X+X+X+X+X+X+X+X+X+X+X+X",
"+X+X+X+X+X+X+X+X+X+X+X+X+X+X+X+X+X+X+X+X Xq , g.1X1Xv.}.+X+X+X+X+X+X+X+XU.1 ; , , 2  X+X+X+X+X+X+X+X+X+X+X+X+X+X+X+X+X+X+X+X+X+X",
"+X+X+X+X+X+X+X+X+X+X+X+X+X+X+X+X+X+X+X+X}.1 , : 2 8 F.+X+X+X+X+X+X+X+X+XF.u.7 - o u  X+X+X+X+X+X+X+X+X+X+X+X+X+X+X+X+X+X+X+X+X+X",
"+X+X+X+X+X+X+X+X+X+X+X+X+X+X+X+X+X+X+X+XI., - > < r }.+X+X+X+X+X+X+X+X}.a.p.p.7 7 Y.+X+X+X+X+X+X+X+X+X+X+X+X+X+X+X+X+X@X+X+X+X+X",
"+X+X+X+X$X+X+X+X+X+X+X+X+X+X+X+X+X+X+X+Xs.- - : 1 P.+X+X+X+X+X+X+X+X+XY.w p.p.j.].+X+X+X+X+X+X+X+X+X+X+X+X+X+X+X+X+X+X+X+X+X+X+X",
"+X+X+X+X+X+X+X+X+X+X+X+X+X+X+X+X+X+X+X X8 - - : i oX+X+X+X+X+X+X+X+XOXf.i.h.x.j.}.+X+X+X+X+X+X+X+X+X+X+X+X+X+X+X+X+X+X+X+X+X+X+X",
"+X+X+X+X+X+X+X+X+X+X+X+X+X+X+X+X+X+X+X}.w o o - L.+X+X+X+X+X+X+X+X+X}.f.i.j.i.f. X+X+X+X+X+X+X+X+X+X+X+X+X+X+X+X@X+X+X+X+X+X+X+X",
"+X+X+X+X+X+X+X+X+X+X+X+X+X+X+X+X+X+X+X{.w O o i oX+X+X+X+X+X+X+X+X+X{.y u.c.c.{.+X+X+X+X+X+X+X+X+X+X+X+X+X+X+X+X+X+X+X+X+X+X+X+X",
"+X+X+X+X+X+X+X+X+X+X+X+X+X+X+X+X+X+X+Xl.h.1 7 {.+X+X+X+X+X+X+X+X+X}.y u.g.u.a.}.+X+X+X+X+X+X+X+X+X+X+X+X+X+X+X+X+X+X+X+X+X@X+X+X",
"+X+X+X+X+X+X@X+X+X+X+X+X+X+X+X+X+X+X{.h.M.n.c.oX+X+X+X+X+X+X+X+X+X}.a.u.u.u.l.OX+X+X+X+X+X+X+X+X+X+X+X+X+X+X+X+X+X+X+X+X+X@X X@X",
"+X+X+X+X+X+X+X+X+X+X+X+X+X+X+X+X+X+X{.N.M.M.z. X+X+X+X+X+X+X+X+X+XoXw g.c.u.{.+X+X+X+X+X+X+X+X+X@X+X+X+X+X+X+X+X+X+X+X+X+X+X+X+X",
"+X+X+X+X+X+X+X+X+X+X+X+X+X+X+X+X+X+XU.N.M.n.[.+X+X+X+X+X+X+X+X+XXXV.N.x.p.l.}.+X+X+X+X+X+X+X+X+X+X+X+X+X+X+X+X+X+X+X+X+X+X+X+X+X",
"+X+X+X+X+X+X+X+X+X+X+X+X+X+X+X@X+X+XY.n.M.N.}.+X+X+X+X+X+X+X+XoX2XZ.M.m.n.v.+X+X+X+X+X+X+X+X+X+X+X+X+X+X+X+X+X+X+X+X+X+X+X+X+X+X",
"+X+X+X+X+X+X+X+X+X+X+X+X+X+X+X+X+X+XoXB.N.[.+X+X+X+X+X+X+X+X+X+Xp 3XC.M.m.1X+X+X+X+X+X+X+X+X+X+X+X+X+X+X+X+X+X+X+X+X+X+X+X+X+X+X",
"+X+X+X+X+X+X+X+X+X+X+X+X+X+X+X+X+X+X+XoX{.+X+X+X+X+X+X+X+X+X+X+XR.S.A.C.m.B.$X+X+X+X+X+X+X+X+X+X+X+X+X+X+X+X+X+X+X+X+X+X+X+X+X+X",
"+X+X+X+X+X@X+X+X+X+X+X+X+X+X+X+X+X+X+X+X+X+X+X+X+X+X+X+X+X+X+X+X@XoXl.C.M.B.+X+X+X+X+X+X+X+X+X+X+X+X+X+X+X+X+X+X+X+X+X+X+X+X+X+X",
"+X+X+X+X+X+X+X+X+X+X+X+X+X+X+X+X+X+X+X+X+X+X+X+X+X+X+X+X+X+X+X+X+X+Xk.[.Z.Z.XX+X+X+X+X+X+X+X+X+X+X+X+X+X+X+X+X+X%X+X+X+X+X+X+X+X",
"+X+X+X+X+X+X+X+X+X+X+X+X+X+X+X+X@X+X+X+X+X+X+X+X+X+X+X+X+X+X+X+X+X+XoXp i b.$X+X+X+X+X+X+X+X+X+X+X+X+X+X+X+X+X+X+X+X+X+X+X+X+X+X",
"+X+X+X+X+X+X+X+X+X+X+X@X+X+X+X+X+X+X@X+X+X+X+X+X+X+X+X+X+X+X+X+X+X+X+X+XT.U.+X+X+X+X+X+X+X+X+X+X+X+X+X+X+X+X+X+X+X+X+X+X+X+X+X+X",
"+X+X+X+X+X+X+X+X+X+X+X+X+X+X+X+X+X+X+X+X+X+X+X+X+X+X+X+X+X+X+X+X+X+X+X+X+X+X+X+X+X+X+X+X+X+X+X+X+X+X+X+X+X+X+X+X+X+X+X+X+X+X+X+X",
"+X+X+X+X+X+X+X+X+X+X+X+X+X+X+X+X+X+X+X+X+X+X+X+X+X+X+X+X+X+X+X+X+X+X+X+X+X+X+X+X+X+X+X+X+X+X+X+X+X+X+X+X+X+X+X+X+X+X+X+X+X+X+X+X",
"+X+X+X+X+X+X+X+X+X+X+X+X+X+X+X+X+X+X+X+X+X+X+X+X+X+X+X+X+X+X+X+X+X+X+X+X+X+X+X+X+X+X+X+X+X+X+X+X+X+X+X+X+X+X+X+X+X+X+X+X+X+X+X+X",
"+X+X+X+X+X+X+X+X+X+X+X+X+X+X+X+X+X+X+X+X+X+X+X+X+X+X+X@X+X+X+X+X+X+X+X+X+X+X+X+X+X%X+X+X+X+X+X+X+X+X+X+X+X+X+X+X+X+X+X+X+X+X+X+X",
"+X+X+X+X+X+X+X+X+X+X+X+X+X+X+X+X+X+X+X+X+X+X+X+X+X+X+X+X+X+X+X+X+X+X+X+X+X+X+X+X+X+X+X+X+X+X+X+X+X+X+X+X+X+X+X+X+X+X+X+X+X+X+X+X",
"+X@X+X+X@X+X+X+X+X+X+X+X+X+X+X+X+X+X+X+X+X+X+X+X+X+X+X+X+X+X+X+X+X+X+X+X+X+X+X+X+X+X+X+X+X+X+X+X+X+X+X+X+X+X+X+X+X+X+X+X+X+X+X+X",
"+X+X+X+X+X+X+X+X+X+X+X+X+X+X+X+X+X+X+X+X+X+X+X+X+X+X+X+X+X+X+X+X+X@X+X+X+X+X+X+X+X+X+X+X+X+X+X+X+X+X+X+X+X+X+X+X+X+X+X+X+X+X+X+X"
};
