/* XPM */
static char *_A1721607246[] = {
/* columns rows colors chars-per-pixel */
"64 64 238 2 ",
"   c #2A1F1B",
".  c #2F231D",
"X  c #292829",
"o  c #362B27",
"O  c #3E302E",
"+  c #292D34",
"@  c #37393D",
"#  c #463227",
"$  c #563522",
"%  c #473B36",
"&  c #4B423D",
"*  c #58433A",
"=  c #744B34",
"-  c #373C43",
";  c #3D4349",
":  c #3E4754",
">  c #47474A",
",  c #564943",
"<  c #534C4C",
"1  c #444B57",
"2  c #4D4F53",
"3  c #49505B",
"4  c #585658",
"5  c #674C47",
"6  c #68534D",
"7  c #7A5845",
"8  c #675B5B",
"9  c #7B604F",
"0  c #4B5565",
"q  c #48566B",
"w  c #585C66",
"e  c #615F61",
"r  c #5A626E",
"t  c #52637A",
"y  c #586578",
"u  c #636265",
"i  c #65656A",
"p  c #6A696A",
"a  c #746C6C",
"s  c #6B6C72",
"d  c #747073",
"f  c #737274",
"g  c #797577",
"h  c #7B7A7D",
"j  c #D81E22",
"k  c #E31D22",
"l  c #EA1B23",
"z  c #D32223",
"x  c #D02A2B",
"c  c #CC3325",
"v  c #B6531B",
"b  c #B36314",
"n  c #995733",
"m  c #B04E29",
"M  c #B16532",
"N  c #D27B3B",
"B  c #855B53",
"V  c #BC585C",
"C  c #956D51",
"Z  c #B07855",
"A  c #937566",
"S  c #827A7A",
"D  c #AD786A",
"F  c #C74D51",
"G  c #B78A15",
"H  c #B5AA0A",
"J  c #BEB408",
"K  c #B3AB15",
"L  c #BAAC13",
"P  c #998F28",
"I  c #B19835",
"U  c #B9AD23",
"Y  c #BAA633",
"T  c #D1A60A",
"R  c #C7BB08",
"E  c #C4BC18",
"W  c #D1B310",
"Q  c #C99937",
"!  c #CEB32B",
"~  c #D8BD36",
"^  c #D7C808",
"/  c #DED307",
"(  c #D2C411",
")  c #E0CB03",
"_  c #E5D805",
"`  c #EDD819",
"'  c #EFE202",
"]  c #F6E903",
"[  c #FAED01",
"{  c #F6E30A",
"}  c #FFF200",
"|  c #FDF00A",
" . c #F4E618",
".. c #F6E81E",
"X. c #DCD22F",
"o. c #DBC938",
"O. c #E3CB28",
"+. c #E7D522",
"@. c #E5D939",
"#. c #EFE42E",
"$. c #94924E",
"%. c #B09156",
"&. c #85856A",
"*. c #9D9477",
"=. c #B88566",
"-. c #B9986B",
";. c #A99577",
":. c #BBA56A",
">. c #AEAB7C",
",. c #B8A474",
"<. c #E28948",
"1. c #C5B743",
"2. c #CDB44B",
"3. c #CAB959",
"4. c #D59A6E",
"5. c #CCB26F",
"6. c #E9A979",
"7. c #D6C655",
"8. c #E8DE4A",
"9. c #E3D858",
"0. c #DCD465",
"q. c #D2C970",
"w. c #D4CC77",
"e. c #556A87",
"r. c #5E718A",
"t. c #526B91",
"y. c #5B7699",
"u. c #697588",
"i. c #777B85",
"p. c #7C7D81",
"a. c #637B9A",
"s. c #767E90",
"d. c #597DAA",
"f. c #607DA7",
"g. c #827F80",
"h. c #7E8289",
"j. c #6C8198",
"k. c #758396",
"l. c #4B85B8",
"z. c #5A87B3",
"x. c #6984A6",
"c. c #778DA8",
"v. c #7A92AB",
"b. c #6E8DB5",
"n. c #7796B6",
"m. c #3C94DB",
"M. c #278CE3",
"N. c #3799E5",
"B. c #498DD3",
"V. c #4E91D0",
"C. c #759DC6",
"Z. c #64A4CD",
"A. c #7DA5C8",
"S. c #4598E4",
"D. c #59A7E3",
"F. c #838387",
"G. c #858589",
"H. c #87888B",
"J. c #8C8B8D",
"K. c #978A8A",
"L. c #848996",
"P. c #8E8D91",
"I. c #949292",
"U. c #939295",
"Y. c #95959B",
"T. c #99979B",
"R. c #98989A",
"E. c #9A999C",
"W. c #AA8888",
"Q. c #AA9B88",
"!. c #B89C88",
"~. c #A89A97",
"^. c #A59C9C",
"/. c #AEA28B",
"(. c #B9AB86",
"). c #BDB98B",
"_. c #ACA397",
"`. c #B2AB99",
"'. c #B9B695",
"]. c #828FA2",
"[. c #8895A8",
"{. c #9398A5",
"}. c #9C9DA3",
"|. c #859EBC",
" X c #A19FA2",
".X c #9CA1AA",
"XX c #86A2BC",
"oX c #9EA9B7",
"OX c #A4A2A5",
"+X c #A9A5A4",
"@X c #ADABA3",
"#X c #A7A6AB",
"$X c #A9A7AA",
"%X c #ACAAAC",
"&X c #B2ADAE",
"*X c #A7A9B1",
"=X c #B0B0B4",
"-X c #B3B3B5",
";X c #B7B7B9",
":X c #BCBBBC",
">X c #C3B790",
",X c #C9C385",
"<X c #D7D197",
"1X c #CECAB3",
"2X c #F1EBAC",
"3X c #82A2C3",
"4X c #86A7C8",
"5X c #89ABCC",
"6X c #94ACC6",
"7X c #8CB3D9",
"8X c #93B2D0",
"9X c #95B8D8",
"0X c #A2BAD3",
"qX c #8EBDE3",
"wX c #96BEE2",
"eX c #9BC0DC",
"rX c #B2C0CD",
"tX c #99C4E7",
"yX c #A6CAE6",
"uX c #A3CCEB",
"iX c #AED3F0",
"pX c #AAD5F3",
"aX c #A8D4F5",
"sX c #AED9F5",
"dX c #C3C2C4",
"fX c #C7C6C9",
"gX c #CBCACD",
"hX c #CFCFD0",
"jX c #D4D4D5",
"kX c #D8D7D8",
"lX c #DBDBDB",
"zX c #E1DDD9",
"xX c #E4E4E4",
"cX c #E9E8E6",
"vX c #ECECEB",
"bX c #F0F0F0",
"nX c #F4F4F4",
"mX c #F9F9F7",
/* pixels */
"#X#X#X#X#X#X#X#X#X#X#X#X#X#X#X#X#X#X#X#X#X#X#X#X#X#X#X#X#X#X#X#X#X#X#X#X#X#X#X#X#X#X#X#X#X#X#X#X#X#X#X#X#X#X#X#X#X#X#X#X#X#X#X#X",
"#X#X#X#X#X#X#X#X#X#X#X#X#X#X#X#X#X#X#X#X#X#X#X#X#X#X#X#X#X#X#X#X#X#X#X#X#X#X#X#X#X#X#X#X#X#X#X#X#X#X#X#X#X#X#X#X#X#X#X#X#X#X#X#X",
"#X#X#X#X#X#X#X#X#X#X#X#X#X#X#X#X$X$X$XOX#X#X#X#X#X#X#X#X#X.X_.Q.~.^.+X#X#X#X#X#X#X#X#X#X#X#X#X#X#X#X#X#X#X#X#X#X#X#X#X#X#X#X#X#X",
"#X#X#X#X#X#X#X#X#X#X#X#X#X#X#X#X$XOX$X$X#X#X#X#X#X#X#X#XT.=.<.<.N Z W.#X#X#X#X#X#X#X#X#X#X#X#X#X#X#X#X#X#X#X#X#X#X#X#X#X#X#X#X#X",
"#X#X#X#X#X#X#X#X#X#X#X#X#X#X#X#XOX,.o.q.`.*X#X#X#X#X#X^.Z N N M M M n K.#X#X#X#X#X#X#X#X%X.X$X).7./..XOX#X#X#X#X#X#X#X#X#X#X#X#X",
"#X#X#X#X#X#X#X#X#X#X#X#X#X#X#X#X-.{ } | @.`.#X#X#X#X$XK.n = $ $ $ $ $ 7 OX#X#X#X#X#X%X#X#X@X0...[ { 4.#X#X#X#X#X#X#X#X#X#X#X#X#X",
"#X#X#X#X#X#X#X#X#X#X#X#X#X#X#X$XO.[ } } | ,X#X#X#X#X#Xf $ $ Z Z n $ . # J.#X#X#X#X#X#X#X#X)...} } } ` _.#X#X#X#X#X#X#X#X#X#X#X#X",
"#X#X#X#X#X#X#X#X#X#X#X#X#X#X#X$X8.} } [ | ,X#X#X#X#X#X8 . * 4.6.4.=   % a #X#X#X#X#X#X#X*X).| } } }  ./.#X#X#X#X#X#X#X#X#X#X#X#X",
"#X#X#X#X#X#X#X#X#X#X#X#X#X#X#X#X;.( [ } 9.@X$X$X#X#X&.4 & 7 D Z C n O & 8 OX#X#X#X#X#X#X#X@X@.} [ [ 2.+X#X#X#X#X#X#X#X#X#X#X#X#X",
"#X#X#X#X#X#X#X#X#X#X#X#X#X#X#X#XW.m / [ w.@X@X$X+X}.h.u 9 =.6.6.=.=.* * p.$X#X#X#X#X#X#X#X#X,X| ] G D #X#X#X#X#X#X#X#X#X#X#X#X#X",
"#X#X#X#X#X#X#X#X#X#X#X#X#X#X#X#X^.D ^ }  .@.9.>X7.K.J.f # 7 6.6.=.C o * F.OX#X#X#X/.>.$X'.w.9.| _ m D %X#X#X#X#X#X%X#X#X*X#X#X#X",
"#X#X#X#X#X#X#X#X#X#X#X#X#X#X#X#X.X,.^ } _ H / ..@.I.R.p & o A 5.A % o > h #X#X#X#X/.+.#.` ( / [ _ %.OX#X#X#X#X#X#X#X#X#X#X#X#X#X",
"#X#X#X#X#X#X%X#X#X#X#X#X#X#X#X#X+X3.R } ..X.0.2X1X;X&XI.h & * 6 & X & 2 f OX#X#X#XOXo.} ^ J ' } / 1.OX#X#X#X#X#X#X#X#X#X#X#X#X#X",
"#X#X#X#X#X#X#X#X#X#X#X#X#X#X#X#X#X,.! 1.<X1XcXmXmXnXlX:X+XP.s p 4 2 u p h fX:X#X#X#X7.} ' J } ] ( 1.+X#X#X#X#X#X#X#X#X#X#X#X#X#X",
"#X#X#X#X#X#X#X#X#X#X#X#X#X#X#X#X#X$X'.1XjXxXnXmXmXvX:X%XR.:X$X@X+XE.G.u I.gXbXlXrX$X_.o.[ / H L Y ,.OX#X#X#X#X#X#X#X#X#X#X#X#X#X",
"#X#X#X#X#X#X#X#X#X#X#X#X#X#X#X#X#X:XlXxXxXvXnXmXvXrXI.g f J.P.:X:XfXJ.u &.=XlXbXnXkXdX&X>X3.3.5.`.OX#X#X#X#X#X#X#X#X#X#X#X#X#X#X",
"#X#X#X#X#X#X#X#X#X#X#X#X#X#X#X$X;XlXjXzXcXzXxXzXgXH.}.g i U.P.fX;X-XG.e 8 P.dXcXxXnXnXvXxXhXjX=XOX#X#X#X#X#X#X#X#X#X$X#X#X#X#X#X",
"#X#X#X#X#X#X#X#X#X#X#X#X#X#X#X;XxXvXfX$X-X&X%X$X Xu f w i s u :XgX:Xs s > d S &XgXxXvXxXbXbXbXlXhX#X#X#X$X$X#X#X#X#X#X#X#X#X#X#X",
"#X#X#X#X#X#X#X#X#X#X#X#X#X#X+X:XzXzX&XH.H.U.OXOXOXu 2 @ U.p.F.rX:XOXf =Xi 2 f a g g.~.%X*X*X%XgXjXW.!.!.~. X#X#X$X#X#X#X#X#X$X#X",
"#X#X#X#X#X#X#X#X#X#X#X#X#XE.,.o.#.9.(.T.OXOX#X#X#XS - 2 ;X.XY.cXvXgXF.{.S <  X}.K.g.S g g a a g *.I O.` Q *.#X#X#X#X#X#X#X#X#X#X",
"#X#X#X#X#X#X#X#X#X#X#X#X+X%._ | } ] ` q.#X#X#X#X#XF.X s Y.p.Y.lXcXjXH.f g.s  X$X X X#X XE.R.R.>.@._ [ } ] ! ^.#X#X#X#X#X#X*X#X#X",
"#X#X#X#X#X#X#X%X#X#X#X#XQ.Q %._ / $.$.@.`.#X#X#X#XJ.> E.:Xi.I.gXjXzXY.S p.s  X*X*X#X*X#X#X#X+Xw.E $.U ] Y Q -.#X#X#X#X#X#X$X#X#X",
"#X#X#X#X#X#X#X#X#X#X#X_.=.Y &.U L &.$.` '.#X#X#X#XP.4 P.}.p.=XgXgXkX#Xs p.g. X#X#X#X#X#X#X#X#X0.E &.$.) $.*.%.#X#X#X#X#X#X#X#X#X",
"#X#X#X#X#X#X#X#X#X#X#XJ.A ! G c m H _ 0.$X#X#X#X#XP.f r i.S -XgXjXfX;Xi.g.p.#X#X#X#X#X#X#X#X#X)...W b c b ( :.#X#X#X#X#X#X#X#X#X",
"#X#X#X#X#X#X#X#X#X#X#XP.S ;.x l l v 5.@X#X#X#X#X#XH.P.< g.$X-X-X=X*X;XS i f .X#X#X#X#X#X#X#X#X#X).! z l l D  X#X#X#X#X#X#X#X#X#X",
"#X#X#X#X#X#X#X%X#X#X#XOXI.W.k l l v ).$X#X#X#X#XOXH.4 2 T.;X:X:X=X.XOX}.< h  X#X#X#X#XOX#X#X#X*X_.%.j l l F $X$X#X#X#X#X#X#X#X#X",
"#X#X#X#X#X#X#X#X#X#X#X#X#XW.x j j b #.8.0.).`.>.;. X4 o % , , 6 6 6 = & < T.*X#X#X#X^.:.`.'.q.9.8.W z j x V  X$X#X#X#X#X#X#X#X#X",
"#X#X#X#X#X#X#X#X#X#X#X#X#X#X;.T T / ^ } ] J ! { 5.OXF.# * 8 = 5 B 9 B A 8 Y.#X#X#XOX_.+.X.U ( } ' _ T T I ^.#X#X#X#X#X#X#X#X#X#X",
"#X#X#X#X#X#X#X#X#X#X#X#X#X#X2.} } ' R } [ _ P +._.OXi y j.c.A.XXf.n.5X3Xs.&.*X*X#X#X#X7.K K ] } _ ^ } }  ._.$X#X#X#X#X#X#X#X#X#X",
"#X#X#X#X#X#X#X#X#X#X#X#X#X X~ [ } [ J / ] _ L o.+X}.k.4Xn.j.v.tX8XwX7X5XwX8XoX.X#X#X#X(.( J ] ' R / } } { !.+X#X#X#X#X*X#X#X#X#X",
"#X#X#X#X#X#X#X#X#X#X#X#X#XOX-.' } } ' J H L ( ,.OX{.4XtXuXeXv.n.4X5X3X5X8XyX8X X#X#X$X^.~ E H H / [ } } ~ ~.#X#X#X#X#X$X#X#X#X$X",
"#X#X#X#X#X#X#X#X#X#X#X#X#X#X+X5.+.{ [ | ` ~ >.+X{.3XtXyXeXeX8Xn.e.y.c.|.5XyXaX0X#X$X$XOX~.:.O.{ [ | ` 1.~. X#X#X#X#X#X#X#X#X#X#X",
"#X#X#X#X#X#X#X#X#X#X#X#X#X#X*X+X X!.>X>X~. X#X#X|.uXaXyX6Xc.u.e.1 0 0 f.3X9XsXiX*X*X#X#X#X#XOX/.>X(.~. X#X#X#X#X#X#X#X#X#X#X#X#X",
"#X#X#X#X#X#X#X#X#X#X#X#X#X#X#X#X$X X X X%X#X#X.X8XpXsXpX9X3Xa.1 X X w x.5X9XiXiX9X*X#X#X#X#X#X#X X#X$X%X#X#X#X#X#X#X#X#X#X#X#X#X",
"#X#X#X#X#X#X#X#X#X#X#X#X#X#X#X#X$X X#X#X#X#X#X.XwXsXsXiX9X3Xx.p.g - - e.n.9XuXsXiX*X#X#X#X#X#X#X#X#X$X$X#X#X#X#X#X#X#X#X#X#X#X#X",
"#X#X#X#X#X#X#X#X#X#X#X#X#X#X#X#X$X%X#X#X#X#X#X|.pXsXsXuX5X3X].}.$XP.2 t.b.C.tXpXpX0X#X#X#X#X#X#X#X#X#X#X#X#X#X#X#X#X#X#X#X#X$X#X",
"#X#X#X#X#X#X#X#X#X#X#X#X#X#X#X#X$X#X#X#X#X#X X5XaXsXpXwX4Xv.}.#X#X#XE.w d.f.3XtXaXyX*X#X#X#X#X#X#X#X#X#X#X#X#X$X#X#X$X*X#X#X#X#X",
"#X#X#X#X#X#X#X#X#X#X#X#X#X#X#X#X$X*X#X#X#X#X[.qXaXsXaX7Xc.{.#X#X#X#X#XE.w e.c.wXaXiX6X X#X#X#X#X#X#X#X#X#X#X#X#X#X#X#X#X#X#X#X#X",
"#X#X#X#X#X#X#X#X#X#X#X#X#X#X#X#X#X#X#X#X*X X|.wXaXaXwX|.Y.#X#X#X#X#X#X#XY.0 t b.7XqX6X X#X#X#X#X$X#X#X#X#X#X#X#X#X#X#X#X#X#X#X#X",
"#X#X#X#X#X#X#X#X#X#X#X#X#X#X#X#X#X#X#X#X*Xg.r.wXaXaX7X[.#X#X#X#X#X#X#X#X}.4 ; t e.r.L.#X#X#X$X#X#X#X#X#X#X#X#X#X#X#X#X#X#X#X#X#X",
"#X%X#X#X#X#X#X#X#X#X#X#X#X#X#X#X#X#X#X#X Xi 0 b.tX7Xv.{.#X#X#X#X#X#X#X#XT.2 1 1 1 4 Y.#X#X#X#X#X#X#X#X#X#X#X#X#X#X#X$X#X#X#X#X#X",
"#X#X#X#X#X#X#X#X#X#X#X#X#X#X#X#X#X#X%X#X Xw : > r y L.#X#X#X#X#X#X#X#X#XL.q 1 - - s  X#X#X#X#X#X#X#X#X#X*X#X#X#X#X#X#X#X#X#X#X#X",
"#X#X#X#X#X#X#X#X#X#X#X#X#X#X#X#X#X#X#X*XY.1 & < < e Y.#X#X#X#X#X#X#X#XOXu.f.f.1 1 I.#X#X#X#X#X*X#X#X#X#X$X#X#X#X#X#X#X#X#X#X#X#X",
"#X#X#X#X#X*X#X#X#X#X#X#X#X#X#X#X#X#X#X Xs.1 - > 2 H.#X#X#X#X#X#X#X#X#X{.y t.t.d.s.#X#X#X#X#X#X#X#X#X#X#X#X#X#X#X#X#X#X#X#X#X#X#X",
"#X#X#X#X#X#X#X#X#X#X#X#X#X#X#X#X#X#X#XOXw - - > s }.#X#X#X#X#X#X#X#X#XG.e.d.z.f.{.#X#X#X#X#X#X#X#X#X#X#X#X#X#X#X#X#X#X#X#X#X#X#X",
"#X#X#X#X#X#X#X#X#X#X#X#X#X#X#X#X#X#X#XOXw + - - F.#X#X#X#X#X#X#X#X#X#Xs.a.d.t.s. X*X#X#X#X#X#X#X#X#X#X$X#X#X#X#X#X#X#X#X#X#X#X#X",
"#X#X#X#X#X#X#X#X#X#X#X#X#X#X#X#X#X#X#X{.y + + w  X#X#X#X#X#X#X#X#X#XY.s t x.d.[.#X#X#X#X#X#X#X#X#X#X#X#X#X#X#X#X#X#X#X#X#X#X#X$X",
"#X#X#X#X#X#X#X#X#X*X#X#X#X#X#X#X#X#X*XL.d.> 3 Y.OX#X#X*X#X#X#X#X#XOXu.r.a.t u. X#X#X#X#X#X#X#X#X#X#X#X#X#X$X#X#X#X#X#X#X#X#X#X#X",
"#X#X#X#X#X#X#X#X#X#X#X#X#X#X#X#X#X#X.Xy.B.l.y. X*X#X#X#X#X#X#X#X%X Xy q e.y.s.#X#X#X#X#X#X#X#X#X#X#X#X#X#X#X#X#X#X#X#X#X#X#X#X#X",
"#X#X#X#X#X#X#X#X#X#X#X#X#X#X#X#X#X#X}.l.N.N.z. X#X#X#X#X#X#X#X#X#X.Xy x.a.t Y.#X#X#X#X*X#X#X#X#X#X#X#X#X#X#X#X#X#X#X#X#X#X#X#X#X",
"#X#X#X#X#X#X#X#X#X#X#X#X#X#X#X#X#X#XY.V.N.N.v.#X#X#X#X#X#X#X#X#X.XA.z.y.a.s. X#X#X#X#X#X#X#X#X#X#X#X#X#X#X#X#X#X$X#X#X#X#X#X#X#X",
"#X#X#X#X#X#X#X#X#X#X#X#X#X#X#X#X#X#XY.m.S.V.{.#X#X#X#X#X#X#X#X#X6XS.N.N.B.c.#X#X#X#X#X#X$X#X#X#X#X#X#X#X#X#X#X#X#X#X#X#X$X#X#X#X",
"#X#X#X#X#X#X#X#X#X#X#X#X#X#X#X#X#X#X.XV.N.n..X#X#X#X#X#X#X#X#X Xh.7XN.m.M.C. X#X#X#X#X#X$X#X#X#X#X$X#X#X#X#X#X#X#X#X#X#X#X#X*X#X",
"#X#X#X#X#X#X#X#X#X#X#X#X#X#X#X*X#X#X#X.X[..X+X#X#X#X#X#X#X#X#X#XP.G.D.S.M.C.*X#X#X#X#X#X#X#X#X#X#X#X#X#X#X#X*X$X#X#X$X#X#X#X#X#X",
"#X#X%X#X#X#X#X#X#X#X#X#X#X#X#X#X#X#X#X#X%X%X#X#X#X#X#X#X#X#X#X#X$X}.XXS.N.Z.#X#X#X#X#X#X#X#X#X#X#X#X#X#X#X#X#X#X#X#X#X#X#X#X#X#X",
"#X#X#X#X#X#X#X#X#X#X#X#X%X#X#X#X#X#X#X#X#X#X*X#X#X#X#X#X#X#X#X#X$X%Xh.A.S.D.*X#X#X#X#X#X#X#X#X#X#X#X#X#X#X#X#X#X#X#X#X#X#X#X#X#X",
"#X#X#X#X#X#X#X#X#X#X#X#X#X#X#X#X#X#X#X#X#X#X#X#X#X#X#X#X#X#X#X#X#X#XE.p v.Z.oX@X#X#X#X#X#X#X#X#X#X#X#X#X#X#X#X#X#X#X#X#X#X#X#X#X",
"#X#X#X#X#X#X#X#X#X#X#X#X#X#X#X#X#X#X#X#X#X#X#X#X#X#X#X#X#X#X#X#X#X#X$X.XF.H..X$X#X#X$X*X#X#X#X#X#X#X#X*X#X#X#X#X#X#X#X#X#X$X#X#X",
"#X#X#X#X#X#X#X#X#X#X#X#X#X#X#X#X#X#X#X#X#X#X#X#X#X#X#X#X#X#X#X#X#X#X#X#X#X#X@X#X#X#X#X#X#X#X#X#X#X#X#X#X#X#X#X#X#X#X#X#X#X#X#X#X",
"#X#X#X#X#X#X#X#X#X#X#X#X#X#X#X#X#X#X#X#X#X#X#X#X#X#X#X#X#X#X#X#X#X#X#X#X*X#X#X#X#X#X#X#X#X#X#X#X#X#X#X#X$X#X#X#X#X#X#X#X#X#X#X#X",
"#X#X#X#X#X#X#X#X#X#X#X#X#X#X#X#X#X#X#X#X#X#X#X#X#X#X#X#X#X#X#X#X%X#X#X#X#X#X#X#X#X#X#X#X#X#X#X#X#X#X#X#X#X#X#X#X#X#X#X#X#X#X#X#X",
"#X#X#X#X%X#X#X#X#X#X#X#X#X#X#X#X#X#X#X#X#X#X#X#X#X#X#X#X#X#X#X#X#X#X#X#X#X#X#X#X#X#X#X#X#X#X#X#X#X#X$X#X#X#X#X#X#X#X#X#X#X#X#X#X",
"#X#X#X#X#X#X#X#X#X#X#X#X#X#X#X#X#X#X#X#X#X#X#X#X#X#X#X#X#X#X#X#X#X#X#X#X#X#X#X#X#X#X$X#X#X#X#X#X#X#X#X#X#X#X#X#X#X#X#X#X#X*X#X#X",
"#X#X#X#X#X#X#X#X#X#X#X#X#X#X#X#X%X#X#X#X#X#X#X#X#X#X#X#X#X#X#X#X#X#X#X#X#X#X#X#X#X#X#X#X#X#X#X#X#X#X#X#X#X$X#X#X#X#X#X#X#X$X#X#X"
};
