/* XPM */
static char *_1A1721607247[] = {
/* columns rows colors chars-per-pixel */
"64 64 234 2 ",
"   c #2E2019",
".  c #2B2A2C",
"X  c #362924",
"o  c #292C32",
"O  c #363231",
"+  c #393536",
"@  c #58311D",
"#  c #46342C",
"$  c #583726",
"%  c #473B36",
"&  c #673B27",
"*  c #44403F",
"=  c #56443C",
"-  c #714A32",
";  c #383D44",
":  c #3E4044",
">  c #3C424B",
",  c #3E4954",
"<  c #474647",
"1  c #574A46",
"2  c #524B4B",
"3  c #474C55",
"4  c #444D5A",
"5  c #504F50",
"6  c #4D5159",
"7  c #585659",
"8  c #6B5149",
"9  c #675A59",
"0  c #66605F",
"q  c #4C5666",
"w  c #595C65",
"e  c #535F77",
"r  c #5C6066",
"t  c #58657A",
"y  c #686567",
"u  c #746969",
"i  c #6D6E73",
"p  c #6E7073",
"a  c #737376",
"s  c #7A7475",
"d  c #74757A",
"f  c #7A7A7C",
"g  c #C6301D",
"h  c #E31C23",
"j  c #EC1C24",
"k  c #D23235",
"l  c #B95318",
"z  c #B96A14",
"x  c #855737",
"c  c #AF6B32",
"v  c #C45915",
"b  c #CE7638",
"n  c #8E584A",
"m  c #BA5A5C",
"M  c #866557",
"N  c #986F53",
"B  c #B46241",
"V  c #A2775A",
"C  c #867C7D",
"Z  c #A9796D",
"A  c #938616",
"S  c #B58710",
"D  c #B5AC0A",
"F  c #BDB405",
"G  c #BCB20B",
"H  c #B9AE1B",
"J  c #BEB318",
"K  c #B2942D",
"L  c #B4AC2A",
"P  c #B2A433",
"I  c #C1810D",
"U  c #C4B807",
"Y  c #CFB012",
"T  c #C4B81A",
"R  c #C8B925",
"E  c #CEA83F",
"W  c #C6B139",
"Q  c #D7BE39",
"!  c #CEC404",
"~  c #D4C807",
"^  c #DCD109",
"/  c #D7CA12",
"(  c #DED118",
")  c #E2D607",
"_  c #E6DA03",
"`  c #EBDE03",
"'  c #EED90D",
"]  c #EEE202",
"[  c #F6E706",
"{  c #FBED01",
"}  c #FEF100",
"|  c #EEE119",
" . c #F6E915",
".. c #D7CA29",
"X. c #DBC835",
"o. c #E6D72A",
"O. c #E2CD3C",
"+. c #F6EA26",
"@. c #F1E432",
"#. c #8F8957",
"$. c #B99550",
"%. c #B4A95A",
"&. c #888671",
"*. c #AC8269",
"=. c #B88664",
"-. c #B0996F",
";. c #BCA667",
":. c #B1A77C",
">. c #BBA979",
",. c #D6864D",
"<. c #C9B944",
"1. c #D3BA48",
"2. c #C9AE54",
"3. c #C7B959",
"4. c #C5AB67",
"5. c #C9B463",
"6. c #DCA179",
"7. c #C3B777",
"8. c #EBAA77",
"9. c #D9C44A",
"0. c #E7DC46",
"q. c #E3D956",
"w. c #EEE346",
"e. c #D4CD65",
"r. c #576C88",
"t. c #516D8F",
"y. c #58718C",
"u. c #5A769B",
"i. c #677588",
"p. c #747B87",
"a. c #7D7E83",
"s. c #657A97",
"d. c #6A7D95",
"f. c #637B9A",
"g. c #767F91",
"h. c #5B7AA5",
"j. c #517EB7",
"k. c #617BA1",
"l. c #807D80",
"z. c #7C818D",
"x. c #6D839D",
"c. c #76869A",
"v. c #5D87B5",
"b. c #6984A9",
"n. c #768CA8",
"m. c #7692AE",
"M. c #6B89B1",
"N. c #7A95B5",
"B. c #3A9BDD",
"V. c #2B90E3",
"C. c #3998E4",
"Z. c #498FD1",
"A. c #6797C1",
"S. c #7B9EC4",
"D. c #5AA8DC",
"F. c #6FA8D0",
"G. c #4699E3",
"H. c #6DAEE6",
"J. c #838285",
"K. c #898689",
"L. c #8A898D",
"P. c #9A8A89",
"I. c #8D8D92",
"U. c #848D99",
"Y. c #918F91",
"T. c #8A919D",
"R. c #939295",
"E. c #95959A",
"W. c #9B9699",
"Q. c #9B9A9D",
"!. c #AD9689",
"~. c #A79D8A",
"^. c #A89B97",
"/. c #A49B9B",
"(. c #B3AB88",
"). c #B6A988",
"_. c #ABA697",
"`. c #AAA19C",
"'. c #B2AB96",
"]. c #B6B398",
"[. c #8A95A8",
"{. c #9398A4",
"}. c #9D9DA3",
"|. c #849CB8",
" X c #909DB2",
".X c #A49EA2",
"XX c #A89EA3",
"oX c #9CA1AB",
"OX c #8DA4BE",
"+X c #9AA7B8",
"@X c #A4A2A6",
"#X c #A9A4A4",
"$X c #AAA8A7",
"%X c #A7A6AB",
"&X c #ABABAC",
"*X c #B2B1AC",
"=X c #ACADB3",
"-X c #B1AFB1",
";X c #B3B2B5",
":X c #B6B5B9",
">X c #B8B8BA",
",X c #BCBBBD",
"<X c #C1BA89",
"1X c #C8C28A",
"2X c #E1DCB2",
"3X c #83A4C3",
"4X c #88A8C8",
"5X c #96ACC5",
"6X c #86ABD2",
"7X c #8EB3D9",
"8X c #95B9D8",
"9X c #A7B7C8",
"0X c #95BEE3",
"qX c #9BC3E5",
"wX c #9BC6E9",
"eX c #9FCCF0",
"rX c #A5CBE9",
"tX c #ABD5F3",
"yX c #ACD5F3",
"uX c #A9D5F5",
"iX c #AED9F5",
"pX c #C4C3C5",
"aX c #CCCCCD",
"sX c #CFCFD0",
"dX c #D4D3D4",
"fX c #D6D5D8",
"gX c #DCDCDC",
"hX c #E1E0DF",
"jX c #E0DFE1",
"kX c #E5E5E4",
"lX c #EBEAEA",
"zX c #F0F0F0",
"xX c #F3F3F3",
"cX c #F9F8F7",
/* pixels */
"%X%X%X%X%X%X%X%X%X%X%X%X%X%X%X%X%X%X%X%X%X%X%X%X%X%X%X%X%X%X%X%X%X%X%X%X%X%X%X%X%X%X%X%X%X%X%X%X%X%X%X%X%X%X%X%X%X%X%X%X%X%X%X%X",
"%X%X%X%X%X%X%X%X%X%X%X%X%X%X%X%X%X%X%X%X%X%X%X%X%X%X%X%X%X%X%X%X%X%X%X&X%X%X%X%X%X%X%X%X%X%X%X%X%X%X%X%X%X%X%X%X%X%X%X%X%X%X%X%X",
"%X%X%X%X%X%X%X%X%X%X%X%X%X%X%X%X%X%X%X%X%X%X%X%X%X%X%X%X%X&X%X%X%X%X%X%X%X%X%X%X%X%X%X%X%X%X%X%X%X%X%X%X%X%X%X%X%X%X%X%X%X%X%X%X",
"%X%X%X%X%X%X%X%X%X%X%X%X%X%X%X%X%X%X%X%X%X%X%X%X%X%X%X%X%X%X%X%X%X%X%X%X%X%X%X%X%X%X%X&X%X%X%X%X%X%X%X%X%X%X%X%X%X&X%X%X%X%X%X%X",
"%X%X%X%X%X%X%X%X%X%X%X%X%X%X%X%X%X%X%X%X%X%X%X%X%X%X%X%X%X%X%X%X%X%X%X%X%X%X%X%X%X%X%X%X%X%X%X%X%X%X%X%X%X%X%X%X%X%X%X%X%X%X%X%X",
"%X%X%X%X%X%X%X%X%X%X%X%X%X%X%X%X%X%X%X%X%X%X%X%X%X%X%X%X%X&X%X%X%X%X%X%X%X%X%X%X%X%X%X%X%X%X%X%X%X%X%X%X%X%X%X%X%X%X%X%X%X%X%X%X",
"%X%X%X%X%X%X%X%X%X%X%X%X%X%X%X%X%X%X%X%X%X%X%X%X%X%X%X%X%X%X%X%X%X%X%X%X%X%X%X%X%X%X%X%X%X%X$X%X%X%X%X%X%X%X%X%X%X%X%X%X%X%X%X%X",
"%X%X%X%X%X%X%X%X%X%X%X%X%X%X%X#X;.<X&X%X%X%X%X%X%X%X%X%X%X%X%X%X%X%X%X%X%X%X%X&X%X%X%X%X%X$X(._.%X%X%X%X%X%X%X%X%X%X%X%X%X%X%X%X",
"&X%X%X%X%X%X%X%X%X%X%X%X%X%XXX1.}  .0.].&X&X%X%X%X%X%X%X%X%X%X#X.X%X%X%X%X%X%X%X%X%X%X%X].e.+.| ;.%X%X%X%X%X%X%X%X%X%X%X%X%X%X%X",
"%X%X%X%X%X%X%X&X%X%X%X%X&X%X4.{ } } } e.&X#X%X%X&X%X%X%XXXP.,.,.b Z .X%X%X%X%X%X%X%X%X$Xq.} } } ' !.%X%X%X%X%X%X%X%X&X%X%X%X%X%X",
"%X%X%X%X%X%X%X%X%X%X%X%X%X%X5.{ } } } q.#X%X%X%X%X%X&XXXZ b ,.S b b n ^.%X%X%X%X%X%X%X].+.} } } { 4.%X%X%X%X%X%X%X%X%X%X%X%X%X%X",
"%X%X%X%X%X%X%X%X%X%X%X%X%X%X).o.} }  .1X%X%X%X%X%X%X&XP.c x - - @ @ - M @X%X%X%X%X%X%X%X0.} } }  .<X%X%X%X%X%X%X%X%X%X%X%X%X%X%X",
"%X%X%X%X%X%X%X%X%X%X%X%X%X%XXXB Y } w.&X%X&X%X#X%X%X%XC $ @ - x - @   # W.%X%X%X%X%X%X%X]. .} ^ $.#X%X%X%X%X%X%X%X%X%X%X%X%X%X%X",
"%X%X%X%X%X%X%X%X%X%X%X%X%X%XXXm S }  .q.1X].).:.XX%X%X9   - 8.8.,.x   % s %X%X@X~.%X%X].1X+.] z k oX%X%X%X%X%X%X%X%X&X%X%X&X%X%X",
"%X%X%X%X%X%X%X%X%X%X%X%X%X%X%X^.J [ ] F ^  .| 7.%X%XI.7 # - *.=.V - X % 9 %X%X`.X.e.e.o.( } [ P P.%X%X%X%X%X%X%X%X%X%X%X%X%X%X%X",
"&X%X%X%X%X%X%X%X%X%X%X%X%X%X%X).T } } ` D } | _.%X@Xl.7 u V 8.6.Z ,.= 1 a @X%X%X3.} ] D ! { [ / '.%X%X%X%X%X%X%X%X%X%X%X%X%X%X%X",
"%X%X%X%X%X%X%X%X%X%X%X%X%X%X%X'.T ~ ` U ~ { X.#X$XI.L.f = N 8.6.Z V # 1 L.%X%X%X7.{ { G { } ] H '.#X%X%X%X%X%X%X%X%X%X%X%X%X%X%X",
"%X%X%X%X%X%X%X%X%X%X%X%X%X%X%XXX;.W H /  .O.'.%X&XE.{.a * O -.6.Z % X < d %X%X%X.XO.} ^ G ! H W `.&X%X%X%X%X%X%X%X%X%X%X%X%X%X%X",
"%X%X%X%X%X%X%X%X%X%X%X%X%X%X%X%XXX/.).).).'.-X,X,X&XQ.Y.9 O = N 8 . # < d %X%X%X%X/.3.o...<.;._.%X%X%X%X%X%X%X%X%X%X%X%X%X%X%X%X",
"%X%X%X%X%X%X%X%X%X%X%X%X%X%X%X%X%X%XXX%X,X9XkXzXzXlXdX*X_.C y 5 * * 5 y i =X:XXX%X%X%X#X/..X%X%X%X%X%X%X%X%X%X%X%X%X%X%X%X%X%X%X",
"%X%X%X%X%X%X%X%X%X%X%X%X%X%X%X%X%X#X*X>XfXjXzXcXcXzXaX>X&X,X$X@XQ.R.J.y /.sXlXpX:X%X%X%X%X%X%X%X%X%X%X%X%X%X%X%X%X%X%X%X%X%X%X%X",
"%X%X%X%X%X%X%X%X%X%X%X%X%X%X%X%X%X:XsXhXjXlXcXcXcXaXY.f a I.L.,X,X>XL.y l.&XjXxXlXsX:X&X%X%X%X%X#X%X%X#X%X%X%X%X%X%X%X%X%X%X%X%X",
"%X%X%X%X%X%X%X%X%X%X%XXX.X-.1.7.].fXdXhXlXkXlXlXgXE.$Xz.y Q.Y.,X*X;XL.y y .XsXlXlXcXzXkXfX,X,X'.<X3.>..X%X%X%X%X%X%X%X%X%X%X%X%X",
"%X&X%X%X%X%X%X%X%X%X%X^.1.[ } } @.2XaX,XaX,X,X:X&Xy z.r y d i aXgXaXp r < a.L.pXfXzXlXkXcXcX2Xw.[ } [ E /.%X%X%X&X%X%X%X%X%X%X%X",
"%X%X%X%X%X%X%X%X%X%X%X=.R ' } T R @.<XK.L.R.Q.Q.oXr 7 ; z.p f &X$XR.p $Xr 7 u s K.R.,XpXpX2X0.L T { ) R $.%X%X%X%X%X%X%X%X%X%X%X",
"%X%X%X%X%X%X%X%X%X%X#X$.&.P ) #.C U 1XE.Q.oX$X%X$Xa : 5 >X{.R.lXkXpXf #Xf < Q.K.C s u s u %./ &.&.) L &.$.P.%X%X%X%X%X%X%X%X%X%X",
"%X%X%X%X%X%X%X%X%X%X#XW L c v A H | ).#X%X%X%X%X$XJ.. r Q.L.L.gXlXdXK.a L.y @X%X%XoXQ.Q.I.:.| T K z c L Y l.%X%X%X%X%X%X%X%X%X%X",
"%X%X%X%X%X%X%X%X%X%X$X~.c h j l ..7.$X$X%X%X%X%X$XL.+ R.>Xa L.aXgXgXL.f f y $X%X%X%X$X$X%X%X).o.v h j c -.^.%X%X%X%X%X%X%X%X%X%X",
"%X%X%X%X%X%X%X%X%X%X%X/.k j j g %.%X&X$X%X%X$X%X%XL.5 R.$Xf =XdXaXgX.Xa z.z.`.%X$X$X%X$X%X%X%X:.g j j k XXXX%X%X%X%X%X%X%X%X%X%X",
"%X%X%X%X%X%X%X%X%X%X#XP.k h h g X.1X].'.$X#X~.oX%XI.r a z.z.=XaXaXaX:Xd d &.%X%XoXR.oX$X'.<X1X9.g h h k ^.%X%X%X%X%X%X%X%X%X%X%X",
"%X%X%X%X%X%X%X%X%X%X%XK.n l v S ^ {  ...%.O.X.Q.%XL.R.2 z.@X;X:X9X;X;XK.d i }.%XoXX.0.3.X. .{ ` S l l Z XX%X%X%X%X%X%X%X%X%X&X%X",
"%X%X%X%X%X%X%X%X%X$X%X.X-.| { } F { } ^ A ^ ;.$X%XK.y 7 W.*X>XpX,X;X9X&X2 f @X%X$X>.^ A ! } } U } } [ ).%X%X%X%X%X%X%X%X%X%X%X%X",
"%X%X%X%X%X%X%X%X%X%X%X%X;.{ } } U _ } { G / ).%X%XQ.2 X 1 0 u u 9 8 & < < L.%X%X%X'.( D { } ` F } } } 4.%X%X%X%X%X%X%X%X%X%X%X%X",
"%X%X%X%X%X%X%X%X%X%X%XXX-.[ } } ] F G U G X.XX%X%X%Xl.# $ 8 & 8 n M n M 9 @X%X%X%X#X1.T G U F _ } } [ -.%X%X%X%X%X%X%X%X%X%X%X%X",
"%X%X%X%X%X%X%X%X%X%X%X%X.X2. .{ } { ) / Q !.%X%X%XXXi 4 i.d.U.n.i.n.|.m.i.K.XX%X%X%X^.1./ ` [ } { [ <./.%X%X%X%X%X%X%X%X%X%X%X%X",
"%X%X%X%X%X%X%X%X%X%X%X%X%X.X!.4.9.9.5.)..X%X%X%X%X}.i.|.|.k.3X0X7XqX7X4X6X4X%X%X%X$X$X.X).4.9.9.4.~./.%X%X%X%X%X%X%X%X%X%X%X%X%X",
"%X%X%X%X%X%X%X%X%X%X%X%X%X%X%X%X%X%X#X%X%X%X%X%X%X{.4X0XrX3Xd.3X3X7X4X4X8XqX5X%X%X%X%X%X%X%X%X%X#X%X%X%X%X%X%X%X%X%X%X%X%X%X%X%X",
"%X%X%X%X%X%X%X%X%X%X%X%X%X%X%X%X%X%X%X%X%X%X%X%X{.|.0XrXrXrX7Xn.u.u.N.|.5XrXrX9X%X%X%X%X%X%X%X%X%X%X%X%X%X%X%X%X%X%X%X%X%X%X%X%X",
"%X%X%X%X%X%X%X%X%X%X%X%X%X%X%X%X%X%X%X%X%X%X%X%X X0XiXrX5Xn.d.d.q t q x.5X8XtXrX%X%X%X%X%X%X%X%X%X%X%X%X%X%X%X%X%X%X%X%X%X%X%X%X",
"%X%X%X%X%X%X%X%X%X%X%X%X%X%X%X%X%X%X%X%X%X%X%X}.5XtXtXtX8X4Xs.4 . o t m.S.7XyXyX8X%X%X%X%X%X%X%X%X%X%X%X%X%X%X%X%X%X%X%X%X%X%X%X",
"%X%X%X%X%X%X%X%X%X%X%X%X%X%X%X%X%X%X%X%X%X%X%XoX0XtXiXtX8X4Xs.i w . > r.N.0XuXiXyX+X%X%X%X%X%X%X%X%X%X%X%X%X%X%X%X%X%X%X%X%X%X%X",
"%X%X%X%X%X%X%X%X%X%X%X%X%X%X%X%X%X%X%X%X%X%X#X4XeXiXiXrX4X3Xn.{.@Xf < u.M.3XwXiXiX9X%X%X%X%X%X%X%X%X%X%X%X%X%X%X%X%X%X%X%X%X%X%X",
"%X%X%X%X%X%X%X%X%X%X%X%X%X%X%X%X%X%X%X%X%X%X}.4XuXiXiX0X6XN.E.%X%X@XL.q M.M.F.wXyXrXoX%X%X%X%X%X%X%X%X%X%X%X%X%X%X%X%X%X%X%X%X%X",
"%X%X%X%X%X%X%X%X%X%X%X%X%X%X%X%X%X%X%X%X%X&X{.7XiXiXiX7XN.{.XX%X%X%X&XI.q y.m.wXeXuX9X%X%X%X%X%X%X%X%X%X%X%X&X%X%X%X%X%X%X%X%X%X",
"%X%X%X%X%X=X&X%X%X%X%X%X%X%X%X%X%X%X%X%X%X.X|.0XuXuXeXS.T.%X%X%X%X%X%X%XI.e r.S.0XwX5XoX%X%X%X%X%X%X%X%X%X%X%X%X%X%X%X%X%X%X%X%X",
"%X%X%X%X%X%X%X%X%X%X%X%X%X%X%X%X%X%X%X%X%XL.k.wXuXuX7X|.oX%X%X%X%X%X%X%X}.6 , r.s.b.T.%X%X%X%X%X%X%X%X%X%X%X%X%X%X%X%X%X%X%X%X&X",
"%X%X%X%X%X%X%X%X%X%X%X%X%X%X%X%X%X%X%X%X.Xi 4 4XrX0XN.}.%X%X%X%X%X%X%X%XQ.6 , , 6 q Y.%X%X%X%X%X%X%X%X%X%X%X%X%X&X%X%X%X%X%X%X%X",
"%X%X%X%X%X%X%X%X%X%X&X%X%X%X%X%X%X%X%X%X}.w 4 6 s.f.U.@X%X%X%X%X%X%X%X%XL.4 > + > y .X%X%X%X%X%X%X%X%X%X%X%X%X%X%X%X%X%X%X%X%X%X",
"%X%X%X%X%X%X%X%X%X%X%X%X%X%X%X%X%X%X%X%X{.4 < 2 2 7 Y.#X%X%X%X%X%X%X%XXXp.u.h.4 ; L.%X%X%X%X%X%X&X%X%X%X%X%X%X%X%X%X%X%X%X%X%X%X",
"%X%X%X%X%X%X%X%X%X%X%X%X%X%X%X%X%X%X%X%Xz.3 : < 5 z.@X$X%X%X%X%X%X%X%X.Xr.t.t.r.d..X%X%X%X%X%X%X%X%X%X%X%X%X%X%X%X%X%X%X%X%X%X%X",
"%X%X%X%X%X%X%X%X%X%X%X%X%X%X%X%X%X%X%X@Xw > > > r }.%X%X%X%X%X%X%X%X%XU.e u.j.M.{.XX%X%X%X%X%X%X%X%X%X%X%X%X%X%X%X%X&X%X%X%X%X%X",
"%X%X%X%X%X%X%X%X%X%X%X%X%X%X%X%X%X%X%X@Xw o ; > z.%X%X%X%X%X%X%X%X%XXXg.k.h.u.s..X%X%X%X%X%X%X%X%X%X%X%X%X%X%X%X%X%X%X%X%X%X%X%X",
"%X%X%X%X%X%X%X%X%X%X%X%X%X%X%X%X%X%X%X}.t o o 6 E.$X%X%X%X%X%X%X%X%X}.i.e k.k.T.%X%X%X%X%X%X%X%X%X%X%X%X%X%X%X%X%X%X%X%X%X%X%X%X",
"%X%X%X%X%X%X%X%X%X%X%X%X%X%X%X%X%X%X%XT.u.; < I.#X%X%X%X%X%X%X%X%XoXg.i.s.r.d..X%X%X%X%X%X%X%X%X%X%X%X%X%X%X%X%X%X%X%X%X%X%X%X%X",
"%X%X%X%X%X%X%X%X%X%X%X%X%X%X%X%X%X%XoXh.Z.t.y.}.%X%X%X%X%X%X%X%X%X.Xw e f.f.d..X%X%X%X%X%X%X%X%X%X%X%X%X%X%X%X%X%X%X%X%X%X%X%X%X",
"%X%X%X%X&X%X%X%X%X%X%X%X%X%X%X%X%X%X}.v.C.C.v..X%X%X%X%X%X%X%X%X%XXXi.k.u.q I.%X%X%X%X%X%X%X%X%X%X%X%X%X%X%X%X%X%X%X%X%X%X%X%X%X",
"%X%X%X%X%X%X%X%X%X%X%X%X%X%X%X%X%X%X{.Z.C.B.m.@X%X%X%X%X%X%X%X%X%XOXy.y.f.z.}.%X%X%X%X%X%X%X%X%X%X%X%X%X%X%X%X%X%X%X%X%X%X%X%X%X",
"%X%X%X%X%X%X%X%X%X%X%X%X%X%X%X%X%X%X{.B.G.Z.[.%X%X%X%X%X%X%X%X@X5XG.G.C.Z.c.%X%X%X%X%X%X=X%X%X%X%X%X%X%X%X%X%X%X%X%X%X%X%X%X%X%X",
"%X%X%X%X%X%X%X%X%X%X%X%X%X%X%X%X%X%XoXZ.C.A.}.%X%X%X%X%X%X%X%XoXT.H.G.V.V.OX%X%X%X%X%X%X%X%X%X%X%X%X%X%X%X%X%X%X%X%X%X%X%X%X%X%X",
"%X%X%X%X%X%X%X%X%X%X%X%X%X%X%X%X$X@XoXoXn. X%X%X%X$X%X%X%X%X%X%Xl.T.H.C.V.A.%X%X%X%X%X%X%X%X%X%X%X%X%X%X%X%X%X%X%X%X%X%X%X%X%X%X",
"%X%X%X%X%X%X%X%X%X%X%X%X%X%X%X%X%X%X%X%X%X%X%X%X%X%X%X%X%X%X%X%X$XR.S.B.V.D.#X%X%X%X%X%X%X%X%X%X%X%X%X%X%X%X%X%X%X%X%X%X%X%X%X%X",
"%X%X%X%X%X%X%X%X%X%X%X%X%X%X%X%X%X%X%X%X%X%X%X%X%X%X%X%X%X$X%X%X%X@Xz.H.C.D.%X%X%X%X%X%X%X%X%X%X%X%X%X%X%X%X%X%X=X%X%X%X%X%X%X%X",
"%X%X%X%X%X%X%X%X%X%X%X%X%X%X%X%X%X%X%X%X%X%X%X%X%X%X%X%X%X%X%X%X%X%XR.p S.D.+X%X%X%X%X%X%X%X%X%X%X%X%X%X%X%X%X%X%X%X%X%X%X%X%X%X",
"%X%X=X%X%X%X%X%X%X%X=X%X%X%X%X%X%X%X%X%X%X%X%X%X%X%X%X%X%X%X%X%X%X%X%XE.a p.@X%X%X%X%X%X%X%X%X%X%X%X&X%X%X%X%X%X%X%X%X%X%X%X%X%X"
};
