/* XPM */
static char *_3A1721607249[] = {
/* columns rows colors chars-per-pixel */
"64 64 240 2 ",
"   c #2D211B",
".  c #2B2828",
"X  c #352A26",
"o  c #313134",
"O  c #36373A",
"+  c #482C1C",
"@  c #463228",
"#  c #5B3828",
"$  c #483B35",
"%  c #623A24",
"&  c #564237",
"*  c #664A39",
"=  c #764932",
"-  c #393D47",
";  c #3C434C",
":  c #3F4652",
">  c #474545",
",  c #4B4A4C",
"<  c #594C46",
"1  c #534C4C",
"2  c #464C58",
"3  c #514F50",
"4  c #4D515A",
"5  c #54555B",
"6  c #585658",
"7  c #66534D",
"8  c #76594B",
"9  c #765B57",
"0  c #495669",
"q  c #535A65",
"w  c #4D5F7B",
"e  c #615E61",
"r  c #586477",
"t  c #666569",
"y  c #6C6A6C",
"u  c #746869",
"i  c #686B72",
"p  c #756E71",
"a  c #6E7177",
"s  c #737376",
"d  c #797679",
"f  c #797A7D",
"g  c #C6301D",
"h  c #DC1F25",
"j  c #E31C23",
"k  c #EC1C24",
"l  c #D23135",
"z  c #BA4F16",
"x  c #B96A14",
"c  c #91532D",
"v  c #B95A21",
"b  c #B07030",
"n  c #C45915",
"m  c #C57036",
"M  c #BA5A5C",
"N  c #876650",
"B  c #AE7050",
"V  c #817B7A",
"C  c #917770",
"Z  c #A47B7C",
"A  c #C4634E",
"S  c #938616",
"D  c #B58710",
"F  c #B5AC0A",
"G  c #BDB405",
"H  c #BCB20B",
"J  c #BBB119",
"K  c #B4AC2A",
"L  c #B2A433",
"P  c #C4B807",
"I  c #D6B806",
"U  c #CEA82D",
"Y  c #C8B925",
"T  c #C7B23A",
"R  c #D7BE39",
"E  c #CEC404",
"W  c #D5C907",
"Q  c #DCD109",
"!  c #D7CA13",
"~  c #DED118",
"^  c #E4D805",
"/  c #EBDE03",
"(  c #EED90D",
")  c #EEE20A",
"_  c #F6E706",
"`  c #FBED01",
"'  c #FEF100",
"]  c #F8EA16",
"[  c #D8CB2B",
"{  c #D8C836",
"}  c #E6D829",
"|  c #E2CB3C",
" . c #F5E825",
".. c #F7EA39",
"X. c #A69F56",
"o. c #B49750",
"O. c #8C8870",
"+. c #B88765",
"@. c #B29471",
"#. c #BAA668",
"$. c #B8AB78",
"%. c #EC8C43",
"&. c #C9B944",
"*. c #D3BA48",
"=. c #C7AA51",
"-. c #C5B75A",
";. c #C28B63",
":. c #CA9769",
">. c #D59A6E",
",. c #C5AB67",
"<. c #C8B662",
"1. c #DCA176",
"2. c #C4B575",
"3. c #D9C44A",
"4. c #DAD24E",
"5. c #E6DC4A",
"6. c #E3D956",
"7. c #EDE34F",
"8. c #D1C86F",
"9. c #576A86",
"0. c #51698E",
"q. c #5B7599",
"w. c #636F82",
"e. c #63748A",
"r. c #7D7D82",
"t. c #777D8A",
"y. c #647B98",
"u. c #767F90",
"i. c #5B7DA8",
"p. c #637DA2",
"a. c #7C828F",
"s. c #6D839A",
"d. c #798495",
"f. c #5982AC",
"g. c #5A85B4",
"h. c #6B86A4",
"j. c #758BA6",
"k. c #7B93AC",
"l. c #6D94B7",
"z. c #7997B9",
"x. c #3B92DB",
"c. c #2891E4",
"v. c #3898E5",
"b. c #4D90CD",
"n. c #779EC4",
"m. c #7DA1C6",
"M. c #6FA9D8",
"N. c #459AE4",
"B. c #5398E2",
"V. c #4FA6E5",
"C. c #848285",
"Z. c #858589",
"A. c #888589",
"S. c #8A8789",
"D. c #8B8A8D",
"F. c #94898A",
"G. c #878A90",
"H. c #8C8D91",
"J. c #928F92",
"K. c #8B919A",
"L. c #929195",
"P. c #95959B",
"I. c #989599",
"U. c #9B9A9D",
"Y. c #A5898D",
"T. c #A89A8B",
"R. c #B19988",
"E. c #A79896",
"W. c #A39D9D",
"Q. c #B7A987",
"!. c #B4AA87",
"~. c #AAA599",
"^. c #AAA19C",
"/. c #B3AC95",
"(. c #B8B496",
"). c #848EA1",
"_. c #8595AA",
"`. c #9599A4",
"'. c #9D9DA3",
"]. c #939AA9",
"[. c #859DB8",
"{. c #A39EA2",
"}. c #A89EA3",
"|. c #9DA2AB",
" X c #89A2BE",
".X c #9AA3B3",
"XX c #A3A2A5",
"oX c #A9A4A5",
"OX c #AAA8A7",
"+X c #A7A6AB",
"@X c #AAA9AC",
"#X c #B1AAA6",
"$X c #B9B3A7",
"%X c #A7ADB4",
"&X c #AFB0B2",
"*X c #B4B4B5",
"=X c #B5B5B9",
"-X c #B9B7BA",
";X c #BBBABC",
":X c #DCA786",
">X c #C2BB87",
",X c #C4BFB6",
"<X c #CAC385",
"1X c #D7CD8F",
"2X c #E2DBA7",
"3X c #84A6CB",
"4X c #8AAAC9",
"5X c #94AFCB",
"6X c #94B2CC",
"7X c #89ACD1",
"8X c #8DB3D7",
"9X c #95B9DA",
"0X c #ABB9C9",
"qX c #95BEE3",
"wX c #BEC1C6",
"eX c #9BC5E6",
"rX c #A4CAE6",
"tX c #A4CDEC",
"yX c #A6D0EE",
"uX c #A3CEF1",
"iX c #ABD5F3",
"pX c #A9D5F6",
"aX c #AED9F5",
"sX c #C4C3C5",
"dX c #CAC9C6",
"fX c #CBCBCD",
"gX c #D5D3CF",
"hX c #D3D3D4",
"jX c #D8D6D8",
"kX c #DBDBDB",
"lX c #E0DFDD",
"zX c #E4E1DB",
"xX c #DFDFE1",
"cX c #E0DFE1",
"vX c #E3E3E4",
"bX c #E7E7E8",
"nX c #EDECEB",
"mX c #EFEFF1",
"MX c #F4F3F3",
"NX c #F9F8F7",
/* pixels */
"+X+X+X+X+X+X+X+X+X+X+X+X+X+X+X+X+X+X+X+X+X+X+X+X+X@X+X+X+X+X+X+X+X+X+X+X+X+X+X+X+X+X+X+X+X+X+X+X+X+X+X+X+X+X+X+X+X+X+X+X+X+X+X+X",
"+X+X+X+X+X+X+X+X+X+X+X+X+X+X+X+X+X+X+X+X+X+X+X+X+X+X+X+X+X+X+X+X+X+X+X+X+X+X+X+X+X+X+X+X+X+X+X+X+X+X+X+X+X+X+X+X+X+X+X+X+X+X+X+X",
"+X+X+X+X+X+X+X+X+X+X+X+X+X+X+X+X+X+X+X+X+X+X+X+X+X+X+X+X+X+X+X+X+X+X+X+X+X+X+X+X+X+X+X+X+X+X+X+X+X+X+X+X+X+X+X+X+X+X+X+X+X@X+X+X",
"+X+X+X+X+X+X+X@X+X+X+X+X+X+X+X+X+X+X+X+X+X+X+X+X+X+X+X+X+X+X+X+X+X+X+X+X+X+X+X+X+X+X+X+X+X+X+X+X+X+X+X+X+X+X+X+X+X+X+X+X+X+X+X+X",
"+X+X+X+X+X+X+X+X+X+X+X+X+X+X+X+X+X+X+X+X+X+X+X+X+X+X+X+X+X+X+X+X+X+X+X+X+X+X+X+X+X+X+X+X+X+X+X+X+X+X+X+X+X+X+X+X+X+X+X+X+X+X+X+X",
"+X+X+X+X+X+X+X+X+X+X+X+X+X@X+X+X+X@X+X+X+X+X+X+X+X+X+X+X+X+XOXOX+X+X+X+X+X+X+X+X+X+X+X+X+X+X+X+X+X+X+X+X+X+X+X+X+X+X+X+X+X+X+X+X",
"+X+X+X+X+X+X+X+X+X+X+X+X+X+X+X+X@X@X+X+X+X+X+X+X+X+X+X+X+XE.T.@.@.E.oX+X+X+X+X+X+X+X+X+X+X+XOX+X+X+X+X+X+X+X+X+X+X+X+X+X+X+X+X+X",
"+X+X+X+X+X+X+X+X+X+X+X+X+X+X+XoX$.$.OX+X+X+X+X+X+X+X+X+XY.+.%.%.m A C +X+X+X+X+X+X+X+X+XXXOX/./.+X+X+X+X+X@X+X+X+X+X+X+X+X+X+X+X",
"+X+X+X+X+X+X+X+X+X+X+X+X+X+XW.*.` ] 5.(.%X+X+X+X+X+X+XW.B b b c c c c C XX+X+X+X+X+X+X+X(.4. .} #.+X+X+X+X+X+X+X+X+X+X+X+X@X+X+X",
"+X+X+X+X+X+X+X+X+X+X+X+X+X+X:.` ' ' ' 6.+X+X+X+X+X+X+XO.c = # % % % + = XX+X+X+X+X+X+XOX6.' ' ' ( R.+X+X+X+X+X+X+X+X+X+X+X+X+X+X",
"+X+X+X+X@X+X+X+X+X+X+X+X+X+X<.' ' ' ' 6.+X+X+X+X+X+XXXt + & :.:.B %   @ S.OX+X+X+X+X+X(. .' ' ' ' ,.+X+X+X+X+X+X+X+X+X+X+X+X+X+X",
"+X+X+X+X+X+X+X+X+X+X+X+X+X+X/.} ' ' ] <X+X+X+X+X+X+XW.6   * ;.1.:.=   $ t +X+X+X+X+X+X@X5.' ' ' ] Q.+X+X+X+X+X+X+X+X+X+X+X+X+X+X",
"+X+X+X+X+X+X+X+X+X+X+X@X+X+X}.b I ' 7.@X+X@XXX|.+X+Xr.3 * N @.>.B N & & 6 |.+X+X+X+X+X+X(.] ` Q o.OX+X+X+X+X+X+X+X+X+X+X+X+X+X+X",
"+X+X+X+X+X+X+X+X+X+X+X+X+X+X}.M D ` ] 6.8.(.Q.$.+XI.f y 8 +.1.1.+.+.& < Z.+X@XXXW.+X+X(.<X .` x l +X+X+X@X+X+X+X+X+X+X+X+X+X+X+X",
"+X+X+X+X+X+X+X+X+X+X+X+X+X+X+XW.Y ` / G ~  . .#.+XU.I.y O * :X1.+.8 X > d.XXoX^.[ 8.4.} ~ ` ` L Y.+X+X+X+X+X+X+X+X+X+X+X+X+X+X+X",
"+X+X+X+X+X+X+X+X+X+X+X+X+X+X+XQ.H ' ' ^ F `  ./.@XI.I.d & X u :.C X X & f oX+XOX-.' ) F E ` / [ ~.+X+X+X+X+X+X+X+X+X+X+X+X+X+X+X",
"+X+X+X+X+X+X+X+X+X+X+X+X+X+X+XQ.Y W / P { 7.2XzXkXfX-XXXD.6 & < $ . > 3 y +X+X+X2.` ` G ` ' ) J /.+X+X+X+X+X+X+X+X+X+X+X+X+X+X+X",
"+X+X+X+X+X@X+X+X+X+X+X+X+X+X+X}.#.T U -.2XjXmXNXNXNXkX;XOXOXS.s y y s y S.fXfX*X}.| ` W H E J T ~.@X+X+X+X+X+X+X+X+X+X+X+X+X+X+X",
"+X+X+X+X+X+X+X+X+X+X+X+X@X+X+X+X{./.,XdXkXvXMXNXNXzXOXI.D.@XOX*X*X+XD.e J.sXmXbXhXoX8.} [ T #.T.OX+X+X+X+X+X+X+X+X+X+X+X+X+X+X+X",
"+X+X+X+X+X+X+X+X+X+X+X+X+X+X+X+X+X0XlXbXbXnXMXMXnX=XU.f t H.D.;X*XsXL.y V oXjXnXMXbXjX,X&X+X@X+X+X+X+X+X+X+X+X+X+X+X+X+X+X+X+X+X",
"+X+X+X+X+X+X+X+X+X+X+X+X+X+X+X@XsXlXgXgXzXhXjXgXsXO.).a t D.Z.hXfX0XO.6 3 A.&XxXcXMXMXMXmXvXvX;X@X+X#X@X}.@X+X+X+X+X+X+X+X+X+X@X",
"+X+X+X+X+X+X+X+X+X+X+X+X+X+XXX-XbXbXsXU.XXXX^.U.W.q i 4 a y q +X=XXXi C., y u {.-XhXvXcXvXvXbXvXkXoX}.}.}.@X+X+X+X+X+X+X+X+X+X+X",
"+X+X+X+X+X+X+X+X+X+X+X+X^.@.*.1XzXzX+XC.S.P.XX+X+Xt , O U.D.H.jXhX*Xs *Xy , A.p p u A.I.T.J.P.$X1XT ,.R.R.{.|.+X+X+X+X+X+X+X+X+X",
"+X+X+X+X+X+X+X+X+X+X+XE.&._ ' ' ..<X^.|.XX+X+X+X+XC.O 6 &X|.P.bXnXsXC.S.D.6 {.{.U.F.S.V d V X.} ] ' _ U B F.+X+X+X+X+X+X+X+X+X+X",
"+X+X+X+X+X+X+X@X+X+X+X+.Y ~ ' P K } (.OX+X+X+X+X+XG.. f '.r.H.jXvXkXL.f f y XX+X+X+X|.+X|.!.} K ! ' Q { b Y.+X+X+X+X+X+X+X+X+X+X",
"+X+X+X+X+X+X+X+X+X+XoXo.O.L ^ O.O.W <X+X+X+X+X+X+XG., U.-Xs `.dXjXkXL.r.a.u XX+X+X+X@X+X+X<X! O.O.Q K O.o.{.+X+X+X+X+X+X+X+X@X+X",
"+X+X+X@X+X+X+X+X+X+XoXT K v n S J } (.OX+X+X+X+XOXD.6 Z.K.r.&XfXfXhX*Xi s G.+X+X+X+X+X+X+X(. .J S x b K U OX+X+X+X+X+X+X+X+X+X+X",
"+X+X+X+X+X+X+X+X+XXX'.@.b h k z [ 8.OXOX+X+X+X+XOXJ.a.6 t.G.=XsXfXwX*Xt.r.s XX+X+X+X+X+X+X+X(.} n j j b Q.XX+X+X+X+X+X+X+X+X+X+X",
"+X+X+X+X+X+X+X+X+X+X+XF.l k k g #.%X%X|.@X+X|.OXOXZ.C.1 D.@X=X-X0X-XwX}.5 d XX+XOX|.@XOX@X@X|.$.g k k l }.+X+X+X+X+X+X+X+X+X+X+X",
"+X+X+X+X+X+X+X+X+X+X+XE.l j k g 3.8.>X~.OXOXT.OX@XD.1 < C.OXoX{.F.V p V 1 d +X+X|.T.XXOX/.(.<X3.g j j l Y.+X+X+X+X+X+X+X+X+X+X+X",
"+X+X+X+X+X+X+X+X+X+X+XXXZ v n D Q ` ] [ -.{ { '.+X|.y X @ $ * 7 N 8 = < 1 U.+X+X~.&.{ -.{ ] ` / D z v Z }.+X+X+X+X+X+X+X+X+X+X+X",
"+X+X+X+X+X+X+X+X+X+X+X+XQ.] ' ` G ` ` Q S E #.@X+X+Xf O < t 9 7 9 9 C V e H.+X+X|.<XQ S W ' ' P ' ` _ Q.+X+X%X+X+X+X+X+X+X+X+X+X",
"+X+X+X+X+X+X+X+X+X+X+X+X#.' ' ' P ^ ` ` H ! Q.+XOX|.i e.j.j.4X9X3X7X9X3Xk.K.}.+X+X/.~ F ' ' / G ' ' ' ,.+X+X+X+X+X+X+X+X+X+X+X+X",
"+X+X+X+X+X+X+X+X+X+X+X+X@._ ' ' / H P H H { W.+XXX|.k.8X4Xj.y.7X8XqX3X3XqXqX.X+X+XXXR J H P G ^ ' ' ) #.+X+X+X+X+X+X+X+X+X+X+X+X",
"+X+X+X+X+X+X+X+X+X+X+X+X+X=.) ' ' ` ^ ~ R R.+X+XXX_.7XeXyXrX[.z.z.z.n.3X5XrXqX+X+X+XE.*.! / ` ` ' ) =.E.+X+X+X+X+X+X+X+X+X+X+X+X",
"+X+X+X+X+X+X+X+X+X+X+X+X+X{.R.,.3.3.-.!.W.+X+X+X].5XuXrX6X5X4Xz.9.9.t.k.5XrXaX9X+X@X@X{.!.,.3.3.,.T.^.+X+X+X+X+X+X+X+X+X+X+X+X+X",
"+X+X+X+X+X+X+X+X+X+X+X+X+X+X+X+X+XXX+X+X+X+X+X+X XtXiXtX5X_.e.q - - 4 h.4X8XiXiX%XXX+X+X+X+XXX+XXXOX+X+X+X+X+X+X+X+X+X+X+X+X+X+X",
"+X+X+X+X+X+X+X+X+X+X+X+X+X+X+X+X+X+X+X+X+X+X+X'.9XiXaXiXeX3Xq.2 o . 0 y.4XqXtXaXrX+X+X+X+X+X+X+X+X+X+X+X+X+X+X+X+X+X+X+X+X+X+X+X",
"+X+X+X+X+X+X+X+X+X+X+X+X+X+X+X+X+X+X+X+X+X+XOX.XeXaXaXiX5Xz.h.G.H., - q.h.8XuXaXaX0X+X+X+X+X+X+X+X+X+X+X+X+X+X+X+X+X+X+X+X+X+X+X",
"+X+X+X+X+X+X+X+X+X+X+X+X+X+X+X+X+X+X+X+X+X+X|. XuXaXaXrX7Xm.).+X+X'.q w n.z.9XiXaX9X|.+X+X+X+X+X+X+X+X+X+X+X+X+X+X+X+X+X+X+X+X+X",
"+X+X+X+X+X+X+X+X+X+X+X+X+X+X+X+X+X+X+X+X+X+X'.7XpXaXaXqXm._.{.+X+X+X}.i 9.p.z.eXpXtX.X+X+X+X+X+X+X+X+X+X+X+X+X+X+X+X+X+X+X+X+X+X",
"+X+X+X+X+X+X+X+X+X+X+X+X+X+X+X+X+X+X+X+X+X+X].qXpXaXpX7Xj.].+X+X+X+X+X{.i 9.y.8XuXpX6X+X+X+X+X+X+X+X@X+X+X+X+X+X+X+X+X+X+X+X+X+X",
"+X+X+X+X+X+X+X+X+X+X+X+X+X+X+X+X+X+X+X+X+XP.k.eXpXpXqXk.'.+X+X+X+X+X+X+X'.4 0 p.m.3X XXX+X+X+X+X+X+X+X+X+X+X+X+X+X+X+X+X+X+X+X+X",
"+X+X+X+X+X+X+X+X+X+X+X+X+X+X+X+X+X+X+X+X+Xr.w qXpXuX3X].}.+X+X+X+X+X+X+X'.q : w 0 r G.+X+X+X+X+X+X+X+X+X+X+X+X+X+X+X+X+X+X+X+X+X",
"+X+X+X+X+X+X+X+X+X+X+X+X+X+X+X+X+X+X+X+X{.t 2 y.7X3Xj.|.+X+X+X+X+X+X+X+XL.2 - - 2 q U.+X+X+X+X+X+X+X+X+X+X+X+X+X+X+X+X+X+X+X+X+X",
"+X+X+X+X+X+X+X+X+X+X+X+X+X+X+X+X+X+X+X+X`.4 2 > 6 q Z.+X+X+X+X+X+X+X+X+Xu.w 0 - O d +X+X+X+X+X+X+X+X+X+X+X+X+X+X+X+X+X+X+X+X+X+X",
"+X+X+X+X+X+X+X+X+X+X+X+X+X+X+X+X+X+X+X+XK.2 > , 1 y '.+X+X+X+X+X+X+X+X{.w.p.p.0 q P.+X+X+X+X+X+X+X+X+X+X+X+X+X+X+X+X+X+X+X+X+X+X",
"+X+X+X+X+X+X+X+X+X+X+X+X+X+X+X+X+X+X+X+Xa ; ; > 4 L.+X+X+X+X+X+X+X+X+X`.r 0.q.i.).+X+X+X+X+X+X+X+X+X+X+X+X+X+X+X+X+X@X+X+X+X+X+X",
"+X+X+X+X+X+X+X+X+X+X+X+X+X+X+X+X+X+X+X+X5 - ; ; a XX+X+X+X+X@X+X+X+X}.t.0.i.g.y.'.+X+X+X+X+X+X+X+X+X+X+X+X+X+X+X+X+X+X+X+X+X+X+X",
"+X%X+X+X+X+X+X+X+X+X+X+X+X+X+X+X+X+X+X'.r . o ; G.+X+X+X+X+X+X+X+X+X}.u.q.p.0.u.+X+X+X+X+X+X+X+X+X+X+X+X+X+X+X+X+X+X@X+X+X+X+X+X",
"+X+X+X+X+X+X+X+X+X+X+X+X+X+X+X+X+X+XOXI.9.o o a |.+X+X+X+X+X+X+X+X+X`.w.9.p.j.].+X+X+X+X+X+X+X+X+X+X+X+X+X+X+X+X+X+X+X+X+X+X+X+X",
"+X+X+X+X+X+X+X+X+X+X+X+X+X+X+X+X+X+X+Xd.i.0 0 P.XX+X+X+X+X+X+X+X+X'.i w.y.9.e.'.+X+X+X+X+X+X+X+X+X+X+X+X%X+X+X+X+X+X+X+X+X+X+X+X",
"+X+X+X+X+X+X+X+X+X+X+X+X+X+X+X+X+X+X|.i.x.x.h.|.@X+X+X+X+X+X+X+X+X'.w.9.r 9.d.+X+X+X+X+X+X+X+X+X+X+X+X+X+X+X+X+X+X+X+X+X+X+X+X+X",
"+X+X+X+X+X+X+X+X+X+X+X+X+X@X+X+X+X+X`.b.x.v.f.XX+X+X+X+X+X+X+X+X+X.Xr y.h.9.U.OX+X+X+X+X+X+X+X+X+X+X+X+X+X+X+X+X+X+X+X+X+X+X+X+X",
"+X+X+X+X+X+X+X+X+X+X+X+X+X+X+X+X+X+X).b.v.x.k.XX+X+X+X+X+X+X+X+X'.M.b.g.q.s.XX+X+X+X+X+X+X+X+X+X+X+X+X+X+X+X+X+X+X+X+X+X+X+X+X+X",
"+X+X+X+X+X+X+X+X+X+X+X+X+X+X+X+X+X+X].b.N.b.|.+X+X+X+X+X+X+X+XXX6XB.v.c.v._.+X+X+X+X+X+X+X+X+X+X+X+X+X@X+X+X+X+X+X+X+X+X+X+X+X+X",
"+X+X+X+X+X+X+X+X+X+X+X+X+X+X+X+X+X+X+Xl.b.z.XX+X+X+X+X+X+X+X+XXXf 5XV.v.c.n.+X+X+X+X+X+X+X+X+X+X+X+X+X+X+X+X+X+X+X+X+X+X+X+X+X+X",
"+X+X+X+X+X+X+X+X+X+X+X+X+X+X+X+X+X+X+X+X|.%X+X+X+X+X+X+X+X+X+X+X`.Z.M.v.c.M.+X+X+X+X+X+X+X+X+X+X+X+X+X+X+X+X+X+X@X+X+X+X+X+X+X+X",
"+X+X+X+X+X+X+X@X+X+X+X+X+X+X@X+X+X+X+X+XXX+X+X+X+X+X+X+X+X+X+X+X@X}.s.V.c.M.+X+X+X+X+X+X+X+X+X+X+X+X+X+X+X+X+X+X+X+X+X+X+X+X+X+X",
"+X+X+X+X+X+X+X+X+X+X+X+X+X+X+X+X+X+X+X+X+X+X+X+X+X+X+X+X+X+X+X+XOX+XC._.V.V..X+X+X+X+X+X+X+X+X+X+X+X+X+X+X+X+X+X+X+X+X+X+X+X+X+X",
"+X+X+X+X+X+X+X+X+X+X+X+X+X+X+X+X+X+X+X+X+X+X+X+X+X+X+X+X+X+X+X+X+X+XXXi s l.%XoX+X+X+X+X+X+X+X+X@X+X+X+X+X+X+X+X@X+X+X+X+X+X+X+X",
"+X+X+X+X+X+X+X+X+X%X+X+X+X+X+X+X+X+X+X+X+X+X+X+X+X+X+X+X+X+X+X+X+X+X+X+X`.L.OXXX+X+X+X+X+X+X+X%X+X+X+X+X+X+X+X+X+X+X+X+X+X+X+X+X",
"+X@X+X+X+X+X+X+X+X+X+X+X+X+X+X+X+X+X+X+X+X+X+X+X+X+X+X+X+X+X+X+X+X+X+X+X+X+XOX+X+X+X+X+X+X+X+X+X+X+X+X+X+X+X+X+X+X+X+X+X+X+X+X+X",
"+X+X+X+X+X+X+X+X+X+X+X+X+X+X+X+X+X+X+X+X+X@X+X+X+X+X+X+X+X+X+X+X+X+X+X+X+X+X+X+X+X+X+X+X+X+X+X+X+X+X+X+X+X+X+X+X+X+X+X+X+X+X+X+X"
};
