/* XPM */
static char *_3B1721607249[] = {
/* columns rows colors chars-per-pixel */
"64 64 232 2 ",
"   c #2D211B",
".  c #352B27",
"X  c #2D2D31",
"o  c #36383D",
"O  c #482C1C",
"+  c #443328",
"@  c #513123",
"#  c #463B35",
"$  c #623729",
"%  c #564237",
"&  c #6F4A33",
"*  c #3A3E46",
"=  c #3C434C",
"-  c #3F4652",
";  c #484647",
":  c #564C49",
">  c #454B57",
",  c #514F50",
"<  c #4D515A",
"1  c #565659",
"2  c #6B4E42",
"3  c #745B4E",
"4  c #685B57",
"5  c #736E58",
"6  c #48586C",
"7  c #535A65",
"8  c #4E5E7A",
"9  c #605F62",
"0  c #5E6167",
"q  c #586477",
"w  c #666569",
"e  c #6C6A6D",
"r  c #766B6A",
"t  c #696B72",
"y  c #756E71",
"u  c #6E7177",
"i  c #737375",
"p  c #797577",
"a  c #7A797C",
"s  c #B8271D",
"d  c #AD3219",
"f  c #B12225",
"g  c #C0251D",
"h  c #DE1E24",
"j  c #E21D23",
"k  c #EB1C24",
"l  c #CB2420",
"z  c #D52520",
"x  c #B45316",
"c  c #AC7313",
"v  c #92532C",
"b  c #A64534",
"n  c #8B7E37",
"m  c #B0723E",
"M  c #C67232",
"N  c #E07D24",
"B  c #8A6C51",
"V  c #B07752",
"C  c #8D776A",
"Z  c #987566",
"A  c #827A7A",
"S  c #B27678",
"D  c #C64E4E",
"F  c #C27F53",
"G  c #A5921F",
"H  c #B5AB0E",
"J  c #BBB215",
"K  c #979127",
"L  c #A79A3C",
"P  c #B8A62F",
"I  c #C9B909",
"U  c #D1BA0E",
"Y  c #C9B830",
"T  c #E3B920",
"R  c #D6C905",
"E  c #DDD20E",
"W  c #D5C717",
"Q  c #E2D404",
"!  c #EADB05",
"~  c #EAD418",
"^  c #EDD71A",
"/  c #EEE102",
"(  c #F3E503",
")  c #F7E907",
"_  c #FAEC02",
"`  c #FFF200",
"'  c #FDF00D",
"]  c #EDE119",
"[  c #F6E718",
"{  c #D0C42B",
"}  c #DAC736",
"|  c #EBD72E",
" . c #EDE22D",
".. c #F3E629",
"X. c #F1E434",
"o. c #8C8A4D",
"O. c #968B47",
"+. c #A89548",
"@. c #AE9353",
"#. c #B7A950",
"$. c #928875",
"%. c #B78766",
"&. c #B09071",
"*. c #B4A86F",
"=. c #BBAC7A",
"-. c #C98D5F",
";. c #EC8D42",
":. c #CAB44D",
">. c #D29364",
",. c #C5977A",
"<. c #C5A968",
"1. c #C9AF6B",
"2. c #DCA176",
"3. c #C6B173",
"4. c #E1A67D",
"5. c #DBC54B",
"6. c #D8C855",
"7. c #DDD35A",
"8. c #E1CD44",
"9. c #E9DE4C",
"0. c #ECE040",
"q. c #D9D06B",
"w. c #CCC47B",
"e. c #D6CD78",
"r. c #E0D762",
"t. c #576A85",
"y. c #51698E",
"u. c #5A779D",
"i. c #636F82",
"p. c #6E788A",
"a. c #7B7E85",
"s. c #647B98",
"d. c #5B7DA8",
"f. c #637DA2",
"g. c #758493",
"h. c #798495",
"j. c #5982AC",
"k. c #5A85B4",
"l. c #6B8DAE",
"z. c #788CA8",
"x. c #7B98BC",
"c. c #3B92DB",
"v. c #2891E4",
"b. c #3898E5",
"n. c #4D90CD",
"m. c #6C9FCC",
"M. c #7DA1C6",
"N. c #6FA9D8",
"B. c #459AE4",
"V. c #5398E2",
"C. c #4FA6E5",
"Z. c #878582",
"A. c #848284",
"S. c #858589",
"D. c #8A8789",
"F. c #8C8B8D",
"G. c #928A88",
"H. c #9C9788",
"J. c #8B8C91",
"K. c #928F92",
"L. c #8E919B",
"P. c #939195",
"I. c #95959B",
"U. c #989599",
"Y. c #9B9A9E",
"T. c #A8958E",
"R. c #B99F87",
"E. c #A29B9C",
"W. c #AB999B",
"Q. c #AEAA84",
"!. c #B6A685",
"~. c #ACA79D",
"^. c #B1A999",
"/. c #B8B396",
"(. c #8595A9",
"). c #8598AF",
"_. c #959AA6",
"`. c #9D9DA3",
"'. c #A29EA3",
"]. c #A89FA4",
"[. c #95A1B4",
"{. c #99A3B3",
"}. c #A4A2A5",
"|. c #A9A6A6",
" X c #ADAAA4",
".X c #A7A6AB",
"XX c #A9A7AA",
"oX c #AAA9AC",
"OX c #B1AEA6",
"+X c #B4B1AC",
"@X c #A8ABB3",
"#X c #B3B3B5",
"$X c #B7B6B9",
"%X c #BCBBBC",
"&X c #C2BC8C",
"*X c #C0BB93",
"=X c #F7B683",
"-X c #C8C28B",
";X c #D6D1B2",
":X c #83A7CD",
">X c #90AFCF",
",X c #94B9DC",
"<X c #A2B4C7",
"1X c #BEBDC1",
"2X c #A2BDD6",
"3X c #94BEE4",
"4X c #C0BFC2",
"5X c #98C4E8",
"6X c #A6CBE9",
"7X c #ABD4EF",
"8X c #A3CEF1",
"9X c #ABD5F4",
"0X c #A9D5F6",
"qX c #AED9F5",
"wX c #C5C4C5",
"eX c #CACACC",
"rX c #D1D0CB",
"tX c #D0CFD2",
"yX c #D3D3D3",
"uX c #D8D7D8",
"iX c #DBDBDB",
"pX c #E0DFDF",
"aX c #E1E0DF",
"sX c #DFDFE1",
"dX c #E0DFE1",
"fX c #E4E3E4",
"gX c #E9E8E7",
"hX c #E7E6E9",
"jX c #EDECEB",
"kX c #EFEFF1",
"lX c #F4F3F3",
"zX c #F9F8F7",
/* pixels */
".X.X.X.X.X.X.X.X.X.X.X.X.X.X.X.X.X.XoX.X.X.X.X.X.X.X.X.X.X.X.X.X.XoX.X.X.X.X.X.X.X.X.X.X.X.X.X.X.X.X.X.X.XoX.X.X.X.X.X.X.X.X.X.X",
".X.X.X.X.X.X.X.X.X.X.X.X.X.X.X.X.X.X.X.X.X.X.X.X.X.X.X.X.X.X|./.&X.X.X.X.X.X.X.X.X.X.X.X.X.X.X.X.X.X.X.X.X.X.X.X.X.X.X.X.X.X.X.X",
".X.X.X.X.X.X.X.X.X.X.X.X.X.X.X.X.X.X.X.X.X.X.X.X.X.X.X.XXXOX3.X.[ 7./..X.X.X.X.X.X.X.X.X.X.X.X.X.X.X.X.X.X.X.X.X.X.X.X.X.X.X.X.X",
".X.X.X.XoX.X.X.X.X.X.X.X.X.X.X.X.X.X.X.X.X.X.X.X.X.X.X.XoXe.' ` ` ` 0. X.X.X.X.X.X.X.X.X.X.X.X.X.X.X.X.X.X.X.X.X.X.X.X.X.X.X.X.X",
".X.X.X.X.X.X.X.X.X.X.X.X.X.X.X.X.X.X.X.X.X.X.X.X.XoX.X.XOXX.` ` ` ` ' &X.X.X.X.X.X.X.X.X.X.X.X.X.X.X.X.X.X.X.X.X.XoX.X.X.X.X.X.X",
".X.X.X.X.X.X.X.X.X.X.X.X.X.X.X.X.X.X.X.X.X.X.X.X.X.X.X.X X9.` _ ` ` ..*X.X.X.X.X.X.X.X.X.X.XoX.X.X.X.X.X.X.X.X.X.X.X.X.X.X.X.X.X",
".X.X.X.X.X.X.X.X.X.X.XoX.X.X.X.X.X.X.X.X.X.X.X.X.X.X.X.X.X!.} T T ~ w.|..X.X.X.X.X.X.X.X.X.X.X.X.X.X.X.X.X.X.X.X.X.X.X.X.X.X.X.X",
".X.X.X.X.X.X.X.X.X.X.X.X.X.X.X.X.X.X.X.X.X.X.X.X.X.X.X.XT.F ;.;.;.M @. X.X.X.X.X.X.X.X.X.X.X.X.X.X.X.X.X.X.X.X.X.X.X.X.X.X.X.X.X",
".X.X.X.X.X.X.X.X.X.X.X.X.X.X.X.X.X.X.X.X.X.X.X.X.X.X.XE.V m m v v v v +.^..X.X.X.X.X.X.X.X.X.X.X.X.X.X.X.X.X.X.X.X.X.X.X.X.X.X.X",
".X.X.X.X.X.X.X.X.X.X.X.X.X.X.X.X.X.X.X.X.X.X.X.X.X.X.X$.v & @ @ @ O O & 6.|..X.X.X.X.X.X.X.X.X.X.X.X.X.X.X.X.X.X.X.X.X.X.X.X.X.X",
".X.X.X.X.X.X.X.X.X.X.X.X.X.X.X.X.X.X.X.X.X.X.X.X.X.X|.5 O % -.>.V &   O O.|..X.X.X.X.X.X.X.X.X.X.X.X.X.X.X.X.X.X.X.X.X.X.X.X.X.X",
".X.X.X.X.X.X.X.X.X.X.X.X.X.X.X.X.X.X.X.X.X.X.X.X.X.XE.1   & -.2.-.&   + 9 }..X.X.X.X.X.X.X.X.X.X.X.X.X.X.X.X.X.X.X.X.X.X.X.X.X.X",
".X.X.X.X.X.X.X.X.X.X|..X.X.X.X.X.X.X.X.X.X.X.X.X.X.Xa., 2 B %.%.V B # % 4 }..X.X.X.X.X.X.X.X.X.X.X.X.X.X.X.X.X.X}.|..X.X.X.X.X.X",
".X.X.X.X.X.X.X.XW.3.:.^..X.X.X.X.X.X.X.X.X.X.X.X.XI.p e 3 %.=X2.V %.% : S..XXX.X.X.X.X.X.X.X.X.X.X.X.X.X.X.X.XXX=.<.R.]..X.X.X.X",
".X.X.X.X.X.X.X'.:.] ` [ /..X.X.X.X.X.X.X.X.X.X.X.X`.P.e . 2 4.2.%.3 . ; h..X.X.X.X.X.X.X.X.X.X.X.X.X.X.X.X.X.Xw.' _ ^ R..X.X.X.X",
".X.X.X.X.X.X.XW.@.L ( ` r..X.X.X.X.X.X.X.X.X.XoX.XU.U.a ; . B =.Z . . % p |..X.X.X.X.X.X.X.X.X.X.X.X.X.X.X.X XX.` E +.@..X.X.X.X",
".X.X.X.X.X|.].S m P ( ` r..XXXXX.X.XXXXXoX@XeXiXpXeX$X}.F.1 % : o X # , t .X.X]..X.X.X.X.X.X.X.X.X.X.X.X.X.XOXX.` E O.m W.}..X.X",
".X.X.X.X.X].S D T _ _ [ &X.XXX|..X.XXXoXwXyXjXzXzXzXiX%X|.~.Z.i r t i y D.eXtX#X|..X.X.X.X.X.X.X.X.X.X.X.X.X|.q.' ` ( N D S .X.X",
".X.X.X.X.X.XW.W.3.) ` 7.|.|.XXoXXX@XwXeXiXfXlXzXzXaXoXU.J.oX|.$X#X|.F.9 K.4XkXfXtX@X.X.X.X.X.X.XXXXX.X.X|..X.X/...` ^ !.W.]..X.X",
".X.X.X.X.X.X.X.X^.] ` 9.-Xq.q././.%XiXgXgXjXlXlXjX$XY.a e J.F.$X#XwXJ.y A oXuXkXlXhXuX4X$X@X@X]..XXXQ./.-Xe.-X&X..` 8.|..X.X.X.X",
".X.X.X.X.X.X.X.X X.._ _ ' ` ! } ;XaXyXrXaXyXuXyX;Xg.P.u 0 F.g.tXeX%XA.1 < D.+XsXdXlXlXlXkXfXdX4XoX|.5.] R ( _ ' _ ` 6.]..X.X.X.X",
".X.X.X.X.X.X.X.X~.] _ R ` ` ] -XaXjXwXY.|.'.~.Y.Y.0 0 < u w 9 @X$X|.e a.; e r '.%XtXhXdXfXgXhXfXiX|.1.J W _ ` ( R ` 8..X.X.X.X.X",
".X.X.X.X.X.X.X.X|.| ` H ( ` r.rXjXaXoXS.S.I.'.}.|.0 , o `.F.&.e.;XoXu #Xe ; A.y r r A.U.K.K.U.$X1XZ R.2.<..._ Q R ` 6..X.X.X.X.X",
".X.X.X.X.X.X.X.X.X<._ ! H Y /.uXiX4X'.'.}..X.X.X}.Z.o 1 /.7.[ ` [ | :.G.J.1 ].'.'.G.D.A A A r p A 4 & B Z L U I ( ] !..X.X.X.X.X",
".X.X.X.X.X.X.X.X.X|.!.5.Y @.$.oX#X|.}..X.X.X.X.X.XS.. #. ._ ` ` _ / ) Y g.y .X.X.X.X.X.X'.`.'.`.'.'.G.r 3 +.Y } 5.R.|..X.X.X.X.X",
".X.X.X.X.X.X.X.X.X.X|.}.T.,.%.A F.|..X.X.X.X.X.X.XJ.K W H E ` ` E o.o.E o.i '..X.X.X.X.X.X.X.X.X.X|.]..XY.E.W.}.}.|..X.X.X.X.X.X",
".X.X.X.X.X.X.X.X.X.X.XE.&.,.&.&.Y..X.X.X.X.X.X.XXXF.P o.$.K R U J $.$.J :.J.}..X.X.X.X.X.X.X.X.X.X.X.X.X.X.X.X.X.X.X.X.X.X.X.X.X",
".X.X.X.X.X.XoX.X.X.X|.G.Z T.U.T..X.X.X.X.X.X.X.XXXG.:.K 5 G x l x K K / #.i }..X.X.X.X.X.X.X.X.X.X.X.X.X.X.X.X.X.X.X.X.X.X.X.X.X",
".X.X.X.X.X.X.X.X.X.X.XP.A }.E.~..X.X.X.X.X.XXX.X.XS.*./ R c z k j x W 7.5 p }..X.X.X.X.X.X.X.X.X.X.X.X.X.X.X.X.X.X.X.X.X.X.X.X.X",
".X.X.X.X.X.X.X.X.X.X.X.XY..X.X.X.X.X.X.X.X.X.X.X.XF., n c l k k k j b C : p }..X.X.X.X.X.X.X.X.X.X.X.X.X.X.X.X.X.X.X.X.X.X.X.X.X",
".X.X.X.X.X.X.X.X.X.X.X.X.X.X.X.X.X.X.X.X.X.X.X.X.X|.w O f k k k k k h & , `.XX.X.X.X.X.X.X.X.X.X.X|..X.X.X.X.X.X.X.X.X.X.X.X.X.X",
".X.X.X.X.X.X.X.X.X.X.X.X.X.X.X.X.X.X.X.X.X.X.X.X.X.XA.$ h k j k k j j b B J..X.X.X.X.X.X.X.X.X.X.X.X.X.X.X.X.X.X.X.X.X.X.X.X.X.X",
".X.X.X.X.X.X.X.X.X.X.X.X.X.X.X.X.X.X.X.X.X.X.X.X.X}.@.G s g s g s d x c W $..XoX.X.X.X.X.X.X.X.X.X.X.X.X.X.X.X.X.X.X.X.X.X.X.X.X",
".X.X.X.X.X.X.X.X.X.X.X.X.X.X.X.X.X.X.X.X.X.X.X.X|.Q.{ / R R I I U Q ( Q I  .Q..X.X.X.X.X.X.X.X.X.X.X.X.X.X.X.X.X.X.X.X.X.X.X.XoX",
".X.X.X.X.X.X.X.X.X.X.X.X.X.X.X.X.X.X.X.X.X.X.X.X=.] R Q ` ` ` ` ` ` ` ! H ` 8..X}..X.X.X.X.X.X.X.X.X.X.X.X.X.X.X.X.X.X.X.X.X.X.X",
".X.X.X.XoX.X.X.X.XoX.X.X.X.X.X.X.X.X.X.X.X.X.X.X*.Q H ( ` ` ` ` ` ` ` _ H I 3.2X}..X.X.X.X.X.X.X.X.X.X.X.X.X.X.X.X.X.X.X.X.X.X.X",
".X.X.X.X.X.X.X.X.X.X.X.XoX.X.X.X.X.X.X.X.X.X.X.X(.O.! ` ` ` ` ` ` ` ` _ ( P ,X7X<X|.|..X.X.X.X.X.X.X.X.X.X.X.X.X.X.X.X.X.X.X.X.X",
".X.X.X.X.X.X.X.X.X.X.X.X.X.X.X.X.X.X.X.X.X.X.X`.>X$X! ` ` ` ` ` ` ` ` _ ( 3.6XqX6X.X.X.X.X.X.X.X.X.X.X.X.X.X.X.X.X.X.X.X.X.X.X.X",
".X.X.X.X.X.X.X.X.X.X.X.X.X.X.X.X.X.X.X.X.X.X}.[.6X0X#X:.~ _ ` ` ` _ ( ~ @.[.6XqX7X<X.X.X.X.X.X.X.X.X.X.X.X.X.X.X.X.X.X.X.X.X.X.X",
".X.X.X.X.X.X.X.X.X.X.X.X.X.X.X.XoX.X.X.X.X.X{.[.6XqXqX2X[.H.*.<.1.=.Z e l.x.,X7XqX2X{..X.X.X.X.X.X.X.X.XoX.X.X.X.X.X.X.X.X.X.X.X",
".X.X.X.XoX.X.X.X.X.X.X.X.X.X.X.X.X.X.X.X.X.X_.>X0XqXqX3XM.(.'..X|.XX}.t t.s.x.3X0X5X@X@X.X.X.X.X.X.X.X.X.X.X.X.X.X.X.X.X.X.X.X.X",
".X.X.X.X.X.X.X.X.X.X.X.X.X.X.X.X.X.X.X.X.X.X).3X0XqX8X:Xz.`..X.X|.XX.X}.t t.s.,X8X0X>X}..X.X.X.X.XoX.X.X.X.X.X.X.X.X.X.X.X.X.X.X",
".X.X.X.X.X.X.X.X.X@X.X.X.X.X.X.X.X.X.X.X.XI.).3X0X0X5Xx.`..X.X.X.X.X.X.X`.< 6 f.M.M.[.}..X.X.X.X.X.X.X.X.X.X.X.X.XoX.X.X.X.X.X.X",
".X.X.X.X.X.X.X.X.X.X.X.X.X.X.X.X.X.X.X.X.Xa.q 3X0X8X:X(.XX.X.X.X.X.X.X.X`.7 - 6 8 8 J..X.X.X.X.X.X.X.X.X.X.X.X.X.X.X.X.X.X.X.X.X",
".X.X.X.X.X.X.X.X.X.X.X.X.X.X.X.X.X.X.X.X'.w < s.:XM.z.}..X.X.X.X.X.X.X.XL.> * - > 1 Y..X.X.X.X.X.X.X.X.X.X.X.X.X.X.X.X.X.X.X@X.X",
".X.X.X.X.X.X.X.X.X.X.X.X.X.X.X.X.X.X.X.X_.< > ; 1 0 S.oX.X.X.X.X.X.X.X.Xg.8 6 * o a .X.X.X.X.X.X.X.X.X.X.X.X.X.X.X.X.X.X.X.X.X.X",
".X.X.X.X.X.X.X.X.X.X.X.X.X.X.X.X.X.X.X.XL.> * : , e `..X.X.X.X@X.X.X.X}.u u.d.6 7 I.XXXX.X.X.X.X.X.X.X.X.X.X.X.X.X.X.X.X.X.X.X.X",
".X.X.X.X.X.X.X.X.X.X.X.X.X.X.X.X.X.X.X}.t - * ; < J..X.X.X.X.X.X.X.X.XI.q y.u.d.z.|.XXXX.X.X.X.X.X.X.X.X.X.X.X.X.X.X.X.X.X.X.X.X",
".X.X.X.X.X.X.X.X.X.X.X.X.X.X.X.X.X.X.X}.7 o = = u }..X.X.X.X.X.X.X.X.Xa.y.d.k.f._..X.X.X.X.X.X.X.X.X.X.X.X.X.X.X.X.X.X.X.X.X.X.X",
"oX.X.X.X.X.X.X.X.X.X.X.X.X.X.X.X.X.X.X'.q X X = F..X.X.X.X.X.X.X.X.X.Xp.u.f.y.a.]..X.X.X.X.X.X.X.X.X.X.X.X.X.X.X.X.X.X.X.X.X.X.X",
".X.X.X.X.X.X.X.X.X.X.X.X.X.X.X.X.X.XXX_.q * X u }..X.X.X.X.X.X.X.X.XL.i.i.f.l._..X.X.XoX.X.X.X.X.X.X.X.X.X.X.X.X.X.X.X.X.X.X.X.X",
".X.X.X.X.X.XoX.X.X.X.X.X.X.X.X.X.X.X.Xh.k.- 6 Y..X.X.X.X.X.X.X.X.X`.t i.f.t.i.`..X.X.X.X.X.X.X.X.X.X.X.X.X.X.X.X.X.X.X.X.X.X.X.X",
".X.X.X.X.X.X.X.X.X.X.X.X.X.X.X.X.X.X`.u.c.n.j.}..X.X.X.X.X.X.X.X.X'.i.t.t.t.a.}..X.X.X.X.X.X.X.X.X.X.X.X.X.X.X.X.X.X.X.X.X@X.X.X",
".X.X.X.X.X.X.X.X.X.X.X.X@X.X.X.X.X.X_.n.b.b.j.}..X.X.X.X.X.X.X.X.X{.q s.l.i._..X.X.X.X.X.X.X.X.X.X.X.X.X.X.X.X.X.X.X.X.X.X.X.X.X",
".X.X.X.X.X.X.X.X.X.X.X.X.X.X.X.X|..XL.n.b.c.z.oX.X.X.X.X.X.X.X.X{.N.n.k.u.p.]..X.X.X.X.X.X.X.X.X.X.X.X.X.X.X.X.X.X.X.X.X.X.X.X.X",
".X.X.X.X.X.X.X.X.X.X.X.X.X.X.X.XoXoX_.c.B.n._..X.X.X.X.X.X.X.X}.<XV.b.v.b.)..X.X.X.X.X.X.X.X.X.X.X.X.X.X.XoX.X.X.X.X.X.X.X.X.X.X",
".X.X.X.X.X.X.XoX.X.X.X.X.X.X.X.X.X.X.Xl.B.x..X.X.X.X.X.X.X.X.X}.y >XC.b.v.M.XXXX.X.X.X.X.X.X.X.X.X.X.X.X.X.X.X.X.X.X.X.X.X.X.X.X",
".X.X.X.X.X.X.X.X.X.X.X.X.X.X.X.X.X.X.X}.`. X.X.X.X.X.X.X.X.X.X.XY.A.N.B.v.m..X.X.X.X.X.X.X.X.X.X.X.X.X.X.X.X.X.X.X.X.X.X.X.X.X.X",
".X.X.X.X.X.X.X.X.X.X.X.X.X.X.X.X.X@X.X.X.X.X.X.X.X.X.X.X.X.X.X.X.X}.g.B.v.m..X.X.X.X.X.X.X.X@X.X.X.X.X.X.X.X.X.X.X.X.X.X.X.X.X.X",
".X.X.X.X.X.X.X.X.X.X.X.X.X.X.X.X.X.X.X.X.X.X.X.X.X.X.X.X.X.X.X.X.X.XS.x.C.C.{..X.X.X.XoX.X.X.X.XoX.X.X.X.X.X.X.X.X.X.X.X.X.X.X.X",
".X.X.X.X.X.X.X.X.X.X.X.X.X.X.X.X.X.X.X.X.X.X.X.X.X.X.X.X.X.X.X.X.X.X}.t a l.@X@X.X.X.X.X.X.X.X.X.X.X.X.X.X.X.X.X.X.X.X.X.X.X.X.X",
".X.X.X.X.X.X.X.X.X.X.X.X.X.X.X.X.X.X.X.X.X.X.X.X.X.X.X.X.X.X.X.X.X.X|..XY.P..X.X.X.X.X.X.X.X.X.X.X.X.X.X.X.X.X.X.X.X.X.X.X.X.X.X",
".X.X.X.X.X.X.X.X.X.X.X.X.X.X.X.X.X.X.X.X.X.X.X.X.X.X.X.X.X.X.X.X.X.X.X.X.X.X.X.X.X.X.X.X.X.X.X.X.X.X.X.X.X.X.X.X.X.X.X.X.X.X.X.X",
".X.X.X.X.X.X.X.X.X.X.X.X.X.X.X.X.X.X.X.X.X.X.X.X.X.X.X.X.X.X.X.X.X.X.X.X.X.X.X.X.X.X.X.X.X.X.X.X.X.X.X.X.X.X.X.XoX.X.X.X.X.X.X.X"
};
