/* XPM */
static char *_F1721706663[] = {
/* columns rows colors chars-per-pixel */
"64 64 190 2 ",
"   c #5F4836",
".  c #68412E",
"X  c #63473A",
"o  c #784C36",
"O  c #786632",
"+  c #685349",
"@  c #705D57",
"#  c #70605B",
"$  c #6A6162",
"%  c #7E7167",
"&  c #A94A1B",
"*  c #B3671A",
"=  c #BF7517",
"-  c #B85523",
";  c #8C652F",
":  c #BB7130",
">  c #C3741A",
",  c #C37C19",
"<  c #D07119",
"1  c #965E53",
"2  c #91694C",
"3  c #866552",
"4  c #8B6C5D",
"5  c #96715C",
"6  c #AE7947",
"7  c #A97C5A",
"8  c #806960",
"9  c #997766",
"0  c #897A76",
"q  c #957E74",
"w  c #A57C67",
"e  c #9C8539",
"r  c #CB861B",
"t  c #D48A1B",
"y  c #D98C19",
"u  c #DB921B",
"i  c #E39519",
"p  c #E49B1A",
"a  c #DAA51C",
"s  c #EBA914",
"d  c #E5A219",
"f  c #E8B318",
"g  c #EFB21A",
"h  c #F1B618",
"j  c #F2BC1B",
"k  c #C7872A",
"l  c #CE9327",
"z  c #D79B23",
"x  c #DAAC3A",
"c  c #E4AF23",
"v  c #E6BD2A",
"b  c #F1BB21",
"n  c #F5C11B",
"m  c #F8CA18",
"M  c #E8C822",
"N  c #F9CB27",
"B  c #F6D825",
"V  c #FDD429",
"C  c #FEDB2D",
"Z  c #EDC93A",
"A  c #FAD933",
"S  c #FEE12D",
"D  c #A4824C",
"F  c #BD8142",
"G  c #AE815B",
"H  c #BA865B",
"J  c #BFA35C",
"K  c #9B857B",
"L  c #A88666",
"P  c #AC866C",
"I  c #AE926C",
"U  c #A58979",
"Y  c #BC927B",
"T  c #B4A576",
"R  c #C68D42",
"E  c #C1A34C",
"W  c #CAB45F",
"Q  c #C1977D",
"!  c #C9BA6B",
"~  c #E3C843",
"^  c #F3DC46",
"/  c #FAE444",
"(  c #4F6C8B",
")  c #526E8A",
"_  c #557089",
"`  c #5A748C",
"'  c #4B6E95",
"]  c #597495",
"[  c #5C7994",
"{  c #5B7C9B",
"}  c #606F81",
"|  c #65768A",
" . c #697D93",
".. c #557BA7",
"X. c #617DA4",
"o. c #79828D",
"O. c #65829A",
"+. c #6D859F",
"@. c #778494",
"#. c #7B899C",
"$. c #5482B3",
"%. c #6484A3",
"&. c #6A87A2",
"*. c #6B8AA5",
"=. c #6588AB",
"-. c #6A8CAB",
";. c #718BA3",
":. c #6E90AE",
">. c #7692AE",
",. c #6C8FB2",
"<. c #6C92B2",
"1. c #7194B3",
"2. c #7298B8",
"3. c #749ABB",
"4. c #7A9BBC",
"5. c #5F93CE",
"6. c #5191D8",
"7. c #749EC4",
"8. c #7C9FC2",
"9. c #79A4C9",
"0. c #7CAAD4",
"q. c #878689",
"w. c #988B87",
"e. c #948E8E",
"r. c #9E928F",
"t. c #8B8E93",
"y. c #8C9196",
"u. c #949396",
"i. c #9E9393",
"p. c #91949B",
"a. c #9C979A",
"s. c #979898",
"d. c #9C9A9D",
"f. c #A48F83",
"g. c #A69285",
"h. c #A3928B",
"j. c #B89A8A",
"k. c #A29594",
"l. c #A49D95",
"z. c #AB9D92",
"x. c #A59D9E",
"c. c #ACA28A",
"v. c #A4A09D",
"b. c #BAA194",
"n. c #8E95A1",
"m. c #8696A8",
"M. c #969AA3",
"N. c #949AA6",
"B. c #9C9DA3",
"V. c #A29FA2",
"C. c #97A2AB",
"Z. c #95A2B3",
"A. c #A3A2A6",
"S. c #AEA8A6",
"D. c #A7A6AB",
"F. c #A8A7AB",
"G. c #A9A8AD",
"H. c #ACAEB4",
"J. c #ABB4BC",
"K. c #B2B1B3",
"L. c #B6B5B9",
"P. c #BBBCBE",
"I. c #C69C83",
"U. c #D1A184",
"Y. c #CCA993",
"T. c #D7AB93",
"R. c #DAC7B9",
"E. c #85A4C2",
"W. c #82ADD3",
"Q. c #85B1D9",
"!. c #B4BCC2",
"~. c #BCBDC0",
"^. c #C0BFC1",
"/. c #C3C4C5",
"(. c #C5C6C8",
"). c #C9CACD",
"_. c #CCCDD0",
"`. c #CFD0D2",
"'. c #D3D3D4",
"]. c #D5D6D8",
"[. c #DADBDC",
"{. c #DDDEE0",
"}. c #DFE0E2",
"|. c #E3E3E3",
" X c #E6E8E8",
".X c #EAEBEC",
"XX c #EFF0F1",
"oX c #F3F5F4",
"OX c #F7F8F8",
"+X c #FAFBFB",
/* pixels */
"D.D.D.D.D.D.D.D.D.D.D.D.D.D.D.D.D.D.G.D.D.D.D.D.D.D.D.D.D.D.D.D.G.D.D.D.D.D.D.D.D.D.D.D.D.D.D.D.D.D.D.D.D.D.D.D.D.D.D.D.D.D.D.D.",
"D.D.D.D.D.D.D.D.D.D.D.D.D.D.D.D.D.D.D.D.D.D.D.D.D.D.D.D.D.D.D.D.D.D.D.D.D.D.D.D.D.D.D.D.D.D.D.D.D.D.D.D.D.D.D.D.D.D.D.D.D.D.D.D.",
"D.D.D.D.D.D.D.D.D.D.D.D.D.D.F.D.D.D.D.D.D.D.D.D.D.D.D.D.D.D.D.D.D.D.D.D.D.D.D.D.D.D.D.D.D.V.V.V.D.G.D.D.D.D.D.D.D.D.D.D.D.D.D.D.",
"D.D.D.D.D.D.D.D.D.D.D.D.D.D.D.D.D.D.D.D.D.D.D.D.D.D.D.D.D.D.D.D.D.D.D.D.D.D.D.D.D.D.D.G.V.q 5 5 q V.D.D.D.D.D.F.D.D.D.D.D.G.D.D.",
"D.D.D.D.D.D.D.D.D.D.D.D.D.D.D.D.D.D.D.D.D.D.D.D.D.D.D.D.D.D.D.D.D.D.D.D.D.D.D.D.V.G.G.V.0 o . o 1 w.G.D.D.D.D.D.D.D.D.D.D.D.D.D.",
"D.D.D.D.D.D.D.D.D.D.D.D.D.D.D.D.D.D.D.D.D.D.D.D.D.D.D.D.D.D.D.D.D.D.D.D.D.D.D.D.F.F.G.V.@ X 3 L 3 3 V.F.D.D.D.D.D.D.D.D.D.D.D.D.",
"D.D.D.D.D.D.D.F.D.D.D.D.D.D.D.D.D.D.D.D.D.D.D.D.D.D.D.D.D.D.D.D.D.D.D.D.D.D.D.D.F.F.F.A.$ 9 T.I.5 @ A.F.D.D.D.D.D.D.D.D.D.D.D.D.",
"D.D.D.D.D.D.D.D.D.D.D.D.D.D.D.D.D.D.D.D.D.D.D.D.D.D.D.D.D.D.D.D.D.D.D.D.D.D.D.D.F.F.F.F.q.+ 4 4 4 8 A.F.D.D.D.D.D.D.D.D.D.D.D.D.",
"D.D.D.D.D.D.D.D.D.D.D.D.D.D.D.D.D.D.D.D.D.D.D.D.D.D.D.D.D.D.D.D.D.D.D.D.D.D.D.D.D.D.D.D.V.q Y Q Q r.A.G.D.D.D.D.D.D.D.D.D.D.D.D.",
"D.D.D.D.D.D.D.D.D.D.D.D.D.D.D.D.D.D.D.D.D.D.D.D.D.D.D.D.D.D.D.D.D.D.D.D.D.D.D.D.D.D.D.D.D.i.P U.Y V.G.G.D.D.D.D.D.D.D.D.D.D.D.D.",
"D.D.D.D.D.D.D.D.D.D.D.D.D.D.D.D.D.D.D.D.D.D.D.D.D.D.D.D.D.D.D.D.D.D.D.D.D.D.D.D.D.D.D.D.S.d.# 9 Q z.G.A.D.D.D.D.D.D.D.D.D.D.D.D.",
"D.D.D.F.D.D.D.D.D.F.D.D.D.D.D.D.D.D.D.D.D.D.D.D.D.D.D.D.D.D.D.D.D.D.D.D.D.D.D.D.D.D.D.G.^.^.0 L T.R. X'.H.V.D.D.D.D.D.D.D.D.D.D.",
"D.D.D.D.D.D.D.D.D.D.D.D.D.D.D.D.D.D.D.D.D.D.D.D.D.D.D.D.D.D.D.D.D.D.D.D.D.D.D.D.D.D.D.].oX'./.'.|.OX+X+X{.F.G.G.D.D.D.D.D.D.D.D.",
"D.D.D.D.D.D.D.D.D.D.D.D.D.D.D.D.D.G.D.D.D.D.D.D.D.D.D.D.D.D.D.D.D.D.D.D.D.D.D.D.D.D.H. XOX].'.oX+X+X+XoX[.L.A.G.D.D.D.D.D.D.D.D.",
"D.D.D.D.D.D.D.D.D.D.D.F.D.D.D.D.D.D.D.D.D.D.D.D.D.D.D.D.D.D.D.D.G.D.D.D.D.D.D.D.D.D.D.`.OX.X[..X[.XX+X X'.(.D.G.D.D.D.D.D.D.D.D.",
"D.D.D.D.D.D.D.D.D.D.D.D.D.D.D.D.D.D.D.D.D.D.D.D.D.D.D.D.G.D.D.D.D.D.D.D.D.D.D.D.D.D.G.~..X^.(. Xl.`.oX`.P.].D.D.D.D.D.D.D.D.D.D.",
"D.D.F.D.D.D.D.D.D.D.D.D.D.D.D.D.D.D.D.D.D.D.D.D.D.D.D.D.D.D.D.D.D.F.D.D.D.D.D.D.F.A.L.P.).q.y.K.s.[..XH.~.|.H.D.D.D.D.D.D.D.D.D.",
"D.D.D.D.D.D.D.D.D.D.D.D.D.D.D.D.D.D.D.D.D.D.D.D.D.D.D.D.D.D.D.D.D.D.D.D.D.D.D.D.F.F.P.J.P. XK.(.'.'.{.B.~.|.P.D.D.D.D.D.D.D.D.D.",
"D.D.D.D.D.D.D.D.D.D.D.D.D.D.D.D.D.D.D.D.D.D.D.D.D.D.D.D.D.D.D.D.D.D.D.D.D.D.D.D.F.A.P.s.d.}.oXXX{.'.).a.K._./.A.D.D.D.D.D.D.D.D.",
"D.D.D.D.D.D.D.D.D.D.D.D.D.D.D.D.D.D.G.D.D.D.D.D.D.D.D.D.D.D.D.D.D.D.D.D.D.D.D.D.D.A.P.A.B.P.XXXXOX.X).u.B.~.(.D.D.D.D.D.D.D.D.D.",
"D.D.D.D.D.D.D.D.D.D.D.D.D.D.D.D.D.D.D.D.D.D.D.D.D.D.D.D.D.D.D.D.D.D.D.D.D.D.D.D.D.B.g.e.~.(.). X.X.X{.p.B.K.S.A.D.D.D.D.D.D.D.D.",
"F.D.D.D.D.D.D.D.D.D.D.D.D.D.D.D.D.D.D.D.D.D.D.D.D.D.D.D.D.D.D.D.D.D.D.D.D.D.D.D.D.V.T.K L.`.'.`.[.[.{.K.d.U j.A.D.D.D.D.D.D.D.D.",
"D.D.D.D.D.D.D.D.D.D.D.D.D.D.D.D.D.D.D.D.D.D.D.D.D.D.D.D.D.D.D.D.D.D.D.D.D.D.F.F.S.v.T.w.H.!.).`._._./.A.x.j.Y.D.D.D.D.D.D.D.D.D.",
"D.D.D.D.D.D.D.D.D.D.D.D.D.D.D.D.D.D.D.D.D.D.D.D.D.D.D.D.D.D.D.D.D.D.D.D.D.F.F.F.F.a.j.e.&.-.;.N.J.!.Z.o.B.j.b.C.D.D.D.D.D.D.D.D.",
"D.D.D.D.D.D.D.D.D.D.D.D.D.D.D.D.D.D.D.D.D.D.D.D.D.D.D.D.D.D.D.D.D.D.D.D.D.D.D.D.D.u.w.o.-.9.7.-.-.3.<. .d.K w.D.D.D.D.D.D.D.D.D.",
"D.D.D.D.D.D.D.D.D.D.D.D.D.D.D.D.D.D.D.D.D.D.D.D.D.D.D.D.D.D.D.D.D.D.D.D.D.D.D.D.A.b.I.w.=.9.:._ O.9.7. .z.I.w.A.D.D.D.D.D.D.D.D.",
"D.D.D.D.D.D.D.D.D.D.D.D.G.D.D.D.D.D.D.D.D.D.D.D.D.D.D.D.D.D.D.G.D.D.D.D.F.D.F.D.D.h.9 w.*.9.3.` [ 2.<.| q j.b.D.D.D.D.D.D.D.D.D.",
"D.D.D.D.D.D.D.D.D.D.D.D.D.D.D.D.D.D.D.D.D.D.D.D.D.D.D.D.D.D.D.D.D.D.D.D.D.D.D.D.D.S.h.u.*.9.9.:.O.4.<.o.e.K i.D.D.D.D.D.D.D.D.D.",
"D.D.D.D.D.D.D.D.D.D.D.D.D.D.D.D.D.D.D.D.D.D.D.D.D.D.D.D.D.D.D.D.D.D.D.D.D.D.D.D.A.F.A.C.>.W.Q.3.+.2.3.n.A.a.A.D.D.D.D.D.D.D.D.D.",
"D.D.D.D.D.G.D.D.D.D.D.D.D.D.D.D.D.D.G.D.D.D.D.D.D.D.D.D.D.D.D.D.D.D.D.D.D.D.D.D.F.F.D.F.p.0.Q.3.:.1.2.M.D.D.D.D.D.D.D.D.D.D.D.D.",
"D.D.D.D.D.D.D.D.D.D.D.D.D.D.D.D.D.D.D.D.D.D.D.D.D.D.D.D.D.D.D.D.D.D.D.D.D.D.D.D.F.F.F.F.C.4.W.2.1.2.:.M.D.D.D.D.D.D.D.D.D.D.D.D.",
"D.D.D.D.D.D.D.D.D.D.D.D.D.D.D.D.D.D.D.D.D.D.D.D.D.D.D.D.D.D.D.D.D.D.D.D.D.D.D.D.F.F.F.F.B.4.0.<.-.<.*.p.D.D.D.D.D.D.D.D.D.D.D.D.",
"D.D.D.D.D.D.D.D.D.D.D.D.D.D.D.D.D.D.D.D.D.D.D.D.D.D.D.D.D.D.D.D.D.D.D.D.D.D.D.D.D.D.D.D.N.3.9.-.| -.%.y.D.D.D.D.D.D.D.D.D.D.D.D.",
"D.D.D.D.D.D.D.D.D.D.D.D.D.D.D.D.D.D.D.D.D.D.D.D.D.D.D.D.D.D.D.D.D.D.D.D.D.D.D.D.D.D.D.D.B.&.,.@.} ] ` p.D.D.D.D.F.D.D.D.D.D.D.D.",
"D.D.D.D.D.D.D.D.D.D.D.D.D.D.D.D.D.D.D.F.D.D.D.D.D.D.D.D.D.D.D.D.D.D.D.D.D.D.D.D.D.D.D.D.B.3.7.#.o.{  .N.D.D.D.D.D.D.D.D.D.D.D.D.",
"D.D.D.D.D.D.D.D.D.D.D.D.D.D.D.D.D.D.D.D.D.D.D.D.D.D.D.D.D.D.D.D.D.D.D.D.D.D.D.D.D.D.D.D.B.8.0.&.| ..#.D.D.D.D.D.D.D.D.D.D.D.D.D.",
"D.D.D.D.D.D.D.D.D.D.D.D.D.D.D.D.D.D.D.D.D.D.D.D.D.D.F.D.D.D.D.D.D.D.D.D.D.D.D.D.D.D.D.D.n.7.0.{ ) { #.D.D.D.D.D.D.D.D.D.D.D.D.D.",
"D.D.D.D.D.D.D.D.D.D.D.D.D.D.D.D.D.D.D.D.D.D.D.D.D.D.D.D.D.D.D.D.D.D.D.D.D.D.D.D.D.D.D.D.m.=.9.{ ( ) o.A.D.D.D.D.D.D.D.D.D.D.D.D.",
"D.F.D.D.D.D.D.D.D.D.D.D.D.D.D.D.D.D.D.D.D.D.D.D.D.D.D.D.D.D.D.D.D.D.D.D.D.D.D.D.D.D.D.D.n.:.7.] $ ` M.F.D.D.D.D.D.D.F.D.D.D.D.D.",
"D.D.D.D.D.D.D.D.D.D.D.D.D.D.D.D.D.D.D.D.D.D.D.D.D.D.D.D.F.D.D.D.D.D.D.D.D.D.D.D.D.D.D.D.B.+.=.) ' [ A.F.D.D.D.D.D.D.D.D.D.D.D.D.",
"D.D.D.D.D.D.D.D.D.D.D.D.D.D.D.D.D.D.D.D.D.D.D.D.D.D.D.D.D.D.D.D.D.D.D.D.D.D.D.D.D.D.D.D.y.] { ..' ..m.D.D.D.D.D.D.D.D.D.D.D.D.D.",
"D.D.D.D.D.D.D.D.D.D.D.D.D.D.D.D.D.D.D.D.D.F.D.D.D.D.D.D.D.D.D.D.D.D.D.D.D.D.D.D.D.D.D.D.p.| ] ( ..6.5.N.D.D.D.D.D.D.D.D.D.D.D.D.",
"D.D.D.D.D.D.D.D.D.D.D.D.D.D.D.D.D.D.D.D.D.D.D.D.D.D.D.D.D.D.D.D.D.D.D.D.D.D.D.D.D.D.D.D.>.$.$.X.n.Z.Z.A.D.D.D.D.D.D.D.D.D.D.D.D.",
"D.D.D.D.D.D.D.D.D.D.D.D.D.D.D.D.D.D.D.D.D.D.D.D.D.D.D.D.D.D.D.D.D.D.D.D.D.D.D.D.D.D.D.n.4.E.8.%.N.A.A.D.D.D.F.D.D.D.D.D.D.D.D.D.",
"D.D.D.D.D.D.D.D.D.D.D.D.D.C.D.S.F.F.F.D.D.D.D.D.D.D.D.D.D.D.D.D.D.D.D.D.D.D.D.D.D.D.D.B.y.u.p.t.A.D.D.D.D.D.D.D.D.D.D.D.D.D.D.D.",
"D.D.D.D.D.D.D.D.D.D.D.D.A.c.J W c.A.A.D.D.D.D.D.D.D.D.D.D.D.D.D.D.D.D.D.D.D.D.D.D.D.D.D.D.D.D.D.D.D.D.D.D.D.D.D.D.D.D.D.F.D.D.D.",
"D.D.D.D.D.D.D.D.D.D.D.A.I M B S ^ ! v.D.D.D.D.D.F.D.D.D.D.D.D.D.D.D.D.D.D.D.D.D.D.D.D.D.D.D.D.D.D.D.D.D.D.D.D.D.D.D.D.D.D.D.D.D.",
"D.D.D.D.D.D.F.D.D.D.D.h.z N M B S / T A.D.D.D.D.D.D.D.D.D.D.D.D.D.D.D.D.D.D.D.D.D.D.D.D.D.D.D.D.D.D.D.D.D.D.D.D.D.D.D.D.D.D.D.D.",
"D.D.D.D.D.D.D.D.D.D.F.L s f O e V C 2 s.F.F.D.D.D.D.D.D.D.D.D.D.D.D.G.D.D.D.D.D.D.D.D.D.D.D.D.D.D.D.D.D.D.D.D.D.D.D.D.D.D.D.D.D.",
"D.D.D.D.D.D.D.D.D.D.F.G s a %   v c ; e.D.F.D.D.D.D.D.D.D.D.D.D.D.D.D.D.D.D.D.D.D.D.D.D.D.D.D.D.D.D.D.D.D.D.D.D.D.D.D.D.D.D.D.D.",
"D.D.D.D.D.D.D.D.D.D.D.P p h J D t < i 6 K F.F.D.D.D.D.D.D.D.D.D.D.D.D.D.D.D.D.D.D.D.D.D.D.D.G.D.D.D.D.D.D.D.D.D.D.D.D.D.D.D.D.D.",
"D.D.D.D.D.D.D.D.D.D.D.h.l s m r & - - 1 w.F.F.D.D.D.D.D.D.D.D.D.D.D.D.D.D.D.D.D.D.D.D.D.D.D.D.D.D.D.D.D.D.D.D.D.D.D.D.D.D.D.D.G.",
"D.D.D.D.D.D.D.D.F.S.A.A.f.R u t * 1 U V.D.D.D.D.D.D.D.D.D.D.D.D.D.D.D.D.D.D.D.D.D.D.D.D.D.D.D.D.D.D.D.D.D.D.D.D.D.D.D.D.D.D.D.D.",
"D.D.D.D.D.D.D.l.T g.9 6 L 7 t t l T A.F.D.D.D.D.D.D.D.D.D.D.D.D.D.D.D.D.D.D.D.D.D.D.D.D.D.D.D.D.D.D.D.D.D.D.D.D.D.D.D.D.D.D.D.D.",
"D.D.F.D.D.D.D.U f r = c Z x j N A ^ T A.D.D.D.D.D.D.D.D.D.F.D.D.D.D.D.D.D.D.D.D.D.D.D.D.D.D.D.D.D.D.D.D.D.D.D.D.D.D.D.D.D.D.D.D.",
"D.D.D.D.D.D.D.k.k = r f N N V C S S ~ l.D.D.D.D.D.D.D.D.D.D.D.D.D.D.D.D.D.D.D.D.D.D.D.D.D.D.D.D.D.D.D.D.D.D.D.D.D.D.D.D.D.D.D.D.",
"D.D.D.D.D.D.G.V.7 y , t i j N V C C A c.D.D.D.D.D.D.D.D.D.D.D.D.D.D.D.D.D.D.D.D.D.D.D.D.D.D.D.D.D.D.D.D.D.D.G.D.D.D.D.D.D.D.D.D.",
"D.D.D.D.D.D.G.D.U y p d g g n N V V Z z.D.D.D.D.D.D.D.D.D.D.D.D.D.D.D.D.D.D.D.D.D.D.D.D.D.D.D.D.D.D.D.D.D.D.D.D.D.D.D.D.D.D.D.D.",
"D.D.D.D.D.D.D.D.l.F u p d d h j b b E V.D.D.D.D.D.D.G.D.D.D.D.D.D.D.D.D.D.D.D.D.D.D.D.D.D.D.D.D.D.D.D.D.D.D.D.D.D.D.D.D.D.D.D.D.",
"D.D.D.D.D.D.D.D.A.k.G : > > t z k : f.G.D.D.D.D.D.D.D.D.D.D.D.D.D.D.D.D.D.D.D.D.D.D.D.D.D.D.D.D.D.D.D.D.D.D.D.D.D.D.D.D.D.D.D.D.",
"D.D.D.D.D.D.D.D.D.D.V.i.w H P r.a.k.V.V.D.D.D.D.D.D.D.D.D.D.D.D.D.D.D.D.D.D.D.D.D.D.D.D.D.D.D.D.D.D.D.D.D.D.D.D.D.D.D.D.D.D.D.D.",
"D.D.D.D.D.D.D.D.D.D.D.D.G.F.V.G.D.D.G.G.D.D.D.D.D.D.D.D.D.D.D.D.D.D.D.D.D.D.D.D.D.D.D.D.D.D.D.D.D.D.D.D.D.D.D.D.D.D.D.D.D.D.D.D.",
"G.G.G.G.G.G.G.G.G.G.G.G.G.G.G.G.G.G.G.G.G.G.G.G.G.G.G.G.G.G.G.G.G.G.G.G.G.G.G.G.G.G.G.G.G.G.G.G.G.G.G.G.G.G.G.G.G.G.G.G.G.G.G.G.",
"D.D.D.D.D.D.D.D.D.D.D.G.V.G.G.G.D.D.D.D.D.D.D.D.D.D.D.D.D.D.D.D.D.D.D.D.D.D.D.D.D.D.D.D.D.D.D.D.D.D.D.D.D.D.D.D.D.D.D.D.D.D.D.D."
};
