/* XPM */
static char *_F1721706663[] = {
/* columns rows colors chars-per-pixel */
"64 64 210 2 ",
"   c #543A30",
".  c #633F2D",
"X  c #5F4836",
"o  c #5C443A",
"O  c #68422F",
"+  c #754732",
"@  c #77503E",
"#  c #786632",
"$  c #504543",
"%  c #69554D",
"&  c #795A4A",
"*  c #775F55",
"=  c #6F625C",
"-  c #7A6154",
";  c #4A5B6C",
":  c #4C637C",
">  c #55687C",
",  c #7F7269",
"<  c #6B6C70",
"1  c #656D7A",
"2  c #757675",
"3  c #7A787A",
"4  c #A94A1B",
"5  c #B96E19",
"6  c #87553C",
"7  c #B85523",
"8  c #8C652F",
"9  c #B9742F",
"0  c #C37919",
"q  c #D07119",
"w  c #925D4B",
"e  c #9B6446",
"r  c #8D6F56",
"t  c #AE7947",
"y  c #A97C5A",
"u  c #8B7267",
"i  c #987A69",
"p  c #8C7D77",
"a  c #A67D67",
"s  c #9C8539",
"d  c #CB861B",
"f  c #D48A1B",
"g  c #D98C19",
"h  c #DB921B",
"j  c #E49919",
"k  c #DAA51C",
"l  c #EBA914",
"z  c #E5A219",
"x  c #EBB219",
"c  c #F2BA1A",
"v  c #C7872A",
"b  c #D79B23",
"n  c #D0922E",
"m  c #DAAC3A",
"M  c #E4AF23",
"N  c #ECBC26",
"B  c #F6C41B",
"V  c #E8C822",
"C  c #F9CB27",
"Z  c #F6D825",
"A  c #FDD429",
"S  c #FEDB2D",
"D  c #EDC93A",
"F  c #FAD933",
"G  c #FEE12D",
"H  c #B0814E",
"J  c #BA865B",
"K  c #BFA35C",
"L  c #998377",
"P  c #9A867C",
"I  c #A78468",
"U  c #AB856C",
"Y  c #B19968",
"T  c #A48775",
"R  c #B48C75",
"E  c #BA927C",
"W  c #B4A576",
"Q  c #C68D42",
"!  c #C6AC56",
"~  c #C4977B",
"^  c #C9BA6B",
"/  c #E3C843",
"(  c #F3DC46",
")  c #FAE444",
"_  c #4D6986",
"`  c #526C86",
"'  c #506E8A",
"]  c #59748D",
"[  c #4B6F9A",
"{  c #547597",
"}  c #5A7592",
"|  c #5C7A94",
" . c #5D7D9D",
".. c #6A7786",
"X. c #6C7D8D",
"o. c #757D89",
"O. c #687F94",
"+. c #607C9A",
"@. c #597BA4",
"#. c #517EB3",
"$. c #7F848B",
"%. c #6A829A",
"&. c #738394",
"*. c #798797",
"=. c #5D82A4",
"-. c #5E82AB",
";. c #5E8ABB",
":. c #6484A2",
">. c #6787A5",
",. c #6689AB",
"<. c #6B8DAC",
"1. c #778DA3",
"2. c #6E91AD",
"3. c #7291AE",
"4. c #7C93AA",
"5. c #6A8EB1",
"6. c #6D93B6",
"7. c #6F97BC",
"8. c #7196B3",
"9. c #7599BA",
"0. c #749BBC",
"q. c #508ACA",
"w. c #5694D0",
"e. c #749DC1",
"r. c #799EC6",
"t. c #78A3C8",
"y. c #7AA5CB",
"u. c #7CAAD4",
"i. c #4F94E2",
"p. c #898485",
"a. c #85868A",
"s. c #8C8B8C",
"d. c #978A86",
"f. c #978B86",
"g. c #9A8D8B",
"h. c #9E918A",
"j. c #848A95",
"k. c #8C8D92",
"l. c #848D9B",
"z. c #908F94",
"x. c #959296",
"c. c #9C9494",
"v. c #95969A",
"b. c #9A9699",
"n. c #97989B",
"m. c #9B9B9E",
"M. c #A58E83",
"N. c #A59186",
"B. c #B59583",
"V. c #A29694",
"C. c #A49A95",
"Z. c #AA9B92",
"A. c #A39C9E",
"S. c #ACA28A",
"D. c #BBA395",
"F. c #8796A6",
"G. c #9399A4",
"H. c #9D9DA3",
"J. c #8399B4",
"K. c #A19FA3",
"L. c #99A1A8",
"P. c #8DA5BE",
"I. c #9BA8B5",
"U. c #A2A1A5",
"Y. c #ABA7A7",
"T. c #A7A6AB",
"R. c #A9A8AD",
"E. c #ACADB1",
"W. c #AAAFB6",
"Q. c #B2B2B4",
"!. c #B5B6B9",
"~. c #B7B8BB",
"^. c #BABBBC",
"/. c #C89C81",
"(. c #D09D81",
"). c #CBA389",
"_. c #D4A587",
"`. c #C7A592",
"'. c #D9AC92",
"]. c #DEB193",
"[. c #E8B897",
"{. c #CEB8A8",
"}. c #BFC0BF",
"|. c #F1C09E",
" X c #88AACB",
".X c #81ACD4",
"XX c #84B0D6",
"oX c #85B2DA",
"OX c #BDBEC1",
"+X c #BEC1C5",
"@X c #C2C3C5",
"#X c #C4C5C9",
"$X c #C7C9CB",
"%X c #CBCBCC",
"&X c #CDCFD1",
"*X c #CFD1D3",
"=X c #D2D3D4",
"-X c #D6D7D9",
";X c #D7D8D9",
":X c #DADBDC",
">X c #DEDFE1",
",X c #DFE0E0",
"<X c #E3E4E4",
"1X c #E7E8EA",
"2X c #EBECEC",
"3X c #EEEFF0",
"4X c #F3F4F5",
"5X c #F7F7F8",
"6X c #F7F9F9",
"7X c #FAFBFB",
/* pixels */
"T.T.T.T.T.T.T.T.T.T.T.T.T.T.T.T.T.T.T.T.T.T.T.T.T.T.T.T.T.T.T.T.T.T.T.T.T.T.T.T.T.T.T.T.T.T.T.T.T.T.T.T.T.T.T.T.T.T.T.T.T.T.T.T.",
"T.T.T.T.T.T.T.T.T.T.T.T.T.T.R.T.T.T.T.T.T.T.T.T.T.T.T.T.T.T.T.T.T.T.T.T.T.T.T.T.T.T.T.T.T.T.T.T.T.T.T.T.T.T.T.T.T.T.T.T.T.T.T.T.",
"T.T.T.T.T.T.T.T.T.T.T.T.T.T.T.T.T.T.T.T.T.T.T.T.T.T.T.T.T.T.T.T.T.T.T.T.T.T.T.T.K.d.P i g.K.T.T.T.T.T.T.T.T.T.T.T.T.T.T.T.T.T.T.",
"T.T.T.T.T.T.T.T.T.T.T.T.T.T.T.T.T.T.T.T.T.T.T.T.T.T.T.T.T.T.T.T.T.T.T.T.T.T.T.K.u e e e e u K.T.T.T.T.T.T.T.T.T.T.T.T.T.T.T.T.T.",
"T.T.T.T.T.T.T.T.T.T.T.T.T.T.T.T.T.T.T.T.T.T.T.T.T.T.T.T.T.T.T.T.T.T.T.T.T.T.T.p.@ O O O + w d.Y.T.T.T.T.T.T.T.T.T.T.T.T.T.T.T.T.",
"T.T.T.T.T.T.T.T.T.T.T.T.T.T.T.T.T.T.T.T.T.T.T.T.T.T.T.T.T.T.T.T.T.T.T.T.T.T.K.*     X & & 6 r U.T.T.T.T.T.T.T.T.T.T.T.T.T.T.T.T.",
"T.T.T.T.T.T.T.T.T.T.T.T.T.T.T.T.T.T.T.R.T.T.T.T.T.T.T.T.T.T.T.T.T.T.T.T.T.T.T.= o /.[.|.'.@ - U.T.T.T.T.T.T.T.T.T.T.T.T.T.T.T.T.",
"T.T.T.T.T.T.T.T.T.T.T.T.T.T.T.T.T.T.T.T.T.T.T.T.T.R.T.T.T.T.T.T.T.T.T.T.T.T.K.2 o E _.U i o = U.T.T.T.T.T.T.T.T.T.T.T.T.T.T.T.T.",
"T.T.T.T.T.T.T.T.T.T.T.T.T.T.T.T.T.T.T.T.T.T.T.T.T.T.T.T.T.T.T.T.T.T.T.T.T.T.T.b.$ * * - T & u U.T.T.T.T.T.T.T.T.T.T.T.T.T.T.T.T.",
"T.T.T.T.T.T.T.T.T.T.T.T.T.T.T.T.T.T.T.T.T.T.T.T.T.T.T.T.T.T.T.T.T.T.T.T.T.T.T.K.u a R R ~ a d.T.T.T.T.T.T.T.T.T.T.T.T.T.T.T.T.T.",
"T.T.T.T.T.T.T.T.T.T.T.T.T.T.T.T.T.T.T.T.T.T.T.T.T.T.T.T.T.T.T.T.T.T.T.T.T.T.T.T.b.a R )._.~ m.T.T.T.T.T.T.T.T.T.T.T.T.T.T.T.T.T.",
"T.T.R.T.T.T.T.T.T.T.T.T.T.R.T.T.T.T.T.T.T.T.T.T.T.T.T.T.T.T.T.T.T.T.T.T.T.T.T.T.T.d.U (.~ L U.T.T.T.T.T.T.T.T.T.T.T.T.T.T.T.T.T.",
"T.T.T.T.T.T.T.T.T.T.T.T.T.T.T.T.T.T.T.T.T.T.T.T.T.T.T.T.T.T.T.T.T.T.R.T.T.T.T.T.T.s.* y i /.d.A.T.T.T.T.T.T.T.T.T.T.T.T.T.T.T.T.",
"T.T.T.T.T.T.T.T.T.T.T.T.T.T.T.T.T.T.T.T.T.T.T.T.T.T.T.T.T.T.T.T.T.T.T.T.T.T.T.T.Q.s.% & _.[.{.:X%XE.T.T.T.T.T.T.T.T.T.T.T.T.T.R.",
"T.T.T.T.T.T.T.T.T.T.T.T.T.T.T.T.T.T.T.T.R.T.T.T.T.T.T.T.T.R.T.T.T.T.T.T.T.T.OX<X1X+Xc.d.`.{.<X7X7X2X#XT.T.T.T.T.T.T.T.T.T.T.T.T.",
"T.T.T.T.T.T.T.T.T.T.T.T.T.T.T.T.T.T.T.T.T.T.T.T.T.T.T.T.T.T.T.T.T.T.T.T.T.E.4X7X>X$X%X<X2X6X7X7X7X7X2XE.T.T.T.T.T.T.T.T.T.T.T.T.",
"T.T.T.T.T.T.T.T.T.T.T.T.T.T.T.T.T.T.T.T.T.T.T.T.T.T.T.T.T.T.T.T.T.T.T.T.U.}.4X7X,X%X*X6X7X7X7X7X7X4X-X{.U.T.T.T.T.T.T.T.T.T.T.T.",
"T.T.T.T.T.T.T.T.T.T.T.T.T.T.T.T.T.T.T.T.T.T.T.T.T.T.T.T.T.T.T.T.T.T.T.T.U.@X,X6X4X<X2X7X7X7X7X7X7X<X&X-XU.T.T.T.T.T.T.T.T.T.T.T.",
"T.T.T.T.T.T.T.T.T.T.T.T.R.T.T.T.T.T.T.T.T.T.T.T.T.T.T.T.T.T.T.T.T.T.T.T.U.^.#X5X7X7X:X,X,X=X;X6X3X=X!.1XT.T.T.T.T.T.T.T.T.T.T.T.",
"T.T.T.T.T.T.T.T.T.T.T.T.T.T.T.T.T.T.T.T.T.T.T.T.T.T.T.T.T.T.T.T.T.T.Y.R.L.#X}.3X6X%Xn.:X:XU.p.4X<XOX!.1XQ.T.T.T.T.T.T.T.T.T.T.T.",
"T.T.T.T.T.T.T.T.T.T.T.T.T.T.T.T.T.R.T.T.T.T.T.T.T.T.T.T.T.T.T.T.T.T.T.T.U.=XE.,X=X2 +X<X%Xs.%X4X=XH.^.<X#XT.T.T.T.T.T.T.T.T.T.T.",
"T.T.T.T.T.T.T.R.T.T.T.T.T.T.T.T.T.T.T.T.T.T.T.T.T.T.T.T.T.T.T.T.T.T.T.T.U.=XR.+X@X2 , < H.s.Q.2X#Xk.%X:X>XU.T.T.T.T.T.R.T.T.T.T.",
"T.T.T.T.T.T.T.T.T.T.T.T.T.T.T.T.T.T.T.T.T.T.T.T.T.T.T.T.T.T.T.R.T.T.T.T.L.%XH.E.,X4X=X3 <X<X:X:X^.s.@X-X2XR.T.T.T.T.T.T.T.T.T.T.",
"T.T.T.T.T.T.T.T.T.T.T.T.T.T.T.T.T.T.T.T.T.T.T.T.T.T.T.T.T.T.T.T.T.T.T.U.Q.}.k.a.@X4X4X1X<X%X!.E.^.n.R.@X=X^.U.T.T.T.T.T.T.T.T.T.",
"T.T.T.T.T.T.T.T.T.T.T.T.T.T.T.T.T.T.T.T.T.T.T.T.T.T.T.T.T.T.T.T.T.T.T.U.R.^.m.x.R.:X5X3X7X4X<X=XE.b.m.^.@X^.U.T.T.T.T.T.T.T.T.T.",
"T.T.T.T.T.T.T.T.T.T.T.T.T.T.T.T.T.T.T.T.T.T.T.R.T.T.T.T.T.T.T.T.T.T.T.U.E.Y.H.!.^.~.1X2X1X6X<X<XH.s.m.%X;X#XU.T.T.T.T.T.T.T.T.T.",
"T.T.T.T.T.T.T.T.T.T.T.T.T.T.T.T.T.T.T.T.T.T.T.T.T.T.T.T.T.T.T.T.T.T.T.U.T R , !.,X+X^.<X1X<X1X1X#Xk.n.C.M.p.U.T.T.T.T.T.T.T.T.T.",
"T.T.T.T.T.T.T.T.T.T.T.T.T.T.T.T.T.T.T.T.T.T.T.T.T.T.T.T.T.T.T.T.T.T.T.U.`.].p ~.$X=X=X$X-X>X;X:X>XH.K.L _.Z.U.T.T.T.T.T.T.T.T.T.",
"T.T.T.T.T.T.T.T.T.T.T.T.T.T.T.R.T.T.T.T.T.T.T.T.T.T.T.T.T.T.T.T.T.T.R.U.`.'.g.=X-X=X;X=X@X#X*X&XOXv.H.h.[.V.T.T.T.R.T.T.T.T.T.T.",
"T.T.T.T.T.T.T.T.T.T.T.T.T.T.T.T.T.T.T.T.T.T.T.T.T.T.T.T.T.T.T.T.T.T.T.U.`.`.a.&.&.&.I.+X-X:X*X@X~.k.K.h.[.V.T.T.T.T.T.T.T.T.T.T.",
"T.T.T.T.T.T.T.T.T.T.T.T.T.T.T.T.T.T.T.T.T.T.T.T.T.T.T.T.T.T.T.T.T.T.T.x.B.M.*.<.0.7.8.>.*.F.L.4.X.X.U.g.'.C.T.T.T.T.T.T.T.T.T.T.",
"T.T.T.T.T.T.T.R.T.T.T.T.T.T.T.T.T.T.T.T.T.T.T.T.T.T.T.T.T.T.T.T.T.T.T.s.d.d.X.<.y.y.e.0.2.0.e.7.<.O.H.L L s.T.T.T.T.T.T.T.T.T.T.",
"T.T.T.T.T.T.T.T.T.T.T.T.T.T.T.T.T.T.T.T.T.T.T.T.T.T.T.T.T.T.T.T.T.T.T.c.).).2 ,.t.0.<.] O.0.y.t.<.&.D._.L $.T.T.T.T.T.T.T.T.T.T.",
"T.T.T.T.T.T.T.T.T.T.T.T.T.T.T.T.T.T.T.T.T.T.T.T.T.T.T.T.T.T.T.T.T.T.T.Z.T B.p.:.e.y.8.` ; %.0.e.>...B.~ '.c.T.T.T.T.T.T.T.T.T.T.",
"T.T.T.T.T.T.T.T.T.T.T.T.T.T.T.T.T.T.T.T.T.T.T.T.T.T.T.T.T.T.T.T.T.T.T.Z.i u z. .8.t.t.%.: 2.8.8.:.1 P p ].Z.T.T.T.T.T.T.T.T.T.T.",
"T.T.T.T.T.T.T.T.T.T.T.T.T.T.T.T.T.T.T.T.T.T.R.T.T.T.T.T.T.T.T.T.T.T.T.A.B.d.b.O.8.t.u.e.] 8.0.7. .a.x.T L c.T.T.T.T.T.T.T.T.T.T.",
"T.T.T.T.T.T.T.T.T.T.T.T.T.T.T.T.T.T.T.T.T.T.T.T.T.T.T.T.T.T.T.T.T.T.T.T.U.H.U.1.XXXXXXt.%.2.0.t.>.m.m.p.b.Y.T.T.T.T.T.T.T.T.T.T.",
"T.T.T.T.T.T.T.T.T.T.T.T.T.T.T.T.T.T.T.T.T.T.T.T.T.T.T.T.T.T.R.T.T.T.T.T.T.T.T.l.y.oXoXy.:.2.9.e.*.U.T.T.T.T.T.T.T.T.T.T.T.T.T.T.",
"T.T.T.T.R.T.T.T.T.T.T.T.T.T.T.T.T.T.T.T.T.T.T.T.T.T.T.T.T.T.T.T.T.T.T.T.T.T.T.G.t.XXu.t.%.8.8.0.1.T.T.T.T.T.T.T.T.T.T.T.T.T.T.T.",
"T.T.T.T.T.T.T.T.T.T.T.T.T.T.T.T.T.T.T.T.T.T.T.T.T.T.T.T.T.T.T.T.T.T.T.T.T.T.T.H.4.u.oX7.>.8.8.0.4.U.T.T.T.T.T.T.T.T.T.T.T.T.T.T.",
"T.T.T.T.T.T.T.T.T.T.T.T.T.T.T.T.T.T.T.T.T.T.T.T.T.T.T.T.T.T.T.T.T.T.T.T.T.T.T.T.4.y..X7.%.9.6.8.&.U.T.T.T.T.T.T.T.T.T.T.T.T.T.T.",
"T.T.T.T.T.T.T.T.T.T.T.T.T.T.T.T.T.T.T.T.T.T.T.R.T.T.T.T.T.T.T.T.T.T.T.T.T.T.T.H.4.y..X6.| <.2.>.&.L.T.T.T.T.T.T.T.T.T.T.T.T.T.T.",
"T.R.T.T.T.T.T.T.T.T.T.T.T.T.T.T.T.T.T.T.T.T.T.T.T.T.T.T.T.T.T.T.T.T.T.T.T.T.R.H.3.y.y.6...O.<.,.O.G.T.T.T.T.T.T.T.T.T.T.T.T.T.T.",
"T.T.T.T.T.T.T.T.T.T.T.T.T.T.T.T.T.T.T.T.T.T.T.T.T.T.T.T.T.T.T.T.T.T.T.T.T.T.R.K.X.5.<.>.o.> ]  ...L.T.T.T.T.T.T.T.T.T.T.T.T.T.T.",
"T.T.T.T.T.T.T.T.T.T.T.T.T.R.Y.Y.R.R.T.T.T.T.T.T.T.T.T.T.T.T.T.T.T.T.T.T.T.T.T.T.1.6.e.O.j.} +.] *.T.T.T.T.T.T.T.T.T.T.T.T.T.T.T.",
"T.T.T.T.T.T.T.T.T.T.T.T.T.C.K ! S.U.U.T.T.T.T.T.T.T.T.T.T.T.T.T.T.T.T.T.T.T.T.T.F..Xy.>.j.}  . .k.T.T.T.T.T.T.T.T.T.T.T.T.T.T.T.",
"T.T.T.T.T.T.T.T.T.T.T.U.Y N Z G ( ^ A.T.T.T.T.T.T.T.T.T.T.T.T.T.T.T.T.T.T.T.T.K.3..Xu.,.o.}  .O.H.T.T.T.T.T.T.T.T.T.T.T.T.T.T.T.",
"T.T.T.T.T.T.T.T.T.T.T.N.k V V Z G ) W T.T.T.T.T.T.T.T.T.T.T.T.T.T.T.T.T.T.T.T.G.>.u.u.,.: } +.X.T.T.T.T.T.T.T.T.T.T.T.T.T.T.T.T.",
"T.T.T.R.T.T.T.T.T.T.T.I l x # s A S r m.T.T.T.T.T.T.T.T.T.T.T.T.T.T.T.T.T.T.R.G.@.e.u.,.: } { 1 H.T.T.T.T.T.T.T.T.T.T.T.T.T.T.T.",
"T.T.T.T.T.T.T.T.T.T.T.J l k , X N M 8 s.U.T.T.T.T.T.T.T.T.T.T.T.T.T.T.T.T.T.T.F.,.7.t.=._ ' ` ..L.T.T.T.T.R.T.T.T.T.T.T.T.T.T.T.",
"T.T.T.T.T.T.T.T.T.T.T.U j x K s f q h t T Y.T.T.T.T.T.T.T.T.T.T.T.T.T.T.T.T.T.K.1.e.r.-.: : ` b.T.T.T.T.T.T.T.T.T.T.T.T.T.T.T.T.",
"T.T.T.T.T.T.T.T.T.T.T.c.n x B d 4 7 7 w g.T.T.T.T.T.T.T.T.T.T.T.T.T.T.T.T.T.T.T.*.5.:.` : ` ..K.T.T.T.T.T.T.T.T.T.T.T.T.T.T.T.T.",
"T.T.T.T.T.T.T.T.T.T.T.K.M.n b f 5 e M.K.T.T.T.T.T.T.T.T.T.T.T.T.T.T.T.T.T.T.T.v.O.-.:.@.{ [ } H.T.T.T.T.T.T.T.T.T.T.T.T.T.T.T.T.",
"T.T.T.T.T.T.T.C.W T a t I y f f n W K.T.T.T.T.T.T.T.T.T.T.T.T.T.T.T.T.T.T.T.T.l.@.} {  .[ [ #.@.H.T.T.T.T.T.T.T.T.T.T.T.T.T.T.T.",
"T.T.T.T.T.T.T.T x d 0 M / m c C F ( W T.T.T.T.T.T.T.T.T.T.T.T.T.T.T.T.T.T.T.T.H.1 } } _ [ q.i.w.5.U.T.T.T.T.T.T.T.T.R.T.T.T.T.T.",
"T.T.T.T.T.T.T.V.v 5 d x C C A S S G / C.T.T.T.T.T.T.T.T.T.T.T.T.T.T.T.T.T.T.T.G.+.@.@.{ o.J.r. XG.H.T.T.T.T.T.T.T.T.T.T.T.T.T.T.",
"T.T.T.T.T.T.R.K.y g q f j c C A S S F S.T.T.T.T.T.T.T.T.T.T.T.T.T.T.T.T.T.T.G.;.w.w.q.-.F.H.H.K.K.T.T.T.T.T.T.T.T.T.T.T.T.T.T.T.",
"T.T.T.T.T.T.T.T.T g j l x c B C A A D Z.T.T.T.T.T.T.T.T.T.T.T.T.T.T.T.T.T.T.l.J.W. XP.@.k.T.T.T.T.T.T.T.T.T.T.T.T.T.T.T.T.T.T.T.",
"T.T.T.T.T.T.T.T.A.H j j z j c c c N ! K.T.T.T.T.T.T.T.T.T.T.T.T.T.T.T.T.T.T.x.$.a.k.k.a.z.T.T.T.T.T.T.T.T.T.T.T.T.T.T.T.T.T.T.T.",
"T.T.T.T.R.T.T.T.R.V.y 9 0 0 f b v 9 M.K.T.T.T.T.T.T.T.T.T.T.T.T.T.T.T.T.T.T.T.U.T.T.K.K.T.T.T.T.T.T.T.T.T.T.T.T.T.T.T.T.T.T.T.T.",
"T.T.T.T.T.T.T.T.T.T.K.c.a Q a K.V.V.K.R.T.T.T.T.T.T.T.T.T.T.T.T.T.T.T.T.T.T.T.T.T.T.T.T.T.T.T.T.T.T.T.T.T.T.T.T.T.T.T.T.T.T.T.T.",
"T.T.T.T.T.T.T.T.T.T.R.T.K.T.T.T.T.T.R.K.T.T.T.T.T.T.T.T.T.T.T.T.T.T.T.T.T.T.T.T.T.T.T.T.T.T.T.T.T.T.T.T.T.T.T.T.T.T.T.T.T.T.T.T.",
"R.R.R.R.R.R.R.R.R.R.R.R.R.R.R.R.R.R.R.R.R.R.R.R.R.R.R.R.R.R.R.R.R.R.R.R.R.R.R.R.R.R.R.R.R.R.R.R.R.R.R.R.R.R.R.R.R.R.R.R.R.R.E.R.",
"T.T.T.T.T.T.T.T.T.T.T.T.T.T.T.T.T.T.T.T.T.T.T.T.T.T.T.T.T.T.T.T.T.T.T.T.T.T.T.T.T.T.T.T.T.T.T.T.T.T.T.T.T.T.T.T.T.T.T.T.T.T.T.T."
};
