/* XPM */
static char *_R1721706663[] = {
/* columns rows colors chars-per-pixel */
"64 64 214 2 ",
"   c #321E17",
".  c #38261E",
"X  c #373738",
"o  c #4E281A",
"O  c #572A1A",
"+  c #6A321B",
"@  c #78381D",
"#  c #4E2E20",
"$  c #4C3224",
"%  c #5A3D2C",
"&  c #763F25",
"*  c #58423D",
"=  c #724F39",
"-  c #7A6937",
";  c #3C516E",
":  c #58575B",
">  c #7D5A4A",
",  c #6E5852",
"<  c #43546F",
"1  c #545D69",
"2  c #465C78",
"3  c #576577",
"4  c #67686A",
"5  c #736A68",
"6  c #7E736A",
"7  c #616971",
"8  c #7B7C7F",
"9  c #813C1F",
"0  c #813E22",
"q  c #AD4F1C",
"w  c #BC7716",
"e  c #8B4827",
"r  c #B7552B",
"t  c #AB7331",
"y  c #C77719",
"u  c #E17B17",
"i  c #C87C29",
"p  c #855B41",
"a  c #8C6848",
"s  c #9A6C4C",
"d  c #9F714F",
"f  c #876A5E",
"g  c #986C54",
"h  c #A4644A",
"j  c #A57A59",
"k  c #817369",
"l  c #8D786E",
"z  c #A97A65",
"x  c #B38430",
"c  c #CC851B",
"v  c #D0831A",
"b  c #D79218",
"n  c #DC931C",
"m  c #E29D18",
"M  c #DEA61B",
"N  c #E6A21A",
"B  c #E9AB1C",
"V  c #E9B41A",
"C  c #F2B91A",
"Z  c #CE902C",
"A  c #D89B21",
"S  c #D8B33B",
"D  c #F7C41B",
"F  c #DCC22D",
"G  c #EDC82E",
"H  c #F7C925",
"J  c #F8D726",
"K  c #FEDA2C",
"L  c #F9D936",
"P  c #FEE331",
"I  c #B98741",
"U  c #AF825C",
"Y  c #B7875A",
"T  c #9B857A",
"R  c #B38969",
"E  c #A78A7B",
"W  c #B48B72",
"Q  c #B48C77",
"!  c #B6A16E",
"~  c #B8A876",
"^  c #C69E45",
"/  c #C18453",
"(  c #CFB052",
")  c #C38965",
"_  c #CB9268",
"`  c #D69868",
"'  c #C3997C",
"]  c #D89E75",
"[  c #D7A179",
"{  c #C5B570",
"}  c #E7A676",
"|  c #F2AC75",
" . c #F4AE79",
".. c #F7B07A",
"X. c #DDC352",
"o. c #ECD852",
"O. c #425D81",
"+. c #4B6383",
"@. c #46648A",
"#. c #4C6A8E",
"$. c #566B87",
"%. c #58718F",
"&. c #476B97",
"*. c #4B6C94",
"=. c #4D719B",
"-. c #547194",
";. c #54749C",
":. c #5A7599",
">. c #68778B",
",. c #777A84",
"<. c #737B8B",
"1. c #657B97",
"2. c #4B74A3",
"3. c #4775AB",
"4. c #5176A3",
"5. c #5B7CA4",
"6. c #577CA8",
"7. c #557CAB",
"8. c #4E7BB1",
"9. c #617FA4",
"0. c #7F8185",
"q. c #6F839B",
"w. c #758294",
"e. c #78869A",
"r. c #5581AE",
"t. c #5D81AD",
"y. c #5B83B1",
"u. c #5284B8",
"i. c #5B89BC",
"p. c #6784A7",
"a. c #758AA5",
"s. c #7A92AC",
"d. c #6489B4",
"f. c #6B8DB6",
"g. c #638DBC",
"h. c #6A90BD",
"j. c #7B9ABA",
"k. c #4985C7",
"l. c #558BC4",
"z. c #528FCE",
"x. c #5B99D6",
"c. c #6491C2",
"v. c #6995C3",
"b. c #6B99CA",
"n. c #759DC8",
"m. c #639CD4",
"M. c #659FD8",
"N. c #76A1CD",
"B. c #62A0DD",
"V. c #75A4D4",
"C. c #7AA8D7",
"Z. c #7CABD9",
"A. c #828385",
"S. c #858488",
"D. c #8B8B8E",
"F. c #988A89",
"G. c #848994",
"H. c #858B97",
"J. c #8D8D92",
"K. c #8E929D",
"L. c #939296",
"P. c #9B9090",
"I. c #9B9394",
"U. c #94959A",
"Y. c #9A979A",
"T. c #9B999D",
"R. c #A58E81",
"E. c #A79388",
"W. c #A69793",
"Q. c #A19494",
"!. c #A29A9B",
"~. c #B0A787",
"^. c #A9A39B",
"/. c #838FA1",
"(. c #8B93A2",
"). c #8594A8",
"_. c #9196A1",
"`. c #9499A3",
"'. c #9D9DA2",
"]. c #A29FA3",
"[. c #9FA0A4",
"{. c #96A7B8",
"}. c #A3A1A6",
"|. c #A7A6AB",
" X c #A8A6A9",
".X c #A9A8AD",
"XX c #ADAEB1",
"oX c #B4B1B0",
"OX c #B1B2B6",
"+X c #B4B5B9",
"@X c #B9BABE",
"#X c #CAAE98",
"$X c #CAC0B9",
"%X c #97ABC3",
"&X c #BDC0C6",
"*X c #B9C4D4",
"=X c #C5C6CA",
"-X c #C8C9CC",
";X c #CCCED2",
":X c #CFD0D4",
">X c #D1D2D6",
",X c #D8D1D0",
"<X c #D3D5D9",
"1X c #D9DADE",
"2X c #DCDDE2",
"3X c #DFE0E3",
"4X c #E1E2E7",
"5X c #E3E4E9",
"6X c #E7E8ED",
"7X c #E9EAEE",
"8X c #ECEDF2",
"9X c #EFF0F5",
"0X c #F1F2F6",
"qX c #F4F5FA",
/* pixels */
"|.|.|.|.|.|.|..X|.|.|.|.|.|.|.|.|.|.|.|.|.|.|.|.|.|.|.|.|.|.|.|.|.|.|.|.|. X X X.X.X.X.X.X|.|.|.|.|.|.|.|.|.|.|.|.|.|.|.|.|..X|.",
"|.|.|.|.|.|.|.|.|.|.|.|.|.|.|.|.|.|.|.|.|.|.|.|.|.|.|.|.|.|.|.|.|.|.|. XY.F.F.I.].].]..X|.|.|.|.|.|.|.|.|.|.|.|.|.|.|.|.|.|.|.|.",
"|.|.|.|.|.|.|.|.|.|.|.|.|.|.|.|.|.|.|.|.|.|.|.|.|.|.|..X|.|.|.|.|.|.|.L., & 0 e p f P.|.|.|.|.|.|.|.|.|.|.|.|.|.|.|.|.|.|.|.|.|.",
"|.|.|.|.|.|.|.|.|.|.|.|.|.|.|.|.|.|.|.|.|.|.|.|.|.|.|.|.|.|..X|.|.|.|.L..   O + 9 e = Q.|..X|.|.|.|.|.|.|.|.|.|.|.|.|.|.|.|.|.|.",
"|.|.|.|.|.|.|.|.|.|.|.|.|.|.|.|.|.|.|..X|.|.|.|.|.|.|.|.|.|.|.|.|.|. X[.f % o 9 & @ @ 5 }.|.|.|.|.|.|.|.|.|.|.|.|.|.|.|.|.|.|.|.",
"|.|.|.|.|.|.|.|.|.|.|.|.|.|.|.|.|.|.|.|.|.|.|.|.|.|.|.|.|.|.|.|.|. X X}.' ` $ O + @ @ % '.|.|.|.|.|.|.|.|..X|.|.|.|.|.|.|.|.|.|.",
"|.|.|.|.|.|.|.|.|.|.|.|.|.|.|.|.|.|.|.|.|.|.|.|.|.|.|.|.|.|.|.|.|.|. X}., d g . % # O * '.}.|.|.|.|.|.|.|.|.|.|.|.|.|.|.|.|.|.|.",
"|.|.|.|.|.|.|.|.|.|..X|.|.|.|.|.|.|.|.|.|.|.|.|.|.|.|.|.|.|.|.|.|.|. XI.T j ' e e $ . : }.|.|.|.|.|.|.|.|.|.|.|.|.|.|.|.|.|.|.|.",
"|.|.|.|.|.|.|.|.|.|.|.|.|.|.|.|.|.|.|.|.|.|.|.|.|.|.|.|.|.|.|.|.|.|. XL.U } ..} s . X S.|. X|.|.|.|.|.|.|.|.|.|.|.|.|.|.|.|.|.|.",
"|.|.|.|.|.|.|.|.|.|.|.|.|.|.|.|.|.|.|.|.|.|.|.|.|.|.|.|.|.|.|.|.|.|.|.|.T } ..` s % : }.|.|.|.|.|..X|.|.|.|.|.|.|.|.|.|.|.|.|.|.",
"|.|.|.|.|.|.|..X|.|.|.|.|.|.|.|.|.|.|.|.|.|.|.|.|.|.|.|.|.|.|.|.|.|.|.|.E.} Y > _ ` k  X|.|.|..X|.|.|.|.|.|.|.|.|.|.|.|.|.|.|.|.",
"|.|.|.|.|.|.|.|.|.|.|.|.|.|.|.|.|.|.|.|..X|.|.|.|.|..X|.|.|.|.|.|.|.|.|.Y.T 5 > | | W L.[.|.|.|.|.|.|.|.|.|.|.|..X|.|.|.|.|.|.|.",
"|.|.|.|.|.|.|.|.|.|.|.|.|.|.|.|.|.|.|.|.|.|.|.|.|.|.|.|.|.|.|.|.|.|.|.|.|.}.'.z | [ $X5X>X X}.|.|.|.|.|.|.|.|.|.|.|..X|.|.|.|.|.",
"|.|.|.|.|.|.|.|.|.|.|.|.|..X|.|.|.|.|.|..X|.|.|.|.|.|.|.|.|.|.|.|.|.|.|.|.|.J.6 #X,X0XqX7X-XU.[.|.|.|.|.|.|.|.|.|.|.|.|.|.|.|.|.",
"|.|.|.|.|.|.|.|.|.|.|.|.|.|.|.|.|.|.|.|.|.|.|.|.|.|.|.|.|.|.|.|.|.|.|.|.|.}.:X5X8XqXqX9X5X9X5XT.|.|.|.|.|.|.|.|.|.|.|.|.|.|.|.|.",
"|.|.|.|.|.|.|.|.|.|.|.|.|.|.|.|.|.|.|.|.|.|.|.|.|.|.|.|.|.|.|.|.|.|.|.|.|.XX7XqXqXqXqX7X5XqX9X&X`.|.|.|.|.|.|.|.|.|.|.|.|.|.|.|.",
"|.|.|.|.|.|.|.|.|.|.|.|.|.|.|.|.|.|.|.|.|.|.|.|.|.|.|.|.|.|.|.|.|.|.|.|. X+X0XqXqXqXqX5X5XqX0X1XY.]..X.X|.|.|.|.|.|.|.|.|.|.|.|.",
"|.|.|.|.|.|.|.|.|.|.|.|.|.|.|.|.|.|.|.|.|.|.|.|.|.|.|.|.|..X|.|. X|.|.|.|.OXqX1X@X=X'.>X<X0XqX9XXX`..X].|.|.|.|.|.|.|.|.|.|.|.|.",
"|.|.|.|.|.|.|.|.|.|.|.|.|.|.|..X|.|.|.|.|.|.|.|.|.|.|.|.|.|.|.|.|.|.|.|.|. X6X X<X1XT.-XT.2XqXqX8X]..X.X|.|.|.|.|.|.|.|.|.|.|.|.",
".X|.|.|.|.|.|.|.|.|.|.|.|.|.|.|.|.|.|.|.|.|.|.|.|.|.|.|.|.|.|.|.|.|.|.|.|.'.@X4 XX|.OX3X}.A.7XqX9X>X].].|.|.|.|.|.|.|.|.|.|.|.|.",
"|.|..X|.|.|.|.|.|.|.|.|..X|.|.|.|.|.|.|.|.|.|.|.|.|.|.|.|.|.|.|.|.|.|.|..XU.OX.X4 XXOX<X=X4 Y.0X7X7XOXY.|.|.|.|.|.|.|.|.|.|.|.|.",
"|.|.|.|.|.|.|.|.|.|.|.|.|.|.|.|.|.|.|.|.|.|.|.|.|.|.|.|.|.|.|.|.|.|.|.|.}.I.T.0X@X<X1X1X<XJ.X &X7X3X=XD.].|.|.|.|.|.|.|.|.|.|.|.",
"|.|.|.|.|.|.|.|.|.|.|.|.|.|.|.|.|.|.|.|.|.|.|.|.|.|.|.|.|.|.|.|.|.|.|.|.F.g 5 6X5X1X<X>X2X X: 8 ;X2X;X@XL.|.|.|.|.|.|.|.|.|.|.|.",
"|.|.|.|.|.|.|.|.|.|.|.|.|.|.|.|.|.|.|.|.|..X|.|.|.|.|.|.|.|.|..X|.|.|.}.l a l :X5X4X0X7X3X@X1 A.OX2XoXl U.|.|.|.|.|.|.|.|.|.|.|.",
"|.|.|.|.|.|.|.|.|.|.|.|.|.|.|.|.|.|.|.|.|.|.|.|.|.|.|.|.|.|.|.|.|.|.|.|.S.g S.,X6X4X5X8X3X=X4 L. XE ) Y Y.|.|.|.|.|.|.|.|.|.|.|.",
"|.|.|.|.|.|.|.|.|.|.|.|.|.|.|.|.|.|.|.|.|.|.|.|.|.|.|.|.|.|.|.|.|.|.|.|.}.P.T.>X8X2X5X7X2X=XJ.L.F._ | _ U.|..X|.|.|..X|.|.|.|.|.",
"|.|.|.|.|.|.|.|.|.|.|.|.|.|.|.|.|.|.|.|.|.|.|.|.|.|.|.|.|.|.|.|.|.|.|.|. X|. X<X7X7X5X5X5X<XXXI.W.} .._ I.|.|.|.|.|.|.|.|.|.|.|.",
"|.|.|.|.|.|.|.|.|.|.|.|.|.|.|.|.|.|.|.|.|.|.|.|..X|.|.|.|.|.|.|.|.|.|.|.|.|.[.1X5X7X1X2X7X<X@XD.Q.] #X_ I.|.|.|.|.|.|.|.|.|.|.|.",
"|.|.|.|.|.|.|.|.|.|.|.|.|.|.|.|.|.|..X|.|.|.|.|.|.|.|.|.|.|.|.|.|.|.|.|.|.|.J.=X1X3X5X;X:X<X=X!.Y.' ..] Y.|.|.|.|..X|.|.|.|.|.|.",
"|.|.|.|.|.|.|.|.|.|.|.|.|.|.|.|.|.|.|.|.|.|.|.|.|.|.|.|.|.|.|.|.|.|.|.|.|.|.T.'.:X1X2X1X;X&X.XA.J.R...] Q.|.|.|.|.|.|.|.|.|.|.|.",
"|.|.|.|.|..X|.|.|.|..X|.|.|.|.|.|.|.|.|.|.|.|.|.|.|.|.|.|.|.|.|.|.|.|.|.|.|.[.1 1 7 >.1 7 $.+.2 <.Q. .] !.|.|.|.|.|.|.|.|.|.|.|.",
"|.|.|.|.|.|.|.|.|.|.|.|.|.|.|.|.|.|.|.|.|.|.|.|.|.|.|.|.|.|.|.|.|.|.|.|.|..X|.<.< 2 f.:.9.f.d.=.>.I.} ] ].|.|.|.|.|.|.|.|.|.|.|.",
"|.|.|.|.|.|.|.|.|.|.|.|.|.|.|.|.|.|.|.|.|.|.|.|.|.|.|.|.|.|.|.|.|.|.|.|.|.|.|.<.+.:.n.h.-.h.f.:.%.P.} ] ].|.|.|.|.|.|.|.|.|.|.|.",
"|.|.|.|.|.|.|.|.|.|.|.|.|.|.|..X|.|.|.|.|.|.|.|.|.|.|.|.|.|.|.|.|.|.|.|.|.|.|.e.+.2 V.N.5.p.d.;.1.E.} ] W..X|.|.|.|.|.|.|.|.|.|.",
"|.|.|.|.|.|.|.|.|.|.|.|.|.|.|.|.|.|.|.|.|.|.|.|.|.|.|.|.|..X|.|.|.|.|.|.|.|.}.a.6.; p.V.v.6.;.#.>.Q  .} z ]..X.X|.|.|.|.|.|.|.|.",
"|.|.|.|.|.|.|.|.|.|.|.|.|.|.|.|.|.|.|.|.|.|.|.|.|.|.|.|.|.|.|.|.|.|.|.|.|.|.'.j.V.*.-.C.b.f.t.2 ,.Q | } ) f ].].|.|.|.|..X|.|.|.",
"|.|.|.|.|.|.|.|.|.|.|.|.|.|.|.|.|.|.|.|.|.|.|.|.|.|.|.|.|.|.|.|.|.|.|.|.|.|.`.N.V.y.-.C.V.b.-.< <.E ) ) g > U..X|.|.|.|.|.|.|.|.",
"|.|.|..X|.|.|.|.|.|.|.|.|.|.|.|.|.|.|.|.|.|.|..X|.|.|.|.|.|.|.|.|.|.|.|.|.|.).C.C.i.#.V.V.d.< +.1.I.z g p S.]..X|.|.|.|.|.|.|.|.",
"|.|.|.|.|.|.|.|.|.|.|.|.|.|.|.|.|.|.|.|.|.|.|.|.|.|.|.|.|.|.|.|.|.|.|.|.|.|.).Z.C.c.;.h.v.+.-.4.:._.F.k L.]..X.X|.|.|.|.|.|.|.|.",
"|.|.|.|..X|.|.|.|.|.|.|.|.|.|.|.|.|.|.|.|.|.|.|.|.|.|.|.|.|.|.|.|.|.|.|.|.}.j.Z.V.c.t.#.+.-.c.y.4.K.|.].]..X.X.X|.|.|.|.|.|.|.|.",
"|.|.|.|.|.|.|.|.|.|.|.|.|.|.|.|..X|.|.|.|.|.|.|.|.|..X|.|.|.|.|.|.|.|.|. X'.j.Z.V.c.y.3 -.v.v.d.6.<.|.|.|.|.|.|.|.|.|.|.|.|.|.|.",
"|.|.|.|.|.|.|.|.|.|.|.|.|.|.|.|.|.|.|.|.|.|.|.|.|.|.|.|.|.|.|.|.|.|.|.|..X`.N.C.v.g.p.U.q.b.b.g.4.>.|.|.|.|.|.|.|.|.|.|.|.|.|.|.",
"|.|.|.|.|.|.|.|.|.|..X|.|.|.|.|.|.|.|.|.|.|.|.|.|.|.|.|.|.|.|.|.|.|.|.|.}.).V.V.c.f./.}.(.v.b.c.;.%.].|.|.|.|.|.|.|.|.|.|.|.|.|.",
"|.|.|.|.|.|.|.|.|.|.|.|.|.|.|.|.|.|.|.|.|.|.|.|.|.|.|.|.|.|.|.|.|.|.|.|.(.j.C.b.g.f.'.|.}.a.b.g.;.$.H.|.|.|.|.|.|.|..X|.|.|.|.|.",
"|.|.|.|.|.|.|.|.|.|.|.|.|.|.|.|.|.|.|.|.|.|.|.|.|.|.|.|.|.|.|.|.|.|.|.|.a.V.V.g.6.w.|.|.|.H.v.g.4.&.*.K.|.|.|.|.|.|.|.|.|.|.|.|.",
"|.|.|.|.|.|.|.|.|.|.|.|.|.|.|.|.|.|.|.|.|.|.|.|.|.|.|.|.|.|.|.|.|.|.|.|.a.V.i.;.=.J.|.|.|.'.p.g.6.4.+.<.|..X|.|.|.|.|.|.|.|.|.|.",
"|.|.|.|.|.|..X|.|.|.|.|.|.|.|.|.|.|.|.|.|.|.|.|.|.|.|.|.|.|.|.|.|.|.|.|.H.V.m.r.5.K.|.|.|.|.(.5.c.7.7.;.K.].|.|.|.|.|..X|.|.|.|.",
"|.|.|.|.|.|.|.|.|.|.|.|.|.|.|.|.|.|..X|.|.|.|.|.|.|.|.|.|.|.|.|.|.|.|.|.(.b.m.i.1.}.|.|.|.|.|.K.1.7.7.7.:.].|.|.|.|.|.|.|.|.|.|.",
"|.|.|.|.|.|.|.|.|.|..X|.^.~ ~ ^.}..X.X|.|.|.|.|.|.|.|.|.|..X|.|.|.|.|.|.(.c.x.i.p.|.|.|.|.|.|.|.`.9.7.7.4.<.|..X.X|.|.|.|.|.|.|.",
"|.|.|.|.|. X|.|.|.|.|.E.S J P o.~.[.|.|.|.|.|.|.|.|.|.|.|.|.|.|.|.|.|.|.).m.M.i.e.|.|.|.|.|.|.|.|.9.7.;.4.#.<.].|.|.|.|.|.|.|.|.",
"|.|.|.|.|.|.|.|.|.|.!.Z D F J P o.~.|.|.|.|.|.|.|.|..X X|.|.|.|.|.|.|. Xa.M.m.i.e.|.|.|.|.|.|.|.|.`.9.7.&.4.&.S.|.|.|.|.|.|.|.|.",
"|.|.|.|.|.|.|.|.|..XE N V - x J F 6 |.|.|.|.|.|.|.|.|.|.|.|.|.|.|.|.|.}.s.B.x.u.e.|. X|.|.|.|.|.|.|.e.7.&.*.*.G.|.|.|.|.|.|.|.|.",
"|.|.|.|.|.|.|.|.|.|.E N M 6 - V Z a ^.}.|.|.|.|.|.|.|.|.|.|.|.|.|.|.|.[.h.x.l.6._.|.|.|.|.|.|.|.|.|.].:.4.@.@.<.|..X.X].|.|.|.|.",
"|.|.|.|.|.|.|.|. X|.E.b V S t w u i h W.|.|.|.|.|.|.|.|.|.|.|.|.|.|..X`.c.x.u.p.].|.|.|.|.|.|.|.|.|.].G.+.@.*.+.G.]..X.X|.|.|.|.",
"|.|.|.|.|.|.|. X|.|.^.Y N C c q r h F. X|.|.|.|.|.|.|.|.|.|.|.|.|.|.|.(.m.z.8.a.|.|.|.|.|.|.|.|.|.|.|.].<.=.&.@.;.w.`.].|.|.|.|.",
"|.|..X|.|.|.|.}.}.}.F.F.Y c y t z ]. X|.|.|.|.|.|.|.|.|.|.|.|.|.|.|.}.q.z.z.2.G.|.|.|.|.|.|.|.|.|.|.|.|.G.@.O.O.7.%XG.|.|.|.|.|.",
"|.|.|.|.|.|.}._ ^ t x Z I m B G { ^. X X X X.X|.|.|.|.|.|.|.|.|.|.}.w.2 2.3.&.1.|.|.|.|.|.|.|.|.|.|.|.|.(.3.3.3.9.`.H.]..X|.|.|.",
"|.|.|.|.|.|.^.x n w B L o.H K K o.{  X X X.X|.|.|.|.|.|.|.|.|.|.|.|.w.2.3.&.2 G.|.|.|.|.|.|.|.|.|.|.|.|.a.k.k.h.H.G.].|..X|.|.|.",
"|.|.|.|.|.|. XE c y A N C H K K K ( ].|.|.|.|.|.|.|.|.|.|.|.[.[.'.(.>.@.=.r.$.'.|.|.|.|.|.|.|.|.|.|.].H.2.l.%X'.J.]..X|.|.|.|.|.",
"|.|.|.|.|.|..X!.Z n n m C H H K K X.].|.|.|.|.|.|.|.|.|.|.U.a.d.6.k.z.k.2.t.q.U.|.|.|.|.|.|.|.|.|.'.a.6.k.d.]._.]..X.X.X|.|.|.|.",
"|.|.|.|.|.|.|.}.z A N N B C D H H ! |.|.|.|.|.|.|.|..X|.|.J.`.j.h.k.k.k.l.*X*X`.|.|.|.|.|.|.|.|.|.L.s.j.{.'.U.].|.|.|.|.|.|.|.|.",
"|.|.|.|.|. X|.|.W.U i y y N m Z x W.|.|.|.|.|.|.|.|.|.|.|.|.U.J.}.a.s.s.{.&X&XU.|.|.|.|.|.|.|.|.|.].,.L.J.`.'..X|.|.|.|.|.|.|.|.",
".X.X|..X.X.X.X.X.X XW.z / R Q.Q.W.}..X.X.X.X.X.X.X.X.X.X.X.X.X|.T.J.0.J.S.0.0.0.|..X.X.X.X.X.X.X.X.X|.}.].|..X.X.X.X.X.X.X.X.X.X",
"|.|.|.|.|.|.|.|.|..X|.|.|.|.|.}.|.|.|.|.|.|.|.|.|.|.|.|.|.|.|.|.|..X|.|. X|.|.|.|.|.|.|.|.|.|.|.|.|.|.|.|.|.|.|.|.|.|.|.|.|.|.|."
};
