/* XPM */
static char *_R1721706664[] = {
/* columns rows colors chars-per-pixel */
"64 64 221 2 ",
"   c #322B28",
".  c #4B2518",
"X  c #542515",
"o  c #6D3117",
"O  c #473026",
"+  c #553527",
"@  c #513C34",
"#  c #623C2F",
"$  c #48413D",
"%  c #6E4B36",
"&  c #7A6937",
"*  c #303849",
"=  c #364257",
"-  c #3B536E",
";  c #3B567A",
":  c #4E4948",
">  c #56514C",
",  c #58595C",
"<  c #755444",
"1  c #665955",
"2  c #5A5D66",
"3  c #455B78",
"4  c #515E72",
"5  c #4E627C",
"6  c #576173",
"7  c #656666",
"8  c #776B65",
"9  c #6D737F",
"0  c #7A7879",
"q  c #853A1A",
"w  c #8F421A",
"e  c #A84D1E",
"r  c #BC7716",
"t  c #89573B",
"y  c #975D3C",
"u  c #A8532B",
"i  c #A86E35",
"p  c #C77719",
"a  c #E17B17",
"s  c #C87C29",
"d  c #895A45",
"f  c #935D42",
"g  c #8E6648",
"h  c #876557",
"j  c #956A58",
"k  c #A7704E",
"l  c #B7744C",
"z  c #B97A57",
"x  c #877369",
"c  c #967769",
"v  c #867C7A",
"b  c #9A7D71",
"n  c #AA7D6B",
"m  c #C77C50",
"M  c #B38430",
"N  c #CC851B",
"B  c #D0831A",
"V  c #D79218",
"C  c #DC931C",
"Z  c #E29D18",
"A  c #DEA61B",
"S  c #E6A21A",
"D  c #E9AB1C",
"F  c #E9B41A",
"G  c #F2B91A",
"H  c #CE902C",
"J  c #D8B33B",
"K  c #F7C41B",
"L  c #DCC22D",
"P  c #EDC82E",
"I  c #F7C925",
"U  c #F8D726",
"Y  c #FEDA2C",
"T  c #F9D936",
"R  c #FEE331",
"E  c #B5854A",
"W  c #B9865A",
"Q  c #85807F",
"!  c #96817A",
"~  c #B58869",
"^  c #A78879",
"/  c #B68D75",
"(  c #B88C72",
")  c #B6A16E",
"_  c #B8A876",
"`  c #D08F4E",
"'  c #C7855A",
"]  c #CFB052",
"[  c #CD8B64",
"{  c #DA9568",
"}  c #C59575",
"|  c #D89A73",
" . c #E49967",
".. c #D2A979",
"X. c #F4A068",
"o. c #E9A679",
"O. c #F4AB7B",
"+. c #DDC352",
"@. c #ECD852",
"#. c #3C5D87",
"$. c #3E6390",
"%. c #466287",
"&. c #4A6383",
"*. c #43638C",
"=. c #576A84",
"-. c #536D8C",
";. c #54728F",
":. c #476B97",
">. c #4B6C92",
",. c #446D9A",
"<. c #4C739D",
"1. c #557397",
"2. c #666F81",
"3. c #687589",
"4. c #767A86",
"5. c #797F8C",
"6. c #6A7C95",
"7. c #436FA0",
"8. c #4471A5",
"9. c #4B74A4",
"0. c #4C7BAC",
"q. c #557CA7",
"w. c #5B7EA5",
"e. c #4D7CB1",
"r. c #817C81",
"t. c #7E848F",
"y. c #7B8492",
"u. c #5C82A9",
"i. c #4E82B8",
"p. c #5689BD",
"a. c #5988B8",
"s. c #6687AA",
"d. c #748CA8",
"f. c #7A91AB",
"g. c #628CB4",
"h. c #608CBE",
"j. c #6A94BB",
"k. c #6B96BD",
"l. c #7A97B6",
"z. c #558CC4",
"x. c #5A8DC3",
"c. c #5D94C8",
"v. c #5D98D0",
"b. c #6293C4",
"n. c #6C9AC2",
"m. c #739DC3",
"M. c #649DD3",
"N. c #6EA3CE",
"B. c #78A4CA",
"V. c #79A5CA",
"C. c #79ABD3",
"Z. c #828283",
"A. c #85868B",
"S. c #8C8B8D",
"D. c #998C8A",
"F. c #878B97",
"G. c #8C8D93",
"H. c #8D9197",
"J. c #8D929B",
"K. c #939295",
"L. c #999090",
"P. c #999394",
"I. c #94959B",
"U. c #98969A",
"Y. c #9C9A9D",
"T. c #A28E86",
"R. c #A6938A",
"E. c #B99A8C",
"W. c #A19493",
"Q. c #A99995",
"!. c #A29A9B",
"~. c #ADA493",
"^. c #838EA1",
"/. c #8998AB",
"(. c #9599A3",
"). c #939AA6",
"_. c #9C9DA3",
"`. c #8199B3",
"'. c #A29FA2",
"]. c #9DA3AB",
"[. c #87A3BB",
"{. c #94A2B2",
"}. c #A3A1A5",
"|. c #A8A6A7",
" X c #A7A6AB",
".X c #A9A8AD",
"XX c #AAAEB5",
"oX c #AFB0B0",
"OX c #B3B3B5",
"+X c #B7B6B8",
"@X c #BBBBBC",
"#X c #C89E81",
"$X c #DBA683",
"%X c #CAA897",
"&X c #E0A581",
"*X c #F9B180",
"=X c #E0BFA9",
"-X c #D0C3B9",
";X c #E0C0AC",
":X c #89ABC8",
">X c #81ADD2",
",X c #84B1D5",
"<X c #88B4D8",
"1X c #BEBFC2",
"2X c #C4C4C5",
"3X c #C5C6C9",
"4X c #C7C8C9",
"5X c #CBCCCD",
"6X c #CFCFD1",
"7X c #D3D3D4",
"8X c #D7D7D8",
"9X c #D8D8D9",
"0X c #DBDBDB",
"qX c #E2D7CF",
"wX c #DFE0E1",
"eX c #E4E4E4",
"rX c #ECECEB",
"tX c #F0F0EE",
"yX c #F5F5F4",
"uX c #F8F8F7",
"iX c #F9F9F9",
/* pixels */
" X X X X X X X X X X X X X X X X.X X X X X X X X X X X X X X X X X X.X.X X X X X X X X X X X X X X X X X X X X X X X X X X X X X",
" X X X X X X X X X X X X X X X X X X X X X X X X X X X X X X X X X X'.U.'. X X X X X X X X X X X X X X X X X X X X X X X X X X X",
" X X X X X X X X X X X.X X X X X X X X X X X X X X X X X X X X X'.W.h f j b r.W.'. X X X X X X X X X X X X X X X X X X X X X X X",
" X X X X X X X X X X X X X X X X X X X X X X X X X X X X X X X XS.# q w e e u u j L. X X X X X X X X X X X X X X X X X X X X X X",
" X X X X X X X X X X X X X X X X X X X X X X X X X X X X X X X XU.# X . o q q e w < U. X X X X X X X X X X X X X X X X X X X X X",
" X X X X X X X X X X X X X X X X X X X X X X X X X X X X X X X X'.1 + ~ n # o q o O G. X X X X X X X X X X X X X X X X X X X X X",
" X X X X X X X X X X X X X X X X X X X X X X X X X X X X X X.X X XI.~ &X&Xd . . . O U. X X X X X X X X X X X X X X X X X X X X X",
" X X X X X X X X X X X X X X X X X X X X X X X X X X X X X X X X}.G.x 4.8 ~ # # + @ Y. X X X X X X X X X X X X X X X X X X.X X X",
" X X X X X X X X X X X X X X X X X X.X X X X X X X X X X X X X X XF.x r.v O.[ f + 7 }. X X X X X X X X X X X X X X X X X X X X X",
" X X X X X X X X X X X X X X X X X X X X X X X X X X X X X X X X.X'.b ~ o.*XX.d $ U. X X X X X X X X X X X X.X X X X X X X X X X",
" X X X X X X X X X X X X X X X X X X X X X X X X X X X X X X X X X X!.$X*XO.' t x  X X X X X X X X X X X X X X X X X X X X X X X",
" X X X X X X X X X X.X X X X X X X X X X X X X X X.X X X X X X X X.X'.#X( < O u n |. X X X X X X X X X X X X X X X X X X X X X X",
" X X X X X X X X X X X X X X X X X X X X X X X X X X X X X X X X X X'.'.v O t [ { Q..X.X.X X X X X X X X X X X X X X X X X X X X",
" X X X X X X X X X X X X X X X X X X X X X X X X X X X X X X X X X XOX+X#Xl  .{ o.-X0X7X3X+X X X X X X X X X X X X X X X.X X X X",
" X X X X X.X X X X X X X X X X X X X X X X X X X X X X X X X.X'.OX6XrXtXqX=X=X;XqXyXyXuXyXeX@X}. X X X X X X X X X X X X X X X X",
" X X X X X X X X X X X X X X X X X X X X X X X X X X X X X X.X1XeXiXiXiXyXyXyXiXiXiXyXyXyXrX0X X X X X X X X X X X X X X X X X X",
" X X X X X X X X X X X X X X X X X X X X X X X X X X X X X X'.7XyXuXuXuXiXyXiXyXiXyXyXyXrXrXrX+X}. X X X X X X X X X X X X X X X",
" X X X X X X X X X X X X X X.X X X X X X X X X X X X X X X X.X7XeXuXuXuXiXiXiXyXyXyXyXtXwXtXrX1X'..X X X X X X X X X X X X X X X",
" X X X X X X X X X X X X X X X X X X X X X X X X X X X X X XXX8XoXeXuXyX8X@XeX-X@X@XrX5X1XrXeX3X}. X X X X X X X X X X X X X X X",
".X X X X X X X X X X X X X X X X X X X X X X X X X X X X X XOX8XS.7XtX6Xt.@XrX4XG.8 0Xv 4.4X8X1X}. X X X X X X X X X X X X X X X",
" X X X X X X X X X X X X X X X X X X X X X X X X X X X X.X.X@X7Xt.@X6X0 OXrXtX@X0 4X3X, , +X7X5X+X X X X X X X X X X X X X X X X",
" X X X X X X X X X X X X X X X X.X X X X X X X X X X X X.X'.W.v Q OXQ   7 2 +X> }.2X2X, 2 L.x 1 H. X X X X X X X X X X X X X X X",
" X X X X X X X X X X X X X X X X X X X X X X X X X X.X.X'..XR.l % ].9X-XOX  |.|.XX.X_.: $ < y l L. X X X X X X X X X X X X X X X",
" X X X X X X X X X X X X X X X X X X X X X X X X X X X.X.X'.} m < OXtXtXeXG.-XeX8X1XS.6 0 ^ m ` ^  X X X X X X X X X X X X X X X",
" X.X X X X X X X X X X X X X X.X X X X X X X X X X X X X X'.| m x 4XrXrXrXtXeX6XOX'.K.9 S.Y.t ` ^  X X X X X X X X X X X X X X X",
" X X X X X X X X.X X X X X X X X X X X X.X X X X X X X X'.%XO.' ! 1XwXtXeXtXtXrXeX7X|.|.G.Y.z X./  X X X X X X X.X X X X X X X X",
" X X X X X X X X X X X X X X X X X X X X X X X X X X X X.X%XO.l ! 2XeXtXeXrXrXwX0X8X9XY.Y.!.{ X.^ |. X X X X X X X X X X X X X X",
" X X X X X X X X X X X X X X X X X X X X X X X X X X X X.X%Xo.j !.7XeXtXeXwX9XwXwX5X|.].].!.{ X.^  X X X X X X X X X X X X X X X",
" X X X X X X X X X X X X X X X X X X X X X X X X X X X X X%X| Z.].9X0XwX0X0XeX0XOX2X5XK.Y.'.| X.T. X X X X X X X X X X X X X X X",
" X X X X X X X X X X X X X X X X X X X X X X X X X X X X.X%X( Y.oX1X5X9XwXwX9X7X7X4X}.G.}.}.| { W. X X X X X X X X.X X X X X X X",
" X X X X X X X X X X X X X X X X X X X X X X X X X X X X}.^ b '.oX4X5X6X7X5X4X-X@XoX|.I.U.}.} [ '. X X X X X X X X X X X X X X X",
" X X X X X X X X X X X X X X X X X X X X X X X X X X X X'.~ c _.J.y.y.H.oX2X5X4X1XXX].K.].I.: > I. X X X X X X X X X X X X X X X",
" X X X X X X X X X X X X X X X X X X X X X X X X X X X X|.$X} I.B.B.j.s.;.5 y.t.G.K.G.G._.R.h : G. X X X X X X X X X X X X X X X",
" X X X X X X X X X X X X X X X X X X X X X X X X X X X X~.o.| J.<XC.n.n.N.j.j.g.s.-.&.6 Y.$X| c !. X X X X X X X X X X X X X X X",
" X X X X X X X X X X X X X X X X X X X X X X X X X X X XE.[ k {.<XV.s.u.u.g.n.V.V.n.q.1.Q.| O.{ W. X X X X X X X X X X X X X X X",
" X X X X X X X X X X X X X X X X X X X X X X X X X X X|.^ f < [.,Xm.u.5 = 5 u.n.C.n.q.6.W.z { m T. X X X X X X X X X X X X X.X X",
" X X X X X X X X X X X X X X X.X X X X X X X X X X X X}.D.h 1 :X<XC.j.%.* * ;.g.B.m.<.3.!.j < 8 I.|. X X X X X X X X X X X X X X",
" X X X X X X X X X X X X X X X X X X X X X X X X X X X X|.'.G.,X<XV.u.; = 4 ;.j.V.B.;.4.}.S.I.}. X X X X X X X X X X X X X X X X",
" X X X X X.X X X X X X X X X X X X X X X X X X X X X X X X X{.,XC.B.g.3 4 F.u.m.V.B.1.A. X X X X X X X X X X X X X X X X X X X X",
".X X X X X X X X X X X X X X X X X X X X X X X X X X X X XXX{.,XC.B.u.3 y.(.d.k.m.k.-.H. X X X X X X X X X X X X X X X X X X X X",
" X X X X X X X X X X X X X X X X X X X X X X X X X X X X X X`.C.C.b.p.1.Y.(.d.k.k.j.-.I. X X X X X X X X X X X X X X X X X X X X",
" X X X X X X X X X X X X X X X X X X X X X X X X X X X X X}.[.C.N.a.>.t.|.Y.j.V.m.g.=._. X X X X X X X X X X X X X X X X X.X X X",
" X X X X X X X X X X X X X X X X X X X X X X X X X X X X X X[.C.a.i.5 U. X].f.V.V.g.=.]. X X X X X X X X X X X X X X X X X X X X",
" X X X X X X X X X X X X X X X X X X X X X X X X X X X X X].<XN.i.$.9 ].|.}.l.C.B.g.=.]. X X X X X X X X X X X X X X X X X X X X",
" X X X X X X X X X X X X X X X X X X X X.X X X X X X X X X{.<Xk.>.; 9 ]. X Xl.,Xj.>.5 I. X X X X X X X X.X X X X X X X X X X X X",
" X X.X X X X X X X.X X X X X X X X X X X X X X X X X X X XY.m.>.<.i.y.|. X Xf.k.u.%.5 I. X X X X X X X X X X X X X X X X X X X X",
" X X X X X X X X X X X X X X X X X X X X X X X X X X X X X].u.:.p.*.t.]. X Xf.u.:.; 5 Y. X X X X X X X X X X X X X X X X X X X X",
" X X X X X X X X X X X X X X X X X X X X X X X X X X X X X(.u.c.p.>.t.oX X].l.g.<.9.%.J. X X X X X X X X X X X X X X X X X X X X",
" X X X X X X X X X X.X|.~._ _ '. X X X X X X X X X X X X X{.b.M.x.*.J. X X X`.n.b.x.:.F. X X X X X X X X X X X X X X X X X X X X",
" X X X X X X X X X X.XR.J U T @._ |. X X X X X X X X X X X{.M.M.x.*.I. X X X^.x.b.x.:.F. X X X X X.X X X.X X X X X X X X X X X X",
" X X X X X X X X X X!.H K U U R @.~. X X X X X X X X X X X/.v.v.i.&.(. X X X`.x.x.x.>.J. X X X X X X X X X X X X X X X X X X X X",
" X X X X X X X X X XT.Z S & M U L 8 }. X X X X X X X X X X/.v.c.i.&._. X X X^.x.x.e.>.(. X X X X X X X X X X X X X X X X X X X X",
" X X X X X X X X X X^ Z A 8 & F C g '.|. X X X X X X X X X/.v.z.e.=.}..X X X^.x.x.e.&.'. X X X X X X X X X X X X X X X X X X X X",
" X X X X X X X.X X XR.C F J M r a p k R. X X X X X X X X X/.z.8.$.2.}..X.X.X^.e.z.8.=.'. X X X X X X X X X X X X X X X X X X X X",
" X X X X X X X.X X X}.W S G N e u k D.]. X X X X X X X X].s.,.i.$.4..X}..X'.6.0.8.:.3. X X X X X X X X X X X X X X X X X X X X X",
" X X X X X X X'.}.}.P.S.E N p i ! '.|. X X X X X X X X Xl.g.0.$.8.6.}..X.X).q.9.e.7.3.'. X X X X X X X X X X X X X X.X X X X X X",
" X X X X X|.|.W ] i N E E S D P ..|. X X X X X X.X.X.X.Xf.e.0.,.$.w.(. X.X(.>.9.*.#.&.I. X'. X X X X X X X X X X X X X X X X X X",
" X X X X X|.'.E V r D T T I Y T T }  X X X X X X X.X'.'.A.3 #.#.#.=.'. X X(.1.e.e.- 2.}..X.X X X X X X X X X X X X X X X X X X X",
" X X X X X X X^ N p V S G U Y Y T +.'. X X X X X X X.X'.3.#.; #.#.3. X X X_.6 3 %.- 2. X.X.X|. X X X X X X X X X X X X X X X X X",
" X X X X X X X!.H C C Z G G U Y Y +.'. X X X X X.X'.(.6.>.<.7.#.- 5. X X X.Xr.#.$.; F.'.'..X X X X X X X X X X X X X X X X X X X",
" X X X X X X X}.W C Z D D G K I P ) '. X X X X X)./.w.9.q.x.9.%.>.r. X X X X).:.9.9.3.'. X X.X.X X X X X.X X X X X X X X X X X X",
" X X X X X X X XU.W s p p Z Z H s Q..X.X X X X X^.`.m.x.1.6.F.J.J.J. X X X XJ.w.b.x.q.F. X X X'. X X X X.X.X X X X X X X X X X X",
".X X.X.X.X.X.X X.X XL.n ' ~ W.W.W.'..X.X.X.X.X.X'.A.G.r.r.F.I.I.I.'..X.X.X.XU.'.1X{.].'..X.X.X.X.X.X.X.X.X.X.X.X.X.X.X.X.X.X.X.X",
" X X|..X X X X X X X X X}. X X X X X X X X X.X X'..X'.'. X'. X X.X'. X X X.X X'..X.X.X X X X X X X X X X X X X X X X X X X X X X"
};
