/* XPM */
static char *_1721607728[] = {
/* columns rows colors chars-per-pixel */
"64 64 218 2 ",
"   c #3B180F",
".  c #4E2619",
"X  c #552617",
"o  c #632B17",
"O  c #6C331D",
"+  c #7A371A",
"@  c #54362E",
"#  c #7A4029",
"$  c #61463E",
"%  c #595151",
"&  c #6D5249",
"*  c #775448",
"=  c #6F605E",
"-  c #494662",
";  c #756C70",
":  c #7D7273",
">  c #823E1F",
",  c #BE551F",
"<  c #B3621B",
"1  c #894223",
"2  c #954C2E",
"3  c #B57239",
"4  c #C97C18",
"5  c #C87C2D",
"6  c #835F50",
"7  c #876353",
"8  c #926756",
"9  c #96715C",
"0  c #A9734E",
"q  c #88736E",
"w  c #9C796E",
"e  c #857779",
"r  c #A27A66",
"t  c #A77A69",
"y  c #BE7D63",
"u  c #AA7F74",
"i  c #99812C",
"p  c #AF8830",
"a  c #C98418",
"s  c #D7891B",
"d  c #DB941A",
"f  c #E3921A",
"g  c #DBAC1D",
"h  c #E9A918",
"j  c #EEB116",
"k  c #F3BB1A",
"l  c #D08C2D",
"z  c #D8A62E",
"x  c #E9B726",
"c  c #F2BB22",
"v  c #FBD21B",
"b  c #DEC328",
"n  c #F8CB25",
"m  c #FED92B",
"M  c #F3D438",
"N  c #FEE22B",
"B  c #B28851",
"V  c #9A8279",
"C  c #AE8A70",
"Z  c #A98779",
"A  c #B88B78",
"S  c #BA937A",
"D  c #B8A570",
"F  c #C7AD50",
"G  c #C58466",
"H  c #CC8A6B",
"J  c #D28D6C",
"K  c #D6926D",
"L  c #C58D75",
"P  c #C7927A",
"I  c #D99A7A",
"U  c #E0956F",
"Y  c #E39C77",
"T  c #C2B272",
"R  c #E4A37E",
"E  c #DDC85A",
"W  c #DAC860",
"Q  c #3C659C",
"!  c #305DAC",
"~  c #3966A8",
"^  c #2E67BF",
"/  c #3969B5",
"(  c #3E72B6",
")  c #486B9B",
"_  c #567298",
"`  c #6B6B84",
"'  c #6B7A96",
"]  c #717D9C",
"[  c #466AA7",
"{  c #4874A9",
"}  c #5677A8",
"|  c #426DB4",
" . c #4978B5",
".. c #4B7CBC",
"X. c #527CB7",
"o. c #607DA2",
"O. c #3C74C6",
"+. c #457AC6",
"@. c #857481",
"#. c #74809C",
"$. c #4B81BD",
"%. c #5684B6",
"&. c #5484BB",
"*. c #6985A9",
"=. c #788BA8",
"-. c #7C91AD",
";. c #6687B6",
":. c #728FB4",
">. c #6A91BC",
",. c #7795BA",
"<. c #4D85C5",
"1. c #548AC5",
"2. c #548AC7",
"3. c #5C92CC",
"4. c #538CD1",
"5. c #5B94D2",
"6. c #5E99D4",
"7. c #5E99D8",
"8. c #6697C9",
"9. c #729CC7",
"0. c #629BD5",
"q. c #75A2CC",
"w. c #66A3DC",
"e. c #6AA3DB",
"r. c #6DA4D8",
"t. c #75ABDB",
"y. c #78AAD8",
"u. c #7DB1DD",
"i. c #78AEE0",
"p. c #7AB2E2",
"a. c #8B8587",
"s. c #928788",
"d. c #948C8E",
"f. c #8C8892",
"g. c #8D909A",
"h. c #98959C",
"j. c #9C9A9C",
"k. c #A88C83",
"l. c #AD968F",
"z. c #B89788",
"x. c #A79593",
"c. c #A59C9C",
"v. c #AA9D9C",
"b. c #B1A299",
"n. c #818FA7",
"m. c #8991A5",
"M. c #8494AB",
"N. c #9599A5",
"B. c #9B9CA4",
"V. c #959CAB",
"C. c #8698B4",
"Z. c #A39FA2",
"A. c #9FA0A4",
"S. c #9DA0AA",
"D. c #9EA7B5",
"F. c #A4A2A6",
"G. c #ACA4A3",
"H. c #A7A6AB",
"J. c #A8A7AC",
"K. c #A9A8AD",
"L. c #B6ABA8",
"P. c #ADADB1",
"I. c #B0AFB3",
"U. c #AFB0B4",
"Y. c #B3B2B6",
"T. c #B6B6BA",
"R. c #BABABD",
"E. c #C19886",
"W. c #CC9C83",
"Q. c #D29D84",
"!. c #DAA386",
"~. c #D4A48B",
"^. c #DDA68A",
"/. c #C9A798",
"(. c #D2A791",
"). c #D9AC94",
"_. c #EAAA85",
"`. c #E4A988",
"'. c #EBAE8A",
"]. c #E7B08E",
"[. c #ECB493",
"{. c #E6B698",
"}. c #F1BC9C",
"|. c #CEB3A9",
" X c #D3B6AA",
".X c #C3BDBD",
"XX c #D3BCB6",
"oX c #E9BEA3",
"OX c #D6C3BC",
"+X c #819EC3",
"@X c #90A5C1",
"#X c #A4B3C7",
"$X c #B3BBC5",
"%X c #BDBEC2",
"&X c #85B9E4",
"*X c #85BAE4",
"=X c #BEC0C3",
"-X c #8DC1E9",
";X c #C2C3C4",
":X c #C4C7CA",
">X c #CACACC",
",X c #D7CECE",
"<X c #CDCED2",
"1X c #CFD0D3",
"2X c #D3D3D4",
"3X c #D5D6D9",
"4X c #DAD6D8",
"5X c #DADADD",
"6X c #E8E0DD",
"7X c #DEDEE1",
"8X c #E1DFE0",
"9X c #E3E3E5",
"0X c #E6E6E9",
"qX c #EBEBED",
"wX c #EFEEF1",
"eX c #F3F3F5",
"rX c #F6F6F8",
"tX c #FAFAFC",
/* pixels */
"H.H.H.H.H.H.H.H.H.H.H.H.H.H.H.H.H.H.H.J.H.H.H.H.J.H.H.H.H.H.H.H.H.H.H.H.H.H.H.H.H.H.H.H.H.H.H.H.H.H.H.H.H.H.H.H.H.H.H.H.H.H.H.H.",
"H.H.H.H.H.J.H.H.H.H.H.H.H.H.H.H.H.H.H.H.H.H.H.H.H.H.H.H.H.H.H.H.H.H.H.H.H.H.J.H.H.H.H.H.H.H.H.H.H.H.H.H.H.H.H.H.H.H.H.J.H.H.H.H.",
"H.H.H.H.H.H.H.H.H.H.H.H.H.H.H.H.H.H.H.H.H.H.H.H.H.H.H.H.H.H.H.H.J.H.H.H.H.H.H.H.H.H.H.H.H.H.H.H.J.H.H.H.H.J.H.H.H.H.H.H.H.H.H.H.",
"H.H.H.H.H.H.H.H.H.H.J.H.H.H.H.J.H.H.H.H.H.H.H.H.H.H.H.H.H.H.H.J.H.H.H.H.H.H.H.H.H.J.H.H.H.H.J.H.H.H.H.H.H.H.H.H.H.H.H.H.H.H.H.H.",
"H.H.H.H.H.H.H.H.H.H.H.H.H.H.H.H.H.H.H.H.H.H.H.H.H.H.H.H.H.H.H.H.H.H.H.H.H.H.H.H.H.H.H.H.H.H.H.H.H.H.H.H.H.H.H.H.H.H.H.J.H.H.H.H.",
"H.J.H.H.H.H.H.H.H.H.H.H.H.H.H.H.H.H.H.J.H.H.H.H.H.J.H.J.H.H.J.J.H.H.H.H.H.H.H.H.H.H.H.H.H.H.H.H.H.H.H.H.H.J.H.H.H.H.H.H.J.H.H.H.",
"H.H.H.H.H.H.H.H.H.J.H.H.H.H.H.H.H.H.H.H.J.H.H.H.H.J.J.J.H.F.F.J.H.H.H.H.H.H.H.H.H.H.H.H.H.H.H.H.H.H.H.H.H.H.H.H.H.H.H.H.H.H.H.H.",
"H.H.H.H.H.J.H.H.H.H.H.H.H.J.H.H.H.H.H.H.H.H.H.H.H.B.j.d.s.: @.j.H.J.H.H.H.H.J.H.H.H.H.H.J.H.H.H.H.H.H.H.H.H.H.H.H.H.H.H.H.H.H.H.",
"H.H.H.J.H.H.H.H.H.H.J.H.H.H.H.H.H.H.H.H.H.H.J.Z.H.k.$ # > + @ ; F.J.H.H.H.H.J.H.H.H.H.H.H.J.H.H.H.H.H.H.H.H.H.H.H.H.H.H.H.H.H.H.",
"H.H.H.H.H.H.H.J.H.H.H.H.H.H.H.H.H.H.H.H.H.H.H.: = $ > 1 1 > o . : F.H.H.H.H.H.H.H.H.H.H.H.H.H.H.H.H.H.H.H.H.H.H.H.H.H.H.H.H.H.H.",
"H.H.H.H.H.H.H.H.H.H.H.H.H.H.H.H.H.H.H.H.H.H.H.e O + + + + o . . @ j.H.H.H.H.H.H.H.H.H.H.H.H.H.H.H.H.H.H.H.J.H.H.H.H.H.H.H.H.H.H.",
"H.H.H.H.H.H.H.H.H.H.H.H.H.H.H.H.H.J.H.H.J.H.F.= . X o O X . & # @ a.H.H.H.H.H.H.H.H.H.H.H.H.H.H.H.H.H.H.H.H.H.H.H.H.H.J.J.H.H.H.",
"H.H.H.H.H.H.H.H.H.H.H.H.J.H.H.H.H.H.H.H.H.H.H.d.@       X 9 oXS X : J.J.H.H.H.H.H.J.H.H.H.H.H.H.H.H.H.H.H.H.H.H.H.H.H.H.H.H.H.H.",
"H.H.H.J.H.H.H.H.H.H.H.H.H.H.H.H.H.H.H.H.H.H.H.H.: @ 6 t C }.oXz.. = G.J.H.H.H.H.H.H.H.H.H.H.H.H.H.J.H.H.H.J.H.H.H.H.H.J.H.H.H.H.",
"H.H.H.H.H.H.J.H.H.H.H.H.H.H.H.H.H.H.H.H.H.H.J.J.@.A ].[.[.~.= 9 * * v.J.H.H.J.H.H.H.H.H.H.H.H.H.H.H.H.H.H.H.H.H.H.H.H.H.H.H.H.H.",
"H.H.H.H.H.H.H.H.H.H.J.H.H.H.H.H.H.H.H.H.H.H.G.J.j.7 r C I 6 $ 9 & 8 b.K.H.H.H.H.H.H.H.H.H.J.H.H.H.H.H.H.H.H.H.H.H.H.H.H.H.H.H.H.",
"H.H.H.H.H.H.H.H.H.H.H.H.H.H.H.H.H.H.H.H.H.H.H.H.A.% $ $ % * P {.A 9 XX4XI.J.H.H.H.H.H.H.H.H.H.H.H.H.H.H.H.H.H.H.H.H.H.H.H.H.H.H.",
"H.H.H.H.H.H.H.H.H.J.H.H.H.H.H.H.H.H.H.H.H.H.H.H.H.% Z P 9 C z.~.E.z.OXqX0X%XK.H.H.H.H.H.H.H.H.H.H.H.J.H.H.H.H.H.H.H.H.H.H.H.H.H.",
"H.J.H.H.H.H.H.J.H.H.H.H.H.H.H.H.H.H.H.J.J.J.H.Y.OXh.Z W.C I S E.`.Q.|.qXeXwX1XI.H.H.H.H.K.H.H.H.H.H.H.H.H.H.H.H.H.H.H.H.H.H.H.H.",
"H.H.H.H.H.H.H.H.H.H.H.H.H.H.H.J.H.H.H.H.H.J.J.2X0X5XK.L L L ~.^.[.Q. X0XqX0XqXqX<XK.H.H.H.H.H.H.H.H.H.H.H.H.H.J.J.H.H.H.H.H.H.J.",
"H.H.H.H.H.H.H.H.H.H.H.H.H.H.J.H.H.H.H.H.H.H.P.9XwXqX5Xb.Q.I Q.}.^.W.XX0X9XeXtXtXtX2XZ.J.H.H.H.H.H.H.H.H.H.H.H.H.H.H.H.H.H.H.H.H.",
"J.H.H.H.H.H.H.H.H.H.H.H.H.H.H.H.H.H.H.H.H.H.T.9XqXwX0X>Xz.Q.}.].G Q.4X7X9XeXrXtXtXqXT.J.J.H.H.H.H.H.H.H.H.H.H.H.H.H.H.H.H.H.H.H.",
"H.H.H.H.H.H.H.H.H.J.H.H.H.H.H.H.H.H.H.H.J.J.>X5X9X9X0X7X.XZ C 0 y XX9X<X7XqXrXtXtXwX%XZ.H.H.H.H.H.H.H.J.H.H.H.H.H.H.H.H.J.H.H.H.",
"H.H.H.H.H.H.H.J.H.H.H.H.H.H.H.H.H.J.H.H.J.J.>X9X5X3X5X9X7X>XL.b.XX6X0XT.>XqXeXrXrXwX<XZ.H.H.H.H.H.H.H.H.H.H.H.H.H.H.H.H.H.H.H.H.",
"H.H.H.H.H.H.H.H.H.H.H.H.H.H.H.H.H.H.H.H.H.H.L.2X8X>X.X2XwX9X7X9X0XwXwXT.>X0XwXeXeXqX7XT.H.H.H.H.H.H.H.H.H.H.J.H.H.H.H.H.H.H.H.H.",
"H.H.H.H.H.H.H.H.J.H.H.H.H.H.H.H.H.H.H.H.H.H.l.).OXOXG.K.9XwXqX0XqXwXqX2X4XqX6XOX|.,XqX:XH.H.H.H.J.H.H.H.H.H.H.H.J.H.H.H.H.H.H.H.",
"H.J.H.H.H.H.H.H.H.H.H.H.H.H.H.H.H.H.H.H.H.H.E.'.}.{.I d.R.3X0X0X9X7X4X.X|.{.{._.H ,XwX1XZ.H.H.H.H.H.H.H.H.H.H.H.H.H.H.H.H.H.J.H.",
"H.H.H.H.H.H.H.H.H.H.H.H.H.J.H.H.H.H.H.H.H.H.P '.}.}.~.Z.A.P.R.:X:X%X$XG.H !.}.[.Q.4XqX3XK.K.H.H.H.H.H.H.H.H.H.H.H.H.H.H.H.H.H.H.",
"H.H.J.H.H.H.H.J.H.H.H.H.H.H.H.H.H.J.H.H.H.F.E.R [.[.~.F.F.j.F.P.I.P.I.Z.J !.}._.Q.7X0X7XP.H.H.H.H.H.H.H.H.H.H.H.H.H.H.H.H.H.H.H.",
"H.H.H.H.H.H.H.H.H.J.H.H.J.H.H.H.H.H.H.H.J.F.P Y R R z.H.H.F.P.R.Y.$X%XP.J U _._.XX9X0X7XP.H.H.H.H.H.H.H.H.H.H.H.H.H.H.H.H.H.H.H.",
"H.H.H.H.H.H.H.H.H.H.H.H.H.H.H.H.H.H.H.H.J.H.A K R J z.H.H.H.:X5X4X<X<X/.J U U P 2X9X9X7XP.H.H.H.H.H.H.H.H.H.H.J.H.H.H.H.H.J.H.H.",
"H.H.H.H.H.H.H.H.H.H.H.H.H.H.H.H.H.H.H.H.J.F.A K R R A c.H.J.>X2X4X4X,X/.U _._.(.3X7X7X2X%XH.H.J.H.H.H.H.H.H.H.H.H.H.H.H.H.H.H.H.",
"H.H.H.H.H.J.H.H.H.H.H.H.H.H.H.H.H.H.H.H.H.H.k.K I I H z.A.#.M.Y.<X%XY.!._._.'.|.7X5X1X<X=XS.H.H.H.H.H.H.H.H.H.H.H.H.H.H.H.J.H.H.",
"H.H.H.H.H.H.H.H.H.H.H.H.H.H.H.H.H.H.H.H.J.H.F.G J H H A M.%.%.%.*.:.=.!._._.`.L.<X2X3X<XR.H.H.H.H.H.H.H.H.H.H.J.H.H.H.H.H.H.H.H.",
"J.H.H.H.H.H.H.H.H.H.J.H.H.H.H.H.H.H.J.H.J.J.F.C G G B B.>.%.%.{ ..{ ] `._.'.E.o.;.%.:.=XT.H.H.H.H.H.H.H.H.H.H.H.H.H.H.H.H.H.H.H.",
"H.H.H.H.H.H.H.H.H.H.H.H.H.H.H.J.H.H.H.H.H.H.H.f.u C V -.&.&.&.$.X.{ ] `.'.'.f.3.r.y.2._ S.H.H.H.H.H.H.H.H.H.H.H.H.H.H.H.H.H.H.H.",
"H.H.H.H.H.H.H.H.H.J.H.H.H.H.H.H.H.H.H.H.H.H.A.,.>.9.+X&X6.$.~ { X.{ #.^.'.).*.7.&X-Xu.{ N.H.H.H.H.H.H.H.H.H.H.H.H.H.H.H.H.H.H.H.",
"H.H.H.H.H.H.H.H.H.H.H.H.H.H.H.H.H.H.J.H.H.H.V.q.&X&X-X&Xu.1.{ { ~ Q ' ^.].z.$.w.&X-X-X8.m.H.H.H.H.H.H.H.H.H.H.H.H.H.H.H.H.H.H.H.",
"H.H.H.H.H.H.H.H.H.H.H.H.H.H.H.H.H.H.H.H.H.H.V.q.&X*X&X&Xu.4.~ Q Q Q ` (.].x.2.w.p.-X&X9.B.H.H.H.H.H.H.H.H.H.H.H.J.H.H.H.H.H.J.H.",
"H.H.H.H.J.H.H.H.H.H.H.H.H.H.H.H.H.H.H.H.J.H.V.q.&X*X*Xp.6.( Q Q ) _ ; (. Xf.2.w.i.p.t.:.A.H.H.H.J.H.H.H.H.H.J.H.H.H.H.H.H.H.H.H.",
"J.H.H.H.H.J.H.H.H.H.H.H.H.H.H.J.H.H.H.H.H.H.V.q.u.u.u.5.( Q } *.M.S.A.OX.Xd.$.6.0.e.0.=.H.H.H.H.H.H.H.H.H.H.H.H.H.H.H.H.H.H.H.H.",
"H.H.H.H.H.H.H.H.H.H.H.J.H.H.H.H.H.H.H.J.H.H.V.q.y.t.6.( _ *.=.N.F.F.x.z.].l.{ <.4.0.%.N.H.H.H.H.H.H.H.J.H.H.H.H.H.H.H.H.J.H.H.H.",
"H.H.H.H.H.H.H.H.H.H.H.H.H.H.H.H.H.H.H.H.H.H.V.q.r.r.3.~ #.S.H.H.H.G.z.I ]./.{ $.<.3.%.B.H.H.H.H.H.H.H.H.H.H.H.H.H.H.H.H.H.H.H.H.",
"H.H.H.H.H.H.H.H.H.H.H.H.H.H.H.H.H.H.H.H.H.H.Z.8.3.3.4.$.} A.H.H.H.v.P I W.V _ $.$.0.8.V.H.H.H.H.H.H.H.H.H.H.H.H.H.H.H.H.H.H.H.H.",
"J.H.H.H.H.H.H.H.H.H.J.H.H.H.H.H.J.H.H.H.H.H.Z.o.&.3.$.( &.B.J.J.H.c.L H z.' )  .3.e.t.-.H.J.H.H.H.H.H.H.H.H.H.J.H.H.H.H.H.H.H.H.",
"H.H.H.H.H.H.J.H.H.H.H.H.J.H.H.H.H.H.H.H.H.H.H.*.&.6.6.$.{ V.J.J.H.H.k.Z L g.{ ..3.r.t.,.F.H.H.H.H.H.H.H.H.H.H.H.J.H.H.H.H.H.H.J.",
"H.H.H.H.H.H.H.H.H.H.H.H.H.H.H.H.H.H.H.H.H.H.J.M.8.w.w.3.#.j.D.J.H.H.H.F.x.x._  .6.e.t.9.H.J.J.J.H.H.H.J.H.H.H.H.H.H.H.H.H.H.H.H.",
"H.H.H.H.H.H.H.H.H.H.H.H.H.H.H.H.H.H.H.H.H.J.J.B.8.w.-.D M M T A.H.H.H.H.H.F.*.<.6.e.w.,.S.J.J.H.H.H.H.H.H.H.H.H.H.H.H.H.H.H.H.H.",
"H.H.H.H.H.H.H.H.H.H.H.H.H.H.H.H.H.H.H.H.H.H.H.F.>.,.z v v N M E Z.H.H.H.K.H.C.+.7.7.7.9.Z.H.H.H.H.H.H.H.H.H.H.H.H.H.H.H.H.H.H.H.",
"H.H.H.H.H.H.H.H.H.H.H.H.H.H.H.H.H.H.H.H.H.H.J.F.=.V j g i b N F d.H.H.H.H.Z.:.+.5.5.4.] H.H.J.H.H.H.H.H.H.H.H.H.H.H.H.J.H.H.H.H.",
"J.H.H.H.H.H.H.H.H.H.J.H.H.H.H.H.H.H.H.H.H.H.H.H.*.B h p - 3 v p e H.H.K.H.H.@.+.4.4.+.| S.J.H.H.J.H.H.H.H.J.H.H.H.H.H.H.H.H.H.H.",
"H.H.H.H.J.H.H.H.H.H.H.H.H.J.H.H.H.H.H.H.H.H.H.H.m.r h z q p 4 s 0 u Z.H.H.H.S._ +.+.O.| V.J.H.H.H.H.H.H.H.H.H.H.H.H.H.H.H.H.H.H.",
"H.H.H.H.H.J.H.H.H.H.H.H.H.H.H.H.H.H.H.H.H.H.J.J.m.` d k x < , , 2 u Z.J.H.H.H.] ^ ^ ^ / N.J.J.H.H.H.H.H.H.H.H.H.H.H.H.J.H.H.H.H.",
"H.H.H.H.H.H.H.H.H.H.H.H.H.H.H.H.H.H.H.H.H.H.G.G.m.X.@.l f 4 3 u Z.J.J.J.H.H.F.} ! ! |  .m.K.H.H.H.H.H.H.H.J.H.H.H.H.H.H.J.H.H.H.",
"H.H.H.H.H.H.H.H.H.H.H.H.H.H.H.H.H.H.H.H.H.c.D C 9 0 q 0 d d F b.H.H.J.H.H.H.v.} +.+.+.O.X.P.H.H.H.H.H.H.H.H.H.H.H.H.H.H.H.H.H.H.",
"H.H.H.H.H.H.H.H.H.H.H.J.H.H.H.H.H.H.H.H.F.x.g a a c M z n m M E c.H.H.H.H.K.h.[ | X.8.X.n.Z.H.J.H.H.H.H.H.H.H.H.H.H.H.H.H.H.H.H.",
"H.H.H.H.H.H.H.H.H.H.H.H.H.H.H.H.H.H.H.H.H.Z.0 4 a h c n M m N N D H.J.J.J.H.N.-.,.o.} } ] D.J.H.H.H.J.H.H.H.H.H.H.H.H.H.H.H.H.H.",
"H.J.H.H.H.H.H.H.J.H.H.H.H.H.J.H.H.H.H.H.Z.n.w s s s h k n m m m T H.F.J.H.H.m.) ~ ~ ! / | ] J.K.H.H.H.H.H.H.H.H.H.H.H.H.H.H.H.H.",
"H.H.H.H.H.H.H.H.H.H.H.H.H.H.H.H.H.H.J.P.%XC.] 5 f h j c k n n n S F.J.J.H.J.K.C.{ / ..X.+.+.Z.K.H.H.H.H.H.H.H.H.H.H.H.H.H.H.H.H.",
"H.H.H.H.H.H.H.H.H.H.H.H.H.H.H.H.H.H.J.Z.;X<X:Xz.l s s f j j j B B.H.J.J.H.J.J.Y.-. .....+.;.M.Z.H.H.H.H.H.H.H.H.H.H.H.J.J.H.H.H.",
"H.H.H.H.H.H.H.H.H.J.H.H.H.H.H.H.H.H.H.H.Z.I.Y.P.c.t 3 5 B C r C F.H.H.H.H.H.H.F.D.,.,.+X@X#XT.J.H.H.H.H.H.H.H.H.H.H.H.H.H.H.H.H.",
"H.H.H.H.H.H.H.H.H.H.H.J.H.H.H.H.J.J.H.H.K.K.Z.J.K.H.Z.v.F.H.F.F.H.H.H.H.H.H.H.F.=X=X=X=X=XU.K.H.H.H.J.H.H.H.H.H.H.H.H.H.H.H.H.H.",
"K.K.K.K.K.K.K.K.J.K.J.K.J.J.J.J.J.J.K.J.K.K.P.K.J.J.J.J.K.J.K.J.J.K.K.K.K.K.H.K.J.K.K.K.K.K.K.K.K.K.K.K.K.K.K.K.K.K.K.K.K.K.K.K.",
"H.H.H.H.H.H.H.J.H.H.H.J.J.H.J.J.H.J.J.J.J.J.Z.J.J.J.J.J.J.H.H.H.H.J.H.H.H.H.H.H.H.H.H.H.H.J.H.H.H.H.H.H.H.H.H.H.H.H.H.H.H.H.H.H."
};
