/* XPM */
static char *_1721607728[] = {
/* columns rows colors chars-per-pixel */
"64 64 215 2 ",
"   c #5C2816",
".  c #692F19",
"X  c #6F341D",
"o  c #7B381B",
"O  c #7A3D22",
"+  c #744839",
"@  c #755032",
"#  c #69534B",
"$  c #785648",
"%  c #78635A",
"&  c #5D6275",
"*  c #726D6F",
"=  c #843C1A",
"-  c #BD681A",
";  c #894625",
":  c #814C37",
">  c #8B5233",
",  c #AA5328",
"<  c #BA7728",
"1  c #B9712F",
"2  c #CC731B",
"3  c #C07C32",
"4  c #865A49",
"5  c #A45B4E",
"6  c #9B664A",
"7  c #856653",
"8  c #A26B4B",
"9  c #AA7757",
"0  c #846A65",
"q  c #97766A",
"w  c #A3796B",
"e  c #C37B52",
"r  c #9D8336",
"t  c #B58E32",
"y  c #CF8116",
"u  c #D78A1B",
"i  c #DB9A1D",
"p  c #E19C1A",
"a  c #E8AA1A",
"s  c #EFB41C",
"d  c #F3BB19",
"f  c #CD8F2A",
"g  c #D5B22E",
"h  c #E9B12F",
"j  c #F4C21F",
"k  c #F1C728",
"l  c #FDDA28",
"z  c #F6D437",
"x  c #FDE337",
"c  c #B28158",
"v  c #96907B",
"b  c #AC8069",
"n  c #B18874",
"m  c #B58B76",
"M  c #C48C4A",
"N  c #CF954F",
"B  c #CB835B",
"V  c #CAAC48",
"C  c #D0A058",
"Z  c #E1B848",
"A  c #D38C64",
"S  c #D9936A",
"D  c #C3937B",
"F  c #CA9578",
"G  c #D99A74",
"H  c #E79C6B",
"J  c #E39E76",
"K  c #C7B97B",
"L  c #EBB06D",
"P  c #E8A67C",
"I  c #EAA67D",
"U  c #F1AA7E",
"Y  c #ECDA62",
"T  c #2E64AA",
"R  c #3669AA",
"E  c #2C6CBA",
"W  c #356DB8",
"Q  c #3673BC",
"!  c #3B74BB",
"~  c #6F789A",
"^  c #4C73AA",
"/  c #4679BB",
"(  c #537CB4",
")  c #2E73C4",
"_  c #3375C4",
"`  c #3A7AC3",
"'  c #357CCB",
"]  c #3A7DCA",
"[  c #447CC0",
"{  c #8B7F80",
"}  c #4B80B7",
"|  c #5A82BA",
" . c #6E87AA",
".. c #798AA7",
"X. c #678AB9",
"o. c #748CB3",
"O. c #7492B9",
"+. c #3B81CB",
"@. c #3B84D1",
"#. c #3D8AD6",
"$. c #4883C7",
"%. c #4484CC",
"&. c #518AC9",
"*. c #458DD2",
"=. c #498FD7",
"-. c #438ED9",
";. c #4C93DA",
":. c #4D95D9",
">. c #549BDD",
",. c #6396CE",
"<. c #6999CA",
"1. c #779DC5",
"2. c #73A4D3",
"3. c #79A8D5",
"4. c #4D9AE0",
"5. c #549DE3",
"6. c #5BA4E3",
"7. c #5CA7E7",
"8. c #65ABE7",
"9. c #6DADE3",
"0. c #63ACEA",
"q. c #73ADE0",
"w. c #66B1EB",
"e. c #6CB4ED",
"r. c #6FB8EF",
"t. c #74B7EB",
"y. c #72B9F0",
"u. c #9D8684",
"i. c #8E8C92",
"p. c #999595",
"a. c #AB8B82",
"s. c #B08E87",
"d. c #A9958A",
"f. c #B8988B",
"g. c #A59996",
"h. c #A39A9B",
"j. c #B89D93",
"k. c #ACA09C",
"l. c #B8A198",
"z. c #8392AD",
"x. c #8A94AA",
"c. c #969BA9",
"v. c #869AB8",
"b. c #939FB2",
"n. c #A49EA1",
"m. c #9DA1AC",
"M. c #8DA6BF",
"N. c #97A5B8",
"B. c #A5A2A5",
"V. c #ADA4A5",
"C. c #A7A6AB",
"Z. c #A8A7AB",
"A. c #A9A8AD",
"S. c #B4A9A7",
"D. c #A3AAB6",
"F. c #ADADB1",
"G. c #AFB2BA",
"H. c #B2B2B6",
"J. c #B4B5BB",
"K. c #B9B9BC",
"L. c #CA9D85",
"P. c #D19E84",
"I. c #CFA28A",
"U. c #DBA482",
"Y. c #D4A58A",
"T. c #C6A899",
"R. c #D6AB94",
"E. c #D7B19C",
"W. c #E7AA86",
"Q. c #E2AC8A",
"!. c #F2AC81",
"~. c #EDB28D",
"^. c #F4B184",
"/. c #F4B48B",
"(. c #F7B88C",
"). c #F9BA8E",
"_. c #E1B296",
"`. c #FABC90",
"'. c #C6ADA3",
"]. c #CDB4A8",
"[. c #C7BFBA",
"{. c #D3C6B7",
"}. c #88A5C4",
"|. c #98A7C0",
" X c #83ACD2",
".X c #98B8DC",
"XX c #BCBDC3",
"oX c #B9BEC9",
"OX c #BDC2CA",
"+X c #BDC7D2",
"@X c #C2C3C7",
"#X c #C3C4CA",
"$X c #C8C9CF",
"%X c #D5CDCB",
"&X c #C6CAD2",
"*X c #CCCDD3",
"=X c #CFD0D6",
"-X c #D1D2D5",
";X c #DAD6D7",
":X c #D5D6DA",
">X c #DADADD",
",X c #E8DDD7",
"<X c #E9E2DF",
"1X c #DDDDE1",
"2X c #DFE0E4",
"3X c #E3E3E6",
"4X c #E9E6E7",
"5X c #E5E5EA",
"6X c #EBEAED",
"7X c #F2EFEF",
"8X c #EEEEF1",
"9X c #EFF0F2",
"0X c #F3F3F5",
"qX c #F6F6F9",
"wX c #FAFBFC",
/* pixels */
"C.C.C.C.C.C.C.C.Z.C.C.C.C.C.C.C.C.C.C.C.Z.C.C.C.C.C.C.C.C.C.C.C.C.C.C.C.C.C.C.C.C.C.C.C.C.C.C.C.C.C.C.C.C.C.C.C.C.C.C.C.C.C.C.C.",
"C.C.C.C.C.C.C.C.C.C.C.C.C.Z.C.C.C.C.C.C.C.C.C.C.C.Z.C.C.Z.Z.C.C.C.C.C.C.C.C.C.C.C.C.C.C.C.C.C.C.C.C.C.C.C.C.C.C.C.C.C.C.C.C.C.C.",
"C.C.C.C.C.C.C.C.C.C.C.C.C.C.C.C.C.Z.C.C.C.C.C.C.C.C.C.C.Z.Z.C.D.C.C.C.C.C.C.C.C.C.C.C.C.C.C.C.C.C.C.C.C.C.C.C.C.C.C.A.C.C.C.C.C.",
"C.C.C.C.C.C.C.C.C.C.Z.C.C.C.Z.C.C.C.C.C.C.C.Z.C.C.C.C.B.n.h.u.q n.C.C.C.C.C.C.C.C.C.C.C.C.C.C.C.C.C.C.C.C.C.C.C.C.C.C.C.C.C.C.C.",
"C.C.C.C.C.C.C.C.C.C.C.Z.C.C.Z.C.C.C.C.C.C.C.C.C.C.C.n.q > : O O 0 n.C.C.C.C.C.C.C.C.C.C.C.C.C.C.C.C.C.C.C.C.C.C.C.C.A.C.C.C.C.C.",
"C.C.C.C.C.C.C.C.C.C.C.C.C.C.C.C.C.C.C.Z.C.C.C.Z.Z.B.q > ; ; o     { C.C.C.C.C.C.C.C.C.C.C.C.C.C.C.C.C.C.C.C.C.C.C.C.C.C.C.C.C.C.",
"C.C.C.C.C.C.C.Z.C.C.C.C.C.C.C.C.C.C.C.C.C.Z.C.C.n.w $ ; = = . 6 + # n.A.C.C.A.C.C.C.C.C.C.C.C.C.C.C.C.C.C.C.C.C.C.C.C.C.C.C.C.C.",
"Z.C.C.C.C.C.C.C.C.Z.C.C.C.Z.C.C.Z.C.C.C.C.C.C.C.c.: = = X X 6 W.F $ h.C.C.C.C.C.C.C.C.C.C.C.C.C.C.C.A.C.C.C.C.C.C.C.C.C.C.C.C.C.",
"C.C.C.C.C.C.C.C.C.C.C.C.Z.C.C.C.C.C.C.C.C.C.C.C.Z.0 . ; 6 D P.7 $ + s.n.C.C.C.C.C.C.C.C.C.C.C.C.C.C.C.C.C.C.C.C.C.C.C.C.C.C.C.C.",
"C.C.C.C.C.Z.C.C.C.C.C.C.C.C.C.C.C.C.C.C.C.C.C.C.Z.c.% n U.F w 4 w 4 s.V.C.C.C.C.C.C.C.C.C.C.C.C.C.Z.C.C.C.C.C.C.C.C.C.C.C.C.C.C.",
"C.C.C.C.C.C.C.C.C.Z.C.C.C.C.C.Z.Z.C.C.C.C.C.C.Z.Z.Z.p.4 + # 7 b D D k.A.C.C.F.n.C.C.C.C.C.C.C.C.C.C.C.C.C.C.Z.C.C.C.C.C.C.C.C.C.",
"C.Z.C.C.C.C.C.C.C.C.C.C.C.C.C.C.C.C.C.C.C.C.C.C.Z.Z.B.% n m m F U.~.j.A.C.C.C.A.C.C.C.C.C.C.C.C.C.C.C.C.C.C.C.C.C.C.C.C.C.C.C.C.",
"C.C.C.C.C.C.C.C.C.C.C.C.C.C.C.C.C.C.C.C.C.C.C.C.C.C.C.i.q F G J ~./.L.S.F.C.n.F.C.C.C.C.C.C.C.C.C.C.C.C.C.C.C.C.C.C.C.C.C.C.A.C.",
"C.C.C.C.C.C.C.C.C.C.C.C.C.Z.C.C.C.C.C.C.C.C.C.C.C.C.Z.Z.n.P.~.G J W.S U.;X1XXXF.C.C.C.C.C.C.C.C.C.C.C.C.C.C.C.C.C.C.C.C.C.C.C.C.",
"C.C.C.C.C.C.C.Z.C.C.C.C.C.C.C.C.C.C.C.C.C.C.C.C.C.C.V.C.A.[._.I W.G J J ,XwXqX8X1XJ.n.C.C.C.C.C.C.C.C.C.C.C.C.C.C.C.C.C.C.C.C.C.",
"C.C.C.C.C.C.C.C.C.C.C.C.C.C.Z.C.C.C.C.Z.C.C.C.C.C.C.C.H.>XqX6XL.e S J R.7XwXwXwXqX0X@XC.C.C.C.C.A.C.C.C.C.C.C.C.C.C.C.C.C.C.C.C.",
"C.C.C.C.C.C.C.C.C.C.C.C.C.C.C.C.C.C.C.C.C.C.C.C.C.C.A.1X0XwXwX%XF F R.,XwXwXqX8XwXwX4XF.C.C.C.C.C.C.C.C.C.C.C.C.C.C.C.C.C.C.C.C.",
"C.C.C.C.C.C.C.C.C.C.C.C.C.C.C.C.C.C.C.C.Z.C.C.C.C.Z.H.6X9XwXwXqX4X4X7XwXwX8X1X3XqXwX0XH.C.C.C.C.C.C.C.C.C.C.C.C.Z.C.C.C.C.C.C.C.",
"Z.C.C.C.C.C.C.C.C.C.C.C.C.C.C.Z.C.C.C.C.C.C.C.C.Z.Z.F.2X>X9XwXwXwXwXwXwXqX1X#X1X0XwX8XXXC.C.C.C.C.C.C.C.C.C.C.C.C.C.C.C.C.C.C.C.",
"C.C.C.C.C.C.Z.C.C.Z.C.C.C.C.C.C.C.C.C.C.C.C.C.C.Z.Z.F.>X$X:XwXwXwXwXwXwXqX=XG.=X8X8X1XH.C.C.C.C.C.C.C.C.C.C.C.C.C.C.C.C.C.C.C.Z.",
"C.C.C.C.C.C.C.C.C.C.C.C.C.C.C.C.C.C.C.C.C.C.C.C.C.C.H.3X=XOX9XwX1X@X%XA.3X$XXX>X5X5X1XH.C.C.C.C.C.C.C.C.C.C.C.C.C.C.C.C.C.C.C.C.",
"C.C.C.C.C.C.C.C.C.C.C.C.C.C.C.C.C.C.C.C.C.C.C.C.C.Z.A.'.R.j.:X3XV.>X1XB.2X#X=X3X4X<X;XH.C.C.C.Z.C.C.C.C.C.C.Z.C.C.C.C.C.C.C.C.C.",
"C.C.C.C.C.C.C.C.C.C.C.C.C.C.C.C.C.C.C.C.C.C.C.C.Z.Z.c.n S A '.K.* i.p.Z.=XG.s.Y.P.G T.n.C.C.C.C.C.C.C.C.C.C.C.C.C.C.C.C.C.C.C.C.",
"C.C.Z.C.C.C.C.C.C.C.C.C.C.Z.C.C.C.C.C.C.C.C.C.C.Z.A.h.9 9 S l.&XOX* H.K.@XJ.f.!./.W.l.C.C.C.C.C.C.C.C.C.C.C.C.C.C.C.C.Z.C.C.C.C.",
"C.C.C.C.C.C.C.C.C.C.C.C.C.C.C.C.C.C.C.C.C.C.C.C.C.Z.j.B B G V.#X2X*XOXJ.K.OXD (.).W.V.Z.Z.C.C.C.C.C.C.C.C.C.C.C.C.C.C.C.C.C.C.C.",
"C.C.C.C.C.C.C.C.C.C.C.C.C.C.C.C.C.C.C.C.C.C.C.C.C.A.U.e B F Z.K.:X5X9X6X2X#XL.`./.R.n.A.C.C.C.C.C.C.C.C.C.C.C.C.C.C.C.C.C.C.C.C.",
"C.C.Z.C.C.C.C.C.C.C.C.C.C.Z.C.C.C.C.C.C.C.C.C.C.C.T.^.A C f.C.K.>X2X5X5X1XOXD `.~.l.C.C.C.C.Z.C.C.C.C.C.C.C.C.C.C.C.C.C.C.C.C.C.",
"C.C.C.C.C.Z.C.C.C.C.Z.C.C.C.C.C.C.C.C.C.C.C.C.C.B.E.U B c V K K.2X5X5X6X>X].~.`.Q.n.C.C.C.C.C.C.C.C.Z.C.C.C.C.C.C.A.C.C.C.C.C.C.",
"C.C.Z.C.C.C.C.C.C.C.C.C.C.Z.C.C.C.C.C.C.C.C.C.C.V.R.^.9 g l x Y {.6X8X6X{./.`.^.I.n.A.C.C.C.C.C.C.C.C.C.C.Z.C.C.C.C.C.Z.C.C.C.C.",
"C.C.C.C.C.C.C.C.C.C.C.C.C.C.C.C.C.C.C.C.C.C.C.C.S.~.I t j g l x K -X5X:XE.`.U U T.C.C.C.C.C.C.C.C.C.C.C.C.C.C.C.C.C.C.C.C.C.C.C.",
"C.C.C.C.C.C.C.C.C.C.C.C.C.C.C.C.C.C.C.C.C.C.C.C.V.Y.G g t @ g l r K.>X{.~.^.U U.[.A.C.C.C.C.C.C.C.C.Z.C.C.C.C.C.C.C.C.C.C.C.C.C.",
"C.C.C.C.C.C.C.C.C.C.C.C.C.C.C.C.C.C.C.C.C.C.C.C.C.d.c i t * t i f f.$XE.^.^.I ].*XH.C.C.C.A.C.C.C.C.C.C.C.C.C.C.C.C.C.C.C.C.C.C.",
"C.C.C.C.C.C.C.C.C.C.C.C.C.C.C.C.C.C.C.C.C.C.C.C.C.s.9 i h g , 2 2 , w Q.!.I f.z.X.c.C.C.C.C.C.C.C.C.C.C.C.C.C.C.C.C.C.C.C.C.C.C.",
"C.C.C.C.C.C.C.C.C.C.C.C.C.C.C.C.C.C.C.C.C.C.C.C.B.Y.G M a a 2 , 5 & u.!.I a.R E +.b.C.C.C.C.C.C.C.C.C.C.C.C.C.C.C.C.C.C.C.C.C.C.",
"C.C.C.C.C.C.C.C.C.C.C.C.C.C.C.C.C.C.C.C.C.C.n.k.k.I J m c y 2 q / ~ G U u.^ ] Q ` b.C.C.C.C.C.C.C.C.C.C.C.C.C.C.C.C.C.C.C.C.C.C.",
"C.C.C.C.C.C.C.C.C.C.C.C.C.C.C.C.C.C.C.C.C.C.d.g M S 8 C i d k z v D H m / -.>.:.$.v.C.C.C.C.C.C.C.C.C.C.C.C.C.C.C.C.C.C.C.C.C.C.",
"C.C.C.A.C.C.C.C.C.C.C.C.C.C.C.C.C.C.C.C.C.C.u.u < 6 : Z z l l z V S S ^ #.7.w.6.*.O.Z.C.C.C.C.C.C.C.C.C.C.C.C.C.C.C.C.Z.C.C.C.C.",
"C.C.Z.Z.C.C.C.C.C.C.C.C.C.C.C.C.C.C.C.C.C.C.B.c y < t h j l z V @ 7 p.} #.7.y.y.9.1.C.C.C.C.C.C.C.C.C.C.C.C.C.C.C.C.C.C.C.C.C.C.",
"C.C.Z.Z.C.A.C.C.C.C.C.C.C.C.C.C.C.C.C.C.C.C.Z.m u p p s d h L G % * B.x.*.0.y.y.r.3.C.C.C.C.C.C.C.C.C.C.C.C.C.C.C.C.C.C.C.C.C.C.",
"C.C.Z.Z.C.C.C.C.C.C.C.C.C.C.C.C.C.C.C.C.C.C.C.h.< p p p a N H H c d.C.m.<.8.r.y.r.3.C.C.C.C.C.C.C.C.C.C.C.C.C.C.C.C.C.C.C.C.C.C.",
"C.C.C.C.C.C.C.C.C.C.C.C.C.C.C.C.C.C.C.C.C.C.C.C.g.9 1 - 1 8 c A b B.Z.Z.O.0.r.r.r. XZ.Z.C.C.C.C.C.C.Z.C.C.C.C.C.C.C.C.C.C.C.C.C.",
"C.C.C.C.C.C.C.C.C.C.C.C.C.C.C.C.C.C.C.C.C.C.C.C.C.C.g.w p.o.& & ..Z.Z.Z.b.8.r.r.r.3.B.Z.C.C.C.C.C.C.C.C.C.C.C.C.C.C.C.Z.C.C.C.C.",
"C.C.C.C.C.C.C.C.C.C.C.C.C.C.C.C.C.C.C.C.C.C.C.C.C.C.A.N.y.e.*.R ..C.Z.Z.b.w.r.r.y.1.m.Z.C.C.C.C.C.C.C.C.C.C.C.C.C.C.C.C.C.C.C.C.",
"C.Z.C.C.C.Z.C.C.C.C.C.C.C.C.C.C.C.C.C.C.C.C.C.C.C.C.A.}.r.e.7.! ..C.C.B.m.q.r.r.r. XB.Z.C.C.C.C.C.C.C.C.C.C.C.C.C.C.C.C.C.C.C.C.",
"C.C.C.C.C.C.C.C.C.C.C.C.C.V.C.C.C.C.C.C.C.C.C.C.C.C.B. X8.w.6.*...Z.Z.Z.B.q.r.r.e.1.C.C.C.C.C.C.C.C.C.C.C.C.C.C.C.C.C.C.C.C.C.C.",
"C.C.C.C.C.C.C.C.C.C.C.C.C.C.C.C.C.C.C.C.C.C.C.C.C.Z.N.t.>.5.5.` x.Z.Z.Z.C.3.r.8.#.<.C.C.C.C.C.C.C.C.C.C.C.C.C.C.C.A.C.C.C.Z.C.C.",
"C.C.C.Z.C.C.C.C.C.C.C.C.C.C.C.C.C.C.C.C.C.C.C.C.C.C.m.2.;.%.4.[ x.Z.Z.Z.m.| w.w.+.} m.C.C.C.C.C.C.Z.C.C.C.C.C.C.C.C.C.C.C.C.C.C.",
"C.C.C.C.C.C.C.C.C.C.C.C.C.C.C.C.C.C.C.C.C.C.C.C.Z.Z.Z.<.%.:.;.] ..Z.Z.Z.C.} :.8.*.2.m.A.C.C.C.C.C.C.C.C.C.C.C.C.C.C.C.C.C.C.C.C.",
"C.C.C.C.C.C.C.C.C.C.C.C.C.C.C.C.C.C.C.C.C.C.C.C.C.C.C.M.8.7.0.=.o.C.C.C.A.z.;.0.6.9.m.C.C.C.C.C.C.C.C.C.C.C.C.C.C.Z.C.C.C.C.C.C.",
"C.C.C.C.C.C.C.C.C.C.C.C.C.C.C.C.C.C.C.C.C.C.C.C.C.C.C.D.q.e.w.5.O.C.C.C.A.b.,.0.0.7.N.C.C.C.C.C.C.C.C.C.C.C.C.C.C.C.C.C.C.C.C.C.",
"C.C.C.Z.C.C.C.C.C.C.C.C.C.C.C.C.C.C.C.C.C.C.C.C.C.C.C.m.q.e.w.5.X.C.C.C.C.C.<.:.6.6.v.C.C.C.Z.C.C.C.C.C.C.C.C.C.C.C.C.C.C.C.Z.C.",
"C.C.C.C.C.C.C.C.C.C.C.C.C.C.C.C.C.C.C.C.C.C.C.C.C.C.F.n.1.0.7.4.&.B.C.C.C.C.o.@.#.-.M.C.C.C.C.C.C.C.C.C.C.C.C.C.C.C.C.C.C.C.C.C.",
"C.C.C.C.C.C.C.C.C.C.C.C.C.C.C.C.C.C.C.C.C.C.C.C.C.C.C.C.v.4.4.-./ n.A.C.C.C.z.' #.#.O.F.C.C.C.C.C.C.C.C.C.C.C.C.C.C.C.C.C.C.C.C.",
"C.C.C.C.C.C.C.C.C.C.C.C.C.C.C.C.C.C.C.C.C.C.C.C.C.C.C.C.b.%.-.] W c.C.C.C.C.z.@.@.' &.C.C.C.C.C.A.C.C.C.C.C.C.C.C.C.C.C.C.C.C.C.",
"C.C.C.C.C.C.C.C.C.C.C.C.C.C.C.C.C.C.C.C.C.C.C.C.C.C.C.C.m.&.-.' W x.C.C.C.C.o.) _ ' | m.C.C.C.C.C.C.C.C.C.C.C.C.C.C.C.C.A.C.C.C.",
"C.C.C.C.C.C.C.C.C.C.C.C.C.C.C.C.C.C.C.C.C.C.C.C.C.C.C.C.b.[ ' ] ) ..C.C.C.C..._ ' ] _ v.C.C.C.C.C.C.C.C.C.C.C.C.C.C.C.C.C.C.C.C.",
"C.C.C.C.C.C.C.C.C.C.C.C.C.C.C.C.C.C.C.C.C.C.C.C.A.A.S.F.~ ` [ _ _  .C.C.C.C.x.` Q +.%.v.B.Z.C.C.C.C.C.C.C.C.C.C.C.C.C.C.C.C.C.C.",
"C.C.C.C.C.C.C.C.C.C.C.C.C.C.C.C.C.C.C.C.C.C.C.C.A.m.c.( [ ) ) _ _ ( C.C.C.C.c.^ T T ! x.C.C.C.Z.C.C.C.C.Z.C.C.C.C.C.C.C.C.C.C.C.",
"C.C.C.C.C.C.C.C.C.C.C.C.C.C.C.C.C.C.C.C.C.C.C.C.M.,.[ [ [ ) W _ / X.n.C.C.C.c.( Q ! R z.C.Z.C.C.C.C.C.C.C.C.C.C.C.C.C.C.C.C.C.C.",
"C.C.C.C.C.C.C.C.C.C.C.C.C.C.C.C.C.C.C.C.C.C.C.D. X,.;.&.( v.|.|.|.D.C.C.C.C.C.M.! +.` } m.B.C.C.C.C.C.C.C.C.C.C.C.C.C.C.C.Z.C.C.",
"C.C.C.C.C.C.C.C.C.C.C.C.C.C.C.C.C.C.C.C.C.C.C.H.#XoX+XoXXXJ.XXoX#XG.C.C.C.C.n.oX1.:.#.#.M.C.C.C.C.C.C.C.C.C.C.C.C.C.C.C.C.C.C.C.",
"C.C.C.C.C.C.C.C.C.C.C.C.C.C.C.C.C.C.C.C.C.C.C.C.Z.F.F.F.C.C.n.C.C.C.C.C.C.C.C.n.&X.X3..X+XC.C.C.Z.C.C.C.C.C.C.C.C.C.C.C.C.C.C.C.",
"F.C.F.C.A.A.A.A.A.A.C.C.C.F.F.C.Z.A.C.F.Z.Z.Z.A.C.F.Z.F.A.A.A.A.A.A.A.A.A.A.A.A.H.:X1X:XK.A.A.A.A.A.A.A.A.A.A.A.A.A.A.A.A.A.A.A.",
"Z.C.C.C.C.C.C.C.C.C.Z.Z.Z.C.C.C.C.C.C.C.C.C.C.C.C.Z.A.n.C.C.C.C.C.C.C.C.C.C.C.C.C.A.A.A.C.C.C.C.C.C.C.C.C.C.C.C.C.C.C.C.C.C.C.C."
};
