/* XPM */
static char *_1721607728[] = {
/* columns rows colors chars-per-pixel */
"64 64 209 2 ",
"   c #56311F",
".  c #6F3A1E",
"X  c #552D20",
"o  c #6B3A24",
"O  c #55433B",
"+  c #774D3A",
"@  c #3D5878",
"#  c #695448",
"$  c #785A49",
"%  c #715E55",
"&  c #73634A",
"*  c #77685F",
"=  c #B76618",
"-  c #BC7518",
";  c #854625",
":  c #934E2E",
">  c #A85428",
",  c #8F602E",
"<  c #B36C30",
"1  c #D67318",
"2  c #835B48",
"3  c #95654C",
"4  c #906A56",
"5  c #99765D",
"6  c #BA774D",
"7  c #A57255",
"8  c #8A7467",
"9  c #9B7967",
"0  c #827775",
"q  c #927E77",
"w  c #A67C63",
"e  c #B6972F",
"r  c #D48F19",
"t  c #E9A919",
"y  c #EEB315",
"u  c #D39531",
"i  c #D1B528",
"p  c #D4A834",
"a  c #EDB72B",
"s  c #F4CE1D",
"d  c #E4C724",
"f  c #F4C626",
"g  c #FCDC28",
"h  c #FAD937",
"j  c #FEE539",
"k  c #B08848",
"l  c #968278",
"z  c #AA846C",
"x  c #B5876C",
"c  c #A88C7E",
"v  c #B28C74",
"b  c #BC957A",
"n  c #CA974F",
"m  c #D99D49",
"M  c #C9895D",
"N  c #CEA75B",
"B  c #CA8A65",
"V  c #D4966F",
"C  c #C59678",
"Z  c #E39B6F",
"A  c #D2AA78",
"S  c #E8B766",
"D  c #EBA375",
"F  c #DCC44E",
"G  c #F4CE4D",
"H  c #D4C576",
"J  c #E5D571",
"K  c #3E6A9A",
"L  c #3F6DA2",
"P  c #45668E",
"I  c #4A688E",
"U  c #59718F",
"Y  c #456B97",
"T  c #496C94",
"R  c #536D90",
"E  c #4D729B",
"W  c #53749A",
"Q  c #597699",
"!  c #657188",
"~  c #707683",
"^  c #667B9A",
"/  c #446FA4",
"(  c #4775A8",
")  c #567AA6",
"_  c #4C7CB3",
"`  c #517FB2",
"'  c #867E80",
"]  c #73849B",
"[  c #778498",
"{  c #5D81A8",
"}  c #4C80B3",
"|  c #5382B4",
" . c #5785B6",
".. c #5C89B4",
"X. c #5D8DBC",
"o. c #6486AC",
"O. c #698CAC",
"+. c #778DA6",
"@. c #7893AF",
"#. c #628CB4",
"$. c #678DB6",
"%. c #6993B8",
"&. c #7497B9",
"*. c #77A0BF",
"=. c #6797C5",
"-. c #6B9BC4",
";. c #719DC4",
":. c #6FA0C6",
">. c #75A2C4",
",. c #7BA4C5",
"<. c #73A4CB",
"1. c #7DAACD",
"2. c #7AABD1",
"3. c #998C89",
"4. c #848B9A",
"5. c #8D929E",
"6. c #99969A",
"7. c #A69388",
"8. c #B99986",
"9. c #A39C9C",
"0. c #AA9C98",
"q. c #B39A93",
"w. c #B8A18C",
"e. c #B9A396",
"r. c #8D95A3",
"t. c #8796A8",
"y. c #9296A2",
"u. c #959AA5",
"i. c #9B9DA5",
"p. c #959CA9",
"a. c #9A9EA8",
"s. c #879DB3",
"d. c #A19EA2",
"f. c #9FA0A7",
"g. c #94A1AE",
"h. c #9DA3AD",
"j. c #89A3B9",
"k. c #96A7B6",
"l. c #A4A2A5",
"z. c #AAA2A2",
"x. c #A7A6AB",
"c. c #A8A7AB",
"v. c #A9A8AD",
"b. c #B7ABA6",
"n. c #ADADB1",
"m. c #B2B1B5",
"M. c #B4B1B5",
"N. c #B7B7B8",
"B. c #BBB9BC",
"V. c #C49C85",
"C. c #CAA58A",
"Z. c #D4A585",
"A. c #D7A889",
"S. c #DCB08F",
"D. c #C4A695",
"F. c #D5AD92",
"G. c #D8B497",
"H. c #E2AB85",
"J. c #E9AF88",
"K. c #E6B38C",
"L. c #F2B98E",
"P. c #EEB892",
"I. c #E6BA99",
"U. c #F1BC95",
"Y. c #C0AEA6",
"T. c #D5B9A6",
"R. c #C6BCB8",
"E. c #DAC686",
"W. c #F6C59D",
"Q. c #D3C8BA",
"!. c #E6CAAB",
"~. c #F2C5A3",
"^. c #80A7C8",
"/. c #90ADC3",
"(. c #9DB4C6",
"). c #81AED0",
"_. c #84B3D3",
"`. c #8BB6D3",
"'. c #8DB9D6",
"]. c #83B4D8",
"[. c #8DBBDA",
"{. c #94BBD5",
"}. c #BEBEC0",
"|. c #C0BEC1",
" X c #BFC0C1",
".X c #C3C3C4",
"XX c #C7C7C9",
"oX c #C8C8C9",
"OX c #CBCBCD",
"+X c #D3CCC8",
"@X c #DBD1CC",
"#X c #D1CFD1",
"$X c #CED3D7",
"%X c #D3D3D4",
"&X c #DAD7D8",
"*X c #DCDBDB",
"=X c #E2DBCB",
"-X c #E2DDDC",
";X c #DEDEE1",
":X c #DFE0E2",
">X c #E3E3E4",
",X c #E9E8E8",
"<X c #EBEAEB",
"1X c #EEEFF0",
"2X c #EFF0F2",
"3X c #F2F2F4",
"4X c #F6F7F9",
"5X c #F7F8FA",
"6X c #FAFAFC",
/* pixels */
"x.x.x.x.x.x.x.x.x.x.x.x.x.x.x.x.x.x.x.x.x.x.x.x.x.x.x.x.x.x.x.c.c.c.c.c.c.x.x.x.v.x.x.x.x.x.x.x.x.x.x.x.x.x.x.x.x.x.x.x.x.x.x.x.",
"x.x.x.x.x.x.x.x.x.x.x.x.x.x.x.x.x.x.x.c.x.x.x.x.x.x.x.x.c.c.d.c.x.x.c.d.c.x.x.x.x.x.x.x.x.x.x.x.x.x.x.x.x.x.x.x.x.x.x.x.x.x.x.x.",
"x.x.x.x.x.x.x.x.x.c.x.x.x.x.x.x.x.x.x.x.x.x.x.x.x.x.x.x.d.d.q 7 7 7 w 9.x.x.x.x.x.x.x.x.x.x.x.x.x.x.x.x.x.x.x.v.x.x.x.x.x.x.x.x.",
"x.x.x.x.x.x.x.x.x.x.x.x.x.x.x.x.x.x.x.x.x.x.x.x.x.x.x.x.6.$ ; > > < > 3 d.x.x.x.x.x.x.x.x.x.x.x.x.x.x.x.x.x.x.x.x.x.x.x.x.x.x.x.",
"x.x.x.x.x.x.x.x.x.x.x.x.x.x.x.x.x.x.x.x.x.x.x.x.x.x.v.d.q + ; ; ; . : > 9 d.n.c.x.x.x.x.x.x.x.x.x.x.x.x.x.x.x.x.x.v.x.x.x.x.x.x.",
"x.x.x.x.x.x.x.x.x.x.x.x.x.x.x.x.x.x.x.x.x.x.x.x.x.x.d.i.+ ; ; o   o X o > 3.c.c.x.x.x.x.x.x.x.x.x.x.x.x.x.x.x.x.x.x.x.x.x.x.x.x.",
"x.x.x.x.c.x.x.x.x.x.x.x.x.x.x.x.x.c.x.x.x.x.x.x.x.x.x.d.$ o o 2 $ w v + : 3.c.x.x.x.x.x.x.x.c.x.x.x.x.x.x.x.x.x.x.x.x.x.x.x.x.x.",
"x.x.x.x.x.x.x.x.x.x.x.x.c.x.x.x.x.x.x.x.x.x.c.x.x.x.x.x.' X 3 A.W.W.U.w $ d.x.x.x.x.x.x.x.x.x.x.x.x.x.x.x.x.x.x.x.x.x.x.x.x.x.x.",
"x.x.x.x.x.x.x.x.x.x.x.x.x.x.x.x.x.x.x.x.x.x.x.x.c.v.c.c.6.O 2 # b 9 # 2 0 x.x.x.x.x.x.x.x.x.x.x.x.x.x.x.x.x.x.x.x.x.x.x.x.x.x.x.",
"x.x.x.x.x.x.x.x.x.x.x.x.x.x.x.x.x.x.x.x.x.x.x.x.c.d.c.c.6.# 8 0 * * l * 0 x.x.x.x.x.x.x.x.x.x.x.x.x.x.x.x.x.x.x.x.x.x.x.x.x.x.x.",
"x.x.x.x.x.x.x.x.x.x.x.x.x.x.c.x.x.x.x.x.x.c.c.c.v.x.c.c.3.$ C.G.C.D.G.7.q l.x.x.x.x.x.x.x.x.x.x.x.x.x.x.x.x.x.x.x.x.x.x.x.x.x.x.",
"x.x.x.x.x.x.x.x.x.x.x.x.x.x.x.x.x.x.x.x.x.x.c.c.x.x.c.c.d.3.C S.A S.I.8.9.x.x.x.x.x.x.x.x.x.x.x.x.x.x.x.x.x.x.x.x.x.x.x.x.x.x.x.",
"x.x.x.x.x.x.x.x.x.x.x.x.x.x.x.x.x.x.x.x.x.x.x.x.x.x.x.x.x.l.F.P.Z.S.~.T.l.x.x.x.x.x.x.x.x.x.x.x.x.x.x.x.x.x.x.x.x.x.x.x.x.x.x.x.",
"x.x.x.x.x.x.x.x.x.x.x.x.x.x.x.x.x.x.x.x.x.x.x.x.x.x.x.x.x.x.q.A.A.I.~.b.x.x.x.x.x.x.x.x.x.x.x.x.x.x.x.x.x.x.x.x.x.x.x.x.x.x.x.x.",
"x.x.x.x.x.x.x.x.x.x.x.x.x.x.x.x.x.x.x.x.x.x.x.x.x.x.x.x.x.x.6.8 Z.S.e.x.x.x.x.x.x.x.x.x.x.x.x.x.x.x.x.x.x.x.x.x.x.x.x.x.x.x.x.x.",
"x.x.x.x.x.x.x.v.x.x.x.x.x.x.x.x.x.x.c.x.x.x.x.x.x.x.x.x.x.d.3.9 4 z A.9.x.x.x.x.x.x.x.x.x.x.x.x.x.x.x.x.x.x.x.v.x.x.x.x.x.x.x.x.",
"x.x.x.x.x.x.x.x.x.x.x.x.x.x.x.x.x.x.x.x.x.x.x.x.x.x.v.n.B.i.b D K.H.K.e.oX Xv.x.x.c.x.x.x.x.x.x.x.x.x.x.x.x.x.x.x.x.x.x.x.x.x.x.",
"x.x.x.x.x.x.x.x.x.x.x.x.x.x.x.x.x.x.x.x.x.x.x.x.x.m.XX:X3X*Xb.b Z.C w.+X2X5X<XOXv.x.x.x.x.x.x.x.x.x.x.x.x.x.x.x.x.x.x.x.x.x.x.x.",
"x.x.c.x.x.x.x.x.x.x.x.x.x.x.x.x.x.x.x.x.x.x.x.x.B.:X4X4X5X5X3X,X-X-X2X5X6X6X6X3XXXx.x.x.x.x.c.x.x.x.c.x.x.x.x.x.x.x.x.x.x.x.x.x.",
"x.x.x.x.x.x.x.x.x.x.x.x.x.x.x.x.x.x.x.x.x.x.x.m.>X2X3X2X3X4X5X3X=XE.!.<X6X6X5X3X2X}.x.x.x.x.x.x.x.x.x.x.x.x.x.v.x.x.x.x.x.x.x.x.",
"x.x.x.x.x.x.x.x.x.v.x.x.x.x.x.x.x.x.x.x.x.x.n.$X4X>X>X*X<X4X>XS f g j J &X6X3X,X1X;Xx.x.x.x.x.x.x.x.x.x.x.x.x.x.x.x.x.x.x.x.x.x.",
"x.x.x.x.x.x.x.v.x.x.x.x.x.x.x.x.x.x.x.x.x.x.B.1X4X%X&X$X,X2XG.y s d g j H <X<X*X;X1XM.x.x.x.x.x.x.x.x.x.x.x.x.x.x.v.x.x.x.x.x.x.",
"x.x.x.x.x.x.x.x.x.x.x.x.x.x.x.x.x.x.x.x.x.x.#X4X<X*X*X#X:X,XN y e & i g k $X<X,X-X4X#Xx.x.x.x.x.x.x.x.x.x.x.x.x.x.x.x.x.x.x.x.x.",
"x.x.x.x.x.x.x.x.x.x.x.x.x.x.x.x.x.x.x.x.x.n.;X,X<XQ.B.N.*X;Xn t n 3.e t - Y.+X#X&X1X-XM.x.x.x.x.x.x.x.x.x.x.x.x.x.x.x.x.x.x.x.x.",
"x.x.x.x.x.x.x.x.x.x.x.x.x.x.x.c.x.x.x.x.x.d.N.-X,X;Xl.6.%X>XA t d N < 1 1 < 7 |.,X-XY.c.c.c.x.x.x.x.x.x.x.x.x.x.x.x.x.x.x.x.x.x.",
"x.x.x.x.x.x.x.x.x.x.x.x.x.x.x.x.x.x.x.x.v.0.C C 8.b.l.l..X:X@Xm t y = > 6 q.z.v.7.V.C V.d.c.c.c.x.x.x.x.x.x.x.x.x.x.x.x.x.x.x.x.",
"x.x.x.x.x.x.x.x.x.x.x.x.x.x.x.x.x.x.x.x.x.D.P.A.V c d.9.b.R.+X}.k r - 8.-X#Xv.0.C I.~.I.b.d.v.c.x.x.x.x.x.x.x.x.x.x.x.x.x.x.x.x.",
"x.x.x.x.v.x.x.x.x.x.x.x.x.x.x.x.x.x.x.x.x.T.~.I.C 7.7.p n < u n p t a G !.oXz.F.P.P.~.!.v.v.v.c.x.x.x.x.x.x.x.x.x.x.x.x.x.x.x.x.",
"x.x.x.x.x.x.x.x.x.x.x.x.x.x.x.x.x.x.x.x.x.T.U.P.P.K.v r - r f h f f g h F w.G.U.L.J.A.Y.c.x.v.x.x.x.x.x.x.x.x.x.x.x.x.x.x.x.x.x.",
"x.x.x.x.x.x.x.x.x.x.x.x.x.x.x.x.x.x.x.x.c.b.A.J.L.P.J.< , k m a f h S S k # H.J.H.V.d.c.x.x.x.x.x.x.x.x.x.x.x.x.x.x.x.x.x.x.x.x.",
"x.x.x.x.x.x.x.x.x.x.x.x.x.x.x.x.x.x.x.x.x.x.l.8.A H.H.$ # B D Z n B D Z 5 O z 8.q.d.x.x.x.x.x.x.x.x.x.x.x.x.x.x.x.x.x.x.x.x.x.x.",
"x.x.x.x.x.x.x.x.x.x.x.x.x.x.x.x.x.x.x.x.x.x.c.c.d.0.7.% # x D B 3 M Z V 5 0 9.c.x.x.x.x.x.x.x.x.x.x.x.x.x.x.x.x.v.x.x.x.x.x.x.x.",
"v.x.x.x.x.x.x.x.x.x.x.x.x.x.x.x.x.x.x.x.x.x.x.x.x.x.c.i.l z Z M # 2 B M v oX|.x.x.x.x.x.x.x.x.x.x.x.x.x.x.x.x.x.x.x.x.x.x.x.x.x.",
"x.x.x.x.x.x.x.x.x.x.x.x.v.x.x.x.x.x.x.x.x.x.x.x.x.x.x.c.N.R.v 4 9 q 7.M.+X%X|.c.x.x.x.x.x.x.x.x.x.x.c.x.x.x.x.x.x.x.x.c.x.x.x.x.",
"x.x.x.x.x.x.x.x.x.x.x.x.x.x.x.x.x.x.x.x.x.x.x.x.x.x.l.g.6. X$X.XOX&X&X>X1XR.d.x.x.x.x.x.x.x.x.x.x.x.x.x.x.x.x.x.x.x.x.x.x.x.x.x.",
"x.x.x.x.x.x.x.x.x.x.x.x.x.x.x.x.x.x.x.x.x.x.x.x.x.x.u.{ Q g.OX*X,X1X2X1X$X^ R y.x.x.x.x.x.x.x.x.x.x.x.x.c.x.x.x.x.x.x.x.x.x.x.x.",
"x.x.x.x.x.x.x.x.x.x.x.x.x.x.x.x.x.x.x.x.x.x.x.x.x.x.y.W { *./.(.(.k.`. X{.;.U y.x.x.x.x.x.x.x.x.x.x.c.x.x.x.x.x.x.c.x.x.x.c.x.x.",
"x.x.x.x.x.x.x.x.x.x.x.x.x.x.x.x.x.x.x.x.x.x.x.x.x.x.u.U %.1.<.-.X.Q ..:.2.].O.5.x.x.x.x.x.x.x.x.x.x.x.x.x.x.x.x.x.x.x.x.x.x.x.x.",
"x.x.x.x.x.x.x.x.x.x.x.x.x.x.x.x.x.x.x.x.x.x.x.x.x.x.i.O.>.1.;...Q @ E #.<._.&.y.x.x.x.x.x.x.x.x.x.x.x.x.x.x.x.x.x.x.x.x.x.x.x.x.",
"x.x.x.x.x.x.x.x.x.x.x.x.x.x.x.x.x.x.x.x.x.x.x.x.x.x.i.*.1._.>.P ! ~ @ E $.].`.p.x.x.x.x.x.x.x.x.x.x.x.x.x.x.x.x.x.x.x.x.x.x.x.x.",
"x.x.x.x.x.x.x.x.x.x.x.x.x.x.x.x.x.x.x.x.x.x.x.x.x.x.y.O.`.'.1.{ 5.6.I X.2.[.[.k.x.x.x.x.x.x.x.x.x.x.x.x.x.x.x.x.x.x.x.x.v.x.x.x.",
"x.x.x.x.x.x.x.x.x.x.x.x.x.x.x.x.x.x.x.x.x.x.x.x.x.x.y.O.'.'._.o.f.h.! | 1.[.[.h.x.x.x.x.x.x.x.x.x.x.x.x.x.x.x.x.x.x.x.x.x.x.x.x.",
"x.x.x.x.x.x.x.x.x.x.x.x.x.x.x.x.x.c.x.x.c.x.x.x.x.x.u.>.'.'.1.+.l.x.4.( >.[.[.h.x.x.c.x.x.x.x.x.x.x.x.x.x.x.x.x.x.x.x.x.x.x.x.x.",
"x.x.x.x.x.x.x.x.x.x.x.x.x.x.x.x.x.x.x.x.x.x.x.x.x.x.y.,.'.'.1.r.x.c.p.) =.'.'.h.x.x.x.x.x.x.x.x.x.x.x.x.v.x.x.x.x.x.x.x.x.x.x.x.",
"x.v.x.x.x.x.x.x.x.x.x.x.x.x.x.x.x.x.x.c.x.x.x.x.x.x.r.,.[.[.^.a.x.x.f.) X._.'.h.x.x.x.x.x.x.x.x.x.x.x.x.x.x.x.x.x.x.x.x.x.x.x.x.",
"x.x.x.x.x.x.x.x.x.x.x.x.x.x.x.x.x.x.x.x.x.x.x.x.x.x.r.,.[.].j.a.x.x.l.^ ..].[.g.x.x.x.x.x.x.x.x.x.x.x.x.x.x.x.x.x.x.x.x.x.x.x.x.",
"x.x.x.x.x.x.x.x.x.x.x.x.v.x.x.x.x.x.x.x.x.x.x.x.x.x.5.,.)._.s.l.x.x.x.]  .].[./.x.x.x.x.x.x.x.x.x.x.x.x.x.x.x.x.x.x.x.x.x.x.x.x.",
"x.x.x.x.x.x.x.x.x.x.x.x.x.x.x.x.x.x.x.x.x.x.x.x.l.l.+.=.%.;.+.x.x.x.x.[ { <.[.j.x.x.x.x.x.x.x.x.x.x.x.x.x.x.x.x.x.x.x.x.x.x.x.x.",
"x.x.x.x.x.x.x.x.x.x.x.x.x.x.x.x.x.x.x.x.x.x.x.x.x.x.t.%.<.#.4.l.x.x.l.4.P ;.2.p.x.x.x.x.x.x.x.x.x.x.x.x.x.x.x.x.x.x.x.x.x.x.x.x.",
"x.x.x.x.x.x.x.x.x.x.x.x.x.x.x.x.x.x.x.x.x.x.x.x.x.x.y.%.$.` 5.x.x.c.c.5.E -.;.u.x.x.x.x.x.x.x.x.x.x.x.x.x.x.x.x.x.x.x.x.x.x.x.x.",
"x.x.x.x.x.x.x.x.x.x.v.x.x.x.x.x.x.x.x.x.x.x.x.x.x.x.r.%.-.$.p.x.x.x.x.5.` ;.2.t.x.x.x.x.x.c.x.x.x.x.x.x.x.x.x.x.x.x.x.x.x.x.x.x.",
"x.x.x.x.x.x.x.x.x.x.x.x.x.x.x.x.x.x.x.x.x.x.x.x.x.x.t.%.-.%.a.x.x.x.x.a.) =.<.s.x.x.x.x.x.x.x.x.x.x.x.x.x.x.x.x.x.x.x.x.x.x.x.x.",
"x.x.x.x.x.x.x.x.x.x.x.x.x.x.x.x.x.x.x.x.x.x.x.x.x.x.4...=.$.a.x.x.x.x.d.^ X.-.s.x.x.x.x.x.x.x.x.x.x.x.x.x.x.v.x.x.x.x.x.x.x.x.x.",
"x.x.x.x.x.x.x.x.x.x.x.x.x.x.x.x.x.x.x.x.x.x.x.x.v.l.] | X.o.l.x.x.x.c.c.^ ` =.@.x.x.x.x.x.x.x.x.x.x.x.x.x.x.x.x.x.x.x.x.x.x.x.x.",
"x.x.x.x.x.x.x.x.x.x.x.x.x.x.x.x.x.x.x.x.x.x.x.x.x.u.) |  .o.z.c.c.c.c.x.^ _ X.@.l.x.x.x.c.x.x.x.x.x.x.x.x.x.x.x.x.x.x.x.x.x.x.x.",
"x.x.x.x.x.x.x.x.x.x.x.x.x.x.x.x.x.x.x.x.x.x.x.x.x.u.) | } Q d.c.c.x.x.5.E _ } { i.x.x.x.x.x.x.x.x.x.x.x.x.x.x.x.x.v.x.x.x.x.x.x.",
"x.x.x.x.x.x.x.x.x.x.x.x.x.x.x.x.x.x.x.x.x.x.x.x.x.i.W Y E ^ f.x.x.c.x.5.P Y Y E u.c.x.c.x.x.x.x.x.x.x.x.x.x.x.x.x.x.x.x.x.x.x.x.",
"x.x.x.x.x.x.x.x.x.x.x.x.x.x.v.x.x.x.x.x.x.x.x.x.x.y.Q T P o.l.x.x.x.x.u.) Y P P 4.x.x.x.x.x.x.x.x.x.x.x.x.x.x.x.x.x.x.x.x.x.x.x.",
"x.x.x.x.x.x.x.x.x.x.x.x.x.x.x.x.x.x.x.x.x.x.x.x.f.] Y T R U a.x.x.x.x.a.W T P K U i.x.x.x.x.x.x.x.x.x.x.x.x.x.x.x.x.x.x.x.x.x.x.",
"x.x.x.x.x.x.x.x.x.x.x.x.x.x.x.x.x.x.x.x.x.x.x.x.5.T ( Y ..@.l.x.x.x.x.a.o.` / L / ] x.x.x.x.x.x.x.x.x.x.x.x.x.x.x.x.x.x.x.x.x.x.",
"x.x.x.x.x.x.x.x.x.x.x.x.x.x.x.x.x.x.x.x.x.x.v.r.{ _ L _ ) g.v.x.x.x.x.d.k.$._ ( _ } +.l.x.x.x.x.x.x.x.x.x.x.x.x.x.x.x.x.x.x.x.x.",
"x.x.x.x.x.x.x.x.x.x.x.x.x.x.x.x.x.x.x.x.v.x.n.n.&.$.,.g.n.m.n.x.x.x.x.x.l.n.k.&.%.;.j.N.x.x.x.x.x.x.x.x.x.x.x.x.x.x.x.x.x.x.x.x.",
"v.v.v.v.v.v.v.v.v.v.v.v.v.v.v.v.v.v.v.v.v.x.x. X}.N.oX}.n.v.c.c.n.x.c.v.c.v.M.|.XXoX.X}.v.v.v.v.v.v.v.v.v.v.v.v.v.v.v.v.v.v.v.v.",
"x.x.x.x.x.x.x.x.x.x.x.x.x.x.x.x.x.x.x.x.x.x.l.f.f.v.n.x.x.x.x.x.x.x.c.c.c.c.c.l.n.v.x.x.x.x.x.x.x.x.x.x.x.x.x.x.x.x.x.x.x.x.x.x."
};
