/* XPM */
static char *_11721607728[] = {
/* columns rows colors chars-per-pixel */
"64 64 207 2 ",
"   c #5A352C",
".  c #653E36",
"X  c #6B433B",
"o  c #71514A",
"O  c #69696A",
"+  c #77696A",
"@  c #AD7732",
"#  c #CC791A",
"$  c #855D53",
"%  c #8B6354",
"&  c #976552",
"*  c #B37050",
"=  c #8F6861",
"-  c #987366",
";  c #817779",
":  c #A97E6F",
">  c #B67C6A",
",  c #A98D38",
"<  c #D3891F",
"1  c #DE991B",
"2  c #EFB31B",
"3  c #D7982A",
"4  c #CF953D",
"5  c #D9AA2C",
"6  c #E4AD26",
"7  c #EFB924",
"8  c #EBC71F",
"9  c #FAD52A",
"0  c #F7D031",
"q  c #BA8749",
"w  c #B78C68",
"e  c #AC8877",
"r  c #B68777",
"t  c #C39E51",
"y  c #CEA14A",
"u  c #C3896A",
"i  c #CE9868",
"p  c #C78A75",
"a  c #CB927C",
"s  c #D3977D",
"d  c #CBB372",
"f  c #E3D056",
"g  c #3E5A8E",
"h  c #375F98",
"j  c #36609B",
"k  c #1858A8",
"l  c #1D61B0",
"z  c #2C63A7",
"x  c #376BAB",
"c  c #256AB8",
"v  c #2C6BBA",
"b  c #3569B1",
"n  c #2F73B6",
"m  c #3979BD",
"M  c #445F90",
"N  c #486597",
"B  c #5D6E91",
"V  c #6C7893",
"C  c #6A7A9A",
"Z  c #496DA9",
"A  c #5679AA",
"S  c #4676B7",
"D  c #667DA4",
"F  c #196CC7",
"G  c #1E74D2",
"H  c #216EC6",
"J  c #2373C5",
"K  c #2B76C3",
"L  c #2575CB",
"P  c #347BC3",
"I  c #307CCE",
"U  c #277CD1",
"Y  c #877F81",
"T  c #7F879B",
"R  c #5784B8",
"E  c #6A84AE",
"W  c #7889A7",
"Q  c #6788B4",
"!  c #7894B7",
"~  c #3584CC",
"^  c #3D87C9",
"/  c #2D83D2",
"(  c #368CD6",
")  c #3D90D5",
"_  c #3C93DA",
"`  c #4C86C3",
"'  c #4D8DCB",
"]  c #4B92CD",
"[  c #4493D3",
"{  c #4A96D5",
"}  c #4196DA",
"|  c #449ADD",
" . c #4B9EDC",
".. c #599AD9",
"X. c #6394CC",
"o. c #689BD2",
"O. c #4DA0DE",
"+. c #51A2DD",
"@. c #78A4CF",
"#. c #6AA4D9",
"$. c #4BA3E4",
"%. c #57A9E3",
"&. c #8D8C8E",
"*. c #978B87",
"=. c #888C9B",
"-. c #989294",
";. c #9B969A",
":. c #A88C86",
">. c #B38C83",
",. c #AD9188",
"<. c #B59187",
"1. c #A89997",
"2. c #AA9A97",
"3. c #A59B9C",
"4. c #BA9E95",
"5. c #ABA69B",
"6. c #B2A19F",
"7. c #BBA39D",
"8. c #828CA9",
"9. c #8694AC",
"0. c #8A93AA",
"q. c #9899A4",
"w. c #949AAB",
"e. c #9C9EA9",
"r. c #8295B3",
"t. c #8699B6",
"y. c #939CB1",
"u. c #A09EA3",
"i. c #9EA1AB",
"p. c #9BA5B6",
"a. c #A3A2A6",
"s. c #ABA3A4",
"d. c #A7A6AB",
"f. c #A9A6AA",
"g. c #A9A8AD",
"h. c #B1A6A6",
"j. c #B5AAA9",
"k. c #BAACA8",
"l. c #A9ABB4",
"z. c #B1AFB3",
"x. c #B7B3B7",
"c. c #BAB9BD",
"v. c #C69786",
"b. c #D79B85",
"n. c #D59E84",
"m. c #C49F93",
"M. c #DDA286",
"N. c #D6A48B",
"B. c #DEA48B",
"V. c #C5A598",
"C. c #DCAB95",
"Z. c #D6AA98",
"A. c #DCB19C",
"S. c #E1A48A",
"D. c #E4AA8E",
"F. c #E5AD92",
"G. c #E9AE92",
"H. c #EAB296",
"J. c #E6B398",
"K. c #EAB59A",
"L. c #F2BC9F",
"P. c #C7ADA3",
"I. c #CDAFA3",
"U. c #CAB3AA",
"Y. c #D9B4A2",
"T. c #E1B6A1",
"R. c #E3BBA6",
"E. c #ECBCA4",
"W. c #F1BCA1",
"Q. c #EEC4A9",
"!. c #F4C4A6",
"~. c #F3C7AB",
"^. c #E7C7BA",
"/. c #F4CAB2",
"(. c #8EA9C7",
"). c #9AACC5",
"_. c #91B1D3",
"`. c #9BB7D8",
"'. c #B3B9C3",
"]. c #BCBCC1",
"[. c #A2BBD5",
"{. c #C0BEC1",
"}. c #BAC7D6",
"|. c #B8CFE6",
" X c #C6C4C9",
".X c #CACACD",
"XX c #D4C8C6",
"oX c #C9CFD8",
"OX c #C5D0DF",
"+X c #D2D2D5",
"@X c #D6D6DA",
"#X c #DBDBDD",
"$X c #F1DDD3",
"%X c #C5D3E3",
"&X c #DCDDE1",
"*X c #DFE0E4",
"=X c #E2E2E5",
"-X c #E4E5E9",
";X c #E7E8EB",
":X c #EAEAED",
">X c #F5ECE8",
",X c #EDEEF1",
"<X c #F2F0F1",
"1X c #F2F3F6",
"2X c #F8F7F7",
"3X c #F5F6F9",
"4X c #FBFBFB",
/* pixels */
"d.d.d.d.d.d.d.d.d.d.d.d.d.d.d.d.d.d.d.d.d.d.d.d.d.d.d.d.d.d.d.d.d.d.d.d.d.d.d.d.d.d.d.d.d.d.d.d.d.d.d.d.d.d.d.d.d.d.d.d.d.d.d.d.",
"d.d.d.d.d.d.d.d.d.d.d.d.d.d.d.d.d.d.d.d.d.d.d.d.d.d.d.d.d.i.d.d.d.d.d.d.d.d.d.d.d.d.d.d.d.d.d.d.d.d.d.d.d.d.d.d.d.d.d.d.d.d.d.d.",
"d.d.d.d.d.d.d.d.d.d.d.d.d.d.d.d.d.d.d.d.d.d.d.d.f.f.d.d.5.d d 5.d.d.d.d.d.d.d.d.d.d.d.d.d.d.d.d.d.d.d.d.d.d.d.d.d.d.d.d.d.d.d.d.",
"d.d.d.d.d.d.d.d.d.d.d.d.d.d.d.d.d.d.d.d.d.d.d.d.d.f.g.u.y 8 9 f 5.i.d.d.d.d.d.d.d.d.d.d.d.d.d.d.d.d.d.d.d.d.d.d.d.d.d.d.d.d.d.d.",
"d.d.d.d.d.d.d.d.d.d.d.d.d.d.d.d.d.d.d.d.d.d.d.d.d.d.d.2.3 , , 7 e d.d.d.d.d.d.d.d.d.d.d.f.d.d.d.d.d.d.d.d.d.d.d.d.g.d.d.d.d.d.d.",
"d.d.d.d.d.d.d.d.d.d.d.d.d.d.d.d.d.d.d.d.f.d.d.d.d.d.d.2.3 5 @ # * 3.d.d.d.d.d.d.d.d.d.d.d.d.d.d.f.d.d.d.d.d.d.d.d.d.d.d.d.d.d.d.",
"d.d.d.d.d.d.d.d.d.d.d.d.d.d.d.d.d.d.d.d.d.d.d.d.d.d.u.u.e 3 # * *.i.d.d.d.d.d.d.d.d.d.d.d.d.d.d.d.d.d.d.d.d.d.d.d.d.d.d.d.d.d.d.",
"d.d.d.d.d.d.d.d.d.d.d.d.d.g.d.d.d.d.d.d.d.d.d.d.j.Y.C.q t 3 6 d R.U.d.d.d.d.d.d.d.d.d.d.d.d.d.d.d.d.d.d.d.d.g.d.d.d.d.d.d.d.d.d.",
"d.d.d.d.d.d.d.d.d.d.d.d.d.d.d.d.d.d.d.d.d.d.g.f.I.H.i < 7 9 9 0 w R.f.d.d.d.d.d.d.d.d.d.d.d.d.d.d.d.d.d.d.d.d.d.d.d.d.d.d.d.d.d.",
"d.d.d.d.d.d.d.d.d.d.d.d.d.d.d.d.d.d.d.d.d.d.g.u.Z.v.u 1 2 7 9 9 t Q.h.d.d.d.d.d.d.f.d.d.d.d.d.d.d.d.d.d.d.d.d.d.d.d.d.d.d.d.d.d.",
"d.d.d.d.d.d.d.d.d.d.d.d.d.d.d.d.d.d.d.d.d.d.d.f.Z.G.r y < 1 6 4 p E.k.d.d.d.d.d.d.d.d.d.d.d.d.d.d.d.d.d.d.d.d.d.d.d.d.d.d.d.d.d.",
"d.d.d.d.d.d.d.d.d.d.d.d.d.d.d.d.d.d.d.d.d.d.d.f.A.F.m.3.>.e 2.2.2.<.;.u.d.d.d.d.d.d.d.d.d.d.d.d.d.d.d.d.d.d.d.d.d.d.d.d.d.d.d.d.",
"d.d.d.d.d.d.d.d.d.d.d.d.d.d.d.d.d.d.d.d.d.d.g.k.E.m.u.f.f.d.d.g.f.-.I.k.f.f.d.d.d.d.d.d.d.d.d.d.d.d.d.d.d.d.d.d.d.d.d.d.d.d.d.d.",
"d.d.d.d.d.d.d.d.d.d.d.d.d.d.d.d.d.d.d.d.d.d.d.I.W.h.d.d.f.u.;.u.f.s.A.Q.j.d.d.d.d.d.d.d.d.d.d.d.d.d.d.d.d.g.d.d.d.d.d.d.d.d.d.d.",
"d.d.d.d.d.d.d.d.g.d.d.d.d.d.d.d.d.d.d.d.d.d.f.T.R.h.d.;.; o o + ;.f.Z.~.Q.g.f.f.d.d.d.d.d.d.d.d.d.d.d.d.d.d.d.d.d.d.d.d.d.d.d.d.",
"d.d.d.d.d.d.d.d.d.d.d.d.d.d.d.d.d.d.d.d.d.d.V.W.T.s.u.+   X . o o &.V.L./.I.f.f.d.d.d.d.d.d.d.d.d.d.d.d.d.d.d.d.d.d.d.d.d.d.d.d.",
"d.d.d.d.d.d.d.d.d.d.d.d.d.d.d.d.d.d.d.d.d.s.C.!.T.d.Y . & $ % %   + 7.J./.Q.j.d.d.d.d.d.d.d.d.d.d.d.d.d.d.d.d.d.d.d.d.d.d.d.d.d.",
"d.d.d.g.d.d.d.d.d.d.d.d.d.d.d.d.d.d.d.d.d.4.H.!.Y.d.+ . b.W.E.J.o + 5.v.K.!.P.d.d.d.d.d.d.d.d.d.d.d.d.d.d.d.d.d.d.d.d.d.d.d.d.d.",
"d.d.d.d.d.d.d.d.d.d.d.d.d.d.d.d.d.d.d.d.d.n.H.L.Z.d.Y . $ - : - o *.f.2.s L.A.d.d.d.d.d.d.d.d.d.d.d.d.d.d.d.d.d.d.d.d.d.d.d.d.d.",
"d.d.d.d.d.d.d.d.d.d.d.d.d.d.d.d.d.d.d.d.s.n.G.G.7.l.u.$ p > >.N.: 2.f.I.M.D.m.d.d.d.d.d.d.d.d.d.d.d.d.d.d.d.d.d.d.d.d.d.d.d.d.d.",
"d.d.d.d.d.d.d.d.d.d.d.d.d.d.d.d.d.d.d.d.s.S.G.b.h.l.u.= p p v.b.: 3.s.A.H.M.4.d.d.d.d.d.d.d.d.d.d.d.d.d.d.d.d.d.d.d.d.d.d.d.d.d.",
"d.d.d.d.d.d.d.d.d.d.d.d.d.d.d.d.d.d.d.d.s.b.F.E.R.h.d.-.p v.B.b.,.a.6.D.G.F.V.d.d.d.d.d.d.d.d.d.d.d.d.d.d.d.d.d.d.d.d.d.d.d.d.d.",
"d.d.d.d.d.d.d.d.d.d.d.d.d.d.d.d.d.d.g.d.u.r M.W.E.U.d.d.>.S.J.N.6.d.7.M.G.G.7.d.d.d.d.d.d.d.d.d.d.d.g.d.d.d.d.d.d.d.d.d.d.d.g.d.",
"d.d.d.d.d.d.d.d.d.d.d.d.d.d.d.d.d.d.g.g.g.2.p M.H.E.+Xz.:.> a b.I.c.XXn.d M.7.d.d.d.d.d.d.d.d.d.d.d.d.d.d.d.d.d.d.d.d.d.d.d.d.d.",
"d.d.d.d.d.d.d.d.d.d.d.d.d.d.d.d.d.d.d.d.d.u.v.S.s F.>X=X>.* p H./.-X=XA.a v.h.g.d.d.g.d.d.d.d.g.g.d.d.d.d.d.d.d.d.d.d.d.d.d.d.d.",
"d.d.d.d.d.d.d.d.d.d.d.d.d.d.g.d.d.d.d.d.d.g.u.v.s b.<X4X^.s G.E.>X2X,XXXr r s.d.d.d.d.d.d.d.d.d.d.d.g.d.d.d.d.d.d.d.d.d.d.d.d.d.",
"d.d.d.d.d.d.d.d.d.d.d.d.d.d.d.d.d.d.d.d.d.d.u.3.> U.;X4X2X/.!.$X2X4X2X&Xx.s.d.d.d.d.d.d.d.d.d.d.d.d.d.d.d.d.d.d.d.d.d.d.d.d.d.d.",
"d.d.d.d.d.d.d.d.d.d.d.d.d.d.d.d.d.d.d.d.d.g.g.d.d.z.@X4X4X2X>X4X4X4X4X:X.Xd.d.d.d.d.d.d.d.d.d.d.d.d.d.d.d.d.d.d.d.d.d.d.d.d.d.d.",
"d.d.d.d.d.d.d.d.d.d.d.d.d.d.d.d.d.d.g.u.g.g.d.d.g.l.@X3X4X&X#X#X.X,X3X,X+Xf.d.d.d.d.d.d.d.d.d.d.d.d.d.d.d.d.d.d.d.d.d.d.d.d.d.d.",
"d.d.d.g.d.d.d.d.d.d.d.d.d.d.d.d.d.d.d.d.d.g.d.d.u.g.{.,X@Xu.#X#X-.+X1X;X.Xf.d.d.d.d.d.d.d.d.d.d.d.d.d.d.d.d.d.d.d.d.g.d.d.d.d.d.",
"d.d.d.d.d.d.d.d.d.d.d.d.d.d.d.d.d.d.d.d.d.d.d.d.l.g.].&X+ &.c.q.d.=X,X&Xc.d.d.d.d.d.d.d.d.d.d.d.d.d.d.d.d.d.d.d.d.d.d.d.d.d.d.d.",
"d.d.d.d.d.d.d.d.d.d.d.d.d.d.d.d.d.d.d.d.d.d.d.d.f.f.z.{.{.g.O x.c.#X;X+Xg.d.d.d.d.d.d.d.d.d.d.d.d.d.d.d.d.d.d.d.d.d.d.d.d.d.d.d.",
"d.d.d.d.d.d.d.d.d.d.d.d.d.d.d.d.d.d.d.d.d.d.d.d.d.d.d. X=X:X.X@X+X+X-X.Xd.d.d.d.d.d.d.d.d.d.d.d.d.d.d.d.d.d.d.d.d.d.d.d.d.d.d.d.",
"d.d.d.d.d.d.d.d.d.d.d.d.d.d.d.d.d.d.d.d.d.d.d.d.d.d.d.c.#X,X,X;X;X-X-Xc.d.d.d.d.d.d.d.d.d.d.d.d.f.d.d.d.d.d.d.d.d.d.d.d.d.d.d.d.",
"d.d.d.d.d.d.d.d.d.d.d.d.d.d.d.d.d.d.d.d.d.d.d.d.d.d.d.c.&X;X,X1X1X,X:X].d.d.d.d.d.d.d.d.d.d.d.d.d.d.d.d.d.d.d.d.d.d.d.d.d.d.d.d.",
"d.d.d.d.d.d.d.d.d.d.d.d.d.d.d.d.d.d.d.d.d.d.d.d.d.d.d.'.=X,X3X1X,X1X:Xc.d.d.d.d.d.d.d.d.d.d.d.d.d.d.d.d.d.d.d.d.d.d.d.d.d.d.d.d.",
"d.d.d.d.d.d.d.d.d.d.d.d.d.d.d.d.d.d.d.d.d.d.d.d.d.d.g.].#X:X1X,X3X3X,X Xd.d.d.d.d.d.d.d.d.d.d.d.d.d.d.d.d.d.d.d.d.d.d.d.d.d.d.d.",
"g.d.d.d.d.d.d.d.d.d.d.d.d.d.d.d.d.d.d.d.d.d.d.d.d.d.l.+X&X-X,X1X3X3X3XoXd.d.d.d.d.d.d.d.d.d.d.d.d.d.d.d.g.d.d.d.d.d.d.d.d.d.d.d.",
"d.d.d.d.d.d.d.d.d.d.d.d.d.d.d.d.d.d.d.d.d.d.d.d.d.d.x.@X=X-X,X1X1X3X3X*Xg.d.d.d.d.d.d.d.d.d.d.d.d.d.d.d.d.d.d.d.d.d.d.g.d.d.d.d.",
"d.d.d.d.d.d.d.d.d.d.d.d.d.d.d.d.d.d.d.d.d.d.d.d.d.d.y.).}.OX%X}.%X%X|.).g.d.d.d.d.d.d.d.d.d.d.d.d.d.d.d.d.d.d.d.d.d.d.d.d.d.d.d.",
"d.d.d.d.d.d.d.d.d.d.d.d.d.d.d.d.d.d.d.d.d.d.d.d.d.u.Q I ~ ~ ~ ~ ~ ( ( ] i.d.d.d.d.d.d.d.d.d.d.d.d.d.d.d.d.d.d.d.d.d.d.d.d.d.d.d.",
"d.d.d.d.d.d.d.d.d.d.d.d.d.d.d.d.d.d.d.d.d.d.d.d.d.e.` } ( U J L / _ _ } p.d.d.d.d.d.d.d.d.d.d.d.d.d.d.d.d.d.d.d.d.d.d.d.d.d.d.d.",
"d.d.d.d.d.d.d.d.d.d.d.d.d.d.d.d.d.d.d.d.d.d.d.d.g.w.'  .[ c h h K } $.} t.g.d.d.d.d.d.d.d.d.d.d.d.d.d.d.d.d.d.d.d.d.d.d.d.d.d.d.",
"d.d.d.d.d.d.d.d.d.d.d.d.d.d.d.d.d.d.d.d.d.d.d.d.g.0.] +.[ c C V n O.%.} t.d.d.d.d.d.d.d.d.d.d.d.d.d.d.d.d.d.d.d.d.d.d.d.d.d.d.d.",
"d.d.d.d.d.d.d.d.d.d.d.d.d.d.d.d.d.d.d.d.d.d.d.d.g.9.{  .( P 0.=.z { %.O.! g.d.d.d.d.d.d.d.d.d.d.d.d.d.d.d.d.d.d.d.d.d.d.d.d.d.d.",
"d.d.d.d.d.d.d.d.d.d.d.d.d.d.d.d.d.d.d.d.d.d.d.d.u.! { | I S e.u.N ) +.[ t.f.d.d.d.d.d.d.d.d.d.d.d.d.d.d.d.d.d.d.d.d.d.d.d.d.d.d.",
"d.d.d.d.d.d.d.d.d.d.d.d.d.d.d.d.d.d.d.d.d.d.d.d.d.W [ } U D d.d.C ^ +._ ! f.f.d.d.d.d.d.d.d.d.d.d.d.d.d.d.d.d.d.d.d.d.d.d.d.d.d.",
"d.d.d.d.d.d.d.d.d.d.d.d.d.d.d.d.d.d.d.d.d.d.d.d.g.W { _ I 9.d.d.T m O._ t.g.f.d.d.d.d.d.d.d.d.d.d.d.d.d.d.d.g.d.d.d.d.d.d.d.d.d.",
"d.d.d.d.d.d.d.d.d.d.d.d.d.d.d.d.d.d.d.d.d.d.d.d.u.! { ( P w.g.f.=.z O.O.! d.d.d.d.d.d.d.d.d.d.d.d.d.d.d.d.d.d.d.d.d.d.d.d.d.d.d.",
"d.d.d.d.d.d.d.d.d.d.d.d.d.d.d.d.d.d.g.d.d.d.d.d.g.Q  .~ m y.f.f.i.j ] +.! f.d.d.d.d.d.d.d.d.d.d.d.d.d.d.d.d.d.d.d.d.d.d.d.d.d.d.",
"g.d.d.d.d.d.d.d.d.d.d.d.d.d.d.d.d.d.d.d.d.d.d.d.s.E [ P D l.g.g.a.B x ] Q i.d.d.d.d.d.d.d.d.d.d.d.d.d.d.d.d.d.d.d.d.d.d.d.d.d.d.",
"d.d.d.d.d.d.d.d.d.d.d.d.d.d.d.d.d.d.d.d.d.d.d.d.u.A ^ P D d.d.g.i.T n ^ ' i.d.d.d.d.d.d.d.d.d.d.d.d.d.d.d.d.d.d.d.d.d.d.d.d.d.d.",
"d.d.d.d.d.d.d.d.d.d.d.d.d.d.d.d.d.d.d.d.f.l.g.g.e.R ~ L Q u.g.u.a.E n ( ) w.d.d.d.d.d.d.d.d.d.d.d.d.d.d.d.d.d.d.d.d.d.d.d.d.d.d.",
"d.d.d.d.d.d.d.d.d.d.d.d.d.d.d.d.d.d.d.d.d.u.g.g.u.m U G Q g.f.f.d.T J / I p.d.d.d.d.d.d.d.d.d.d.g.d.d.d.d.d.d.d.d.d.d.d.d.g.d.d.",
"d.d.d.d.d.d.d.d.d.d.d.d.d.d.d.d.d.d.d.d.d.d.g.u.e.b G H r.u.z.f.d.;.c G J 9.d.d.g.d.d.d.d.d.d.d.d.d.d.d.d.d.d.d.d.d.d.d.d.d.d.d.",
"d.d.d.d.d.d.d.d.d.d.d.d.d.d.g.d.d.d.d.d.d.d.g.g.8.l F v w.g.u.l.d.i.g F J ! d.d.d.d.d.d.d.d.d.d.d.d.d.d.d.d.d.d.d.d.d.d.d.d.d.d.",
"d.d.d.d.d.d.d.d.d.d.d.d.d.d.d.d.d.d.d.d.d.d.d.u.D c F z w.d.d.d.d.i.Z k c R d.d.d.d.d.d.d.d.d.d.g.i.d.d.d.d.d.d.d.d.d.d.d.d.d.d.",
"d.d.d.d.d.d.d.d.d.d.d.d.d.d.d.d.d.d.d.d.d.d.d.q.Z k l b i.d.d.d.f.i.M k k Z i.d.d.d.d.d.d.d.d.d.d.g.d.d.d.d.d.d.d.d.d.d.d.d.d.d.",
"d.d.d.d.d.d.d.d.d.d.d.d.d.d.d.d.d.d.d.f.d.d.d.e.x c l n w.d.d.d.d.i.N l J v 0.d.d.d.g.d.d.d.d.d.d.d.d.d.d.d.d.d.d.d.d.d.d.d.d.d.",
"d.d.d.d.d.d.d.d.d.d.d.d.d.d.d.d.d.d.d.l.d.d.g.'._.` x Z i.d.d.d.d.i.B l ..`.p.d.d.d.d.d.d.d.d.d.d.d.d.d.d.d.d.d.d.d.d.d.d.d.d.d.",
"d.d.d.d.d.d.d.d.d.d.d.d.d.d.d.d.u.g.g.u.d.d.).[._.{ ` D d.d.d.d.d.a.=.j o.|.'.d.d.d.d.d.d.d.d.d.d.d.d.d.d.d.d.d.d.d.d.d.d.d.d.d.",
"d.d.d.d.d.d.d.d.d.d.d.d.d.d.d.d.g.g.g.g.y.#.....X.X.o.(.d.d.d.d.d.a.q.N Q ..#.@.p.g.d.d.d.d.d.d.d.d.d.d.d.d.d.d.d.d.d.d.d.d.d.d.",
"g.g.g.g.d.g.g.g.g.g.g.g.g.g.l.g.g.g.g.l.i.).[.[.).l.'.z.d.g.g.d.d.l.d.q.=.! @.(.p.g.g.g.g.g.g.g.g.g.g.g.g.g.g.g.g.g.g.g.g.g.g.g.",
"d.d.d.d.d.d.d.d.d.d.d.d.d.d.d.d.g.g.u.j.u.u.u.g.l.g.u.d.d.d.d.d.d.d.d.a.i.d.d.a.u.g.i.d.d.g.d.d.d.d.d.d.d.d.d.d.d.d.d.d.d.d.d.d."
};
