/* XPM */
static char *_61721607729[] = {
/* columns rows colors chars-per-pixel */
"64 64 252 2 ",
"   c #5D3A32",
".  c #653E36",
"X  c #6B433B",
"o  c #745345",
"O  c #6E6968",
"+  c #B57F26",
"@  c #CC7A1A",
"#  c #875D50",
"$  c #8D6553",
"%  c #B4724E",
"&  c #92776D",
"*  c #AD7E6D",
"=  c #B2952D",
"-  c #D9931C",
";  c #E09F1B",
":  c #EBAF1B",
">  c #D4982D",
",  c #D8AA2E",
"<  c #E7B326",
"1  c #EBC71E",
"2  c #F9D32C",
"3  c #958267",
"4  c #B78A73",
"5  c #B3A366",
"6  c #DAB854",
"7  c #CA916B",
"8  c #C68A75",
"9  c #D3977D",
"0  c #E68F7C",
"q  c #F69F7F",
"w  c #D5A77C",
"e  c #DDBA79",
"r  c #E9AE79",
"t  c #F6A47D",
"y  c #F6AB7A",
"u  c #F7BC76",
"i  c #F6B479",
"p  c #F6BB7A",
"a  c #F8BD78",
"s  c #E6CD47",
"d  c #EAD65A",
"f  c #DDD37E",
"g  c #F8CD6E",
"h  c #E7D36D",
"j  c #F9D46D",
"k  c #F4DA6D",
"l  c #F9DB6B",
"z  c #E7C976",
"x  c #F7C777",
"c  c #F8C373",
"v  c #F8CB71",
"b  c #EBD779",
"n  c #F5D577",
"m  c #F6E565",
"M  c #F9EA66",
"N  c #F6E36B",
"B  c #F9E469",
"V  c #F9EA6A",
"C  c #EDE177",
"Z  c #F7E474",
"A  c #FAEC74",
"S  c #FAED7C",
"D  c #375F98",
"F  c #1858A8",
"G  c #2761A8",
"H  c #296BB5",
"J  c #3570B2",
"K  c #526990",
"L  c #6D7790",
"P  c #4972A9",
"I  c #667CA1",
"U  c #1A6CC7",
"Y  c #1E74D2",
"T  c #2675C7",
"R  c #2C79C9",
"E  c #B67396",
"W  c #E45D8F",
"Q  c #F25A95",
"!  c #CE6988",
"~  c #D6699C",
"^  c #F36E8F",
"/  c #F4748C",
"(  c #F47C89",
")  c #E46999",
"_  c #F26492",
"`  c #F36A90",
"'  c #EE7592",
"]  c #E57895",
"[  c #779097",
"{  c #5384B8",
"}  c #6891B7",
"|  c #3885CB",
" . c #368DD7",
".. c #388DD5",
"X. c #3F9BE0",
"o. c #5192CF",
"O. c #4697D8",
"+. c #6699CF",
"@. c #4FA1DD",
"#. c #70A3D3",
"$. c #54A8E3",
"%. c #939094",
"&. c #B38C8A",
"*. c #A7999A",
"=. c #B9999B",
"-. c #96A699",
";. c #B5A68A",
":. c #A8A697",
">. c #B7A699",
",. c #B3B697",
"<. c #8796A9",
"1. c #AA99A4",
"2. c #B99AA5",
"3. c #B795A9",
"4. c #91A6A9",
"5. c #A7A4A6",
"6. c #ABA2A6",
"7. c #A7A6AB",
"8. c #AAA5AA",
"9. c #ABA9AD",
"0. c #B3A5A5",
"q. c #BAA6A7",
"w. c #B5AAA6",
"e. c #BCACA2",
"r. c #B3A3AA",
"t. c #B2ABAB",
"y. c #B9B3AA",
"u. c #ABAAB3",
"i. c #B5AEB3",
"p. c #ACB0B8",
"a. c #B9B5B6",
"s. c #C7998A",
"d. c #D59A84",
"f. c #D38E94",
"g. c #D49797",
"h. c #F48486",
"j. c #F58C85",
"k. c #F38689",
"l. c #F59482",
"z. c #F69B81",
"x. c #F5968C",
"c. c #F38797",
"v. c #EB9291",
"b. c #CAAD88",
"n. c #DAA688",
"m. c #DAB789",
"M. c #C8A99A",
"N. c #D6AA95",
"B. c #C7B498",
"V. c #D6B996",
"C. c #E5A98B",
"Z. c #F6A482",
"A. c #F6AB82",
"S. c #F6A78B",
"D. c #E8B884",
"F. c #F7B786",
"G. c #E6AA93",
"H. c #F4A794",
"J. c #E8B597",
"K. c #F5BB98",
"L. c #C98BA3",
"P. c #C89AA3",
"I. c #DB93AA",
"U. c #EC91AE",
"Y. c #CAABA6",
"T. c #D8A9A6",
"R. c #C5B7A7",
"E. c #D7B5A5",
"W. c #C6ACB5",
"Q. c #C5B8B5",
"!. c #D8BDB7",
"~. c #EAADAB",
"^. c #E8BAA6",
"/. c #F2B8A3",
"(. c #BCC398",
"). c #CFC78D",
"_. c #D8C588",
"`. c #D7C596",
"'. c #E4C786",
"]. c #F9C688",
"[. c #EBD588",
"{. c #F7D889",
"}. c #EBC292",
"|. c #F7C997",
" X c #E9D797",
".X c #F8D596",
"XX c #F9DC93",
"oX c #F9DD9A",
"OX c #FBEE83",
"+X c #F8E38A",
"@X c #FAED8C",
"#X c #FBF08E",
"$X c #FBE39B",
"%X c #FAE798",
"&X c #FBF195",
"*X c #FBF19C",
"=X c #D0CAAB",
"-X c #D7C9A8",
";X c #CBC3B7",
":X c #D4C9B7",
">X c #EAC8A8",
",X c #F3C8A5",
"<X c #E8D9A7",
"1X c #F7D9A6",
"2X c #E7CAB9",
"3X c #F3C9B2",
"4X c #E7D8B8",
"5X c #F4D7B4",
"6X c #FCE3A3",
"7X c #FBECA3",
"8X c #F7E6A9",
"9X c #FCEBAB",
"0X c #FBF1A5",
"qX c #FBF2AC",
"wX c #EDE2B0",
"eX c #FCEDB3",
"rX c #F7E9B9",
"tX c #FCF3B3",
"yX c #FCF4BB",
"uX c #90AECE",
"iX c #ACBBCD",
"pX c #CDBBC2",
"aX c #E2AEC1",
"sX c #B9CDE1",
"dX c #C9C6C6",
"fX c #D5CBC4",
"gX c #CFD3D3",
"hX c #D8D8D9",
"jX c #E5DBC5",
"kX c #E8DCD4",
"lX c #EAE7C9",
"zX c #F6E9C5",
"xX c #FCF5C3",
"cX c #FCF8C5",
"vX c #F7F4CC",
"bX c #FBFACC",
"nX c #E8E8D7",
"mX c #F0EFDB",
"MX c #FBFAD3",
"NX c #F4F6DD",
"BX c #F9F6D8",
"VX c #F7F8DC",
"CX c #D2D8E2",
"ZX c #E4E5E7",
"AX c #EAEAED",
"SX c #F9EDE8",
"DX c #ECF3E5",
"FX c #F6F2E5",
"GX c #EDEEF1",
"HX c #F2F3F6",
"JX c #F6F6F8",
"KX c #FBFBFB",
/* pixels */
"7.) U.pX8.8.8.7.7.7.7.1.! q y i u u c v N.7.7.7.5.w B B M M k e.7.7.5.z m B l l n M.7.7.7.7.N.i i y y t z.l.v.3.7.7.7.7.7.7.7.7.",
"7.) Q ] i.8.8.u.7.7.7.7.E f.i u u c g g D.7.7.7.7.b.B B M M Z y.7.7.5.b M B B B b t.7.7.7.6.e u p i y y Z.z.g.5.7.7.7.7.7.7.7.7.",
"p.) Q ) aXi.7.7.7.7.7.7.1.! i u c v g j n q.9.7.7.b.M M h s s ,.7.7.>.b M M m M '.7.7.7.7.M.c c c u i y t v.r.7.7.7.7.7.7.7.7.7.",
"u.) Q _ ' aXu.7.7.7.7.7.7.&.0 u v g g j k V.7.7.7.>.l m < 1 2 s :.7.w.N M M M M _.8.7.7.6.D.v v c u i i Z.M.8.7.7.7.7.7.7.7.7.7.",
"8.) _ ^ / c.aXu.7.7.7.7.7.7.&.u g g l l l [.8.7.7.1.b d ; = = : 3 5.>.N M M M B B.7.7.8.e.x j v c c u i N.2.7.7.7.7.7.7.7.7.7.8.",
"7.) _ / ( ( c.pX7.7.7.7.7.7.1.r g j j l B N e.7.9.1.z d ; , = @ % *.B.B M M M N >.8.7.9.m.l j j g c x A.2.7.7.7.7.7.7.7.7.6.I.2.",
"7.) ` / ( h.h.H.Q.7.7.7.7.7.1.&.j l l l B M `.7.7.6.e d 6 ; + % *.1.B.M M M M b 9.5.7.0.z l l j g v u N.6.7.7.7.7.7.7.7.3.I.] P.",
"7.] ` / ( h.j.l.~.a.7.7.7.7.7.1.r l l B M M b 7.w.E.D.> , > : e E.R.b.M M M M '.8.7.7.N.N B l j g g r e.7.7.7.7.7.7.7.3.I.c.( 2.",
"8.] ^ / ( h.j.l.x./.a.u.8.7.7.8.s.l B B M M N Y.Y.G.9 > < 2 2 2 7 E._.M M V M V.7.7.5.'.M B l l j v N.7.7.7.7.7.7.7.2.I.c.k.( P.",
"8.' / ( h.h.l.z.Z.S.~.i.7.7.7.7.1.e B V M M V `.N.s.7 - : 1 2 2 7 J.'.M M M Z B.7.7.M.N M B l l j '.6.7.7.7.7.7.7.r.T.x.l.j.( P.",
"8.] / ( h.j.z.z.Z.y A.!.u.7.7.7.5.s.B M M M V b N.G.4 > - - : > 8 ,X[.V A V k w.7.8._.M M M B l n M.7.7.7.7.7.7.r.I.S.z.l.j.h.=.",
"7.] / ( h.j.z.z.t y i F.!.7.7.7.5.1.z A A A S S J.G.s.z 6 6 h ).*.&.;.C S S [.9.7.w.b A A A N l '.8.7.7.7.7.7.r.T.H.t z.l.j.k.=.",
"7.] / ( h.j.z.z.Z.y i a ].Q.8.8.7.8.s.A S S S +X}.s.6.'.S S OX X7.%.B. XS OX`.5.8.`.S S S A Z {.e.7.7.7.7.5.r.~.F.y t q z.j.j.P.",
"7.] ( ( j.j.z.z.t y i a x ,XQ.8.7.7.1.'.S S S XX,Xq.7.-XOXC C  Xw.>.J.,X@X#X=X7.9. XS S S S OXV.8.7.7.7.7.q.T.F.i y y Z.z.l.j.=.",
"7.L.' k.j.j.z.t t i a a x v >Xi.7.7.7.M.OXOX+X|.,XR.7.>.5 $ o 3 *.,.}.3X,X$Xy.7.R.@XOXOX#XOX[.y.7.7.7.7.t.E.].a i i y t z.l.j.P.",
"7.5.3.c.j.j.z.Z.y i a x ].n {.4Xu.7.7.7. X@X[.^.|.-X:.O . X X X o :.D.>X3X Xw.8.-X#X&X#X#X@XR.8.7.7.8.r.^.].x a p i y t z.l.j.=.",
"7.7.7.2.f.j.z.A.A.F.F.].{.{.{.+X4Xu.7.7.R.%XD.,X|.<X3 . $ $ $ $   & [.J.3X,Xe.y.%X&X&X&X&X<Xw.7.7.8.q.^.{.n ].x a F.y t Z.l.j.P.",
"7.7.7.7.r.g.z.A.F.F.].].{.{.XX+X$X:X8.7.9.V.J.,X>XqX& . d.>X^.G.X 3 8Xb.J.,XY.-X0X0X*X*X8Xy.7.7.7.u.2XoX+X{.{.x ].F.A.Z.Z.z.j.P.",
"7.7.7.7.7.6.T.H.F.|.|.|..XXXXX+X%X9XQ.7.8.d.J./.|.tX:.  # & * & # ;.tX Xd.K.E.wXqXqX0X0X-X7.7.7.t.:X$X+XXX{.{.].].F.F.A.S.v.P.6.",
"7.7.7.7.7.8.8.E.K.].|..X.XXX$X%X%X*XwXt.6.d.J.G.<XtX<X# 4 4 4 N.4 `.tX1Xn.C.N.qXqXqXqXwXy.7.8.i.2X7X%X$XXXoXXX.X|.].|.K.G.P.8.8.",
"7.7.7.7.7.7.7.u.W.,X.X.XoXoX$X$X7X*X0X:Xw.C.G.n.8XyXrX* 8 8 d.d.4 =X8XJ.J.n.V.yXtXtXtX:X9.7.y.4X7X*X*X$X$XoXXXoX|.|.K.!.r.7.7.7.",
"7.7.7.7.7.7.8.8.8.Q.3XoX1X6X6X7X0XqXqXtX=Xd.G./.3XxXcXR.8 d.N.d.=.lXwXJ.J.G.>XyXcXyXwXu.9.u.:XqXqX0X7X7X6X6X1XoX1X>XW.7.7.7.7.7.",
"7.7.7.7.7.7.7.7.7.7.i.4X1X6X9X9XqXtXtXyXrXs.d./.,X5XcXBXT.d.J.N.jXvX-Xn.C.G.>XcXcXxXfX7.u.:XyXtXtXqXqX9X7X1X1X1X!.W.7.7.7.7.7.7.",
"7.7.7.7.7.7.7.7.7.7.8.i.2X9XeXeXtXtXyXcXcX4X9 C.J./.mXMX!.* 8 d.2XmXfXd.d.C.4XMXbXBXdXu.:XyXyXyXtXtXtXtXeX9X5X;Xw.8.7.7.7.7.7.7.",
"7.7.7.7.7.7.7.9.7.7.7.7.9.:XzXtXtXyXxXbXbXbXN.n.d.N.SXSXM.% 8 G.3XGXZXT.9 d.lXcXMXSXkXnXvXcXxXxXyXyXyXrXrX4Xa.7.7.7.7.7.7.7.7.7.",
"7.7.7.7.7.7.7.7.7.7.7.7.7.9.:XzXxXxXbXbXMXMXwXd.9 N.HXKX2Xd.G./.SXJXGXfX4 n.vXMXFXSXFXMXvXbXbXbXcXvXxXzXfXi.8.7.7.7.7.7.7.7.7.7.",
"7.7.7.7.7.7.7.7.7.7.7.7.7.7.7.;XjXvXMXMXMXMXMXjXs.Y.ZXKXJX3X,XkXKXKXJXhXa.jXVXVXSXDXVXBXVXDXVXBXBXDXnXQ.8.8.7.7.7.7.7.7.7.7.7.7.",
"7.7.7.7.7.7.7.7.7.7.7.7.7.7.7.a.jXBXBXMXMXMXMXMXlXdXhXKXKXJXSXKXKXKXJXGXhXmXNXVXVXVXVXBXVXVXVXVXVXVXNX7.7.8.7.7.7.7.7.7.7.7.7.7.",
"7.7.7.7.7.7.7.7.7.7.8.7.i.:Xa.lXMXMXMXMXMXMXBXBXbXfXgXJXKXZXZXhXdXGXJXGXnXFXFXDXFXVXVXDXFXVXVXFXDXDXlX7.7.7.7.7.7.7.7.7.7.7.7.7.",
"7.7.7.7.7.7.7.7.7.7.8.a.lXzXzXbXbXbXMXMXMXVXSXBXMXlXdXGXgX5.hXhX%.gXHXZXnXMXBXSXSXBXMXMXbXbXbXxXnXlX4Xa.7.8.7.7.7.9.7.7.7.7.7.7.",
"7.7.7.7.7.7.7.7.7.9.a.lXeXyXyXcXbXbXbXMXMXSXSXBXMXvXdXhXO %.a.-.9.ZXAXZXmXbXbXFXSXmXMXbXcXcXcXxXxXzXrXlXpXu.7.7.7.7.7.7.7.7.7.7.",
"7.7.7.7.7.7.7.7.9.a.5XeXeXtXtXyXcXcXcXbXhX;XlXbXbXMXdXdXiX9.O a.iXhXAXhXvXMXbXMXSXVXmXvXxXyXyXyXeXeXrXxXzX2Xi.7.7.7.7.7.7.7.7.7.",
"7.7.7.7.7.8.8.9.Q.5X6X9XeXqXtXtXyXyXcXjXp.p.lXbXbXvXnXdXZXAXdXhXgXhXZXgXvXbXcXcXlXa.7.Q.zXyXtXtXeXeXyXyXyXrX3XT.i.8.7.7.7.7.7.7.",
"7.7.7.7.7.8.9.Q.5X6X1X6X9XqXqXqXtXtXjX9.7.=XcXcXbXvXdXdXCXGXGXAXAXZXZXdXjXcXcXcXxX;X7.7.a.rXtX9X9XtXtXeXeX9X5X5X~.r.7.9.7.7.7.7.",
"7.7.7.7.7.7.!.,X.XoX$X6X6X7XqXqXqXwXa.7.y.rXyXyXyXjXi.dXCXGXHXHXHXAXAXdX;XyXtXyXtXrXi.7.7.:X9X9X9XqXqX9X9X7X6X1X5X~.Y.9.7.7.7.7.",
"7.7.8.5.9.!.|.|..XoXoX$X%X*X*X9XwXp.7.u.=XtXtXyXtX;Xy.fXZXGXHXHXSXHXAXdX9.wXtXtXqXtX;X7.7.9.!.8X6X0X0X7X6X6X6XoX1X,X~.I.r.7.7.7.",
"7.7.7.8.T.K.F.|.|..XXX$X$X%X*XzX:X7.7.y.wXqXqXqX4X9.;X;XCXGXHXHXHXJXHXfX9.:XqXqX0XqX8Xy.7.7.5.=X1X0X*X*XoXoXXXXX.X|.K.K.M.3.1.8.",
"7.7.1.N.H.F.K.].|.{.{.XX+X%XyXkXp.9.9.=X0X0X0XqX=X7.:XhXCXZXGXHXKXJXHXnX9.y.qX*X0X*X*X-X7.7.7.7.R.1X*X&X%XXXXX.X|.|.].K.H.d.L.8.",
"u.3.g.x.Z.A.F.F.].].{.XX+X9XZXa.7.7.y.8X*X*X*X*XQ.7.:XhXZXZXGXHXHXHXHXDXy.9.<X*X*X*X&X8XR.7.7.7.9.E.5X%X{.+X{.{.].].F.F.Z.q g.7.",
"3.f.j.z.t A.F.x ].{.n {.$XmXQ.7.7.7.=X&X&X*X&X8Xt.u.(.uXiXgXCXsXCXsXsXiX;X7.y.*X&X&X&X&X X9.7.7.9.6.T.,X+X{.{.].x F.F.y z.q M.7.",
"] k.l.l.z.t i p a x {.{.zXgX7.7.7.>.+X#X#X#X#X-X7.9.<.| | | | |  . . .o.=X5.7. X&X#X#X#X+XE.7.7.7.7.8.Y.|.{.n x a a i t t z.g.9.",
"k.k.j.l.Z.t y i i x x 1XgXr.7.7.5.V.S OXOX#XOXR.7.w.} X. .Y T T |  .X.@.=X9.5.`.OXOXS S OX{.t.7.7.8.8.8.T.K.].c a i i t z.z.g.8.",
"( h.h.l.z.t y i p x .XkXu.8.8.7.*.b S S S OX+X9.8.w.o.@...H D D H X.@.X.;Xt.7.w.+XS S S S S V.8.7.7.7.7.8.Y.J.p a i t t q q g.8.",
"( ( j.l.z.Z.y i p F.kXi.8.8.7.5.n.Z A S S S `.7.8.*.o.@.O.H [ K H @.$.O.(.R.7.7.`.A S A V Z {.>.7.7.7.7.8.6.P.H.F.i t t l.q g.8.",
"/ h.h.l.z.t y y F.2Xa.7.7.7.7.=.h V V A A S R.7.1.:.O.O...J <.<.G O.$.O.(.`.5.7.B.Z V A V N l }.8.7.7.7.7.7.7.Y.H.S.y t q l.g.7.",
"/ h.h.l.l.t y A.2XpX7.7.7.7.5.w N V V M M C 9.7.:.:.O.O.| } 1.5.K O.$.O.(.'.7.7.5.b M V B B l n M.7.7.7.7.7.7.1.I.H.S.z.l.j.g.7.",
"/ h.h.j.l.t t /.dX7.7.7.7.7.&.z B V M M V `.5.7.0.:.O.O.T 4.0.7.L ..@...(.b 8.7.7.N.N M B l l j D.r.7.7.7.7.7.7.7.P.v.H.z.j.f.7.",
"/ ( h.j.l.Z.H.aX7.7.7.7.7.1.n.l B B M M Z B.7.7.;.;.O...R >.5.7.%.J @.X.(.Z e.7.7.>.b m B l j j v N.7.7.7.7.7.7.7.7.L.c.v.j.f.7.",
"^ ( h.h.x.H.!.u.1.7.7.7.7.=.c k l B M M b w.7.7.b.,.O. .{ ).7.7.%.G @.@.,.B B.8.7.5.m.M l l k g v F.0.7.7.7.7.7.7.7.8.L.c.k.f.7.",
"^ / h.j.v.~.i.8.7.7.7.7.1.s.g j l l m m `.7.7.7.b.<.O.| { ).5.7.:.K ..@.4.M `.8.7.5.M.n l l g v x c N.8.7.7.7.7.7.7.7.7.L.U.P.7.",
"` / ( h.U.a.7.7.7.7.7.7.=.r v j l l l Z R.7.7.1.z -.O.R -._.9.7.5.L J o.4.V [.5.7.7.6.e l j g v c u y P.7.7.7.7.7.7.7.7.7.3.r.u.",
"` / ( U.i.7.7.7.7.7.7.1.s.c v j j l l '.0.5.7.6.f [ | J :._.7.7.9.3 H | } C b w.7.7.5.B.g g v c c u y G.8.7.7.7.7.7.7.7.7.7.7.7.",
"_ / ] pX7.7.7.7.7.7.:.! q c g g j j k V.7.7.7.=.z } ..T -._.7.7.9.%.T  .o.f N e.7.7.7.2.p v c c u i y y P.5.7.7.7.7.7.7.7.7.7.7.",
"_ ` I.7.7.7.7.7.7.7.*.! i u u g v j n e.7.7.7.=.h { Y Y :.`.7.7.7.%.T R | _.N B.7.7.7.7.N.v c c u i y t v.6.7.7.7.7.7.7.7.7.7.7.",
"_ U.u.7.7.7.7.7.7.7.E 0 i u u c v v '.5.7.7.7.;.h P Y R ).).7.7.8.>.J Y T ).N m.7.7.7.7.>.p u p i y y q z.g.1.7.7.7.7.7.7.7.7.7.",
"] u.7.7.7.7.7.7.5.1.! y r u u u c v N.7.7.7.1.n.5 H U J _.).9.7.7.;.K U T ,.l '.8.7.7.7.5.N.u i y y t q z.v.2.7.7.7.7.7.7.7.7.7.",
"3.7.7.7.7.7.7.7.7.E 0 t t i i u x p 0.7.7.7.5.m.;.U U J z B.7.7.7.>.L F T <.g z 0.7.7.7.7.>.y i t t q q l.h.I.8.7.7.7.7.7.7.7.7.",
"u.7.7.7.7.7.7.7.1.! l.q t y i u p D.8.7.7.7.5.w L F F P z M.7.7.7.:.K F F I z x Y.7.7.7.7.r.C.y y q q l.j.h./ 3.7.7.7.7.7.7.7.7.",
"u.7.7.7.7.7.1.7.E / 0 z.t t y y i M.7.7.7.7.1.r P H G J f >.7.7.7.*.L F T T b.j N.7.7.7.7.8.M.y t q z.j.h.h.( c.8.7.7.7.7.7.7.7.",
"7.7.7.7.7.7.1.1.! ( j.l.q t y y S.q.7.7.7.7.=.-XiX| J L z R.7.7.7.6.L G +.iXD.v m.7.7.7.7.7.2.v.q q j.j.h.( / ^ L.7.7.7.7.7.7.7.",
"7.7.7.7.7.7.7.E ` j.j.l.q q q q d.8.8.7.7.7.u.iXuXo.{ %.x e.7.7.7.6.&.D +.sXfXD.r w.7.7.7.7.8.g.j.l.h.h.( / / ^ ) 3.7.7.7.7.7.7.",
"7.7.7.7.7.7.1.! ( ( h.j.j.q q q Y.8.7.7.<.#.O.@.+.o.+.iXx q.7.7.7.7.;.K { +.#.uXN.0.7.7.7.7.7.2.j.h.h.h.( ^ ^ _ _ L.7.7.7.7.7.7.",
"7.7.u.7.7.u.=.W / / ( h.j.l.q v.r.7.u.8.u.uXiXiXa.R.^.J.p w.9.9.9.9.M.=.%.} #.uXW.P.7.9.u.8.7.8.f.h.h.( / ^ Q Q Q ) r.7.9.7.7.u.",
"7.7.7.7.1.1.=._ ^ / ( ( h.j.j.f.8.7.8.8.1.1.n.D.A.i i u D.w.7.7.7.8.d.u y r C.w r g.7.7.7.7.7.7.P.( ( / ^ _ _ Q Q Q ~ 7.7.7.7.7."
};
