/* XPM */
static char *_71721607729[] = {
/* columns rows colors chars-per-pixel */
"64 64 244 2 ",
"   c #5D382F",
".  c #683F34",
"X  c #69443B",
"o  c #79594D",
"O  c #69696A",
"+  c #CC791A",
"@  c #875D50",
"#  c #8F6454",
"$  c #B77252",
"%  c #8F7469",
"&  c #AD7D6C",
"*  c #E17E7F",
"=  c #B19435",
"-  c #DF991B",
";  c #EFB31B",
":  c #D89727",
">  c #DBAD2D",
",  c #E7B12A",
"<  c #EBC71F",
"1  c #FAD52A",
"2  c #F8D031",
"3  c #9D907B",
"4  c #B68673",
"5  c #B18970",
"6  c #CA924A",
"7  c #D6AC4C",
"8  c #C78F70",
"9  c #C78A75",
"0  c #D39879",
"q  c #F69E7F",
"w  c #D2B073",
"e  c #F6A47D",
"r  c #F6AB7B",
"t  c #E9B57C",
"y  c #F7BD76",
"u  c #F6B37A",
"i  c #F7B979",
"p  c #F7BB79",
"a  c #E6D055",
"s  c #F8CE6F",
"d  c #F9D46D",
"f  c #F5D86E",
"g  c #F9DB6B",
"h  c #EBCC77",
"j  c #F8C373",
"k  c #F8CA70",
"l  c #F6C678",
"z  c #EED875",
"x  c #F4D676",
"c  c #F9EA67",
"v  c #F7E468",
"b  c #F9E46A",
"n  c #F9EA6B",
"m  c #F6E575",
"M  c #FAEB74",
"N  c #FAED7D",
"B  c #395E96",
"V  c #36609B",
"C  c #1858A8",
"Z  c #1D61B0",
"A  c #296BB7",
"S  c #336DB0",
"D  c #486597",
"F  c #5D6E91",
"G  c #556E9A",
"H  c #6B7997",
"J  c #4D74AE",
"K  c #196CC7",
"L  c #1E74D2",
"P  c #2675C6",
"I  c #2576CD",
"U  c #337BC6",
"Y  c #BA7598",
"T  c #F15A95",
"R  c #D06D8F",
"E  c #F36E8F",
"W  c #F4738D",
"Q  c #F47C89",
"!  c #F26791",
"~  c #EB7390",
"^  c #DA6FA1",
"/  c #E379A6",
"(  c #7F879B",
")  c #5784B8",
"_  c #6A84AE",
"`  c #7889A7",
"'  c #6788B4",
"]  c #7894B7",
"[  c #3885CA",
"{  c #2D83D2",
"}  c #388DD5",
"|  c #3C93DA",
" . c #3F9BE0",
".. c #518FCD",
"X. c #4B92CD",
"o. c #4697D8",
"O. c #6698D0",
"+. c #4FA1DD",
"@. c #71A4D4",
"#. c #54A8E3",
"$. c #929092",
"%. c #B19396",
"&. c #B9A99A",
"*. c #8793AB",
"=. c #8D97AE",
"-. c #9699A7",
";. c #9C9EA9",
":. c #8497B5",
">. c #AD8EA1",
",. c #A59CA3",
"<. c #B99AA6",
"1. c #9EA1AB",
"2. c #9BA5B6",
"3. c #A2A2A6",
"4. c #ACA3A5",
"5. c #A7A6AB",
"6. c #AAA5AA",
"7. c #AAA8AD",
"8. c #B8A6A5",
"9. c #B3A4AA",
"0. c #B3ADAC",
"q. c #B9B3AB",
"w. c #A8ACB6",
"e. c #B5ACB2",
"r. c #B4B2B6",
"t. c #B9B7B7",
"y. c #DC8787",
"u. c #C59B8A",
"i. c #D69B83",
"p. c #C88A9F",
"a. c #DA8996",
"s. c #C8979C",
"d. c #DA9595",
"f. c #F48487",
"g. c #F58B85",
"h. c #F4878B",
"j. c #EB928D",
"k. c #F59483",
"l. c #F69B81",
"z. c #F69888",
"x. c #E88798",
"c. c #E79896",
"v. c #CEAE8E",
"b. c #D9A789",
"n. c #D8B689",
"m. c #C7AA99",
"M. c #D8A697",
"N. c #C8B79C",
"B. c #E6A889",
"V. c #F6A884",
"C. c #E7B588",
"Z. c #F7B888",
"A. c #E8AB92",
"S. c #F4A995",
"D. c #E7B598",
"F. c #F3B999",
"G. c #C786A2",
"H. c #C58BA3",
"J. c #C697A3",
"K. c #E291A7",
"L. c #C3A9A8",
"P. c #D3A8AA",
"I. c #C4B7A9",
"U. c #D4B6A7",
"Y. c #C6BAB4",
"T. c #E9BCA4",
"R. c #EAB6AA",
"E. c #DAC689",
"W. c #D7C899",
"Q. c #E6CA86",
"!. c #F8C588",
"~. c #E8D688",
"^. c #F8D788",
"/. c #EAC89A",
"(. c #F8C996",
"). c #E5D690",
"_. c #F8D496",
"`. c #F9DC93",
"'. c #F9DC9A",
"]. c #F7E487",
"[. c #FBEE84",
"{. c #FBEE8B",
"}. c #EDE09C",
"|. c #FAE698",
" X c #FBED9C",
".X c #FBF195",
"XX c #FBF19D",
"oX c #CCC1A7",
"OX c #D9C7A9",
"+X c #DCD2A6",
"@X c #C9C1B6",
"#X c #D5C9B6",
"$X c #DCD5BB",
"%X c #EAC5A5",
"&X c #F3C6A9",
"*X c #E9D7A6",
"=X c #F6D9A5",
"-X c #E9CBB8",
";X c #E8DAB8",
":X c #F4D5B2",
">X c #EEE4AE",
",X c #FBE4A4",
"<X c #F7E8A6",
"1X c #FBECAB",
"2X c #FBF1A3",
"3X c #FCF2AB",
"4X c #ECE5BA",
"5X c #FCEDB2",
"6X c #F7E8B8",
"7X c #FCF2B3",
"8X c #FCF4BB",
"9X c #96B0CE",
"0X c #B6BAC3",
"qX c #A2BBD5",
"wX c #BAC7D6",
"eX c #B8CFE6",
"rX c #CAC9CA",
"tX c #D9D6C5",
"yX c #CDCDD0",
"uX c #D5D4D7",
"iX c #DBDBDD",
"pX c #E6DCC9",
"aX c #EBDACC",
"sX c #DAE9D7",
"dX c #ECE9CA",
"fX c #F4EAC8",
"gX c #FCF5C2",
"hX c #F8F6C8",
"jX c #FBF9CC",
"kX c #EBE8D5",
"lX c #F6EDD6",
"zX c #F8F5D6",
"xX c #FAFAD3",
"cX c #D2D8E2",
"vX c #E2E2E5",
"bX c #E7E7E9",
"nX c #E9EAED",
"mX c #F6ECE8",
"MX c #EDEEF1",
"NX c #F2F0F1",
"BX c #F2F3F6",
"VX c #F8F7F7",
"CX c #F5F6F9",
"ZX c #FBFBFB",
/* pixels */
"5.5.5.5.H.E Q f.g.q q S.Y.6.6.6.5.%.f b n n M &.7.4.z c c v q.5.E.c n c E.1.5.m.g v g g d C.6.6.6.5.5.6.<.c.h.f.a.5.5.5.5.5.5.5.",
"5.5.5.5.<.E Q Q g.g.q r S.Y.5.5.5.5.w n n n n Q.7.6.h c M m &.5.E.M n n W.1.7.h n n n g h 8.5.5.5.5.7.J.S.l.z.h.a.5.5.5.5.5.5.5.",
"5.5.5.5.s.W Q h.g.q q r p Z.Y.6.5.5.%.h M M M ].0.5.n.[.m a w &.~.N N N q.5.N.m M M M x N.5.5.5.6.7.P.S.e q k.g.d.5.5.5.5.5.5.5.",
"5.5.5.5.<.W Q f.k.q e r u p !.Y.7.5.5.v.N N N [.W.5.N.]., < 1 a ~.[.N }.4.7.).N N N N E.7.6.5.5.9.M.Z.u e V.l.g.j.5.5.5.5.5.5.5.",
"5.5.5.5.6.a.h.f.g.l.e u p p l _.Y.7.5.4.).{.{.{.'.5.q.~.- = = , w {.{.+X7.I.{.{.[.[.).q.6.7.6.e.D.!.p u r e l.k.d.5.5.5.5.5.5.5.",
"5.5.5.5.6.6.H.j.k.V.r Z.!.l x ^.'.@X7.5.q..X.X.X.Xq.5.).> > = + = ~.XXoX4.}..X.X.X}.I.7.5.7.L./.^.l l p r e l.k.d.5.5.5.5.5.5.5.",
"5.5.5.5.6.5.5.<.c.V.V.Z.!.!.`.^.^. XY.5.5.+XXXXX2X+X5.+Xw : + $ E.<X>Xq.I.<XXXXX2XOX7.5.5.Y.=X^.^.^.l Z.Z.V.l.k.d.3.5.5.5.5.5.5.",
"5.5.5.5.5.5.5.5.9.M.F.!.(._._.|.|..X<XY.5.0.>X3X7X*Xb.6 7 > , w %X>X>Xq.$X3X3X2X*X0.5.7.OX=X|.].^._.(.!.Z.Z.S.s.<.5.5.5.5.5.5.5.",
"5.5.5.5.5.5.5.5.5.5.I.T._._.'.'.|. X2X>Xq.5.@X7X=XD.0 : ; 1 1 2 8 %X#X@X6X7X7X6Xt.5.0.-X<XXX X|.|.'._.(.(.U.8.5.5.5.5.5.5.5.5.5.",
"5.5.5.5.5.5.5.5.5.5.5.e.-X=X,X,X1X1X3X7X4Xt.7.pX%X8 8 - ; ; 1 1 w D.@X$XgX8XgX#X7.q.$X3X3X1X1X,X,X=X=XR.L.7.5.5.5.5.5.5.5.5.5.5.",
"5.5.5.5.5.5.5.5.5.5.5.5.0.Y.:X1X1X7X7X8XgXfX@XY.D.D.n.6 : - , 7 0 F.dXhXjXjXlXY.r.4X8X7X7X7X5X1X,X:XY.e.7.5.5.5.5.5.5.5.5.5.5.5.",
"5.5.5.5.5.5.5.5.5.5.5.5.5.5.r.;X8X8XgXgXjXxXzXkX%XD.%XaXT.W.;XdX4X&.4.dXxXxXNXpXdXjXhXhXgX8X8X6X#Xe.5.5.5.5.5.5.5.5.5.5.5.5.5.5.",
"7.5.5.5.5.5.5.5.5.5.5.5.5.5.5.7.#XdXhXxXxXxXxXlXT.%XlXxXzXxXzXxXxX@Xm.pXlXkXbXtX$XkXhXzXdXsXtXY.w.6.5.5.5.5.5.5.5.5.5.5.5.5.5.5.",
"5.5.5.5.5.5.5.5.5.5.5.5.5.5.7.7.r.dXzXxXxXxXxX:X&XfXxXxXlXdXtXkXkXtXT.&X@Xt.r.w.w.0Xt.0X0Xr.5.5.7.6.5.5.5.5.5.5.5.5.5.5.5.5.5.5.",
"5.5.5.5.5.5.5.5.5.5.5.5.5.t.;X$XfXxXxXxXxXxXlX&X&XhXzXdX&.% o 3 tXzX%X&X-XaXrXtXdXdXzXdXsXrXq.5.5.5.5.5.5.5.5.5.5.5.5.5.5.5.5.5.",
"5.5.5.5.5.5.5.5.5.5.5.5.Y.;X6XgXgXjXjXxXxXlXaXT.&XzXkX3 . X X X o $XOX/.:XaXpXfXjXgXhX8X8X8XdX#Xe.5.5.5.5.5.5.5.5.5.5.5.5.5.5.5.",
"5.5.5.5.5.5.5.5.5.5.5.@X>X5X7X7X7XgXgXhXtXq.D.&X:XzX&.X # @ # #   $.*XD.:X&Xq.@X4X8X8X5X5X5X8X6X-XY.9.5.5.5.5.5.5.5.5.5.5.5.5.5.",
"5.5.5.5.5.5.5.5.5.e.-X=X,X,X1X3X7X7X8X$X6.m.A.&X%XdX$.X 0 (.%XA.X % dXv.D.%XU.5.t.4X7X7X5X8X7X5X5X:XR.L.6.5.5.5.5.5.5.5.5.5.5.5.",
"5.5.5.5.5.5.7.5.Y.T._.'.=X|.,X2X3X1X#Xw.0.b.F.F.*Xt.N.. # % & % @ $.$X*Xi.F.%X7.5.q.;X1X1X3X3X1X,X,X:X:XP.L.5.7.5.5.5.5.5.5.5.5.",
"5.5.5.5.5.5.7.L.F.(.(.`.'.|. X X7X$X5.5.oXB.D.A.oX0.+X# 9 4 4 M.5 m.q.&Xb.B.D.OX5.5.e.%X,X2X X|.|.'.'.(.F.R.8.<.6.5.5.5.5.5.5.5.",
"5.5.5.5.5.4.M.S.Z.!.(.^.`.].|.5XpXr.5.q.*XB.A.b.q.q.<X& 9 9 i.i.5 oX0.D.D.b.Q.|.I.5.5.7.U.<X,X|.'.`._.(.!.Z.V.y.6.5.5.5.5.5.5.5.",
"5.5.5.5.<.x.k.e V.Z.!.!.^.^.,XkXr.5.5.+X|.t B.T.T.OXXXE.9 i.d.i.w }.L.b.A.A./..X}.q.5.5.5.P.=X`.^.^.!.!.Z.V.V.k.6.5.5.5.5.5.5.5.",
"5.5.6.H.x.g.k.e e p p l l '.pXr.5.5.N.].{.0 i.F.T.%X.X.Xw M.D.M.).|.N.b.B.A.Q.{.{.).7.6.5.6.L./.^.x l p p r V.k.6.6.5.5.7.5.5.5.",
"5.5.H.~ Q g.k.l.V.u p j ^.pXr.5.5.,.~.N [.z 0 B.F.T.fX Xw & 9 b.(.>XtX0 i.B.Q.[.N [.N.6.5.5.6.8.D.Z.p p r e l.k.6.6.5.5.5.5.5.5.",
"5.5.p.Q Q f.k.l.e r p !.-Xr.7.5.6.v.M N N M 0 b.0 A.mXlX0 $ 4 D.-XbXkXP.0 0 z N N M x 8.5.5.5.5.9.M.Z.r r e l.k.6.6.5.5.5.5.5.5.",
"5.5.p.W Q f.k.l.e r Z.-Xr.5.5.5.%.f n n n M &.0 0 M.BXZX-Xi.A.T.mXVXNXrX4 9 z n n b d Q.9.5.5.5.7.9.J.S.V.e l.g.6.5.5.5.5.5.5.5.",
"5.5.p.E Q f.g.l.V.V.R.r.5.5.5.,.w b c c c ~.7.%.& I.bXZXVX&X%XaXZXZXVXiXt.4.E.c b b g s v.6.5.5.5.5.6.P.c.z.k.h.6.5.5.5.5.5.5.5.",
"5.5.p.E Q f.g.k.z.R.r.5.5.5.,.u.d b c c c N.5.3.v.oXuXZXZXVXNXVXZXZXZXnXrX7.&.x b g d d l L.5.5.5.5.7.7.J.x.z.f.,.5.5.5.5.5.5.5.",
"5.5.p.! E Q g.z.R.r.5.5.5.5.,.t d g b n z 0.5.4.h W.yXCXZXiXiXiXrXMXCXMXyX7.6.n.g g d s k C.9.6.5.5.5.5.5.<.K.x.6.5.5.5.5.5.7.5.",
"5.5.p.! E Q h.K.e.5.5.5.5.,.i.k s g g b E.6.3.4.z ~.rXMXuX3.iXsX$.uXBXnXyX5.7.&.h f d k j y d.3.5.5.5.5.5.5.<.<.5.5.5.5.5.5.5.5.",
"5.5.p.! E Q K.e.5.5.5.5.5.%.u k k d g x I.5.5.&.v m t.uXO $.t.-.5.vXMXiXY.5.5.6.n.k k k y u r L.5.5.5.5.5.5.5.5.5.5.5.5.5.5.5.5.",
"5.5.G.T ! K.9.5.5.5.5.5.>.R p j k s d Q.4.5.5.v.v c W.rXrX7.O r.0XiXnXpXW.5.5.5.&.l j y y r r j.9.5.5.5.5.5.5.5.5.5.5.5.5.5.5.5.",
"5.5.^ T / 9.5.5.5.5.3.1.R e u y j k k N.5.5.,.v.v v z rXvXnXyXuXyXuXbX;Xh 9.7.5.4.b.j p r r q q a.6.5.5.5.5.5.5.5.5.5.5.5.5.5.5.",
"5.w.H./ 9.5.5.5.5.5.5.Y * r r p y j C.9.5.3.6.t g v z Y.iXMXnXnXnXbXvX*Xx 8.5.5.5.8.C.r r e q q f.H.5.5.5.5.5.5.5.5.5.5.5.5.5.5.",
"5.5.<.9.5.5.5.5.5.5.-.R q q e r p u v.5.5.5.4.h f f f #XiXnXMXBXBXMXnX*Xd m.5.5.5.6.M.r e q q f.g.~ <.5.5.5.5.5.5.5.5.5.5.5.5.5.",
"5.5.5.5.5.5.5.5.5.5.Y ~ q q e r u V.8.5.5.5.%.j s s z #XvXMXCXCXnXBXnX*Xk C.3.5.5.5.9.V.l.q q Q f.Q / 6.5.5.5.5.5.5.5.5.5.5.5.7.",
"5.5.5.5.5.5.5.5.5.>.R * g.k.l.e r M.4.6.5.5.u.k k k l @XiXnXBXnXCXCXNX&Xj C.8.5.5.5.6.d.k.g.f.f.Q E ! G.5.5.5.5.5.5.5.5.5.5.5.5.",
"5.5.5.5.5.5.5.5.5.Y E Q f.f.k.k.l.8.5.6.5.5.M.y y l !.uXiXbXnXCXCXCXCXaXp r 8.5.5.5.5.<.j.g.Q W E ! T ^ <.5.5.5.5.5.5.5.5.5.5.5.",
"5.5.5.5.5.5.5.5.5.~ E W Q f.g.k.j.6.5.5.5.,.b.u p y D.uXvXvXMXBXBXCXBXkXV.r M.3.5.5.5.5.a.f.Q W E ! T T ^ 5.5.5.5.5.5.5.5.5.5.5.",
"5.5.5.5.5.5.5.5.6.p.p.s.J.s.s.s.<.5.5.5.5.6.m.m.m.m.,.9XwXeXcXwXeXcXeX9Xm.m.8.5.5.5.5.5.,.J.s.s.p.p.G.G.G.,.5.5.5.5.5.5.5.5.5.5.",
"5.5.5.5.5.5.5.5.5.5.5.5.5.5.5.5.5.5.5.5.5.5.5.5.5.5.) U [ [ [ [ [ } | ..1.5.5.5.5.5.5.5.5.5.5.5.5.5.5.5.5.5.5.5.5.5.5.5.5.5.5.5.",
"5.5.5.5.5.5.5.5.5.5.5.5.5.5.5.5.5.5.5.5.5.5.5.5.5.1...o.} I P P I |  .o.2.7.5.5.5.5.5.5.5.5.5.5.5.5.5.5.5.5.5.5.5.7.5.5.5.5.5.5.",
"5.5.5.5.5.5.5.5.5.5.5.5.5.5.5.5.5.5.5.5.5.5.5.5.5.-...+.} A B V P o.+.| :.7.5.5.5.5.5.5.5.5.5.5.5.5.5.5.5.5.7.5.5.5.5.5.5.5.5.5.",
"5.5.5.5.5.5.5.5.5.5.5.5.5.5.5.5.5.5.5.5.5.5.5.5.5.*...+.o.A H F S o.#. .:.5.5.5.5.5.5.5.5.5.5.5.5.5.5.5.5.5.5.5.5.5.5.5.5.5.5.5.",
"5.5.5.5.5.5.5.5.5.5.5.5.5.5.5.5.5.5.5.5.5.5.5.5.6.:.X.o.} P *.*.Z o.#.+.:.5.5.5.5.5.5.5.5.5.5.5.5.5.5.5.5.5.5.5.5.5.5.5.5.5.5.5.",
"5.5.5.5.5.5.5.5.5.5.5.5.5.5.5.5.5.5.5.5.5.5.5.5.7.` o. .I J ,.,.D X.+.o.] 5.5.5.5.5.5.5.5.5.5.5.5.5.5.5.5.5.5.5.5.5.5.5.5.5.5.5.",
"5.5.5.5.5.5.5.5.7.5.5.5.5.5.5.5.5.5.5.5.5.5.5.5.5.` o. .U ' 5.5.H [ +.| :.5.5.5.5.5.7.5.5.5.5.5.5.5.5.5.5.5.5.5.5.5.5.5.5.5.5.5.",
"5.5.5.5.5.5.5.5.5.5.5.5.5.5.5.5.5.5.5.5.5.5.5.5.5.` o.o.I *.1.7.( U +.o.:.5.5.5.5.5.5.5.5.5.5.5.5.5.5.5.5.5.5.5.5.5.5.5.5.5.5.7.",
"5.5.5.5.5.5.5.5.5.5.5.5.5.5.5.5.5.5.5.5.5.5.5.5.5.] o.} U -.,.6.*.V +.+.] 5.5.5.5.5.5.5.5.5.5.5.5.5.5.5.5.5.5.5.5.5.5.5.5.5.5.5.",
"5.5.5.5.5.5.5.5.5.5.5.5.5.5.5.5.5.5.5.5.5.5.5.5.3.' o.[ U ;.6.7.-.B X.+.O.5.5.5.5.5.5.5.5.5.5.5.5.5.5.5.5.5.5.5.5.5.5.5.5.5.5.5.",
"5.5.5.5.5.5.5.5.5.7.5.5.5.5.5.5.5.5.5.5.5.5.5.5.5._ X.[ ' w.5.5.3.F S X.' 6.5.5.5.5.5.5.5.5.5.5.5.5.5.5.5.5.5.5.5.5.5.5.5.5.5.5.",
"5.5.5.5.5.5.5.5.5.5.5.5.5.5.5.5.5.5.5.5.5.5.5.5.3.G [ U H 5.5.5.1.( S [ ..,.5.5.5.7.5.5.5.5.5.5.5.5.5.5.5.5.5.5.5.5.5.5.5.5.5.5.",
"5.5.5.5.5.5.5.5.5.5.5.5.5.5.5.5.5.5.5.5.5.5.5.5.1.) [ I ' 6.5.5.3.` A } o.=.5.5.5.5.5.5.5.5.5.5.5.5.5.5.5.5.5.5.5.5.5.5.5.5.5.5.",
"5.5.5.5.5.5.5.5.5.5.5.5.5.5.5.5.5.5.5.5.5.5.5.5.5.S I L ' 6.5.5.5.` K { U =.5.5.5.5.5.5.5.5.5.5.5.5.5.5.5.5.5.5.5.5.5.5.5.5.7.5.",
"5.5.5.5.5.5.5.5.5.5.5.5.w.5.5.5.5.5.5.5.5.5.5.5.;.S K K :.5.5.5.5.-.A L P =.5.5.5.5.5.5.5.5.5.5.5.5.5.5.5.5.5.5.5.5.5.5.5.5.5.5.",
"5.5.5.5.5.5.5.5.5.5.5.5.5.5.5.5.5.5.5.5.5.5.5.5.*.Z K P -.6.5.5.5.,.B K P ] 5.5.5.5.5.5.5.5.5.5.5.5.7.5.5.5.5.5.5.5.5.5.5.5.5.5.",
"5.5.5.5.5.5.5.5.5.5.5.5.5.5.5.5.5.5.5.5.5.5.5.6.H K L V -.5.5.5.5.3.D C K J 7.7.5.5.5.5.5.5.5.5.5.5.5.5.5.5.5.5.5.5.5.5.5.5.5.5.",
"5.5.5.5.5.5.5.5.5.5.5.5.5.5.5.5.5.5.5.5.5.5.5.-.D C C S 1.5.5.5.5.1.D C C J 3.5.5.5.5.5.5.5.5.5.5.5.5.5.5.5.5.5.5.5.5.5.5.5.5.5.",
"5.5.5.5.5.5.5.5.5.5.5.5.5.5.5.5.5.5.5.5.5.5.5.;.S A Z A -.5.5.5.5.1.D Z K P =.5.5.5.5.5.5.5.5.5.5.5.5.5.5.5.5.5.5.5.5.5.5.5.5.5.",
"5.5.5.5.5.5.5.5.5.5.5.5.5.5.5.5.5.5.5.5.5.5.7.0X9X..S J ;.5.5.5.5.3.F Z O.qX1.5.5.5.5.5.5.5.5.5.5.5.5.5.5.5.5.5.5.5.5.5.5.5.5.5.",
"5.5.5.5.5.5.5.5.5.5.5.5.5.5.5.5.5.5.5.5.6.1.2.qX9Xo...G 5.5.5.5.5.5.$.V O.eX0Xw.5.5.5.5.5.5.5.5.5.5.5.5.5.5.5.5.5.5.5.5.5.5.5.5.",
"5.5.5.5.5.5.5.5.5.5.5.5.5.5.5.5.5.5.5.5.2.@.+.+...O.O.9X5.5.5.5.5.3.*.D ) O.@.@.2.5.5.5.5.5.5.5.5.5.5.5.5.5.5.5.5.5.5.5.5.5.5.5.",
"7.7.7.7.5.5.w.7.7.7.7.7.7.7.5.7.7.7.5.7.,.9XqXqX9X9X0Xe.5.7.7.7.7.7.7.-.( ] @.9X2.w.7.5.5.w.7.7.7.7.7.7.5.w.7.7.7.5.7.7.7.7.w.7.",
"5.5.5.7.5.5.5.5.5.5.5.5.5.5.5.5.5.5.5.5.,.,.4.6.<.6.6.6.5.5.5.5.5.5.5.3.1.5.3.,.,.5.5.5.5.5.5.5.5.5.5.5.5.5.5.5.5.5.5.5.5.5.5.5."
};
