/* XPM */
static char *_91721607730[] = {
/* columns rows colors chars-per-pixel */
"64 64 222 2 ",
"   c #5D372E",
".  c #5F3F39",
"X  c #6B433B",
"o  c #735143",
"O  c #7F634D",
"+  c #69696A",
"@  c #786B6B",
"#  c #AF7A30",
"$  c #CC7A1A",
"%  c #8D5E4D",
"&  c #855D53",
"*  c #886556",
"=  c #976552",
"-  c #B8764E",
";  c #92726A",
":  c #A97E6F",
">  c #B67C6A",
",  c #AE9132",
"<  c #DD9319",
"1  c #EFB31B",
"2  c #D48A20",
"3  c #D99A2A",
"4  c #DAB729",
"5  c #DAAD35",
"6  c #E4AA25",
"7  c #EFB924",
"8  c #EBC71E",
"9  c #FAD52A",
"0  c #F8D031",
"q  c #998152",
"w  c #B09C4F",
"e  c #A98B75",
"r  c #B58576",
"t  c #D09848",
"y  c #D2A84B",
"u  c #C3846D",
"i  c #C69969",
"p  c #C78A75",
"a  c #CB927C",
"s  c #D3977A",
"d  c #CEB475",
"f  c #E8B27B",
"g  c #F5B77C",
"h  c #EDD84A",
"j  c #DBCA7C",
"k  c #ECD16B",
"l  c #E9C979",
"z  c #F4CA74",
"x  c #EED978",
"c  c #F3DC77",
"v  c #F5E573",
"b  c #375F98",
"n  c #1858A8",
"m  c #1D61B0",
"M  c #2C63A7",
"N  c #376BAB",
"B  c #296BB7",
"V  c #3569B1",
"C  c #3476B9",
"Z  c #445F90",
"A  c #486597",
"S  c #5D6E91",
"D  c #6B7997",
"F  c #4D74AE",
"G  c #667DA4",
"H  c #196CC7",
"J  c #1E74D2",
"K  c #216EC6",
"L  c #2675C6",
"P  c #337BC6",
"I  c #277CD1",
"U  c #D77B9D",
"Y  c #F3768C",
"T  c #F07194",
"R  c #7F879B",
"E  c #5784B8",
"W  c #6A84AE",
"Q  c #7889A7",
"!  c #6788B4",
"~  c #7894B7",
"^  c #3584CC",
"/  c #3D87C9",
"(  c #2D83D2",
")  c #388DD5",
"_  c #3D90D5",
"`  c #3C93DA",
"'  c #3F9BE0",
"]  c #4C86C3",
"[  c #4D8DCB",
"{  c #4B92CD",
"}  c #4493D3",
"|  c #4196DA",
" . c #4898D9",
".. c #4B9EDC",
"X. c #599AD9",
"o. c #6394CC",
"O. c #689BD2",
"+. c #4DA0DE",
"@. c #51A2DD",
"#. c #71A4D4",
"$. c #4BA3E4",
"%. c #57A9E3",
"&. c #8B8C8D",
"*. c #958C8D",
"=. c #888C9B",
"-. c #9B999B",
";. c #A98F8A",
":. c #B38C83",
">. c #A79A99",
",. c #BD9E94",
"<. c #B8AB95",
"1. c #B6A69C",
"2. c #BBA39C",
"3. c #828CA9",
"4. c #8894AB",
"5. c #9699A7",
"6. c #9C9EA9",
"7. c #8497B5",
"8. c #939CB1",
"9. c #A09EA3",
"0. c #AD9DA6",
"q. c #B798A6",
"w. c #9EA1AB",
"e. c #9BA5B6",
"r. c #A2A2A6",
"t. c #ABA2A4",
"y. c #AEA8A7",
"u. c #A7A6AB",
"i. c #AAA5AA",
"p. c #A9A8AD",
"a. c #B3A4A5",
"s. c #B6A9A7",
"d. c #BDB2AB",
"f. c #A9ABB4",
"g. c #B1AFB3",
"h. c #B7B3B7",
"j. c #BAB9BD",
"k. c #C69686",
"l. c #D69B85",
"z. c #D88897",
"x. c #D58F99",
"c. c #C89A99",
"v. c #E89887",
"b. c #F49785",
"n. c #CAA882",
"m. c #DCA286",
"M. c #DAA68B",
"N. c #C7B785",
"B. c #D7B489",
"V. c #C6A79B",
"C. c #D9A896",
"Z. c #C9BA9B",
"A. c #D8B597",
"S. c #E1A48A",
"D. c #E5AA8E",
"F. c #F2A584",
"G. c #E3B787",
"H. c #F8BD82",
"J. c #E4AC92",
"K. c #E9AE92",
"L. c #E8B698",
"P. c #F2BA98",
"I. c #C98CA6",
"U. c #C798A5",
"Y. c #C7A8A3",
"T. c #CDACA1",
"R. c #D2ABA2",
"E. c #C7B5A8",
"W. c #D5B5A3",
"Q. c #E3BBA6",
"!. c #ECBCA3",
"~. c #F1BCA1",
"^. c #DCC988",
"/. c #EAC98A",
"(. c #EED489",
"). c #E9C99C",
"_. c #F3C597",
"`. c #E9DA97",
"'. c #F8DB9A",
"]. c #ECE399",
"[. c #F6E293",
"{. c #CDC1A3",
"}. c #D7CBA8",
"|. c #DCD2A1",
" X c #D6CFB9",
".X c #ECC1A5",
"XX c #E9C4AA",
"oX c #F4C4A6",
"OX c #F3C7AB",
"+X c #F4CAB2",
"@X c #E9D0B3",
"#X c #F3E8B4",
"$X c #93ADCA",
"%X c #9BB7D8",
"&X c #B3B9C3",
"*X c #BCBCC1",
"=X c #A2BBD5",
"-X c #C0BEC1",
";X c #BAC7D6",
":X c #B8CFE6",
">X c #C7C7CB",
",X c #D4C8C6",
"<X c #C9CFD8",
"1X c #C5D0DF",
"2X c #D2D2D5",
"3X c #D6D6DA",
"4X c #DBDBDD",
"5X c #F1DDD3",
"6X c #C5D3E3",
"7X c #DCDDE1",
"8X c #DFE0E4",
"9X c #E2E2E5",
"0X c #E4E5E9",
"qX c #E7E8EB",
"wX c #EAEAED",
"eX c #F5ECE8",
"rX c #EDEEF1",
"tX c #F2F0F1",
"yX c #F2F3F6",
"uX c #F8F7F7",
"iX c #F5F6F9",
"pX c #FBFBFB",
/* pixels */
"u.u.u.u.u.u.u.u.u.u.u.u.u.u.u.u.u.u.u.u.u.u.0.z.x.x.u.2.B.Z.t.M.B.s.i.x.z.U 0.u.u.u.u.u.p.u.u.u.u.u.u.u.u.u.u.u.u.u.u.u.u.u.u.u.",
"u.u.u.u.u.u.u.u.u.u.u.u.u.u.u.u.u.u.u.u.u.u.u.z.b.f s.2.z /.s.l z a.q.b.Y z.i.p.u.u.u.u.u.u.u.u.u.u.u.u.u.u.u.u.u.u.u.u.u.u.u.u.",
"u.u.u.u.u.u.u.u.u.u.u.u.u.u.u.u.u.u.u.u.q.U.p.0.s g A.1.k y d k /.s.B.f v.q.u.u.u.u.u.u.u.u.u.u.u.u.u.u.u.u.u.u.u.u.u.u.u.u.u.u.",
"u.u.u.u.u.u.u.u.u.u.u.u.u.u.u.u.u.u.u.u.q.T U.p.V.z x 1.4 8 9 h N.1.z H.s.i.a.i.u.u.u.u.u.u.u.u.u.u.u.u.u.u.u.u.u.u.p.u.u.u.u.u.",
"u.u.u.u.u.u.u.u.u.u.u.u.u.u.u.u.u.u.u.u.q.Y b.R.u.B.v d 6 , , 4 e ^.c ^.y.a.x.c.u.u.u.u.u.u.u.u.u.u.u.u.u.u.u.u.u.u.u.u.u.u.u.u.",
"u.u.u.u.u.u.u.u.u.u.u.p.u.u.u.u.u.u.u.u.q.Y b.g Z.s.c ^.3 5 # 2 , k /.s.Y.D.b.U.u.u.u.u.u.u.u.u.u.u.u.u.u.u.u.u.u.u.u.u.u.u.u.u.",
"u.u.u.u.u.u.u.u.u.u.u.u.u.u.u.u.u.u.u.u.a.c.F./.(.}.{.`.r 3 $ - n.`.E.E./.H.F.c.u.u.u.u.u.u.u.u.u.u.u.u.u.u.u.u.u.u.u.u.u.u.u.u.",
"u.u.u.u.u.u.u.u.u.u.u.u.u.u.u.u.u.u.u.u.p.u.s..X'._.B.t y 5 6 d !. X}.#X'.).T.u.u.u.u.u.u.u.u.u.u.u.u.u.u.u.u.u.u.u.u.u.u.u.u.u.",
"u.u.u.u.u.u.u.u.u.u.u.u.u.u.u.u.u.u.u.u.u.u.u.y.Q.L.s 3 7 0 9 0 i !.#X#X Xs.u.u.u.u.u.u.u.u.u.u.u.u.u.u.u.u.u.u.u.u.u.u.u.u.u.u.",
"u.u.u.u.u.u.u.u.u.u.u.u.u.u.u.u.u.u.u.u.u.u.u.y.A.p i < 1 8 9 9 i oX X>Xf.f.u.u.u.u.u.u.u.u.u.u.u.u.u.u.u.u.u.u.u.u.u.u.u.u.u.u.",
"u.u.u.u.u.u.u.u.u.u.u.u.u.u.u.u.u.u.u.u.u.i.d.@XP.J.n.t 2 < 4 5 s oX#X#X@XE.i.i.u.u.u.u.u.u.u.u.u.u.u.u.u.u.u.u.u.u.u.u.u.u.u.u.",
"u.u.u.u.u.u.u.u.u.u.u.u.u.u.u.u.u.u.u.u.i.Y.P.'._.J.L.|.M.d ^.{.`.k.>.`.'._.C.0.u.u.u.u.u.u.u.u.u.u.u.u.u.u.u.u.u.u.u.u.u.u.u.u.",
"u.u.u.u.u.u.u.u.u.u.u.u.u.u.u.u.u.u.u.i.x.F.g _.L.n.[.|.].|.].{.].N.V.W././.g q.u.u.u.u.u.u.u.u.u.u.u.u.u.u.u.u.u.u.u.u.u.u.u.u.",
"u.u.u.u.u.u.p.u.u.u.u.u.u.u.u.u.u.u.u.i.Y b.F.L.!.(.c Z.v <.j ^.Z.x P.XXY.D.b.a.u.u.u.u.u.u.u.u.u.u.u.u.u.u.u.u.u.u.u.u.u.p.u.u.",
"u.u.u.u.u.u.u.u.u.u.u.u.u.u.u.u.u.u.i.i.Y b.R.Q._.c ^.<.w O o q ;.x /.OXQ.s.x.0.u.u.u.u.u.u.u.u.u.u.u.u.u.u.u.u.u.u.u.u.u.u.u.u.",
"u.u.u.u.u.u.u.u.u.u.u.u.u.u.u.u.u.u.i.0.T U.V.!.P.x <.O X X X X o e B..X+XW.g.y.u.u.u.u.u.u.u.u.u.u.u.p.u.u.u.u.u.u.u.u.u.u.u.u.",
"u.u.u.u.u.u.u.u.u.u.u.u.u.u.u.u.u.u.u.i.I.a.C.oXP.G.; . = % * =   @ l.J.+XXXs.u.u.u.u.u.u.u.u.u.u.u.u.u.u.u.u.u.u.u.u.u.u.p.u.u.",
"u.u.u.u.u.u.u.u.u.u.u.u.u.u.u.u.u.u.u.u.u.,.K.oXP.V.+ X l.OX.XJ.X @ c.s L.oXT.u.u.u.u.u.u.u.u.u.u.u.u.u.u.u.u.u.u.u.u.u.u.u.u.u.",
"u.u.u.u.u.u.u.u.u.u.u.u.u.u.u.u.u.u.u.u.p.k.P.P.C.s.*.. & ; : ; * ; i.c.s P.W.u.u.u.u.u.u.u.u.u.u.u.u.u.u.u.u.u.u.u.u.u.u.u.u.u.",
"u.u.u.u.u.u.u.u.u.u.u.u.u.u.u.u.u.u.u.u.i.l.K.J.q.0.9.& p r r M.r >.u.W.m.J.k.u.u.u.u.u.u.p.u.u.u.u.u.u.u.u.u.u.u.u.u.u.u.u.u.u.",
"u.u.u.u.u.u.u.u.u.u.u.u.u.u.u.u.u.u.u.u.a.S.K.l.p.f.0.; p u k.l.e 6.a.C.L.m.2.u.u.u.u.u.u.u.u.u.u.u.u.u.u.u.u.u.u.u.u.u.u.u.u.u.",
"u.u.u.u.u.u.u.p.u.p.u.u.u.u.u.u.u.u.u.u.t.l.K.!.Q.g.9.*.u l.C.l.;.9.1.J.J.D.V.r.u.u.u.u.u.u.u.u.u.u.u.u.u.u.u.u.u.u.u.u.u.u.u.u.",
"u.u.u.u.u.u.u.u.u.u.u.u.u.u.u.u.u.u.u.u.u.r l.~.~.R.u.i.:.S.L.M.1.p.2.l.D.J.V.u.u.u.u.u.u.u.u.u.u.u.u.u.u.u.u.u.u.u.u.u.u.u.u.u.",
"u.u.u.u.u.u.u.u.u.u.u.u.u.u.u.u.u.u.u.u.u.>.a v.K.!.<Xg.;.> p x.T.j.,Xm.m.m.,.u.u.u.u.u.u.u.u.u.u.u.u.u.u.u.u.u.u.u.u.u.u.u.u.u.",
"u.u.u.u.u.u.u.p.u.u.u.u.u.u.u.u.u.u.u.u.u.r.k.M.s C.eX9X:.- u L.@XqX9XC.a k.a.u.u.u.u.u.u.u.u.u.u.u.u.u.u.u.u.u.u.u.u.u.u.u.u.u.",
"u.u.u.u.u.u.u.u.u.u.u.u.u.u.u.u.u.u.u.u.u.u.>.a s C.tXpX@Xl.J.!.eXuXrX,Xu :.i.u.u.u.u.u.u.u.u.u.u.u.u.u.u.u.u.u.u.u.u.u.u.u.u.u.",
"u.u.u.u.u.u.u.u.u.u.u.u.u.u.u.u.u.u.u.u.u.u.u.>.r T.qXpXuX+X.X5XuXpXiX7Xd.t.r.u.u.u.u.u.u.u.u.u.u.u.u.u.u.u.u.u.u.u.u.u.u.u.u.u.",
"u.u.u.u.u.u.u.u.u.u.u.u.u.u.u.u.u.u.u.u.u.u.u.u.i.g.3XpXpXuXeXuXpXpXpXwX>Xp.u.u.u.u.u.u.u.u.u.u.u.u.u.u.u.u.u.u.u.u.u.u.u.u.u.u.",
"u.u.u.u.u.u.u.u.u.u.u.u.u.u.u.u.u.u.u.u.u.u.u.u.u.p.<XuXpX7X4X4X>XrXiXrX2Xu.u.u.u.u.u.u.u.u.u.p.u.u.u.u.u.u.u.u.u.u.u.u.u.u.u.u.",
"u.u.u.u.u.u.u.u.u.u.u.u.u.u.u.u.u.u.u.u.u.u.u.u.u.p.>XtX2X0.4X4X-.2XyXwX<Xi.u.u.u.u.u.u.u.u.u.u.u.u.u.u.u.u.u.u.u.u.u.u.u.u.u.u.",
"u.u.u.u.u.u.u.u.u.u.u.u.u.u.u.u.u.u.u.u.u.u.u.u.u.p.j.3X+ &.j.-.u.9XwX7Xj.u.u.u.u.u.u.u.u.u.u.u.u.u.u.u.u.u.u.u.u.u.u.u.u.u.u.u.",
"u.u.u.u.u.u.u.u.u.u.u.u.u.u.u.u.u.u.u.u.u.u.u.u.u.u.g.>X>Xp.+ h.j.3XqX2Xf.u.u.u.u.u.u.u.u.u.u.u.u.u.u.u.u.u.u.u.u.u.u.u.u.p.u.u.",
"u.u.u.u.u.u.u.u.u.u.u.u.u.u.u.u.u.u.u.u.u.u.u.u.u.u.u.>X8XwX>X3X2X2X0X>Xu.u.u.u.u.u.u.u.u.u.u.u.u.u.u.u.u.u.u.u.u.u.u.u.u.u.u.u.",
"u.u.u.u.u.u.u.u.u.u.u.u.u.u.u.u.u.u.u.u.u.u.u.u.u.u.u.j.4XrXrXqXqXqX0X-Xu.u.u.u.u.u.u.u.u.u.u.u.u.u.u.u.u.u.u.u.u.u.u.u.u.u.u.u.",
"u.u.u.u.u.u.u.u.u.u.u.u.u.u.u.u.u.u.u.u.u.u.u.u.u.u.u.j.7XwXrXiXuXrXqX*Xu.u.u.u.u.u.u.u.u.u.u.u.u.u.u.u.u.u.u.u.u.u.u.u.u.u.u.u.",
"u.u.u.u.u.u.u.u.u.u.u.u.u.u.u.u.u.u.u.u.u.u.u.u.u.u.u.j.9XrXiXiXwXyXwXj.u.u.u.u.u.u.u.u.u.u.u.u.u.u.u.u.u.u.u.u.u.u.u.u.u.u.u.u.",
"u.u.u.u.u.u.u.u.u.u.u.u.u.u.u.u.u.u.u.u.u.u.u.u.u.u.u.*X3XwXyXrXyXiXyX-Xu.u.u.u.u.u.u.u.u.u.u.u.u.u.u.u.u.u.u.u.u.u.u.u.u.u.u.u.",
"u.u.u.u.u.u.u.u.u.u.u.u.u.u.u.u.u.u.u.u.u.u.u.u.u.u.g.<X7X0XwXiXpXiXiX2Xu.u.u.u.u.u.u.u.u.u.u.u.p.u.u.u.u.u.u.u.u.u.u.u.u.u.u.u.",
"u.u.u.u.u.u.u.u.u.u.u.u.u.u.u.u.u.u.u.u.u.u.u.u.u.u.h.3X0X0XwXtXyXiXiX8Xp.u.u.u.u.u.u.u.u.u.u.u.u.u.u.u.u.u.u.u.u.u.u.u.u.u.u.u.",
"u.u.u.u.u.u.u.u.u.u.u.u.u.u.u.u.u.u.u.u.u.u.u.u.u.u.8.$X;X1X1X1X6X:X:X$Xp.u.u.u.u.u.u.u.u.u.u.u.u.u.u.u.u.u.u.u.u.u.u.u.u.p.u.u.",
"u.u.u.u.u.u.u.u.u.u.u.u.u.u.u.u.u.u.u.u.u.u.u.u.u.u.! P ^ ^ ^ ^ ^ ) ) { w.u.u.u.u.u.u.u.u.u.u.u.u.u.u.u.u.u.u.u.u.u.u.u.u.u.u.u.",
"u.u.u.u.u.u.u.u.u.u.u.u.u.u.u.u.u.u.u.u.u.u.u.u.u.6.] ` ) I L I ( ` ' } w.p.u.u.u.u.u.u.u.u.u.u.u.u.u.u.u.u.u.u.u.u.u.u.u.u.u.u.",
"u.u.u.u.u.p.u.u.u.u.u.u.u.u.u.u.u.u.u.u.u.u.u.u.u.5.{ .._ B b b L | $.` 7.p.u.u.u.u.u.u.u.u.u.u.u.u.u.u.u.u.u.u.u.u.u.u.u.u.u.u.",
"u.u.u.u.u.u.u.u.u.u.u.u.u.u.u.u.u.u.u.u.u.u.u.u.u.4.{ @.} B D S V ..%.| 7.u.u.u.u.u.u.u.u.u.u.u.u.u.u.u.u.u.u.u.u.u.u.u.u.u.u.u.",
"u.u.u.u.u.u.u.u.u.u.u.u.u.u.u.u.u.u.u.u.u.u.u.u.i.4.} ..) I 4.=.M  .%.+.~ p.u.u.u.u.u.u.u.u.u.u.u.u.u.u.u.u.u.u.u.u.u.u.u.u.u.u.",
"u.u.u.u.u.u.u.u.u.u.u.u.u.u.u.u.u.u.u.u.u.u.u.u.i.~ } ..( F 9.9.A } @.+.~ p.u.u.u.u.u.u.u.u.u.u.u.u.u.u.u.u.u.u.u.u.u.u.u.u.u.u.",
"u.u.u.u.u.u.u.u.u.u.u.u.u.u.u.u.u.u.u.u.u.u.u.u.i.Q } | I W u.r.D / @.` 7.p.r.u.u.u.u.u.u.u.u.u.u.u.u.u.u.u.u.u.u.u.u.u.u.u.u.u.",
"u.u.u.u.u.u.u.u.u.u.u.u.u.u.u.u.u.u.u.u.u.u.u.u.p.Q  .| L 4.u.u.R C +.` 7.p.p.p.u.u.u.u.u.u.u.u.u.u.u.u.p.u.u.u.u.u.u.u.u.u.u.u.",
"u.u.u.u.u.u.u.u.u.u.u.u.u.u.u.u.u.u.u.u.u.u.u.u.u.~  .) P 5.i.i.=.M +.+.~ u.u.u.u.u.u.u.u.u.u.u.u.u.u.u.u.u.u.u.u.u.u.u.u.u.u.u.",
"u.u.u.u.u.u.u.u.u.u.u.u.u.u.u.u.u.u.u.u.u.u.u.u.r.! ..^ P 8.i.i.w.b { +.~ u.u.u.u.u.u.u.u.u.u.u.u.u.u.u.u.u.u.u.u.u.u.u.u.u.u.u.",
"u.u.u.u.u.p.u.u.u.u.u.u.u.u.u.u.u.u.u.u.u.u.u.u.w.W { P ! 0.u.u.r.S N { ! w.u.u.u.u.u.u.u.u.u.u.u.u.u.u.u.u.u.u.u.u.u.u.u.u.u.u.",
"u.u.u.u.u.u.u.u.u.u.u.u.u.u.u.u.u.u.u.u.u.u.u.u.w.G / P G u.u.u.w.R C / [ w.u.u.p.u.u.u.u.u.u.u.u.u.u.u.u.u.u.u.u.u.u.u.u.u.u.u.",
"u.u.u.u.u.u.u.u.u.u.u.u.u.u.u.u.u.u.u.u.u.u.u.u.w.E ^ L ! i.u.u.r.W C ) _ 8.u.u.u.u.u.u.u.u.u.u.u.u.p.u.u.u.u.u.u.u.p.u.u.u.u.u.",
"u.u.u.u.u.u.u.u.u.u.u.u.u.u.u.u.u.u.u.u.u.u.u.u.w.N I J ! i.u.u.p.R H ( P 8.u.u.u.u.u.u.u.u.u.u.u.u.u.u.u.u.u.u.u.u.u.u.u.u.u.u.",
"u.u.u.u.u.u.u.u.u.u.u.u.u.u.u.u.u.u.u.u.u.u.u.u.w.N H K 7.u.u.u.w.5.B J L 7.u.u.u.u.u.u.u.u.u.u.u.u.u.u.u.u.u.u.u.u.u.u.u.u.u.u.",
"u.u.u.u.u.u.u.u.u.u.u.u.u.u.u.u.u.u.u.u.u.u.u.u.3.m H L 5.i.u.u.r.w.b B L ~ u.u.u.u.u.u.u.u.u.u.u.u.u.u.u.u.u.u.u.u.u.u.u.u.u.u.",
"u.u.u.u.u.u.u.u.u.u.u.u.u.u.u.u.u.u.u.u.u.u.u.r.R H J M 5.u.u.u.u.r.A n K E u.i.u.u.u.u.u.u.u.u.u.u.u.u.u.u.u.u.u.u.u.u.u.u.u.u.",
"u.u.u.u.u.u.u.u.u.u.u.u.p.u.u.u.u.u.u.u.u.u.u.6.N n n M 6.u.u.u.u.w.Z n n F 6.u.u.u.u.u.u.u.u.u.u.u.u.u.u.u.u.u.u.u.u.u.u.u.u.u.",
"u.u.u.u.u.u.u.u.u.u.u.u.u.u.u.u.u.u.u.u.u.u.u.6.N B m V 8.u.u.u.u.r.A m L B 4.p.u.u.u.u.u.u.u.u.u.u.u.u.u.u.u.u.u.u.u.u.u.u.u.u.",
"u.u.u.u.u.u.u.u.u.u.u.u.u.u.u.u.u.u.u.u.u.u.u.&X%X] N F 6.u.u.u.u.r.A B X.%Xw.i.u.u.u.u.u.u.u.u.u.u.u.u.u.u.u.u.u.u.u.u.u.u.u.u.",
"u.u.u.u.u.u.u.u.u.u.u.u.u.u.u.u.u.u.u.u.u.9.$X=X$X| ] G u.u.u.u.u.u.=.b O.:X&Xp.u.u.u.u.u.u.u.u.u.u.u.u.u.u.u.u.u.u.u.u.u.u.u.u.",
"u.u.u.u.u.u.u.u.u.u.u.u.u.u.u.u.u.u.u.u.8.#.X.X.o.o.O.$Xu.u.u.u.u.p.=.A ! X.#.#.e.p.u.u.u.u.u.u.u.u.u.u.u.u.u.u.u.u.u.u.u.u.u.u.",
"p.p.p.p.p.u.p.p.p.p.p.p.p.p.p.p.p.p.u.y.u.$X=X%X$Xf.&Xg.p.p.p.p.p.p.u.5.=.~ #.$Xe.p.p.p.p.p.p.p.p.p.p.p.p.p.p.p.p.p.p.p.p.p.p.p.",
"u.u.u.u.u.u.u.u.u.u.u.u.u.u.u.u.u.u.u.u.r.0.i.p.p.u.r.0.u.u.u.u.u.u.u.u.6.u.u.9.9.u.u.u.u.u.u.u.u.u.u.u.u.u.u.u.u.u.u.u.u.u.u.u."
};
