/* XPM */
static char *_911721607730[] = {
/* columns rows colors chars-per-pixel */
"64 64 215 2 ",
"   c #5A352C",
".  c #5E3C35",
"X  c #653E36",
"o  c #6B433B",
"O  c #795344",
"+  c #73544B",
"@  c #69696A",
"#  c #76696A",
"$  c #B17B2E",
"%  c #CC7A1A",
"&  c #855D53",
"*  c #8B6354",
"=  c #966B56",
"-  c #B26D58",
";  c #88716F",
":  c #987366",
">  c #A97E6F",
",  c #B67C6A",
"<  c #C07C4A",
"1  c #AE9133",
"2  c #D48A1F",
"3  c #DE991B",
"4  c #EFB31B",
"5  c #DA9A27",
"6  c #C2853C",
"7  c #D79B34",
"8  c #DAB629",
"9  c #D7A934",
"0  c #E4AA24",
"q  c #EFB924",
"w  c #EBC71E",
"e  c #FAD52A",
"r  c #F7D031",
"t  c #AD8757",
"y  c #B2906E",
"u  c #B58576",
"i  c #D5AD52",
"p  c #C3846D",
"a  c #C89667",
"s  c #C78A75",
"d  c #CA947B",
"f  c #D3977B",
"g  c #CCA969",
"h  c #D3BA67",
"j  c #C9A77B",
"k  c #D9B974",
"l  c #E2BA7B",
"z  c #F0B07B",
"x  c #E9D34F",
"c  c #D9C378",
"v  c #E5CF6F",
"b  c #EAC675",
"n  c #EBD777",
"m  c #3E5A8E",
"M  c #375F98",
"N  c #36609B",
"B  c #1858A8",
"V  c #1D61B0",
"C  c #2C63A7",
"Z  c #376BAB",
"A  c #276AB5",
"S  c #2C6BBA",
"D  c #3569B1",
"F  c #2F73B6",
"G  c #3979BD",
"H  c #445F90",
"J  c #486597",
"K  c #5D6E91",
"L  c #6B7997",
"P  c #496DA9",
"I  c #4F77AF",
"U  c #667DA4",
"Y  c #196CC7",
"T  c #1E74D2",
"R  c #216EC6",
"E  c #2373C5",
"W  c #2776C7",
"Q  c #337BC6",
"!  c #277CD1",
"~  c #877F81",
"^  c #E97893",
"/  c #7F879B",
"(  c #5784B8",
")  c #6A84AE",
"_  c #7889A7",
"`  c #6788B4",
"'  c #7894B7",
"]  c #3584CC",
"[  c #3D87C9",
"{  c #2D83D2",
"}  c #388DD5",
"|  c #3D90D5",
" . c #3C93DA",
".. c #4C86C3",
"X. c #4D8DCB",
"o. c #4B92CD",
"O. c #4493D3",
"+. c #4196DA",
"@. c #4898D9",
"#. c #4B9EDC",
"$. c #599AD9",
"%. c #6394CC",
"&. c #689BD2",
"*. c #4DA0DE",
"=. c #51A2DD",
"-. c #78A4CF",
";. c #6AA4D9",
":. c #4BA3E4",
">. c #57A9E3",
",. c #8D8C8E",
"<. c #888C9B",
"1. c #998D90",
"2. c #9B999B",
"3. c #A98F8A",
"4. c #B38C83",
"5. c #B89385",
"6. c #A79998",
"7. c #BA9E95",
"8. c #BAAE8D",
"9. c #B5A39A",
"0. c #BCA49D",
"q. c #828CA9",
"w. c #8894AB",
"e. c #9699A7",
"r. c #9C9EA9",
"t. c #8497B5",
"y. c #939CB1",
"u. c #A19EA2",
"i. c #AE9CA6",
"p. c #BA9BA5",
"a. c #9EA1AB",
"s. c #9BA5B6",
"d. c #A3A2A6",
"f. c #ACA4A5",
"g. c #A7A6AB",
"h. c #A9A5AA",
"j. c #A9A8AD",
"k. c #B1A4A6",
"l. c #B6A8A7",
"z. c #A9ABB4",
"x. c #B1AFB3",
"c. c #B7B3B7",
"v. c #BAB9BD",
"b. c #C69786",
"n. c #D79C85",
"m. c #C78D9F",
"M. c #C99C95",
"N. c #D79894",
"B. c #EA828D",
"V. c #F08F8C",
"C. c #E79A8B",
"Z. c #D9A288",
"A. c #DEA48B",
"S. c #C9B386",
"D. c #C3A49C",
"F. c #C9AA99",
"G. c #D8A996",
"H. c #C8BE96",
"J. c #DAB19B",
"K. c #E4AA8E",
"L. c #E8A888",
"P. c #E7BA88",
"I. c #F3B78F",
"U. c #E7A991",
"Y. c #E5AD92",
"T. c #EBB195",
"R. c #E8B599",
"E. c #D094A3",
"W. c #CBADA3",
"Q. c #D8A7A3",
"!. c #C8B4A7",
"~. c #DAB5A2",
"^. c #E4B9A4",
"/. c #EDBCA3",
"(. c #F1BCA1",
"). c #CFC391",
"_. c #D5C79B",
"`. c #ECC994",
"'. c #ECC3A7",
"]. c #F4C4A6",
"[. c #F3C7AB",
"{. c #ECD5AA",
"}. c #E7C7BA",
"|. c #F4CAB2",
" X c #8EA9C7",
".X c #9AACC5",
"XX c #91B1D3",
"oX c #9BB7D8",
"OX c #B3B9C3",
"+X c #BCBCC1",
"@X c #A2BBD5",
"#X c #C0BEC1",
"$X c #BAC7D6",
"%X c #B8CFE6",
"&X c #C6C4C9",
"*X c #CACACD",
"=X c #D4C8C6",
"-X c #C5D0DF",
";X c #D2D2D5",
":X c #D6D6DA",
">X c #DBDBDD",
",X c #F1DDD3",
"<X c #DCDDE1",
"1X c #DFE0E4",
"2X c #E2E2E5",
"3X c #E4E5E9",
"4X c #E7E8EB",
"5X c #EAEAED",
"6X c #F5ECE8",
"7X c #EDEEF1",
"8X c #F2F0F1",
"9X c #F2F3F6",
"0X c #F8F7F7",
"qX c #F5F6F9",
"wX c #FBFBFB",
/* pixels */
"g.g.g.g.g.g.g.g.g.g.g.g.g.g.g.g.g.g.g.g.g.g.g.g.g.g.g.g.g.g.g.g.g.g.j.j.j.g.g.g.g.g.g.g.g.g.g.g.g.g.g.g.g.g.g.g.g.g.g.g.g.g.g.g.",
"g.g.g.g.g.g.g.g.g.g.g.g.g.g.g.g.g.g.g.g.g.g.g.j.g.i.g.g.k.f.h.k.g.h.i.i.g.g.g.g.g.g.g.g.g.g.g.g.g.g.g.g.g.g.g.g.g.g.g.g.g.g.g.g.",
"g.g.g.g.g.g.g.g.g.g.g.g.g.g.g.g.g.g.g.g.g.g.g.j.f.B.C.h.k h h l l.N.B.m.g.g.g.g.g.g.g.g.g.g.g.g.g.g.g.g.g.g.g.g.g.g.g.g.g.g.g.g.",
"g.g.g.g.g.g.g.g.g.g.g.g.g.g.g.g.g.g.g.g.g.g.g.E.h.M.z F.9 w e x 8.L.C.k.g.g.g.g.g.g.g.g.g.g.g.g.g.g.g.g.g.g.g.g.g.g.g.g.g.g.g.g.",
"g.g.g.g.g.g.g.g.g.g.j.g.g.g.g.g.g.g.g.g.g.g.g.^ Q.k.l k 0 1 1 8 y l D.k.p.g.g.g.g.g.g.g.g.g.g.g.g.g.g.g.g.g.g.g.g.g.g.g.g.g.g.g.",
"g.g.g.g.g.g.g.g.g.g.g.g.g.g.g.g.g.g.g.g.g.g.g.^ V.J.H.v 5 9 $ % 6 S.l.C.N.g.g.g.g.g.g.g.g.g.g.g.g.g.g.g.g.g.g.g.g.g.g.g.g.g.g.g.",
"g.g.g.g.g.g.g.g.g.g.g.g.g.g.g.g.g.g.g.g.g.g.g.D.L.`.`._.g 5 % < k !.`.I.M.g.g.g.g.g.g.g.g.g.g.g.g.g.g.g.g.g.g.j.g.g.g.g.g.g.g.g.",
"g.g.g.g.g.g.g.g.g.g.g.g.g.g.g.g.g.g.g.g.g.g.g.g.l.`.R.t i 7 0 c '.{.{.!.h.g.g.g.g.g.g.g.g.g.g.g.g.g.g.g.g.g.g.g.g.g.g.g.g.g.g.g.",
"g.g.g.g.g.g.g.g.g.g.g.g.g.g.g.g.g.g.g.g.g.g.g.g.W.Y.f 5 4 e e r a '.!.j.g.g.g.g.g.g.g.g.g.g.g.g.g.g.g.g.g.g.g.g.g.g.g.g.g.g.g.g.",
"g.g.g.g.g.g.g.g.g.g.g.g.g.g.g.g.g.g.g.g.g.g.g.l.J.s a 3 0 q e e a `.{.!.g.g.g.g.g.g.g.g.g.g.g.g.g.g.g.g.g.g.g.g.g.g.g.g.g.g.g.g.",
"g.g.g.g.g.g.g.g.g.g.g.g.g.g.g.g.g.g.g.g.g.g.i.N.Y.Y.d 7 2 3 0 9 a /.`.I.W.g.g.g.g.g.g.g.g.g.g.g.g.g.g.g.g.g.g.g.g.g.g.g.g.g.g.g.",
"g.g.g.g.g.g.g.g.g.g.g.g.g.g.g.g.g.g.g.g.g.g.m.V.T.Y.l c g g v S.l 5.6.n.M.g.g.g.g.g.g.g.g.g.g.g.g.g.g.g.g.g.g.g.g.g.g.g.g.g.g.g.",
"g.g.g.g.g.g.g.g.g.g.g.g.g.g.g.g.g.g.g.g.g.g.m.V.R.n.b H.n ).n H.b j F.W.l.g.g.g.g.g.g.g.g.g.g.g.g.g.g.g.g.g.g.g.g.g.g.g.g.g.g.j.",
"g.g.g.g.g.g.j.g.g.g.g.g.g.g.g.g.g.g.g.g.g.g.p.Q.(.L.P.F.n 8.c ).0.z R.'.l.g.g.g.g.g.g.g.g.g.g.g.g.g.g.g.g.g.g.g.g.g.g.g.g.g.g.g.",
"g.g.g.g.g.g.g.g.g.g.g.g.g.g.g.g.g.g.g.g.g.g.j.^.(.V.F.6.t + O = 6.N.C.[.^.j.j.g.g.g.g.g.g.g.g.g.g.g.g.g.g.g.g.g.g.g.g.g.g.g.g.g.",
"g.g.g.g.g.g.g.g.g.g.g.g.g.g.g.g.g.g.g.g.g.g.F.R.R.k.6.# . o o o + ,.M.'.|.~.g.g.g.g.g.g.g.g.g.g.g.g.g.g.g.g.g.g.g.g.g.g.g.g.g.g.",
"g.g.g.g.g.g.g.g.g.g.g.g.g.g.g.g.g.g.g.g.g.f.G.].~.f.; . = & * *   # 9.T.|.'.l.g.g.g.g.g.g.g.g.g.g.g.g.g.g.g.g.g.g.g.g.g.g.g.g.g.",
"g.g.g.g.g.g.g.g.g.g.g.g.g.g.g.g.g.g.g.g.g.7.T.].~.h.# o f [.].Y.O # f.b.R.[.F.g.g.g.g.g.g.g.g.g.g.g.g.g.g.g.g.g.g.g.g.g.g.g.g.g.",
"g.g.g.g.g.g.g.g.g.g.g.g.g.g.g.g.g.g.g.g.h.b.I.(.W.h.,.X * : > : & ~ g.6.f `.J.g.g.g.g.g.g.g.g.g.g.g.g.g.g.g.g.g.g.g.g.g.g.g.g.g.",
"g.g.g.g.g.g.g.g.g.g.g.g.g.g.g.g.g.g.g.g.f.n.T.U.k.i.6.& s u u F.> 6.g.W.A.U.M.g.g.g.g.g.g.g.g.g.g.g.g.g.g.g.g.g.g.g.g.g.g.g.g.g.",
"g.g.g.g.g.g.j.g.g.g.g.g.g.g.g.g.g.g.g.g.k.K.K.n.j.j.i.; p s b.Z.> 2.k.J.Y.A.0.g.g.g.g.g.g.g.g.g.g.g.j.g.g.g.g.g.g.g.g.g.g.g.g.g.",
"g.g.g.g.g.g.g.g.g.g.g.g.g.g.g.g.g.g.g.g.f.n.U./.^.l.g.1.s n.Z.n.3.f.9.K.Y.K.D.f.g.g.g.g.g.g.g.g.g.g.g.g.g.g.g.g.g.g.g.g.g.g.g.g.",
"g.g.g.g.g.g.g.g.g.g.j.g.g.g.g.g.g.g.g.g.g.u n.(.(.!.g.g.4.A.R.N.f.z.l.n.K.Y.D.g.g.g.g.g.g.g.g.g.g.g.g.g.g.g.g.g.g.g.g.g.g.g.g.g.",
"g.g.g.g.g.g.g.g.g.g.g.g.g.g.g.g.g.g.g.g.g.6.s L.T.^.;Xz.3., d n.W.!.=Xn.n.A.0.g.g.g.g.g.g.g.g.g.g.g.g.g.g.g.g.g.g.g.g.g.g.g.g.g.",
"g.g.g.g.g.j.g.g.g.g.g.g.g.g.g.g.g.g.g.g.g.g.b.A.n.G.6X2X5.- p T.}.6X2XJ.d b.f.f.g.g.g.g.g.g.g.g.g.g.g.g.g.g.g.g.g.g.g.g.g.g.g.g.",
"g.g.g.g.g.g.g.g.g.g.g.g.g.g.g.g.g.g.g.g.g.g.6.s f N.8XwX}.f T./.6X0X7X=Xp 4.f.g.g.g.g.g.g.g.g.g.g.g.g.g.g.g.g.g.g.g.g.g.g.g.g.g.",
"g.g.g.g.g.g.g.g.g.g.g.g.g.g.g.g.g.g.g.g.g.g.g.6.u !.4XwX0X[.'.,X0XwXqX>Xc.f.g.g.g.g.g.g.g.g.g.g.g.g.g.g.g.g.g.g.g.g.g.g.g.g.j.g.",
"g.g.g.g.g.g.g.g.g.g.g.g.g.g.g.g.g.g.g.g.g.g.g.g.f.x.:XwXwX0X6XwXwXwXwX5X&Xj.g.g.g.g.g.g.g.g.g.g.g.g.g.g.g.g.g.g.g.g.g.g.g.g.g.g.",
"g.g.g.g.g.g.g.g.g.g.g.g.g.g.g.g.g.g.g.g.g.g.g.g.g.j.;X9XwX<X>X>X*X7XqX7X;Xg.g.g.g.g.g.g.g.g.g.g.g.g.g.g.g.g.g.g.g.g.g.g.g.g.g.g.",
"g.g.g.g.g.g.g.g.g.g.g.g.g.g.g.g.g.g.g.g.g.g.g.g.g.j.&X7X:Xd.>X:X2.;X9X5X*Xg.g.g.g.g.g.g.g.g.g.g.g.g.g.g.g.g.g.g.g.g.g.g.g.g.g.g.",
"g.g.g.g.g.g.g.g.g.g.g.g.g.g.g.g.g.g.g.g.g.g.g.g.g.g.v.:X# ,.v.u.d.2X5X<Xv.g.g.g.g.g.g.j.g.g.g.g.g.g.g.g.g.g.g.g.g.g.g.g.g.g.g.g.",
"g.g.g.g.g.g.g.g.g.g.g.g.g.g.g.g.g.g.g.g.g.g.g.g.g.g.c.*X+Xj.@ c.#X:X3X;Xx.g.g.g.g.g.g.g.g.g.g.g.g.g.g.g.g.g.g.g.g.g.g.g.g.g.g.g.",
"g.g.g.g.g.g.g.g.g.g.g.g.g.g.g.g.g.g.g.g.g.g.g.g.g.g.g.&X2X4X*X:X;X;X3X&Xf.g.g.g.g.g.g.g.g.g.g.g.g.g.g.g.g.g.g.g.g.g.g.g.g.g.g.g.",
"g.g.g.g.g.g.g.g.g.g.g.g.g.g.g.g.g.g.g.g.g.g.g.g.g.g.g.v.<X7X7X4X4X3X2Xv.h.h.g.g.g.g.g.g.g.g.g.g.g.g.g.g.g.g.g.g.g.g.g.g.g.g.g.g.",
"g.g.g.g.g.g.g.g.g.g.g.g.g.g.g.g.g.g.g.g.g.g.g.g.g.g.g.v.<X4X9X9X9X7X4Xv.g.g.g.g.g.g.g.g.g.g.g.g.g.g.g.g.g.g.g.g.g.g.g.g.g.g.g.g.",
"g.g.g.g.g.g.g.g.g.g.g.g.g.g.g.g.g.g.g.g.g.g.g.g.g.g.g.OX1X7X9X9X7X9X4X$Xg.g.g.g.g.g.g.g.g.g.g.g.g.g.g.g.g.g.g.g.g.g.g.g.g.g.g.g.",
"g.g.g.g.g.g.g.g.g.g.j.g.g.g.g.g.g.g.g.g.g.g.g.g.g.g.j.+X>X5X9X7X9X0X8X$Xg.g.g.g.g.g.g.g.g.g.g.g.j.g.g.g.g.g.g.g.g.g.g.g.g.g.g.g.",
"g.g.g.g.g.g.g.g.g.g.g.g.g.g.g.g.g.g.g.g.g.g.g.g.g.g.z.;X<X3X7X9XwX0X9X;Xg.g.g.g.g.g.g.g.g.g.g.g.g.g.g.g.g.g.g.g.g.g.g.g.g.g.g.g.",
"g.g.g.g.g.g.g.g.g.g.g.g.g.g.g.g.g.g.g.g.g.g.g.g.g.g.c.:X2X3X5X9X9X9XqX1Xj.g.g.g.g.g.g.g.g.g.g.g.g.g.g.g.g.g.g.g.g.g.g.g.g.g.g.g.",
"g.g.g.g.g.g.g.g.g.g.g.g.g.g.g.g.g.g.g.g.g.g.g.g.g.d.y..X$X-X-X-X-X%X%X.Xj.g.g.g.g.g.g.g.g.g.g.g.g.g.g.g.g.g.g.g.g.g.g.g.g.j.g.g.",
"g.g.g.g.g.g.g.g.g.g.g.g.g.g.g.g.g.g.g.g.g.g.g.g.g.g.U Q } ] ] ] ] } | o.a.g.g.g.g.g.g.g.g.g.g.g.g.g.g.g.g.g.g.g.g.g.g.g.g.g.g.g.",
"g.g.g.g.g.g.g.g.g.g.g.g.g.g.g.g.g.g.g.g.g.g.g.g.j.r.X. .} ! E ! {  .+.+.s.j.g.g.g.g.g.g.g.g.g.g.g.g.g.g.g.g.g.g.g.g.g.g.g.g.g.g.",
"g.g.g.j.g.g.g.g.g.g.g.g.g.g.g.g.g.g.g.g.g.g.g.g.g.e.X.:.| A M M W  .:. .t.j.g.g.g.g.g.g.g.g.g.g.g.g.g.g.g.g.g.g.g.g.g.g.g.g.g.g.",
"g.g.g.g.g.g.g.g.g.g.g.g.g.g.g.g.g.g.g.g.g.g.g.g.g.w.o.*.O.A L K F =.>.+.t.g.g.g.g.g.g.g.g.g.j.g.g.g.g.g.g.g.g.g.g.g.g.g.g.g.g.g.",
"g.g.g.g.g.g.g.g.g.g.g.g.g.g.g.g.g.g.g.g.g.g.g.g.g.w.o.#.} W w.<.C @.>.*.t.g.g.g.g.g.g.g.g.g.g.g.g.g.g.g.g.g.g.g.g.g.g.g.g.g.g.g.",
"g.g.g.g.g.g.g.g.g.g.j.g.g.g.g.g.g.g.g.g.g.g.g.g.g.' O.#.! I u.u.J o.=.+.' g.g.g.g.g.g.g.g.g.g.g.g.g.g.g.j.g.g.g.g.g.g.g.g.g.g.g.",
"g.g.g.g.g.g.g.g.g.g.g.g.g.g.g.g.g.g.g.g.g.g.g.g.g._ O.@.! ) g.g.L ] =. .t.j.g.g.g.g.g.g.g.g.g.g.g.g.g.g.g.g.g.g.g.g.g.g.g.g.g.g.",
"g.g.g.g.g.g.g.g.g.g.g.g.g.g.g.g.g.g.g.g.g.g.g.g.j._ @. .W w.g.g./ G *. .t.j.g.g.g.g.g.g.g.g.g.g.g.g.g.g.g.g.g.g.g.g.g.g.g.g.g.g.",
"g.g.g.g.g.g.g.g.g.g.g.g.g.g.g.g.g.g.g.g.g.g.g.g.g.' @.} Q e.k.g.<.C *.*.' g.g.g.g.g.g.g.g.g.g.g.g.g.g.g.g.g.g.g.g.g.g.g.g.g.g.g.",
"g.g.g.g.g.g.g.g.g.g.g.g.g.g.g.g.g.g.g.g.g.g.g.g.f.` @.] Q y.g.g.u.M O.*.' g.g.g.g.g.g.g.g.g.g.g.g.g.g.g.g.g.g.g.g.g.g.g.g.g.g.g.",
"g.g.g.g.g.g.g.g.g.g.g.g.g.g.g.g.g.g.g.g.g.g.g.g.f.) O.Q U g.g.g.d.K Z o.` g.g.g.g.g.g.g.g.g.g.g.g.g.g.g.g.g.g.g.g.g.g.g.g.g.g.g.",
"g.g.g.g.g.g.g.g.g.g.g.g.g.g.g.g.g.g.g.g.g.g.g.g.a.I [ G ) g.g.g.a./ F [ X.a.g.g.g.g.g.g.g.g.g.g.g.g.g.g.g.g.g.g.g.g.g.g.g.g.g.g.",
"g.g.g.g.g.g.g.g.g.j.g.g.g.g.g.g.g.g.g.g.g.g.g.g.u.( ] E ` g.g.g.d._ F } O.y.g.g.g.g.g.g.g.g.g.g.g.g.g.g.g.g.g.g.g.g.g.g.g.g.g.g.",
"g.g.g.g.g.j.g.g.g.g.g.g.g.g.g.g.g.g.g.g.g.g.g.g.a.G ! T ` g.g.g.g._ Y { { y.g.g.g.g.g.g.g.g.g.g.g.g.g.g.g.g.g.g.g.g.g.g.g.g.g.g.",
"g.g.g.g.g.g.g.g.g.g.g.g.g.g.g.g.g.g.g.g.g.g.g.g.2.D T R t.g.g.g.g.2.A T W w.g.g.g.g.g.g.g.g.g.g.g.g.g.g.g.g.g.g.g.g.g.g.g.g.g.g.",
"g.g.g.g.g.g.g.g.g.g.g.g.g.g.g.g.g.g.g.g.g.g.g.g.q.V Y S e.g.g.g.g.a.m Y E ' g.g.g.g.g.g.g.g.g.g.g.g.g.g.j.g.g.g.g.g.g.g.g.g.g.g.",
"g.g.g.g.g.g.g.g.g.g.g.g.g.g.g.g.g.g.g.g.g.g.g.g._ A T C e.g.g.g.g.a.J B R ( g.g.g.g.g.g.g.g.g.g.g.g.g.g.g.g.g.g.g.g.g.g.g.g.g.g.",
"g.g.g.g.g.g.g.g.g.g.g.g.g.g.g.g.g.g.g.g.g.g.g.e.N B B D r.g.g.g.g.a.H B B P u.g.g.g.g.g.g.g.g.g.g.g.g.g.g.g.g.g.g.j.g.g.g.g.g.g.",
"g.g.g.g.g.g.g.g.g.g.g.g.g.g.g.g.g.g.g.g.g.g.g.r.D A V S y.g.g.g.g.a.J A Y S w.g.g.g.g.g.g.g.g.g.g.g.g.g.g.g.g.g.g.g.g.g.g.g.g.g.",
"g.g.g.g.g.g.g.g.g.g.g.g.g.g.g.g.g.g.g.g.g.g.j.OXoX..Z P r.g.g.g.g.d.H A $.oXz.g.g.g.g.g.g.g.g.g.g.g.g.g.g.g.g.g.g.g.g.g.g.g.g.g.",
"g.g.g.g.g.g.g.g.g.g.g.g.g.g.g.g.g.g.g.g.g.g..XoXXX+...U g.g.g.g.g.d.<.N &.%XOXj.g.g.g.g.g.g.g.g.g.g.g.g.g.g.g.g.g.g.g.g.g.g.g.g.",
"g.g.g.g.g.g.g.g.g.g.g.g.g.g.g.g.g.g.g.g.y.&.$.$.%.%.&. Xg.g.g.g.g.d.e.J ` $.;.-.s.j.g.g.g.g.g.g.g.g.g.g.g.g.g.g.g.g.g.g.g.g.g.g.",
"j.j.j.j.j.j.j.j.j.j.j.j.j.j.j.j.j.j.g.g.g..X@XoX.Xz.OXc.j.g.j.j.j.j.j.e./ ' -. Xs.j.j.j.j.j.j.j.j.j.j.j.g.j.j.j.j.j.j.j.j.j.j.j.",
"g.g.g.g.g.g.g.g.g.g.g.g.g.g.g.g.g.g.g.g.g.u.g.j.j.g.g.i.g.g.g.g.g.g.g.g.d.j.g.u.u.g.g.g.g.g.g.g.g.g.g.g.g.g.g.g.g.g.g.g.g.g.g.g."
};
