/* XPM */
static char *Close1C1721788672[] = {
/* columns rows colors chars-per-pixel */
"64 64 211 2 ",
"   c #0D0000",
".  c #130000",
"X  c #1B0000",
"o  c #2A0000",
"O  c #360101",
"+  c #430101",
"@  c #4B0202",
"#  c #540404",
"$  c #5C0404",
"%  c #680404",
"&  c #7A0605",
"*  c #770808",
"=  c #5D2A1C",
"-  c #7A3017",
";  c #4A1F20",
":  c #52372A",
">  c #594529",
",  c #524639",
"<  c #684826",
"1  c #6E4E36",
"2  c #624E38",
"3  c #67543A",
"4  c #0D1E4A",
"5  c #10214E",
"6  c #0E2357",
"7  c #132554",
"8  c #14285B",
"9  c #14285C",
"0  c #243740",
"q  c #132A63",
"w  c #192D62",
"e  c #162E6A",
"r  c #1A3169",
"t  c #1C326C",
"y  c #1B3678",
"u  c #223974",
"i  c #223C7C",
"p  c #344B45",
"a  c #3A545A",
"s  c #2C4566",
"d  c #324B66",
"f  c #304C7F",
"g  c #505A54",
"h  c #764744",
"j  c #6E5355",
"k  c #7B5456",
"l  c #785C5A",
"z  c #4A6757",
"x  c #69635F",
"c  c #756A57",
"v  c #785E60",
"b  c #4D6A66",
"n  c #567667",
"m  c #7A696B",
"M  c #7B756B",
"N  c #7B7774",
"B  c #830505",
"V  c #8B0605",
"C  c #8C0908",
"Z  c #920606",
"A  c #980706",
"S  c #940C0C",
"D  c #9D0D0D",
"F  c #881414",
"G  c #A20A0A",
"H  c #AD0A0A",
"J  c #B60C0C",
"K  c #AE1212",
"L  c #B71515",
"P  c #982719",
"I  c #902818",
"U  c #A4281A",
"Y  c #B21E21",
"T  c #812324",
"R  c #8B2424",
"E  c #BA3136",
"W  c #C70E0E",
"Q  c #C31414",
"!  c #CB1313",
"~  c #CB1A1A",
"^  c #D71818",
"/  c #E61716",
"(  c #D71A21",
")  c #E31C24",
"_  c #EC1C24",
"`  c #D4262D",
"'  c #C52D33",
"]  c #B43D42",
"[  c #854C4C",
"{  c #894E4E",
"}  c #94494B",
"|  c #894F50",
" . c #825152",
".. c #8C5050",
"X. c #935353",
"o. c #9F5459",
"O. c #AD464B",
"+. c #B2464B",
"@. c #A05E62",
"#. c #816F72",
"$. c #817B76",
"%. c #827C7A",
"&. c #997478",
"*. c #688A77",
"=. c #FB9A05",
"-. c #F99E0C",
";. c #F9A415",
":. c #F8A81C",
">. c #F7AC27",
",. c #F9BB2E",
"<. c #F3B437",
"1. c #FABD31",
"2. c #FBC43A",
"3. c #85807D",
"4. c #E9B953",
"5. c #D9B66D",
"6. c #CBAC75",
"7. c #CCB277",
"8. c #D4B877",
"9. c #E2B961",
"0. c #E4BD69",
"q. c #F9C945",
"w. c #EFC655",
"e. c #E2C573",
"r. c #1C3B83",
"t. c #1D3E89",
"y. c #223E83",
"u. c #1E4190",
"i. c #294386",
"p. c #23428C",
"a. c #29458A",
"s. c #2A468C",
"d. c #395885",
"f. c #224594",
"g. c #294690",
"h. c #2C4A93",
"j. c #22479A",
"k. c #24499C",
"l. c #2C4D9C",
"z. c #304E9A",
"x. c #33529E",
"c. c #244CA3",
"v. c #2A4EA3",
"b. c #264FA9",
"n. c #2D50A3",
"m. c #2751AD",
"M. c #2951AC",
"N. c #3353A3",
"B. c #3859A7",
"V. c #3557A9",
"C. c #3658AC",
"Z. c #395BAD",
"A. c #2752B1",
"S. c #2854B4",
"D. c #2A56BA",
"F. c #2B59BF",
"G. c #385DB5",
"H. c #3A5DB4",
"J. c #3C60B5",
"K. c #3D62BD",
"L. c #42628A",
"P. c #566CAC",
"I. c #4266BE",
"U. c #4867B8",
"Y. c #4C6ABA",
"T. c #546EB7",
"R. c #536EB9",
"E. c #5771B7",
"W. c #5B72B5",
"Q. c #6476AE",
"!. c #6A7AAE",
"~. c #717BA6",
"^. c #727FAD",
"/. c #6276B3",
"(. c #6779B3",
"). c #6B7CB2",
"_. c #3F65C1",
"`. c #4065C0",
"'. c #8C7E82",
"]. c #7B84A9",
"[. c #7B85AC",
"{. c #7482B1",
"}. c #898385",
"|. c #8C868A",
" X c #8D888C",
".X c #90868A",
"XX c #958A8E",
"oX c #938E92",
"OX c #949195",
"+X c #99959A",
"@X c #9B999D",
"#X c #B9A88F",
"$X c #BAB09D",
"%X c #838BAC",
"&X c #898FAA",
"*X c #8D91AA",
"=X c #9597A6",
"-X c #9D9BA1",
";X c #9295A9",
":X c #9799A9",
">X c #9C9DA9",
",X c #A09FA5",
"<X c #A2A1A6",
"1X c #ACA8A6",
"2X c #A7A6AB",
"3X c #A8A5A8",
"4X c #B3ADA3",
"5X c #C0A884",
"6X c #CCB589",
"7X c #D1BA86",
"8X c #C4B594",
/* pixels */
"2X2X2X2X2X2X2X2X2X2X2X2X2X2X2X2X2X2X2X2X2X2X2X2X2X2X2X2X2X2X2X2X2X2X2X2X2X2X2X2X2X2X2X2X2X2X2X2X2X2X2X2X2X2X2X2X2X2X2X2X2X2X2X2X",
"2X2X2X2X2X2X2X2X2X2X2X2X2X2X2X2X2X2X2X2X2X2X2X2X2X2X2X2X2X2X2X2X2X2X2X2X2X2X2X2X2X2X2X2X2X2X2X2X2X2X2X2X2X2X2X2X2X2X2X2X2X2X2X2X",
"2X2X2X2X2X2X2X2X2X2X2X2X2X2X2X2X2X2X2X2X2X2X2X2X2X2X2X2X2X2X2X2X2X2X2X2X2X2X2X2X2X2X2X2X2X2X2X2X2X2X2X2X2X2X2X2X2X2X2X2X2X2X2X2X",
"2X2X2X2X2X2X2X2X2X2X2X2X2X2X2X2X2X2X2X2X2X2X2X2X2X2X2X2X2X2X2X2X2X2X2X2X2X2X2X2X2X2X2X2X2X2X2X2X2X2X2X2X2X2X2X2X2X2X2X2X1X2X2X2X",
"2X2X2X2X2X2X2X2X2X2X2X2X2X2X2X2X2X2X2X2X2X2X2X2X2X2X2X2X2X2X2X2X2X2X2X2X2X2X2X2X2X2X2X2X2X2X2X2X2X2X2X2X2X2X2X2X2X2X2X2X2X2X2X2X",
"2X2X2X2X2X2X2X2X2X2X2X2X2X2X2X2X2X2X2X2X2X2X2X2X2X2X2X2X2X2X2X2X2X2X2X2X2X2X2X2X2X2X2X2X2X2X2X2X2X2X2X2X2X2X2X2X2X2X2X2X2X2X2X2X",
"2X2X2X>X:X>X>X<X<X2X2X2X2X2X2X2X2X2X2X2X2X2X2X2X2X2X2X2X2X2X2X2X2X2X2X2X2X2X2X2X2X2X2X2X2X2X2X2X2X2X2X2X2X2X2X2X2X2X2X2X2X2X2X2X",
"2X2X2X!.U.Y.Y.E.W.(.{.[.[.*X*X>X>X>X<X<X<X2X2X2X2X2X2X2X2X2X2X2X2X2X2X2X2X2X2X2X2X2X2X2X2X2X2X2X2X2X2X2X2X2X2X2X2X2X2X2X2X2X2X2X",
"2X2X2X{._._._.`._._._._._.I.I.Y.Y.E.W.(.(.{.].%X*X;X:X>X>X,X2X2X2X2X2X2X2X2X2X2X2X2X2X2X2X2X2X2X2X2X2X2X2X2X2X2X2X2X2X2X2X2X2X2X",
"2X2X2X{._._._.`._._._._._._._._._._._._._._._._.I.I.Y.Y.R.W.].2X2X2X2X2Xv T R R R R R R R R R R R R R R R R R R R R R ; >X2X2X2X",
"2X2X2X%X`._.`.`._._._.`._._._._._._._._._._._._._._._._._._.Q.2X2X2X2X2Xk J & C Z V V V & B & & V & & B C V Z Z S B H $ OX2X2X2X",
"2X2X2X&X`._.`.N.a.z.C.H.K._._._._._._._._._._._._._._._._._.Q.2X2X2X2X2Xk G + Q Q Q Q K + H & % J o * D C Q ^ ~ Q B B $ OX2X2X2X",
"2X2X2X*XI.`.`.g.w 4 7 w w y i.V._._._._.J.K.K._._._._._._._.W.2X2X2X2X2X#.H + ~ % @ + + X * ^ W C X * K o O K D O o & $ OX2X2X2X",
"2X2X2X;X`.`.`.N.y.y y e q 7 4 h._._._.H.t w y s.g.z.N.K._._.Q.2X2X2X2X2Xk G + ^ Q J L G o o W ^ O . * K .   S S . . & $ OX2X2X2X",
"2X2X2X:XI.`._.C.f.j.D.D.S.t.4 s._._._.H.i e q 8 8 5 7 J._._.Q.2X2X2X2X2Xk G + ~ * @ # @ X O W / #   * L . . S S     & $ OX2X2X2X",
"2X2X2X:XY._._.H.r.c.F.F.F.j.4 i._._._.J.p.b.D.S.S.p.8 K._._.Q.2X2X2X2X2Xk G + ! +       . C J J K X * K . . S S .   * $ OX2X2X2X",
"2X2X2X>XY.`.`.K.p.v.D.F.F.c.4 i._._._.H.f.M.F.F.F.r.w I._._.{.2X2X2X2X2Xk G + ~ @ . X X @ W % + ^ % * K . . S S     * $ OX2X2X2X",
"2X2X2X>XT.`._._.p.c.D.F.F.b.6 g._._._.H.f.M.F.F.F.y r K._._.{.2X2X2X2X2Xk D + ^ Q L K G H G X . B W C K . . S S .   & $ OX2X2X2X",
"2X2X2X>XT._._._.g.j.D.F.F.b.6 h._._._.H.p.b.F.F.D.e i K._.`.{.2X2X2X2X2Xk H $ B S A A C B % + + # B % & + + % & + + C $ +X2X2X2X",
"2X2X2X2X/._._._.h.f.A.F.F.A.6 h._._._.H.p.v.F.F.S.e i._._.K.{.2X2X2X2X2Xj Z A A A A A A A A A A A A A A A A A A A A A + OX2X2X2X",
"2X2X2X2X(._._._.N.f.b.F.F.A.9 s._._._.H.p.M.F.F.S.q a._.`.`.{.2X2X2X2X2X-X.X.X.X X.X.X.X.X.X.X.X|.|..X.X.X.X.X.X.X.X.X.X-X2X2X2X",
"2X2X2X<X)._._._.H.f.b.F.F.A.q s._._._.H.p.M.F.F.A.6 h.`.`.`.%X2X2X2X2X2X2X2X2X2X2X2X2X2X2X2X2X2X2X2X2X2X2X2X2X2X2X2X2X2X2X2X2X2X",
"2X2X2X2X^._._._.H.f.b.F.F.D.q a._._._.H.f.b.F.F.m.6 N._._.`.%X2X2X2X2X2X2X2X2X2X2X2X2X2X2X2X2X2X2X2X2X2X2X2X2X2X2X2X2X2X2X2X2X2X",
"2X2X2X2X^._._._.H.f.b.F.F.D.e a._._._.H.l.A.F.F.b.7 N._._._.%X2X2X2X2X2X2X2X2X2X2X2X2X2X2X2X2X2X2X2X2X2X2X2X2X2X2X2X2X2X2X2X2X2X",
"2X2X2X2X[._._._._.y.b.F.F.F.e s._._._.K.v.A.F.F.c.7 V._._.K.%X2X2X2X2X2X2X2X2X2X2X2X2X2X2X2X2X2X2X2X2X2X2X2X2X2X2X2X2X2X2X2X2X2X",
"2X2X2X2X[._._._._.h.k.D.F.S.t s._._._.G.k.v.F.F.f.7 Z._._.I.&X2X2X2X2X2X2X2X2X2X2X2X2X2X2X2X2X2X2X2X2X2X2X2X2X2X2X2X2X2X2X2X2X2X",
"2X2X2X2X%X`._._._.N.j.S.A.k.y.C._._._.H.p.j.m.D.t.7 H._.K.I.&X2X2X2X2X2X2X2X2X2X-X|.<X2X2X2X2X2X2X2X2X2X2X2X3X3X2X2X2X2X2X2X2X2X",
"2X2X2X2X&X`._._._.n.j.k.j.f.C._._._._._.C.h.f.j.y w H._.I.I.&X2X2X2X2X2X2X2X2XOX[ , ,X2X2X2X2X2X2X2X2X2X2X2X3X1X2X2X2X2X2X2X2X2X",
"2X2X2X2X*XI._._._.C.f.t.l.H._._._._._.`._.K.N.h.p.t J.`._.I.;X2X2X2X2X2X2X,X&.' L > %.%.$.3.N N %.3.N 3.3.%.$.*.}.OX2X2X2X2X2X2X",
"2X2X2X2X:XI._._._.H.y.v._._.`.K.C.u h._._._._.K.H.s.K._._.U.=X2X2X2X2X2X@Xo.( _ ~ U P P U U P P P P I P I P U U - m 2X2X2X2X2X2X",
"2X2X2X2X:XY._._._.H.Z._._._._.s.8 4 5 y C._.`._.K._._._._.Y.:X2X2X2X2XXXO.) _ _ _ _ _ _ _ _ _ _ _ _ _ _ _ _ _ ( = OX2X2X2X2X2X2X",
"2X2X2X2X>XY._._._._._._._.H.y.6 q f.k.e 7 i.J._.`.`._._._.Y.:X2X2X2X&.E _ _ _ _ _ _ _ _ _ _ _ _ _ _ _ _ _ _ _ F g 2X2X2X2X2X2X2X",
"2X2X2X2X>XR.Z.U.U.Z.`.K.N.r 7 y A.F.F.S.y.q t x.H._.`.`.`.R.:X2X<X&.' _ _ _ _ _ _ _ _ _ _ _ _ _ _ _ _ _ _ _ ( =  X2X2X2X2X2X2X2X",
"2X2X2X2X,XP.d b b d.H.a.8 q k.D.F.F.F.F.F.b.y 9 y.C._.`.`.`.>X2XoX' _ _ _ _ _ _ _ _ _ _ _ _ _ _ _ _ _ _ _ _ ~ < OX2X2X2X2X2X2X2X",
"2X2X2X2X,XP.d n n L.y.9 t b.F.F.F.F.F.F.F.F.S.t.e w V.`.`.E.>X2X<X&.' _ _ _ _ _ _ _ _ _ _ _ _ _ _ _ _ _ _ _ ) - m <X2X2X2X2X2X2X",
"2X2X2X2X2XQ.s p z d Z.g.y k.m.D.F.F.F.F.F.A.c.k.v.C.`.`.`.E.2X2X2X2X.X] _ _ _ _ _ _ _ _ _ _ _ _ _ _ _ _ _ _ _ L < |.2X2X2X2X2X2X",
"2X2X2X2X2X!.d n *.z z.K.x.y.f.c.S.D.D.S.b.c.M.H.H.`.`._.`.E.>X2X3X2X2X+XO.) _ _ _ _ _ _ _ _ _ _ _ _ _ _ _ _ _ ) I c ,X2X2X2X2X2X",
"2X2X2X2X2X~.s b n a B.I._.H.l.k.c.k.c.c.b.C.K.`.`.`._._.`./.2X2X2X2X3X2X@X@.` _ ) Y ] +.+.+.+.+.O.+.+.+.+.+.+.O.} c @X2X2X2X3X2X",
"2X2X2X2X<X].p.0 p s J.H.K._._.H.v.f.g.l.H._.`.`.`.H._._.`.(.2X2X2X2X2X2X3X<X&.' L : +X,X,X,X,X,X,X<X<X<X2X>X2X<X@X<X2X2X2X2X2X2X",
"2X2X2X2X2X%Xx.a z d.Z.r i.H._._.K.V.G._._._._.H.i t _._.`.).2X2X2X2X2X2X3X3X3XXX} x <X2X3X3X2X2X2X2X2X2X2X2X2X2X3X1X2X2X2X2X2X2X",
"2X2X2X2X2X&XZ.b b L.Z.y 9 9 x.K.`.`.`.`.`.H.g.w 4 u `.`.`.(.,X2X2X2X2X2X2X2X2X2X,X<X2X2X2X2X2X2X2X2X2X2X2X2X2X2X3X2X2X2X2X2X2X2X",
"2X2X2X2X2X*XC.a n f Z.i.f.y 9 s.H.`.`.H.a.w 9 r.q g.`._.`.^.3X2X2X2X2X2X2X2X2X2X3X2X2X3X2X2X2X2X2X2X2X2X2X2X2X2X2X2X2X2X2X2X2X2X",
"2X2X2X2X2X=XJ.i.h.B.H.y.b.D.k.e w H.`.l.7 r.b.D.t n._.`._.^.3X2X2X2X2X2X2X2X2X2X2X2X2X2X2X2X2X2X2X2X2X2X2X2X2X2X2X2X2X2X2X2X2X2X",
"2X2X2X2X2X=XU.I._._.G.y.m.F.F.j.5 V._.l.f.D.F.S.q v._.`._.^.3X2X2X2X2X2X2X2X2X2X2X,X2X2X2X2X2X2X2X2X2X2X2X2X2X2X2X2X2X2X2X2X2X2X",
"2X2X2X2X2X>XY.I._._.K.i c.F.D.c.7 V._.M.j.D.F.b.9 x._.`._.'.2X2X2X2X2X2X2X2X3X,X'.g -X2X2X2X3X3X2X2X2X2X3X3X2X2X2X2X2X2X2X2X2X2X",
"2X2X2X2X2X>XR.K._._._.y.j.F.F.c.7 Z.`.C.j.S.F.c.q C.`.`._.%X2X2X2X2X2X2X2X2X=Xm h > OX-X@X@X@X@X-X@X@X@X@X-X@X@X-X<X2X2X2X2X2X2X",
"2X2X2X2X2X<XW._._._.K.p.u.D.F.k.7 Z._.Z.j.S.F.c.q H._._._.%X2X2X2X2X2X2X2X|.k ..h : 2 3 3 2 2 2 2 < 2 3 3 3 3 3 3 x <X2X2X2X2X2X",
"2X2X2X2X2X<XW._._.`.`.g.u.D.D.f.7 Z._.H.y.b.S.t.q K._._.`.%X2X2X2X2X2X2X%. .X.X.X...[ [ { | { { [ [ { { [ [ [ { : M 2X2X2X2X2X2X",
"2X2X2X2X2X2X!._._._._.p.r.f.f.u.7 C.`.H.u p.f.i t H._.`.`.;X2X2X2X2X-X#.| X.X.X.X.X.X.X.X.X.X.X.X.X.X.X.X.X.X.h : +X2X2X2X2X2X2X",
"2X2X2X2X2X2X{._._._._.x.s.l.N.n.l.H.`.K.C.C.Z.H.H._.`.`.`.;X2X2X2X-Xv | X.X.X.X.X.X.X.X.X.X.X.X.X.X.X.X.X.X.X.: x 3X2X2X2X2X2X2X",
"2X2X2X2X2X2X[.`._._._._._._.K.K.`._.`.`._._._._._._._._.`.,X2X2X+Xl ..X.X.X.X.X.X.X.X.X.X.X.X.X.X.X.X.X.X.X.[ : }.2X2X2X2X2X2X2X",
"2X2X2X2X2X2X[.K._._._._._._._._.`.`.`.`._._._._._._._._.`.>X2X2X@Xv ..X.X.X.X.X.X.X.X.X.X.X.X.X.X.X.X.X.X.X.[ < M <X2X2X2X2X2X2X",
"2X2X2X2X2X2X%XI._._._._._._._._.`.`.`.`.I.`.`.Y.`.`.`./.).,X2X2X3X-Xm [ X.X.X.X.X.X.X.X.X.X.X.X.X.X.X.X.X.X.X.1 3 OX2X2X2X2X2X2X",
"2X2X2X2X2X2X*XY.E.E.W.W./.(.!.{.^.[.[.%X&X;X:X:X,X2X>X,X2X2X2X2X2X2X,X%. .X.X.X.X.X.X.X.X.X.X.X.X.X.X.X.X.X.X...< c 2X2X2X2X2X2X",
"2X2X2X2X2X2X2X2X<X2X<X2X2X2X<X2X2X2X3X2X2X2X2X2X2X2X2X2X2X2X2X2X2X2X2X2X'.k X.X.X...| { { | | ..[  .[ [  .{ {  .1 > OX2X2X2X2X2X",
"2X2X2X2X2X2X2X2X2X2X2X2X2X2X2X2X2X2X2X2X2X2X2X2X2X2X2X2X2X2X2X2X2X2X2X2X2XoXv | [ : N }.|. X X X X X X X.XXX X X|. X<X2X2X2X2X2X",
"2X2X2X2X2X2X2X2X2X2X2X2X2X2X2X2X1X2X2X2X2X2X3X2X2X2X2X2X2X2X2X2X2X2X2X2X2X2X-X#.h , :X2X2X2X2X2X2X2X2X2X2X2X2X2X2X2X2X2X2X2X2X2X",
"2X2X2X2X2X2X2X2X2X1X$X$X8X6X6X6X7X8.8.7X6X6X6X6X8X$X4X1X2X2X2X2X2X2X2X2X2X2X2X,X|.oX<X2X2X2X2X2X2X2X2X2X2X2X2X2X2X2X2X2X2X2X2X2X",
"2X2X2X2X2X2X2X$X7X0.4.<.>.:.;.;.-.;.;.;.;.:.:.:.>.<.w.e.8X2X2X2X2X2X2X2X2X2X2X2X2X2X2X2X2X2X2X2X2X2X2X2X2X2X2X2X2X2X2X2X2X2X2X2X",
"2X2X2X2X2X2X8Xw.q.>.-.=.=.=.=.=.=.=.=.=.=.=.=.=.-.-.2.q.w.7X2X2X2X2X2X2X2X2X2X2X2X2X2X2X2X2X2X2X2X2X2X2X2X2X2X2X2X2X2X2X2X2X2X2X",
"2X2X2X2X2X2X5.q.q.2.2.1.,.1.,.1.,.,.,.2.1.1.1.1.2.2.2.q.4.8.2X2X2X2X2X2X2X2X2X2X2X2X2X2X2X2X2X2X2X2X2X2X2X2X2X2X2X2X2X2X2X2X2X2X",
"2X2X2X2X2X2X1X#X6.6.5.9.9.9.9.9.9.9.9.9.9.9.9.5.5.6.7.5X#X1X2X2X2X2X2X2X2X2X2X2X2X2X2X2X2X2X2X2X2X2X2X2X2X2X2X2X2X2X2X2X2X2X2X2X",
"2X2X2X2X2X2X2X2X2X2X3X3X3X3X3X3X3X3X3X3X3X3X3X2X3X2X2X2X2X2X2X2X2X2X2X2X2X2X2X2X2X2X2X2X2X2X2X2X2X2X2X2X2X2X2X2X2X2X2X2X2X2X2X2X",
"2X2X2X2X2X2X2X2X2X2X2X2X2X2X2X2X2X2X2X2X2X2X2X2X2X2X2X2X2X2X2X2X2X2X2X2X2X2X2X2X2X2X2X2X2X2X2X2X2X2X2X2X2X2X2X2X2X2X2X2X2X2X2X2X"
};
