/* XPM */
static char *Close1A1721788671[] = {
/* columns rows colors chars-per-pixel */
"64 64 208 2 ",
"   c #0A0000",
".  c #140000",
"X  c #1C0000",
"o  c #240000",
"O  c #2C0000",
"+  c #330000",
"@  c #3B0101",
"#  c #440202",
"$  c #4C0101",
"%  c #530404",
"&  c #5B0303",
"*  c #541617",
"=  c #660505",
"-  c #6F0808",
";  c #730606",
":  c #7A0606",
">  c #73191A",
",  c #532117",
"<  c #742C17",
"1  c #441F20",
"2  c #492020",
"3  c #56342B",
"4  c #6E342C",
"5  c #6B401F",
"6  c #544533",
"7  c #6C4731",
"8  c #6B4E30",
"9  c #6E4C34",
"0  c #734A37",
"q  c #12234D",
"w  c #122555",
"e  c #132659",
"r  c #172A5A",
"t  c #14295D",
"y  c #142B63",
"u  c #192E65",
"i  c #152E6A",
"p  c #16316F",
"a  c #1C326A",
"s  c #163171",
"d  c #1C3573",
"f  c #1B387B",
"g  c #20356E",
"h  c #223975",
"j  c #233C7A",
"k  c #344C50",
"l  c #3A5457",
"z  c #334C6B",
"x  c #55544C",
"c  c #685C47",
"v  c #645E51",
"b  c #48655B",
"n  c #6D655B",
"m  c #527167",
"M  c #547365",
"N  c #6F6C67",
"B  c #746D6A",
"V  c #7D7B7A",
"C  c #820606",
"Z  c #8D0707",
"A  c #8D0808",
"S  c #940909",
"D  c #9B0909",
"F  c #881E17",
"G  c #991C17",
"H  c #A10A0A",
"J  c #AC0D0D",
"K  c #B70D0D",
"L  c #B6100F",
"P  c #AC1515",
"I  c #B51617",
"U  c #BA1313",
"Y  c #852416",
"T  c #97291A",
"R  c #8F3119",
"E  c #A32C1C",
"W  c #822425",
"Q  c #B72F34",
"!  c #C20E0E",
"~  c #C41515",
"^  c #CA1111",
"/  c #CD1A1E",
"(  c #D31617",
")  c #E61A1A",
"_  c #D61C21",
"`  c #DA1D24",
"'  c #E21C24",
"]  c #EC1C24",
"[  c #CE242B",
"{  c #D82229",
"}  c #CE2A30",
"|  c #C33136",
" . c #B43E43",
".. c #924C4D",
"X. c #A94449",
"o. c #B44449",
"O. c #A85A5E",
"+. c #9C5D61",
"@. c #A05F63",
"#. c #97686C",
"$. c #986C70",
"%. c #877778",
"&. c #827E7B",
"*. c #96777B",
"=. c #618270",
"-. c #FB9B07",
";. c #F99E0A",
":. c #FAA212",
">. c #F8A81B",
",. c #F4AF2F",
"<. c #FBC036",
"1. c #FAC33A",
"2. c #85817C",
"3. c #EFBD4F",
"4. c #D9B567",
"5. c #D6B16A",
"6. c #C8AE7C",
"7. c #CFB273",
"8. c #D6B97A",
"9. c #F8C745",
"0. c #F0C652",
"q. c #E2C570",
"w. c #1C3B83",
"e. c #1D3E8A",
"r. c #223D81",
"t. c #1F4395",
"y. c #264184",
"u. c #284284",
"i. c #2C4985",
"p. c #23428B",
"a. c #29458B",
"s. c #3D5B85",
"d. c #234594",
"f. c #284792",
"g. c #2B4A94",
"h. c #22469A",
"j. c #23499D",
"k. c #2D4D9B",
"l. c #304E9A",
"z. c #355493",
"x. c #32519C",
"c. c #3E619F",
"v. c #254CA4",
"b. c #2B4EA2",
"n. c #264EA9",
"m. c #2C51A6",
"M. c #2750AD",
"N. c #3354A4",
"B. c #3A5BA7",
"V. c #3556AA",
"C. c #3659AD",
"Z. c #2752B1",
"A. c #2954B5",
"S. c #2A56BA",
"D. c #2B59BF",
"F. c #395DB5",
"G. c #3A5EB4",
"H. c #3F61A5",
"J. c #3D62BD",
"K. c #435C9F",
"L. c #4B6499",
"P. c #5068AB",
"I. c #4666B9",
"U. c #4366BE",
"Y. c #4B6ABB",
"T. c #536DB4",
"R. c #586FB4",
"E. c #536EB9",
"W. c #5C73B5",
"Q. c #5A72B9",
"!. c #6878AC",
"~. c #717EAE",
"^. c #6276B3",
"/. c #6578B4",
"(. c #6A7BB2",
"). c #3F65C1",
"_. c #4065C0",
"`. c #897C80",
"'. c #947D81",
"]. c #7782AC",
"[. c #7B85AC",
"{. c #6C86B6",
"}. c #8B8788",
"|. c #998286",
" X c #97858A",
".X c #988B90",
"XX c #999499",
"oX c #9C9A9F",
"OX c #BDAD93",
"+X c #B6AB99",
"@X c #848BAB",
"#X c #888EAA",
"$X c #8D90A6",
"%X c #8D92AA",
"&X c #9E9CA1",
"*X c #9295A9",
"=X c #9698A9",
"-X c #9B9CA9",
";X c #A09FA4",
":X c #9FA0A9",
">X c #A2A1A6",
",X c #ABA7A6",
"<X c #A7A6AB",
"1X c #B2ADA5",
"2X c #C5AC85",
"3X c #CDB487",
"4X c #D2BA84",
"5X c #C4B494",
/* pixels */
"<X<X<X<X<X<X<X<X<X<X<X<X<X<X<X<X<X<X<X<X<X<X<X<X<X<X<X<X<X<X<X<X<X<X<X<X<X<X<X<X<X<X<X<X<X<X<X<X<X<X<X<X<X<X<X<X<X<X<X<X<X<X<X<X",
"<X<X<X<X<X<X<X<X<X<X<X<X<X<X<X<X<X<X<X<X<X<X<X<X<X<X<X<X<X<X<X<X<X<X<X<X<X<X<X<X<X<X<X<X<X<X<X<X<X<X<X<X<X<X<X<X<X<X<X,X<X<X<X<X",
"<X<X<X<X<X<X<X<X<X<X<X<X<X<X<X<X<X<X<X<X<X<X<X<X<X<X<X<X<X<X<X<X<X<X<X<X<X<X<X<X<X<X<X<X<X<X<X<X<X<X<X<X<X<X<X<X<X<X<X<X<X<X<X<X",
"<X<X<X<X<X<X<X<X<X<X<X<X<X<X<X<X<X<X<X<X<X<X<X<X<X<X<X<X<X<X<X<X<X<X<X<X<X<X<X<X<X<X<X<X<X<X<X<X<X<X<X<X<X<X<X<X<X<X<X<X<X<X<X<X",
"<X<X<X<X<X<X<X<X<X<X<X<X<X<X<X<X<X<X<X<X<X<X<X<X<X<X<X<X<X<X<X<X<X<X<X<X<X<X<X<X<X<X<X<X<X<X<X<X<X<X<X<X<X<X<X<X<X<X<X<X<X<X<X<X",
"<X<X<X<X<X<X<X<X<X<X<X<X<X<X<X<X<X<X<X<X<X<X<X<X<X<X<X<X<X<X<X<X<X<X<X<X<X<X<X<X<X<X<X<X<X<X<X<X<X<X<X<X<X<X<X<X<X<X<X<X<X<X<X<X",
"<X<X<X<X>X>X<X<X<X<X<X<X<X<X<X<X<X<X<X<X<X<X<X<X<X<X<X<X<X<X<X<X<X<X<X<X<X<X<X<X<X<X<X<X<X<X<X<X<X<X<X<X<X<X<X<X<X<X<X<X<X<X<X<X",
"<X<X<X<X^.T.R.W.(.(.@X@X%X*X-X:X;X>X<X<X<X<X<X<X<X<X<X<X<X<X<X<X<X<X<X<X<X<X<X<X<X<X<X<X<X<X<X<X<X<X<X<X<X<X<X<X<X<X<X<X<X<X<X<X",
"<X<X<X<X^.).).)._.).).U.U.I.Y.Y.Q.^.(.~.].@X#X%X*X-X-X;X;X<X<X<X<X<X<X<X<X<X<X<X<X<X<X<X<X<X<X<X<X<X<X<X<X<X<X<X<X<X<X<X<X<X<X<X",
"<X<X<X<X{.).).).).).).).).)._._.).).).).).)._._._.Y.E.Q.W.!.].<X<X<X<X<X<X3 W W W W W W W W W W W W W W W W W < W W W > x <X<X<X",
"<X<X<X<X{.).).).)._.).).).).).).).).).).).).).)._._.).).)._.T.<X<X<X<X<X<X> H C Z Z S Z C C C ; : C - A C S S A S Z C K 1 <X<X<X",
"<X<X<X<X[.).).).l.l.V.G.J.)._.).).).).).).).).)._._.).).).).T.<X<X<X<X<X<X> : = / ~ ~ ~ A % K $ A S o H : J ~ ( / U & H 2 <X<X<X",
"<X<X<X<X[.J.).J.d t w t u d a.k.).).).).J.J.J.J._._.).).).).T.<X<X<X1X<X<X> : - ! % $ $ @ o J ! ^ & X U : + $ / - @ + H 2 <X<X<X",
"<X<X<X<X@X).).).g.r.s s y w q e G.).).).a.u h a.l.l.N.J.).).T.<X<X<X<X<X<X> : - ' L U P : . % ) J X X I -   o ~ %   X H 2 <X<X<X",
"<X<X<X<X#XU.).).k.d.n.S.A.M.y w G._.)._.g.s y y t w q N.).).T.<X<X<X<X<X<X> C - ^ = & & # X = ) U X X I -   o ~ %   X H 2 <X<X<X",
"<X<X<X<X%XU.).J.N.p.M.D.D.S.p w G.).)._.k.j.A.A.A.h.w C.).).R.<X<X<X<X<X<X> > ; U X       O K D ( ; X U -   o ~ %   X H 2 <X<X<X",
"<X<X<X<X=X_._._.C.p.M.D.D.D.f q G.J.).).g.j.S.D.D.v.w G._._.^.<X<X<X<X<X<X> : - U o . . . : ! @ : ^ # U -   o ~ %   X H 2 <X<X<X",
"<X<X<X<X=X_._._.G.e.n.D.D.D.w.w G.).).).h.v.S.D.D.h.w G.)._.^.<X<X<X<X<X<X> : - ) U P P Z ! ; . o ~ Z K -   o ~ %   X H 2 <X<X<X",
"<X<X<X<X:XQ._._.J.p.v.S.D.D.e.t G.).).).g.j.S.D.D.w.y J.).).^.<X<X<X<X<X<X> S & A S S S C C % @ @ = : : = @ # : & @ # H 2 <X<X<X",
"<X<X<X<X:X_._._.).p.h.S.D.D.e.y G.).).).g.k.S.D.D.w.u J.)._./.<X<X<X<X<X<X* D S S S S S D S S S S S S Z S S S D S S S A 2 <X<X<X",
"<X<X<X<X:XQ.).).).f.h.S.D.D.t.t G.).).J.g.v.S.D.D.f a J.).).(.<X<X<X<X<X<X}.`.`.`.`.`.`.&.`.`.`.%.`.`.`.`.`.`.`.`.`.`.`.}.<X<X<X",
"<X<X<X<X<XQ.).).).N.d.A.D.D.t.t G.).).).g.h.S.D.D.s d ).).).].<X<X<X<X<X<X<X<X<X<X<X<X<X<X<X<X<X<X<X<X<X<X<X<X<X<X<X<X<X<X<X<X<X",
"<X<X<X<X<X^.).).).V.d.A.D.D.h.t G.).).).k.v.D.D.D.i y.).).).~.<X<X<X<X<X<X<X<X<X<X<X<X<X<X<X<X<X<X<X<X<X<X<X<X<X<X<X<X<X<X<X<X<X",
"<X<X<X<X>XW.).).).G.d.Z.D.D.v.r G.).).).b.n.S.D.A.t a.).).).~.<X<X<X<X<X<X<X<X<X<X<X<X<X<X<X<X<X<X<X<X<X<X<X<X<X<X<X<X<X<X<X<X<X",
"<X<X<X<X>X(.).).).G.p.M.D.D.v.y G.).).).N.n.D.D.A.e f._.).J.].<X<X<X<X<X<X<X<X<X<X<X<X<X<X<X<X<X<X<X<X<X<X<X<X<X<X<X<X<X<X<X<X<X",
"<X<X<X<X>X{.).).).J.d.n.D.S.h.u G.J.).).b.h.A.D.M.w x.).).).[.<X<X<X<X<X<X<X<X<X<X<X<X<X<X<X<X<X<X<X<X<X<X<X<X<X<X<X<X<X<X<X<X<X",
"<X<X<X<X<X].).).).J.a.v.A.v.w.k.J.).).).x.p.v.M.j.w N.J.).).[.<X<X<X<X<X<X<X<X<X<XXXXX,X<X<X<X<X<X<X<X<X<X<X<X<X<X<X<X<X<X<X<X<X",
"<X<X<X<X<X[.).).).).k.d.j.d.V.J.).).).).J.C.g.p.e.w V._.).J.@X<X<X<X<X<X<X<X<X<X'.7 N >X<X<X<X<X<X<X<X<X<X<X<X<X<X<X<X<X<X<X<X<X",
"<X<X<X<X<X@X_._.).).m.p.d.G.).).).J.J.J.U.J.J.V.b.d V._._.U.@X<X<X<X<X<X<X<XoX+.} Y v }.2.&.&.V 2.&.2.2.}.&.&.2.}.}.&X<X<X<X<X<X",
"<X<X<X<X<X#X_.).).).b.a.J.J.).J.V.d w l.J.U.).).J.V.J.).).U.#X<X<X<X<X<X<X.XX.` ] / E E E G E T Y T R Y R R R T T 3 }.<X<X<X<X<X",
"<X<X<X<X<X%X_._.).).J.J.U.).J.k.t w i t a N.U.J.U.).).).).U.$X<X<X<X<X>X*.| ] ] ] ] ] ] ] ] ] ] ] ] ) ] ] ] ] ] I x >X<X<X<X<X<X",
"<X<X<X<X<X*X_._.).).).).).G.y.w i h.A.v.s e u.J.J.).).).).U.$X<X<X<X;X#.[ ] ] ] ] ] ] ] ] ] ] ] ] ] ] ] ] ] ] ( > %.<X<X<X<X<X<X",
"<X<X<X<X<X=XG.x.H.s.B.J.N.a w w.A.D.D.D.A.t.y u x.J._._.).).=X<X<X;X@.{ ] ] ] ] ] ] ] ] ] ] ] ] ] ] ] ] ] ] ] I 3 -X<X<X<X<X<X<X",
"<X<X<X<X<X-XK.l =.=.K.a.e y j.D.D.D.D.D.D.D.n.w.e j V._._.).=X<X<X$.{ ] ] ] ] ] ] ] ] ] ] ] ] ] ] ] ] ] ] ] ] T c -X<X<X<X<X<X<X",
"<X<X<X<X<X;XP.k b b z.y.f h.A.S.D.D.D.D.D.D.A.v.p.w.x._._._.-X<X<XXXO.` ] ] ] ] ] ] ] ] ] ] ] ] ] ] ] ] ] ] ] / 4 }.>X<X<X<X<X<X",
"<X<X<X<X<X;XL.k M b z J.b.r.h.n.A.D.D.D.A.n.v.v.C.J._._._.E.-X<X<X<X;X$.} ] ] ] ] ] ] ] ] ] ] ] ] ] ] ] ] ] ] ] R c &X,X<X<X<X<X",
"<X<X<X<X<X<XL.b =.=.l H.).G.g.h.v.v.M.M.v.v.C.J.J.).).).).Y.-X<X<X<X<X>X*.| ] ] ] ] ] ] ] ] ] ] ] ] ] ] ] ] ] ] { < 2.<X<X<X<X<X",
"<X<X<X<X<X>X!.a k k z J.J.J.J.C.b.h.h.d.b.G.).).).J.).).).Q.>X<X<X<X<X<X<X Xo.] ] _ Q Q  .o. .o.o.o.o.X.o.o.o.o.X...N <X<X<X<X<X",
"<X<X<X<X<X<X{.i.k k H.x.u.J.).).J.N.g.C.).).).).C.y.G.).).Q.:X<X<X<X<X<X<X<XXX@.] F n ;X;X;X>X;X<X;X;X;X-X;X>X>X;X;X:X<X<X<X<X<X",
"<X<X<X<X<X>X~.z.b m H.m.y u x.J.).).U._.)._.G.g.r w G.).).Q.:X<X<X<X<X<X<X<X<X;X*.4 &.,X<X<X<X<X<X<X<X<X<X<X<X<X,X,X<X<X<X<X<X<X",
"<X<X<X<X<X<X[.x.b M B.b.p.p e a.G.).).).G.g.u y y i J.).).W.<X<X<X<X<X<X<X<X<X<X<X;X;X<X<X<X<X<X<X<X<X<X<X<X<X<X,X<X<X<X<X<X<X<X",
"<X<X<X<X<X<X@XN.z z B.N.p.A.h.p a N.).J.a w w.n.p.j J.).J.W.>X<X<X<X<X<X<X<X<X<X<X<X<X<X<X<X<X<X<X<X<X<X<X<X<X<X<X<X<X<X<X<X<X<X",
"<X<X<X<X<X<X$XU.J.J.J.V.p.S.S.Z.y a ).G.f n.S.D.f a.J.)._.!.>X<X,X<X<X<X<X<X<X<X<X<X<X<X<X<X<X<X<X<X<X<X<X<X<X<X<X<X<X<X<X<X<X<X",
"<X<X<X<X<X<X#XU.).).).V.w.S.D.S.s h ).G.p.A.D.S.p u.).).).(.<X<X<X<X<X<X<X<X<X<X<X<X;X<X<X<X<X<X<X<X<X<X<X<X<X<X<X<X<X<X<X<X<X<X",
"<X<X<X<X<X<X*XI.).).).C.f M.D.D.p j ).J.d.M.D.S.p g.J.).).!.<X<X<X<X<X<X<X<X<X<X;XB B <X<X<X<X<X<X<X<X<X<X<X<X<X<X<X<X<X<X<X<X<X",
"<X<X<X<X<X<X=XY.).).).G.f n.D.S.i j ).J.f.M.D.A.y x.).).).].<X<X<X<X<X<X<X<X<X XX.F v &X&XoX&XoX&XoXoX&X&X>X&X&X;X;X<X<X<X<X<X<X",
"<X<X<X<X<X<X-XY.).).J.J.w.v.D.S.y j ).).g.v.S.v.w x.).).J.].<X<X<X<X<X<X<X;X*.Q ' G 4 9 0 0 0 9 8 8 8 8 0 0 9 0 0 c =.,X<X<X<X<X",
"<X<X<X<X<X<X-XR.).).U.J.f h.j.h.i j ).J.a.w.h.p.u V.).).).].<X<X<X<X<X<X;X+.[ ] ] ` ( { { ( ` ( / / [ / / / / ` / , .X<X<X<X<X<X",
"<X<X<X<X<X<X>XW.).).).).r.p.g.k.g.g.).).V.N.V.V.C.J.).)._.@X<X<X<X<X<XXXX.' ] ] ] ] ] ] ] ] ] ] ] ] ] ] ] ] ] ] G x >X<X<X<X<X<X",
"<X<X<X<X<X<X<X^.).U._.)._.).).).).J.).).).).).)._._.).)._.@X<X<X<X<X.X .' ] ] ] ] ] ] ] ] ] ] ] ] ] ] ] ] ] ] ' , }.<X<X<X<X<X<X",
"<X<X<X<X<X<X<X(.).).).).).).).).).).).U.).).).).).).).)._.%X<X<X<X*.Q ' ] ] ] ] ] ] ] ] ] ] ] ] ] ] ] ] ] ] ] I 6 oX<X<X<X<X<X<X",
"<X<X<X<X<X<X<X!.).).).).).).).).).).).U.U.U.U.U.Y.Y.Y.E.Q.=X<X<X<X}.| ] ] ] ] ] ] ] ] ] ] ] ] ] ] ] ] ] ] ] ] I 8 }.<X<X<X<X<X<X",
"<X<X<X<X<X,X<X].Y.E.E.R.W.W./.(.(.!.[.[.@X%X%X=X=X=X-X:X:X<X<X<X<X<X.XX.` ] ] ] ] ] ] ] ] ] ] ] ] ] ] ] ] ] ] ' < n >X<X<X<X<X<X",
"<X<X<X<X<X<X<X<X<X<X>X<X<X;X<X<X<X<X<X<X<X<X<X<X<X<X<X<X<X<X<X<X<X<X<XXXO.' ] ] ] ] ] ] ] ] ] ] ] ] ] ] ] ] ] ] ~ 4 }.<X<X<X<X<X",
"<X<X<X<X<X<X<X<X<X<X<X<X<X<X<X<X<X<X<X<X<X<X<X<X<X<X<X<X<X<X<X<X<X<X<X<X:X#.[ ] ] ] ' ` ` ` ` { ` ` ` ` { ' { { ) T c >X<X<X<X<X",
"<X<X<X<X<X<X<X<X<X<X<X<X<X<X<X<X<X<X<X<X<X<X<X<X<X<X<X<X<X<X<X<X<X<X<X<X<X>X*. .] P 4 *.|.*. X*.|.|. X|.|.|.|. X|.2.}.<X<X<X<X<X",
"<X<X<X<X<X<X<X<X<X<X1X1X5X3X3X3X4X8.8.8.4X3X4X3X5XOX+X1X<X<X<X<X<X<X<X<X<X<X<X.Xo.Y B <X<X<X<X<X<X<X<X<X<X<X<X<X,X<X<X<X<X<X<X<X",
"<X<X<X<X<X<X<X,X5X8.3.,.,.>.:.:.:.:.:.:.:.:.:.>.>.,.9.q.4X1X<X<X<X<X<X<X<X<X<X<X;X&.XX>X<X<X<X<X<X1X<X<X<X<X<X<X<X<X<X<X<X<X<X<X",
"<X<X<X<X<X<X,X8.0.1.>.;.;.;.-.-.;.-.-.-.-.-.-.-.-.;.>.9.9.8.,X<X<X<X<X<X<X<X<X<X<X<X<X<X<X<X<X<X<X<X<X<X<X<X<X<X<X<X<X<X<X<X<X<X",
"<X<X<X<X<X<X,X4.9.9.9.1.1.1.,.1.1.,.<.1.,.1.1.1.1.9.9.9.0.8.<X<X<X<X<X<X<X<X<X<X<X<X<X<X<X<X<X<X<X<X<X<X<X<X<X<X<X<X<X<X<X<X<X<X",
"<X<X<X<X<X<X<X,XOX2X6.7.5.5.5.5.5.4.5.5.4.5.5.7.6.6.2XOX+X<X<X<X<X<X<X<X<X<X<X<X<X<X<X<X<X<X<X<X<X<X<X<X<X<X<X<X<X<X<X<X<X<X<X<X",
"<X<X<X<X<X<X<X<X<X<X<X<X<X<X<X<X<X<X,X<X<X<X<X<X<X<X<X>X<X<X<X<X<X<X<X<X<X<X<X<X<X<X<X<X<X<X<X<X<X<X<X<X<X<X<X<X<X<X<X<X<X<X<X<X",
"<X<X<X<X<X<X<X<X<X<X<X<X<X<X<X<X<X<X<X<X<X<X<X<X<X<X<X<X<X<X<X<X<X<X<X<X<X<X<X<X<X<X<X<X<X<X<X<X<X<X<X<X<X<X<X<X<X<X<X<X<X<X<X<X",
"<X<X<X<X<X<X<X<X<X<X<X<X<X<X<X<X<X<X<X<X<X<X<X<X<X<X<X<X<X<X<X<X<X<X<X<X<X<X<X<X<X<X<X<X<X<X<X<X<X<X<X<X<X<X<X<X<X<X<X<X<X<X<X<X"
};
