/* XPM */
static char *Close1D1721788672[] = {
/* columns rows colors chars-per-pixel */
"64 64 206 2 ",
"   c #0D0000",
".  c #130000",
"X  c #1B0000",
"o  c #2A0000",
"O  c #360101",
"+  c #430101",
"@  c #4B0202",
"#  c #540404",
"$  c #5C0404",
"%  c #680404",
"&  c #7A0605",
"*  c #770808",
"=  c #4A1F20",
"-  c #4A3623",
";  c #57342C",
":  c #4C3A31",
">  c #613D2D",
",  c #58462A",
"<  c #4F4639",
"1  c #644728",
"2  c #65552F",
"3  c #6C4434",
"4  c #624E38",
"5  c #724934",
"6  c #76463E",
"7  c #67543A",
"8  c #0D1E4A",
"9  c #0E204D",
"0  c #10214E",
"q  c #0E2357",
"w  c #132554",
"e  c #14285B",
"r  c #14285C",
"t  c #243740",
"y  c #132A63",
"u  c #192D62",
"i  c #162E6A",
"p  c #1A3169",
"a  c #1C326C",
"s  c #1B3678",
"d  c #223974",
"f  c #223C7C",
"g  c #344B45",
"h  c #3A545A",
"j  c #2C4566",
"k  c #324B66",
"l  c #304C7F",
"z  c #505A54",
"x  c #734643",
"c  c #7C4744",
"v  c #6D5555",
"b  c #7B5355",
"n  c #775A5B",
"m  c #7C5B5C",
"M  c #4A6757",
"N  c #6A635C",
"B  c #746B58",
"V  c #745D60",
"C  c #7E5F60",
"Z  c #4D6A66",
"A  c #567667",
"S  c #706C67",
"D  c #7D686A",
"F  c #7C7774",
"G  c #830505",
"H  c #8B0605",
"J  c #8C0908",
"K  c #920606",
"L  c #980706",
"P  c #940C0C",
"I  c #9D0D0D",
"U  c #A20A0A",
"Y  c #AD0A0A",
"T  c #B60C0C",
"R  c #AE1212",
"E  c #B71212",
"W  c #812324",
"Q  c #8B2424",
"!  c #C70E0E",
"~  c #C31414",
"^  c #CB1717",
"/  c #D71818",
"(  c #E61716",
")  c #804A45",
"_  c #854C4C",
"`  c #894E4E",
"'  c #8D504F",
"]  c #894F50",
"[  c #825253",
"{  c #8C5151",
"}  c #805E5F",
"|  c #935353",
" . c #815E60",
".. c #816062",
"X. c #806A6D",
"o. c #816F72",
"O. c #837A78",
"+. c #847C7C",
"@. c #688A77",
"#. c #FB9A05",
"$. c #F99E0C",
"%. c #F9A415",
"&. c #F8A81C",
"*. c #F7AC27",
"=. c #F9BB2E",
"-. c #F3B437",
";. c #FABD31",
":. c #FBC43A",
">. c #85817D",
",. c #E9B953",
"<. c #D9B66D",
"1. c #CBAC75",
"2. c #CCB277",
"3. c #D4B877",
"4. c #E2B961",
"5. c #E4BD69",
"6. c #F9C945",
"7. c #EFC655",
"8. c #E2C573",
"9. c #1C3B83",
"0. c #1D3E89",
"q. c #223E83",
"w. c #1E4190",
"e. c #294386",
"r. c #23428C",
"t. c #29458A",
"y. c #2A468C",
"u. c #395885",
"i. c #224594",
"p. c #294690",
"a. c #2C4A93",
"s. c #22479A",
"d. c #24499C",
"f. c #2C4D9C",
"g. c #304E9A",
"h. c #33529E",
"j. c #244CA3",
"k. c #2A4EA3",
"l. c #264FA9",
"z. c #2D50A3",
"x. c #2751AD",
"c. c #2951AC",
"v. c #3353A3",
"b. c #3859A7",
"n. c #3557A9",
"m. c #3658AC",
"M. c #395BAD",
"N. c #2752B1",
"B. c #2854B4",
"V. c #2A56BA",
"C. c #2B59BF",
"Z. c #385DB5",
"A. c #3A5DB4",
"S. c #3C60B5",
"D. c #3D62BD",
"F. c #42628A",
"G. c #566CAC",
"H. c #4266BE",
"J. c #4867B8",
"K. c #4C6ABA",
"L. c #546EB7",
"P. c #536EB9",
"I. c #5771B7",
"U. c #5B72B5",
"Y. c #6476AE",
"T. c #6A7AAE",
"R. c #717BA6",
"E. c #727FAD",
"W. c #6276B3",
"Q. c #6779B3",
"!. c #6B7CB2",
"~. c #3F65C1",
"^. c #4065C0",
"/. c #837E81",
"(. c #7B84A9",
"). c #7B85AC",
"_. c #7482B1",
"`. c #898385",
"'. c #8C868A",
"]. c #8D888C",
"[. c #90868A",
"{. c #90898D",
"}. c #918E91",
"|. c #949195",
" X c #98969B",
".X c #9B9A9D",
"XX c #B9A88F",
"oX c #BAB09D",
"OX c #838BAC",
"+X c #898FAA",
"@X c #8C90A7",
"#X c #8D91AA",
"$X c #9597A6",
"%X c #9D9BA1",
"&X c #9295A9",
"*X c #9799A9",
"=X c #9C9DA9",
"-X c #A09FA5",
";X c #A2A1A6",
":X c #ACA8A6",
">X c #A7A6AB",
",X c #A8A5A8",
"<X c #B3ADA3",
"1X c #CCB589",
"2X c #D1BA86",
"3X c #C4B594",
/* pixels */
">X>X>X>X>X>X>X>X>X>X>X>X>X>X>X>X>X>X>X>X>X>X>X>X>X>X>X>X>X>X>X>X>X>X>X>X>X>X>X>X>X>X>X>X>X>X>X>X>X>X>X>X>X>X>X>X>X>X>X>X>X>X>X>X",
">X>X>X>X>X>X>X>X>X>X>X>X>X>X>X>X>X>X>X>X>X>X>X>X>X>X>X>X>X>X>X>X>X>X>X>X>X>X>X>X>X>X>X>X>X>X>X>X>X>X>X>X>X>X>X>X>X>X>X>X>X>X>X>X",
">X>X>X>X>X>X>X>X>X>X>X>X>X>X>X>X>X>X>X>X>X>X>X>X>X>X>X>X>X>X>X>X>X>X>X>X>X>X>X>X>X>X>X>X>X>X>X>X>X>X>X>X>X>X>X>X>X>X>X>X>X>X>X>X",
">X>X>X>X>X>X>X>X>X>X>X>X>X>X>X>X>X>X>X>X>X>X>X>X>X>X>X>X>X>X>X>X>X>X>X>X>X>X>X>X>X>X>X>X>X>X>X>X>X>X>X>X>X>X>X>X>X>X>X>X>X>X>X>X",
">X>X>X>X>X>X>X>X>X>X>X>X>X>X>X>X>X>X>X>X>X>X>X>X>X>X>X>X>X>X>X>X>X>X>X>X>X>X>X>X>X>X>X>X>X>X>X>X>X>X>X>X>X>X>X>X>X>X>X>X>X>X>X>X",
">X>X>X>X>X>X>X>X>X>X>X>X>X>X>X>X>X>X>X>X>X>X>X>X>X>X>X>X>X>X>X>X>X>X>X>X>X>X>X>X>X>X>X>X>X>X>X>X>X>X>X>X>X>X>X>X>X>X>X>X>X>X>X>X",
">X>X>X=X*X=X=X;X;X>X>X>X>X>X>X>X>X>X>X>X>X>X>X>X>X>X>X>X>X>X>X>X>X>X>X>X>X>X>X>X>X>X>X>X>X>X>X>X>X>X>X>X>X>X>X>X>X>X>X>X>X>X>X>X",
">X>X>XT.J.K.K.I.U.Q._.).).#X#X=X=X=X>X;X;X>X>X>X>X>X>X>X>X>X>X>X>X>X>X>X>X>X>X>X>X>X>X>X>X>X>X>X>X>X>X>X>X>X>X>X>X>X>X>X>X>X>X>X",
">X>X>X_.~.~.~.~.~.~.~.~.~.H.H.K.K.I.U.Q.Q._.).OX@X&X*X=X=X;X>X>X>X>X>X>X>X>X>X>X>X>X>X>X,X,X,X>X>X>X>X>X>X>X>X>X>X>X>X>X>X>X>X>X",
">X>X>X_.~.~.~.~.~.~.~.~.~.^.~.~.~.~.^.^.~.~.~.~.H.H.K.K.L.I.(.>X>X>X>X>XV W Q Q Q Q Q Q Q Q Q Q Q Q Q Q Q Q Q Q Q Q Q = %X>X>X>X",
">X>X>XOX^.~.^.^.~.~.~.^.~.~.~.~.~.~.~.~.~.~.~.~.~.~.~.~.~.~.Y.>X>X>X>X>Xb Y & J K K K H & H & & H & & G J H K K P G Y $  X>X>X>X",
">X>X>X+X^.~.^.v.t.g.m.A.D.~.~.~.~.~.~.~.~.~.~.~.~.~.~.~.~.~.W.>X>X>X>X>Xm U + ~ ~ ~ ~ R O Y & % Y o * I J ~ / ^ ~ G G $ |.>X>X>X",
">X>X>X#XH.^.^.p.y 0 w r u s e.n.~.~.~.~.D.S.~.~.~.~.~.~.~.~.Y.>X>X>X>X>X .U + ^ % @ + + X * / ! J X * E o O R I O o & $ |.>X>X>X",
">X>X>X&XH.^.^.v.r.s s i y w 8 a.~.~.~.A.p u d e.p.g.n.D.~.~.Y.>X>X>X>X>Xm U @ / ~ E E U o o ^ / O . * R .   P P . . & $ |.>X>X>X",
">X>X>X*XH.^.~.n.r.s.C.V.B.0.8 y.~.~.^.A.s i y y r 9 w A.~.~.Y.>X>X>X>X>Xb U + ^ % # # @ X O ! ( @ . * E . . P P     * $ |.>X>X>X",
">X>X>X*XK.~.~.A.q.j.C.C.C.s.8 e.~.^.^.A.i.c.B.B.B.r.e D.~.~.T.>X>X>X>X>Xb U + ^ +       . J T T R X * R . . P P .   * $ |.>X>X>X",
">X>X>X=XK.^.^.D.r.j.C.C.C.j.8 t.~.~.~.Z.i.c.V.C.C.9.u H.~.~.!.>X>X>X>X>Xb U + ^ @ . X . @ ! % + / % * R . . P P     & $ |.>X>X>X",
">X>X>X=XL.^.~.~.y.j.V.C.C.l.9 y.~.~.~.A.i.c.C.C.C.s p D.~.~._.>X>X>X>X>Xb I + / ~ E E U Y U X   G ~ J R . . P P     & $ |.>X>X>X",
">X>X>X=XL.~.~.~.p.s.B.C.C.l.q f.~.~.~.Z.r.l.C.C.V.i f ^.~.~.E.>X>X>X>X>Xb Y $ G P P P K G % + + $ G % & @ + % * + + J $ |.>X>X>X",
">X>X>X>XW.~.~.~.a.i.N.C.C.N.q a.~.~.~.A.r.k.C.C.V.y t.~.~.~._.>X>X>X>X>Xv K L L L L L L L L L L L L L L L L L L L L L @ |.>X>X>X",
">X>X>X>XQ.~.~.~.z.i.c.C.C.N.q p.~.~.D.Z.r.c.C.C.V.y y.~.~.~.).>X>X>X>X>X%X{.[.[.[.[.[.[.].{.{.[.'.[.[.[.[.[.[.[.[.[.[.].%X>X>X>X",
">X>X>X;X!.~.~.~.Z.r.x.C.C.B.y y.~.~.~.Z.r.c.C.C.N.q y.~.~.~.OX>X>X>X>X>X>X>X>X>X>X>X>X>X>X>X>X>X>X>X>X>X>X>X>X>X>X>X>X>X>X>X>X>X",
">X>X>X>XE.~.~.~.Z.i.x.C.C.V.y t.~.~.~.D.i.x.C.C.N.q v.~.~.~.OX>X>X>X>X>X>X>X>X>X>X>X>X>X>X>X>X>X>X>X>X>X>X>X>X>X>X>X>X>X>X>X>X>X",
">X>X>X>XE.~.~.~.D.r.l.C.C.V.i y.~.~.~.A.f.N.C.C.l.8 v.~.~.~.OX>X>X>X>X>X>X>X>X,X>X>X>X>X>X>X>X>X>X>X>X>X>X>X>X>X>X>X>X>X>X>X>X>X",
">X>X>X>X_.^.^.^.~.r.j.C.C.C.i y.~.~.~.D.d.N.C.C.j.w n.~.~.~.OX>X>X>X>X>X>X>X>X>X>X>X>X>X>X>X>X>X>X>X>X>X>X>X>X>X>X>X>X>X>X>X>X>X",
">X>X>X>X).^.^.^.~.f.d.V.C.B.a y.~.~.~.Z.f.c.C.C.i.w m.~.~.H.+X>X>X>X>X>X>X>X>X>X>X>X>X>X>X>X>X>X>X>X>X>X>X>X>X>X>X>X>X>X>X>X>X>X",
">X>X>X>XOX^.~.~.~.z.i.B.N.d.9.n.~.~.~.A.r.i.x.V.0.w A.~.H.H.+X>X>X>X>X>X>X>X>X>X%X'.-X>X>X>X>X>X>X>X>X>X>X>X>X>X>X>X>X>X>X>X>X>X",
">X>X>X>X+X^.~.^.~.n.i.j.d.i.m.~.~.~.~.~.M.p.i.s.s u S.~.H.H.@X>X>X>X>X>X>X>X>X|.v < %X>X>X>X>X>X>X>X>X>X>X>X,X,X>X>X>X>X>X>X>X>X",
">X>X>X>X#XH.^.^.~.m.w.r.f.A.~.~.~.~.^.^.~.D.v.a.i.p S.^.~.H.#X>X>X>X>X>X>X-XO.[ 6 , +.`.F O.F O.O.F >.>.+.+.O.O.`.|.>X>X>X>X>X>X",
">X>X>X>X&XJ.^.^.~.A.r.f.D.~.~.~.b.s a.D.~.~.~.D.M.y.D.~.~.J.$X>X>X>X>X>X XD ` | _ 3 3 5 3 5 3 3 5 5 1 1 > 5 5 5 1 S >X>X>X>X>X>X",
">X>X>X>X*X^.^.^.~.D.m.D.~.D.D.y.r 9 9 d m.H.~.~.^.~.~.~.~.K.*X>X>X>X>X}.} ' | | | | | | | | | | | | | | | | | ` : }.>X>X>X>X>X>X",
">X>X>X>X=XK.^.^.~.~.~.~.~.D.e.8 y i.s.i w t.D.D.~.~.~.~.~.K.*X>X>X,X`.[ ' | | | | | | | | | | | | | | | | | | ; z ;X>X>X>X>X>X>X",
">X>X>X>X=XP.S.S.M.M.~.H.v.p q s N.C.C.B.0.r a v.D.~.^.^.^.P.*X>X-X/.] | | | | | | | | | | | | | | | | | | | ` - '.>X>X>X>X>X>X>X",
">X>X>X>X-XG.k Z A u.A.t.w y d.V.C.C.C.C.C.l.s q f m.~.^.^.^.=X>X}.[ | | | | | | | | | | | | | | | | | | | | ) , }.>X>X>X>X>X>X>X",
">X>X>X>X>XG.k A A F.q.r a c.C.C.C.C.C.C.C.C.B.0.y p n.^.^.I.=X>X-X/.] ' | | | | | | | | | | | | | | | | | | ` 1 B ;X>X>X>X>X>X>X",
">X>X>X>X>XY.j g M k M.y.s j.c.V.C.C.C.C.C.B.j.k.k.n.~.^.^.U.=X>X,X,X'.m { | | | | | | | | | | | | | | | | | | x 2 ].>X>X>X>X>X>X",
">X>X>X>X>XT.k A @.M h.A.h.q.i.j.N.C.V.N.l.j.c.m.D.~.~.~.^.U.>X>X>X>X>X XC ] | | | | | | | | | | | | | | | | | | 1 B ;X>X>X>X>X>X",
">X>X>X>X>XR.j M A h b.^.~.A.f.d.k.s.j.k.l.A.D.~.^.~.~.~.^.W.>X>X>X>X>X>X%XX.{ | ` x b m  . . . . . .C  ....... .b N .X>X>X>X>X>X",
">X>X>X>X>X).y.t g j S.A.D.~.~.Z.v.0.i.g.A.~.~.^.^.A.D.~.^.Q.>X>X>X>X>X>X>X%X/.] c <  X-X,X-X-X-X,X-X;X;X;X;X;X;X;X,X>X>X>X>X>X>X",
">X>X>X>X>XOXz.h z u.A.p e.Z.~.~.~.n.A.^.~.~.^.A.d a D.~.^.!.>X>X>X>X>X>X>X>X>X}.v N -X>X>X>X>X>X>X>X>X>X>X>X>X>X>X>X>X>X>X>X>X>X",
">X>X>X>X>X+Xm.Z Z F.M.s w u h.~.^.^.^.^.^.A.a.u 8 d ^.~.~.Q.-X>X>X>X>X>X>X>X>X>X-X;X>X>X>X>X>X>X>X>X>X>X>X>X>X>X>X>X>X>X>X>X>X>X",
">X>X>X>X>X#Xm.h A l A.e.s.a r p.Z.~.^.A.y.u y 9.y p.^.~.^.E.>X>X>X>X>X>X>X>X>X>X>X>X>X>X>X>X>X>X>X>X>X>X>X>X>X>X>X>X>X>X>X>X>X>X",
">X>X>X>X>X&XS.l a.b.Z.q.N.V.s.y i M.^.a.w 9.l.B.i v.~.~.^.E.-X>X>X>X>X>X>X>X>X>X>X>X>X>X>X>X>X>X>X>X>X>X>X>X>X>X>X>X>X>X>X>X>X>X",
">X>X>X>X>X$XJ.D.^.^.A.9.l.C.C.s.0 n.^.k.0.C.C.B.y v.~.~.^.E.>X>X>X>X>X>X>X>X>X>X>X-X>X>X>X>X>X>X>X>X>X>X>X>X>X>X>X>X>X>X>X>X>X>X",
">X>X>X>X>X=XK.H.~.~.~.f j.C.C.j.q m.~.v.s.C.C.l.e h.~.~.^./.>X>X>X>X>X>X>X>X>X;X/.z -X>X>X>X,X,X>X>X>X>X,X,X,X,X>X>X>X>X>X>X>X>X",
">X>X>X>X>X=XP.~.~.~.~.q.0.C.C.j.w m.~.m.s.V.C.j.y m.^.~.~.OX>X>X>X>X>X>X>X>X XD x , }.-X%X.X.X.X.X.X.X.X%X.X.X%X.X;X>X>X>X>X>X>X",
">X>X>X>X>X%XU.H.~.~.~.q.s.C.C.d.w M.^.Z.s.B.C.s.y A.^.^.^.OX>X>X>X>X>X>X>X'.b { ) - 4 4 4 4 4 4 2 2 4 7 7 7 7 7 7 S ;X>X>X>X>X>X",
">X>X>X>X>X>XU.~.~.~.~.p.i.B.V.i.w M.^.Z.q.l.B.0.y ~.^.^.^.OX>X>X>X>X>X-X+.[ | | | ` ] ` ` ] ` ` _ _ _ _ _ _ _ ] ; S >X>X>X>X>X>X",
">X>X>X>X>X,XQ.D.~.~.~.e.9.i.i.r.w n.H.A.s r.i.f a A.^.^.^.&X>X>X>X>X%XD { | | | | | | | | | | | | | | | | | | ) : |.>X>X>X>X>X>X",
">X>X>X>X>X>X_.~.~.~.~.v.i.f.h.z.f.A.^.~.n.M.M.A.A.~.^.^.^.&X>X>X>X.XD { | | | | | | | | | | | | | | | | | | | ; N >X>X>X>X>X>X>X",
">X>X>X>X>X>X).~.~.~.~.~.~.~.~.~.~.~.^.^.~.~.~.~.~.~.~.~.^.-X>X>X.Xn { | | | | | | | | | | | | | | | | | | | _ - `.>X>X>X>X>X>X>X",
">X>X>X>X>X>X).^.~.~.~.~.~.~.~.~.~.^.^.^.^.~.~.~.~.~.~.~.^.=X>X>X.Xm { | | | | | | | | | | | | | | | | | | | _ 1 F -X>X>X>X>X>X>X",
">X>X>X>X>X>XOXH.~.~.^.^.~.~.~.~.^.^.^.^.H.H.^.^.^.^.^.W.!.-X>X>X,X%XD [ | | | | | | | | | | | | | | | | | | | x 2 |.>X>X>X>X>X>X",
">X>X>X>X>X>X+XP.L.U.U.U.U.!.T.E.E.).).OX+X&X=X*X-X>X=X-X>X>X>X>X>X>X-XF _ ' | | | | | | | | | | | | | | | | | { 1 B ;X>X>X>X>X>X",
">X>X>X>X>X>X>X;X>X;X>X=X>X>X;X>X>X>X,X>X>X>X>X>X>X>X>X>X>X>X>X>X>X>X>X>X`.b | | | { ] ] _ ] ] ] _ _ _ _ _ { ] _ x , |.>X>X>X>X>X",
">X>X>X>X>X>X>X>X>X>X>X>X>X>X>X>X>X>X>X>X>X>X>X>X>X>X>X>X>X>X>X>X>X>X>X>X,X}.D { c ; F `.'.].'.].].].].].}.].].].].].;X>X>X>X>X>X",
">X>X>X>X>X>X>X>X>X>X,X>X>X,X>X>X>X>X>X:X>X>X>X>X>X>X,X,X>X>X>X>X>X>X>X>X>X>X%Xo.x < -X>X>X>X>X>X>X>X>X>X>X>X>X>X>X>X>X>X>X>X>X>X",
">X>X>X>X>X>X>X>X>X:XoXoX3X1X1X1X3.3.2X2X2X1X1X1X3XoX<X:X>X>X>X>X>X>X>X>X>X>X>X-X].].>X>X>X>X>X>X>X>X>X>X>X>X>X>X>X>X>X>X>X>X>X>X",
">X>X>X>X>X>X>XoX2X5.,.-.*.&.%.%.%.%.%.%.%.%.&.&.*.-.7.8.3X>X>X>X>X>X>X>X>X>X>X>X>X>X>X>X>X>X>X>X>X>X>X>X>X>X>X>X>X>X>X>X>X>X>X>X",
">X>X>X>X>X>X3X7.6.*.$.#.#.#.#.#.#.#.#.#.#.#.#.#.#.%.:.6.7.2X>X>X>X>X>X>X>X>X>X>X>X>X>X>X>X>X>X>X>X>X>X>X>X>X>X>X>X>X>X>X>X>X>X>X",
">X>X>X>X>X,X2.6.6.6.:.=.=.;.;.=.=.=.=.=.;.=.=.:.:.:.:.6.,.3.>X>X>X>X>X>X>X>X>X>X>X>X>X>X>X>X>X>X>X>X>X>X>X>X>X>X>X>X>X>X>X>X>X>X",
">X>X>X>X>X>X:XXX1.<.<.<.4.4.4.4.4.4.4.4.4.4.4.<.<.2.1.XXXX:X>X>X>X>X>X>X>X>X>X>X>X>X>X>X>X>X>X>X>X>X>X>X>X>X>X>X>X>X>X>X>X>X>X>X",
">X>X>X>X>X>X>X>X,X,X,X,X,X:X:X>X,X,X,X,X,X,X,X,X>X,X:X,X>X>X>X>X>X>X>X>X>X>X>X>X>X>X>X>X>X>X>X>X>X>X>X>X>X>X>X>X>X>X>X>X>X>X>X>X",
">X>X>X>X>X>X>X>X>X,X>X>X>X>X>X>X>X>X>X>X>X>X>X>X>X>X>X>X>X>X>X>X>X>X>X>X>X>X>X>X>X>X>X>X>X>X>X>X>X>X>X>X>X>X>X>X>X>X>X>X>X>X>X>X"
};
