/* XPM */
static char *_0_WallB_BHA1721365574[] = {
/* columns rows colors chars-per-pixel */
"64 64 234 2 ",
"   c #040405",
".  c #0C0C0D",
"X  c #140D0D",
"o  c #110E12",
"O  c #121316",
"+  c #121419",
"@  c #1A1418",
"#  c #1C1A1B",
"$  c #35170B",
"%  c #281917",
"&  c #2E201B",
"*  c #392415",
"=  c #02012A",
"-  c #09092B",
";  c #181626",
":  c #1F1F20",
">  c #060439",
",  c #180F31",
"<  c #191836",
"1  c #201F3B",
"2  c #2C2425",
"3  c #372B28",
"4  c #33302E",
"5  c #3B332F",
"6  c #2E2A34",
"7  c #24233E",
"8  c #332A35",
"9  c #332E3C",
"0  c #343532",
"q  c #3A3736",
"w  c #35303E",
"e  c #432815",
"r  c #552D1A",
"t  c #48342A",
"y  c #483835",
"u  c #553D34",
"i  c #5E442F",
"p  c #564130",
"a  c #5B4434",
"s  c #684837",
"d  c #754A36",
"f  c #070549",
"g  c #141048",
"h  c #060457",
"j  c #0C0955",
"k  c #070459",
"l  c #09065C",
"z  c #0D0A5A",
"x  c #110E5C",
"c  c #1A175A",
"v  c #231B4C",
"b  c #2B2746",
"n  c #352945",
"m  c #3E3B46",
"M  c #383548",
"N  c #28235B",
"B  c #362458",
"V  c #3D3C51",
"C  c #0A0662",
"Z  c #0E0A63",
"A  c #0A0769",
"S  c #0E096D",
"D  c #110B64",
"F  c #120C6C",
"G  c #180F6C",
"H  c #191468",
"J  c #0E0A75",
"K  c #0F0A78",
"L  c #130C74",
"P  c #160E77",
"I  c #1A1378",
"U  c #231C6D",
"Y  c #24177B",
"T  c #2B2463",
"R  c #25206B",
"E  c #352768",
"W  c #2A2574",
"Q  c #3C2C75",
"!  c #3B2C79",
"~  c #353470",
"^  c #483B42",
"/  c #473856",
"(  c #462D78",
")  c #4A3379",
"_  c #503673",
"`  c #44414A",
"'  c #484249",
"]  c #4D4D4C",
"[  c #504F4F",
"{  c #4B4959",
"}  c #514F56",
"|  c #545454",
" . c #5B5656",
".. c #5B5B5B",
"X. c #775248",
"o. c #645E5E",
"O. c #71625A",
"+. c #5D5C66",
"@. c #56567D",
"#. c #74546A",
"$. c #676667",
"%. c #726A6A",
"&. c #6E6D71",
"*. c #656279",
"=. c #767173",
"-. c #7D7C7F",
";. c #8C5130",
":. c #925533",
">. c #A45929",
",. c #B75F25",
"<. c #A65D32",
"1. c #BA642B",
"2. c #B86B37",
"3. c #C96A29",
"4. c #D46D27",
"5. c #D07132",
"6. c #EC7625",
"7. c #EE7827",
"8. c #E77629",
"9. c #FE7F27",
"0. c #F77C29",
"q. c #854C40",
"w. c #894A48",
"e. c #865246",
"r. c #87554B",
"t. c #945D45",
"y. c #8A5A52",
"u. c #9D644B",
"i. c #8D6355",
"p. c #A0664C",
"a. c #8A5C6C",
"s. c #8E7270",
"d. c #F2823A",
"f. c #B88672",
"g. c #DA8A5D",
"h. c #EF894C",
"j. c #D08F71",
"k. c #E18D64",
"l. c #F9A76D",
"z. c #210F86",
"x. c #231385",
"c. c #2A1A84",
"v. c #25128A",
"b. c #29158E",
"n. c #2B1A8A",
"m. c #311D8D",
"M. c #2B1692",
"N. c #2E1993",
"B. c #331D95",
"V. c #331C9B",
"C. c #352C8D",
"Z. c #372598",
"A. c #3A229C",
"S. c #3E33A3",
"D. c #4C348A",
"F. c #432B9C",
"G. c #6B3A84",
"H. c #462AA3",
"J. c #4B27AE",
"K. c #4D2AAE",
"L. c #5B2CA8",
"P. c #4934A7",
"I. c #5335AB",
"U. c #4E2BB1",
"Y. c #522DB2",
"T. c #5E2AB2",
"R. c #4F32B0",
"E. c #5433B4",
"W. c #5A33B6",
"Q. c #5838B7",
"!. c #5936B9",
"~. c #5C3BBB",
"^. c #6538A9",
"/. c #622CB4",
"(. c #6631B5",
"). c #6638B6",
"_. c #6A3DB2",
"`. c #6434B8",
"'. c #6A35B9",
"]. c #6D3ABC",
"[. c #713DBE",
"{. c #4D4A8D",
"}. c #675591",
"|. c #706E89",
" X c #7B7A91",
".X c #5748B2",
"XX c #6847A6",
"oX c #6B41B4",
"OX c #6647B8",
"+X c #714BB2",
"@X c #7241BD",
"#X c #7554B2",
"$X c #7A5DB2",
"%X c #716CAB",
"&X c #7D67B2",
"*X c #723FC0",
"=X c #6442C1",
"-X c #7441C2",
";X c #7843C3",
":X c #7D4CC4",
">X c #7355C0",
",X c #9E5692",
"<X c #8677AC",
"1X c #836CB0",
"2X c #897AB2",
"3X c #804EC6",
"4X c #895AC8",
"5X c #9D74D1",
"6X c #88888B",
"7X c #9B8A8B",
"8X c #8F8E92",
"9X c #8A899B",
"0X c #968F93",
"qX c #979397",
"wX c #9D9395",
"eX c #96959A",
"rX c #9A999E",
"tX c #A19799",
"yX c #BB9E98",
"uX c #8D83A7",
"iX c #9186AD",
"pX c #938AAC",
"aX c #9C9BA1",
"sX c #9A98A7",
"dX c #9B95AD",
"fX c #9187B3",
"gX c #A19FA4",
"hX c #A19DAD",
"jX c #A2A1A6",
"kX c #A7A6AB",
"lX c #AAA5A8",
"zX c #B1A2A1",
"xX c #D6A691",
"cX c #EEC7B3",
/* pixels */
"kXkXkXkXkXkXkXkXkXkXkXkXkXkXkXkXkXkXkXkXkXkXkXkXkXkXkXkXkXkXkXkXkXkXkXkXkXkXkXkXkXkXkXkXkXkXkXkXkXkXkXkXkXkXkXkXkXkXkXkXkXkXkXkX",
"kXkXkXkXkXkXkXkXkXkXkXkXkXkXkXkXkXkXkXkXkXkXkXkXkXkXkXkXkXkXjXgXtXtXgXkXkXkXkXkXkXkXkXkXkXkXkXkXkXkXkXkXkXkXkXkXkXkXkXkXkXkXkXkX",
"kXkXkXkXkXkXkXkXkXkXkXkXkXkXkXkXkXkXkXkXkXkXkXkXkXkXkXkXkXlX7Xy.y.w.i.gXkXkXkXkXkXkXkXkXkXkXkXkXkXkXkXkXkXkXkXkXkXkXkXkXkXkXkXkX",
"kXkXkXkXkXkXkXkXkXkXkXkXkXkXkXkXkXkXkXkXkXkXkXkXkXkXkXkXkXgXs.q.q.q.q.i.tXkXkXkXkXkXkXkXkXkXkXkXkXkXkXkXkXkXkXkXkXkXkXkXkXkXkXkX",
"kXkXkXkXkXkXkXkXkXkXkXkXkXkXkXkXkXkXkXkXkXkXkXkXkXkXkXkXkXkXs.r.q.w.q.q.r.0XkXkXkXkXkXkXkXkXkXkXkXkXkXkXkXkXkXkXkXkXkXkXkXkXkXkX",
"kXkXkXkXkXkXkXkXkXkXkXkXkXkXkXkXkXkXkXkXkXkXkXkXkXkXkXkXkXkXs.;.q.;.q.q.w.7XkXkXkXkXkXkXkXkXkXkXkXkXkXkXkXkXkXkXkXkXkXkXkXkXkXkX",
"kXkXkXkXkXkXkXkXkXkXkXkXkXkXkXkXkXkXkXkXkXkXkXkXkXkXkXkXkXkXwXe.q.q.q.q.e.wXkXkXkXkXkXkXkXkXkXkXkXkXkXkXkXkXkXkXkXkXkXkXkXkXkXkX",
"kXkXkXkXkXkXkXkXkXkXkXkXkXkXkXkXkXkXkXkXkXkXkXkXkXkXkXkXkXkXwXe.q.q.q.q.e.tXkXkXkXkXkXkXkXkXkXkXkXkXkXkXkXkXkXkXkXkXkXkXkXkXkXkX",
"kXkXkXkXkXkXkXkXkXkXkXkXkXkXkXkXkXkXkXkXkXkXkXkXkXkXkXkXkXkXwXe.q.q.q.q.r.wXkXkXkXkXkXkXkXkXkXkXkXkXkXkXkXkXkXkXkXkXkXkXkXkXkXkX",
"kXkXkXkXkXkXkXkXkXkXkXkXkXkXkXkXkXkXkXkXkXkXkXkXkXkXkXkXkXkX7Xq.q.q.q.q.q.7XkXkXkXkXkXkXkXkXkXkXkXkXkXkXkXkXkXkXkXkXkXkXkXkXkXkX",
"kXkXkXkXkXkXkXkXkXkXkXkXkXkXkXkXkXkXkXkXkXkXkXkXkXkXkXkXkXkXtXe.q.q.q.q.y.wXkXkXkXkXkXkXkXkXkXkXkXkXkXkXkXkXkXkXkXkXkXkXkXkXkXkX",
"kXkXkXkXkXkXkXkXkXkXkXkXkXkXkXkXkXkXkXkXjXaXrXrXrXrXrXrXrXrX0Xr.q.q.q.q.r.0XrXaXrXrXrXaXrXrXaXkXkXkXkXkXkXkXkXkXkXkXkXkXkXkXkXkX",
"kXkXkXkXkXkXkXkXkXkXkXkXkXkXkXkXkXkXkXkXeX] ` ` ^ ` ` ` ` ` ' X.q.q.q.q.X.^ ^ ' ` ` ` ` ` ` +.jXkXkXkXkXkXkXkXkXkXkXkXkXkXkXkXkX",
"kXkXkXkXkXkXkXkXkXkXkXkXkXkXkXkXkXkXkXkXeXm w w n w w w w w w u w.q.;.X.^ 8 9 w w n 9 0 6 6 } jXkXkXkXkXkXkXkXkXkXkXkXkXkXkXkXkX",
"kXkXkXkXkXkXkXkXkXkXkXkXkXkXkXkXkXkXkXkXeXm n w w 9 w w w w w ^ f.f.j.yXM 8 9 w w w 9 6 6 6 } jXkXkXkXkXkXkXkXkXkXkXkXkXkXkXkXkX",
"kXkXkXkXkXkXkXkXkXkXkXkXkXkXkXkXkXkXkXkXeXm 9 w w M w w w w m o.xXcXcXcX%.w w 9 6 6 6 6 6 6 } jXkXkXkXkXkXkXkXkXkXkXkXkXkXkXkXkX",
"kXkXkXkXkXkXkXkXkXkXkXkXkXkXkXkXkXkXkXkXrXm 0 w w w y s d <.1.d.d.l.l.h.d.3.,.>.y 6 6 6 6 6 } jXkXkXkXkXkXkXkXkXkXkXkXkXkXkXkXkX",
"kXkXkXkXkXkXkXkXkXkXkXkXkXkXkXkXkXkXkXkXrX` w w 0 p 1.0.0.9.9.9.d.d.d.9.d.9.9.d.8.,.y 6 6 6 } jXkXkXkXkXkXkXkXkXkXkXkXkXkXkXkXkX",
"kXkXkXkXkXkXkXkXkXkXkXkXkXkXkXkXkXkXkXkXeXm w w 5 :.d.d.d.9.9.9.d.d.d.9.d.d.d.d.0.9.4.y 6 6 } jXkXkXkXkXkXkXkXkXkXkXkXkXkXkXkXkX",
"kXkXkXkXkXkXkXkXkXkXkXkXkXkXkXkXkXkXkXkXeXm w w r 4.d.d.4.3.3.3.6.d.6.6.6.4.3.1.4.0.0.d 6 6 } jXkXkXkXkXkXkXkXkXkXkXkXkXkXkXkXkX",
"kXkXkXkXkXkXkXkXkXkXkXkXkXkXkXkXkXkXkXkXeXm w w i d.6.>.p 0 0 5 e i p p y y 0 0 y ;.0.1.0 6 [ jXkXkXkXkXkXkXkXkXkXkXkXkXkXkXkXkX",
"kXkXkXkXkXkXkXkXkXkXkXkXkXkXkXkXkXkXkXkXeXm w w ,.d.>.* 0 0 0 0 5 4 0 0 0 0 0 0 0 4 >.8.q 6 } jXkXkXkXkXkXkXkXkXkXkXkXkXkXkXkXkX",
"kXkXkXkXkXkXkXkXkXkXkXkXkXkXkXkXkXkXkXkXsX^ w q ,.d.i 0 0 0 0 0 0 0 0 0 0 0 0 0 0 0 p 8.a 6 [ jXkXkXkXkXkXkXkXkXkXkXkXkXkXkXkXkX",
"kXkXkXkXkXkXkXkXkXkXkXkXkXkXkXkXkXkXkXjXeXm n a d.d.i 0 0 0 0 0 0 0 0 0 0 0 0 0 0 0 t 8.:.6 | jXkXkXkXkXkXkXkXkXkXkXkXkXkXkXkXkX",
"kXkXkXkXkXkXkXkXkXkXkXkXkXkXkXkXkXkXkXkXrX] m d d.6.i 4 0 0 0 0 0 0 0 0 0 0 0 0 0 0 t 4.3.q ..jXkXkXkXkXkXkXkXkXkXkXkXkXkXkXkXkX",
"kXkXkXkXkXkXkXkXkXkXkXkXkXkXkXkXkXkXkXkXjXrX8Xf.9.6.i 4 0 0 0 0 0 0 0 0 0 0 0 0 0 0 p d.d.wXeXkXkXkXkXkXkXkXkXkXkXkXkXkXkXkXkXkX",
"kXkXkXkXkXkXkXkXkXkXkXkXkXkXkXkXkXkXkXkXkXkXlXk.d.7.p 0 0 0 0 0 0 * 3 3 0 0 0 0 4 0 p 6.d.yXlXlXkXkXkXkXkXkXkXkXkXkXkXkXkXkXkXkX",
"kXkXkXkXkXkXkXkXkXkXkXkXkXkXkXkXkXkXkXkXkXlXyXh.d.d.a 0 0 0 0 0 4 # X % 5 0 0 0 4 4 p d.d.k.lXlXkXkXkXkXkXkXkXkXkXkXkXkXkXkXkXkX",
"kXkXkXkXkXkXkXkXkXkXkXkXkXkXkXkXkXkXkXkXkXkXj.d.d.d.%.5 5 0 0 0 0 % $ & 0 0 0 0 0 0 O.d.d.h.jXkXkXkXkXkXkXkXkXkXkXkXkXkXkXkXkXkX",
"kXkXkXkXkXkXkXkXkXkXkXkXkXkXkXkXkXkXkXkXkXkXh.d.d.d.d.r 0 0 3 * 5 # . % 5 0 0 0 0 ..zXg.d.d.lXkXkXkXkXkXkXkXkXkXkXkXkXkXkXkXkXkX",
"kXkXkXkXkXkXkXkXkXkXkXkXkXkXkXlXjXkXjXkXjXjXf.d.d.d.d.6.>.d ;.,.>.* X * ,.,.;.s =.eXtXwXd.g.kXkXkXjXkXkXkXkXkXkXkXkXkXkXkXkXkXkX",
"kXkXkXkXkXkXkXkXkXkXkXkXkXkX6X=.&.&.&.&.&.&.$.i.4.6.d.9.d.d.d.d.d.* X * d.d.d.5.o.o.o.o...O.-.-.-.-.-.f.6XqXkXkXkXkXkXkXkXkXkXkX",
"kXkXkXkXkXkXkXkXkXkXkXkXkXaX$.| | | | } | | | | [ O.2.7.d.7.9.9.6.* . e d.d.9.4.o. . .....................&.gXkXkXkXkXkXkXkXkXkX",
"kXkXkXkXkXkXkXkXkXkXkXkXkXjX..0 ' ] [ [ } ] ..$.] ] ] X.5.0.d.9.6.e X e d.d.d.6. .[ ] [ &. .] ] ] ] ] ] q &.lXkXkXkXkXkXkXkXkXkX",
"kXkXkXkXkXkXkXkXkXkXkXkXkXkX8Xo.eXrXaXrXrXrXgXgXeXuXuXuXf.9.9.9.d.e . e 6.9.d.d.0X8X8X7XaXrX8X8X8X8X8X8X| 6XkXkXkXkXkXkXkXkXkXkX",
"kXkXkXkXkXkXkXkXkXkXkXkXkXkXeX=.kXkXhXdXiX1X$X+XoX_.(./.,X0.9.9.6.* . $ 6.9.d.5.+X#X$X<XpXsXjXkXkXkXkXjX&.aXkXkXkXkXkXkXkXkXkXkX",
"kXkXkXkXkXkXkXkXkXkXkXkXgXlXwX*.<X$X+X_._.'.(./.(./././.G.>.3.4.4.e O % ,.3.,.;.L.T.T.T./.(.+X1XpXhXkXlX&.rXkXkXkXkXkXkXkXkXkXkX",
"kXkXkXkXkXkXkXkXkXkXkXkXdX<XXX) /./.'.@X4X3X@X].).(.'.).B @ @ % * X . o $ % @ + D./././././.T././.oX$XiX&.rXkXkXkXkXkXkXkXkXkXkX",
"kXkXkXkXkXkXkXkXkXjXiX$X'./.L.( (.(.].3X5X5X:X*X*X].^._ n 2 2 2 2 X . O 2 2 2 2 9 D.^.'././././././.T.L._ %XgXkXkXkXkXkXkXkXkXkX",
"kXkXkXkXkXkXkXjXiX#X(./././.L.) '.'.[.3X4X4X3X;X*X+X/ q 0 0 0 0 4 & % % 0 0 0 0 0 4 / '.].'.`.`.(./././.( L._.<XjXkXkXkXkXkXkXkX",
"kXkXkXkXkXkXdX1X(././././.'.^.) _.@X;X:X3X:X:X;X*X^.M 0 0 0 0 0 0 0 0 0 0 0 0 0 0 0 / _.*X*X*X*X'.'.(.(.( L./.T.+XiXkXkXkXkXkXkX",
"kXkXkXkXkXiX+X/././.(.'.'.'.^.D.3X*X*X[.].`.W.Y.Y.K.( M 4 4 4 4 4 4 4 4 4 4 4 4 4 9 ) ).*X-X-X-X[.[.].'.( L././.T./.1XgXkXkXkXkX",
"kXkXkXkXiX_.T././.'.'.*X*X*X].) './.Y.Y.U.U.U.J.K.J.K.P.E # # @ X o . o B ; @ @ @ E K.K.U.Y.E.*X-X;X*X[.) (.'./././.T.$XkXkXkXkX",
"kXkXkXfX'././.(.(.'.*X*X*X*XL.Q K.J.U.K.U.R.U.U.U.U.Y.Y.F.+ O O .     , ! < O O + D.E.Y.U.U.J.U.U.W.[.[.) _.'.'././.T.T.$XhXkXkX",
"kXkXdX+X/./.'.'.*X*X'.*XT.J.H.Q U.U.U.U.E.Q.Q.E.E.W.E.W.E.1 o + O @ # ! P.; + + 1 I.!.E.E.U.U.Y.Y.U.U.Y.( _.[.].'.(./.T./.1XkXkX",
"kXjX&X/.(.(.'.[.*X*XY.U.J.J.F.Q U.Y.Y.!.~.OX=X.XY.H.H.V.B.c + + O # : T W ; + + v F.R.E.!.E.E.E.Y.Y.U.K.Q I.).*X].'././.T.).dXkX",
"kXdX_./.(.].[.*X`.Y.J.J.U.Y.P.( E.E.E.!..XS.Z.N.v.v.z.z.z.U o + + + : T Y ; O + v v.v.M.V.H.U.E.E.E.E.E.Q H.U.T.].].'.(././.1XkX",
"kXiX(.(.'.].*X`.Y.J.U.Y.Y.E.R.! !.R.S.V.b.v.v.v.z.z.v.z.v.Y , o + # : T U + + + W C.n.x.z.z.z.M.H.E.!.E.Q R.U.K.Y.].].'.'./.#XkX",
"kX2X(.'.].*X`.E.W.W.E.Y.E.!.I.! A.M.v.z.z.z.v.v.v.v.v.M.M.N.n t u 3 : T ) t 3 6 {.S.N.v.x.x.v.x.z.v.V.E.) R.E.Y.U.Y.'.*X].(.oXkX",
"kX2X(.'.].`.Y.Q.>XOX~.E.!.E.F.T x.z.v.v.v.x.v.M.M.M.M.M.V.V.a.t.p.s : Q #.u.u.i.%XS.V.M.b.v.b.v.x.v.z.n.E I.~.E.E.U.Y.*X'.'.+XkX",
"kXfX(.].].Y.Y.~.#X=XOX~.E.B.Y N x.v.b.b.M.M.N.V.V.V.V.V.V.V.}.p.p.d : E a.p.p.a..XS.A.V.N.N.B.N.B.n.v.x.N m.E.~.E.E.U.`.].'.$XkX",
"kXhX+X[.W.U.U.E.~.=X~.E.M.z.Y N v.b.b.M.N.V.V.V.V.M.v.v.G D _ p.u.3   < y.p.p.a.C.C.A.V.V.V.A.A.F.Z.M.x.N Y M.E.~.~.E.E.'.'.2XkX",
"kXkX2X[.T.J.U.E.~.OXE.M.z.n.x.N M.N.V.V.B.N.x.L C l h k k k N u.u.%   @ i.p.u./ z z A F x.B.A.P.H.A.B.b.N c.z.b.!.~.!.U.`.#XhXkX",
"kXkXhX$XY.J.U.!.~.~.A.z.v.v.c.T N.Z.Z.m.I Z j k k k l k l l H X.t.$ = < y e.r.B z z k h k l G c.A.A.V.B.N x.v.v.V.!.!.E.oXfXkXkX",
"kXkXkXdXOXK.E.~.*XR.v.v.v.b.c.T B.c.I W R H z l l C D C D c c 8 r $ > I v % & c Z C k k k k z z D Y N.B.T n.v.v.v.U.~..X2XhXkXkX",
"kXkXkXkXdXOXE.OX=XA.z.v.n.M.m.N G H ~ }.@.R x C C Z H H H G G T n B c L H B b c c H x Z l k k k h h Z n.E c.b.v.z.A.OX2XhXkXkXkX",
"kXkXkXkXkXhX&XOX=XA.z.v.M.N.x.b x H W {.~ W D F F > g H K K K K G G j F L P x.P I I > j C l l l h h h j N n.M.M.v.{.fXjXkXkXkXkX",
"kXkXkXkXkXkXkXfX>XA.z.b.N.v.x c z x R R U L F J L x C S l f > > > - . - > > f h C F x x S A C l h h h j c x.N.C.%XpXkXkXkXkXkXkX",
"kXkXkXkXkXkXkXkXhX%XS.M.n.Z j c h h Z H F S L K L x > > = = = = = = - - = = = = = > f D K J F C C k h j N T }.uXgXkXkXkXkXkXkXkX",
"kXkXkXkXkXkXkXkXkXkXaX9X{.c h z z k C D D J P Z > = = = = = = = = = = = = = = = = = = = f P L S A z x ~ *.9XjXkXjXkXkXkXkXkXkXkX",
"kXkXkXkXkXkXkXkXkXkXkXkXsX9X|.~ H k C D J K J > = = = = = = = = = = = = = = = = = = = = = h J I ~ {.6XeXkXkXkXkXkXkXkXkXkXkXkXkX",
"kXkXkXkXkXkXkXkXkXkXkXkXkXkXkXaX9X X{.~ W I C = = = = = = = = = = = = = = = = = = = - 1 b { |.9XaXjXkXkXkXkXkXkXkXkXkXkXkXkXkXkX",
"kXkXkXkXkXkXkXkXkXkXkXkXkXkXkXkXkXkXkXhXsX9X X+.{ V M 7 1 < < < < < < 1 7 b M { +.&.-.8XaXjXkXkXkXkXkXkXkXkXkXkXkXkXkXkXkXkXkXkX",
"kXkXkXkXkXkXkXkXkXkXkXkXkXkXkXkXkXkXkXkXkXjXkXkXkXjXaXaXaXeXeXeXeXeXrXrXaXaXgXjXkXkXkXkXkXkXkXkXkXkXkXkXkXkXkXkXkXkXkXkXkXkXkXkX"
};
