/* XPM */
static char *_1_WallB_BHA1721365574[] = {
/* columns rows colors chars-per-pixel */
"64 64 227 2 ",
"   c #09090A",
".  c #140D0D",
"X  c #100E12",
"o  c #131315",
"O  c #121419",
"+  c #1B1518",
"@  c #1A1A1C",
"#  c #261917",
"$  c #321B11",
"%  c #2D201C",
"&  c #352217",
"*  c #02012A",
"=  c #0A092A",
"-  c #1C1A24",
";  c #060537",
":  c #120F3C",
">  c #191735",
",  c #231D21",
"<  c #211D35",
"1  c #2B2324",
"2  c #392A26",
"3  c #322E2C",
"4  c #33312E",
"5  c #3A332E",
"6  c #2D2933",
"7  c #24233E",
"8  c #362A35",
"9  c #332F3D",
"0  c #333431",
"q  c #3C373A",
"w  c #472A15",
"e  c #532E19",
"r  c #493A2F",
"t  c #443636",
"y  c #503930",
"u  c #55402F",
"i  c #784B2D",
"p  c #6B4639",
"a  c #774A34",
"s  c #070549",
"d  c #161249",
"f  c #060457",
"g  c #0D0B53",
"h  c #070459",
"j  c #09065C",
"k  c #0C095A",
"l  c #120E5B",
"z  c #151459",
"x  c #251D4E",
"c  c #221B59",
"v  c #2B2846",
"b  c #35274C",
"n  c #322F4E",
"m  c #3A3647",
"M  c #392854",
"N  c #0A0662",
"B  c #0D0963",
"V  c #0A0769",
"C  c #0E096D",
"Z  c #110B64",
"A  c #120C6B",
"S  c #180F6C",
"D  c #1A1568",
"F  c #0E0A75",
"G  c #120C74",
"H  c #140C77",
"J  c #181379",
"K  c #261C65",
"L  c #251E6E",
"P  c #241975",
"I  c #292369",
"U  c #2A216D",
"Y  c #34316F",
"T  c #2B2273",
"R  c #2D2479",
"E  c #332875",
"W  c #443E47",
"Q  c #413157",
"!  c #4A3373",
"~  c #434049",
"^  c #4D4C4C",
"/  c #4A495C",
"(  c #535252",
")  c #5A5A5A",
"_  c #6F524F",
"`  c #5E5D64",
"'  c #56567D",
"]  c #605E66",
"[  c #685E60",
"{  c #744F74",
"}  c #66656A",
"|  c #6C6C6E",
" . c #766B6F",
".. c #6C6B75",
"X. c #79797C",
"o. c #824A3F",
"O. c #8D5330",
"+. c #AA5C2A",
"@. c #B15E28",
"#. c #A45D34",
"$. c #8F603F",
"%. c #AA602E",
"&. c #BC6429",
"*. c #B56A38",
"=. c #C86826",
"-. c #D56D27",
";. c #CE7031",
":. c #EB7625",
">. c #E77628",
",. c #F57A26",
"<. c #F97C26",
"1. c #E57B37",
"2. c #834E43",
"3. c #835244",
"4. c #85554D",
"5. c #945E49",
"6. c #885B53",
"7. c #96624A",
"8. c #9B634B",
"9. c #8B655F",
"0. c #956964",
"q. c #AF7373",
"w. c #F1803C",
"e. c #B38776",
"r. c #EC894C",
"t. c #D48B6A",
"y. c #F49E62",
"u. c #210F86",
"i. c #231284",
"p. c #25128A",
"a. c #29148E",
"s. c #2A1A88",
"d. c #2B1692",
"f. c #2E1993",
"g. c #331C95",
"h. c #331C9B",
"j. c #382883",
"k. c #362E8E",
"l. c #372598",
"z. c #3A229C",
"x. c #3E33A3",
"c. c #442D8C",
"v. c #482B88",
"b. c #512D8D",
"n. c #453387",
"m. c #57368B",
"M. c #442C97",
"N. c #532D93",
"B. c #493294",
"V. c #5A3696",
"C. c #633B96",
"Z. c #4429A4",
"A. c #4B27AE",
"S. c #4D29AF",
"D. c #4833A7",
"F. c #5132AB",
"G. c #4E2BB1",
"H. c #522DB3",
"J. c #5E29B2",
"K. c #5433B5",
"L. c #5B33B6",
"P. c #593AB5",
"I. c #5734B8",
"U. c #5936B9",
"Y. c #5C3BBB",
"T. c #683AAF",
"R. c #622CB4",
"E. c #6631B6",
"W. c #6739B5",
"Q. c #6434B8",
"!. c #6A35BA",
"~. c #6D3ABC",
"^. c #713CBE",
"/. c #51468B",
"(. c #645C98",
"). c #6A648A",
"_. c #7C7A84",
"`. c #6E6891",
"'. c #7B7A91",
"]. c #524FAD",
"[. c #6B42B3",
"{. c #6746B8",
"}. c #714BB3",
"|. c #7341BD",
" X c #7553B2",
".X c #7A5DB2",
"XX c #5F74B5",
"oX c #7A69A9",
"OX c #7D67B2",
"+X c #723FC0",
"@X c #6442C1",
"#X c #7341C2",
"$X c #7843C3",
"%X c #7D4CC4",
"&X c #7355C0",
"*X c #966296",
"=X c #8778AD",
"-X c #836CB0",
";X c #8979B2",
":X c #8555C7",
">X c #9D74D1",
",X c #818185",
"<X c #87868B",
"1X c #978484",
"2X c #8E8E93",
"3X c #8A899B",
"4X c #928E96",
"5X c #949296",
"6X c #9A9499",
"7X c #9A999E",
"8X c #B0938C",
"9X c #A6999A",
"0X c #A19A9D",
"qX c #B5A09C",
"wX c #8C83A7",
"eX c #9288AD",
"rX c #9C9BA1",
"tX c #9B98A7",
"yX c #9B95AD",
"uX c #9187B3",
"iX c #A19FA4",
"pX c #A19DAD",
"aX c #A5A3A7",
"sX c #A7A6AB",
"dX c #C2998B",
"fX c #D8B4A1",
"gX c #ECC6B3",
/* pixels */
"sXsXsXsXsXsXsXsXsXsXsXsXsXsXsXsXsXsXsXsXsXsXsXsXsXsXsXsXsXsXsXsXsXsXsXsXsXsXsXsXsXsXsXsXsXsXsXsXsXsXsXsXsXsXsXsXsXsXsXsXsXsXsXsX",
"sXsXsXsXsXsXsXsXsXsXsXsXsXsXsXsXsXsXsXsXsXsXsXsXsXsXsXsXsXsXsXsXrXrXiXsXsXsXsXsXsXsXsXsXsXsXsXsXsXsXsXsXsXsXsXsXsXsXsXsXsXsXsXsX",
"sXsXsXsXsXsXsXsXsXsXsXsXsXsXsXsXsXsXsXsXsXsXsXsXsXsXsXsXsXsX1X6.4.2.9.iXsXsXsXsXsXsXsXsXsXsXsXsXsXsXsXsXsXsXsXsXsXsXsXsXsXsXsXsX",
"sXsXsXsXsXsXsXsXsXsXsXsXsXsXsXsXsXsXsXsXsXsXsXsXsXsXsXsXsXsX0.a 2.o.2.6.0XsXsXsXsXsXsXsXsXsXsXsXsXsXsXsXsXsXsXsXsXsXsXsXsXsXsXsX",
"sXsXsXsXsXsXsXsXsXsXsXsXsXsXsXsXsXsXsXsXsXsXsXsXsXsXsXsXsXsXe._ o.o.o.o.4.6XaXaXsXsXsXsXsXsXsXsXsXsXsXsXsXsXsXsXsXsXsXsXsXsXsXsX",
"sXsXsXsXsXsXsXsXsXsXsXsXsXsXsXsXsXsXsXsXsXsXsXsXsXsXsXsXsXsX1Xo.o.o.o.o.2.6XsXsXsXsXsXsXsXsXsXsXsXsXsXsXsXsXsXsXsXsXsXsXsXsXsXsX",
"sXsXsXsXsXsXsXsXsXsXsXsXsXsXsXsXsXsXsXsXsXsXsXsXsXsXsXsXsXsX9X3.o.o.o.o.4.9XsXsXsXsXsXsXsXsXsXsXsXsXsXsXsXsXsXsXsXsXsXsXsXsXsXsX",
"sXsXsXsXsXsXsXsXsXsXsXsXsXsXsXsXsXsXsXsXsXsXsXsXsXsXsXsXsXsX0X4.o.o.o.o.4.iXsXsXsXsXsXsXsXsXsXsXsXsXsXsXsXsXsXsXsXsXsXsXsXsXsXsX",
"sXsXsXsXsXsXsXsXsXsXsXsXsXsXsXsXsXsXsXsXsXsXsXsXsXsXsXsXsXsX9X4.o.o.o.o.4.9XsXsXsXsXsXsXsXsXsXsXsXsXsXsXsXsXsXsXsXsXsXsXsXsXsXsX",
"sXsXsXsXsXsXsXsXsXsXsXsXsXsXsXsXsXsXsXsXsXsXsXsXsXsXsXsXsXaX6X3.o.o.o.o.2.6XsXsXsXsXsXsXsXsXsXsXsXsXsXsXsXsXsXsXsXsXsXsXsXsXsXsX",
"sXsXsXsXsXsXsXsXsXsXsXsXsXsXsXsXsXsXsXsXsXsXsXsXsXsXsXsXsXsX9X4.o.o.o.o.6.0XsXsXsXsXsXsXsXsXsXsXsXsXsXsXsXsXsXsXsXsXsXsXsXsXsXsX",
"sXsXsXsXsXsXsXsXsXsXsXsXsXsXsXsXsXsXsXsXsXrX7X7X7X7X7X7X6X7X5X4.o.o.o.o.6.5X7X7X7X6X7X7X7X7XaXsXsXsXsXsXsXsXsXsXsXsXsXsXsXsXsXsX",
"sXsXsXsXsXsXsXsXsXsXsXsXsXsXsXsXsXsXsXsXaX} ~ ~ W W W ~ ~ ~ ^ _ o.o.o.o.a W ~ ~ ~ ~ ~ ~ ~ m <XsXsXsXsXsXsXsXsXsXsXsXsXsXsXsXsXsX",
"sXsXsXsXsXsXsXsXsXsXsXsXsXsXsXsXsXsXsXsXaX} 9 9 9 9 9 9 9 9 9 t 2.2.o._ t 8 9 9 9 9 9 9 6 6 ,XsXsXsXsXsXsXsXsXsXsXsXsXsXsXsXsXsX",
"sXsXsXsXsXsXsXsXsXsXsXsXsXsXsXsXsXsXsXsXsX` 9 9 9 9 m 9 9 9 9 q q.e.e.t.m 8 9 9 9 9 6 6 6 6 ,XsXsXsXsXsXsXsXsXsXsXsXsXsXsXsXsXsX",
"sXsXsXsXsXsXsXsXsXsXsXsXsXsXsXsXsXsXsXsXaX] 9 v 9 9 9 9 9 9 9 ( fXgXgXfX[ 9 9 9 6 6 6 6 6 6 ,XsXsXsXsXsXsXsXsXsXsXsXsXsXsXsXsXsX",
"sXsXsXsXsXsXsXsXsXsXsXsXsXsXsXsXsXsXsXsXsX} 0 9 q 9 q p p #.&.w.w.y.y.r.w.=.@.i 5 6 6 6 6 6 ,XsXsXsXsXsXsXsXsXsXsXsXsXsXsXsXsXsX",
"sXsXsXsXsXsXsXsXsXsXsXsXsXsXsXsXsXsXsXsXsX} 9 9 0 5 #.>.,.,.<.<.w.w.w.<.w.<.<.<.-.O.4 6 6 6 ,XsXsXsXsXsXsXsXsXsXsXsXsXsXsXsXsXsX",
"sXsXsXsXsXsXsXsXsXsXsXsXsXsXsXsXsXsXsXsXaX] 9 9 3 u w.w.,.,.w.<.w.w.w.<.w.w.w.w.w.<.#.3 6 6 ,XsXsXsXsXsXsXsXsXsXsXsXsXsXsXsXsXsX",
"sXsXsXsXsXsXsXsXsXsXsXsXsXsXsXsXsXsXsXsXsX} 9 9 & +.w.w.-.&.=.=.:.w.:.:.-.=.&.&.-.<.>.0 6 6 ,XsXsXsXsXsXsXsXsXsXsXsXsXsXsXsXsXsX",
"sXsXsXsXsXsXsXsXsXsXsXsXsXsXsXsXsXsXsXsXaX` 9 9 e w.w.+.u 0 0 0 w u u u u 4 0 0 y @.w.i 6 6 X.sXsXsXsXsXsXsXsXsXsXsXsXsXsXsXsXsX",
"sXsXsXsXsXsXsXsXsXsXsXsXsXsXsXsXsXsXsXsXsX` 9 9 i w.@.w 0 0 0 0 3 4 0 4 0 0 0 0 5 5 =.@.6 0 ,XsXsXsXsXsXsXsXsXsXsXsXsXsXsXsXsXsX",
"sXsXsXsXsXsXsXsXsXsXsXsXsXsXsXsXsXsXsXsXaX] 9 9 O.w.i 0 0 0 0 0 0 0 0 0 0 0 0 0 4 3 O.-.0 0 ,XsXsXsXsXsXsXsXsXsXsXsXsXsXsXsXsXsX",
"sXsXsXsXsXsXsXsXsXsXsXsXsXsXsXsXsXsXsXsXaX] 9 q =.w.i 0 0 0 0 0 0 0 0 0 0 0 0 0 0 3 i :.u 0 ,XsXsXsXsXsXsXsXsXsXsXsXsXsXsXsXsXsX",
"sXsXsXsXsXsXsXsXsXsXsXsXsXsXsXsXsXsXsXsXsX} m W ;.w.i 2 0 0 0 0 0 0 0 0 0 0 0 0 0 0 i w.i 5 ,XsXsXsXsXsXsXsXsXsXsXsXsXsXsXsXsXsX",
"sXsXsXsXsXsXsXsXsXsXsXsXsXsXsXsXsXsXsXsXsXaX5Xe.w.:.i 4 0 0 0 0 0 0 0 0 0 0 0 0 0 0 i w.e.e.aXsXsXsXsXsXsXsXsXsXsXsXsXsXsXsXsXsX",
"sXsXsXsXsXsXsXsXsXsXsXsXsXsXsXsXsXsXsXsXsXsXsXdXw.w.i 0 0 0 0 0 4 & 4 3 0 0 0 0 0 0 i w.r.sXsXsXsXsXsXsXsXsXsXsXsXsXsXsXsXsXsXsX",
"sXsXsXsXsXsXsXsXsXsXsXsXsXsXsXsXsXsXsXsXsXsXqXt.w.w.$.0 0 0 0 0 4 @ . $ 4 0 0 0 4 w i w.w.e.sXsXsXsXsXsXsXsXsXsXsXsXsXsXsXsXsXsX",
"sXsXsXsXsXsXsXsXsXsXsXsXsXsXsXsXsXsXsXsXsXsXqXw.<.w.e.4 3 4 0 0 0 $ # $ 4 0 0 0 0 q e.w.w.t.sXsXsXsXsXsXsXsXsXsXsXsXsXsXsXsXsXsX",
"sXsXsXsXsXsXsXsXsXsXsXsXsXsXsXsXsXsXsXsXsXsX8Xw.<.<.:.i 4 4 % & 4 @ . $ 5 0 0 0 r | e.r.w.t.sXsXsXsXsXsXsXsXsXsXsXsXsXsXsXsXsXsX",
"sXsXsXsXsXsXsXsXsXsXsXsXsXsXsXsXaXsXaXaXaXsX9Xw.<.w.w.:.%.i i +.+.$ o & &.&.O.p X.7XrXe.w.e.sXsXsXiXsXsXsXsXsXsXsXsXsXsXsXsXsXsX",
"sXsXsXsXsXsXsXsXsXsXsXsXsXsXsXX...| | ..| | | _ &.:.<.<.w.w.w.w.w.w . & w.w.w.$.) } ) ) [ | X.X.X.X.X.e.2XsXsXsXsXsXsXsXsXsXsXsX",
"sXsXsXsXsXsXsXsXsXsXsXsXsXsX5X( ( ( ( ( ( ( ( ( ^ _ $.:.,.1.<.<.w.&   w w.w.<.&.) ) ) ) ) ) ) ) ) ( ) ) ` 5XsXsXsXsXsXsXsXsXsXsX",
"sXsXsXsXsXsXsXsXsXsXsXsXsXsX7Xq q ^ ^ ^ ^ ^ (  .( ^ ^ _ *.>.<.<.w.w . e ,.w.w.=.^ ^ ^ ( | ^ ^ ^ ^ ^ ^ q ^ rXsXsXsXsXsXsXsXsXsXsX",
"sXsXsXsXsXsXsXsXsXsXsXsXsXsXaX| X.7X7X7X7X7X7XiX7X3X3X=X*Xw.<.<.:.w   w :.<.w.w.4X2X4X4XiX4X2X2X2X2X5X}  .aXsXsXsXsXsXsXsXsXsXsX",
"sXsXsXsXsXsXsXsXsXsXsXsXsXsXsXX.<XsXyXyXuX-X.X}.[.W.R.R.*Xw.<.<.:.w   & :.<.,.q.}. X.X=XeXyXaXsXsXsXsX,X<XsXsXsXsXsXsXsXsXsXsXsX",
"sXsXsXsXsXsXsXsXsXsXsXsXaXsXpX_.`..X}.W.|.W.E.E.R.R.R.E.V.O.=.=.-.w o % &.=.@._ R.R.R.J.R.Q.}.-XeXaXaX,X<XsXsXsXsXsXsXsXsXsXsXsX",
"sXsXsXsXsXsXsXsXsXsXsXsXyX=X}.m.b.R.E.|.:X:X|.!.Q.Q.!.E.! @ + # & .   . . $ + - N.E.R.R.R.R.J.J.J.[.OX).<XsXsXsXsXsXsXsXsXsXsXsX",
"sXsXsXsXsXsXsXsXsXpXeX.XT.R.J.b.N.R.^.:X>X>X%X|.^.^.T.m.M 1 1 1 1 . X o 1 1 # 1 M m.E.E.R.E.R.R.R.R.R.b./.;XpXaXsXsXsXsXsXsXsXsX",
"sXsXsXsXsXsXsXaXeX.XE.J.R.R.R.b.V.!.~.:X:X:X%X$X$X}.! q 0 0 0 0 4 % # # 0 0 0 5 0 q ! ~.~.!.Q.Q.E.R.R.b.N.R.T.=XsXsXsXsXsXsXsXsX",
"sXsXsXsXsXaXyX-XE.R.R.R.R.E.!.b.C.+X+X:X:X%X$X$X|.[.M 0 0 0 0 0 0 4 4 4 0 0 0 0 0 0 ! #X+X+X+X+X!.E.E.N.N.R.R.J.}.eXaXaXsXsXsXsX",
"sXsXsXsXsXuX}.J.R.R.E.!.!.~.^.V.C.+X+X+X!.Q.I.H.H.S.B.m 0 0 4 3 4 4 3 4 3 6 3 3 3 m B.~.+X$X#X#X+X+X+XV.N.R.R.R.R.R.-XpXsXsXsXsX",
"sXsXsXaXeXW.R.R.E.!.~.^.+X+X+XV.V.R.H.H.G.G.G.A.S.S.S.S.j.# + o .   X o M - o o - ! H.S.A.H.K.+X+X#X+XV.V.+XQ.R.R.R.J..XpXaXsXsX",
"sXsXsXuXW.R.R.E.E.~.~.+X+X+XE.v.M.A.G.G.G.G.H.G.S.H.H.H.S.> o o       > j.- O O > F.K.H.G.G.A.A.G.I.+XV.V.+XQ.Q.R.R.R.J..XsXsXsX",
"sXsXyX}.R.R.!.!.~.^.+X!.J.S.S.j.k.G.G.G.K.P.P.K.K.K.K.I.L.c O O X o @ ! B.> O O v L.I.K.H.H.H.H.H.G.G.M.V.#X+X+X!.R.R.R.R.-XaXsX",
"sXpXOXR.R.!.!.^.+X~.H.H.S.S.S.c.M.G.K.K.Y.{.@XP.H.A.Z.h.g.K O X O @ @ Y P O O O K S.K.K.I.K.K.K.H.H.H.c.c.H.Q.#X^.!.E.R.R.W.yXsX",
"sXyX[.R.E.~.^.+XQ.H.A.A.S.H.H.c.B.U.I.Y.P.x.x.d.a.u.u.u.u.P X O O @ @ I D O O O I p.p.a.h.Z.D.K.I.K.H.c.c.G.G.J.~.~.E.E.R.R.-XsX",
"sXeXR.E.!.^.^.Q.H.S.G.H.H.K.I.c.B.K.x.h.p.p.i.i.u.u.u.p.p.P > X O @ , I K O O - E k.s.u.u.u.p.d.Z.K.U.B.B.K.G.S.H.~.~.~.E.R. XsX",
"sX;XE.E.~.+XQ.H.L.L.I.K.K.I.I.n.j.a.u.u.u.p.u.a.p.p.p.d.a.f.b t y 2 # U ! w 2 b ].x.f.p.u.u.u.i.u.a.h.c.B.I.K.H.G.H.~.^.~.E.}.aX",
"sX;XE.!.~.Q.K.P. X{.U.I.I.K.Z.U L u.u.p.p.p.p.d.d.d.d.d.h.h.{ 5.8.p 1 E 9.8.5.).XXx.l.d.a.a.a.s.i.u.i.U c.U.U.I.K.H.K.~.~.E.}.aX",
"sXeXE.^.~.H.G.U.&X@X{.Y.F.g.u.L L p.p.a.d.d.f.h.h.h.h.h.h.z.C.8.8.a # E 9.6.8.9.].k.z.h.f.f.g.f.g.a.p.U L g.K.Q.I.K.H.Q.~.!..XsX",
"sXpX}.^.L.S.G.I.Y.@XY.K.f.u.u.L T a.d.d.f.h.h.h.h.f.p.u.H G Q 8.5.r   x 6.8.5.{ k.k.z.h.h.h.z.z.M.g.d.U L p.f.H.Y.U.H.H.!.!.;XsX",
"sXsX;X~.J.A.G.I.Y.@XK.f.u.a.p.I T f.l.l.l.f.i.G V h f j f f c 6.5.&   # 7.8.7.Q j j N A i.f.z.D.D.z.g.T T p.p.a.I.Y.I.G.Q. XpXsX",
"sXsXpX.XH.A.H.I.Y.W.h.u.i.a.a.L s.l.l.s.J l f k h h j j j j Z _ 5.$ * : r 3._ c j h h h h k S s.z.z.h.E R p.p.u.h.Y.U.H.{.uXsXsX",
"sXsXsXpX{.S.K.Y.@XK.a.u.p.a.f.L R s.L I I D k k j j B N N z z 6 e $ : A x # , z B B j h j h k k Z i.f.R R d.a.u.p.D.U.Y.;XpXsXsX",
"sXsXsXsXyX{.K.{.{.Z.u.u.a.d.h.U c D Y (./.D Z k V B S D D D G I b b l G D b v D z B B B j h h h f f B I R f.a.p.p.z.{.;XsXsXsXsX",
"sXsXsXsXsXpXXX{.@Xl.u.p.d.f.i.c x D I /.n.L D C V g : D G F F F S S g G G J u.J J D ; Z B N N h h f k d I d.d.p.a./.uXsXsXsXsXsX",
"sXsXsXsXsXsXsXuX&Xz.p.p.f.p.j z z l D L L D A C F A f B k s s ; ; ;   = ; ; s f B Z g A C V N j h h h z z i.f.k.(.eXsXsXsXsXsXsX",
"sXsXsXsXsXsXsXsXpXoXk.a.p.A f g z k l Z A C J F G g ; ; * * * * * * = * * * * * * ; s A F F A N j h f d z I (.wXsXsXsXsXsXsXsXsX",
"sXsXsXsXsXsXsXsXsXsXpXwX/.z h h l k V Z C F F B ; * * * * * * * * * * * * * * * * * * * s G G C N j k Y ..3XpXsXsXsXsXsXsXsXsXsX",
"sXsXsXsXsXsXsXsXsXsXsXsXpX2X).Y D j N A F F C ; * * * * * * * * * * * * * * * * * * * * = s F J Y ' '.7XsXsXsXsXsXsXsXsXsXsXsXsX",
"sXsXsXsXsXsXsXsXsXsXsXsXsXsXsXiX3X'./.Y R J N ; * * * * * ; * * * * * * * * * * * * = > n / ).3XtXsXsXsXsXsXsXsXsXsXsXsXsXsXsXsX",
"sXsXsXsXsXsXsXsXsXsXsXsXsXsXsXsXsXsXsXrXtX3X'.] / m n v > > > > > > > < 7 v m / ` ..,X2X7XiXsXsXsXsXsXsXsXsXsXsXsXsXsXsXsXsXsXsX",
"sXsXsXsXsXsXsXsXsXsXsXsXsXsXsXsXsXsXsXsXsXpXsXsXsXaXrX7XrXrX5X7X5X7X7X7X7XrXiXiXsXsXsXsXsXsXsXsXsXsXsXsXsXsXsXsXsXsXsXsXsXsXsXsX"
};
