/* XPM */
static char *_1_WallB_BHB1721365575[] = {
/* columns rows colors chars-per-pixel */
"64 64 225 2 ",
"   c #09090A",
".  c #140D0D",
"X  c #100E14",
"o  c #131315",
"O  c #121419",
"+  c #1B1518",
"@  c #1B1A1C",
"#  c #261918",
"$  c #321B11",
"%  c #2D201C",
"&  c #352217",
"*  c #060523",
"=  c #02012A",
"-  c #1B1923",
";  c #060437",
":  c #140F36",
">  c #151534",
",  c #1C1A36",
"<  c #2B2324",
"1  c #392A26",
"2  c #322E2C",
"3  c #33312E",
"4  c #3A332E",
"5  c #2D2933",
"6  c #22213D",
"7  c #372D33",
"8  c #332F3D",
"9  c #333431",
"0  c #3C373A",
"q  c #472A15",
"w  c #532E19",
"e  c #493A2F",
"r  c #443636",
"t  c #503930",
"y  c #55402F",
"u  c #784B2D",
"i  c #6B4639",
"p  c #774A34",
"a  c #0C0845",
"s  c #100D48",
"d  c #1C1B4B",
"f  c #060457",
"g  c #0A0754",
"h  c #070459",
"j  c #09065B",
"k  c #0D095C",
"l  c #120E5C",
"z  c #17155B",
"x  c #251D4B",
"c  c #221859",
"v  c #36244C",
"b  c #302B4E",
"n  c #393548",
"m  c #3B2759",
"M  c #0A0763",
"N  c #0D0964",
"B  c #0D096C",
"V  c #120C65",
"C  c #120C6A",
"Z  c #191468",
"A  c #0E0A73",
"S  c #120C74",
"D  c #180D73",
"F  c #140D79",
"G  c #1A1276",
"H  c #261C64",
"J  c #241D6B",
"K  c #231878",
"L  c #2A256A",
"P  c #2A226C",
"I  c #362868",
"U  c #2B2273",
"Y  c #2D2477",
"T  c #362978",
"R  c #3E387E",
"E  c #443E47",
"W  c #423A57",
"Q  c #4A3873",
"!  c #434049",
"~  c #4A4149",
"^  c #4D4C4C",
"/  c #4A4A5B",
"(  c #535252",
")  c #5A5A5A",
"_  c #6E544D",
"`  c #5C5C62",
"'  c #4E4A76",
"]  c #774C6B",
"[  c #605E66",
"{  c #685E60",
"}  c #66656B",
"|  c #6C6C6E",
" . c #726F6E",
".. c #6E6D75",
"X. c #79787C",
"o. c #824A3F",
"O. c #8D5330",
"+. c #AA5C2A",
"@. c #B15E28",
"#. c #A45D34",
"$. c #8F603F",
"%. c #AA602E",
"&. c #BC6429",
"*. c #B56A38",
"=. c #C86826",
"-. c #D56D27",
";. c #CE7031",
":. c #EB7625",
">. c #E77628",
",. c #F57A26",
"<. c #F97C26",
"1. c #E57B37",
"2. c #F37C33",
"3. c #834E43",
"4. c #835244",
"5. c #85554D",
"6. c #945E49",
"7. c #885B53",
"8. c #96624A",
"9. c #9B634B",
"0. c #8B655F",
"q. c #956964",
"w. c #AF7374",
"e. c #F1803C",
"r. c #B38776",
"t. c #EC894C",
"y. c #D48B6A",
"u. c #F49E62",
"i. c #210F86",
"p. c #220F88",
"a. c #241386",
"s. c #281A87",
"d. c #25128A",
"f. c #29158D",
"g. c #2C1B8D",
"h. c #2C1692",
"j. c #2E1994",
"k. c #311B95",
"l. c #341D9A",
"z. c #3A2B85",
"x. c #312C8F",
"c. c #352896",
"v. c #3B229D",
"b. c #3C29A1",
"n. c #452A85",
"m. c #442D8C",
"M. c #512D8C",
"N. c #45328A",
"B. c #55358C",
"V. c #472E95",
"C. c #532E91",
"Z. c #4A3493",
"A. c #593597",
"S. c #623A95",
"D. c #4329A5",
"F. c #4C27AF",
"G. c #4C2BAE",
"H. c #4835A8",
"J. c #5133AD",
"K. c #4E2AB0",
"L. c #522DB3",
"P. c #5F29B2",
"I. c #5433B5",
"U. c #5A32B5",
"Y. c #5839B7",
"T. c #5936B9",
"R. c #5C3BBA",
"E. c #622CB4",
"W. c #6532B4",
"Q. c #663CB6",
"!. c #6435B9",
"~. c #6A35B9",
"^. c #6D3ABD",
"/. c #713CBE",
"(. c #56488B",
"). c #624F91",
"_. c #6E698E",
"`. c #7B7988",
"'. c #514AAF",
"]. c #6D45B3",
"[. c #6342BC",
"{. c #7349B8",
"}. c #6953B9",
"|. c #7757B2",
" X c #596EB2",
".X c #7669A7",
"XX c #7D63B1",
"oX c #6F3FC0",
"OX c #723FC0",
"+X c #6741C1",
"@X c #7441C1",
"#X c #7B49C4",
"$X c #7353C1",
"%X c #807E9D",
"&X c #A47D8C",
"*X c #854FAF",
"=X c #897AAF",
"-X c #826DB0",
";X c #8877B2",
":X c #8656C6",
">X c #8F61CB",
",X c #6682BD",
"<X c #818185",
"1X c #87868B",
"2X c #95888B",
"3X c #8D8C93",
"4X c #949296",
"5X c #9A9499",
"6X c #9A999E",
"7X c #B0938C",
"8X c #A6999A",
"9X c #A19A9D",
"0X c #B5A09C",
"qX c #9389AD",
"wX c #9C9BA2",
"eX c #9A96A9",
"rX c #9B94AE",
"tX c #958CB1",
"yX c #A19FA4",
"uX c #A19DAC",
"iX c #A6A3A7",
"pX c #A7A6AB",
"aX c #C2998B",
"sX c #D8B4A1",
"dX c #ECC6B3",
/* pixels */
"pXpXpXpXpXpXpXpXpXpXpXpXpXpXpXpXpXpXpXpXpXpXpXpXpXpXpXpXpXpXpXpXpXpXpXpXpXpXpXpXpXpXpXpXpXpXpXpXpXpXpXpXpXpXpXpXpXpXpXpXpXpXpXpX",
"pXpXpXpXpXpXpXpXpXpXpXpXpXpXpXpXpXpXpXpXpXpXpXpXpXpXpXpXpXpXpXiXwX8XiXpXpXpXpXpXpXpXpXpXpXpXpXpXpXpXpXpXpXpXpXpXpXpXpXpXpXpXpXpX",
"pXpXpXpXpXpXpXpXpXpXpXpXpXpXpXpXpXpXpXpXpXpXpXpXpXpXpXpXpXpX2X7.7.3.0.6XpXpXpXpXpXpXpXpXpXpXpXpXpXpXpXpXpXpXpXpXpXpXpXpXpXpXpXpX",
"pXpXpXpXpXpXpXpXpXpXpXpXpXpXpXpXpXpXpXpXpXpXpXpXpXpXpXpXpXpXq.p o.o.o.0.8XpXpXpXpXpXpXpXpXpXpXpXpXpXpXpXpXpXpXpXpXpXpXpXpXpXpXpX",
"pXpXpXpXpXpXpXpXpXpXpXpXpXpXpXpXpXpXpXpXpXpXpXpXpXpXpXpXpXpXw._ o.o.o.o.5.8XiXpXpXpXpXpXpXpXpXpXpXpXpXpXpXpXpXpXpXpXpXpXpXpXpXpX",
"pXpXpXpXpXpXpXpXpXpXpXpXpXpXpXpXpXpXpXpXpXpXpXpXpXpXpXpXpXpX2Xo.o.o.o.o.3.4XpXpXpXpXpXpXpXpXpXpXpXpXpXpXpXpXpXpXpXpXpXpXpXpXpXpX",
"pXpXpXpXpXpXpXpXpXpXpXpXpXpXpXpXpXpXpXpXpXpXpXpXpXpXpXpXpXpX8X4.o.o.o.o.5.5XpXpXpXpXpXpXpXpXpXpXpXpXpXpXpXpXpXpXpXpXpXpXpXpXpXpX",
"pXpXpXpXpXpXpXpXpXpXpXpXpXpXpXpXpXpXpXpXpXpXpXpXpXpXpXpXpXpX9X5.o.o.o.o.5.9XpXpXpXpXpXpXpXpXpXpXpXpXpXpXpXpXpXpXpXpXpXpXpXpXpXpX",
"pXpXpXpXpXpXpXpXpXpXpXpXpXpXpXpXpXpXpXpXpXpXpXpXpXpXpXpXpXpX8X5.o.o.o.o.5.8XiXpXpXpXpXpXpXpXpXpXpXpXpXpXpXpXpXpXpXpXpXpXpXpXpXpX",
"pXpXpXpXpXpXpXpXpXpXpXpXpXpXpXpXpXpXpXpXpXpXpXpXpXpXpXpXpXpX5X4.o.o.o.o.3.5XpXpXpXpXpXpXpXpXpXpXpXpXpXpXpXpXpXpXpXpXpXpXpXpXpXpX",
"pXpXpXpXpXpXpXpXpXpXpXpXpXpXpXpXpXpXpXpXpXpXpXpXpXpXpXpXpXpX8X5.o.o.o.o.7.wXpXpXpXpXpXpXpXpXpXpXpXpXpXpXpXpXpXpXpXpXpXpXpXpXpXpX",
"pXpXpXpXpXpXpXpXpXpXpXpXpXpXpXpXpXpXpXpXpXwX6X6X5XwX5X5X6X6X2X5.o.o.o.o.7.4XwX5X6X6XwX5X6X6XiXpXpXpXpXpXpXpXpXpXpXpXpXpXpXpXpXpX",
"pXpXpXpXpXpXpXpXpXpXpXpXpXpXpXpXpXpXpXpXpX} ! n E E E E ! ! ~ _ o.o.o.o.i E E E E E n ! ! ! 1XiXpXpXpXpXpXpXpXpXpXpXpXpXpXpXpXpX",
"pXpXpXpXpXpXpXpXpXpXpXpXpXpXpXpXpXpXpXpXpX` 8 8 n 8 8 8 8 8 9 E 4.3.o.$.r 7 8 8 8 n 8 5 5 5 <XiXpXpXpXpXpXpXpXpXpXpXpXpXpXpXpXpX",
"pXpXpXpXpXpXpXpXpXpXpXpXpXpXpXpXpXpXpXpXpX` 8 8 8 8 n 8 8 8 9 0 w.r.r.r.n 7 8 8 8 8 5 5 5 5 ,XyXpXpXpXpXpXpXpXpXpXpXpXpXpXpXpXpX",
"pXpXpXpXpXpXpXpXpXpXpXpXpXpXpXpXpXpXpXpXpX[ 8 8 n 8 8 8 8 8 n ( sXdXdXsX{ 0 8 8 5 5 5 5 5 5 r.6XpXpXpXpXpXpXpXpXpXpXpXpXpXpXpXpX",
"pXpXpXpXpXpXpXpXpXpXpXpXpXpXpXpXpXpXpXpXpX} 9 8 8 8 0 i i #.@.e.e.u.u.u.t.=.%.u 4 5 5 5 2 2 <XpXpXpXpXpXpXpXpXpXpXpXpXpXpXpXpXpX",
"pXpXpXpXpXpXpXpXpXpXpXpXpXpXpXpXpXpXpXpXpX} 8 8 9 e #.>.,.,.<.<.e.e.e.e.,.<.<.<.-.O.9 5 5 3 <XiXpXpXpXpXpXpXpXpXpXpXpXpXpXpXpXpX",
"pXpXpXpXpXpXpXpXpXpXpXpXpXpXpXpXpXpXpXpXiX` 8 8 2 y e.e.,.e.<.<.e.e.<.<.e.<.e.<.<.,.#.2 5 5 <XiXpXpXpXpXpXpXpXpXpXpXpXpXpXpXpXpX",
"pXpXpXpXpXpXpXpXpXpXpXpXpXpXpXpXpXpXpXpXpX} 8 8 & +.e.e.-.&.=.=.-.,.:.:.-.=.&.&.-.,.>.4 5 5 <XiXpXpXpXpXpXpXpXpXpXpXpXpXpXpXpXpX",
"pXpXpXpXpXpXpXpXpXpXpXpXpXpXpXpXpXpXpXpXiX[ 8 8 q e.e.+.y 9 9 9 q y y y e 9 9 4 t +.,.u 5 5 X.iXpXpXpXpXpXpXpXpXpXpXpXpXpXpXpXpX",
"pXpXpXpXpXpXpXpXpXpXpXpXpXpXpXpXpXpXpXpXiX` 8 n u e.@.q 9 9 9 9 1 4 9 9 9 9 9 9 9 e =.%.2 2 ,X0XpXpXpXpXpXpXpXpXpXpXpXpXpXpXpXpX",
"pXpXpXpXpXpXpXpXpXpXpXpXpXpXpXpXpXpXpXpXiX[ 8 8 O.e.u 9 9 9 9 9 9 9 9 9 9 9 9 9 9 9 O.-.9 9 <XpXpXpXpXpXpXpXpXpXpXpXpXpXpXpXpXpX",
"pXpXpXpXpXpXpXpXpXpXpXpXpXpXpXpXpXpXpXpXpX[ 8 7 =.e.u 9 9 9 9 9 9 9 9 9 9 9 9 9 9 3 u >.y 9 <XpXpXpXpXpXpXpXpXpXpXpXpXpXpXpXpXpX",
"pXpXpXpXpXpXpXpXpXpXpXpXpXpXpXpXpXpXpXpXiX| 0 r ;.<.u 9 9 9 9 9 9 9 9 9 9 9 9 9 9 9 u e.u 4 <XpXpXpXpXpXpXpXpXpXpXpXpXpXpXpXpXpX",
"pXpXpXpXpXpXpXpXpXpXpXpXpXpXpXpXpXpXpXpXpX9X4X7X>.<.u 9 9 9 9 9 9 9 9 9 9 9 9 9 9 9 u e.r.r.pXpXpXpXpXpXpXpXpXpXpXpXpXpXpXpXpXpX",
"pXpXpXpXpXpXpXpXpXpXpXpXpXpXpXpXpXpXpXpXpXpXiXaXe.e.u 9 9 9 9 9 9 1 & 1 9 9 9 9 3 9 u e.t.pXpXpXpXpXpXpXpXpXpXpXpXpXpXpXpXpXpXpX",
"pXpXpXpXpXpXpXpXpXpXpXpXpXpXpXpXpXpXpXpXpXpXiXy.e.e.4.9 9 9 9 9 3 o o $ 9 9 9 9 3 q u e.e.r.pXpXpXpXpXpXpXpXpXpXpXpXpXpXpXpXpXpX",
"pXpXpXpXpXpXpXpXpXpXpXpXpXpXpXpXpXpXpXpXpXpX0Xt.<.e.r.3 2 3 9 9 2 $ # $ 9 9 9 9 9 ^ *.e.e.y.pXpXpXpXpXpXpXpXpXpXpXpXpXpXpXpXpXpX",
"pXpXpXpXpXpXpXpXpXpXpXpXpXpXpXpXpXpXpXpXpXpXaXe.<.<.:.u 3 3 & & 3 @ o $ 4 9 9 9 9 | yXt.e.u.pXpXpXpXpXpXpXpXpXpXpXpXpXpXpXpXpXpX",
"pXpXpXpXpXpXpXpXpXpXpXpXpXpXpXpXiXpXiXiXiXiX9Xe.<.e.e.:.%.u u +.@.& . & &.&.O.i X.6X6Xr.e.r.pXpXiXpXpXpXpXpXpXpXpXpXpXpXpXpXpXpX",
"pXpXpXpXpXpXpXpXpXpXpXpXpXpXpXX...| | | | | } _ &.:.<.<.e.e.e.e.e.q . & e.e.e.$.) | ) ) _  .X.X.X.X. .,Xr.pXpXpXpXpXpXpXpXpXpXpX",
"pXpXpXpXpXpXpXpXpXpXpXpXpXpX4X( ( ( ( ( ( ( ( ( ^ _ $.:.,.1.<.<.:.&   q e.e.<.&.) ) ) ) ) ) ) ) ) ) ) ( ) 5XpXpXpXpXpXpXpXpXpXpX",
"pXpXpXpXpXpXpXpXpXpXpXpXpXpX6X0 0 ^ ^ ^ ^ ^ (  .( ^ ^ _ *.1.<.<.e.q . w ,.e.e.=.( ^ ^ ( | ^ ^ ^ ^ ^ ^ 0 ^ wXpXpXpXpXpXpXpXpXpXpX",
"pXpXpXpXpXpXpXpXpXpXpXpXpXpXiX| X.6X6X6X6XwX6XyXeX3X=X%X&X2.<.<.:.q   q :.<.e.e.4X3X2X4X9X3X3X2X3X4X4X}  .iXpXpXpXpXpXpXpXpXpXpX",
"pXpXpXpXpXpXpXpXpXpXpXpXpXpXpXX.1XpXuXrX=X-X|.].Q.!.E.P.*X2.<.<.:.q   & :.<.,.w.].{.-X;XtXuXuXpXpXpXpX<X1XpXpXpXpXpXpXpXpXpXpXpX",
"pXpXpXpXpXpXpXpXpXpXpXpXpXiXuX`._.|.Q.W.P.P.P.E.P.P.E.E.S.O.=.=.-.q o # &.=.@._ W.W.~./.^.].{.-XqXyXiX<X1XpXpXpXpXpXpXpXpXpXpXpX",
"pXpXpXpXpXpXpXpXpXpXpXpXeX=X].B.M.E.P.P.E.E.E.E.W.~.^.^.Q O + # & .   . . $ # - A./.{.:X{.~.E.E.W.].-X_.1XpXpXpXpXpXpXpXpXpXpXpX",
"pXpXpXpXpXpXpXpXiXiXqXXXW.P.P.M.C.E.W.W.~.~.~.~././.].(.n < < < < . X o < < # < W B.>X>X>X{.W.E.E.E.E.M.(.;XuXyXpXpXpXpXpXpXpXpX",
"pXpXpXpXpXpXpXpXqX|.W.P.P.E.E.M.A.~.~.~.~.^./././.{.' 4 9 9 9 9 4 % # # 9 9 9 9 4 4 ).>X:X#XoX~.!.W.E.M.C.E.Q.;XuXpXpXpXpXpXpXpX",
"pXpXpXpXpXpXrXXXE.P.E.E.E.~.~.M.A./.OXOXOXOX@X@X{.{.W 9 9 9 3 3 9 9 3 9 7 9 9 9 9 9 Q :X#X#X@XOXOX~.~.C.C.E.E.E.{.qXpXpXpXpXpXpX",
"pXpXpXpXpXqX].P.E.E.E.E.~.~./.B.S.OXOXoX^.!.U.I.I.I.Z.n 8 2 2 2 3 2 2 3 2 2 2 2 2 n Z.~.oX@XOX@XOXOXOXA.A.~.E.E.E.W.-XuXpXpXpXpX",
"pXpXpXpXqXQ.P.P.E.E.~.~.OXOXOXA.A.!.L.K.K.L.I.I.I.I.I.J.z.+ + + .   X o m - o o - T G.K.K.L.I.R.oXOXOXA.A.OXW.W.W.E.E.XXuXpXpXpX",
"pXpXpXqXW.P.E.E.~.~.oXoXOXoX!.m.V.K.L.L.L.L.T.[.[.Y.T.I.J., o o       : T > o O , V.I.K.K.F.K.F.F.P.oXS.A.OXoX~.W.W.E.E.XXuXpXpX",
"pXiXeXQ.P.E.E.~.~.oXOXoXU.K.K.m.V.K.K.K.L.I.R.R.[.R.R.T.I.c O O o o @ z.Z.- O O x J.Y.I.J.K.K.K.F.F.F.V.C.oXoXoX~.~.W.E.E.;XiXpX",
"pXuX-XE.P.E.~.~.oXoXU.K.K.K.L.m.V.I.Y.Y.I.I.J.G.b.v.k.h.f.H O O o @ < I Y - O O I Q.}.[.Y.I.L.L.K.K.F.n.m.L.!.OXOXoX~.E.E.].rXpX",
"pXuXQ.E.W.~.~.oX!.L.K.K.L.L.I.N.Z.L.D.v.j.f.a.s.g.s.d.d.i.K O O o @ @ L Z O O O J c.D.I.Y.Y.I.I.U.L.K.m.m.F.F.U.oXOXoX~.E.E.-XpX",
"pX=XE.~.~.~.^.U.K.K.L.I.I.T.T.z.Y f.p.i.i.d.g.x.x.c.g.d.d.K > O O @ - L Z O O - K p.a.a.j.b.K.I.T.U.L.V.V.K.K.K.P.~.oX^.~.P.|.pX",
"pXqXW.~./.^.U.G.L.I.U.T.T.D.j.J J d.d.p.d.f.x.'. XH.x.s.h.h.v 1 t 1 - I Q r 1 : d.d.d.p.i.i.p.l.G.T.I.Z.V.I.Y.Y.I.U././.~.E.].pX",
"pX=XW.~.^.!.L.L.I.T.R.G.j.p.i.P J d.f.f.f.k.c. X,X'.c.c.j.k.] 6.9.i # T 5.9.6.] h.h.d.d.p.i.i.p.p.l.G.Z.Z.R.R.$X[.I.L.^.^.~.].pX",
"pXqX~.~.~.I.I.I.T.T.D.d.i.a.f.P Y k.k.h.l.l.b.H.'.'.b.l.l.l.S.9.9.p # T 0.7.9.0.l.j.h.h.h.d.d.p.i.i.f.z.Z.R.[.$X].I.G.!./.~.|.pX",
"pXuX{.~.U.K.T.R.R.b.d.i.a.d.j.T z.b.l.l.l.l.c.j.s.K G A C N W 9.9.e   x 7.9.9.B.l.l.l.j.h.h.h.d.a.i.i.P z.R.R.[.R.I.F.K././.=XpX",
"pXiX;X^.P.I.R.R.v.i.d.d.f.h.l.T z.D.c.a.G B k j k h j h h h z 7.6.&   + 8.9.8.W B G f.l.c.l.j.h.f.d.f.P J G.[.[.Y.L.G.G.!.{.uXpX",
"pXpXuX|.L.Y.R.G.d.p.d.f.h.l.l.T T G V f g h h j h h k k N k N _ 6.$ * : r o.3.c h f k Z s.c.c.l.h.f.f.P P f.I.R.R.I.K.G.Q.qXpXpX",
"pXpXpXuX}.T.R.k.d.d.f.h.l.l.g.c d k h h h j j M N N N B C Z Z 5 w $ a V x # - d j j V J L L s.g.l.h.h.U J i.v.+XR.T.L.I.;XpXpXpX",
"pXpXpXpXrX}.I.d.d.f.h.h.h.D g x d j h j M N N B B B G Z Z Z S L v v l C H v x d z l Z L ).(.J C G l.h.K U d.f.Q.oXR.Y.;XiXpXpXpX",
"pXpXpXpXpXuX_.T d.f.h.f.B f f d d j M M B B S F G l s Z D A A F D Z s D S S D B C z : L (.R Z l j D j.Y Y p.d.[.+X$XtXpXpXpXpXpX",
"pXpXpXpXpXpXiX,XZ.h.f.B f f f z z M M B A F S B j a * ; ; ; ; ; ; ; * g N A S F A C s Z J Z z k h g G g.g.d.f.'.XXrXpXpXpXpXpXpX",
"pXpXpXpXpXpXpXpXeX.X' k h h f l z B S A A g ; = = = = = = = = = = = * = = ; a B S S S C C N k h f f h G j.x.'.rXpXpXpXpXpXpXpXpX",
"pXpXpXpXpXpXpXpXpXpXwX`.' z h k Z S F k ; = = = = = = = = = = = = = = = = = = ; g F S A B M j j h f k U _.qXpXpXpXpXpXpXpXpXpXpX",
"pXpXpXpXpXpXpXpXpXpXpXpXyX3X_.R U S B ; = = = = = = = = = = = = = = = = = = = = = j F A M M j z L ' ,X7XpXpXpXpXpXpXpXpXpXpXpXpX",
"pXpXpXpXpXpXpXpXpXpXpXpXpXpXiXyXqX`.' ! 6 > = = = = = = = = = = = = = = = = = = = ; F K Y ' _.1XwXiXiXiXpXpXpXpXpXpXpXpXpXpXpXpX",
"pXpXpXpXpXpXpXpXpXpXpXpXpXpXpXpXpXpXpXyX4X1X`.[ / ! b 6 , , > > > > > 6 6 b n / ) ..,X6XuXuXpXpXpXpXpXpXpXpXpXpXpXpXpXpXpXpXpXpX",
"pXpXpXpXpXpXpXpXpXpXpXpXpXpXpXpXpXpXpXpXpXpXpXpXiXiXyXyXwX6X6X6X4X6X4X6X6XwXyXyXpXiXiXpXpXpXpXpXpXpXpXpXpXpXpXpXpXpXpXpXpXpXpXpX"
};
