/* XPM */
static char *__WallB_BHB1721365575[] = {
/* columns rows colors chars-per-pixel */
"64 64 230 2 ",
"   c #040305",
".  c #0B0C0C",
"X  c #130C0C",
"o  c #0E0E10",
"O  c #151210",
"+  c #121316",
"@  c #191315",
"#  c #14151B",
"$  c #1E1818",
"%  c #271917",
"&  c #331A14",
"*  c #34221A",
"=  c #080725",
"-  c #02012A",
";  c #1D1B25",
":  c #040235",
">  c #090739",
",  c #151535",
"<  c #1B1938",
"1  c #231B2E",
"2  c #2A2222",
"3  c #2F2D2B",
"4  c #352B28",
"5  c #31322F",
"6  c #3A342E",
"7  c #2B2731",
"8  c #2A2737",
"9  c #342B35",
"0  c #312D3B",
"q  c #383638",
"w  c #482917",
"e  c #522F17",
"r  c #523017",
"t  c #663718",
"y  c #4A382D",
"u  c #533E2D",
"i  c #473636",
"p  c #523731",
"a  c #59402C",
"s  c #5F4037",
"d  c #69432B",
"f  c #75482B",
"g  c #6A4838",
"h  c #7B4B37",
"j  c #7C473C",
"k  c #0C084A",
"l  c #110F4C",
"z  c #1A184B",
"x  c #060457",
"c  c #0A0754",
"v  c #070459",
"b  c #09065C",
"n  c #0D0A5C",
"m  c #110E53",
"M  c #110E5D",
"N  c #171458",
"B  c #261A46",
"V  c #311E4C",
"C  c #261B55",
"Z  c #272645",
"A  c #342A4E",
"S  c #3C3A42",
"D  c #373549",
"F  c #0A0663",
"G  c #0D0964",
"H  c #0D096C",
"J  c #120C65",
"K  c #130C6B",
"L  c #180F6F",
"P  c #1A1568",
"I  c #0E0A73",
"U  c #120C73",
"Y  c #180D73",
"T  c #140D79",
"R  c #1A1376",
"E  c #231C6A",
"W  c #271B76",
"Q  c #2B256B",
"!  c #2B2375",
"~  c #392D73",
"^  c #37297A",
"/  c #413E47",
"(  c #413E48",
")  c #4E3455",
"_  c #6E3C5F",
"`  c #4E3675",
"'  c #423779",
"]  c #49444B",
"[  c #4B4B4C",
"{  c #4A495A",
"}  c #545455",
"|  c #5B5B5C",
" . c #6E4F49",
".. c #7A4C44",
"X. c #645B55",
"o. c #4F4E73",
"O. c #636267",
"+. c #6B6B6D",
"@. c #6E6D74",
"#. c #747376",
"$. c #76767A",
"%. c #8B4F2F",
"&. c #98552A",
"*. c #A95B2A",
"=. c #B35E25",
"-. c #B86227",
";. c #A86335",
":. c #C66726",
">. c #D86E27",
",. c #DB7229",
"<. c #D07237",
"1. c #E47325",
"2. c #ED7625",
"3. c #E7762A",
"4. c #E77B37",
"5. c #87574A",
"6. c #935E47",
"7. c #875A58",
"8. c #956049",
"9. c #8C6558",
"0. c #886662",
"q. c #896A66",
"w. c #8E756D",
"e. c #B5716F",
"r. c #D57746",
"t. c #CC7A51",
"y. c #E37C43",
"u. c #B28675",
"i. c #E89053",
"p. c #D28C6C",
"a. c #E59561",
"s. c #210F86",
"d. c #220F88",
"f. c #231186",
"g. c #291B85",
"h. c #25128A",
"j. c #29158E",
"k. c #2C1B8D",
"l. c #311F8F",
"z. c #2C1692",
"x. c #2E1993",
"c. c #311B95",
"v. c #331C9A",
"b. c #381F9B",
"n. c #362487",
"m. c #312C8F",
"M. c #362796",
"N. c #3B229D",
"B. c #3B2BA1",
"V. c #462C8B",
"C. c #49318C",
"Z. c #53308B",
"A. c #472C97",
"S. c #562D98",
"D. c #4B3497",
"F. c #5C3898",
"G. c #4228A4",
"H. c #4C27AF",
"J. c #4C2AAD",
"K. c #4934A6",
"L. c #5734A7",
"P. c #4E2AB0",
"I. c #522DB2",
"U. c #5F29B2",
"Y. c #5432B5",
"T. c #5A33B5",
"R. c #5838B7",
"E. c #5936B9",
"W. c #5C3BBA",
"Q. c #6438A4",
"!. c #622CB4",
"~. c #6532B4",
"^. c #663CB6",
"/. c #6434B9",
"(. c #6A35BA",
"). c #6D3ABD",
"_. c #713CBE",
"`. c #514A8D",
"'. c #64548E",
"]. c #716F8F",
"[. c #494EA9",
"{. c #5C42B9",
"}. c #7149A9",
"|. c #6C46B2",
" X c #6342BC",
".X c #714CB2",
"XX c #7544BC",
"oX c #6953B9",
"OX c #7756B4",
"+X c #596EB2",
"@X c #7669A7",
"#X c #7D63B1",
"$X c #6F3FC0",
"%X c #723FC0",
"&X c #6741C1",
"*X c #7341C1",
"=X c #784AC3",
"-X c #7353C1",
";X c #807E95",
":X c #897AAD",
">X c #826DB0",
",X c #8877B2",
"<X c #8556C6",
"1X c #8F61CB",
"2X c #6682BD",
"3X c #86858A",
"4X c #88878C",
"5X c #988A8E",
"6X c #8C8A93",
"7X c #959296",
"8X c #96959B",
"9X c #98979C",
"0X c #9A999E",
"qX c #A29A9D",
"wX c #B89A92",
"eX c #8C81A6",
"rX c #9288AC",
"tX c #948AAE",
"yX c #9492A1",
"uX c #9C9BA2",
"iX c #9B94AD",
"pX c #9E99AC",
"aX c #958CB1",
"sX c #A29FA4",
"dX c #A19DAD",
"fX c #A3A2A6",
"gX c #ABA4A7",
"hX c #A7A6AB",
"jX c #B0A0A0",
"kX c #D1AD9C",
/* pixels */
"hXhXhXhXhXhXhXhXhXhXhXhXhXhXhXhXhXhXhXhXhXhXhXhXhXhXhXhXhXhXhXhXhXhXhXhXhXhXhXhXhXhXhXhXhXhXhXhXhXhXhXhXhXhXhXhXhXhXhXhXhXhXhXhX",
"hXhXhXhXhXhXhXhXhXhXhXhXhXhXhXhXhXhXhXhXhXhXhXhXhXhXhXhXhXhXhXsXqXqXdXhXhXhXhXhXhXhXhXhXhXhXhXhXhXhXhXhXhXhXhXhXhXhXhXhXhXhXhXhX",
"hXhXhXhXhXhXhXhXhXhXhXhXhXhXhXhXhXhXhXhXhXhXhXhXhXhXhXhXhXhXqX0.5...0.sXhXhXhXhXhXhXhXhXhXhXhXhXhXhXhXhXhXhXhXhXhXhXhXhXhXhXhXhX",
"hXhXhXhXhXhXhXhXhXhXhXhXhXhXhXhXhXhXhXhXhXhXhXhXhXhXhXhXhXhX7X..j j j q.sXhXhXhXhXhXhXhXhXhXhXhXhXhXhXhXhXhXhXhXhXhXhXhXhXhXhXhX",
"hXhXhXhXhXhXhXhXhXhXhXhXhXhXhXhXhXhXhXhXhXhXhXhXhXhXhXhXhXhX0X5.j j j j 0.fXhXhXhXhXhXhXhXhXhXhXhXhXhXhXhXhXhXhXhXhXhXhXhXhXhXhX",
"hXhXhXhXhXhXhXhXhXhXhXhXhXhXhXhXhXhXhXhXhXhXhXhXhXhXhXhXhXhXsX..j j j j 7.fXhXhXhXhXhXhXhXhXhXhXhXhXhXhXhXhXhXhXhXhXhXhXhXhXhXhX",
"hXhXhXhXhXhXhXhXhXhXhXhXhXhXhXhXhXhXhXhXhXhXhXhXhXhXhXhXhXhXhX9.j j j j 0.gXhXhXhXhXhXhXhXhXhXhXhXhXhXhXhXhXhXhXhXhXhXhXhXhXhXhX",
"hXhXhXhXhXhXhXhXhXhXhXhXhXhXhXhXhXhXhXhXhXhXhXhXhXhXhXhXhXhXfX0.j j j j q.fXhXhXhXhXhXhXhXhXhXhXhXhXhXhXhXhXhXhXhXhXhXhXhXhXhXhX",
"hXhXhXhXhXhXhXhXhXhXhXhXhXhXhXhXhXhXhXhXhXhXhXhXhXhXhXhXhXhXgX0.j j j j 0.hXhXhXhXhXhXhXhXhXhXhXhXhXhXhXhXhXhXhXhXhXhXhXhXhXhXhX",
"hXhXhXhXhXhXhXhXhXhXhXhXhXhXhXhXhXhXhXhXhXhXhXhXhXhXhXhXhXhXfX7.j j j j 7.dXhXhXhXhXhXhXhXhXhXhXhXhXhXhXhXhXhXhXhXhXhXhXhXhXhXhX",
"hXhXhXhXhXhXhXhXhXhXhXhXhXhXhXhXhXhXhXhXhXhXhXhXhXhXhXhXhXhXdX0.j j j j q.hXhXhXhXhXhXhXhXhXhXhXhXhXhXhXhXhXhXhXhXhXhXhXhXhXhXhX",
"hXhXhXhXhXhXhXhXhXhXhXhXhXhXhXhXhXhXhXhXhXhXfX9X0X0X9X0X0X9X8X0.j j j j q.9X9X9X0X0X0X0XuXhXhXhXhXhXhXhXhXhXhXhXhXhXhXhXhXhXhXhX",
"hXhXhXhXhXhXhXhXhXhXhXhXhXhXhXhXhXhXhXhXhXhX4X( / / / / ( ( (  .j j ..j p ] / / ] S ] S [ uXhXhXhXhXhXhXhXhXhXhXhXhXhXhXhXhXhXhX",
"hXhXhXhXhXhXhXhXhXhXhXhXhXhXhXhXhXhXhXhXhXhX3X0 0 0 0 0 0 0 9 0 ..j %.h 0 0 0 0 0 0 0 7 S 9XhXhXhXhXhXhXhXhXhXhXhXhXhXhXhXhXhXhX",
"hXhXhXhXhXhXhXhXhXhXhXhXhXhXhXhXhXhXhXhXhXhX3X0 0 0 0 0 0 0 0 0 q.u.u.w.9 0 0 0 8 7 7 7 S 9XhXhXhXhXhXhXhXhXhXhXhXhXhXhXhXhXhXhX",
"hXhXhXhXhXhXhXhXhXhXhXhXhXhXhXhXhXhXhXhXhXhX3X0 0 0 0 0 0 0 0 ] wXkXkXkX[ 0 0 7 7 7 7 7 S 9XhXhXhXhXhXhXhXhXhXhXhXhXhXhXhXhXhXhX",
"hXhXhXhXhXhXhXhXhXhXhXhXhXhXhXhXhXhXhXhXhXhX7Xq 0 0 0 i d %.;.<.i.a.a.i.r.*.%.i 7 7 7 7 S 9XhXhXhXhXhXhXhXhXhXhXhXhXhXhXhXhXhXhX",
"hXhXhXhXhXhXhXhXhXhXhXhXhXhXhXhXhXhXhXhXhXhX6Xq 0 0 q *.1.1.2.2.2.2.2.2.2.2.2.>.&.6 7 7 S 9XhXhXhXhXhXhXhXhXhXhXhXhXhXhXhXhXhXhX",
"hXhXhXhXhXhXhXhXhXhXhXhXhXhXhXhXhXhXhXhXhXhX4X0 0 0 h 2.2.2.2.2.2.2.2.2.2.2.2.2.2.*.7 7 S 9XhXhXhXhXhXhXhXhXhXhXhXhXhXhXhXhXhXhX",
"hXhXhXhXhXhXhXhXhXhXhXhXhXhXhXhXhXhXhXhXhXhX4X0 0 q ;.2.,.=.=.:.:.3.,.,.:.-.=.:.3.>.y 3 S 9XhXhXhXhXhXhXhXhXhXhXhXhXhXhXhXhXhXhX",
"hXhXhXhXhXhXhXhXhXhXhXhXhXhXhXhXhXhXhXhXhXhX4X0 0 i >.>.f 6 5 6 6 a a a 6 6 5 6 %.1.f 7 S 9XhXhXhXhXhXhXhXhXhXhXhXhXhXhXhXhXhXhX",
"hXhXhXhXhXhXhXhXhXhXhXhXhXhXhXhXhXhXhXhXhXhX4X0 0 g 1.&.5 5 5 5 5 5 5 5 5 5 5 5 5 -.&.7 S 9XhXhXhXhXhXhXhXhXhXhXhXhXhXhXhXhXhXhX",
"hXhXhXhXhXhXhXhXhXhXhXhXhXhXhXhXhXhXhXhXhXhX4X0 0 %.,.d 5 5 5 5 5 5 5 5 5 5 5 5 5 f -.4 S 9XhXhXhXhXhXhXhXhXhXhXhXhXhXhXhXhXhXhX",
"hXhXhXhXhXhXhXhXhXhXhXhXhXhXhXhXhXhXhXhXhXhX4X0 q *.1.a 5 5 5 5 5 5 5 5 5 5 5 5 5 d >.i S 9XhXhXhXhXhXhXhXhXhXhXhXhXhXhXhXhXhXhX",
"hXhXhXhXhXhXhXhXhXhXhXhXhXhXhXhXhXhXhXhXhXhX4XS i :.,.a 5 5 5 5 5 5 5 5 5 5 5 5 5 d ,.g [ 0XhXhXhXhXhXhXhXhXhXhXhXhXhXhXhXhXhXhX",
"hXhXhXhXhXhXhXhXhXhXhXhXhXhXhXhXhXhXhXhXhXhXfX7X5X4.1.a 5 5 5 5 5 5 5 5 5 5 5 5 5 d 2.u.8XfXhXhXhXhXhXhXhXhXhXhXhXhXhXhXhXhXhXhX",
"hXhXhXhXhXhXhXhXhXhXhXhXhXhXhXhXhXhXhXhXhXhXhXhXwX4.1.a 5 5 5 5 5 3 3 4 5 5 5 5 5 f 3.a.hXhXhXhXhXhXhXhXhXhXhXhXhXhXhXhXhXhXhXhX",
"hXhXhXhXhXhXhXhXhXhXhXhXhXhXhXhXhXhXhXhXhXhXhXhXp.2.4.s 5 5 5 5 5 + X % 5 5 5 5 5 d 3.y.fXhXhXhXhXhXhXhXhXhXhXhXhXhXhXhXhXhXhXhX",
"hXhXhXhXhXhXhXhXhXhXhXhXhXhXhXhXhXhXhXhXhXhXhXjXi.2.i.w.3 5 5 5 5 % % * 5 5 5 5 q 9.2.2.wXhXhXhXhXhXhXhXhXhXhXhXhXhXhXhXhXhXhXhX",
"hXhXhXhXhXhXhXhXhXhXhXhXhXhXhXhXhXhXhXhXhXhXfXjX4.2.2.<.y 5 5 5 5 $ o % 5 5 5 6 | qXy.2.wXhXhXhXhXhXhXhXhXhXhXhXhXhXhXhXhXhXhXhX",
"hXhXhXhXhXhXhXhXhXhXhXhXhXhXhXhXhXfXfXfXhXfXhXsXt.2.2.2.:.%.h &.*.* + r -.&.g +.7X0Xu.r.wXfXhXhXfXhXhXhXhXhXhXhXhXhXhXhXhXhXhXhX",
"hXhXhXhXhXhXhXhXhXhXhXhXhXhXhXhX0X#.+.+.+.+.+.+.X.;.,.2.2.,.3.2.2.r o t 2.2.>.X.| | | | +.#.$.$.$.$.u.hXhXhXhXhXhXhXhXhXhXhXhXhX",
"hXhXhXhXhXhXhXhXhXhXhXhXhXhXhXhX8X{ [ [ } [ [ [ } [ } ;.1.1.1.2.1.w . t 2.2.,.X.} } } } } } } } } } | 9XhXhXhXhXhXhXhXhXhXhXhXhX",
"hXhXhXhXhXhXhXhXhXhXhXhXhXhXhXhX0XS a [ ] [ [ [ +.[ [ [ ..<.2.2.2.r X t 2.2.,. .] ] } O.[ [ ] [ [ S } qXhXhXhXhXhXhXhXhXhXhXhXhX",
"hXhXhXhXhXhXhXhXhXhXhXhXhXhXhXhXfX+.;XqXuXuXuXuXuXyXeXeXeXt.2.2.2.e   t 2.2.4.5X6X6X7XqX5X6X6X6X7X#.+.fXhXhXhXhXhXhXhXhXhXhXhXhX",
"hXhXhXhXhXhXhXhXhXhXhXhXhXhXhXhXwX2X6XiX:X>XOX|.^.~.!.!.T.e.2.2.1.w X t 2.2.r.}.|.OX>X:XtXdXhXhXfX4X4XhXhXhXhXhXhXhXhXhXhXhXhXhX",
"hXhXhXhXhXhXhXhXhXhXhXhXhXhXdXiXeX'.F.Q.!.U.U.U.U.U.!.~.~._ =.:.:.r o w :.=.%.Q.!.~.(.).^._..X>XyX4X3XhXhXhXhXhXhXhXhXhXhXhXhXhX",
"hXhXhXhXhXhXhXhXhXhXhXhXiX>X.X^.L.Z.S.!.!.!.!.!.~.(.(._.^.B @ $ * O . X % % @ ^ ).XXXX<X<X).!.!.W.F.'.rXdXhXhXhXhXhXhXhXhXhXhXhX",
"hXhXhXhXhXhXhXhXhXfXrXOX!.!.U.U.!.Z.S.!.~.(.(./.).XXXX}.` 9 2 2 2 X . @ 2 2 2 9 Z.}.1X1X<XXX(.!.!.S.Z.!..X:XpXhXhXhXhXhXhXhXhXhX",
"hXhXhXhXhXhXhXfXtXOX!.!.U.!.!.!.!.Z.L.$X).).).).*X=XoX{ 5 5 5 9 5 2 % 2 5 9 4 9 6 ` 1X1X<XXX%X(.(.S.S.U.!.U.|.>XdXhXhXhXhXhXhXhX",
"hXhXhXhXhXhXiX>X!.!.!.!.!.(.(.$X%XS.Q.%X*X%X%X*XXX*XoXS 5 5 5 5 5 5 5 3 9 5 5 5 5 ` XX<X=X=X%X%X%XS.S.(.!.!.!.!..XrXfXhXhXhXhXhX",
"hXhXhXhXhXtX|.U.!.!.!.!.!.$X$X%X%XF.Q.%X$XE.T.E.Y.Y.Y.' D 3 3 3 3 3 3 3 3 3 3 3 0 C.W.^.&X*X%X*X%XQ.F.(.(.(.!.!.!.~.>XdXhXhXhXhX",
"hXhXhXhX:X~.!.U.!.!.!.$X%X%X%X%X).Z.A.P.P.P.T.T.R.Y.I.Y.A.Z @ @ X X X ; V @ @ @ Q J.H.P.P.I.T.W.%XQ.F.%X%X%X(.!.!.!.!.#XdXhXhXhX",
"hXhXhXtX^.U.!.!.!.(.$X%X%X%X/.I.P.V.A.I.P.I.E.&X XE.E.Y.T.n.+ + X     z ! + + # V.I.I.P.P.H.H.H.H.S.S.%X%X%X(.(.(.~.!.!.#XfXhXhX",
"hXhXiX|.U.!.!.(./.$X$X$XE.P.P.P.P.V.A.Y.I.Y.E.{.{.W.W.E.Y.Z.# + + + ; D.~ + + , A.R.{.Y.J.J.P.P.H.V.V.P./.$X$X%X$X!.(.!.!.,XfXhX",
"hXsX>XU.!.!.(.(.$X$XT.H.P.P.I.Y.Y.V.K.Y.Y.Y.K.J.B.N.v.z.z.f., + + # ; ! C + + B L.W.oX{.R.Y.I.P.I.A.V.H.H.I./.%X%X%X(.!.!.|.iXhX",
"hXiX^.!.!.(.(._.$XH.H.P.I.I.Y.E.E.V.V.N.x.h.j.k.k.g.h.h.s.s.z o + # 2 ! l + + z g.M.K.Y.R.R.Y.Y.I.A.A.H.H.H.H.T.$X%X$X!.!.!.>XhX",
"hXrX!.(.(.(.).!.P.I.I.I.E.E.Y.G.N.Q R f.f.h.x.m.m.M.k.h.h.d.N # + # ; ! z + + N f.h.f.h.x.B.P.R.E.D.A.I.I.P.P.P.U.(.%X$X/.!.OXhX",
"hX:X(.(._._.W.H.I.Y.R.T.Y.G.c.d.s.Q W d.h.j.m.[.+X[.M.j.j.j.W 4 p 4 1 ! ) 4 2 Y j.d.d.d.s.s.d.v.J.D.C.T.I.I.E.E.Y.Y.).).(.~.|.fX",
"hX:X~.(._./.P.I.Y.R.W.P.c.f.d.h.j.Q W d.z.x.B.+X2X[.B.x.c.c.Z.5.6.g ; ' 7.6.5.n.j.z.j.h.h.s.s.s.h.n.V.E.E.W.^.-X XY.T.).).(..XhX",
"hXtX(.(.(.I.Y.Y.E.W.G.h.s.f.j.j.x.Q g.x.x.v.B.B.[.[.B.v.v.v.A.7.6.h % ' 7.8.7.V.v.x.z.j.j.j.h.d.s.W ! G.W.W. X-X XY.H./._.(.OXhX",
"hXdX.X(.T.Y.Y.W.W.N.d.d.f.k.c.N.G.^ n.v.v.b.v.m.g.W R U J J J 7.6.w X V 6.8.7.b.v.v.v.v.z.j.z.j.f.W E d.B.W. XW.^.Y.H.H.)._.,XhX",
"hXhX,X_.U.Y.E.W.N.h.d.h.j.z.b.A.K.^ g.g.R G b n F v v x v v n X.6.*   4 8.8. .J H T j.v.v.v.x.z.j.W ! f.d.G.{. XE.I.J.H./..XdXhX",
"hXhXdXOXY.E.E.J.h.d.d.z.z.b.b.b.n.Q N c b x b b b b b b G G F ) 6.* = , u 5.) b v v n P g.m.v.v.z.! W h.f.j.R.W.W.Y.P.J.^.tXhXhX",
"hXhXhXiXoXY.E.M.d.j.h.z.c.v.j.Y n z l v v n b F F F F H K K E Z e & k P < & < n b b J P ! ! ! l.v.g.! h.d.d.N.&X$XY.I.Y.,XhXhXhX",
"hXhXhXhXiXoXY.h.d.j.z.x.z.Y v x x Z N b F F G H H I U R P P R P V V M U C A z N M M P ~ '.`.E M s.W ! z.h.d.j.^. XR.W.,XdXhXhXhX",
"hXhXhXhXhXiX@Xk.h.j.j.j.J x x x v z N F G I U T T T m l P U U U Y L m U U Y U K G > P ! `.' P n v P ! x.j.h.k.{.&X-XaXhXhXhXhXhX",
"hXhXhXhXhXhXpX6XD.x.g.M c x v v b M P H U T U G b k , : : : : > > > = k G I U T I m M P ! E P n x N R k.z.h.j.{.#XiXhXhXhXhXhXhX",
"hXhXhXhXhXhXhXhXuX@X' z x b x b F P E U I c : : - - - - - - - - - - = - - : k H U U I H K G n v x N N s.z.m.[.iXhXhXhXhXhXhXhXhX",
"hXhXhXhXhXhXhXhXhXhXuX2Xo.N b F H R R G : - - - - - - - - - - - - - - - - - - : c T U I G F b b x x n ~ '.rXdXhXhXhXhXhXhXhXhXhX",
"hXhXhXhXhXhXhXhXhXhXhXhXsX6X].~ ! T H : - - - - - - - - - - - - - - - - - - - - - n T I G F n N Q o.2X7XhXhXhXhXhXhXhXhXhXhXhXhX",
"hXhXhXhXhXhXhXhXhXhXhXhXfXhXhXfXyX].o.( Z , - - - - - - - - - - - - - - - - - - - > T W ! ' ].4XuXhXgXjXhXhXhXhXhXhXhXhXhXhXhXhX",
"hXhXhXhXhXhXhXhXhXhXhXhXhXhXhXhXhXhXhXuX7X3X$.O.o.( D 8 < < < , , , , < 8 Z D { | @.2XyXfXhXhXhXhXhXgXhXhXhXhXhXhXhXhXhXhXhXhXhX",
"hXhXhXhXhXhXhXhXhXhXhXhXhXhXhXhXhXhXhXhXhXhXhXhXfXfXuXuXuX9X8X8X8X9X8XuXuXuXsXfXhXfXfXhXhXhXhXhXhXhXhXhXhXhXhXhXhXhXhXhXhXhXhXhX"
};
