/* XPM */
static char *__WallB_BHB1721365575[] = {
/* columns rows colors chars-per-pixel */
"64 64 228 2 ",
"   c #0A0909",
".  c #130D0C",
"X  c #0C0B12",
"o  c #151211",
"O  c #121214",
"+  c #151519",
"@  c #241818",
"#  c #341910",
"$  c #2B211F",
"%  c #02012A",
"&  c #09082B",
"*  c #161328",
"=  c #070537",
"-  c #151535",
";  c #1E1D35",
":  c #221B39",
">  c #2A2323",
",  c #29252F",
"<  c #2E2F2D",
"1  c #362B2A",
"2  c #34312C",
"3  c #3B332C",
"4  c #2A2631",
"5  c #2D2A35",
"6  c #232239",
"7  c #2F2B39",
"8  c #342C38",
"9  c #34313D",
"0  c #383639",
"q  c #42291C",
"w  c #5E3417",
"e  c #613517",
"r  c #4A362B",
"t  c #4E3631",
"y  c #613F33",
"u  c #74411E",
"i  c #5E4036",
"p  c #6D442F",
"a  c #774929",
"s  c #6A4637",
"d  c #75443B",
"f  c #75493D",
"g  c #0A0747",
"h  c #16134D",
"j  c #060457",
"k  c #0A0754",
"l  c #070459",
"z  c #09055B",
"x  c #0C095C",
"c  c #120E5B",
"v  c #171558",
"b  c #281B4A",
"n  c #2A1E54",
"m  c #332D4A",
"M  c #3F3C46",
"N  c #36354B",
"B  c #282259",
"V  c #0A0663",
"C  c #0D0965",
"Z  c #0D096C",
"A  c #120B65",
"S  c #120C6C",
"D  c #180F6F",
"F  c #181468",
"G  c #0E0972",
"H  c #120C74",
"J  c #180D73",
"K  c #140D7A",
"L  c #1A1377",
"P  c #241D6A",
"I  c #241B73",
"U  c #261A7A",
"Y  c #2C276C",
"T  c #2C2476",
"R  c #34287D",
"E  c #3A3075",
"W  c #413E46",
"Q  c #453F47",
"!  c #543856",
"~  c #493675",
"^  c #613E7F",
"/  c #464647",
"(  c #484748",
")  c #4A4B4B",
"_  c #504A56",
"`  c #505153",
"'  c #5B5958",
"]  c #774A41",
"[  c #774C47",
"{  c #67564A",
"}  c #795449",
"|  c #524B75",
" . c #694470",
".. c #636367",
"X. c #69686B",
"o. c #717175",
"O. c #78787C",
"+. c #9C511C",
"@. c #A5561E",
"#. c #824B2C",
"$. c #975327",
"%. c #8A5333",
"&. c #AC5C25",
"*. c #A75A28",
"=. c #B45F24",
"-. c #A45E31",
";. c #BA6326",
":. c #B66835",
">. c #C86927",
",. c #D46C24",
"<. c #DC6F24",
"1. c #DE7024",
"2. c #CB7036",
"3. c #DA7537",
"4. c #E07123",
"5. c #8B5A45",
"6. c #845649",
"7. c #855653",
"8. c #8E746E",
"9. c #8C7877",
"0. c #B17466",
"q. c #CD784D",
"w. c #B48979",
"e. c #D58A5A",
"r. c #CA9072",
"t. c #210F86",
"y. c #220F88",
"u. c #231187",
"i. c #2A1C86",
"p. c #25128A",
"a. c #29158D",
"s. c #2C1B8E",
"d. c #2C1692",
"f. c #2E1993",
"g. c #311B95",
"h. c #331C9A",
"j. c #2D2284",
"k. c #362388",
"l. c #352896",
"z. c #3B239D",
"x. c #363297",
"c. c #3C29A1",
"v. c #452A93",
"b. c #462B9B",
"n. c #4A2F9E",
"m. c #542C99",
"M. c #493496",
"N. c #593499",
"B. c #60399E",
"V. c #472BA3",
"C. c #4329A4",
"Z. c #4C27AF",
"A. c #4B2AAD",
"S. c #542EA9",
"D. c #4A34A6",
"F. c #5B32A3",
"G. c #4E2AB1",
"H. c #522DB3",
"J. c #5F29B2",
"K. c #5433B5",
"L. c #5A33B6",
"P. c #5839B7",
"I. c #5936B9",
"U. c #5C3BBA",
"Y. c #622FAE",
"T. c #6539A6",
"R. c #622CB4",
"E. c #6532B4",
"W. c #663CB6",
"Q. c #6434B9",
"!. c #6A35BA",
"~. c #6D3BBD",
"^. c #713CBE",
"/. c #514A8D",
"(. c #685697",
"). c #7B7B89",
"_. c #6F6892",
"`. c #4649A6",
"'. c #4E56AD",
"]. c #5C42B9",
"[. c #7041A9",
"{. c #6D45B2",
"}. c #6342BC",
"|. c #714CB2",
" X c #7645BF",
".X c #6953B9",
"XX c #7757B3",
"oX c #596EB2",
"OX c #7669A7",
"+X c #7D63B1",
"@X c #6F3FC0",
"#X c #723FC0",
"$X c #6741C1",
"%X c #7441C1",
"&X c #7949C4",
"*X c #7455C3",
"=X c #837C9E",
"-X c #8879AD",
";X c #836FB0",
":X c #8877B2",
">X c #8656C7",
",X c #8B68CB",
"<X c #6682BD",
"1X c #87868B",
"2X c #948287",
"3X c #958A8C",
"4X c #898696",
"5X c #8D8C92",
"6X c #958E94",
"7X c #999295",
"8X c #96959B",
"9X c #99979C",
"0X c #99989E",
"qX c #B2968F",
"wX c #B39C99",
"eX c #9187AD",
"rX c #948AAD",
"tX c #9290A1",
"yX c #9C9BA1",
"uX c #9B94AE",
"iX c #9E99AC",
"pX c #958CB1",
"aX c #A09FA4",
"sX c #A19DAD",
"dX c #A3A1A6",
"fX c #AAA3A6",
"gX c #A7A6AB",
"hX c #D3B3A4",
/* pixels */
"gXgXgXgXgXgXgXgXgXgXgXgXgXgXgXgXgXgXgXgXgXgXgXgXgXgXgXgXgXgXgXgXgXgXgXgXgXgXgXgXgXgXgXgXgXgXgXgXgXgXgXgXgXgXgXgXgXgXgXgXgXgXgXgX",
"gXgXgXgXgXgXgXgXgXgXgXgXgXgXgXgXgXgXgXgXgXgXgXgXgXgXgXgXgXgXgXfXaX7XdXgXgXgXgXgXgXgXgXgXgXgXgXgXgXgXgXgXgXgXgXgXgXgXgXgXgXgXgXgX",
"gXgXgXgXgXgXgXgXgXgXgXgXgXgXgXgXgXgXgXgXgXgXgXgXgXgXgXgXgXgXgX2X} [ 8.dXgXgXgXgXgXgXgXgXgXgXgXgXgXgXgXgXgXgXgXgXgXgXgXgXgXgXgXgX",
"gXgXgXgXgXgXgXgXgXgXgXgXgXgXgXgXgXgXgXgXgXgXgXgXgXgXgXgXgXgXgX9.d d d 2XfXgXgXgXgXgXgXgXgXgXgXgXgXgXgXgXgXgXgXgXgXgXgXgXgXgXgXgX",
"gXgXgXgXgXgXgXgXgXgXgXgXgXgXgXgXgXgXgXgXgXgXgXgXgXgXgXgXgXgXgX9.d d d ] 6XgXgXgXgXgXgXgXgXgXgXgXgXgXgXgXgXgXgXgXgXgXgXgXgXgXgXgX",
"gXgXgXgXgXgXgXgXgXgXgXgXgXgXgXgXgXgXgXgXgXgXgXgXgXgXgXgXgXgXgX9.d d d d 3XgXgXgXgXgXgXgXgXgXgXgXgXgXgXgXgXgXgXgXgXgXgXgXgXgXgXgX",
"gXgXgXgXgXgXgXgXgXgXgXgXgXgXgXgXgXgXgXgXgXgXgXgXgXgXgXgXgXgXgX3Xd d d ] 7XgXgXgXgXgXgXgXgXgXgXgXgXgXgXgXgXgXgXgXgXgXgXgXgXgXgXgX",
"gXgXgXgXgXgXgXgXgXgXgXgXgXgXgXgXgXgXgXgXgXgXgXgXgXgXgXgXgXgXgX7Xf d d f 7XgXgXgXgXgXgXgXgXgXgXgXgXgXgXgXgXgXgXgXgXgXgXgXgXgXgXgX",
"gXgXgXgXgXgXgXgXgXgXgXgXgXgXgXgXgXgXgXgXgXgXgXgXgXgXgXgXgXgXgX3Xf d d ] 7XgXgXgXgXgXgXgXgXgXgXgXgXgXgXgXgXgXgXgXgXgXgXgXgXgXgXgX",
"gXgXgXgXgXgXgXgXgXgXgXgXgXgXgXgXgXgXgXgXgXgXgXgXgXgXgXgXgXgXgX3Xd d d f 3XgXgXgXgXgXgXgXgXgXgXgXgXgXgXgXgXgXgXgXgXgXgXgXgXgXgXgX",
"gXgXgXgXgXgXgXgXgXgXgXgXgXgXgXgXgXgXgXgXgXgXgXgXgXgXgXgXgXgXgX7Xd d d 6.7XgXgXgXgXgXgXgXgXgXgXgXgXgXgXgXgXgXgXgXgXgXgXgXgXgXgXgX",
"gXgXgXgXgXgXgXgXgXgXgXgXgXgXgXgXgXgXgXgXgXgXgXgXdX9X9X9X0X0X0X3X] d d ] 3X0X0X9X0X0X0XgXgXgXgXgXgXgXgXgXgXgXgXgXgXgXgXgXgXgXgXgX",
"gXgXgXgXgXgXgXgXgXgXgXgXgXgXgXgXgXgXgXgXgXgXgXgX5XQ M M W W W Q d d d s Q W M M W M ` yXgXgXgXgXgXgXgXgXgXgXgXgXgXgXgXgXgXgXgXgX",
"gXgXgXgXgXgXgXgXgXgXgXgXgXgXgXgXgXgXgXgXgXgXgXgX5X9 7 7 7 7 7 7 ! d f t 4 7 7 7 5 4 W yXgXgXgXgXgXgXgXgXgXgXgXgXgXgXgXgXgXgXgXgX",
"gXgXgXgXgXgXgXgXgXgXgXgXgXgXgXgXgXgXgXgXgXgXgXgX5X9 7 7 7 7 7 7 { 0.0.` 4 7 7 7 , , W yXgXgXgXgXgXgXgXgXgXgXgXgXgXgXgXgXgXgXgXgX",
"gXgXgXgXgXgXgXgXgXgXgXgXgXgXgXgXgXgXgXgXgXgXgXgX5X9 7 7 7 7 7 9 8.hXhX9.0 7 4 4 , , W yXgXgXgXgXgXgXgXgXgXgXgXgXgXgXgXgXgXgXgXgX",
"gXgXgXgXgXgXgXgXgXgXgXgXgXgXgXgXgXgXgXgXgXgXgXgX5X9 7 7 0 i #.-.e.e.e.e.:.#.r , , , W yXgXgXgXgXgXgXgXgXgXgXgXgXgXgXgXgXgXgXgXgX",
"gXgXgXgXgXgXgXgXgXgXgXgXgXgXgXgXgXgXgXgXgXgXgXgX5X9 7 7 a ,.1.4.4.4.1.4.4.4.>.#.5 , W 0XgXgXgXgXgXgXgXgXgXgXgXgXgXgXgXgXgXgXgXgX",
"gXgXgXgXgXgXgXgXgXgXgXgXgXgXgXgXgXgXgXgXgXgXgXgX5X9 7 t >.1.4.1.4.4.4.4.4.4.1.,.y , W yXgXgXgXgXgXgXgXgXgXgXgXgXgXgXgXgXgXgXgXgX",
"gXgXgXgXgXgXgXgXgXgXgXgXgXgXgXgXgXgXgXgXgXgXgXgX4X9 7 s ,.,.&.=.=.,.,.>.=.&.;.1.$., W yXgXgXgXgXgXgXgXgXgXgXgXgXgXgXgXgXgXgXgXgX",
"gXgXgXgXgXgXgXgXgXgXgXgXgXgXgXgXgXgXgXgXgXgXgXgX5X9 7 %.,.a 2 2 2 r r r 2 2 3 *.&.< W 0XgXgXgXgXgXgXgXgXgXgXgXgXgXgXgXgXgXgXgXgX",
"gXgXgXgXgXgXgXgXgXgXgXgXgXgXgXgXgXgXgXgXgXgXgXgX5X9 7 *.*.3 < < < < < < < < 2 r ;.3 / yXgXgXgXgXgXgXgXgXgXgXgXgXgXgXgXgXgXgXgXgX",
"gXgXgXgXgXgXgXgXgXgXgXgXgXgXgXgXgXgXgXgXgXgXgXgX5X0 0 ;.a < 2 < < < < < < 5 < 2 &.r W yXgXgXgXgXgXgXgXgXgXgXgXgXgXgXgXgXgXgXgXgX",
"gXgXgXgXgXgXgXgXgXgXgXgXgXgXgXgXgXgXgXgXgXgXgXgX5X9 r ,.a < < < < < < < < < < 2 &.p W yXgXgXgXgXgXgXgXgXgXgXgXgXgXgXgXgXgXgXgXgX",
"gXgXgXgXgXgXgXgXgXgXgXgXgXgXgXgXgXgXgXgXgXgXgXgX5XW i ,.a < < < < < < < < < < 2 *.%.( yXgXgXgXgXgXgXgXgXgXgXgXgXgXgXgXgXgXgXgXgX",
"gXgXgXgXgXgXgXgXgXgXgXgXgXgXgXgXgXgXgXgXgXgXgXgXgX7Xw.1.a < < < < < < < < < < 2 *.e.7XdXgXgXgXgXgXgXgXgXgXgXgXgXgXgXgXgXgXgXgXgX",
"gXgXgXgXgXgXgXgXgXgXgXgXgXgXgXgXgXgXgXgXgXgXgXgXgXgXw.4.a < < < < > $ 2 < < < 2 &.e.gXgXgXgXgXgXgXgXgXgXgXgXgXgXgXgXgXgXgXgXgXgX",
"gXgXgXgXgXgXgXgXgXgXgXgXgXgXgXgXgXgXgXgXgXgXgXgXgXdXe.1.5.< < < < @ o $ < < < 2 ;.3.wXgXgXgXgXgXgXgXgXgXgXgXgXgXgXgXgXgXgXgXgXgX",
"gXgXgXgXgXgXgXgXgXgXgXgXgXgXgXgXgXgXgXgXgXgXgXgXgXwX3.4.w.< < < < @ @ $ < < < / :.4.qXgXgXgXgXgXgXgXgXgXgXgXgXgXgXgXgXgXgXgXgXgX",
"gXgXgXgXgXgXgXgXgXgXgXgXgXgXgXgXgXgXgXgXgXgXgXgXgXqX3.4.2.t < < 2 @ o < < < 3 o.r.4.r.gXgXgXgXgXgXgXgXgXgXgXgXgXgXgXgXgXgXgXgXgX",
"gXgXgXgXgXgXgXgXgXgXgXgXgXgXgXgXgXgXgXgXgXfXdXdXdXaX2.4.1.>.a a +.q o u $.p o.7X7X:.qXdXgXdXgXgXgXgXgXgXgXgXgXgXgXgXgXgXgXgXgXgX",
"gXgXgXgXgXgXgXgXgXgXgXgXgXgXgXgXgXgXgXgXO.o.X.X.X...{ ;.1.1.2.1.4.w o +.4.>.' ' ' ' X.o.o.o.O.5XgXgXgXgXgXgXgXgXgXgXgXgXgXgXgXgX",
"gXgXgXgXgXgXgXgXgXgXgXgXgXgXgXgXgXgXgXaX' ) ) ) ) ) ) ) %.,.,.<.4.w o +.4.>.{ ` ` ` ` ` ` ` ` ..yXgXgXgXgXgXgXgXgXgXgXgXgXgXgXgX",
"gXgXgXgXgXgXgXgXgXgXgXgXgXgXgXgXgXgXgXaX) 0 ( ( ( ) X.) ( [ >.<.4.w o @.4.,.{ / ( ..( ( / ( / ' dXgXgXgXgXgXgXgXgXgXgXgXgXgXgXgX",
"gXgXgXgXgXgXgXgXgXgXgXgXgXgXgXgXgXgXgXsXO.1X9X8X8X6XrX=X-X-Xq.4.4.w . +.4.3.3X1X2XyX6X2X5X5XO.O.gXgXgXgXgXgXgXgXgXgXgXgXgXgXgXgX",
"gXgXgXgXgXgXgXgXgXgXgXgXgXgXgXfXfXgXaXuX_.OXXX{.W.E.Y.Y.J.Y.0.<.4.w   +.4.q.[.W.|.|.;X-XrXuX5X5XgXgXgXgXgXgXgXgXgXgXgXgXgXgXgXgX",
"gXgXgXgXgXgXgXgXgXgXgXgXgXgXsXuX:XXX{.Y.m.m.J.J.R.R.R.R.E.Y.7.&.>.e O u =.%.F.R.R.E.!.^.W.^.(.(.eXsXgXgXgXgXgXgXgXgXgXgXgXgXgXgX",
"gXgXgXgXgXgXgXgXgXgXgXgXuX;X|.E.R.J.J.R.m.F.R.R.R.!.!.~.^.E.: o @ o   + @ o ~ E.E.!. X>X>X~.m.m.R.{.+XeXsXgXgXgXgXgXgXgXgXgXgXgX",
"gXgXgXgXgXgXgXgXgXdXeXXXR.R.R.R.R.R.R.R.m.F.Q.!.~.%X&X*X[.~ , $ $ o   @ $ $ b N.^.>X,X,X>X^.F.m.R.R.R.E.|.-XiXgXgXgXgXgXgXgXgXgX",
"gXgXgXgXgXgXgXgXeXXXE.R.R.R.R.R.!.!.!.~.N.T.#X~.%X*X*X,X/.< < < < $ @ > , 1 4 r T.>X>X>X>X>XT.N.!.R.R.R.R.J.{.;XsXgXgXgXgXgXgXgX",
"gXgXgXgXgXgXuX+XR.J.R.R.R.R.Q.!.~.^.^.#XB.W. X%X X%X*X.X_ 5 < < < < < < < < < 8 T.&X>X&X&X&XT.T.#X!.!.!.E.R.R.R.|.eXgXgXgXgXgXgX",
"gXgXgXgXgXeX{.R.R.R.R.R.!.@X@X#X#X%X#X@XN.F.L.K.K.K.K.K.x.m < 1 > < < > , 1 < m D.H.Q.!.@X#XT.T.#X#X~.~.!.Q.R.R.R.E.;XdXgXgXgXgX",
"gXgXgXgX-XW.J.R.R.!.!.@X#X#X#X#X~.L.H.H.v.b.K.K.K.K.K.H.K.n.: o O   . b * O o v.Z.A.A.G.G.H.m.N.~.#X#X#X#X~.!.R.E.R.R.+XsXgXgXgX",
"gXgXgXeXT.J.R.R.R.!.!.#X#X@XQ.H.G.G.H.H.v.n.I.}.}.P.I.L.K.K.Y O X   X B : O * b.A.K.G.G.G.Z.b.v.Z.R.!.#X#X#X~.!.E.R.R.R.+XsXgXgX",
"gXgXuX{.R.R.R.!.!.@X@X@XI.G.G.G.G.G.G.G.v.S.P.}.}.U.U.P.L.H.R O O O : M.; + ; A.K.P.].K.A.A.b.v.Z.Z.Z.H.L.~.#X#X!.!.!.R.R.:XgXgX",
"gXsX+XY.R.R.!.!.@X@XL.Z.Z.G.H.K.K.K.I.I.M.n.H.V.C.h.g.a.a.a.U X O + ; T - O b D.K.]..X].P.P.n.b.H.G.Z.Z.Z.H.Q.%X#X!.!.R.R.W.uXgX",
"gXsX~.R.R.!.!.#X@XZ.Z.G.K.G.K.I.I.G.C.z.T i.i.p.i.i.p.p.y.y.U * O + ; Y * O h u.d.l.D.K.P.I.D.M.I.G.J.G.G.Z.G.J.#X#X^.!.R.R.;XgX",
"fXeXR.E.!.~.!.L.Z.Z.K.K.I.I.K.A.h.a.p.p.F U j.l.x.l.s.p.p.p.a.- O + ; L & O F u.u.u.u.u.s.c.x.n.I.I.I.G.H.G.G.H.H.~.#X!.Q.R.XXgX",
"gX:X!.!.^.^.L.G.H.K.I.I.L.C.f.p.u.u.t.p.I U x.`.oX`.l.a.a.a.d.n 1 1 ; ~ 1 $ I p.p.p.t.p.t.t.U T Z.I.I.H.K.H.I.K.K.L.~.~.!.R.|.gX",
"gX-XE.!.^.Q.G.H.L.I.U.A.f.u.t.p.p.p.p.a.I j.x.'.<X'.x.f.h.h.h. .%.p ; ^ 5.6.k.d.d.a.a.p.p.u.U I y.h.H.I.I.I.W.*X}.K.L.^.~.!.{.gX",
"gXrX!.!.~.H.G.I.I.U.c.p.u.u.p.f.f.f.f.f.T k.c.D.'.x.c.h.h.h.h./.5.f : ^ 5.7.v.h.f.f.d.d.a.p.U I t.t.a.C.I.U.].*X}.K.A.E.^.!.XXgX",
"gXsX|.!.I.G.I.U.U.z.y.y.u.a.g.z.C.z.z.h.j.k.l.g.j.i.L H A A A ! 5.r X ! 5.7.k.g.h.h.h.g.d.d.j.U p.y.t.p.c.U.}.U.U.K.A.G.^.~.:XgX",
"gXgX:X~.H.H.U.U.b.y.y.y.a.g.h.b.D.c.l.p.P c x x C z z z z j z B 5.q   i 5.} c x G K a.h.h.h.j.U a.p.a.p.p.C.].@XI.H.G.Z.E.XXiXgX",
"gXgXgXXXH.I.Q.D.y.y.p.a.a.h.h.z.j.L S l h h l z z z z V V V C v } q & 6 a ! x l l l x F T l.k.j.d.d.p.p.t.a.K.].I.K.G.A.W.eXgXgX",
"gXgXgXuX.XI.U.g.y.p.a.d.g.h.a.D x x j j h h x V V V V S S G F v q # k v @ : c z z z A P Y Y Y T g.d.d.p.p.t.z.$X$XI.G.K.:XgXgXgX",
"gXgXgXgXuX.XK.p.y.a.d.f.f.J z j j l x x v c C Z G G H H S F F H n b A D n n v A x A F Y './.B v t.f.d.d.p.y.a.U.}.I.U.:XsXgXgXgX",
"gXgXgXgXgXsX_.R p.d.a.a.A j j j l z V V v F H K K K K S g A H H K J c H H H H c g A F R /.E B v l L f.d.a.p.p.].$X*XpXgXgXgXgXgX",
"gXgXgXgXgXgXsX<XM.d.a.A z j j z z z C Z L L H Z x k = = & = = = = = & k C G H S x G F F I I v c j l H s.a.p.a.].+XuXgXgXgXgXgXgX",
"gXgXgXgXgXgXgXgXiXOX~ - z x j z V Z G H F v = % % % % % % % % % & % & % % = g S H H G S F C v v j j z t.d.l.'.uXgXgXgXgXgXgXgXgX",
"gXgXgXgXgXgXgXgXgXgXyX<X| v z z C H H V = & & % % % % % % % % % % % % % % % % = k K H Z C V x x j j c Y (.tXsXgXgXgXgXgXgXgXgXgX",
"gXgXgXgXgXgXgXgXgXgXgXgXyX5X_.E T K Z = % % % % % % % % % % % % % % % % % % % % % k K G V V x c Y | <XqXgXgXgXgXgXgXgXgXgXgXgXgX",
"gXgXgXgXgXgXgXgXgXgXgXgXdXgXgXdXtX).| N 6 - % = % % % % % % % % % % % % % % % % % g K U T | _.1XyXdXgXfXgXgXgXgXgXgXgXgXgXgXgXgX",
"gXgXgXgXgXgXgXgXgXgXgXgXgXgXgXgXgXgXgXyX8X1X)..._ W m 7 6 ; - - - - - ; 6 m N _ ' o.<XtXiXdXdXgXgXgXgXgXgXgXgXgXgXgXgXgXgXgXgXgX",
"gXgXgXgXgXgXgXgXgXgXgXgXgXgXgXgXgXgXgXgXgXgXgXgXgXdXyXyXyX0XtX8X8XyX8X8XyXyXyXaXgXfXfXgXgXgXgXgXgXgXgXgXgXgXgXgXgXgXgXgXgXgXgXgX"
};
