/* XPM */
static char *__WallB_BHA1721365576[] = {
/* columns rows colors chars-per-pixel */
"64 64 221 2 ",
"   c #130D0E",
".  c #0D0C11",
"X  c #0F1116",
"o  c #131214",
"O  c #1B1514",
"+  c #151319",
"@  c #2B1B12",
"#  c #231D1D",
"$  c #331D16",
"%  c #02012A",
"&  c #08072A",
"*  c #150D2B",
"=  c #141225",
"-  c #040334",
";  c #080639",
":  c #191837",
">  c #221B26",
",  c #221B3A",
"<  c #292526",
"1  c #26242F",
"2  c #2A2C2B",
"3  c #322723",
"4  c #332C2D",
"5  c #3A322B",
"6  c #292635",
"7  c #2B2936",
"8  c #372E37",
"9  c #363338",
"0  c #743F18",
"q  c #43352A",
"w  c #4D3329",
"e  c #573B2B",
"r  c #483735",
"t  c #543C38",
"y  c #784119",
"u  c #77462A",
"i  c #6A4937",
"p  c #6C4138",
"a  c #734730",
"s  c #090649",
"d  c #17154A",
"f  c #060457",
"g  c #0C0A56",
"h  c #070459",
"j  c #09065C",
"k  c #0D0A5B",
"l  c #120D5C",
"z  c #171658",
"x  c #261C4B",
"c  c #281E58",
"v  c #2C2946",
"b  c #352A47",
"n  c #3C3A44",
"m  c #39354E",
"M  c #332C54",
"N  c #0A0663",
"B  c #0D0963",
"V  c #0A0769",
"C  c #0D096D",
"Z  c #120C64",
"A  c #120C6C",
"S  c #180F6E",
"D  c #191568",
"F  c #0E0A75",
"G  c #120C73",
"H  c #170E77",
"J  c #181375",
"K  c #241C6C",
"L  c #211672",
"P  c #251A78",
"I  c #342467",
"U  c #312C6F",
"Y  c #2A2475",
"T  c #4C3453",
"R  c #473367",
"E  c #3F4143",
"W  c #454649",
"Q  c #464649",
"!  c #534B48",
"~  c #4B4D50",
"^  c #4A495C",
"/  c #5B4153",
"(  c #565557",
")  c #6E4D4C",
"_  c #744A59",
"`  c #7A5D5A",
"'  c #5D5C66",
"]  c #724B63",
"[  c #5F6064",
"{  c #65666A",
"}  c #6B6B71",
"|  c #63627E",
" . c #75757A",
".. c #9F541F",
"X. c #834D27",
"o. c #894D27",
"O. c #8B5026",
"+. c #955427",
"@. c #A55A26",
"#. c #B05F24",
"$. c #9B613D",
"%. c #BD6221",
"&. c #B6652B",
"*. c #AD6532",
"=. c #C36522",
"-. c #CD6A23",
";. c #D06B22",
":. c #B67258",
">. c #886A63",
",. c #836D6C",
"<. c #926F62",
"1. c #867171",
"2. c #8A797A",
"3. c #C97543",
"4. c #9C847D",
"5. c #B48673",
"6. c #C68359",
"7. c #CA8D61",
"8. c #210F86",
"9. c #231383",
"0. c #2B1D84",
"q. c #25128A",
"w. c #29148E",
"e. c #29198C",
"r. c #301F85",
"t. c #2C1692",
"y. c #2E1994",
"u. c #321C96",
"i. c #341C9B",
"p. c #2E2387",
"a. c #352589",
"s. c #2E2491",
"d. c #372595",
"f. c #3A229C",
"g. c #383398",
"h. c #3E33A3",
"j. c #45368E",
"k. c #452A95",
"l. c #442B9A",
"z. c #552B99",
"x. c #5B3799",
"c. c #4127A3",
"v. c #452BA5",
"b. c #4B27AE",
"n. c #4D2AAD",
"m. c #5C2AAA",
"M. c #4635A6",
"N. c #5734AB",
"B. c #4E2AB1",
"V. c #522DB3",
"C. c #5E2AB2",
"Z. c #5433B5",
"A. c #5A33B6",
"S. c #593BB6",
"D. c #5735B8",
"F. c #5936B9",
"G. c #5C3BBB",
"H. c #602CAF",
"J. c #6336A8",
"K. c #622CB4",
"L. c #6531B5",
"P. c #6834B6",
"I. c #673AB1",
"U. c #6A3DB3",
"Y. c #6434B8",
"T. c #6A35BA",
"R. c #633CBC",
"E. c #6D3ABC",
"W. c #713DBF",
"Q. c #50468B",
"!. c #635498",
"~. c #6A658F",
"^. c #7C7A82",
"/. c #7B7A91",
"(. c #4F46B0",
"). c #755DA6",
"_. c #6C42B4",
"`. c #6F48B2",
"'. c #6242BD",
"]. c #664ABA",
"[. c #714BB3",
"{. c #7341BD",
"}. c #7553B2",
"|. c #7A5DB2",
" X c #5262AD",
".X c #5E74B7",
"XX c #7771A3",
"oX c #7D67B2",
"OX c #723FC0",
"+X c #6442C1",
"@X c #7442C2",
"#X c #7843C3",
"$X c #7D4CC4",
"%X c #7355C0",
"&X c #807F84",
"*X c #857B94",
"=X c #8779AA",
"-X c #836CB0",
";X c #897AB2",
":X c #804EC6",
">X c #895AC8",
",X c #9D74D1",
"<X c #848388",
"1X c #8B8998",
"2X c #9A9090",
"3X c #96959C",
"4X c #99979C",
"5X c #9A999E",
"6X c #B5988D",
"7X c #BAA096",
"8X c #9186AE",
"9X c #948AAE",
"0X c #9C9BA2",
"qX c #9B94AD",
"wX c #9B98A8",
"eX c #9187B3",
"rX c #A19FA4",
"tX c #A19DAD",
"yX c #A3A2A6",
"uX c #A9A2A5",
"iX c #A7A6AB",
/* pixels */
"iXiXiXiXiXiXiXiXiXiXiXiXiXiXiXiXiXiXiXiXiXiXiXiXiXiXiXiXiXiXiXiXiXiXiXiXiXiXiXiXiXiXiXiXiXiXiXiXiXiXiXiXiXiXiXiXiXiXiXiXiXiXiXiX",
"iXiXiXiXiXiXiXiXiXiXiXiXiXiXiXiXiXiXiXiXiXiXiXiXiXiXiXiXiXiXiXiXyX4XyXiXiXiXiXiXiXiXiXiXiXiXiXiXiXiXiXiXiXiXiXiXiXiXiXiXiXiXiXiX",
"iXiXiXiXiXiXiXiXiXiXiXiXiXiXiXiXiXiXiXiXiXiXiXiXiXiXiXiXiXiXiXuX,.i 2.uXiXiXiXiXiXiXiXiXiXiXiXiXiXiXiXiXiXiXiXiXiXiXiXiXiXiXiXiX",
"iXiXiXiXiXiXiXiXiXiXiXiXiXiXiXiXiXiXiXiXiXiXiXiXiXiXiXiXiXiXiXyX` p ` 4XiXiXiXiXiXiXiXiXiXiXiXiXiXiXiXiXiXiXiXiXiXiXiXiXiXiXiXiX",
"iXiXiXiXiXiXiXiXiXiXiXiXiXiXiXiXiXiXiXiXiXiXiXiXiXiXiXiXiXiXiXuX` p p 1.iXiXiXiXiXiXiXiXiXiXiXiXiXiXiXiXiXiXiXiXiXiXiXiXiXiXiXiX",
"iXiXiXiXiXiXiXiXiXiXiXiXiXiXiXiXiXiXiXiXiXiXiXiXiXiXiXiXiXiXiXiX` p p ,.iXiXiXiXiXiXiXiXiXiXiXiXiXiXiXiXiXiXiXiXiXiXiXiXiXiXiXiX",
"iXiXiXiXiXiXiXiXiXiXiXiXiXiXiXiXiXiXiXiXiXiXiXiXiXiXiXiXiXiXiXiX,.p p 1.iXiXiXiXiXiXiXiXiXiXiXiXiXiXiXiXiXiXiXiXiXiXiXiXiXiXiXiX",
"iXiXiXiXiXiXiXiXiXiXiXiXiXiXiXiXiXiXiXiXiXiXiXiXiXiXiXiXiXiXiXiX,.p p 1.uXiXiXiXiXiXiXiXiXiXiXiXiXiXiXiXiXiXiXiXiXiXiXiXiXiXiXiX",
"iXiXiXiXiXiXiXiXiXiXiXiXiXiXiXiXiXiXiXiXiXiXiXiXiXiXiXiXiXiXiXyX,.p p 1.iXiXiXiXiXiXiXiXiXiXiXiXiXiXiXiXiXiXiXiXiXiXiXiXiXiXiXiX",
"iXiXiXiXiXiXiXiXiXiXiXiXiXiXiXiXiXiXiXiXiXiXiXiXiXiXiXiXiXiXiXiX>.p p ,.iXiXiXiXiXiXiXiXiXiXiXiXiXiXiXiXiXiXiXiXiXiXiXiXiXiXiXiX",
"iXiXiXiXiXiXiXiXiXiXiXiXiXiXiXiXiXiXiXiXiXiXiXiXiXiXiXiXiXiXiXiX1.p p 1.uXiXiXiXiXiXiXiXiXiXiXiXiXiXiXiXiXiXiXiXiXiXiXiXiXiXiXiX",
"iXiXiXiXiXiXiXiXiXiXiXiXiXiXiXiXiXiXiXiXiXiXiXiXiXiXiX0X4X4X4X4X,.p p ,.4X4X4X4XyXiXiXiXiXiXiXiXiXiXiXiXiXiXiXiXiXiXiXiXiXiXiXiX",
"iXiXiXiXiXiXiXiXiXiXiXiXiXiXiXiXiXiXiXiXiXiXiXiXiXiXiX} n n n n T a p T 9 Q n n <XiXiXiXiXiXiXiXiXiXiXiXiXiXiXiXiXiXiXiXiXiXiXiX",
"iXiXiXiXiXiXiXiXiXiXiXiXiXiXiXiXiXiXiXiXiXiXiXiXiXiXiX} 7 7 6 7 8 p p 8 7 7 7 1 ^.iXiXiXiXiXiXiXiXiXiXiXiXiXiXiXiXiXiXiXiXiXiXiX",
"iXiXiXiXiXiXiXiXiXiXiXiXiXiXiXiXiXiXiXiXiXiXiXiXiXiXiX} 7 7 7 6 9 <.<.8 7 6 1 1 <XiXiXiXiXiXiXiXiXiXiXiXiXiXiXiXiXiXiXiXiXiXiXiX",
"iXiXiXiXiXiXiXiXiXiXiXiXiXiXiXiXiXiXiXiXiXiXiXiXiXiXiX} 7 7 7 6 ! 7X7XQ 7 1 1 1 ^.iXiXiXiXiXiXiXiXiXiXiXiXiXiXiXiXiXiXiXiXiXiXiX",
"iXiXiXiXiXiXiXiXiXiXiXiXiXiXiXiXiXiXiXiXiXiXiXiXiXiXiX} 7 7 r a *.6.6.*.o.4 1 1 <XiXiXiXiXiXiXiXiXiXiXiXiXiXiXiXiXiXiXiXiXiXiXiX",
"iXiXiXiXiXiXiXiXiXiXiXiXiXiXiXiXiXiXiXiXiXiXiXiXiXiXiX} 7 5 #.-.;.;.;.;.;.+.2 1 ^.iXiXiXiXiXiXiXiXiXiXiXiXiXiXiXiXiXiXiXiXiXiXiX",
"iXiXiXiXiXiXiXiXiXiXiXiXiXiXiXiXiXiXiXiXiXiXiXiXiXiXuX} 7 t -.;.;.;.;.;.;.-.i 1 <XiXiXiXiXiXiXiXiXiXiXiXiXiXiXiXiXiXiXiXiXiXiXiX",
"iXiXiXiXiXiXiXiXiXiXiXiXiXiXiXiXiXiXiXiXiXiXiXiXiXiXuX} 7 a =.@.@.%.=.#.+.=.O.2 &XiXiXiXiXiXiXiXiXiXiXiXiXiXiXiXiXiXiXiXiXiXiXiX",
"iXiXiXiXiXiXiXiXiXiXiXiXiXiXiXiXiXiXiXiXiXiXiXiXiXiXiX} 9 +.+.5 5 5 q 5 2 e @.2 &XiXiXiXiXiXiXiXiXiXiXiXiXiXiXiXiXiXiXiXiXiXiXiX",
"iXiXiXiXiXiXiXiXiXiXiXiXiXiXiXiXiXiXiXiXiXiXiXiXiXiXiX} 7 @.e 2 2 2 2 2 2 5 +.5 &XiXiXiXiXiXiXiXiXiXiXiXiXiXiXiXiXiXiXiXiXiXiXiX",
"iXiXiXiXiXiXiXiXiXiXiXiXiXiXiXiXiXiXiXiXiXiXiXiXiXiXiX} 9 @.q 2 2 2 2 2 2 2 u q &XiXiXiXiXiXiXiXiXiXiXiXiXiXiXiXiXiXiXiXiXiXiXiX",
"iXiXiXiXiXiXiXiXiXiXiXiXiXiXiXiXiXiXiXiXiXiXiXiXiXiXiX} 9 @.q 2 2 2 2 2 2 5 u q &XiXiXiXiXiXiXiXiXiXiXiXiXiXiXiXiXiXiXiXiXiXiXiX",
"iXiXiXiXiXiXiXiXiXiXiXiXiXiXiXiXiXiXiXiXiXiXiXiXiXiXiX4.t #.5 2 2 2 2 2 2 2 X.i 4.iXiXiXiXiXiXiXiXiXiXiXiXiXiXiXiXiXiXiXiXiXiXiX",
"iXiXiXiXiXiXiXiXiXiXiXiXiXiXiXiXiXiXiXiXiXiXiXiXiXiXiXyX4.&.q 2 2 2 2 2 2 2 X.5.5XiXiXiXiXiXiXiXiXiXiXiXiXiXiXiXiXiXiXiXiXiXiXiX",
"iXiXiXiXiXiXiXiXiXiXiXiXiXiXiXiXiXiXiXiXiXiXiXiXiXiXiXiX6X&.q 2 2 2 2 2 2 2 X.5.iXiXiXiXiXiXiXiXiXiXiXiXiXiXiXiXiXiXiXiXiXiXiXiX",
"iXiXiXiXiXiXiXiXiXiXiXiXiXiXiXiXiXiXiXiXiXiXiXiXiXiXiXiX7.&.t 2 2 # O 2 2 3 O.6.iXiXiXiXiXiXiXiXiXiXiXiXiXiXiXiXiXiXiXiXiXiXiXiX",
"iXiXiXiXiXiXiXiXiXiXiXiXiXiXiXiXiXiXiXiXiXiXiXiXiXiXiXyX6.3.( 2 2 # @ 2 2 2 $.3.uXiXiXiXiXiXiXiXiXiXiXiXiXiXiXiXiXiXiXiXiXiXiXiX",
"iXiXiXiXiXiXiXiXiXiXiXiXiXiXiXiXiXiXiXiXiXiXiXiXiXiXiXyX6.-.a 2 2 # O 2 2 ( 5.3.uXiXiXiXiXiXiXiXiXiXiXiXiXiXiXiXiXiXiXiXiXiXiXiX",
"iXiXiXiXiXiXiXiXiXiXiXiXiXiXiXiXiXiXiXiXiXiXiXiXiXyXyXyX6.-.=.u u w @ o.i ^.2X5.yXyXiXiXiXiXiXiXiXiXiXiXiXiXiXiXiXiXiXiXiXiXiXiX",
"iXiXiXiXiXiXiXiXiXiXiXiXiXiXiXiXiXiXiXiXiXiXiXiX .{ { { ( #.-.-.;.y @ %.&.( ~ ( } } } 2XiXiXiXiXiXiXiXiXiXiXiXiXiXiXiXiXiXiXiXiX",
"iXiXiXiXiXiXiXiXiXiXiXiXiXiXiXiXiXiXiXiXiXiXiXyX( Q Q Q Q ! @.-.;.y @ =.%.! ~ ~ ~ ~ Q ' iXiXiXiXiXiXiXiXiXiXiXiXiXiXiXiXiXiXiXiX",
"iXiXiXiXiXiXiXiXiXiXiXiXiXiXiXiXiXiXiXiXiXiXiXyX~ Q Q Q [ Q / &.;.y @ %.%.! E ( Q Q Q ( yXiXiXiXiXiXiXiXiXiXiXiXiXiXiXiXiXiXiXiX",
"iXiXiXiXiXiXiXiXiXiXiXiXiXiXiXiXiXiXyXiXiXiXyXtX^.*X1X=X=X=X-X:.;.y @ %.-.*X<X1X1X<X<X .iXiXiXiXiXiXiXiXiXiXiXiXiXiXiXiXiXiXiXiX",
"iXiXiXiXiXiXiXiXiXiXiXiXiXiXiXiXiXyXtXqX8X-X|.[.x.I.I.K.m.K.K.:.;.y @ %.:.I.I.'.`.[.).~.9XqXyXiXiXiXiXiXiXiXiXiXiXiXiXiXiXiXiXiX",
"iXiXiXiXiXiXiXiXiXiXiXiXiXiXtXqX;X|.`.U.U.T.T.L.z.K.K.K.L.K.K._ ..y O +.i C.K.K.K.K.m.z.K.I.[.oX9XtXiXiXiXiXiXiXiXiXiXiXiXiXiXiX",
"iXiXiXiXiXiXiXiXiXiXiXtXqX-X[.I.K.K.T.{.>X:X{.T.x.L.T.T.T.T.I.x O O . O 1 C.T.P.K.K.m.z.C.K.K.K.K._.|.8XtXiXiXiXiXiXiXiXiXiXiXiX",
"iXiXiXiXiXiXiXiXiXrX9X|.P.K.K.K.K.L.W.:X,X,X$X@Xx.E.E.W.W.W.x.7 # O   # > R U.W.T.P.H.z.K.K.K.K.K.K.K.K.`.=XtXiXiXiXiXiXiXiXiXiX",
"iXiXiXiXiXiXiXtX8X|.L.K.K.K.K.K.T.T.W.:X>X>X$X#XJ.{.#X#X#X_.m 2 2 3 # < 4 < !.#XW.W.U.J.E.T.T.T.P.K.K.K.H.C.U.-XtXiXiXiXiXiXiXiX",
"iXiXiXiXiXiXqX-XK.K.K.K.K.T.T.OXW.W.@X#X:X$X#X#XN._.W.E.R.N.9 2 2 2 2 2 2 2 Q.{.@X{.U.J.OXOXOXE.OXL.L.K.K.K.K.C.[.9XyXiXiXiXiXiX",
"iXiXiXiXiX9X`.K.K.K.L.T.T.OXOXOX:XW.OX@X{.G.A.Z.k.n.n.n.n.n.I < < < < 2 2 7 l.A.D.A.N.x.OXOX@X@XOXOXOXL.L.K.K.K.K.K.-XtXiXiXiXiX",
"iXiXiXyX8XU.K.K.K.T.K.OXOXOXOXOXT.K.C.B.n.B.B.b.k.n.n.b.B.V.n.x   . + : o x N.F.A.Z.n.k.B.V.D.E.OXOXOXOXOXT.T.K.K.K.H.|.tXiXiXiX",
"iXiXiX9XU.K.K.K.K.OXOXOXOXOXK.B.n.n.B.B.B.B.Z.B.k.n.V.Z.V.V.Z.I . . * c X I F.G.].F.N.k.B.B.B.b.B.V.OXOXOXOXT.T.K.K.K.C.|.tXiXiX",
"iXiXqX`.K.K.T.T.OXOXOXOXV.B.B.B.B.B.B.B.Z.S.S.Z.l.Z.A.A.D.Z.N.k.o o M I X U F.G.+XG.N.l.Z.V.V.V.V.B.B.V.R.{.OXT.T.L.K.K.H.=XtXiX",
"iXyXoXK.K.T.T.OXOXOXV.b.b.b.B.B.B.V.V.D.S.].+X(.j.v.c.i.u.y.w.L X o d z + L d.f.M.n.N.l.D.Z.Z.Z.V.V.V.B.B.V.R.OXT.T.K.K.K.I.tXiX",
"iXqXU.K.T.T.W.OXY.B.b.b.B.V.V.Z.V.D.D.F.Z.M.h.y.P 9.8.8.8.q.q.L X + d d + L q.e.e.9.9.P u.h.n.Z.D.D.V.V.B.B.B.C.W.T.T.L.K.K.-XiX",
"iX8XL.K.T.E.W.Y.V.B.B.V.V.V.Z.D.D.Z.h.s.e.q.q.8.L q.8.8.q.q.w.P * X v d * L y.g.g.s.0.L 8.8.q.t.f.Z.F.D.Z.Z.B.V.V.E.W.T.T.K.[.yX",
"iX;XP.T.T.OXY.Z.A.A.Z.Z.Z.D.D.V.i.t.8.8.q.8.8.w.P q.w.t.t.y.y.u.8 3 c b , p.g. X Xg.r.L q.8.8.8.q.q.i.V.F.D.Z.V.V.V.E.OXE.L.`.iX",
"iX;XL.T.W.L.V.S.}.].S.D.D.D.h.t.8.8.q.8.q.w.w.t.P t.t.y.u.u.i.l._ p M _ ) g.g..X.XM.s.P w.q.w.q.w.q.8.w.c.F.F.D.V.V.V.OXE.L.`.iX",
"iX9XT.T.E.V.V.S.%X+X'.S.B.u.8.8.8.q.q.t.t.t.y.i.0.i.i.i.i.f.f.f.] p b _ _ k.M.(.(.h.d.0.y.y.u.u.y.t.q.8.8.y.D.G.D.V.V.Y.T.T.|.iX",
"iXtX[.W.A.b.V.Z.OXG.'.B.y.8.8.q.q.w.t.y.y.y.i.i.Y e.9.8.H S A Z _ w = ) ) K J p.s.s.d.r.i.i.i.h.l.i.t.q.q.q.t.V.G.F.V.V.T.T.;XiX",
"iXiX;XOXV.b.V.D.G.+XD.t.8.w.q.w.w.y.u.i.s.e.9.J z l j j f h h j T w O ) ! l f k l k l z 9.u.f.v.M.f.u.t.q.q.8.w.Z.G.Z.V.Y.}.tXiX",
"iXiXtX|.B.B.V.F.G.S.f.8.q.q.w.t.u.i.i.a.J l f h d k j j j j N j T w * t T N j j h h l d h j D 0.f.i.i.u.t.q.q.8.s.'.D.V._.eXiXiX",
"iXiXiXqX_.n.Z.G.+XZ.q.8.q.w.t.y.u.e.Y Y Y D g j z g Z B V B A Z x $ l : , C V B N N g d h h k k Z 9.u.u.y.w.w.8.q.B.G.'.;XtXiXiX",
"iXiXiXiXqX].D.G.R.h.8.q.w.t.y.w.A D U ~.Q.D Z j z Z A A G G D A K x Z K c D A F V V k z j h h h f f Z 9.i.t.w.q.8.f.+X;XtXiXiXiX",
"iXiXiXiXiXwXoX].+Xf.q.q.t.y.9.N h D Y Q.U Y D C z A F F F l B F G S D A H H l H H J S l V N j j f f f f 8.t.t.e.e.Q.eXtXiXiXiXiX",
"iXiXiXiXiXiXiX9X%Xf.q.e.t.q.N h g B D K Y K A F J H F C k s ; ; - % % - - ; ; s B C G J C V N j f f f f h 9.y.g.~.9XiXiXiXiXiXiX",
"iXiXiXiXiXiXiXiXwXXXj.t.w.V f f h g k D A C G F J l ; - % % % % % % & % % % % % % - s D F F C N N f g g h K !.1XtXiXiXiXiXiXiXiX",
"iXiXiXiXiXiXiXiXiXiXwX=XQ.z f f h k N Z V F J N ; & % % % % % % % % % % % % % % % % % % s H G C V h z U | 1XtXiXiXiXiXiXiXiXiXiX",
"iXiXiXiXiXiXiXiXiXiXiXiXrX1X~.U D j N A F F C ; % % % % % % % % % % % % % % % % % % % & & s G J U Q.<X0XiXiXiXiXiXiXiXiXiXiXiXiX",
"iXiXiXiXiXiXiXiXiXiXiXiXiXiXiXyX1X/.Q.U Y J N - % % % % % & % % % % % % % % % % & & & : v ^ ~.1X0XyXiXiXiXiXiXiXiXiXiXiXiXiXiXiX",
"iXiXiXiXiXiXiXiXiXiXiXiXiXiXiXiXiXiXiXtXwX1X/.' ^ E v v , : : : : : : , 6 v m ^ ' } &X1X0XyXiXiXiXiXiXiXiXiXiXiXiXiXiXiXiXiXiXiX",
"iXiXiXiXiXiXiXiXiXiXiXiXiXiXiXiXiXiXiXiXiXtXiXiXiXyX0X0X3X3X3X3X3X3X3X5XwX0XrXyXiXiXiXiXiXiXiXiXiXiXiXiXiXiXiXiXiXiXiXiXiXiXiXiX"
};
