/* XPM */
static char *__WallB_BHB1721365576[] = {
/* columns rows colors chars-per-pixel */
"64 64 228 2 ",
"   c #130D0E",
".  c #0D0C11",
"X  c #0F1116",
"o  c #0F111B",
"O  c #131214",
"+  c #1B1514",
"@  c #181519",
"#  c #2B1B12",
"$  c #231D1D",
"%  c #331D16",
"&  c #02012A",
"*  c #0A0A2B",
"=  c #140D2B",
"-  c #151226",
";  c #040335",
":  c #070539",
">  c #151535",
",  c #1E1938",
"<  c #221B25",
"1  c #241A37",
"2  c #292526",
"3  c #26242F",
"4  c #2A2C2C",
"5  c #322723",
"6  c #332C2D",
"7  c #3A322B",
"8  c #272437",
"9  c #2B2936",
"0  c #372E37",
"q  c #363338",
"w  c #4B2E1B",
"e  c #743F18",
"r  c #43352A",
"t  c #4D3329",
"y  c #573B2B",
"u  c #483735",
"i  c #543C37",
"p  c #6B3F38",
"a  c #784119",
"s  c #6A412A",
"d  c #77462A",
"f  c #6A4937",
"g  c #6C4138",
"h  c #774B33",
"j  c #0A0747",
"k  c #1A164A",
"l  c #060457",
"z  c #090653",
"x  c #0C0955",
"c  c #070459",
"v  c #09055B",
"b  c #0D095C",
"n  c #110E59",
"m  c #19175A",
"M  c #261C4B",
"N  c #241C56",
"B  c #342D47",
"V  c #3C3A44",
"C  c #37344C",
"Z  c #2D2357",
"A  c #0A0762",
"S  c #0D0964",
"D  c #0D096C",
"F  c #120C65",
"G  c #120C6C",
"H  c #180F6F",
"J  c #1A1669",
"K  c #0E0A74",
"L  c #120C75",
"P  c #180D73",
"I  c #140D79",
"U  c #1B1278",
"Y  c #221D6C",
"T  c #301E66",
"R  c #251977",
"E  c #2C2967",
"W  c #352667",
"Q  c #2A2573",
"!  c #39317B",
"~  c #4C3452",
"^  c #43376D",
"/  c #3F4143",
"(  c #454649",
")  c #464649",
"_  c #534B48",
"`  c #4B4D50",
"'  c #4A4A5B",
"]  c #5B4153",
"[  c #565557",
"{  c #6B4B4E",
"}  c #765248",
"|  c #744A5A",
" . c #7A5D5A",
".. c #525170",
"X. c #724B63",
"o. c #5F6064",
"O. c #65656B",
"+. c #6B6B71",
"@. c #6B6A7D",
"#. c #75757B",
"$. c #96501F",
"%. c #A8581F",
"&. c #834D27",
"*. c #8B5026",
"=. c #955427",
"-. c #A55A26",
";. c #B05F24",
":. c #9B613D",
">. c #AB622D",
",. c #BD6221",
"<. c #B6652B",
"1. c #B06938",
"2. c #C36522",
"3. c #CD6A23",
"4. c #C0692E",
"5. c #D06B22",
"6. c #9A5256",
"7. c #B67258",
"8. c #886A63",
"9. c #836D6C",
"0. c #926F62",
"q. c #867171",
"w. c #8A797A",
"e. c #C97543",
"r. c #9C847D",
"t. c #B48673",
"y. c #C68359",
"u. c #CA8D61",
"i. c #210F86",
"p. c #220F88",
"a. c #241485",
"s. c #2A1B81",
"d. c #25128A",
"f. c #29148E",
"g. c #271988",
"h. c #2C1A8D",
"j. c #311F8F",
"k. c #2C1692",
"l. c #2E1993",
"z. c #311B95",
"x. c #331C9A",
"c. c #362889",
"v. c #342395",
"b. c #3B239C",
"n. c #362B98",
"m. c #3C29A1",
"M. c #452B97",
"N. c #483598",
"B. c #553095",
"V. c #5A389A",
"C. c #4428A5",
"Z. c #4429A5",
"A. c #4C27AF",
"S. c #4C2BAD",
"D. c #572EAF",
"F. c #4837A7",
"G. c #5735AB",
"H. c #4E2AB1",
"J. c #522DB3",
"K. c #5F29B2",
"L. c #5433B5",
"P. c #5A33B5",
"I. c #5838B7",
"U. c #5936B9",
"Y. c #5C3BBA",
"T. c #6437A9",
"R. c #622CB4",
"E. c #6532B4",
"W. c #663AB3",
"Q. c #6A3DB4",
"!. c #6435B9",
"~. c #6A35BA",
"^. c #613FBC",
"/. c #6D3BBD",
"(. c #713CBE",
"). c #504F8F",
"_. c #414297",
"`. c #645B97",
"'. c #7B7987",
"]. c #6E6991",
"[. c #4B52A8",
"{. c #5D46B8",
"}. c #714BA8",
"|. c #6D44B4",
" X c #6342BC",
".X c #714BB3",
"XX c #7546BC",
"oX c #6B54B7",
"OX c #7553B2",
"+X c #795BB2",
"@X c #7E52BC",
"#X c #576FA0",
"$X c #7767A8",
"%X c #7C63B1",
"&X c #6F3FC0",
"*X c #723FC0",
"=X c #6844C1",
"-X c #7441C1",
";X c #7848C3",
":X c #7556C4",
">X c #807F84",
",X c #837C98",
"<X c #826CAF",
"1X c #887AAA",
"2X c #866DB1",
"3X c #8877B2",
"4X c #8656C8",
"5X c #896CCC",
"6X c #85848A",
"7X c #8A8797",
"8X c #96959B",
"9X c #9B979B",
"0X c #99979C",
"qX c #B5988D",
"wX c #BAA096",
"eX c #918EA6",
"rX c #9186AE",
"tX c #948AAE",
"yX c #9290A1",
"uX c #9C9BA2",
"iX c #9B94AE",
"pX c #9E99AC",
"aX c #958CB1",
"sX c #A19FA4",
"dX c #A19DAD",
"fX c #A3A2A6",
"gX c #A9A2A5",
"hX c #A7A6AB",
/* pixels */
"hXhXhXhXhXhXhXhXhXhXhXhXhXhXhXhXhXhXhXhXhXhXhXhXhXhXhXhXhXhXhXhXhXhXhXhXhXhXhXhXhXhXhXhXhXhXhXhXhXhXhXhXhXhXhXhXhXhXhXhXhXhXhXhX",
"hXhXhXhXhXhXhXhXhXhXhXhXhXhXhXhXhXhXhXhXhXhXhXhXhXhXhXhXhXhXhXhXsX9XfXhXhXhXhXhXhXhXhXhXhXhXhXhXhXhXhXhXhXhXhXhXhXhXhXhXhXhXhXhX",
"hXhXhXhXhXhXhXhXhXhXhXhXhXhXhXhXhXhXhXhXhXhXhXhXhXhXhXhXhXhXhXfX9.} w.hXhXhXhXhXhXhXhXhXhXhXhXhXhXhXhXhXhXhXhXhXhXhXhXhXhXhXhXhX",
"hXhXhXhXhXhXhXhXhXhXhXhXhXhXhXhXhXhXhXhXhXhXhXhXhXhXhXhXhXhXhXgX .p } 9XhXhXhXhXhXhXhXhXhXhXhXhXhXhXhXhXhXhXhXhXhXhXhXhXhXhXhXhX",
"hXhXhXhXhXhXhXhXhXhXhXhXhXhXhXhXhXhXhXhXhXhXhXhXhXhXhXhXhXhXhXgX .g p q.hXhXhXhXhXhXhXhXhXhXhXhXhXhXhXhXhXhXhXhXhXhXhXhXhXhXhXhX",
"hXhXhXhXhXhXhXhXhXhXhXhXhXhXhXhXhXhXhXhXhXhXhXhXhXhXhXhXhXhXhXhX8.p p 9.hXhXhXhXhXhXhXhXhXhXhXhXhXhXhXhXhXhXhXhXhXhXhXhXhXhXhXhX",
"hXhXhXhXhXhXhXhXhXhXhXhXhXhXhXhXhXhXhXhXhXhXhXhXhXhXhXhXhXhXhXhX8.p g q.hXhXhXhXhXhXhXhXhXhXhXhXhXhXhXhXhXhXhXhXhXhXhXhXhXhXhXhX",
"hXhXhXhXhXhXhXhXhXhXhXhXhXhXhXhXhXhXhXhXhXhXhXhXhXhXhXhXhXhXhXhX9.p g q.fXhXhXhXhXhXhXhXhXhXhXhXhXhXhXhXhXhXhXhXhXhXhXhXhXhXhXhX",
"hXhXhXhXhXhXhXhXhXhXhXhXhXhXhXhXhXhXhXhXhXhXhXhXhXhXhXhXhXhXhXfX9.p p q.hXhXhXhXhXhXhXhXhXhXhXhXhXhXhXhXhXhXhXhXhXhXhXhXhXhXhXhX",
"hXhXhXhXhXhXhXhXhXhXhXhXhXhXhXhXhXhXhXhXhXhXhXhXhXhXhXhXhXhXhXhX .{ p 8.hXhXhXhXhXhXhXhXhXhXhXhXhXhXhXhXhXhXhXhXhXhXhXhXhXhXhXhX",
"hXhXhXhXhXhXhXhXhXhXhXhXhXhXhXhXhXhXhXhXhXhXhXhXhXhXhXhXhXhXhXhXq.g p w.hXhXhXhXhXhXhXhXhXhXhXhXhXhXhXhXhXhXhXhXhXhXhXhXhXhXhXhX",
"hXhXhXhXhXhXhXhXhXhXhXhXhXhXhXhXhXhXhXhXhXhXhXhXhXhXhXuX8X0X8X8X9.p p 9.8X0X0X0XfXhXhXhXhXhXhXhXhXhXhXhXhXhXhXhXhXhXhXhXhXhXhXhX",
"hXhXhXhXhXhXhXhXhXhXhXhXhXhXhXhXhXhXhXhXhXhXhXhXhXhXhX+.V V V V i g p ~ q ) V V 6XhXhXhXhXhXhXhXhXhXhXhXhXhXhXhXhXhXhXhXhXhXhXhX",
"hXhXhXhXhXhXhXhXhXhXhXhXhXhXhXhXhXhXhXhXhXhXhXhXhXhXhX+.9 9 9 9 q g p 0 9 9 9 3 6XhXhXhXhXhXhXhXhXhXhXhXhXhXhXhXhXhXhXhXhXhXhXhX",
"hXhXhXhXhXhXhXhXhXhXhXhXhXhXhXhXhXhXhXhXhXhXhXhXhXhXhX+.9 9 9 9 V 8.0.0 9 9 3 3 #.hXhXhXhXhXhXhXhXhXhXhXhXhXhXhXhXhXhXhXhXhXhXhX",
"hXhXhXhXhXhXhXhXhXhXhXhXhXhXhXhXhXhXhXhXhXhXhXhXhXhXhX+.9 9 9 9 _ qXwX` 9 3 3 3 6XhXhXhXhXhXhXhXhXhXhXhXhXhXhXhXhXhXhXhXhXhXhXhX",
"hXhXhXhXhXhXhXhXhXhXhXhXhXhXhXhXhXhXhXhXhXhXhXhXhXhXhXO.9 9 u d 1.y.u.1.&.6 3 3 >XhXhXhXhXhXhXhXhXhXhXhXhXhXhXhXhXhXhXhXhXhXhXhX",
"hXhXhXhXhXhXhXhXhXhXhXhXhXhXhXhXhXhXhXhXhXhXhXhXhXhXhX+.9 0 -.3.5.5.5.5.5.=.6 3 >XhXhXhXhXhXhXhXhXhXhXhXhXhXhXhXhXhXhXhXhXhXhXhX",
"hXhXhXhXhXhXhXhXhXhXhXhXhXhXhXhXhXhXhXhXhXhXhXhXhXhXhX+.9 y 3.3.5.5.5.5.5.5.s 3 >XhXhXhXhXhXhXhXhXhXhXhXhXhXhXhXhXhXhXhXhXhXhXhX",
"hXhXhXhXhXhXhXhXhXhXhXhXhXhXhXhXhXhXhXhXhXhXhXhXhXhXhXO.9 h 3.-.-.,.2.;.=.2.*.4 >XhXhXhXhXhXhXhXhXhXhXhXhXhXhXhXhXhXhXhXhXhXhXhX",
"hXhXhXhXhXhXhXhXhXhXhXhXhXhXhXhXhXhXhXhXhXhXhXhXhXhXhX+.4 *.=.7 6 7 r 7 4 s -.4 >XhXhXhXhXhXhXhXhXhXhXhXhXhXhXhXhXhXhXhXhXhXhXhX",
"hXhXhXhXhXhXhXhXhXhXhXhXhXhXhXhXhXhXhXhXhXhXhXhXhXhXhX+.q >.y 4 4 4 4 4 4 7 *.7 >XhXhXhXhXhXhXhXhXhXhXhXhXhXhXhXhXhXhXhXhXhXhXhX",
"hXhXhXhXhXhXhXhXhXhXhXhXhXhXhXhXhXhXhXhXhXhXhXhXhXhXhX+.q -.r 4 4 4 4 4 4 4 &.7 >XhXhXhXhXhXhXhXhXhXhXhXhXhXhXhXhXhXhXhXhXhXhXhX",
"hXhXhXhXhXhXhXhXhXhXhXhXhXhXhXhXhXhXhXhXhXhXhXhXhXhXhX+.7 >.r 4 4 4 4 4 4 4 d y >XhXhXhXhXhXhXhXhXhXhXhXhXhXhXhXhXhXhXhXhXhXhXhX",
"hXhXhXhXhXhXhXhXhXhXhXhXhXhXhXhXhXhXhXhXhXhXhXhXhXhXhXr.i <.r 4 4 4 4 4 4 4 &.f 6XhXhXhXhXhXhXhXhXhXhXhXhXhXhXhXhXhXhXhXhXhXhXhX",
"hXhXhXhXhXhXhXhXhXhXhXhXhXhXhXhXhXhXhXhXhXhXhXhXhXhXhXfXr.<.r 4 4 4 4 4 4 4 d t.9XhXhXhXhXhXhXhXhXhXhXhXhXhXhXhXhXhXhXhXhXhXhXhX",
"hXhXhXhXhXhXhXhXhXhXhXhXhXhXhXhXhXhXhXhXhXhXhXhXhXhXhXhXt.4.7 4 4 4 5 4 4 4 *.t.hXhXhXhXhXhXhXhXhXhXhXhXhXhXhXhXhXhXhXhXhXhXhXhX",
"hXhXhXhXhXhXhXhXhXhXhXhXhXhXhXhXhXhXhXhXhXhXhXhXhXhXhXhXt.4.u 4 4 $ + 2 4 4 $.y.gXhXhXhXhXhXhXhXhXhXhXhXhXhXhXhXhXhXhXhXhXhXhXhX",
"hXhXhXhXhXhXhXhXhXhXhXhXhXhXhXhXhXhXhXhXhXhXhXhXhXhXhXhXy.e.[ 7 4 $ # 4 4 q :.4.gXgXhXhXhXhXhXhXhXhXhXhXhXhXhXhXhXhXhXhXhXhXhXhX",
"hXhXhXhXhXhXhXhXhXhXhXhXhXhXhXhXhXhXhXhXhXhXhXhXhXhXhXfXy.3.h 4 4 $   4 4 ` t.y.gXhXhXhXhXhXhXhXhXhXhXhXhXhXhXhXhXhXhXhXhXhXhXhX",
"hXhXhXhXhXhXhXhXhXhXhXhXhXhXhXhXhXhXhXhXhXhXhXhXhXfXfXfXy.5.2.d d w # *.f >X9X7.gXfXhXhXhXhXhXhXhXhXhXhXhXhXhXhXhXhXhXhXhXhXhXhX",
"hXhXhXhXhXhXhXhXhXhXhXhXhXhXhXhXhXhXhXhXhXhXhXhX#.o.O.O.[ >.5.2.5.a # ,.>.[ [ [ +.+.#.6XhXhXhXhXhXhXhXhXhXhXhXhXhXhXhXhXhXhXhXhX",
"hXhXhXhXhXhXhXhXhXhXhXhXhXhXhXhXhXhXhXhXhXhXhXsX[ ( ) ) ) _ >.3.5.a # 2.,._ ` ` ) ` ` O.gXhXhXhXhXhXhXhXhXhXhXhXhXhXhXhXhXhXhXhX",
"hXhXhXhXhXhXhXhXhXhXhXhXhXhXhXhXhXhXhXhXhXhXhXfX` ) ) ) o.) ] <.5.a # 2.<._ ) [ ~ ) / [ fXhXhXhXhXhXhXhXhXhXhXhXhXhXhXhXhXhXhXhX",
"hXhXhXhXhXhXhXhXhXhXhXhXhXhXhXhXhXhXhXhXhXhXfXdX'.7X7X1X1X,X1X7.5.a # ,.e.,X6XyX7X6X6Xq.hXhXhXhXhXhXhXhXhXhXhXhXhXhXhXhXhXhXhXhX",
"hXhXhXhXhXhXhXhXhXhXhXhXhXhXhXhXhXhXdXiX1X<X+X|.B.T.R.R.R.R.~.6.5.a # ,.7.T.T. X|.}.+X'.iXpXfXhXhXhXhXhXhXhXhXhXhXhXhXhXhXhXhXhX",
"hXhXhXhXhXhXhXhXhXhXhXhXhXhXdXiX3X+XQ.T.R.R.K.R.B.K.R.R.R.R.E.| %.e $ $.h K.R.R.E.E.T.V.Q.|..X<XaXpXhXhXhXhXhXhXhXhXhXhXhXhXhXhX",
"hXhXhXhXhXhXhXhXhXhXhXhXiX2X.XW.R.R.R.R.R.R.R.R.B.E.~./.|./.E.M +   . + < K.E.~.E.(.(.}.4X~.R.R.P.|.%XrXdXhXhXhXhXhXhXhXhXhXhXhX",
"hXhXhXhXhXhXhXhXhXfXrX+XR.R.K.R.R.R.R.R.E.~.~.~.V.|.:X;X;XXXV.9 $ + . $ % ^ Q.(.E.(.4X2X4XXX~.R.R.R.R.E..X1XpXfXhXhXhXhXhXhXhXhX",
"hXhXhXhXhXhXhXfXtXOXR.R.K.R.R.R.~.~.~./././.(./.G.:X:X5X4XXXC 4 4 2 $ 2 6 5 V.-X4X(.4XOX4XXX(.~.~.R.R.R.R.K.|.3XdXhXhXhXhXhXhXhX",
"hXhXhXhXhXhXdX+XE.R.R.R.R.R.R.&X/./.*X*X*X-X*X-XT..X:X:X=X{.9 4 4 4 4 4 4 4 B.XX-X;XXX}.;X;X-X*X(.~.~.~.~.R.R.R..XtXhXhXhXhXhXhX",
"hXhXhXhXhXaX|.R.R.R.R.R.&X*X&X*X*X*X*X*X&XP.U.P.M.F.L.L.S.F.W 6 2 4 4 2 4 9 M.S.J.J.P.V.&X-X-X*X*X*X/.~.~.~.R.R.R.E.<XdXhXhXhXhX",
"hXhXhXhX1XT.R.R.R.R.R.&X&X&X*X*X&X!.J.H.J.S.J.P.N.L.L.J.L.J.F.M   . X 1   M S.S.A.A.C.M.H.J.L.!.*X*X*X*X(.~.!.R.R.R.R.%XdXhXhXhX",
"hXhXhXrXW.K.R.R.R.~.*X*X&X&XR.J.A.H.J.H.H.J.Y. XV.I.I.L.L.L.L.W . . = N X T H.J.S.S.S.M.H.A.A.H.H.K./.*X*X*X/.~.~.R.R.R.%XfXhXhX",
"hXhXiX|.R.R.R.~.!.&X&X&XL.J.H.H.H.H.H.L.J.L.Y.Y.V.I.Y.I.P.L.D.c.X O Z W X Q K.L.P.I.{.N.S.S.H.H.A.A.A.J.!./.*X*X~.~.~.R.R.3XfXhX",
"hXpX2XR.R.R.~.~.&X&XP.A.H.H.J.J.L.L.L.L.L.L.J.Z.c.v.z.l.f.f.d.Y o O M m @ Q C.S.L.{.{.N.I.L.J.H.J.H.A.A.A.J.!.*X*X/.~.R.R.|.iXhX",
"hXiXQ.R.R.~.~.*X&XA.A.J.J.J.L.U.U.J.C.b.l.a.g.g.Q g.a.d.d.i.i.R o O k k o H d.d.h.v.m.N.I.Y.U.L.L.J.J.J.A.A.H.K./.*X/.~.!.K.2XhX",
"hXrXR.R.~.~.(.P.H.H.J.J.U.U.L.Z.m.f.i.i.i.a.v.n.c.c.h.d.d.d.f.a.= O M k = U d.i.d.d.R R h.b.S.U.U.P.L.J.J.H.H.J.J./.*X/.!.R.OXhX",
"hX1X~.~.(.(.P.S.J.L.P.U.L.Z.l.d.i.i.i.p.d.f.n.[.#Xn.n.h.d.f.k.h.B 5 M B 3 a.d.d.d.d.a.R i.i.p.x.A.U.U.L.J.L.U.L.L.R./.(./.R.|.hX",
"hX1X~.~./.!.J.J.L.U.Y.S.z.d.i.d.d.d.f.f.f.l.m.[.#X[.n.x.x.x.x.b.| f Z | | z.k.k.f.f.a.R p.p.i.p.p.x.J.U.U.I.^.:X XL.J././.E.|.hX",
"hXtX~.~./.J.L.L.U.U.C.d.i.a.d.h.z.h.l.l.z.x.m._._.m.m.x.v.x.l.n.X.g Z | | M.x.x.x.l.h.R f.d.d.p.i.i.f.C.Y.Y.Y.:X XL.S.E.(.~.+XhX",
"hXdX.X~.P.J.L.Y.Y.m.p.p.d.f.z.b.C.m.x.x.x.b.v.j.Q Q U L D S D J { y - } | R f.z.x.x.l.s.l.k.k.d.d.p.i.p.m.Y. XY.Y.G.S.J./.(.3XhX",
"hXhX3X/.K.L.U.Y.x.p.p.d.f.l.x.M.F.M.x.d.U S b b m n v v c c c c ~ t O } { z l v G U a.s.x.x.l.k.f.f.k.p.p.C.{.=XU.H.H.A.!.@XpXhX",
"hXhXdX+XL.L.Y.S.d.p.f.f.k.x.x.m.h.R F c v c c c k x b b S S S A ~ y * i ~ x c c c l n m s.v.m.l.k.f.f.d.i.f.L.Y.Y.L.H.S.W.rXhXhX",
"hXhXhXiXoXL.Y.v.d.f.f.k.z.x.f.H b v v c c v A A m S S G G G G D M % x 1 , F A v v c m Z E Y s.j.z.l.f.d.d.i.b. X^.U.J.L.3XhXhXhX",
"hXhXhXhXiXoXL.d.p.f.k.k.k.P v l l v v v A A A D m G L L K L J J R M F N N J G A A A m E `.).Y F i.l.l.f.d.p.k.Y.^.Y.I.3XfXhXhXhX",
"hXhXhXhXhXpX$Xh.d.f.l.f.G l l l c v A A D D K U J U I I K b n L L H J K I G x G S G J E ).! J b v P l.l.f.d.d.{.=X:XaXhXhXhXhXhX",
"hXhXhXhXhXhXdX,XN.l.f.G l l c c v v A D K I L A m j j ; ; ; * : : : * z A D D L K K J Y Y Y m b l c P x.k.d.f.{.%XiXhXhXhXhXhXhX",
"hXhXhXhXhXhXhXhXuX$X..b c c c v S D K K K z ; ; * & & & & & & & & & & & & ; j G L L G J F S b c l l c U k.v.[.iXhXhXhXhXhXhXhXhX",
"hXhXhXhXhXhXhXhXhXhXeX'...m v v S L L S ; & & & & & & & & & & & & & & & & & & & z L K D S A A c c l n Q `.eXdXhXhXhXhXhXhXhXhXhX",
"hXhXhXhXhXhXhXhXhXhXhXhXuX7X].^ Q I D : & & & & & & & & & & & & & & & & & & & & & x I K D S v S E ..'.pXhXhXhXhXhXhXhXhXhXhXhXhX",
"hXhXhXhXhXhXhXhXhXhXhXhXfXhXhXfXeX'...C , > & & & & & & & & & & & & & * & & & & * : I g.! ^ ].7XuXfXhXhXhXhXhXhXhXhXhXhXhXhXhXhX",
"hXhXhXhXhXhXhXhXhXhXhXhXhXhXhXhXhXhXhXfX0X6X#.O.../ C 8 , , > > > > > , , B C ' ..@.,XyXuXdXhXhXhXhXhXhXhXhXhXhXhXhXhXhXhXhXhXhX",
"hXhXhXhXhXhXhXhXhXhXhXhXhXhXhXhXhXhXhXhXhXhXhXhXfXfXsXuXuX8XuX8X8X8X0X0XuXuXuXfXhXhXhXhXhXhXhXhXhXhXhXhXhXhXhXhXhXhXhXhXhXhXhXhX"
};
