/* XPM */
static char *__BHB1721365577[] = {
/* columns rows colors chars-per-pixel */
"64 64 174 2 ",
"   c #02012A",
".  c #0A092D",
"X  c #040233",
"o  c #050339",
"O  c #08063E",
"+  c #151433",
"@  c #25243E",
"#  c #070442",
"$  c #09064E",
"%  c #060457",
"&  c #080650",
"*  c #070459",
"=  c #09055C",
"-  c #0C095C",
";  c #100D5F",
":  c #14125A",
">  c #1C1A5D",
",  c #39384D",
"<  c #0B0763",
"1  c #0E0963",
"2  c #0A0769",
"3  c #0E096C",
"4  c #110A65",
"5  c #120B6C",
"6  c #161261",
"7  c #1A1665",
"8  c #1D1B65",
"9  c #17116D",
"0  c #1E1A6C",
"q  c #0E0A73",
"w  c #0F0A78",
"e  c #120B74",
"r  c #180E72",
"t  c #140D79",
"y  c #180E7C",
"u  c #1D1672",
"i  c #1C1874",
"p  c #1E117A",
"a  c #20117E",
"s  c #272468",
"d  c #3A396D",
"f  c #272073",
"g  c #2A2570",
"h  c #322C74",
"j  c #32307A",
"k  c #424154",
"l  c #4C4B5C",
"z  c #535361",
"x  c #5C5C68",
"c  c #424073",
"v  c #525174",
"b  c #66656F",
"n  c #6B6A75",
"m  c #706F7A",
"M  c #73737B",
"N  c #210F87",
"B  c #220F88",
"V  c #231186",
"C  c #291B82",
"Z  c #25128A",
"A  c #29148E",
"S  c #2B1A8C",
"D  c #2B1692",
"F  c #2E1993",
"G  c #311B95",
"H  c #341D9A",
"J  c #2F248B",
"K  c #343184",
"L  c #2E2591",
"P  c #332295",
"I  c #332B95",
"U  c #3A2B93",
"Y  c #37229C",
"T  c #3B229D",
"R  c #3C389E",
"E  c #3D29A1",
"W  c #433D81",
"Q  c #412A9D",
"!  c #4227A4",
"~  c #442AA5",
"^  c #482DA7",
"/  c #4B27AE",
"(  c #472AA9",
")  c #4C2AAE",
"_  c #4633A7",
"`  c #4830A4",
"'  c #4E2BB1",
"]  c #522DB3",
"[  c #5E29B2",
"{  c #5433B5",
"}  c #5C33B6",
"|  c #553AB4",
" . c #593CB6",
".. c #5735B8",
"X. c #5936B9",
"o. c #5C3BBA",
"O. c #622CB4",
"+. c #6532B5",
"@. c #6831B7",
"#. c #6539B3",
"$. c #6533B8",
"%. c #6A35BA",
"&. c #643BBC",
"*. c #6D3ABD",
"=. c #713DBE",
"-. c #484386",
";. c #4F4695",
":. c #645C9A",
">. c #636286",
",. c #7A7A88",
"<. c #6F6B96",
"1. c #7D7B99",
"2. c #474CA5",
"3. c #4946AB",
"4. c #5E45BC",
"5. c #6C44B2",
"6. c #6F49B1",
"7. c #6241BC",
"8. c #604EBD",
"9. c #6C4BBD",
"0. c #714CB2",
"q. c #7342BE",
"w. c #764EB8",
"e. c #6E55BC",
"r. c #6F59B8",
"t. c #7452B1",
"y. c #7856B4",
"u. c #7759B0",
"i. c #785BB4",
"p. c #5364AE",
"a. c #5360B0",
"s. c #6B63A1",
"d. c #7D64B1",
"f. c #6F3FC0",
"g. c #723FC0",
"h. c #6544C2",
"j. c #6E4EC0",
"k. c #7442C2",
"l. c #7945C3",
"z. c #754BC4",
"x. c #7B4BC3",
"c. c #7752C4",
"v. c #7B56C7",
"b. c #7959C7",
"n. c #7D66C9",
"m. c #7F70CC",
"M. c #826CAF",
"N. c #8572AF",
"B. c #8B7CAF",
"V. c #816BB0",
"C. c #8573B0",
"Z. c #8876B7",
"A. c #8B7AB1",
"S. c #8251C6",
"D. c #8D5FC9",
"F. c #9B72CF",
"G. c #9A70D0",
"H. c #6583BD",
"J. c #84848B",
"K. c #888792",
"L. c #8A899A",
"P. c #95949E",
"I. c #9185AE",
"U. c #968CAE",
"Y. c #988FAE",
"T. c #9D9CA5",
"R. c #9593A9",
"E. c #9B94AE",
"W. c #9E9AAC",
"Q. c #9283B2",
"!. c #9088B1",
"~. c #A09FA6",
"^. c #A19DAD",
"/. c #A7A6AB",
/* pixels */
"/./././././././././././././././././././././././././././././././././././././././././././././././././././././././././././././././.",
"/./././././././././././././././././././././././././././././././././././././././././././././././././././././././././././././././.",
"/./././././././././././././././././././././././././././././././././././././././././././././././././././././././././././././././.",
"/./././././././././././././././././././././././././././././././././././././././././././././././././././././././././././././././.",
"/./././././././././././././././././././././././././././././././././././././././././././././././././././././././././././././././.",
"/./././././././././././././././././././././././././././././././././././././././././././././././././././././././././././././././.",
"/./././././././././././././././././././././././././././././././././././././././././././././././././././././././././././././././.",
"/./././././././././././././././././././././././././././././././././././././././././././././././././././././././././././././././.",
"/./././././././././././././././././././././././././././././././././././././././././././././././././././././././././././././././.",
"/./././././././././././././././././././././././././././././././././././././././././././././././././././././././././././././././.",
"/./././././././././././././././././././././././././././././././././././././././././././././././././././././././././././././././.",
"/./././././././././././././././././././././././././././././././././././././././././././././././././././././././././././././././.",
"/./././././././././././././././././././././././././././././././././././././././././././././././././././././././././././././././.",
"/./././././././././././././././././././././././././././././././././././././././././././././././././././././././././././././././.",
"/./././././././././././././././././././././././././././././././././././././././././././././././././././././././././././././././.",
"/./././././././././././././././././././././././././././././././././././././././././././././././././././././././././././././././.",
"/./././././././././././././././././././././././././././././././././././././././././././././././././././././././././././././././.",
"/./././././././././././././././././././././././././././././././././././././././././././././././././././././././././././././././.",
"/./././././././././././././././././././././././././././././././././././././././././././././././././././././././././././././././.",
"/./././././././././././././././././././././././././././././././././././././././././././././././././././././././././././././././.",
"/./././././././././././././././././././././././././././././././././././././././././././././././././././././././././././././././.",
"/./././././././././././././././././././././././././././././././././././././././././././././././././././././././././././././././.",
"/./././././././././././././././././././././././././././././././././././././././././././././././././././././././././././././././.",
"/./././././././././././././././././././././././././././././././././././././././././././././././././././././././././././././././.",
"/./././././././././././././././././././././././././././././././././././././././././././././././././././././././././././././././.",
"/./././././././././././././././././././././././././././././././././././././././././././././././././././././././././././././././.",
"/./././././././././././././././././././././././././././././././././././././././././././././././././././././././././././././././.",
"/./././././././././././././././././././././././././././././././././././././././././././././././././././././././././././././././.",
"/./././././././././././././././././././././././././././././././././././././././././././././././././././././././././././././././.",
"/./././././././././././././././././././././././././././././././././././././././././././././././././././././././././././././././.",
"/./././././././././././././././././././././././././././././././././././././././././././././././././././././././././././././././.",
"/./././././././././././././././././././././././././././././././././././././././././././././././././././././././././././././././.",
"/./././././././././././././././././././././././././././././././././././././././././././././././././././././././././././././././.",
"/./././././././././././././././././././././././././././././././././././././././././././././././././././././././././././././././.",
"/./././././././././././././././././././././././././././././././././././././././././././././././././././././././././././././././.",
"/././././././././././././././././././././.^.E.I.B.V.d.u.t.0.6.6.A.V.w.t.y.u.V.A.B.U.^.~././././././././././././././././././././.",
"/././././././././././././././././.E.I.V.t.5.+.[ [ [ O.[ O.O.O.O.O.O.O.O.O.O.O.O.O.@.5.y.d.A.Y.^././././././././././././././././.",
"/././././././././././././.^.Y.N.6.#.[ [ [ [ [ [ O.O.O.@.$.$.@.$.$.@.@.@.@.O.@.O.@.*.q.q.*.@.@.5.V.I.^.~././././././././././././.",
"/././././././././././.^.B.t.+.[ [ O.O.O.+.+.@.@.$.%.q.q.z.k.*.*.f.g.g.g.=.*.%.%.=.q.D.F.w.*.O.O.O.O.5.V.Y./././././././././././.",
"/././././././././.E.N.5.[ [ O.O.O.@.@.@.%.%.%.*.=.z.c.n.v.x.k.k.g.g.g.l.g.g.l.g.g.x.D.G.S.=.@.@.O.O.O.[ +.u.U.~././././././././.",
"/././././././.~.N.5.O.O.O.O.$.$.%.*.%.g.g.g.g.g.k.z.b.m.b.z.k.f.k.g.k.k.k.k.k.k.k.x.S.S.x.l.g.g.@.@.@.O.O.O.+.d.^./././././././.",
"/./././././.E.u.O.[ O.O.O.%.%.*.=.=.l.g.g.g.&.&.#... . .| ' ] ' ' ' ' ' ] ] } } &.&.k.k.l.g.g.g.g.g.%.@.O.O.O.O.5.B.^./././././.",
"/././././.Y.5.O.O.O.@.%.%.=.=.k.k.=.&.} ] ' ] ] { { { { { ) ' ' ' ] ' ' ' ' ) ) / ) ' ] ] &.f.f.g.g.g.=.=.%.O.O.O.+.N.~././././.",
"/./././.Y.#.O.O.O.@.%.%.g.k.g.$.{ ] / ] ] ' { &.7...{ ] { { { { ] ] ] ] ' ' ' ' ' ' ' ' / / / ' } g.g.g.g.%.%.%.@.O.O.N././././.",
"/././.E.6.[ [ O.@.%.f.g.f.} ] ' ' ' ] ' ] {  .&.7.o.o.o.............X...{ { { { { { | { ' ) ' / / ' [ $.=.g.*.%.%.@.O.+.B./././.",
"/././.M.[ O.O.@.%.f.f.} ' ' ' ] ] { { { ..{ { { _ ` ! Y H G G G H H H T ! ) ' {  .4.8. ...] ' ' ] / / / ] $.g.g.%.%.O.O.5.^././.",
"/./.E.5.O.O.@.*.f.$.] ' ' ' ] { ....{ ( Y F S S S V Z V N N N N B N N N N B V A P _ | | o.....{ ] ] ' / / / } =.g.=.%.O.O.N././.",
"/./.I.+.+.%.%.*.} ' ' ' ......{ ~ H A N N N S J I I S Z B B A A A A Z V V B B B V Z Z S Y ( ......{ ] ] ] ) ) ] *.=.*.%.O.0././.",
"/./.B.O.*.=.=.} ) ] { ....{ E D N N N N V A L R p.2.I F D A D F G G G D A D B B Z B B B N N F ~ ..X...] ] { } { } %.=.%.O.6././.",
"/./.B.+.%.g.+.' ] { X.X.( D N N Z Z Z A A A I 2.H.a.R P F H H H T Y H H F F D D D D Z B N N N B F ( X.X.{ o.9.9.{ { *.*.@.0././.",
"/./.U.+.%.&.] ] ..o.{ T Z V B A F F F F G H Y _ 3.3.E Y H H H Y T T H H H H H G G F D A Z Z B B N B E ..o.4.j.9.{ ) +.=.%.y.~./.",
"/./.^.0.%.} ] X.o...G Z N Z D H Q Q H H H H P P L f i e 4 4 1 4 4 4 5 r N B D G H H H F D D A Z B N N H X.7.7.o.{ ) ' *.%.A././.",
"/././.N.%.] ] o.} G B Z A D G Q ^ ~ T S a 5 1 = 1 - * * * * % * = % * * = = = = 5 a A H H H F D A A Z B H o.h.X.{ ' / } w.^././.",
"/././.^.i.] X.o.T N Z A A G G H U a 9 = % % * = = = < = < 1 < < < < < = = - = % = = ; u C U H F D B D B N ~ 7.o.{ ' ' #.Q./././.",
"/./././.E.e.X.{ A B Z A G G F p 1 = * = % * = < < < 2 5 3 3 e e 3 3 2 1 2 4 < = = = 7 s h a C G F D D B N A o.7.X.] { C././././.",
"/././././.E.r.^ B B A D G V 1 % % = - - = < 1 2 3 q e t t q e e q e e q 5 5 3 1 - 1 0 W <.h 6 5 A F D B Z N { 7.o.o.C.^././././.",
"/./././././.W.s.J A A D a * % % * * = < 2 3 e t y t e e 3 3 5 4 q e q q w e q 3 3 6 0 j -.g 6 * 1 V F D A V _ h.e.!././././././.",
"/./././././././.B.;.F a = % % = * < 2 3 e t e - $ O o X X   X   X X o # = 2 e t q 3 9 0 0 7 - * % = V D A Z | Z.W./././././././.",
"/././././././././.~.1.c : & % % < < 5 t 3 & o                             X # 1 t t 3 3 4 - = * % % < A U :.E./././././././././.",
"/././././././././././.T.J.v s ; < 3 q 1 o                                       $ t q 3 2 < = * % : d <.R./././././././././././.",
"/./././././././././././././.R.,.v j i #                                           - t q 2 - 8 d >.L.~./././././././././././././.",
"/././././././././././././././././.P.L.M z , @ + .                               . > K -.>.1.P.~././././././././././././././././.",
"/././././././././././././././././././././.~.P.K.J.m b x l l k k k k k l z b n M J.R.T./././././././././././././././././././././.",
"/./././././././././././././././././././././././././././././././././././././././././././././././././././././././././././././././."
};
