/* XPM */
static char *__BHA1721365577[] = {
/* columns rows colors chars-per-pixel */
"64 64 172 2 ",
"   c #02012A",
".  c #08082C",
"X  c #040234",
"o  c #0F0F30",
"O  c #06043D",
"+  c #18173A",
"@  c #080547",
"#  c #0A064D",
"$  c #060457",
"%  c #0C0954",
"&  c #070459",
"*  c #09065C",
"=  c #0C095D",
"-  c #100D5E",
";  c #211F5F",
":  c #302F46",
">  c #0A0662",
",  c #0D0965",
"<  c #0D096B",
"1  c #110A65",
"2  c #120B6C",
"3  c #131062",
"4  c #1A1960",
"5  c #161169",
"6  c #18136A",
"7  c #1F1B6B",
"8  c #0E0A74",
"9  c #120C74",
"0  c #1A0E74",
"q  c #150D7A",
"w  c #1D0F7A",
"e  c #1C1273",
"r  c #211B6A",
"t  c #251B7C",
"y  c #292862",
"u  c #2A2968",
"i  c #3E3D6C",
"p  c #292371",
"a  c #2D2871",
"s  c #29267A",
"d  c #302976",
"f  c #3B347C",
"g  c #434255",
"h  c #464658",
"j  c #4E4D5E",
"k  c #565564",
"l  c #4A487A",
"z  c #63626D",
"x  c #6C6B75",
"c  c #72717B",
"v  c #210F86",
"b  c #220F88",
"n  c #231286",
"m  c #25128A",
"M  c #29158E",
"N  c #261889",
"B  c #2A1A8D",
"V  c #2B1692",
"C  c #2E1993",
"Z  c #2F1998",
"A  c #321B95",
"S  c #341D9A",
"D  c #2F268C",
"F  c #3D3986",
"G  c #2F2392",
"H  c #352394",
"J  c #332C94",
"K  c #37209C",
"L  c #3A229C",
"P  c #37289C",
"I  c #3C349A",
"U  c #3D26A0",
"Y  c #3B2EA1",
"T  c #412A9F",
"R  c #4126A3",
"E  c #4429A5",
"W  c #4B27AE",
"Q  c #4C2BAE",
"!  c #4237A6",
"~  c #4934A8",
"^  c #4E2AB0",
"/  c #522DB2",
"(  c #5E2AB2",
")  c #4F30B0",
"_  c #5432B5",
"`  c #5C34B7",
"'  c #5539B5",
"]  c #5B3CB7",
"[  c #5735B8",
"{  c #5836B9",
"}  c #5C3BBB",
"|  c #622CB4",
" . c #6631B6",
".. c #6934B7",
"X. c #6739B2",
"o. c #693CB2",
"O. c #6534B8",
"+. c #6A35BA",
"@. c #623CBB",
"#. c #6D3ABD",
"$. c #703DBF",
"%. c #544C8B",
"&. c #515087",
"*. c #494092",
"=. c #605794",
"-. c #686786",
";. c #6A6A82",
":. c #6F6E8E",
">. c #797881",
",. c #7D7D8D",
"<. c #666290",
"1. c #6B669A",
"2. c #474FA4",
"3. c #4746A9",
"4. c #5C44BB",
"5. c #6344B4",
"6. c #6C44B2",
"7. c #6F49B1",
"8. c #6242BC",
"9. c #604CBD",
"0. c #7046B7",
"q. c #704BB2",
"w. c #7341BD",
"e. c #7554B2",
"r. c #7759B0",
"t. c #795CB1",
"y. c #7257BE",
"u. c #5263AD",
"i. c #5869B3",
"p. c #7C61B0",
"a. c #7B6AB8",
"s. c #637DBB",
"d. c #723FC0",
"f. c #6444C1",
"g. c #7442C2",
"h. c #7946C3",
"j. c #764CC4",
"k. c #7E4DC5",
"l. c #7654C4",
"z. c #7A56C7",
"x. c #7D65CA",
"c. c #7D68CB",
"v. c #836FAE",
"b. c #8573AF",
"n. c #836DB0",
"m. c #8676B3",
"M. c #8D7CB1",
"N. c #8251C6",
"B. c #8453C8",
"V. c #9062CC",
"C. c #9A70CF",
"Z. c #9A70D0",
"A. c #85848B",
"S. c #888797",
"D. c #8C8B98",
"F. c #929197",
"G. c #95949E",
"H. c #8784A3",
"J. c #8E83AE",
"K. c #9286AF",
"L. c #958CAE",
"P. c #988FAF",
"I. c #9391A5",
"U. c #9897A5",
"Y. c #9C9BA3",
"T. c #9B95AD",
"R. c #9E9AAC",
"E. c #9287B3",
"W. c #A09FA7",
"Q. c #A19EAC",
"!. c #A2A1A6",
"~. c #A7A6AB",
/* pixels */
"~.~.~.~.~.~.~.~.~.~.~.~.~.~.~.~.~.~.~.~.~.~.~.~.~.~.~.~.~.~.~.~.~.~.~.~.~.~.~.~.~.~.~.~.~.~.~.~.~.~.~.~.~.~.~.~.~.~.~.~.~.~.~.~.",
"~.~.~.~.~.~.~.~.~.~.~.~.~.~.~.~.~.~.~.~.~.~.~.~.~.~.~.~.~.~.~.~.~.~.~.~.~.~.~.~.~.~.~.~.~.~.~.~.~.~.~.~.~.~.~.~.~.~.~.~.~.~.~.~.",
"~.~.~.~.~.~.~.~.~.~.~.~.~.~.~.~.~.~.~.~.~.~.~.~.~.~.~.~.~.~.~.~.~.~.~.~.~.~.~.~.~.~.~.~.~.~.~.~.~.~.~.~.~.~.~.~.~.~.~.~.~.~.~.~.",
"~.~.~.~.~.~.~.~.~.~.~.~.~.~.~.~.~.~.~.~.~.~.~.~.~.~.~.~.~.~.~.~.~.~.~.~.~.~.~.~.~.~.~.~.~.~.~.~.~.~.~.~.~.~.~.~.~.~.~.~.~.~.~.~.",
"~.~.~.~.~.~.~.~.~.~.~.~.~.~.~.~.~.~.~.~.~.~.~.~.~.~.~.~.~.~.~.~.~.~.~.~.~.~.~.~.~.~.~.~.~.~.~.~.~.~.~.~.~.~.~.~.~.~.~.~.~.~.~.~.",
"~.~.~.~.~.~.~.~.~.~.~.~.~.~.~.~.~.~.~.~.~.~.~.~.~.~.~.~.~.~.~.~.~.~.~.~.~.~.~.~.~.~.~.~.~.~.~.~.~.~.~.~.~.~.~.~.~.~.~.~.~.~.~.~.",
"~.~.~.~.~.~.~.~.~.~.~.~.~.~.~.~.~.~.~.~.~.~.~.~.~.~.~.~.~.~.~.~.~.~.~.~.~.~.~.~.~.~.~.~.~.~.~.~.~.~.~.~.~.~.~.~.~.~.~.~.~.~.~.~.",
"~.~.~.~.~.~.~.~.~.~.~.~.~.~.~.~.~.~.~.~.~.~.~.~.~.~.~.~.~.~.~.~.~.~.~.~.~.~.~.~.~.~.~.~.~.~.~.~.~.~.~.~.~.~.~.~.~.~.~.~.~.~.~.~.",
"~.~.~.~.~.~.~.~.~.~.~.~.~.~.~.~.~.~.~.~.~.~.~.~.~.~.~.~.~.~.~.~.~.~.~.~.~.~.~.~.~.~.~.~.~.~.~.~.~.~.~.~.~.~.~.~.~.~.~.~.~.~.~.~.",
"~.~.~.~.~.~.~.~.~.~.~.~.~.~.~.~.~.~.~.~.~.~.~.~.~.~.~.~.~.~.~.~.~.~.~.~.~.~.~.~.~.~.~.~.~.~.~.~.~.~.~.~.~.~.~.~.~.~.~.~.~.~.~.~.",
"~.~.~.~.~.~.~.~.~.~.~.~.~.~.~.~.~.~.~.~.~.~.~.~.~.~.~.~.~.~.~.~.~.~.~.~.~.~.~.~.~.~.~.~.~.~.~.~.~.~.~.~.~.~.~.~.~.~.~.~.~.~.~.~.",
"~.~.~.~.~.~.~.~.~.~.~.~.~.~.~.~.~.~.~.~.~.~.~.~.~.~.~.~.~.~.~.~.~.~.~.~.~.~.~.~.~.~.~.~.~.~.~.~.~.~.~.~.~.~.~.~.~.~.~.~.~.~.~.~.",
"~.~.~.~.~.~.~.~.~.~.~.~.~.~.~.~.~.~.~.~.~.~.~.~.~.~.~.~.~.~.~.~.~.~.~.~.~.~.~.~.~.~.~.~.~.~.~.~.~.~.~.~.~.~.~.~.~.~.~.~.~.~.~.~.",
"~.~.~.~.~.~.~.~.~.~.~.~.~.~.~.~.~.~.~.~.~.~.~.~.~.~.~.~.~.~.~.~.~.~.~.~.~.~.~.~.~.~.~.~.~.~.~.~.~.~.~.~.~.~.~.~.~.~.~.~.~.~.~.~.",
"~.~.~.~.~.~.~.~.~.~.~.~.~.~.~.~.~.~.~.~.~.~.~.~.~.~.~.~.~.~.~.~.~.~.~.~.~.~.~.~.~.~.~.~.~.~.~.~.~.~.~.~.~.~.~.~.~.~.~.~.~.~.~.~.",
"~.~.~.~.~.~.~.~.~.~.~.~.~.~.~.~.~.~.~.~.~.~.~.~.~.~.~.~.~.~.~.~.~.~.~.~.~.~.~.~.~.~.~.~.~.~.~.~.~.~.~.~.~.~.~.~.~.~.~.~.~.~.~.~.",
"~.~.~.~.~.~.~.~.~.~.~.~.~.~.~.~.~.~.~.~.~.~.~.~.~.~.~.~.~.~.~.~.~.~.~.~.~.~.~.~.~.~.~.~.~.~.~.~.~.~.~.~.~.~.~.~.~.~.~.~.~.~.~.~.",
"~.~.~.~.~.~.~.~.~.~.~.~.~.~.~.~.~.~.~.~.~.~.~.~.~.~.~.~.~.~.~.~.~.~.~.~.~.~.~.~.~.~.~.~.~.~.~.~.~.~.~.~.~.~.~.~.~.~.~.~.~.~.~.~.",
"~.~.~.~.~.~.~.~.~.~.~.~.~.~.~.~.~.~.~.~.~.~.~.~.~.~.~.~.~.~.~.~.~.~.~.~.~.~.~.~.~.~.~.~.~.~.~.~.~.~.~.~.~.~.~.~.~.~.~.~.~.~.~.~.",
"~.~.~.~.~.~.~.~.~.~.~.~.~.~.~.~.~.~.~.~.~.~.~.~.~.~.~.~.~.~.~.~.~.~.~.~.~.~.~.~.~.~.~.~.~.~.~.~.~.~.~.~.~.~.~.~.~.~.~.~.~.~.~.~.",
"~.~.~.~.~.~.~.~.~.~.~.~.~.~.~.~.~.~.~.~.~.~.~.~.~.~.~.~.~.~.~.~.~.~.~.~.~.~.~.~.~.~.~.~.~.~.~.~.~.~.~.~.~.~.~.~.~.~.~.~.~.~.~.~.",
"~.~.~.~.~.~.~.~.~.~.~.~.~.~.~.~.~.~.~.~.~.~.~.~.~.~.~.~.~.~.~.~.~.~.~.~.~.~.~.~.~.~.~.~.~.~.~.~.~.~.~.~.~.~.~.~.~.~.~.~.~.~.~.~.",
"~.~.~.~.~.~.~.~.~.~.~.~.~.~.~.~.~.~.~.~.~.~.~.~.~.~.~.~.~.~.~.~.~.~.~.~.~.~.~.~.~.~.~.~.~.~.~.~.~.~.~.~.~.~.~.~.~.~.~.~.~.~.~.~.",
"~.~.~.~.~.~.~.~.~.~.~.~.~.~.~.~.~.~.~.~.~.~.~.~.~.~.~.~.~.~.~.~.~.~.~.~.~.~.~.~.~.~.~.~.~.~.~.~.~.~.~.~.~.~.~.~.~.~.~.~.~.~.~.~.",
"~.~.~.~.~.~.~.~.~.~.~.~.~.~.~.~.~.~.~.~.~.~.~.~.~.~.~.~.~.~.~.~.~.~.~.~.~.~.~.~.~.~.~.~.~.~.~.~.~.~.~.~.~.~.~.~.~.~.~.~.~.~.~.~.",
"~.~.~.~.~.~.~.~.~.~.~.~.~.~.~.~.~.~.~.~.~.~.~.~.~.~.~.~.~.~.~.~.~.~.~.~.~.~.~.~.~.~.~.~.~.~.~.~.~.~.~.~.~.~.~.~.~.~.~.~.~.~.~.~.",
"~.~.~.~.~.~.~.~.~.~.~.~.~.~.~.~.~.~.~.~.~.~.~.~.~.~.~.~.~.~.~.~.~.~.~.~.~.~.~.~.~.~.~.~.~.~.~.~.~.~.~.~.~.~.~.~.~.~.~.~.~.~.~.~.",
"~.~.~.~.~.~.~.~.~.~.~.~.~.~.~.~.~.~.~.~.~.~.~.~.~.~.~.~.~.~.~.~.~.~.~.~.~.~.~.~.~.~.~.~.~.~.~.~.~.~.~.~.~.~.~.~.~.~.~.~.~.~.~.~.",
"~.~.~.~.~.~.~.~.~.~.~.~.~.~.~.~.~.~.~.~.~.~.~.~.~.~.~.~.~.~.~.~.~.~.~.~.~.~.~.~.~.~.~.~.~.~.~.~.~.~.~.~.~.~.~.~.~.~.~.~.~.~.~.~.",
"~.~.~.~.~.~.~.~.~.~.~.~.~.~.~.~.~.~.~.~.~.~.~.~.~.~.~.~.~.~.~.~.~.~.~.~.~.~.~.~.~.~.~.~.~.~.~.~.~.~.~.~.~.~.~.~.~.~.~.~.~.~.~.~.",
"~.~.~.~.~.~.~.~.~.~.~.~.~.~.~.~.~.~.~.~.~.~.~.~.~.~.~.~.~.~.~.~.~.~.~.~.~.~.~.~.~.~.~.~.~.~.~.~.~.~.~.~.~.~.~.~.~.~.~.~.~.~.~.~.",
"~.~.~.~.~.~.~.~.~.~.~.~.~.~.~.~.~.~.~.~.~.~.~.~.~.~.~.~.~.~.~.~.~.~.~.~.~.~.~.~.~.~.~.~.~.~.~.~.~.~.~.~.~.~.~.~.~.~.~.~.~.~.~.~.",
"~.~.~.~.~.~.~.~.~.~.~.~.~.~.~.~.~.~.~.~.~.~.~.~.~.~.~.~.~.~.~.~.~.~.~.~.~.~.~.~.~.~.~.~.~.~.~.~.~.~.~.~.~.~.~.~.~.~.~.~.~.~.~.~.",
"~.~.~.~.~.~.~.~.~.~.~.~.~.~.~.~.~.~.~.~.~.~.~.~.~.~.~.~.~.~.~.~.~.~.~.~.~.~.~.~.~.~.~.~.~.~.~.~.~.~.~.~.~.~.~.~.~.~.~.~.~.~.~.~.",
"~.~.~.~.~.~.~.~.~.~.~.~.~.~.~.~.~.~.~.~.~.~.~.~.~.~.~.~.~.~.~.~.~.~.~.~.~.~.~.~.~.~.~.~.~.~.~.~.~.~.~.~.~.~.~.~.~.~.~.~.~.~.~.~.",
"~.~.~.~.~.~.~.~.~.~.~.~.~.~.~.~.~.~.~.~.Q.Q.T.K.M.n.p.r.e.7.7.0.m.n.q.q.e.e.n.M.K.L.T.W.~.~.~.~.~.~.~.~.~.~.~.~.~.~.~.~.~.~.~.~.",
"~.~.~.~.~.~.~.~.~.~.~.~.~.~.~.~.Q.Q.M.n.n.0.o.| | | ( | | | | ( | | | | | | | | | | X.0.t.m.P.R.~.~.~.~.~.~.~.~.~.~.~.~.~.~.~.~.",
"~.~.~.~.~.~.~.~.~.~.~.~.~.Q.P.v.e.o. ...w.w.$...O. . .O.| | d.| .. .O.+... .| | | | | ( | | | 6.p.K.Q.W.~.~.~.~.~.~.~.~.~.~.~.~.",
"~.~.~.~.~.~.~.~.~.~.~.T.M.e. .| | | ..w.B.C.k.d.+.d.#.#.d.d.d.d.#.$.#.g.j.w.+.+. . . .| | | | ( | ( o.n.P.~.~.~.~.~.~.~.~.~.~.~.",
"~.~.~.~.~.~.~.~.~.T.v.6.| | | | ....$.w.V.Z.N.g.d.d.d.d.g.d.d.g.g.g.h.z.x.z.h.$.#.#.#....... . .| | ( ( | r.P.~.~.~.~.~.~.~.~.~.",
"~.~.~.~.~.~.~.Q.M.6.| | | |  .+.+.#.d.h.B.B.N.h.g.g.g.g.g.g.d.g.g.d.g.l.c.c.l.h.w.g.$.$.d.#.#.O.+.| | | | | | t.Q.Q.~.~.~.~.~.~.",
"~.~.~.~.~.~.T.p.| |  . .+.+.+.d.h.$.g.h.h.g.d.O.` / ( / / ^ ^ ^ / ^ ^ _ ' ] { ` ` @.#.d.g.g.d.d.d.+.+. .| | | | o.M.~.~.~.~.~.~.",
"~.~.~.~.~.L.q.( | |  . .d.d.d.d.$.#.O.( / ^ ^ W W W ^ Q ^ ^ ^ ^ ^ ^ ) ) / _ _ _ _ / / / / O.#.g.d.d.d.#.#.| | | | | v.W.~.~.~.~.",
"~.~.~.~.P.7.| |  . .d.d.d.d.d.| | ^ ^ ^ ^ ^ ^ ^ ^ / / / ^ _ _ / _ _ _ _ _ _ ' ] 5.{ / Q ^ ^ W / ` d.d.d.d.#...| | | | v.W.~.~.~.",
"~.~.~.T.q.| | ..O.d.d.d.d.( ^ W ^ ^ ^ ^ ) _ ' ) _ _ _ _ { _ { { [ { { { { } } 8.8.} _ / / / / ^ ^ ^ / d.d.d.#... .| | | M.~.~.~.",
"~.~.~.n.| | O.#.d.d.O.` W W ^ ^ ^ ^ ^ ) ' 4.9.4.' ) Q E R L S A A S A A S L E Q ) _ ' { [ / _ / _ ^ W W / @.d.#... .| | o.Q.~.~.",
"~.~.T.6.|  .#.$.d.O.^ W W ^ / _ _ _ [ { ' ' ~ U C m b v v v n b b v v v b n m N B B B S E / _ _ _ _ / / ^ W ( $.+... .| | b.~.~.",
"~.~.K.|  ...$.$.` ^ ^ ^ ^ / _ _ _ { ) E Z N N b b v b b b m M M m M m b m B D J J B n v v b C R ^ [ [ _ _ / ^ / $.+.+. .| q.~.~.",
"~.~.M.| ..#.d.` _ _ { / _ _ _ { / S m v v n b m b b M V M C C A C V V V V G I u.2.J V b n b n v M S ^ { { _ / Q / ..$.#...7.!.~.",
"~.~.M.| +.#.O._ X.y.@.' { { _ S m v b b m m m M V V V V S S S L K S Z Z Z J 3.s.i.I C V M m n n b b m K _ } { _ / / #.#. .0.~.~.",
"~.~.L...#.#.^ / } l.8.} ] Q M n b b m b M M V Z C S S S S S S S K S S S S U ! 3.3.Y S Z C C A C V m m v M Q } [ _ / ` #. .t.!.~.",
"~.~.Q.0.$.( Q / ' 8.8.@.E m b n b M M V C S S S S C M b 0 0 2 2 1 , 1 , 2 e t D D P K S S S L T P C m m b m Q @.} _ / ..+.M.~.~.",
"~.~.~.m.+./ W / { } } Q m m m m M C C S S C n 0 , * & & & & & & * * & & * & * = = > 1 0 N A T ~ T S C m M b m ^ } { / O.e.T.~.~.",
"~.~.~.Q.e.^ / / } @.' C b b M M C S S H t 5 % $ & & * * * * > * > > > > > * * & * & $ & $ 1 e A L S S V M m b M { { _ @.E.~.~.~.",
"~.~.~.~.T.5./ _ } d.R v b b M C A B s d a 7 - = * > , , < < < 2 8 9 2 2 < < , > > * * * * $ * * 6 M A A V M b b U } } m.Q.~.~.~.",
"~.~.~.~.~.T.9.} } 4.S b m V C C e 1 r %.=.p 3 > , , 2 < < 8 8 8 8 9 9 8 9 q 9 9 < < > , * * * & $ & 0 C V V m b A 8.m.~.~.~.~.~.",
"~.~.~.~.~.~.R.a.f.4.V m m C V 2 $ = 7 f *.u 6 < 8 8 8 8 8 8 9 2 < 2 < < 8 9 9 q q 9 9 < > * & & $ $ $ 2 M C m N *.J.~.~.~.~.~.~.",
"~.~.~.~.~.~.~.~.E.l.C m V V 2 & * * 3 r 7 5 2 < 8 9 < > # O X X X X     X X O @ = 2 9 8 9 < > * & $ $ $ 2 M I 1.U.~.~.~.~.~.~.~.",
"~.~.~.~.~.~.~.~.~.Q.,.3.A w * $ & & = , , < 9 q < # O                               O 1 9 9 < > * & $ % y <.I.~.~.~.~.~.~.~.~.~.",
"~.~.~.~.~.~.~.~.~.~.~.Q.H.l ; $ & & * > < 8 9 , O                                       % 9 2 < > 4 i ;.G.!.~.~.~.~.~.~.~.~.~.~.",
"~.~.~.~.~.~.~.~.~.~.~.~.~.!.U.,.l u 3 > < 8 8 O                                 .         3 s l -.S.Y.~.~.~.~.~.~.~.~.~.~.~.~.~.",
"~.~.~.~.~.~.~.~.~.~.~.~.~.~.~.~.~.Y.D.:.&.F s +                               . o + : h z ,.I.W.~.~.~.~.~.~.~.~.~.~.~.~.~.~.~.~.",
"~.~.~.~.~.~.~.~.~.~.~.~.~.~.~.~.~.~.~.~.~.R.Y.D.A.c z k j h h h g : g j k z x >.A.F.G.!.~.~.~.~.~.~.~.~.~.~.~.~.~.~.~.~.~.~.~.~.",
"~.~.~.~.~.~.~.~.~.~.~.~.~.~.~.~.~.~.~.~.~.~.~.~.~.~.~.~.~.~.~.~.~.~.~.~.~.~.~.~.~.~.~.~.~.~.~.~.~.~.~.~.~.~.~.~.~.~.~.~.~.~.~.~."
};
