/* XPM */
static char *__WallA_BHA1721365579[] = {
/* columns rows colors chars-per-pixel */
"64 64 220 2 ",
"   c #000000",
".  c #0B0B0A",
"X  c #100F0F",
"o  c #18120E",
"O  c #131314",
"+  c #191616",
"@  c #1C1B1B",
"#  c #231C18",
"$  c #02012A",
"%  c #0A072B",
"&  c #1B1828",
"*  c #080637",
"=  c #161136",
"-  c #231E35",
";  c #232222",
":  c #292828",
">  c #322D2D",
",  c #272338",
"<  c #312D31",
"1  c #353334",
"2  c #393633",
"3  c #37343A",
"4  c #3D3B3B",
"5  c #642B1D",
"6  c #4F2527",
"7  c #413E3C",
"8  c #703E30",
"9  c #53423B",
"0  c #64433A",
"q  c #784F3D",
"w  c #080549",
"e  c #1C1A4B",
"r  c #060457",
"t  c #0B0953",
"y  c #070459",
"u  c #09055B",
"i  c #0C095B",
"p  c #100D5F",
"a  c #1B1859",
"s  c #281D54",
"d  c #383645",
"f  c #272459",
"g  c #342E53",
"h  c #34235D",
"j  c #0A0763",
"k  c #0E0963",
"l  c #0A0769",
"z  c #0E096C",
"x  c #110C63",
"c  c #130C6B",
"v  c #191465",
"b  c #1E1A6C",
"n  c #0E0973",
"m  c #0F0A78",
"M  c #110C73",
"N  c #180E77",
"B  c #140D79",
"V  c #1D1377",
"C  c #231C68",
"Z  c #251D6C",
"A  c #321F6E",
"S  c #261A76",
"D  c #332D6C",
"F  c #2B2274",
"G  c #342879",
"H  c #4F3753",
"J  c #483868",
"K  c #4D3076",
"L  c #414041",
"P  c #4B4746",
"I  c #4E4B4A",
"U  c #524E4A",
"Y  c #57524E",
"T  c #5A544E",
"R  c #424154",
"E  c #4D4D58",
"W  c #564952",
"Q  c #5A585A",
"!  c #6C4A43",
"~  c #774D48",
"^  c #745249",
"/  c #635757",
"(  c #625D58",
")  c #64605B",
"_  c #69645F",
"`  c #585764",
"'  c #4A4974",
"]  c #6D4B71",
"[  c #655978",
"{  c #6D6968",
"}  c #726E6E",
"|  c #6C6978",
" . c #777372",
".. c #78777A",
"X. c #A25D30",
"o. c #865C48",
"O. c #896A5B",
"+. c #966B58",
"@. c #AA784C",
"#. c #B47E54",
"$. c #866F6F",
"%. c #936D63",
"&. c #B8835A",
"*. c #B58D72",
"=. c #D39A6B",
"-. c #D9A475",
";. c #E6AF7B",
":. c #220F87",
">. c #220F88",
",. c #231286",
"<. c #281A82",
"1. c #25128A",
"2. c #29158E",
"3. c #2B1A8C",
"4. c #2B1691",
"5. c #2E1993",
"6. c #311B95",
"7. c #341D9A",
"8. c #2D2387",
"9. c #362B8A",
"0. c #332295",
"q. c #352797",
"w. c #3B239D",
"e. c #3D389E",
"r. c #3D29A1",
"t. c #432B8E",
"y. c #503689",
"u. c #472D94",
"i. c #522C92",
"p. c #5A3696",
"a. c #613B9E",
"s. c #442AA5",
"d. c #4429A6",
"f. c #4B27AE",
"g. c #4C2AAE",
"h. c #572CAC",
"j. c #4733A6",
"k. c #5338AE",
"l. c #4E2BB0",
"z. c #522DB3",
"x. c #5E2AB2",
"c. c #5533B5",
"v. c #5B33B6",
"b. c #573BB4",
"n. c #5735B8",
"m. c #5936B9",
"M. c #5C3BBA",
"N. c #6137A3",
"B. c #622CB4",
"V. c #6532B5",
"C. c #6636B4",
"Z. c #6533B8",
"A. c #6A35BA",
"S. c #643CBC",
"D. c #6D3ABD",
"F. c #713DBE",
"G. c #4D4888",
"H. c #68578B",
"J. c #66579A",
"K. c #636286",
"L. c #726C83",
"P. c #797887",
"I. c #6F6B96",
"U. c #7D7B99",
"Y. c #4849A8",
"T. c #5E45BC",
"R. c #7456AD",
"E. c #6C44B2",
"W. c #6241BC",
"Q. c #6B4BB8",
"!. c #714DB2",
"~. c #7343BD",
"^. c #754FBB",
"/. c #6C55B8",
"(. c #7656B2",
"). c #5362AF",
"_. c #6B63A1",
"`. c #7E65B1",
"'. c #6F3FC0",
"]. c #723EC0",
"[. c #6A46C1",
"{. c #7442C2",
"}. c #7A49C3",
"|. c #7755C1",
" X c #806DA9",
".X c #8673AF",
"XX c #8B7CAF",
"oX c #826CB0",
"OX c #8473B0",
"+X c #8A78B4",
"@X c #8555C7",
"#X c #966BCE",
"$X c #6583BD",
"%X c #87868B",
"&X c #9C8D8B",
"*X c #898896",
"=X c #979294",
"-X c #95949D",
";X c #98979C",
":X c #9C9A9F",
">X c #BC9E86",
",X c #A39B94",
"<X c #A89A97",
"1X c #B4A499",
"2X c #8B81AA",
"3X c #9287AE",
"4X c #968CAE",
"5X c #9E9CA3",
"6X c #9593A9",
"7X c #9B94AE",
"8X c #9E9AAC",
"9X c #9186B2",
"0X c #A09FA5",
"qX c #A19DAD",
"wX c #A3A2A6",
"eX c #ADA6A7",
"rX c #A7A6AB",
"tX c #BDABA1",
"yX c #C19F89",
"uX c #F1BA86",
/* pixels */
"rXrXrXrXrXrXrXrXrXrXrXrXrXrXrXrXrXrXrXrXrXrXrXrXrXrXrXrXrXrXrXeXrXrXrXrXrXrXrXrXrXrXrXrXrXrXrXrXrXrXrXrXrXrXrXrXrXrXrXrXrXrXeXrX",
"rXrXrXrXrXrXrXrXrXrXrXrXrXrXrXrXrXrXrXrXrXrXrXrXrXrXrXrXeXeXrXrXrXrXrXrXrXrXrXrXrXrXrXrXrXrXrXrXrXrXrXrXrXrXrXrXrXrXrXrXrXrXrXrX",
"rXrXrXrXrXrXrXrXrXrXrXrXrXrXrXrXrXrXrXrXrXrXrXrXrXrXrXrX Xo.;XrXrXrXrXrXrXrXrXrXrXrXrXrXrXrXrXrXrXrXrXrXrXrXrXrXrXrXrXrXrXrXrXrX",
"rXrXrXrXrXrXrXrXrXrXrXrXrXrXrXrXrXrXrXrXrXrXrXrXrXrXrX;X0 5 O.eXrXrXrXrXrXrXrXrXrXrXrXrXrXrXrXrXrXrXrXrXrXrXrXrXrXrXrXrXrXrXrXrX",
"rXrXrXrXrXrXrXrXrXrXrXrXrXrXrXrXrXrXrXrXrXrXrXrXrXrXwX$.5 5 8 &XrXrXrXrXrXrXrXrXrXrXrXrXrXrXrXrXrXrXrXrXrXrXrXrXrXrXrXrXrXrXrXrX",
"rXrXrXrXrXrXrXrXrXrXrXrXrXrXrXrXrXrXrXrXrXrXrXrXrXrXwX%.&.&.=.&XrXrXrXrXrXrXrXrXrXrXrXrXrXrXrXrXrXrXrXrXrXrXrXrXrXrXrXrXrXrXrXrX",
"rXrXrXrXrXrXrXrXrXrXrXrXrXrXrXrXrXrXrXrXrXrXrXrXrXrXwX*.uX;.;.<XrXrXrXrXrXrXrXrXrXrXrXrXrXrXrXrXrXrXrXrXrXrXrXrXrXrXrXrXrXrXrXrX",
"rXrXrXrXrXrXrXrXrXrXrXrXrXrXrXrXrXrXrXrXrXrXrXrXrXrXrX*.-.;.-.1XrXrXrXrXrXrXrXrXrXrXrXrXrXrXrXrXrXrXrXrXrXrXrXrXrXrXrXrXrXrXrXrX",
"rXrXrXrXrXrXrXrXrXrXrXrXrXrXrXrXrXrXrXrXrXrXrXrXrXrXrX>X=.-.=.,XrXrXrXrXrXrXrXrXrXrXrXrXrXrXrXrXrXrXrXrXrXrXrXrXrXrXrXrXrXrXrXrX",
"rXrXrXrXrXrXrXrXrXrXrXrXrXrXrXrXrXrXrXrXrXrXrXrXrXrXrX*.;.;.-.<XrXrXrXrXrXrXrXrXrXrXrXrXrXrXrXrXrXrXrXrXrXrXrXrXrXrXrXrXrXrXrXrX",
"rXrXrXrXrXrXrXrXrXrXrXrXrXrXrXrXrXrXrXrXrXrXrXrXrXrXrXyX=.&.-.<XrXrXrXrXrXrXrXrXrXrXrXrXrXrXrXrXrXrXrXrXrXrXrXrXrXrXrXrXrXrXrXrX",
"rXrXrXrXrXrXrXrXrXrXrXrXrXrXrXrXrXrXrXrXrXrXrXrXwXrXeX&Xo.q O.wXrXrXrXrXrXrXrXrXrXrXrXrXrXrXrXrXrXrXrXrXrXrXrXrXrXrXrXrXrXrXrXrX",
"rXrXrXrXrXrXrXrXrXrXrXrXrXrXrXrXrXrXrXrXrXrX0XQ I U E I .   ; Q Q Q Q ..rXrXrXrXrXrXrXrXrXrXrXrXrXrXrXrXrXrXrXrXrXrXrXrXrXrXrXrX",
"rXrXrXrXrXrXrXrXrXrXrXrXrXrXrXrXrXrXrXrXrXrX;X;                       L wXrXrXrXrXrXrXrXrXrXrXrXrXrXrXrXrXrXrXrXrXrXrXrXrXrXrXrX",
"rXrXrXrXrXrXrXrXrXrXrXrXrXrXrXrXrXrXrXrXrXrX;X;                       L wXrXrXrXrXrXrXrXrXrXrXrXrXrXrXrXrXrXrXrXrXrXrXrXrXrXrXrX",
"rXrXrXrXrXrXrXrXrXrXrXrXrXrXrXrXrXrXrXrXrXrX;X;                       L wXrXrXrXrXrXrXrXrXrXrXrXrXrXrXrXrXrXrXrXrXrXrXrXrXrXrXrX",
"rXrXrXrXrXrXrXrXrXrXrXrXrXrXrXrXrXrXrXrXrXrXrX:                       L rXrXrXrXrXrXrXrXrXrXrXrXrXrXrXrXrXrXrXrXrXrXrXrXrXrXrXrX",
"eXrXrXrXrXrXrXrXrXrXrXrXrXrXrXrXrXrXrXrXrXrX;X;                       L rXrXrXrXrXrXrXrXrXrXrXrXrXrXrXrXrXrXrXrXrXrXrXrXrXrXrXrX",
"rXrXrXrXrXrXrXrXrXrXrXeXrXrXrXrXrXrXrXrXrXrX;X;                       L rXrXrXrXrXrXtXrXrXrXrXrXrXrXrXrXrXrXeXrXrXrXrXrXrXrXrXrX",
"rXrXrXrXrXrXrXrXeXrXrXrXrXrXrXrXrXrXrXrXrXrX;X;       . @ @ +         L rXrXrXrXrXrXrXrXrXrXrXrXrXrXrXrXrXrXrXrXrXrXrXrXrXrXrXrX",
"rXrXrXrXrXrXrXrXrXrXrXrXrXrXrXrXrXrXrXrXrXrX;X;       : U Y 9 X       L rXrXrXrXrXrXrXrXrXrXrXrXrXrXrXrXrXrXrXrXrXrXrXrXrXrXrXrX",
"rXrXrXrXrXrXrXrXrXrXrXrXrXrXrXrXrXrXrXrXrXrX-X;       1 Y T T #       L rXrXrXrXrXrXrXrXrXrXrXrXrXrXrXrXrXrXrXrXrXrXrXrXrXrXrXrX",
"rXrXrXrXrXrXrXrXrXrXrXrXrXrXrXrXrXrXrXrXrXrX;X;     . 2 Y Y U ;       L rXrXrXrXrXrXrXrXrXrXrXrXrXrXrXrXrXrXrXrXrXrXrXrXrXrXrXrX",
"rXrXrXrXrXrXrXrXrXrXrXrXrXrXrXrXrXrXrXrXrXrX-X;     . L Y Y T > O X   L rXrXrXrXrXrXrXrXrXrXrXrXrXrXrXrXrXrXrXrXrXrXrXrXrXrXrXrX",
"rXrXrXrXrXrXrXrXrXrXrXrXrXrXrXrXrXrXrXrXrXrX;X1 : ; X 9 Y Y Y 2 U ( : L wXrXrXrXrXrXrXrXrXrXrXrXrXrXrXrXrXrXrXrXrXrXrXrXrXrXrXrX",
"rXrXrXrXrXrXrXrXrXrXrXrXrXrXrXrXrXrXrXrXrXrX;XI { { ; I Y T Y 4 9 ) P I wXrXrXrXrXrXrXrXrXrXrXrXrXrXrXrXrXrXrXrXrXrXrXrXrXrXrXrX",
"rXrXrXrXrXrXrXrXrXrXrXrXrXrXrXrXrXrXrXrXrXrXwX( @ # # U Y Y Y 9 o o 9 ..rXrXrXrXrXrXrXrXrXrXrXrXrXrXrXrXrXrXrXrXrXrXrXrXrXrXrXrX",
"rXrXrXrXrXrXrXrXrXrXrXrXrXrXrXrXrXrXrXrXrXrXrXeX&.X.X.T Y Y Y T X.&.*.rXrXrXrXrXrXrXrXrXrXrXrXrXrXrXrXrXrXrXrXrXrXrXrXrXrXrXrXrX",
"rXrXrXrXrXrXrXrXrXrXrXrXrXrXrXrXrXrXrXrXrXrXrXtXuX-.O.Y Y Y Y Y *.;.uXrXrXrXrXrXrXrXrXrXrXrXrXrXrXrXrXrXrXrXrXrXrXrXrXrXrXrXrXrX",
"rXrXrXrXrXrXrXrXrXrXrXrXrXrXrXrXrXrXrXrXrXrXrXeXtX1X ._ _ _ _ _  .tXeXrXrXrXrXrXrXrXrXrXrXrXrXrXrXrXrXrXrXrXrXrXrXrXrXrXrXrXrXrX",
"rXrXrXrXrXrXrXrXrXrXrXrXrXrXrXrXrXrXrXwXrXrXrXwXrXwX,X,X,X,X,X,X,XwXwXwXwXwXwXrXrXrXrXrXrXrXrXrXrXrXrXrXrXrXrXrXrXrXrXrXrXrXrXrX",
"rXrXrXrXrXrXrXrXrXrXrXrXrXrXrXrXrXrX0X.. . . . . .} ( ( ( ( ( ( ) { } } } } } =XrXrXrXrXrXrXrXrXrXrXrXrXrXrXrXrXrXrXrXrXrXrXrXrX",
"rXrXrXrXrXrXrXrXrXrXrXrXrXrXrXrXrXrX0XQ U U U U U I U U Y I I I U U U Y U U U %XeXrXrXrXrXrXrXrXrXrXrXrXrXrXrXrXrXrXrXrXrXrXrXrX",
"rXrXrXrXrXrXrXrXrXrXrXrXrXrXrXrXrXrX0XU P I I U I I 9 2 2 2 2 9 U U I I I I 7 %XrXrXrXrXrXrXrXrXrXrXrXrXrXrXrXrXrXrXrXrXrXrXrXrX",
"rXrXrXrXrXrXrXrXrXrXrXrXrXrXrXrXrXrXrX..;X:X:X:X:X:X%X; @ ; @ I :X;X:X:X:X;X..0XrXrXeXeXrXrXrXrXrXrXrXrXrXrXrXrXrXrXrXrXrXrXrXrX",
"rXrXrXrXrXrXrXrXrXrXrXrXrXrXrXrXrXrXrX%X5XqX7X3X2X`.H.@ O O O , J.!.!.R.(.`.H..XXX4XqXqXrXrXrXrXrXrXrXrXrXrXrXrXrXrXrXrXrXrXrXrX",
"rXrXrXrXrXrXrXrXrXrXrXrXrXrXrXrXrX7X3XH.R.C.N.x.h.J < O O o O + 3 K B.B.v.x.i.x.V.V.E.(.oXXX4XqXrXrXrXrXrXrXrXrXrXrXrXrXrXrXrXrX",
"rXrXrXrXrXrXrXrXrXrXrXrXrX0X4X.X!.C.x.i.x.B.B.B.y.1 < O O & O & < 3 N.Z.V.V.i.V.V.A.F.~.A.V.V.D.`.9X8XrXrXrXrXrXrXrXrXrXrXrXrXrX",
"rXrXrXrXrXrXrXrXrXrXrXqXXX!.B.B.B.B.B.i.B.V.V.V.p.J p.- & ] ; h a.J a.F.F.A.p.A.F.~.#X#X}.A.B.B.B.B.E.`.7XwXrXrXrXrXrXrXrXrXrXrX",
"rXrXrXrXrXrXrXrXrXqX.XE.B.x.B.B.B.V.V.p.A.A.A.D.F.~.^.g - [ : D ~.F.~.{.~.~.a.F.F.@X@X#X@XF.A.A.B.B.B.B.V.R.4XrXrXrXrXrXrXrXrXrX",
"rXrXrXrXrXrXrXqX+XD.x.x.B.B.Z.Z.A.A.D.p.D.{.].{.~.}.|.g ; L.> K F.F.{.{.{.{.E.~.}.}.@X@X}.}.].].].B.B.B.B.B.B.oX8XrXrXrXrXrXrXrX",
"rXrXrXrXrXrX7X(.B.B.B.B.V.V.A.D.].].{.N.~.'.S.S.M.m.b.s & | < A l.l.g.z.z.h.t.h.M.S.~.{.}.{.].].].].].B.B.B.B.B.E.9XrXrXrXrXrXrX",
"rXrXrXrXrX4X!.B.B.B.Z.A.A.F.F.{.].].S.i.h.z.z.z.c.c.l.s - L.3 A z.z.g.l.g.g.t.g.f.f.g.z.z.m.'.'.].].].].].A.V.B.x.V.OXqXrXrXrXrX",
"rXrXrXrX4XC.x.B.B.V.A.A.F.~.].A.x.z.l.t.g.l.c.M.W.b.c.s - L.4 G z.z.z.z.z.g.t.g.g.l.z.f.f.f.f.l.x.].].].].A.A.Z.B.B.B.OXrXrXrXrX",
"rXrXwXqX!.x.B.B.Z.A.].].'.v.z.l.l.l.h.u.l.c.v.M.[.M.m.h , L.d K n.n.m.n.c.c.u.c.n.c.b.c.l.l.l.f.f.f.x.'.].].A.A.A.V.B.B.XXrXrXrX",
"rXrXrXoXx.B.B.V.A.'.'.v.l.l.l.z.z.c.c.u.k.n.n.k.j.j.r.s , | 7 C 6.7.7.w.d.d.t.c.b.T.T.b.c.c.l.l.f.f.f.f.z.M.].].A.A.V.B.E.7XrXrX",
"rXrXqXC.B.B.Z.A.'.Z.z.l.l.z.z.c.n.n.c.9.q.4.3.3.3.1.,.e & E < v ,.,.>.>.>.,.Z 3.0.j.k.b.M.n.c.c.n.z.f.f.l.f.x.'.].F.Z.V.B.OXrXrX",
"rXrX3XV.V.A.A.F.v.l.l.z.z.n.n.c.d.7.2.Z ,.:.3.0.9.q.3.a - d , C 2.1.1.1.,.,.Z 1.,.1.3.4.q.g.n.n.n.z.z.z.l.l.l.x.A.].D.Z.B.(.rXrX",
"rXrXXXB.A.].D.v.l.l.c.c.n.n.r.4.>.:.:.Z ,.3.0.e.).Y.q.g , d < A 7.4.4.4.2.2.F 1.2.>.>.>.:.,.4.d.n.n.n.z.c.c.c.c.v.D.F.A.V.!.rXrX",
"rXrXXXV.A.'.Z.l.l.n.m.m.d.4.>.,.>.2.1.S 3.4.q.Y.$X).e.] ~ 3 ! y.w.r.7.5.5.4.F 4.4.4.>.>.:.:.>.>.4.f.m.n.m.M.Q.Q.c.z.D.D.Z.E.qXrX",
"rXrX3XV.A.Z.l.z.n.M.c.w.,.>.2.2.5.5.6.S 3.7.q.e.Y.Y.r.y.~ d 0 i.w.r.r.7.7.7.F 7.5.5.4.2.2.,.>.>.:.:.r.n.M.M.|.[.v.g.Z.F.A.(.rXrX",
"rXrXqX!.A.v.c.n.M.m.7.,.>.1.2.7.u.r.w.G 7.7.7.0.0.8.F H ! 3 8 H c l c N V 1.F 0.7.7.7.5.4.4.1.2.>.:.:.7.m.M.T.M.c.g.l.A.A.+XrXrX",
"rXrXrX+XA.x.c.M.v.6.>.1.2.4.6.w.j.d.w.F V c k i p f g ^ ~ 1 0 W f C u y y t e p n V 4.7.7.7.4.4.1.2.1.:.7.M.[.n.c.g.f.Z.^.qXrXrX",
"rXrXrXqX(.z.n.M.d.>.>.1.2.6.7.7.0.<.v e t r y u a a k H ~ d ! h p R v u u i e i y y x V 8.0.7.5.4.1.2.>.:.d.M.M.n.l.f.C.9XrXrXrX",
"rXrXrXrX7X/.n.b.2.:.1.4.5.7.6.V k i i e i u u i a f l H o.H ^ h c f f l k v e i i i v Z F F 8.5.6.4.2.>.:.4.M.M.m.c.c..XrXrXrXrX",
"rXrXrXrXrX7X/.g.>.>.2.2.6.:.k r r r i e i k l l v Z V %.&./ &./ n b b n M M a p l p b K _.D v c 2.5.4.2.>.>.c.[.M.b.OXqXrXrXrXrX",
"rXrXrXrXrXrXqX_.8.2.4.4.N y r y y u j e x n M B B B S +.#.( @.O.c n n n m M a c z v b G G.F p t k ,.5.4.2.1.j.T./.9XrXrXrXrXrXrX",
"rXrXrXrXrXrXrXwXXXG.3.:.j r r y u u j C M B M k w w = 6 6 8 6 6 * * * w u c b B n z c b b v p y r i ,.5.2.1.Y.#X8XrXrXrXrXrXrXrX",
"rXrXrXrXrXrXrXrXrX8XU.' a i r y j j M F v r * $ $ $ $ % $ % % % $ $ $ $ $ $ e p M B z z x i y y r r x 3.q.J.7XrXrXrXrXrXrXrXrXrX",
"rXrXrXrXrXrXrXrXrXrXrX5X X' f p j z M f * % $ $ $ $ $ $ $ $ $ $ $ $ $ $ $ $ & $ t B n l l j u y t p D I.6XrXrXrXrXrXrXrXrXrXrXrX",
"rXrXrXrXrXrXrXrXrXrXrXrXeXwX;X$XG.G b w $ % $ $ $ $ $ $ $ $ $ $ $ $ $ $ $ $ $ $ $ k B z u e C D K.*X5XrXrXrXrXrXrXrXrXrXrXrXrXrX",
"rXrXrXrXrXrXrXrXrXrXrXrXeXrX1X1XwX8X-X| Q d e & % $ $ $ $ $ $ $ $ $ $ $ $ $ $ $ % a 9.G.H.$X;XwXrXrXrXrXrXrXrXrXrXrXrXrXrXrXrXrX",
"rXrXrXrXrXrXrXrXrXrXrXrXrXrXwXrXrXrXrXrXwX0X;X*XP...| ` E E R R R R R E ` ` | P.%X6X5XwXrXrXrXrXrXrXrXrXrXrXrXrXrXrXrXrXrXrXrXrX",
"rXrXrXrXrXrXrXrXrXrXrXrXrXrXrXrXrXrXrXrXrXrXrXrXrXrXrXrXrXrXrXrXrXrXrXrXrXrXrXrXrXrXrXrXrXrXrXrXrXrXrXrXrXrXrXrXrXrXrXrXrXrXrXrX"
};
