/* XPM */
static char *_1_WallA_BHB1721365580[] = {
/* columns rows colors chars-per-pixel */
"64 64 223 2 ",
"   c #000000",
".  c #080807",
"X  c #0C0C0C",
"o  c #18120E",
"O  c #121417",
"+  c #171519",
"@  c #1C1C1D",
"#  c #231B17",
"$  c #24221F",
"%  c #02012A",
"&  c #0A072B",
"*  c #0B092C",
"=  c #1A172B",
"-  c #1C192B",
";  c #070538",
":  c #1B1838",
">  c #231C2A",
",  c #231C38",
"<  c #232323",
"1  c #2C2B2D",
"2  c #332A27",
"3  c #30302F",
"4  c #27253C",
"5  c #3F2836",
"6  c #343433",
"7  c #3A3836",
"8  c #35333C",
"9  c #3B393B",
"0  c #632B1E",
"q  c #532828",
"w  c #552B29",
"e  c #662E21",
"r  c #6D3729",
"t  c #5D4438",
"y  c #784D37",
"u  c #080549",
"i  c #1A1845",
"p  c #070457",
"a  c #0C0A54",
"s  c #070559",
"d  c #09055B",
"f  c #0C095B",
"g  c #100E5C",
"h  c #1A185A",
"j  c #231D44",
"k  c #201F57",
"l  c #2B2746",
"z  c #322A4D",
"x  c #373547",
"c  c #29265B",
"v  c #373257",
"b  c #0B0763",
"n  c #0E0962",
"m  c #0A0769",
"M  c #0E096C",
"N  c #110C62",
"B  c #120C6B",
"V  c #1B1766",
"C  c #0E0A73",
"Z  c #0F0A78",
"A  c #120C74",
"S  c #180E77",
"D  c #140D79",
"F  c #1D1378",
"G  c #221C69",
"H  c #231679",
"J  c #2B2464",
"K  c #292467",
"L  c #373669",
"P  c #302970",
"I  c #332D77",
"U  c #3D2C79",
"Y  c #463558",
"T  c #5F3F5A",
"R  c #452D7B",
"E  c #48357A",
"W  c #523C7B",
"Q  c #454443",
"!  c #4E4D4D",
"~  c #504F4F",
"^  c #55504E",
"/  c #424154",
"(  c #4F4F51",
")  c #4D4B5C",
"_  c #5B4254",
"`  c #555453",
"'  c #5A5755",
"]  c #5A595B",
"[  c #6B504E",
"{  c #665B5C",
"}  c #755855",
"|  c #61605F",
" . c #595964",
".. c #514C71",
"X. c #6E4B6C",
"o. c #636262",
"O. c #67666C",
"+. c #6B6969",
"@. c #7C7168",
"#. c #6C6B75",
"$. c #716F78",
"%. c #747374",
"&. c #77767A",
"*. c #834E37",
"=. c #88543A",
"-. c #AE622E",
";. c #8C5C46",
":. c #836049",
">. c #AA7E55",
",. c #B27B53",
"<. c #826A69",
"1. c #8C766B",
"2. c #A17B63",
"3. c #AE8159",
"4. c #B8885C",
"5. c #9B816F",
"6. c #A98666",
"7. c #B68D6E",
"8. c #C5946E",
"9. c #C8A17A",
"0. c #D6A67A",
"q. c #DCAB7D",
"w. c #220F87",
"e. c #220F88",
"r. c #241484",
"t. c #281985",
"y. c #25128A",
"u. c #29158E",
"i. c #2B198C",
"p. c #2B1692",
"a. c #2F1994",
"s. c #321C94",
"d. c #341D9B",
"f. c #342D8F",
"g. c #332295",
"h. c #362897",
"j. c #3B229D",
"k. c #3D24A0",
"l. c #553885",
"z. c #42289D",
"x. c #563391",
"c. c #442AA4",
"v. c #492CA5",
"b. c #4B27AE",
"n. c #4C2AAD",
"m. c #5A2CAD",
"M. c #4832A6",
"N. c #5233AD",
"B. c #543AA8",
"V. c #4E2BB1",
"C. c #522DB3",
"Z. c #5F29B2",
"A. c #5533B5",
"S. c #5C32B6",
"D. c #5739B5",
"F. c #5937B9",
"G. c #5C3BBA",
"H. c #6339A8",
"J. c #622CB4",
"K. c #6532B4",
"L. c #6938B5",
"P. c #6533B8",
"I. c #6A35BA",
"U. c #643BBC",
"Y. c #6D3ABC",
"T. c #713DBF",
"R. c #4E4A89",
"E. c #66528E",
"W. c #676187",
"Q. c #736A8B",
"!. c #78768A",
"~. c #6F6B96",
"^. c #7D7898",
"/. c #4849A8",
"(. c #5E45BC",
"). c #6D4AAD",
"_. c #6C44B2",
"`. c #6241BC",
"'. c #6B4AB9",
"]. c #734BB5",
"[. c #7443BD",
"{. c #6C55B8",
"}. c #7657B2",
"|. c #5462AF",
" X c #7764AB",
".X c #723FC0",
"XX c #6847C1",
"oX c #7442C2",
"OX c #7B4AC4",
"+X c #8675AC",
"@X c #8B7BAE",
"#X c #816BB0",
"$X c #8573B0",
"%X c #8977B5",
"&X c #8556C6",
"*X c #946ACA",
"=X c #6583BD",
"-X c #9B8F8E",
";X c #898896",
":X c #96959A",
">X c #9C989C",
",X c #A9948A",
"<X c #A9A19B",
"1X c #B6A292",
"2X c #8C82A9",
"3X c #9287AE",
"4X c #968CAE",
"5X c #9D9CA1",
"6X c #9593A9",
"7X c #9B94AE",
"8X c #9E9AAC",
"9X c #9186B2",
"0X c #A19FA3",
"qX c #A19CAE",
"wX c #A3A1A3",
"eX c #A7A6AB",
"rX c #ABA7AA",
"tX c #BCADA5",
"yX c #D5AE89",
"uX c #E6B685",
"iX c #E9BA8C",
"pX c #F5C38D",
"aX c #F7C490",
/* pixels */
"eXeXeXeXeXeXeXeXeXeXeXeXeXeXeXeXeXeXeXeXeXeXeXeXeXeXeXeXrXeXeXeXeXeXeXeXeXeXeXeXeXeXeXeXeXrXeXeXeXeXeXeXeXeXeXeXeXeXeXeXeXeXeXeX",
"eXeXeXeXeXeXeXeXeXeXeXeXeXeXeXeXeXeXeXeXeXeXeXeXeXeXeXeXrXqXeXeXeXeXeXrXeXeXeXeXeXeXeXeXeXeXeXeXeXeXeXeXeXeXeXeXeXeXeXeXeXeXeXeX",
"eXeXeXeXeXeXeXeXeXeXeXeXeXeXeXeXeXeXeXeXeXeXeXeXeXeXeX>X<.:.<.0XeXeXeXeXeXeXeXeXeXeXeXeXeXeXeXeXeXeXeXeXeXeXeXeXeXeXeXeXeXeXeXeX",
"eXeXeXeXeXeXeXeXeXeXeXeXeXeXeXeXeXeXeXeXeXeXeXeXeXeX0X} 0 e e 1.qXrXeXeXeXeXeXeXeXeXeXeXeXeXeXeXeXeXeXeXeXeXeXeXeXeXeXeXeXeXeXeX",
"eXeXeXeXeXeXeXeXrXeXeXeXeXeXeXeXeXeXeXeXeXeXeXeXeXwX<.e 0 e r r 1.eXeXeXeXeXeXeXeXeXeXeXeXeXeXeXeXeXeXeXeXeXeXeXeXeXeXeXeXeXeXeX",
"eXeXeXeXeXeXeXeXeXeXeXeXeXeXeXeXeXeXeXeXeXeXeXeXeX>X;.4.,.8.q.q.1.eXeXeXeXeXeXeXeXeXeXeXeXeXeXeXeXeXeXeXeXeXeXeXrXeXeXrXeXeXeXeX",
"eXeXeXeXeXeXeXeXeXeXeXeXeXeXeXeXeXeXeXeXeXeXeXeXeX>X4.iXaXiXaXiX,XeXeXeXeXeXeXeXeXeXeXeXeXeXeXeXeXeXeXeXeXeXeXeXeXeXeXeXeXeXeXeX",
"eXeXeXeXeXeXeXeXeXeXeXeXeXeXeXeXeXeXeXeXeXeXeXeXeX0X7.yXq.q.q.q.,XeXeXeXeXeXeXeXeXeXeXeXeXeXeXeXeXeXeXeXeXeXeXeXeXeXeXeXeXeXeXeX",
"eXeXeXeXeXeXeXeXeXeXeXeXeXeXeXeXeXeXeXeXeXeXeXeXeX0X7.yXq.0.0.uX1.rXrXeXeXeXeXeXeXeXeXeXeXeXeXeXeXeXeXrXeXeXeXeXeXeXeXeXeXeXeXeX",
"eXeXeXeXeXeXeXeXeXeXeXeXeXeXeXeXeXeXeXeXeXeXeXeXeXwX9.uXq.iXq.q.,XrXeXeXeXeXeXeXeXeXeXeXeXeXeXrXeXeXeXeXeXeXeXeXeXeXeXeXeXeXeXeX",
"eXeXeXeXeXeXeXeXeXeXeXeXeXeXeXeXeXeXeXeXeXeXeXeXeXeXyXuX8.4.8.uX,XeXeXeXeXeXeXeXeXeXeXeXeXeXeXeXrXeXeXeXeXeXeXeXeXeXeXeXeXeXeXeX",
"eXeXeXeXeXrXeXeXeXrXeXeXeXeXeXeXeXeXeXwXeXeXwXeXwXeX:X:.y =.y 1.qXeXeXeXeXeXeXeXeXeXeXeXeXeXeXeXeXeXeXeXeXrXeXeXeXeXeXeXeXeXeXeX",
"eXeXeXeXeXeXeXeXeXeXeXeXeXeXeXeXeXeX5X .( ( ( ( ( ` ! X   .   # '  .] ] ] ] ] +.wXeXeXeXeXeXeXeXeXeXeXeXeXeXeXeXeXeXeXeXeXeXeXeX",
"eXeXeXeXeXeXeXeXeXeXeXeXeXeXeXeXeXeX:X@                                       - :XeXeXeXeXeXeXeXeXeXeXeXeXeXeXeXeXeXeXeXeXeXeXeX",
"eXeXeXeXeXeXeXeXeXeXeXeXeXeXeXeXeXeX:X@                                       # :XeXeXeXeXeXeXeXeXeXeXeXeXeXeXeXeXeXeXeXeXeXeXeX",
"eXeXeXeXeXeXeXeXeXeXeXeXeXeXeXeXeXwX:X@                                       @ :XeXeXeXeXeXeXeXeXeXeXeXeXeXeXeXeXeXeXeXeXeXeXeX",
"eXeXrXrXrXeXeXeXeXeXeXeXeXeXeXeXeXeX:XO                                       $ >XeXeXeXeXeXeXeXeXeXeXeXeXeXeXeXeXeXeXeXeXeXeXeX",
"eXeXeXeXeXeXeXeXeXeXeXeXeXeXeXeXeXeX:X@                                       @ :XeXeXeXeXeXeXeXeXeXeXeXeXeXeXeXeXeXeXeXeXeXeXeX",
"eXeXeXeXeXeXeXeXeXeXrXeXeXeXeXeXeXeX>X@                                       @ >XeXeXeXeXeXeXeXeXeXeXeXeXeXeXeXeXeXeXeXeXeXeXeX",
"eXeXeXeXeXeXeXeXeXeXeXeXeXeXeXeXeXeX:X@             X @ @ @ @ @ .             $ :XeXeXeXeXeXeXeXeXeXeXeXeXeXeXeXeXeXeXeXeXeXeXeX",
"eXeXeXeXeXeXeXeXeXeXeXeXeXeXeXeXeXeX:X@             3 ` ` ` ` ` <             @ :XeXeXeXeXeXeXeXeXeXeXeXeXeXeXeXeXeXeXeXeXeXeXeX",
"eXeXeXeXeXeXeXeXeXeXeXeXeXeXeXeXeXwX:X@           . 9 ' ` ` ` ' 7             $ :XeXeXeXeXeXeXrXeXeXeXeXeXeXeXeXeXeXeXeXeXeXeXeX",
"rXeXeXeXeXeXeXeXeXeXeXeXeXeXeXeXeXeX:X@           . Q ' ] ` ' ` Q .         . @ >XeXeXeXeXeXeXeXeXeXeXeXeXeXeXeXeXeXeXeXeXeXeXeX",
"eXeXeXeXeXeXeXeXeXeXeXeXeXeXeXeXeXeX:X@         . O ( ` ' ` ` ] ! . o O X   . $ :XeXeXeXeXeXeXeXeXeXeXeXeXeXeXeXeXeXeXeXeXeXeXeX",
"eXeXeXeXeXeXeXeXeXeXeXeXeXeXeXeXeXeX:X$ 6 3 3 1 . @ ` ` ` ] ` ` ` O ! %.| 1 o @ :XeXeXeXeXeXeXeXeXeXeXeXeXeXeXeXeXeXeXeXeXeXeXeX",
"eXeXeXeXeXeXeXeXeXeXeXeXeXeXeXeXeXeX:X< +.o.@.+.@ 3 ` ` ` ' ' ` ` $ Q %.| | 7 $ :XeXeXeXeXeXeXeXeXeXeXeXeXeXeXeXeXeXeXeXeXeXeXeX",
"eXeXeXeXeXeXeXeXeXeXeXeXeXeXeXeXeXeXwXO.7 o # # o 7 ' ` ' ` ' ` ` 7 o o o $ ( #.wXeXeXeXeXeXeXeXeXeXeXeXeXeXeXeXeXeXeXeXeXeXeXeX",
"eXeXeXeXeXeXeXeXeXeXeXeXeXeXeXeXeXeXeXeX1X7.,.-.-.' ' ` ` ` ' ' ` [ -.-.4.9.<XeXeXeXeXeXeXeXeXeXeXeXeXeXeXeXeXeXeXeXeXeXeXeXeXeX",
"eXeXeXeXeXeXeXeXeXeXeXeXeXeXeXeXeXeXeXrXpXpXuX0.5.' ` ` ` ` ` ' ` ' 6.0.iXaXyXeXeXeXeXeXeXeXeXeXeXeXeXeXeXeXeXeXeXeXeXeXeXeXeXeX",
"eXeXeXeXeXeXeXeXeXeXeXeXeXeXeXeXeXeXeXeXrXtXtX<X5.+.+.+.+.+.+.+.+.+.%.<XtXtXtXeXeXeXeXeXeXeXeXeXeXeXeXeXeXeXeXeXeXeXeXeXeXeXeXeX",
"eXeXeXeXeXeXeXeXeXeXeXeXeXeXeXeXeXeXeXeXeXeXeXwX5XwXwXwXwXwXwXwXwXwXwXwXeXwXeXeXwXwXrXwXeXeXeXeXeXeXeXeXeXeXeXeXrXeXeXeXeXeXeXeX",
"eXeXeXeXeXeXeXeXeXeXeXeX;X&.&.&.&.&.%.%.&.&.&.+.| | | | | | | | | | | +.%.%.$.$.%.%.%.@.@.=XeXeXeXeXeXeXeXeXeXeXeXeXeXeXeXrXeXeX",
"eXeXeXeXeXeXeXeXeXeXeXeX%.~ ! ` ~ ` ` ( ~ ` ~ ` ` ` ` ^ ` ^ ` ^ ` ^ ` ` ( ` ( ` ^ ` ~ ~ ! | 5XeXeXeXeXeXeXeXeXeXeXeXeXeXeXeXeXeX",
"eXeXeXeXeXeXeXeXeXeXeXeX&.3 ! ! ! ~ ! ! ~ ~ ~ ` ! 9 7 7 7 7 7 6 7 Q ! ! ! ( ~ ~ ~ ^ ~ ! 6 ] 5XeXeXeXeXeXeXeXeXeXeXeXeXeXeXeXeXeX",
"eXeXeXeXeXeXeXeXeXeXeXeX>XO.>X5X>X5X>X5X>X5X>X>X:X! - @ @ # - @ $ #.5X5X5XwXwX>X0X>X0X-XO.:XeXeXeXeXeXeXeXeXeXeXeXeXeXeXeXeXeXeX",
"eXeXeXeXeXeXeXeXeXeXeXrX0X%.0XeXeXeXeXeXeXqX6X2X^.x O O O + O O O x E.}.}. X X+X@X3XqX0X%.0XeXeXeXeXeXeXeXeXeXeXeXeXeXeXeXeXeXeX",
"eXeXeXeXeXeXeXeXeXeXeXeX0X%.0XeXeX8X9X X]._.l.Y 8 @ O O O o + O O - 6 Y E m.J.J.J.L.L.}...+X7XqXeXeXeXeXeXeXeXeXeXeXeXeXeXeXeXeX",
"eXeXeXeXeXeXeXeXeXeXeXeX>X%.4X+X).L.J.J.J.x.x 6 6 > O O + > O O O > 6 6 6 x.K.K.K.T.[.].W K.K._. X3XqXqXeXeXeXeXeXeXeXeXeXeXeXeX",
"eXeXeXeXeXeXeXeXeXeXeXqX+XW H.Z.J.J.J.J.J.x.Y E x.l.+ O - W.1 O + l.B.W Y W Y.I.I.T.*X*Xl.L.J.J.J.J._.#X4XwXeXeXeXeXeXeXeXeXeXeX",
"eXeXeXeXeXeXeXeXeX8X#X_.m.R Z.J.J.K.I.P.I.L.L.I.XXH.= O > W.4 O = H.oXoX[.[.oX.XT.&X*X*Xl.T.I.K.K.J.J.J.K.}.4XeXeXeXeXeXeXeXeXeX",
"eXeXeXeXeXeXeXeX+X_.J.J.J.R J.I.I.I..X.X.X.X.X.XoX_.> O , Q.8 O = H.[.[.oXoXoXoXoXOX&X&Xl.[.[.Y.I.I.J.J.J.J.K. XqXeXeXeXeXeXeXeX",
"eXeXeXeXeXeX7X}.J.J.J.J.J.R L.T..X.X.X.X.X.XU.P.K.B.- O : Q.8 O = z.V.V.C.C.A.S.U.U.oXT.l.[.oXoX.X.XI.I.P.J.J.J._.9XeXeXeXeXeXeX",
"eXeXeXeXeX4X].Z.J.J.P.I.L.E T.T.oX.XU.S.C.C.C.C.A.v.: O 4 Q.x O = v.n.V.V.V.V.b.b.b.b.n.R S.Y.T..X.X.X.XI.I.P.J.J.K.#XqXeXeXeXeX",
"eXeXeXeX4XL.Z.J.J.P.I.Y.L.l.T.I.C.C.V.V.n.n.F.G.`.B.: O 4 Q.x O : v.C.C.V.V.V.V.V.V.C.v.U b.b.C.J.I..X.X.XI.I.P.J.J.K.$XeXeXeXeX",
"eXeXeX8X).Z.J.J.P.I.T.oXG.l.V.V.n.C.C.C.C.A.F.G.`.(.l O l !./ O , N.S.F.A.A.A.A.A.D.(.M.I V.b.n.V.b.Z..X.X.XY.I.I.P.J.K.@XeXeXeX",
"eXeXeX#XJ.Z.J.P.I.T.Y.S.b.I n.C.C.C.A.A.F.A.F.A.N.j.i O 4 #.Y O : s.d.j.c.b.n.A.D.(.(.B.f.N.C.n.V.b.b.b.C.P..X.XI.I.J.J._.7XeXeX",
"eXeX8XL.J.J.I.I.Y.U.C.n.v.U N.A.A.A.C.c.j.p.t.u.i.i.i O : ) 8 O : r.w.w.w.w.y.u.g.M.B.(.E D.A.A.C.C.V.b.b.b.Z.T..XY.I.J.J.$XeXeX",
"eXeX3XJ.K.I.Y.Y.S.V.V.V.A.R A.A.n.d.i.e.e.w.t.g.f.f.i O , x 4 O i t.y.y.w.w.w.w.y.y.y.i.P M.A.S.F.C.C.V.V.V.V.C.Y..XY.K.J.}.eXeX",
"eXeX@XK.U.Y.Y.S.V.V.A.A.A.U c.u.r.r.w.w.y.y.g./.|./.c < , x l 2 l g.p.p.p.p.y.y.y.y.y.r.c r.p.c.F.F.A.A.C.A.A.A.A.Y.T.I.J.].eXeX",
"eXeX@XK.I..XP.V.V.F.F.D.c.K r.r.y.y.u.y.p.i.h.|.=X|.X.;.X.8 _ ;.X.j.d.d.p.p.p.p.p.u.y.t.J r.w.w.p.b.F.F.F.G.'.'.A.C.Y.Y.I._.eXeX",
"eXeX3XK.I.I.C.C.F.F.A.j.r.J r.u.i.a.a.a.a.a.j.k./.B.E.=.X.9 [ =.X.k.j.g.d.d.d.a.s.p.p.i.J t.w.w.e.e.j.A.G.`.XXXXS.n.K.T.I.}.eXeX",
"eXeX8X].I.S.C.F.G.F.d.y.r.c i.d.z.j.j.j.d.d.g.g.f.f._ *.} 6 ^ *._ H S S D y.i.g.d.d.s.s.J i.u.y.e.e.e.d.F.`.XXG.A.n.V.Y.I.$XeXeX",
"eXeXeX%XI.C.A.F.S.s.y.y.t.G s.z.M.j.j.i.F M g K v v } *.} 6 [ =.} v z K g a s b B F p.d.P g.p.p.y.u.y.e.d.G.`.F.A.V.b.K.].qXeXeX",
"eXeXeXqX}.A.F.G.c.w.y.y.t.K s.d.h.t.B f p a c g d d Y *.{ 8 <.=.Y f g G ..k s s d p N G K h.d.s.p.u.u.e.w.c.`.G.F.V.b.U.9XeXeXeX",
"eXeXeXeX7X{.F.D.u.w.y.u.s.G s.H n f d p s h 8 h n M _ ;.<.z 1.=.T B n B l v n d d f V K v K t.a.p.p.u.e.w.p.G.`.F.V.A.$XeXeXeXeX",
"eXeXeXeXeX7X{.v.w.y.u.u.s.c g p p d d f f N c B M G 2.4.3.) >.4.>.H A C G K M b b n V E ) P V B u.a.p.u.y.w.N.(.F.(.$XqXeXeXeXeX",
"eXeXeXeXeXeX8X~.i.u.u.p.F j f d s s b b b M A D C U 3.3.4.{ 3.3.>.E Z Z Z D M M M B G I L P g f n r.a.p.u.e.n.XX{.9XeXeXeXeXeXeX",
"eXeXeXeXeXeXeXeX2XR.i.w.f i a d f s m m C D A f u > q q w t q q q q ; u s M Z D C M V G c V f d s d r.a.u.u./.%X8XeXeXeXeXeXeXeX",
"eXeXeXeXeXeXeXeXeX5X^...K k d d b b C A M a ; % % % * * * * * * % * % % % % u f D D M M c N d s p p n a.h.E.7XeXeXeXeXeXeXeXeXeX",
"eXeXeXeXeXeXeXeXeXeXeX8X=X .J g n M C M ; % % % % % % % % % % % % % % % % % % % u D C m V f d s p g I ~.6XeXeXeXeXeXeXeXeXeXeXeX",
"eXeXeXeXeXeXeXeXeXeXeXeX1XwX>X=XR.I F ; % % % % % % % % % % % % % % % % % % % % % n D C g a G L W.;X0XeXeXeXeXeXeXeXeXeXeXeXeXeX",
"eXeXeXeXeXeXeXeXeXeXeXeXrXrX<X1XeX5X;X$.] x 4 = * % % % % % % % % % % % % % % % * h f.R.W.=X:XwXeXeXeXeXeXeXeXeXeXeXeXeXeXeXeXeX",
"eXeXeXeXeXeXeXeXeXeXeXeXeXeXrXrXeXeXeXeXeX0X:X;X+X&.O. .) ) / / / / v )  .o.#.!.;X:X5X0XrXeXeXeXeXeXeXeXeXeXeXeXeXeXeXeXeXeXeXeX",
"eXeXeXeXeXeXeXeXeXeXeXeXeXeXeXeXeXeXeXeXeXeXeXeX<XeXeXeXeXeXeXeXeXeXeXeXeXeXeXeXeXeXeXeXeXeXeXeXeXeXeXeXeXeXeXeXeXeXeXeXeXeXeXeX"
};
