/* XPM */
static char *_1_WallA_BHA1721365580[] = {
/* columns rows colors chars-per-pixel */
"64 64 227 2 ",
"   c #000000",
".  c #080807",
"X  c #0C0C0C",
"o  c #18120E",
"O  c #121417",
"+  c #171519",
"@  c #1C1C1D",
"#  c #231B17",
"$  c #24221F",
"%  c #02012A",
"&  c #0A072B",
"*  c #0A082C",
"=  c #1B182B",
"-  c #070537",
";  c #1B1839",
":  c #231C2A",
">  c #211C36",
",  c #232323",
"<  c #2C2B2D",
"1  c #332A27",
"2  c #30302F",
"3  c #29263A",
"4  c #3F2832",
"5  c #353433",
"6  c #3A3836",
"7  c #35333C",
"8  c #3B393B",
"9  c #632B1E",
"0  c #54292E",
"q  c #662E21",
"w  c #6D3729",
"e  c #5D443B",
"r  c #784D37",
"t  c #080547",
"y  c #1A1745",
"u  c #060457",
"i  c #0C0B57",
"p  c #070459",
"a  c #09065B",
"s  c #0C095B",
"d  c #110F5B",
"f  c #14125A",
"g  c #241C45",
"h  c #282547",
"j  c #312F44",
"k  c #383647",
"l  c #29255D",
"z  c #312B55",
"x  c #393154",
"c  c #0A0663",
"v  c #0E0A64",
"b  c #0D096B",
"n  c #120C64",
"m  c #130C6C",
"M  c #171366",
"N  c #0E0A73",
"B  c #130C74",
"V  c #1A0E74",
"C  c #150D7A",
"Z  c #181273",
"A  c #231C69",
"S  c #251C78",
"D  c #272565",
"F  c #2A2464",
"G  c #383666",
"H  c #2B2576",
"J  c #382D71",
"K  c #3B2B78",
"L  c #522747",
"P  c #483758",
"I  c #5F3F5A",
"U  c #48376B",
"Y  c #472C7C",
"T  c #48307D",
"R  c #563D7B",
"E  c #454443",
"W  c #4E4D4D",
"Q  c #504F4F",
"!  c #55504E",
"~  c #434254",
"^  c #4F4F51",
"/  c #4D4A5C",
"(  c #5C4355",
")  c #555453",
"_  c #5A5755",
"`  c #5A595B",
"'  c #6B504E",
"]  c #665B5C",
"[  c #755856",
"{  c #61605F",
"}  c #595863",
"|  c #504C77",
" . c #6D496D",
".. c #636262",
"X. c #64636C",
"o. c #6B6969",
"O. c #78706C",
"+. c #6C6B75",
"@. c #747375",
"#. c #76757A",
"$. c #834E37",
"%. c #88543A",
"&. c #A35A2B",
"*. c #AE622E",
"=. c #8C5C46",
"-. c #836454",
";. c #AA7E55",
":. c #B27B53",
">. c #826B6B",
",. c #8C766B",
"<. c #A17B62",
"1. c #AE8159",
"2. c #B8885C",
"3. c #9B816F",
"4. c #B28869",
"5. c #B08B6B",
"6. c #C5946E",
"7. c #C8A17A",
"8. c #D6A67A",
"9. c #DCAB7D",
"0. c #210F86",
"q. c #220F88",
"w. c #241385",
"e. c #281887",
"r. c #25128A",
"t. c #29158D",
"y. c #2B1A8D",
"u. c #311E8E",
"i. c #2B1692",
"p. c #2E1A92",
"a. c #2F1998",
"s. c #311B95",
"d. c #341D9A",
"f. c #342A8B",
"g. c #2F2392",
"h. c #352294",
"j. c #362697",
"k. c #3A239C",
"l. c #3C349A",
"z. c #3D28A1",
"x. c #4F378B",
"c. c #533685",
"v. c #43299E",
"b. c #462AA3",
"n. c #4B27AE",
"m. c #4C2BAD",
"M. c #5A2DAB",
"N. c #4A33A9",
"B. c #5132AE",
"V. c #4E2BB1",
"C. c #522DB2",
"Z. c #5E29B2",
"A. c #4F30B0",
"S. c #5433B4",
"D. c #5637B7",
"F. c #5C34B6",
"G. c #5A3BB6",
"H. c #5836B9",
"J. c #5C3BBB",
"K. c #602DAF",
"L. c #643BA8",
"P. c #622CB4",
"I. c #6531B5",
"U. c #6939B4",
"Y. c #6434B9",
"T. c #6A35BA",
"R. c #623CBB",
"E. c #6D3BBC",
"W. c #703DBF",
"Q. c #51478A",
"!. c #67588E",
"~. c #6C6A88",
"^. c #79788A",
"/. c #716992",
"(. c #4748A8",
"). c #5C44BB",
"_. c #6C46AA",
"`. c #6B51AE",
"'. c #6547B6",
"]. c #6C44B2",
"[. c #6242BC",
"{. c #7146B8",
"}. c #7554B3",
"|. c #7758B7",
" X c #5566B0",
".X c #7C63B3",
"XX c #756DB3",
"oX c #723FC0",
"OX c #6444C1",
"+X c #7442C2",
"@X c #7946C3",
"#X c #794DC5",
"$X c #7853C5",
"%X c #7B65C8",
"&X c #8268AB",
"*X c #8778AD",
"=X c #836CB0",
"-X c #8878B2",
";X c #8352C8",
":X c #9266CB",
">X c #848389",
",X c #9B8F8E",
"<X c #8A8997",
"1X c #969599",
"2X c #9B979B",
"3X c #A9948A",
"4X c #A9A19B",
"5X c #B6A292",
"6X c #8D84AA",
"7X c #9489AE",
"8X c #958CAD",
"9X c #9694A5",
"0X c #9D9CA1",
"qX c #9B95AD",
"wX c #9E9AAC",
"eX c #9287B3",
"rX c #A19FA3",
"tX c #A19DAC",
"yX c #A3A1A3",
"uX c #A7A6AB",
"iX c #ABA7AA",
"pX c #BCADA5",
"aX c #D5AE89",
"sX c #E6B685",
"dX c #E9BA8C",
"fX c #F5C38D",
"gX c #F7C490",
/* pixels */
"uXuXuXuXuXuXuXuXuXuXuXuXuXuXuXuXuXuXuXuXuXuXuXuXuXuXuXuXiXiXiXiXiXuXuXuXuXuXuXuXuXiXuXuXuXuXuXuXuXuXuXuXuXuXuXuXuXuXuXuXuXuXuXuX",
"uXuXuXuXuXuXuXuXuXuXuXuXuXuXuXuXuXuXuXuXuXuXuXuXuXuXuXuXtXiXiXiXuXuXuXuXuXuXuXuXuXuXuXuXuXuXuXuXuXuXuXuXuXuXuXuXuXuXuXuXuXuXuXuX",
"uXuXuXuXuXuXuXuXuXuXuXuXuXuXuXuXuXuXuXuXuXuXuXuXuXuXuX2X>.[ >.rXuXuXuXuXuXuXuXuXuXuXuXuXuXuXuXuXuXuXuXuXuXuXuXuXuXuXuXuXuXuXuXuX",
"uXuXuXuXuXuXuXuXuXuXuXuXuXuXuXuXuXuXuXuXuXuXuXuXuXuX0X[ 9 9 9 ,.tXuXuXuXuXuXuXuXuXuXuXuXuXuXuXuXuXuXuXuXuXuXuXuXuXuXuXuXuXuXuXuX",
"uXuXuXuXuXuXuXuXuXuXuXuXuXuXuXuXuXuXuXuXuXuXuXuXuXyX>.w 9 9 w w ,.uXuXuXuXuXuXuXuXuXuXuXuXiXuXuXuXuXuXuXuXiXuXuXuXuXuXuXuXuXuXuX",
"uXuXuXuXuXuXuXuXuXuXuXuXuXuXuXuXuXuXuXuXuXuXuXuXiX2X=.2.:.6.9.9.,.uXuXuXuXuXuXuXuXuXuXuXuXuXuXuXuXuXuXuXuXuXuXuXuXuXuXuXuXuXuXuX",
"uXuXuXuXuXuXuXuXuXuXuXuXuXuXuXuXuXuXuXuXuXuXuXuXuX2X5.dXgXgXdXfX3XtXuXuXuXuXuXuXuXuXuXuXuXuXuXuXuXuXuXuXuXuXuXuXuXuXuXuXuXuXuXuX",
"uXuXuXuXuXuXuXuXuXuXuXuXuXuXuXuXuXuXuXuXuXuXuXuXuXrX4.9.9.8.9.9.3XiXuXuXuXuXuXuXuXuXuXuXuXuXuXuXuXuXuXuXuXuXuXuXuXuXuXuXuXuXuXuX",
"uXuXuXuXuXuXuXuXuXiXuXuXuXiXuXuXuXuXuXuXuXuXuXuXuXyX5.aX9.8.8.sX<.uXuXuXuXuXuXuXuXuXuXuXuXuXuXuXuXuXuXuXuXuXuXuXuXuXuXuXuXuXuXuX",
"uXuXuXuXuXuXuXuXuXuXuXuXuXuXuXuXuXuXuXuXuXuXuXuXuXyX7.sX9.dX9.9.3XuXuXuXuXuXuXuXuXuXuXuXuXuXuXuXuXuXuXuXuXuXuXuXuXuXuXuXuXuXuXuX",
"iXuXuXuXuXuXuXuXuXuXuXuXuXuXuXuXuXuXuXuXuXuXuXuXuXuXaXsX6.2.6.sX4XuXuXuXuXuXuXuXuXuXuXuXuXuXuXuXuXuXuXuXuXuXuXuXuXuXuXuXuXuXuXuX",
"uXuXuXuXuXuXuXuXuXuXuXuXuXuXuXuXuXuXuXuXuXyXuXuXyXuX,X-.r %.r ,.rXuXuXuXuXuXuXuXuXuXuXuXuXuXuXuXuXuXuXuXuXuXuXuXuXuXuXuXuXuXuXuX",
"uXuXuXuXuXuXuXuXuXuXuXuXuXuXuXuXuXuX0X} ^ ^ ^ ^ ^ ) W X   .   # ^ ` ` ` ` ` ` o.rXuXuXuXuXuXuXuXuXuXuXuXuXuXuXuXuXuXuXuXuXuXuXuX",
"uXuXuXuXuXuXuXuXuXuXuXuXuXuXuXuXuXuX1X@                                       : 1XuXuXuXuXuXuXuXuXuXuXiXuXuXuXuXuXuXuXuXuXuXuXuX",
"uXuXuXuXuXuXuXuXuXuXuXuXuXuXuXuXuXuX1X@                                       @ 1XuXuXuXuXuXuXuXuXuXuXuXuXuXiXiXuXuXuXuXuXuXuXuX",
"uXuXuXuXuXuXuXuXuXuXuXuXuXuXuXuXuXyX1X@                                       @ 1XuXuXuXuXuXuXuXuXuXuXuXuXuXuXiXuXuXuXuXuXuXuXuX",
"uXuXuXuXuXuXuXuXuXuXuXuXuXuXuXuXuXuX1XO                                       @ 0XuXuXuXuXuXuXuXuXuXuXuXuXuXuXuXuXuXuXuXuXuXuXuX",
"uXuXuXuXuXuXuXuXuXuXuXuXuXuXuXuXuXuX1X@                                       @ 1XuXuXuXuXuXuXuXuXuXuXuXuXuXuXuXuXuXuXuXuXuXuXuX",
"uXuXuXuXuXuXuXuXuXuXuXuXuXuXuXuXuXuX2X@                                       $ 1XuXuXuXuXuXuXuXuXuXuXuXuXuXuXuXuXuXuXuXuXuXuXuX",
"uXuXuXuXuXuXuXuXuXuXuXuXuXuXuXuXuXuX1X@             X @ @ @ @ @ X             @ 1XuXuXuXuXuXuXuXuXuXuXuXuXuXuXuXuXuXuXuXuXuXuXuX",
"uXuXuXuXuXuXuXuXuXuXuXiXuXuXuXuXuXuX1X+             5 ) ) ) ) ^ ,             @ 1XuXuXuXuXuXuXuXuXuXuXuXuXuXuXuXuXuXuXuXuXuXuXuX",
"uXuXuXuXuXiXuXuXuXuXuXuXuXuXuXuXuXuX1X@             8 _ ) ) _ ` 5             $ 1XuXuXuXuXuXuXuXuXuXuXuXuXuXuXuXuXuXuXuXuXuXuXuX",
"uXuXuXuXuXuXuXuXuXuXuXuXuXuXuXuXuXuX1X@           . E _ _ ) _ ) E           . , 1XuXuXuXuXuXuXuXuXuXuXuXuXuXuXuXuXuXuXuXuXuXuXuX",
"uXuXuXuXuXuXuXuXuXuXuXuXuXuXuXuXuXuX1X@         . O W ) ` ) ) _ W X o O X     , 1XuXuXuXuXuXuXuXuXuXuXuXuXuXuXuXuXuXuXuXuXuXuXuX",
"uXuXuXuXuXuXuXuXuXuXuXuXuXuXuXuXuXuX1X$ 2 2 2 2 . @ ) ) _ ) _ ) ) O W @.{ < O $ 1XuXuXuXuXuXuXuXuXuXuXuXuXuXuXuXuXuXuXuXuXuXuXuX",
"uXuXuXuXuXuXuXuXuXuXuXuXuXuXuXuXuXuX1X, O.o.O...@ 2 _ ) _ ) ) ` ) , E O.{ { 6 $ 1XuXuXuXuXuXuXuXuXiXuXuXuXuXuXuXuXuXuXuXuXuXuXuX",
"uXuXuXuXuXuXuXuXuXuXuXuXuXuXuXuXuXuXyXo.6 o # o o 8 ) _ _ _ _ _ ) 6 o o @ , W o.yXuXuXuXuXuXuXuXuXuXuXuXuXuXuXuXuXuXuXuXuXuXuXuX",
"uXuXuXuXuXuXuXuXuXuXuXuXuXuXuXuXuXuXuXuX5X5.1.*.&.! _ _ ) _ ) ) _ ' *.*.2.7.4XiXuXuXuXuXuXuXuXuXuXuXuXuXuXuXuXuXuXuXuXuXuXuXuXuX",
"uXuXuXuXuXuXuXuXuXuXuXuXuXuXuXuXuXuXuXiXdXgXdX8.3._ ) ) ) ) ) _ ) ) 5.9.sXfXaXuXuXuXuXuXuXuXuXuXiXuXuXuXuXuXuXuXuXuXuXuXuXuXuXuX",
"uXuXuXuXuXuXuXuXuXuXuXuXuXuXuXuXuXuXuXuXpXpXpX4X3.o.o.o.o.o.o.o.o.o.O.4XpXpXpXuXuXuXuXuXuXuXuXuXuXuXuXuXuXuXuXuXuXuXuXuXuXuXuXuX",
"uXiXuXuXuXuXuXuXuXuXuXuXuXuXuXiXuXuXuXuXuXuXuXyXyXyXyXyXyXyXyXyXyXyXyXyXuXyXuXuXyXyXuXuXuXuXuXuXuXuXuXuXuXuXuXuXuXuXuXuXuXuXuXuX",
"uXuXuXuXuXuXuXuXuXuXuXuX<X#.#.#.@.#.@.#.#.#.@.o.{ { { { { ..{ { ] ....o.+.@.@.+.@.@.+.@.@.>XuXuXuXuXuXuXuXuXuXuXuXuXuXuXuXuXuXuX",
"uXuXuXuXuXuXuXuXuXuXuXuX#.W ! ) Q ) ^ ) ^ ) ! Q ^ ) ) ) Q Q _ Q ) ) ) ^ ) ) ) ^ Q ) Q Q Q ] 0XuXuXuXuXuXuXuXuXuXuXuXuXuXuXuXuXuX",
"uXuXuXuXuXuXuXuXuXuXuXuX#.2 W ^ Q W ^ W Q Q ^ Q W 6 6 8 6 6 6 5 5 E ^ ^ ^ W ^ ^ Q Q Q W 5 ` rXuXuXuXuXuXuXuXuXuXuXuXuXuXuXuXuXuX",
"uXuXuXuXuXuXuXuXuXuXuXuX2Xo.1X2X2X0X0X0X2X0X2X0X2XW # @ : # : @ @ @.0X0X2X2X2X0XrXrX0X1X..1XiXuXuXuXuXuXuXuXuXuXuXuXuXuXuXuXuXuX",
"uXuXuXuXuXuXuXuXuXuXuXuXyX@.uXuXuXiXiXiXtXtXqX6X^.k O O O O O O O k !.`.}..X.X*X*X7XtX0X@.yXuXuXuXuXuXuXuXuXuXuXuXuXuXuXuXuXuXuX",
"uXuXuXuXuXuXuXuXuXuXuXuXrX@.rXuXuXqX6X&X&X].R P k # O O O o O O + @ 7 x T M.Y.P.P.K.U._.| *X8XtXuXuXuXuXuXuXuXuXuXuXuXuXuXuXuXuX",
"uXuXuXuXuXuXuXuXuXuXuXuXrXO.7X&X}.Y.I.Y.W.L.k 5 7 : O O O : O O O : 5 2 5 c.I.P.P.P.P.K.Y Z.I.]..X7XtXuXuXuXuXuXuXuXuXuXuXuXuXuX",
"uXuXuXuXuXuXuXuXuXuXuXqX*XR L.P.P.P.T.{.:X&XP R x.c.= O = !., O + x.L.| P Q.{.Y.T.I.I.I.Y K.P.Z.Z.Z.]..X8XuXuXuXuXuXuXuXuXuXuXuX",
"uXuXuXuXuXuXuXuXuXwX=X].K.Y K.I.T.I.T.@X:X:X#XoXoXL.= O = ~.3 O = L.@X#X%X|.@XoXW.T.T.U.T I.I.I.P.P.Z.Z.Z.}.qXuXuXuXuXuXuXuXuXuX",
"uXuXuXuXuXuXuXuX-X{.I.P.K.Y I.T.T.W.oX@X;X;X;X@X{.U.: O > /.7 O = L.{.#X%X%X$X+X+XoXoXW.c.T.E.T.T.I.P.P.P.P.I.|.qXuXuXuXuXuXuXuX",
"uXuXuXuXuXuXqX|.P.P.P.I.I.T T.W.W.+XW.@X@X+XoXoXF.M.= O > ~.7 O = v.V.S.D.D.J.H.J.R.E.{.c.{.oXoXoXT.T.I.P.P.P.Z.U.eXuXuXuXuXuXuX",
"uXuXuXuXuX8X`.P.P.I.T.T.U.T W.W.W.W.I.F.V.V.n.n.n.v.; O > /.k O = b.V.V.S.S.S.S.S.S.V.m.Y F.oXoXoXoXoXT.T.I.P.P.K.K.&XuXuXuXuXuX",
"uXuXuXuXqX].P.P.I.T.T.W.W.R E.T.P.C.n.C.V.n.C.n.V.N.; O > ^.P o > N.S.S.S.S.S.J.[.F.C.m.K m.n.C.F.oX+XoXoXT.I.P.P.P.I.&XtXuXuXuX",
"uXuXuXqX{.P.P.T.T.E.W.oXY.K V.n.V.V.V.V.S.S.D.S.S.N.g O h ^.~ O g B.H.H.H.J.J.[.[.G.S.B.K N.C.V.V.V.C.oXoXoXE.Y.P.P.P.P.-XuXuXuX",
"uXuXuX=XM.P.I.T.W.W.E.C.m.K n.V.V.V.V.D.D.).).).S.A.g + h +.E O ; u.s.s.d.k.b.N.m.S.D.D.T S.S.C.C.C.n.n.S.T.oXoXT.I.P.P.U.tXuXuX",
"uXuXqX].P.T.E.oXW.Y.C.n.m.K V.C.V.S.D.H.).D.N.j.y.e.y O ; / j + ; w.0.0.q.r.r.e.y.e.p.h.J N.S.D.H.C.C.V.V.n.F.E.E.T.P.P.Z.=XuXuX",
"uXuX7XI.P.T.E.oXI.C.n.V.m.K C.H.H.D.m.z.y.y.r.r.w.e.y + ; x 3 o ; r.r.r.r.e.g.f.f.p.r.w.l e.p.k.V.H.H.H.C.C.m.D.T.T.E.I.I.}.uXuX",
"uXuX*XP.T.E.oXH.C.F.D.S.B.K D.H.V.d.r.0.q.q.q.r.r.r.z 1 > k h 1 z y.i.t.t.g.(. X(.j.y.e.D w.q.w.r.d.A.H.S.S.S.V.C.oXE.E.P.].uXuX",
"uXuX-XI.T.oXY.C.J.}.R.G.B.Y V.k.r.q.0.q.r.r.r.i.i.i. .=. .k ( =. .d.a.d.a.j.(. X Xl.g.y.F e.r.w.q.q.q.z.S.J.S.S.V.C.oXT.T.{.uXuX",
"uXuX7XT.oXT.V.C.J.$X[.J.S.J y.w.q.r.r.r.i.i.i.a.a.a.R %. .8 ' $. .d.k.d.d.k.(.(.(.l.d.p.F u.p.s.i.r.q.0.t.m.J.H.C.C.F.oXI.}.uXuX",
"uXuXtX{.oXC.n.S.F.[.[.J.b.l w.r.r.r.t.i.i.a.d.d.d.u. .$.[ 5 Q $.' M n b m Z Z g.g.j.d.h.J j.j.v.k.a.r.q.q.q.m.J.J.C.C.T.T.-XuXuX",
"uXuXuX-XT.C.V.V.S.[.J.m.e.l r.r.y.i.a.d.g.g.e.H G z =.r ' 4 ' %.[ z l G s u i i v s n Z l g.z.N.k.k.i.t.t.q.t.n.J.S.C.F.}.qXuXuX",
"uXuXuXtX}.V.V.S.J.J.D.i.w.l e.t.i.j.k.g.e.f l s s s P $.] j O.%.L b v A | A a a p p u f h f Z h.k.k.d.i.t.q.q.t.D.H.S.R.eXuXuXuX",
"uXuXuXuXqX'.V.S.J.OXv.0.w.F t.i.g.y.f.H H l j f a d I %.>.j ,.%.( B m m z z v c v c a d g i s i m y.s.s.i.t.q.q.b.J.H.-XuXuXuXuX",
"uXuXuXuXiXqX'.H.J.oXs.0.w.F s.i.Z v A Q.!.D z f c A <.2.5.( ;.2.<.S N N D D C B c c c M h d p u p p V i.i.i.t.q.s.).-XuXuXuXuXuX",
"uXuXuXuXuXuXtXXXOX).y.r.e.D i.B p f A K Q.S M b n J ;.1.2.[ ;.;.1.U N b N C C C C B N M h v a a u u a v i.i.r.i.Q.6XuXuXuXuXuXuX",
"uXuXuXuXuXuXuXuXeX$Xg.e.i.H m p p i v A A M b N B S L 0 0 e 0 0 0 0 % % % - - t s b B Z D M c s a u u a b i.l./.qXtXuXuXuXuXuXuX",
"uXuXuXuXuXuXuXuXuXtX*Xl.l.H i u p p s v b b N C b t * * * * * * % & % % % % % % % - - v A Z b c a a a i D ~.9XtXuXuXuXuXuXuXuXuX",
"uXuXuXuXuXuXuXuXuXuXyXyX<X| D u p p c c b N C v - % % % % % % % % % % % % % % % % % % * f Z N v v f G ~.1XtXuXuXuXuXuXuXuXuXuXuX",
"uXuXuXuXuXuXuXuXuXuXuXuXuXyX9X^.| D v b N C N - % % % % % % % % % % % % % % % % * % % % % M S | ~.<X0XyXuXuXuXuXuXuXuXuXuXuXuXuX",
"uXuXuXuXuXuXuXuXuXuXuXuXuXuXuXuXuX0X<X~.Q.f.H ; - % % % % % % % % % % % % % % & * ; j / X.^.9XtXuXuXuXuXuXuXuXuXuXuXuXuXuXuXuXuX",
"uXuXuXuXuXuXuXuXuXuXuXuXuXuXuXuXuXuXuXuXuXyXqX<X>X+.X.} / / ~ ~ ~ ~ ~ / / X.+.^.>X1X0XtXuXuXuXuXuXuXuXuXuXuXuXuXuXuXuXuXuXuXuXuX",
"uXuXuXuXuXuXuXuXuXuXuXuXuXuXuXuXuXuXuXuXuXuXuXuXuXuXuXuXuXuXuXuXuXuXuXuXuXuXuXuXuXuXuXuXuXuXuXuXuXuXuXuXuXuXuXuXuXuXuXuXuXuXuXuX"
};
