/* XPM */
static char *__WallA_BHA1721365579[] = {
/* columns rows colors chars-per-pixel */
"64 64 228 2 ",
"   c #000000",
".  c #090909",
"X  c #19120E",
"o  c #131315",
"O  c #1B1815",
"+  c #14131B",
"@  c #1C1B1C",
"#  c #20150E",
"$  c #221B17",
"%  c #23211F",
"&  c #02012A",
"*  c #0A072B",
"=  c #08082C",
"-  c #171528",
";  c #080635",
":  c #1B1936",
">  c #20192C",
",  c #241F39",
"<  c #242322",
"1  c #28262B",
"2  c #312C2C",
"3  c #33332F",
"4  c #28253A",
"5  c #332C35",
"6  c #343234",
"7  c #383637",
"8  c #3A3836",
"9  c #3B3A3A",
"0  c #632A1C",
"q  c #51272E",
"w  c #693328",
"e  c #50413C",
"r  c #75473A",
"t  c #70513E",
"y  c #110F49",
"u  c #060456",
"i  c #0C0954",
"p  c #070459",
"a  c #09065B",
"s  c #0C095B",
"d  c #100E58",
"f  c #171559",
"g  c #221D5D",
"h  c #312F44",
"j  c #383647",
"k  c #212053",
"l  c #2B2956",
"z  c #352A52",
"x  c #0A0663",
"c  c #0E0964",
"v  c #0D096B",
"b  c #110B64",
"n  c #130C6C",
"m  c #141162",
"M  c #1A1668",
"N  c #0E0A73",
"B  c #120C74",
"V  c #170D77",
"C  c #1A1374",
"Z  c #231B6A",
"A  c #251E6C",
"S  c #261A79",
"D  c #292765",
"F  c #372663",
"G  c #2B2273",
"H  c #2C2677",
"J  c #362878",
"K  c #3B3771",
"L  c #472657",
"P  c #463859",
"I  c #4A2D79",
"U  c #4B3970",
"Y  c #454343",
"T  c #4F4D4B",
"R  c #504E4D",
"E  c #53504E",
"W  c #434255",
"Q  c #4F4E50",
"!  c #4D495A",
"~  c #554E56",
"^  c #565452",
"/  c #5A595B",
"(  c #6C4E4C",
")  c #794746",
"_  c #775756",
"`  c #62605D",
"'  c #7C6150",
"]  c #565564",
"[  c #4A487A",
"{  c #6F566B",
"}  c #696664",
"|  c #686669",
" . c #78726C",
".. c #6E6C73",
"X. c #757373",
"o. c #787679",
"O. c #8A5235",
"+. c #A75F2E",
"@. c #AF632F",
"#. c #885549",
"$. c #8B5854",
"%. c #886A57",
"&. c #A7774E",
"*. c #927661",
"=. c #897676",
"-. c #A68058",
";. c #B6845A",
":. c #99827A",
">. c #B78C6B",
",. c #C79368",
"<. c #C8956D",
"1. c #CBA07D",
"2. c #D9A779",
"3. c #E3AF7D",
"4. c #210F86",
"5. c #220F88",
"6. c #241287",
"7. c #2B1B87",
"8. c #25128A",
"9. c #29158E",
"0. c #2B1691",
"q. c #2E1993",
"w. c #2F1998",
"e. c #321B95",
"r. c #341C9A",
"t. c #2F2489",
"y. c #392587",
"u. c #3A3584",
"i. c #342695",
"p. c #362C95",
"a. c #3A239C",
"s. c #3D26A0",
"d. c #432B8B",
"f. c #4B2E8A",
"g. c #4F338A",
"h. c #452B99",
"j. c #4B3493",
"k. c #483C94",
"l. c #593497",
"z. c #613B9C",
"x. c #4429A3",
"c. c #4B27AE",
"v. c #4C2BAD",
"b. c #5B2EA2",
"n. c #4B33A5",
"m. c #5636A8",
"M. c #4E2BB0",
"N. c #512DB2",
"B. c #5F29B2",
"V. c #4F30B0",
"C. c #5432B5",
"Z. c #5B33B6",
"A. c #5539B5",
"S. c #5B3CB7",
"D. c #5735B8",
"F. c #5836B9",
"G. c #5C3BBB",
"H. c #6338A9",
"J. c #622CB4",
"K. c #6631B6",
"L. c #6835B5",
"P. c #693DB1",
"I. c #6434B8",
"U. c #6A35BA",
"Y. c #623DBB",
"T. c #6D3ABD",
"R. c #703DBF",
"E. c #53488C",
"W. c #65568F",
"Q. c #6C6887",
"!. c #736B87",
"~. c #7B798A",
"^. c #6F6698",
"/. c #4748A8",
"(. c #5C44BB",
"). c #6A4CAE",
"_. c #6747B5",
"`. c #6C44B2",
"'. c #6242BC",
"]. c #7046B7",
"[. c #724CB2",
"{. c #7342BC",
"}. c #7554B3",
"|. c #795CB1",
" X c #7355BD",
".X c #5566B0",
"XX c #7C63B3",
"oX c #756DB3",
"OX c #723EC0",
"+X c #6444C1",
"@X c #7442C2",
"#X c #7946C3",
"$X c #784CC4",
"%X c #7756C5",
"&X c #7C65C9",
"*X c #817F80",
"=X c #8879AD",
"-X c #836CB0",
";X c #8979B2",
":X c #8252C6",
">X c #9569CD",
",X c #848386",
"<X c #878489",
"1X c #998C8D",
"2X c #8F8E92",
"3X c #8A8899",
"4X c #959399",
"5X c #9B9A9E",
"6X c #AB968A",
"7X c #AC9C95",
"8X c #A39E9C",
"9X c #8C84AB",
"0X c #9489AE",
"qX c #9694A5",
"wX c #9C9BA0",
"eX c #9B95AD",
"rX c #9E9AAC",
"tX c #9287B3",
"yX c #A19FA4",
"uX c #A19EAC",
"iX c #A4A1A5",
"pX c #A7A6AB",
"aX c #ADA7A8",
"sX c #BDADA2",
"dX c #D0A583",
"fX c #E8B584",
"gX c #EFBD8D",
"hX c #F7C18B",
/* pixels */
"pXpXpXpXpXpXpXpXpXpXpXpXpXpXpXpXpXpXpXpXpXpXpXpXpXpXpXpXuXaXpXpXpXpXpXpXpXpXpXpXpXpXaXpXpXpXpXpXpXpXpXpXpXpXpXpXpXpXpXpXpXpXpXpX",
"pXpXpXpXpXpXpXpXpXpXpXpXpXpXpXpXpXpXpXpXpXpXpXpXpXpXpXpXaXuXpXpXpXpXpXpXpXpXpXpXpXpXpXpXpXpXpXpXpXpXpXpXpXpXpXpXpXpXpXpXpXpXpXpX",
"pXpXpXpXpXpXpXpXpXpXpXpXpXpXpXpXpXpXpXpXpXpXpXpXpXpXpXwX=._ *XuXpXpXpXpXpXpXpXpXpXpXpXpXpXpXpXpXpXpXpXpXpXpXpXpXpXpXpXpXpXpXpXpX",
"pXpXpXpXpXpXpXpXpXpXpXpXpXpXpXpXpXpXpXpXpXpXpXpXpXpXpX=.w w w 1XpXpXpXpXpXpXpXpXpXpXpXpXpXpXpXpXpXpXpXpXpXpXpXpXpXpXpXpXpXpXpXpX",
"pXpXpXpXpXpXpXpXpXpXpXpXpXpXpXpXpXpXpXpXpXpXpXpXpXpX1Xr 0 0 w #.yXpXpXpXpXpXpXpXpXpXpXpXpXpXpXpXpXpXpXpXpXpXpXpXpXpXpXpXpXpXpXpX",
"pXpXpXpXpXpXpXpXpXpXpXpXpXpXpXpXpXpXpXpXpXpXpXpXpXpX=.&.&.,.fX&.8XpXpXpXpXpXpXpXpXpXpXpXpXpXpXpXpXpXpXpXpXpXpXpXpXpXpXpXpXpXpXpX",
"pXpXpXpXpXpXpXpXpXpXpXpXpXpXpXpXpXpXpXpXpXpXpXpXpXpX:.3.gXgXgXdX8XpXpXpXpXpXpXpXpXpXpXpXpXpXpXpXpXpXpXpXpXpXpXpXpXpXpXpXpXpXpXpX",
"pXpXpXpXpXpXpXpXpXpXpXpXpXpXpXpXpXpXpXpXpXpXpXpXpXpX1X<.3.2.3.,.yXpXpXpXpXpXpXpXpXpXpXpXpXpXpXpXpXpXpXpXpXpXpXpXpXpXpXpXpXpXpXpX",
"pXpXpXpXpXpXpXpXpXpXpXaXpXpXpXpXpXpXpXpXpXpXpXpXpXpX6X2.2.<.1.<.yXaXpXpXpXpXpXpXpXpXpXpXpXpXpXpXpXpXpXpXpXpXpXpXpXpXpXpXpXpXpXpX",
"pXpXpXpXpXpXpXpXpXpXpXpXpXpXpXpXpXpXpXpXpXpXpXpXpXpX7X2.3.3.3.1.yXuXpXpXpXpXpXpXpXpXpXpXpXpXpXpXpXpXpXpXpXpXpXpXpXpXpXpXpXpXpXpX",
"pXpXpXpXpXpXpXpXpXpXpXpXpXpXpXpXpXpXpXpXpXpXpXpXpXpX7XfX,.;.2.1.yXpXpXpXpXpXpXpXpXpXpXpXpXpXpXpXpXpXpXpXpXpXpXpXpXpXpXpXpXpXpXpX",
"pXpXpXpXpXpXpXpXpXpXpXpXpXpXpXpXpXpXpXpXpXiXpXpXpXiXpX*.t O.r 1XpXpXpXpXpXpXpXpXpXpXpXpXpXpXpXpXpXpXpXpXpXpXpXpXpXpXpXpXpXpXpXpX",
"pXpXpXpXpXpXpXpXpXpXpXpXpXpXpXpXpXpXpXpX4X^ Q Q T Q ^ 1   . . 9 / / / / / ` 5XpXpXpXpXpXpXpXpXpXpXpXpXpXpXpXpXpXpXpXpXpXpXpXpXpX",
"pXpXpXpXpXpXpXpXpXpXpXpXpXpXpXpXpXpXpXpX,X.                               o 2XpXpXpXpXpXpXpXpXpXpXpXpXpXpXpXpXpXpXpXpXpXpXpXpXpX",
"pXpXpXpXpXpXpXpXpXpXpXpXpXpXpXpXpXpXpXpX,X.                               o 2XpXpXpXpXpXpXpXpXpXpXpXpXpXpXpXpXpXpXpXpXpXpXpXpXpX",
"pXpXpXpXpXpXpXpXpXpXpXpXpXpXpXpXpXpXpXpX,X.                               o 2XpXpXpXpXpXpXpXpXpXpXpXpXpXpXpXpXpXpXaXpXpXpXpXpXaX",
"pXpXpXpXpXpXpXpXpXpXpXpXpXpXpXpXpXpXpXpX2X.                               o 2XpXpXpXpXpXpXpXpXpXpXpXpXpXpXpXpXpXpXpXpXpXpXpXpXpX",
"pXpXpXpXpXpXpXpXpXpXpXpXpXpXpXpXpXpXpXpX,X.                               o 2XpXpXpXpXpXpXpXpXpXpXpXpXpXpXpXpXpXaXpXpXpXpXpXpXpX",
"pXpXpXpXpXpXpXpXpXpXpXpXpXpXpXpXpXpXpXpX,X.                               o 2XpXpXpXpXpXpXpXpXpXpXpXpXpXpXpXpXpXpXpXpXpXpXpXpXpX",
"pXpXpXpXpXpXpXpXpXpXpXpXpXpXpXpXpXpXpXpX,X.           o @ @ @ o           o 2XpXpXpXpXpXpXpXpXpXpXpXpXpXpXpXpXpXpXpXpXpXpXpXpXpX",
"pXpXpXpXpXpXpXpXpXpXpXpXpXpXpXpXpXpXpXpX,X.         o T ^ ^ ^ e .         o 2XpXpXpXpXpXpXpXpXpXpXpXpXpXpXpXpXpXpXpXpXpXpXpXpXpX",
"pXpXpXpXaXpXpXpXpXpXpXpXpXpXpXpXpXpXpXpX,X.         O E ^ ^ ^ e .         o 2XpXpXpXpXpXpXpXpXpXpXpXpXpXpXpXpXpXpXpXpXpXpXpXpXpX",
"pXpXpXpXpXpXpXpXpXpXpXpXpXpXpXpXpXpXpXpX,X.         % ^ ^ ^ ^ E o         o 2XpXpXpXpXpXpXpXpXpXpXpXpXpXpXpXpXpXpXpXpXpXpXpXpXpX",
"pXpXpXpXpXpXpXpXpXpXpXpXpXpXpXpXpXpXpXpX,X.       . 3 ^ ^ ^ ^ ^ @ o o .   o 2XpXpXpXpXpXpXpXpXpXpXpXpXpXpXpXpXpXpXpXpXpXpXpXpXpX",
"pXpXpXpXpXpXpXpXpXpXpXpXpXpXpXpXpXpXpXpX,X< 2 < < . 8 ^ ^ ` ^ ^ 2 e o.E < O 2XpXpXpXpXpXpXpXpXpXpXpXpXpXpXpXpXpXpXpXpXpXpXpXpXpX",
"pXpXpXpXpXpXpXpXpXpXpXpXpXpXpXpXpXpXpXpX,X9 X.} ^ o e ^ ^ ^ ^ ^ 8 9  .} ` < 2XpXpXpXpXpXpXpXpXpXpXpXpXpXpXpXpXpXpXpXpXpXpXpXpXpX",
"pXpXpXpXpXpXpXpXpXpXpXpXpXpXpXpXpXpXpXpXyX^ % X # O T ^ ^ ^ ^ ^ Y # # @ 9 } wXpXpXpXpXpXpXpXpXpXpXpXpXpXpXpXpXpXpXpXpXpXpXpXpXpX",
"pXpXpXpXpXpXpXpXpXpXpXpXpXpXpXpXpXpXpXpXpXaX>.&.@.O.^ ^ ^ ^ ^ ^ ^ +.@.,.6XpXpXpXpXpXpXpXpXpXpXpXpXpXpXpXpXpXpXpXpXpXpXpXpXpXpXpX",
"pXpXpXpXpXpXpXpXpXpXpXpXpXpXpXpXpXpXpXpXpXsXhXfX2.' ^ ^ ^ ^ ^ ^ Q -.2.hXhXaXpXpXpXpXpXpXpXpXpXpXpXpXpXpXpXpXpXpXpXpXpXpXpXpXpXpX",
"pXpXpXpXpXpXpXpXpXpXpXpXpXpXpXpXpXpXpXpXaXaXsXsX7X .} } } } } } }  .8XsXsXpXpXpXpXpXpXpXpXpXpXpXpXpXpXpXpXpXpXpXpXpXpXpXpXpXpXpX",
"pXpXpXpXpXpXpXpXpXpXpXpXpXpXpXpXpXpXpXpXpXpXpXpXaX8X8X8X8X8X8X8X8X8XiXiXiXiXpXpXpXiXpXpXpXpXpXpXpXpXpXpXpXpXpXpXpXpXpXpXpXpXpXpX",
"pXpXpXpXpXpXpXpXpXpXpXpXpXaXpX<Xo.X.X.o.X.X.X.o.} ` ` ` ` ` ` ` ` ` } ..X.X...X.X.o.o.pXpXaXpXpXpXpXpXpXpXpXpXpXpXpXpXpXpXpXpXpX",
"pXpXpXpXpXpXpXpXpXpXpXpXpXpXaX..R R R R E R R R E E E E E E E R R E E E E E E E ~ R ^ 4XpXpXpXpXpXpXpXpXpXpXpXpXpXpXpXpXpXpXpXpX",
"pXpXpXpXpXpXpXpXpXpXpXpXpXpXiX..q R R R R R R R R Y 8 8 8 8 8 8 Y R R R R R R R T 9 E yXpXpXpXpXpXpXpXpXpXpXpXpXpXpXpXpXpXpXpXpX",
"pXpXpXpXpXpXpXpXpXpXpXpXpXpXpX2Xo.wXwXwX8XwXyX5X5X2X5 @ $ $ @ - R 5XwXwXwXwXwXwXyXo.2XyXpXpXpXpXpXpXpXpXpXpXpXpXpXpXpXpXpXpXpXpX",
"pXpXpXpXpXpXpXpXpXpXpXpXpXpXpX5X<XpXpXuXuXuXeX0X=XQ.1 + o o o o 4 W.).).|.|.XX=X;X*X3XuXpXpXpXpXpXpXpXpXpXpXpXpXpXpXpXpXpXpXpXpX",
"pXpXpXpXpXpXpXpXpXpXpXpXpXpXpX8X,XrXtX-X|.[.P.g.P 5 o o o o o + + 6 P l.B.B.B.B.J.f.H.`.|.;X0XrXpXpXpXpXpXpXpXpXpXpXpXpXpXpXpXpX",
"pXpXpXpXpXpXpXpXpXpXpXpXpXuX0X^.E.Y.K.U.{.{.P.P 5 5 + o + : o o - 5 5 j H.I.J.J.J.f.b.J.J.J.I.`.-X0XuXaXpXpXpXpXpXpXpXpXpXpXpXpX",
"pXpXpXpXpXpXpXpXpXpXpXrX;X}.L.b.f.J.L.{.>X>X{.P U l.z + - { 1 o L m.U P ).$XT.T.K.l.b.J.J.J.B.B.B.B.L.|.0XpXaXpXpXpXpXpXpXpXpXpX",
"pXpXpXpXpXpXpXpXpXrX-X`.J.J.J.b.l.L.U.{.>X>X:X{.#XT.I o - Q.1 o I $X$X[.&X%X@X{.T.z.H.U.K.I.K.K.J.J.J.B.K.}.0XpXpXpXpXpXpXpXpXpX",
"pXpXpXpXpXpXpXuX;X[.J.J.J.J.K.H.l.T.OX#X:X:X:X#X@X#XI o > !.5 + g.OX@X%X&X&X%X@X@Xz.P.T.OXOXU.U.K.J.J.J.J.J.J.|.rXpXpXpXpXpXpXpX",
"pXpXpXpXpXpXeX|.J.J.J.L.K.U.T.H.z.OXOX@X#X@XOXOXZ.Z.J o > Q.6 o I M.M.C.S.S.F.F.G.l.H.@X@X@XOXOXOXOXU.K.J.J.J.B.P.9XpXpXpXpXpXpX",
"pXpXpXpXpX0X[.J.J.J.K.I.T.R.OXP.z.OXK.K.N.M.c.c.c.c.J o , !.7 o y.M.M.C.C.V.C.C.N.j.h.N.N.I.OX@XOXOXOXT.U.K.J.J.J.J.-XiXpXpXpXpX",
"pXpXpXpXeX`.J.J.U.U.T.OXOXOXOXH.f.M.M.c.M.M.M.c.v.N.y.+ , !.j + d.N.C.C.C.C.C.G.Y.j.n.M.M.c.c.N.D.OXOXOXOXT.K.K.J.J.B.-XpXpXpXpX",
"pXpXpXeX[.B.K.I.U.T.T.OXY.B.B.n.p.M.c.M.M.A.A.C.C.C.y.+ 4 ~.P + h.F.D.F.F.G.G.'.'.j.n.N.N.N.N.M.c.M.N.OXOXOXT.K.K.J.J.J.;XpXpXpX",
"pXpXpX-XB.K.L.U.T.OXT.B.c.c.c.h.d.M.M.C.D.(.(.A.F.V.y.@ 4 ..9 + H e.w.e.r.r.x.n.A.j.n.D.D.N.N.N.N.N.c.c.N.Y.OXOXL.K.J.B.P.rXpXpX",
"pXpXuXP.J.K.T.R.R.I.M.c.c.N.N.v.j.N.D.F.F./.V.s.0.8.A + : ! 5 + S 4.4.5.8.8.8.9.7.G H r.x.v.D.C.N.D.N.N.M.M.B.R.T.L.I.J.B.-XpXpX",
"pXpX9XI.J.U.R.R.I.N.c.N.N.N.C.n.j.F.A.s.w.9.7.6.4.5.S - : j 4 + S 8.8.5.8.7.t.p.i.H S 5.5.8.q.x.M.D.D.D.N.N.M.N.U.T.U.I.J.}.pXpX",
"pXpX;XJ.I.T.OXZ.C.C.C.C.N.C.F.m.d.r.8.4.5.6.5.8.8.8.S 2 , j 5 4 t.0.0.9.8.i./..X/.J S 5.8.6.6.4.8.r.M.F.F.C.N.M.N.T.R.T.K.`.pXpX",
"pXpX;XK.U.T.I.C.Y. XY.S.F.F.V.y.A 4.6.8.8.8.8.0.0.0.f.$.( j ( $.p.i.w.w.w.p./.oX.Xu.7.0.8.8.8.8.8.5.8.s.C.G.F.C.M.N.T.T.L.[.pXpX",
"pXpX0XL.T.T.N.C.Y. X'.G.F.v.0.S A 8.8.8.9.8.w.w.e.r.h.) _ j ( ) h.a.i.w.w.p.s././.u.t.w.q.q.q.q.0.8.5.5.9.v.G.D.C.N.Z.T.K.}.pXpX",
"pXpXuX].T.B.c.N.A.Y.'.Y.x.8.8.S S 8.0.0.w.w.e.r.r.e.I ) ( 6 t r F c v v v 4.S t.p.J i.r.r.r.a.h.a.q.8.5.4.8.v.G.G.N.N.U.U.;XpXpX",
"pXpXpX-XT.N.M.M.C.'.G.v.8.8.8.7.S 9.w.r.i.q.6.C D P ! O.) 8 ( r W l F i p p a s s k f C 7.e.s.n.h.a.0.9.8.8.8.v.G.D.N.Z.}.uXuXpX",
"pXpXpXuX}.N.M.C.G.G.A.9.8.8.9.S H a.a.t.S M d k s a A w _ 7 ' r M b D K m a a a a k y u u c C e.a.r.r.0.8.8.8.9.D.F.C.Y.tXpXpXpX",
"pXpXpXpXeX_.M.D.G.+Xx.5.8.8.0.t.H 7.H H H M f h f c F #.%.z %.) A B M j Z c c c x k f a p p s s n 9.r.e.0.9.8.4.s.G.F.;XuXpXpXpX",
"pXaXpXpXpXeX_.F.G.OXe.5.8.9.q.7.g m Z E.W.H m l m v ] ;.;.! -.;.U B B D C V B N v k f c x a p p u p B q.q.0.8.8.e.'.;XpXaXpXpXpX",
"pXpXpXpXpXpXuXoX+X(.9.6.9.w.0.M k s Z K u.H M v n B { &.-._ &.&.{ n N v N B V 4.V D M v x x a p u u u m 9.q.9.9.E.9XuXpXpXpXpXpX",
"pXpXpXpXpXpXpXpXtX%Xq.8.0.0.M d y a m Z Z M N N B C L q q t q q q = & & & ; & u s g B N N c x s p u u u v q.p.^.qXpXpXpXpXpXpXpX",
"pXpXpXpXpXpXpXpXpXuX=Xk.w.C p f k p s c v v B B v i ; = * * = = = & & & & & & & & = y c B B v x a p u i D Q.qXpXpXpXpXpXpXpXpXpX",
"pXpXpXpXpXpXpXpXpXpXpXwX9X[ g f f p x x v N B v ; & & & & = & & = & & & & & & & & = - & i N N c s m K Q.qXuXpXpXpXpXpXpXpXpXpXpX",
"pXpXpXpXpXpXpXpXpXpXpXpXpXpX4X~.[ D m v N N v u & & & & & & & & & & & & & & & & = = & = ; m H [ Q.3XwXpXpXpXpXpXpXpXpXpXpXpXpXpX",
"pXpXpXpXpXpXpXpXpXpXpXpXpXpXpXpXpXwX3XQ.E.u.H : = & & & & & & & & & & & & & & = ; : h W | ~.qXyXpXpXpXpXpXpXpXpXpXpXpXpXpXpXpXpX",
"pXpXpXpXpXpXpXpXpXpXpXpXpXpXpXpXpXpXpXpXpXyXqX3X<X..| ] ] W j W W W W ! ] | ..~.<X4XwXyXuXpXpXpXpXpXpXpXpXpXpXpXpXpXpXpXpXpXpXpX",
"pXpXpXpXpXpXpXpXpXpXpXpXpXpXpXpXpXpXpXpXpXpXpXpXpXpXpXpXpXpXpXpXpXpXpXpXpXpXpXiXpXpXpXpXpXpXpXpXpXpXpXpXpXpXpXpXpXpXpXpXpXpXpXpX"
};
