/* XPM */
static char *Close2D1721789019[] = {
/* columns rows colors chars-per-pixel */
"64 64 219 2 ",
"   c #0A0000",
".  c #150000",
"X  c #1E0000",
"o  c #2B0000",
"O  c #340101",
"+  c #3D0101",
"@  c #420202",
"#  c #4D0303",
"$  c #530303",
"%  c #5C0404",
"&  c #640303",
"*  c #740404",
"=  c #7E0606",
"-  c #493629",
";  c #573728",
":  c #68322E",
">  c #574938",
",  c #66462C",
"<  c #68552E",
"1  c #694534",
"2  c #754939",
"3  c #66543A",
"4  c #0D1E49",
"5  c #0F1F4C",
"6  c #10214F",
"7  c #122454",
"8  c #15285B",
"9  c #14295E",
"0  c #142B63",
"q  c #192E67",
"w  c #1B316C",
"e  c #132F71",
"r  c #1C377A",
"t  c #203467",
"y  c #213773",
"u  c #243C7B",
"i  c #543E40",
"p  c #324954",
"a  c #3B5551",
"s  c #334D6D",
"d  c #595049",
"f  c #735450",
"g  c #4A6A58",
"h  c #6C665C",
"j  c #4D5A78",
"k  c #715E60",
"l  c #49686F",
"z  c #7A6466",
"x  c #726B68",
"c  c #7D7978",
"v  c #830505",
"b  c #8B0707",
"n  c #920605",
"m  c #990707",
"M  c #930B0B",
"N  c #9C0909",
"B  c #A60B0B",
"V  c #B40F0F",
"C  c #B51010",
"Z  c #892424",
"A  c #D00F0F",
"S  c #C81616",
"D  c #D91919",
"F  c #F01B1B",
"G  c #814A47",
"H  c #844C4A",
"J  c #894E4E",
"K  c #835556",
"L  c #8D5151",
"P  c #935353",
"I  c #835F61",
"U  c #846162",
"Y  c #826B6D",
"T  c #84787A",
"R  c #7B827B",
"E  c #8E9715",
"W  c #A39E18",
"Q  c #9EA61D",
"!  c #A5A61B",
"~  c #A6AD1E",
"^  c #BAA11E",
"/  c #A7AC23",
"(  c #A8AD2B",
")  c #B8AD24",
"_  c #B9B92D",
"`  c #B7B734",
"'  c #BCBB31",
"]  c #FB9704",
"[  c #F79B0A",
"{  c #F49A14",
"}  c #F9A918",
"|  c #D3B233",
" . c #F0AC29",
".. c #F7AB35",
"X. c #E2B839",
"o. c #F6B43A",
"O. c #F9C036",
"+. c #93934E",
"@. c #9CA340",
"#. c #938F6F",
"$. c #86837A",
"%. c #B39372",
"&. c #D7A650",
"*. c #F4BC42",
"=. c #FDBB43",
"-. c #ECB051",
";. c #C59D6D",
":. c #D6B46D",
">. c #E5B361",
",. c #B4C353",
"<. c #ADC971",
"1. c #F7C747",
"2. c #EFC455",
"3. c #F7CB54",
"4. c #D1C278",
"5. c #1D3C85",
"6. c #243F83",
"7. c #294487",
"8. c #23428B",
"9. c #335087",
"0. c #234493",
"q. c #24499D",
"w. c #284998",
"e. c #314F9B",
"r. c #34539B",
"t. c #254BA2",
"y. c #264EA9",
"u. c #2751AE",
"i. c #2B51A8",
"p. c #3354A4",
"a. c #3A5AA5",
"s. c #3556A9",
"d. c #3759AC",
"f. c #385AAD",
"g. c #2955B7",
"h. c #2B58BE",
"j. c #3A5DB3",
"k. c #3A5EB6",
"l. c #3D62BC",
"z. c #5A799F",
"x. c #747B91",
"c. c #4266BF",
"v. c #4669BF",
"b. c #4B6CBE",
"n. c #5372B3",
"m. c #5873BB",
"M. c #6877A9",
"N. c #7979A4",
"B. c #657BB9",
"V. c #3F65C1",
"C. c #4166C0",
"Z. c #4568C0",
"A. c #4E73C1",
"S. c #8E7D9B",
"D. c #6A829F",
"F. c #7D849D",
"G. c #5D88AD",
"H. c #6689AA",
"J. c #7988A5",
"K. c #6D83B6",
"L. c #7988B7",
"P. c #7096B3",
"I. c #79ACB8",
"U. c #5886C3",
"Y. c #6799C7",
"T. c #7795CB",
"R. c #77AACB",
"E. c #8A8688",
"W. c #8C868A",
"Q. c #91868A",
"!. c #978C8C",
"~. c #8A8B99",
"^. c #928F93",
"/. c #979498",
"(. c #9C9A9E",
"). c #A59594",
"_. c #BDA484",
"`. c #BDA88A",
"'. c #B6A999",
"]. c #B5AC9D",
"[. c #868AA3",
"{. c #8B93A8",
"}. c #9D9DA4",
"|. c #989BAA",
" X c #838EB2",
".X c #8A93B2",
"XX c #959AB0",
"oX c #A09EA3",
"OX c #9DA1AD",
"+X c #89A7B9",
"@X c #A2A1A6",
"#X c #ABA7A6",
"$X c #A7A6AB",
"%X c #ACA9A8",
"&X c #C5B18B",
"*X c #B1D396",
"=X c #ABCFA8",
"-X c #A9DAA7",
";X c #AAD7B8",
":X c #83B9C2",
">X c #8AC9C8",
",X c #8ED1CF",
"<X c #9ADCC7",
"1X c #96DCD4",
"2X c #99DDD5",
"3X c #A1DEC7",
"4X c #A1DFD1",
"5X c #9DE0C9",
"6X c #96E2D7",
"7X c #9AE1D7",
"8X c #9AE1D8",
"9X c #A5E6DD",
"0X c #A9E6DB",
"qX c #B0E7D5",
"wX c #ACEAE1",
"eX c #B3EAE3",
"rX c #CCEEEA",
"tX c #E4F1EF",
"yX c #E5F5F1",
/* pixels */
"$X$X$X$X$X$X$X$X$X$X$X$X$X$X$X$X.X X$X$X$X$X$X$X$X$X$X$X$X$X$X$X$X$X$X$X$X$X$X$X$X$X$X$X$X%X$X$X$X$X$X$X$X$X$X$X$X$X$X$X$X$X$X$X",
"$X$X$X$X$X$X$X$X$X$X$X$X$X$X$X$X XZ.B.OX$X$X$X$X$X$X$X$X$X$X$X$X$X$X$X$X$X$X$X$X$X$X$X$X$X$X$X$X$X$X$X$X$X$X$X$X$X$X$X$X$X$X$X$X",
"$X$X$X$X$X$X$X$X$X$X$X%X$X$X$X$X.XC.C.m.XX$X$X$X$X$X$X$X$X$X$X$X$X$X$X$X$X$X$X$X$X$X$X$X$X$X$X$X$X$X$X$X$X$X$X$X$X$X$X%X$X$X$X$X",
"$X$X$X$X$X$X$X$X$X$X$X$X$X$X$X$X.XC.C.V.A. X$X$X$X$X$X$X$X$X$X$X$X$X$X$X$X$X$X$X$X$X$X$X$X$X$X$X$X$X$X$X$X$X$X$X$X$X$X$X$X$X$X$X",
"$X$X$X$X$X$X$X$X$X$X%X$X$X$X$X$X{.C.C.V.V.Z.L.OX$X$X$X$X$X$X$X$X$X$X$X$X$X$X$X$X$X$X$X$X$X$X$X$X$X$X$X$X$X$X%X$X$X$X$X$X$X$X$X$X",
"$X$X$X$X$X$X$X$X$X$X$X$X$X$X$X$X.Xl.V.C.V.V.V.B.XX$X$X$X$X$X$X$X$X$X$X$X$X$X$X%X$X$X$X$X$X$X$X$X$X$X$X$X$X$X$X$X$X$X$X$X$X$X$X$X",
"$X$X$X$X$X$X$X$X$X$X$X$X$X$X$X$XXXc.c.s.k.V.V.V.m..X$X$X$X$X$X$X$X$X$X$X$X$X$X$X$X$X$X$X$X$X$X$X$X$X$X$X$X$X$X$X$X$X$X$X$X$X$X$X",
"$X$X$X$X$X$X$X$X$X$X$X$X$X$X$X$XXXv.l.7 w l.V.V.V.Z.K.OX$X$X$X$X$X$X$X$X$X$X$X$X$X$X$X$X$X$X$X$X$X$X$X$X$X$X$X$X$X$X$X$X$X$X$X$X",
"$X$X@X}.{..X|.|.@X@X$X$X$X$X$X$XXXA.V.w 6 r k.C.V.C.c.m.XX$X$X$X$X$X$X$XOX$X$X$X$X$X$X$X$X$X$X$X$X$X$X$X$X$X$X$X$X$X@X#X#X$X$X$X",
"$X$X$XN.z.P.P.H.H.M.H.H.N.[.{.OX.XZ.V.6.e 4 q f.V.C.C.V.Z. X$X$X$X$X$X$XoX: Z Z Z Z Z Z Z Z Z Z Z Z Z Z Z Z Z Z Z Z Z : k @X$X$X",
"$X$X$XJ.I.1X6X2X1X,X>X>X+XI.I.P.G.V.C.6.q.r 4 e.V.V.V.C.c.Z.B.$X$X$X$X$X$X= M b n n m n v v v * b = * b v M b b M n b B i $X$X$X",
"$X$X$XJ.R.1X8X8X2X6X2X6X6X6X6X6X,XA.V.6.t.q.4 e.k.6.V.V.V.C.c.m.$X$X$X$X$X= & M S S S S * & C @ B * o C * C S D S C % N i $X$X$X",
"$X$X$X{.P.6X6X6X9X7X8X6X6X7X7X7X,XA.V.6.u.5.5 p.s.5 6.k.c.c.V.Z.OX$X$X$X$Xb % Z B # # # O o A V S @ o S % O % D $ O + B i $X$X$X",
"$X$X#X{.G.2X8X6X3X=X=X;X7X7X7X7X1XA.C.7.i.q.6 s.s.9 5 y j.c.V.Z.OX$X$X$XOX= % M D C C C &   * F v . o S #   + S O   o N i $X$X$X",
"$X$X$X{.P.1X2X<X:. .{ | -X6X7X7X2XU.C.w.i.t.7 f.k.5.6.7 9 j.c.A.OX$X$X$X$X= % M C % % % @ . v F N . o S #   + S O   o N i $X$X$X",
"$X@X#XOXH.2X2X;X| [ ] [ 4.9X6X7X2XA.C.6.y.t.7 f.g.q.h.5.6 d.C.A.$X$X$X$X$Xb % M N .       @ S m D # o S #   + D O   O B i $X$X$X",
"$X$X#X|.G.1X7X;X .] ] { <.2X8X8X2XU.C.e.u.t.8 f.s.0.h.q.7 j.C.A.OX$X$X$X$X= % M N . . . X m V o N C @ S #   + S O   O N d $X$X$X",
"$X$X#XOXz.,X7X5X*XX. .;.;X2X2X8X2XU.C.t.y.t.8 j.s.0.h.q.0 k.C.B.OX$X$X$X$X= & M D V V V b A $   O A = S #   + S O   O N i $X$X$X",
"$X$X$XOXz.,X8X8X3X;X;X3X4X8X8X8X1XU.C.p.y.t.7 f.s.q.h.0.0 l.C.A.$X$X$X$X$X= = & M M M m v v # + + * * = % + # v $ + $ N i $X$X$X",
"$X$X$X@XD.,X7X8X7X7X7X7X2X8X8X8X1XU.C.e.t.t.7 f.s.t.h.5.q l.C.m.$X$X$X$X$X% N N M N N m m m N N m m m m m m m N m m N v i $X$X$X",
"$X$X%X@XD.,X6X7X7X7X8X7X7X2X7X6X1XU.V.p.q.t.7 f.d.q.h.5.w V.V.B.OX$X$X$X$XQ.Q.Q.Q.Q.Q.Q.Q.Q.Q.Q.Q.Q.Q.Q.Q.Q.Q.Q.Q.Q.Q.Q.E.$X$X$X",
"$X$X$X$XJ.>X7X7X7X7X7X7X7X0XeXrXrXT.V.p.q.y.0 d.f.t.h.e y V.V.B.$X$X$X$X$X$X$X$X$X$X$X$X$X$X$X$X$X$X$X$X$X$X$X$X$X$X$X$X$X$X$X$X",
"$X$X$X$XD.>X7X7X8X7X8X7XeXtXyXyXtXT.V.p.0.y.9 d.d.t.h.e 6.V.c.B.$X$X$X$X$X$X$X$X$X$X$X$X$X$X$X$X$X$X$X$X$X$X$X$X$X$X$X$X$X$X$X$X",
"$X$X$X%XF.>X7X7X7X7X7X7XeXrXyXyXtXT.V.t.0.y.9 d.d.t.g.0 6.V.c.B.$X$X$X$X$X$X$X$X$X$X$X$X$X$X$X$X$X$X$X$X$X$X$X$X$X$X$X$X$X$X$X$X",
"$X$X$X$XF.>X6X7X7X7X7X6X7X0XeXrXrXT.V.p.q.u.0 d.s.t.g.9 7.c.C.B.$X$X$X$X$X$X$X$X$X$X$X$X$X$X$X$X$X$X$X$X$X$X$X$X$X$X$X$X$X$X$X$X",
"$X$X$X$XF.>X6X6X7X7X7X7X7X7X7X7X4XY.V.p.t.u.0 d.s.t.g.7 w.V.V.B.$X$X$X$X$X$X$X$X$X$X$X$X$X$X$X$X$X$X$X$X$X$X$X$X$X$X$X$X$X$X$X$X",
"$X$X$X$XJ.R.8X6X7X7X7X7X7X6X8X8X1XY.V.p.0.u.q j.i.q.u.6 p.C.C.B.$X$X$X$X$X$X$X$X$XW.}.$X$X$X$X$X$X$X$X$X$X$X$X$X$X$X$X$X$X$X$X$X",
"$X$X$X$X~.:X8X6X7X7X7X7X7X8X6X6X1XY.V.p.0.t.y k.i.5.q.7 p.V.C.L.$X$X$X$X$X$X$XOXT - E.$X$X$X$X$X$X$X$X$X$X$X$X$X$X$X$X$X$X$X$X$X",
"$X$X$X$X[.I.9X9X9X9X0X0X9XwX9X9XwXY.V.s.5.8.d.C.j.8.6.7 s.C.C.L.$X$X$X$X$X@X^.z J ; h #.$.$.T T $.$.c T $.$.$.T E.E.oX$X$X$X$X$X",
"$X$X$X$X{.+XeXeXeXeXeX0XwXwX9X9X2XY.V.s.5.i.l.V.C.d.8.0 f.V.C.L.$X$X$X$X#XE.K P P 2 2 2 2 2 2 , 2 , 2 , , 2 1 2 1 > /.$X$X$X$X$X",
"$X$X$X$X{.+X0X0X9X9X9X7X6X8X7X7X8XR.C.s.7.l.V.e.p.c.d.u j.V.V. X$X$X$XoXT J P P P P P P P P P P P P P P P P P L : h $X$X$X$X$X$X",
"$X$X$X$X|.P.6X6X8X6X6X7X6X6X7X8X8XR.V.k.j.c.k.8 8 k.C.s.k.C.C. X$X$X(.Y J P P P P P P P P P P P P P P P P P P H - ^.$X$X$X$X$X$X",
"$X$X$X$X}.H.5X7X6X5X5X-X5X6X7XwXwXR.l.V.V.c.w.7 6 6.V.V.V.V.Z. X$X/.z L P P P P P P P P P P P P P P P P P P P 2 d $X$X$X$X$X$X$X",
"$X$X$X$X@XP.6X6X5X<.<.<.*XqXeXqXqX+XV.V.V.d.0 q.5.6 p.V.V.C.Z..X$Xz P P P P P P P P P P P P P P P P P P P P P 2 h $X$X$X$X$X$X$X",
"$X$X$X$X@XP.1X5X-X<.,.<.*X-X*X4.2.).s.l.k.u 6.h.h.e w k.V.V.Z..X$X^.I L P P P P P P P P P P P P P P P P P P P : < ^.$X$X$X$X$X$X",
"$X$X#X$X@XP.7X;X<.*X<.<.,.,.' ' *.%.s s 6.w g.h.h.y.7 6.V.C.Z.XX$X$X(.Y L P P P P P P P P P P P P P P P P P P P , h @X$X$X$X$X%X",
"$X$X$X$X@XP.7X;X<.,.` ` _ ' ' | *.;.s l 6.0.h.h.h.h.5.0 s.V.Z.XX$X$X$XoXT J P P P P P P P P P P P P P P P P P P H , E.$X$X$X$X$X",
"$X$X$X$X@XP.=X,._ _ ' ( E ( _ _ X.%.s z.9.t w.h.h.g.6.e.V.C.Z.XX$X$X$X$X@XW.K P P G f K U U U K U U U U U U U U U f $.$X$X$X$X$X",
"$X$X$X$X$XF.,.' ' ' ' ~ E E / ~ ) ;.a l t g p g.h.q.w.V.C.C.m.XX$X$X$X$X$X$X/.I J - c (.OX@X@X@X@X@X@X@X#X@X@X@XOX}.#X$X$X$X$X$X",
"$X$X$X$XOXD.@.' _ _ _ Q E E ~ ~ | ;.s a d g g 6.q.5.k.C.C.C.b.XX$X$X$X$X$X$X$X}.T d W.$X$X#X$X$X#X$X$X$X$X$X$X$X$X#X$X$X$X$X$X$X",
"$X$X$X$X$XS.#.' ' _ / ~ Q Q ~ ) | ;.s a a g g s 5.p.l.l.V.V.A.$X$X$X$X$X$X$X$X$X@XOX#X@X$X$X$X$X$X$X$X$X$X$X$X$X$X$X$X$X$X$X$X$X",
"$X$X$X$X$X[.#.' _ ) ~ ~ ~ ~ ) X.=.&.j l s g a p.p.V.c.p.j.V.A.OX$X$X$X$X$X$X$X$X$X$X$X$X$X$X$X$X$X$X$X$X$X$X$X$X$X$X$X$X$X$X$X$X",
"$X$X$X$X#X{.#._ / ~ ~ ~ ~ ) X.*.=.:.j l a.9.p.l.V.V.k.9 e.V.A.OX$X$X$X$X$X$X$X#X$X%X$X$X$X$X$X$X$X$X$X$X$X$X$X$X$X$X$X$X$X$X$X$X",
"$X$X$X$X$X(.$.~ ~ ~ ~ / ) X.o.*.=.>.j l f.e.V.V.Z.Z.6.5 s.V.m.oX$X$X$X$X$X$X$X#X$X@X@X$X$X$X$X$X$X$X$X$X$X$X$X$X$X$X$X$X$X$X$X$X",
"$X$X$X$X$XOXR ~ ~ ~ ~ ~ | =.=.=.=.>.j l r.q e.c.V.l.0 5 j.V.m.OX$X$X$X$X$X$X#X@X(.h c $X$X$X$X$X$X$X$X$X#X#X$X$X@X#X$X$X$X$X$X$X",
"$X$X$X$X$X(.R Q ~ ~ ~ ~ X.=.=.=.=.-.j d 9.r 5 e.V.6.5 9 j.V.B.OX$X$X$X$X$X$XoXS.f - x (.}.(.(.(.(.(.(.(.OX(.(.(.(.OX@X$X$X$X$X$X",
"$X%X$X$X#XOXD.Q ~ ~ / / X.*.=.=.=.-.j 9.j.8.9 7 s.q 5.9 d.V.B.$X$X$X$X$X$X}.Y K P ; 3 f 3 3 3 3 > 3 3 3 3 3 3 3 3 d ^.#X$X$X$X$X",
"$X$X$X$X@X(.x.~ ~ ~ ~ / | =.=.=.=.-.M.c.l.8.t.7 6.6.q.7 s.V.B.$X$X$X$X$X/.z L P P L J H J J J H G J G G H G J H 2 > (.$X$X$X$X$X",
"$X$X$X$X$XOXF.( Q ~ ~ ~ ) o.=.o...-.M.l.l.6.u.0 6.w.t.7 s.V.B.$X@X#X#XW.f P P P P P P P P P P P P P P P P P P P ; x #X$X$X$X$X$X",
"$X$X$X$X#XOXE.( ~ ~ ! Q |  .......-.M.k.V.q.u.0 6.6.q.9 j.V.B.$X#XoXS.K P P P P P P P P P P P P P P P P P P P f - ^.$X$X$X$X$X$X",
"$X$X$X$X$X#X~.@.Q ! W ^  ...........N.V.l.5.g.0 6.w.q.0 k.Z.B.$X@X$.K P P P P P P P P P P P P P P P P P P P P : d OX$X$X$X$X$X$X",
"$X$X$X$X#X@XF.@.Q ! ^  ...........-.N.V.V.6.g.0 6.6.5.q Z.Z.B.$X$Xc L P P P P P P P P P P P P P P P P P P P P 1 3 /.$X$X$X$X$X$X",
"$X$X$X$X$X$XF.R +.+.%.;.%.%.!.!.'.).B.V.C.6.y.0 8 6.6.s.C.C.L.$X$X@XE.f P P P P P P P P P P P P P P P P P P P J < x @X$X$X$X$X$X",
"$X$X$X$X$X$X~.M.N.x.N.[.[.N.[.[. XS.n.V.C.0.5.w t k.l.V.V.l.B.$X$X$X$X^.k L P P P P P P P P P P P P P P P P P P 2 < ^.$X$X$X$X$X",
"$X$X$X$X$X$X$X$X@X$X$X$X$X$X$X#X$X@XB.C.C.6.r w.k.C.C.V.V.V. X$X$X$X$X$X(.z J P P L L J J J J L J J J J J J J L H , h %X$X$X$X$X",
"$X$X$X$X$X$X$X$X$X$X$X$X$X$X$X$X$X|.n.C.l.w.s.V.Z.Z.V.C.b.S.OX$X$X$X$X$X$X}.T H P : d S.E.W.W.Q.W.W.E.W.E.W.W.W.E.E./.$X$X$X$X$X",
"$X$X$X$X$X$X$X$X$X$X$X$X$X%X%X$X$X$XB.V.V.V.C.V.C.c.Z.B.XX$X$X$X$X$X$X$X$X$X$XQ.I - c $X$X$X$X$X$X$X$X$X$X$X$X$X$X$X$X$X$X$X$X$X",
"$X$X$X$X$X$X$X$X$X$X%X%X].].].].&X&XT.V.V.V.l.V.C.b.T.$X$X$X$X$X$X$X$X$X$X$X$X$X/.c /.$X$X$X$X$X$X$X$X$X$X$X$X$X$X$X$X$X$X$X$X$X",
"$X$X$X$X$X$X%X].&X4.>.*.o.o.o.o.....S.V.V.V.V.V.B._.4.4.'.%X$X$X$X$X$X$X$X$X$X$X$X%X$X$X$X$X$X$X$X$X$X$X$X$X$X$X$X$X$X$X$X$X$X$X",
"$X$X$X$X%X%X4.3.o.} [ ] ] ] ] ] ] { S.C.V.V.C.N.&.[ } 1.3.4.%X$X$X$X$X$X$X$X$X$X$X$X$X$X$X$X$X$X$X$X$X$X$X$X$X$X$X$X$X$X$X$X$X$X",
"$X$X$X$X$X:.3.1.O. .} } } } } } }  .S.C.C.Z.!.-.{ ..O.1.1.2.].$X$X$X$X$X$X$X$X$X$X$X$X$X$X$X$X$X$X$X$X$X$X$X$X$X$X$X$X$X$X$X$X$X",
"$X$X$X%X$X`.:.>.2.1.3.1.1.1.1.1.1.1.~.C.B.`.*.1.=.-.1.2.&.&X%X$X$X$X$X$X$X$X$X$X$X$X$X$X$X$X$X$X$X$X$X$X$X$X$X$X$X$X$X$X$X$X$X$X",
"$X$X$X$X$X$X@X#X'.'.`.`.`.`.&X;.&X`.S.B.oX&X`.`.'.'.'.@X%X$X$X$X$X$X$X$X$X$X$X$X$X$X$X$X$X$X$X$X$X$X$X$X$X$X$X$X$X$X$X$X$X$X$X$X",
"$X$X$X$X$X#X#X$X$X#X$X$X$X$X$X$X$X$XXXOX$X@X$X#X@X$X$X#X$X$X$X$X$X$X$X$X$X$X$X$X$X$X$X$X$X$X$X$X$X%X$X$X$X$X$X$X$X$X$X$X$X$X$X$X"
};
