/* XPM */
static char *Close4D1721789023[] = {
/* columns rows colors chars-per-pixel */
"64 64 229 2 ",
"   c #0C0000",
".  c #130000",
"X  c #1B0000",
"o  c #220000",
"O  c #2C0000",
"+  c #390303",
"@  c #4C0707",
"#  c #560404",
"$  c #660404",
"%  c #6D0505",
"&  c #780707",
"*  c #77191A",
"=  c #7E1A1A",
"-  c #461F20",
";  c #4A3228",
":  c #553928",
">  c #663936",
",  c #733638",
"<  c #757C08",
"1  c #544532",
"2  c #64452B",
"3  c #684536",
"4  c #6C4B34",
"5  c #1E2C5F",
"6  c #1B3168",
"7  c #1D3778",
"8  c #2C3D6C",
"9  c #223B7B",
"0  c #593E6E",
"q  c #354E59",
"w  c #34506E",
"e  c #515F53",
"r  c #7C4A44",
"t  c #6A544E",
"y  c #7E5758",
"u  c #6C6253",
"i  c #736958",
"p  c #405D72",
"a  c #735070",
"s  c #506C6E",
"d  c #7A6868",
"f  c #726D73",
"g  c #7A7878",
"h  c #870606",
"j  c #8E0A0A",
"k  c #950606",
"l  c #920909",
"z  c #9A0909",
"x  c #9D1010",
"c  c #A90B0B",
"v  c #B30D0D",
"b  c #B31111",
"n  c #C30F0F",
"m  c #C71616",
"M  c #D61515",
"N  c #E21616",
"B  c #E12020",
"V  c #BE593C",
"C  c #C45432",
"Z  c #824C45",
"A  c #8A4E4E",
"S  c #924C55",
"D  c #825455",
"F  c #8C5151",
"G  c #86535B",
"H  c #935353",
"J  c #B2605C",
"K  c #8C5571",
"L  c #A85061",
"P  c #876E71",
"I  c #857174",
"U  c #82777A",
"Y  c #CC6E50",
"T  c #7B8509",
"R  c #6A8575",
"E  c #838B11",
"W  c #899011",
"Q  c #8C9414",
"!  c #A79F19",
"~  c #9CA41B",
"^  c #A5AC1E",
"/  c #A8A91D",
"(  c #A79931",
")  c #9CA121",
"_  c #A5AB22",
"`  c #A8AB26",
"'  c #B4AD23",
"]  c #AFB12A",
"[  c #B7B42A",
"{  c #BCBB2E",
"}  c #BCBA32",
"|  c #B7BA38",
" . c #FA9A06",
".. c #FA9B09",
"X. c #F19913",
"o. c #FAA00E",
"O. c #F9A314",
"+. c #E79F22",
"@. c #CBAF2C",
"#. c #D7B734",
"$. c #EFA82C",
"%. c #F3AB33",
"&. c #F9AB34",
"*. c #E7B83B",
"=. c #FABD31",
"-. c #F9B63C",
";. c #FAC338",
":. c #8E9351",
">. c #9BA146",
",. c #B5B641",
"<. c #878F72",
"1. c #AE8878",
"2. c #CDB64F",
"3. c #EBA342",
"4. c #F4BC42",
"5. c #FCBB43",
"6. c #E5B95A",
"7. c #E5BA5B",
"8. c #D59C62",
"9. c #D9B569",
"0. c #CBB271",
"q. c #D9B977",
"w. c #B3C352",
"e. c #B0C970",
"r. c #FAC945",
"t. c #F3CB54",
"y. c #E4C069",
"u. c #1E3B81",
"i. c #223E83",
"p. c #264389",
"a. c #2B4A95",
"s. c #294996",
"d. c #355190",
"f. c #2D50A3",
"g. c #3253A4",
"h. c #3759A9",
"j. c #3659AD",
"k. c #375BB1",
"l. c #3A5DB4",
"z. c #3D61B6",
"x. c #3D62BC",
"c. c #5F5390",
"v. c #596E98",
"b. c #6A788C",
"n. c #747D98",
"m. c #565BA2",
"M. c #566BA7",
"N. c #4967B6",
"B. c #4466BE",
"V. c #526EB9",
"C. c #5973B7",
"Z. c #6B7BA6",
"A. c #6779B3",
"S. c #3F65C1",
"D. c #4065C0",
"F. c #867A87",
"G. c #9E7097",
"H. c #7C8D8F",
"J. c #7D8397",
"K. c #5D85BA",
"L. c #7887A7",
"P. c #718FAE",
"I. c #749CB5",
"U. c #76A5B9",
"Y. c #7EB2BC",
"T. c #7AAFC2",
"R. c #878586",
"E. c #8E8A8A",
"W. c #928B8D",
"Q. c #8A8B95",
"!. c #8F9192",
"~. c #999195",
"^. c #959499",
"/. c #9B999E",
"(. c #A9838B",
"). c #B7AB97",
"_. c #868CA9",
"`. c #8894A5",
"'. c #8D92AC",
"]. c #9597A7",
"[. c #9C9CA3",
"{. c #9D9EAB",
"}. c #8C95B3",
"|. c #A09FA4",
" X c #9CA3A8",
".X c #84B1B6",
"XX c #A3A1A6",
"oX c #A9A5A6",
"OX c #ACA9A7",
"+X c #A7A6AB",
"@X c #B6B2AA",
"#X c #C98E8D",
"$X c #C9B58C",
"%X c #D2B0AA",
"&X c #E2BFB7",
"*X c #9ED18E",
"=X c #B2D194",
"-X c #9FDDBB",
";X c #B4D6A8",
":X c #ACD6B5",
">X c #B8E1B8",
",X c #CFD3A8",
"<X c #85BCC2",
"1X c #8AC6CA",
"2X c #9BD6C9",
"3X c #8FD2D2",
"4X c #95DAD4",
"5X c #9ADDD5",
"6X c #A4DCC6",
"7X c #9DE1C9",
"8X c #9AE1D7",
"9X c #97E2D8",
"0X c #9BE1D8",
"qX c #B6E7C9",
"wX c #A3E4DA",
"eX c #A7E4DB",
"rX c #B3E8DC",
"tX c #A9E7E0",
"yX c #ADEAE2",
"uX c #B2EBE4",
"iX c #B9E8E2",
"pX c #CCCAC9",
"aX c #EAD8D2",
"sX c #C5ECE7",
"dX c #CDF1EC",
"fX c #D5F1EE",
"gX c #DBF4F1",
"hX c #E4F5F3",
"jX c #E9F4F2",
/* pixels */
"+X+X+X+X+X+X+X+X+X+X+X+X+X+X+X+X+X+X+X+X+X+X+X+X+X+X+X+X+X+X+X+X+X+X+X]._.+X+X+X+X+X+X+X+X+X+X+X+X+X+X+X+X+X+X+X+X+X+X+X+X+X+X+X",
"+X+X+X+X+X+X+X+X+X+X+X+X+X+X+X+X+X+X+X+X+X+X+X+X+X+X+X+X+X+X+X+X+X+X+XZ._.+X+X+X+X+X+X+X+X+X+X+X+X+X+X+X+X+X+X+X+X+X+X+X+X+X+X+X",
"+X+X+X+X+X+X+X+X+X+X+X+X+X+X+XOX+X+X+X+X+X+X+X+X+X+X+X+X+X+X+X+X+X+X'.N._.+X+X+X+X+X+X+X+X+X+X+X+X+X+X+X+X+X+X+X+X+X+X+X+X+X+X+X",
"+X+X+X+X+X+X+X+X+X+X+X+X+X+X+X+X+X+X+X+X+X+X+X+X+X+X+X+X+X+X+X+X+X+XA.B._.+X+X+X+X+X+X+X+X+X+X+X+X+X+X+X+X+X+X+X+X+X+X@X+X+X+X+X",
"+X+X+X+X+X+X+X+X+X+X+X+X+X+X+X+X+X+X+X+X+X+X+X+X+X+X+X+X+X+X+X+X+X'.B.B.'.+X+X+X+X+X+X+X+X+X+X+X+X+X+X+X+X+X+X+X+X+X+X+X+X+X+X+X",
"+X+X+X+X+X+X+X+X+X+X+X+X+X+X+X+X+X+X+X+X+X+X+X+X+X+X+X+X+X+X+X+X|.A.D.B.'.+X+X+X+X+X+X+X+X+X+X+X+X+X+X+X+X+X+X+X+X+X+X+X+X+X+X+X",
"+X+X+X+X+X+X+X+X+X+X+X+X+X+X+X+X+X+X+X+X+X+X+X+X+X+X+X+XOX+X+X+X_.B.l.B.{.+X+X+X+X+X+X+X+X+XoX+X+X+X+X+X+X+X+X+X+X+X+X+X+X+X+X+X",
"+X+X+X+X+X+X+X+X+X+X+X+X+X+X+X+X+X+X+X+X+X+X+X+X+X+X+X+X+X+X+X+XC.S.s.N.{.+X+X+X+X+X+X+X+X+XoXoX+X+X+X+X+X+X+X+X+X+X+X+X+X+X+X+X",
"+X+X+X|.n.Q._.].{.{.]. X XXXoX+X+X+X+XXX+X+X+X+X+X+X+X+X+X+X+X_.B.j.6 N.].~.~.~.~.~.~.~.~.~.~.~.~.~.~.~.~.~.^.^.[.~.~.~.W.+X+X+X",
"+X+X+X|.M.I..XU.I.I.L.L.L.`.J.`.`.`. X X[.[.XX X+X+X+X+X+X+X XV.x.9 5 N.].> z z z z z z z z z z z z z z z z z z z z z z + +X+X+X",
"+X+X+X|.P.6X0X0X5X5X2X4X4X4X3X1X.XY.U.U.I.I.P.L.L.L.P.'.'.`.L.S.k.6 7 N.{., z # j k h k & # & # # & @ % % h j j l h % c @ +X+X+X",
"+X+X+X|.n.5X0X0X0X5X9X8X0X8X9X9X8X8X9X8X9X5X4X4X<X<X1X1X<Xv.l.x.j.p.i.N.{., l # M b b b z + n h z c o x l h b B m v $ k @ +X+X+X",
"+X+X+X+X_.2X5X5X9X8X5X5X9X8X8X8X8X8X8X9X8X8X0X9X9X9X9X9X0XI.S.j.s.s.i.V.|.Z l # M # @ # + X % N M # X z j . o b & X X k - +X+X+X",
"+X+X+X+Xn.2X0X5X0X6X$X=X:X0X8X8X8X8X8X8X8X8X8X8X0XuXsXiXwXU.S.i.i.a 0 V.]., h # B m m b c o O M n o . x x   . b &   . k # +X+X+X",
"+X+X+X+Xn.1X5X0X6X2.X.X.2.6X8X8X8X8X8X8X8X8X0XdXgXhXjXjXfXU.B.6 0 S 0 C.|., k # m @ O o o . $ M M @ . x j . . b &   . k # +X+X+X",
"+X+X+X+Xn.<X0X0X;X+. . .X.=X0X8X8X8X8X8X8X8X0XuXdXfXfXsXiX}.m.a V V G C.|.Z k # m O       O v j c v o x j   . b %   X z - +X+X+X",
"+X+X+X+XZ.<X5X5X;X+. ...+.=X8X8X8X8X8X8X8X8X8X0X0XwXwX8X8XU.G.J 8.8.a C.+X, j @ m @ + O + & m + + M $ c j   . b &   . k @ +X+X+X",
"+X+X+X+XQ.<X0X5X7X0.+.+.9.6X8X8X8X0X8X8X8X8X8X8X0X0X5X8X5XU.J 8.aX&Xa A.+X, j @ M m m m c b % . . h c l h . . x %   . l @ +X+X+X",
"+X+X+X+X_.1X5X0X8X6X;X;X6X8X8X8X8X8X8X8X8X8X8X8X9X9X8X0X5XU.J aXaX&XK A.+X, b & j l j j j h & % % & h h h % % h h % % v @ +X+X+X",
"+X+X+X+X`.<X9X0X8X8X5X0X9X5X8X8X8X8X8X8X8X8X8X8X8X8X8X8X9XT.#XaX@X%Xa A.{.t * j = = = * j = * j = = = * = = = = * = = * ; +X+X+X",
"+X+X+X+X[.<X8X8X8X8X9X0X0X0X8X9X0X0X8X8X8X0X5X0X5X5X0X8X5XK.#XpXpX%Xa A.+X+X+X+X+X+X+X+X+X+X+X+X+X+X+X+X+X+X+X+X+X+X+X+X+X+X+X+X",
"+X+X+X+X X<X8X8X8X0X8X8X8X0X0X9XwX5XwXeXrXiXsXiXeXwX5X0X5XC.#X|.pX%XK A.+X+X+X+X+X+X+X+X+X+X+X+X+X+X+X+X+X+X+X+X+X+X+X+X+X+X+X+X",
"+X+X+X+X XY.8X8X9X8X8X9X8XrXsXdXdXfXfXhXhXhXhXhXhXdXiXeX5XK.%XpXjXY K L.+X+X+X+X+X+X+X+X+X+X+X+X+X+X+X+X+X+X+X+X+X+X+X+X+X+X+X+X",
"+X+X+XXX XY.9X8X9X8X8X8XiXjXjXjXjXjXjXjXjXjXjXjXjXjXhXsX0XK.(.aX#XY c.}.+X+X+X+X+X+X+X+X+X+X+X+X+X+X+X+X+X+X+X+X+X+X+X+X+X+X+X+X",
"+X+X+X+X XY.9X5X8X8X8X9XeXdXhXjXjXjXjXjXjXjXjXhXgXhXhXhXtXK.L J C L m.G.{.+X+X+X+X+X+X+X+X+X+X+X+X+X+X+X+X+X+X+X+X+X+X+X+X+X+X+X",
"+X+X+X+X XU.9X8X8X8X8X8X8XwXrXsXfXfXgXgXfXdXsXrXeXrXiXsX0XK.L V L 8 N.'.+X+X+X+X+X+X+X+X+X+X+X+X+X+X+X+X+X+X+X+X+X+X+X+X+X+X+X+X",
"+X+X+X+X XI.8X0X0X9X8X8X0X9X0X0X5XwX6XwXwX8X0X0X0X0X5X0X3XC.K a g.i.N.'.+X+X+X+X+X|.R.g +X+X+X+X+X+X+X+X+X+XoX+X+X+X+X+X+X+X+X+X",
"+X+X+X+X XI.5X0X0X9X8X8X8X9X0X9X0X8X8X0X0X0X0X8X0X5X0X8XT.l.m.p.i.i.N.'.+X+X+X+X[.g 3 u |.+XoX+XXXXXXXXX+XoXXXXX+X+X+X+X+X+X+X+X",
"+X+X+X+X+XU.8X0X8X8X0X8X8X8X9X9X8X8X0X9X0X0X9X8X8X8X8X8XT.z.s.p.s.u.N.{.+X+X+X^.G F 4 1 i i i u u u u u u i i i i i i R.+X+X+X+X",
"+X+X+X+XXXI.eXyXyXuXyXeXeXeXwXeXwXwX9X8X8X8X0X0X5X8X8X9XU.z.s.j.j.9 N.{.+X{.F.y H H H Z Z Z Z A r r Z 4 A 4 Z Z r Z : F.+X+X+X+X",
"+X+X+X+XXXL.rXuXuXrXyXyXyXyXtXeXwX0X8X8X8X8X8X0X0X0XwXwXI.z.s.z.l.i.N.|.|.I D H H H H H H H H H H H H H H H H H H r 1 {.+X+X+X+X",
"+X+X+X+XoXI.5X8X8X0X0X8X9X9X9X9X8X9X8X0XwXeXtXyXuXuXuXyXU.k.f.s.l.g.N.^.P F H H H H H H H H H H H H H H H H H H H ; g +X+X+X+X+X",
"+X+X+X+X+X`.3X9X7X9X9X9X8X9X9X9X9X7XeXuXuXuXuXuXuXuXuXuXU.x.k.6 l.S.N.a F H H H H H H H H H H H H H H H H H H H Z : ^.OX+X+X+X+X",
"+X+X+X+X+X`.1X9X7X-X-X7X8X8XwXwXuXuXuXuXuXuXuXuXuXuXyXuXU.x.p.7 g.l.M.G H H H H H H H H H H H H H H H H H H H H r 4 !.OX+X+X+X+X",
"+X+X+X+X+X`.<X2X*Xw.e.*XwXeXeXuXuXuXuXuXuXuXiXuXuXuXuXuXU.k.7 s.9 w M.F.D H H H H H H H H H H H H H H H H H H H D 2 i oX+X+X+X+X",
"+X+X+X+X+X`.Y.*Xe.w.e.=XqXqX>X;X,X=X,X=X=X;X;X>XqXqXeXeXI.f.u.f.6 w M.oXE.y H H H H H H H H H H H H H H H H H H H r 4 !.+X+X+X+X",
"+X+X+X+X+X]..Xe.-Xe.e.e.w.w.2.t.r.#.| | | | | w.w.w.w.e.H.j.p.9 9 p M.H.|.^.d A H H H H H H H H H H H H H H H H H H 2 u  X+X+X+X",
"+X+X+X+X+X].!.e.w.] | { { { #.;.;.} } } { { } { { { } } R k.w e q p w R R oX/.P F H Z t P d P P P P I P I I I P I I d g XX+X+X+X",
"+X+X+X+X+X[.!.| } { [ ^ { } #.4.r.@.{ { { { } { } { } } H.j.e s q q w R s XX+XXXF.D , e |.XX+X+X+X+X+X+X+X+X+X+X+X+XoX+X+X+X+X+X",
"+X+X+X+XOXXX<.{ } } ~ Q ] [ [ *.4.;.{ [ ] { { { { } } } H.l.q e q w p R i XX+X+X+X~.i F.+XoX+X+X+X+X+X+X+X+X+X+X+X+X+X+X+X+X+X+X",
"+X+X+X+X+XXXR.| { { Q T ^ _ _ #.4.4.#.^ ^ ^ ] ~ T | { { R S.d.w d.d.H.R R.+X+X+X+X+X+X+X+X+X+X+X+X+X+X+X+X+X+X+X+X+X+X+X+X+X+X+X",
"+X+X+X+X+X+XH.,.{ ^ Q Q ~ ^ / #.-.5.-.' ^ ^ ^ E T _ [ | b.k.g.g.d.s P. X+X+X+X+X+X+X+X+X+X+X+X+X+X+X+X+X+X+X+X+X+X+X+X+X+X+X+X+X",
"+X+X+X+X+XXXJ.| ` ^ / / ^ ^ @.-.5.5.4.@.^ ^ ~ E T ) _ ] b.j.f.j.p.w }.+X+X+X+X+X+X+X+X+X+X+X+X+X+X+X+X+X+X+X+X+X+X+X+X+X+X+X+X+X",
"+X+X+X+X+X[.n.>.^ ^ _ ^ ] #.-.r.5.5.4.[ _ ^ W T T T ~ ` b.j.a.g.q p _.+X+X+X+X+X+X+X+X+X+X+X+X+X+X+X+X+X+X+X+X+X+X+X+X+X+X+X+X+X",
"+X+X+X+X+X+Xb.:.^ ^ ^ ' #.5.5.5.5.r.*./ ^ _ E < T E ^ _ b.j.7 i.8 w '.+X+X+X+X+X+X+X[./.+X+X+X+X+X+X+X+X+X+X+X+X+X+X+X+X+X+X+X+X",
"+X+X+X+X+X+Xn.:.^ ^ ' #.5.5.5.5.5.-.@.^ ^ ^ Q T T T ~ _ v.j.7 6 f.h.'.+X+X+X+X+X+XR.1 g +X+X+X+X+X+X+X+X+X+X+X+X+X+X+X+X+X+X+X+X",
"+X+X+X+X+X+XJ.:.^ ^ @.4.5.5.5.5.5.#._ ^ ^ ^ ~ ) ) Q ) ` v.j.i.u.g.B.'.+X+X+X+X[.d D : i !.E.E.E.R.R.E.E.E.!.E.E.E.W.!.|.+X+X+X+X",
"+X+X+X+X+X XQ.:._ ` *.5.5.5.5.5.5.#.^ ^ ^ ^ / ^ _ ^ _ ) v.j.u.p.g.B.'.+X+X+XE.y F F > 4 3 4 2 1 2 : 2 2 : 2 2 2 2 2 1 !.+X+X+X+X",
"+X+X+X+X+X+XQ.<.^ / *.5.5.5.5.5.5.@.` ^ ^ ^ _ ^ ^ ^ ^ ` v.g.p.s.g.B.'.+XXXF.y H H H H H H H H H H F F F H H F F H 3 e /.|.+X+X+X",
"+X+X+X+X+X+XQ.<.^ / #.-.5.5.5.5.5.4.@./ ^ / ^ ) _ ^ ^ ` Z.s.p.p.a.B.].[.g A S H H H H H H H H H H H H H H H H H F ; g +X+X+X+X+X",
"+X+X+X+X+X+X^.<.^ / @.-.-.5.-.-.-.-.%.@./ ! / / _ _ ^ ` Z.g.7 s.a.V.Q.P A H H H H H H H H H H H H H H H H H H H 3 1 [.+X+X+X+X+X",
"+X+X+X+X+X+X[.<./ / #.&.&.&.&.&.&.&.%.&.@.! ! ! / ~ _ ` A.S.s.p.s.B.f A H H H H H H H H H H H H H H H H H H H H > u [.+XOX+X+X+X",
"+X+X+X+X+X+X/.b.~ +.&.&.&.&.3.%.3.3.3.&.3.2.( :.:.:.:.<.A.S.l.u.p.V.F.y F H H H H H H H H H H H H H H H H H H H 4 2 !.oX+X+X+X+X",
"+X+X+X+X+X+XXXv.g 1.1.G.1.1.P F.F.F.G.P G.G.~.F.R.R.].{.L.B.S.a.p.C.{.].d S H H H H H H H H H H H H H H H H H H H 2 i  X+X+X+X+X",
"+X+X+X+X+X+X+X`.~././././.XX].[.|.|.oXoXoXoX|.+X+X+X+X+X+XC.B.l.k.V.+X+X[.d A H H H H H H H H H H H H H H H H H H Z 2 U +X+X+X+X",
"+X+X+X+X+X+X+X+X+XoXOX$X$X$X$Xq.q.y.y.y.y.9.q.q.q.$X$X$XOX'.B.B.S.C.{.+X+X|.g D H H A r r y D D D D D D D D D D D y t d +X+X+X+X",
"+X+X+X+X+X+XOX@X$Xq.6.=.$.O.O.O.o.o.o...o.o.o.O.O.O.$.-.t.q.Z.B.S.C.+X+X+X+X+XQ.y F ; d ^.^.[./././.|././././.[./././. X+X+X+X+X",
"+X+X+X+X+X+XOX$Xt.r.O... . . . . . . . . . . . . . . .O.;.r.q.N.S.C.{.+X+X+X+X|./.d ; R.+X+X+X+X+X+X+X+X+X+X+X+X+XoX+X+X+X+X+X+X",
"+X+X+X+X+X+X).7.r.;.;.;.=.=.=.=.=.=.=.=.=.=.=.=.;.;.-.;.;.r.6._.S.C.+X+X+X+X+X+X+X|.~.+X+X+X+X+X+X+X+X+X+X+X+X+X+X+X+X+X+X+X+X+X",
"+X+X+X+X+X+X+X).).0.9.9.7.6.7.7.6.6.6.6.7.7.6.7.6.9.9.0.0.).oX{.V.A.+X+X+X+X+X+X+X+X+X+X+X+X+X+X+X+X+X+X+X+X+X+X+X+X+X+X+X+X+X+X",
"+X+X+X+X+X+X+X+X+X+X+X+X+XoXoXoX|.+X+XOXOXoXoXoX+XoX+XoX+X+X+X+X_.A.+X+X+X+X+X+X+X+X+X+X+X+X+X+X+X+X+X+X+X+X+X+X+X+X+X+X+X+X+X+X",
"+X+X+X+X+X+X+X+X+X+X+X+X+X+X+X+X+X+X+X+X+X+X+X+X+X+X+X+X+X+X+X+X+X{.+X+X+X+X+X+X+X+X+X+X+X+X+X+X+X+X+X+X+X+X+X+X+X+X+X+X+X+X+X+X",
"+X+X+X+X+X+X+X+X+X+X+X+X+X+X+X+XK.{.+X+X+X+X+X+X+X+X+X+X+X+X+X+X+X+X+X+X+X+X+X+X+X+X+X+XOX+X+X+X+X+X+X+X+X+X+XOX+X+X+X+X+X+X+X+X",
"+X+X+XOX+X+X+X+X+X+X+X+X+X+X+X{.C.B.}.+X+X+X+X+X+X+X+X+X+X+X+X+X+X+X+X+X+X+X+X+X+X+X+X+X+X+X+X+X+X+X+X+X+X+X+X+X+X+X+X+X+X+X+X+X"
};
