/* XPM */
static char *Close2F1721789019[] = {
/* columns rows colors chars-per-pixel */
"64 64 228 2 ",
"   c #020000",
".  c #0B0202",
"X  c #130606",
"o  c #190909",
"O  c #250B0B",
"+  c #2D0B0B",
"@  c #370E0E",
"#  c #380E0E",
"$  c #2C1212",
"%  c #371616",
"&  c #3C1212",
"*  c #251F20",
"=  c #262021",
"-  c #3D2E2F",
";  c #451717",
":  c #7D1813",
">  c #502E1D",
",  c #7E2315",
"<  c #4B2221",
"1  c #592626",
"2  c #51362A",
"3  c #432F30",
"4  c #632A2A",
"5  c #653232",
"6  c #683B36",
"7  c #743732",
"8  c #674724",
"9  c #654B2B",
"0  c #6D4336",
"q  c #74473A",
"w  c #0D1E49",
"e  c #0F1F4C",
"r  c #10214F",
"t  c #122454",
"y  c #15285B",
"u  c #14295E",
"i  c #3F3E40",
"p  c #142B63",
"a  c #192E67",
"s  c #1B316C",
"d  c #132F71",
"f  c #1C377A",
"g  c #203467",
"h  c #213773",
"j  c #243C7B",
"k  c #453F41",
"l  c #324954",
"z  c #3B5551",
"x  c #334D6D",
"c  c #4A4042",
"v  c #574F47",
"b  c #585555",
"n  c #595457",
"m  c #6F534B",
"M  c #7A5759",
"N  c #4A6A58",
"B  c #6A6045",
"V  c #6B6457",
"C  c #746C5D",
"Z  c #4D5A78",
"A  c #765F61",
"S  c #49686F",
"D  c #7B6365",
"F  c #766A63",
"G  c #736D6A",
"H  c #787675",
"J  c #AD1C1B",
"K  c #8A2818",
"L  c #942D1A",
"P  c #B7272D",
"I  c #B7373D",
"U  c #CC191F",
"Y  c #D71C22",
"T  c #E31C23",
"R  c #EC1C24",
"E  c #CF252B",
"W  c #B23B41",
"Q  c #854D4D",
"!  c #8C5050",
"~  c #935353",
"^  c #A74C50",
"/  c #936468",
"(  c #817C79",
")  c #957377",
"_  c #7B827B",
"`  c #8E9715",
"'  c #A39E18",
"]  c #9EA61D",
"[  c #A5A61B",
"{  c #A6AD1E",
"}  c #BAA11E",
"|  c #A7AC23",
" . c #A8AD2B",
".. c #B8AD24",
"X. c #B9B92D",
"o. c #B7B734",
"O. c #BCBB31",
"+. c #FB9704",
"@. c #F79B0A",
"#. c #F49A14",
"$. c #F9A918",
"%. c #D3B233",
"&. c #F0AC29",
"*. c #F7AB35",
"=. c #E2B839",
"-. c #F6B43A",
";. c #F9C036",
":. c #93934E",
">. c #9CA340",
",. c #938F6F",
"<. c #87857B",
"1. c #B39372",
"2. c #DC9254",
"3. c #D4B04F",
"4. c #F4BC42",
"5. c #FDBB43",
"6. c #ECB051",
"7. c #C59D6D",
"8. c #D6B46D",
"9. c #E5B361",
"0. c #B4C353",
"q. c #ADC971",
"w. c #F7C747",
"e. c #EFC455",
"r. c #F7CB54",
"t. c #D1C278",
"y. c #1D3C85",
"u. c #243F83",
"i. c #294487",
"p. c #23428B",
"a. c #335087",
"s. c #234493",
"d. c #24499D",
"f. c #284998",
"g. c #314F9B",
"h. c #34539B",
"j. c #254BA2",
"k. c #264EA9",
"l. c #2751AE",
"z. c #2B51A8",
"x. c #3354A4",
"c. c #3A5AA5",
"v. c #3556A9",
"b. c #3759AC",
"n. c #385AAD",
"m. c #2955B7",
"M. c #2B58BE",
"N. c #3A5DB3",
"B. c #3A5EB6",
"V. c #3B60B7",
"C. c #3D62BC",
"Z. c #5A799F",
"A. c #747B91",
"S. c #4266BF",
"D. c #4669BF",
"F. c #4B6CBE",
"G. c #5372B3",
"H. c #5873BB",
"J. c #6877A9",
"K. c #7979A4",
"L. c #657BB9",
"P. c #3F65C1",
"I. c #4166C0",
"U. c #4568C0",
"Y. c #4E73C1",
"T. c #8D7D8E",
"R. c #6A829F",
"E. c #7D849D",
"W. c #5D88AD",
"Q. c #6689AA",
"!. c #7988A5",
"~. c #6D83B6",
"^. c #7988B7",
"/. c #7096B3",
"(. c #79ACB8",
"). c #5886C3",
"_. c #6799C7",
"`. c #7795CB",
"'. c #77AACB",
"]. c #888585",
"[. c #978588",
"{. c #8A8B98",
"}. c #928E92",
"|. c #99969A",
" X c #A59594",
".X c #BDA484",
"XX c #BDA88A",
"oX c #B6A999",
"OX c #B5AC9D",
"+X c #868AA3",
"@X c #8B93A8",
"#X c #9E9DA3",
"$X c #989BAA",
"%X c #838EB2",
"&X c #8A93B2",
"*X c #959AB0",
"=X c #A09EA3",
"-X c #9DA1AD",
";X c #89A7B9",
":X c #A2A1A6",
">X c #ABA7A6",
",X c #A7A6AB",
"<X c #ACA9A8",
"1X c #C5B18B",
"2X c #B1D396",
"3X c #ABCFA8",
"4X c #A9DAA7",
"5X c #AAD7B8",
"6X c #83B9C2",
"7X c #8AC9C8",
"8X c #8ED1CF",
"9X c #9ADCC7",
"0X c #96DCD4",
"qX c #99DDD5",
"wX c #A1DEC7",
"eX c #A1DFD1",
"rX c #9DE0C9",
"tX c #96E2D7",
"yX c #9AE1D7",
"uX c #9AE1D8",
"iX c #A5E6DD",
"pX c #A9E6DB",
"aX c #B0E7D5",
"sX c #ACEAE1",
"dX c #B3EAE3",
"fX c #CCEEEA",
"gX c #E4F1EF",
"hX c #E5F5F1",
/* pixels */
",X,X,X,X,X,X<X,X,X,X,X,X,X,X,X,X&X%X=X=X,X,X,X,X,X,X,X,X,X,X,X,X,X,X,X,X,X,X,X,X,X,X,X,X,X,X,X,X,X,X,X,X,X,X,X,X,X,X,X,X,X,X,X,X",
",X,X,X,X,X,X,X,X,X,X,X,X,X,X,X,X%XS.`.$X,X,X,X,X,X,X,X,X,X,X,X,X,X,X,X,X,X,X,X,X,X,X,X,X,X,X,X,X,X,X,X,X,X,X,X,X,X,X,X,X,X,X,X,X",
",X,X,X,X,X,X,X,X,X,X,X,X,X,X,X,X&XS.I.H.*X,X,X,X,X,X,X,X,X,X,X,X,X,X,X,X,X,X,X,X,X,X,X,X,X,X,X,X,X,X,X,X,X,X,X,X,X,X,X,X,X,X,X,X",
",X,X,X,X,X,X,X,X,X,X,X,X<X,X,X,X&XI.I.P.F.%X,X,X,X,X,X,X,X,X,X,X,X,X,X,X,X,X,X<X,X,X,X,X,X,X,X,X,X,X,X,X,X,X,X,X,X,X,X,X,X<X,X,X",
",X,X,X,X,X,X,X,X,X,X,X,X,X,X,X,X@XI.P.P.I.U.~.-X,X,X,X,X,X,X,X,X,X,X,X,X,X,X,X,X,X,X,X,X,X,X,X,X<X,X,X,X,X,X,X,X,X,X,X,X,X,X,X,X",
",X,X,X,X,X,X,X,X,X,X,X,X,X,X,X,X&XS.P.P.I.I.I.L.*X,X,X,X,X,X,X,X,X,X,X,X,X,X,X,X,X,X,X,X,X,X,X,X,X,X,X,X,X,X,X,X,X,X,X,X,X,X,X,X",
",X,X,X,X,X,X,X,X,X,X,X,X,X,X,X,X*XS.S.v.V.P.P.P.H.&X,X,X,X,X,X,X,X<X,X,X,X,X,X,X,X,X,X,X,X,X,X,X,X,X,X,X,X,X,X,X,X,X,X,X,X,X,X,X",
",X,X,X,X,X,X,X,X,X,X,X,X,X,X,X,X*XD.C.t s C.P.P.I.U.^.*X,X,X,X,X,X,X,X,X,X,X,X,X,X,X,X,X,X,X,X,X,X,X,X,X,X,X,X,X,X,X,X,X,X,X,X,X",
",X,X:X#X@X@X$X-X,X,X:X>X>X,X,X,X*XY.P.s r h B.S.P.P.S.H.*X,X,X,X,X,X,X,X-X,X,X,X,X,X,X,X,X,X,X,X,X,X,X,X,X,X,X,X,X,X,X,X,X,X,X,X",
",X,X,XK.G././.Q.~.Z.Q.Q.K.!.@X-X&XU.P.y.d w a n.P.P.I.P.U.%X,X>X,X,X,X,XG - 3 3 3 3 3 3 3 3 3 3 3 3 3 3 3 3 3 3 3 3 3 - i ,X,X,X",
",X,X,X!.(.0XyXqX0X8X7X7X;X(.(.(.W.P.P.u.d.f w g.P.P.P.P.U.U.L.-X,X,X,X,Xn ; + + + + + + + + + + + + + + + + O + % $ + ; * ,X,X,X",
",X,X,X!.(.qXyXtXqXtXqXqXtXtXtXtX8XY.P.u.k.s.w x.B.u.P.P.P.P.S.H.,X,X,X,Xn % . < 1 1 1 < . + + . & X   < o < 1 5 1 < X # = ,X,X,X",
",X,X,X@X/.tXtXyXyXtXrXtXtXyXyXyX0XY.P.u.j.d.e x.v.e j C.P.P.P.U.-X,X,X,Xn ; . 1 $ X o o   X 4 & 1 . . 5 X X o 6 o X . & = ,X,X,X",
",X,X,X@XW.0XtXtXwX3X2X5XyXyXyXyX0XY.P.s.j.d.r b.v.u e h N.S.I.Y.-X,X,X,Xn % . 4 < % % % .   ; 7 +   . 5 X   . 6 X     & = ,X,X,X",
",X,X,X$XQ.qXqXeXt.&.#.3.4XyXyXyXuXY.U.u.j.j.t b.C.y.u.t u N.P.Y.-X,X,X,Xn % X 5 % % % $ .   % 7 O   . 5 X   . 5 .     & = ,X,X,X",
",X,X,X|.~.qXqX5X%.@.+.#.8.iXtXyXiXY.I.u.k.j.t N.B.y.M.y.r v.P.H.,X,X,X,Xn ; . 1 o         X 1 ; 1 . . 5 X   . 5 X     & = ,X,X,X",
",X,X,X-XW.9XtX5X&.+.+.#.q.eXiXqX0X).P.g.l.j.y n.v.s.M.d.t N.U.Y.,X,X,X,Xn & . 1 X         ; ; . 1 + X 4 .   . 5 .     & * ,X,X,X",
",X,X>X-XZ.8XyXqX2X=.&.7.5XqXqXuX0X).P.g.k.j.y N.v.s.M.d.p B.U.Y.-X,X,X,Xn & . 4 % $ $ $ O 1 o   o 4 X 5 X   . 5 X     & = ,X,X,X",
",X,X,X-XZ.8XtXyXeX5X5XwXqXuXqXuX0X).S.z.l.j.t n.v.d.M.s.p C.I.Y.,X,X,X,Xn &   % < < < ; O +       @ o # .     % .     # = ,X,X,X",
",X,X,X-XR.7XyXyXyXyXqXyXuXuXuXuX0X).C.h.j.j.t b.v.j.M.y.a C.I.L.-X,X,X,Xn ; @ @ # & # @ @ @ # & @ # # # @ @ @ @ $ # # ; * ,X,X,X",
",X,X,X>XR.8XyXyXyXyXyXtXyXqXtXtX0X).P.g.d.j.t b.v.d.M.y.f P.P.L.,X,X,X,XH k c c c c c c c c c c c c c c c c c c c c c c n ,X,X,X",
",X,X,X-X!.7XyXyXyXyXyXyXeXpXdXfXfX`.P.x.d.k.p b.b.j.M.d h P.P.L.,X,X,X,X,X,X,X,X,X,X,X,X,X,X,X,X,X,X,X,X,X,X,X,X,X,X,X,X,X,X,X,X",
",X,X,X,XE.7XyXyXyXyXyXyXdXfXhXhXgX`.P.z.s.k.u n.b.k.M.d j C.S.L.,X,X,X,X,X,X,X,X,X,X,X,X,X,X,X,X,X,X,X,X,X,X,X,X,X,X,X,X,X,X,X,X",
",X,X,X,X!.7XyXyXyXyXyXyXdXhXhXhXgX`.P.z.s.k.u v.b.j.m.p u.I.S.L.,X,X,X,X,X,X,X,X,X,X,X,X,X,X,X,X,X,X,X,X,X,X,X,X,X,X,X,X,X,X,X,X",
",X,X,X,XE.7XtXyXyXyXyXtXyXpXdXfXfX`.S.x.d.l.u n.v.j.m.u i.I.I.L.,X,X,X,X,X,X,X,X,X,X,X,X,X<X,X,X,X,X,X,X,X,X,X,X,X,X,X,X,X,X,X,X",
",X,X,X,XE.7XtXtXyXyXyXyXtXyXiXyXuX_.P.x.j.l.p b.v.j.m.t f.P.I.L.,X,X,X,X,X,X,X,X,X,X,X,X,X,X,X,X,X,X,X,X,X,X,X,X,X,X,X,X,X,X,X,X",
",X,X,X,XE.'.tXtXyXyXtXyXtXuXuXtX0X_.P.x.s.l.a N.z.d.l.r h.P.S.L.,X,X,X,X,X,X,X,X,X|.}.,X,X,X,X,X,X,X,X,X,X,X,X,X,X,X,X,X,X,X,X,X",
",X,X,X,X+X6XuXyXyXyXyXyXyXuXuXtXqX_.P.x.s.d.j B.z.y.j.r v.I.C.^.,X,X,X,X,X,X,X-X[.6 n ,X,X,X,X,X,X,X,X,X,X,X>X:X,X,X,X,X,X,X,X,X",
",X,X,X,X{.(.iXiXpXiXiXpXiXiXiXpXsX_.P.v.y.p.n.C.N.p.u.t v.I.I.^.,X,X,X,X,X>X#X/ E K 0 ].T.( <.H <.( ( <.E.<.<.<.<.[.|.,X,X,X<X,X",
",X,X,X,X@X;XdXdXdXdXdXsXsXpXiXiXqX_.P.v.f z.P.P.P.b.p.p N.I.I.^.,X,X,X<X,X}.W T R J K L K L L K K , , L K L K K L > H ,X,X,X,X,X",
",X,X,X,X@X(.pXpXiXiXiXyXtXuXuXtXuX'.P.x.i.C.P.g.x.S.b.j N.P.P.%X,X,X:X:XT.I T T R R R R R R R R R R R R R R R R U 2 |.,X,X,X,X,X",
",X,X,X,X-X/.yXyXtXtXyXyXtXuXyXuXiX'.P.B.N.P.V.y y B.P.v.B.P.I.%X,X,X=X) E R R R R R R R R R R R R R R R R R R T : A ,X,X,X,X,X,X",
",X,X,X,X$X!.0XtXtXrXrX4XrXyXyXsXsX'.P.I.I.P.s.u e u.P.P.P.P.S.%X,X=X/ E R R R R R R R R R R R R R R R R R R R U 1 }.,X,X,X,X,X,X",
",X,X,X,X-X/.0XtXrXq.q.q.2XaXsXaXaX;XP.I.P.n.p j.y.r v.I.P.I.S.%X,X) Y R R R R R R R R R R R R R R R R R R R R J 9 |.,X,X,X,X,X,X",
",X,X,X,X-X!.rXrX4Xq.0.q.2X4X2Xt.e.|.v.C.B.j u.M.M.s s B.P.P.U.*X,X|.^ E R R R R R R R R R R R R R R R R R R R U 8 _ :X,X,X,X,X,X",
",X,X,X,X:X/.yX5Xq.2Xq.q.0.0.O.O.4.1.x x u.s M.M.M.k.t u.C.P.U.*X,X,X:X/ E R R R R R R R R R R R R R R R R R R R J 9 |.>X>X,X,X,X",
",X,X,X<X:X/.eX5Xq.0.o.o.X.O.O.%.4.1.Z S x y.M.M.M.M.y.p v.P.U.*X,X,X,X:XT.E T R R R R R R R R R R R R R R R R R T K C :X,X,X,X,X",
",X,X,X,X>X/.3X0.X.X.O. .`  .X.X.=.7.x Z f.h j.M.M.m.y.g.P.P.U.*X,X,X,X,X>X[.^ T R Y U P I W I I W W W W W W W W I Q V =X,X,X,X,X",
",X,X,X,X,XR.0.O.O.O.O.{ ` ` { { %.7.x S l N l m.M.d.f.P.I.P.Y.*X,X,X,X,X,X,X X^ T K b |.|.:X=X#X#X=X#X#X=X=X#X=X|.|.-X>X,X,X,X,X",
",X,X,X,X-XR.>.O.O.X.X.] ` ` { { ..7.x z c N N u.d.y.B.P.I.I.Y.-X,X,X,X,X,X,X,X-X) 7 G ,X,X,X,X,X,X,X,X,X,X,X,X,X<X<X,X,X,X,X,X,X",
",X,X,X,X,XE.,.O.O.X...] ] ] { ..%.3.x N z N N x y.x.P.P.P.P.Y.,X,X,X,X,X,X,X,X,X,X|.#X,X,X,X,X,X,X,X,X,X,X,X,X,X>X,X,X,X,X,X,X,X",
",X,X,X<X,X@X,.O.X.{ { { { { ..=.5.7.Z S x N z v.g.P.P.x.b.P.Y.-X,X,X,X,X,X,X,X,X,X,X,X,X,X,X,X,X,X,X,X,X,X,X,X,X,X,X,X,X,X,X,X,X",
",X,X,X,X-X|.,.X...{ { { { ..=.5.5.9.Z S c.a.h.P.I.I.B.p x.P.H.-X,X,X,X,X,X,X,X,X,X,X,X,X,X,X,X,X,X,X,X,X,X,X,X,X,X,X,X,X,X,X,X,X",
",X,X,X,X<X#X_ { { { { { | =.4.5.5.9.Z x n.g.P.P.I.I.i.w x.P.F.=X,X,X,X,X,X,X,X,X,X,X,X,X,X,X,X,X,X,X,X,X,X,X,X,X,X,X,X,X,X,X,X,X",
",X,X,X,X,X|._ { { { { { %.5.5.5.5.6.Z S h.a h.C.I.B.p e b.I.H.-X,X,X,X,X,X,X,X,X,XA.}.,X,X,X,X,X,X,X,X,X,X,X,X,X,X,X,X,X,X,X,X,X",
",X,X,X,X,X#XR.{ { { { { =.5.5.5.5.6.Z z a.f r h.I.i.r u B.I.L.-X,X,X,X,X,X,X,X|.F > H ,X,X,X:X,X,X,X,X,X,X,X,X,X,X,X,X,X,X,X,X,X",
",X,X,X,X:X-X_ ] { { { ..3.-.5.5.5.9.a.Z V.i.u t v.a f p b.P.L.,X,X<X,X,X,X:X].M ! > B H G C C V V V C C C C C V C H |.,X,X,X,X,X",
",X,X,X,X,X#XA.| { { { { %.w.5.5.5.6.J.C.V.p.d.t u.u.j.t v.P.L.,X,X,X,X,X:X( Q ~ ~ q q q q q q q 0 0 q 9 q q 0 q 9 2 |.,X,X,X,X,X",
",X,X,X,X,X-X]. .] | [ { %.-.-.-.*.6.J.P.P.y.l.p u.j.j.t v.I.L.,X,X,X,X|.D ! ~ ~ ~ ~ ~ ~ ~ ~ ~ ~ ~ ~ ~ ~ ~ ~ ~ ~ 5 b -X>X,X,X,X,X",
",X,X,X,X,X:XE. .{ { [ [ } *.*.-.*.2.K.P.U.y.l.u j u.d.y n.I.L.<X,X,X|.M ! ~ ~ ~ ~ ~ ~ ~ ~ ~ ~ ~ ~ ~ ~ ~ ~ ~ ~ Q 2 ].,X,X,X,X,X,X",
",X,X,X,X,X,XE.>.{ [ ' } &.*.*.*.*.*.K.P.P.u.m.p u.j.y.s N.S.L.,X,X}.M ~ ~ ~ ~ ~ ~ ~ ~ ~ ~ ~ ~ ~ ~ ~ ~ ~ ~ ~ ~ 6 v =X>X,X,X,X,X,X",
",X,X,X,X,X:X{.>.] ' } %.*.*.*.*.5.2.T.P.P.d.l.d j u.y.s I.U.L.,X=XA ! ~ ~ ~ ~ ~ ~ ~ ~ ~ ~ ~ ~ ~ ~ ~ ~ ~ ~ ~ ~ 6 B =X,X,X,X,X,X,X",
",X,X,X,X,X,XE._ :.:.1.7.1.1.[.[.OX=XL.C.I.u.k.p s j j b.P.P.L.,X,X|.D Q ~ ~ ~ ~ ~ ~ ~ ~ ~ ~ ~ ~ ~ ~ ~ ~ ~ ~ ~ m 8 _ ,X,X,X,X,X,X",
",X,X,X,X,X,X+XA.J.K.E.+X+XE.+X@X%XT.G.C.I.u.y.s g N.C.P.P.P.^.,X,X,X=XH Q ! ~ ~ ~ ~ ~ ~ ~ ~ ~ ~ ~ ~ ~ ~ ~ ~ ~ ~ 9 B #X,X,X,X,X,X",
",X,X,X,X,X,X,X,X:X>X,X,X,X,X,X,X,X,XH.P.I.u.u.f.V.S.C.P.P.I.%X,X,X,X>X=XT.M ~ ~ ~ ~ ~ ~ ~ ~ ~ ~ ~ ~ ~ ~ ~ ~ ~ ~ Q 8 H >X,X,X>X,X",
",X,X,X,X,X,X,X,X,X,X,X,X,X,X,X,X=X=XH.P.P.f.m.P.D.S.P.I.F.%X=X,X,X,X,X,X-X[.M ! ~ q m M A A C D F D D D D D D D M V H ,X>X,X,X,X",
",X,X,X,X,X,X,X,X,X,X<X,X,X,X,X<X<X,XL.I.I.I.P.P.I.I.U.L.*X,X,X,X,X,X,X,X,X,X|.D ! 3 H #X:X:X,X:X:X:X,X:X,X:X,X,X-X:X,X,X,X,X,X,X",
",X,X,X,X,X,X,X,X,X>X<X<XOXOXOXOXOX1X^.U.I.P.I.I.P.F.`.,X,X,X,X,X,X,X,X,X,X,X,X=XH v }.,X,X,X,X,X,X,X,X,X,X,X,X,X,X,X,X,X,X,X,X,X",
",X<X,X,X,X,X<XOX1Xt.9.4.-.-.-.-.*.*.T.P.P.P.P.I.L..Xt.t.oX<X,X,X,X,X,X,X,X,X,X,X,X,X,X,X,X,X,X,X,X,X,X,X,X,X,X,X,X,X,X,X,X,X,X,X",
",X,X,X,X,X<Xt.e.-.$.+.+.+.+.+.+.#.#.T.P.P.P.I.K.2.+.$.w.r.t.<X,X,X,X,X,X,X,X,X,X,X,X,X,X,X,X,X,X,X,X,X,X,X,X,X,X,X,X,X,X,X,X,X,X",
",X,X,X,X,X8.r.w.;.$.$.$.$.$.$.$.$.&.T.U.C.D.[.6.&.&.;.;.w.w.oX,X,X,X,X,X,X,X,X,X,X,X,X,X,X,X,X,X,X,X,X,X,X,X,X,X,X,X,X<X,X,X,X,X",
",X,X,X,X,XXX8.e.e.r.w.w.w.w.w.w.w.r.+XU.J.1Xe.w.5.6.e.e.8.1X>X,X,X,X,X,X,X,X,X,X,X,X,X,X,X,X,X,X,X,X,X,X,X,X,X,X,X,X,X,X,X,X,X,X",
",X,X,X,X,X,X>X>XOXoXoXXXXXXX1X7.1XoXT.L.=X.X1XXXoXoXoX>X,X,X,X<X,X,X,X,X,X,X,X,X,X,X,X,X,X,X,X,X,X,X,X,X,X,X,X,X,X,X,X,X,X,X,X,X",
",X,X,X,X,X,X:X,X,X:X,X,X<X,X,X,X,X,X*X=X,X,X,X:X>X,X,X:X,X,X,X,X,X,X,X,X,X,X,X,X,X,X,X,X,X,X,X,X,X,X<X,X,X,X,X,X,X,X,X,X,X,X,X,X"
};
