/* XPM */
static char *Close3E1721789021[] = {
/* columns rows colors chars-per-pixel */
"64 64 233 2 ",
"   c #010000",
".  c #0D0303",
"X  c #130505",
"o  c #1C0707",
"O  c #1E0808",
"+  c #240909",
"@  c #2A0D0D",
"#  c #340E0E",
"$  c #380F0F",
"%  c #2C1212",
"&  c #351111",
"*  c #381717",
"=  c #3B1919",
"-  c #431F1F",
";  c #491919",
":  c #541D1D",
">  c #46341D",
",  c #492121",
"<  c #542424",
"1  c #5A2323",
"2  c #4C3424",
"3  c #4E3B33",
"4  c #6B2D2D",
"5  c #693834",
"6  c #5B441F",
"7  c #56472E",
"8  c #5D4D36",
"9  c #65452E",
"0  c #75463D",
"q  c #66553A",
"w  c #757D22",
"e  c #223B7B",
"r  c #394F58",
"t  c #314B70",
"y  c #4B5653",
"u  c #7A4743",
"i  c #7D4944",
"p  c #675C49",
"a  c #7F4F50",
"s  c #685655",
"d  c #7B5657",
"f  c #53695A",
"g  c #6B6255",
"h  c #6C7152",
"j  c #465862",
"k  c #785F60",
"l  c #556D6C",
"z  c #6A6A65",
"x  c #786665",
"c  c #7B6B6D",
"v  c #667C6E",
"b  c #7D6E71",
"n  c #727275",
"m  c #7C7679",
"M  c #814A46",
"N  c #854C4B",
"B  c #894E4E",
"V  c #835051",
"C  c #8E5151",
"Z  c #935353",
"A  c #836E75",
"S  c #82797B",
"D  c #7D8823",
"F  c #758A59",
"G  c #919916",
"H  c #A69E18",
"J  c #9DA41D",
"K  c #A7A71C",
"L  c #A6AC1E",
"P  c #989B29",
"I  c #9EA427",
"U  c #A6AC26",
"Y  c #AAAD21",
"T  c #B8A924",
"R  c #B3B529",
"E  c #BBBB2F",
"W  c #AEB031",
"Q  c #BCBB31",
"!  c #B4B438",
"~  c #F89809",
"^  c #FA9D0A",
"/  c #F69D11",
"(  c #F8A316",
")  c #EA9F23",
"_  c #D3A829",
"`  c #C2B52C",
"'  c #CCB32E",
"]  c #CAB935",
"[  c #D6B635",
"{  c #EEAD30",
"}  c #F5AC37",
"|  c #F9AB33",
" . c #EAB83B",
".. c #F8B53C",
"X. c #F7C13E",
"o. c #FBC33A",
"O. c #98A050",
"+. c #ABAC4A",
"@. c #B6BA46",
"#. c #B6B17C",
"$. c #DBAB43",
"%. c #D3B355",
"&. c #E9AC4E",
"*. c #EBBE4A",
"=. c #F4BB41",
"-. c #FDBB43",
";. c #E8BE5C",
":. c #D9AD68",
">. c #D5B16B",
",. c #DCB669",
"<. c #CAB174",
"1. c #D8B876",
"2. c #E3BA66",
"3. c #AEC34E",
"4. c #B8C148",
"5. c #B4CA6D",
"6. c #A6CD7B",
"7. c #F8C845",
"8. c #F3CB59",
"9. c #CAC667",
"0. c #D6C579",
"q. c #E5C56D",
"w. c #233F85",
"e. c #26448C",
"r. c #29458A",
"t. c #264794",
"y. c #2B4994",
"u. c #2A4C9C",
"i. c #304F99",
"p. c #365499",
"a. c #284DA3",
"s. c #2E51A5",
"d. c #3857A6",
"f. c #395DB4",
"g. c #3D61B9",
"h. c #425C9B",
"j. c #515F90",
"k. c #4C639D",
"l. c #58689C",
"z. c #7D7C80",
"x. c #74788D",
"c. c #626F90",
"v. c #6A759C",
"b. c #747895",
"n. c #747B9B",
"m. c #405FAE",
"M. c #4863A9",
"N. c #556AA5",
"B. c #506AB2",
"V. c #526EBA",
"C. c #6675A5",
"Z. c #747DA3",
"A. c #6578B2",
"S. c #887781",
"D. c #8E7D8D",
"F. c #5D829E",
"G. c #7F858B",
"H. c #7A829D",
"J. c #5B83AB",
"K. c #698AA6",
"L. c #7A86A7",
"P. c #6E90AB",
"I. c #73AAB0",
"U. c #898386",
"Y. c #898589",
"T. c #87899A",
"R. c #918E91",
"E. c #979698",
"W. c #97959A",
"Q. c #9C9A9F",
"!. c #A6978F",
"~. c #B0A68B",
"^. c #B5A898",
"/. c #858AA5",
"(. c #8A93A6",
"). c #8D92AA",
"_. c #9293A2",
"`. c #9C9BA2",
"'. c #9396A8",
"]. c #9699AB",
"[. c #9C9DAA",
"{. c #8D97B3",
"}. c #A09FA4",
"|. c #9DA1A7",
" X c #87ABB6",
".X c #9AA9B8",
"XX c #87B9B9",
"oX c #99B6B9",
"OX c #A2A1A6",
"+X c #A7A6AB",
"@X c #A9A7A9",
"#X c #B1B1AD",
"$X c #A4AEB3",
"%X c #CCB58D",
"&X c #AED091",
"*X c #96D4B4",
"=X c #B2D4A8",
"-X c #AAD6B5",
";X c #B7E1B9",
":X c #CBC986",
">X c #C9E0B2",
",X c #82BEC0",
"<X c #A7B1C0",
"1X c #8DCFC9",
"2X c #97C5C3",
"3X c #9CDACD",
"4X c #97DDD3",
"5X c #9BDED5",
"6X c #B5C9C9",
"7X c #A4DBCB",
"8X c #A6DBD3",
"9X c #B3D6D0",
"0X c #9DE1CE",
"qX c #9AE1D7",
"wX c #96E2D8",
"eX c #9BE1D8",
"rX c #B7E6C8",
"tX c #A2E2D6",
"yX c #A3E4DB",
"uX c #AAE5DA",
"iX c #ABE5DC",
"pX c #B6E9DA",
"aX c #ADEAE2",
"sX c #B2EBE4",
"dX c #BAE9E2",
"fX c #CEDADD",
"gX c #CCE1DD",
"hX c #C8EDE8",
"jX c #D1EFEB",
"kX c #D7F2EE",
"lX c #DEF4F1",
"zX c #E6F5F2",
"xX c #E8F4F2",
/* pixels */
"+X+X+X+X+X+X+X+X+X+X+X+X+X+X+X+X+X+X+X+X+X+X+X+X+XOXC.(.+X+X+X+X+X+X+X+X+X+X+X+X+X+X+X+X+X+X@X+X+X+X+X+X+X+X+X+X+X+X+X+X+X+X+X+X",
"+X+X+X+X+X+X+X+X+X+X+X+X+X+X+X+X+X+X+X+X+X+X+X+X+X+XC.Z.+X+X+X+X+X+X+X+X+X+X+X+X+X+X+X+X+X+X+X+X+X+X+X+X#X+X+X+X+X+X+X+X+X+X+X+X",
"+X+X+X+X+X+X+X+X+X@X+X+X+X+X+X+X+X+X+X+X+X+X+X+X+X+XC.V.[.+X+X+X+X+X+X+X+X+X+X+X+X+X+X+X+X+X+X+X+X+X+X+X+X+X+X+X+X+X+X+X+X+X+X+X",
"+X+X+X+X+X+X+X+X+X+X+X+X+X+X+X+X+X+X$X+X+X+X+X+X+XOXA.m.).+X+X+X+X+X+X+X+X+X+X+X+X+X+X+X+X+X+X+X+X+X+X+X+X+X+X+X+X+X+X+X+X+X+X+X",
"+X+X+X+X+X+X+X+X+X+X+X+X+X+X+X+X+X+X+X+X+X+X+X+X+X+XN.g.L.+X+X+X+X+X+X+X+X+X+X+X+X+X+X+X+X+X+X+X+X+X+X+X+X+X+X+X+X+X$X+X+X+X+X+X",
"+X+X+X+X+X+X+X+X+X+X+X+X+X+X+X+X@X+X+X+X+X+X+X@X+XOXC.d.A.}.+X+X+X+X+X+X+X+X+X+X+X+X+X+X+X+X+X+X+X+X+X+X+X+X+X+X+X+X+X+X+X+X+X+X",
"+X+X+X+X+X+X+X+X+X+X+X+X+X#X+X+X+X+X+X+X+X+X+X+X+X|.C.e.B.].+X+X+X+X+X+X+X+X+X+X+X+X+X+X+X+X+X+X+X+X+X+X+X+X+X+X+X+X+X+X+X+X+X+X",
"+X+X+X+X+X+X+X+X+X+X+X+X+X+X+X+X+X+X+X+X@X+X+X+X+X+XC.w.s.).+X+X+X+X+X+X+X+X+X+X+X+X+X+X+X+X+X+X+X+X+X+X+X+X+X+X+X+X+X+X+X+X+X+X",
"+X+X+X}._.].[.|.+X+X+X+X+X+X+X+X|.$X+X@X@X+X@X+X+X+XC.w.s.A.[.+X+X+X+X+X+X].`.`.Q.`.Q.Q.`.`.`.Q.Q.`.Q.`.Q.`.`.`.}.}.`.`.`.+X+X+X",
"+X+X+X_.k.J.P.K.C.C.K.(.).(.(.].|.|.|.+X+X|.OX@X+X}.N.y.s.V.[.+X+X+X+X+X+Xo $ $ # # # # # # # # # # # & # # # & $ $ # $ X n +X+X",
"+X+X+X}.C.-X9X9X8XXX XXXI.P.P.F.F.k.F.F.C.K.K.H././.M.y.s.m.).+X+X+X+X+X+X+ @ O @ @ @ + o X + X X O X o o + @ @ @ @ X @ + n +X+X",
"+X+X}.}.C.7XqXqXqXqXeXeXqXwXwX0X1X*X1X,XI.,XI.I.K.C.h.u.w.i.L.+X+X+X+X+X+X+ + % 5 < < < & . : + @ ;   * = @ < 5 4 < % O + n +X+X",
"+X+X+X}.v.2XeXqXqXqXqX5XwXwXqXqXwXqXeXqXeXeXeXeX8X$Xk.a.u.r.).+X+X+X+X+X+X% O % < . . .     @ 1 1 +   * ,     * -     o + n +X+X",
"+X+X+X}.L.2XqXqXqXqX-X=X-XeXeXwXqXqXqXqXeXeXeXhXjX$Xk.a.u.y.).+X+X+X+X+X+X@ O % 5 < < < &   . 4 1     = ,     * -     o + b +X+X",
"+X+X+X+XL.6XeXeXqX&X$.) $.-XeXqXwXqXeXqXeXeXeXdXhX$Xl.y.y.i.).+X+X+X+X+X+X+ + % 1 X X X .   o 4 4 .   = ,     * ,     o + n +X+X",
"+X+X+X+XZ.oXqXeX8X%.~ ~ / 9.0XqXqXqXqXqXeXwXeX5X8X$XN.y.e.s.'.+X+X+X+X+X+X+ + % <           - * ; =   = ,     * -     + + n +X+X",
"+X+X+X+X/..XwXeX7X%.~ ~ ~ <.7XeXqXeXqXqXeXqXqXqX5XoXl.e.w.d.).+X+X+X+X+X+X+ + % <         + 1 X X 4 X * ,     * ,     o + n +X+X",
"+X+X+X+XZ..XeX5XtX&X{ ) [ =X5XwXqXqXeXqXwXqXwXeXqX.XN.e.w.d.'.+X+X+X+X+X+X+ + @ 5 < < < & : @     & ; % -     & -     + @ n +X+X",
"+X+X+X+X/. XqXeXeX3X=X=X-X5XqXeXqXqXqXqXqXqXqXqX5X$XN.r.e.d.].+X+X+X+X+X+X+ # X # & & & @ + X X X X + o + X . X O X . @ + n +X+X",
"+X+X+X+XT.(.qXeXeXeX4XqX5X5XeXwXqXwXeXqX5XqXeXeX5X+XN.y.t.m.].+X+X+X+X+X+XX * & & & $ & & & & * & & & & & & & & & & & & o n +X+X",
"+X+X+X+XT.L.0XqXqXqXqXeXeXeXqXwXwX5X5XyXiXdXhXhXhX<XN.s.s.m.].+X+X+X+X+X+Xz.z.z.z.z.z.z.G.m m m m z.z.z.z.z.U.z.z.z.z.z.m `.+X+X",
"+X+X+X+X_.L.3XqXeXqXqXqXwXqXtXiXsXhXhXjXzXzXzXzXxXfXN.s.s.g.[.+X+X+X+X+X+X+X+X+X+X+X+X+X+X+X$X@X+X+X+X+X+X+X+X+X+X+X+X+X+X+X+X+X",
"+X+X+X+X'.{.tXqXqXqXqXeXqXuXjXlXzXzXxXxXzXxXzXxXxXfXk.a.a.M.[.+X+X+X+X+X+X+X+X+X+X+X+X+X+X+X+X+X+X+X+X+X+X+X+X+X+X+X+X+X+X+X+X+X",
"+X+X+X+XQ.).7XqXwXqXqXqXqXsXlXzXzXxXxXxXxXxXzXlXkX6Xk.w.a.B.[.+X+X+X+X+X+X+X+X+X+X+X+X+X+X+X+X+X+X+X+X+X+X+X+X+X+X+X+X+X+X+X+X+X",
"+X+X+X+X[.{.8XqXqXqXqXeXwXeXpXhXjXlXkXkXkXhXdXiXtX2Xh.u.a.B.}.+X+X+X+X+X+X+X+X+X+X+X+X+X+X+X+X+X+X+X+X+X+X+X+X+X+X+X+X+X+X+X+X+X",
"+X+X+X+X[.L.9XqXqXqXeXqXwXqXeXeXtXtXuXtXtXqXqXqXeXoXh.u.a.M.}.+X+X+X+X+X+X+X+X+X+X+X+X+X+X+X+X+X+X+X+X+X+X+X+X+X+X+X+X+X+X+X+X+X",
"+X+X+X+X`.Z.pXeXqXeXqXqXqXeXqXeXeXeXeXqXwXqXeXqXwX2Xh.u.a.B.[.+X+X+X+X+X+X+X+X+XOXW.z W.+X+X+X+X+X+X+X+X+X+X@X@X+X+X+X+X+X+X+X+X",
"+X+X+X+X`.L.9XeXeXqXwXqXqXqXwXeXwXqXqXeXqXqXqXeX5X2Xp.a.a.B.+X+X+X+X+X+X+X+X+X+XS.s 7 R.OX+XOXOXOXOXOXOXOX+XOXOX+XOX+X+X+X+X+X+X",
"+X+X+X+X|.n.9XeXeXyXeXyXyXyXyXeXyXyXyXeXeXeXeXeXqX2Xh.f.a.N.}.+X+X+X+X+X+X+X`.c a N > p g g p p p p p p g h g p g p z Q.+X+X+X+X",
"+X+X+X+XOXZ.gXaXsXsXsXsXsXsXaXaXaXyXeXeXqXqXeXtXaX3Xh.s.s.A.+X+X+X+X+X+X+XW.d B Z Z i i i i i i i 0 0 0 0 u 0 0 0 5 p OX+X+X+X+X",
"+X+X@X+X+Xb.gXsXaXaXiXuXeXyXwXeX4XeXwXeXeXaXaXsXaX8Xh.f.f.A.}.+X+X+X+X+XY.d C Z Z Z Z Z Z Z Z Z Z Z C C Z Z Z Z B 2 m +X+X+X+X+X",
"+X+X+X+X+Xv.fXtXeXeXqXwXwXwXeXwXwXeXeXiXaXsXsXsXsX8Xm.f.f.A.}.+X+X+X+XS d Z Z Z Z Z Z Z Z Z Z Z Z Z Z Z Z Z Z C 5 3 `.+X+X+X+X+X",
"+X+X+X+X+XD.9XtXwX0XwX0X0XqXwXwXyXiXsXsXsXsXsXsXsX8XM.f.s.A.+X+X+XOXS V Z Z Z Z Z Z Z Z Z Z Z Z Z Z Z Z Z Z Z Z 2 z +X+X+X+X@X+X",
"+X+X+X+X+Xn.6XuXwX0X*X6.6.&XtXaXpXpXpXpXrXrX;X;X;X-Xh.d.s.K.|.@X+XQ.d Z Z Z Z Z Z Z Z Z Z Z Z Z Z Z Z Z Z Z Z C 9 x OX+X+X+X+X+X",
"+X+X+X+X+XL.<XiXwX*X&X3.6.6.;X;X=X:X0.9.4.4.@.4.@.+.l i.t.C.OX@X+X+XW.d B Z Z Z Z Z Z Z Z Z Z Z Z Z Z Z Z Z Z Z 0 6 R.OX@X+X+X+X",
"+X+X+X+X+X/.$XuX0X&X&X5.6.5.5.@.Q 7.7.] Q Q E ` Q ! j i.u.n.+X+X+X+X+X`.c d Z Z Z Z Z Z Z Z Z Z Z Z Z Z Z Z Z Z C 9 h }.+X+X+X+X",
"+X+X+X+X+X_..XpXrX&X5.4.! E E E ] =.=.] E E E ! +.+.j i.e G.|.+X+X+X+X+XOXm a Z Z Z Z Z Z C Z Z Z Z C C C C C C Z i 6 U.+X+X+X+X",
"+X+X+X+X+X_.|.>X6.4.E E R J R E ] X.7. .E R Y h F O.l t y l |.+X+X+X+X+X+X+XY.d C B 5 s x c b c b b b b b b b b c c n R.+X+X+X+X",
"+X+X+X+X+X_.(.9.Q Q E E R G J R Y ] =.=.[ Y G f F h r r f v `.+X+X+X+X+X+X+X+XW.x i 2 R.OX+X+X+X+X+X+X|.+X+X+X+X+X+X+X+X+X+X+X@X",
"+X+X+X+X@X|./.9.Q Q Q Q L D G J L T ..-.7.] I F l f r r f v OX+X+X+X+X+X+X+X+X+X|.m g `.+X+X+X+X+X+X+X+X+X+X+X+X+X+X+X+X+X+X+X+X",
"+X+X+X+X+X}.Z.9.E E E E J G J J L ' =.-.-. .K P F D j t r T.+X+X+X+X+X+X+X+X+X+X+X+X+X+X+X+X+X+X+X+X+X+X+X+X+X+X+X+X+X@X+X+X+X+X",
"+X+X+X+X+X}.C.<.E E R Y L L L Y ' ..=.-.-.[ Y U G w j p.M.).+X+X+X+X+X+X+X+X+X+X+X+X+X+X+X+X+X+X+X+X+X+X+X+X+X+X+X+X+X+X+X+X+X+X",
"+X+X+X+X+X}.C.:XE R L L L L L ' ..-.-.-...' U U J D y p.f.(.+X+X+X+X+X+X+X+X+X+X+X+X+X+X+X+X+X+X+X+X+X+X+X+X+X+X+X+X+X+X+X+X+X+X",
"+X+X+X+X+XOXb.#.R L L L L L ' ..7.-.-.-. .R L L J P j i.d.'.+X+X+X+X+X+X+X+X+X+X+X+X}.+X+X+X+X+X+X+X+X+X+X+X+X+X+X+X+X+X+X+X+X+X",
"+X+X+X+X+X+Xn.#.Y L L L U T 7.-.-.-.-.-.[ L L L L I f r.d.].+X+X+X+X+X+X+X+X+X+X}.m s |.+X+X+X+X+X+X+X+X+X+X+X+X+X@X+X+X+X+X+X+X",
"+X+X+X+X+X+Xb.!.Y L L U Y ' =.-.7.-.-.-.[ L L L L U f r.d.].+X+X+X+X+X+X+X+X+XW.c 0 8 W.|.Q.`.`.Q.Q.Q.Q.Q.`.Q.Q.Q.}.OX+X+X+X+X+X",
"+X+X+X+X+X@XH.~.Y L L Y L [ -.-.-.-.-.-.[ Y L L L I c.a.d.'.+X+X+X+X+X+X+X+XY.d B u 2 q q 8 q 8 8 8 8 q q q q q q q z OX+X+X+X+X",
"+X+X+X+X+X@XH.W.U L L L Y ' -.-.-.-.-.-.-.' T L K H c.f.h.'.+X+X+X+X+X+X+XS a Z Z B N N N N N N N M M M M N M N N 2 n +X+X+X+X+X",
"+X+X+X+X+X+XT.E.U U L L L T  .............| _ ` H H j.y.h.].+X+X+X+X+X`.b B Z Z Z Z Z Z Z Z Z Z Z Z Z Z Z Z Z Z u 3 W.+X+X+X+X+X",
"+X+X+X+X+X+X/._.W L L L L T { ..| | | | | | | } _ T c.r.d.].+X+X+X+XW.x B Z Z Z Z Z Z Z Z Z Z Z Z Z Z Z Z Z Z Z 2 g +X+X+X+X+X+X",
"+X+X+X+X+X+X(.T.@.L J K K _ | | | | | | | | | | | } S e.d.].+X+X+XW.d C Z Z Z Z Z Z Z Z Z Z Z Z Z Z Z Z Z Z Z N > Y.@X+X+X+X+X+X",
"+X+X+X+X+X+X[.L.@.K K H T { | | | | | | | | | ..} } D.t.h.[.+X+X+XR.d C Z Z Z Z Z Z Z Z Z Z Z Z Z Z Z Z Z Z Z N 7 S }.+X+X+X+X+X",
"+X+X+X+X+X+X`.c.+.P P T { &.&.:.:.:.:.%X%X%X%X^.^.W.l.r.M.}.+X+X+X+XW.k N Z Z Z Z Z Z Z Z Z Z Z Z Z Z Z Z Z Z Z 9 q W.+X+X+X+X+X",
"$X+X+X+X+X+XQ.l.x.T.D.T.T.T.T.b.Z.n.n.n.D.b.b.H.D./.l.e A.}.+X+X+X+X+X`.b a Z Z Z Z Z Z Z Z Z Z Z Z Z Z Z Z Z Z Z 6 x OX+X+X+X+X",
"@X+X+X+X+X+X+XT.}.[.].}.[.}.`.}.OXOX+X+X+X+X+X@X+X+Xl.r.Z.+X+X+X+X+X+X+XOXS V Z Z Z Z B B N B B B B B B B B N B B 0 7 R.+X+X+X+X",
"@X+X+X+X+X+X+X+X+X+X#X%X%X1.1.,.,.2.;.;.;.,.,.,.1.1.b.h.}.+X+X+X+X+X+X+X+X+XY.d B u 3 b S U.U.U.S U.U.U.U.Y.Y.Y.U.U.U.OX+X+X+X+X",
"+X+X+X+X+X@X$X@X%X:X*.| ( ( ^ ^ ^ ^ ^ ^ ^ ^ ^ ^ / / S.A.q.q.%X#X+X+X+X+X+X+X+X`.c 5 8 [.+X+X+X+X+X+X+X+X+X+X+X+X@X+X+X+X+X+X+X+X",
"+X+X+X+X+X@X@X%X8.7.{ / ^ ^ ^ ^ ^ ^ ^ ^ ^ ^ ^ ^ ~ / A D.X.7.8.^.+X+X+X+X+X+X+X+X+XS.G.OX+X+X+X+X+X+X@X+X+X+X+X+X+X+X+X+X+X+X+X+X",
"+X+X+X+X+X+X+X<.*.=.7...o.o.o.o...o.X.-.o.o.o.o.-.X.S.~.7.*.,.^.+X+X+X+X+X+X+X+X+X+X+X+X+X+X+X+X+X+X+X$X+X+X+X+X+X+X+X+X+X+X+X+X",
"+X+X@X+X+X+X+X@X^.%X%X<.<.>.>.>.,.>.,.:.:.:.,.>.<.<.b.!.~.^.@X+X+X+X+X+X+X+X+X+X+X+X+X+X+X+X+X+X+X+X+X+X+X+X+X+X+X+X+X+X+X+X+X+X",
"+X+X+X+X+X+X+X+X+X+X+X+X+X+X+X+X+X+X+X+X+X+X+X+X+X+Xn.}.+X+X+X+X+X+X+X+X+X+X+X+X+X+X+X+X+X+X@X+X+X+X+X+X+X+X+X+X+X+X+X+X+X+X+X+X",
"+X+X+X+X+X+X+X+X+X+X+X+X+X+X+X+X+X$X+X+X+X+X+X+X+X+X+X}.+X+X+X+X+X+X+X+X+X+X+X+X+X+X+X+X+X+X+X+X+X+X@X+X+X+X+X+X+X+X+X+X+X+X+X+X",
"+X+X+X+X+X+X+X+X+X+X+X+X+X+X+X+XA.{.+X+X+X+X+X+X+X+X+X+X+X+X+X+X+X+X+X+X+X+X+X+X+X+X+X+X+X+X+X+X+X+X+X+X+X+X+X+X+X+X+X+X+X+X+X+X",
"+X+X+X+X+X+X+X+X+X+X+X+X+X+X+X+XV.V.{.+X+X+X+X+X+X+X+X+X+X+X+X+X+X+X+X+X+X+X+X+X+X+X+X+X+X+X+X+X+X+X+X+X+X+X+X+X+X+X+X+X+X+X+X+X"
};
