/* XPM */
static char *Close3A1721789020[] = {
/* columns rows colors chars-per-pixel */
"64 64 225 2 ",
"   c #0B0000",
".  c #130000",
"X  c #1D0000",
"o  c #2B0000",
"O  c #330101",
"+  c #3C0101",
"@  c #460202",
"#  c #4D0303",
"$  c #5C0404",
"%  c #620404",
"&  c #6B0404",
"*  c #780707",
"=  c #7D0707",
"-  c #711B12",
";  c #542E22",
":  c #6A3121",
">  c #783924",
",  c #58493B",
"<  c #705031",
"1  c #757D22",
"2  c #223B7B",
"3  c #543E40",
"4  c #394F58",
"5  c #314B70",
"6  c #4B5652",
"7  c #69514E",
"8  c #68584B",
"9  c #765356",
"0  c #785356",
"q  c #53695A",
"w  c #6D6D52",
"e  c #766757",
"r  c #465862",
"t  c #556D6C",
"y  c #727168",
"u  c #797474",
"i  c #860808",
"p  c #8C0909",
"a  c #970707",
"s  c #940B0A",
"d  c #9C0A0A",
"f  c #911B16",
"g  c #A50D0D",
"h  c #AD0D0D",
"j  c #B90D0D",
"k  c #A91A19",
"l  c #B51111",
"z  c #B91A19",
"x  c #A1261A",
"c  c #B8221D",
"v  c #873C2B",
"b  c #B8363B",
"n  c #C71515",
"m  c #CA191A",
"M  c #D81515",
"N  c #F11B1A",
"B  c #C3221F",
"V  c #D41D22",
"C  c #DD1C24",
"Z  c #E41B23",
"A  c #EC1C24",
"S  c #C9272E",
"D  c #CE2B31",
"F  c #C92C32",
"G  c #874228",
"H  c #B23E43",
"J  c #814B4D",
"K  c #9C5458",
"L  c #A7494E",
"P  c #965D61",
"I  c #9B6266",
"U  c #9A676B",
"Y  c #8A7478",
"T  c #7D8823",
"R  c #758A59",
"E  c #919916",
"W  c #A69E18",
"Q  c #9DA41D",
"!  c #A7A71C",
"~  c #A6AC1E",
"^  c #989B29",
"/  c #9EA427",
"(  c #A6AC26",
")  c #AAAD21",
"_  c #B8A924",
"`  c #B3B529",
"'  c #BBBB2F",
"]  c #AEB031",
"[  c #BCBB31",
"{  c #B4B438",
"}  c #F89809",
"|  c #FA9D0A",
" . c #F69D11",
".. c #F8A316",
"X. c #EA9F23",
"o. c #D3A829",
"O. c #CAB32D",
"+. c #CAB935",
"@. c #D6B635",
"#. c #EEAD30",
"$. c #F5AC37",
"%. c #F9AB33",
"&. c #EAB83B",
"*. c #F8B53C",
"=. c #F7C13E",
"-. c #FBC33A",
";. c #98A050",
":. c #ABAC4A",
">. c #B6BA46",
",. c #B6B17C",
"<. c #DBAB43",
"1. c #D3B355",
"2. c #EAB44C",
"3. c #F4BB41",
"4. c #FDBB43",
"5. c #E8BE5C",
"6. c #D5B16B",
"7. c #DCB669",
"8. c #CFB070",
"9. c #D8B876",
"0. c #E3BA66",
"q. c #AEC34E",
"w. c #B8C148",
"e. c #AFCB72",
"r. c #F8C845",
"t. c #F3CB59",
"y. c #CFC66F",
"u. c #E5C56D",
"i. c #233F85",
"p. c #27458B",
"a. c #284894",
"s. c #2A4C9C",
"d. c #304F99",
"f. c #365499",
"g. c #284DA3",
"h. c #2E51A5",
"j. c #3857A6",
"k. c #395DB4",
"l. c #3D61B9",
"z. c #425C9B",
"x. c #515F90",
"c. c #4C639D",
"v. c #596E96",
"b. c #6D748E",
"n. c #6A759C",
"m. c #747895",
"M. c #747B9B",
"N. c #405FAE",
"B. c #4863A9",
"V. c #556AA5",
"C. c #516BB5",
"Z. c #6675A5",
"A. c #747DA3",
"S. c #6578B2",
"D. c #887986",
"F. c #967C81",
"G. c #5D829E",
"H. c #7F858B",
"J. c #7A829D",
"K. c #5B83AB",
"L. c #698AA6",
"P. c #7A86A7",
"I. c #6E90AB",
"U. c #73AAB0",
"Y. c #888688",
"T. c #97868A",
"R. c #86889C",
"E. c #968E92",
"W. c #949294",
"Q. c #989598",
"!. c #9B9599",
"~. c #A6978F",
"^. c #B0A68B",
"/. c #B5A898",
"(. c #858AA5",
"). c #8B93A8",
"_. c #9294A4",
"`. c #9C9CA3",
"'. c #9699AB",
"]. c #9C9DAA",
"[. c #8D97B3",
"{. c #A09EA3",
"}. c #9DA1A7",
"|. c #87ABB6",
" X c #8EB3B8",
".X c #99B6B9",
"XX c #A3A2A6",
"oX c #A7A6AB",
"OX c #A9A7A9",
"+X c #A9AFB1",
"@X c #CCB58D",
"#X c #AED091",
"$X c #96D4B4",
"%X c #AED5AF",
"&X c #B7E1B9",
"*X c #CAD194",
"=X c #82BEC0",
"-X c #A7B1C0",
";X c #8DCFC9",
":X c #97C5C3",
">X c #9CDACD",
",X c #9ADDD4",
"<X c #B5C9C9",
"1X c #A4DBCB",
"2X c #A6DBD3",
"3X c #B3D6D0",
"4X c #9DE1CE",
"5X c #9AE1D7",
"6X c #96E2D8",
"7X c #9BE1D8",
"8X c #B7E6C8",
"9X c #A3E4DB",
"0X c #A7E4D9",
"qX c #B6E9DA",
"wX c #ADEAE2",
"eX c #B2EBE4",
"rX c #BAE9E2",
"tX c #CEDADD",
"yX c #CCE1DD",
"uX c #C8EDE8",
"iX c #D1EFEB",
"pX c #D7F2EE",
"aX c #DEF4F1",
"sX c #E6F5F2",
"dX c #E8F4F2",
/* pixels */
"oXoXoXoXoXoXoXoXoXoXoXoXoXoXoXoXoXoXoXoXoXoXoXoXoXXXZ.).oXoXoXoXoXoXoXoXoXoXoXoXoXoXoXoXoXoXoXoXoXoXoXoXoXoXoXoXoXoXoXoXoXoXoXoX",
"oXoXoXoXoXoXoXoXoXoXoXoXoXoXoXoXoXoXoXOXoXoXoXoXoXoXZ.S.oXoXoXoXoXoXoXoXoXoXoXoXoXoXoXoXoXoXoXoXoXoXoXoXoXoXoXoXoXoXoXoXoXoXoXoX",
"oXoXoXoXoXoXoXoXoXoXoXoXoXoXOXoXoXoXoXoXoXoXoXoXoXoXZ.C.{.oXoXoXoXoXoXoXoXoXoXoXoXoXoXoXoXoXoXoXoXoXoXoXoXoXoXoXoXoXoXoXoXoXOXoX",
"oXoXoXoXoXoXoXoX+XoXoXoXoXoXoXoXoXoXoXoXoXoXoXoXoX{.Z.C.[.oXoXoXoXoXoXoXoXoXoXoXoXoXoXoXoXoXoXoXoXoXoXoXoXoXoXoXoXoXoXoXoXoXoXoX",
"oXoXoXoXoXoXoXoXoXoXoXoXoXoXoXoXoX+XoXoXoXoXoXoXoXoXZ.k.P.oXoXoXoXoXoXoXoXoXoXoXoXoXoXoXoXoXoXoX+XoXoXoXoXoXoXoXoXoXoXoXoXoXoXoX",
"oXoXoXoXoXoXoXoXoXoXoXoXoXoXoXOXoXoXoXoXoXoXoXoXoXoXZ.j.S.{.oXoXoXoXoXoXoXoXoXoXoXoXoXoXoXoXoXoXoXoXoXoXoXoXoXoXoXoXoXoXoXoXoXoX",
"oXoXoXoXoXoXoXoXoXoXoXoXoXoXoXoXoXoXoXoXOXoXoXoXoXoXZ.p.C.'.].oXoXoXoXoXoXoXoXoXoXoXoXoXoXoXoXoXoXoXoXoXoXoX+XoXoXoXoXoXoXoXoXoX",
"oXoXoXoXoXoXoXoXoXoXoXoXoXoXoXoXoXoXoXoXoXoXoXoXoX}.V.i.h.[.{.oXoXoXoXoXoXoXoXoXoXoXoXoXoXoXoXoXoXoXoXoXoXoXOXOXoXoXoXoXoXoXoXoX",
"oXoXoX}._.'.`.}.oXoXoXoXoXOXoXoXOXOXOXOXOXoXOXoXoX{.S.i.j.S.].oXoXoXoXoXoXoXoXoXoXoXoXoXoXoXoXoXXXOXOXOXoXoXoXoXoXoX{.oXoXoXoXoX",
"oXoXoX`.c.K.I.L.Z.Z.L.).).).).}.|.}.}.}.oXoXoXOXoX{.V.s.h.C.].oXoXoXoXoX`.7 J J J J J J J J J J J J J 0 J J J 0 J J J 7 u oXoXoX",
"oXoXoX`.Z.<X3X3X2X X X|.U.L.L.L.G.v.G.v.Z.G.J.L.(.(.V.i.h.k.[.-X+XoXoXoX`.= g s a a d d a a a a a a a d a d d d g a g g 3 oXoXoX",
"oXoXOX!.n.>X,X5X7X7X6X6X6X4X6X6X;X=X;X$XU.=XU.U.I.Z.j.s.i.d.D.oXoXoXoXoX`.= % * l j l j & % s O i & o d & h l z l g $ d 3 oXoXoX",
"oXoXoX}.A.:X6X5X6X5X5X5X6X6X6X5X5X7X5X7X5X7X7X7X2XoXB.g.s.i.).oXoXoXoXoX{.p % s l & & & @ + M a n $ o m % $ i M * $ # d 3 oXoXoX",
"oXoXoXXXP.:X6X5X5X5X%X%X$X9X5X5X7X6X5X5X5X7X7XuXpX+Xc.s.s.d.[.{.oXoXoXoX`.i $ s m p p p # . i N d X o m #   + m O   O d 3 oXoXoX",
"oXoXoXoX(.<X7X7X5X#X<.X.<.%X5X5X6X5X6X6X5X7X9XrXuX+XV.a.g.d.[.oXoXoXoXoX`.= % s n p p p $ . * A p   o m #   + m O   O d 3 oXoXoX",
"oXoXoXoXM. X7X7X2X1.} }  .y.4X6X5X7X7X7X5X5X,X7X,X+XV.a.i.f.).oXoXoXoXoX{.= $ s d .   .   O l j M O o m #   + m O   O g 3 oXoXoX",
"oXoXoXoXP.|.,X,X2X1.} } } 8.1X7X6X5X5X5X7X5X7X5X,X.XV.a.i.j._.oXoXoXoXoX`.= % f g .     . i z @ j d + m #   + m O   O d 3 oXoXoX",
"oXoXoXoXJ..X,X,X,X#X#.X.@.%X5X7X5X5X7X5X5X5X5X6X,X.XV.i.i.j.).oXoXoXoXoX`.= % s m i i = & n & . # M & n #   + m O   O d 3 oXoXoX",
"oXoXoXoX(.|.9X,X7X2X%X#X%X5X7X6X5X7X5X5X7X7X5X5X,X+XV.p.i.N.'.oXoXoXoXoX`.i & % g g h g p p O X o = * i # X + p + X + d 3 oXoXoX",
"oXoXoXoXR.).7X7X7X7X7X5X,X,X7X5X5X5X5X6X7X,X7X7X2XoXV.a.a.j.'.oXoXoXoXoX`.& h d d d d d d g d g d d d d d d d d d d g a 3 oXoXoX",
"oXoXoXoXR.P.4X5X5X5X5X6X5X5X7X7X5X,X,X7X0XrXuXuXuX-XV.h.h.N.'.oXoXoXoXoX`.7 9 0 9 9 9 0 9 9 9 0 9 9 9 0 9 9 0 0 9 0 0 9 u oXoXoX",
"oXoXoXoX_.P.4X5X5X7X5X7X5X5X0X0XeXuXuXpXsXsXsXsXdXtXV.h.h.l.{.oXoXoXoXoXoXoXoXoX+XoXoXoXoXoXoXoXoXoXoXoXoXoXoXoXoXoXoXoXoXoXoXoX",
"oXoXoXoX`.[.1X6X5X5X7X7X5X9XuXaXsXsXsXdXdXdXsXdXdXtXV.s.g.N.'.oXoXoXoXoXoXoXoXoXoXoXoXoXoXoXoXoXoXoXoXoXoXoXoXoXoXoXoXoXoXoXoXoX",
"oXoXoXoX_.).2X6X6X7X7X,X7XqXaXsXsXdXdXdXdXdXsXaXiX<Xc.i.g.C.].oXoXoXoXoXoXoXoXoXoXoXoXoXoXoXoXoXoXoXoXoXoXoXoXoXoXoXoXoXoXoXoXoX",
"oXoXoXoX'.[.2X7X7X7X7X7X6X9XqXuXiXpXpXpXpXuXqX0X0X.XB.s.g.C.{.oXoXoXoXoXoXoXoXoXoXoXoXoXoXoXoXoXoXoXoXoXoXoXoXoXoXoXoXoXoXoXoXoX",
"oXoXoXoX`.P.3X7X6X6X7X6X7X6X6X7X9X0X0X0X9X7X7X7X,X.Xf.s.g.B.{.oXoXoXoXoXoXoXoXoXoXoXoXoXoXoXoXoXoXoXoXoXoXoXoXoXoXoXoXoXoXoXoXoX",
"oXoXoXoX_.P.qX7X5X7X7X5X7X7X6X7X7X5X5X5X5X7X5X5X,X$Xc.s.g.C.{.oXoXoXoXoXoXoXoXoX+X].}.oXoXoXoXoXoXoXoXoXoXoXoXoXoXoXoXoXoXoXoXoX",
"oXoXoXoX`.P.3X7X5X5X7X5X6X6X6X7X6X5X5X5X6X5X7X6X,X:Xf.g.g.C.oXoXoXoXoXoXoXoXoXoX).; ;.oXoXoXoXoXoXoXoXoXoXoXoXoXoXoXoXoXoXoXoXoX",
"oXoXoXoX}.M.3X7X9X9X9X9X9X9X9X9X9X9X0X7X7X7X7X7X,X;Xz.h.h.C.].oXoXoXoXoXoXOX{.U S - u Q.W.E.W.E.W.W.W.W.Q.W.W.W.!.!.XXoXoXoXoXoX",
"oXoXoXoX`.P.yXqXwXqXeXeXwXwX0XwXwX9X7X7X6X7X7X9X9X2Xz.j.h.S.oXoXoXoXoXoXoX!.L C A f G G v v > > : > < : > > > G G , !.oXoXoXoXoX",
"oXoXoXoXXXn.yXeXwXwXwX9X9X7X7X7X,X,X6X7X7XwXwXeXeX2Xj.k.k.S.{.oXoXoXoXoXF.H Z A A Z Z Z Z Z A Z Z Z N M M C C Z k 7 XXoXoXoX+XoX",
"OXoXoXoXoXm.tX9X7X7X6X6X6X6X7X7X6X7X7X0XeXeXwXeXeX2XB.k.k.S.{.oXoXoXoXU S A A A A A A A A A A A A A A A A A A C : Y.oXoXoXoXoXoX",
"oXoXoXoXOXM.tX0X6X6X6X6X4X4X4X5X7XwXqXeXeXeXeXqXeX,XB.k.h.L.oXoXoX{.U D A A A A A A A A A A A A A A A A A A A k , `.oXoXoXoXoXoX",
"oXoXoXoXoXJ.-X0X6X4X$Xe.e.#X9X0XeXqXqXqX8X8X&X&X&X%Xc.h.g.Z.oXoXoXI C A A A A A A A A A A A A A A A A A A A A f y }.oXoXoXoXoXoX",
"oXoXoXoXoXR..X0X6X$X#Xq.e.#X8X&X%Xy.y.y.q.w.>.w.>.:.t d.a.Z.OXoXoXF.F A A A A A A A A A A A A A A A A A A A A x < Q.+XOXoXoXoXoX",
"oXoXoXoXXX_..X8X6Xe.#Xe.e.e.e.w.w.r.3.+.[ +.' ' [ { r d.s.M.OX}.oXoXE.L Z A A A A A A A A A A A A A A A A A A V > u OXOXoXoXoXOX",
"oXoXoXoXOX)..XyX4X#Xe.w.' ` ' ' +.&.=.+.' ' ' ] :.:.r h.2 H.}.OXoXoX{.{.K Z A A A A A A A A A A A A A A A A A A z < W.oXoXoXoXoX",
"oXoXoXoXOX_.'.&Xe.w.[ [ ` Q ' ' +.=.4.&.O.` ( R R ;.t 5 q t }.OXoXoXoXoX{.I D A A M V S S D D D D D F F F F D D S < u oXoXoXoXoX",
"oXoXoXoXOX_._.y.[ [ [ [ ` E ( ) ) O.3.4.@.) E q R w 4 4 q t `.oXoXoXoXoXoX{.F.b Z - Y E.Q.!.Q.Q.{.!.Q.!.!.!.{.!.E.Q.}.oXoXoXoXOX",
"oXoXoXoXOX}.J.y.[ [ [ [ Q T E ~ ~ ` *.4.r.+./ R t q 4 4 t y `.oXoXoXoXoXoXoXoX!.L : D.OXOXOXoXoXOXoXoXoXoXoXoXoXoXoXoXoXoXoXoXoX",
"oXoXoXoXoX`.A.y.' ' ' ' Q E Q Q ~ @.r.4.4.&.~ ^ R T r 5 4 Y.oXoXoXoXoXoXoXoXoXoX{.E.{.oXoXoXoXoXoXoXoXoXoXoXoXoXoXoXoXoXoXoXoXoX",
"oXoXoXoXoX{.n.8.' ' ` ) ~ ~ ~ ) O.*.*.4.4.@.) ( E 1 r j.k.[.oXoXoXoXoXoXoXoXoXoXoXoXoXoXoXoXoXoXoXoXOXoXoXoXoXoXoXoXoXoXoXoXoXoX",
"oXoXoXoXXXXXZ.*X' ` ) ~ ~ ~ ~ O.&.4.4.4.3.O.) ) E T 6 f.j._.oXoXoXoXoXoXoXoXoXoXoXoXoXoXoXoXoXoXoXoXoXoXoXoXoXoXoXoXoXoXoXoXoXoX",
"oXoXoXoXoXXXb.,.` ~ ~ ~ ~ ~ O.3.4.4.4.4.*.) ~ ( Q ^ q f.j.'.oXoXoXoXoXoXoXoXoXoXoXoXoXoXoXoXoXoXoXoXoXoXoXoXoXoXoXoXoXoXoXoXoXoX",
"oXoXoXoXoXoXm.,.~ ~ ~ ~ ) _ 3.4.4.4.4.4.@.~ ~ ~ ! / q p.j.'.oXoXoXoXoXoXoXoXoXoX{.D.Y.oXoXoXoXoXoXoXoXoXoXoXoXoXoXoXoXoXoXoXoXOX",
"oXoXoXoXoXoXn.^.) ~ ~ ~ ) +.3.4.4.4.4.4.@.~ ~ ~ ( ( q p.j.].oXoXoXoXoXoX+XoX{.!.K : u oXoXXXOX}.oXXXXXXXXXXXoXXXXXoXXXoXoXoXoXoX",
"oXoXoXoXOXoXJ.~.) ~ ~ ~ ) @.4.4.4.4.4.4.@.~ ~ ~ ! ( x.h.j.'.oXoXoXoXoXoXOX{.F.H C - 8 e e 8 8 8 8 w e 8 w e e e e y Q.oXoXoXoXoX",
"oXoXoXOXOX+XJ.!.( ~ ~ ( ) O.4.4.4.4.4.4.3.@.) ~ ! ( b.h.z.'.oXoXoXoXoXoX{.I D A A m z z S m S z c c c c c c z c c ; Q.oXoXoXoXoX",
"OXoXoXoXoXoXP.Q.] ~ ~ ~ ~ _ &.*.*.*.*.%.*.%.o.o.W ^ v.a.j.`.{.oXoXoXoXQ.K C A A A A A A A A A A A A A A A A A A f 7 XXoXoXoXoXoX",
"oXoXoXoXoXoXR._.] ~ Q ! ~ _ #.*.%.%.%.%.%.%.%.$.o._ b.p.j.'.oXoXoXoXE.L Z A A A A A A A A A A A A A A A A A A V ; Y.oXoXoXoXoXoX",
"oXoXoXoXoXoX).R.>.~ Q ! ! o.%.%.%.%.%.%.%.%.%.%.%.#.Y p.j.{.oXoXoXT.H A A A A A A A A A A A A A A A A A A A Z x 6 `.oXoXoXoXoXoX",
"oXoXoXOXoXXX`.J.>.~ ! ! o.#.%.%.%.%.%.%.%.%.$.$.2.3.D.p.j.].oXoXoXP C A A A A A A A A A A A A A A A A A A A A x < `.oXoXoXoXoXoX",
"oXoXoXoXoXoX}.n.:.^ ^ _ @.2.2.1.7.6.6.@X@X@X@X/.~.~.n.i.N.{.oXoXoX{.U D A A A A A A A A A A A A A A A A A A A V > R oXoXoXoXoXoX",
"oXoXoXoXoXoX}.x.M.D.D._.R.Y.D.D.M.M.m.A.D.m.m.J.R.R.V.2 S.{.oXoXoXoX{.D.b A A A A A A A A A A A A A A A A A A A x < Q.oXoXoXoXoX",
"oXoXoXoXoXoXoXR.].oX{.{.{.{.[.oXXXXXOXoXoXoXXXOXoXOXb.i.A.oXoXoXoXoXoXOXT.H A A A A A A Z A A Z A Z Z A A A A A C > y OXoXoXoXoX",
"oXoXoXoXoXoXoXoXoXoXOX@X@X@X0.@X7.0.5.5.0.7.0.7.7.@Xm.z.{.oXoXoXoXoXoXoXoX`.K C A k v K K I I I I U I I I U I I P P D.oXoXoXoXoX",
"oXoXoXoXoXoXoXOX@X@X2.%.....| | | | | | | | | |  . .D.V.u.u.@XOXoXoXoXoXoXoX{.U F - u oXoXXXoXoXoXoXoXoXoXoXoXoX].oXoXoXoXoXoXoX",
"oXoXoXoXoXoXOX@Xt.r.#. ...| | | | | | | | | | | } } D.D.r.r.t./.oXoXoXoXoXoXoXoXT.9 R.oXoXoXoXoXoXoXoXoXoXoXoXoXoXoXoXoXoXoXoXoX",
"oXoXoXoXoXoXoX8.t.r.r.r.-.-.-.-.-.-.*.4.*.-.-.-.4.4.T.,.r.2.7./.oXoXoXoXoXoXoXoXoXoXoXoXoXoXoXoXoXoXoXoXoXoXoXoXoXoXoXoXoXoXoXoX",
"oXoXoXoXoXoXoXoX/.^.8.8.8.6.6.7.6.6.7.9.7.7.6.6.8.8.m.~.^./.OXoXoXoXoXoXoXoXoXoXoXoXoXoXoXoXoXoXoXoXoXoXoXoXoXoXoXoXoXoXoXoXoXoX",
"oXoXoXoXoXoXoXoXoXoXoXoXoXoXoXoXoXoXoXoXoXoXoXoXoXoXM.'.oXoXoXoXoXoXoXoXoXoXoXoXoXoXoXoXoXoXoXoXoXoXoXoXoXoXoXoXoXoXoXoXoXoXoXoX",
"oXoXoXoXoXoXoXoXoXoXoXoXoXoXoXoX+X+XoXoXoXoXoXoXoXoX{.oXoXoXoXoXoX+XoXoXoXoXoXoXoXoXoXoXoXoXoXoXoXoXoXoXoXoXoXoXoXoXoXoX+XoXoXoX",
"oXoXoXoXoXoXoXoXoXoXoXoXoXoXoXoXS.[.oXoXoXoXoXoXoXoXoXoXoXoXoXoXoXoXoXoXoXoXoXoXoXoXoXoXoXoXoXoXoXoXoXoXoXoXoXoXoXoXoXoXoXoXoXoX",
"oXoXoX+XoXoXoXoXoXoXoXoXoXoXoXoXC.C.[.oXoXoXoXoXoXoXoXoXoXoXoXoXoXoXoXoXoXoXoXoXoXoXoXoXoXoXoXoXoXoXoXoXoXoXoXoXoXoXoXoXoXoXoXoX"
};
