/* XPM */
static char *Close4C1721789023[] = {
/* columns rows colors chars-per-pixel */
"64 64 233 2 ",
"   c #0C0000",
".  c #130000",
"X  c #1B0000",
"o  c #220000",
"O  c #2C0000",
"+  c #390303",
"@  c #4C0707",
"#  c #560404",
"$  c #660404",
"%  c #6D0505",
"&  c #780707",
"*  c #6F1F14",
"=  c #77191A",
"-  c #7E1A1A",
";  c #59221D",
":  c #4E352C",
">  c #563B28",
",  c #663936",
"<  c #733638",
"1  c #757C08",
"2  c #574530",
"3  c #65452B",
"4  c #674635",
"5  c #6D4B33",
"6  c #1E2C5F",
"7  c #1C3470",
"8  c #223B7B",
"9  c #593E6E",
"0  c #354E59",
"q  c #34506E",
"w  c #515E53",
"e  c #784A4E",
"r  c #6A5B4D",
"t  c #7D5756",
"y  c #71634E",
"u  c #766656",
"i  c #405D72",
"p  c #734E70",
"a  c #506C6E",
"s  c #796A69",
"d  c #726D73",
"f  c #7A7877",
"g  c #870606",
"h  c #8E0A0A",
"j  c #950606",
"k  c #920909",
"l  c #9A0909",
"z  c #9D1010",
"x  c #A90B0B",
"c  c #B30D0D",
"v  c #A41E18",
"b  c #B61515",
"n  c #B7211C",
"m  c #912D21",
"M  c #C30F0F",
"N  c #C71819",
"B  c #D61515",
"V  c #E21616",
"C  c #C6231F",
"Z  c #DD1D24",
"A  c #E31D24",
"S  c #EC1C24",
"D  c #CD2D35",
"F  c #E12020",
"G  c #BE593C",
"H  c #C45432",
"J  c #904B52",
"K  c #815455",
"L  c #8D5151",
"P  c #825658",
"I  c #935353",
"U  c #AB4D4E",
"Y  c #B7675A",
"T  c #8C5571",
"R  c #A55761",
"E  c #956E73",
"W  c #A46468",
"Q  c #B0626B",
"!  c #CC6E50",
"~  c #7B8509",
"^  c #6A8575",
"/  c #838B11",
"(  c #899011",
")  c #8C9414",
"_  c #A79F19",
"`  c #9CA41B",
"'  c #A5AC1E",
"]  c #A8A91D",
"[  c #A79931",
"{  c #9CA121",
"}  c #A5AB22",
"|  c #A8AB26",
" . c #B4AD23",
".. c #AFB12A",
"X. c #B7B42A",
"o. c #BCBB2E",
"O. c #BCBA32",
"+. c #B7BA38",
"@. c #FA9A06",
"#. c #FA9B09",
"$. c #EE9C1A",
"%. c #FAA00E",
"&. c #F9A314",
"*. c #E79F22",
"=. c #CBAF2C",
"-. c #D7B734",
";. c #EFA82C",
":. c #F7AB34",
">. c #E7B83B",
",. c #FABD31",
"<. c #F9B63C",
"1. c #FAC338",
"2. c #8E9351",
"3. c #9BA146",
"4. c #B5B641",
"5. c #878F72",
"6. c #AE8878",
"7. c #CDB64F",
"8. c #EBA342",
"9. c #E4BE49",
"0. c #F4BC42",
"q. c #FCBB43",
"w. c #E5B95A",
"e. c #E5BA5B",
"r. c #D59C62",
"t. c #D9B569",
"y. c #CBB271",
"u. c #D9B977",
"i. c #B3C352",
"p. c #B0C970",
"a. c #FAC945",
"s. c #F3CB54",
"d. c #DAC07C",
"f. c #E4C069",
"g. c #1E3B81",
"h. c #223E83",
"j. c #264389",
"k. c #2A4995",
"l. c #355190",
"z. c #2D50A3",
"x. c #3253A4",
"c. c #3759A9",
"v. c #3659AD",
"b. c #375BB1",
"n. c #3A5DB4",
"m. c #3D61B6",
"M. c #3D62BC",
"N. c #5F5390",
"B. c #596E98",
"V. c #6A788C",
"C. c #747D98",
"Z. c #565CA5",
"A. c #5A6FA5",
"S. c #4967B6",
"D. c #4466BE",
"F. c #526EB9",
"G. c #5973B7",
"H. c #6B7BA6",
"J. c #6779B3",
"K. c #3F65C1",
"L. c #4065C0",
"P. c #857A88",
"I. c #9D768C",
"U. c #7C8D8F",
"Y. c #7D8397",
"T. c #5D85BA",
"R. c #7887A7",
"E. c #718FAE",
"W. c #749CB5",
"Q. c #76A5B9",
"!. c #7EB2BC",
"~. c #7AAFC2",
"^. c #878687",
"/. c #8E8A8A",
"(. c #948A8E",
"). c #8A8B95",
"_. c #929293",
"`. c #999195",
"'. c #969499",
"]. c #9B999E",
"[. c #A9838B",
"{. c #B7AB97",
"}. c #868CA9",
"|. c #8A93A9",
" X c #9597A7",
".X c #9C9CA3",
"XX c #9D9EAB",
"oX c #8C95B3",
"OX c #A09FA4",
"+X c #9CA3A8",
"@X c #84B1B6",
"#X c #A3A1A6",
"$X c #A9A5A6",
"%X c #ACA9A7",
"&X c #A7A6AB",
"*X c #B6B2AA",
"=X c #C98E8D",
"-X c #C9B58C",
";X c #D2B0AA",
":X c #E2BFB7",
">X c #B2D194",
",X c #9FDDBB",
"<X c #AFDBAA",
"1X c #B4D6A8",
"2X c #ACD6B5",
"3X c #CFD3A8",
"4X c #85BCC2",
"5X c #8AC6CA",
"6X c #9BD6C9",
"7X c #8FD2D2",
"8X c #95DAD4",
"9X c #9ADDD5",
"0X c #A4DCC6",
"qX c #9DE1C9",
"wX c #9AE1D7",
"eX c #97E2D8",
"rX c #9BE1D8",
"tX c #B6E7C9",
"yX c #A3E4DA",
"uX c #A7E4DB",
"iX c #B3E8DC",
"pX c #A9E7E0",
"aX c #ADEAE2",
"sX c #B2EBE4",
"dX c #B9E8E2",
"fX c #CCCAC9",
"gX c #EAD8D2",
"hX c #C5ECE7",
"jX c #CDF1EC",
"kX c #D5F1EE",
"lX c #DBF4F1",
"zX c #E4F5F3",
"xX c #E9F4F2",
/* pixels */
"&X&X&X&X&X&X&X&X&X&X&X&X&X&X&X&X&X&X&X&X&X&X&X&X&X&X&X&X&X&X&X&X&X&X&X X}.&X&X&X&X&X&X&X&X&X&X&X&X&X&X&X&X&X&X&X&X&X&X&X&X&X&X&X",
"&X&X&X&X&X&X&X&X&X&X&X&X&X&X&X&X&X&X&X&X&X&X&X%X&X&X&X&X&X&X&X&X&X&X&XH.}.&X&X&X&X&X&X&X%X&X&X&X&X&X&X&X&X&X&X&X&X&X&X&X&X&X&X&X",
"&X&X&X&X&X&X&X&X&X&X&X&X&X&X&X%X&X&X&X&X&X&X&X&X&X&X&X&X&X&X&X&X&X&X|.S.}.&X&X&X&X&X&X&X&X&X&X&X&X&X&X&X&X&X&X&X&X&X&X&X&X&X&X&X",
"&X&X&X&X&X&X&X&X&X&X&X&X&X&X&X&X&X&X&X&X&X&X&X&X&X&X&X&X&X&X&X&X&X&XJ.D.}.&X&X&X&X&X&X&X&X&X&X&X&X&X&X&X&X&X&X&X&X*X&X&X&X&X&X&X",
"&X&X&X&X&X&X&X&X&X&X&X&X&X&X&X&X&X&X&X&X&X&X&X&X&X&X&X&X&X&X&X&X&X|.D.D.oX&X&X&X&X&X&X&X&X&X&X&X&X&X&X&X&X&X&X&X&X&X&X&X&X&X&X&X",
"&X&X&X&X&X&X&X&X&X&X&X&X&X&X&X&X&X&X&X&X&X&X&X&X&X&X&X&X&X&X&X&XOXJ.D.D. X&X&X&X&X&X&X&X&X&X&X&X&X&X&X&X&X&X&X&X&X&X&X&X&X&X&X&X",
"&X&X&X&X&X&X&X&X&X&X&X&X&X&X&X&X&X&X&X&X&X&X&X&X%X&X&X&X&X&X&X&X}.D.n.D. X&X&X&X&X&X&X&X&X&X&X&X&X&X&X&X&X&X&X&X&X&X&X&X&X&X&X&X",
"&X&X&X&X&X&X&X&X&X&X&X&X&X&X&X&X&X&X&X&X&X&X&X&X&X&X&X&X&X&X&X&XG.K.k.D.XX&X&X&X&X&X&X&X&X&X&X$X&X&X&X&X&X&X&X&X&X&X&X&X&X&X&X&X",
"&X&X&XOXC.).}. XXXXX X+X+X#X$X&X$X$X&X&X&X&X$X&X&X&X&X&X&X&X&X}.L.v.6 S. X'.`.`.`.`.`.`.`.`.`.(.`.`.`.`.`.`.`.`.OX`.`.`.(.&X&X&X",
"&X&X&XOXA.W.@XQ.W.W.R.R.R.|.U.|.|.|.+X+X.X.X+X+X&X&X&X%X&X&XXXG.L.8 6 S. X, l l l l l l l l l l l j l l l l l l l l l l + &X&X&X",
"&X&X&XOXE.0XrX9X9X9X6X8X8X8X7X5X@X!.Q.Q.W.W.E.R.R.R.R.|.}.|.R.L.b.7 8 S.XX< l # g k k k & # & # # & @ % % g h h k h $ x @ &X&X&X",
"&X&X&XOXC.9XeXwXrX9XeXwX9XwXwXeXwXeXeXeXeXeX8X7X5X4X7X5X~.A.n.M.v.j.h.S.XX< k # Z b c c l + M g l x o z k g b B M c $ l ; &X&X&X",
"&X&X&X&XR.0X9XeXwXyXwXrXeXwXwXwXwXwXwXwXwXwXwXeXeXeXeXeX9XW.K.v.k.k.h.Z.&X< h # B # @ # + X % V B # X l z . o b & X X j @ &X&X&X",
"&X&X&X&XC.6X9X9X9X0X>X{.2XwXwXeXwXwXwXwXwXwXwXrXeXiXhXiXpXW.K.h.h.p 9 F.XX< k # A M M b x o O B M o . z h   . b &   . j @ &X&X&X",
"&X&X&X&XR.5XwXwX,Xt.$.#.7.0XwXwXwXwXrXrXwXwXyXhXlXzXxXzXjXQ.S.6 9 J p G.&X< l # N @ O o o . $ B B @ . z h . . b &     j @ &X&X&X",
"&X&X&X&XC.@XwX9X1X$.@.@.$.>X9XeXwXwXwXrXrXrXwXsXjXkXkXhXdXoXZ.p U G e G.XX< j # N O       O c h x c o z h   . v &   . j ; &X&X&X",
"&X&X&X&XH.4X9X9X<X*.@.#.*.>XrXwXwXwXwXwXwXeXrXrXrXyXyXwX9XQ.I.Q 8.=Xp J.&X< g @ N @ + O O & M + + B % l h   . b &   . j @ &X&X&X",
"&X&X&X&X).4XrX9XqXy.*.*.t.0XwXwXwXwXwXwXrXwXwXrXwXwX9XwX9XQ.Q r.gX:Xp J.#X< j @ B N N N c c & . . g x k g . . z %   . j @ &X&X&X",
"&X&X&X&X}.5X9XrXwX0X1X1X0X9XwXwXwXwXwXwXwXwXwXwXwXeXwXwXeXQ.Y gXfX:XT J.&X< b & g k h h g g & % % & g g g % % g & % % x @ &X&X&X",
"&X&X&X&X|.4XeXrXwXeX9XwX9X9XwXwXrXwXwXwXwXwXeXwXeXwXwXwX9X~.=XgX;X;Xp J.OXr = - - h - - - h = m - - - - - - - - m = - = : &X&X&X",
"&X&X&X&X.X4XwXwXrXrXeXwXwXwXwXwXwX9XwXrXrXrXrX9X9XrXwXwXwXT.=XfXfX;Xp J.&X&X&X&X&X&X&X&X&X&X&X&X&X&X&X&X&X&X&X&X&X&X&X&X&X&X&X&X",
"&X&X&X&X+X4XeXwXrXwXwXwXwXwXwXeXrXyXyXuXiXdXhXiXuXyXwXwXwXG.=XOXfX;XT J.&X&X&X&X&X&X&X&X&X&X&X&X&X&X&X&X&X&X&X&X&X&X&X&X&X&X&X&X",
"&X&X&X&X+X!.wXwXwXwXwXwXyXiXhXjXjXkXkXlXzXxXxXxXzXjXdXrX9XT.=XgXxX! T E.&X&X&X&X&X&X&X&X&X&X&X&X&X&X&X&X&X&X&X&X&X&X&X&X&X&X&X&X",
"&X&X&X#X+X!.wXeXwXwXwXwXsXzXxXxXxXxXxXxXxXxXxXxXxXxXzXhXwXT.I.gX=X! N.oX&X&X&X&X&X&X&X&X&X&X&X&X&X&X&X&X&X&X&X&X&X&X&X&X&X&X&X&X",
"&X&X&X&X+X!.eXwXwXwXwXeXuXjXzXxXxXxXxXxXxXxXxXzXlXzXzXzXpXT.Q Q H U Z.R.XX&X&X&X&X&X&X&X&X&X&X&X&X&X&X&X&X&X&X&X&X&X&X&X&X&X&X&X",
"&X&X&X&X+XQ.eXwXwXwXwXwXeXyXiXhXkXkXlXlXkXjXhXiXuXiXdXhXrXT.R G R h.Z.}.&X&X&X&X&X&X&X&X&X&X&X&X&X&X&X&X&X&X&X&X&X&X&X&X&X&X&X&X",
"&X&X&X&X+XW.wXrXwXwXwXwXwXwXeXeXqXyXuXyXyXwXrXwXrXrXwX9X7XF.T p l.h.S.oX&X&X&X&X&XOX^.f &X&X&X&X&X&X&X&X&X&X&X&X&X&X&X&X&X&X&X&X",
"&X&X&X&X+XW.9XwXwXwXwXwXeXeXrXrX9XwXwX9XrXrXrXrXrX9XrXrX~.n.Z.j.k.h.S. X&X&X&X&X.XE m r #X&X#X#X#X&X#X#X+X&X&X#X&X&X&X&X&X&X&X&X",
"&X&X&X&X&XW.wXrXrXwXrXrXeXeXeXeXwXwXeXeXrXrXeXwXwXwXwXwX~.m.k.j.k.8 S.XX&X&X&X`.U A n 2 u P y u r y y u r u u u u u u ^.&X&X&X&X",
"&X&X&X&X#XW.uXaXaXaXaXuXuXuXpXyXyXyXrXrXwXwXeXrXwXwXwXeXQ.m.k.v.v.8 S.XX&XOXI.D S S Z N C C C C C b C b C n C C n C * ^.&X&X&X&X",
"&X&X&X&X&XE.iXaXsXsXaXiXaXpXuXuXyXrXwXwXwXwXwXrXrXrXyXyXW.m.k.m.n.g.S.XXXXW Z A S S S S S S S S S S S S S S S S S N , .X&X&X&X&X",
"&X&X&X&X$XW.6XyXrXwXrXrXrXrXeXeXwXeXwXrXyXuXuXsXsXsXsXaXW.m.z.k.n.x.F.'.R Z S S S S S S S S S S S S S S S S S S A * d &X&X&X&X&X",
"%X&X&X&X%XU.7XeXeXeXeXeXwXwXwXrXeXqXaXsXsXsXsXsXsXsXsXsXQ.M.z.7 n.K.S.U Z S S S S S S S S S S S S S S S S S S S C > _.&X&X&X&X&X",
"&X&X&X&X%XW.5XeXqX,X,XqXwXrXrXyXaXaXsXsXsXsXsXsXsXsXsXsXQ.M.j.7 x.n.Z.D S S S S S S S S S S S S S S S S S S S S n 5 _.&X&X&X&X&X",
"&X&X&X&X&X|.!.qX>Xi.p.>XyXiXiXiXsXsXhXsXsXsXsXsXsXsXaXaXQ.b.8 k.8 q B.I.D S S S S S S S S S S S S S S S S S S S A m u %X&X&X&X&X",
"&X&X&X&X&X|.!.>Xp.3.p.>XtXtXtX<X3X>X>X>X<X<X3X<XtXtXiXyXW.z.g.z.7 q A.#X(.U A S S S S S S S S S S S S S S S S S S N 5 /.&X&X&X&X",
"&X&X&X&X+X].!.>X,Xp.p.p.i.i.7.9.a.-.+.+.+.+.+.i.i.i.i.p.U.b.j.8 q i B./.OX'.U A S S S S S S S S S S A S S S A S S S m r +X%X&X&X",
"&X&X&X&X%X|._.i.i...+.o.o.o.-.1.1.O.O.O.o.o.O.O.o.o.O.O.^ v.0 a 0 0 l.^ d &X.XW D F B m R I R W W Q W W W W W W W W I f #X%X&X&X",
"&X&X&X&X%X+X_.+.o.o...' o.O.-.q.a.=.o.o.o.o.O.O.O.O.O.O.U.c.0 ^ 0 0 i ^ a +X&X#XI.D v w $X&X&X$X&X&X&X&X&X&X&X&X&X&X&X&X&X&X&X&X",
"&X&X&X&X+X+X5.o.o.o.` ` ..X.X.>.0.1.o.X.X.o.o.o.X.O.O.O.U.b.0 w 0 q i ^ a #X&X&X&X[.K ^.&X&X&X&X&X&X&X&X&X&X&X&X&X&X&X&X&X&X&X&X",
"&X&X&X&X&X+X^.+.O.o.) ~ ` } ' -.q.<.>.' ' ' ' ] ~ +.O.o.^ K.l.q l.a B.U.^.&X&X&X&X&X&X&X&X&X&X&X&X&X&X&X&X&X&X&X&X&X&X&X&X&X&X&X",
"&X%X&X&X&X+XU.4.o.' ) ) ` ' } -.q.q.<. .' ' ` / ~ { X.+.V.b.x.x.x.i R.+X&X&X&X&X&X&X&X&X&X&X&X&X&X&X&X&X&X&X&X&X&X&X&X&X&X&X&X&X",
"&X&X&X&X&X#XY.4.| ' ] ] ' ' -.<.q.q.0.X.' ' ' ~ ~ ` } ..V.v.z.v.l.q }.&X&X&X&X&X&X&X&X&X&X&X&X&X&X&X&X&X&X&X&X&X&X&X&X&X&X&X&X&X",
"&X&X&X&X&X#XC.3.' } ' ' ..-.<.1.q.q.0.X.| ` ) ~ ~ ~ } } V.v.k.z.0 i }.&X&X&X&X&X&X&X&X&X&X&X&X&X&X&X&X&X&X&X&X&X&X&X&X&X&X&X&X&X",
"&X&X&X&X&X&XV.3.' ' '  .-.q.q.q.q.q.>.} ' } ( 1 ~ / } } V.b.8 8 7 q |.&X&X&X&X&X&X&X X.X&X&X&X&X&X&X&X&X&X&X&X&X&X&X&X&X&X%X&X&X",
"&X&X&X&X&X&XC.2.' '  .-.q.q.q.q.q.>.=.' ' } ) ~ ~ ~ ` | B.z.8 7 l.c.oX&X&X&X&X&X#X^.2 f &X&X&X&X&X&X&X&X&X%X&X&X&X&X&X&X&X&X&X&X",
"&X&X&X&X&X&XC.2.' } =.0.q.q.q.q.q.>.} ] ' ] { ` ` ) ` | B.v.j.g.z.D.oX&X&X&X&X.Xs K > u _./.^./.^.^./././././././._._..X&X&X&X&X",
"&X&X&X&X&X&XY.2.' } >.q.q.a.q.q.q.-.' ' ' ' ' ' } ' } [ B.z.g.j.x.D.|.&X&X&X(.t L I , 5 4 5 4 2 3 > 3 3 2 3 3 > 5 3 2 _.&X&X&X&X",
"&X&X&X&X&X&X).^ '  .-.q.q.q.q.q.q.-.' ' ' ' } ' } ' ' | B.x.j.k.x.D. X%X&XE e I I I I I I I I I L L L I I L L I I 4 w ].#X&X&X&X",
"&X&X&X&X&X&X).5.' ' -.0.q.q.q.q.<.<.=.' ' ' } ` ' ' } | H.k.h.j.k.M. XOXf K I I I I I I I I I I I I I I I I I I J : f &X&X&X&X&X",
"&X&X&X&X&X&X X5.' ] =.1.q.<.q.<.<.<.:.=.] ] _ ] } ' ' | H.x.8 k.k.F.}.T K I I I I I I I I I I I I I I I I I I I , 2 ].&X&X&X&X&X",
"&X&X&X&X&X#X].5.] ] ;.:.:.:.:.:.:.:.:.:.=._ _ _ ] ` } | J.n.z.h.k.F.d L I I I I I I I I I I I I I I I I I I I I , r +X&X&X&X&X&X",
"&X&X&X&X&X&X.XV._ =.:.:.:.:.8.:.8.8.8.8.>.r.[ 2.2.2.2.5.J.D.n.h.j.F.Y.t L I I I I I I I I I I I I I I I I I I I 5 3 _.&X&X&X&X&X",
"&X&X&X&X&X&X.XB.E 6.6.E 6.6.T P.P.P.E I.I.I.(.P.^.^. X XR.D.L.k.j.F.+X'.s L I I I I I I I I I I I I I I I I I I L 3 u #X&X&X&X&X",
"&X&X&X&X&X&X&X'.'. X.X.X#X.X X+XOXOX$X$X$X$X&X&X&X&X&X&X&XG.L.n.b.F.+X&X].s L L I L I I I I I I I I I I I I I I I K 2 ^.&X&X&X&X",
"&X&X&X&X&X&X&X&X&X&X*X{.-X-Xu.u.u.t.f.f.f.u.u.u.u.-X-X-X*X|.D.L.K.G.+X&X+X+XE K I L L L e t K K K K t K P P P P K t 4 s &X&X&X&X",
"&X&X&X&X&X&X&X%X-Xd.s.:.;.&.&.&.#.%.%.#.%.%.%.&.&.&.;.<.s.u.H.D.K.G.&X&X&X&X&X).t I : s ).'.].].].].].].].OX.X].`.].].+X%X&X&X&X",
"&X&X&X&X&X%X%Xd.s.1.&.@.#.#.@.@.@.@.#.@.@.#.@.@.@.@.%.&.1.a.u.S.K.G.XX&X&X&X&XOX].s : ^.&X&X&X&X&X&X&X&X%X&X&X&X$X%X&X&X&X&X&X&X",
"&X&X&X&X&X&X%Xw.a.a.1.1.1.,.,.,.,.,.,.,.,.,.,.,.1.1.1.1.a.a.w.}.L.G.&X&X&X&X&X&X&X#X_.$X&X&X&X&X&X&X&X&X&X&X&X&X&X&X&X&X&X&X&X&X",
"&X&X&X&X&X&X&X{.{.y.t.t.w.w.w.w.e.e.e.e.w.w.e.e.w.t.r.y.y.{.$XXXF.J.&X&X&X&X&X&X&X&X&X&X&X&X&X&X&X&X&X&X&X&X&X&X&X&X&X&X&X&X&X&X",
"&X&X&X&X&X&X&X&X&X&X&X#X#X#X$X$X%X$X$X$X$X$X$X%X$X$X&X$X&X&X&X&X}.J.&X&X&X&X&X&X&X&X&X&X&X&X&X&X&X&X&X&X&X&X&X&X&X&X&X&X&X&X&X&X",
"&X&X&X&X&X&X&X&X&X&X&X&X&X&X&X&X&X&X&X&X&X&X&X&X&X&X&X&X&X&X&X&X&XXX&X&X&X&X&X&X&X&X&X&X&X&X&X&X&X&X&X&X&X&X&X&X&X&X&X&X&X&X&X&X",
"&X&X&X&X&X&X&X&X&X&X&X&X&X&X&X&XT.oX&X&X&X&X&X&X&X&X&X&X&X&X&X&X&X&X&X&X&X&X&X&X&X&X&X&X&X&X&X&X&X&X&X&X&X&X&X&X&X&X&X&X&X&X&X&X",
"&X&X&X&X&X&X&X&X&X&X&X&X&X&X&X&XF.F.oX&X&X&X&X&X&X&X&X&X&X&X&X&X&X&X&X&X&X&X&X&X&X&X&X&X&X&X&X&X&X&X&X&X&X&X&X&X&X&X&X&X&X&X&X&X"
};
