/* XPM */
static char *Close3G1721789022[] = {
/* columns rows colors chars-per-pixel */
"64 64 231 2 ",
"   c #010000",
".  c #0D0303",
"X  c #130505",
"o  c #1C0707",
"O  c #1E0808",
"+  c #240909",
"@  c #2A0D0D",
"#  c #340E0E",
"$  c #380F0F",
"%  c #2C1212",
"&  c #351111",
"*  c #391717",
"=  c #431F1F",
"-  c #491919",
";  c #541D1D",
":  c #791914",
">  c #4E301A",
",  c #6A3519",
"<  c #492121",
"1  c #542424",
"2  c #5A2323",
"3  c #4D362A",
"4  c #672827",
"5  c #693634",
"6  c #753838",
"7  c #554530",
"8  c #634528",
"9  c #6C4932",
"0  c #764A3B",
"q  c #6F5334",
"w  c #757D22",
"e  c #223B7B",
"r  c #394F58",
"t  c #314B70",
"y  c #4C5753",
"u  c #7D4943",
"i  c #695E4B",
"p  c #625D57",
"a  c #795758",
"s  c #53695A",
"d  c #6B6357",
"f  c #6D7052",
"g  c #465862",
"h  c #556D6C",
"j  c #6C6B66",
"k  c #7A6968",
"l  c #667C6E",
"z  c #7E6E71",
"x  c #727275",
"c  c #7D7779",
"v  c #B91A1D",
"b  c #902A19",
"n  c #A32222",
"m  c #CC1A1F",
"M  c #D31B20",
"N  c #DB1C23",
"B  c #E41C24",
"V  c #EC1C24",
"C  c #CB262D",
"Z  c #AF3E43",
"A  c #854D49",
"S  c #9F4C50",
"D  c #895051",
"F  c #935353",
"G  c #9E575B",
"H  c #AA494E",
"J  c #9E5C60",
"K  c #826F73",
"L  c #916F73",
"P  c #847779",
"I  c #7D8823",
"U  c #758A59",
"Y  c #919916",
"T  c #A69E18",
"R  c #9DA41D",
"E  c #A7A71C",
"W  c #A6AC1E",
"Q  c #989B29",
"!  c #A6AC26",
"~  c #AAAD21",
"^  c #B8A924",
"/  c #B3B529",
"(  c #BBBB2F",
")  c #AEB031",
"_  c #BCBB31",
"`  c #B4B438",
"'  c #F89809",
"]  c #FA9D0A",
"[  c #F69D11",
"{  c #F8A316",
"}  c #EA9F23",
"|  c #D3A829",
" . c #C2B52C",
".. c #CCB32E",
"X. c #CAB935",
"o. c #D6B635",
"O. c #EEAD30",
"+. c #F5AC37",
"@. c #F9AB33",
"#. c #EAB83B",
"$. c #F8B53C",
"%. c #F7C13E",
"&. c #FBC33A",
"*. c #98A050",
"=. c #ABAC4A",
"-. c #B6BA46",
";. c #B6B17C",
":. c #DBAB43",
">. c #D3B355",
",. c #EAB44C",
"<. c #F4BB41",
"1. c #FDBB43",
"2. c #E8BE5C",
"3. c #D5B16B",
"4. c #DCB669",
"5. c #CFB070",
"6. c #D8B876",
"7. c #E3BA66",
"8. c #AEC34E",
"9. c #B8C148",
"0. c #B4CA6D",
"q. c #A6CD7B",
"w. c #F8C845",
"e. c #F3CB59",
"r. c #CFC66F",
"t. c #E5C56D",
"y. c #233F85",
"u. c #27458B",
"i. c #264794",
"p. c #2B4994",
"a. c #2A4C9C",
"s. c #304F99",
"d. c #365499",
"f. c #284DA3",
"g. c #2E51A5",
"h. c #3857A6",
"j. c #395DB4",
"k. c #3D61B9",
"l. c #425C9B",
"z. c #515F90",
"x. c #4C639D",
"c. c #58689C",
"v. c #5A7390",
"b. c #7D7C80",
"n. c #74788D",
"m. c #626F90",
"M. c #6A759C",
"N. c #747895",
"B. c #747B9B",
"V. c #405FAE",
"C. c #4863A9",
"Z. c #556AA5",
"A. c #516BB5",
"S. c #6675A5",
"D. c #747DA3",
"F. c #6578B2",
"G. c #887986",
"H. c #967E83",
"J. c #5D829E",
"K. c #7F858B",
"L. c #7A829D",
"P. c #698AA6",
"I. c #7A86A7",
"U. c #6E90AB",
"Y. c #73AAB0",
"T. c #898587",
"R. c #968185",
"E. c #938A8D",
"W. c #87899A",
"Q. c #968F92",
"!. c #989598",
"~. c #9C9A9F",
"^. c #A6978F",
"/. c #B0A68B",
"(. c #B5A898",
"). c #858AA5",
"_. c #8B93A8",
"`. c #9293A2",
"'. c #9C9BA2",
"]. c #9396A8",
"[. c #9699AB",
"{. c #9C9DAA",
"}. c #8D97B3",
"|. c #A09FA4",
" X c #9DA1A7",
".X c #87ABB6",
"XX c #8EB3B8",
"oX c #99B6B9",
"OX c #A2A1A6",
"+X c #A7A6AB",
"@X c #A9A7A9",
"#X c #A9AFB1",
"$X c #CCB58D",
"%X c #AED091",
"&X c #96D4B4",
"*X c #B2D4A8",
"=X c #AAD6B5",
"-X c #B7E1B9",
";X c #CBC986",
":X c #C9E0B2",
">X c #82BEC0",
",X c #A7B1C0",
"<X c #8DCFC9",
"1X c #97C5C3",
"2X c #9CDACD",
"3X c #97DDD3",
"4X c #9BDED5",
"5X c #B5C9C9",
"6X c #A4DBCB",
"7X c #A6DBD3",
"8X c #B3D6D0",
"9X c #9DE1CE",
"0X c #9AE1D7",
"qX c #96E2D8",
"wX c #9BE1D8",
"eX c #B7E6C8",
"rX c #A2E2D6",
"tX c #A3E4DB",
"yX c #AAE5DB",
"uX c #B6E9DA",
"iX c #ADEAE2",
"pX c #B2EBE4",
"aX c #BAE9E2",
"sX c #CEDADD",
"dX c #CCE1DD",
"fX c #C8EDE8",
"gX c #D1EFEB",
"hX c #D7F2EE",
"jX c #DEF4F1",
"kX c #E6F5F2",
"lX c #E8F4F2",
/* pixels */
"+X+X+X+X+X+X+X+X+X+X+X+X+X+X+X+X+X+X+X+X+X+X+X+X+X+XS._.+X+X+X+X+X+X+X+X+X+X+X+X+X+X+X+X+X+X+X+X+X+X+X+X+X+X+X+X+X+X+X+X+X+X+X+X",
"+X+X+X+X+X+X+X+X+X+X+X+X+X+X+X+X+X+X@X+X+X+X+X+X+X+XS.F.+X+X+X+X+X+X+X+X+X+X+X+X+X+X+X+X+X+X+X+X+X+X+X+X+X+X+X+X+X+X+X+X+X+X+X#X",
"+X+X+X+X+X+X+X+X+X#X+X+X+X+X+X+X+X+X+X+X+X+X+X+X+XOXS.A.{.+X+X+X+X+X+X+X+X+X+X+X+X+X+X+X+X+X+X+X+X+X+X+X+X+X+X@X+X+X+X+X+X+X+X+X",
"+X+X+X+X+X+X+X+X+X+X+X+X+X+X+X@X+X+X+X+X+X+X+X+X+X+XS.V._.+X+X+X+X+X+X+X+X+X+X+X+X+X+X+X+X+X+X+X#X+X+X+X+X+X+X+X+X+X+X+X+X+X+X+X",
"+X+X+X+X+X+X+X+X+X+X+X+X+X+X+X+X+X+X+X+X+X+X+X+X+X+XS.j.D.+X+X+X+X+X+X+X+X+X+X+X+X+X+X+X+X+X+X+X+X+X+X+X+X+X+X+X+X+X+X+X+X+X+X@X",
"+X+X+X+X+X+X+X+X+X+X+X+X+X+X+X+X+X+X#X+X+X+X+X+X+X+XS.g.F.+X+X+X+X+X+X+X+X+X+X+X+X+X+X+X+X+X+X+X+X+X+X+X+X@X+X+X+X+X+X+X+X+X+X+X",
"+X+X+X+X+X+X+X+X+X+X+X+X+X+X+X@X+X+X+X+X+X+X+X+X+X+XS.u.V.[.+X+X+X+X+X+X+X+X+X+X+X+X+X+X+X+X+X+X+X+X+X+X+X+X+X+X+X+X+X+X+X+X+X+X",
"+X+X+X+X+X+X+X+X+X+X+X+X+X+X+X+X+X+X+X+X+X+X+X+X+XOXS.y.h.}.+X+X+X+X+X+X+X+X+X+X+X+X+X+X+X+X+X+X+X+X+X+X+X+X+X+X+X+X+X+X+X+X+X+X",
"+X+X+X|.`.].{.{.+XOX+XOX+X+X+X+X@X+X+X@X@X+X@X+X+X+XF.y.g.F.+X+X+X+X+X+X+X'.'.'.'.'.'.'.'.'.'.~.'.~.'.'.'.~.'.'.|.|.'.'.'.|.+X+X",
"+X+X+X].x.F.U.P.P.S.P.}._._._. X.X X X X+X+X@X@X+X|.Z.a.g.A.[.+X+X+X+X+X+Xo # # # # # # # # # # # # # # # # # & # # # $ X x +X+X",
"+X+X+X'.S.=XeX8X8X>X.X.XY.U.P.P.Z.v.J.Z.S.J.L.P.).).x.y.g.V.}.,X+X+X+X+X+X+ @ X @ @ + + o o + X X O X o o + @ @ @ @ o @ + x +X+X",
"+X+X+X'.M.6X0X0X3X4XwXwXqX3X3XqX<X&X<X&XY.>XY.Y.P.S.h.g.y.s.G.+X+X+X+X+X+X+ + % 5 1 1 2 &   ; o % -   * * @ 1 5 5 1 % o + x @X+X",
"+X+X+X|.S.1X0X0XqX0XqX3XqXqXqXqXqXqX0X0X4XqXqXwX7X+XC.g.a.y.}.+X+X+X+X+X+X@ + % 1 . . .     @ 4 2 +   * <     * =     o @ x +X+X",
"+X+X+X+XI.1X0X0X0X0X=X*X-XqX0XqX0X0XqX0XqX4XtXfXhX#Xx.a.a.s.).+X+X+X+X+X+X@ + % 6 1 1 1 &   . 5 ; .   * <     * =     o + x +X+X",
"+X+X+XOX).5X0X0X0X*Xo.} :.=X0X0XwXqXwXwXwXwXwXaXfX#Xc.a.a.s._.+X+X+X+X#X+X+ + % 1 X X X .   o 4 4 .   * <     * =     + + x +X+X",
"+X+X+X+XB.XX0X4X6X>.' ] [ 3.9X0XqXwXwXwXqXwXwXwX7X#Xx.p.y.d.}.+X+X+X+X+X+X+ + % 1           - * < *   * <     * =     + + x +X+X",
"+X+X+X+XI..X7X4X6X>.' ' ' 5.7X0XqX0X0X0X0X0XwXqX4XoXZ.i.y.h._.+X+X+X+X+X+X+ + % 1         + 2 . X 4 X * =     * <     o + x +X+X",
"+X+X+X+XD.oXwX4XrX%XO.} o.*XwXqX0X0XwX0XwX0X0X0X3XoXZ.y.y.h.].+X+X+X+X+X+X+ O @ 6 1 1 1 & ; %     * - & =     & =     + + x +X+X",
"+X+X+X+X)..XwXwXwX2X*X*X=X4XwXwX0X0X0X0X0XwXqX0X4X#XZ.p.y.h.[.+X+X+X+X+X+X@ # X @ & & & @ + X X X X + X + . . X O X . + + x +X+X",
"+X+X+X+XW._.4XwX0X0X4X0X3X4XwXqX0X0X0X0X0X4XwXwX4X+Xc.p.i.V.[.+X+X+X+X+X+XX $ & & & & & $ & & & & & & & $ $ * & & & & * o x +X+X",
"+X+X+X+XW.I.9XqX0X0X0XqXwX0XqXwXwX4X4XrXyXaXfXfXfX,XZ.s.g.V.{.+X+X+X+X+X+Xb.b.K.c b.b.b.G.b.b.b.b.b.G.c K.c K.c b.b.b.b.P '.+X+X",
"+X+X+X+X`.I.9XqX0X0XwX0X0XqXrXyXpXfXfXgXkXkXkXkXlXsXZ.g.g.k.{.+X+X+X+X+X+X+X+X+X+X+X+X+X+X+X+X+X+X+X+X+X+X@X+X+X+X+X+X+X+X+X+X+X",
"+X+X+X+X!.}.7XqX0XwXwXwXqXyXgXjXkXkXlXlXlXlXkXlXlXsXC.f.f.C.{.+X+X+X+X+X+X+X+X+X+X+X+X+X+X+X+X+X+X+X+X+X+X+X+X+X+X+X+X+X+X+X+X+X",
"+X+X+X@X`.}.6X0XqX0XwXwXwXuXjXkXkXkXlXlXlXkXkXjXhX5Xx.y.f.A.{.+X+X+X+X+X+X+X+X+X+X+X+X+X+X+X+X+X+X+X+X+X+X+X+X+X+X+X+X+X+X+X+X+X",
"+X+X+X+X'.}.7XqXwXwXqXwX0XwXuXfXgXhXjXhXhXfXaXyXrX1Xl.a.f.C.|.+X+X+X+X+X+X+X+X+X+X+X+X+X+X+X+X+X+X+X+X+X+X+X+X+X+X+X+X+X+X+X+X+X",
"+X+X+X+X{.I.8XwXwXwX0XqXqX0XwXwXrXtXyXrXrX0X0X0XwXoXl.a.f.C.|.+X+X+X+X+X+X+X+X+X+X+X+X+X+X+X+X+X+X+X+X+X+X+X+X+X+X+X+X+X+X+X+X+X",
"+X+X+X+X`.I.uXwXwXwX0X0X0X0XqXwXwXwX0X4X0XwX0XqXwXXXl.a.f.A.{.+X+X+X+X+X+X+X+X+XOX!.j !.+X+X+X+X+X+X+X+X+X+X+X+X+X+X+X+X+X+X+X+X",
"+X+X+X#X'.I.8XwX0X0X0X0X0X0XqXqXqXqX0XwX0X0X0XwXwX1Xl.f.f.A.+X+X+X+X+X+X+X+X+X+XG.i 7 E.+XOXOXOXOXOXOXOXOX+XOX+X+X+X+X+X+X+X+X+X",
"+X+X+X+X{.B.8XwXtXtXtXtXtXwXtXwXrXtXtXwXwXwXwXwXwX<Xl.g.g.A.|.+X+X+X+X+X+X+X~.z D A > p d i i i i i i i i f d i i f j '.+X+X+X+X",
"+X+X+X+XOXD.dXuXpXiXpXpXpXiXiXiXiXtXtXwXqX0XwXtXiX6Xl.g.g.F.+X+X+X+X@X+X+X!.a D F F u u u A A A u 0 u 0 u u 0 u A 5 y '.+X+X+X+X",
"+X+X+X+XOXM.dXpXiXiXyXtXtXwXwXwXqXwXwXwXwXtXiXpXiX7Xl.j.k.F.|.+X+X+X@X+XT.a F F F F F F F F F F F F F F F F F F S > c +X+X+X+X+X",
"+X+X+X@X+XN.sXtXwXwXwXwXqXqXwXwXqX4XwXtXpXpXpXpXpX7XV.j.h.F.+X+X+X+X XG.D F F F F F F F F F F F F F F F F F F D u 3 ~.+X+X+X+X+X",
"+X+X+X+X+XB.sXrXqXqX9X9X9X9X0X0XtXtXiXiXpXpXpXpXpX4XC.j.d.F.+X+X+X XP D F F F F F F F F F F F F F F F F F F F F > j @X+X+X@X+X+X",
"+X+X+X+X+XN.5XrXqX9X&Xq.q.%XrXyXpXuXuXuXeXeX-X-X-X=Xx.g.f.F.+X+X@X~.a D F F F F F F F F F F F F F G F F F F F F 8 k  X@X+X+X+X+X",
"+X+X+X+XOXW.,XuXqX&X%X8.q.%XeX-X*X;Xt.r.8.9.9.9.` =.h s.i.M. X@X+X@X!.k D F F F F F F F F F F F F F F F F F F F 0 q E.@X+X+X+X+X",
"+X+X+X+X+X).oXyX9Xq.%X0.%X8.0.9._ %.<.X._ X. .( _ ` g s.a.D.@X+X+X+X+X'.z D F F F F F F F F F F F F F F F F F F F 8 d '.+X+X+X+X",
"+X+X+X+X#X`. XaXeX%X0.8.` _ ( ( X.<.<.X.( ( ( ) =.=.h a.e K. X+X+X+X+X+X XP a F F F F F F F F F F F D F F D F F F A 7 T.+X+X+X+X",
"+X+X+X+X X`.[.:Xq.9._ _ / R / ( _ w.w.#. ./ ~ U U *.g t y h  X@X+X+X+X+X+XOXT.a F D 5 p k k z K K K z K K K K K z K j Q.+X@X+X+X",
"+X+X+X+X@X!.`.r._ _ _ _ ~ Y R / ~ ..<.1.o.~ R s h U r r s l  X+X+X@X+X+X+X+X+X!.k u 3 Q.OX+X+X+X+X+X+X+XOX+X+X+X@XOX+X+X+X+X+X+X",
"+X+X+X+X#X XL.r._ _ _ _ W I Y W W ^ $.1.w. .R U h f r r s l |.+X+X+X+X+X+X+X+X+X'.c d |.+X+X+X+X+X+X+X+X+X+X+X+X@X@X@X+X+X+X+X+X",
"+X+X+X+X+X{.B.r.( ( ( ( R Y Y W ~ ..<.1.1.#.W Q U I g t g T.+X+X+X+X+X+X+X+X+X+X+X+X+X+X@X+X+X+X+X+X+X+X+X+X+X+X@X@X+X+X+X+X+X+X",
"+X@X+X+X+X|.S.r.( ( / ~ W W W ~ ..$.1.1.1.o.W ! Y w r h.j.}.+X+X+X+X+X+X+X+X+X+X+X+X+X+X+X+X+X+X+X+X+X+X+X+X+X+X+X+X+X+X+X+X+X+X",
"+X+X+X+X+XOXS.$X( / W W W W ~ ..%.1.1.1.<...W ! R w y d.h.].+X+X+X+X+X+X+X+X+X+X+X+X+X+X+X+X+X+X+X+X+X+X+X+X+X+X+X+X+X@X+X+X+X+X",
"+X+X+X+X+XOXn.;./ W W W W W  .%.1.1.1.1.#./ W W R Q s s.h.[.+X+X+X@X+X+X+X+X+X+X+X+XOX+X+X+X+X@X+X+X+X+X+X+X+X+X+X+X+X+X+X+X+X+X",
"+X+X+X+X+X+XN./.~ W W W ! ^ <.1.1.1.1.1.o.~ W W E Q s u.h.[.+X+X+X+X+X+X+X+X+X+XOXG.d  X+X+X@X@X+X@X+X+X@X+X+X@X+X@X+X@X+X+X+X+X",
"+X+X+X+X+X+XN./.~ W W W ~ X.<.1.1.1.1.1.o.W W W ! ! s u.h.[.+X+X+X+X+X+X+X+X+X!.G n 7 !.'.'.~.~.'.~.~.'.~.~.'.~.'.'.OXOX+X+X+X+X",
"+X+X+X+X#X XL./.! ~ W ~ W o.1.1.1.1.1.1.#.E W W E ! m.g.h.].+X+X+X+X+X+X+X+XR.Z N v , 0 q 9 0 5 9 9 9 9 q 0 q q 0 q j OX+X+X+X+X",
"+X+X+X+X@X@XL.!.! W W W ~ ..1.1.1.1.1.<.$.o.~ W ! T m.h.l.].+X+X+X+X+X+XOXL C V B B N M M N N M M m m m m M M M M : x +X+X+X+X+X",
"+X+X+X+X+X+XL.!.) W W W W ^ #.&.1.1.@.1.@.+.| ^ T T z.y.l.].+X+X+X|.@X~.J N V V V V V V V V V V V V V V V V V V m 3 !.+X+X+X+X+X",
"+X+X+X+X+X+XW.].` W W W E ^ #.@.@.@.@.@.@.@.@.+.| ^ m.a.h.].+X+X+X@X!.S N V V V V V V V V V V V V V V V V V V V : j @X+X+X+X+X+X",
"+X+X+X+X+X+X`.).` W W R E | @.@.@.@.@.@.@.@.@.@.+.+.G.y.h.{.+X+X+X~.H B V V V V V V V V V V V V V V V V V V V M > T.@X+X+X+X+X+X",
"+X+X+X+X+X+X[.L.-.R E E | O.@.@.@.@.@.@.@.@.+.1.+.1.H.y.l.{.+X+X@XQ.H B V V V V V V V V V V V V V V V V V V V N , P @XOX+X+X+X+X",
"+X+X+X+X+X+X Xm.=.Q Q ^ | ,.7.,.4.3.3.$X$X$X$X(.(.~.m.y.C.{.+X+X+X|.~.H N V V V V V V V V V V V V V V V V V V V b q !.+X+X+X+X+X",
"+X+X+X@X+X+X Xz.n.W.G.`.W.G.G.D.D.D.N.G.N.N.N.W.G.G.c.e F.+X+X+X+X+X+X|.L C V V V V V V V V V V V V V V V V V V B b j OX+X+X@X+X",
"+X+X+X+X+X+X+XW.{.{.|.{.|.|.[.{.|.|.@X@X@X|.OX+X,X+XM.y.D.+X+X+X+X+X+X+XOXL C V V B B B B N N B N M N N M N N N N v 8 Q.+X+X+X+X",
"+X+X+X+X+X+X+X+X+X@X(.$X$X$X6.6.7.7.2.2.7.7.4.7.$X6.N.h.{.+X+X+X+X+X+X+X+X+XE.Z B m 4 L L H.H.H.R.R.R.R.R.R.R.R.R.R.T.OX+X+X+X+X",
"+X+X+X+X+X+X+X#X$X;X,.@.{ { ] ] ] ] ] ] ] ] ] ] ] { L F.7.t.$X+X+X+X+X+X+X+X+X|.G n 7 |.+X+X+X+X+X+X+X+X+X+X+X+X@X+X+X+X+X+X+X+X",
"+X+X+X+X+X+X@X$Xe.w.O.[ ] ] ] ] ] ] ] ] ] ] ] ] ] [ G.G.w.w.t.$X+X+X+X+X+X+X+X|. XH.T.+X+X+X+X+X+X+X+X+X+X+X+X+X+X+X+X+X+X+X+X+X",
"+X+X+X+X+X+X@X5.1.w.w.<.&.&.&.&.$.&.&.$.&.&.&.&.w.$.R.^.w.,.4.(.+X+X+X+X+X+X+X+X+X+X+X+X+X+X+X+X+X+X+X+X+X@X+X+X+X+X+X+X+X+X+X+X",
"+X+X+X+X@X+X+X@X(.(.$X5.5.3.3.4.3.3.4.6.4.3.3.3.5.5.n.^./.(.@X+X+X+X+X+X+X+X+X+X+X+X+X+X+X+X+X+X+X+X+X+X+X+X+X+X+X+X+X+X+X+X+X+X",
"+X+X+X+X+X+X+X+X+X+X+X+X#X+X+X+X+X+X+X+X+X+X@X+X+X+XD.[.#X+X+X+X+X+X+X+X+X+X+X+X+X+X+X+X+X+X+X+X+X+X+X+X+X+X+X+X+X+X+X+X+X+X+X+X",
"+X+X+X+X+X+X+X+X+X+X+X+X+X+X+X+X#X#X+X+X+X+X+X+X+X+X|.OX+X+X+X+X+X+X+X+X+X+X+X+X+X+X+X+X+X+X+X+X+X+X+X+X+X+X+X#X+X+X+X@X+X+X+X+X",
"+X+X+X+X+X+X+X+X+X+X+X+X+X+X+X XF.}.+X+X+X+X+X+X+X+X+X+X+X+X+X+X+X+X+X+X+X+X+X+X+X+X+X+X+X+X+X+X+X+X+X+X+X+X+X+X+X+X+X+X+X+X+X+X",
"+X+X+X+X+X+X+X+X+X+X+X+X+X+X@X+XA.A.}.+X+X+X+X+X+X+X+X+X+X+X+X+X+X+X+X+X+X+X+X+X+X+X+X+X+X+X+X+X+X+X+X+X+X+X+X+X+X+X+X+X+X+X+X+X"
};
