/* XPM */
static char *Close2A1721789018[] = {
/* columns rows colors chars-per-pixel */
"64 64 226 2 ",
"   c #0A0000",
".  c #150000",
"X  c #1E0000",
"o  c #200000",
"O  c #2B0000",
"+  c #340101",
"@  c #3D0101",
"#  c #420202",
"$  c #4D0303",
"%  c #530303",
"&  c #5C0404",
"*  c #640303",
"=  c #740404",
"-  c #7E0606",
";  c #6D1A13",
":  c #53281E",
">  c #732D14",
",  c #573529",
"<  c #672A2A",
"1  c #5F4432",
"2  c #6A462B",
"3  c #734B33",
"4  c #6E5435",
"5  c #0D1E49",
"6  c #0F1F4C",
"7  c #10214F",
"8  c #122454",
"9  c #15285B",
"0  c #14295E",
"q  c #142B63",
"w  c #192E67",
"e  c #1B316C",
"r  c #132F71",
"t  c #1C377A",
"y  c #203467",
"u  c #213773",
"i  c #243C7B",
"p  c #543E40",
"a  c #324954",
"s  c #3B5551",
"d  c #334D6D",
"f  c #605752",
"g  c #725452",
"h  c #4A6A58",
"j  c #70685B",
"k  c #4D5A78",
"l  c #49686F",
"z  c #6F6B67",
"x  c #7D7978",
"c  c #830505",
"v  c #8B0707",
"b  c #920605",
"n  c #990707",
"m  c #930B0B",
"M  c #9C0909",
"N  c #981A17",
"B  c #A60B0B",
"V  c #B80D0D",
"C  c #AD1615",
"Z  c #B51414",
"A  c #872816",
"S  c #952919",
"D  c #99301A",
"F  c #A52B1C",
"G  c #892424",
"H  c #B63238",
"J  c #D00F0F",
"K  c #C71516",
"L  c #CC1A1D",
"P  c #D6191B",
"I  c #F01B1B",
"U  c #D51D23",
"Y  c #DA1D24",
"T  c #E31C23",
"R  c #EC1C24",
"E  c #CB2A31",
"W  c #B43D42",
"Q  c #9D565A",
"!  c #B2454A",
"~  c #A64B50",
"^  c #917173",
"/  c #7B827B",
"(  c #8E9715",
")  c #A39E18",
"_  c #9EA61D",
"`  c #A5A61B",
"'  c #A6AD1E",
"]  c #BAA11E",
"[  c #A7AC23",
"{  c #A8AD2B",
"}  c #B8AD24",
"|  c #B9B92D",
" . c #B7B734",
".. c #BCBB31",
"X. c #FB9704",
"o. c #F79B0A",
"O. c #F49A14",
"+. c #F9A918",
"@. c #D3B233",
"#. c #ECB02E",
"$. c #F7AB35",
"%. c #F6B43A",
"&. c #93934E",
"*. c #9CA340",
"=. c #AFB44D",
"-. c #938F6F",
";. c #86837A",
":. c #B39372",
">. c #D7A650",
",. c #F4BC42",
"<. c #FDBB43",
"1. c #ECB051",
"2. c #C59D6D",
"3. c #D6B46D",
"4. c #E5B361",
"5. c #B4C353",
"6. c #ADC971",
"7. c #F7C747",
"8. c #EFC455",
"9. c #F7CB54",
"0. c #D1C278",
"q. c #1D3C85",
"w. c #243F83",
"e. c #1E4191",
"r. c #294487",
"t. c #23428B",
"y. c #335087",
"u. c #234493",
"i. c #24499D",
"p. c #284998",
"a. c #314F9B",
"s. c #34539B",
"d. c #254BA2",
"f. c #264EA9",
"g. c #2751AE",
"h. c #2B51A8",
"j. c #3354A4",
"k. c #3A5AA5",
"l. c #3556A9",
"z. c #3759AC",
"x. c #385AAD",
"c. c #2955B7",
"v. c #2B58BE",
"b. c #3A5DB3",
"n. c #3A5EB6",
"m. c #3B60B7",
"M. c #3D62BC",
"N. c #5A799F",
"B. c #747B91",
"V. c #4266BF",
"C. c #4669BF",
"Z. c #4B6CBE",
"A. c #5873BB",
"S. c #6877A9",
"D. c #7979A4",
"F. c #657BB9",
"G. c #3F65C1",
"H. c #4166C0",
"J. c #4568C0",
"K. c #4E73C1",
"L. c #927D8A",
"P. c #6A829F",
"I. c #7D849D",
"U. c #5D88AD",
"Y. c #6689AA",
"T. c #7988A5",
"R. c #6D83B6",
"E. c #7988B7",
"W. c #7096B3",
"Q. c #79ACB8",
"!. c #5886C3",
"~. c #6799C7",
"^. c #7795CB",
"/. c #77AACB",
"(. c #8B888A",
"). c #968487",
"_. c #92868A",
"`. c #898B9A",
"'. c #978F93",
"]. c #999498",
"[. c #9C9A9E",
"{. c #A59594",
"}. c #BDA484",
"|. c #BDA88A",
" X c #B6A999",
".X c #B5AC9D",
"XX c #868AA3",
"oX c #8B93A8",
"OX c #9D9DA4",
"+X c #989BAA",
"@X c #838EB2",
"#X c #8A93B2",
"$X c #959AB0",
"%X c #A09EA3",
"&X c #9DA1AD",
"*X c #89A7B9",
"=X c #A2A1A6",
"-X c #ABA7A6",
";X c #A7A6AB",
":X c #ACA9A8",
">X c #C5B18B",
",X c #B1D396",
"<X c #ABCFA8",
"1X c #A9DAA7",
"2X c #AAD7B8",
"3X c #8098CE",
"4X c #83B9C2",
"5X c #8AC9C8",
"6X c #8ED1CF",
"7X c #9ADCC7",
"8X c #96DCD4",
"9X c #99DDD5",
"0X c #A1DEC7",
"qX c #A1DFD1",
"wX c #9DE0C9",
"eX c #96E2D7",
"rX c #9AE1D7",
"tX c #9AE1D8",
"yX c #A5E6DD",
"uX c #A9E6DB",
"iX c #B0E7D5",
"pX c #ACEAE1",
"aX c #B3EAE3",
"sX c #CCEEEA",
"dX c #E4F1EF",
"fX c #E5F5F1",
/* pixels */
";X;X;X;X;X;X;X;X;X;X;X;X;X;X;X;X#X@X;X;X;X;X;X;X;X;X;X;X;X;X;X;X;X;X;X;X;X;X;X;X;X;X;X;X;X;X;X;X;X;X;X;X;X;X;X;X;X;X;X;X;X;X:X;X",
";X;X;X;X;X;X;X;X;X;X;X:X;X;X;X;X@XV.F.&X;X;X;X;X;X;X;X;X;X;X;X;X;X;X;X;X;X;X;X;X;X;X;X;X;X;X;X;X;X;X;X;X;X;X;X;X;X;X;X;X;X;X;X;X",
";X;X;X;X;X;X;X;X;X;X;X;X;X;X;X;X#XV.H.A.$X;X;X;X;X;X;X;X;X;X;X;X;X;X;X;X;X;X;X;X;X;X;X;X;X;X;X;X;X;X;X;X;X;X;X;X;X;X;X;X;X;X;X;X",
";X;X;X;X;X;X;X;X;X;X;X;X;X;X;X;X#XH.H.G.Z.#X;X;X;X;X;X;X;X;X;X;X;X;X;X;X;X;X;X;X;X;X;X;X;X;X;X;X;X;X;X;X;X;X;X;X;X;X;X;X;X;X;X;X",
";X;X;X;X;X;X;X;X;X;X;X;X;X;X;X;XoXV.G.G.G.C.E.&X;X;X;X;X;X;X;X;X;X;X;X;X;X;X;X;X;X;X;X;X;X;X;X;X;X;X;X;X;X;X;X;X;X;X;X;X;X;X;X;X",
";X;X;X;X;X;X;X;X;X;X:X;X;X;X;X;X#XV.G.G.G.G.G.F.$X;X;X;X;X;X;X;X;X;X;X;X;X;X;X;X;X;X;X;X;X;X;X;X;X;X;X;X;X;X;X;X;X;X;X;X;X;X;X;X",
";X;X;X;X;X;X;X;X;X;X;X;X;X;X;X;X$XV.M.l.m.G.G.G.A.#X;X;X;X;X;X;X:X;X;X;X;X;X;X;X;X;X;X;X;X;X;X;X;X;X;X;X;X;X;X:X;X;X;X;X;X;X;X;X",
";X;X;X;X;X;X;X;X;X;X;X;X;X;X;X;X$XC.M.9 e m.G.H.G.J.R.&X;X;X;X;X;X;X;X;X;X;X;X;X;X;X;X;X;X;X;X;X;X;X;X;X;X;X;X;X;X;X;X;X;X;X;X;X",
";X;X=X+XXX+X+X+X=X=X;X;X;X;X;X;X$XJ.G.e 7 t m.M.G.H.V.A.$X;X;X;X;X;X;X;X;X;X;X;X;X;X;X;X;X;X;X;X;X;X;X;X;X;X;X-X:X;X;X;X;X;X;X;X",
";X;X;XD.N.~.W.Y.Y.S.Y.Y.D.XXoX&X#XJ.G.r.r 5 w x.G.G.G.G.J.@X;X-X;X;X;X;X&X< G G G G G G G G G G G G G G G G G G G G G ; z ;X;X;X",
";X;X;XT.Q.8XeXeX8X6X5X5X*XQ.Q.W.U.G.H.w.i.t 5 a.G.G.G.G.J.J.F.&X;X;X;X;X;Xc m v b v n b c c c = v c = v c b b b m v v B p ;X;X;X",
";X;X;XI./.9XtXtX9XeX9XeXeXeXeXeX6XK.G.w.d.i.5 s.n.w.G.G.G.G.V.A.;X;X;X;X&X- & c L K K K = * V # B = O C = V K P K Z & n p ;X;X;X",
";X;X;XoXW.eXeXeXyXrXtXeXeXrXrXrX6XK.G.r.d.i.6 j.l.6 i M.V.G.G.J.&X;X;X;X;Xc * N B % $ # + O J V K # O K & + & L % + # M p ;X;X;X",
";X;X-XoXY.9XeXeX0X<X<X2XrXrXrXrXeXK.G.u.d.i.7 z.l.0 6 u b.V.G.K.&X;X;X;X;Xc & m P V Z Z * . = I c . O K $   @ L +   + M p ;X;X;X",
";X;X;X+XY.9X9X0X3.#.O.@.1XeXrXrXtXK.J.w.d.d.8 z.M.q.w.8 q x.J.K.&X;X;X;X;X- & m Z & & & @ . c I B . O L $   @ L +   + M p ;X;X;X",
";X-X=X+XY.9X9X2X@.o.X.o.0.yXeXrXyXK.H.w.f.d.8 b.n.q.v.q.7 z.G.K.;X;X;X;X;X- & N M .       # K n P $ o K $   @ L +   O B p ;X;X;X",
";X;X;X&XU.7XeX2X#.O.o.O.6.qXrXrX8X!.G.d.g.d.9 x.l.u.v.i.8 b.H.K.;X;X;X;X;X- * m M X . . o n V O M V @ L $   @ L +   + M p ;X;X;X",
";X;X-X%XN.6XrXrX>X@.#.3.2X9XtXrX8X!.G.a.f.d.9 b.l.u.v.i.q n.H.F.;X;X;X;X;X- & v P C Z Z v K %   + J = K $   + K +   + M p ;X;X;X",
";X;X;X&XN.6XeXrX0X2X2X0X9X9XrXrX8X!.V.j.g.d.8 x.l.i.v.u.q n.H.K.&X;X;X;X;Xc - * m m n m c c $ @ # = = c & @ $ c % @ % M p ;X;X;X",
";X;X;X&XP.5XrXrXrXrX9XrX9XyXrXrX8X!.G.a.d.d.8 x.l.d.v.q.w V.H.A.;X;X;X;X;X% B n n n n n n n M M n b M n n n n n M n M c p ;X;X;X",
";X;X;X;XP.5XrXrXrXrXrXeXrXrXeXeX9X!.M.d.i.d.8 z.l.i.v.q.t G.G.F.;X;X;X;X;X(._._._._._._.(._.(._._._._._._._._._._._._._.(.;X;X;X",
";X;X;X;XT.6XrXrXrXtXrXrXrXiXaXsXsX^.H.j.i.d.q x.z.d.v.r u G.G.F.;X;X;X;X;X;X;X;X;X;X;X;X;X;X;X;X;X;X;X;X;X;X;X;X;X;X;X;X;X;X;X;X",
";X;X;X;XP.5XrXrXrXrXrXrXaXsXfXfXdX^.G.j.i.d.0 z.z.f.v.r i M.V.F.;X;X;X;X;X;X;X;X;X;X;X;X;X;X;X;X;X;X;X;X;X;X;X;X;X;X;X;X;X;X;X;X",
";X;X;X:XI.5XrXrXrXrXrXrXaXfXfXfXdX^.G.j.e.f.0 z.z.d.c.q w.H.V.F.&X;X;X;X;X;X;X;X;X;X;X;X;X;X;X;X;X;X;X;X;X;X;X;X;X;X;X;X;X;X;X;X",
";X;X;X;XI.5XeXeXrXrXrXeXrXuXaXsXsX^.H.j.i.g.0 l.l.d.c.0 r.V.H.F.;X;X;X;X;X;X;X;X;X;X;X;X;X;X;X;X;X;X;X;X;X;X;X;X;X;X;X;X;X;X;X;X",
";X;X;X;XI.5XeXeXrXrXrXrXtXrXtXtXqX~.G.l.d.g.q b.l.d.c.8 p.G.G.F.;X;X;X;X;X;X;X;X;X:X;X;X;X;X;X;X;X;X;X;X;X;X;X;X;X;X;X;X;X;X;X;X",
";X;X;X;XI./.rXeXrXrXrXrXrXeXtXtX8X~.G.j.u.g.q b.h.i.g.7 s.G.V.F.;X;X;X;X;X;X;X;X;X`.].;X;X:X;X;X;X;X;X;X;X;X;X;X;X;X;X;X;X;X;X;X",
";X;X;X;X`.4XrXeXrXrXrXrXrXeXtXeX9X~.G.h.u.i.i n.j.q.i.8 l.H.M.E.;X;X;X;X;X;X;XOX^ , ^ -X;X;X;X;X;X;X;X;X;X;X;X;X;X;X;X;X;X;X;X;X",
";X;X;X;XXXQ.yXyXyXyXuXuXyXyXyXyXpX~.G.l.q.t.x.G.b.t.w.7 l.H.H.E.;X;X;X;X;X;X'.~ Y > z (./ ^ x x ^ ;.x ;.L./ ^ / ;.(.=X;X;X;X;X;X",
";X;X;X;XoX*XaXaXaXaXpXaXpXpXyXyXtX~.G.l.t j.G.M.G.z.u.q b.H.H.E.;X;X;X;X=XL.H T R C S F S F F S D A D S S D A D S 1 ].;X;X;X;X;X",
";X;X;X;XoX*XpXuXyXyXtXtXtXtXrXrXtX/.H.l.t.M.H.a.j.H.z.i b.G.G.@X;X;X;X=X^ E R R R R R R R R R R R R T R R R R R N j ;X;X;X;X;X;X",
";X;X;X;X+XW.eXeXtXrXtXrXeXeXrXtXtX/.H.n.b.M.M.9 9 n.G.l.n.G.H.@X;X;X{.Q T R R R R R R R R R R R R R R R R R R L : (.;X;X;X;X;X;X",
";X;X;X;X+XW.eXrXeXwXwXwXwXeXrXyXpX/.G.G.H.G.p.8 6 w.G.G.G.G.J.3X;X].Q T R R R R R R R R R R R R R R R R R R R S f &X;X;X;X;X;X:X",
";X;X;X;X&XT.8XeXwX6.6.6.,XpXaXiXiX*XG.H.G.z.q d.q.8 l.G.G.G.J.L.;XQ T R R R R R R R R R R R R R R R R R R R R D j =X;X;X;X;X;X;X",
";X;X;X;XOXW.wXwX1X6.5.6.,X1X,X0.0.{.z.n.n.i q.v.v.r e n.G.G.J.#X;X'.! T R R R R R R R R R R R R R R R R R R R Z 2 '.;X;X;X;X;X;X",
";X;X;X-X=XW.eX2X6.,X6.5.5.5.....%.:.d d w.e v.v.v.f.0 w.G.G.J.$X;X;XOXQ Y R R R R R R R R R R R R R R R R R R T A j &X:X;X;X;X;X",
";X;X;X;X-XW.9X2X6.5.| | | | | @.%.2.l l d q.v.v.v.v.q.0 z.G.J.$X;X;X;X=X^ E R R R R R R R I R R R R R R R R R R L 2 (.;X;X;X;X;X",
";X;X;X;X-XW.<X5.| | ..{ ( | | | #.2.l y.y.y d.v.v.c.q.a.G.H.J.$X;X;X;X;X;X).H R R L H H ! ! ! ! ! ! ! ! ! ! ~ ! ! 3 / ;X;X;X;X;X",
";X;X;X;X;XP.=.........' ( ( [ [ | 2.d l a h a c.c.i.a.G.H.H.Z.&X;X;X;X;X;X;X].! T ; ^ [.%X=X=X=X&X=X=X=X=X=X=X=X=X=X-X;X;X;X;X;X",
";X;X;X;X;XP.*....... ._ ( ( ' ' } 2.a s a f l w.d.q.n.G.G.J.Z.&X;X;X;X;X;X;X;X=X^ , `.;X;X;X;X;X;X;X;X;X;X;X;X;X;X;X;X;X;X;X;X;X",
";X;X;X;X;X`.-.| ..| ' ' _ _ [ } #.2.d s s h h d q.j.G.M.G.G.Z.&X;X;X;X;X;X;X;X;X;XOX;X;X;X;X;X;X;X;X;X;X;X;X;X;X;X;X;X;X;X;X;X;X",
";X:X;X;X;XXX-...| [ ' ' ' ' } @.<.3.k l d h s k.j.H.G.j.z.G.A.&X;X;X;X;X;X;X;X;X;X;X;X;X;X;X;X;X;X;X;X;X;X;X;X;X;X;X;X;X;X;X;X;X",
";X;X;X;X;X`.-.| } ' ' [ ' } #.<.<.2.k l k.y.s.H.H.G.n.0 j.G.A.&X;X;X;X;X;X;X;X;X;X;X;X;X;X;X;X;X;X;X;X;X;X;X;X;X;X;X;X;X;X;X;X;X",
";X;X;X;X;X[.;.' ' ' [ ' } @.7.<.<.4.k l x.a.H.H.H.H.w.6 j.G.A.+X;X;X;X;X;X;X;X;X;X=X=X;X;X;X;X;X;X;X;X;X;X;X;X;X;X;X;X;X;X;X;X;X",
";X;X;X;X;X[./ ' ' ' ' ' @.<.<.<.<.1.k l s.y a.M.H.M.q 6 b.G.A.&X;X;X;X;X;X;X;X;X].j ^ ;X;X;X;X;X:X;X;X;X:X;X;X;X;X;X;X;X;X;X;X;X",
";X;X;X;X;X&XP.' ' ' ' ' @.<.<.<.<.1.k s s.e 6 s.H.w.6 0 b.G.F.&X;X;X;X;X;X;X;X^ W ; z OX&X&X[.[.[.[.].OX[.%X[.OX[.=X;X;X:X;X;X;X",
";X;X;X;X;XOXx _ ' ' ' [ 1.<.<.<.<.1.y.k b.t.0 8 l.w q.0 z.G.F.;X;X;X;X;X;X[.^ E T A < 4 2 3 3 3 2 2 3 4 4 4 3 3 4 f (.;X;X;X;X;X",
";X;X;X;X;X&XB.[ ' ' ' ' @.7.<.<.<.1.S.V.M.t.i.8 w.w.i.8 l.G.F.;X;X;X;X;X[.~ T R R Y Y U L Y Y P L U L L L L U Y Z , [.;X;X;X;X;X",
";X;X;X;X;X&X(.{ _ ' ' ' } %.%.%.$.1.S.G.G.u.g.q w.i.d.8 l.G.F.;X;X;X;X).H R R R R R R R R R R R R R R R R R R T ; z ;X;X;X;X;X;X",
";X;X;X;X;X=XI.{ ' ' ` ) @.$.$.$.$.$.S.G.G.q.g.q w.w.i.0 x.G.F.;X;X-XL.H R R R R R R R R R R R R R R R R R R R L : ].;X;X;X;X;X;X",
";X;X;X;X;X;XI.*._ ` ` ] #.$.$.$.$.$.D.V.G.p.g.q w.i.i.0 b.G.F.;X=X^ E T R R R R R R R R R R R R R R R R R R T N f =X;X;X;X;X;X;X",
";X;X;X;X;X=X`.*._ ) ] #.$.$.$.$.1.>.L.G.G.q.g.w w.w.q.w M.H.E.;X;X^ E R R R R R R R R R R R R R R R R R R R R C 4 `.;X;X;X;X;X;X",
"-X;X;X;X;X;X`.x &.&.:.2.:.).).{.-X XA.V.J.q.f.q 9 w.w.l.M.H.F.;X;X;X).H T R R R R R R R R R R R R R R R R R R Y 2 z ;X;X;X;X;X;X",
";X;X;X;X;X;X`.N.S.I.I.XXXXL.XX`.@XL.Z.n.G.w.q.t y b.M.G.G.H.E.;X;X;X;X'.~ T R R R R R R R R R R R R R R R R R R Z 2 '.;X;X;X;X;X",
";X;X;X;X;X;X;X;X=X=X;X;X;X;X;X;X;X&XA.G.G.w.q.w.n.H.H.G.G.G.3X;X;X;X;X;X].Q Y R R T R Y P Y Y Y U U U U U U Y Y Y A j ;X;X;X;X;X",
";X;X;X;X;X;X;X;X;X;X;X;X;X;X;X;X;XOXA.G.G.a.v.G.J.J.H.H.J.L.&X;X;X;X;X;X;X%X^ E R N g ^ L.).).).)._.).)._._.'.).)._.].;X;X;X;X;X",
";X;X;X;X;X;X;X;X;X;X;X;X;X:X;X;X;X;X!.H.H.G.G.G.H.H.J.F.$X;X;X;X;X;X;X;X;X;X=X).! ; x ;X;X;X;X;X;X;X;X;X;X;X;X;X:X:X;X;X;X;X;X;X",
";X;X;X;X;X;X;X;X;X-X:X:X.X.X>X.X.X>X@XH.G.G.G.G.H.K.E.;X;X;X;X;X;X;X;X;X;X;X;X;X].;.[.;X;X;X;X;X;X;X;X;X;X;X;X;X;X;X;X;X;X;X:X;X",
";X;X;X:X;X;X;X.X>X3.8.1.%.%.%.%.$.$.L.G.G.G.G.G.F.}.0.0..X:X;X;X;X;X;X;X;X;X;X;X;X;X;X;X;X;X;X;X;X;X;X;X;X;X;X;X;X;X;X;X;X;X;X;X",
";X;X;X;X:X:X0.9.%.+.+.X.X.X.X.X.O.O.L.G.G.G.H.L.>.O.+.7.9.0.:X;X;X;X;X;X;X;X;X;X;X;X;X;X;X;X;X;X;X;X;X;X;X;X;X;X;X;X;X;X;X;X;X;X",
";X;X;X;X;X3.9.7.7.+.+.+.+.+.+.+.+.$.L.H.H.Z.'.1.+.$.%.7.7.9..X;X;X;X;X;X;X;X;X;X;X;X;X;X;X;X;X;X;X;X;X;X;X;X;X;X;X;X;X;X;X;X;X;X",
";X;X;X;X;X|.3.1.8.8.7.7.7.7.7.7.7.7.XXG.A.}.,.7.1.<.7.8.>.>X:X;X;X;X;X;X;X;X;X;X;X;X;X;X;X;X;X;X;X;X;X;X;X;X;X;X;X;X;X;X;X;X;X;X",
";X;X;X;X;X;X-X-X X X|.|.|.|.>X2. X>XL.F.%X>X>X|. X X X%X:X;X;X;X;X;X;X;X;X;X;X;X;X;X;X;X;X;X;X;X;X;X;X;X;X;X;X:X;X;X;X;X;X;X;X;X",
";X;X;X;X;X;X=X;X;X=X;X;X;X;X;X;X;X;X$X=X;X;X;X=X-X;X;X=X;X;X;X;X;X;X;X;X;X;X;X;X;X;X;X;X;X;X;X;X;X;X;X;X;X;X;X;X;X;X;X;X;X;X;X;X"
};
