/* XPM */
static char *Close4F1721789024[] = {
/* columns rows colors chars-per-pixel */
"64 64 230 2 ",
"   c #010000",
".  c #0A0202",
"X  c #140606",
"o  c #1A0707",
"O  c #1B0909",
"+  c #240B0B",
"@  c #2C0D0D",
"#  c #340F0F",
"$  c #281111",
"%  c #361414",
"&  c #3B1111",
"*  c #2E2323",
"=  c #3B2728",
"-  c #481A19",
";  c #551F1F",
":  c #772318",
">  c #4C2D27",
",  c #552525",
"<  c #5B2525",
"1  c #5B2A2A",
"2  c #573B28",
"3  c #652C2C",
"4  c #6F3735",
"5  c #757C08",
"6  c #584530",
"7  c #63452C",
"8  c #674635",
"9  c #6F4A31",
"0  c #1E2C5F",
"q  c #1B3168",
"w  c #1D3778",
"e  c #2C3D6C",
"r  c #223B7B",
"t  c #593E6E",
"y  c #354E59",
"u  c #34506E",
"i  c #515E53",
"p  c #74544E",
"a  c #7D5756",
"s  c #71634E",
"d  c #776656",
"f  c #5E5D60",
"g  c #405D72",
"h  c #734E70",
"j  c #506C6E",
"k  c #796A69",
"l  c #726D73",
"z  c #757275",
"x  c #7A7A79",
"c  c #B01E1B",
"v  c #B8211C",
"b  c #982D22",
"n  c #C71D1E",
"m  c #D01B1F",
"M  c #C3231E",
"N  c #DF1F26",
"B  c #E21D24",
"V  c #EC1C24",
"C  c #D42425",
"Z  c #CC2C31",
"A  c #BE593C",
"S  c #C45432",
"D  c #8D4C51",
"F  c #815455",
"G  c #8D5151",
"H  c #8D5758",
"J  c #935353",
"K  c #AC4C50",
"L  c #8C5571",
"P  c #A75460",
"I  c #927275",
"U  c #A86468",
"Y  c #B06169",
"T  c #CC6E50",
"R  c #7B8509",
"E  c #6A8575",
"W  c #838B11",
"Q  c #899011",
"!  c #8C9414",
"~  c #A79F19",
"^  c #9CA41B",
"/  c #A5AC1E",
"(  c #A8A91D",
")  c #A79931",
"_  c #9CA121",
"`  c #A5AB22",
"'  c #A8AB26",
"]  c #B4AD23",
"[  c #AFB12A",
"{  c #B7B42A",
"}  c #BCBB2E",
"|  c #BCBA32",
" . c #B7BA38",
".. c #FA9A06",
"X. c #FA9B09",
"o. c #ED9D1C",
"O. c #F19913",
"+. c #FAA00E",
"@. c #F9A314",
"#. c #E79F22",
"$. c #CBAF2C",
"%. c #D7B734",
"&. c #EFA82C",
"*. c #F3AB33",
"=. c #F9AB34",
"-. c #E7B83B",
";. c #FABD31",
":. c #F9B63C",
">. c #FAC338",
",. c #8E9351",
"<. c #9BA146",
"1. c #B5B641",
"2. c #878F72",
"3. c #AE8878",
"4. c #CDB64F",
"5. c #EBA342",
"6. c #E4BE49",
"7. c #F4BC42",
"8. c #FCBB43",
"9. c #E5B95A",
"0. c #E5BA5B",
"q. c #D59C62",
"w. c #D9B569",
"e. c #CBB271",
"r. c #D9B977",
"t. c #B3C352",
"y. c #B0C970",
"u. c #FAC945",
"i. c #F3CB54",
"p. c #DAC07C",
"a. c #E4C069",
"s. c #1E3B81",
"d. c #223E83",
"f. c #264389",
"g. c #2A4995",
"h. c #355190",
"j. c #2D50A3",
"k. c #3253A4",
"l. c #3759A9",
"z. c #3659AD",
"x. c #375BB1",
"c. c #3A5DB4",
"v. c #3D61B6",
"b. c #3D62BC",
"n. c #5F5390",
"m. c #596E98",
"M. c #6A788C",
"N. c #747D98",
"B. c #565CA5",
"V. c #5A6FA5",
"C. c #4967B6",
"Z. c #4466BE",
"A. c #526EB9",
"S. c #5973B7",
"D. c #6B7BA6",
"F. c #6779B3",
"G. c #3F65C1",
"H. c #4065C0",
"J. c #857A88",
"K. c #9E7097",
"L. c #A37C80",
"P. c #7C8D8F",
"I. c #7D8397",
"U. c #5D85BA",
"Y. c #7887A7",
"T. c #718FAE",
"R. c #749CB5",
"E. c #76A5B9",
"W. c #7EB2BC",
"Q. c #7AAFC2",
"!. c #878687",
"~. c #8E8A8A",
"^. c #958B8E",
"/. c #8A8B95",
"(. c #8E9393",
"). c #96949A",
"_. c #9C999E",
"`. c #A7868D",
"'. c #B7AB97",
"]. c #868CA9",
"[. c #8A93A9",
"{. c #9597A7",
"}. c #9C9CA3",
"|. c #9D9EAB",
" X c #8C95B3",
".X c #A09FA4",
"XX c #9CA3A8",
"oX c #84B1B6",
"OX c #A3A1A6",
"+X c #A9A5A6",
"@X c #ACA9A7",
"#X c #A7A6AB",
"$X c #B6B2AA",
"%X c #C98E8D",
"&X c #C9B58C",
"*X c #D2B0AA",
"=X c #E2BFB7",
"-X c #B2D194",
";X c #9FDDBB",
":X c #AFDBAA",
">X c #B4D6A8",
",X c #ACD6B5",
"<X c #CFD3A8",
"1X c #85BCC2",
"2X c #8AC6CA",
"3X c #9BD6C9",
"4X c #8FD2D2",
"5X c #95DAD4",
"6X c #9ADDD5",
"7X c #A4DCC6",
"8X c #9DE1C9",
"9X c #9AE1D7",
"0X c #97E2D8",
"qX c #9BE1D8",
"wX c #B6E7C9",
"eX c #A3E4DA",
"rX c #A7E4DB",
"tX c #B3E8DC",
"yX c #A9E7E0",
"uX c #ADEAE2",
"iX c #B2EBE4",
"pX c #B9E8E2",
"aX c #CCCAC9",
"sX c #EAD8D2",
"dX c #C5ECE7",
"fX c #CDF1EC",
"gX c #D5F1EE",
"hX c #DBF4F1",
"jX c #E4F5F3",
"kX c #E9F4F2",
/* pixels */
"#X#X#X#X#X#X#X#X#X#X#X#X#X#X#X#X#X#X#X#X#X#X#X#X#X#X#X#X#X#X#X#X#X#X#X{.].#X#X#X#X#X#X#X#X#X#X#X#X#X#X#X#X#X#X#X#X#X#X#X#X#X#X#X",
"#X#X#X#X#X#X#X#X#X#X#X#X#X#X#X#X#X#X#X#X#X#X#X#X#X#X#X#X#X#X#X#X#X#X#XD.].#X#X#X#X#X#X#X#X#X#X#X#X#X@X#X#X#X#X#X#X#X$X#X#X#X#X#X",
"#X#X#X#X#X#X#X#X#X#X#X#X#X#X@X#X#X#X#X#X#X#X#X#X#X#X#X#X#X#X#X#X#X#X[.C.].#X#X#X#X#X#X#X#X#X#X#X#X#X#X#X#X#X#X#X#X#X#X#X#X#X#X#X",
"#X#X#X#X#X#X#X#X#X#X#X#X#X#X#X#X#X#X#X#X@X#X#X#X#X#X#X#X#X#X#X#X#X#XF.Z.[.#X#X#X#X#X#X#X#X#X#X#X#X#X#X#X#X#X#X#X#X#X#X#X#X#X#X#X",
"#X#X#X#X#X#X#X#X#X#X#X#X#X#X#X#X#X#X#X#X#X#X#X#X#X#X#X#X#X#X#X#X+X].Z.Z. X#X#X#X#X#X#X#X#X#X#X#X#X#X#X#X#X#X#X#X#X#X#X#X#X#X#X#X",
"#X#X#X#X#X#X#X#X#X#X#X#X#X#X#X#X#X#X#X#X#X#X#X#X#X#X#X#X#X#X#X#X.XF.H.Z.{.#X#X#X#X#X#X#X#X#X#X#X#X#X#X#X#X#X#X#X#X#X#X#X#X#X#X#X",
"#X#X#X#X#X#X#X#X#X#X#X#X#X#X#X#X#X#X#X#X#X#X#X#X#X#X#X#X#X#X#X#X].Z.Z.Z.{.#X#X#X#X#X#X#X#X#X#X#X#X#X#X#X#X#X#X#X#X#X#X#X#X#X#X#X",
"#X#X#X#X#X#X#X#X#X#X#X#X#X#X#X#X#X#X#X#X#X#X#X#X#X#X#X@X#X#X#X#XS.H.g.Z.{.#X#X#X#X#X#X#X#X#X#X#X#X#X#X#X#X#X#X#X#X#X#X#X#X#X#X#X",
"#X#X#X.XN./.].{.|.|.{.XXXXOX+X#X+X#X#XOX#X#X#X#X#X#X#X#X#X#X#X].Z.l.q C.{.#X#X#X#X#X#X#X.X+X#X#X#X#X#X#X#X#X#X#X#X#X#X#X#X#X#X#X",
"#X#X#X.XV.R.oXE.R.R.Y.Y.Y.[.P.[.[.[.XXXX}.XXXXOX#X#X#X@X#X#X|.S.H.r 0 C.{.* $ @ @ @ @ # @ @ @ @ @ @ @ @ @ @ @ @ $ % @ @ X f #X#X",
"#X#X#X.XT.7XqX6X6X6X3X5X5X5X4X2XoXW.E.E.R.R.T.Y.Y.Y.T.[.].[.Y.b.c.q w C.|.= & O @ @ @ $ + + + o o + O + + + $ @ @ @ + $ & f #X#X",
"#X#X#X.XN.6X0X9XqX6X0X9X6X9X9X0X9X0X9X0X0X5X6X4X1X1X4X2XQ.m.Z.G.z.f.d.C.|.= @ O 3 1 < 1 - . - + + - . + - + 1 3 4 < - X # f #X#X",
"#X#X#X#XY.7X6X0X0X9X6X6X0X9X9X9X9X9X9X9X9X9X0X0X0X0X0X0X6XE.b.l.g.g.r A..X- @ O 1 X   . .   + 3 ; &   $ 1   . $ , .   X # f #X#X",
"#X#X#X#XN.3X6X6XqX7X&X-X,X9X9X0X9X9X9X9X9X9X0XeX0XtXdXpXrXR.b.d.d.h t A.|.> $ O 4 , , , -     1 3 .   + 1     $ ,     X # f #X#X",
"#X#X#X#XY.2X6X0X7Xw.O.O.4.7X9X9X9X0X9X9X9X9XeXdXhXjXkXjXgXE.C.0 t J h A.|.= @ O 3 O O O X   . , 4 X   $ 1     $ ,     X # f #X#X",
"#X#X#X#XN.oX9X0X>Xo...X.O.-X6X0X9X9X9X9X9X9X9XiXfXgXgXdXpXR.B.L K A D A.|.= @ O 1           % ; - -   + 1     $ 1     X # f #X#X",
"#X#X#X#XD.1X6XqX>X#.X.X.#.-XqX9X9X9X9X9X9X0X9XqXqXrXqX9XqXE.K.Y 5.%Xh F.#X= @ O 1         X < O . 3 o + 1     $ ,     X # f #X#X",
"#X#X#X#X].oXqX6X8Xe.#.#.w.7X9X9X9X9X9X9X9X9X9XqX9X6XqXqX6XE.Y T sX=Xh F.#X= @ O 4 - > - % - -     @ ; @ 1     + ,     X # f #X#X",
"#X#X#X#X].2X9X0X6X7X>X>X7X6X9X9X9X9X9X9X9X9X9X9X0X0X9X9X6XR.T sXsX=XL F..X= @ . % % # % @ + X . . . + X + . . X O . . O # f #X#X",
"#X#X#X#X{.1X9XqX0X9X6X9X9X9X9X9X9X9X9X9X9X9X9X9X9X9X0X9X9XQ.%XgX$X*Xh F.#X* - & % % & & & & & & & & & & & & & & & & & & @ f #X#X",
"#X#X#X#X}.;X4X5X9X0X9X9XqXqX0X0X9X6XqXqX9XqX6XqX6X9X9X9XeXU.%XaXaX*Xh F.#X!.z z z z z z z z z z z z z z z z z z z z z z z !.#X#X",
"#X#X#X#X}.1X0X5X0X9XqXqX9XqXqX9XqXeXeXrXtXpXdXpXrXeX9X9X5XU.%X@XaX*XL F.#X#X#X#X#X#X#X#X#X#X#X#X#X#X#X#X#X#X#X#X#X#X#X#X#X#X#X#X",
"#X#X#X#X|.W.0X0X9X9X9X9XeXtXdXfXgXgXgXhXjXjXkXjXjXgXtXeX5XU.%XaXsXq.L Y.#X#X#X#X#X#X#X#X#X#X#X#X#X#X#X#X#X#X#X#X#X#X#X#X#X#X#X#X",
"#X#X#X#XXXW.0X0X9X9X9X6XiXjXkXkXkXkXkXkXkXkXkXkXkXkXkXdX6XU.K.sX%XA n. X#X#X#X#X#X#X#X#X#X#X#X#X#X#X#X#X#X#X#X#X#X#X#X#X#X#X#X#X",
"#X#X#X#XXXW.0X9X9X0X9X9XrXfXjXjXkXkXkXkXkXkXkXjXhXjXkXhXyXU.Y Y S P B.].#X#X#X#X#X#X#X#X#X#X#X#X#X#X#X#X#X#X#X#X#X#X#X#X#X#X#X#X",
"#X#X#X#XXXE.5X9X9X9X0X9X9XeXtXdXfXgXhXhXgXfXdXtXrXtXdXdX0XU.P A P d.z.].#X#X#X#X#X#X#X#X#X#X#X#X#X#X#X#X#X#X#X#X#X#X#X#X#X#X#X#X",
"#X#X#X#XXXR.0X9XqX9X0XqX9X0X9X9XeXeXrXeXeX9XqXqXqXqX5X9X4XS.L h B.s.b.{.#X#X#X#X#XXX!.x #X#X#X#X#X#X#X#X#X#X#X#X#X#X#X#X#X#X#X#X",
"#X#X#X#XXXR.6X9XqX9X0XqX9X0X9X9X9X9X9X3XqXqXqX9X9X6X9X9XQ.c.B.f.d.d.Z. X#X#X#X#X_.U b s OX#XOX#XOXXX#XOXOX#X#X+X#X#X#X#X#X#X#X#X",
"#X#X#X#XXXE.5X9X9X9X0XqXqX9X0X9X9X9X9X9X0X9X0X0X9X9XqX9XQ.b.g.f.g.s.C.|.#X#X#X`.K B v 7 d H s a s s s s p d s d d d d !.#X#X#X#X",
"#X#X#X#XOXR.yXtXuXiXuXrXrXrXrXeXeXqX9X0XqXqX9X9X9X9XqX0XE.v.g.z.k.r C.|.#X.XL.Z V V N M M m C M n n n v M v M M M C : J.#X#X#X#X",
"#X#X#X#XOX[.rXiXiXtXuXuXuXuXrXyXeX9X9XqX9X9X9X0XqXqXeXqXR.v.g.v.c.d.C.|.|.U Z V V V V V V V V V V V V V V V V V V n 6 .X#X#X#X#X",
"#X#X#X#X#XR.5XeX9XeX0X9X0X0X0X0X0X9X9XqXeXrXtXuXiXiXiXuXR.v.j.g.c.k.A.).P N V V V V V V V V V V V V V V V V V V V : z #X#X#X#X#X",
"#X#X#X@X@XR.4X0X0X0X0X0X9X9X9X9XeX8XuXiXiXiXiXiXiXiXiXiXE.b.j.q c.G.A.P V V V V V V V V V V V V V V V V V V V V m 2 (.@X#X#X#X#X",
"#X#X#X#X+X[.2X0X8X;X;X;X9X9X9XeXuXuXiXiXiXiXiXiXiXiXiXuXE.b.f.w k.c.B.Z V V V V V V V V V V V V V V V V V V V V M 9 (.@X#X@X#X#X",
"#X#X#X#X#X[.1X8X-Xt.y.-XrXrXtXiXiXiXdXiXiXiXiXiXiXiXuXuXE.x.w g.d.u B.I Z V V V V V V V V V V V V V V V V V V V B b d XX#X#X#X#X",
"#X#X#X+X+X[.W.-Xy.t.y.-XwXwXwX:X<X-X-X:X-X:X<X:XwXtXwXeXE.j.w j.q g V.OX^.K V V V V V V V V V V V V V V V V V V V n 9 (.#X#X#X#X",
"#X#X#X#X#X).E.y.;Xy.y.y.t.t.4.6.u.%. . . . . .t.t.t.t.y.P.l.f.r u g m.P..X).K B V V V V V V V V V V V V V V B V V B b s XX#X#X#X",
"#X#X#X#X#X[.(.y.t./  . .} } %.>.>.} | | } } | | } } | | E x.u j u y h.E z #X.XU Z B N b P P U Y Y Y U U U U U U U U H I OX#X#X#X",
"#X#X#X#X@XXX(. .} } [ / } | %.8.u.$.} } } } | } | } } | P.l.y E y y g E j .X#X.XL.Z c i XX+X#X#X#X#X#X#X#X#X#X#X+XOX#X#X#X#X#X#X",
"#X#X#X#X@XXX2.} } } ^ ! { [ { -.7.>.} [ [ } } } } } | | P.x.y i y y g E f OX#X#X#X`.G !.OX#X#X#X#X#X#X#X#X#X#X#X#X#X#X#X#X#X#X#X",
"#X#X#X#X#XXX!.| } } ! R ^ ` / %.7.:.%./ / / [ ^ R  .| } x b.h.u h.j V.E !.#X#X#X#X#X#X#X#X#X#X#X@X#X#X#X#X#X#X#X#X#X#X#X#X#X#X#X",
"#X#X#X#X#XXXP.1.} [ ! ! ^ ` / %.8.8.:.] / / / W R ` {  .M.x.k.k.l.g ].XX#X#X#X#X#X#X#X#X#X#X#X#X#X#X#X#X#X#X#X#X#X#X#X#X#X#X#X#X",
"#X#X#X#X#XOXI. ./ / ( / / / $.:.8.8.7.$./ / ^ W R ^ ` [ M.z.j.z.f.u  X#X#X#X#X#X#X#X#X#X#X#X#X#X#X#X#X#X#X#X#X#X#X#X#X#X#X#X#X#X",
"#X#X#X#X#X.XN.<./ ` / / [ %.>.8.8.8.7.{ / / Q R R R ^ ' M.z.g.j.y g ].#X#X#X#X#X#X#X#X#X#X#X#X#X#X#X#X#X#X#X#X#X#X#X#X#X#X#X#X#X",
"#X#X#X#X#X#XM.,./ / / ] %.8.8.8.8.u.-./ ` / W 5 R W ` ` M.z.w s.e u  X@X#X#X#X#X#X#X{.}.#X#X#X#X#X#X#X#X#X#X#X#X#X#X#X#X#X#X#X#X",
"#X#X#X#X#X#XN.,./ ( ] %.8.8.8.8.8.-.$.( / / ! R R R ^ ` m.z.w q j.z. X#X#X#X#X#XOX!.6 x #X#X#X#X#X#X#X#X#X#X#X#X#X#X#X#X#X#X#X#X",
"#X#X#X#X#X#XI.,./ ` $.7.8.8.8.8.8.-.` ( / / ^ _ _ ! _ ' m.x.d.s.k.Z.[.#X#X#X#X_.k F > d (.~.!.~.!.!.!.^.~.~.~.~.^.~.(..X#X#X#X#X",
"#X#X#X#X#X#XI.,.` ` -.8.8.8.8.8.8.%./ / / ( / / / / ` _ m.z.s.g.k.Z.[.#X#X#X^.a G J 8 9 8 9 7 7 7 2 7 7 2 7 7 6 9 7 6 (.#X#X#X#X",
"#X#X#X#X#X#X/.2./ ] -.8.8.8.8.8.8.%.( ( ( ` ` / / / / _ m.k.f.f.k.Z.{.@X+XJ.a J J J J J J J J J G J G G J J J J J 8 i _.+X#X#X#X",
"#X#X#X#X#X#X/.E / / $.u.8.8.8.8.8.7.] ' ( / / ` ` / ` ' D.g.f.f.g.Z.{..Xz F J J J J J J J J J J J J J J J J J J G > x #XOX#X#X#X",
"#X#X#X#X#X#X{.2./ ( $.:.8.:.8.:.:.:.=.$.( ( ~ ( ` / / ' D.k.w g.g.Z.].L D J J J J J J J J J J J J J J J J J J J 8 6 [.#X#X#X#X#X",
"#X#X#X#X#X#X}.2.( ( #.;.=.=.=.=.=.=.=.:.$.~ ~ ~ ( ` ` ' F.H.g.f.g.A.l D J J J J J J J J J J J J J J J J J J J J 4 s XX#X#X#X#X#X",
"#X#X#X#X#X#X_.M._ #.=.=.=.=.5.&.5.5.5.5.5.5.) ,.,.,.,.2.F.b.c.d.f.A.P.a D J J J J J J J J J J J J J J J J J J J 9 9 (.#X#X#X#X#X",
"#X#X#X#X#X#X}.m.x 3.3.I 3.3.J.J.J.J.I I I ^.K./.!.!.).}.Y.Z.H.g.f.S.|.).d G J J J J J J J J J J J J J J J J J J G 7 s OX#X#X#X#X",
"#X#X#X#X#X#X#X).).{.)..X_..X).}.XX.X+X#X#X#X#X.XOX#X#X#XXXS.Z.v.x.A.|.#X_.k D J J J J J J J J J J J J J J H J J J p 6 !.#X#X#X#X",
"#X#X#X#X#X#X#X#X#X+X+X*X&X&Xr.r.r.a.a.a.r.r.r.r.r.&X&X*X$X[.Z.b.H.A.OX#X#XXXI p J D D D p a F F F F F F F F F F F F 8 k #X#X#X#X",
"#X#X#X#X#X#X#X@X&Xr.0.:.&.@.@.X.X.+.+.X.+.+.X.@.@.@.@.:.i.r.T.G.H.S.|.#X#X#X#X^.F J > f _._._._._._._._._.}._.}._._._.OX#X#X#X#X",
"#X#X#X#X#X@X@Xp.i.>.@.......X.X.....X...........+.X.+.@.:.u.&XA.G.S.|.#X#X#X#X#X).k 2 !.#X#X#X#X#X#X#X#X#X#X#X#X#X+X#X#X#X#X#X#X",
"#X#X#X#X#X#X@X0.u.u.u.;.;.;.>.;.;.;.;.;.;.;.;.;.>.;.:.>.u.u.0.J.G.S.#X#X#X#X#X#X#X.X).#X#X#X#X#X#X#X#X#X#X#X#X#X#X#X#X#X#X#X#X#X",
"#X#X#X#X#X#X#X'.&Xe.e.w.0.9.9.0.0.0.0.0.0.0.0.0.a.w.w.e.e.'.'..XA.F.#X#X#X#X#X#X#X#X#X#X#X#X#X#X#X#X#X#X#X#X#X#X#X#X#X#X#X#X#X#X",
"#X#X#X#X#X#X#X#X#X#X#X#X+X+X+X+X#X@X+X+X+X+X+X#X+X+X+XOX#X#X#X#XT.F.#X#X#X#X#X#X#X#X#X#X@X#X#X#X#X#X#X#X@X#X#X#X#X#X#X#X#X#X#X#X",
"#X#X#X#X#X#X#X#X#X#X#X#X#X#X#X#X#X@X#X#X#X#X#X#X#X#X#X#X#X#X#X#X#X|.#X#X#X#X#X#X#X#X#X#X#X#X#X#X#X#X#X#X#X#X#X#X#X#X#X#X#X#X#X#X",
"#X#X#X#X#X#X#X#X#X#X#X#X#X#X#X#XU. X#X#X#X#X#X#X#X#X#X#X#X#X#X#X#X#X#X#X#X#X#X#X#X#X#X#X#X#X#X#X#X#X#X#X#X#X#X#X#X#X#X#X#X#X#X#X",
"#X#X#X#X#X#X#X#X#X#X#X#X#X#X#X.XA.A. X#X#X#X#X#X#X#X#X#X#X#X#X#X#X#X#X#X#X#X#X#X#X#X#X#X#X#X#X#X#X#X#X#X#X#X#X#X#X#X#X#X#X#X#X#X"
};
