/* XPM */
static char *Close3B1721789021[] = {
/* columns rows colors chars-per-pixel */
"64 64 228 2 ",
"   c #0B0000",
".  c #130000",
"X  c #1D0000",
"o  c #2B0000",
"O  c #330101",
"+  c #3C0101",
"@  c #460202",
"#  c #4D0303",
"$  c #5C0404",
"%  c #620404",
"&  c #6B0404",
"*  c #780707",
"=  c #7D0707",
"-  c #6C1B10",
";  c #702E16",
":  c #4D372B",
">  c #573727",
",  c #593226",
"<  c #594734",
"1  c #6D4C2F",
"2  c #684935",
"3  c #685336",
"4  c #73732A",
"5  c #223B7B",
"6  c #543E40",
"7  c #394F58",
"8  c #314B70",
"9  c #4F544F",
"0  c #724847",
"q  c #69594A",
"w  c #665953",
"e  c #765356",
"r  c #785457",
"t  c #53695A",
"y  c #6D6D52",
"u  c #766757",
"i  c #465862",
"p  c #7D5F61",
"a  c #556D6C",
"s  c #746F6A",
"d  c #797474",
"f  c #860808",
"g  c #8C0909",
"h  c #970707",
"j  c #940B0A",
"k  c #9C0A0A",
"l  c #931816",
"z  c #A50D0D",
"x  c #AD0D0D",
"c  c #B51111",
"v  c #B01413",
"b  c #B91918",
"n  c #9E2319",
"m  c #B8221D",
"M  c #92393B",
"N  c #B7353A",
"B  c #C71515",
"V  c #CA191A",
"C  c #D81515",
"Z  c #F11B1A",
"A  c #C3221F",
"S  c #D91E24",
"D  c #E51C23",
"F  c #EC1C24",
"G  c #CA292F",
"H  c #B23E43",
"J  c #824B4D",
"K  c #8C4F4F",
"L  c #845353",
"P  c #8D5151",
"I  c #815859",
"U  c #935353",
"Y  c #9B5358",
"T  c #965D61",
"R  c #9B6468",
"E  c #886E74",
"W  c #827879",
"Q  c #7D8823",
"!  c #758A59",
"~  c #919916",
"^  c #A69E18",
"/  c #9DA41D",
"(  c #A7A71C",
")  c #A6AC1E",
"_  c #989B29",
"`  c #9EA427",
"'  c #A6AC26",
"]  c #AAAD21",
"[  c #B8A924",
"{  c #B3B529",
"}  c #BBBB2F",
"|  c #AEB031",
" . c #BCBB31",
".. c #B4B438",
"X. c #F89809",
"o. c #FA9D0A",
"O. c #F69D11",
"+. c #F8A316",
"@. c #EA9F23",
"#. c #D3A829",
"$. c #CAB32D",
"%. c #CAB935",
"&. c #D6B635",
"*. c #EEAD30",
"=. c #F5AC37",
"-. c #F9AB33",
";. c #EAB83B",
":. c #F8B53C",
">. c #F7C13E",
",. c #FBC33A",
"<. c #98A050",
"1. c #ABAC4A",
"2. c #B6BA46",
"3. c #B6B17C",
"4. c #DBAB43",
"5. c #D3B355",
"6. c #EAB44C",
"7. c #F4BB41",
"8. c #FDBB43",
"9. c #E8BE5C",
"0. c #D5B16B",
"q. c #DCB669",
"w. c #CFB070",
"e. c #D8B876",
"r. c #E3BA66",
"t. c #AEC34E",
"y. c #B8C148",
"u. c #AFCB72",
"i. c #F8C845",
"p. c #F3CB59",
"a. c #CFC66F",
"s. c #E5C56D",
"d. c #233F85",
"f. c #27458B",
"g. c #284894",
"h. c #2A4C9C",
"j. c #304F99",
"k. c #365499",
"l. c #284DA3",
"z. c #2E51A5",
"x. c #3857A6",
"c. c #395DB4",
"v. c #3D61B9",
"b. c #425C9B",
"n. c #515F90",
"m. c #4C639D",
"M. c #58689C",
"N. c #6D748E",
"B. c #6A759C",
"V. c #747895",
"C. c #747B9B",
"Z. c #405FAE",
"A. c #4863A9",
"S. c #556AA5",
"D. c #516BB5",
"F. c #6675A5",
"G. c #747DA3",
"H. c #6578B2",
"J. c #8C7A85",
"K. c #5D829E",
"L. c #7F858B",
"P. c #7A829D",
"I. c #5B83AB",
"U. c #698AA6",
"Y. c #7A86A7",
"T. c #6E90AB",
"R. c #73AAB0",
"E. c #898588",
"W. c #948B8F",
"Q. c #86899B",
"!. c #949294",
"~. c #979598",
"^. c #99969A",
"/. c #A6978F",
"(. c #B0A68B",
"). c #B5A898",
"_. c #858AA5",
"`. c #8B93A8",
"'. c #9294A4",
"]. c #9D9CA3",
"[. c #9699AB",
"{. c #9C9DAA",
"}. c #8D97B3",
"|. c #A09FA3",
" X c #9DA1A7",
".X c #87ABB6",
"XX c #8EB3B8",
"oX c #99B6B9",
"OX c #A3A2A6",
"+X c #A7A6AB",
"@X c #A9A7A9",
"#X c #A9AFB1",
"$X c #CCB58D",
"%X c #AED091",
"&X c #96D4B4",
"*X c #AED5AF",
"=X c #B7E1B9",
"-X c #CBC986",
";X c #C9E0B2",
":X c #82BEC0",
">X c #A7B1C0",
",X c #8DCFC9",
"<X c #97C5C3",
"1X c #9CDACD",
"2X c #9ADDD4",
"3X c #B5C9C9",
"4X c #A4DBCB",
"5X c #A6DBD3",
"6X c #B3D6D0",
"7X c #9DE1CE",
"8X c #9AE1D7",
"9X c #96E2D8",
"0X c #9BE1D8",
"qX c #B7E6C8",
"wX c #A3E4DB",
"eX c #A7E4D9",
"rX c #B6E9DA",
"tX c #ADEAE2",
"yX c #B2EBE4",
"uX c #BAE9E2",
"iX c #CEDADD",
"pX c #CCE1DD",
"aX c #C8EDE8",
"sX c #D1EFEB",
"dX c #D7F2EE",
"fX c #DEF4F1",
"gX c #E6F5F2",
"hX c #E8F4F2",
/* pixels */
"+X+X+X+X+X+X+X+X+X+X+X+X+X+X+X+X+X+X+X+X+X+X+X+X+X+XF.`.+X+X+X+X+X+X+X+X+X+X+X+X+X+X+X+X+X+X+X+X+X+X+X+X+X+X+X+X+X+X+X+X+X+X+X+X",
"+X+X+X+X+X+X+X+X+X+X+X+X+X+X+X+X+X+X+X@X+X+X+X+X+X+XF.G.+X+X+X+X+X+X+X+X+X+X+X+X+X+X+X+X+X+X+X+X+X+X+X+X+X+X+X+X+X+X+X+X+X+X+X+X",
"+X+X+X+X+X+X+X+X+X+X+X+X+X+X@X+X+X+X+X+X+X+X+X+X+XOXF.D.|.+X+X+X+X+X+X+X+X+X+X+X+X+X+X+X+X+X+X+X+X+X+X+X+X+X+X+X+X+X#X+X+X+X+X+X",
"+X+X+X+X+X+X+X+X#X+X+X+X+X+X+X+X+X+X+X+X+X+X+X+X+XOXH.Z.`.+X+X+X+X+X+X+X+X+X+X+X+X+X+X+X+X+X+X#X+X+X+X+X+X+X+X+X+X+X+X+X+X+X+X+X",
"+X+X+X+X+X+X+X+X+X+X+X+X+X+X+X+X+X+X+X+X+X+X+X+X+X+XF.c.G.+X+X+X+X+X+X+X+X+X+X+X+X+X+X+X+X+X+X+X+X+X+X+X+X+X+X+X+X+X+X+X+X+X+X+X",
"+X+X+X+X+X+X+X+X+X+X+X+X+X+X+X@X+X+X+X+X+X+X+X+X+XOXF.z.H.+X+X+X+X+X+X+X+X+X+X+X+X+X+X+X+X+X+X+X+X+X+X+X+X+X+X+X+X+X+X+X+X+X+X+X",
"+X+X+X+X+X+X+X+X+X+X+X+X+X+X+X+X+X+X+X+X+X+X+X+X+X+XH.f.v.{.+X+X+X+X+X+X+X+X+X+X+X+X+X+X+X+X+X+X+X+X+X+X+X+X+X+X+X+X+X+X+X+X+X+X",
"+X+X+X+X+X+X+X+X+X+X+X+X+X+X+X+X+X+X+X+X+X+X+X+X+XOXF.d.x._.+X+X+X#X+X+X+X+X+X+X+X+X+X@X+X+X+X+X+X+X+X+X+X+X+X+X+X#X+X+X+X+X+X+X",
"+X+X+XOX'.[.]. X+X+X+X+X+X@X+X+X X+X+X#X+X+X@X+X+X+XH.d.x.H.{.+X+X+X+X+X+X+X+X+X+X+X+X+X@X@X+X+X+X+X+X+X+X+X@X@X+X+X+X+X+X+X+X+X",
"+X+X+X'.m.I.T.U.F.F.U.`.`.`.`. X X X X X+XOX@XOX+X|.S.h.z.D.{.#X+X+X+X+X].0 e J J J J J J 0 J J J J J J J J J 0 J K J 0 d |.+X+X",
"+X+X@X].F.3X6X6X5XXXXX.XR.U.U.U.I.m.K.S.K.U.P.U._._.m.d.z.v.}.{.+X+X+X+X].= z j h z h h j h h h k g j h k k k k k h z z 6 +X+X+X",
"+X+X@X^.B.1X2X8X0X0X9X9X9X7X9X9X,X&X,X&XR.:XR.R.U.F.x.z.d.h.J.+X+X+X+X+X].= % * c c c c & $ h O f & o k & x c b c x $ h 6 +X+X+X",
"+X+X+XOXG.<X9X8X9X8X8X8X9X9X9X8X9X8X9X0X0X9X0X0X5X+XA.z.h.d.`.+X+X+X+X+X|.f % j c & & & @ + C h B # o V % $ = S * $ # k 6 +X+X+X",
"+X+X+XOXY.<X9X8X8X8X*X*X&XwX8X8X8X8X8X8X0X0XwXaXdX#Xm.h.h.h.}.+X+X+X+X+X{.f $ j C g j g # . f Z h o o V #   + V O   O k 6 +X+X+X",
"+X+X+X+X_.3X0X0X8X%X4.@.4.*X8X8X9X8X8X8X0X0X0XuXsX#XM.h.h.k.}.+X+X+X+X+X].= $ j c g g g $ . & Z g . o V #   + V +   O k 6 +X+X+X",
"+X+X+X+XC.XX0X0X5X5.X.X.O.a.7X9X8X8X0X8X9X0X0X2X2X#Xm.g.d.k.`.+X+X+X+X+X].f $ j z .       O c B C + o V #   + V O   o z 6 +X+X+X",
"+X+X+X+XY..X5X0X5X5.X.X.X.w.4X0X9X0X8X8X8X8X0X8X2XoXA.g.d.x.`.+X+X+X+X+X].f $ j l .     . f c @ x z O V #   + V +   O k 6 +X+X+X",
"+X+X+X+XP.XX0X2X2X%X*.@.&.*X2X9X8X8X0X8X0X9X8X9X2XoXM.d.d.x.'.+X+X+X+X+X].= $ j B f f f & B * . # C & B #   + V O   O k 6 +X+X+X",
"+X+X+X+XQ..X0X0X0X5X*X%X*X8X0X0X8X0X9X8X0X0X8X9X2X#XS.f.f.x.[.+X+X+X+X+X].= & & x z z z f h O X o = * f @ X + g + X + k 6 +X+X+X",
"+X+X+X+X_.`.0X0X0X0X0X8X2X2X0X9X8X8X8X8X2X0X2XwX5X#XM.g.g.Z.[.+X+X+X+X+X|.& x k k k k z k h k j k h z k k k k z k k k k 6 +X+X+X",
"+X+X+X+XQ.P.7X9X0X8X8X8X9X8X0X0X8X2X0XwXeXuXaXaXaX>XS.z.l.A.{.+X+X+X+X+X|.w e e r r r e r r r r e e e e e e e e e r r e d +X+X+X",
"+X+X+X+X'.Y.7X8X8X8X9X8X8X9XwXeXrXaXaXsXgXgXgXgXhXiXS.z.z.v.{.+X+X+X+X+X+X+X+X+X+X+X+X+X+X+X+X+X+X+X+X+X+X+X+X+X+X+X+X+X+X+X+X+X",
"+X+X+X+X^.}.5X9X8X8X8X0X8XeXsXfXfXgXhXhXhXhXhXhXhXiXm.l.z.Z.{.+X+X+X+X+X+X+X+X+X+X+X+X+X+X+X+X+X+X+X+X+X+X+X+X+X+X+X+X+X+X+X+X+X",
"+X+X+X@X'.}.4X8X9X0X8X8X8XuXfXgXgXhXhXhXhXgXgXfXdX3Xm.d.l.D.{.+X+X+X+X+X+X+X+X+X+X+X+X+X+X+X+X+X+X+X+X+X+X+X+X+X+X+X+X+X+X+X+X+X",
"+X#X+X+X[.}.5X9X8X8X8X0X0X0XrXaXsXdXfXdXsXaXrXeXwX<Xb.h.l.D.|.+X+X+X+X+X+X+X+X+X+X+X+X+X+X+X+X+X+X+X+X+X+X+X+X+X+X+X+X+X+X+X+X+X",
"+X+X+X+X[.Y.6X0X8X8X8X8X8X8X0X8XwXeXeXeXwXwXwX8X2XoXb.h.l.A.{.|.+X+X+X+X+X+X+X+X+XOX+X+X+X+X+X+X+X+X+X+X+X+X+X+X+X+X+X+X+X+X+X+X",
"+X+X+X+X].Y.6X0X9X0X0X8X8X9X9X9X0X0X9X2X9X8X9X0X9XXXb.h.l.D.{.+X+X+X+X+X+X+X@X+X+X XOX+X+X+X+X+X+X+X+X+X+X+X+X+X+X+X+X+X+X+X+X+X",
"+X+X+X+X].G.rX0X8X0X8X8X8X8X8X9X9X9X8X8X8X8X8X0X0X<Xb.l.z.D.|.+X+X+X+X+X+X+X+X+XW.< E.+X+X+X+X+X+X+X+X+X+X+X+X@X+X+X+X+X+X+X+X+X",
"+X+X+X+X XC.6XwXwXwXwXwXwX0X0XwXwXwXeX0X0X0X0X0X0X,Xb.z.z.D.+X+X+X+X+X+X+X+X|.E J > d ~.!.!.!.!.!.W.W.!.!.!.!.!.^.].OX+X+X+X+X+X",
"+X+X+X+XOXG.pXtXtXyXyXyXyXyXtXtXtXwX0X0X9X0X0XwXeX4Xb.z.z.F.+X+X+X+X+X+X+X~.p K K 2 1 3 3 2 1 1 < < 1 < 3 2 2 3 3 < ~.+X+X+X+X+X",
"+X+X+X+XOXV.pXyXyXtXeXwX0XwX0X0X9X9X8X0X0XwXtXyXyX5XZ.c.c.H.|.+X+X+X@X+XE.r K U U U P K K K U K K K K K K P K P 2 w +X+X+X+X+X+X",
"@X+X+X+X+XV.iX0X0X0X8X0X0X9X0X9X2X0X0XeXyXyXyXyXyX5XA.c.c.H.|.+X+X+XOXW L U U U U U U U U U U U U U U U U U U K : J.+X+X+X+X+X+X",
"+X+X+X+X+XP.iX0X9X9X9X9X7X7X7X7XwXeXtXyXyXyXyXyXtX5XA.c.z.H.+X+X+X|.E J U U U U U U U U U U U U U U U U U U U 2 9 |.+X+X+X+X+X+X",
"+X+X+X+X+XC.>XwX9X9X&Xu.u.%XwXeXtXrXrXrXqXqX=X=X=X*Xb.x.h.U. X+XOXE L U U U U U U U U U Y U U U U U U U U U U > u |.+X+X+X+X+X+X",
"+X+X+X+X+XQ.>XeX7X&X%Xt.u.%XqX=X*X-Xa.a.y.y.2.y.2.1.a h.g.F.+X+X+XJ.I U U U U U U U U U U U U U U U U U U U Y 2 3 ^.+X+X+X+X+X+X",
"+X+X+X+X+X_.#XrX9Xu.%Xu.u.u.u.y. .>.i.%. .%.} }  ...i k.h.C.+X+X+X+X!.r P U U U U U U U U U U U U U U U U U U J 1 W @X@X+X+X+X+X",
"+X+X+X@X@X'.oXrXwX%Xu.y...} } } %.;.i.&.} } } | 1.1.i z.5 K.@X@X+X+X+X^.p K U U U U U U U U U U U U U U U U U U 1 3 !.+X+X+X+X+X",
"+X+X+X+X X'.[.;Xu.y. .} { / { } %.>.7.;.$.] ' ! ! <.a 8 7 a OX@X+X+X+X+X XW L U U K J J L L L L L L L L L L U L L 2 d +X+X+X+X@X",
"+X+X+X+X@X'.`.a. . . . .{ ~ ] ] ( &.7.8.&.[ / t ! t 7 7 t !  X+X+X+X+X+X+XOXE.L P : s !.~.~.~.^.^.^.^.^.].^.^.^.^.^.OX+X+X+X+X+X",
"@X+X+X+X#X XL.a. . . . ./ Q ~ ) ) { ;.8.i. ./ ! a y 7 7 t s  X+X+X+X+X+X+X+X+X!.p : E.+X+X+X+X+X+X+X+X+X+X+X+X+X+X+X+X+X+X+X+X+X",
"+X+X+X+X+X].C.a.} } } { / ~ ~ ) ) &.7.8.8.;.) _ Q ! i 8 7 E.+X+X+X+X+X+X+X+X+X+X XW.OX+X+X+X+X+X+X+X+X+X+X+X+X+X+X+X+X+X+X+X+X+X",
"+X+X+X+X+XOXF.a.} } { ) ) ) ) ( $.:.8.8.8.&.] ' / 4 i k.Z.[.+X+X+X+X+X+X+X+X+X+X@X+X+X+X+X+X+X+X+X+X+X+X+X+X+X+X+X+X+X+X+X+X+X+X",
"+X+X+X+X+XOXB.$X} { ) ' ) ) ] $.:.8.8.8.:.$.] ] / 4 i k.c.[.OX+X+X+X+X+X+X+X+X+X+X+X+X+X+X+X+X+X+X+X+X+X+X+X+X+X+X+X+X+X+X+X+X+X",
"+X+X+X+X+XOXN.3.{ ) ) ) ) ] $.i.i.8.8.:.;.{ ) ' / ~ t j.x.'.+X+X+X+X+X+X+X+X+X+X+X+X+X+X+X+X+X+X+X+X+X+X+X+X+X+X+X+X+X+X+X+X+X+X",
"+X+X+X+X+X+XC.3.] ) ) ) ] [ 7.8.8.8.8.8.&.] ) ) ) ` t f.x.{.+X+X+X+X+X+X+X+X+X+X Xd E.OX+X+X+X+X+X+X+X+X@X+X+X+X+X+X+X+X+X+X+X+X",
"+X+X+X+X+X+XC./.] ) ) ] ] %.7.8.8.8.8.8.&.) ) ) ] ` t f.x.{.+X+X+X+X+X+X+X+X+X^.Y ; d +X+XOXOXOX+XOXOX+X@X@XOXOXOX+X+X+X+X+X+X+X",
"+X+X+X+X+X+XP.(.] ) ) ) ) &.8.8.8.8.8.8.&.) ) ) ( ' n.z.x.[.+X+X+X+X+X+X+XOXJ.N S ; 0 u u w u q q y y q u u w u u s ~.+X+X+X+X+X",
"+X+X+X+X+X#XP.!.' ) ) ] ] $.8.8.8.8.8.8.8.&.] ) ( ( N.x.x.[.+X+X+X+X+X+XOXR G F F V m b A A V m b m m m m m m m v > ~.+X+X+X+X+X",
"+X+X+X+X+X+XP.~.{ ) ) ) ) ] ;.:.8.8.8.-.-.8.#.[ ^ _ n.j.x.{.|.+X+X+X+X'.Y D F F F F F F F F F F F F F F F F F F l w OX+X+X+X+X+X",
"+X+X+X+X+X+X_.'.| ) ) ( ( [ *.:.-.-.-.-.-.-.-.=.#.[ N.d.x.[.+X+X+X|.!.H D F F F F F F F F F F F F F F F F F F S , E.+X+X+X+X+X+X",
"+X+X+X+X+X+X'.P.2.) ) / ( #.-.-.-.-.-.-.-.-.-.-.-.=.J.d.b.{.+X+X+XW.H F F F F F F F F F F F F F F F F F F F F n 9 OX+X+X+X+X+X+X",
"+X+X+X+X+X+X].P.2./ ( ( #.*.-.-.-.-.-.-.-.-.=.=.=.8.J.d.x.{.+X+X+XT S F F F F F F F F F F F F F F F F F F F F n 2 ^.+X+X+X+X+X+X",
"+X+X+X+X+X+X XB.1.` _ [ &.6.6.0.q.0.0.$X$X$X$X).).^.M.d.A.{.+X+X+X|.R G F F F F F F F F F F F F F F F F F F F V , <.OX+X+X+X+X+X",
"+X+X+X+X+X+X Xn.V.V.J.'.Q.J.J.C.G.G.V.J.V.V.V.P.J.J.M.d.H.|.+X+X+X+X+XJ.N F F F F F F F F F F F F F F F F F F F l 3 ~.@X+X+X+X+X",
"+X+X+X@X+X+X+XQ.|.{.{.|.{.|.{.+X|.|.+X|.@X@X@X@X>X@XN.d.J.+X+X+X+X+X+X+XW.H D F F F F F F F F F F F D F F F F F D ; s @X+X+X+X+X",
"+X+X+X+X+X+X+X+X+X@X@X$X$Xe.e.e.r.r.9.9.9.r.r.q.$X$XV.b.}.#X+X+X+X+X+X+X+X^.Y D F v M Y T R T R R R R R R R R R R E E.+X+X+X+X+X",
"+X+X+X+X+X+X+X#X$X-X6.-.+.+.+.o.o.o.o.o.o.o.o.o.O.O.J.H.r.s.$X#X+X+X+X+X+X+X|.R G - d |.+X+X+X+X+X+X+X+X+X+X+X+X+X+X+X+X+X+X+X+X",
"+X+X+X+X+X+X+X$Xp.i.*.O.o.o.o.o.o.o.o.o.o.o.o.o.o.O.E J.i.i.p.).+X+X+X+X+X+X+X+XJ.e ^.+X+X+X+X+X+X+X+X+X+X+X+X+X+X+X+X+X+X+X+X+X",
"+X+X+X+X+X+X@Xw.6.i.i.7.,.,.,.,.,.,.,.:.:.,.,.,.8.:.W /.i.p.r.).+X+X+X+X+X+X+X+X+X+X+X+X+X+X+X+X+X+X+X+X+X+X+X+X+X+X+X+X+X+X+X+X",
"+X+X+X+X+X+X+X@X).$X$Xw.0.0.0.0.0.0.q.e.q.q.0.0.e.w.V./.(.).@X+X+X+X+X+X+X+X+X+X+X+X+X+X+X+X+X+X+X+X+X+X+X+X+X+X+X+X+X+X+X+X+X+X",
"+X@X+X+X+X+X+X+X+X+X+X+X+X+X+X+X+X+X+X+X+X+X+X+X+XOXG.[.+X+X+X+X+X+X+X+X+X+X+X+X+X+X+X+X+X+X+X+X+X+X+X+X+X+X+X+X+X+X+X+X+X+X+X+X",
"+X+X+X+X+X+X+X+X+X+X+X+X+X+X+X+X+X#X+X+X+X+X+X+X+X+XOX+X+X+X+X+X+X+X+X+X+X+X+X+X+X+X+X+X+X+X+X+X+X+X+X+X+X+X+X+X+X+X+X+X+X+X+X+X",
"+X+X+X+X+X+X+X+X+X+X+X+X+X+X+X XH.}.+X+X+X+X+X+X+X+X+X+X+X+X+X+X+X+X+X+X+X+X+X+X+X+X+X+X+X+X+X+X+X+X+X+X+X+X+X+X+X+X+X+X+X+X+X+X",
"+X+X+X+X+X+X+X+X+X+X+X+X+X+X+X+XD.D.}.+X+X+X+X+X+X+X+X+X+X+X+X+X+X+X+X+X+X+X+X+X+X+X+X+X+X+X+X+X+X+X+X+X+X+X+X+X+X+X+X+X+X+X+X+X"
};
