/* XPM */
static char *Close2H1721789020[] = {
/* columns rows colors chars-per-pixel */
"64 64 227 2 ",
"   c #020000",
".  c #0B0202",
"X  c #130606",
"o  c #190909",
"O  c #250B0B",
"+  c #2D0B0B",
"@  c #370E0E",
"#  c #380E0E",
"$  c #2C1212",
"%  c #371616",
"&  c #3C1212",
"*  c #251F20",
"=  c #262021",
"-  c #3D2E2F",
";  c #451717",
":  c #592C1B",
">  c #702913",
",  c #4B2221",
"<  c #592626",
"1  c #5D342C",
"2  c #432F30",
"3  c #632A2A",
"4  c #653232",
"5  c #6B3737",
"6  c #7A3735",
"7  c #694D2C",
"8  c #0D1E49",
"9  c #0F1F4C",
"0  c #10214F",
"q  c #122454",
"w  c #15285B",
"e  c #14295E",
"r  c #142B63",
"t  c #192E67",
"y  c #1B316C",
"u  c #132F71",
"i  c #1C377A",
"p  c #203467",
"a  c #213773",
"s  c #243C7B",
"d  c #453F41",
"f  c #324954",
"g  c #3B5551",
"h  c #334D6D",
"j  c #4A4042",
"k  c #595046",
"l  c #565356",
"z  c #595457",
"x  c #65554E",
"c  c #4A6A58",
"v  c #6B6355",
"b  c #74695B",
"n  c #4D5A78",
"m  c #49686F",
"M  c #766E62",
"N  c #726C69",
"B  c #797675",
"V  c #911916",
"C  c #B11B1B",
"Z  c #8C2B18",
"A  c #952719",
"S  c #A5251B",
"D  c #B6241C",
"F  c #9F3639",
"G  c #BC3237",
"H  c #C91A1F",
"J  c #D71B21",
"K  c #E41D24",
"L  c #EC1C24",
"P  c #CA272E",
"I  c #D82027",
"U  c #C33035",
"Y  c #AF3E43",
"T  c #BA3C41",
"R  c #985255",
"E  c #AA4348",
"W  c #A24E53",
"Q  c #A45458",
"!  c #955C60",
"~  c #96676B",
"^  c #827E7A",
"/  c #977477",
"(  c #7B827B",
")  c #8E9715",
"_  c #A39E18",
"`  c #9EA61D",
"'  c #A5A61B",
"]  c #A6AD1E",
"[  c #BAA11E",
"{  c #A7AC23",
"}  c #A8AD2B",
"|  c #B8AD24",
" . c #B9B92D",
".. c #B7B734",
"X. c #BCBB31",
"o. c #FB9704",
"O. c #F79B0A",
"+. c #F49A14",
"@. c #F9A918",
"#. c #D3B233",
"$. c #F0AC29",
"%. c #F7AB35",
"&. c #E2B839",
"*. c #F6B43A",
"=. c #F9C036",
"-. c #93934E",
";. c #9CA340",
":. c #AFB44D",
">. c #938F6F",
",. c #87857B",
"<. c #B39372",
"1. c #D7A650",
"2. c #F4BC42",
"3. c #FDBB43",
"4. c #ECB051",
"5. c #C59D6D",
"6. c #D6B46D",
"7. c #E5B361",
"8. c #B4C353",
"9. c #ADC971",
"0. c #F7C747",
"q. c #EFC455",
"w. c #F7CB54",
"e. c #D1C278",
"r. c #1D3C85",
"t. c #243F83",
"y. c #1E4191",
"u. c #294487",
"i. c #23428B",
"p. c #335087",
"a. c #234493",
"s. c #24499D",
"d. c #284998",
"f. c #314F9B",
"g. c #34539B",
"h. c #254BA2",
"j. c #264EA9",
"k. c #2751AE",
"l. c #2B51A8",
"z. c #3354A4",
"x. c #3A5AA5",
"c. c #3556A9",
"v. c #3759AC",
"b. c #385AAD",
"n. c #2955B7",
"m. c #2B58BE",
"M. c #3A5DB3",
"N. c #3A5EB6",
"B. c #3B60B7",
"V. c #3D62BC",
"C. c #5A799F",
"Z. c #747B91",
"A. c #4266BF",
"S. c #4669BF",
"D. c #4B6CBE",
"F. c #5873BB",
"G. c #6877A9",
"H. c #7979A4",
"J. c #657BB9",
"K. c #3F65C1",
"L. c #4166C0",
"P. c #4568C0",
"I. c #4E73C1",
"U. c #907D92",
"Y. c #6A829F",
"T. c #7D849D",
"R. c #5D88AD",
"E. c #6689AA",
"W. c #7988A5",
"Q. c #6D83B6",
"!. c #7988B7",
"~. c #7096B3",
"^. c #79ACB8",
"/. c #5886C3",
"(. c #6799C7",
"). c #7795CB",
"_. c #77AACB",
"`. c #878584",
"'. c #978588",
"]. c #8A8B98",
"[. c #948E92",
"{. c #9A969A",
"}. c #A59594",
"|. c #BDA484",
" X c #BDA88A",
".X c #B6A999",
"XX c #B5AC9D",
"oX c #868AA3",
"OX c #8B93A8",
"+X c #9E9DA4",
"@X c #989BAA",
"#X c #838EB2",
"$X c #8A93B2",
"%X c #959AB0",
"&X c #A09EA3",
"*X c #9DA1AD",
"=X c #89A7B9",
"-X c #A2A1A6",
";X c #ABA7A6",
":X c #A7A6AB",
">X c #ACA9A8",
",X c #C5B18B",
"<X c #B1D396",
"1X c #ABCFA8",
"2X c #A9DAA7",
"3X c #AAD7B8",
"4X c #8098CE",
"5X c #83B9C2",
"6X c #8AC9C8",
"7X c #8ED1CF",
"8X c #9ADCC7",
"9X c #96DCD4",
"0X c #99DDD5",
"qX c #A1DEC7",
"wX c #A1DFD1",
"eX c #9DE0C9",
"rX c #96E2D7",
"tX c #9AE1D7",
"yX c #9AE1D8",
"uX c #A5E6DD",
"iX c #A9E6DB",
"pX c #B0E7D5",
"aX c #ACEAE1",
"sX c #B3EAE3",
"dX c #CCEEEA",
"fX c #E4F1EF",
"gX c #E5F5F1",
/* pixels */
":X:X:X:X:X:X>X:X:X:X:X:X:X:X:X:X$X#X:X:X:X:X:X:X:X:X:X:X:X:X:X:X:X:X:X:X:X:X:X:X:X:X:X:X>X:X:X:X:X:X:X:X:X:X:X:X:X:X:X:X:X:X:X:X",
":X:X:X:X:X:X:X:X:X:X:X:X:X:X:X:X#XS.J.*X:X:X:X:X:X:X:X:X:X:X:X:X:X:X:X:X:X:X:X:X:X:X:X:X:X:X:X:X:X:X:X:X:X:X:X:X:X:X:X:X:X:X:X:X",
":X:X:X:X:X:X:X:X:X:X:X:X:X:X:X:X$XA.L.F.%X:X:X:X:X:X:X:X:X:X:X:X:X:X>X:X:X:X:X:X:X:X:X:X:X:X:X:X:X:X:X:X:X:X:X:X:X:X:X:X:X:X:X:X",
":X:X:X:X:X:X:X:X:X:X:X:X>X:X:X:X$XL.L.K.D.#X:X:X:X:X:X:X:X:X:X:X:X:X:X:X>X:X:X:X:X:X:X:X:X:X:X:X:X:X:X:X:X:X:X:X:X:X:X:X:X:X:X:X",
":X:X:X:X:X:X:X:X:X:X:X:X:X:X:X:XOXA.K.K.K.P.!.*X:X:X:X:X:X:X:X:X:X:X:X:X:X:X:X:X:X:X:X:X:X:X:X:X:X:X:X:X:X:X:X:X:X:X:X:X:X:X:X:X",
":X:X:X:X:X:X:X:X:X:X:X:X:X:X:X:X$XA.K.K.K.K.K.J.%X:X:X:X:X:X:X:X:X:X:X:X:X:X:X:X:X:X:X:X:X:X:X:X>X:X:X:X:X:X:X:X:X:X:X:X:X:X:X:X",
":X:X:X:X:X:X:X:X:X:X:X:X:X:X:X:X%XA.V.c.B.K.K.K.I.$X:X:X:X:X:X:X:X:X:X:X:X:X:X:X:X:X:X:X:X:X:X:X:X:X:X:X:X:X:X:X:X:X:X:X:X:X>X:X",
":X:X:X:X:X:X:X:X:X:X:X:X:X:X:X:X%XP.V.w y B.K.L.P.P.!.@X:X:X:X:X:X:X:X:X:X:X:X:X:X:X:X:X:X:X:X:X:X:X:X:X:X:X:X:X:X:X>X:X:X:X:X:X",
":X:X-X@XOX$X@X*X:X:X-X;X;X:X:X:X%XD.V.y 0 i B.V.K.K.P.F.%X:X:X>X:X:X:X:X*X:X:X:X:X:X:X:X:X:X:X:X:X:X:X:X:X:X:X:X:X:X&X:X:X:X:X:X",
":X:X:XW.C.~.~.E.Q.C.E.E.H.W.OX*X$XS.K.i.t 8 t v.L.K.L.K.I.#X*X>X:X:X:X:XN - 2 2 2 2 2 2 2 2 2 2 2 2 2 2 2 2 2 - 2 d 2 - d :X:X:X",
":X:X:XW.~.rXrX0X9X7X6X6X=X^.^.^.R.K.L.i.s.i 8 f.K.K.K.K.L.P.J.*X:X:X:X:Xz ; + O + + + + + + + + + + + + + $ + + + + + ; = :X:X:X",
":X:X:XT._.yXtXtX0XrX0X0XrXrXrXrX7XI.L.t.j.a.8 z.N.t.V.K.K.K.A.F.:X:X:X:Xz % . , < < < , . + +   & X   , o , < 1 < , X & = :X:X:X",
":X:X:XOX~.rXrXrXuX0X0XrXrXtXtXtX7XI.K.t.h.s.9 z.c.9 t.N.K.K.K.P.*X:X:X:Xz ,   3 $ X o o   X 3 @ < . . 4 X X o 5 o X . & = :X:X:X",
":X:X;XOXE.rXrXrXqX1X<XqXtXtXtXtX0XI.K.d.h.s.0 v.c.e 9 a M.A.K.I.*X:X:X:Xz % . 4 , % % % .   ; 6 +   . 4 X   . 5 X     & = :X:X:X",
":X:X;XOXE.yX0X8X6.#.+.#.2XtXtXtXyXI.P.t.h.h.q v.V.r.r.q r b.P.I.:X:X:X:Xz & . 3 ; % % $ .   % 6 O   . 4 X     4 X     & = :X:X:X",
":X:X:X+XQ.0X0XqX$.o.o.+.6.uXrXtXuXI.P.t.j.h.q M.N.r.m.r.0 v.K.I.*X:X:X:Xz & . 3 o         X < ; <   X 4 X   . 4 X     & = :X:X:X",
":X:X:X+XR.9XrX3X$.o.o.+.e.9XtXtX9X/.L.f.k.h.q M.c.a.m.s.q M.L.I.:X:X:X:Xz & . < X         ; ; . < + X 3 .   . 4 .     ; * :X:X:X",
":X:X;X*XC.7XrXwX<X&.$.5.3X9XyXtX9X/.L.h.k.h.w M.v.a.m.s.r N.P.F.*X:X:X:Xz & . 3 % $ $ O O < o   O < o 4 X   . 4 X     # * :X:X;X",
":X:X:X*XC.7XrXrXqX3X3XqX0XyXrXyX9X/.A.z.k.h.q b.c.s.m.y.r V.L.F.:X:X:X:Xz &   % , , , , O +       + o # .     %       & * :X:X:X",
":X:X:X-XZ.7XrXtXtXtXtXyX0XrXrXtX9X/.L.f.h.h.q b.c.h.m.r.t V.L.F.:X:X:X:Xz ; @ @ @ & @ @ @ @ @ & # @ # # @ # # # & & @ & * :X:X:X",
":X:X:X*XE.6XtXtXtXtXtXtXtX0XrXrX0X/.K.f.s.h.q v.v.s.m.r.i K.K.J.*X:X:X:XB j j j j j j j j j j j j j j j j j j j j j j j l :X:X:X",
":X:X:X:XW.6XtXtXtXrXtXtXtXiXsXdXdX(.K.z.s.h.r v.v.h.m.u a K.K.J.:X:X:X:X:X:X:X:X:X:X:X:X:X:X:X:X:X:X:X:X:X:X:X:X:X:X:X:X:X:X:X:X",
":X:X:X:XW.6XtXtXtXyXyXyXpXfXgXgXfX4XK.z.a.j.e v.v.h.m.u s K.L.J.:X:X:X:X:X:X:X:X:X:X:X:X:X:X:X:X:X:X:X:X:X:X:X:X:X:X:X:X:X:X:X:X",
":X:X:X:XT.6XtXtXrXrXyXrXaXfXgXgXfX).K.l.a.j.e v.v.h.n.r t.A.A.J.:X:X:X:X:X:X:X:X:X:X:X:X:X:X:X:X:X:X:X:X:X:X:X:X:X:X:X:X:X:X:X:X",
":X:X:X:XT.6XrXrXrXtXtXrXtXiXsXdXdX).K.z.s.k.r v.c.h.n.e u.L.L.J.:X:X:X:X:X:X:X:X:X:X:X:X:X:X:X:X:X:X:X:X:X:X:X:X:X:X:X:X:X:X:X:X",
":X:X:X;XW.6XrXrXrXtXtXtXtXtXuX0X0X(.K.z.h.k.r v.c.h.k.q d.L.L.J.:X:X:X:X:X:X:X:X:X:X:X:X:X:X:X:X:X:X:X:X:X:X:X:X:X:X:X:X:X:X:X:X",
":X:X:X:XT.=XtXtXtXtXtXtXrXrXyXyX0X(.K.z.a.k.t M.l.s.k.q f.L.L.J.*X:X:X:X:X:X:X:X-X{.[.:X:X:X:X:X:X:X:X:X:X:X:X:X:X:X:X:X:X:X:X:X",
":X:X:X:XW.5XrXtXtXyXtXtXrXrXyXyX0X(.K.z.a.h.a N.l.r.h.q z.K.L.!.:X:X:X:X:X:X:X-X'.5 v ;X:X:X:X:X:X:X:X:X:X:X:X;X:X:X:X:X:X:X:X:X",
":X:X:X:XoX^.uXuXiXaXuXiXuXuXuXiXuX(.K.c.r.t.v.L.M.t.t.0 c.L.L.!.:X:X:X:X:X:X{.~ I A k `.U.,.^ ^ ^ ^ ^ ^ ^ U.,.,.,.`.{.:X:X:X:X:X",
":X:X:X:XOX=XaXsXsXsXsXsXaXaXuXuXuX(.K.c.r.l.K.K.K.M.a.t M.L.L.!.:X:X:X;X:X[.E K L C A S A A A A A Z Z Z Z A Z Z A : B :X:X:X:X:X",
":X:X:X:XOX=XaXpXuXuXyXtXyXyXtXrX0X_.L.c.u.K.K.f.z.L.v.a M.K.K.#X:X:X;X;XU.G L L L L L L L L L L L L L L L L L L J 1 {.:X:X:X:X:X",
":X:X:X:X@X~.rXrXtXrXyXrXrXrXtXrXyX_.K.N.M.K.N.q w N.K.c.N.K.L.#X:X:X&X/ P L L L L L L L L L L L L L L L L L L L > N :X:X:X:X:X:X",
":X:X:X:X*X~.9XtXrXeXeXeXeXtXtXaXaX_.K.K.K.K.d.q 9 t.K.K.K.K.L.4X:X&X~ I L L L L L L L L L L L L L L L L L L L J : ].:X:X:X>X:X:X",
":X:X:X:X*XW.9XtXeX9.9.9.<XpXsXsXpX=XK.L.K.M.r h.r.q z.K.K.L.K.U.:X/ I L L L L L L L L L L L L L L L L L L L L C 7 {.:X:X:X:X:X:X",
":X:X:X:X{.~.wXeX2X9.8.9.<X2X<X9.q.{.c.N.N.s t.m.m.u y N.K.K.P.%X:X{.Q J L L L L L L L L L L L L L L L L L L L J 7 B -X:X:X:X:X:X",
":X:X:X;X-X~.tXqX9.<X9.8.8.8...#.2.<.h h t.y m.m.m.j.e t.K.K.P.%X:X:X&X~ P L L L L L L L L L L L L L L L L L L L S 7 [.:X:X:X:X:X",
":X:X:X:X;X~.wX3X9.8... . .X.X.#.2.<.n m h r.m.m.m.m.r.r c.K.P.%X:X:X:X:X/ U L L L L L L L L L L L L L L L L L L K Z b ;X:X:X:X:X",
":X:X:X:X-X~.1X:. . .X.} ) |  . .&.5.h n d.a h.m.m.n.t.f.K.K.P.%X:X:X:X:X:X'.E K L J P G G T T G T T T T T T T T E F v -X:X:X:X;X",
":X:X:X:X:XY.8.X.X. .X.] ) ) { ] #.5.h m f c f n.n.s.d.K.K.K.D.*X:X:X:X:X:X:X}.Q K V k {.+X&X+X&X+X+X+X+X+X+X&X&X&X&X-X:X:X:X:X:X",
":X:X:X:X:XY.;.X.X. . .` ) ) ] ] | 5.h g j c c t.h.r.N.K.K.K.F.%X:X:X:X:X:X:X:X:X~ 6 B :X:X;X:X:X:X:X;X:X:X:X:X:X:X;X:X:X:X:X:X:X",
":X>X:X:X:X].>.X.X. .{ ] ` ` ] ] #.5.h c k c c h r.z.K.K.K.K.I.*X:X:X:X:X:X:X:X:X:X{.&X:X:X:X:X:X:X:X:X:X:X:X:X:X:X:X:X:X:X:X:X:X",
":X:X:X:X:XoX>.X. .| ] ] ] ] | &.*.7.n m h c g l.z.K.V.z.v.K.F.*X:X:X:X:X:X:X:X:X:X:X:X:X:X:X:X:X:X:X:X:X:X:X;X:X:X:X:X:X:X>X:X:X",
":X:X:X:X:X].>. .] ] ] ] ] | &.3.2.7.n m x.p.g.K.K.K.N.e z.K.I.*X:X:X:X:X:X:X:X:X:X:X:X:X:X:X:X:X:X:X:X:X:X:X:X:X:X:X:X:X:X:X:X:X",
":X:X:X:X:X+X,.] ] ] { ] | &.*.0.*.7.p.m b.f.V.K.K.P.t.8 z.L.F.&X:X:X:X:X:X:X:X;X:X:X:X:X:X:X:X:X:X:X:X:X:X:X:X:X:X:X:X:X:X:X:X:X",
":X:X:X:X:X{.( ] ] ] ] ] #.3.3.3.3.4.n m g.w g.V.L.V.t 9 M.K.F.*X:X:X:X:X:X:X:X:X&XU.[.;X:X:X:X:X:X:X:X:X:X:X:X:X:X:X:X:X:X:X:X:X",
":X:X:X:X:X*XY.] ] ] ] ] &.3.3.3.0.4.n g g.i 0 g.K.t.9 e M.K.J.*X:X:X:X:X:X:X:X{.! : ( *X;X-X:X:X:X:X*X:X:X:X:X-X:X:X:X:X:X:X:X:X",
":X:X:X:X:X*X( ` ] ] ] } &.2.3.3.3.4.n p.M.i.e q z.t r.r v.V.J.:X:X:X:X:X:X:X'.Y J > x ~ M b b v v v b b M M M v M B {.:X:X:X:X:X",
":X:X:X:X:X{.T.` ] ] { { #.3.3.3.3.4.G.V.B.i.h.q t.t.s.q c.K.J.:X:X:X:X:X&X~ P K K D D D D D D S S S S S S S S D S 1 [.:X:X:X:X:X",
";X:X:X:X:X*X].{ ` ] ] ] | *.*.*.%.1.G.K.V.y.k.r t.d.h.q v.K.J.:X:X:X:X{.Q I L L L L L L L L L L L L L L L L L L V x ;X:X:X:X:X:X",
":X:X:X:X:X-XT.} ] ] ` _ #.%.%.%.%.%.H.K.K.y.k.e t.t.s.e N.L.J.:X:X;X{.E K L L L L L L L L L L L L L L L L L L J : `.:X:X:X:X:X:X",
":X:X:X:X:X-XT.;.] ' _ [ $.%.%.%.%.4.H.K.K.t.n.r t.d.s.r V.L.J.:X:X[.Y K L L L L L L L L L L L L L L L L L L L V k &X>X:X:X:X:X:X",
":X:X:X:X-X-X].;.` ' [ $.%.%.%.%.%.4.U.K.K.r.k.u t.t.r.t L.P.J.:X-XR K L L L L L L L L L L L L L L L L L L L L Z x &X;X:X:X:X:X:X",
":X:X:X:X:X:XT.( -.-.<.5.<.<.'.'..X;XG.K.L.t.j.r w t.t.c.A.A.J.*X;X{.Q I L L L L L L L L L L L L L L L L L L L H 7 ,.:X:X:X:X:X:X",
":X:X:X:X:X:XoXZ.Z.H.T.oXoXW.oXoXoXoXD.K.L.t.r.y p N.V.K.K.K.U.:X:X:X*X~ P L L L L L L L L L L L L L L L L L L L A x {.:X:X:X:X:X",
":X:X:X:X:X:X:X:X*X:X:X:X:X:X:X:X:X&XF.K.K.t.s d.N.K.K.K.K.K.4X:X:X:X;X-X^ U L L L L L L L L L L L L L L L L L L J Z B ;X:X:X:X:X",
":X:X:X:X:X:X:X:X:X:X:X:X:X:X:X:X&X&XF.K.K.h.c.K.P.P.K.K.P.U.*X:X:X:X:X:X:X'.Y K L C F E W W W W Q R Q Q Q Q Q Q R R B :X:X:X:X:X",
":X:X:X:X:X:X:X:X:X:X:X:X:X>X>X:X:X:XJ.V.L.K.K.K.L.L.P./.%X:X:X:X:X:X:X:X:X:X{.Q J > N *X*X-X;X*X;X*X*X;X*X:X:X:X&X-X;X:X:X:X:X:X",
":X:X:X:X:X:X:X:X:X:X>X>XXXXXXXXX,X,X).K.K.K.K.K.L.P.#X:X;X:X:X:X:X:X:X:X:X:X;X*X/ k [.:X:X;X:X:X;X:X:X:X;X:X:X:X;X;X:X:X:X:X:X:X",
":X:X:X:X:X:X>XXX,Xe.7.2.*.*.*.*.%.%.U.K.K.K.K.K.J.|.e.e.XX>X:X:X:X:X:X:X:X:X:X:X:X*X:X:X:X:X:X:X:X:X:X:X:X:X:X:X:X:X:X:X:X:X:X:X",
":X:X:X:X:XXXe.w.*.@.O.o.o.o.o.o.+.+.U.K.K.L.L.H.1.+.@.0.w.e.>X:X:X:X:X:X:X:X:X:X:X:X:X:X:X:X:X:X:X:X:X:X:X:X:X:X:X:X:X:X:X:X:X:X",
":X:X:X:X:X6.w.0.=.$.@.@.@.@.@.@.@.$.U.K.L.D.'.4.@.%.*.=.0.w.XX:X:X:X:X:X:X:X:X:X:X:X>X:X:X:X:X:X:X:X:X:X:X:X:X:X:X:X:X:X:X:X:X:X",
":X:X:X:X:X X6.7.q.0.w.0.0.0.0.0.0.3.].K.J.|.0.0.4.3.q.q.1.,X>X:X:X:X:X:X:X:X:X:X:X:X:X:X:X:X:X:X:X:X:X:X:X:X:X:X:X:X:X:X:X:X:X:X",
":X:X:X:X:X:X-X;X.X.X X X X X,X5.,X,XW.J.&X|. X.X.X.X.X;X;X:X:X:X:X:X:X:X:X:X:X:X:X:X:X:X:X:X:X:X:X:X:X:X:X:X:X:X:X:X:X:X:X:X:X:X",
":X:X:X:X:X:X;X:X:X;X:X:X:X:X:X:X:X:X%X:X:X:X:X-X;X-X;X;X:X:X:X:X:X:X:X:X:X:X:X:X:X:X:X:X:X:X:X:X:X:X:X:X:X:X:X:X:X:X:X:X:X:X:X:X"
};
