/* XPM */
static char *Close4E1721789024[] = {
/* columns rows colors chars-per-pixel */
"64 64 225 2 ",
"   c #010000",
".  c #0A0202",
"X  c #140606",
"o  c #1A0707",
"O  c #1B0909",
"+  c #240B0B",
"@  c #2C0D0D",
"#  c #340F0F",
"$  c #281111",
"%  c #361414",
"&  c #3B1111",
"*  c #2E2323",
"=  c #3B2728",
"-  c #481A19",
";  c #551F1F",
":  c #492522",
">  c #552525",
",  c #5B2525",
"<  c #5B2A2A",
"1  c #4D342A",
"2  c #553928",
"3  c #652C2C",
"4  c #6F3735",
"5  c #757C08",
"6  c #544532",
"7  c #64452B",
"8  c #684536",
"9  c #6C4B34",
"0  c #1E2C5F",
"q  c #192F67",
"w  c #1C3168",
"e  c #1D3778",
"r  c #2C3D6C",
"t  c #223B7B",
"y  c #593E6E",
"u  c #354E59",
"i  c #34506E",
"p  c #515F53",
"a  c #7C4A44",
"s  c #6B574F",
"d  c #7E5758",
"f  c #6C6253",
"g  c #736958",
"h  c #5E5D60",
"j  c #405D72",
"k  c #735070",
"l  c #506C6E",
"z  c #7A6868",
"x  c #726D73",
"c  c #757275",
"v  c #7A7978",
"b  c #BE593C",
"n  c #C45432",
"m  c #824C45",
"M  c #8A4E4E",
"N  c #924C55",
"B  c #825455",
"V  c #8C5151",
"C  c #86535B",
"Z  c #935353",
"A  c #B46052",
"S  c #8C5571",
"D  c #A85061",
"F  c #876E71",
"G  c #857174",
"H  c #82777A",
"J  c #B0626B",
"K  c #CC6E50",
"L  c #7B8509",
"P  c #6A8575",
"I  c #838B11",
"U  c #8C9414",
"Y  c #A79F19",
"T  c #9CA41B",
"R  c #A5AC1E",
"E  c #A8A91D",
"W  c #A79931",
"Q  c #9CA121",
"!  c #A5AB22",
"~  c #A8AB26",
"^  c #B4AD23",
"/  c #AFB12A",
"(  c #B7B42A",
")  c #BCBB2E",
"_  c #BCBA32",
"`  c #B7BA38",
"'  c #FA9A06",
"]  c #FA9B09",
"[  c #ED9D1C",
"{  c #F19913",
"}  c #FAA00E",
"|  c #F9A314",
" . c #E79F22",
".. c #CDAE2D",
"X. c #C8B12B",
"o. c #D7B734",
"O. c #EFA82C",
"+. c #F3AB33",
"@. c #F9AB34",
"#. c #E7B83B",
"$. c #FABD31",
"%. c #F9B63C",
"&. c #FAC338",
"*. c #8E9351",
"=. c #9BA146",
"-. c #B5B641",
";. c #878F72",
":. c #AE8878",
">. c #CDB64F",
",. c #EBA342",
"<. c #E4BE49",
"1. c #F4BC42",
"2. c #FCBB43",
"3. c #E5B95A",
"4. c #E5BA5B",
"5. c #D59C62",
"6. c #D9B569",
"7. c #CBB271",
"8. c #D9B977",
"9. c #B3C352",
"0. c #B0C970",
"q. c #FAC945",
"w. c #F3CB54",
"e. c #E4C069",
"r. c #1E3B81",
"t. c #223E83",
"y. c #264389",
"u. c #2B4A95",
"i. c #294996",
"p. c #355190",
"a. c #2D50A3",
"s. c #3253A4",
"d. c #3759A9",
"f. c #3659AD",
"g. c #375BB1",
"h. c #3A5DB4",
"j. c #3D61B6",
"k. c #3D62BC",
"l. c #5F5390",
"z. c #596E98",
"x. c #6A788C",
"c. c #747D98",
"v. c #565BA2",
"b. c #566BA7",
"n. c #4967B6",
"m. c #4466BE",
"M. c #526EB9",
"N. c #5973B7",
"B. c #6B7BA6",
"V. c #6779B3",
"C. c #3F65C1",
"Z. c #4065C0",
"A. c #867A87",
"S. c #9E7097",
"D. c #7C8D8F",
"F. c #7D8397",
"G. c #5D85BA",
"H. c #7887A7",
"J. c #718FAE",
"K. c #749CB5",
"L. c #76A5B9",
"P. c #7EB2BC",
"I. c #7AAFC2",
"U. c #878587",
"Y. c #8E8A8A",
"T. c #928B8D",
"R. c #8A8B95",
"E. c #8F9192",
"W. c #95949A",
"Q. c #9B999E",
"!. c #B7AB97",
"~. c #868CA9",
"^. c #8894A5",
"/. c #8D92AC",
"(. c #9597A7",
"). c #9C9CA3",
"_. c #9D9EAB",
"`. c #8C95B3",
"'. c #A09FA4",
"]. c #9CA3A8",
"[. c #84B1B6",
"{. c #A3A1A6",
"}. c #A9A5A6",
"|. c #ACA9A7",
" X c #A7A6AB",
".X c #B6B2AA",
"XX c #C98E8D",
"oX c #C9B58C",
"OX c #D2B0AA",
"+X c #E2BFB7",
"@X c #9ED18E",
"#X c #B0CC90",
"$X c #B5D898",
"%X c #9FDDBB",
"&X c #B4D6A8",
"*X c #ACD6B5",
"=X c #B8E1B8",
"-X c #C9DAA6",
";X c #85BCC2",
":X c #8AC6CA",
">X c #9BD6C9",
",X c #8FD2D2",
"<X c #95DAD4",
"1X c #9ADDD5",
"2X c #A4DCC6",
"3X c #9DE1C9",
"4X c #9AE1D7",
"5X c #97E2D8",
"6X c #9BE1D8",
"7X c #B6E7C9",
"8X c #A3E4DA",
"9X c #A7E4DB",
"0X c #B3E8DC",
"qX c #A9E7E0",
"wX c #ADEAE2",
"eX c #B2EBE4",
"rX c #B9E8E2",
"tX c #CCCAC9",
"yX c #EAD8D2",
"uX c #C5ECE7",
"iX c #CDF1EC",
"pX c #D5F1EE",
"aX c #DBF4F1",
"sX c #E4F5F3",
"dX c #E9F4F2",
/* pixels */
" X X X X X X X X X X X X X X X X X X X X X X X X X X X X X X X X X X X(.~. X X X X X X X X X X X X X X X X X X X X X X X X X X X",
" X X X X X X X X X X X X X X X X X X X X X X X X X X X X X X X X X X XB.~. X X X X X X X X X X X X X X X X X X X X X X X X X X X",
" X X X X X X X X X X X X X X|. X X X X X X X X X X X X X X X X X X X/.n.~. X X X X X X X X X X X X X X X X X X X X X X X X X X X",
" X X X X X X X X X X X X X X X X X X X X X X X X X X X X X X X X X XV.m./. X X X X X X X X X X X X X X X X X X X X X X X X X.X X",
" X X X X X X X X X X X X X X X X X X X X X X X X X|. X X X X X X X^.m.m./. X X X X X X X X X X X X X X X X X X X X X X X X X X X",
" X X X X X X X X X X X X X X X X X X X X X X X X X X X X X X X X{.V.k.m./. X X X X X X X X X}. X X X X X X X X X X X X X X X X X",
" X X X X X X X X X X X X X X X X X X X X X X X X X X X X X X X X~.m.k.m._. X X X X X X X X X X X X X X X X X X X X X X X X X X X",
" X X X X X X X X X X X X X X X X X X X X X X X X X X X X X X X XN.C.i.n.(. X X X X X X X X X X X X X X X X X X X X X X X X X X X",
" X X X'.c.R.~.(._._.(.].].{.}. X X X X{. X X X X X X X X X X X~.m.f.w n.(. X X X X X X X X}. X X X X X X X X X X X X'. X X X X X",
" X X X'.b.K.[.L.K.K.H.H.H.^.F.^.^.^.].].).).{.]. X X X X X X_.M.k.t 0 n.`.* # @ @ @ @ @ @ # @ @ @ @ @ @ @ @ @ @ $ % $ @ O h  X X",
" X X X'.J.2X6X4X1X1X>X<X<X<X,X:X[.P.L.L.K.K.J.H.H.H.J.^.~.^.H.C.h.w e n._.= % O @ @ @ @ + o + o o + O + + + $ @ @ @ + @ & h  X X",
" X X X'.c.1X6X6X6X1X5X4X6X4X5X5X5X4X5X4X4X1X1X,X;X;X:X:X;Xz.m.C.d.y.t.n._.= @ O 3 < , < - . - + + - . + - + < 3 4 > - X # h  X X",
" X X X XH.1X1X1X1X1X1X8X5X5X6X4X4X5X4X4X4X4X6X5X5X5X4X4X1XL.h.f.i.i.t.M.{.: @ O < X   . .   + 3 ; &   $ <   . $ > . . X # h  X X",
" X X X XA.>X6X1X8X2X#X#X*X6X6X4X4X4X4X6X4X4X4X4X6XeXuXrX8XK.C.t.t.k y M.).= @ O 4 > > > %   . , 3 .   + <     $ >     X # h  X X",
" X X X Xc.:X8X1X2X>.{ { >.2X4X4X4X4X4X4X4X4X6XiXaXdXdXsXiXI.n.0 y N y N._.= $ O 3 O O O O   . , 4 X   $ <     $ >     X # h  X X",
" X X X XB.;X1X1X&X[ ' ' { #X6X4X4X4X4X4X4X4X4XeXiXpXpXuXrX`.v.k A n N N._.: @ O <           % : - -   + <     $ <     X # h  X X",
" X X X XB.;X1X1X&X .' ]  .$X8X4X4X4X4X4X4X4X4X4X6X8X8X4X1XL.S.A ,.XXk V.{.= @ O <         X , O . 3 o + <     $ >     X # h  X X",
" X X X XR.;X6X1X3X7. . .6.2X4X4X4X4X4X4X4X4X4X4X4X4X4X4X1XL.J 5.yX+Xk V.{.= @ O 4 : : : % - -     @ ; @ ,     + >     X # h  X X",
" X X X X~.:X1X6X4X2X&X&X>X1X4X4X4X4X4X4X4X4X4X4X5X5X4X4X4XL.J yXyX+XS V. X= @ . # % # % @ + X . . . + X + . . X O . . O # h  X X",
" X X X X^.;X6X6X5X4X1X4X1X4X4X4X4X5X4X4X4X4X4X4X4X4X4X1X1XI.XXyX.XOXk V. X* - & & & & & & & & & & & & & & & & & & & & & @ h  X X",
" X X X X).;X4X4X5X5X4X4X4X4X4X5X6X6X4X4X1X6X6X6X1X6X4X4X6XG.XXtXtXOXk V. XU.c c c c c c c c c c c c c c c c c c c c c c c Y. X X",
" X X X X].;X4X4X6X6X4X4X6X4X4X5X8X1X8X9X0XrXuX0X9X8X4X4X1XG.XX|.tXOXS V. X X X X X X X X X X X X X X X X X X X X X X X X X X X X",
" X X X X].P.4X5X4X4X4X5X8X0XuXiXiXpXpXsXsXsXdXsXsXiX0X9X1XG.XXtXdXK S J. X X X X X X X X X X X X X X X X X X X X X X X X X X X X",
" X X X{.].P.4X4X4X4X4X4XrXsXdXdXdXdXdXdXdXdXdXdXdXdXdXuX6XG.S.yXXXK l.~. X X X X X X X X X X X X X X X X X X X X X X X X X X X X",
" X X X X].P.5X1X4X4X4X5X9XiXsXdXdXdXdXdXdXdXdXsXaXsXdXaXqXG.J J n D v.H. X X X X X X X X X X X X X X X X X X X X X X X X X X X X",
" X X X X].L.5X5X4X4X4X4X4X8X0XuXpXpXaXaXpXiXuXwX9X0XuXuX6XG.D b D t.v.~. X X X X X X X X X X X X X X X X X X X X X X X X X X X X",
" X X X X].K.1X4X6X5X4X4X4X5X5X5X3X8X8X8X8X6X4X4X1X4X1X1X,XN.S k p.t.n./. X X X X X{.U.v  X X X X X X X X X X X X X X X X X X X X",
" X X X X].K.1X4X6X5X4X4X4X5X6X5X6X4X1X1X6X1X4X4X6X1X4X4XI.h.v.y.u.t.n.(. X X X X).H 8 s {. X{. X{. X{.{.{. X{.}. X{. X X X X X X",
" X X X X XK.1X4X4X4X6X4X5X6X5X5X4X4X4X4X4X4X4X4X6X6X4X4XI.k.i.y.i.r.n._. X X XR.z Z 9 6 g B g f f s g g f g g g g g g U. X X X X",
" X X X X{.K.qXwXwXeXwX9X9X9XqX8X8X8X4X4X4X4X4X4X4X4X6X6XL.j.i.f.f.t n._. X_.A.C Z Z V m m m m M m 9 m 9 m 9 m m a m 1 U. X X X X",
" X X X X{.K.0X0XeXeX0XwXwXqX9X9X8X6X4X4X5X4X4X4X6X6XqX6XK.j.i.j.h.t.n.'.'.G V Z Z Z Z Z Z Z Z Z Z Z N Z Z Z Z Z Z a 6 _. X X X X",
" X X X X XK.>X8X4X6X5X4X6X6X5X6X5X4X4X6X8X9XwXwXeXeXwXwXL.g.a.i.h.s.n.W.F V Z Z Z Z Z Z Z Z Z Z Z Z Z Z Z Z Z Z Z 1 c  X X X X X",
" X X X X}.K.,X6X5X5X5X5X4X4X4X5X5X4XwXeXeXeXeXeXeXeXeXeXL.k.g.q h.C.n.z M Z Z Z Z Z Z Z Z Z Z Z Z Z Z Z Z Z Z Z m 6 W.|. X X X X",
" X X X X X^.,X5X3X%X%X3X4X4X6X8XwXwXeXeXeXeXeXeXeXeXeXeXL.k.y.e s.h.v.C V Z Z Z Z Z Z Z Z Z Z Z Z Z Z Z Z Z Z Z a 7 E.|. X X X X",
" X X X X X^.I.3X@X9.0.@X8X9XeXeXeXeXeXeXeXeXeXeXeXeXwXwXL.g.e i.t i v.U.B Z Z Z Z Z Z Z Z Z Z Z Z Z Z Z Z Z Z Z V 7 g }. X X X X",
" X X X}.}.(.[.@X0.9.0.$X7X7X=X&X-X$X$X$X$X-X$X=X7X7XwX8XK.a.r.a.w j b.{.R.d Z Z Z Z Z Z Z Z Z Z Z Z Z Z Z Z Z Z Z m 9 E. X X X X",
" X X X X X(.[.0.@X0.#X9.9.9.>.<.q.o.` ` ` ` ` 9.9.9.9.0.D.f.y.t t j b.D.).W.z Z Z Z Z N Z V V Z Z Z Z Z Z Z Z Z Z Z 7 f ]. X X X",
" X X X X}.(.E.0.9.` ` ` ) ) o.&.%.X.` ` ) ) _ _ ) ) _ _ P g.i p u j i P v ].Q.F V Z m s z F F H F F F F G G G G G G z v {. X X X",
" X X X X X).E.` ) ) ( ! ) _ o.1.&.o.) ) ) ) _ _ _ ) _ _ D.f.p l u u i P l ]. X{.A.C 4 p '.}. X X X X X X X{. X X X X X}. X X X X",
" X X X X X].;.) ) ` R U ( / ( #.1.&.( ( ( ) ) ) ( ) _ _ D.h.u p u u j P g {. X X}.W.g A. X}. X X X X X X X X X X X X X X X X X X",
" X X X X X).U.` _ ) U L T ! R o.1.2.o.R R R / T L ` _ ) P k.p.i p.j G.P U. X X X X X X X X X X X X X X X X X X X X X X X X X X X",
" X X X X X Xc.` ) R U U T R ^ o.2.2.%.^ R R R I L ! ( ` x.h.s.s.d.l H.'. X X X X X X X X X X X X X X X X X X X X X X X X X X X X",
" X X X X X).R.-./ R R E R R X.%.%.2.1.X.! R T L L T ! / x.f.a.f.y.j ^. X X X X X X X X X X X X X X X X X X X X X X X X X X X X X",
" X X X X X Xx.=.R R R R ^ o.q.%.2.2.1.( ! ! U L L L Q ! x.f.i.s.u i /. X X X X X X X X X X X X X X X X X X X X X X X X X X X X X",
" X X X X X Xc.*.R R R ^ o.2.2.2.2.2.o.^ R ! I 5 L I ! ! x.g.e y.r i /. X X X X X X X].). X X X X X X X X X X X X X X X X X X X X",
" X X X X X Xx.*.! R ^ o.2.2.2.2.2.1.X.R R R U L L L T ~ z.d.e w a.d./. X X X X X XU.6 v  X X X X X X X X X|. X X X X X X X X X X",
" X X X X X XF.*.R R X.1.2.2.2.2.2.#.E E R R T Q T U Q ~ z.f.y.e s.m./. X X X XQ.z B 2 g E.Y.U.U.U.Y.U.Y.Y.Y.T.U.Y.T.E.'. X X X X",
" X X X X X XR.*.! ! #.2.2.2.2.2.2.o.R R R R R R ! ! ~ Q z.s.r.i.s.m./. X X XT.d V V 4 7 8 9 7 8 7 2 7 7 6 7 7 7 7 7 6 E. X X X X",
" X X X X X XR.;.E ^ #.1.1.2.2.2.2.o.~ R R R ! ! E R R ~ z.s.y.i.s.m.(. X XH d Z Z Z Z Z Z Z Z Z V Z V Z Z V Z V Z 8 p Q.'. X X X",
" X X X X X XR.P R R o.%.2.2.2.2.2.#.X.E R R T E ! E R ~ B.i.t y.u.m.(.Q.H M V Z Z Z Z Z Z Z Z Z Z Z Z Z Z Z Z Z V : v  X X X X X",
" X X X X X X(.;.R E X.%.2.2.%.%.@.2.+.X.E Y E E ! ! R ~ B.s.e i.u.m.~.F M Z Z Z Z Z Z Z Z Z Z Z Z Z Z Z Z Z Z Z 8 6 Q. X X X X X",
" X X X X X X).;.E E O.$.@.@.@.@.@.@.+.@...E Y Y E T ! ~ V.k.a.t.u.n.x M Z Z Z Z Z Z Z Z Z Z Z Z Z Z Z Z Z Z Z Z 4 f ]. X X X X X",
" X X X X X X).x.Y ..+.2.@.@.,.O.,.,.,.@.,...W *.*.*.*.;.V.C.h.t.y.M.A.d N Z Z Z Z Z Z Z Z Z Z Z Z Z Z Z Z Z Z Z 9 7 E.}. X X X X",
" X X X X X X'.z.G :.:.J :.:.A.A.A.A.F S.S.T.S.R.U.U.(._.H.m.Z.i.y.N._.(.z V Z Z Z Z Z Z Z Z Z Z Z Z Z Z Z Z Z Z V 7 g '. X X X X",
" X X X X X X XR.R.(.(.Q.Q.'.W.).'.'.}.}.}. X X X X X X X{.N.m.h.g.M.]. X).z V Z Z Z Z Z Z Z Z Z Z Z Z Z Z Z Z Z Z a 7 H  X X X X",
" X X X X X X X X X|..X!.oXoX8.8.8.e.e.e.e.8.8.8.8.oXoXoX.X~.m.k.C.N.{. X X).H B V Z M m a d B B B B d B B d B B B B s z  X X X X",
" X X X X X X}..XoXoX4.%.O.| | ] ] } } ] } } } | | | | %.w.8.J.C.C.N._. X X X XR.B Z 1 h Q.Q.Q.Q.Q.Q.'.Q.Q.Q.Q.].'.Q.Q.].}. X X X",
" X X X X X X|.oXq.&.| ] ' ' ' ' ' ' ' ' ' ' ' ' ] ] } | &.q.oXm.C.N._. X X X X XQ.z 1 U. X}. X X X X|. X X X X X X}. X X X X X X",
" X X X X X X!.4.q.q.q.$.$.$.&.$.$.$.$.$.$.$.$.$.&.&.&.q.q.q.4.A.C.N. X X X X X X X{.W.{. X X X X X X X X X X X X X X X X X X X X",
" X X X X X X X!.oX7.7.6.4.4.4.4.4.4.4.4.4.4.4.4.4.6.5.7.7.!.!._.M.V. X X X X X X X X X X X X X X X X X X X X X X X X X X X X X X",
" X X X X X X X X X X X X}.}.}.}. X|. X}.}.}.}.}. X}. X X X X X X~.V. X X X X X X X X X X X X X X X X X X X X X X X X X X X X X X",
" X X X X X X X X X X X X X X X X X X X X X X X X X X X X X X X X X_. X X X X X X X X X X X X X X X X X X X X X X X X X X X X X X",
" X X X X X X X X X X X X X X X{.V.`. X X X X X X X X X X X X X X X X X X X X X X X X X X X X X X X X X X X X X X X X X X X X X X",
" X X X X X X X X X X X X X X X XM.M.`. X X X X X X X X X X X X X X X X X X X X X X X X X X X X X X X X X X X X X X X X X X X X X"
};
