/* XPM */
static char *Close4H1721789024[] = {
/* columns rows colors chars-per-pixel */
"64 64 225 2 ",
"   c #010000",
".  c #0D0303",
"X  c #130505",
"o  c #1C0707",
"O  c #1E0808",
"+  c #240909",
"@  c #2A0D0D",
"#  c #340E0E",
"$  c #380F0F",
"%  c #2C1212",
"&  c #351111",
"*  c #391717",
"=  c #451C1C",
"-  c #571D1A",
";  c #6B1B12",
":  c #742C19",
">  c #492121",
",  c #542424",
"<  c #5A2323",
"1  c #523C32",
"2  c #6C2F29",
"3  c #6A3131",
"4  c #757C08",
"5  c #5A422C",
"6  c #674B2B",
"7  c #1E2C5F",
"8  c #1B3168",
"9  c #1D3778",
"0  c #2C3D6C",
"q  c #223B7B",
"w  c #593E6E",
"e  c #354E59",
"r  c #34506E",
"t  c #525D52",
"y  c #685B4C",
"u  c #6F634E",
"i  c #746656",
"p  c #405D72",
"a  c #734D72",
"s  c #506C6E",
"d  c #736E6D",
"f  c #727275",
"g  c #7B7978",
"h  c #9B1D17",
"j  c #AB1A1A",
"k  c #BB1C1D",
"l  c #8B2719",
"z  c #85351C",
"x  c #B7221D",
"c  c #872F2C",
"v  c #BF2B31",
"b  c #BC3238",
"n  c #C61B1E",
"m  c #C7211F",
"M  c #DA1D24",
"N  c #E41B23",
"B  c #EC1C24",
"V  c #CD252D",
"C  c #C23339",
"Z  c #BE593C",
"A  c #C45432",
"S  c #954D56",
"D  c #AB494C",
"F  c #B05B5D",
"G  c #9B5C63",
"H  c #885671",
"J  c #9B6468",
"K  c #96767B",
"L  c #AC6169",
"P  c #CC6E50",
"I  c #7B8509",
"U  c #6A8575",
"Y  c #838B11",
"T  c #899011",
"R  c #8C9414",
"E  c #A79F19",
"W  c #9CA41B",
"Q  c #A5AC1E",
"!  c #A8A91D",
"~  c #A79931",
"^  c #9CA121",
"/  c #A5AB22",
"(  c #A8AB26",
")  c #B4AD23",
"_  c #AFB12A",
"`  c #B7B42A",
"'  c #BCBB2E",
"]  c #BCBA32",
"[  c #B7BA38",
"{  c #FA9A06",
"}  c #FA9B09",
"|  c #F19913",
" . c #FAA00E",
".. c #F9A314",
"X. c #E79F22",
"o. c #CBAF2C",
"O. c #D7B734",
"+. c #EFA82C",
"@. c #F3AB33",
"#. c #F9AB34",
"$. c #E7B83B",
"%. c #FABD31",
"&. c #F9B63C",
"*. c #FAC338",
"=. c #8E9351",
"-. c #9BA146",
";. c #878F72",
":. c #AE8878",
">. c #CDB64F",
",. c #EBA342",
"<. c #F4BC42",
"1. c #FCBB43",
"2. c #E5B95A",
"3. c #E5BA5B",
"4. c #D59C62",
"5. c #D9B569",
"6. c #CBB271",
"7. c #D9B977",
"8. c #B3C352",
"9. c #B0C970",
"0. c #FAC945",
"q. c #F3CB54",
"w. c #E4C069",
"e. c #1E3B81",
"r. c #223E83",
"t. c #264389",
"y. c #2B4A95",
"u. c #294996",
"i. c #355190",
"p. c #2D50A3",
"a. c #3253A4",
"s. c #3759A9",
"d. c #3659AD",
"f. c #375BB1",
"g. c #3A5DB4",
"h. c #3D61B6",
"j. c #3D62BC",
"k. c #5F5390",
"l. c #596E98",
"z. c #67778E",
"x. c #7D7C80",
"c. c #737B88",
"v. c #747D98",
"b. c #555CA5",
"n. c #5A6FA5",
"m. c #4967B6",
"M. c #4466BE",
"N. c #526EB9",
"B. c #5973B7",
"V. c #6B7BA6",
"C. c #6779B3",
"Z. c #3F65C1",
"A. c #4065C0",
"S. c #867888",
"D. c #987988",
"F. c #7C8D8F",
"G. c #7D8397",
"H. c #5D85BA",
"J. c #7887A7",
"K. c #718FAE",
"L. c #749CB5",
"P. c #76A5B9",
"I. c #7EB2BC",
"U. c #7AAFC2",
"Y. c #8A8888",
"T. c #948A8D",
"R. c #8A8B95",
"E. c #919293",
"W. c #97949A",
"Q. c #9D999E",
"!. c #A9838B",
"~. c #B7AB97",
"^. c #868CA9",
"/. c #8894A5",
"(. c #8D92AC",
"). c #9597A7",
"_. c #9C9CA2",
"`. c #9D9EAB",
"'. c #8C95B3",
"]. c #A09FA4",
"[. c #9CA3A8",
"{. c #84B1B6",
"}. c #A3A1A6",
"|. c #A9A5A6",
" X c #ACA9A7",
".X c #A7A6AB",
"XX c #B6B2AA",
"oX c #C98E8D",
"OX c #C9B58C",
"+X c #D2B0AA",
"@X c #E2BFB7",
"#X c #9ED18E",
"$X c #B2D194",
"%X c #9FDDBB",
"&X c #B4D6A8",
"*X c #ACD6B5",
"=X c #B8E1B8",
"-X c #CFD3A8",
";X c #85BCC2",
":X c #8AC6CA",
">X c #9BD6C9",
",X c #8FD2D2",
"<X c #95DAD4",
"1X c #9ADDD5",
"2X c #A4DCC6",
"3X c #9DE1C9",
"4X c #9AE1D7",
"5X c #97E2D8",
"6X c #9BE1D8",
"7X c #B6E7C9",
"8X c #A3E4DA",
"9X c #A7E4DB",
"0X c #B3E8DC",
"qX c #A9E7E0",
"wX c #ADEAE2",
"eX c #B2EBE4",
"rX c #B9E8E2",
"tX c #CCCAC9",
"yX c #EAD8D2",
"uX c #C5ECE7",
"iX c #CDF1EC",
"pX c #D5F1EE",
"aX c #DBF4F1",
"sX c #E4F5F3",
"dX c #E9F4F2",
/* pixels */
".X.X.X.X.X.X.X.X.X.X.X.X.X.X.X.X.X.X.X.X.X.X.X.X.X.X.X.X.X.X.X.X.X.X.X).^..X.X.X.X.X.X.X.X.X.X.X.X.X.X.X.X.X.X.X.X.X.X.X.X.X.X.X",
".X.X.X.X.X.X.X.X.X.X.X.X.X.X X.X.X.X.X.X.X.X.X.X.X.X.X.X.X.X.X.X.X.X[.J.J..X.X.X.X.X.X.X.X.X.X.X.X.X.X.X.X.X.X.X.X.X.X.X.X.X.X.X",
".X.X.X.X.X.X.X.X.X.X.X.X.X.X.X.X.X.X.X.X.X.X.X.X.X.X.X.X.X.X.X.X.X.X(.m.(..X.X.X.X.X.X.X.X.X.X.X.X.X.X.X.X.X.X.X.X.X.X.X.X.X.X.X",
".X.X.X.X.X.X.X.X.X.X.X.X.X.X.X.X.X.X.X.X.X.X.X.X.X.X.X.X.X.X.X.X.X.XC.M.(..X.X.X.X.X.X.X.X.X.X.X.X.X.X.X.X X.X.X.X.X.X.XXX.X.X.X",
".X.X.X.X.X.X.X.X.X.X.X.X.X.X.X.X.X.X.X.X.X.X.X.X.X.X.X.X.X.X.X.X.X(.M.M.(..X.X.X.X.X.X.X.X.X.X.X.X.X.X.X.X.X.X.X.X.X.X.X.X.X.X.X",
".X.X.X.X.X.X.X.X.X.X.X.X.X.X.X.X.X.X.X.X.X.X.X.X.X.X.X.X.X.X.X.X_.C.M.M.(..X.X.X.X.X.X.X.X.X.X.X.X.X.X.X.X.X.X.X.X.X.X.X.X.X.X.X",
".X.X.X.X.X.X.X.X.X.X.X.X.X.X.X.X.X.X.X.X.X.X.X.X.X.X.X.X.X.X.X.X^.M.Z.M.)..X.X.X.X.X.X.X.X.X.X.X.X.X.X.X.X.X.X.X.X.X.X.X.X.X.X.X",
".X.X.X.X.X.X.X.X.X.X.X.X.X.X.X.X.X.X.X.X.X.X.X.X.X.X.X X.X.X.X.XB.j.y.m.)..X.X.X.X.X.X.X.X.X.X.X.X.X.X.X.X.X.X.X.X.X.X.X.X.X.X.X",
".X.X.X].J.S.R.(.`.`.W.[.[..X.X.X|..X.X}..X.X|..X.X.X.X.X.X.X.X^.M.d.8 m.`._._._._._._.Q._._._.Q._._.Q._._.Q._._.`._._._._..X.X.X",
".X.X.X_.n.L.{.U.L.L.J.J.J./.G./././.[.[.`._.}.[..X.X.X.X.X.X`.N.j.q 7 m.'.o # # # # # # & & # # # # # & # # # & & & # $ X f .X.X",
".X.X.X`.K.8X6X6X1X1X>X<X<X<X,X:X{.I.P.P.L.L.K.J.V.J.K./././.J.Z.g.8 9 m.`.+ @ o @ @ @ @ O X + X X + X O X + % @ @ @ o @ + f .X.X",
".X.X.X`.v.2X6X6X6X1X5X6X6X5X5X5X4X4X4X4X5X1X<X,X:X:X:X:X;Xl.M.Z.d.t.r.m.`.+ O % 3 , , , &   - + @ =   & * % , 3 3 , % O + f .X.X",
".X.X.X.X^.>X1X1X5X6X1X1X4X6X4X4X5X6X4X6X4X6X4X5X5X<X4X4X1XL.Z.f.y.y.q B.}.+ + % , . . .     @ < < +   * >     * =     o + f .X.X",
".X.X.X.Xv.>X6X1X4X2XOX$X*X6X4X5X6X4X6X6X4X5X4X8X8X0XuXrX8XL.g.r.r.a w m._.+ + % 3 , , , &   . 3 - .   * >     * >     o + d .X.X",
".X.X.X.Xv.:X6X6X2X>.| | >.2X4X4X5X4X4X4X4X4X4XuXaXsXsXsXpXU.M.7 a S w B.}.+ + % < X X X .   O 2 2 .   * >     * =     + + f .X.X",
".X.X.X.Xv.;X6X1X&XX.{ { | $X1X5X4X4X4X4X4X4X4XrXiXpXpXuXrX'.b.H D Z S N..X@ O % ,           = * = *   * >     * >     + + f .X.X",
".X.X.X.Xv.{.6X6X&XX.{ } X.$X4X4X4X4X4X4X6X4X4X4X6X8X8X4X4XP.D.L P 4.a C..X+ + % ,         + < X X 2 X * >     * >     o + f .X.X",
".X.X.X.XJ.;X6X1X3X6.X.X.5.2X6X4X4X4X4X4X4X4X6X4X6X1X1X4X1XP.L P yX@XH C..X+ O % 3 , , , & - @     * = % =     & =     + + f .X.X",
".X.X.X.X^.:X6X6X4X2X&X&X2X3X6X5X4X4X4X4X6X4X4X4X5X5X5X6X1XL.P yXyX@XH H.}.+ @ o & & & & @ + X X X X + o + . . o O . X + + f .X.X",
".X.X.X.X/.;X6X6X4X4X4X4X5X4X6X4X4X4X4X4X4X4X5X4X5X4X6X6X4XU.oXpXXX+Xa C..XX $ & & & & $ & & & & & # & & & $ & & & & & * o f .X.X",
".X.X.X.X_.:X4X4X4X4X4X5X6X4X6X5X6X6X4X4X4X6X1X6X1X6X6X6XqXH.oXtXtX+Xk.J..Xx.x.x.x.x.x.x.x.x.x.x.g x.S.x.x.x.x.x.x.x.g F.K _..X.X",
".X.X.X.X[.{.5X4X6X6X4X4X4X4X6X6X8X1X8X9X0XrXuXrX9X8X6X6X<XB.oX.XtX+XH V..X.X.X.X.X.X.X.X.X.X.X.X.X.X.X.X.X.X.X.X.X.X.X.X[..X.X.X",
".X.X.X.X[.I.4X5X6X6X4X5X8X0XuXiXiXpXpXsXsXsXsXsXsXiXrX6X1XH.oXtXdXP H ^..X.X.X.X.X.X.X.X.X.X.X.X.X.X.X.X.X.X.X.X.X.X.X.X.X.X.X.X",
".X.X.X}.[.I.4X4X5X6X6X5X0XsXdXsXdXdXdXdXdXdXdXdXdXdXsXuX6XH.D.yXoXP k.'..X.X.X.X.X.X.X.X.X.X.X.X.X.X.X.X.X.X.X.X.X.X.X.X.X.X.X.X",
".X.X.X.X[.P.5X5X4X4X4X4X9XiXsXdXdXdXdXdXdXdXdXsXaXsXsXsXqXH.L P A F b.J.`..X.X.X.X.X.X.X.X.X.X.X.X.X.X.X.X.X.X.X.X.X.X.X.X.X.X.X",
".X.X.X.X[.P.5X5X4X4X4X5X5X8X0XuXpXpXaXaXpXiXuX0X9X0XrXuX6XH.L D F r.b.^..X.X.X.X.X.X.X.X.X.X.X.X.X.X.X.X.X.X.X.X.X.X.X.X.X.X.X.X",
".X.X.X.X[.L.1X4X4X6X4X4X5X5X6X6X8X8X8X8X8X4X6X6X6X6X4X1X,XN.H a r.r.m.(..X.X.X.X.X}.Y.g .X.X.X.X.X.X.X.X.X.X.X.X.X.X.X.X.X.X.X.X",
".X.X.X.X[.L.1X4X4X4X4X4X6X6X6X5X4X4X4X>X6X6X6X6X6X1X6X6XU.g.k.y.a.r.m.(..X.X.X.XW.J c y }..X}..X.X}.}.}.[..X|.|.}..X.X.X.X.X.X.X",
".X.X.X.X.XL.1X8X8X6X6X4X4X4X5X6X5X4X4X4X4X4X5X5X4X4X4X5XU.h.y.t.y.e.m.`..X.X.XT.D N h 5 i i i y y y u u y i i i i i i Y..X.X.X.X",
".X.X.X.X}.L.9XwXwXwXwX9X9X9X6X9X8X6X4X4X4X4X6X6X4X4X6X5XP.h.y.d.a.q m.`..X].D.C B B M n m m m m k k x x x x x x x x ; S..X.X.X.X",
".X.X.X.X|.L.9XeXwXwXwXwXwXwX9X9X8X4X6X4X4X5X4X6X6X6X8X8XL.f.y.h.g.r.N.].`.J M B B B B B B B B B B B B B B B B B B k 1 ]..X.X.X.X",
".X.X.X.X|.L.>X8X8X4X4X4X6X6X5X6X4X4X6X6X4X9X0XwXeXeXeXwXP.f.a.y.g.a.m.W.G M B B B B B B B B B B B B B B B B B B M ; f .X.X.X.X.X",
".X.X.X.X.X/.,X5X3X5X5X5X4X4X5X5X3X8XwXeXeXeXeXeXeXeXeXeXP.h.p.8 g.Z.m.S B B B B B B B B B B B B B B B B B B B B n 1 W..X.X.X.X.X",
".X.X.X.X.XL.:X5X3X%X%X3X4X4X8X8XwXwXeXeXeXeXeXeXeXeXeXwXP.h.u.9 a.g.b.C B B B B B B B B B B B B B B B B B B B B k 6 E.|..X.X.X.X",
".X.X.X.X.X^.P.3X#X8.9.#X8X9XwXwXeXeXuXeXeXeXeXeXeXeXwXwXP.f.9 y.r.r n.K C B B B B B B B B B B B B B B B B B B B N z i |..X.X.X.X",
".X.X.X.X|.).%X#X9.8.9.$X7X7X=X&X-X$X$X$X$X&X&X=X7X7X0X9XL.p.e.p.8 r n.].D.D B B B B B B B B B B B B B B B B B B B n 6 Y..X.X.X.X",
".X.X.X.X.X)./.9.%X9.9.9.8.8.>.q.0.O.[ [ [ [ [ 8.8.8.8.9.F.f.t.9 r s l.E._.W.D M B B B B B B B N B B B B B B B B N M h y }..X.X.X",
".X.X.X.X.X)./.9.8._ ] ' ' ' O.*.*.] ] [ ] ] ] ] ] ' ] ] U d.e s r r r U f .X[.J V B V c S G J L J L J J J J J J J J J g }..X.X.X",
".X.X.X.X.X_.E.] [ ' _ / ' ] O.1.0.o.' ' ' ' ] o.] ] ] ] F.s.e U e e r U s }..X].K C h t ].|..X.X}..X.X.X}..X.X.X|.|..X|..X.X.X.X",
".X.X.X.X.X[.;.' ] ' Q R _ _ ` $.<.*.' ` _ ' ' ' ' ] ] ] F.f.e t e e p U s }..X.X.XT.S Y..X|..X.X.X.X.X.X.X.X.X.X.X|..X.X.X.X.X.X",
".X.X.X.X.X[.Y.[ ' _ R T W Q ! O.&.<.O.Q Q Q _ W Y _ ] ' U j.i.r i.p n.U Y.]..X.X.X.X.X.X.X.X.X.X.X.X.X.X.X.X.X.X.X.X.X.X.X.X.X.X",
".X.X.X.X.X}.v.[ ' Q R R W Q ! O.1.1.&.) Q Q Q Y I ^ ' [ c.g.a.a.a.p J..X.X.X.X.X.X.X.X.X.X.X.X.X.X.X.X.X.X.X.X.X.X.X.X.X.X.X.X.X",
".X.X.X.X.X_.G.[ _ Q Q Q Q ! o.<.1.1.<.o.Q Q W I I W / _ z.d.p.d.i.r '..X.X.X.X.X.X.X.X.X.X.X.X.X.X.X.X.X.X.X.X.X.X.X.X.X.X.X.X.X",
".X.X.X.X.X.Xc.-.Q / Q Q _ O.*.1.1.1.<.` / Q R I I I / ( z.d.y.p.0 p (..X.X.X.X.X.X.X.X.X.X.X.X.X.X.X.X.X.X.X.X.X.X.X.X.X.X.X.X.X",
".X.X.X.X.X.Xc.=.Q Q Q ) O.1.1.1.1.0.$.Q / / Y 4 I T / ^ z.d.9 r.e r (..X.X.X.X.X.X.X).]..X.X.X.X.X.X.X.X.X.X.X.X.X.X.X.X.X.X.X.X",
".X.X.X.X.X.Xv.=.Q ! ) O.1.1.1.1.1.$.o.! Q Q R I I I W ( l.d.9 8 y.a.'..X.X.X.X.X].D.6 U .X.X.X.X.X.X.X.X|.|..X.X.X.X.X.X.X.X.X.X",
".X.X.X.X.X.Xv.=./ Q o.<.1.1.1.1.1.$.! Q Q Q W ^ W R ^ ( l.d.t.e.a.A.'..X.X.X.X_.J V ; i T.T.Y.T.Y.Y.Y.E.E.E.E.Y.Y.T.E.Q..X.X.X.X",
".X.X.X.X.X.XG.=./ / $.1.1.1.1.1.1.O.Q Q Q ! Q Q / / ( ^ l.a.e.t.a.A.)..X.X.XT.D M B h z c z l : z : : : : z : : z z 5 E..X.X.X.X",
".X.X.X.X.X.XR.;.Q ) $.1.1.1.1.1.<.O./ Q Q Q / Q / Q Q ( l.a.t.y.a.M.(.|.}.K v B B B B B N B B B N N N N N N N N B j 1 .X.X.X.X.X",
".X.X.X.X.X.XR.U Q Q O.&.1.1.1.1.1.&.o.! ! / ! / Q Q Q ( V.y.t.t.y.M.).].J V B B B B B B B B B B B B B B B B B B M ; g .X.X.X.X.X",
".X.X.X.X.X.X).;.Q ! o.$.1.&.&.1.&.&.@.o.! E ! W / / W ( V.a.9 y.y.m.W.J V B B B B B B B B B B B B B B B B B B B j 1 Q..X.X.X.X.X",
".X.X.X.X.X.X_.;.Q ! +.%.#.#.#.#.@.@.@.@.o.E E E ! / / ( C.g.p.r.y.N.H M B B B B B B B B B B B B B B B B B B B B l y |..X.X.X.X.X",
".X.X.X.X.X.XQ.c.^ X.#.#.#.#.,.+.,.,.,.@.,.4.~ =.=.=.=.;.C.M.g.r.t.N.S.D B B B B B B B B B B B B B B B B B B B B x 6 E.|..X.X.X.X",
".X.X.X.X.X.X_.l.g :.:.K :.:.S.S.S.S.K D.!.D.D.R.Y.Y._.`.J.M.A.y.t.N._.Q.S M B B B B B B B B B B B B B B B B B B M z i [..X.X.X.X",
".X.X.X.X.X.X.X).W.).Q.).Q.].W._.}.|.|.}.|.|.]..X}..X.X.X}.B.M.g.f.N.]..XQ.J M B B B B B B B B B B B B B B B B B B n 6 Y..X.X.X.X",
".X.X.X.X.X.X.X.X.X|.XX~.OXOX7.7.7.5.w.w.w.7.7.7.7.OXOX~.XX(.M.j.A.N..X.X.XQ.K C B N M V m v C C C C b C b b C C b v c d .X.X.X.X",
".X.X.X.X.X.X|.XXOX7.3.#.+....... . .}  . . . . .....+.&.q.w.C.Z.A.B..X.X.X.X.XD.D B ; d E.W.Q.Q.Q.Q.Q.}.Q.Q.Q._.Q.Q.Q.[.|..X.X.X",
".X.X.X.X.X X XOXq.*...{ { { { { { { { { { { { { { {  ...*.0.6.N.A.B.`..X.X.X.X.XW.F < K .X.X.X.X.X.X.X.X X.X.X.X.X|..X.X.X.X.X.X",
".X.X.X.X.X.X~.3.0.0.0.%.%.%.*.%.%.%.%.%.%.%.%.%.*.*.*.*.0.q.3.R.A.B..X.X.X.X.X.X.X}.W.}..X.X.X.X.X.X.X.X.X.X.X.X.X.X.X.X.X.X.X.X",
".X.X.X.X.X.X.X~.OX6.6.5.3.2.2.3.3.3.3.3.3.3.3.3.3.5.4.6.6.~.|.`.N.C..X.X.X.X.X.X.X.X.X.X.X.X.X.X.X.X.X.X.X.X.X.X.X.X.X.X.X.X.X.X",
".X.X.X.X.X.X.X.X.X.X.X.X.X|.|.|.]..X|.|.|.|. X|.|.|..X.X.X.X.X.X'.C..X.X.X.X.X.X.X.X.X.X.X.X.X.X.X.X.X.X.X.X.X.X.X.X.X.X.X.X.X.X",
".X.X.X.X.X.X.X.X.X.X.X.X.X.X.X.X.X.X.X.X.X.X.X.X.X.X.X.X.X.X.X.X`.`..X.X.X.X.X.X.X.X.X.X.X.X.X.X.X.X.X.X.X.X.X.X.X.X.X.X.X.X.X.X",
".X.X.X.X.X.X.X.X.X.X.X.X.X.X.X.XH.`..X.X.X.X.X.X.X.X.X.X.X.X.X.X.X.X.X.X.X.X.X.X.X.X.X.X.X.X.X.X.X.X.X.X.X.X.X.X.X.X.X.X.X.X.X.X",
".X.X.X.X.X.X.X.X.X.X.X.X.X.X.X}.N.N.'..X.X.X.X.X.X.X.X.X.X.X.X.X.X.X.X.X.X.X.X.X.X.X.X.X.X.X.X.X.X.X.X.X.X.X.X.X.X.X.X.X.X.X.X.X"
};
