/* XPM */
static char *Close2E1721789020[] = {
/* columns rows colors chars-per-pixel */
"64 64 232 2 ",
"   c #020000",
".  c #0B0202",
"X  c #130606",
"o  c #160808",
"O  c #1D0909",
"+  c #250B0B",
"@  c #2D0B0B",
"#  c #370E0E",
"$  c #380E0E",
"%  c #2C1212",
"&  c #371616",
"*  c #3C1212",
"=  c #251F20",
"-  c #262021",
";  c #3D2E2F",
":  c #451717",
">  c #4A321E",
",  c #4B2221",
"<  c #592626",
"1  c #52382B",
"2  c #432F30",
"3  c #632A2A",
"4  c #623E2D",
"5  c #653232",
"6  c #673B35",
"7  c #7B3636",
"8  c #5A4E30",
"9  c #654629",
"0  c #6C4334",
"q  c #74463A",
"w  c #625435",
"e  c #0D1E49",
"r  c #0F1F4C",
"t  c #10214F",
"y  c #122454",
"u  c #15285B",
"i  c #14295E",
"p  c #3F3E40",
"a  c #142B63",
"s  c #192E67",
"d  c #1B316C",
"f  c #132F71",
"g  c #1C377A",
"h  c #203467",
"j  c #213773",
"k  c #243C7B",
"l  c #453F41",
"z  c #324954",
"x  c #3B5551",
"c  c #334D6D",
"v  c #4A4042",
"b  c #564E46",
"n  c #585555",
"m  c #595457",
"M  c #7B4846",
"N  c #6A564F",
"B  c #7B5455",
"V  c #7A5859",
"C  c #496958",
"Z  c #4F725B",
"A  c #6A6045",
"S  c #6A6458",
"D  c #736B5D",
"F  c #4D5A78",
"G  c #765F61",
"H  c #486667",
"J  c #4A6A76",
"K  c #7B6365",
"L  c #776B65",
"P  c #746D6B",
"I  c #787675",
"U  c #844D4C",
"Y  c #874E4D",
"T  c #864F50",
"R  c #8A5050",
"E  c #935353",
"W  c #817A79",
"Q  c #7B827B",
"!  c #8E9715",
"~  c #A39E18",
"^  c #9EA61D",
"/  c #A5A61B",
"(  c #A6AD1E",
")  c #BAA11E",
"_  c #A7AC23",
"`  c #A8AD2B",
"'  c #B8AD24",
"]  c #B6B62C",
"[  c #BBBB2E",
"{  c #B7B734",
"}  c #BCBB31",
"|  c #FB9704",
" . c #F79B0A",
".. c #F49A14",
"X. c #F9A918",
"o. c #D3B233",
"O. c #ECA82A",
"+. c #F8B427",
"@. c #F7AB35",
"#. c #E2B839",
"$. c #F6B43A",
"%. c #93934E",
"&. c #9CA340",
"*. c #AFB44D",
"=. c #938F6F",
"-. c #87857B",
";. c #B39372",
":. c #DC9254",
">. c #D4B04F",
",. c #ECAC4D",
"<. c #F4BC42",
"1. c #FDBB43",
"2. c #EAB658",
"3. c #C49D6B",
"4. c #C89F74",
"5. c #D6B46D",
"6. c #E5B361",
"7. c #B4C353",
"8. c #ADC971",
"9. c #F7C747",
"0. c #EFC455",
"q. c #F7CB54",
"w. c #D1C278",
"e. c #1D3C85",
"r. c #243F83",
"t. c #1E4191",
"y. c #294487",
"u. c #23428B",
"i. c #335087",
"p. c #234493",
"a. c #2B4993",
"s. c #26499B",
"d. c #24499D",
"f. c #314F9B",
"g. c #34539B",
"h. c #254BA2",
"j. c #264EA9",
"k. c #2751AE",
"l. c #2B51A8",
"z. c #3354A4",
"x. c #3A5AA5",
"c. c #3556A9",
"v. c #3759AC",
"b. c #385AAD",
"n. c #2955B7",
"m. c #2B58BE",
"M. c #3A5DB3",
"N. c #3A5EB6",
"B. c #3B60B7",
"V. c #3D62BC",
"C. c #5A799F",
"Z. c #747B91",
"A. c #4266BF",
"S. c #4669BF",
"D. c #4B6CBE",
"F. c #5372B3",
"G. c #5873BB",
"H. c #6877A9",
"J. c #7979A4",
"K. c #677BB6",
"L. c #637ABB",
"P. c #3F65C1",
"I. c #4166C0",
"U. c #4568C0",
"Y. c #4E73C1",
"T. c #897D8E",
"R. c #6A829F",
"E. c #7D849D",
"W. c #5D88AD",
"Q. c #6689AA",
"!. c #7988A5",
"~. c #6D83B6",
"^. c #7988B7",
"/. c #7096B3",
"(. c #79ACB8",
"). c #5886C3",
"_. c #6799C7",
"`. c #7795CB",
"'. c #77AACB",
"]. c #888586",
"[. c #9C8988",
"{. c #8A8B98",
"}. c #918E92",
"|. c #98969A",
" X c #A59594",
".X c #BDA484",
"XX c #BDA88A",
"oX c #B6A999",
"OX c #B5AC9D",
"+X c #868AA3",
"@X c #8B93A8",
"#X c #9E9DA4",
"$X c #9498A9",
"%X c #9C9EAC",
"&X c #838EB2",
"*X c #8A93B2",
"=X c #959AB0",
"-X c #A09FA4",
";X c #9DA1AD",
":X c #84A9BB",
">X c #9DA0B0",
",X c #A2A1A6",
"<X c #ABA7A6",
"1X c #A7A6AB",
"2X c #ACA9A8",
"3X c #C5B18B",
"4X c #9FD49B",
"5X c #B1D396",
"6X c #ABCFA8",
"7X c #AAD7B8",
"8X c #B4E0B3",
"9X c #8098CE",
"0X c #83B9C2",
"qX c #8AC9C8",
"wX c #8ED1CF",
"eX c #9ADCC7",
"rX c #96DCD4",
"tX c #99DDD5",
"yX c #A1DEC7",
"uX c #A1DFD1",
"iX c #9DE0C9",
"pX c #96E2D7",
"aX c #9AE1D7",
"sX c #9AE1D8",
"dX c #A5E6DD",
"fX c #A9E6DB",
"gX c #B0E7D5",
"hX c #ACEAE1",
"jX c #B3EAE3",
"kX c #CCEEEA",
"lX c #E4F1EF",
"zX c #E5F5F1",
/* pixels */
"1X1X1X1X1X1X2X1X1X1X1X1X1X1X1X1X*X&X1X1X1X1X1X1X1X1X1X1X1X1X1X1X1X1X1X1X1X1X1X1X1X1X1X1X1X1X1X1X1X1X1X1X1X1X1X1X1X1X1X1X1X1X1X1X",
"1X1X1X1X1X1X1X1X1X1X1X1X1X1X1X1X&XA.K.>X1X1X1X1X1X1X1X1X1X1X1X1X1X1X1X1X1X1X1X1X1X1X1X1X1X1X1X1X1X1X1X1X1X1X1X2X1X1X1X1X1X1X1X1X",
"1X1X1X1X1X1X1X1X1X1X1X1X1X1X1X1X*XA.I.G.=X1X1X1X1X1X1X1X1X1X1X1X2X1X1X1X1X1X1X1X1X1X1X1X1X1X1X1X1X1X1X1X1X1X1X1X1X1X1X1X1X1X1X1X",
"1X1X1X1X1X1X1X1X1X1X1X1X2X1X1X1X*XA.I.P.D.*X1X1X1X1X1X1X1X1X1X1X1X1X1X1X1X1X1X1X1X1X1X1X1X1X2X1X1X1X1X1X1X1X1X1X1X1X1X1X1X1X1X1X",
"1X1X1X1X1X1X1X1X1X1X1X1X1X1X1X1X@XA.A.P.P.U.^.;X1X1X1X1X1X1X1X1X1X1X1X1X1X1X1X1X1X1X1X1X1X1X1X1X1X1X1X1X1X1X1X1X1X1X1X1X1X1X1X1X",
"1X1X1X1X1X1X1X1X1X1X1X1X1X1X1X1X*XA.P.P.I.P.V.L.=X1X1X1X1X1X1X1X1X1X1X1X1X1X1X2X1X1X1X1X1X1X1X1X1X1X1X2X1X1X1X1X1X1X1X1X1X1X1X1X",
"1X1X1X1X1X1X1X1X1X1X1X1X1X1X1X1X*XS.A.v.B.P.P.P.G.*X>X1X1X1X1X1X1X1X1X1X1X1X1X1X1X1X1X1X1X1X1X1X1X1X1X1X1X1X1X1X1X1X1X1X1X1X1X1X",
"1X1X1X1X1X1X1X1X1X1X1X1X1X1X1X1X=XS.V.y d V.P.P.P.U.^.%X1X1X1X1X1X1X1X1X1X1X1X1X1X1X1X1X1X1X1X1X1X1X1X1X1X1X1X1X1X1X1X1X1X1X1X1X",
"1X1X,X$X@X$X$X;X1X1X,X<X<X1X1X1X=XU.V.d t g B.P.P.P.U.G.=X1X1X1X1X1X1X1X1X1X>X1X1X1X1X1X1X1X1X1X1X1X1X1X1X1X1X1X1X1X1X1X1X1X1X1X",
"1X1X1XJ.F././.Q.~.C.Q.Q.J.!.@X;X*XU.I.y.f e s b.P.P.P.P.Y.&X-X1X1X1X1X1XP ; 2 2 2 2 2 2 2 2 2 2 2 2 2 2 2 2 2 2 2 2 2 ; p 1X1X1X",
"1X1X1X!.(.rXaXaXrXwXqXqX:X(.(.(.W.P.P.u.s.g e f.P.P.P.P.U.U.K.>X1X1X1X1Xm : @ @ @ @ @ @ @ @ @ @ @ @ @ @ @ @ + @ & @ @ : - 1X1X1X",
"1X1X1X!.(.tXaXaXtXpXtXtXpXpXpXpXwXY.P.r.j.p.e g.N.r.P.P.P.P.A.G.>X1X1X1Xm * . , < < < , . @ @ . * X   , o , < 5 < , . * - 1X1X1X",
"1X1X1X@X/.pXpXpXaXaXrXpXpXaXaXaXwXY.P.r.h.d.r z.c.r r.N.I.I.P.U.>X1X1X1Xm : . < + o O o   X 3 $ < . . 5 X X O 6 O X . * - 1X1X1X",
"1X1X<X@XW.pXpXaXyX6X5X7XaXaXaXaXpXY.P.a.h.d.t v.c.i r j M.A.P.Y.1X1X1X1Xm & . 3 , & & & .   : 7 @   . 5 X   . 6 .     * - 1X1X1X",
"1X1X<X$XW.sXtXrXw.O...>.8XaXpXaXsXY.U.r.h.h.y v.V.e.r.y a b.P.Y.>X1X1X1Xm & . 5 : & = % .   % 7 +   . 5 X   . 5 X     * - 1X1X1X",
"1X1X<X$XQ.tXtX7XO.|  . .5.uXpXaXdXY.I.r.j.h.y M.N.e.m.e.r c.P.Y.1X1X1X1Xm : . < o         X < : < . . 5 X   . 5 X     * - 1X1X1X",
"1X1X1X;XW.eXpX7XO.| | ..w.tXaXaXrX).P.f.k.h.y b.c.p.m.d.y M.U.G.1X1X1X1Xm * . < o         : : . < @ . 3 .   . 5 X     * - 1X1X1X",
"1X1X<X-XC.wXaXaX5X#.O.3.7XpXsXaXrX).V.l.k.h.u M.c.p.m.d.a N.U.Y.;X1X1X1Xm * . 3 & % % % + < X   O 3 O 5 X   . 5 .     * - 1X1X1X",
"1X1X1X;XC.wXpXaXyX7X7XyXaXaXaXaXrX).V.f.k.h.y b.c.h.m.e.a P.I.Y.1X1X1X1Xm *   & , , , : @ @       @ O # .     & .     * - 1X1X1X",
"1X1X1X;XR.qXaXaXaXaXaXaXaXaXaXaXrX).I.z.h.h.y b.c.j.m.e.s N.I.L.1X1X1X1Xm : # # # * # # # # $ # $ # # # # # $ $ # # # : = 1X1X1X",
"1X1X1X1XR.qXaXaXaXaXaXaXsXsXaXaXtX).V.h.d.h.y v.c.s.m.e.j P.P.L.>X1X1X1XI v v v v v v v v v v v v v v v v v v v v v v v m 1X1X1X",
"1X1X1X1X!.wXaXaXaXaXaXaXsXgXjXjXkX`.I.z.d.j.a v.c.h.m.g j P.P.L.1X1X1X1X1X1X1X1X1X1X1X1X1X1X1X1X1X1X1X1X1X1X1X1X1X1X1X1X1X1X1X1X",
"1X1X1X1X!.qXaXaXaXaXsXsXjXlXzXzXlX`.P.z.d.h.i v.v.j.m.f k P.P.L.1X1X1X1X1X1X1X1X1X1X1X1X1X1X1X1X1X1X1X1X1X1X1X1X1X1X1X1X1X1X1X1X",
"1X1X1X;XE.qXaXaXaXaXsXaXjXkXzXzXzX`.P.z.t.j.i v.c.h.m.a r.I.P.K.1X1X1X1X1X1X1X1X1X1X1X1X1X1X1X1X1X1X1X1X1X1X1X1X1X1X1X1X1X1X1X1X",
"1X1X1X1X!.qXiXaXaXaXsXaXaXfXjXkXkX`.P.z.d.k.i v.c.h.n.i y.I.I.K.1X1X1X1X1X1X1X1X1X1X1X1X1X1X1X1X1X1X1X1X1X1X1X1X1X1X1X1X1X1X1X1X",
"1X1X1X1XE.qXpXpXaXaXaXaXaXaXaXdXuX_.P.z.h.k.a v.c.h.k.i a.P.P.K.1X1X1X1X1X1X1X1X1X1X1X1X1X1X1X1X1X1X1X1X1X1X1X1X1X1X1X1X1X1X1X1X",
"1X1X1X1XE.'.aXpXsXaXsXaXpXpXsXsXrX_.P.z.p.k.s M.l.d.k.y g.P.I.K.1X1X1X1X1X1X1X1X,X|.}.1X1X1X1X1X1X1X1X1X1X1X1X1X1X1X1X1X1X1X1X1X",
"1X1X1X1XE.0XsXpXaXaXaXaXaXsXaXsXrX_.P.z.p.h.j N.z.e.h.t z.P.I.^.,X1X1X1X1X1X1X,X].b S 1X1X1X1X1X1X1X1X1X1X1X1X1X1X1X1X1X1X1X1X1X",
"1X1X1X1X{.(.dXdXdXdXdXdXdXdXdXdXhX_.P.c.e.u.b.I.v.u.r.y c.P.I.^.1X1X1X1X1X1X#XP Y 4 b ].].-.W W -.-.I -.].-.].-.-.].|.1X1X1X1X1X",
"1X1X1X1X@X:XjXjXjXjXjXhXhXhXdXdXsX_.P.c.e.z.P.V.P.v.p.s b.P.I.^.1X1X2X1X1X}.V R E 6 4 0 4 0 9 4 4 1 4 9 4 0 4 4 0 > I 1X1X1X1X1X",
"1X1X1X1X@X:XgXhXhXdXaXaXsXaXaXaXsX'.P.c.u.V.P.f.c.I.v.j M.P.P.&X1X1X,X,XT.B E E E E E E E E E E E E R E E E E E M 1 |.1X1X1X1X1X",
"1X1X1X1X$X/.aXsXpXpXsXaXpXpXaXsXsX'.I.N.b.P.N.u u N.P.c.N.P.I.&X1X1X,XI B E E E E E E E E E E E E E E E E E E R 1 S 1X1X1X1X1X1X",
"1X1X1X1X#X/.pXaXpXiXiX7XiXpXdXdXhX'.P.P.I.P.a.u r r.P.V.P.P.U.&X1X,XK Y E E E E E E E E E E E E E E E E E E E U > }.1X1X1X1X1X1X",
"1X1X1X1X%X!.rXpXiX8.8.8.4XfXhXgXgX:XP.I.P.v.a d.r.t c.P.P.P.A.*X<XW Y E E E E E E E E E E E E E E E E E E E E q 8 |.1X1X1X1X1X1X",
"1X1X1X1X;XQ.rXeX4X8.7.8.5X8X5Xw.6. Xv.B.N.j e.m.m.f d N.P.P.U.*X1X|.K Y E E E E E E E E E E E E E E E E E E E Y 9 I 1X1X1X1X1X1X",
"1X1X1X1X<X/.tX7X8.4X8.8.7.} } } <.;.c c u.d n.m.m.j.u r.V.I.U.=X1X1X-XI T E E E E E E E E E E E E E E E E E E E 4 w |.<X1X<X1X1X",
"1X1X1X1X,X/.tX8X8.7.} [ [ [ [ o.<.;.H J r.p.m.m.m.m.e.a c.P.U.=X1X1X1X,XT.B E E E E E E E E E E E E E E E E E E Y 9 D ,X1X1X1X1X",
"1X2X1X1X,X/.6X7.[ [ [ ] ! ` [ ] #.4.c J i.j a.m.m.n.e.f.P.I.U.=X1X1X1X1X,X].V R E U M M B B V B V Y B V V V B V B N S #X1X1X1X1X",
"1X1X1X1X;XE.*.} [ [ [ ` ! ! _ ( o.3.c H z C z n.n.d.f.P.I.I.D.>X1X1X1X1X1X1X|.K Y 4 n |.|.,X;X|.;X;X;X|.,X|.,X,X|.,X;X<X1X1X1X1X",
"1X1X1X1X;XR.*.{ [ [ ] ^ ! ! ( ( ' 3.c x v C H r.h.e.M.P.I.U.D.>X1X1X1X1X1X1X1X,XW v P 1X1X1X1X1X1X1X<X<X1X1X1X1X1X1X1X1X1X1X1X1X",
"1X1X1X1X1X{.=.[ [ [ _ ^ ^ ^ ( ' #.3.c x x Z C c e.z.P.P.P.P.Y.%X1X1X1X1X1X1X1X1X1X|.;X<X1X1X1X1X1X1X1X1X1X1X1X1X1X1X1X1X1X1X1X1X",
"1X1X1X1X1X+X=.[ ] ' ( ( _ ( ' #.1.>.F J c C z f.f.P.P.z.v.P.G.>X1X1X1X1X1X1X1X1X1X1X1X1X1X1X1X1X1X1X1X1X1X1X1X1X1X1X1X1X1X1X1X1X",
"1X1X1X1X2X{.=.] ( ( ( ( ( ' #.<.1.5.F J x.i.x.V.P.P.N.s z.P.Y.%X1X1X1X1X1X1X1X1X1X1X1X1X1X1X1X1X1X1X1X1X1X1X1X1X1X1X1X1X1X1X1X1X",
"1X1X1X1X1X#X-.( ( ( ( ( ' #.$.1.1.6.F H b.f.V.I.U.P.r.r z.P.G.-X1X1X1X1X1X1X1X1X1X1X1X1X1X1X1X1X1X1X1X1X1X1X1X1X1X1X1X1X1X1X1X1X",
"1X1X1X1X1X|.Q ( ( ( ( ( o.1.1.1.1.2.F J g.u g.A.P.V.s r v.P.G.>X1X1X<X1X1X1X1X1X#XT.}.1X1X1X1X1X1X1X1X1X1X1X1X1X1X1X1X1X1X1X1X1X",
"1X1X1X1X1X;XR._ ( ( ( ' #.1.1.1.1.2.F v g.j r g.P.r.r y M.P.L.1X1X1X1X1X1X1X1X|.P > Q 1X1X<X1X1X1X1X1X1X1X2X1X1X1X1X1X1X1X1X1X1X",
"1X1X1X1X<X;XQ ^ ( ( ( _ #.<.1.1.1.2.i.F M.u.i y c.s e.i v.P.L.1X1X1X1X1X1X,X].V Y > N L L D D S S S D D L D D D L I |.1X1X1X1X1X",
"1X1X1X<X,X$XZ._ ( ( ( _ o.<.1.1.1.2.H.A.V.u.d.y r.r.d.y c.P.L.1X1X1X1X1X#XW Y E E M q q q q q q 0 0 q 0 q 0 0 q 9 1 }.2X1X1X1X1X",
"1X1X1X1X1X;X].` ^ ( ( ( ' $.$.$.@.,.H.P.V.r.k.a r.s.h.y c.P.K.1X1X1X1X|.L R E E E E E E E E E E E E E E E E E E 5 n ;X<X1X1X1X1X",
"1X1X1X1X<X;XE.` ( ( ^ ~ o.@.@.@.@.,.H.P.P.p.k.a r.r.d.i b.P.K.1X1X1X|.V R E E E E E E E E E E E E E E E E E E Y > ].1X1X1X1X1X1X",
"1X1X1X1X1X1XE.&.( / ~ ) @.@.@.+.@.@.T.P.P.r.n.a r.s.d.a M.U.K.1X1X}.V E E E E E E E E E E E E E E E E E E E E 6 b ,X,X1X1X1X1X1X",
"1X1X1X1X,X,X{.&.^ / ) O.@.@.@.@.1.:.J.P.P.e.n.a r.r.e.s A.U.K.1X;XK R E E E E E E E E E E E E E E E E E E E E 9 N ;X<X<X<X1X1X1X",
"1X1X1X1X1X1XE.-.%.%.;.;.;.;.[.[.OX<XG.P.I.r.j.a u r.r.c.V.I.K.2X<X|.K U E E E E E E E E E E E E E E E E E E E q 8 ].1X1X1X1X1X1X",
"1X2X1X1X1X1X{.H.H.J.{.+X+X!.+X+X&XT.F.V.I.r.e.g h M.V.P.I.I.^.1X1X1X;XI U E E E E E E E E E E E E E E E E E E E 9 w |.1X1X1X1X1X",
"1X1X1X1X1X1X1X1X,X1X1X1X1X1X,X1X1X1XG.P.P.r.r.r.A.V.A.I.P.P.9X1X1X1X,X,XT.M E E E E E E R E E E E E E E E E E E R 9 I 2X1X1X1X1X",
"1X1X1X1X1X1X1X1X1X1X1X1X1X1X1X1X#X,XG.P.P.h.v.P.A.A.I.I.U.T.>X1X1X1X<X<X1X{.V R E 7 N V V K K K L K K K K L W V D S I 1X1X1X1X1X",
"2X1X1X1X1X1X1X1X1X1X1X1X1X2X2X1X1X1XK.I.I.I.P.P.I.V.U.L.=X1X1X1X1X1X1X1X1X1X|.I Y , I #X,X<X,X,X1X#X1X1X;X1X1X1X,X<X;X<X<X1X1X1X",
"1X1X1X1X1X1X1X1X1X<X2X2XOXOXOXOXOX3X^.I.P.P.P.P.I.D.`.1X1X1X1X1X1X1X1X1X1X1X1X XW n }.<X1X1X1X1X1X1X1X1X<X1X1X1X1X1X1X1X<X1X1X1X",
"1X1X1X1X1X1X2XOX3X5.0.,.$.$.$.+.@.@.T.P.I.P.P.P.K..X5.w.3X1X1X1X1X1X1X1X1X1X1X1X1X;X1X1X1X1X1X1X1X1X1X1X1X1X1X1X1X1X1X1X1X1X1X1X",
"1X1X1X1X2X2Xw.q.$.X.X.| | | | | | @.T.I.P.P.I.J.:...+.q.q.w.2X1X1X1X1X1X1X1X1X1X1X1X1X1X1X1X1X1X1X1X1X1X1X1X1X1X1X1X1X1X1X1X1X1X",
"1X1X1X1X1X5.q.9.$.+.X.X.X.X.X.X.X.X.T.I.A.D.[.,.X.+.+.9.9.0.OX1X1X1X1X1X1X1X1X1X1X1X1X1X1X1X1X1X1X1X1X1X1X1X1X1X1X1X1X1X1X1X1X1X",
"1X1X1X1X1XXX5.2.0.0.9.9.9.9.9.9.9.9.+XI.G.XX0.9.1.2.0.2.>.3X<X1X1X1X1X1X1X1X1X1X1X1X1X1X1X1X1X1X1X1X1X1X1X1X1X1X1X1X1X1X1X1X1X1X",
"1X1X1X1X1X1X,X<XoXXXXXXX.X3X3X3X3X.X^.K. X3XXXXXoXoXoXOX<X1X1X1X1X1X1X1X1X1X1X1X1X1X1X1X1X1X1X1X1X1X1X1X1X1X1X1X1X1X1X1X1X1X1X1X",
"1X1X1X1X1X1X1X1X1X,X1X1X<X1X,X,X1X<X%X,X1X1X1X,X,X1X1X1X1X1X1X1X1X1X1X1X1X1X1X1X1X1X1X<X1X1X1X1X1X1X1X1X1X1X1X1X1X1X1X1X1X1X1X<X"
};
