/* XPM */
static char *Close1G1721789018[] = {
/* columns rows colors chars-per-pixel */
"64 64 212 2 ",
"   c #010000",
".  c #0C0303",
"X  c #120505",
"o  c #190707",
"O  c #1E0909",
"+  c #220A0A",
"@  c #2A0C0C",
"#  c #310F0F",
"$  c #271111",
"%  c #2D1213",
"&  c #331414",
"*  c #3B1313",
"=  c #391818",
"-  c #392F2B",
";  c #441616",
":  c #451C1C",
">  c #4A1C1C",
",  c #521D1D",
"<  c #542E1C",
"1  c #753D19",
"2  c #4C2323",
"3  c #5A2727",
"4  c #572828",
"5  c #473726",
"6  c #573629",
"7  c #483133",
"8  c #483A35",
"9  c #642A2A",
"0  c #623F2E",
"q  c #673A32",
"w  c #704319",
"e  c #5C4A2B",
"r  c #54483A",
"t  c #66442C",
"y  c #6B4632",
"u  c #714835",
"i  c #6D5D36",
"p  c #0D1E4A",
"a  c #0E204D",
"s  c #10214E",
"d  c #0E2357",
"f  c #132554",
"g  c #14285B",
"h  c #14285C",
"j  c #243740",
"k  c #132A63",
"l  c #192D62",
"z  c #162E6A",
"x  c #1A3169",
"c  c #1C326C",
"v  c #1B3678",
"b  c #223974",
"n  c #223C7C",
"m  c #344B45",
"M  c #3A545A",
"N  c #2C4566",
"B  c #324B66",
"V  c #304C7F",
"C  c #524B4D",
"Z  c #7C4948",
"A  c #665A4E",
"S  c #795556",
"D  c #7D5A5B",
"F  c #4A6757",
"G  c #6F6555",
"H  c #756859",
"J  c #765F61",
"K  c #4D6A66",
"L  c #567667",
"P  c #776965",
"I  c #736E68",
"U  c #727275",
"Y  c #7E7974",
"T  c #7E7878",
"R  c #901815",
"E  c #A61E1A",
"W  c #B71D1C",
"Q  c #892516",
"!  c #AE231B",
"~  c #B6241D",
"^  c #942D2D",
"/  c #BA3338",
"(  c #D0191F",
")  c #D81A21",
"_  c #E31C24",
"`  c #EC1C24",
"'  c #CD242B",
"]  c #D2262C",
"[  c #BA3D42",
"{  c #894E4E",
"}  c #9D494E",
"|  c #8C5050",
" . c #82595A",
".. c #935353",
"X. c #935559",
"o. c #9A565A",
"O. c #9C595D",
"+. c #A54D52",
"@. c #995C60",
"#. c #956E72",
"$. c #817C78",
"%. c #688A77",
"&. c #FB9A05",
"*. c #F99E0C",
"=. c #F9A415",
"-. c #F8A81C",
";. c #F7AC27",
":. c #F9BB2E",
">. c #F3B437",
",. c #FABD31",
"<. c #FBC43A",
"1. c #87827B",
"2. c #E9B953",
"3. c #D9B66D",
"4. c #CBAC75",
"5. c #CCB277",
"6. c #D4B877",
"7. c #E2B961",
"8. c #E4BD69",
"9. c #F9C945",
"0. c #EFC655",
"q. c #E2C573",
"w. c #1C3B83",
"e. c #1D3E89",
"r. c #223E83",
"t. c #1E4190",
"y. c #294386",
"u. c #23428C",
"i. c #29458A",
"p. c #2A468C",
"a. c #395885",
"s. c #224594",
"d. c #294690",
"f. c #2C4A93",
"g. c #22479A",
"h. c #24499C",
"j. c #2C4D9C",
"k. c #304E9A",
"l. c #33529E",
"z. c #244CA3",
"x. c #2A4EA3",
"c. c #264FA9",
"v. c #2D50A3",
"b. c #2751AD",
"n. c #2951AC",
"m. c #3353A3",
"M. c #3859A7",
"N. c #3557A9",
"B. c #3658AC",
"V. c #395BAD",
"C. c #2752B1",
"Z. c #2854B4",
"A. c #2A56BA",
"S. c #2B59BF",
"D. c #385DB5",
"F. c #3A5DB4",
"G. c #3C60B5",
"H. c #3D62BD",
"J. c #42628A",
"K. c #7D7C80",
"L. c #566CAC",
"P. c #4266BE",
"I. c #4867B8",
"U. c #4C6ABA",
"Y. c #546EB7",
"T. c #536EB9",
"R. c #5771B7",
"E. c #5B72B5",
"W. c #6476AE",
"Q. c #6A7AAE",
"!. c #717BA6",
"~. c #727FAD",
"^. c #6276B3",
"/. c #6779B3",
"(. c #6B7CB2",
"). c #717FB0",
"_. c #3F65C1",
"`. c #4065C0",
"'. c #8B7D80",
"]. c #7B84A9",
"[. c #7B85AC",
"{. c #7482B1",
"}. c #898587",
"|. c #95888B",
" X c #908D90",
".X c #959296",
"XX c #979598",
"oX c #99969B",
"OX c #9B9A9E",
"+X c #B9A88F",
"@X c #BAB09D",
"#X c #838BAC",
"$X c #898FAA",
"%X c #8C90A7",
"&X c #8D91AA",
"*X c #9597A6",
"=X c #9E9DA3",
"-X c #9295A9",
";X c #9799A9",
":X c #9C9DA9",
">X c #A09FA4",
",X c #A09FA8",
"<X c #A2A1A6",
"1X c #ACA8A6",
"2X c #A7A6AB",
"3X c #A8A5A8",
"4X c #B3ADA3",
"5X c #C0A884",
"6X c #CCB487",
"7X c #CCB58A",
"8X c #D1BA86",
"9X c #C4B594",
/* pixels */
"2X2X2X2X2X2X2X2X2X2X2X2X2X2X2X2X2X2X2X2X2X2X2X2X2X2X2X2X2X2X2X2X2X2X2X2X2X2X2X2X2X2X2X2X2X2X2X2X2X2X2X2X2X2X2X2X2X2X2X2X2X2X2X2X",
"2X2X2X2X2X2X2X2X2X2X2X2X2X2X2X2X2X2X2X2X2X2X2X2X2X2X2X2X2X2X2X2X2X2X2X2X2X2X2X2X2X2X2X2X2X2X2X2X2X2X2X2X2X2X2X2X2X2X2X2X2X2X2X2X",
"2X2X2X2X2X2X2X2X2X2X2X2X2X2X2X2X2X2X2X2X2X2X2X2X2X2X2X2X2X2X2X2X2X2X2X2X2X2X2X2X2X2X2X2X2X2X2X2X2X2X2X2X2X2X2X2X2X2X2X2X2X2X2X2X",
"2X2X2X2X2X2X2X2X2X2X2X2X2X2X2X2X2X2X2X2X2X2X2X2X2X2X2X2X2X2X2X2X2X2X2X2X2X2X2X2X2X2X2X2X2X2X2X2X2X2X2X2X2X2X2X2X2X2X2X2X2X2X2X2X",
"2X2X2X2X2X2X2X2X2X2X2X2X2X2X2X2X2X2X2X2X2X2X2X2X2X2X2X2X2X2X2X2X2X2X2X2X2X2X2X2X2X2X2X2X2X2X2X2X2X2X2X2X2X2X2X2X2X2X2X2X2X2X2X2X",
"2X2X2X2X2X2X2X2X2X2X2X2X2X2X2X2X2X2X2X2X2X2X2X2X2X2X2X2X2X2X2X2X2X2X2X2X2X2X2X2X2X2X2X2X2X2X2X2X2X2X2X2X2X2X2X2X2X2X2X2X2X2X2X2X",
"2X2X2X:X;X:X:X<X<X2X2X2X2X2X2X2X2X2X2X2X2X2X2X2X2X2X2X2X2X2X2X2X2X2X2X2X2X2X2X2X2X2X2X2X2X2X2X2X2X2X2X2X2X2X2X2X2X2X2X2X2X2X2X2X",
"2X2X2XQ.U.U.U.Y.E./.{.[.[.&X-X:X:X:X<X<X2X2X2X2X2X2X2X2X2X2X2X2X2X2X2X2X2X2X2X2X2X2X2X2X2X2X2X2X2X2X2X2X2X2X2X2X4X2X2X2X2X2X2X2X",
"2X2X2X{._._._._._._._._._.P.P.U.U.R.E././.).].#X&X&X*X:X:X<X2X2X2X2X2X2X2X2X2X2X2X2X2X2X2X2X2X2X2X2X2X2X2X2X2X2X2X2X2X2X2X2X2X2X",
"2X2X2X{._._._.`._._._._._._._._._._.`._._._._.`._.U.U.U.Y.R.].2X2X2X2X2Xj 7 7 7 7 7 7 7 7 7 7 7 7 7 7 7 7 7 7 7 7 8 7 - K.2X2X2X",
"2X2X2X#X`._.`.`._.`._.`._._._._._._._._._._._._._._._._._._.W.2X2X2X2X2X% * @ % @ @ * @ @ @ @ @ @ @ @ @ @ # $ # & @ ; + U 2X2X2X",
"2X2X2X$X`._.`.m.i.j.B.F.H._._._._._._._._._._._._._._._._._.^.2X2X2X2X2X& + O 4 3 3 3 * . > X @ *   $ & % 4 9 4 4 & O @ U 2X2X2X",
"2X2X2X&XP.`.`.d.k s f h l v y.N._._._.H.G.H.H._._._._._._._.W.2X2X2X2X2X- + $ 4 o X o .   ; , , #   & 2 . X : 2 X . O @ U 2X2X2X",
"2X2X2X-XP.`.`.m.u.v v z k f p f._._._.H.x l b y.f.k.m.H._._.W.2X2X2X2X2X& + $ q : ; = $   . 9 , .   & 2     = 2     O @ U 2X2X2X",
"2X2X2X;XP.`._.N.u.g.S.A.Z.e.p p._._.`.F.v z k k g f f G._._.W.2X2X2X2X2X& O $ 9 % % % +   . 9 9     & 2     = :     O @ U 2X2X2X",
"2X2X2X;XU._._.F.r.z.S.S.S.g.p y._.`.`.F.s.n.Z.Z.Z.e.g H._.P.W.2X2X2X2X4X& O $ 4           & , 9 %   = 2     = 2     O @ U 2X2X2X",
"2X2X2X;XT._._.H.r.c.S.S.S.z.p y._._._.D.p.b.S.S.S.w.l P._._.(.2X2X2X2X2X% + $ 2         o 3 O + 9 . & 2     = :     O @ U 2X2X2X",
"2X2X2X;XT._._.H.p.z.A.S.S.c.d p._._._.D.s.c.S.S.S.v x H._._.{.2X2X2X2X2X& + $ q & & & + ; ;     > ; & 2     = :     O @ U 2X2X2X",
"2X2X2X2XY._._._.d.g.A.S.S.c.d j._._._.F.u.c.S.S.A.z n _._._.{.2X2X2X2X2X% + . : : > > # # X     X @ o @     o @     + @ U 2X2X2X",
"2X2X2X2X^._._._.f.s.C.S.S.C.d f._._._.F.u.x.S.S.A.k y.`._._.{.2X2X2X2X2X% ; * * * * * * * * * * * * * * * * * * * * ; + U 2X2X2X",
"2X2X2X2X/._._._.x.u.b.S.S.C.h d._._._.F.u.n.S.S.A.k i.`.`.`.{.2X2X2X2X2XC C C C C C C C C C C C C C C C C C C C C C C C }.2X2X2X",
"2X2X2X<X(._._._.D.u.b.S.S.Z.h i._._._.F.u.b.S.S.C.d f.H.`.`.#X2X2X2X2X2X2X2X2X2X2X2X2X2X2X2X2X2X2X2X2X2X2X2X2X2X2X2X2X2X2X2X2X2X",
"2X2X2X2X~._._._.D.s.c.S.S.A.k i._._._.D.s.b.S.S.c.d m.`._.`.#X2X2X2X2X2X2X2X2X2X2X2X2X2X2X2X2X2X2X2X2X2X2X2X2X2X2X2X2X2X2X2X2X2X",
"2X2X2X2X~._._._.H.s.c.S.S.A.z i._._._.F.j.C.S.S.c.f m._._._.#X2X2X2X2X2X2X2X2X2X2X2X2X2X2X2X2X2X2X2X2X2X2X2X2X2X2X2X2X2X2X2X2X2X",
"2X2X2X2X{.`.`._._.r.c.S.S.S.z p._._._.H.h.C.S.S.z.f N._._.`.#X2X2X2X2X2X2X2X2X2X2X2X2X2X2X2X2X2X2X2X2X2X2X2X2X2X2X2X2X2X2X2X2X2X",
"2X2X2X2X[._.`.`._.j.g.A.S.Z.c p._._._.H.j.c.S.S.s.f V._._.H.$X2X2X2X2X2X2X2X2X2X2X2X2X2X2X2X2X2X2X2X2X2X2X2X2X2X2X2X2X2X2X2X2X2X",
"2X2X2X2X#X_._._._.v.s.Z.C.h.v N._._._.D.u.s.b.A.e.f F._._.P.&X2X2X2X2X2X2X2X2X2X<X}.=X2X2X2X2X2X2X2X2X2X2X2X3X2X2X2X2X2X2X2X2X2X",
"2X2X2X2X&X`._._._.N.s.z.h.s.F._._._._.H.V.f.s.g.v l G._.H.P.%X2X2X2X2X2X2X2X2X=XP 8  X2X2X2X2X2X2X2X2X2X2X2X3X1X2X2X2X2X2X2X2X2X",
"2X2X2X2X&XP._._._.B.s.t.j.F._._._._.H._._.H.m.f.s.l H.`._.P.-X2X2X2X2X3X2X,X}. .Z 6 I T 1.$.Y Y $.$.Y $.1.1.$.$.%.}.2X2X2X2X2X2X",
"2X2X2X2X-XU.`.`._.F.r.j.H._._._.M.v f.H._._._.H.B.f.H._._.I.*X2X2X2X2X3X>X$.Z ..| u t 0 0 u q y t y t t y q u t q r =X2X2X2X2X2X",
"2X2X2X2X;X`.`.`._.H.B._._.H.H.d.f a a n B._.`._.`.H.`._._.U.*X2X2X2X2X*XP | ..................................| 6 I 2X2X2X2X2X2X",
"2X2X2X2X:XU.`.`._._.H._._.H.y.a k s.h.z f y.H.H._._._._._.U.;X2X2X2X.XD | ....................................{ - .X2X2X2X2X2X2X",
"2X2X2X2X*XY.G.G.I.V._.H.m.x f v C.S.S.Z.e.h b j.H._._._.`.T.;X2X3X X .| ......X...............................6 A ,X2X2X2X2X2X2X",
"2X2X2X2X=XY.B L K a.D.i.d k g.A.S.S.S.S.S.c.v h n B._._.`.`.:X2X=XS | ......................................| 6 I 2X2X2X3X2X2X2X",
"2X2X2X2X,XL.B L L J.y.g c n.S.S.S.S.S.S.S.S.Z.e.k x N.`.`.R.:X2X,X}.S | ..............X.......................y i XX2X2X2X2X2X2X",
"2X2X2X2X2XW.N m F B V.p.v z.b.A.S.S.S.S.S.C.z.h.x.B._.`.`.E.,X2X3X3X.XD ..................| ..................{ e P <X2X2X2X2X3X",
"2X2X2X2X>XQ.B L %.F k.G.j.y.s.z.C.S.A.C.c.z.x.F.F.`._._._.E.,X2X2X2X2X=XP { ....X...................X.......X...Z e  X2X2X2X2X2X",
"2X2X2X2X2X{.N F L M M.P.H.H.j.h.z.h.c.h.c.F.H.`.`.`._._._.^.2X2X2X3X2X2X>X$.{ | | u Z S D  .D  . .D  .D D D  . .S A 1.2X2X2X2X2X",
"2X2X2X2X2X[.t.- m N G.D.H._._.F.v.s.d.j.F._.`.H.P.F._._.`./.2X2X2X2X2X2X3X,X'. .{ 5 }.OX>X>X>X>X,X,X>X>X,X>X>X>X>X>X2X2X2X2X2X2X",
"2X2X2X2X2X#Xn.M F a.V.x y.F._._.H.N.F._._._._.F.n c _._.`.(.,X2X2X2X2X2X2X2X2X*XJ r XX2X2X2X2X2X2X2X2X2X2X2X2X2X2X1X2X2X2X2X2X2X",
"2X2X2X2X2X$XM.K L J.M.v f g l.H.`.`.`.`.`.F.f.l p b _._._./.2X2X2X2X2X2X2X2X2X2X,X>X2X2X2X2X2X2X2X2X2X2X2X2X2X2X2X2X2X2X2X2X2X2X",
"2X2X2X2X2X;XM.B L y.V.i.s.v g p.F._.`.F.p.l h w.k d._._._.~.2X2X2X2X2X2X2X2X2X2X2X2X2X2X2X2X2X2X3X2X2X2X2X2X2X2X2X2X2X2X2X2X2X2X",
"2X2X2X2X2X-XI.V f.m.F.r.n.A.g.z l V._.f.d v c.A.z m.`.`._.~.3X2X2X2X2X2X2X2X2X3X2X2X2X2X2X2X2X2X2X2X2X2X2X2X2X2X2X2X2X2X2X3X2X2X",
"2X2X2X2X2X*XI.G._._.H.r.b.S.S.g.f m._.x.s.S.S.Z.k m._.`._.~.3X3X2X2X2X2X2X2X2X3X2X2X2X2X2X2X2X2X2X2X2X2X2X2X2X2X2X2X2X2X2X2X2X2X",
"2X2X2X2X2X:XU.H._._.H.n z.S.S.z.f B.`.x.g.A.S.c.g m._.`.`.].2X2X2X2X2X2X2X2X1X3XXXU <X3X2X2X2X2X2X2X2X2X3X2X2X2X2X2X2X2X2X2X2X2X",
"2X2X2X2X2X:XT._._._.H.r.s.S.S.z.f V._.N.g.A.S.c.h V.H.`.`.#X2X2X2X2X2X2X2X2X,X'.^ e OX2X2X2X2X<X2X2X<X2X2X3X2X2X2X2X2X2X2X2X2X2X",
"2X2X2X2X2X<XR._._._.H.p.t.S.S.h.f V._.D.s.Z.S.g.g F._.`.P.#X2X2X2X2X2X2X2XoXO.' W 5 P H G G A G G G G H H P H H H T 2X2X2X2X2X2X",
"2X2X2X2X2X,X^._._._._.s.t.A.Z.s.f V._.F.u.c.Z.e.f F._.`.`.$X2X2X2X2X2X2X|.+._ ` ) W ' ! ' W ~ ~ ! ! ! ! ! ! W W 1 G 2X2X2X2X2X2X",
"2X2X2X2X2X2XW._._._._.y.u.t.s.t.g N._.F.c s.s.n c F.`.`.`.&X2X2X2X2X2X#./ ` ` ` ` ` ` ` ` ` ` ` ` ` ` ` ` ` ` ) < |.2X2X2X2X2X2X",
"2X2X2X2X2X2X{._._._._.l.i.j.v.l.j.F.`.P.B.V.B.D.F._.`.`.`.-X2X2X2X2X#.' ` ` ` ` ` ` ` ` ` ` ` ` ` ` ` ` ` ` ` R C <X2X2X2X2X2X2X",
"2X2X2X2X2X2X[._._._._._._._._._._._.`.`._._._._._._.`.`.T.;X2X2X>X#.' ` ` ` ` ` ` ` ` ` ` ` ` ` ` ` ` ` ` ` ) , 1.2X2X2X2X2X2X3X",
"2X2X2X2X2X2X[._._._._._._._._._.`.`.`.`._._._._._._._._.`.;X2X2X|./ ` ` ` ` ` ` ` ` ` ` ` ` ` ` ` ` ` ` ` ` ) w 1.<X2X2X2X2X2X2X",
"2X2X2X2X2X2X#XP._._._.H._.H._._.`.`.`.`.`.P.`.U.`.`.T.R./.,X2X2X>X|./ _ ` ` ` ` ` ` ` ` ` ` ` ` ` ` ` ` ` ` ` Q A OX2X2X2X2X2X2X",
"2X2X2X2X2X2X&XU.T.R.E.E.E.(.(.{.~.[.[.#X$X-X;X;X,X2X,X,X2X2X2X2X2X3X.X} _ ` ` ` ` ` ` ` ` ` ` ` ` ` ` ` ` ` ` ( 1 Y 2X2X2X2X2X2X",
"2X2X2X2X2X2X2X2X2X<X2X2X<X<X2X2X2X3X3X2X2X2X2X2X2X2X2X2X2X2X2X2X2X2X3XoX@.] ` ` ` _ ` ` ` ` ` ` ` ` ` ` ` ` ` ` ~ t oX2X2X2X2X2X",
"2X2X2X2X2X2X2X2X2X2X2X2X2X2X2X2X2X2X2X2X2X2X2X2X2X2X2X2X2X2X2X2X2X2X2X2X:X#.' ` ) E } +.o.O.+.o.O.O.o.O.O.O.O.o.X.H OX2X2X2X2X2X",
"2X2X2X2X2X2X2X2X2X2X3X3X2X2X2X2X2X2X2X1X2X2X2X2X2X2X2X2X2X2X2X2X2X2X2X2X2X3X|.[ W 8 oX<X2X2X2X2X2X2X2X2X2X2X2X2X<X2X2X2X2X2X2X2X",
"2X2X2X2X2X2X2X2X2X1X@X@X9X6X6X6X6.6.8X8X6X6X7X7X9X@X4X1X2X2X2X2X2X2X2X2X2X2X3XoX .I <X3X2X2X2X2X2X2X2X2X2X2X2X2X2X3X2X2X2X2X2X2X",
"2X2X2X2X2X2X<X@X8Xq.2.>.;.-.=.=.=.=.=.=.=.=.-.-.;.>.0.q.9X1X2X2X2X2X2X2X2X2X3X3X2X2X2X2X2X2X2X3X2X2X2X2X2X2X2X2X2X2X2X2X2X2X2X2X",
"2X2X2X2X2X2X9X0.9.;.&.&.&.&.&.&.&.&.&.&.&.&.&.&.*.=.:.9.0.8X2X2X2X2X2X2X2X2X2X2X2X2X2X2X2X2X2X3X2X2X2X2X2X2X2X2X2X3X2X2X2X2X2X2X",
"2X2X2X2X2X2X6.9.9.<.<.,.:.,.,.,.:.,.,.:.,.:.,.<.<.<.<.9.2.5.3X2X2X2X2X2X2X2X2X2X2X2X2X2X2X2X2X2X2X2X2X2X2X2X2X2X2X2X2X2X2X2X2X2X",
"2X2X2X2X2X2X1X+X4.3.3.3.7.7.7.7.7.7.7.7.7.7.7.3.3.4.4.5X@X1X2X2X2X2X2X2X2X2X2X2X2X2X2X2X2X2X3X2X2X2X2X2X2X2X2X2X2X2X2X2X2X2X2X2X",
"2X2X2X2X2X2X2X2X2X2X2X1X1X2X1X<X1X2X2X2X1X<X1X2X2X2X3X2X2X2X2X2X2X2X3X2X2X2X2X2X2X2X2X2X2X2X2X2X2X2X2X2X2X2X2X2X2X2X2X2X2X2X2X2X",
"2X2X2X2X2X2X2X2X2X2X2X2X2X2X2X2X2X2X2X3X2X2X2X2X2X2X2X2X2X2X2X2X2X2X2X2X2X2X2X2X2X2X2X2X2X2X2X2X2X2X2X2X2X2X2X2X2X2X2X2X2X2X2X2X"
};
