/* XPM */
static char *Close2B1721789018[] = {
/* columns rows colors chars-per-pixel */
"64 64 230 2 ",
"   c #0A0000",
".  c #150000",
"X  c #1E0000",
"o  c #200000",
"O  c #2B0000",
"+  c #340101",
"@  c #3D0101",
"#  c #4A0202",
"$  c #530303",
"%  c #5C0404",
"&  c #640303",
"*  c #740404",
"=  c #7E0606",
"-  c #701A14",
";  c #763216",
":  c #4E3628",
">  c #66322C",
",  c #5B4A31",
"<  c #69462D",
"1  c #6C4833",
"2  c #734B34",
"3  c #73453A",
"4  c #6E5435",
"5  c #0D1E49",
"6  c #0F1F4C",
"7  c #10214F",
"8  c #122454",
"9  c #15285B",
"0  c #14295E",
"q  c #142B63",
"w  c #192E67",
"e  c #1B316C",
"r  c #132F71",
"t  c #1C377A",
"y  c #203467",
"u  c #213773",
"i  c #243C7B",
"p  c #543E40",
"a  c #324954",
"s  c #3B5551",
"d  c #334D6D",
"f  c #584F48",
"g  c #785554",
"h  c #4A6A58",
"j  c #6D675C",
"k  c #4D5A78",
"l  c #695D60",
"z  c #7D5F61",
"x  c #49686F",
"c  c #6E6A65",
"v  c #7B6667",
"b  c #7D7A78",
"n  c #830505",
"m  c #8B0707",
"M  c #920605",
"N  c #990707",
"B  c #930B0B",
"V  c #9C0909",
"C  c #911B16",
"Z  c #A60B0B",
"A  c #B80D0D",
"S  c #AC1513",
"D  c #B51313",
"F  c #892424",
"G  c #9E2C27",
"H  c #D00F0F",
"J  c #C71515",
"K  c #CC1A1D",
"L  c #D7191A",
"P  c #F01B1B",
"I  c #D51D23",
"U  c #DA1D23",
"Y  c #E41B23",
"T  c #EC1C24",
"R  c #C82A30",
"E  c #B43D42",
"W  c #874D4C",
"Q  c #885353",
"!  c #935353",
"~  c #9D565A",
"^  c #A3484D",
"/  c #825F61",
"(  c #8D6B6E",
")  c #837878",
"_  c #7B827B",
"`  c #8E9715",
"'  c #A39E18",
"]  c #9EA61D",
"[  c #A5A61B",
"{  c #A6AD1E",
"}  c #BAA11E",
"|  c #A7AC23",
" . c #A8AD2B",
".. c #B8AD24",
"X. c #B9B92D",
"o. c #B7B734",
"O. c #BCBB31",
"+. c #FB9704",
"@. c #F79B0A",
"#. c #F49A14",
"$. c #F9A918",
"%. c #D3B233",
"&. c #ECB02E",
"*. c #F7AB35",
"=. c #F6B43A",
"-. c #F9C036",
";. c #93934E",
":. c #9CA340",
">. c #AFB44D",
",. c #938F6F",
"<. c #86837A",
"1. c #B39372",
"2. c #D7A650",
"3. c #F4BC42",
"4. c #FDBB43",
"5. c #ECB051",
"6. c #C59D6D",
"7. c #D6B46D",
"8. c #E5B361",
"9. c #B4C353",
"0. c #ADC971",
"q. c #F7C747",
"w. c #EFC455",
"e. c #F7CB54",
"r. c #D1C278",
"t. c #1D3C85",
"y. c #243F83",
"u. c #1E4191",
"i. c #294487",
"p. c #23428B",
"a. c #335087",
"s. c #234493",
"d. c #24499D",
"f. c #284998",
"g. c #314F9B",
"h. c #34539B",
"j. c #254BA2",
"k. c #264EA9",
"l. c #2751AE",
"z. c #2B51A8",
"x. c #3354A4",
"c. c #3A5AA5",
"v. c #3556A9",
"b. c #3759AC",
"n. c #385AAD",
"m. c #2955B7",
"M. c #2B58BE",
"N. c #3A5DB3",
"B. c #3A5EB6",
"V. c #3B60B7",
"C. c #3D62BC",
"Z. c #5A799F",
"A. c #747B91",
"S. c #4266BF",
"D. c #4669BF",
"F. c #4B6CBE",
"G. c #5873BB",
"H. c #6877A9",
"J. c #7979A4",
"K. c #657BB9",
"L. c #3F65C1",
"P. c #4166C0",
"I. c #4568C0",
"U. c #4E73C1",
"Y. c #907D8E",
"T. c #6A829F",
"R. c #7D849D",
"E. c #5D88AD",
"W. c #6689AA",
"Q. c #7988A5",
"!. c #6D83B6",
"~. c #7988B7",
"^. c #7096B3",
"/. c #79ACB8",
"(. c #5886C3",
"). c #6799C7",
"_. c #7795CB",
"`. c #77AACB",
"'. c #8A8789",
"]. c #968487",
"[. c #92868A",
"{. c #898B9A",
"}. c #948F93",
"|. c #989498",
" X c #9C9A9E",
".X c #A59594",
"XX c #BDA484",
"oX c #BDA88A",
"OX c #B6A999",
"+X c #B5AC9D",
"@X c #868AA3",
"#X c #8B93A8",
"$X c #9D9DA3",
"%X c #989BAA",
"&X c #838EB2",
"*X c #8A93B2",
"=X c #959AB0",
"-X c #A09FA4",
";X c #9DA1AD",
":X c #89A7B9",
">X c #A2A1A6",
",X c #ABA7A6",
"<X c #A7A6AB",
"1X c #ACA9A8",
"2X c #C5B18B",
"3X c #B1D396",
"4X c #ABCFA8",
"5X c #A9DAA7",
"6X c #AAD7B8",
"7X c #8098CE",
"8X c #83B9C2",
"9X c #8AC9C8",
"0X c #8ED1CF",
"qX c #9ADCC7",
"wX c #96DCD4",
"eX c #99DDD5",
"rX c #A1DEC7",
"tX c #A1DFD1",
"yX c #9DE0C9",
"uX c #96E2D7",
"iX c #9AE1D7",
"pX c #9AE1D8",
"aX c #A5E6DD",
"sX c #A9E6DB",
"dX c #B0E7D5",
"fX c #ACEAE1",
"gX c #B3EAE3",
"hX c #CCEEEA",
"jX c #E4F1EF",
"kX c #E5F5F1",
/* pixels */
"<X<X<X<X<X<X<X<X<X<X<X<X<X<X<X<X*X~.<X1X<X<X<X<X<X<X<X<X<X<X<X<X<X1X<X<X<X<X<X<X<X<X<X<X<X<X<X<X<X<X<X<X<X<X<X<X<X<X<X<X<X1X<X<X",
"<X<X<X<X<X<X<X<X<X<X<X<X<X<X<X<X*XS.K.;X<X<X<X<X<X<X<X<X<X<X<X<X<X<X<X<X<X<X<X<X<X<X<X<X<X<X<X<X<X<X<X<X<X<X<X<X<X<X<X<X<X<X<X<X",
"<X<X<X<X<X<X<X<X<X<X<X1X<X<X<X<X*XS.P.G.=X<X<X<X<X<X<X<X<X<X<X<X<X<X<X<X<X<X<X<X<X<X<X<X<X<X<X<X<X<X<X<X<X<X<X<X<X<X<X<X<X<X<X<X",
"<X<X<X<X<X<X<X<X<X<X<X<X<X<X<X<X*XS.L.L.F.&X<X<X<X<X<X<X<X<X<X<X<X<X<X<X<X<X<X<X<X<X<X<X<X<X<X<X<X<X<X<X<X<X<X<X<X<X<X<X<X<X<X<X",
"<X<X<X<X<X<X<X<X<X<X1X<X<X<X<X<X#XS.L.L.L.I.!.;X<X<X<X<X<X<X<X<X<X<X<X<X<X<X<X<X<X<X<X<X<X<X<X<X<X<X<X<X<X<X<X<X<X<X<X<X<X<X<X<X",
"<X<X<X<X<X<X<X<X<X<X<X<X<X<X<X<X*XS.L.L.L.P.I.K.=X<X<X<X<X<X<X<X<X<X<X<X<X<X<X<X<X<X<X<X<X<X<X<X<X<X<X<X<X<X<X<X<X<X<X<X<X<X<X<X",
"<X<X<X<X<X<X<X<X<X<X<X<X<X<X<X<X=XS.S.x.V.L.L.L.G.&X<X<X<X<X<X<X<X<X<X<X<X<X<X<X<X<X<X<X<X<X<X<X<X<X<X<X<X<X<X<X<X<X<X<X<X<X<X<X",
"<X<X<X<X<X<X<X<X<X<X<X<X<X<X<X<X=XD.C.9 e C.L.P.P.I.~.=X<X<X<X<X1X<X<X<X<X<X<X<X<X<X<X<X<X<X<X<X<X<X<X<X<X<X1X<X<X<X<X<X<X<X<X<X",
"<X<X>X%X@X%X%X%X>X>X<X<X<X<X<X<X=XU.C.e 7 t N.P.I.L.I.G.=X<X<X<X<X<X<X<X<X<X<X<X<X<X<X<X<X<X<X<X<X<X<X>X<X<X<X<X<X<X<X<X<X<X<X<X",
"<X<X<XJ.Z.).^.W.W.H.W.W.J.@X#X;X*XI.L.y.r 5 w b.L.L.L.L.U.&X<X<X<X<X<X<X;X> F F F F F F F F F F F F F F F F F F F F F - l <X<X<X",
"<X<X<XQ./.wXuXuXwX0X9X9X:X/./.^.E.L.L.y.d.t 5 g.L.L.L.L.L.I.K.;X<X<X<X<X<Xn B n M m N M = n n * m = = m n M M M B m m Z f <X<X<X",
"<X<X<XR.`.eXpXpXeXuXeXuXuXuXuXuX0XU.L.y.k.s.5 x.B.y.C.L.L.L.S.G.<X<X<X<X;Xn % m K J J J * & A # Z * O S * A J L J A % V p <X<X<X",
"<X<X<X#X^.uXuXuXaXiXpXuXuXiXiXiXwXU.L.y.j.d.6 v.v.6 y.B.S.L.L.I.;X<X<X<X<Xn & C Z $ # # + O J A J # O J % + % K $ + # V p <X<X<X",
"<X<X,X#XW.eXuXuXrX4X4X6XiXiXiXiXeXU.L.s.j.d.6 v.v.0 6 u N.S.L.U.;X<X<X<X<X= & B L A D D & . * P n . o J #   @ K +   O V p <X<X<X",
"<X<X<X%XW.eXeXrX7.&.#.%.5XuXiXiXpXU.I.y.k.d.8 b.C.t.t.8 q n.I.U.<X<X<X<X<X= % B D % % $ @ . n P V . O K $   @ K +   + V p <X<X<X",
"<X,X>X%XW.eXeX6X%.@.+.@.r.aXuXiXaXU.P.y.l.d.8 N.B.t.M.t.6 b.L.U.;X<X<X<X<Xn % C V .       # J N L # O K #   @ K +   O Z p <X<X<X",
"<X<X<X;XE.qXuX6X%.@.+.#.r.wXiXiXwX(.P.g.l.j.8 N.v.s.M.d.8 B.P.U.;X<X<X<X<Xn & B Z X . . o B Z + V A # J $   @ K +   O V p <X<X<X",
"<X<X,X-XZ.0XiXiX2X%.&.7.6XwXuXiXwX(.P.j.l.j.9 N.v.s.M.d.q B.P.K.<X<X<X<X<X= % m L S D S M H %   + H = D #   + J +   + V p <X<X<X",
"<X<X<X;XZ.0XuXiXrX6X6XrXeXiXiXpXwX(.L.x.l.j.8 n.v.d.M.s.q B.P.U.<X<X<X<X<X= = & B B B M n n # @ # * * n % @ # n $ @ $ Z p <X<X<X",
"<X<X<X;XT.9XiXiXiXiXiXiXiXiXiXiXwX(.P.g.j.j.8 b.v.j.M.t.w S.P.G.;X<X<X<X<X% Z V N N N N N V N V M N N V N N N B V N V n p <X<X<X",
"<X<X<X;XT.9XiXiXiXiXiXiXiXiXiXaXeX(.L.x.d.j.8 b.v.d.M.t.t L.L.K.<X<X<X<X<X'.[.[.[.[.[.'.[.[.[.[.'.[.[.[.[.[.[.[.[.[.[.[.'.<X<X<X",
"<X<X<X1XQ.0XiXiXpXiXiXiXiXdXgXgXhX).L.x.d.j.0 N.v.j.M.r u L.L.K.<X<X<X<X<X<X<X<X<X<X<X<X<X<X<X<X<X<X<X<X<X<X<X<X<X<X<X<X<X<X<X<X",
"<X<X<X<XT.9XiXiXiXiXiXiXgXhXkXkXjX7XL.x.s.k.0 b.b.k.M.r i S.P.K.<X<X<X<X<X<X<X<X<X<X<X<X<X<X<X<X<X<X<X<X<X<X<X<X<X<X<X<X<X<X<X<X",
"<X<X<X1XR.9XiXiXiXiXpXiXgXjXkXkXjX_.L.j.s.k.0 b.b.j.M.q i L.S.K.<X<X<X<X<X<X<X<X<X<X<X<X<X<X<X<X<X<X<X<X<X<X<X<X<X<X1X<X<X<X<X<X",
"<X<X<X1XQ.9XiXiXiXiXiXiXpXsXgXhXhX_.L.x.d.l.0 b.v.d.m.0 i.P.P.K.;X<X<X<X<X<X<X<X<X<X<X<X<X<X<X<X<X<X<X<X<X<X<X<X<X<X<X<X<X<X<X<X",
"<X<X<X<XQ.8XiXiXeXiXiXiXuXiXaXiXtX).L.x.j.l.q N.v.j.m.8 f.L.P.K.<X<X<X<X<X<X<X<X<X<X<X<X<X<X<X<X<X<X<X<X<X<X<X<X<X<X<X<X<X<X<X<X",
"<X<X<X<XT.8XuXiXiXiXiXpXiXiXpXuXeX(.L.x.s.l.q N.z.d.l.7 g.P.S.K.<X<X<X<X<X<X<X<X<X{.|.<X<X<X<X<X<X<X<X<X<X<X<X<X<X<X<X<X<X<X<X<X",
"<X<X<X<X{.8XuXuXpXiXiXiXiXpXpXuXpX).L.x.s.d.i V.z.t.j.7 x.L.S.~.<X<X<X<X<X<X<X$X) : <.<X<X<X<X<X<X<X<X<X<X<X<X<X<X<X<X<X<X<X<X<X",
"<X<X<X<X@X/.aXaXsXaXaXaXaXaXaXaXfX).L.x.t.p.b.L.N.p.y.7 v.P.P.~.<X<X<X<X<X<X}.z W : j '.) <.b ) ) <.b <.<.<.<.b '.'.>X<X<X<X<X<X",
"<X<X<X<X#X:XgXgXgXgXgXgXfXsXaXaXaX).L.v.t.x.L.C.L.n.s.q N.P.P.~.<X<X<X<X>X'.g ! ! 3 2 2 1 2 2 < 1 > < < < < < 2 < , |.<X<X<X<X<X",
"<X<X<X<X#X:XsXfXfXaXpXpXuXpXpXiXpX`.L.v.i.C.L.g.x.S.n.i N.L.L.&X<X<X<X$X) Q ! ! ! ! ! ! ! ! ! ! ! ! ! ! ! ! ! W > l <X<X<X<X<X<X",
"<X<X<X<X%X^.iXuXuXiXuXiXiXuXpXpXpX`.L.B.N.L.B.9 9 V.C.v.B.P.P.&X<X<X|.( W ! ! ! ! ! ! ! ! ! ! ! ! ! ! ! ! ! ! g : {.<X<X<X<X<X<X",
"<X<X<X<X;XQ.wXiXuXyXyXyXyXuXiXaXfX`.L.P.P.C.f.8 7 y.L.L.L.L.L.Y.<X|.z Q ! ! ! ! ! ! ! ! ! ! ! ! ! ! ! ! ! ! ! > f <X<X<X<X<X<X<X",
"<X<X<X<X;X^.wXiXyX0.0.0.3XfXgXdXdX:XL.C.P.b.w d.t.7 v.L.L.L.I.*X<Xv Q ! ! ! ! ! ! ! ! ! ! ! ! ! ! ! ! ! ! ! ! < j <X<X<X<X<X<X<X",
"<X<X<X<X;XW.yXqX5X0.9.0.3X5X3Xr.w..Xv.V.C.t t.M.M.r e C.L.L.I.*X<X}.v ! ! ! ! ! ! ! ! ! ! ! ! ! ! ! ! ! ! ! ! 3 4 }.,X<X<X<X<X<X",
"<X<X,X,X,X^.aXrX0.3X0.9.9.9.O.O.3.1.d d i.e m.M.M.k.r y.L.L.I.=X<X<X Xv Q ! ! ! ! ! ! ! ! ! ! ! ! ! ! ! ! ! ! ! , j >X<X<X<X<X,X",
"<X<X<X<X>X^.tX6X0.9.X.X.X.X.X.%.3.1.x k i.s.M.M.M.M.t.0 b.L.I.=X<X<X<X>X) W ! ! ! ! ! ! ! ! ! ! ! ! ! ! ! ! ! ! W < '.<X<X<X<X<X",
"<X<X<X<X,X^.4X>.X.X.O. .` X.X.X.%.6.x a.d y f.M.M.m.t.g.L.L.I.=X<X<X<X<X<XY.g ! W g g W Q / / / v Q Q z v v / / z f <.<X<X<X<X<X",
"<X<X<X<X<XT.9.O.X.O.O.{ ` ` | | %.6.d x y h a m.M.d.g.L.P.P.G.=X<X<X<X<X<X<X}./ W : b $X>X>X-X-X>X>X>X>X-X>X>X>X;X-X<X<X<X<X<X<X",
"<X<X<X<X<XT.:.O.X.O.o.] ` ` { { ..6.s s f h x y.d.t.N.L.P.I.F.=X<X<X<X<X<X<X<X$X( f {.<X<X<X<X<X<X<X<X<X<X<X<X<X,X,X<X<X<X<X<X<X",
"<X<X<X<X<XR.,.O.O.X.{ { ] ] | ..%.6.d h s h h d t.x.L.C.L.L.G.=X<X<X<X<X<X<X<X<X,X-X<X<X<X<X<X<X<X<X<X<X<X<X<X<X,X<X<X<X<X<X<X1X",
"<X<X<X<X<X{.,.O.X...{ { { { ..%.=.7.k x d h s x.x.L.L.x.b.L.G.;X<X<X<X<X<X<X<X<X<X<X<X<X<X<X<X<X<X<X<X<X<X<X<X<X<X<X<X<X<X<X<X<X",
"<X<X<X<X;X{.,.X.{ { { { { ..3.4.4.8.k x c.a.x.L.P.L.B.0 x.L.G.;X<X<X<X<X<X<X<X<X<X<X<X<X<X<X<X<X<X<X<X<X<X<X<X<X<X<X<X<X<X<X<X<X",
"<X<X<X<X<X;X,.{ { | { { ..%.3.-.4.8.k d n.g.C.L.P.P.y.5 x.P.F.>X<X<X<X<X<X<X<X<X<X>X>X<X<X<X<X<X<X<X<X<X<X<X<X<X<X<X<X<X<X<X<X<X",
"<X<X<X<X<X;X_ { { { { | %.4.4.4.4.8.k x h.y g.C.P.C.w 6 b.L.G.;X<X<X<X<X<X<X,X>X Xl <.<X<X<X<X<X<X<X<X<X<X<X<X<X<X<X<X<X<X<X<X<X",
"<X<X<X<X<X X_ { { { { | %.4.4.4.4.5.k f h.e 6 h.P.y.6 0 N.L.K.;X<X<X<X<X<X<X>XY.E - c -X$X$X X X X X X X$X$X$X X-X;X<X<X<X<X<X<X",
"<X<X<X<X<X$XA.] { { | | 3.3.4.4.4.5.a.k V.i.0 8 v.w t.0 b.L.K.<X<X<X<X<X<X-X( R Y C < 4 1 2 2 2 < 1 2 1 4 4 2 2 4 , '.<X<X<X<X<X",
"<X<X<X<X<X$XT.] { { | | %.3.4.4.4.5.H.C.V.s.d.8 y.y.d.8 v.L.K.<X<X<X<X<X|.^ Y P T Y K K I U U L K K K K K I I I D ,  X<X<X<X<X<X",
"<X<X<X<X<X$X'. .] | { [ ..=.=.=.*.2.H.L.C.u.l.q y.f.j.8 v.L.K.<X<X,X<X[.E Y T T T T T T T T T T T T T T T T T T - c <X<X<X<X<X<X",
"<X<X<X<X<X>XR. .{ | [ [ %.*.*.*.*.*.J.L.L.u.l.0 y.y.d.0 N.P.K.<X<X>XY.R T T T T T T T T T T T T T T T T T T T K : }.<X<X<X<X<X<X",
"<X<X<X<X<X<XR.:.{ ] ' } &.*.*.*.*.5.Y.L.L.y.m.q y.f.d.0 B.P.K.<X<X) R T T T T T T T T T T T T T T T T T T T P C f >X<X<X<X<X<X<X",
"<X<X<X<X<X>X{.:.] ' } &.*.*.*.*.*.5.J.L.L.t.l.r y.y.t.e B.P.~.<X1X( R T T T T T T T T T T T T T T T T T T T T G 4 |.<X<X<X<X<X<X",
"<X<X<X<X<X<XR._ ;.;.1.6.1.1.Y.].,XOXG.I.L.y.k.q 9 y.y.v.C.P.K.<X<X<XY.E T T T T T T T T T T T T T T T T T T T U ; c <X<X<X<X<X<X",
"<X<X<X<X<X,X@XA.A.J.R.@X@X{.@X@X&XY.F.B.L.y.t.t y B.C.L.L.P.~.<X<X<X<X].^ Y T T T T T T T T T T T T T T T T T T K < }.<X<X<X<X<X",
"<X<X<X<X<X<X<X<X;X<X<X<X<X<X<X<X<X>XG.L.L.y.t.y.B.P.P.L.L.L.7X<X<X<X<X,X X~ U T T T Y U I U U U U U U U I U I U I ; j <X<X<X<X<X",
"<X<X<X<X<X<X<X<X<X<X<X<X<X<X<X<X<X$XG.L.L.g.m.L.I.P.P.P.I.Y.;X<X<X<X<X<X<X>X( R T C g ( ].].].].].[.[.[.[.[.[.].].[.|.<X<X<X<X<X",
"<X<X1X<X<X<X<X<X<X<X<X<X<X1X1X<X;X;XK.L.L.L.L.L.P.P.I.K.=X<X<X<X<X<X<X<X<X<X<X].E - b <X<X<X<X<X<X<X<X<X<X<X<X<X1X1X<X<X<X<X<X<X",
"<X<X<X<X<X<X<X<X<X<X1X1X+X+X+X+X2X2X_.S.L.L.L.L.L.F._.<X<X<X<X<X<X<X<X<X<X<X<X<X$X) $X<X<X<X<X<X<X<X<X<X<X<X<X<X<X<X<X<X<X<X<X<X",
"<X<X<X<X<X<X1X+X2Xr.8.3.=.=.=.=.*.4.Y.L.L.L.L.L.K.XXr.r.+X1X<X<X<X<X<X<X<X<X<X<X<X<X<X<X<X<X<X<X<X<X<X<X<X<X<X<X<X<X<X<X<X<X<X<X",
"<X<X<X<X1X1Xr.e.=.$.@.+.+.+.+.+.#.#.Y.L.L.L.S.Y.2.@.$.q.e.r.1X<X<X<X<X<X<X<X<X<X<X<X<X<X<X<X<X<X1X<X<X<X<X<X<X<X<X<X<X<X<X<X<X<X",
"<X<X<X<X<X7.e.q.-.&.$.$.$.$.$.$.$.$.Y.L.C.F.].5.#.=.-.-.q.e.+X1X<X<X<X<X<X<X<X<X<X<X<X<X<X<X<X<X<X<X<X<X<X<X<X<X<X<X<X<X<X<X<X<X",
"<X<X<X<X<XoX7.8.w.q.e.q.q.q.q.q.q.q.#XL.K.2Xw.q.4.5.w.w.7.6.1X,X<X<X<X<X<X<X<X<X<X<X<X<X<X<X<X<X<X<X<X<X<X<X<X<X<X<X<X<X<X<X<X<X",
"<X<X<X<X<X<X>X+XOXOXoXoXoXoX2X6.OX2XY.K..XoXoXoXOXOXOX,X,X<X<X<X<X<X<X<X<X<X<X<X<X<X<X<X1X<X<X<X<X<X<X<X<X<X<X<X<X<X<X<X<X<X<X<X",
"<X<X<X<X<X<X<X<X>X,X<X<X<X<X<X<X<X<X=X;X<X<X<X,X>X<X<X>X<X<X<X<X<X<X<X<X<X<X<X<X<X<X<X<X<X<X<X<X<X<X<X<X<X<X<X<X<X<X<X<X<X<X<X<X"
};
