/* XPM */
static char *Open1D1721789025[] = {
/* columns rows colors chars-per-pixel */
"64 64 235 2 ",
"   c #0B0000",
".  c #170000",
"X  c #230000",
"o  c #2C0000",
"O  c #370000",
"+  c #293A33",
"@  c #460202",
"#  c #4B0202",
"$  c #5B0505",
"%  c #670404",
"&  c #770505",
"*  c #711818",
"=  c #7E191A",
"-  c #52352F",
";  c #563635",
":  c #773638",
">  c #757D08",
",  c #59462D",
"<  c #64452C",
"1  c #694433",
"2  c #6D5039",
"3  c #0F1A40",
"4  c #152752",
"5  c #162757",
"6  c #2E2F4E",
"7  c #182D65",
"8  c #1E336E",
"9  c #1D3776",
"0  c #2A3462",
"q  c #233B79",
"w  c #513B58",
"e  c #374F51",
"r  c #344F70",
"t  c #4D5951",
"y  c #7D4944",
"u  c #68594D",
"i  c #7E5455",
"p  c #496559",
"a  c #536B5F",
"s  c #6F634F",
"d  c #756955",
"f  c #4E5073",
"g  c #734C70",
"h  c #51706D",
"j  c #74716F",
"k  c #880606",
"l  c #9B0807",
"z  c #950909",
"x  c #961218",
"c  c #A40909",
"v  c #AC0B0B",
"b  c #B81010",
"n  c #893727",
"m  c #A62F22",
"M  c #C61515",
"N  c #D71212",
"B  c #E81D1C",
"V  c #9B4A09",
"C  c #9C4D11",
"Z  c #A25010",
"A  c #9A4C2A",
"S  c #99563A",
"D  c #A45332",
"F  c #A6683E",
"G  c #9F3C65",
"H  c #854D48",
"J  c #865455",
"K  c #8B5050",
"L  c #935353",
"P  c #94525D",
"I  c #9D6448",
"U  c #A56C46",
"Y  c #84556F",
"T  c #877779",
"R  c #917473",
"E  c #7C870A",
"W  c #7C8672",
"Q  c #858B11",
"!  c #8B9412",
"~  c #8C9414",
"^  c #A69E1A",
"/  c #9BA41C",
"(  c #A6A71D",
")  c #A5AC1E",
"_  c #B0AC1F",
"`  c #A09C30",
"'  c #A6AC21",
"]  c #A7AA25",
"[  c #B7AC23",
"{  c #ADB127",
"}  c #B4B429",
"|  c #BBBB2E",
" . c #A7A635",
".. c #BCBB32",
"X. c #B8BA3A",
"o. c #FA9907",
"O. c #FA9D09",
"+. c #F09B14",
"@. c #F8A313",
"#. c #CFAA2D",
"$. c #C4B32C",
"%. c #D8B635",
"&. c #EFAB27",
"*. c #EBAA35",
"=. c #F5AA36",
"-. c #F9AB33",
";. c #E7BA3C",
":. c #F8B53C",
">. c #FBC135",
",. c #FBC53B",
"<. c #929257",
"1. c #BB994D",
"2. c #AFAF4B",
"3. c #88916F",
"4. c #AF916E",
"5. c #DE9E4B",
"6. c #D2B849",
"7. c #DAB359",
"8. c #EAA243",
"9. c #EABC43",
"0. c #F5BB43",
"q. c #FCBB43",
"w. c #E4B95B",
"e. c #D1B470",
"r. c #E3BA67",
"t. c #B2C353",
"y. c #AEC86F",
"u. c #F7C948",
"i. c #F3CA57",
"p. c #E1C474",
"a. c #1E3E87",
"s. c #233E83",
"d. c #1F4290",
"f. c #28448A",
"g. c #374F8F",
"h. c #224493",
"j. c #2B4A98",
"k. c #35549B",
"l. c #264DA6",
"z. c #3556A7",
"x. c #2B57BB",
"c. c #365BB6",
"v. c #3A5EB5",
"b. c #3E61B7",
"n. c #3D63BD",
"m. c #4E4F89",
"M. c #6F588E",
"N. c #586A9E",
"B. c #69779D",
"V. c #747391",
"C. c #4F5EAD",
"Z. c #625EA7",
"A. c #556AAB",
"S. c #4365BE",
"D. c #4867BA",
"F. c #536BB6",
"G. c #4B73BE",
"H. c #5974BB",
"J. c #6261A5",
"K. c #677AAD",
"L. c #3F65C1",
"P. c #4166C0",
"I. c #4A6FC0",
"U. c #8A7B8F",
"Y. c #78858F",
"T. c #6987AB",
"R. c #7887A6",
"E. c #6A95AE",
"W. c #7A88B5",
"Q. c #6B99B4",
"!. c #7491B1",
"~. c #71A1B4",
"^. c #75A9B9",
"/. c #5785C3",
"(. c #679AC4",
"). c #77AEC7",
"_. c #888686",
"`. c #8D8B8A",
"'. c #878897",
"]. c #8E8F90",
"[. c #999195",
"{. c #969598",
"}. c #9B9A9E",
"|. c #A38381",
" X c #B5AA95",
".X c #8A97A8",
"XX c #8994AE",
"oX c #9D9CA4",
"OX c #979AA8",
"+X c #828EB3",
"@X c #9BA4AA",
"#X c #98AAAE",
"$X c #A3A2A6",
"%X c #A8A5A7",
"&X c #A7A6AB",
"*X c #A9A7A9",
"=X c #AAAAA9",
"-X c #B4B2B0",
";X c #C8B28F",
":X c #D0B7AC",
">X c #B6D18D",
",X c #A9D8AF",
"<X c #B2DAAD",
"1X c #A8D8B5",
"2X c #C9D195",
"3X c #83BBC4",
"4X c #8BC7C8",
"5X c #93CFD0",
"6X c #97D8D4",
"7X c #96DDD4",
"8X c #A4DDC7",
"9X c #A1D5D8",
"0X c #9EE0CA",
"qX c #9AE1D7",
"wX c #96E2D8",
"eX c #9AE1D8",
"rX c #B1E6C8",
"tX c #A1E1D7",
"yX c #A3E4DB",
"uX c #ABE5DC",
"iX c #B3E8DC",
"pX c #A8E7E0",
"aX c #ACE9E1",
"sX c #B3ECE4",
"dX c #BAEAE3",
"fX c #D7D2D0",
"gX c #F0E6DE",
"hX c #C6EDE8",
"jX c #CCF1EC",
"kX c #D3F1ED",
"lX c #DBF4F1",
"zX c #E9E8E8",
"xX c #E5F5F3",
"cX c #E9F4F2",
"vX c #F7F6F6",
/* pixels */
"&X&X&X&X&X&X&X&X*X&X&X*X&X&X&X&X&X&X&X&X&X&X&X&X&X&X*X&X&X&X&X&X&X&X&X&X&X&X&X&X&X&X&X&X&X&X&X&X&X&X&X&X&X&X&X&X&X&X&X&X&X&X&X&X",
"&X&X&X&X&X*X&X&X&X&X&X&X&X&X*X&X&X&X&X&X&X&X&X&X&X&X&X&X&X&X&X&X&X&X&X&X&X&X&X&X&X&X&XOXK.&X&X&X&X&X&X&X&X&X&X&X&X&X&X&X&X&X&X&X",
"&X&X&X&X&X&X&X&X&X*X&X&X&X&X&X&X&X&X&X&X&X&X&X&X&X&X&X&X&X&X&X&X&X&X&X&X&X&X&X&X-X&X+XI.I.&X&X&X&X&X&X&X&X&X&X&X&X&X&X&X&X&X&X&X",
"&X&X&X&X&X&X&X&X&X&X&X&X&X&X&X&X&X&X&X&X&X&X&X&X&X&X&X&X&X&X&X&X&X&X&X&X&X&X&X&XXXK.P.L.I.&X&X&X&X&X&X&X&X&X&X&X&X&X&X&X&X&X&X&X",
"&X&X&X&X&X&X&X&X&X&X&X&X&X&X&X&X&X&X&X&X&X&X&X&X&X&X&X&X&X&X&X&X&X&X&X&X&X*XOXK.P.S.L.L.I.@X&X&X&X&X&X&X&X&X&X&X&X&X&X&X&X&X&X&X",
"&X&X$X@X@X$X&X&X&X&X&X&X&X&X&X&X&X&X&X&X&X&X&X&X&X&X&X&X&X&X&X&X&X&X&X-X@X/.I.P.L.L.L.L.H.&X&X&X&X&X&X&X&X&X&X&X&X&X&X&X&X&X&X&X",
"&X&XOXA.N.B.R.B.R.'..X{.OX@X&X&X$X$X&X*X&X&X%X&X&X&X&X&X&X&X&X&X&X&X&XK.I.P.P.P.L.L.L.L.H.[.[.[.OX[.[.[.[.[.[.[.[.[.[.[.}.OX&X&X",
"&X&XoXm.T.4X4X4X3XQ.Q.T.E.!.Q.T.T.R.R.V.R..XOX.XOXoX$X$X&X&X&X&X&X+XH.P.P.L.P.P.L.L.L.S.Z.v l l c c z l l l l l l l l c k ; &X&X",
"&X&XoXN.4XqXqXqX7X7X7XwX7XeX7X5X5X4X3X^.^.~.E.T.H.T.K.T.T.B.R.!.I.P.P.P.L.L.L.n.j.s.S.S.g % % & # % % # k % k x z k k % v ; &X&X",
"&X&X$XN.3XwXqXqXeXeX0X7XeXeXeXwXeXwXwXqXqXwXqX7X7X6X4X5X5X3XE.b.P.P.P.P.L.P.c.q 3 q L.P.U.& # N % b k o b & x b B b v $ l ; &X&X",
"&X&X$XB.3X0XqXqXeXqX8X6XqXqXeXwXqXqXqXeXwXqXqXqX7XqXyX7X7X7X^.S.L.P.P.L.L.l.5 5 ; m.L.P.f O . l N M O . M $ . O M $ . o c ; &X&X",
"&X&X$XB.4XyXtX7X<Xe.7.>X8XqXeXeXeXqXqXqXqXqXqXyXiXhXlXkXdXyX~.v.L.P.c.l.C.0 0 m.x g S.P.G & . # B z . X b %   o M #   X c ; &X&X",
"&X&X&XB.4X7X7X8X5.+.o.+.>X8X7X7XqXqXqXwXqXqXyXjXlXcXcXcXlXdX^.v.C.m.4 6 i n : g n n C.S.6 o . z B M o . M $   o M @   X l ; &X&X",
"&X&X%XR.4XqXeX1X#.o.o.o.7.8XeXeXqXeXqXqXwXeXeXuXdXjXjXdXiXuX~.S.g n w n V V V A C A C.v.6   # M & M k o M $   X M @   X c ; &X&X",
"&X&X&XR.3XqXqX,X*.o.o.+.e.8XeXqXqXqXqXqXeXqXqXqXeXtXqXqXeXeXQ.P.J A I Z F 4.:X:XI Y S.S.- O c v X % N # M $   o M #   X c ; &X&X",
"&X&X&X.X^.qXqX0X X5.&.6.<XqXeXqXqXqXqXqXqXeXqXqXqXwXwXqXeXeX(.M.n U ;XfXgXgXvXvXU L C.Z.m c b #   . c z b $   X b #   X c ; &X&X",
"&X&X*X.XQ.qXqXqX0X1X<X8X8XeXwXeXeXeXqXqXqXqXqXqXqXwXqXqXwXqX).g Z ;XvXzXzX-X$XvXU S D.C.x k k % & & & k k k % & k & % & b - $X&X",
"&X&X*X.XQ.qXqXqXqXqXeXeXqXqXqXqXqXqXqXeXqXqXqXqXqXqXqXqXqXqX).Z.D :XzX-XzXfX&XvXI P P.Z.: * x x = = * x = = = = * x = = * t &X&X",
"&X&X&XOXQ.wXqXqXqXqXwXeXeXeXqXqXqXqXqXeX7X7XqXqXqX7XeXeXqXqX(.A.D :X*X*XfXOX-XzXI M.P.K.&X&X&X&X&X&X&X&X&X&X&X&X=X&X&X&X&X&X&X&X",
"&X&X&X@X~.qXqXqXqXqXqXqXqXqXqXeXeXeXtXyXiXdXdXiXuXtXeXeXqXqX(.J.Z :X}.OXj fXgXgXI J P.W.&X&X&X&X&X&X&X&X&X&X&X&X=X&X&X&X&X&X&X&X",
"*X*X=X#XQ.qXwXwXqXwXqXqXyXiXhXhXjXjXkXlXxXxXxXlXlXjXaX6X7XwXQ.Z.Z :XvXvXzXzXvXfXI P S.K.&X&X&X&X&X&X&X&X&X&X&X&X&X&X&X&X&X&X&X&X",
"&X%X=X#XE.0XqXqXqXeXeXyXjXxXxXxXcXcXcXcXcXcXcXcXcXcXxXhXtX7X(.C.D :XvXvXfX:XR F L Z.S.XX&X&X&X&X&X&X&X&X&X&X&X&X&X&X&X&X&X&X&X&X",
"&X&X&X#XQ.7XqXqXqXwXqXyXjXxXxXcXcXcXcXcXcXcXcXxXcXxXcXxXdXqX(.Z.A R |.U D V D D P S.P.OX&X&X&X&X&X&X&X&X&X&X&X&X&X&X&X&X&X&X&X&X",
"&X&X=X=XQ.7XqXqXqXqXqXqXyXiXkXlXxXxXxXxXxXlXkXhXdXhXkXlXdX7X(.g Z m A C C n M.g m.P.P.OX&X&X&X&X&X&X&X&X&X=X&X&X&X&X&X&X&X&X&X&X",
"&X&X&X@XE.7XqXqXqXqXqXqXqXqXyXuXuXiXdXiXiXyXyXeX7XeXtXuXqX7X/.J.P A g g M.m.x.8 z.n.D.Y.=X&X&X&X*X*X*X=X&X&X&X&X&X&X&X&X&X&X&X&X",
"&X*X&X$XT.6XqXqXqXqXqXwXqXwXqXqX7XeXeXtXqXqXqXqXtXeXqX7XwX5XG.n.M.g s.z.z.s.l.9 c.L.v.j &X&X$X@X@X$X$X$X&X$X$X@X$X&X$X&X&X&X&X&X",
"&X&X&X$XT.5XqXwXqXqXqXqXqXqXwXwXwXwXqXqXqXqXqXeXqXqXeXeXwX5XI.L.v.j.s.z.z.s.x.9 b.n.C.u d d s s u s s s s d s s i d d {.&X&X&X&X",
"&X&X&X&X!.7XuXyXyXyXtXqXqXqXqXqXeXqXqXqXeXqXqXeXqXeXqXqXwX6XI.L.v.s.j.S.S.l.h.9 n.L.C.J K H K H H 2 y y y y S H H y , OX&X&X&X&X",
"&X&X&X&X!.9XsXsXaXsXaXaXaXaXaXpXuXeXqXqXqXqXeXwXqXqXwXwXeX5XI.P.z.s.S.L.n.c.a.q n.L.Z.P L L L L L L L L L L L L K ; d &X&X&X&X&X",
"&X&X&X&X!.6XaXaXuXuXuXyXeXyXyXyXqXeXwXqXqXqXyXeXyXuXpXpXeX5XI.P.c.z.n.j.c.L.j.s.n.S.M.P L L L L L L L L L L L L H - '.&X&X&X&X&X",
"&X&X&X&XXX4XwXqXqXwXqXeXwXeXeXeXqXqXqXyXuXaXaXsXsXsXaXsXsX6XI.P.n.L.z.4 k.L.S.k.c.n.M.L L L L L L L L L L L L L 1 u $X&X&X&X&X&X",
"&X&X&X&XXX).wXqXwXwXqXqXwXeXeXeXyXyXaXsXsXsXsXsXsXsXsXsXsX6XI.P.P.c.7 3 q n.L.n.S.S.U.L L L L L L L L L L L L L 1 u @X&X&X&X&X&X",
"$X=X=X=X~.^.wX0X,X,X,XtXqXwXyXsXsXsXsXsXsXsXsXsXsXsXsXsXsX5XG.L.n.s.5 a.7 c.P.P.G.b.j L L L L L L L L L L L L L H < j =X&X&X&X&X",
"=X=X@X=X~.E.0X,Xt.y.y.rXaXaXsXsXsXsXsXsXdXsXsXdXsXsXsXdXsX5Xn.n.z.5 9 x.a.a.z.g.g.g.Y P L L L L L L L L L L L L L 2 2 [.&X&X&X&X",
"&X&X X#X{.~.>X>Xt.y.y.iXrXrX<X2X2X2X>X>X>X<X<X<XrXrXdXiXdX4XP.n.7 5 l.x.l.8 f.p a g.Y L L K K K L L L L P L L L L K < j &X&X&X&X",
"&X&X#X X#X~.y.<Xy.y.t.y.t.X.6.0.u...X.X.......t.X.t.t.y.>X#Xn.c.8 s.x.x.x.a.0 p h g.g u T T R T T T T T R T T T R T T _.&X&X=X&X",
"&X&X&X&X#X].y.t.t.X.X.| | ..,.0.,.X.| | ....| | | | ....X.3.I.L.k.h.x.x.x.8 e e h k.p W &X&X&X$X$X$X&X&X&X&X&X&X&X&X&X&X&X&X&X&X",
"&X&X&X&X}.Y.| | { { ) | ..$.9.0.;.| | | | | ..$.....$...| _.L.L.b.j.l.x.l.r p p p k.h h oX&X&X&X&X&X&X&X&X&X&X&X&X&X&X&X&X&X&X&X",
"&X&X&X&X}.W X.| | { E } | } %.0.:.%.} { } | | ..| ..| | ..`.L.L.n.l.d.l.9 e t t e k.p a }.&X&X&X&X&X&X&X&X&X&X&X&X&X&X&X&X&X&X&X",
"&X&X*X&X=XY.X.| X./ E / ' ] [ ,.q.,.$.) _ ' { ] ! | | | | `.n.l.z.b.9 q z.4 + p h k.Y.j $X&X&X&X&X&X&X&X&X&X&X&X&X&X&X&X&X&X&X&X",
"&X&X&X&X%XW 2.X.} ! Q ! ) ) [ ;.q.q.;._ ) ) ) ! > ' | | | `.n.r r n.z.b.L.j.8 a h A.Y.@X&X&X&X&X&X&X&X&X&X&X&X&X&X&X&X&X&X&X&X&X",
"&X&X&X&X%XY.2.{ ' ( / ( ) _ %.:.q.q.;.[ ) ) ) E > / ' } | ].S.f.5 c.L.n.z.8 r e h F.}.{.&X&X&X&X&X&X&X&X&X&X&X&X&X&X&X&X&X&X&X&X",
"&X&X&X&X*XR.<.' ) ) ' ) { %.:.q.q.q.;._ ' ) / E > Q ) ) { Y.L.j.7 f.n.b.7 5 e a f A.t j &X&X&X&X&X&X%X&X&X&X=X&X=X&X&X&X&X&X&X&X",
"&X&X=X&X*XY.3.' ) ) ) [ ;.:.u.q.q.q.%.{ ' ) E > E E / ) ' Y.L.l.9 8 c.8 5 7 f.r r N.- u [.`.`.`._.`.`.`.`.`.`.`.].].[.oX&X&X&X&X",
"&X&X&X&X*X].<.' ' ) [ ;.q.q.q.q.q.0.$.) ' ) E > > E / ( ] B.L.f.d.9 j.5 a.7 n.b.k.A.: , 2 1 < < ; < < < < - < < , , , U.&X*X&X&X",
"&X=X&X&X*X'.3.' ' [ ;.0.q.q.q.q.q.%._ ' ' ) ~ ~ Q ! / ( ] B.n.a.h.9 k.a.h.7 n.L.n.J.L L L L L L L L L H L L L L L y , oX&X&X&X&X",
"&X&X$X=X=X.XW { ' $.0.q.q.q.q.q.0.$.) ) ' ) ] / / ( ) )  .K.n.f.h.s.k.h.h.8 n.L.S.J.L L L L L L L L L L L L L L L - j &X&X&X&X&X",
"&X&X=X=X@X}.W ) ' %.q.q.q.q.q.q.q.[ ) ) ) ' ' ] ' ) ) ' ` K.n.a.h.9 l.l.d.9 n.L.n.V.L L L L L L L L L L L L L L 2 - {.&X&X&X*X&X",
"&X&X&X&X@X@XW ' ' %.q.q.q.q.q.q.0.$._ _ ' ) ) ) ' ) ) ) ` A.n.8 9 q f.l.a.q L.L.D.M.L L L L L L L L L L L L L L 1 u oX*X*X&X&X&X",
"&X&X&X&X=X}.Y.' ' [ :.u.q.q.q.q.q.;.[ ' ) ) ) ( ' ) ) ' 2.K.n.k.q f.s.l.a.s.L.L.D.M.L L L L L L L L L L L L L L 2 , _.*X*X*X&X&X",
"&X&X&X&X&X}.V.] ' [ :.:.:.:.:.:.=.=.*.#.( ^ ( ( ( ) ) ) 2.H.P.P.c.c.s.s.7 s.L.L.D.Y L L L L L L L L L L L L L L L : 2 oX&X&X*X&X",
"&X&X&X&X=X}.Y.] ( #.-.=.-.-.-.-.-.=.=.=.#.^ ^ ^ ( ( ) ) 4.H.L.P.P.P.n.z.s.f.L.L.P.Y L L L L L L L L L L L L L L L H , W &X&X&X&X",
"&X&X&X&X&X&XY.` #.&.-.-.-.-.-.-.q.-.-.-.*.*.#.^ ^ ^ ( ' 4.G.P.P.P.L.L.L.v.n.L.L.D.Y K y i i J J K J i i i i i J J i u s $X&X&X&X",
"&X&X&X&X*X@XV.1.&.-.-.-.-.-.=.8.8.8.8.8.5.5.5.1.<.<.j 3._.F.P.P.L.L.L.L.L.L.L.P.D.P ; u {.OXOX[.}.}.}.}.}.}.}.oX}.}.}.@X&X&X&X&X",
"&X&X&X&X*X$XV.V.R U.U.U.U.U.U.U.V.U.U.U.U.V.'.U.`.U.'.OX@XOX!.I.L.L.L.L.L.L.P.P.F.T , j &X&X&X&X&X&X*X&X&X&X&X&X&X&X&X&X&X&X&X&X",
"&X&X&X&X*X&X}..X[.}.oXoX X&XOXOXOX$X@X&X&X&X&X%X$X&X&X&X$X*X*X@XW.H.P.L.L.L.L.P.H.oXOX@X&X&X&X&X&X&X&X&X&X&X&X&X&X&X&X&X&X&X&X&X",
"&X&X&X&X&X&X&X&X&X&X%X=X%X*X=X*X=X=X=X X=X=X%X=X*X*X&X&X&X&X&X&X&X@X+XI.P.I.P.P.K.&X&X&X&X&X&X&X&X&X&X&X&X&X&X&X&X&X&X&X&X&X&X&X",
"&X&X&X&X&X&X&X&X&X&X-X;X;Xe.p.r.r.w.w.w.i.r.r.r.r.p.e.p.;X X-X=X&X&X&X@X+XI.P.P.W.&X&X&X&X&X&X&X&X&X&X&X&X&X&X&X&X&X&X&X&X&X&X&X",
"&X&X&X=X&X&X&X&X;X;Xi.:.&.@.@.O.O.O.o.O.o.o.O.O.O.@.@.@.:.i.i.;X*X&X&X&X&XOX+XH.+X&X&X&X&X&X&X&X&X&X&X&X&X&X&X&X&X&X&X&X&X&X&X&X",
"&X&X&X&X&X&X&X;Xi.u.&.@.O.O.o.O.o.o.o.O.o.o.o.o.O.O.O.@.@.,.u.u.;X&X&X&X&X&X&X&X&X&X&X&X&X&X&X&X&X&X&X&X&X&X&X&X&X&X&X&X&X&X&X&X",
"&X&X&X&X&X&X&Xe.0.:.u.,.>.>.>.>.>.>.>.:.>.>.>.:.>.>.>.,.q.u.0.w.;X&X&X&X&X&X&X&X&X&X&X&X&X&X&X&X&X&X&X&X&X*X&X&X&X&X&X&X&X&X&X&X",
"&X&X&X&X&X&X&X%X X;Xe.e.r.7.7.w.7.w.w.w.7.w.w.w.w.e.e.e.e.;X X%X&X&X&X&X&X&X&X&X&X&X&X&X-X&X&X&X&X&X&X&X&X&X&X&X&X&X&X&X&X&X&X&X",
"&X&X&X&X&X&X&X&X&X&X&X&X&X%X&X&X&X%X%X%X%X%X%X%X%X&X&X%X&X&X&X&X&X&X&X&X&X&X&X&X&X&X&X&X&X&X&X&X&X&X&X&X&X&X&X&X&X&X&X&X&X&X&X&X",
"&X&X&X&X&X&X&X&X&X&X&X&X&X&X&X&X&X&X&X&X*X*X&X&X&X&X&X&X&X&X&X&X&X&X&X&X&X&X&X&X&X&X&X&X&X&X&X&X&X&X&X&X&X&X&X&X&X&X&X&X&X&X&X&X"
};
