/* XPM */
static char *Open1E1721789026[] = {
/* columns rows colors chars-per-pixel */
"64 64 236 2 ",
"   c #020000",
".  c #0D0303",
"X  c #180808",
"o  c #270C0C",
"O  c #390F0F",
"+  c #2F1111",
"@  c #361111",
"#  c #391616",
"$  c #3A1E28",
"%  c #383435",
"&  c #303338",
"*  c #431B1B",
"=  c #561F1F",
"-  c #562626",
";  c #593B2B",
":  c #513230",
">  c #6B3130",
",  c #757D08",
"<  c #59462D",
"1  c #64452C",
"2  c #694433",
"3  c #6D5039",
"4  c #0F1A40",
"5  c #17274E",
"6  c #162757",
"7  c #2C3152",
"8  c #182D65",
"9  c #1E336E",
"0  c #1D3776",
"q  c #2A3462",
"w  c #233B79",
"e  c #513357",
"r  c #374F51",
"t  c #354C70",
"y  c #4D5951",
"u  c #7D4944",
"i  c #68594D",
"p  c #7E5455",
"a  c #496559",
"s  c #536B5F",
"d  c #6F634F",
"f  c #756955",
"g  c #4B4A6F",
"h  c #6A456F",
"j  c #754868",
"k  c #675066",
"l  c #645E61",
"z  c #7A5479",
"x  c #51706D",
"c  c #72706E",
"v  c #8E3913",
"b  c #893727",
"n  c #9B4A09",
"m  c #9C4D11",
"M  c #A25010",
"N  c #9A4C2A",
"B  c #99563A",
"V  c #A45332",
"C  c #A6683E",
"Z  c #854D48",
"A  c #865455",
"S  c #8B5050",
"D  c #935353",
"F  c #94525D",
"G  c #9D6448",
"H  c #A56C46",
"J  c #85566D",
"K  c #877779",
"L  c #917473",
"P  c #7C870A",
"I  c #7C8672",
"U  c #858B11",
"Y  c #8B9412",
"T  c #8C9414",
"R  c #A69E1A",
"E  c #9BA41C",
"W  c #A6A71D",
"Q  c #A5AC1E",
"!  c #B0AC1F",
"~  c #A09C30",
"^  c #A6AC21",
"/  c #A7AA25",
"(  c #B7AC23",
")  c #ADB127",
"_  c #B4B429",
"`  c #BBBB2E",
"'  c #A7A635",
"]  c #BCBB32",
"[  c #B8BA3A",
"{  c #FA9907",
"}  c #FA9D09",
"|  c #F09B14",
" . c #F8A313",
".. c #CFAA2D",
"X. c #C4B32C",
"o. c #D8B635",
"O. c #EFAB27",
"+. c #EBAA35",
"@. c #F5AB35",
"#. c #F9AB33",
"$. c #F2A83D",
"%. c #E7BA3C",
"&. c #F8B53C",
"*. c #FBC135",
"=. c #FBC53B",
"-. c #929257",
";. c #BB994D",
":. c #AFAF4B",
">. c #88916F",
",. c #AF916E",
"<. c #DE9E4B",
"1. c #D2B849",
"2. c #DAB359",
"3. c #EAA243",
"4. c #EABC43",
"5. c #F5BB43",
"6. c #FCBB43",
"7. c #E4B95B",
"8. c #D1B470",
"9. c #E3BA67",
"0. c #B2C353",
"q. c #AEC86F",
"w. c #F7C948",
"e. c #F3CA57",
"r. c #E1C474",
"t. c #1E3E87",
"y. c #233E83",
"u. c #1F4290",
"i. c #28448A",
"p. c #374F8F",
"a. c #224493",
"s. c #2B4A98",
"d. c #35549B",
"f. c #264CA3",
"g. c #2750AE",
"h. c #3556A7",
"j. c #2B57BB",
"k. c #365BB6",
"l. c #3A5EB5",
"z. c #3E61B7",
"x. c #3E63BD",
"c. c #49508A",
"v. c #775B86",
"b. c #675795",
"n. c #586A9E",
"m. c #757889",
"M. c #736F97",
"N. c #69779D",
"B. c #4A5EAD",
"V. c #625EA4",
"C. c #546BAB",
"Z. c #4365BE",
"A. c #4867BA",
"S. c #536BB6",
"D. c #4B73BE",
"F. c #5973BA",
"G. c #6261A5",
"H. c #6879A7",
"J. c #667AB3",
"K. c #3F65C1",
"L. c #4166C0",
"P. c #4A6FC0",
"I. c #8A7B8F",
"U. c #7A8487",
"Y. c #688D96",
"T. c #788497",
"R. c #6987AB",
"E. c #7887A6",
"W. c #6A95AE",
"Q. c #7A88B5",
"!. c #6B99B4",
"~. c #7491B1",
"^. c #71A1B4",
"/. c #75A9B9",
"(. c #5785C3",
"). c #679AC4",
"_. c #77AEC7",
"`. c #888686",
"'. c #8D8B8A",
"]. c #878897",
"[. c #8D8F90",
"{. c #929195",
"}. c #979799",
"|. c #9B9A9E",
" X c #A38381",
".X c #B5AA95",
"XX c #8A97A8",
"oX c #8994AE",
"OX c #9D9CA4",
"+X c #979AA8",
"@X c #828EB3",
"#X c #9BA4AA",
"$X c #98AAAE",
"%X c #A3A2A6",
"&X c #A8A5A7",
"*X c #A7A6AB",
"=X c #A9A7A9",
"-X c #AAAAA9",
";X c #B4B2B0",
":X c #C8B28F",
">X c #D0B7AC",
",X c #B6D18D",
"<X c #A9D8AF",
"1X c #B2DAAD",
"2X c #A8D8B5",
"3X c #C9D195",
"4X c #83BBC4",
"5X c #8BC7C8",
"6X c #93CFD0",
"7X c #97D8D4",
"8X c #96DDD4",
"9X c #A4DDC7",
"0X c #A1D5D8",
"qX c #9EE0CA",
"wX c #9AE1D7",
"eX c #96E2D8",
"rX c #9AE1D8",
"tX c #B1E6C8",
"yX c #A1E1D7",
"uX c #A3E4DB",
"iX c #ABE5DC",
"pX c #B3E8DC",
"aX c #A8E7E0",
"sX c #ACE9E1",
"dX c #B3ECE4",
"fX c #BAEAE3",
"gX c #D7D2D0",
"hX c #F0E6DE",
"jX c #C6EDE8",
"kX c #CCF1EC",
"lX c #D3F1ED",
"zX c #DBF4F1",
"xX c #E9E8E8",
"cX c #E5F5F3",
"vX c #E9F4F2",
"bX c #F7F6F6",
/* pixels */
"*X*X*X*X*X*X*X*X*X=X*X*X*X*X*X*X*X*X*X*X*X*X*X*X*X*X*X=X*X*X*X*X*X*X*X*X*X*X*X*X*X*X*X*X*X*X*X*X*X*X*X*X*X*X*X*X*X*X*X*X*X*X*X*X",
"*X*X*X*X*X*X*X*X=X=X*X*X*X*X*X*X*X*X*X*X*X*X*X*X*X*X*X*X*X*X*X*X*X*X*X*X*X*X*X*X*X*X*X#X).*X*X*X*X*X*X*X*X*X*X*X*X*X*X*X*X*X*X*X",
"*X*X*X*X*X*X*X*X=X*X*X*X*X*X*X*X*X*X*X*X*X*X*X*X*X*X*X*X*X*X*X*X*X*X*X*X*X*X*X*X*X*X@XP.A.+X*X*X*X*X*X*X*X*X*X*X*X*X*X*X*X*X*X*X",
"*X*X*X*X*X*X*X*X*X*X*X*X*X*X*X*X*X*X*X*X*X*X*X*X*X*X*X*X*X*X*X*X*X*X*X*X*X*X*X*XoXJ.L.K.P.*X*X*X*X*X*X*X*X*X*X*X*X*X*X*X*X*X*X*X",
"*X*X*X*X*X*X*X*X*X*X*X*X*X*X*X*X*X*X*X*X*X*X*X*X*X*X*X*X*X*X*X*X*X*X*X*X*X*XoX(.L.L.L.K.P.#X*X*X*X*X*X*X*X*X*X*X*X*X*X*X*X*X*X*X",
"*X*X%X#X%X%X*X*X%X*X*X*X*X*X*X*X*X*X*X*X*X*X*X*X=X*X*X*X*X*X*X*X*X*X*X&X+XQ.P.L.K.K.L.K.F.*X*X*X*X*X*X*X*X*X*X*X*X*X*X*X*X*X*X*X",
"*X*X+XC.n.H.H.E.E.@XXX}.+X+X*X*X#X%X-X-X*X*X&X*X*X*X*X*X*X*X*X*X*X*X*X).P.L.L.L.K.K.x.Z.F.{.{.{.+XI.{.{.{.{.{.{.{.{.{.{.{.OX*X*X",
"*X*XOXc.Y.5X5X5X$XW.W.W.~.!.~.R.R.E.E.M.E.XX+XXX+XOX%X%X*X*X*X*X*XI.F.L.Z.L.Z.L.K.x.x.Z.B.# @ @ * O O O O O @ @ @ @ @ O + % *X*X",
"*X*XOXn.5XrXrXrXeXeXwX8X8XeX8X6X6X5X4X/./.^.W.R.(.R.J.R.R.H.E.~.P.P.K.K.K.K.K.Z.t.y.Z.L.c.+ . o X . o . X X o # + + + . * % &X&X",
"*X*X%Xn.5XeXwXrXeXeXwX8XrXrXwXrXwXeXeXeXwXeX8XeX5X6X5X6X5X4XR.Z.L.L.K.K.K.K.k.0 4 y.L.L.g # . + * + *   # $ o # > = $ X O % =X*X",
"*X*X#XN.$XeX8XrXeXqX9X7XwXwXwXwXwXwXwXwXwXwXeXwXeXeXyXyXwXrX/.Z.K.K.K.K.Z.h.q 6 > c.L.L.w o     - > o   # *     - X     O % *X*X",
"*X*X*XN.5XeXyXyX2X8.2.,X9XwXwXrXwXwXwXwXwXwXwXiXpXjXzXlXfXyX^.l.K.K.Z.f.B.q q y.b h Z.Z.g * .   * > .   # *     - o     O % *X*X",
"*X*X*XN.5X8XrX9X<.| { | ,X9X8XeXwXwXwXrXrXwXuXkXcXcXcXcXzXfX/.l.B.c.5 % j b Z j v b B.Z.7     X = = O   # $     - X     O % *X*X",
"*X*X*XE.4XrX8X2X..{ { { 2.9XrX8XeXwXwXwXwXwXwXiXjXjXkXfXpXaX^.L.h b e b n n m N M b B.k.5     # * X = . # *     - o     O % *X*X",
"*X*X*XE.4XrX7X2X+.{ { | 8.9XrXrXwXwXwXwXeXwXwXwXwXuXqXeXrXrXW.Z.F N B M C ,.:X>XG F Z.Z.% o o = X   * * # $     : o     * % *X*X",
"*X*X*XXX/.8X7X9X,X<.O.1.1XwXrXwXwXrXwXrXwXwXwXwXwXwXrXwXrX8X!.b.b H :XgXhXbXbXbXH F Z.B.- * o o     . O X o     o .   . O % *X*X",
"*X*X=XXX!.wXwXwXqX2X1X9X9XeXeXrXwXrXrXrXrXwXeXwXrXeXwXwXwXwX_.v.M :XbXxXxX;X%XbXG B B.B.$ @ @ # O @ O @ # O @ O @ # O O # % -X-X",
"*X*X-XXX!.wXwXwXwXwXeXrXwXwXwXwXwXwXeXyXrXrXwXrXeXrXwXrXwXwX_.G.B >XxX;XxXgX*XbXC F Z.F.l l l l l l l l l l l l l l l l l l *X*X",
"*X*X*X+XW.wXwXwXwXwXrXrXrXrXwXrXwXwXeX8X8X8XrXwX8XeXrXeXwXwX).G.V >X-X-XgXOX;XxXG v.L.J.*X*X*X*X*X*X*X*X*X*X*X*X*X*X*X*X*X*X*X*X",
"*X*X*X#X^.wXwXwXwXeXwXwXwXwXwXwXwXyXyXyXpXfXfXpXiXyXrXrXwXeX).G.M >X}.+Xc gXhXhXG j L.Q.*X*X*X*X*X*X*X*X*X*X*X*X*X*X*X*X*X*X*X*X",
"-X&X-X$X^.8XeXwXwXwXwXwXiXpXfXjXjXkXlXzXcXcXcXcXzXlXdX7XeXeX).V.M >XbXbXhXxXbXgXB F Z.Q.*X*X*X*X*X*X*X*X*X*X*X*X*X*X*X*X*X*X*X*X",
"*X&X-X#XW.eXwXwXwXrXrXuXkXcXcXcXvXvXvXvXvXvXcXvXvXvXcXjXyXeX!.C.V >XbXbXgX>XL C D G.L.@X*X*X*X*X*X*X*X*X*X*X*X*X*X*X*X*X*X*X*X*X",
"*X*X*X$X!.8XwXwXwXrXwXuXkXcXcXcXvXvXvXvXvXvXcXcXvXcXvXcXfX8X(.b.V L  XH V n V V F Z.P.oX*X*X*X*X*X*X-X*X*X*X*X*X*X*X*X*X*X*X*X*X",
"*X*X-X-X!.8XwXwXwXrXwXwXuXpXlXcXcXvXcXcXcXzXlXjXfXfXlXcXfX8X).z n v V m M b b.h c.L.P.+X*X*X*X*X*X*X*X*X*X*X*X*X*X*X*X*X-X*X*X*X",
"*X*X*X#X!.8XeXwXwXwXwXeXwXwXuXiXpXpXfXpXpXiXyXwX8XyXyXuXeXeX(.G.F N h I.h c.g.9 h.K.Z.T.&X*X*X*X*X*X*X&X=X=X=X=X*X*X*X*X*X*X*X*X",
"*X-X*X#XR.6XeXwXwXwXwXwXwXeXwXwX8XrXwXrXwXwXwXrXyXrXrX8XeX6XD.x.b.j y.h.h.t.g.0 l.L.B.m.*X%X%X%X%X%X%X%X%X%X*X&X%X*X%X*X*X*X*X*X",
"*X*X*X*XR.7XwXwXwXwXwXwXwXwXeXeXeXwXwXwXwXrXwXwXrXeXrXwXrX6XP.K.B.s.y.h.h.y.g.y.l.L.B.i f f d d i i d d f d f f f f c {.*X*X*X*X",
"*X*X*X%XE.7XuXuXuXuXyXwXrXrXwXeXwXwXwXwXwXeXwXrXwXwXrXwXeX6XP.K.k.y.s.K.k.f.t.y.x.L.B.S Z Z S Z Z 3 Z u u u 3 Z Z u < }.*X*X*X*X",
"*X*X*X*X~.0XdXdXsXdXdXsXsXsXiXaXuXuXwXwXeXwXeXrXwXwXeXeXeX6XP.K.h.t.Z.Z.Z.B.t.t.x.K.V.D D D D D D D D D D D D D D ; l *X*X*X*X*X",
"*X*X*X*XE.0XdXsXaXiXuXuXuXrXuXuXrXrXwXeXwXwXrXuXuXiXaXaXuX6XP.K.k.B.Z.t.x.Z.t.y.K.x.b.F D D D D D D D D D D D D Z : {.*X*X*X*X*X",
"*X*X*X*X^.5XeXrXwXrXeXwXeXrXeXrXrXwXwXuXuXsXdXdXdXdXdXdXdX7XP.L.x.x.h.6 h.K.x.h.x.K.I.D D D D D D D D D D D D D 2 i %X*X*X*X*X*X",
"*X*X*X*XoX4XeXwXwXrXwXwXeXrXrXrXuXuXsXdXdXdXdXdXdXdXdXdXdX7XP.L.K.k.8 4 0 x.K.x.x.Z.v.D D D D D D D D D D D D D 2 i OX*X*X*X*X*X",
"*X-X&X-X^./.qXqX<X<X<XyXrXeXaXdXdXdXdXdXdXdXdXdXdXdXdXdXdX6XD.K.Z.y.6 t.8 k.K.K.D.x.z D D D D D D D D D D D D D Z 1 >.*X*X*X*X*X",
"*X-X#X-XXX^.qX<X0.q.q.tXsXsXdXdXdXfXdXdXdXdXdXfXdXdXdXfXdX6XK.K.h.6 t.j.t.t.d.p.p.c.K D D D D D D D D D D D D D D 3 3 |.*X*X*X*X",
"*X*X-X#X}.^.,X,X0.q.q.pXtXtX1X3X3X3X,X,X,X1X1X1XtXtXfXpXfX4XK.z.8 6 f.j.g.9 y.a s p.J F D S D S D D D D D D D F D S > c *X*X*X*X",
"*X*X$X.X$X^.q.1Xq.q.0.q.0.[ 1.4.w.] [ ] ] ] ] 0.] 0.0.q.,X$Xx.z.9 y.j.j.j.y.8 s x p.k i c K L K K K K K K K K L L K c '.*X*X*X*X",
"*X*X*X*X$XY.q.0.0.[ [ ` ` X.=.5.4.` ` ` ` X.` ` ] ] ] ] [ >.P.K.d.a.j.j.j.w r r x c.x I %X*X*X*XOX*X*X*X*X*X*X*X*X*X*X*X*X*X*X*X",
"*X*X*X*X#XI ] ` ) ) Q ` ] X.4.5.w.` ` ` ` ` ] ] ] ] ] ] [ >.K.K.z.a.g.j.f.t a y r d.x x %X*X*X*X*X*X*X*X*X*X*X*X*X*X*X*X*X*X*X*X",
"*X-X*X*X|.U.[ ` ` ) P _ ` _ o.5.&.o.) ) _ ` ` X.` ` ` ] ` [.x.x.x.h.u.f.0 r y y a d.x s |.*X*X*X*X*X*X*X*X*X*X*X*X*X*X*X*X*X*X*X",
"*X*X*X*X-XU.[ ` [ E P E ^ ^ ( =.6.=.X.Q Q ) ) / Y ` ] ` ` [.x.s.h.l.0 w h.5 & a x h.x c %X*X*X*X*X*X*X*X*X*X*X*X*X*X*X*X*X*X*X*X",
"*X*X*X*X&XI :.[ _ T U Y Q Q ) %.6.6.*.Q Q Q Q P , Q _ ` ` '.x.i.w x.h.z.x.d.9 s I d.Y.-X*X*X*X*X*X*X-X*X*X*X*X*X*X*X*X*X*X*X*X*X",
"*X*X*X*X&XU.:.) ^ E E Q Q ! o.&.6.6.&.! Q Q ^ P P E ) _ ` [.x.i.6 l.x.x.h.9 t r t (.}.}.*X*X*X*X*X*X*X*X*X*X*X*X*X*X*X*X*X*X*X*X",
"*X*X*X*X-XT.-.^ Q Q Q ^ ( o.5.6.6.6.%.( ^ ^ E P , U Q Q ) T.x.s.8 i.x.z.8 6 9 a g C.y f %X*X*X*X*X*X-X*X*X*X-X*X*X=X=X*X=X=X*X*X",
"*X*X*X*X-XT.>.^ Q Q Q ( %.&.6.6.6.6.o.) ^ ^ P , , P E Q ^ T.x.d.0 9 l.0 6 8 p.a t C.< d {.[.'.'.`.`.'.`.'.'.'.'.'.[.{.OX*X=X=X=X",
"*X*X*X*X*X[.-.Q Q Q ( %.6.6.6.w.6.&.` Q ^ E P P , U E W / N.L.a.u.0 s.6 t.8 x.z.d.n.u ; 3 1 1 1 < 1 ; ; 1 ; 1 1 < 1 ; I.*X*X*X*X",
"*X*X-X*X*XXX>.^ Q ( %.6.6.6.6.6.6.o.! Q ^ ^ T T U U E W / H.K.y.u.w f.u.u.8 x.K.K.G.D D D D D D D D D D D D D D D u < +X*X*X*X*X",
"*X*X*X*X-XXXI Q ^ X.5.6.6.6.6.6.5.X.^ Q ^ ^ / E W E Q ^ ' H.x.i.a.w h.a.u.9 x.x.K.b.D D D D D D D D D D D D D D D : c *X*X*X*X*X",
"*X*X*X*X*X}.I Q / o.6.6.6.6.6.6.6.( Q ^ ^ ^ ^ ^ ^ Q Q Q ~ H.x.y.u.w h.a.a.0 x.x.K.M.D D D D D D D D D D D D D D 3 : }.*X*X*X*X*X",
"*X*X*X*X-X+XI ^ / o.6.6.6.6.6.6.5.X.W Q Q Q Q Q Q Q Q Q ' S.l.0 w w t.f.t.0 K.K.Z.v.D D D D D D D D D D D D D D 2 i OX*X*X*X*X*X",
"*X*X*X*X%X+XU.^ ^ _ w.6.6.6.6.6.6.%.( ) W ! Q W ^ Q Q ^ ;.J.K.s.9 i.y.f.y.w K.K.Z.v.D D F D D D D D D D D D D D 3 1 >.-X*X*X*X*X",
"-X*X*X*X*X|.U./ Q ( &.&.6.&.&.#.#.&.+...W W R W Q Q Q Q :.P.K.K.Z.k.y.y.0 y.K.K.Z.J D D D D D D D D D D D D D D D > i |.*X*X*X*X",
"*X*X*X*X%X#XT.' W ..#.#.#.#.#.#.#.@.@.$...R R R W W Q Q :.F.K.K.K.K.l.k.y.y.K.K.K.J D D D D D D D D D D D D D D D Z 1 I *X*X*X*X",
"*X*X*X*X*X*XT.~ ..@.#.#.#.#.#.#.&.#.#.#.+.+...R R R W Q ,.D.K.K.K.K.K.K.x.x.K.K.A.J S Z S S A A A A p p p p p p p A i f *X*X*X*X",
"*X*X*X*X*X%Xm.;.+.#.#.#.#.@.$.$.3.3.3.3.3.<.<.;.-.-.c >.`.C.L.K.K.K.K.K.K.K.K.K.B.J : i }.OX}.+X|.|.OX|.|.|.|.OX+X|.}.OX*X*X*X*X",
"*X*X*X*X*X%Xm.m.L L I.L I.I.I.I.M.I.I.I.I.M.I.].I.].].+X#XXX@XF.L.L.K.L.K.K.K.K.S.K : c *X*X*X*X-X*X*X*X*X*X*X*X*X*X*X*X*X*X*X*X",
"*X*X*X*X*X*X|.].+X+X|.&X&XOXOX+X+X*X$X%X%X*X*X*X&X*X&X*X*X*X=X#X@XP.L.K.K.K.K.K.J.OX+X=X*X*X*X*X*X*X*X*X*X*X*X*X*X*X*X=X*X*X*X*X",
"*X*X*X*X*X*X*X*X%X*X-X-X-X-X-X-X&X&X-X&X&X&X&X-X*X-X&X&X-X-X-X-X*X*X@XP.L.L.L.L.J.=X=X*X*X*X*X*X*X*X*X*X*X*X*X*X*X*X*X*X*X*X*X*X",
"*X*X*X*X*X*X*X*X*X=X.X:X:X:Xr.9.9.9.7.e.e.7.9.9.9.9.9.3X:X.X-X;X*X*X*X#X@XP.L.L.).*X=X*X*X*X*X*X*X*X*X*X*X*X*X*X*X*X*X*X*X*X*X*X",
"*X*X*X*X*X*X*X-X:X:Xe.&.O. .} } } } { } { { } } }  . . .#.w.r.:X*X*X*X*X*X*X@XF.@X*X*X*X*X*X*X*X*X*X*X*X*X*X*X=X*X*X*X*X*X*X*X*X",
"*X*X*X*X*X*X*X:Xe.w.O. .} } } } { } { { { { { { { } }  . .=.w.w.:X*X*X*X*X*X*X*X*X*X*X*X*X*X*X*X=X*X=X*X*X*X*X*X*X*X*X*X*X*X*X*X",
"*X-X*X*X*X*X*X8.w.&.w.=.*.=.=.&.*.*.*.*.*.&.*.&.*.*.=.=.5.5.5.7.:X*X*X*X*X*X*X*X*X*X*X*X*X*X*X*X*X*X*X*X*X*X*X*X*X*X*X*X*X*X*X*X",
"*X*X*X*X*X*X*X&X.X:X8.8.2.7.2.7.7.2.7.2.7.7.7.7.7.8.8.8.8.:X.X&X*X*X*X*X*X*X*X*X*X*X*X*X*X*X*X*X*X*X*X*X*X*X*X*X*X*X*X*X*X*X*X*X",
"*X*X*X*X*X*X*X*X%X%X*X*X&X&X-X&X&X*X&X&X&X&X&X&X&X*X&X*X*X*X*X*X*X*X*X*X*X*X*X*X*X*X*X*X*X*X*X*X*X*X*X*X*X*X*X*X*X*X*X*X*X*X*X*X",
"*X*X*X*X*X*X*X*X*X*X*X*X*X*X*X*X*X*X*X-X&X&X*X*X*X*X*X*X*X*X*X*X*X*X*X*X*X*X*X*X*X*X*X*X*X*X*X*X*X*X*X*X*X*X*X*X*X*X*X*X*X*X*X*X"
};
