/* XPM */
static char *Open1G1721789026[] = {
/* columns rows colors chars-per-pixel */
"64 64 236 2 ",
"   c #020000",
".  c #0D0303",
"X  c #180808",
"o  c #270C0C",
"O  c #390F0F",
"+  c #2F1111",
"@  c #361111",
"#  c #391616",
"$  c #3A1E28",
"%  c #383435",
"&  c #303338",
"*  c #431B1B",
"=  c #561F1F",
"-  c #7D1E15",
";  c #7D321C",
":  c #4D2B2D",
">  c #562626",
",  c #69312D",
"<  c #757D08",
"1  c #54443A",
"2  c #6C4B34",
"3  c #0F1A40",
"4  c #17274E",
"5  c #162757",
"6  c #2C3152",
"7  c #182D65",
"8  c #1E336E",
"9  c #1D3776",
"0  c #2A3462",
"q  c #233B79",
"w  c #513357",
"e  c #374F51",
"r  c #354C70",
"t  c #475A51",
"y  c #6B564D",
"u  c #496559",
"i  c #536B5F",
"p  c #6F624D",
"a  c #756855",
"s  c #4C4A70",
"d  c #6B5267",
"f  c #645E61",
"g  c #744C70",
"h  c #51706D",
"j  c #70706D",
"k  c #8B2C1B",
"l  c #89371B",
"z  c #8C3526",
"x  c #AA2526",
"c  c #C91A1E",
"v  c #D31C22",
"b  c #E81D26",
"n  c #EC1C24",
"m  c #C5282F",
"M  c #C23439",
"N  c #9B4A09",
"B  c #9C4D11",
"V  c #A25010",
"C  c #9A4C2A",
"Z  c #99563A",
"A  c #A45332",
"S  c #A6683E",
"D  c #D4334D",
"F  c #C83C63",
"G  c #844E47",
"H  c #8B5150",
"J  c #935353",
"K  c #94525D",
"L  c #A56C46",
"P  c #84556D",
"I  c #89787A",
"U  c #927372",
"Y  c #7C870A",
"T  c #7C8672",
"R  c #858B11",
"E  c #8B9412",
"W  c #8C9414",
"Q  c #A69E1A",
"!  c #9BA41C",
"~  c #A6A71D",
"^  c #A5AC1E",
"/  c #B0AC1F",
"(  c #A09C30",
")  c #A6AC21",
"_  c #A7AA25",
"`  c #B7AC23",
"'  c #ADB127",
"]  c #B4B429",
"[  c #BBBB2E",
"{  c #A7A635",
"}  c #BCBB32",
"|  c #B8BA3A",
" . c #FA9907",
".. c #FA9D09",
"X. c #F09B14",
"o. c #F8A313",
"O. c #CFAA2D",
"+. c #C4B32C",
"@. c #D8B635",
"#. c #EFAB27",
"$. c #EBAA35",
"%. c #F5AA36",
"&. c #F9AB33",
"*. c #E7BA3C",
"=. c #F8B53C",
"-. c #FBC135",
";. c #FBC53B",
":. c #929257",
">. c #BB994D",
",. c #AFAF4B",
"<. c #88916F",
"1. c #AF916E",
"2. c #DE9E4B",
"3. c #D2B849",
"4. c #DAB359",
"5. c #EAA243",
"6. c #EABC43",
"7. c #F5BB43",
"8. c #FCBB43",
"9. c #E4B95B",
"0. c #D1B470",
"q. c #E3BA67",
"w. c #B2C353",
"e. c #AEC86F",
"r. c #F7C948",
"t. c #F3CA57",
"y. c #E1C474",
"u. c #1E3E87",
"i. c #233E83",
"p. c #1F4290",
"a. c #28448A",
"s. c #374F8F",
"d. c #224493",
"f. c #2B4A98",
"g. c #35549B",
"h. c #264DA6",
"j. c #3556A7",
"k. c #2B57BB",
"l. c #365BB6",
"z. c #3A5EB5",
"x. c #3E61B7",
"c. c #3E63BD",
"v. c #49508A",
"b. c #6D588F",
"n. c #586A9E",
"m. c #757889",
"M. c #69779D",
"N. c #767597",
"B. c #485EAF",
"V. c #675CA2",
"C. c #556BAB",
"Z. c #4365BE",
"A. c #4867BB",
"S. c #5569B6",
"D. c #4B73BE",
"F. c #5973BA",
"G. c #6673AB",
"H. c #3F65C1",
"J. c #4166C0",
"K. c #4A6FC0",
"L. c #905698",
"P. c #A54F87",
"I. c #8A7B8F",
"U. c #7A8487",
"Y. c #688D96",
"T. c #788497",
"R. c #6987AB",
"E. c #7887A6",
"W. c #6A95AE",
"Q. c #7A88B5",
"!. c #6B99B4",
"~. c #7491B1",
"^. c #71A1B4",
"/. c #75A9B9",
"(. c #5785C3",
"). c #679AC4",
"_. c #77AEC7",
"`. c #888686",
"'. c #8D8B8A",
"]. c #878897",
"[. c #8D8F90",
"{. c #939195",
"}. c #99979A",
"|. c #9D9A9E",
" X c #A38381",
".X c #B5AA95",
"XX c #8A97A8",
"oX c #8994AE",
"OX c #9D9CA4",
"+X c #979AA8",
"@X c #828EB3",
"#X c #9BA4AA",
"$X c #98AAAE",
"%X c #A3A2A6",
"&X c #A8A5A7",
"*X c #A7A6AB",
"=X c #A9A7A9",
"-X c #AAAAA9",
";X c #B4B2B0",
":X c #C8B28F",
">X c #D0B7AC",
",X c #B6D18D",
"<X c #A9D8AF",
"1X c #B2DAAD",
"2X c #A8D8B5",
"3X c #C9D195",
"4X c #83BBC4",
"5X c #8BC7C8",
"6X c #93CFD0",
"7X c #97D8D4",
"8X c #96DDD4",
"9X c #A4DDC7",
"0X c #A1D5D8",
"qX c #9EE0CA",
"wX c #9AE1D7",
"eX c #96E2D8",
"rX c #9AE1D8",
"tX c #B1E6C8",
"yX c #A1E1D7",
"uX c #A3E4DB",
"iX c #ABE5DC",
"pX c #B3E8DC",
"aX c #A8E7E0",
"sX c #ACE9E1",
"dX c #B3ECE4",
"fX c #BAEAE3",
"gX c #D7D2D0",
"hX c #F0E6DE",
"jX c #C6EDE8",
"kX c #CCF1EC",
"lX c #D3F1ED",
"zX c #DBF4F1",
"xX c #E9E8E8",
"cX c #E5F5F3",
"vX c #E9F4F2",
"bX c #F7F6F6",
/* pixels */
"*X*X*X*X*X*X*X*X*X*X*X*X*X*X*X*X*X*X*X*X*X*X*X*X*X*X*X*X*X*X*X*X*X*X*X*X*X*X*X*X*X*X*X*X*X*X*X*X*X*X*X*X*X*X*X*X*X*X*X*X*X*X*X*X",
"*X*X*X*X*X*X*X*X*X*X*X*X*X*X*X*X*X*X*X*X*X*X*X*X*X*X*X*X*X*X*X*X*X*X*X*X*X*X*X*X*X*X*X#X).*X*X*X*X*X*X*X*X*X*X*X*X*X*X*X*X*X*X*X",
"*X*X*X*X*X*X*X*X-X*X*X*X*X*X*X*X*X*X*X*X*X*X*X*X*X*X-X*X*X*X*X*X*X*X*X*X*X*X*X*X*X*X@XK.A.+X*X*X*X*X*X*X*X*X*X*X*X*X*X*X*X*X*X*X",
"*X*X*X*X*X*X*X*X*X*X*X*X*X*X*X*X*X*X*X*X*X*X*X*X*X*X*X*X*X*X*X*X*X*X*X*X*X*X*X*X+XF.J.H.K.*X*X*X*X*X*X*X*X*X*X*X*X*X*X*X*X*X*X*X",
"*X*X*X*X*X*X*X*X*X*X*X*X*X*X-X*X*X*X*X*X*X*X*X*X*X*X*X*X*X*X*X*X*X*X*X*X*X*XoX(.J.J.J.H.K.#X*X*X*X*X*X*X*X*X*X*X*X*X*X*X*X*X*X*X",
"*X*X%X#X%X%X*X*X&X*X*X%X*X*X*X*X*X*X*X*X*X*X*X*X*X*X*X*X*X*X*X*X*X*X*X;X+XQ.K.K.H.H.H.H.F.*X*X*X*X*X*X*X*X*X*X*X*X*X*X*X*X*X*X*X",
"*X*X+XC.n.G.E.M.E.].XX+X+X+X*X*X*X&X*X*X*X*X&X*X*X*X*X*X*X*X*X*X*X*X*XG.K.H.Z.Z.H.H.J.J.F.}.{.{.+XI.{.{.{.{.{.{.{.{.{.{.{.+X*X*X",
"*X*XOXv.Y.5X5X5X4X!.W.W.~.!.~.R.R.R.N.T.E.XX+XXX+XOX%X*X%X*X*X*X*X@XF.J.Z.H.H.H.H.H.H.J.v.# + + * O O O @ @ @ O @ O O O + % *X*X",
"*X*X#Xn.5XrXrXrX8X8XeX8X8XrX8X6X6X5X4X/./.!.W.R.C.R.G.R.R.R.T.~.K.K.J.H.H.H.H.Z.u.i.Z.Z.v.+ . o X . o . X X o + + @ + X O % *X*X",
"*X*XOXn.5XeXrXwXrXrXqX8XrXrXrXeXwXrXeXeXwXwXwX8X8X8X5X6X5X_.W.Z.J.J.H.J.H.H.l.q 3 i.J.J.s # . @ * + *   # $ o * , * # X O % *X*X",
"*X*X%XM.$XeX8XrXrXwX9X7XwXwXrXeXeXwXwXwXeXwXwXwXeXeXuXyXyXrX/.x.H.Z.H.H.H.j.5 5 > v.J.H.q o     , > o   # *     : o     O % *X*X",
"*X*X%XM.5XeX8XyX1X0.4.,X9XwXwXwXwXwXwXwXwXwXwXiXpXjXlXkXjXyX^.x.H.H.l.f.B.0 0 v.z g Z.Z.s * .   * , .   # *     > +     O % *X*X",
"*X*X*XM.5X8X8X9X2.X. .X.,X9X8X8XwXwXwXwXrXrXrXkXzXcXcXcXzXfX/.c.B.v.4 6 g l 2 g k z B.Z.6     X = = O . # $     : o   . O % *X*X",
"*X*X*XE.4XrXaX2XO. . . .4.9XrXrXeXwXwXwXwXrXrXpXjXkXkXfXpXuX!.Z.g z w l N N N A B A B.Z.4     O * X > . # *     > X     * % *X*X",
"*X*X*X].4X8X8X2X$. . .X.0.9XrXrXwXwXwXwXwXwXwXwXrXrXwXwXwXrX!.B.K C Z V S 1.:X>XZ P Z.B.% o o = .   * * # $     > X     O % *X*X",
"*X*X*X@X_.8XyX0Xe.2.#.3.1XwXrXwXwXwXwXwXwXrXrXwXrXwXwXwXwXwX).b.z L :XgXhXbXbXbXL J Z.B.: * o o     . O X o     o X   . O % *X*X",
"*X*X*XXX^.eXwXwXqX2X1X9X9XrXrXrXwXwXrXrXrXrXwXwXwXeXwXeXwXwX_.b.V :XbXxXgX;X%XbXL Z A.B.$ @ @ O O O O # # O # O @ @ O # O % %X*X",
"*X*X=XXXW.eXwXwXwXwXrXrXwXrXwXwXeXwXrXrXwXwXwXwXwXwXwXwXwXwX_.V.A >XxX;XxXgX=XbXS K A.F.f f f f f f f f f f f f f f f f f j *X*X",
"*X*X*X#XW.wXwXwXwXwXrXwXrXwXwXwXwXrXwX8XyX8XrXrXwX8XrXrXwXwX).C.A >X-X*XgX*X;XxXJ b.J.G.*X*X*X*X*X*X*X*X*X*X*X*X*X*X*X*X*X*X*X*X",
"*X*X*X#X^.wXwXeXwXwXwXeXwXwXwXrXrXrXyXuXpXfXpXpXiXyXrXrXwXwX).V.V >X}.}.m.gXhXhXS g J.Q.*X*X*X*X*X*X*X*X*X*X*X*X*X*X*X*X*X*X*X*X",
"=X=X-X$X^.8XwXeXwXwXwXwXuXpXfXjXjXkXlXzXzXcXcXcXzXkXsX7XrXrX).V.V >XbXbXxXxXbXgXZ K A.Q.*X*X*X*X*X*X*X*X*X*X*X*X*X*X*X*X*X*X*X*X",
"*X=X-X#XW.8XwXwXwXrXrXuXlXcXcXvXvXvXcXvXvXvXcXvXvXvXvXjXrXrX).B.Z >XbXbXgX>XU S J V.c.oX*X*X*X*X*X*X*X*X*X*X*X*X*X*X*X*X*X*X*X*X",
"*X*X*X$X!.eXwXwXwXwXwXuXkXcXcXcXvXvXvXvXvXvXvXcXvXcXvXcXfXwX(.b.A U  XL A N A A K J.Z.oX*X*X*X*X*X*X*X*X*X*X*X*X*X*X*X*X*X*X*X*X",
"*X*X=X*X^.8XwXwXwXwXeXeXuXpXlXcXvXvXcXcXcXzXlXjXfXjXlXzXfX8X).P V l C V B z b.d v.H.K.#X*X*X*X*X*X*X*X*X*X*X*X*X*X*X*X*X*X*X*X*X",
"*X*X*X#X!.8XeXwXeXwXwXeXwXwXuXiXpXpXfXpXiXiXyXrXrXyXyXuXeX8X(.C.K x g g b.v.l.8 j.H.A.].*X*X*X*X*X*X*X%X*X*X&X&X*X*X*X*X*X*X*X*X",
"*X*X*X%XR.6XeXwXwXwXwXrXeXrXwXwX8XwXrXrXwXwXrXrX8XyXwXrXeX6XD.c.b.d a.j.j.i.h.9 l.H.x.j *X%X%X#X%X%X#X+X%X%X&X&X%X*X%X*X*X*X*X*X",
"*X*X*X%XE.6XwXeXeXeXwXwXwXeXeXeXeXwXwXwXwXrXwXwXwXrXwXwXeX6XK.H.Z.f.9 j.j.9 h.u.x.H.B.f a a p p p p p p a a a a a a a }.*X*X*X*X",
"*X*X*X%XW.8XiXrXuXuXyXyXrXwXwXeXwXwXwXwXwXwXrXwXwX8XwXwXeX7XK.J.z.a.f.J.c.f.h.9 l.H.n.H G H H H G y Z G G G G G G G 1 |.*X*X*X*X",
"*X*X*X*X~.0XdXdXdXdXsXsXsXsXiXsXiXrXwXwXeXwXwXrXwXwXeXeXeX6XK.J.j.q l.c.H.l.u.i.J.H.V.J J J J J J J J J J J J J J 1 f *X*X*X*X*X",
"*X*X*X*X~.7XdXdXiXiXiXuXrXuXuXuXuXeXeXeXrXwXrXuXuXiXaXaXrX6XK.J.z.l.J.g.l.J.f.i.J.J.V.J J J J J J J J J J J J J G : [.*X*X*X*X*X",
"*X*X*X*XXX5XrXrXeXwXwXrXeXrXrXwXeXeXwXuXiXsXdXdXdXdXdXdXdX7XK.J.c.J.h.5 g.H.B.j.J.J.b.J J J J J J J J J J J J J 2 y &X*X*X*X*X*X",
"*X*X*X*XoX_.eXeXeXeXwXwXeXrXrXrXyXuXsXdXdXdXdXdXdXdXdXdXdX7XK.J.J.z.7 3 q c.H.c.J.J.P J J J J J J J J J J J J J 2 p OX*X*X*X*X*X",
"-X-X-X%X^./.qXqX<X<X2XqXeXeXaXdXdXdXdXdXdXdXdXfXdXdXdXdXdX6XD.H.c.a.5 u.7 l.H.H.c.c.j J J J J J J J J J J J J J G 2 <.*X*X*X*X*X",
"%X-X#X-XXX^.qX<Xw.e.e.tXsXsXdXfXdXdXdXdXdXdXdXfXdXdXdXfXdX7Xc.c.g.5 9 k.u.d.g.s.s.g.P J J J J J J J J J J J J J J 2 2 }.*X*X*X*X",
"*X*X-X-XXX^.,X,Xw.e.e.fXtXtX1X3X3X3X,X,X,X1X1X1XtXtXpXpXpX6XH.c.7 5 h.k.h.8 a.u u s.g J J H H J J J J J J J J J J H 2 j *X*X*X*X",
"*X*X$X.X#X^.e.1Xe.e.w.e.w.| 3.6.t.} | } } } } w.| w.w.e.,X$Xc.x.8 u.k.k.k.u.7 u T v.d d I I I I I I I I I I U I.U I I `.*X*X*X*X",
"*X*X*X*X$XY.e.w.w.| | [ [ } ;.7.;.[ [ } [ +.[ [ [ } } } } <.H.H.g.d.k.k.k.q e e h g.i j *X*X*X*X&X&X*X*X*X*X*X*X*X*X*X*X*X*X*X*X",
"*X*X*X*X#XT } [ ' ' ^ [ } +.6.7.*.[ [ } [ [ } } [ } [ } [ `.H.H.x.f.h.k.h.e u u t s.h j %X*X*X*X*X*X*X*X*X*X*X*X*X*X*X*X*X*X*X*X",
"*X*X*X*X|.U.| [ [ ' Y ] [ ` @.r.=.@.' ] [ [ [ [ [ [ +.} [ [.c.c.c.h.p.h.9 e t t u g.h i |.*X*X*X*X*X*X*X*X*X*X*X*X*X*X*X*X*X*X*X",
"*X-X*X*X-XU.| [ | ! Y ! ) ) ` =.r.-.+.^ ^ ^ ' _ E [ } } [ '.c.g.j.x.9 q z.4 & u h j.h j %X*X*X*X*X*X*X*X*X*X*X*X*X*X*X*X*X*X*X*X",
"*X*X*X*X&XT ,.[ ] E R W ^ ^ ` *.=.8.*./ ^ ^ ^ R < ~ ] [ [ '.H.a.r c.h.x.H.h.0 i h B.[.OX*X*X*X*X*X*X*X*X*X*X*X*X*X*X*X*X*X*X*X*X",
"*X*X*X*X&XU.,.' ) ^ ! ! ^ / @.7.8.8.*.` ^ ^ ^ Y Y ! ' ] [ [.c.a.5 l.H.c.j.8 r e h D.}.{.*X=X*X*X*X*X*X*X*X*X*X&X*X*X*X=X*X*X*X*X",
"*X*X*X*X-XE.<.^ ^ ^ ) ) ` @.;.7.8.8.*.` ) ) ! Y < R ^ ^ ' T.c.f.7 a.H.x.7 5 e i h C.y j =X=X-X-X*X*X&X*X*X*X-X&X*X*X*X=X*X*X*X*X",
"*X*X*X*X*XT.:.^ ^ ^ ^ ` *.=.8.8.8.8.*.^ ) ) Y < Y Y ! ^ ) T.c.f.9 8 x.8 5 7 a.r r V.; y '.{.'.'.'.'.'.'.'.'.'.`.'.[.{.OX*X*X*X*X",
"*X*X*X*X*X].:.) ~ ^ ` *.8.8.8.8.8.7.[ ^ ) ) Y < < Y ! ^ ) M.c.a.p.9 f.5 u.7 c.z.f.L.x k z k k k k ; - ; l ; l ; k l , I.*X*X*X*X",
"*X*X*X*X*X{.<.) ~ ` *.7.8.8.8.8.8.@./ ^ ) ! ! W R E ! ^ _ M.c.a.d.q g.u.d.7 c.H.H.L.b b n n n n n b n n n n n b n c 2 OX*X*X*X*X",
"*X*X*X*X$X[.T ^ ) +.7.8.8.8.8.8.8.+.^ ^ ^ ^ ! _ ! ! ^ ) { G.c.u.d.i.g.d.d.8 c.H.H.L.b n n n n n n n n n n n n n b - j &X*X*X*X*X",
"*X*X-X-X-X#XT ^ _ @.8.8.8.8.8.8.8.` ^ ) ^ ^ ^ ) ) ^ ^ ) { G.c.a.p.9 h.h.p.9 c.H.H.P.b n n n n n n n n n n n n n c : }.*X*X*X*X*X",
"*X*X*X*X*X}.T ) ) @.8.8.8.8.8.8.8.+.~ ~ ^ ) ^ ^ ^ ^ ^ ) { C.c.8 q i.u.h.u.8 H.H.J.P.n n n n n n n n n n n n n n x 2 |.*X*X=X*X*X",
"*X*X*X*X*XOXY.) ^ +.r.8.=.8.8.8.8.*.` ' / ^ ^ ~ ) ^ ^ ) ,.G.c.f.8 i.u.f.u.i.H.H.J.F n n n n n n n n n n n n n n c 2 `.&X*X*X*X*X",
"*X*X*X*X=X|.m._ ^ ` =.=.=.=.=.=.&.=.$.+.~ Q ~ ~ ~ ^ ^ ^ 1.F.J.J.Z.B.i.i.8 i.H.H.A.F n n n n n n n n n n n n n n n k 2 #X*X*X*X*X",
"*X*X*X*X%X#XT.{ ~ O.&.&.&.&.&.&.&.&.&.%.O.Q Q Q ~ ~ ^ ^ ,.F.H.J.H.H.Z.l.i.u.H.H.K.D n n n n n n n n n n n n n n n v ; T *X*X*X*X",
"*X*X*X*X*X*XT.( O.#.&.&.&.&.&.&.5.&.&.&.$.$.O.Q Q Q ) ) 1.D.J.J.H.H.H.H.Z.c.H.H.S.D n c v m D m M M M M M M M M M M z a &X*X*X*X",
"*X*X*X*X*X*Xm.>.$.&.&.&.&.%.%.5.5.5.5.5.2.2.2.>.:.:.j <.'.C.J.J.H.H.H.H.H.H.H.H.S.D k y |.|.}.+X|.}.|.|.|.|.|.OX|.|.OX#X*X*X*X*X",
"*X*X*X*X*X%Xm.m.U U I.I. XI.I.I.N.I.I.I.I.N.].I.`.I.].+X#X+XQ.K.Z.Z.H.H.H.H.J.Z.F.U k g *X*X*X*X&X*X*X*X*X*X*X*X*X*X*X*X*X*X*X*X",
"*X*X*X*X-X*X+X].}.+X|.%X%X+X%X+X%X#X#X%X*X&X&X*X%X*X*X*X%X*X*X#X@XK.H.H.H.J.J.Z.F.+X}.#X*X*X*X*X*X*X*X*X*X*X*X*X*X*X*X*X*X*X*X*X",
"*X*X*X*X*X*X*X*X*X*X-X-X&X-X=X=X=X=X-X-X.X-X-X=X-X-X-X-X*X*X*X*X*X+X@XK.J.J.Z.H.).*X*X*X*X*X*X*X*X*X*X*X*X=X*X*X*X*X*X*X*X*X*X*X",
"*X*X*X*X*X*X*X*X*X*X;X:X:X0.y.q.q.9.9.9.9.q.q.9.q.q.y.:X:X.X;X*X*X*X*X#X@XF.J.J.G.*X*X*X*X*X*X*X*X*X*X*X*X*X*X*X*X*X*X*X*X*X*X*X",
"*X*X*X*X*X*X*X*X:X:Xt.=.#.o.o....... . .............o.o.=.r.t.:X*X*X*X*X*X+X@XF.@X*X*X*X*X*X*X*X*X*X*X*X*X*X*X*X*X*X*X*X-X*X*X*X",
"*X*X*X*X*X*X*X:Xt.t.#....... ..... ......... . .......o.o.;.r.t.>X*X*X*X*X*X*X*X*X*X*X*X*X*X*X*X*X*X*X*X*X*X*X*X*X*X*X*X*X*X*X*X",
"*X*X*X*X*X*X%X0.r.=.r.;.-.-.-.-.-.-.-.-.-.=.-.-.-.;.;.;.7.r.7.9.:X*X*X*X*X*X*X*X*X*X*X*X*X*X*X*X*X*X*X*X*X*X=X*X*X*X*X-X*X*X*X*X",
"*X*X-X*X*X*X*X&X.X:X0.0.4.q.4.9.9.4.9.4.9.9.9.4.4.q.0.0.0.:X.X.X*X*X*X*X*X*X*X*X*X*X*X*X;X*X*X*X*X*X*X*X*X*X*X*X*X*X*X*X*X*X*X*X",
"*X*X*X*X*X*X*X*X%X*X*X*X*X&X*X&X&X&X=X=X=X&X&X&X*X*X%X*X*X*X*X*X*X*X*X*X*X*X*X*X*X*X*X*X*X*X*X*X*X*X*X*X*X*X*X*X*X*X*X*X*X*X*X*X",
"*X*X*X*X*X*X*X*X*X*X*X*X*X*X*X*X*X*X*X*X%X=X*X*X*X*X*X*X*X*X*X*X*X*X*X*X*X*X*X*X*X*X*X*X*X*X*X*X*X*X*X*X*X*X*X*X*X*X*X*X*X*X*X*X"
};
