/* XPM */
static char *Open1H1721789026[] = {
/* columns rows colors chars-per-pixel */
"64 64 230 2 ",
"   c #010000",
".  c #0B0303",
"X  c #160606",
"o  c #240A0A",
"O  c #2C0E0E",
"+  c #320D0D",
"@  c #241212",
"#  c #351213",
"$  c #3A1F1F",
"%  c #321E24",
"&  c #1D2638",
"*  c #441B1A",
"=  c #521F1F",
"-  c #6C1C15",
";  c #712B16",
":  c #562828",
">  c #473A35",
",  c #483A3B",
"<  c #563130",
"1  c #662B2B",
"2  c #757C08",
"3  c #6F4D33",
"4  c #774A33",
"5  c #12234F",
"6  c #1C274A",
"7  c #152758",
"8  c #182D65",
"9  c #1B326B",
"0  c #1D3776",
"q  c #2D3766",
"w  c #233B79",
"e  c #4C3750",
"r  c #563A60",
"t  c #395151",
"y  c #324B6C",
"u  c #4C5750",
"i  c #754C4F",
"p  c #4C6959",
"a  c #68635E",
"s  c #53457A",
"d  c #775077",
"f  c #4E6C6F",
"g  c #536D66",
"h  c #68676A",
"j  c #79726A",
"k  c #797776",
"l  c #891B16",
"z  c #922F17",
"x  c #AB291C",
"c  c #AE2E1C",
"v  c #A02925",
"b  c #B92F33",
"n  c #C71E22",
"m  c #D41C21",
"M  c #DB1C23",
"N  c #E41B23",
"B  c #EC1C24",
"V  c #D92027",
"C  c #964B0B",
"Z  c #9D4A16",
"A  c #A35111",
"S  c #954B2E",
"D  c #9C5935",
"F  c #A3512B",
"G  c #9F6339",
"H  c #A46739",
"J  c #D1344F",
"K  c #C83C64",
"L  c #90524E",
"P  c #BC474D",
"I  c #9D6754",
"U  c #85516A",
"Y  c #BA4473",
"T  c #817B77",
"R  c #C5464B",
"E  c #7C850B",
"W  c #748675",
"Q  c #8A9112",
"!  c #A69E1A",
"~  c #9BA41B",
"^  c #A7A71C",
"/  c #A5AC1E",
"(  c #B5A01C",
")  c #A0A325",
"_  c #A6AC21",
"`  c #A8AB24",
"'  c #A9AC2C",
"]  c #B7AE24",
"[  c #B3B52A",
"{  c #BBBB2E",
"}  c #B7B936",
"|  c #BCBB32",
" . c #FB9906",
".. c #EE9C16",
"X. c #F9A10E",
"o. c #E9A01F",
"O. c #F9A513",
"+. c #C4B32B",
"@. c #D2AB30",
"#. c #D8B736",
"$. c #F1AD2D",
"%. c #F9AB33",
"&. c #F5AB38",
"*. c #EABA3C",
"=. c #F6B63D",
"-. c #FCC63E",
";. c #FBC93C",
":. c #9D9951",
">. c #AEB14E",
",. c #90916A",
"<. c #87817C",
"1. c #B4906B",
"2. c #D59753",
"3. c #D6AF5D",
"4. c #EDB747",
"5. c #F4BA42",
"6. c #FDBB43",
"7. c #EAB451",
"8. c #D4B16E",
"9. c #CEB173",
"0. c #B1C24F",
"q. c #A4C769",
"w. c #B7CB74",
"e. c #F8C745",
"r. c #F5CB57",
"t. c #DFCB74",
"y. c #1E3E89",
"u. c #233E83",
"i. c #1E408F",
"p. c #294489",
"a. c #274795",
"s. c #344C92",
"d. c #35539A",
"f. c #284EA4",
"g. c #2851AE",
"h. c #3556A8",
"j. c #2B57BA",
"k. c #375AB0",
"l. c #3A5DB4",
"z. c #3D61B6",
"x. c #3D63BD",
"c. c #485291",
"v. c #665792",
"b. c #576A9C",
"n. c #75788A",
"m. c #68789D",
"M. c #7E7C9B",
"N. c #4D5CA9",
"B. c #6C5CA2",
"V. c #4364BD",
"C. c #4B67BC",
"Z. c #466ABF",
"A. c #526BB2",
"S. c #5569B7",
"D. c #5872B9",
"F. c #6673A6",
"G. c #647AB9",
"H. c #3F65C1",
"J. c #4266C0",
"K. c #4F7AC0",
"L. c #925496",
"P. c #A85087",
"I. c #8B7C90",
"U. c #7A8687",
"Y. c #7B8597",
"T. c #5D89B7",
"R. c #6986AB",
"E. c #7584A6",
"W. c #7887B4",
"Q. c #6E90B1",
"!. c #6A98B6",
"~. c #77A7B1",
"^. c #75A7B8",
"/. c #5B8BC6",
"(. c #6799C1",
"). c #75ACC8",
"_. c #87888A",
"`. c #99858A",
"'. c #8A8E97",
"]. c #969598",
"[. c #9B9A9D",
"{. c #8AA59E",
"}. c #B3A794",
"|. c #8896A7",
" X c #8B91A9",
".X c #979BA7",
"XX c #9D9CA3",
"oX c #8B93B2",
"OX c #A09FA5",
"+X c #9CA5A8",
"@X c #99A5B1",
"#X c #A3A1A6",
"$X c #A7A6AB",
"%X c #AAA8A9",
"&X c #B2ABA3",
"*X c #B7B7B7",
"=X c #CAB68C",
"-X c #D1BCB3",
";X c #B1D28E",
":X c #A6DCAE",
">X c #ADD9B3",
",X c #CAC885",
"<X c #D9C5BB",
"1X c #85BCC6",
"2X c #8AC9CA",
"3X c #94CFCF",
"4X c #97DBD4",
"5X c #A3DDCC",
"6X c #9AE1D7",
"7X c #97E2D8",
"8X c #9BE1D8",
"9X c #B1E6C9",
"0X c #A4E4DB",
"qX c #A9E5DB",
"wX c #B4E9DD",
"eX c #AAE7E0",
"rX c #ACE9E2",
"tX c #B2ECE4",
"yX c #BBEAE3",
"uX c #D5D3D3",
"iX c #E6DCD7",
"pX c #C5ECE7",
"aX c #CCF1EE",
"sX c #D4F1ED",
"dX c #DBF4F1",
"fX c #EBE8E8",
"gX c #F5F1EF",
"hX c #E4F5F3",
"jX c #E9F4F2",
"kX c #F9F8F8",
/* pixels */
"$X$X$X$X$X$X$X$X$X$X$X$X$X$X$X$X$X$X$X$X$X$X%X$X$X$X$X$X$X$X$X$X$X$X$X$X$X$X$X$X$X$X$X$X$X$X$X$X$X$X$X$X$X$X$X$X$X$X$X$X$X$X$X$X",
"$X$X$X$X$X$X$X$X$X$X$X$X$X$X$X$X$X$X$X$X$X$X$X$X$X$X$X$X$X$X$X$X$X$X$X%X$X$X$X$X$X$X$X$X$X$X$X$X$X$X$X$X$X$X$X$X$X$X$X$X$X$X$X$X",
"$X$X$X$X$X$X$X$X$X$X$X$X$X$X$X$X$X$X$X$X$X$X$X$X$X$X$X$X$X$X%X$X$X$X$X$X$X$X$X$X$X$X$XoXG.@X$X$X$X$X$X$X$X$X$X$X$X$X$X$X$X$X$X$X",
"$X$X$X$X$X$X$X$X$X$X$X$X$X$X$X$X$X$X$X$X$X$X$X$X$X$X$X$X$X$X$X$X$X$X$X$X$X$X$X$X$X@XG.J.K.$X$X$X$X$X$X$X$X$X$X$X$X$X$X$X$X$X$X$X",
"$X$X$X$X$X$X$X$X$X$X$X$X$X$X$X$X$X$X$X$X$X$X$X$X$X$X$X$X$X$X$X$X$X$X$X$X$X$X$X@XoXJ.J.H.K.$X$X$X$X$X$X$X$X$X$X$X$X$X$X$X$X$X$X$X",
"$X$X$X$X$X$X$X$X$X$X$X$X$X$X$X$X$X$X$X$X$X$X$X$X$X$X$X$X$X$X$X$X$X$X$X%X$X$XoXG.J.H.H.J.G.$X$X$X$X$X$X$X$X$X$X$X$X$X$X$X$X$X$X$X",
"$X$X$X.X.X.XXX$X$X$X$X$X$X%X$X$X$X$X$X$X$X$X$X$X$X$X%X$X$X$X$X$X$X$X%X$XoXK.J.H.H.H.H.H.G.#X$X$X$X$X$X$X$X$X$X$X$X$X%X$X$X$X$X$X",
"$X$X Xc.b.R.R.E.R.M.E.'. XoX.X+X+X+X$X$X$X$X$X%X$X$X$X$X$X$X$X$X$X$XoXG.J.H.H.H.H.H.H.J.G.$X$X$X$X$X$X$X$X$X$X$X$X$X%X$X$X%X$X$X",
"$X$X[.b.~.3X4X3X1X^.^.^.^.^.^.Q.R.R.m.m.R.Y.'.E.|.|..XXXXX+X$X$X@XG.K.V.H.H.H.H.H.V.x.x.c.$ $ $ $ $ $ $ $ $ $ % * $ % $ $ @ k $X",
"$X$X.Xb.3X6X6X8X0X8X8X8X8X8X8X4X4X4X2X1X2X^.^.!.Q.T.F.T.R.m.F.T.J.J.V.J.H.H.H.x.u.u.x.x.y O O X O X o o X o o O # # O O O + h $X",
"$X$X[.m.2X5X6X7X6X7X7X7X7X8X8X8X8X8X8X6X6X6X6X6X7X4X4X4X4X3X!.l.H.H.H.H.J.V.f.8 5 u.H.V.s = $ . = X + # . * o * : 1 < $ X + h $X",
"$X$X#Xb.2X7X6X8X6X>X>X6X6X6X8X8X6X6X6X6X6X6X7X6X6X6XeX0X8X7X^.z.H.H.H.V.V.u.5 8 1 s H.H.q . .   o 1 : X   : @   . 1 . . X + h $X",
"$X$X#Xm.2X4X0X4X;X3.@.9.5X4X4X8X7X6X6X6X6X8X4XtXpXsXdXdXpX0X!.z.H.H.y.u.N.r q c.v d J.V.r : $ . . 1 =     : @   . 1 .   X + h $X",
"$X$X$Xm.2X8X6X>X4. . ...w.5X8X8X6X6X6X6X6X6X0XaXhXhXhXhXsXyX~.z.N.r 6 e i z S L z v N.V.6 . .   X 1 1 .   : @   . < .   . + h $X",
"$X$X$XY.1X8X4X>X.. . . .3.5X8X8X6X8X6X6X6X8X4XqXwXpXyXwXqX0XQ.V.U z r C C C A F A L N.z.&     . = + * *   : @   . < .   X + h $X",
"$X$X$XE.1X4X4X>X2. . ...w.0X8X8X6X6X8X6X6X7X6X6X6X6X6X7X4X6XT.V.L S D H 1.=X-XuXG d H.l.% . . o = . . = X : @   . 1 .   X + h $X",
"$X$X$X|.^.8X8X6X;X3.#.9.>X8X8X7X6X6X6X6X6X6X6X8X7X8X8X7X6X6X(.d C 1.<XiXgXkXkXgXH L C.h.< : * # o     o # # X   . $ .   . + h $X",
"$X$X$X|.^.8X6X6X5X5X5X5X4X6X8X6X6X6X8X6X8X6X7X6X6X7X6X6X6X6X).d A <XkXuXuX*X'.fXH L C.N.$ # + O O O O O + + + @ O + O O # + h $X",
"$X$X$X|.^.6X6X6X6X6X6X6X6X7X6X8X6X8X7X6X6X6X6X7X6X6X7X8X6X6X).B.F -XiX*XgXuX*XfXG d V.N.e > e > , , , , , , , , , , , , , , k $X",
"$X$X$X|.!.6X6X6X7X6X6X8X8X6X6X6X6X6X6X6X0X4X0X6X8X6X6X8X6X6X(.N.F -X].[.*XXX*XfXG v.x.W.$X$X$X$X$X$X$X$X$X$X$X%X$X$X$X$X$X$X$X$X",
"$X$X+X+X~.6X7X6X6X7X6X6X6X0X6X6X0X6X0XwXyXpXpXyXwX0X4X4X6X7X(.B.A <X*X*X_.uXfXfXG U V.W.$X$X$X$X$X$X$X$X$X$X$X$X$X$X$X$X$X$X$X$X",
"$X$X%X+X!.6X6X6X6X6X6X6XqXyXaXsXsXsXdXhXhXjXhXhXhXsXyX0X6X7X(.B.A <XkXkXgXgXfX-XD d V.oX$X$X$X$X$X$X$X$X$X$X$X$X$X$X$X$X$X$X$X$X",
"$X%X$X+X!.4X6X6X6X6X6XqXdXjXhXjXjXjXjXjXjXjXjXjXjXjXhXaX6X4XT.N.D <XgXiX-X1.I F L S.J.oX$X$X%X$X$X$X$X$X$X$X$X$X$X$X$X$X$X$X$X$X",
"$X$X$X+X^.7X6X6X6X6X6X6XpXhXhXjXjXjXjXjXjXjXhXhXhXhXjXhXyX4X/.d Z I I F A C L P U J.J..X$X$X%X$X$X$X$X$X$X$X$X$X$X$X$X$X$X$X$X$X",
"$X$X$X@X!.6X6X6X6X6X7X6X0XwXpXdXhXhXhXhXdXsXpXwXwXyXpXsXwX7X/.U Z Z S c Z L c.r c.H.J..X$X$X$X$X$X$X$X$X$X$X$X$X$X$X$X$X$X$X$X$X",
"$X$X%X+X!.4X6X6X6X6X6X6X8X6X6X0X5XqXqX0X0X0X6X6X4X8X4X6X7X4XK.A.U S s v.v.s.j.9 k.H.K.I.OX%X$X$X$X$X$X$X$X$X$X$X$X$X$X$X$X$X%X$X",
"$X$X%X+XR.4X7X8X6X6X7X6X6X7X7X7X8X6X4X6X6X8X4X8X0X4X6X6X8X2XZ.H.v.c.u.h.f.y.g.0 l.H.C.3 `.#X$X$X$X$X$X$X$X$X$X$X$X$X$X$X$X$X$X$X",
"$X$X$X+XR.4X7X8X6X6X6X6X7X6X6X6X6X6X6X6X8X8X8X7X6X6X6X6X7X2XK.H.l.a.w k.f.y.f.y.x.V.B.1 j I.T k T k T T T W <.<.<.<.<._.#X$X$X$X",
"$X$X$X#XR.6XqXrXqXqX8X0X8X8X6X8X8X6X7X6X6X6X7X6X6X4X8X7X6X2XJ.H.l.u.h.J.V.a.a.u.x.H.L.x x x c c x c x x x c z x c c v 3 XX$X$X$X",
"$X$X$X$XW.qXtXtXtXtXtXtXrXtXrXrXqX0X6X8X7X8X8X8X8X8X8X8X8X2XK.H.h.u.x.x.V.l.u.u.H.H.L.B B B B B B B B N B B B B N N l j $X$X$X$X",
"$X$X$X$XQ.4XrXqX0XqX8X0X8X8X0X8X8X6X6X7X6X0X0XqXqXrXrXrXeX3XJ.H.l.l.l.a.V.x.a.u.l.J.P.B B B B B B B B B B B B B B n < ].$X$X$X$X",
"$X$X$X$X|.2X8X6X7X7X6X8X7X6X6X7X7X6X8XqXrXtXrXtXtXtXtXtXtX4XJ.H.J.x.u.5 d.J.V.k.V.V.Y B B B B B B B B B B B B B B l a $X$X$X$X$X",
"$X$X$X$X~.1X7X7X5X4X6X6X6X7X7X6X0XrXtXtXtXtXtXtXtXtXtXtXtX3XZ.H.H.k.7 7 w x.x.H.H.V.K B B B B B B B B B B B B B B z W $X%X$X$X$X",
"$X$X$X$X~.^.7X:X;X:X:X7X6X0XqXtXtXtXtXtXtXtXtXtXtXtXtXtXtX3XZ.H.l.w 7 a.8 k.H.l.H.C.K B B B B B B B B B B B B B B x 3 ].$X$X$X$X",
"$X$X$X$X~.~.5X;X0.q.q.9XtXtXtXtXwXwXwXwXyXtXyXtXtXtXyXyXtX2XZ.x.a.5 u.j.y.a.d.y f s.J B B B B B B B B B B B B B B M z j $X$X$X$X",
"$X$X$X$X'.~.w.;Xq.q.w.9X9X;X,X,Xt.w.w.w.w.;X;X;X>X>X9X9XwX1Xx.k.7 8 g.j.g.0 p.g p c.J B B B B B B B B B B B B B B B n 3 ].$X$X$X",
"$X$X$X$X+X~.w.;Xq.w.0.0.0.+.#.5.;.| } | | } } | | | 0.w.w.{.J.k.w i.j.H.j.0 q p W d.R n n b P P R P P P P P P P P P P L _.#X$X$X",
"$X$X$X$X{.{.q.0.} } { { | +.e.e.#.| { { { { { { | | +.+.| _.J.H.f.i.j.j.j.q t t f c.a i '.OX[.+X#X#X#X#X#X#X#X#X#XOXOX#X%X%X$X$X",
"$X$X$X$X].<.| | | [ ~ { { +.5.6.;.{ { | { { | +.| { { { | U.H.J.x.a.f.j.y.t p p t d.g g [.$X$X$X$X$X$X$X$X$X$X$X$X$X$X$X$X$X$X$X",
"$X$X$X$XOXU.| | { / Q _ [ ` #.e.=.#./ [ [ { | { [ { { { | Y.H.x.x.g.i.i.0 t t p t d.g g +X$X$X$X$X$X$X$X$X$X$X$X$X$X$X$X$X$X$X$X",
"$X$X$X$X#XU.} } { ~ E ~ _ / ] =.6.-.+.^ / / _ _ Q [ { { { _.x.p.h.j.0 a.z.9 & p g d.W U.$X$X$X$X$X$X$X$X$X$X$X$X$X$X$X$X%X$X$X$X",
"$X$X$X$X}.k >.} [ Q Q Q / / ] =.6.5.*./ / / / E 2 ~ [ { { '.x.w y H.k.x.x.f.y g f D.{.+X$X$X$X$X$X$X$X$X$X$X$X$X$X$X$X$X$X$X$X$X",
"$X$X$X$X+XY.>./ / / / / / ] #.e.6.6.*.] _ / / E E ~ / [ | Y.x.p.7 k.Z.x.d.8 y u f G.$XOX$X$X$X$X$X$X$X$X$X$X$X$X$X$X$X$X$X$X$X$X",
"$X$X$X$X+XY.:./ _ / / / ] *.=.6.6.6.*.` _ _ Q 2 2 Q / / ' Y.H.a.8 a.x.h.7 7 9 g f G.`.u _.$X$X$X$X$X$X$X%X$X$X%X$X$X$X$X$X$X$X$X",
"$X$X$X$X$XY.:.~ / / / +.*.6.6.6.6.6.#.^ _ / E 2 2 E ~ / ' m.H.a.p.9 h.8 8 8 d.y y B.b ; k XX.XXX[.].].].[.[.[.[.[.]..X.X$X$X$X$X",
"$X$X$X$X$X_.:./ / / +.=.6.6.6.6.6.*.] / _ / Q 2 2 Q ~ / ` F.H.p.a.w p.0 y.8 H.l.j.L.B ; 3 4 S 1 4 3 3 4 3 4 4 4 4 4 4 i ].$X$X$X",
"$X$X$X$X$X'.W / / ] 4.6.6.6.6.6.6.#._ / / / ~ Q Q Q ~ ^ ' A.x.u.i.y.a.y.y.9 H.J.H.L.B N M M M M N m m m m m m m m M x 3 OX$X$X$X",
"$X$X$X$X$X{.,./ _ +.6.6.6.6.6.6.5.] / _ / / / ) ^ / _ _ ' G.l.p.a.y a.f.y.0 H.H.H.P.B B B B B B B B B B B B B B B N - j $X$X$X$X",
"$X$X$X$X$X'.W / / #.6.6.6.6.6.6.5.] ^ / / _ / / _ / / _ ' D.l.u.u.u.a.f.y.w H.H.H.Y B B B B B B B B B B B B B B B n > [.%X$X$X$X",
"$X$X$X$X$X{.<./ / #.e.=.6.6.6.6.5.+._ ^ / / _ / / / / _ :.S.l.9 0 w p.f.y.w H.H.H.K B B B B B B B B B B B B B B B ; a $X$X$X$X$X",
"$X$X$X$X$X.XU.) / +.=.=.6.6.6.6.6.5.+.! / / / _ / / / / >.D.x.h.w a.u.f.0 u.H.H.J.K B B B B B B B B B B B B B B B z 3 XX$X$X$X$X",
"$X$X$X$X$X[.U._ / +.=.=.=.&.=.&.&.&.$.@.( ^ ~ ^ ^ / / / :.D.H.H.H.z.a.u.8 u.H.H.J.J B B B B B B B B B B B B B B B m ; <.%X$X$X$X",
"$X$X$X$X$XOXU.) ! o.&.%.%.%.%.%.%.%.%.&.@.( ! ! ^ ^ ^ _ 1.Z.H.H.J.H.H.k.p.d.H.H.S.J B B B B B B B B B B B B B B B B x 3 ].$X$X$X",
"$X$X$X$X$X#Xm.) @.&.%.&.%.%.%.%.%.6.%.%.%.@.@.! ! ! ) ` ,.C.H.J.H.H.H.H.H.x.H.H.S.J B B M N M M M M M m V M V V V V V ; j $X$X$X",
"$X$X$X%X$X#Xn.2.&.&.&.&.&.7.&.2.2.2.2.2.2.2.2.1.,.j k U.'.D.Z.J.H.H.H.H.H.H.x.V.A.J B l L I.`.`.I.I.`.`.`.`.`.`.`.`.`.`.[.$X$X$X",
"$X$X$X$X$X#Xn.n.n.I.I.I.I.I.I.M.F.I.F.I.I.M.'.'.].]..XXX$X+X XD.J.H.J.H.H.H.V.V.G.I.n - _.$X$X$X&X%X&X%X$X$X$X$X$X$X$X$X$X$X$X$X",
"$X$X$X$X$X$XXX[. XXXOXOXOX#X#X$X$X$X$X#X$X%X$X$X$X$X$X$X$X$X$X$XoXG.J.J.J.J.H.H.G.$X].I.[.$X$X$X$X$X$X$X$X$X$X$X$X$X$X$X$X$X$X$X",
"$X$X$X$X$X$X$X$X$X$X$X%X%X%X&X&X&X&X&X&X&X&X&X&X&X&X%X$X$X$X$X%X$X@XoXG.J.J.H.H.W.$X$X$X$X$X$X$X$X$X$X$X$X$X$X$X$X$X$X$X$X$X$X$X",
"$X$X$X$X$X$X$X$X$X%X-X=X8.t.7.7.4.5.5.=.=.=.4.4.7.7.7.t.t.=X&X&X$X$X$X#XoXG.J.J.oX@X$X$X$X$X$X$X$X$X$X$X$X$X$X$X$X$X$X$X$X$X$X$X",
"$X$X$X$X$X$X$X&X=Xr.4.O.O. . . . . . . . . . . . . . .X.o.r.r.,X%X$X$X$X$X$XoXG.oX$X$X$X$X$X$X$X$X$X$X$X$X$X$X$X$X$X$X$X$X$X$X$X",
"$X$X$X$X$X$X%X=Xr.e.=.O.O. .X.X. .X.X. .X. .X. .O.X.O.O.$.;.;.e.=X$X$X$X$X$X$X$X$X$X$X$X$X$X$X$X$X$X$X$X$X$X$X$X$X$X$X$X$X$X$X$X",
"$X$X$X$X$X$X$X9.7.e.e.6.e.e.-.e.-.e.e.-.e.-.e.-.-.e.e.e.e.6.7.8.&X$X$X$X$X$X$X$X$X$X$X$X%X$X$X$X$X$X$X$X$X$X$X$X$X$X$X$X$X$X$X$X",
"$X$X$X$X$X$X$X$X#X}.}.9.9.9.8.8.8.8.8.8.8.8.9.9.9.9.9.=X}.}.&X$X$X$X$X$X$X$X$X$X$X$X$X$X$X$X$X$X$X$X$X$X$X$X$X$X%X$X$X$X$X$X%X%X",
"$X$X$X$X$X$X$X%X$X%X$X$X#X$X$X$X$X$X$X$X$X$X$X$X$X$X$X#X$X$X$X$X$X$X$X$X$X$X$X$X$X$X$X$X$X$X$X$X$X$X$X$X$X$X$X$X$X$X$X$X$X$X$X%X"
};
