/* XPM */
static char *_R1721706825[] = {
/* columns rows colors chars-per-pixel */
"64 64 215 2 ",
"   c #2B1E17",
".  c #3B251C",
"X  c #592A1A",
"o  c #65311D",
"O  c #73361D",
"+  c #4A3125",
"@  c #793B22",
"#  c #75563C",
"$  c #7A6937",
"%  c #3E5675",
"&  c #4E4E50",
"*  c #565556",
"=  c #6D564D",
"-  c #7C5D53",
";  c #7B635C",
":  c #445267",
">  c #515C6A",
",  c #455B77",
"<  c #546175",
"1  c #58647A",
"2  c #686466",
"3  c #79706A",
"4  c #6B6F76",
"5  c #76767A",
"6  c #833E21",
"7  c #AD4F1C",
"8  c #BC7716",
"9  c #8A4828",
"0  c #B7552B",
"q  c #AB7331",
"w  c #C77719",
"e  c #E17B17",
"r  c #C87C29",
"t  c #865D46",
"y  c #886449",
"u  c #906952",
"i  c #A4644A",
"p  c #AC7540",
"a  c #A87957",
"s  c #B47B5A",
"d  c #847167",
"f  c #977A68",
"g  c #877A78",
"h  c #AC7B68",
"j  c #B38430",
"k  c #CC851B",
"l  c #D79218",
"z  c #DC931C",
"x  c #E29D18",
"c  c #DEA61B",
"v  c #E6A21A",
"b  c #E9AB1C",
"n  c #E9B41A",
"m  c #F2B91A",
"M  c #CE902C",
"N  c #D89B21",
"B  c #D8B33B",
"V  c #F7C41B",
"C  c #DCC22D",
"Z  c #EDC82E",
"A  c #F7C925",
"S  c #F8D726",
"D  c #FEDA2C",
"F  c #F9D936",
"G  c #FEE331",
"H  c #B98741",
"J  c #AF825C",
"K  c #B7865B",
"L  c #9F816E",
"P  c #998379",
"I  c #A7836B",
"U  c #B58969",
"Y  c #A98A7B",
"T  c #B28C73",
"R  c #BC9379",
"E  c #B6A16E",
"W  c #B8A876",
"Q  c #C69E45",
"!  c #C18453",
"~  c #C78D65",
"^  c #CA936B",
"/  c #D8986B",
"(  c #C59779",
")  c #E29D6F",
"_  c #DBA175",
"`  c #C5B570",
"'  c #E6A06C",
"]  c #ECAA75",
"[  c #F4AD76",
"{  c #F4AD79",
"}  c #F7B079",
"|  c #DDC352",
" . c #ECD852",
".. c #445F82",
"X. c #476282",
"o. c #4B6383",
"O. c #44648C",
"+. c #5A6D86",
"@. c #546C8C",
"#. c #59718D",
"$. c #496C95",
"%. c #526F97",
"&. c #4F7097",
"*. c #4D729D",
"=. c #527096",
"-. c #53739B",
";. c #5A769A",
":. c #616F80",
">. c #687385",
",. c #7B7E85",
"<. c #677B95",
"1. c #747F92",
"2. c #456EA0",
"3. c #4C76A7",
"4. c #5579A4",
"5. c #5B7CA4",
"6. c #577BA8",
"7. c #547CAB",
"8. c #477AB1",
"9. c #617EA1",
"0. c #788496",
"q. c #798A9F",
"w. c #5A82AA",
"e. c #5C82AF",
"r. c #4982BB",
"t. c #5583B7",
"y. c #5B84B3",
"u. c #6585A9",
"i. c #6284AD",
"p. c #768BA6",
"a. c #7591AE",
"s. c #678AB4",
"d. c #638DBD",
"f. c #6A91BD",
"g. c #7393B3",
"h. c #7B97B4",
"j. c #4986C6",
"k. c #598FC7",
"l. c #5792CC",
"z. c #4A8BD1",
"x. c #5C99D5",
"c. c #6592C3",
"v. c #6A95C5",
"b. c #6496CA",
"n. c #6C9ACC",
"m. c #7C9EC6",
"M. c #719DCC",
"N. c #639ED9",
"B. c #7AA2CA",
"V. c #6AA2D8",
"C. c #75A4D4",
"Z. c #79A6D4",
"A. c #7CAAD9",
"S. c #868588",
"D. c #8A8A8E",
"F. c #998A87",
"G. c #9F918E",
"H. c #8C8D93",
"J. c #858C99",
"K. c #928F92",
"L. c #8C929D",
"P. c #929194",
"I. c #93959C",
"U. c #99969A",
"Y. c #9B9A9E",
"T. c #AB9283",
"R. c #AD9081",
"E. c #A2938D",
"W. c #A29493",
"Q. c #A69792",
"!. c #A39B9B",
"~. c #B1A78F",
"^. c #A9A39B",
"/. c #818EA0",
"(. c #8893A4",
"). c #9296A1",
"_. c #969AA3",
"`. c #9D9DA2",
"'. c #839BB4",
"]. c #A29FA2",
"[. c #9FA0A3",
"{. c #94A3B3",
"}. c #A2A1A6",
"|. c #A7A6AB",
" X c #A8A5A8",
".X c #A9A8AD",
"XX c #A9AEB6",
"oX c #B1B2B5",
"OX c #B3B5BB",
"+X c #BABBBE",
"@X c #C4A185",
"#X c #C9B3A3",
"$X c #BABDC3",
"%X c #BEC1C8",
"&X c #BDC7D6",
"*X c #C4C5C9",
"=X c #C7C8CB",
"-X c #D2CFCE",
";X c #CCCED1",
":X c #CFD0D4",
">X c #D1D2D6",
",X c #D8D6D7",
"<X c #D5D5DA",
"1X c #D7D8DB",
"2X c #D9DADE",
"3X c #E0DCDE",
"4X c #DDDEE2",
"5X c #DFE0E4",
"6X c #E1E2E6",
"7X c #E4E5EA",
"8X c #E7E8EC",
"9X c #E9EAEE",
"0X c #ECEDF1",
"qX c #F0F1F6",
"wX c #F4F5FA",
/* pixels */
"|.|.|.|.|.|.|.|.|.|.|.|.|.|.|.|.|.|.|.|.|.|.|.|.|.|.|.|.|.|.|.|.|.|..X|.|.|.|.|.|.|.|.|.|.|.|.|.|.|.|.|.|.|.|.|.|.|.|.|.|.|.|.|.",
"|.|.|.|.|.|.|.|.|.|.|..X|.|.|.|.|.|.|.|.|.|.|.|.|.|.|.|.|.|.|.|.|.|.|.|.|.|.|.|.|.|.|.|.|.|.|.|.|.|.|.|.|.|.|.|.|.|.|.|.|.|.|.|.",
"|.|.|.|.|.|.|.|.|.|.|.|.|.|.|.|.|.|.|.|.|.|.|.|.|.|.|.|.|.|.|.|.|.|.|.|.|.|.|.|.|.|.|.|.}.K.P G.].].|.|.|.|.|.|.|.|.|.|.|.|.|.|.",
"|.|.|.|.|.|.|.|.|.|.|.|.|.|.|.|.|.|.|.|.|.|.|.|.|.|.|.|.|.|.|.|.|.|.|.|.|.|.|.|.|.|.|.|.g # @ @ 9 - d `.|.|.|.|.|.|.|.|.|.|.|.|.",
"|.|.|.|.|.|.|.|.|.|.|.|.|.|.|.|.|.|.|.|.|.|.|.|.|.|.|.|.|.|.|.|.|.|.|.|.|.|.|.|.|.|.|. X3   . o @ @ 9 - ].|.|.|.|.|.|.|.|.|.|.|.",
"|.|.|.|.|.|.|.|.|.|.|.|.|.|.|.|.|.|.|.|.|.|.|.|.|..X|.|.|.|.|.|.|.|.|.|.|.|.|.|.|.|.|.|.P.t . o 6 @ O @ g ].|.|.|.|.|.|.|.|.|.|.",
"|.|.|.|.|.|.|.|.|.|.|.|.|.|.|.|..X|.|.|.|.|.|.|.|.|.|.|.|.|.|.|.|.|.|.|.|.|.|.|.|.|.|.|.!._ a + o O @ O - |.|.|.|.|.|.|.|.|.|.|.",
"|.|.|.|.|.|.|.|.|.|.|.|.|.|.|.|.|.|.|.|.|.|.|.|.|.|.|.|.|.|.|.|.|.|.|.|.|.|.|.|.|.|.|. XK.= K # . + X X 2 ].|.|.|.|.|.|.|.|.|.|.",
"|.|.|.|.|.|.|.|.|.|.|.|.|.|.|.|.|.|.|.|.|.|.|.|.|.|.|.|.|.|.|.|.|.|.|.|.|.|.|.|.|.|.|.|.E.u U ~ # t . . 5 |.|.|.|.|.|.|.|.|.|.|.",
"|.|.|.|.|.|.|.|.|.|.|.|.|.|.|.|.|.|.|.|.|.|.|.|.|.|.|.|.|.|.|.|.|.|.|.|.|.|.|.|.|.|.|.|.F.^ } [ ^ y   & `.|.|.|.|.|.|.|.|.|..X|.",
"|.|.|.|.|.|.|.|.|.|..X|.|.|.|.|.|.|.|.|.|.|.|.|.|.|.|.|.|.|.|.|.|.|.|.|.|.|.|.|.|.|.|.|.Y.I ] { ~ i + 5 |.|.|.|.|.|.|.|.|.|.|.|.",
"|.|.|.|.|.|.|.|.|.|.|.|.|.|.|.|.|.|.|.|.|.|.|.|.|.|.|.|.|..X|.|.|.|.|..X|.|.|.|.|.|.|.|.}.( _ a 9 / s S.|.|.|.|.|.|.|.|.|.|.|.|.",
"|.|.|.|.|.|.|.|.|.|.|.|.|.|.|.|..X|.|.|.|.|.|.|.|.|.|.|.|.|.|.|.|.|.|.|.|.|.|.|.|.|.|.|.|.F.P * J } ] P ).].|.|.|.|.|.|.|.|.|.|.",
"|.|.|.|.|.|.|.|.|.|.|.|.|.|.|.|.|.|.|.|.|.|.|.|.|.|.|.|.|.|.|.|.|.|.|.|.|.|.|.|.|.|.|.|.|.|.}.K.U { @X-X7X%X`.|.|.|.|.|.|.|.|.|.",
"|.|.|.|.|.|.|.|.|.|.|.|.|.|.|.|.|.|.|.|.|.|.|.|.|.|.|.|.|.|.|.|.|.|.|.|.|.|.|.|.|.|.|.|.|.|.}.S.P #X2XwXwX4X*X`.|.|.|.|.|.|.|.|.",
"|.|.|.|.|..X|.|.|.|.|.|.|.|.|.|.|.|.|.|.|.|.|.|.|.|.|.|.|.|.|.|.|.|.|.|.|.|.|.|.|.|.|.|.|.|..X4X9XqXwXwX9X7XqX;X_.|.|.|.|.|.|.|.",
".X|.|.|.|.|.|.|.|.|.|.|.|..X|.|.|.|.|.|.|.|.|.|.|.|.|.|.|.|.|.|.|.|.|.|.|.|.|.|.|.|.|.|.|.}.%XqXwXwXwXwX6XqXwX9X[.}.|.|.|.|.|.|.",
"|.|.|.|.|.|.|.|.|.|.|.|.|.|.|.|.|.|.|.|.|.|.|.|.|.|.|.|.|.|.|.|.|.|.|.|.|.|.|.|.|.|.|.|.|.}.:XwXwXwXwXwX4X0XwX0X:XY.|.|.|.|.|.|.",
"|.|.|.|.|.|.|.|.|.|.|.|.|.|.|.|.|.|.|.|.|.|.|.|.|.|..X|.|.|.|.|.|.|.|.|.|.|.|.|.|.|.|.|.|.}.>XwX;X$X%X X<X4XwXwX8X[.[.|.|.|.|.|.",
"|.|.|.|.|.|.|.|.|.|.|.|.|.|.|.|.|.|.|.|.|.|.|.|.|.|.|.|.|.|.|.|.|.|.|.|.|.|.|.|.|.|.|.|.|.}.%X4X X6X;X[.+X}.0XwXqX2X[.|.|.|.|.|.",
"|.|.|.|.|.|.|.|.|.|.|.|.|.|.|.|.|.|.|.|.|.|.|.|.|.|.|.|.|.|.|.|.|.|.|.|.|.|.|.|.|.|.|.|.|.|..X}.5 +XY.*X,X,..XwXwX9X+X[.|.|.|.|.",
"|.|.|.|.|.|.|.|.|.|.|.|.|.|.|.|.|.|.|.|.|.|.|.|.|.|.|.|.|.|.|.|.|.|.|.|.|.|.|.|.|.|.|.|.|.|.P.*XY.4 .X+X,XoX* *XqX9X6X[.[.|..X|.",
".X|.|.|.|.|.|.|.|.|.|.|.|.|.|.|.|.|.|.|.|..X|.|.|.|.|.|.|.|.|.|.|.|.|.|.|.|.|.|.|.|.|.|. X!.S.%X8XoX3X2X4X=X4 & 2X8X2X$XP.[.|.|.",
"|.|.|.|.|.|.|.|.|.|.|.|.|.|.|.|.|.|.|.|.|.|.|.|.|.|.|.|.|.|.|.|..X|.|.|.|.|..X|.|.|.|.|. XP y G.0X6X,X;X1X>XD.* Y.1X:X>X|.[.|.|.",
"|.|.|.|.|.|.|.|.|.|.|.|.|.|.|.|.|.|.|.|.|.|.|.|.|.|.|.|.|.|.|.|.|.|.|.|.|.|.|.|.|.|.|.|.[.f - K.6X5X8XqX9X2X|.< D.:X-X~.g }.|.|.",
"|.|.|.|..X|.|.|.|.|.|.|.|.|.|.|.|.|.|.|.|.|.|.|.|.|.|.|.|.|.|.|.|.|.|.|.|.|.|.|.|.|.|.|.[.f y !.1X7X4X9X9X<XoX2 [..XI ^ L }.|.|.",
"|.|.|.|.|.|.|.|.|.|.|.|.|.|.|.|.|.|.|.|.|.|.|.|.|.|.|.|.|.|.|.|.|.|.|.|.|.|.|.|.|.|.|.|.}.[.D..X4X9X5X5X9X2XOXP Y.P ' [ L }.|.|.",
"|.|.|.|.|.|.|.|.|.|.|.|..X|.|.|.|.|.|.|.|.|.|.|.|.|.|.|.|.|.|.|.|.|.|.|.|.|.|.|.|.|.|.|.|.|.}.OX2X9X7X7X8X6X;XY.Y.T.} } I }.|.|.",
"|.|.|.|.|.|.|.|.|.|.|.|.|.|.|.|.|.|.|.|.|.|.|.|.|.|.|.|.|.|.|.|.|.|.|.|.|.|.|.|.|.|.|.|.|.|.|.OX4X8X8X1X6X6X;X.XP.Q.} } T }.}.|.",
"|.|.|.|.|.|.|.|.|.|.|.|.|.|.|.|.|.|.|.|.|.|.|.|.|.|.|.|.|.|.|.|..X|.|.|.|.|.|.|.|.|.|.|.|.|.|.D.2X4X8X4X>X;X;X*XP.Y.] } R }.|.|.",
"|.|.|.|.|.|.|.|.|.|.|.|.|.|.|.|.|.|.|.|.|.|.|.|.|.|.|.|.|.|.|.|.|.|.|.|.|.|.|.|.|.|.|.|.|.|. XD.OX:X<X4X<X;X$X_.5 U._ @XR }.|.|.",
"|.|.|.|.|.|.|.|.|.|.|.|.|.|.|.|.|.|.|.|.|.|..X|.|.|.|.|..X|.|.|.|.|.|.|.|.|.|.|.|.|.|.|.|.|. XY.: < 4 4 > :.+.< , H.R.} R.}.|.|.",
"|.|.|.|.|.|.|.|.|.|.|.|.|.|.|.|.|.|..X|.|.|.|.|.|.|.|.|.|.|.|.|.|.|.|.|.|.|.|.|.|.|.|.|.|.|.|.}.1 : -.v.1 s.s.i.=.1.T.{ R }.|.|.",
"|.|.|.|.|.|.|.|.|.|.|.|.|.|.|.|.|.|.|.|.|.|.|.|.|.|.|.|.|.|.|.|.|.|.|.|.|.|.|.|.|.|.|.|.|.|.|.}.<., u.M.u.w.f.i.-.1.T.{ R }..X|.",
"|.|.|.|.|.|.|.|.|.|.|.|.|.|.|.|.|.|.|.|.|.|.|.|.|.|.|.|.|.|.|.|.|.|.|.|.|.|.|.|.|.|.|.|.|.|.|.}.<., 9.Z.M.-.s.e.-.1.R.{ ( ].|.|.",
"|.|.|.|.|.|.|.|.|.|.|.|.|.|.|.|.|.|.|.|.|.|.|.|.|.|.|.|.|.|.|.|.|.|.|.|.|.|.|.|.|.|.|.|.|.|.|._.s.&.: M.C.d.;.-.@.S.( { ) Y ].|.",
"|.|.|.|.|.|.|.|.|.|.|.|.|.|.|.|.|.|.|.|.|.|.|.|..X|.|.|.|.|.|.|.|.|.|.|.|.|.|.|.|.|.|.|.|.|.|.(.M.n., s.A.v.s.-., D.^ { ) s g ].",
"|..X|.|.|.|.|.|.|.|.|.|.|.|.|.|.|.|.|.|.|.|.|.|.|.|.|.|.|.|.|.|.|.|.|..X|.|.|.|.|.|.|.|.|.|.|.(.C.C.-.i.C.C.f.X.: K.h ^ s t ; ].",
"|.|.|.|.|.|.|.|.|.|.|.|..X|.|.|.|.|.|.|.|.|.|.|.|.|.|.|.|.|.|.|.|.|.|.|.|.|.|.|.|.|.|.|.|.|.}.h.A.C.7.5.C.C.;.% %.0.F.a t ; K..X",
"|.|.|.|.|.|.|.|.|..X|.|.|.|.|.|.|.|.|.|.|.|.|.|.|.|.|.|.|.|.|.|.|.|.|.|.|.|.|.|.|.|.|.|.|.|.[.h.A.M.d.&.M.i., 4.6.<.].g g `.]..X",
"|.|.|.|.|.|.|.|.|.|.|.|.|.|.|.|.|.|.|.|.|.|.|.|.|.|.|.|.|.|.|.|.|.|.|.|.|.|.|.|.|.|.|.|.|.|._.B.'.M.c.-.%...6.c.6.-.U.|.].|.|.|.",
"|.|.|.|.|.|.|.|.|.|.|.|.|.|.|.|.|.|.|.|.|.|.|.|.|.|.|.|.|.|.|.|.|.|.|.|.|.|.|.|.|.|.|.|.|.|.).Z.A.v.d.6.< 9.v.v.7.-.)..X|.|.|.|.",
"|.|.|.|.|.|.|.|.|.|.|.|.|.|.|.|.|.|.|.|.|.|.|.|.|.|.|.|.|.|.|..X|.|.|.|.|.|.|.|.|.|.|.|.|.|./.C.A.x.c.1.L.9.n.v.7.%.D..X|.|.|.|.",
"|.|.|.|.|.|.|.|.|.|.|.|.|.|.|.|.|.|.|.|.|.|..X|.|.|.|.|.|.|.|.|.|.|.|.|.|.|.|.|.|.|.|.|.|.[.h.A.V.c.s._.|./.n.n.c.%.1.].|.|.|.|.",
"|.|.|.|.|.|.|.|.|.|.|.|.|.|.|.|.|.|.|.|.|.|.|.|.|.|.|.|.|.|.|..X|.|.|.|.|.|.|.|.|.|.|..X}.(.B.C.v.c.1.|.|._.c.n.7.%.@._.|.|.|.|.",
"|.|.|.|.|.|..X|.|.|.|.|.|.|.|.|.|.|.|.|.|.|.|.|.|.|.|.|.|.|.|.|.|.|.|.|.|.|.|.|.|.|.|.|.}.g.C.C.7.9.L..X|.|.1.n.c.%.%.+.U.|.|.|.",
"|.|.|.|.|.|.|.|.|.|.|..X|.|.|.|.|.|.|.|.|.|.|.|.|.|.|.|.|.|.|.|.|.|.|.|.|.|.|.|.|.|.|.|.}.g.n.y.4.@.`.|.|.|.`.7.d.3.-...J.|.|.|.",
"|.|.|.|.|.|.|.|.|.|.|.|.|.|.|.|.|.|.|.|.|.|.|.|.|.|.|.|.|.|.|.|.|.|.|.|.|.|..X|.|.|.|.|.}.a.V.k.7.9._.|.|..X|.1.6.d.6.6.;._.|.|.",
"|.|.|.|.|.|.|.|.|.|.|.|.^.W W ^.|.|.|.|.|.|.|.|.|.|.|.|.|.|.|.|.|.|.|.|.|.|.|.|.|.|.|.|. Xp.V.b.7.0.]..X|.|.|.].q.9.y.6.6.1.]..X",
"|.|.|.|.|.|.|.|.|.|.|.T.B S F  .W }.|.|.|.|.|.|.|.|.|.|.|.|.|.|.|.|.|.|.|.|.|.|.|.|.|.|.}.q.N.x.k.J..X|.|.|.|.|.|./.6.6.7.-.J.|.",
"|.|.|.|.|.|.|.|.|.|.!.M V C S G  .~.|.|.|.|.|.|.|.|.|.|.|.|.|.|.|.|.|.|.|.|.|.|.|.|.|.|.|.a.V.x.7.L.|.|.|.|..X].|._.i.6.4.3.o.J.",
"|.|.|.|.|.|.|.|.|.|.T.v n $ j S C 3 }.|.|.|.|.|..X|.|.|.|.|.|.|.|.|.|.|.|.|.|.|.|.|.|.|.`.g.N.b.t.L.|.|.|.|..X.X|.|./.7.*.*.4.@.",
"|.|.|.|.|.|.|.|..X XT x c 3 $ n l y !.|.|.|.|.|.|.|.|.|.|.|.|.|.|.|.|.|.|.|.|.|.|.|.|.|.`.f.N.l.y._.|.|.|.|.|.|.|.|.].<.7.O.&.@.",
"|.|..X|.|.|.|.|.|. XE.l V B q 8 e r i W.|.|.|.|.|.|.|.|.|.|.|.|.|.|.|.|.|.|.|.|.|.|.|.|._.b.x.r.9.].|.|.|.|.|.|.|.|..XL.*.$.....",
"|.|.|.|.|.|.|.|.|.|.[.K v m k 7 0 i F. X|.|.|.|.|.|.|.|.|.|.|.|.|.|.|.|.|.|.|.|.|.|.|.|.q.x.x.r.p.]..X|.|.|.|.|.|.|..X].>.....$.",
"|.|.|.|.|.|.|.}.^.[.G.F.J k 8 q Y !.|.|.|.|.|.|.|.|.|.|.|.|.|.|.|.|.|.|.|.|.|.|.|.|.|.|.a.x.l.w.)..X.X|.|.|.|.|.|.|..X.X].#.2.$.",
"|.|.|.|.|.|.}.~ Q p j M H x b Z ` }..X|.|.|.|.|.|.|.|.|.|.|.|.|.|.|.|.|.|.|.|.|.|.|.|.I.u.l.j.-._.|.|.|.|.|.|.|.|.|.|.|.].<.....",
"|.|.|.|.|.|.}.j l 8 b F F Z F F F W  X|.|.|.|.|.|.|.|.|.|.|.|.|.|.|.|.|.|.|.|.|.|.|.}.<...3.2.$.J.|.|.|.|.|.|.|.|.|.|.|..X1.8.8.",
"|.|.|.|.|.|.|.Y k w l v m A D D D |  X|.|.|.|.|.|.|.|.|.|.|.|.|.|.|.|.|.|.|.|.|.}.|.}.;.3.*.O.< I.|.|.|.|.|.|.|.|.|.|..X_.7.z.8.",
"|.|.|.|.|.|.|.!.M z z v m V S D S | }.|.|.|.|.|.|.|.|.|.|.|.|.|.|.|.|.|.|.|.}.}.}._.J.#.O.3.8.>.}.|.|.|.|.|.|.|.|.|.|.].1.8.k.$X",
"|.|.|..X|.|.|.}.s x v v b m m V A E |.|.|.|.|.|.|.|.|.|.|.|.|.|.|.|.|.|.|.}.(.i.i.7.j.z.8.4.5.<.].|.|.|.|.|.|.|.|.|.I.u.8.j.'.].",
"|.|.|. X|.|.|.|.!.I r w r x N N q Q.|.|.|.|.|.|.|.|.|.|.|.|.|.|.|.|.|.|.|.|.K.{.m.k.j.j.z.M.&X$X_.|.|.|.|.|.|.|.|.}.J.h.'.{.L.`.",
".X.X.X.X.X.X.X.X|.}.W.h ! U Q.W.Q.|..X.X.X.X.X.X.X.X.X.X.X.X.X.X.X.X.X.X.X.X|.K.H.}.q.'.'.XX%X$XU..X.X.X.X.X.X.X|..X`.S.K.H.].].",
"|.|.|.|.|.|.|.|.|.|.|.|.|.|.|.|.|.|.|.|.|.|.|.|.|.|.|.|.|.|.|.|.|.|.|.|.|.|.|.|.}.I.H.S.D.S.,.,.P.|.|.|.|.|.|.|.|.|..X}.].].]..X"
};
