/* XPM */
static char *_R1721706825[] = {
/* columns rows colors chars-per-pixel */
"64 64 183 2 ",
"   c #372218",
".  c #45251A",
"X  c #542C1D",
"o  c #642F1A",
"O  c #6D341D",
"+  c #78391F",
"@  c #583D2D",
"#  c #574338",
"$  c #784E38",
"%  c #785A3C",
"&  c #7A6937",
"*  c #795949",
"=  c #7E6257",
"-  c #455B78",
";  c #555E73",
":  c #596474",
">  c #766C65",
",  c #6B737F",
"<  c #747477",
"1  c #853F21",
"2  c #AD4F1C",
"3  c #BC7716",
"4  c #8A5138",
"5  c #B7552B",
"6  c #AD6D2C",
"7  c #A87935",
"8  c #C77719",
"9  c #E17B17",
"0  c #C47C31",
"q  c #825C40",
"w  c #8B6449",
"e  c #936747",
"r  c #8D6850",
"t  c #A4644A",
"y  c #A77B59",
"u  c #83736A",
"i  c #977661",
"p  c #897A74",
"a  c #AC7B68",
"s  c #AF862F",
"d  c #BB8134",
"f  c #D0831A",
"g  c #DC931C",
"h  c #E29D18",
"j  c #DEA61B",
"k  c #E6A21A",
"l  c #E9AB1C",
"z  c #E9B41A",
"x  c #F1B719",
"c  c #F2BB1B",
"v  c #CC862F",
"b  c #CE9223",
"n  c #D89B21",
"m  c #D19932",
"M  c #D3AF3E",
"N  c #DCB637",
"B  c #F6C41A",
"V  c #F8C61E",
"C  c #DCC22D",
"Z  c #EECE20",
"A  c #F4C323",
"S  c #FACE28",
"D  c #F8D726",
"F  c #FEDA2C",
"G  c #E9C032",
"H  c #F1C937",
"J  c #F9D936",
"K  c #FEE331",
"L  c #B98741",
"P  c #AF825C",
"I  c #B78858",
"U  c #9C847C",
"Y  c #B48B6C",
"T  c #A4897B",
"R  c #B6A16E",
"E  c #B8A876",
"W  c #C69E45",
"Q  c #C18458",
"!  c #DEBF4F",
"~  c #C0A154",
"^  c #C48E66",
"/  c #CB9266",
"(  c #DD9967",
")  c #C39371",
"_  c #D2AE75",
"`  c #EAA976",
"'  c #F3AD77",
"]  c #F3AE78",
"[  c #DDC352",
"{  c #E7D353",
"}  c #F0DC50",
"|  c #486487",
" . c #566B86",
".. c #446793",
"X. c #4B709A",
"o. c #597699",
"O. c #60708A",
"+. c #747C88",
"@. c #6E7E91",
"#. c #4A74A4",
"$. c #4A77A9",
"%. c #577CA6",
"&. c #557FB0",
"*. c #6D829F",
"=. c #78869B",
"-. c #5B82AB",
";. c #5482B4",
":. c #5885B7",
">. c #6585A8",
",. c #7186A3",
"<. c #748CAA",
"1. c #7A93AE",
"2. c #6B8CB3",
"3. c #628DBD",
"4. c #6C92BB",
"5. c #7896B7",
"6. c #4B88C7",
"7. c #558FCB",
"8. c #5D96CD",
"9. c #498CD4",
"0. c #5B99D5",
"q. c #5C99D6",
"w. c #6391C3",
"e. c #6295CA",
"r. c #6D9BCC",
"t. c #759BC6",
"y. c #659FD7",
"u. c #7CA2C9",
"i. c #6DA1D3",
"p. c #63A1DC",
"a. c #74A3D3",
"s. c #7BA7D4",
"d. c #77A8D8",
"f. c #7CABDA",
"g. c #848487",
"h. c #89878A",
"j. c #8B898C",
"k. c #988A8B",
"l. c #9F918E",
"z. c #8F8E92",
"x. c #898E9B",
"c. c #8E9095",
"v. c #8B919C",
"b. c #939295",
"n. c #969599",
"m. c #9A999E",
"M. c #A58E81",
"N. c #A89480",
"B. c #A2928C",
"V. c #A09393",
"C. c #A69995",
"Z. c #A29A9C",
"A. c #A7A08E",
"S. c #A9A39B",
"D. c #8491A4",
"F. c #8E95A2",
"G. c #9499A3",
"H. c #9D9DA3",
"J. c #A29EA2",
"K. c #9FA1A7",
"L. c #9AA6B4",
"P. c #A3A1A5",
"I. c #A7A6AB",
"U. c #A8A5A8",
"Y. c #A9A8AD",
"T. c #B4B5B9",
"R. c #BABBBF",
"E. c #C9A88E",
"W. c #A7B5C9",
"Q. c #BBBEC4",
"!. c #CACBCF",
"~. c #CDCFD3",
"^. c #CAD1DD",
"/. c #D4D5DA",
"(. c #D6D7DA",
"). c #DCDDE2",
"_. c #DFE2E7",
"`. c #E1E2E6",
"'. c #E6E7EB",
"]. c #E8E9EE",
"[. c #ECEDF2",
"{. c #EFF0F5",
"}. c #F4F5FA",
/* pixels */
"I.I.I.I.I.I.I.I.I.I.I.I.I.I.I.I.I.I.I.I.I.I.I.I.I.I.I.I.I.I.I.I.I.I.I.I.I.I.I.I.Y.I.I.I.I.I.I.I.I.I.I.I.I.I.I.I.I.I.I.I.I.I.I.I.",
"I.I.I.I.I.I.I.I.I.I.I.I.I.I.I.I.I.I.I.I.I.I.I.I.I.I.I.I.I.I.I.I.I.I.I.Y.I.I.I.I.I.I.I.I.I.I.I.I.I.I.I.I.I.I.I.I.I.I.U.J.n.Z.J.I.",
"I.I.I.I.I.I.I.I.I.I.I.I.I.I.I.I.I.I.I.I.I.I.I.I.I.I.I.I.I.I.I.I.I.I.I.I.I.I.I.I.I.I.I.I.I.I.I.I.I.I.I.I.I.I.I.I.I.I.j.* 4 4 r u ",
"I.I.I.I.I.I.I.I.I.I.I.I.I.I.I.I.I.I.I.I.I.I.I.I.I.I.I.I.I.I.I.I.I.I.I.I.I.I.I.I.I.I.I.I.I.I.I.I.I.I.I.I.I.I.I.I.I.I.>   X o O 1 ",
"I.I.I.I.I.I.I.I.I.I.I.I.I.I.I.I.I.I.I.I.I.I.I.I.I.I.I.I.I.I.I.I.I.I.I.I.I.I.I.I.I.I.I.I.I.I.I.I.I.I.I.I.I.I.I.I.I.I.g.@   O 1 1 ",
"I.I.I.I.I.I.I.I.I.I.I.I.I.I.I.I.I.I.Y.I.I.I.I.I.I.I.I.I.I.I.I.I.I.I.I.I.I.I.I.I.I.I.I.I.I.I.I.I.I.I.I.I.I.I.I.I.I.I.J.` q . O + ",
"I.I.I.I.I.I.I.I.I.I.I.I.I.I.I.I.I.I.I.I.I.I.I.I.I.I.I.I.I.I.I.I.I.I.I.I.I.I.I.I.I.I.I.I.I.I.I.I.I.I.I.I.I.I.I.I.I.I.j.w ^ @ . X ",
"I.I.I.I.I.I.I.I.I.I.I.I.I.I.I.I.I.I.I.I.I.I.I.I.I.I.I.I.I.I.I.I.I.I.I.I.I.I.I.I.I.I.I.I.I.I.I.I.I.I.I.I.I.I.I.I.I.U.V.* y y @ $ ",
"I.I.I.I.I.I.I.I.I.I.I.I.I.I.I.Y.I.I.I.I.I.I.I.I.I.I.I.I.I.I.I.I.I.I.I.I.I.Y.I.I.I.I.I.I.I.I.I.I.I.I.I.I.I.I.I.I.I.P.U ^ ] ] Q q ",
"I.I.I.I.I.I.I.I.I.I.I.I.I.I.I.I.I.I.I.I.I.I.I.I.I.I.I.I.I.I.I.I.I.I.I.I.I.I.I.I.I.I.I.I.I.I.I.I.I.I.I.I.I.I.I.I.I.I.n.) ] ] ^ q ",
"I.I.I.I.I.I.I.I.I.I.I.I.I.I.I.I.I.I.I.I.I.I.I.I.I.I.I.I.I.I.I.I.I.I.I.I.I.I.I.I.I.I.I.I.I.I.I.I.I.I.I.I.I.I.I.I.I.I.J.Y ` ) e ( ",
"I.I.I.I.I.I.I.I.I.I.I.I.I.I.I.I.I.I.I.I.I.I.I.I.Y.I.I.I.I.I.I.I.I.I.I.I.I.I.I.I.I.I.I.I.I.I.I.I.I.I.I.I.I.I.I.I.I.I.P.N.a # t ] ",
"I.I.I.I.I.I.I.I.I.I.I.I.I.I.I.I.I.I.I.I.I.I.I.I.I.I.I.I.I.I.I.I.I.I.I.I.I.I.I.I.I.I.I.I.I.I.I.I.I.I.I.I.I.I.I.I.I.I.I.P.K.h./ ' ",
"I.I.I.I.I.I.I.I.I.I.I.I.I.I.I.I.I.I.I.I.I.I.I.I.I.I.I.I.I.I.I.I.I.I.I.I.I.I.I.I.I.I.I.I.I.I.I.I.I.I.I.I.I.I.I.I.I.I.I.I.K.+.i E.",
"I.I.I.I.I.I.I.I.I.I.I.I.I.I.I.I.I.I.I.I.I.I.I.I.I.I.I.I.I.I.I.I.I.I.I.I.I.I.I.I.I.I.I.I.I.I.I.I.I.I.I.I.I.I.I.I.I.I.U.I.Y.~.(.].",
"I.I.I.I.I.I.I.I.I.I.I.I.I.I.I.I.I.I.I.I.I.I.I.I.I.I.I.I.I.I.I.I.I.I.I.I.I.I.I.I.I.I.I.I.I.I.I.I.I.I.I.I.I.I.I.I.I.I.U.U.R.{.}.}.",
"I.I.I.I.I.I.I.I.I.I.I.I.I.I.I.I.I.I.I.I.I.I.I.I.I.I.I.I.I.I.I.I.I.I.I.I.I.I.I.I.I.I.I.I.I.I.I.I.I.I.I.I.I.I.I.I.I.I.I.I.(.}.}.}.",
"I.I.I.I.I.I.I.I.I.I.I.I.I.I.I.I.I.I.I.I.I.I.I.I.I.I.I.I.I.I.I.I.I.I.I.I.I.I.I.I.I.I.I.I.I.I.I.I.I.I.I.I.I.I.I.I.I.I.I.K.(.}.).~.",
"Y.I.I.I.I.I.I.I.I.I.Y.I.I.I.I.I.I.I.I.I.I.I.I.I.I.I.I.I.I.I.I.I.I.I.I.I.I.I.I.I.I.I.I.I.I.I.I.I.I.I.I.I.I.I.I.I.I.I.I.P.~.'.I.(.",
"I.I.I.I.I.I.I.I.I.I.I.I.I.I.I.I.I.I.I.I.I.I.I.I.I.I.I.I.I.I.I.I.I.I.I.I.Y.I.I.I.I.I.I.I.I.I.I.I.I.I.I.I.I.I.I.I.I.I.I.U.T.Q.z.(.",
"I.I.I.I.I.I.I.I.I.I.I.I.I.I.I.I.I.I.I.I.I.I.I.I.I.I.I.I.I.I.I.I.I.I.I.I.I.I.I.I.I.I.I.I.I.I.I.I.I.I.I.I.I.I.I.I.I.I.I.I.H.R.< < ",
"I.I.I.I.I.I.I.I.I.I.I.I.I.I.I.I.I.I.I.I.I.I.I.I.I.I.I.I.I.I.I.I.I.I.I.I.I.I.I.I.I.I.I.I.I.I.I.I.I.I.I.I.I.I.I.I.I.I.I.I.g./.'.m.",
"I.I.I.I.I.I.I.I.I.I.I.I.I.I.I.I.I.I.I.I.I.I.I.I.I.I.I.I.I.I.I.I.I.I.I.I.I.I.I.I.I.I.I.I.I.I.I.I.I.I.I.I.I.I.I.I.I.I.P.T = I.]._.",
"I.I.I.I.I.I.I.I.I.I.I.I.I.I.I.I.I.I.I.I.I.I.I.I.I.I.I.I.I.I.I.Y.I.I.I.I.I.I.I.I.I.I.I.I.I.I.I.I.I.I.I.I.I.I.I.Y.I.I.Z.i r h.'.).",
"I.I.I.I.I.I.I.I.I.I.I.I.I.I.I.I.I.I.I.I.I.I.I.I.I.I.I.I.I.I.I.I.I.I.I.I.I.I.I.I.I.I.I.I.Y.I.I.I.I.I.I.I.I.I.I.I.I.I.K.i % J.`.'.",
"I.I.I.I.I.I.I.I.I.I.I.I.I.I.I.I.I.I.I.I.I.I.I.I.I.I.I.I.I.I.I.I.I.I.I.I.I.I.I.I.I.I.I.I.I.I.I.I.I.I.I.I.I.I.I.I.I.I.U.b.p Y._.].",
"I.I.I.I.I.I.I.I.I.I.I.I.I.I.I.I.I.I.I.I.I.I.I.I.I.I.I.I.I.I.I.I.I.I.I.I.I.I.I.I.I.I.I.I.I.I.I.I.I.I.I.I.I.I.I.I.I.I.I.I.H.Q._.[.",
"I.I.I.I.I.I.Y.I.I.I.I.I.I.I.I.I.I.I.I.I.I.I.I.I.I.I.I.I.I.I.I.I.I.I.I.I.I.I.I.I.I.I.I.I.I.I.I.I.I.I.I.I.I.I.I.I.I.I.I.I.J.Q.).].",
"I.I.I.I.I.I.I.I.I.I.I.I.I.I.I.I.I.Y.I.I.I.I.I.I.I.I.I.I.I.I.I.I.I.I.I.I.I.I.I.I.I.I.I.I.I.I.I.I.I.I.I.I.I.I.I.I.I.I.I.I.U.G.`.).",
"I.I.I.I.I.I.I.I.I.I.I.I.I.I.I.I.I.I.I.I.I.I.I.I.I.I.I.I.I.I.I.I.I.I.I.I.I.I.I.I.I.I.I.I.I.I.I.I.I.I.I.I.I.I.I.I.I.I.I.I.I.h.!.).",
"I.I.I.I.I.I.I.I.I.I.I.I.I.I.I.I.I.I.I.I.I.I.I.I.I.I.I.I.I.I.I.I.I.I.I.I.I.I.I.I.I.I.I.I.I.I.I.I.I.I.U.I.I.I.I.I.I.I.I.I.I.k.: < ",
"I.I.I.I.I.I.I.I.I.I.I.I.I.I.I.I.I.I.I.I.I.I.I.I.I.I.I.I.I.I.I.I.I.I.I.I.I.I.I.I.I.I.I.I.I.I.I.I.I.I.I.I.I.I.I.I.I.I.I.I.I.n.; - ",
"I.I.I.I.I.I.I.I.I.I.I.I.I.I.I.I.I.I.I.I.I.I.I.I.I.I.I.I.I.I.I.I.I.I.Y.I.I.I.I.I.I.I.I.I.I.I.I.I.I.I.I.I.I.I.I.I.I.I.I.I.I.K.O.- ",
"I.I.I.I.I.I.I.I.I.I.I.I.I.I.I.I.I.I.I.I.I.I.I.I.I.I.I.I.I.I.I.I.I.I.I.I.I.I.I.I.I.I.Y.I.I.I.I.I.I.I.I.I.I.I.I.I.I.I.I.I.I.H.o.- ",
"I.I.I.I.I.I.I.I.I.I.I.I.I.I.I.I.I.I.I.I.I.I.I.I.I.I.I.I.I.I.I.I.I.I.I.I.I.I.I.I.I.I.I.I.I.I.I.I.I.I.I.I.I.I.I.I.I.I.I.I.U.H.2.| ",
"I.I.I.I.I.I.I.I.I.I.I.I.I.I.I.I.I.I.I.I.I.I.I.I.I.I.I.I.I.I.I.I.I.I.I.I.I.I.I.I.I.I.I.I.I.I.I.I.I.I.I.I.I.I.I.I.I.I.I.I.I.v.t.3.",
"I.I.I.I.I.I.I.I.I.I.I.I.I.I.I.Y.I.I.I.I.I.I.I.I.I.I.I.I.I.I.I.I.I.I.I.I.I.I.I.I.I.I.I.I.I.I.I.I.I.I.I.I.I.I.I.I.I.I.I.I.I.D.d.a.",
"I.I.I.I.I.I.I.I.I.I.I.I.I.I.I.I.I.I.I.I.I.I.I.I.Y.I.I.I.I.I.I.I.I.I.I.I.I.I.I.I.I.I.I.I.I.I.I.I.I.I.I.I.I.I.I.I.I.I.I.I.J.5.f.a.",
"Y.I.I.I.I.I.I.I.I.I.I.I.I.I.I.I.I.I.I.I.I.I.I.I.I.I.I.I.I.I.I.I.I.I.I.I.I.I.I.I.I.I.I.I.I.I.I.I.I.I.I.I.I.I.I.I.I.I.I.I.H.t.f.r.",
"I.I.I.I.I.I.I.I.I.I.I.I.I.I.I.I.I.I.I.I.I.I.I.I.I.I.I.I.I.I.I.I.I.I.I.I.I.I.I.I.I.I.I.I.I.I.I.I.I.I.I.I.I.I.I.I.I.I.I.I.G.u.f.r.",
"I.I.I.I.I.I.I.I.I.I.I.I.I.I.I.I.I.I.I.I.I.I.I.I.I.I.I.I.I.I.I.I.I.I.I.I.I.I.I.I.I.I.I.I.I.I.I.I.I.I.I.I.I.I.I.I.I.I.I.I.F.L.d.y.",
"I.I.I.I.I.I.I.I.I.I.I.I.I.I.I.I.I.I.I.I.I.I.I.I.I.I.I.I.I.I.I.I.I.I.I.I.I.I.I.Y.I.I.I.I.I.I.I.I.I.I.I.I.I.I.I.I.I.I.I.I.D.d.d.e.",
"I.I.I.I.I.I.I.I.I.I.I.I.I.I.I.I.I.I.I.I.I.I.I.I.I.I.I.I.I.I.I.I.I.I.I.I.I.I.I.I.I.I.I.I.I.I.I.I.I.I.I.I.I.I.I.I.I.I.I.J.1.d.r.w.",
"I.I.I.I.I.I.I.I.I.I.I.I.I.I.I.I.I.I.I.I.I.I.I.I.I.I.I.I.I.I.I.I.I.I.I.I.I.I.I.I.I.I.I.I.I.I.I.I.I.I.I.I.I.I.I.I.I.I.U.F.t.d.e.w.",
"I.I.I.I.I.I.I.I.I.I.I.I.I.I.I.I.I.I.I.I.Y.I.I.I.I.I.I.I.I.I.I.I.I.I.I.I.I.I.I.I.I.I.I.I.I.I.I.I.I.I.I.I.I.I.I.I.I.I.H.<.s.r.3.%.",
"I.I.I.I.I.I.I.I.I.I.I.I.I.I.I.I.I.I.I.I.I.I.I.I.I.I.I.I.I.I.I.I.I.I.I.I.I.I.I.I.I.I.I.I.I.I.I.I.I.I.I.I.I.I.I.I.I.I.G.4.i.3.%.O.",
"I.I.I.I.I.I.I.I.I.I.I.I.I.I.I.I.I.I.I.I.I.I.I.I.I.I.I.I.I.I.I.I.I.I.I.I.I.I.I.I.I.I.I.I.I.I.I.I.I.I.I.I.I.I.I.I.I.I.J.5.a.3.%.o.",
"I.I.I.I.I.I.I.I.I.I.I.I.I.I.I.I.I.I.I.I.I.I.I.I.I.I.I.I.I.I.I.I.I.I.I.I.I.I.I.I.I.I.I.I.I.I.I.I.I.I.I.I.I.I.I.I.I.I.U.<.y.e.&.=.",
"I.I.I.I.I.I.I.I.I.I.Y.U.S.E E S.I.U.I.I.I.I.I.I.I.I.I.I.I.I.I.I.I.I.I.I.I.U.I.I.I.I.I.I.I.I.I.I.I.I.I.I.I.I.I.I.I.I.I.,.y.e.:.x.",
"I.I.I.I.I.I.I.I.I.I.Y.T N D K { E U.I.I.I.I.I.I.I.I.I.I.I.I.I.I.I.I.I.I.I.I.I.I.I.I.I.I.I.I.I.I.I.I.I.I.I.I.I.I.I.I.U.<.y.8.:.v.",
"I.I.I.I.I.I.I.I.I.I.Z.m Z Z Z K } A.I.U.I.I.I.I.I.I.I.I.I.I.I.I.I.I.I.I.I.I.I.I.I.I.I.I.I.I.I.I.I.I.I.I.I.I.I.I.I.I.U.5.p.8.;.F.",
"I.I.I.I.I.I.I.I.I.I.M.k z & s D C > U.Y.I.I.I.I.I.I.I.I.I.I.I.I.I.I.I.I.I.I.I.I.I.I.I.I.I.I.I.I.I.I.I.I.I.I.I.I.I.I.G.w.p.8.-.G.",
"I.I.I.I.I.I.I.I.U.Y.T k j > & z n w S.U.I.I.I.I.I.I.I.I.I.I.I.I.I.I.I.I.I.I.I.I.I.I.I.I.I.I.I.I.Y.I.I.I.I.I.I.I.I.I.G.e.q.;.-.H.",
"I.I.I.I.I.I.I.I.U.U.B.g z M 7 8 9 8 t n.I.I.I.I.I.I.I.I.I.I.I.I.I.I.I.I.I.I.I.I.I.I.I.I.I.I.I.I.I.I.I.I.I.I.I.I.I.I.D.q.0.&.,.I.",
"I.I.I.I.I.I.I.I.U.I.P.I k x b 2 5 t k.P.I.I.I.I.I.I.I.I.I.I.I.I.I.I.I.I.I.I.I.I.I.I.I.I.I.I.I.I.I.I.I.I.I.I.I.I.I.I.<.q.7.&.v.I.",
"I.I.I.I.I.I.I.U.P.P.l.k.P 8 8 6 U P.U.I.I.I.I.I.I.I.I.I.I.I.I.I.I.I.I.I.I.I.I.I.I.I.I.I.I.I.I.I.I.I.I.I.I.I.I.I.I.H.>.0.6.o.H.I.",
"I.I.I.I.I.I.J.~ W 7 d m d n l G _ P.I.U.I.I.I.I.I.I.I.I.I.I.I.I.I.I.I.I.Y.I.I.I.I.I.I.I.I.I.I.I.I.I.I.I.I.I.I.I.H.+.| $.$.X.x.I.",
"I.I.I.I.I.I.J.L g 3 z J H S J K J E U.U.I.I.I.I.I.I.I.I.I.I.I.I.I.I.I.I.I.I.I.I.I.I.I.I.I.I.I.I.I.I.I.I.I.I.I.I.J.%.#.#... .x.I.",
"I.I.I.I.I.I.I.T f 8 g k c D F F F [ U.I.I.I.I.I.I.I.I.I.I.I.I.I.I.I.I.I.I.I.I.I.I.I.I.I.I.I.I.I.I.I.I.I.U.I.I.K.n. ...$.#.+.I.I.",
"I.I.I.I.I.I.I.C.v g g k c A S F D ! U.U.I.I.I.I.I.I.I.I.I.I.I.I.I.I.I.I.I.I.I.I.I.I.I.I.I.I.I.I.I.I.I.P.x.,.*.%.;.6.#.X.%.@.P.I.",
"I.I.I.I.I.I.I.J.y g h l l x B V A R U.Y.I.I.I.I.I.I.I.I.I.I.I.I.I.I.I.I.I.I.I.I.I.I.I.I.I.I.I.I.I.I.I.H.v.5.e.6.6.9.9.t.W.L.n.I.",
"I.I.I.I.I.I.I.I.C.Y 0 8 8 k n b 7 C.U.U.I.I.I.I.I.I.I.I.I.I.I.I.I.I.I.I.I.I.I.I.I.I.I.I.I.I.I.I.I.I.I.I.m.z.P.L.>.2.2.W.^.Q.m.I.",
"Y.Y.Y.Y.Y.Y.Y.Y.Y.U.V.a I Y B.B.C.U.Y.Y.Y.Y.Y.Y.Y.Y.Y.Y.Y.Y.Y.Y.Y.Y.Y.Y.Y.Y.Y.Y.Y.Y.Y.Y.Y.Y.Y.Y.Y.Y.Y.Y.I.I.m.c.g.c.b.c.z.g.z.Y.",
"I.I.I.I.I.I.I.I.I.U.I.U.U.I.I.I.I.I.I.I.I.I.I.I.I.I.I.I.I.I.I.I.I.I.I.I.I.I.I.I.I.I.I.I.I.I.I.I.I.I.I.I.I.U.U.I.I.K.Z.K.H.K.P.I."
};
