/* XPM */
static char *a344c7603a7040c4a9d7094eb88c35a3gf51L70V7ekdIrG1[] = {
/* columns rows colors chars-per-pixel */
"64 64 224 2 ",
"   c #0F0C18",
".  c #130E1B",
"X  c #2A171A",
"o  c #381C19",
"O  c #25201E",
"+  c #3E241A",
"@  c #1C1826",
"#  c #231F27",
"$  c #311C21",
"%  c #242028",
"&  c #382925",
"*  c #3C312A",
"=  c #2E2E35",
"-  c #362E35",
";  c #2D333B",
":  c #3A3439",
">  c #431C1B",
",  c #521F1C",
"<  c #482619",
"1  c #572A1C",
"2  c #493519",
"3  c #563616",
"4  c #6E291B",
"5  c #66391B",
"6  c #78391C",
"7  c #452924",
"8  c #463929",
"9  c #573722",
"0  c #673723",
"q  c #653B21",
"w  c #50411D",
"e  c #634315",
"r  c #69491A",
"t  c #7B4F12",
"y  c #68521F",
"u  c #7B5414",
"i  c #78561C",
"p  c #79671C",
"a  c #574629",
"s  c #574A36",
"d  c #50493A",
"f  c #634B25",
"g  c #685720",
"h  c #6E512B",
"j  c #745521",
"k  c #775631",
"l  c #75652A",
"z  c #383D44",
"x  c #403E43",
"c  c #334149",
"v  c #374B55",
"b  c #39525B",
"n  c #3E5B66",
"m  c #4A4647",
"M  c #514D4C",
"N  c #59544A",
"B  c #575657",
"V  c #5D5C5D",
"C  c #6E5544",
"Z  c #615D59",
"A  c #787141",
"S  c #696559",
"D  c #415C65",
"F  c #5D5D61",
"G  c #4E6F78",
"H  c #546B74",
"J  c #4C727C",
"K  c #686668",
"L  c #77736D",
"P  c #6C6C71",
"I  c #727276",
"U  c #77767A",
"Y  c #7B7B7E",
"T  c #8B321E",
"R  c #88341C",
"E  c #883C22",
"W  c #A23C20",
"Q  c #845915",
"!  c #8E5813",
"~  c #9B690E",
"^  c #8A661A",
"/  c #966916",
"(  c #8F751E",
")  c #997218",
"_  c #A46C0F",
"`  c #A7750F",
"'  c #B47B0F",
"]  c #AD7612",
"[  c #AC7915",
"{  c #A57718",
"}  c #B57A15",
"|  c #944822",
" . c #8A5326",
".. c #AB4C22",
"X. c #AC5525",
"o. c #B85822",
"O. c #887522",
"+. c #957A23",
"@. c #9A6837",
"#. c #AA6429",
"$. c #B96B29",
"%. c #A47633",
"&. c #C07F0E",
"*. c #C86A25",
"=. c #D46D28",
"-. c #C9752B",
";. c #D97428",
":. c #837753",
">. c #9F841F",
",. c #BF800E",
"<. c #BB8815",
"1. c #958121",
"2. c #B58A28",
"3. c #B59B23",
"4. c #BCA32F",
"5. c #C2840D",
"6. c #C8890D",
"7. c #D18C0C",
"8. c #CD980F",
"9. c #D4920D",
"0. c #DA950B",
"q. c #DD9A0C",
"w. c #C78917",
"e. c #C38A1A",
"r. c #CB9714",
"t. c #D99514",
"y. c #DB9A13",
"u. c #D79818",
"i. c #E19E0E",
"p. c #DCA617",
"a. c #D8A917",
"s. c #E5A20D",
"d. c #ECAC0E",
"f. c #EFB30F",
"g. c #F0B20F",
"h. c #F0B80F",
"j. c #E5A717",
"k. c #E5AB13",
"l. c #EDAD12",
"z. c #F0AF12",
"x. c #EEB212",
"c. c #EDB31B",
"v. c #EBB919",
"b. c #F1B311",
"n. c #F3BC15",
"m. c #F5BF19",
"M. c #C18F21",
"N. c #DC812B",
"B. c #EC8429",
"V. c #F38C2C",
"C. c #F29335",
"Z. c #C8A725",
"A. c #DAAC22",
"S. c #DBB824",
"D. c #E2A420",
"F. c #E9B723",
"G. c #F6C41A",
"H. c #F7C61A",
"J. c #F9CC1D",
"K. c #FBD21F",
"L. c #EAC525",
"P. c #F4CD24",
"I. c #FACE21",
"U. c #F4C828",
"Y. c #FED624",
"T. c #F9D529",
"R. c #FBD52A",
"E. c #F1C136",
"W. c #FBD939",
"Q. c #968B56",
"!. c #B3965D",
"~. c #8F896F",
"^. c #C6B374",
"/. c #ECB87B",
"(. c #FBDC45",
"). c #F9DE55",
"_. c #FAE058",
"`. c #EDD56E",
"'. c #FBE163",
"]. c #FAE576",
"[. c #547B84",
"{. c #7D7C80",
"}. c #817F83",
"|. c #58858B",
" X c #5B8991",
".X c #5F939A",
"XX c #63949C",
"oX c #64999F",
"OX c #649AA1",
"+X c #6A9CA3",
"@X c #729CA3",
"#X c #7A9EA4",
"$X c #6CA2A8",
"%X c #76A2A8",
"&X c #7CA4AA",
"*X c #818186",
"=X c #85858A",
"-X c #86878C",
";X c #89898D",
":X c #96978E",
">X c #858D92",
",X c #8E8E93",
"<X c #919196",
"1X c #95959A",
"2X c #979899",
"3X c #99999E",
"4X c #A19F89",
"5X c #AAA997",
"6X c #9E9EA3",
"7X c #A09FA4",
"8X c #84A3AA",
"9X c #8AA4AA",
"0X c #94A5AA",
"qX c #9DA6AB",
"wX c #A2A1A6",
"eX c #A7A6AB",
"rX c #B9BAA5",
"tX c #C9C79B",
"yX c #F9E98D",
"uX c #F5EDB3",
"iX c #D4D5CD",
"pX c #FAF6C8",
"aX c #E9EAD2",
"sX c #FAF8D1",
/* pixels */
"eXeXeXeXeXeXeXeXeXeXeXeXeXeXeXeXeXeXeXeXeXeXeXeXeXeXeXeXeXeXeXeXeXeXeXeXeXeXeXeXeXeXeXeXeXeXeXeXeXeXeXeXeXeXeXeXeXeXeXeXeXeXeXeX",
"eXeXeXeXeXeXeXeXeXeXeXeXeXeXeXeXeXeXeXeXeXeXeXeXeXeXeXeXeXeXeXeXeXeXeXeXeXeXeXeXeXeXeXeXeXeXeXeXeXeXeXeXeXeXeXeXeXeXeXeXeXeXeXeX",
"eXeXeXeXeXeXeXeXeXeXeXeXeXeXeXeXeXeXeXeXeXeXeXeXeXeXeXeXeXeXeXeXeXeXeXeXeXeXeXeXeXeXeXeXeXeXeXeXeXeXeXeXeXeXeXeXeXeXeXeXeXeXeXeX",
"eXeXeXeXeXeXeXeXeXeXeXeXeXeXeXeXeXeXeXeXeXeXeXeXeXeXeXeXeXeXeXeXeXeXeXeXeXeXeXeXeXeXeXeXeXeXeXeXeXeXeXeXeXeXeXeXeXeXeXeXeXeXeXeX",
"eXeXeXeXeXeXeXeXeXeXeXeXeXeXeXeXeXeXeXeXeXeXeXeXeXeXeXeXeXeXeXeXeXeXeXeXeXeXeXeXeXeXeXeXeXeXeXeXeXeXeXeXeXeXeXeXeXeXeXeXeXeXeXeX",
"eXeXeXeXeXeXeXeXeXeXeXeXeXeXeXeXeXeXeXeXeXeXeXeXeXeXeXeXeXeXeXeXeXeXeXeXeXeXeXeXeXeXeXeXeXeXeXeXeXeXeXeXeXeXeXeXeXeXeXeXeXeXeXeX",
"eXeXeXeXeXeXeXeXeXeXeXeXeXeXeXeXeXeXeXeXeXeXeXeXeXeXeXeXeXeXeXeXeXeXeXeXeXeXeXeXeXeXeXeXeXeXeXeXeXeXeXeXeXeXeXeXeXeXeXeXeXeXeXeX",
"eXeXeXeXeXeXeXeXeXeXeXeXeXeXeXeXeXeXeXeXeXeXeXeXeXeXeXeXeXeXeXeXeXeXeXeXeXeXeXeXeXeXeXeXeXeXeXeXeXeXeXeXeXeXeXeXeXeXeXeXeXeXeXeX",
"eXeXeXeXeXeXeXeXeXeXeXeXeXeXeXeXeXeXeXeXeXeXeXeXeXeXeXeXeXeXeXeXeXeXeXeXeXeXeXeXeXeXeXeXeXeXeXeXeXeXeXeXeXeXeXeXeXeXeXeXeXeXeXeX",
"eXeXeXeXeXeXeXeXeXeXeXeXeXeXeXeXeXeXeXeXeXeXeXeXeXeXeXeXeXeXeXeXeXeXeXeXeXeXeXeXeXeXeXeXeXeXeXeXeXeXeXeXeXeXeXeXeXeXeXeXeXeXeXeX",
"eXeXeXeXeXeXeXeXeXeXeXeXeXeXeXeXeXeXeXeXeXeXeXeXeXeXeXeXeXeXeXeXeXeXeXeXeXeXeXeXeXeXeXeXeXeXeXeXeXeXeXeXeXeXeXeXeXeXeXeXeXeXeXeX",
"eXeXeXeXeXeXeXeXeXeXeXeXeXeXeXeXeXeXeXeXeXeXeXeXeXeXeXeXeXeXeXeXeXeXeXeXeXeXeXeXeXeXeXeXeXeXeXeXeXeXeXeXeXeXeXeXeXeXeXeXeXeXeXeX",
"eXeXeXeXeXeXeXeXeXeXeXeXeXeXeXeXeXeXeXeXeXeXeXeXeXeXeXeXeXeXeXeXeXeXeXeXeXeXeXeXeXeXeXeXeXeXeXeXeXeXeXeXeXeXeXeXeXeXeXeXeXeXeXeX",
"eXeXeXeXeXeXeXeXeXeXeXeXeXeXeXeXeXeXeXeXeXeXeXeXeXqX<X{.K V B V P =X3XeXeXeXeXeXeXeXeXeXeXeXeXeXeXeXeXeXeXeXeXeXeXeXeXeXeXeXeXeX",
"eXeXeXeXeXeXeXeXeXeXeXeXeXeXeXeXeXeXeXeXeXeXeX6X*XB N A Q.!.4.3.+.g d F <XeXeXeXeXeXeXeXeXeXeXeXeXeXeXeXeXeXeXeXeXeXeXeXeXeXeXeX",
"eXeXeXeXeXeXeXeXeXeXeXeXeXeXeXeXeXeXeXeXeXeX,XF S 5XuXsXsXpXuXyXW.R.S.( 8 P wXeXeXeXeXeXeXeXeXeXeXeXeXeXeXeXeXeXeXeXeXeXeXeXeXeX",
"eXeXeXeXeXeXeXeXeXeXeXeXeXeXeXeXeXeXeXeXwX*XB 4XaXsXuX].).(.W.W.W.Y.Y.Y.A.y B 3XeXeXeXeXeXeXeXeXeXeXeXeXeXeXeXeXeXeXeXeXeXeXeXeX",
"eXeXeXeXeXeXeXeXeXeXeXeXeXeXeXeXeXeXeXeX=XB rXsXyX).R.Y.Y.Y.Y.Y.Y.Y.Y.Y.Y.v.i M 6XeXeXeXeXeXeXeXeXeXeXeXeXeXeXeXeXeXeXeXeXeXeXeX",
"eXeXeXeXeXeXeXeXeXeXeXeXeXeXeXeXeXeXeX<XB rXpX].R.Y.Y.Y.Y.Y.Y.Y.Y.Y.Y.Y.Y.Y.v.i F wXeXeXeXeXeXeXeXeXeXeXeXeXeXeXeXeXeXeXeXeXeXeX",
"eXeXeXeXeXeXeXeXeXeXeXeXeXeXeXeXeXeX6XF :XpX'.Y.Y.Y.Y.Y.Y.Y.Y.Y.Y.Y.Y.Y.Y.Y.J.j.a *XeXeXeXeXeXeXeXeXeXeXeXeXeXeXeXeXeXeXeXeXeXeX",
"eXeXeXeXeXeXeXeXeXeXeXeXeXeXeXeXeXeX=XB tX`.R.Y.Y.Y.Y.Y.Y.Y.Y.Y.Y.Y.Y.Y.Y.Y.Y.H.<.m 6XeXeXeXeXeXeXeXeXeXeXeXeXeXeXeXeXeXeXeXeXeX",
"eXeXeXeXeXeXeXeXeXeXeXeXeXeXeXeXeXwXB - L Q.L.Y.Y.Y.Y.Y.Y.Y.Y.Y.R.Y.Y.Y.Y.Y.Y.J.c.a =XeXeXeXeXeXeXeXeXeXeXeXeXeXeXeXeXeXeXeXeXeX",
"eXeXeXeXeXeXeXeXeXeXeXeXeXeXeXeXeX1X= X K Y 3.Y.Y.Y.Y.Y.Y.Y.L.1.g O.L.Y.Y.Y.Y.K.n.) F eXeXeXeXeXeXeXeXeXeXeXeXeXeXeXeXeXeXeXeXeX",
"eXeXeXeXeXeXeXeXeXeXeXeXeXeXeXeXeX*X= X . O 3.Y.Y.Y.Y.Y.Y.P.l % ; 1XQ.L.Y.Y.Y.Y.n.r.m 7XeXeXeXeXeXeXeXeXeXeXeXeXeXeXeXeXeXeXeXeX",
"eXeXeXeXeXeXeXeXeXeXeXeXeXeXeXeXeXP ~.:.w +.P.Y.Y.Y.Y.Y.Y.S.& # ; iX5X4.Y.Y.Y.Y.n.p.a 3XeXeXeXeXeXeXeXeXeXeXeXeXeXeXeXeXeXeXeXeX",
"eXeXeXeXeXeXeXeXeXeXeXeXeXeXeXeXeXK 4X).S.Z.Z.S.Y.Y.Y.Y.Y.S.O @ . - - 3.Y.Y.Y.Y.n.k.a <XeXeXeXeXeXeXeXeXeXeXeXeXeXeXeXeXeXeXeXeX",
"eXeXeXeXeXeXeXeXeXeXeXeXeXwX-XK V z Z l r j  .i ( L.Y.Y.Y.P.g .   . w F.Y.Y.Y.K.n.k.a <XeXeXeXeXeXeXeXeXeXeXeXeXeXeXeXeXeXeXeXeX",
"eXeXeXeXeXeXeXeXeXeXeXeXeX=Xs %.^.!.@.#.-.B.#.$.$.^ L.Y.Y.Y.L.( y p A.Y.Y.Y.Y.H.b.p.s 1XeXeXeXeXeXeXeXeXeXeXeXeXeXeXeXeXeXeXeXeX",
"eXeXeXeXeXeXeXeXeXeXeXeXeXU & q k !./.C.V.V.-.#.V.-.^ S.Y.Y.Y.Y.R.R.Y.Y.Y.Y.Y.n.b.<.M 6XeXeXeXeXeXeXeXeXeXeXeXeXeXeXeXeXeXeXeXeX",
"eXeXeXeXeXeXeXeXeXeXeXeXeX6Xm X > X 1 $.B.V.V.V.V.V.-. .+.P.Y.Y.Y.Y.Y.Y.Y.Y.n.b.d.^ K eXeXeXeXeXeXeXeXeXeXeXeXeXeXeXeXeXeXeXeXeX",
"eXeXeXeXeXeXeXeXeXeXeXeXeXeX<X: T T 1 o 6 *.B.V.V.V.B.*.1 Z.Y.Y.Y.Y.Y.Y.J.n.b.f.9.a -XeXeXeXeXeXwX<X=X1XeXeXeXeXeXeXeXeXeXeXeXeX",
"eXeXeXeXeXeXeXeXeXeXeXeXeXeXeX,X: 4 W T , o 1 6 | | 5 + y L.Y.Y.Y.Y.I.H.b.g.g.s.^ B 6XeXeXeXeX6XP s y d ,XeXeXeXeXeXeXeXeXeXeXeX",
"eXeXeXeXeXeXeXeXeXeXeXeXeXeXeXeX1XM 7 4 R R 4 1 , > o e r.n.H.J.H.n.b.b.b.d.s.] d ;XeXeXeXeX1XZ j r.x.[ V eXeXeXeXeXeXeXeXeXeXeX",
"eXeXeXeXeXeXeXeXeXeXeXeXeXeXeXeXeXwX;XF m $ o 1 3 e ~ y.l.b.b.b.b.b.g.g.l.D.2.a Y eXeXeXeX;XN ( p.x.x.8.N wXeXeXeXeXeXeXeXeXeXeX",
"eXeXeXeXeXeXeXeXeXeXeXeXeXeXeXeXeXeXeXeX7XU * Q 5.9.q.d.d.g.b.b.g.f.d.s.u.%.C Y wXeXeX6XU s [ k.b.x.g.p.N wXeXeXeXeXeXeXeXeXeXeX",
"eXeXeXeXeXeXeXeXeXeXeXeXeXeXeXeXeXeXeXeXeXeX,Xm 3 ] 0.q.i.i.s.s.i.y.9.} j N =XwXeXeX1XV a <.x.b.b.x.b.8.S wXeXeXeXeXeXeXeXeXeXeX",
"eXeXeXeXeXeXeXeXeXeXeXeXeXeXeXeXeXeXeXeXeXeX1XS i M.u.y.u.u.u.e.[ / i 8 m ;XeXeXwX*Xm 8 a i r.b.b.b.b.<.K eXeXeXeXeXeXeXeXeXeXeX",
"eXeXeXeXeXeXeXeXeXeXeXeXeXeXeXeXeXeXeXeX1XY S 2.F.F.c.j.j.u.u.u.w.e.e.<.i s K {.K k { e.e.[ e y.b.b.b.{ : 3XeXeXeXeXeXeXeXeXeXeX",
"eXeXeXeXeXeXeXeXeXeXeXeXeXeXeXeXeXeX6XU x s ^.yXW.U.U.c.c.c.k.j.y.y.0.u.t.e.j 8 / r.u.t.u.u.Q ` b.b.b.} r I eXeXeXeXeXeXeXeXeXeX",
"eXeXeXeXeXeXeXeXeXeXeXeXeXeXeXeXeX1XV 9 h tX].W.Y.Y.Y.n.b.b.b.b.b.b.d.q.0.6.Q e.k.s.i.i.i.s.) 3 8.b.l.i.[ V eXeXeXeXeXeXeXeXeXeX",
"eXeXeXeXeXeXeXeXeXeXeXeXeXeXeXeX3XB i ( ^.).Y.Y.Y.Y.Y.n.b.b.b.b.b.b.b.l.q._ <.l.b.g.b.b.b.b.{ e 3 6.d.g./ P eXeXeXeXeXeXeXeXeXeX",
"eXeXeXeXeXeXeXeXeXeXeXeXeXeXeXwXK j r.4.W.Y.Y.Y.Y.Y.Y.J.n.g.b.b.b.b.b.b.q.' k.x.x.f.x.b.b.x./ ,./ 3 7.5.s ,XeXeXeXeXeXeXeXeXeXeX",
"eXeXeXeXeXeXeXeXeXeXeXeXeXeXeX;Xs A.A.L.Y.Y.Y.Y.Y.Y.Y.Y.Y.H.b.g.b.b.b.x.s.y.x.b.x.c.v.b.b.u.~ 7.0.Q e f I wXeXeXeXeXeXeXeXeXeXeX",
"eXeXeXeXeXeXeXeXeXeXeXeXeXeXwXV >.R.P.Y.Y.Y.Y.Y.Y.Y.Y.Y.Y.Y.J.n.b.b.f.f.b.x.b.g.b.E.F.b.l.5.5.0.0.6.+ K 6XeXeXeXeXeXeXeXeXeXeXeX",
"eXeXeXeXeXeXeXeXeXeXeXeXeXeX1Xs S.Y.Y.Y.Y.Y.Y.Y.Y.Y.Y.Y.Y.Y.Y.I.n.b.b.g.b.b.b.g.b.b.b.b.s.0.0.0.0.0.f ,XeXeXeXeXeXeXeXeXeXeXeXeX",
"eXeXeXeXeXeXeXeXeXeXeXeXeXeX*Xl P.Y.Y.Y.Y.Y.Y.Y.Y.Y.Y.Y.Y.Y.Y.Y.J.b.b.b.b.b.b.b.b.b.b.b.l.q.0.0.0.7.f <XeXeXeXeXeXeXeXeXeXeXeXeX",
"eXeXeXeXeXeXeXeXeXeXeXeXeXeXI O.Y.Y.Y.Y.Y.Y.Y.Y.Y.Y.Y.Y.Y._.(.Y.Y.n.g.b.b.b.b.b.b.b.b.b.d.q.0.0.0./ N 7XeXeXeXeXeXeXeXeXeXeXeXeX",
"eXeXeXeXeXeXeXeXeXeXeXeXeXeXP O.Y.Y.Y.Y.Y.Y.Y.Y.Y.Y.Y.Y.Y.].).Y.Y.H.g.g.b.b.b.b.b.b.b.z.s.0.0.9.~ < B eXeXeXeXeXeXeXeXeXeXeXeXeX",
"eXeXeXeXeXeXeXeXeXeXeXeXeXeXI ^ Y.Y.Y.Y.Y.Y.Y.Y.Y.Y.Y.Y.Y.R.(.R.Y.I.f.f.b.b.b.b.b.b.d.i.q.0.5.Q u u Z eXeXeXeXeXeXeXeXeXeXeXeXeX",
"eXeXeXeXeXeXeXeXeXeXeXeXeXeX=Xg I.Y.Y.Y.Y.Y.Y.Y.Y.Y.Y.Y.Y.Y.Y.Y.Y.K.h.f.b.b.b.x.k.s.q.7.' ! Q ` 7.u I eXeXeXeXeXeXeXeXeXeXeXeXeX",
"eXeXeXeXeXeXeXeXeXeXeXeXeXeX3X8 a.Y.Y.Y.Y.Y.Y.Y.Y.Y.Y.Y.Y.Y.Y.Y.Y.J.b.f.b.y.7.6.&.] _ ~ _ 5.9.0.6.a ,XeXeXeXeXeXeXeXeXeXeXeXeXeX",
"eXeXeXeXeXeXeXeXeXeXeXeXeXeXeXF ) H.Y.Y.Y.Y.Y.Y.Y.Y.Y.Y.Y.Y.Y.Y.Y.H.g.g.b.b.s.y.9.9.0.i.i.q.0.0.^ V wXeXeXeXeXeXeXeXeXeXeXeXeXeX",
"eXeXeXeXeXeXeXeXeXeXeXeXeXeXeX,X8 u.J.Y.Y.Y.Y.Y.Y.Y.Y.Y.Y.Y.Y.Y.J.b.b.b.b.b.b.b.g.x.x.f.d.q.0.] 8 -XeXeXeXeXeXeXeXeXeXeXeXeXeXeX",
"eXeXeXeXeXeXeXeXeXeXeXeXeXeX3X}.: 3 k.H.Y.Y.Y.Y.Y.Y.Y.Y.Y.Y.Y.H.b.g.b.b.b.b.b.b.b.b.b.d.i.0.] 2 D @X&X8X0XeXeXeXeXeXeXeXeXeXeXeX",
"eXeXeXeXeXeXeXeXeXeXeXeX6XU C 0 6 < e p.n.H.Y.Y.Y.Y.Y.Y.K.H.n.b.b.b.b.b.b.b.g.b.l.d.q.9.6./ * D XXOXOX+X$X%X9XeXeXeXeXeXeXeXeXeX",
"eXeXeXeXeXeXeXeXeXeXeXeX=X .N.-.=...< 2 <.x.b.n.m.H.m.n.b.f.f.b.b.b.g.d.d.0.<.~ u e 3 3 3 o v .XOXOXoXOX+X$X$XqXeXeXeXeXeXeXeXeX",
"eXeXeXeXeXeXeXeXeXeXeXeX>X*  .$.*.o...6 + r <.k.b.g.b.b.b.b.b.l.d.s.9.] t 5 5 6 | E R ....7 b oXOXOXOXOX$X$X8XeXeXeXeXeXeXeXeXeX",
"eXeXeXeXeXeXeXeXeXeXeXeX&X|.n z : * 7 7 & @ # 2 u ] 5.9.0.q.q.9.6.~ r 6 | X.X.=.;.=.;.=.0 c  XOXOX+X$X&X8X0XeXeXeXeXeXeXeXeXeXeX",
"eXeXeXeXeXeXeXeXeXeXeXeXqX&X$X+X.X X|.[.[.[.[.G v ; - * 2 2 2 2 & o 6 o.;.;.N.C.V.B.=.q c  X+X&X9X0XqXeXeXeXeXeXeXeXeXeXeXeXeXeX",
"eXeXeXeXeXeXeXeXeXeXeXeXeXeXqX0X9X8X%X@X+X+XoXoXoX.X X|.J J G J [.n ; & 7 9 9 q q q 7 v  XOX@X0XeXeXeXeXeXeXeXeXeXeXeXeXeXeXeXeX",
"eXeXeXeXeXeXeXeXeXeXeXeXeXeXeXeXeXeXeXeXqXqXqX0X0X9X8X&X#X@X@X+X+X+XXX X[.G H H H H |.#X8X0XqXeXeXeXeXeXeXeXeXeXeXeXeXeXeXeXeXeX",
"eXeXeXeXeXeXeXeXeXeXeXeXeXeXeXeXeXeXeXeXeXeXeXeXeXeXeXeXeXeXeXeXeXeXqXqXqXqXeXeXeXeXeXeXeXeXeXeXeXeXeXeXeXeXeXeXeXeXeXeXeXeXeXeX",
"eXeXeXeXeXeXeXeXeXeXeXeXeXeXeXeXeXeXeXeXeXeXeXeXeXeXeXeXeXeXeXeXeXeXeXeXeXeXeXeXeXeXeXeXeXeXeXeXeXeXeXeXeXeXeXeXeXeXeXeXeXeXeXeX",
"eXeXeXeXeXeXeXeXeXeXeXeXeXeXeXeXeXeXeXeXeXeXeXeXeXeXeXeXeXeXeXeXeXeXeXeXeXeXeXeXeXeXeXeXeXeXeXeXeXeXeXeXeXeXeXeXeXeXeXeXeXeXeXeX"
};
