/* XPM */
static char *_B1721706477[] = {
/* columns rows colors chars-per-pixel */
"64 64 193 2 ",
"   c #1C1A1A",
".  c #3A2119",
"X  c #2B2422",
"o  c #45231A",
"O  c #7C3218",
"+  c #4B3C34",
"@  c #6B3624",
"#  c #55443D",
"$  c #6E4F3F",
"%  c #774A3D",
"&  c #37455F",
"*  c #724B40",
"=  c #725548",
"-  c #70625B",
";  c #4D5A71",
":  c #56667D",
">  c #626873",
",  c #79777A",
"<  c #883618",
"1  c #9A3B16",
"2  c #943A19",
"3  c #9C3D19",
"4  c #A53F17",
"5  c #883F24",
"6  c #A6411A",
"7  c #B24A18",
"8  c #995135",
"9  c #AC4B24",
"0  c #BE7833",
"q  c #875D49",
"w  c #8F624A",
"e  c #926558",
"r  c #A87659",
"t  c #BC7C5B",
"y  c #816D63",
"u  c #997767",
"i  c #897873",
"p  c #A87E67",
"a  c #C57E57",
"s  c #BA9639",
"d  c #D58C1C",
"f  c #E8A91D",
"g  c #D99524",
"h  c #C48630",
"j  c #D9A83E",
"k  c #E3B029",
"l  c #F3CC29",
"z  c #EEC730",
"x  c #BC955E",
"c  c #948076",
"v  c #9E867A",
"b  c #B78567",
"n  c #B19F65",
"m  c #A5877B",
"M  c #B78E74",
"N  c #BA9378",
"B  c #CF9647",
"V  c #CE936E",
"C  c #C99879",
"Z  c #CAA976",
"A  c #EAAA7E",
"S  c #DFCB5F",
"D  c #E2C54E",
"F  c #4A668C",
"G  c #576883",
"H  c #4C6B94",
"J  c #4E6F9B",
"K  c #536B94",
"L  c #4F739F",
"P  c #597497",
"I  c #52739C",
"U  c #646E80",
"Y  c #667283",
"T  c #6B7482",
"R  c #65758E",
"E  c #68798E",
"W  c #777B85",
"Q  c #727C8A",
"!  c #7A7F8B",
"~  c #6C7C93",
"^  c #647898",
"/  c #777F94",
"(  c #5274A2",
")  c #5679A6",
"_  c #5C7CA4",
"`  c #567BAA",
"'  c #5A7EAD",
"]  c #857F81",
"[  c #7C818C",
"{  c #6B819D",
"}  c #7B8493",
"|  c #748399",
" . c #5B81AE",
".. c #5C84B3",
"X. c #5C88BA",
"o. c #6785A9",
"O. c #7489A3",
"+. c #7590AF",
"@. c #7E93AB",
"#. c #6187B2",
"$. c #6389B5",
"%. c #6C8CB3",
"&. c #638CBB",
"*. c #7793B3",
"=. c #628EC4",
"-. c #6492C3",
";. c #6A95C5",
":. c #6595C9",
">. c #6A9ACD",
",. c #6B9ED4",
"<. c #6CA0D4",
"1. c #6DA4DD",
"2. c #70A6DD",
"3. c #70A7E1",
"4. c #71ABE3",
"5. c #82848D",
"6. c #888688",
"7. c #9D8B83",
"8. c #968A88",
"9. c #9C928E",
"0. c #858993",
"q. c #8C8E93",
"w. c #858B99",
"e. c #928F92",
"r. c #8D929C",
"t. c #939193",
"y. c #9A9395",
"u. c #94959B",
"i. c #98979C",
"p. c #97989F",
"a. c #9A9A9E",
"s. c #AD9386",
"d. c #A89388",
"f. c #BA9781",
"g. c #B59886",
"h. c #B1978A",
"j. c #A19592",
"k. c #A79A95",
"l. c #A39C9D",
"z. c #A99E9B",
"x. c #B6A88E",
"c. c #8C93A1",
"v. c #8896A8",
"b. c #9296A1",
"n. c #969AA1",
"m. c #9E9DA2",
"M. c #8C9FB4",
"N. c #A29EA2",
"B. c #9AA2AB",
"V. c #9DA7B4",
"C. c #A3A1A5",
"Z. c #A9A5A4",
"A. c #A9A8A7",
"S. c #A7A6AB",
"D. c #A8A7AB",
"F. c #A9A8AD",
"G. c #AFAFB0",
"H. c #B0AFB0",
"J. c #AEB1B5",
"K. c #B4B4B7",
"L. c #B9B7B9",
"P. c #BBBBBC",
"I. c #C59F88",
"U. c #DBA683",
"Y. c #D9A883",
"T. c #D3AB91",
"R. c #E2AC84",
"E. c #EBB186",
"W. c #EBB288",
"Q. c #F2B386",
"!. c #F5B98D",
"~. c #F9BC91",
"^. c #BFBFC1",
"/. c #C2C2C4",
"(. c #CBCBCC",
"). c #CECED1",
"_. c #D0CFD1",
"`. c #D4D4D5",
"'. c #D6D6D8",
"]. c #D9D6D9",
"[. c #DBDBDC",
"{. c #DFDFE0",
"}. c #E3E3E4",
"|. c #E9E6E6",
" X c #E8E7E9",
".X c #EAEBEC",
"XX c #EFEFF1",
"oX c #F0EFF3",
"OX c #EFF0F0",
"+X c #F1F1F3",
"@X c #F6F6F9",
"#X c #F8F7FB",
"$X c #F9F8FB",
/* pixels */
"S.S.S.S.S.S.S.S.S.S.S.S.S.S.S.S.S.S.S.S.S.S.S.S.S.S.S.S.D.D.D.D.B.D.S.S.S.S.S.S.S.S.S.S.S.S.S.S.S.S.S.S.S.S.S.S.S.S.S.S.S.S.S.S.",
"S.S.S.S.S.S.S.S.S.S.S.S.S.S.S.S.S.S.S.S.S.S.S.S.S.S.S.S.D.S.D.D.D.D.S.S.S.S.S.S.S.S.S.S.S.S.S.S.S.S.S.S.S.S.S.S.S.S.S.S.S.S.S.S.",
"S.S.S.S.S.S.S.S.S.S.D.S.S.S.S.S.S.S.S.S.S.S.S.S.S.S.S.S.S.S.D.S.D.S.S.S.S.S.S.S.S.S.D.D.S.S.S.S.S.S.S.S.S.S.S.S.S.S.S.S.S.S.S.S.",
"S.S.S.S.S.S.S.S.S.S.S.S.S.S.S.S.S.S.S.S.S.S.S.S.S.S.S.S.S.S.S.S.D.D.S.S.S.S.C.a.9.u.S.D.S.S.S.S.S.S.S.S.S.S.S.S.S.S.S.S.S.S.S.S.",
"S.S.D.D.D.S.S.S.S.S.S.S.S.S.S.S.S.S.S.S.S.S.S.S.S.S.S.S.S.S.S.S.S.S.S.S.S.y.e 8 9 8 8.D.S.S.S.S.S.S.S.S.S.S.S.S.S.S.S.S.S.S.S.S.",
"S.S.D.D.S.S.S.S.S.S.S.S.S.S.D.S.S.S.S.S.S.S.S.S.S.S.S.S.S.S.S.S.S.S.S.S.a.q 3 1 3 7 8 q.C.S.D.S.S.S.S.S.S.S.S.S.S.S.S.S.S.S.S.S.",
"S.S.S.D.S.S.S.S.S.S.S.S.S.S.S.S.S.S.S.S.S.S.S.S.S.S.S.S.S.S.S.S.S.S.S.S.N.% 2 2 O 6 2 i D.D.S.S.S.S.S.S.S.S.S.S.S.S.S.S.S.S.S.S.",
"S.S.S.S.S.S.S.D.S.S.S.S.S.S.S.S.S.S.S.S.S.S.S.S.S.S.S.S.S.S.S.S.S.S.S.S.N.* 3 4 6 3 5 ] S.S.S.S.S.S.S.S.S.S.S.S.S.S.S.S.S.S.S.S.",
"S.S.S.S.S.S.S.S.S.S.S.S.S.S.S.S.S.S.S.S.S.S.S.S.S.S.S.S.F.S.S.S.S.S.S.S.N.* O < 2 < @ 8.S.S.S.S.S.S.S.S.S.S.S.S.S.S.S.S.S.S.S.S.",
"S.S.S.S.S.S.S.S.S.S.S.S.S.S.S.S.S.S.S.S.S.S.S.S.S.S.S.S.S.S.S.S.S.S.S.S.N.- . . o . # e.S.S.S.S.S.S.S.S.S.S.S.S.S.S.S.S.S.S.S.S.",
"S.S.S.S.S.S.S.S.S.S.S.S.S.S.S.S.S.S.S.S.S.S.S.S.S.S.S.S.S.S.S.S.S.S.S.S.S.t.+     X , S.S.S.D.D.S.S.S.S.S.S.S.S.S.S.S.S.S.S.S.S.",
"S.S.S.S.S.S.S.S.D.S.S.S.S.S.S.S.S.S.S.S.S.S.S.S.S.S.S.S.S.S.S.S.S.S.S.S.S.S.u r q w y.S.S.S.S.D.S.S.S.S.S.S.S.S.S.S.S.S.S.S.S.S.",
"S.S.S.S.S.S.S.S.S.S.S.S.S.D.S.S.S.S.S.S.S.S.S.S.S.S.S.S.S.S.S.S.S.S.C.S.C.m.k.T.Y.C t.N.S.S.D.D.S.S.S.S.S.S.S.S.S.S.S.S.S.S.S.S.",
"S.S.S.S.S.S.S.S.S.S.S.S.S.S.D.Z.A.A.S.S.S.S.S.S.S.S.S.S.S.S.S.S.S.S.N.m.^.[.+XXX X}.}./.C.m.D.D.S.S.S.S.S.S.S.S.S.S.S.S.S.S.S.S.",
"S.S.S.S.S.S.S.S.S.S.S.S.S.A.g.D S z.S.S.S.S.S.S.S.S.S.S.S.S.S.S.S.N.(..X#X#X$X$X$X$X$X$X}./.m.C.S.F.S.S.S.S.F.S.S.S.S.S.S.S.S.S.",
"S.S.S.S.S.S.S.S.S.S.S.S.S.N.j s z n A.S.S.S.S.S.S.S.S.S.S.S.S.S.N.L.#X#X#X#X$X$X$X$X$X$X$X$X'.a.S.S.S.S.S.S.S.S.S.S.S.S.S.S.S.S.",
"S.S.S.S.S.S.S.S.S.S.S.S.S.N.j s s 0 j.A.S.S.S.S.S.S.S.S.S.S.S.S.m.^.+X+X$X$X$X$X$X$X$X$X$X@X XB.S.S.S.S.S.S.S.S.S.S.S.S.S.S.S.S.",
"S.S.S.S.S.S.S.S.S.S.S.S.Z.z.M g 0 p C.F.S.S.S.S.S.S.S.S.S.S.S.S.t.^.}.[.+X$X$X$X$X$X$X$X$X.X}.P.N.S.S.S.S.S.S.S.S.S.S.S.S.S.S.S.",
"S.S.S.S.S.S.S.S.S.S.S.S.V h j k k Z G.F.S.S.S.S.S.S.S.S.S.S.S.S.u.(./.P. X$X$X#X$X$X$X$X$X'.}.{.n.S.S.S.S.S.S.S.S.S.S.S.S.S.S.S.",
"S.S.S.S.S.S.S.S.S.S.S.S.M d f l l S A.F.S.S.S.S.S.S.S.S.S.S.S.C.A.[.(.C.{.@X#X#X$X$X$X$XoX/.}..XN.S.S.S.S.S.S.S.S.F.S.S.S.S.S.S.",
"S.S.S.S.S.S.S.S.S.S.S.S.l.B g f f Z A.S.S.S.S.S.S.S.S.S.S.S.A.B.F.|._.Z.].@X#XoX$X$X$X$X.XL./.P.e.N.S.S.S.S.S.S.S.S.S.S.S.S.S.S.",
"S.S.S.S.S.S.S.S.S.S.S.S.C.Z.s.s.j.l.S.S.S.S.S.S.S.S.S.S.S.S.S.S.6.c 9.u./.@XXXXX$X$X$X+X{.t.v b e.S.S.S.S.S.S.S.S.S.S.S.S.S.S.S.",
"S.S.S.S.S.S.S.S.S.S.S.S.S.S.D.S.S.S.S.S.S.S.S.S.S.S.S.S.S.S.S.S.7.W.N 6.K.+X{.oX$X$X@X}.^., Z A 9.D.S.S.S.S.D.S.S.S.S.S.S.S.S.S.",
"S.S.S.S.S.S.S.S.S.S.S.S.S.S.S.S.S.S.S.S.S.S.S.S.S.S.S.S.S.S.S.C.s.!.f.6.K.{.`.$X$X$X}.{.Z.t.C Q.i F.S.S.S.S.S.S.S.S.S.S.S.S.S.S.",
"S.S.S.S.S.S.S.S.S.S.S.S.S.S.S.S.S.S.S.S.S.S.S.S.S.S.S.S.S.S.S.t.C Q.m q.K.(.}.$X$X#X'.'.q.m.g.E.p N.S.S.S.S.S.S.S.S.S.S.S.S.S.S.",
"S.S.S.S.S.S.S.S.S.S.S.D.S.S.S.S.S.S.S.S.S.S.S.S.S.S.S.S.S.S.S.7.E.!.7.q.A.(. X@X$X}.[.(.q.m.N A t a.F.S.S.S.S.S.F.S.S.S.S.S.S.S.",
"S.S.S.S.S.S.S.S.S.S.S.S.S.S.S.S.S.S.S.S.S.S.S.S.S.S.S.S.S.S.S.d.!.W.y.t.G.`.|.$XoX`.|.P.a.m.m Q.a y.S.S.S.S.S.S.S.S.S.S.S.S.S.S.",
"S.S.S.S.S.S.S.S.S.S.S.S.S.S.S.S.S.S.S.S.S.S.S.S.S.S.S.S.S.S.S.h.~.Y.y.t.P.`..XoX_.[.'.(.N.m.7.E.a y.S.S.S.S.S.S.S.S.S.S.S.S.S.S.",
"S.S.S.S.S.S.S.S.S.S.S.S.S.S.S.S.S.S.S.S.S.S.S.S.S.S.S.S.S.S.S.h.~.N a.t./.[.[.`.(.{.`. XS.m.j.Z a y.N.F.S.S.S.S.S.S.S.S.S.S.S.S.",
"S.S.S.D.S.S.S.S.S.S.S.S.S.S.S.S.S.S.S.S.S.S.S.S.S.S.S.S.S.S.S.h.~.d.m.C.).`.[.(.].].OX|.S.m.N.I.V t.S.S.S.S.S.S.S.S.S.S.S.S.S.S.",
"S.D.D.D.S.S.D.S.S.S.S.S.D.S.S.S.S.S.S.S.S.S.S.S.S.S.S.S.S.S.S.h.R.9.i.A.'.{._.[..X@X@X].H.a.C.v t t.S.S.S.S.S.F.S.S.S.S.S.S.S.S.",
"S.S.D.D.S.S.S.S.S.S.S.S.S.S.S.S.S.S.S.S.S.S.S.S.S.S.S.S.S.S.S.v M i.a.(.{.{.OXOX@X$X+X].L.n.S.- q 6.S.S.S.S.S.S.S.S.S.S.S.S.S.S.",
"S.S.S.S.S.S.S.S.S.S.S.S.S.S.S.S.S.S.S.S.S.S.S.S.S.S.S.S.S.Z.H.] x v q.L.[..X.X X.XXXXX'.G.i.z.M b t.S.S.S.S.S.S.S.S.S.S.S.S.S.S.",
"S.S.S.S.S.S.S.S.S.S.S.S.S.S.S.S.S.S.S.S.S.S.S.S.S.S.S.S.S.F.F.x.A N W P | v.B.B.V.V.F.M.R 5.h.V U.N.S.S.S.F.S.S.S.S.S.S.S.S.S.S.",
"S.S.S.S.S.S.F.S.S.S.S.S.F.S.S.S.S.S.S.S.S.S.S.S.S.S.S.S.S.S.S.g.p p 5.) <.&...&...-.;.,...} v = V z.S.S.S.S.S.S.S.S.S.S.S.S.S.S.",
"S.S.S.S.S.S.S.S.S.S.S.S.S.S.S.S.S.S.S.S.F.S.S.S.S.S.S.S.S.F.S.s.$ - ! ' ..I I I H ` =.,.#./ 8.w y N.S.S.S.S.S.S.S.S.S.S.S.S.S.S.",
"S.S.S.S.S.S.S.S.S.S.S.S.S.S.S.S.S.S.S.S.S.S.S.S.S.S.S.S.S.S.S.N.u u W X.&...$.H & ; F ` F 0.l.i j.S.S.S.S.S.S.S.S.S.S.F.S.S.S.S.",
"S.S.S.S.S.S.S.S.S.S.S.S.S.S.S.S.S.S.S.S.S.S.S.S.S.S.S.S.S.S.S.S.C.A.Q ..>.>.<.%.; F ) ` P r.S.S.S.S.S.S.S.S.S.S.S.S.S.S.S.S.S.S.",
"S.S.S.S.S.S.S.S.S.S.S.S.S.S.S.S.S.S.S.S.S.S.S.S.S.S.S.S.S.S.S.S.D.S.[ ..4.2.2.+.> I =.,.$.p.S.S.S.S.S.S.S.S.S.S.S.S.S.S.S.S.S.S.",
"S.S.S.S.S.S.S.S.S.S.S.S.S.S.S.S.S.S.S.S.S.S.S.S.S.S.S.S.S.S.S.S.S.S.} ) 1.4.1.v.T I 1.2.$.b.S.S.S.S.S.S.S.S.S.S.S.S.S.S.S.S.S.S.",
"S.S.S.S.S.S.S.S.S.S.S.S.S.S.S.S.S.S.S.S.S.S.S.S.S.S.S.S.S.S.S.S.S.S.0.` 1.3.>.c.[ H ,.3.o.N.S.S.S.S.S.S.S.S.S.S.S.S.S.S.S.S.S.S.",
"S.S.S.S.S.S.S.S.S.S.S.S.S.S.S.S.S.S.S.S.S.S.S.S.S.S.S.S.S.S.S.S.S.S.w.X.1.2.%.n.0.H -.3.%.B.S.S.S.S.S.S.S.S.S.S.S.S.S.S.S.S.S.S.",
"S.F.S.S.S.S.S.S.S.S.F.S.S.S.S.S.S.S.S.S.S.S.S.S.S.S.S.S.S.S.S.S.S.S.r.#.<.,.$.m.u.F ' 1.%.S.S.S.S.S.S.S.S.S.S.S.S.S.S.S.S.S.S.S.",
"S.S.S.S.S.S.S.S.S.S.S.S.S.S.S.S.S.S.S.S.S.S.S.S.S.S.S.S.S.S.S.S.S.S.u.K ..1.%.m.i.K I ' O.S.S.S.S.S.S.S.S.S.S.S.S.S.S.S.S.S.S.S.",
"S.S.S.S.S.S.S.S.S.S.S.S.S.S.S.S.S.S.S.S.F.S.S.S.S.S.S.S.S.S.S.S.S.S.u.H &.&.{ B.m.G ` ` R B.S.S.F.S.S.S.S.S.S.S.S.S.S.S.S.S.S.S.",
"S.S.S.S.S.S.S.S.S.S.S.S.S.S.S.S.S.S.S.S.S.S.S.S.S.S.S.S.S.S.S.S.S.S.u.I &.#.Q S.S.: J ) : a.S.S.S.S.S.S.S.S.S.S.S.S.S.S.S.S.S.S.",
"F.S.S.S.S.S.S.S.S.S.S.S.S.S.S.S.S.S.S.S.S.S.S.S.F.S.S.S.S.S.S.S.S.S.u.$.<. .} S.S.Y L X.G n.S.S.S.S.S.S.S.S.S.S.S.S.S.F.S.S.S.S.",
"S.S.S.S.S.S.S.S.S.S.S.S.S.S.S.S.S.S.S.S.S.S.S.S.S.S.S.S.S.S.S.S.S.S.b.>.2.<.r.S.S.[ X.1.P m.S.S.S.S.S.S.S.S.S.S.S.S.S.S.S.S.S.S.",
"S.S.S.S.S.S.S.S.S.S.S.S.S.S.S.S.S.S.S.S.S.S.S.S.S.S.S.S.S.S.S.S.D.D.c.<.3.1.v.S.S.| ,.4.$.b.D.S.S.S.S.S.S.S.S.S.S.S.S.S.S.S.S.S.",
"S.S.S.S.S.S.S.S.S.S.S.S.S.S.S.S.S.S.S.S.S.S.S.S.S.S.S.S.S.S.S.S.D.D.c.,.4.3.+.S.S.| 3.4.$.b.S.S.S.S.S.S.S.S.S.S.S.S.S.S.S.S.S.S.",
"S.S.S.S.S.S.S.F.S.S.S.S.S.S.S.S.S.S.S.S.S.S.S.S.S.S.S.S.S.S.S.S.S.D.c.<.4.4.+.S.C.| 3.3.o.n.S.S.S.S.S.S.S.S.S.S.S.S.S.S.S.S.S.S.",
"S.S.S.S.S.S.S.S.S.S.S.S.S.S.S.S.S.S.S.S.S.S.S.S.S.S.S.S.S.S.S.S.S.S.n.>.4.4.*.S.C.~ 2.3._ N.S.S.S.S.S.S.S.S.S.S.S.S.S.S.S.S.S.S.",
"S.S.S.S.S.S.S.S.S.S.S.S.S.S.S.S.S.S.S.S.S.S.S.S.S.S.S.S.S.S.S.S.S.S.n.;.4.4.+.S.D.~ ,.,.| C.D.S.S.S.S.S.S.S.F.S.S.S.S.S.S.S.S.S.",
"S.S.S.S.S.S.S.S.S.S.S.S.S.S.F.S.S.S.S.S.S.S.S.S.S.S.S.S.S.S.S.S.S.S.C.%.4.,.~ S.D./ :.:.w.S.D.D.S.S.S.S.S.S.S.S.S.S.S.S.S.S.S.S.",
"S.S.S.S.S.S.S.S.S.S.S.S.S.S.S.S.S.S.S.S.S.S.S.S.S.S.S.S.S.S.S.S.S.S.S.O.,...~ S.S.| :.) r.S.S.S.S.S.S.S.S.S.S.S.S.S.S.S.S.S.S.S.",
"S.S.S.S.S.S.S.S.S.S.S.S.S.S.S.S.S.F.S.S.S.S.S.S.F.S.S.S.S.S.S.S.S.S.S.O.' ( ^ C.C.~ &._ i.S.S.S.S.S.S.S.S.S.S.S.S.S.S.S.S.S.F.S.",
"S.S.S.S.S.S.S.S.S.S.S.S.S.S.S.S.S.S.S.S.S.S.S.S.S.S.S.S.S.S.S.S.S.S.C.O.) ` R N.m.P :...r.S.S.S.S.S.S.S.S.S.S.S.S.S.S.S.S.S.S.S.",
"S.S.S.S.F.S.S.S.S.S.S.S.S.S.S.S.S.S.S.S.S.S.S.S.S.D.S.S.S.S.S.S.S.S.S.c.P K G N.C.U Y G 0.S.S.S.S.S.S.S.S.S.S.S.S.S.S.S.S.S.S.S.",
"S.S.S.S.S.S.S.S.S.S.S.S.S.S.S.S.S.S.S.S.S.S.S.S.S.S.S.S.S.S.S.S.S.S.S.m.U G ; n.m.! M., u.S.S.S.S.S.S.S.S.S.S.S.S.S.S.S.S.S.S.S.",
"S.S.S.S.S.S.S.S.S.S.S.S.S.F.S.S.S.S.S.S.S.S.S.S.S.S.S.S.S.S.S.S.S.S.Z.5.T E > u.u.0.K.W u.S.S.S.S.S.F.S.S.S.S.S.S.S.S.S.S.S.S.S.",
"S.S.S.S.S.S.S.S.S.S.S.S.S.S.S.S.S.S.S.S.S.S.S.S.S.S.S.S.S.S.S.S.D.D.a.o.-.-.Y p.y.J.K.n.~ m.S.S.S.S.S.S.F.S.S.S.S.S.S.S.S.S.S.S.",
"S.S.S.S.S.S.S.S.S.S.S.S.S.S.S.S.S.S.S.S.S.S.S.S.S.S.S.S.S.S.S.S.D.D.N.c.v.@.r.C.r.^ P E Q c.S.S.S.S.S.S.F.F.S.S.S.S.S.S.S.S.S.F.",
"F.F.F.F.F.F.F.F.F.F.F.F.F.F.F.F.F.F.F.F.F.F.F.F.F.F.F.F.F.F.F.F.D.D.S.S.S.S.C.G.N.| ~ R Q r.F.F.F.F.F.F.F.F.F.F.F.F.F.F.F.F.F.F.",
"S.S.S.S.S.F.F.N.F.S.S.S.S.S.S.S.S.S.S.S.S.S.S.S.S.S.S.S.S.S.S.S.D.D.S.S.S.S.S.S.F.S.N.N.N.N.S.S.S.S.S.S.N.F.S.S.S.S.S.S.S.S.S.S."
};
