/* XPM */
static char *_B1721706477[] = {
/* columns rows colors chars-per-pixel */
"64 64 196 2 ",
"   c #1D191A",
".  c #371F18",
"X  c #38231D",
"o  c #3C322E",
"O  c #432218",
"+  c #7D3218",
"@  c #5B382B",
"#  c #793823",
"$  c #66483B",
"%  c #754637",
"&  c #394965",
"*  c #71574C",
"=  c #796255",
"-  c #445772",
";  c #4D607D",
":  c #55647C",
">  c #5B687F",
",  c #636D7F",
"<  c #686D78",
"1  c #78777C",
"2  c #873619",
"3  c #963917",
"4  c #A33E18",
"5  c #A74218",
"6  c #B3531A",
"7  c #BE7419",
"8  c #8A4C35",
"9  c #984D31",
"0  c #B1552C",
"q  c #B77632",
"w  c #CF7C18",
"e  c #C17A33",
"r  c #865A48",
"t  c #935947",
"y  c #936C4E",
"u  c #896754",
"i  c #A57359",
"p  c #957564",
"a  c #967565",
"s  c #8D7E76",
"d  c #967E78",
"f  c #A67C65",
"g  c #A37E70",
"h  c #B09234",
"j  c #CF841B",
"k  c #D58B1A",
"l  c #DD961B",
"z  c #E39A18",
"x  c #DBAC1F",
"c  c #E9A818",
"v  c #EDB21B",
"b  c #F1B819",
"n  c #CB8228",
"m  c #CF962B",
"M  c #C98B3A",
"N  c #CBA532",
"B  c #E4B625",
"V  c #F9D21D",
"C  c #F4C72C",
"Z  c #FAD527",
"A  c #FEDB2C",
"S  c #FADE33",
"D  c #FCE233",
"F  c #A88657",
"G  c #B7925C",
"H  c #948874",
"J  c #978279",
"K  c #A5836D",
"L  c #AA846F",
"P  c #B18A6B",
"I  c #A88874",
"U  c #AE957A",
"Y  c #BB937B",
"T  c #BFA96C",
"R  c #C28746",
"E  c #CD9F41",
"W  c #D9BB49",
"Q  c #CCAE51",
"!  c #C18F71",
"~  c #C8997B",
"^  c #D89E78",
"/  c #E09C70",
"(  c #D0AD76",
")  c #F2AE7E",
"_  c #E6CE51",
"`  c #4D688E",
"'  c #5D6D84",
"]  c #4C6B94",
"[  c #556C9A",
"{  c #4F719E",
"}  c #5B7291",
"|  c #52749D",
" . c #5A779C",
".. c #647386",
"X. c #6A7484",
"o. c #66778D",
"O. c #777C85",
"+. c #747C8C",
"@. c #637996",
"#. c #6C7C94",
"$. c #5172A1",
"%. c #5679A5",
"&. c #5B79A1",
"*. c #567DAD",
"=. c #5A7EAB",
"-. c #6D8098",
";. c #7B8393",
":. c #78869A",
">. c #7F8A9B",
",. c #5B81AD",
"<. c #5C84B3",
"1. c #5D86B9",
"2. c #5F8ABC",
"3. c #6481A3",
"4. c #6C84A5",
"5. c #6A85AA",
"6. c #6E89A9",
"7. c #7C8CA3",
"8. c #768BA9",
"9. c #638AB5",
"0. c #638CBB",
"q. c #6F91B9",
"w. c #638FC1",
"e. c #6592C5",
"r. c #6695CA",
"t. c #6997C9",
"y. c #6C9ACB",
"u. c #679AD0",
"i. c #6A9DD3",
"p. c #6CA1D5",
"a. c #6EA4DC",
"s. c #70A3DB",
"d. c #6FA6E0",
"f. c #6FA9E1",
"g. c #70AAE3",
"h. c #9C8A84",
"j. c #978C89",
"k. c #9C918D",
"l. c #868A95",
"z. c #8E8B90",
"x. c #8C8E94",
"c. c #848D9B",
"v. c #8E929C",
"b. c #939294",
"n. c #9B9393",
"m. c #95959B",
"M. c #9A979A",
"N. c #9B9A9D",
"B. c #A28E83",
"V. c #A8948B",
"C. c #B59581",
"Z. c #A29593",
"A. c #AA9892",
"S. c #A39B9B",
"D. c #AAA393",
"F. c #AAA49D",
"G. c #838FA1",
"H. c #8796A9",
"J. c #9499A3",
"K. c #9D9DA2",
"L. c #A19FA3",
"P. c #9FA0A2",
"I. c #9EA8B5",
"U. c #A3A1A5",
"Y. c #A8A3A4",
"T. c #A7A6AB",
"R. c #A8A7AB",
"E. c #A9A8AD",
"W. c #A8AEB5",
"Q. c #AFB0B1",
"!. c #B4B4B7",
"~. c #B6B7BA",
"^. c #BBBBBC",
"/. c #C49C82",
"(. c #D7A685",
"). c #E3AB85",
"_. c #F3B78C",
"`. c #FCBF91",
"'. c #BEBEC0",
"]. c #C4C4C5",
"[. c #C7C7C9",
"{. c #CCCCCD",
"}. c #D0CFD0",
"|. c #D3D3D4",
" X c #D6D6D8",
".X c #DBDBDC",
"XX c #DFDFE2",
"oX c #DFE0E2",
"OX c #E4E3E5",
"+X c #E7E8E8",
"@X c #EBEBEC",
"#X c #EEEEF0",
"$X c #F2F2F4",
"%X c #F7F6F9",
"&X c #F8F7FB",
"*X c #F9F8FB",
/* pixels */
"T.T.T.T.T.T.T.T.T.T.T.T.T.T.T.T.T.T.T.T.R.T.T.T.T.T.T.T.T.T.T.T.T.T.T.T.T.R.T.T.T.T.T.T.T.T.T.T.T.T.T.T.T.T.T.T.T.T.T.T.T.T.T.T.",
"T.T.T.T.T.T.T.T.T.T.T.T.T.T.T.T.T.T.T.T.T.T.T.T.T.T.T.T.T.T.T.T.T.T.T.T.K.M.k.M.T.T.T.T.T.T.T.T.T.T.T.T.T.T.T.T.T.T.T.T.T.T.T.T.",
"T.T.T.T.T.T.T.T.T.T.T.T.T.T.T.T.T.T.T.T.T.T.T.T.T.T.T.T.T.T.T.T.T.T.U.d t 9 5 t K.T.T.T.T.T.T.T.T.T.T.T.T.T.T.T.T.T.T.T.T.T.T.T.",
"T.T.T.T.T.T.T.T.T.T.T.R.T.T.T.T.T.T.T.T.T.T.T.T.R.T.T.T.T.T.T.T.T.T.m.9 4 3 5 6 r K.T.T.T.T.T.T.T.T.T.T.T.T.T.T.T.T.T.T.T.T.T.T.",
"T.T.R.R.R.R.T.T.T.T.T.T.T.T.T.T.T.T.T.T.T.T.T.T.T.T.T.T.T.T.R.T.T.T.z.# 4 3 2 4 8 z.Y.T.T.T.T.T.T.T.T.T.T.T.T.T.T.T.T.T.T.T.T.T.",
"T.T.R.R.T.T.T.T.T.T.T.T.T.T.T.T.T.T.T.T.T.T.T.T.T.T.T.T.T.T.T.T.T.T.b.# 4 4 4 5 % m.Y.T.T.T.T.T.T.T.T.T.T.T.T.T.T.T.T.T.T.T.T.T.",
"T.T.T.T.T.T.T.R.T.T.T.T.T.T.R.T.T.T.T.R.T.T.T.T.T.T.T.T.T.T.T.T.T.T.b.@ 2 2 3 + $ K.T.T.T.T.T.T.T.T.T.T.T.T.T.T.T.T.T.T.T.T.T.T.",
"T.T.T.T.T.T.T.T.T.T.T.T.T.T.T.T.T.T.T.T.T.T.T.T.T.T.T.T.T.T.T.T.T.T.K.$ . . O X = L.T.T.T.T.R.T.T.T.T.T.T.T.T.T.T.T.T.T.T.T.T.T.",
"T.T.T.T.T.T.T.T.T.T.T.T.T.T.T.T.T.T.T.T.T.T.T.T.T.T.T.T.T.T.T.T.T.T.T.s O     o v.R.R.R.T.T.T.T.T.T.T.T.T.T.T.T.T.T.T.T.T.T.T.T.",
"T.T.T.R.T.T.T.T.T.T.T.T.T.T.T.T.T.T.T.T.T.R.T.T.T.T.T.T.T.T.T.T.T.T.T.L.f i i u P.E.R.R.T.T.T.T.T.T.T.T.T.T.T.T.T.T.T.T.T.T.T.T.",
"T.T.T.T.T.T.T.T.T.R.T.T.T.T.T.T.T.T.T.T.T.T.T.T.T.T.T.T.T.T.T.T.T.T.L.L.A.).(.Y N.U.R.R.T.T.T.T.T.T.T.T.T.T.T.T.T.T.T.T.T.T.T.T.",
"T.T.T.T.T.T.T.T.T.T.T.T.T.T.T.T.T.T.T.T.T.T.T.T.T.T.T.T.T.T.T.U.L.E.'.+X$X$X@X@XoXW.P.P.T.T.T.T.T.T.T.T.T.T.T.T.E.T.T.T.T.T.T.T.",
"T.T.T.T.T.T.T.T.T.T.T.T.T.T.T.T.T.T.T.T.T.T.R.R.T.T.T.T.T.T.U.T. X$X*X*X*X*X*X*X*X*XOX'.K.T.R.T.T.T.T.T.T.T.T.T.T.T.T.T.T.T.T.T.",
"T.T.T.T.T.T.T.T.T.T.T.T.T.T.T.R.T.T.T.T.T.T.T.R.T.T.T.T.T.T.N.{.&X&X*X*X*X*X*X*X*X*X*X%X~.K.R.R.T.T.T.T.T.T.T.T.T.T.T.T.T.T.T.T.",
"T.T.T.T.T.T.T.T.T.T.T.T.T.T.T.T.T.T.T.T.T.T.R.R.T.T.T.T.T.T.m. X$X$X&X&X*X*X*X*X*X*X*X#X.XN.T.R.T.T.T.T.T.T.T.T.T.T.T.T.T.T.T.T.",
"T.T.T.T.R.T.T.T.T.T.T.T.T.T.T.T.T.T.R.T.T.T.R.R.T.T.T.T.T.T.b.|.OX}.%X&X*X*X*X*X*X*X*X+XOXK.U.R.T.T.T.T.E.T.T.T.T.T.T.T.T.T.T.T.",
"T.T.T.T.T.T.T.T.T.T.T.T.T.T.T.T.T.T.T.T.T.T.T.T.T.T.T.T.T.K.N.|.^.'.$X&X*X*X*X*X*X*X$X X@X[.N.T.T.T.T.E.T.T.T.T.T.T.T.T.T.T.T.T.",
"T.R.T.T.T.T.T.T.T.T.T.T.T.T.T.T.T.T.T.T.T.T.T.T.T.T.T.T.R.K.~.OX~.W.@X&X*X%X*X*X*X*XoX].+X.XM.T.T.T.T.T.T.T.T.T.T.T.T.T.T.T.T.T.",
"T.T.T.T.T.T.T.T.T.T.T.T.T.T.T.T.T.T.T.T.T.T.T.T.T.T.T.T.R.K.].+X{.~..X&X$X$X*X*X*X*X.X~.}.N.m.T.T.T.T.T.T.T.T.T.T.T.T.T.T.T.T.T.",
"T.T.T.T.T.T.T.T.T.T.T.T.T.T.T.T.T.T.T.T.T.T.T.T.T.T.T.T.R.U.s h.n.K. X*X@X$X*X&X%X#X].j.K a N.T.T.T.T.T.T.T.T.T.E.T.T.T.T.T.T.T.",
"T.T.T.T.T.T.T.T.T.T.T.T.T.T.T.T.T.T.T.T.T.T.T.T.T.T.T.T.R.U.C._.J b.{.@X X*X*X*X#X+XU.H _.~ n.T.T.T.T.T.T.T.T.T.T.T.T.T.T.T.T.T.",
"T.T.T.T.T.T.T.T.T.T.T.T.T.T.T.T.T.T.T.T.T.T.T.T.T.T.T.R.R.N.Y _.B.b.}.|.oX*X*X%X.X.Xb.z.).^ j.T.T.T.T.T.T.T.T.T.T.T.T.T.T.T.T.T.",
"T.T.T.T.T.T.T.T.T.T.T.T.T.T.T.T.T.T.T.T.T.T.T.T.T.T.T.T.T.j.).^ j.b.].].$X*X*X#X X[.x.M.^ ^ d T.T.T.T.T.T.T.T.T.T.T.T.T.T.T.T.T.",
"T.T.T.T.T.T.T.T.T.T.T.T.T.T.T.T.T.T.T.T.T.T.T.T.T.T.T.R.U.I `.).k.b.~..X@X*X%X.XOXE.b.M.~ / a U.T.T.T.T.T.T.T.T.T.T.T.T.T.T.T.T.",
"T.T.T.T.T.T.T.T.T.T.T.T.T.T.T.T.Y.P.R.R.T.T.T.T.T.T.T.T.P.C.`.(.n.b.^..X#X*XOX XXX~.M.N.Y ) i K.T.T.T.T.T.T.T.T.T.T.T.T.T.T.T.T.",
"T.T.T.T.T.T.T.T.T.T.T.T.T.T.S.T W ( D.T.T.T.T.T.T.T.T.T.P.~ `.C.N.K.]..X#X@X[.OX}.{.N.U.C.) i P.T.T.E.T.T.T.T.T.T.T.T.T.T.T.T.T.",
"T.T.T.T.T.T.T.T.T.T.T.T.T.S.E V A D _ D.T.T.T.T.T.T.T.T.U./._.V.N.N.{..X.X{..X X.XOXK.U.k._.i S.T.T.T.T.T.T.T.T.E.T.T.T.T.T.T.T.",
"T.T.T.T.T.T.T.T.T.T.T.T.T.U c v h Z D H U.T.T.T.T.T.T.T.U./.).Z.m.!.|. X|.{..XXX$X.XL.U.n.^ i U.T.T.T.T.T.T.T.T.T.T.T.T.T.T.T.T.",
"T.T.T.T.T.T.T.T.T.T.T.T.T.P c h * N B y N.R.T.T.T.T.T.T.U.~ ~ N.b.^.oX X.XOX+X*X#X{.L.L.M.P a K.T.T.T.T.T.T.T.T.T.T.T.T.T.T.T.T.",
"T.T.T.T.T.T.T.T.T.T.R.R.T.I z B h h j n i D.T.T.T.T.T.T.U.L K M.Y.|..X+X#X$X*X*X#X|.E.K.M.= u M.T.T.T.T.T.T.T.T.T.T.T.T.T.T.T.T.",
"T.T.T.T.T.T.T.T.T.T.T.R.T.S.M v x 6 6 0 s L.T.T.T.T.T.T.U.d i Z.b.].XX@X@X+X@X#X+X[.L.K.A.! L L.T.T.T.T.T.T.T.T.T.T.T.T.T.T.T.T.",
"T.T.T.T.T.T.T.T.T.T.U.Y.S.B.h.R j 7 K M.T.T.T.T.T.T.T.T.U.(.~ Y : 3.:.H.I.I.W.I.I.G.' n.C.^ /.L.T.T.T.T.T.E.T.T.T.T.T.T.T.T.T.T.",
"T.T.T.T.T.T.R.T.R.R.G N q m Q m v C _ A.U.T.T.T.T.T.T.T.U.~ u K ' 9.p.9.9.,.0.<.i.p.&.x.a r Y U.E.E.T.T.T.T.T.T.T.T.T.T.T.T.T.T.",
"T.T.T.T.T.T.T.T.R.R.P k w v C C Z S S W L.T.T.T.T.T.T.T.L.f * j.-.,.,.| ,.` { ,.y.i.&.x.a r d K.E.Y.T.T.T.T.T.T.T.T.T.T.T.T.T.R.",
"T.T.T.T.T.T.T.T.T.T.Z.n j k c b C A A _ Y.T.T.T.T.T.T.T.R.n.a J } r.0.<.1.- & ; ` =.} J.b.d K.E.T.T.T.T.T.R.T.T.T.T.T.T.T.T.T.T.",
"T.T.T.T.T.T.T.T.T.T.T.R l z v v C Z Z W F.T.T.T.T.T.T.T.E.E.L.T...r.r.u.a.-.& { =.=.@.L.T.U.U.E.T.T.T.T.T.T.T.T.T.T.T.T.T.T.T.T.",
"T.T.T.R.T.T.T.T.T.T.T.h.M l k l v v z U U.E.T.T.T.T.T.T.T.T.T.L...r.g.a.p.7.: ,.e.i.5.L.T.T.T.T.T.T.T.T.T.T.T.T.T.T.T.R.T.T.T.T.",
"T.T.T.T.T.T.T.T.T.T.E.U.Z.g q e F P K A.T.T.T.E.T.T.T.T.T.T.T.T...2.g.f.i.v.> 1.d.d.4.U.T.T.T.T.T.T.T.T.T.T.T.T.T.T.T.T.T.T.T.T.",
"T.T.T.T.T.T.T.T.T.T.R.R.T.T.U.Y.T.T.T.T.T.T.T.T.R.T.T.T.T.T.T.L.#.0.f.a.0.P., ,.f.a.8.U.T.T.T.T.T.T.T.T.T.T.T.T.T.T.T.T.T.T.T.T.",
"T.T.T.T.T.T.T.T.T.T.R.R.T.T.T.T.T.T.T.T.T.T.T.T.T.T.T.T.T.T.T.T.#.r.a.p.6.P.X.{ i.i.7.T.T.T.T.T.T.T.T.T.T.T.T.T.T.T.T.T.T.T.T.T.",
"T.T.T.T.T.T.R.T.T.T.T.T.T.T.T.T.T.T.T.T.T.T.T.T.T.T.T.T.T.T.T.T.:.0.s.i.8.R.+.] 1.p.7.E.T.T.T.T.T.T.T.T.T.T.T.T.T.T.T.T.T.T.T.T.",
"T.T.T.T.T.T.T.T.R.T.T.T.T.T.T.T.T.T.T.T.T.T.T.T.T.T.T.T.T.T.T.T.+.&.w.s.7.T.l.] $.=.l.E.T.T.T.T.T.T.T.T.T.T.T.T.T.T.T.T.T.T.T.T.",
"T.T.T.T.T.T.T.T.T.T.T.T.T.T.T.T.T.T.T.T.T.T.T.T.T.T.T.T.T.T.T.T.O. .0.0.:.T.c.` =.%.+.T.T.T.T.T.T.T.T.T.T.T.T.T.T.T.T.T.T.T.T.T.",
"T.T.T.T.T.T.T.T.T.T.T.T.T.T.T.T.T.T.T.T.T.T.T.T.T.T.T.T.T.T.T.T.;.=.y. .l.U.K.; *.{ ' U.T.T.T.T.E.T.T.T.T.T.T.T.T.T.T.T.T.T.T.T.",
"T.T.T.T.T.T.T.T.T.T.T.T.T.T.T.T.T.T.T.T.T.T.T.T.T.T.T.T.T.T.T.T.c.w.r. .m.R.P.' *.1.' U.E.Y.T.T.T.T.T.T.T.T.T.T.T.T.T.T.T.T.T.T.",
"T.T.T.T.T.T.T.T.T.T.T.T.T.T.T.T.T.T.T.T.T.T.T.T.T.T.T.T.T.T.T.T.7.a.a.t.J.R.U...i.i.#.T.T.E.T.T.T.T.T.T.T.T.T.T.T.T.T.T.T.T.T.T.",
"T.T.T.T.T.T.T.T.T.T.T.T.T.T.T.T.T.T.T.T.T.T.T.T.T.T.T.T.T.T.T.T.7.f.f.y.J.T.U.6.f.d.4.U.T.T.T.T.T.T.T.T.T.T.T.T.T.T.T.T.T.T.T.T.",
"T.T.T.T.T.T.T.T.T.T.T.T.T.T.T.T.T.T.T.T.T.T.T.T.T.T.T.T.T.T.T.T.8.d.g.p.G.T.U.q.f.a.4.U.T.T.T.T.T.T.T.T.T.T.T.T.T.T.T.E.T.T.T.T.",
"T.T.T.T.T.T.T.T.T.T.T.T.T.T.T.T.T.T.T.T.T.T.T.T.T.T.T.T.T.T.T.T.8.f.g.d.G.T.L.8.f.d.#.L.T.T.T.T.T.T.T.T.T.T.T.T.T.T.T.T.T.T.T.T.",
"T.T.T.T.T.T.T.T.T.T.T.T.T.T.T.T.T.T.T.T.T.T.T.T.T.T.T.T.T.T.T.T.>.d.g.d.H.E.L.=.f.u.7.U.T.T.T.T.T.T.T.T.T.T.T.T.T.T.T.T.T.T.T.T.",
"T.T.T.T.T.T.T.T.T.T.T.T.T.T.T.T.T.T.T.T.T.T.T.T.T.T.T.T.T.T.T.T.v.i.g.a.G.T.L.=.i.e.l.T.T.T.T.T.T.T.T.T.T.T.T.T.T.T.T.T.T.T.T.T.",
"T.T.T.T.T.T.T.T.T.T.T.T.T.T.T.T.T.T.T.T.R.T.T.T.T.T.T.T.T.T.T.T.J.y.d.e.l.T.T.#.i.0.J.T.T.T.T.T.T.T.T.T.T.T.T.T.T.T.T.T.T.T.T.T.",
"T.T.T.T.T.T.T.T.T.T.T.T.T.T.T.T.T.T.T.T.T.T.T.T.T.T.T.T.T.T.T.T.U.q.u.%.c.E.L.8.e.@.K.T.T.T.R.T.T.T.T.T.T.T.T.E.T.T.T.T.T.T.T.T.",
"T.T.T.T.T.T.T.T.T.T.T.T.T.T.T.T.T.T.T.T.T.T.T.T.R.T.T.T.T.T.T.T.L.5.*.{ +.T.K.=.w.@.L.T.T.T.T.T.T.T.T.T.T.T.T.T.T.T.T.T.T.T.T.T.",
"T.T.T.T.T.T.T.T.T.T.T.T.T.T.T.T.R.T.T.T.T.T.T.T.T.T.T.T.T.T.T.T.K.5.$.$.+.E.v.&.r.=.K.T.T.T.T.T.T.T.T.T.T.T.T.T.T.T.T.T.E.T.T.T.",
"T.T.T.T.T.T.T.T.T.T.T.T.T.T.T.T.T.T.T.T.T.T.T.T.T.T.T.T.T.T.T.T.R.:.[ [ +.L.K.' ..' K.T.T.T.T.T.T.T.T.T.T.T.T.T.T.T.T.T.T.T.T.T.",
"T.T.T.T.T.T.T.T.T.T.T.T.T.T.T.T.T.T.T.T.T.T.T.T.T.T.T.T.T.T.T.T.T.m.' > < T.b.>.H.1 U.E.E.T.T.T.T.T.T.T.T.T.T.T.T.T.T.T.T.T.T.T.",
"T.T.T.T.T.T.T.T.T.T.T.T.T.T.T.T.T.T.T.T.T.T.T.T.T.T.T.T.T.T.T.T.N.X.-.X.< N.l.R.W.1 L.E.T.T.T.T.T.T.T.T.T.T.T.E.T.T.T.T.T.T.T.T.",
"T.T.T.T.T.T.T.T.T.T.T.T.T.T.T.T.T.T.T.T.T.R.T.T.T.T.T.T.T.T.T.T.x.9.r.0.1 U.K.~.^.c.:.L.T.T.T.T.T.T.T.T.T.T.T.T.T.T.T.T.T.T.T.T.",
"T.T.T.T.T.T.T.T.T.E.T.T.T.T.T.T.T.T.T.T.T.T.T.T.R.R.T.T.T.T.T.T.K.H.8.G.N.T.;.} } X.#.K.T.T.T.T.T.T.T.T.T.T.T.T.T.T.T.T.T.T.T.T.",
"T.T.T.T.T.T.T.T.T.T.T.T.T.T.T.T.T.T.T.T.T.T.T.T.R.R.T.T.T.T.T.T.T.I.E.P.T.T.N.o...' O.K.T.T.T.T.T.T.T.T.T.T.T.T.T.T.T.T.T.T.T.T.",
"T.T.T.T.T.T.T.T.T.T.T.T.T.T.T.T.T.T.T.T.T.T.T.R.R.R.T.T.T.T.T.T.T.T.T.R.T.T.T.T.T.L.T.T.T.T.T.T.T.T.T.T.T.T.T.T.T.T.T.T.T.T.T.T.",
"E.E.E.E.E.E.E.E.E.E.E.E.E.E.W.E.E.E.E.E.E.E.T.W.T.T.R.R.E.E.E.E.R.E.E.E.R.R.R.E.E.E.E.E.E.E.E.E.E.E.E.E.E.E.E.E.E.E.E.E.E.E.E.E.",
"T.T.T.T.T.T.T.T.T.T.T.T.T.T.T.T.T.T.T.T.T.T.T.T.T.T.R.R.T.T.T.T.T.T.R.R.R.R.R.R.T.T.T.T.T.T.T.T.T.T.T.T.T.T.T.T.T.T.T.T.T.T.T.T."
};
