/* XPM */
static char *_B1721706478[] = {
/* columns rows colors chars-per-pixel */
"64 64 217 2 ",
"   c #3B0B08",
".  c #3B1210",
"X  c #480C07",
"o  c #590D06",
"O  c #48110D",
"+  c #59100B",
"@  c #671206",
"#  c #771606",
"$  c #601E15",
"%  c #44201B",
"&  c #63231A",
"*  c #74322C",
"=  c #705039",
"-  c #7A6937",
";  c #5E4546",
":  c #735350",
">  c #72605D",
",  c #786F6A",
"<  c #831B08",
"1  c #A22708",
"2  c #B23411",
"3  c #963D2B",
"4  c #AD4F1C",
"5  c #BC7716",
"6  c #954134",
"7  c #B7552B",
"8  c #AB7331",
"9  c #C77719",
"0  c #E17B17",
"q  c #C87C29",
"w  c #8B554C",
"e  c #965949",
"r  c #956D50",
"t  c #A6644B",
"y  c #AA785E",
"u  c #8B6E66",
"i  c #886A6A",
"p  c #877C7F",
"a  c #AC7A69",
"s  c #B38430",
"d  c #CC851B",
"f  c #D0831A",
"g  c #D79218",
"h  c #DC931C",
"j  c #E29D18",
"k  c #DEA61B",
"l  c #E6A21A",
"z  c #E9AB1C",
"x  c #E9B41A",
"c  c #F2B91A",
"v  c #CE902C",
"b  c #D89B21",
"n  c #D8B33B",
"m  c #F7C41B",
"M  c #DCC22D",
"N  c #EDC82E",
"B  c #F7C925",
"V  c #F8D726",
"C  c #FEDA2C",
"Z  c #F9D936",
"A  c #FEE331",
"S  c #B98741",
"D  c #AF825C",
"F  c #B78858",
"G  c #B7846B",
"H  c #A6897A",
"J  c #B6A16E",
"K  c #B8A876",
"L  c #C69E45",
"P  c #CFB052",
"I  c #D28E75",
"U  c #D59579",
"Y  c #E0916F",
"T  c #E79B7A",
"R  c #C5B570",
"E  c #ECA27E",
"W  c #F3A47A",
"Q  c #DDC352",
"!  c #ECD852",
"~  c #64769B",
"^  c #4F7CB8",
"/  c #6778A5",
"(  c #807D9B",
")  c #5C86BC",
"_  c #7987AC",
"`  c #6789BB",
"'  c #7A8EB7",
"]  c #7091BD",
"[  c #5886C5",
"{  c #498ADA",
"}  c #588EDD",
"|  c #5692DC",
" . c #6594CE",
".. c #799ACA",
"X. c #6698D7",
"o. c #6B9DDA",
"O. c #7DA1C8",
"+. c #6EA2DC",
"@. c #75A5D4",
"#. c #7CA2D3",
"$. c #7CABD6",
"%. c #73A5DA",
"&. c #7CA3DD",
"*. c #76A9D9",
"=. c #7CADD8",
"-. c #4B92E7",
";. c #5693E5",
":. c #589EF3",
">. c #5BA2F5",
",. c #6AA3E9",
"<. c #76AAE6",
"1. c #67A5F4",
"2. c #7EAFF4",
"3. c #88838B",
"4. c #988789",
"5. c #9F918E",
"6. c #988A92",
"7. c #9A9397",
"8. c #A68E88",
"9. c #BB8F81",
"0. c #A49288",
"q. c #BA9286",
"w. c #A39593",
"e. c #A39A9B",
"r. c #B59B95",
"t. c #ACA591",
"y. c #B4A09E",
"u. c #8D97AB",
"i. c #9E9CA3",
"p. c #8D9BB5",
"a. c #A39EA2",
"s. c #AC9FA1",
"d. c #9DA4B3",
"f. c #98A4B9",
"g. c #9BA9BD",
"h. c #A4A1A5",
"j. c #ABA3A5",
"k. c #A7A6AB",
"l. c #AAA6AA",
"z. c #A9A8AD",
"x. c #B7A9A6",
"c. c #A1A6B1",
"v. c #A6A9B4",
"b. c #ACACB2",
"n. c #A2ACBD",
"m. c #B0AFB3",
"M. c #AEB4BE",
"N. c #B7B5BA",
"B. c #C79B8B",
"V. c #D89E87",
"C. c #C49D92",
"Z. c #E19E85",
"A. c #D2A18D",
"S. c #DDA589",
"D. c #C7A599",
"F. c #DBAA94",
"G. c #DDB49B",
"H. c #E3A784",
"J. c #F6AA83",
"K. c #EFB48D",
"L. c #F9B78D",
"P. c #E3AE93",
"I. c #E8B294",
"U. c #F7BB92",
"Y. c #C9B2A6",
"T. c #C4B5AE",
"R. c #D8B8A6",
"E. c #FDC396",
"W. c #F5C39D",
"Q. c #FCC59B",
"!. c #FDCB9E",
"~. c #D2C0B8",
"^. c #EAC6AB",
"/. c #F4C7A6",
"(. c #EECAB1",
"). c #879DC4",
"_. c #84A3C9",
"`. c #89A7C9",
"'. c #95A9C5",
"]. c #81AAD5",
"[. c #85B1DB",
"{. c #8BB5DD",
"}. c #97B5DA",
"|. c #A2AFC4",
" X c #AAB6C8",
".X c #BABDC2",
"XX c #A8BCD8",
"oX c #8DAEE1",
"OX c #8DB9E6",
"+X c #96BBE4",
"@X c #99BEEC",
"#X c #BBC3CD",
"$X c #ADC1D8",
"%X c #B8C5D4",
"&X c #99C3EA",
"*X c #A6C5E9",
"=X c #B3CAE5",
"-X c #AACDF2",
";X c #C3C2C4",
":X c #C9C6C7",
">X c #CBCBCC",
",X c #D7CDC8",
"<X c #CFCFD1",
"1X c #D2D1D4",
"2X c #DCDCDD",
"3X c #EDD4C2",
"4X c #DEDFE1",
"5X c #DDE1E7",
"6X c #E4E4E6",
"7X c #E6E6E8",
"8X c #EBEBED",
"9X c #F0EFF0",
"0X c #EFF0F2",
"qX c #F3F4F4",
"wX c #F8F8F7",
"eX c #F7F7F9",
"rX c #FEFEFE",
/* pixels */
"k.k.k.k.k.k.k.k.k.k.k.k.k.k.k.k.k.k.k.k.k.k.k.k.k.k.k.k.k.k.k.k.k.k.k.k.k.k.k.k.k.k.k.k.k.k.k.k.k.k.k.k.k.k.k.k.k.k.k.k.k.k.k.k.",
"k.k.k.k.k.k.k.k.k.k.k.k.k.k.k.k.k.k.k.k.k.k.k.k.k.k.k.k.k.k.k.k.k.k.k.k.k.k.k.k.k.k.k.k.k.k.k.k.k.k.k.k.k.k.k.k.k.k.k.k.k.k.k.k.",
"k.k.k.k.k.k.k.k.k.k.k.k.k.k.k.k.z.k.k.k.k.k.k.k.k.k.k.k.k.k.k.k.k.k.k.k.k.k.k.k.k.k.k.k.k.k.k.k.k.k.k.k.k.k.k.k.k.k.k.k.k.k.k.k.",
"k.k.k.k.k.k.k.k.k.k.k.k.k.k.k.k.k.k.k.k.k.k.k.k.k.k.k.k.k.k.k.k.k.k.k.k.k.k.k.k.k.k.k.k.k.k.k.k.k.k.k.k.k.k.k.k.k.k.k.k.k.k.k.k.",
"k.k.k.k.k.k.k.k.k.k.k.k.k.k.k.k.k.k.k.k.k.k.k.k.k.k.k.k.k.k.k.k.k.k.k.k.k.k.k.k.k.k.k.k.k.k.k.k.k.k.k.k.k.k.k.k.k.k.k.k.k.k.k.k.",
"k.k.k.k.k.k.k.k.k.z.k.k.k.k.k.k.k.k.k.k.k.k.k.k.k.k.k.k.k.k.k.k.k.k.k.k.k.k.k.k.k.k.k.k.k.k.k.k.z.k.k.k.k.k.k.k.k.k.k.k.k.k.k.k.",
"k.k.k.k.k.k.k.k.k.k.k.k.k.k.k.k.k.k.k.k.k.k.k.k.k.k.k.k.l.k.k.k.k.z.k.k.k.k.k.k.k.k.k.k.k.k.k.k.k.k.k.k.k.k.k.k.k.k.k.k.k.k.k.k.",
"k.k.k.k.k.k.k.k.k.k.k.k.k.k.k.k.k.k.k.k.k.k.k.k.k.k.k.k.k.k.k.k.k.k.k.k.k.k.k.k.z.k.k.k.k.k.k.k.k.k.k.k.k.k.k.k.k.k.k.k.k.k.k.k.",
"k.k.k.k.k.k.k.k.k.k.k.k.k.k.k.k.l.k.k.k.k.k.k.k.k.k.k.k.k.k.k.k.k.k.k.k.k.k.l.k.k.k.k.k.k.k.k.k.k.k.k.k.k.k.k.k.k.k.k.k.k.k.k.k.",
"k.k.k.k.k.k.k.k.k.k.k.k.k.h.k.k.s.w.7.k.k.k.k.k.k.k.k.k.k.k.k.k.k.k.k.k.k.k.k.k.k.k.k.k.k.k.k.k.k.k.k.k.k.k.k.k.k.k.k.k.k.k.k.k.",
"k.k.k.k.k.k.k.k.k.k.k.k.l.e.e.7.u 3 * i a.v.l.k.k.k.k.k.k.k.k.k.k.k.k.k.k.k.k.k.k.k.k.k.k.k.k.k.k.k.k.k.k.k.k.k.k.k.k.k.k.k.k.k.",
"k.k.k.k.k.k.k.k.k.k.k.k.a.i u 6 < @ < 2 w a.k.k.k.k.k.k.k.k.k.k.k.k.k.k.k.k.k.k.k.k.k.k.k.k.k.k.k.k.k.k.k.k.k.k.k.k.k.k.k.k.k.k.",
"k.k.k.k.k.k.k.k.k.k.l.z.7.* # # @ < 1 2 < 4.k.l.k.z.z.z.k.k.k.k.k.k.k.k.k.k.k.k.k.k.k.k.k.k.k.k.k.k.k.k.k.k.k.k.k.k.k.k.k.k.k.k.",
"k.k.k.k.k.k.k.k.k.k.k.c.6.& O X # 1 1 < + ; 7.#X<X2X6X7X4X>XN.k.k.k.k.k.k.k.k.k.k.k.k.k.k.k.k.k.k.k.k.k.k.k.k.k.k.k.k.k.k.k.k.k.",
"k.k.k.k.k.k.l.k.k.k.v.s.i.: o @ @ # @ X   . 6.0XrXrXrXrXrXrXwX7X;Xv.l.k.k.k.k.k.k.k.k.k.k.k.k.k.k.k.k.k.k.k.k.k.k.k.k.k.k.k.k.k.",
"k.k.k.k.k.k.k.k.k.k.a.a., * + O   X O % . . y (.rXrXrXrXrXrXrXrXrX8X;Xk.k.k.k.k.k.k.k.k.k.k.k.k.k.k.k.k.k.k.k.k.k.k.k.k.k.k.k.k.",
"k.k.k.k.k.k.k.k.k.k.k.a.> O $ t w   % w e e H.(.wXrXrXrXrXrXrXrXrXrXeX2Xb.k.k.k.k.k.k.k.k.k.k.k.k.k.k.k.k.k.k.k.k.k.k.k.k.k.k.k.",
"k.k.k.k.k.k.k.k.k.k.k.k.7., % y a = * y I L.E./.wXrXrXrXrXrXrXrXrXrXrXrX7XN.k.k.k.k.k.k.k.k.k.k.k.k.k.k.k.k.k.k.k.k.k.k.k.k.k.k.",
"k.k.k.k.k.k.k.k.k.k.k.k.d.i.( > w a H.Z.U S.H.^.eXrXrXrXrXrXrXrXrXrXrXrXrXqX.Xz.k.k.k.k.k.k.k.k.k.k.k.k.k.k.k.k.k.k.k.k.k.k.k.k.",
"k.k.k.k.k.k.z.k.k.k.k.k.k.k.h.e.y a L.I.~.T.T.1XeXrXrXrXrXrXeXrXrXrXrXrXrXrX8Xb.k.k.k.k.k.k.k.k.k.k.k.k.k.z.l.k.k.k.k.k.k.k.k.k.",
"k.k.k.k.k.k.k.k.k.k.k.k.k.k.k.k.y.B.V.R.:X:X;X>XqXrXrXrXrXwX6XrXrXrXrXrXrXrXeX<Xk.k.k.k.k.k.k.k.k.k.k.k.k.k.k.k.k.k.k.k.k.k.k.k.",
"k.k.k.k.k.k.k.k.k.k.k.k.k.k.k.k.l.l.j.:X;Xl.m..X6XrXrXrXrX9X,X9XrXrXrXeXeXrXrX0Xm.k.k.k.k.k.k.k.k.k.k.k.k.k.k.k.k.k.k.k.k.k.k.k.",
"k.k.k.k.k.k.k.k.k.k.k.k.k.k.k.k.l.l.k.D.F.U q.m.<X0XwXrXrX6X.X2X8XqXqXqXeXeXeX6Xn.k.k.k.k.k.k.k.k.k.k.k.k.k.k.k.k.k.k.k.k.k.k.k.",
"k.k.k.k.k.k.k.k.l.k.k.k.k.k.k.k.k.k.z.H.J.T r.z.N.5X0XqXwX6Xz.>X2X7XqX8XqXqX6X}.'.k.k.k.k.k.k.k.k.k.k.k.k.k.k.k.k.k.k.k.k.k.k.k.",
"k.k.k.k.k.k.k.k.k.k.k.k.k.k.k.k.k.z.s.V.W Z.s.k.z.:X6X0XqX,Xh.N.1X7X7X8XwX5X'.].XXk.k.k.k.k.k.k.k.k.k.k.k.k.k.k.k.k.k.k.k.k.k.k.",
"k.k.k.k.k.k.k.k.k.k.k.k.k.k.k.k.k.l.B.Y T C.l.z.k.b.,X3X(.A.3.h.:X2X6X8X5Xn.O.@X Xk.k.k.k.k.k.k.k.k.k.k.k.k.k.k.k.k.k.k.k.k.k.k.",
"k.k.k.k.k.k.k.k.k.k.k.k.k.k.k.k.k.Y.L.W T x.k.k.k.k.R.W.Q.I.~ ~ u.M.#X%X$X*X-X-X Xk.k.k.k.k.k.k.k.k.k.k.k.k.k.k.k.k.k.k.k.k.k.k.",
"k.k.k.k.k.k.k.k.k.k.k.k.k.k.k.k.k.^.!.E.K.j.k.k.k.k.Y.!.Q.P./ ` ] ..{.}.-X-X&X+Xv.k.k.k.k.k.k.k.k.k.k.k.k.k.k.k.k.k.k.k.k.k.k.k.",
"k.k.k.k.k.k.k.k.k.k.k.k.k.k.k.k.l./.!.E.G.k.k.k.k.k.x.U.E.H./ ) $.[.[.&X&X{.].'.z.k.k.k.k.z.k.k.k.k.k.k.k.k.k.k.k.k.k.k.k.k.k.k.",
"k.k.k.k.k.k.k.k.k.k.k.k.k.k.k.k.x././.I.x.z.k.k.k.k.j.E L.H./ ^ $.[.{.&X].$.`.c.k.k.k.k.k.l.k.k.k.k.k.k.k.k.k.k.k.z.k.k.k.k.k.k.",
"k.k.k.k.k.k.k.k.k.z.k.k.k.k.k.k.x./.U.D.k.k.k.k.k.k.r.I W W (  .$.=.=.=.=.O.f.z.k.k.k.k.k.k.k.k.k.k.k.k.k.k.k.k.k.k.k.k.k.k.k.k.",
"k.k.z.k.k.k.k.k.k.k.k.k.k.k.k.k.R.E.P.l.k.k.k.k.k.x.P.W W W 8.#.=.=.=.=.=.p.k.k.k.k.k.k.k.k.k.k.k.k.k.k.k.k.k.k.k.k.k.k.k.k.k.k.",
"k.k.k.k.k.k.k.k.k.k.k.k.k.k.k.k.G.L.x.k.k.k.k.k.l.R.Q.L.J.U p.=.=.=.=.=.`.c.k.k.k.k.k.k.k.k.k.k.k.k.k.k.k.k.k.k.k.k.k.k.k.k.k.k.",
"k.k.k.k.k.k.k.k.k.k.k.k.k.k.l.a.S.F.j.k.k.k.k.k.x./.Q.L.B._ @.=.=.=.=.=.f.c.k.k.k.k.k.k.k.k.k.k.k.k.k.k.k.k.k.k.k.k.k.k.k.k.k.k.",
"k.k.k.k.k.k.k.k.k.k.k.k.k.k.l.6.( 4.l.k.k.k.k.k.R.Q.U.P.p.[ $.=.=.=.=.$.g.k.k.k.k.k.k.k.k.k.k.k.k.k.k.k.k.k.k.k.k.k.k.k.k.k.k.k.",
"k.k.k.k.k.k.k.k.k.k.k.k.k.k.l.A.U B.k.k.k.k.h.Y.Q.U.F.a. .X.=.=.=.=.=.`.k.k.k.k.k.k.k.k.k.k.k.k.k.k.k.k.k.k.k.k.z.k.k.k.k.k.k.k.",
"k.k.k.k.k.k.k.k.k.k.k.k.k.s.C.A.r.r.k.k.k.a.i.I.L.F.j.d. .@.=.=.=.=.=.f.k.k.k.k.k.k.k.k.k.k.k.k.k.k.k.k.k.k.k.k.k.k.k.k.k.k.k.k.",
"k.k.k.k.k.k.k.k.k.k.k.k.k.s.U r.k.k.k.k.l.V.( 9.C.j.k.'.o.=.=.$.=.=.`.k.k.k.k.k.k.k.k.k.k.k.k.k.k.k.k.k.k.k.k.k.k.k.k.k.k.k.k.k.",
"k.k.k.k.k.k.k.k.k.k.k.k.l.l.G r.k.k.k.k.m.V.U p i.k.k.).@.=.=.=.=.$.f.k.k.k.k.k.k.k.k.z.k.k.k.k.k.k.k.k.k.k.k.k.k.k.k.k.k.k.k.k.",
"k.k.k.k.k.k.k.k.k.k.k.k.z.v.l.r.k.k.k.k.N.l.r.j.k.k.k.).$.=.=.=.*.O.c.k.k.k.k.k.k.k.k.k.k.k.k.k.k.k.k.k.k.k.k.k.k.k.k.k.k.k.k.k.",
"k.k.k.k.k.k.k.k.k.k.k.k.k.k.k.k.k.k.k.k.k.c.k.k.k.k.k.f.*.=.=.*.*.O.k.k.k.k.k.k.k.k.k.k.k.k.k.k.k.k.k.k.k.k.k.k.k.k.k.k.k.k.k.k.",
"k.k.k.k.k.k.k.k.k.k.k.k.k.k.k.k.k.k.k.k.k.k.k.k.k.k.k.d.$.=.=.*.| X.d.k.k.k.k.k.k.k.k.k.k.k.k.k.k.k.k.k.k.k.k.k.k.k.k.k.k.k.k.k.",
"k.k.k.k.k.k.k.k.k.k.k.k.k.k.k.k.k.k.k.k.k.k.k.k.k.k.c.a._.=.=.=.%.*.'.k.k.k.k.k.k.k.k.k.k.k.k.k.k.k.k.k.k.k.k.k.k.k.k.k.k.k.k.k.",
"k.k.k.k.k.k.k.k.k.k.k.k.k.k.k.k.k.k.k.k.k.k.k.k.k.l.z.k.f.+.$.*.*.%.].c.k.k.k.k.k.k.k.k.k.k.k.k.k.k.k.k.k.k.k.k.k.k.k.k.k.k.k.k.",
"k.k.k.k.k.k.k.k.k.k.k.k.k.k.k.k.k.k.k.k.k.k.k.k.k.k.k.k.d.o.*.=.*.=.=.d.z.k.k.k.k.k.k.k.k.k.k.k.k.k.z.k.k.k.k.k.k.k.k.k.k.k.k.k.",
"k.k.k.k.k.k.k.k.k.k.k.k.k.k.k.k.k.k.k.k.k.k.k.k.k.k.k.k.k.#.$.$.=.=.=.g.k.k.k.k.k.k.k.k.k.k.k.k.k.k.k.k.k.k.k.k.k.k.k.k.k.k.k.k.",
"k.k.k.k.k.k.k.k.k.k.k.k.k.k.k.k.k.k.k.k.k.k.k.k.k.k.k.k.k...%.$.=.=.=.'.k.k.k.k.k.k.k.k.k.k.k.k.k.k.k.k.k.k.k.k.k.k.k.k.k.k.k.k.",
"k.k.k.k.k.k.k.k.k.k.k.k.k.k.k.k.k.k.k.k.k.k.k.k.k.k.k.k.k.).;.&.=.=.=.`.k.k.k.k.k.k.k.k.k.k.k.k.k.k.k.k.k.k.k.k.k.k.k.k.k.k.k.k.",
"k.k.k.k.k.k.k.k.k.k.z.k.t.K K h.h.k.k.k.k.k.k.k.k.k.k.k.d...} o.=.=.$.$.c.k.k.k.k.k.k.k.k.k.k.k.k.k.k.k.k.k.k.k.k.k.k.k.k.k.k.k.",
"k.k.k.k.k.k.k.k.k.k.z.0.n V A ! K h.k.k.z.k.k.k.k.k.k.k...} } ;.=.=.=.=.f.k.k.k.k.k.k.k.k.k.k.k.k.k.k.k.k.k.k.k.k.k.k.k.k.k.k.k.",
"k.k.k.k.k.k.k.k.k.k.e.v m M V A ! t.k.k.k.k.k.k.k.k.k.u._ &.} } *.=.=.=.g.k.k.k.k.k.k.k.k.k.k.k.k.k.k.k.k.k.k.k.k.k.k.z.k.k.k.k.",
"k.k.k.k.k.k.k.k.k.k.H l x - s V M , k.k.k.k.k.k.d.u.' ) [ o.oX%.*.=.=.=.`.z.k.k.k.k.k.k.k.k.k.k.k.k.k.k.k.k.k.k.k.k.k.k.k.k.k.k.",
"k.k.k.k.k.k.k.k.k.l.H l k , - x g r 7.k.k.k.k._.+.| | | -.-.;.| X.+.+.+.].k.k.k.k.k.k.k.k.k.k.k.k.k.k.k.k.k.k.k.k.k.k.k.k.k.k.k.",
"k.k.k.k.k.k.k.k.k.l.0.g x n 8 5 0 q t 7.k.k.v.}.<.,.,.,.+.=.{.*.%.%.+.@.$.c.k.k.k.k.k.z.k.k.k.k.k.k.k.k.k.k.k.k.k.k.k.k.k.k.k.k.",
"k.z.k.k.k.k.k.k.k.k.a.F l x d 4 7 t 4.h.k.k.k.b. X X X Xg.v.d.p.+.*.*.$.$.d.k.k.k.k.k.k.k.k.k.k.k.k.k.k.k.k.k.k.k.k.k.k.k.k.k.k.",
"k.k.k.k.k.k.k.j.h.a.5.4.D f d 8 H e.k.k.k.k.k.k.k.k.z.k.k.k.k.f.@.%.*.=.OXn.k.k.k.k.k.k.k.k.k.k.k.k.k.k.k.k.k.k.k.k.k.k.k.k.k.k.",
"k.k.k.k.l.l.c.L n 8 d S S j z N R j.z.k.k.k.k.k.k.k.k.k.k.h.i.'.[.=.+X*X|.d.z.k.k.k.k.k.k.k.k.k.k.k.k.k.k.k.k.k.k.k.k.k.k.k.k.k.",
"k.k.k.k.k.v.a.s d 5 z Z ! B C C Z K k.k.k.k.k.k.k.k.k.k.k.d._ ` }.*X`...X.).k.k.k.k.k.k.k.k.k.k.k.k.k.k.k.k.k.k.k.k.k.k.k.k.k.k.",
"k.k.k.k.k.k.k.H d 9 b l c B C C A Q a.k.k.k.k.k.k.k.c.c.p.] [ [ { -.;.>.>.].k.k.k.k.k.k.k.k.z.k.k.k.k.k.k.k.k.k.k.k.k.k.k.k.k.k.",
"k.k.k.k.k.k.k.e.v h h j c m C C C P h.k.k.k.k.k.k.c.).o.X.X.| ;.-.:.>.1.oX}.k.k.k.k.k.k.k.k.k.k.k.k.k.k.k.k.k.k.k.k.k.k.k.k.k.k.",
"k.l.k.k.k.k.k.h.y b j z z c c m B J s.k.k.k.k.k.k.'.<.:.:.:.:.:.2.@X*X-X-X Xz.l.k.k.k.k.k.k.k.k.k.k.k.k.k.k.k.k.k.k.k.k.k.k.k.k.",
"k.k.k.k.k.k.k.k.e.D q 9 q j b b s w.k.k.k.k.k.k.k.v.XX*X@X@X*X=XXX%X.X.Xb.c.a.z.k.k.k.k.k.k.k.k.k.k.k.k.k.k.k.k.k.k.k.k.k.z.k.k.",
"z.z.v.z.z.z.z.z.z.l.5.a F G w.w.w.j.z.z.z.z.z.z.v.k.v.b.M.M.M.b.b.v.l.l.l.v.b.z.z.z.z.z.z.z.z.z.z.z.z.z.z.z.z.z.z.z.z.z.z.z.z.z.",
"k.k.k.l.k.k.k.k.k.l.k.l.l.k.k.k.k.k.k.k.k.k.k.k.l.l.l.z.k.k.k.k.k.l.l.c.l.l.l.z.k.k.k.k.k.k.k.k.k.k.k.k.k.k.k.k.k.k.k.k.k.k.k.k."
};
