/* XPM */
static char *wall_0_bhA2_641721200634[] = {
/* columns rows colors chars-per-pixel */
"64 64 177 2 ",
"   c #02012A",
".  c #0C0B2F",
"X  c #030232",
"o  c #05033B",
"O  c #181835",
"+  c #23223E",
"@  c #070444",
"#  c #080543",
"$  c #0A064B",
"%  c #070457",
"&  c #090655",
"*  c #0B0857",
"=  c #070459",
"-  c #09065C",
";  c #0C095C",
":  c #12105F",
">  c #2D2D45",
",  c #35354B",
"<  c #0A0763",
"1  c #0D0864",
"2  c #0D096B",
"3  c #100B64",
"4  c #120C6C",
"5  c #141064",
"6  c #1A1665",
"7  c #17106A",
"8  c #1E186F",
"9  c #0E0A73",
"0  c #110B74",
"q  c #1A0E75",
"w  c #130C79",
"e  c #180F7C",
"r  c #141071",
"t  c #1B1274",
"y  c #1E117B",
"u  c #231E6B",
"i  c #21137C",
"p  c #241F7E",
"a  c #292861",
"s  c #25206C",
"d  c #2E2C68",
"f  c #2A2773",
"g  c #2B2475",
"h  c #332F78",
"j  c #403F53",
"k  c #434356",
"l  c #4E4D5D",
"z  c #5E5E6A",
"x  c #4C4B7C",
"c  c #57567A",
"v  c #6F6E77",
"b  c #210F86",
"n  c #220F88",
"m  c #231285",
"M  c #2A1C87",
"N  c #25128A",
"B  c #29148E",
"V  c #27188A",
"C  c #2B1B8D",
"Z  c #2C1692",
"A  c #2E1993",
"S  c #321B95",
"D  c #341C9A",
"F  c #381F9B",
"G  c #2F2086",
"H  c #2B218E",
"J  c #31278F",
"K  c #2E2391",
"L  c #332593",
"P  c #372199",
"I  c #3B249D",
"U  c #362C9A",
"Y  c #3B2F9F",
"T  c #3A349A",
"R  c #3B23A0",
"E  c #3A29A0",
"W  c #463A96",
"Q  c #4126A3",
"!  c #4328A5",
"~  c #4B27AE",
"^  c #472AA9",
"/  c #4C2AAE",
"(  c #493AA7",
")  c #4D31AE",
"_  c #4E2AB1",
"`  c #532EB3",
"'  c #5F28B2",
"]  c #4F30B1",
"[  c #5432B5",
"{  c #5A32B6",
"}  c #5A3AB6",
"|  c #5735B8",
" . c #5936B8",
".. c #5C3BBA",
"X. c #622CB4",
"o. c #6532B5",
"O. c #6A36B7",
"+. c #673AB1",
"@. c #6A3CB5",
"#. c #6434B9",
"$. c #6A35BA",
"%. c #653ABB",
"&. c #6D3ABD",
"*. c #703DBE",
"=. c #4D4586",
"-. c #534B8C",
";. c #544D92",
":. c #625A9A",
">. c #686786",
",. c #757582",
"<. c #78788E",
"1. c #6C659E",
"2. c #484BA7",
"3. c #484CA7",
"4. c #505EAD",
"5. c #5643B5",
"6. c #5C42BB",
"7. c #525BB1",
"8. c #7455AF",
"9. c #6C44B2",
"0. c #6F48B2",
"q. c #6342BC",
"w. c #6A42B8",
"e. c #6448BD",
"r. c #714DB1",
"t. c #7745BF",
"y. c #7946BF",
"u. c #714AB8",
"i. c #6D56B9",
"p. c #7454B1",
"a. c #7855B6",
"s. c #7B5DB1",
"d. c #7F68AF",
"f. c #7D63B0",
"g. c #723EC0",
"h. c #6241C0",
"j. c #7442C2",
"k. c #7846C4",
"l. c #764EC4",
"z. c #7B4CC5",
"x. c #7857C5",
"c. c #7D5AC7",
"v. c #7F66CB",
"b. c #826CAF",
"n. c #8876AF",
"m. c #8B7CAF",
"M. c #826AB1",
"N. c #8375B3",
"B. c #8876B0",
"V. c #8D7CB1",
"C. c #8475B9",
"Z. c #8253C5",
"A. c #8A5BC9",
"S. c #966ACD",
"D. c #8375CF",
"F. c #A279D3",
"G. c #6684BC",
"H. c #808087",
"J. c #858493",
"K. c #898899",
"L. c #97969E",
"P. c #8582A2",
"I. c #8F83AF",
"U. c #9185AE",
"Y. c #958BAE",
"T. c #988FAE",
"R. c #9493A4",
"E. c #9E9DA4",
"W. c #9690AF",
"Q. c #9B93AD",
"!. c #9E99AD",
"~. c #8C83B4",
"^. c #9488B1",
"/. c #A09FA5",
"(. c #A19DAC",
"). c #A2A1A6",
"_. c #A7A6AB",
/* pixels */
"_._._._._._._._._._._._._._._._._._._._._._._._._._._._._._._._._._._._._._._._._._._._._._._._._._._._._._._._._._._._._._._._.",
"_._._._._._._._._._._._._._._._._._._._._._._._._._._._._._._._._._._._._._._._._._._._._._._._._._._._._._._._._._._._._._._._.",
"_._._._._._._._._._._._._._._._._._._._._._._._._._._._._._._._._._._._._._._._._._._._._._._._._._._._._._._._._._._._._._._._.",
"_._._._._._._._._._._._._._._._._._._._._._._._._._._._._._._._._._._._._._._._._._._._._._._._._._._._._._._._._._._._._._._._.",
"_._._._._._._._._._._._._._._._._._._._._._._._._._._._._._._._._._._._._._._._._._._._._._._._._._._._._._._._._._._._._._._._.",
"_._._._._._._._._._._._._._._._._._._._._._._._._._._._._._._._._._._._._._._._._._._._._._._._._._._._._._._._._._._._._._._._.",
"_._._._._._._._._._._._._._._._._._._._._._._._._._._._._._._._._._._._._._._._._._._._._._._._._._._._._._._._._._._._._._._._.",
"_._._._._._._._._._._._._._._._._._._._._._._._._._._._._._._._._._._._._._._._._._._._._._._._._._._._._._._._._._._._._._._._.",
"_._._._._._._._._._._._._._._._._._._._._._._._._._._._._._._._._._._._._._._._._._._._._._._._._._._._._._._._._._._._._._._._.",
"_._._._._._._._._._._._._._._._._._._._._._._._._._._._._._._._._._._._._._._._._._._._._._._._._._._._._._._._._._._._._._._._.",
"_._._._._._._._._._._._._._._._._._._._._._._._._._._._._._._._._._._._._._._._._._._._._._._._._._._._._._._._._._._._._._._._.",
"_._._._._._._._._._._._._._._._._._._._._._._._._._._._._._._._._._._._._._._._._._._._._._._._._._._._._._._._._._._._._._._._.",
"_._._._._._._._._._._._._._._._._._._._._._._._._._._._._._._._._._._._._._._._._._._._._._._._._._._._._._._._._._._._._._._._.",
"_._._._._._._._._._._._._._._._._._._._._._._._._._._._._._._._._._._._._._._._._._._._._._._._._._._._._._._._._._._._._._._._.",
"_._._._._._._._._._._._._._._._._._._._._._._._._._._._._._._._._._._._._._._._._._._._._._._._._._._._._._._._._._._._._._._._.",
"_._._._._._._._._._._._._._._._._._._._._._._._._._._._._._._._._._._._._._._._._._._._._._._._._._._._._._._._._._._._._._._._.",
"_._._._._._._._._._._._._._._._._._._._._._._._._._._._._._._._._._._._._._._._._._._._._._._._._._._._._._._._._._._._._._._._.",
"_._._._._._._._._._._._._._._._._._._._._._._._._._._._._._._._._._._._._._._._._._._._._._._._._._._._._._._._._._._._._._._._.",
"_._._._._._._._._._._._._._._._._._._._._._._._._._._._._._._._._._._._._._._._._._._._._._._._._._._._._._._._._._._._._._._._.",
"_._._._._._._._._._._._._._._._._._._._._._._._._._._._._._._._._._._._._._._._._._._._._._._._._._._._._._._._._._._._._._._._.",
"_._._._._._._._._._._._._._._._._._._._._._._._._._._._._._._._._._._._._._._._._._._._._._._._._._._._._._._._._._._._._._._._.",
"_._._._._._._._._._._._._._._._._._._._._._._._._._._._._._._._._._._._._._._._._._._._._._._._._._._._._._._._._._._._._._._._.",
"_._._._._._._._._._._._._._._._._._._._._._._._._._._._._._._._._._._._._._._._._._._._._._._._._._._._._._._._._._._._._._._._.",
"_._._._._._._._._._._._._._._._._._._._._._._._._._._._._._._._._._._._._._._._._._._._._._._._._._._._._._._._._._._._._._._._.",
"_._._._._._._._._._._._._._._._._._._._._._._._._._._._._._._._._._._._._._._._._._._._._._._._._._._._._._._._._._._._._._._._.",
"_._._._._._._._._._._._._._._._._._._._._._._._._._._._._._._._._._._._._._._._._._._._._._._._._._._._._._._._._._._._._._._._.",
"_._._._._._._._._._._._._._._._._._._._._._._._._._._._._._._._._._._._._._._._._._._._._._._._._._._._._._._._._._._._._._._._.",
"_._._._._._._._._._._._._._._._._._._._._._._._._._._._._._._._._._._._._._._._._._._._._._._._._._._._._._._._._._._._._._._._.",
"_._._._._._._._._._._._._._._._._._._._._._._._._._._._._._._._._._._._._._._._._._._._._._._._._._._._._._._._._._._._._._._._.",
"_._._._._._._._._._._._._._._._._._._._._._._._._._._._._._._._._._._._._._._._._._._._._._._._._._._._._._._._._._._._._._._._.",
"_._._._._._._._._._._._._._._._._._._._._._._._._._._._._._._._._._._._._._._._._._._._._._._._._._._._._._._._._._._._._._._._.",
"_._._._._._._._._._._._._._._._._._._._._._._._._._._._._._._._._._._._._._._._._._._._._._._._._._._._._._._._._._._._._._._._.",
"_._._._._._._._._._._._._._._._._._._._._._._._._._._._._._._._._._._._._._._._._._._._._._._._._._._._._._._._._._._._._._._._.",
"_._._._._._._._._._._._._._._._._._._._._._._._._._._._._._._._._._._._._._._._._._._._._._._._._._._._._._._._._._._._._._._._.",
"_._._._._._._._._._._._._._._._._._._._._._._.(.!.Q.Y.I.V.V.B.V._.V.V.U.U.Y.Q.!.(._._._._._._._._._._._._._._._._._._._._._._._.",
"_._._._._._._._._._._._._._._._._.(.(.T.V.M.8.0.+.+.o.X.X.X.' ' *.o.X.' ' ' X.+.@.r.s.B.Y.Q._._._._._._._._._._._._._._._._._._.",
"_._._._._._._._._._._._._._.(.Q.V.s.9.@.&.*.o.X.X.X.X.o.' X.X.' o.X.o.o.o.X.X.' X.X.' ' ' +.p.M.Y.(._._._._._._._._._._._._._._.",
"_._._._._._._._._._._._.Q.B.p.+.X.X.o.*.Z.A.y.*.$.$.#.&.g.g.g.g.&.&.&.*.w.*.O.O.X.X.X.X.X.X.X.X.X.0.b.W._._._._._._._._._._._._.",
"_._._._._._._._._.).T.M.O.X.X.X.X.o.O.y.S.F.Z.j.g.g.g.g.g.g.k.g.g.g.j.l.x.l.t.&.$.$.$.o.X.X.X.X.X.X.' o.8.Y._._._._._._._._._._.",
"_._._._._._._._.Q.d.+.X.X.X.X.X.$.$.*.y.Z.A.Z.k.j.j.k.k.k.k.k.k.k.k.z.x.D.v.l.j.g.g.*.*.&.&.$.#.o.X.X.' ' ' 8.T._._._._._._._._.",
"_._._._._._.(.V.9.X.X.X.o.$.#.g.g.g.g.k.z.z.k.g.%.%. .{ ' { [ [ ` ` { %.e.e.q.%.w.j.j.j.g.g.&.g.g.o.o.X.X.X.' o.b.(._._._._._._.",
"_._._._._.!.b.o.X.X.X.o.$.g.g.g.g.g.g.%.{ { ` _ ~ _ ~ _ _ _ _ _ _ _ _ ] ] ] [ [ ` ` ` { %.g.j.j.g.g.g.$.#.X.' ' X.p.!._._._._._.",
"_._._._.!.f.o.X.X.$.$.&.g.g.g.g.$.' ` _ / / _ ~ _ _ _ _ _ _ _ _ ` ` [ ] [ [ | ..} | ` _ ~ ` `  .g.g.g.g.&.$.o.X.' ' 9.Q._._._._.",
"_._._._.b.X.X.o.o.&.*.*.g.$.' _ ~ ~ ~ _ _ _ [ [ _ ` ` [ [ [ | | | | | | | ..} 6.q. .` ` _ ` ` _ ~ _ %.g.g.&.&.X.X.X.X.r.(._._._.",
"_._._.m.o.X.o.$.&.g.*.#.` ~ ~ _ _ _ _ ` | 6.6...| | [ ] / / ^ ! ! ! ! ! ^ ] ] } ....| [ [ ` [ _ ` _ ~ ` %.g.g.$.o.X.X.X.d._._._.",
"_._.(.p.X.o.$.&.g.&.` ` _ _ _ _ ` [ [  ...5.5.( I S Z N N N m b n n b b m N V C C F E ^ ] | | [ [ ` _ _ _ ` %.g.&.o.X.X.+.Q._._.",
"_._.T.O.X.$.*.*.$.` ~ _ _ ` ` { { | [ ] ! K C V b b b N m N N B N N m n N V C K H C b b N A R _ | | | [ _ _ _ #.&.$.o.X.X.n._._.",
"_._.U.X.o.&.*.%.[ [ ` ` ` ` | | | ! S N b b N n N N N N N B B S Z Z B N B K T 3.W L V n n n N N S _ | | [ [ _ _ ' *.&.O.X.f._._.",
"_._.U.X.$.&.&.` } q.} } | | [ ! Z n n b N N N B B B B Z Z S D E D D A A A U 2.G.4.U Z B N N N n n n A _  .{ { _ _ %.g.&.X.M._._.",
"_._.Y.$.&.g.` ` q.c.q.....[ P N n n n N Z N Z Z Z D D D D D R R R R D D D U ( 7.2.Y S Z Z Z C C N N N N I  . .{ [ _ #.&.#.M._._.",
"_._.!.@.&.X._ _ } q.q...) S m b N N B B Z Z D D D S Z Z V m i y y t y y m M J T E E R D S F F P S B N b n F ....| _ { &.O.V._._.",
"_._._.M.$.` ~ ` [ %.q.[ B n N N B B Z D D D Z m q 2 < - = = = = = = = = = = ; 3 5 4 q N S F Q ( I S Z N N N S ....{ _ %.a.(._._.",
"_._._.!.u.` _ `  .%.} S n N B B Z S P P M 8 < = = = - - - - - - - - < - - - - = - = - - ; q C I I P S Z N n b F .. .` w.^._._._.",
"_._._._.Y.{ _ [ ..q.^ n n N B Z A S G g s 6 ; = - - 3 < - < 2 2 2 4 2 2 2 < < < ; - = % - % * 7 M S D A B B N N [  .} N._._._._.",
"_._._._._.I.5. .h.h.F n N B Z S m 7 6 =.-.s 5 ; < < 2 4 2 9 9 9 0 9 0 0 0 0 4 2 2 < < - - - - = % 3 N D Z B n n E q.N.(._._._._.",
"_._._._._._.Q.i.h.6.Z n B S Z y ; ; u =.-.f 7 1 2 4 9 9 w 9 w 9 9 w w 9 e e w y w 0 2 < < - - = % % - i Z Z B N W ~.(._._._._._.",
"_._._._._._._.(.C.l.A N B A q - = = 6 s s 8 7 2 0 0 0 4 ; $ $ o o o o o o @ $ ; 7 0 q 0 2 < - - = - & & m A L :.R._._._._._._._.",
"_._._._._._._._._.W.:.L Z b = = = = ; 5 7 2 9 w w 3 @ X                           o ; 9 0 2 < < = = & & 6 ;.P.E._._._._._._._._.",
"_._._._._._._._._._._.R.1.j ; % = = < < 2 9 9 2 #                                     . 2 w 2 < - ; a c J.)._._._._._._._._._._.",
"_._._._._._._._._._._._.(.L.G.c d : - 1 2 9 w @                                       . X 4 t h x <.L._._._._._._._._._._._._._.",
"_._._._._._._._._._._._._._._._.E.K.>.=.h p r X                           X     . . O + k v G.E.)._._._._._._._._._._._._._._._.",
"_._._._._._._._._._._._._._._._._._._._.E.R.K.,.z l k , > + + + + + + > , , l z v H.K.L.).).)._._._._._._._._._._._._._._._._._.",
"_._._._._._._._._._._._._._._._._._._._._._._._._._.).).)./.E.E./.E././.).)._._._._._._._._._._._._._._._._._._._._._._._._._._.",
"_._._._._._._._._._._._._._._._._._._._._._._._._._._._._._._._._._._._._._._._._._._._._._._._._._._._._._._._._._._._._._._._."
};
