/* XPM */
static char *Player_F1721365445[] = {
/* columns rows colors chars-per-pixel */
"64 64 191 2 ",
"   c #2A2A2A",
".  c #3B3C3B",
"X  c #493229",
"o  c #5A392B",
"O  c #4C3A34",
"+  c #59433A",
"@  c #684737",
"#  c #484848",
"$  c #504748",
"%  c #595A5A",
"&  c #6B5246",
"*  c #6D554A",
"=  c #765848",
"-  c #755C51",
";  c #435162",
":  c #495C72",
">  c #4D6177",
",  c #4E637A",
"<  c #516377",
"1  c #696868",
"2  c #706C6D",
"3  c #646D79",
"4  c #717273",
"5  c #7B7A7B",
"6  c #8A573B",
"7  c #925A3A",
"8  c #99603F",
"9  c #895E48",
"0  c #9A6749",
"q  c #836453",
"w  c #86685B",
"e  c #926B56",
"r  c #8C7163",
"t  c #89756C",
"y  c #997A69",
"u  c #887B77",
"i  c #A47C66",
"p  c #8B817E",
"a  c #9B8275",
"s  c #95837B",
"d  c #AD846C",
"f  c #A58674",
"g  c #AA8A78",
"h  c #B38C75",
"j  c #BF957D",
"k  c #C69A7E",
"l  c #4C6682",
"z  c #536D86",
"x  c #5B6D80",
"c  c #516D8C",
"v  c #597087",
"b  c #55718C",
"n  c #5A748C",
"m  c #4D6F96",
"M  c #557491",
"N  c #597493",
"B  c #5D7A94",
"V  c #57789A",
"C  c #5E7D9C",
"Z  c #66788D",
"A  c #777C85",
"S  c #647B94",
"D  c #617E9B",
"F  c #5074A0",
"G  c #5B7EA3",
"H  c #507CB2",
"J  c #637EA1",
"K  c #807F81",
"L  c #5F819F",
"P  c #75838F",
"I  c #7E848D",
"U  c #688095",
"Y  c #63829D",
"T  c #6B849C",
"R  c #738194",
"E  c #7B8999",
"W  c #5C82A4",
"Q  c #5587BC",
"!  c #6284A2",
"~  c #6A86A3",
"^  c #6887A5",
"/  c #6E89A5",
"(  c #6387AB",
")  c #668CAC",
"_  c #6C8EAA",
"`  c #788EA5",
"'  c #6D91AD",
"]  c #7392AD",
"[  c #678BB0",
"{  c #6A8FB2",
"}  c #6D93B3",
"|  c #6D95BA",
" . c #7296B3",
".. c #7398B7",
"X. c #7397B9",
"o. c #749BBC",
"O. c #568ECD",
"+. c #598FD1",
"@. c #5794D9",
"#. c #6796CA",
"$. c #749DC3",
"%. c #719ECA",
"&. c #6A9CD0",
"*. c #76A2C7",
"=. c #79A2C6",
"-. c #7AA5CB",
";. c #7CA8CD",
":. c #77A4D1",
">. c #7DAAD3",
",. c #828286",
"<. c #8C8484",
"1. c #82848A",
"2. c #898589",
"3. c #8B8B8D",
"4. c #958986",
"5. c #9D8D83",
"6. c #948B8A",
"7. c #99908F",
"8. c #848A93",
"9. c #858B97",
"0. c #8B8C92",
"q. c #848C99",
"w. c #938F90",
"e. c #8F9197",
"r. c #8C919B",
"t. c #939295",
"y. c #9B9493",
"u. c #94959C",
"i. c #99979A",
"p. c #97989F",
"a. c #9B9A9D",
"s. c #A58E82",
"d. c #A99387",
"f. c #B5998B",
"g. c #A59A97",
"h. c #BC9F90",
"j. c #8E96A2",
"k. c #969BA5",
"l. c #9D9DA2",
"z. c #A09FA3",
"x. c #9CA2A9",
"c. c #94A3B2",
"v. c #A2A2A6",
"b. c #A7A6AB",
"n. c #A8A6A8",
"m. c #ABABAD",
"M. c #ABADB1",
"N. c #B0AFB0",
"B. c #AFB1B4",
"V. c #ADB4B9",
"C. c #B3B4B5",
"Z. c #B4B6BA",
"A. c #B7B8B9",
"S. c #BBBCBD",
"D. c #C39D86",
"F. c #D09F82",
"G. c #D5A78A",
"H. c #CBA893",
"J. c #D9AD92",
"K. c #D6B197",
"L. c #E3B395",
"P. c #EAB697",
"I. c #EDBB9B",
"U. c #C3B2A8",
"Y. c #F8C5A2",
"T. c #82ADD4",
"R. c #85B2DA",
"E. c #BEBFC0",
"W. c #BFC0C3",
"Q. c #C2C3C6",
"!. c #C4C5C8",
"~. c #C7C8CA",
"^. c #CACBCD",
"/. c #D2C9C3",
"(. c #CDCED1",
"). c #CFD0D1",
"_. c #D2D2D4",
"`. c #D5D6D9",
"'. c #D7D8DA",
"]. c #DBDCDD",
"[. c #DDDEE0",
"{. c #DFE0E2",
"}. c #E3E4E4",
"|. c #E8E9E7",
" X c #E6E6E8",
".X c #EBECEC",
"XX c #EFF1F1",
"oX c #F3F4F4",
"OX c #F6F8F7",
"+X c #F7F9F9",
"@X c #FAFBFB",
/* pixels */
"b.b.b.b.b.b.b.b.b.b.b.b.b.b.b.b.b.b.b.b.b.b.b.b.b.b.b.b.b.b.b.n.v.z.y.i.g.z.b.b.b.b.b.b.b.b.b.b.b.b.b.b.b.b.b.b.b.m.b.b.b.b.b.b.",
"b.b.b.b.b.b.b.b.b.b.b.b.b.b.b.b.b.b.b.b.b.b.b.b.b.b.b.b.b.b.b.z.4.e 0 0 e u z.b.b.b.b.b.b.b.b.b.b.b.b.b.b.b.b.b.b.b.b.b.b.b.b.b.",
"b.b.b.b.b.b.b.b.b.b.b.b.b.b.b.b.b.b.b.b.b.b.b.b.b.b.b.b.b.b.b.6.9 7 7 6 7 8 t z.b.b.b.b.b.b.b.b.b.b.b.b.b.b.b.b.b.b.b.b.b.b.b.b.",
"b.b.b.b.b.b.b.b.b.b.b.b.b.b.b.b.b.b.b.b.b.b.b.b.b.b.b.b.b.b.z.e 6 o o o X @ & k.b.b.b.b.b.b.b.b.b.b.b.b.b.b.b.b.b.b.b.b.b.b.b.b.",
"b.b.b.b.b.b.b.b.b.b.b.b.b.b.b.b.b.b.b.b.b.b.b.b.b.b.b.b.b.b.y.9 6 y e = @ X + K b.b.b.b.b.b.b.b.b.b.b.b.b.b.b.b.b.b.b.b.b.b.b.b.",
"b.b.b.b.b.b.b.b.b.b.b.b.b.b.b.b.b.b.b.b.b.b.b.b.b.b.b.b.b.b.t.@ = I.Y.Y.P.9 O 6.b.b.b.b.b.b.b.b.b.b.b.b.b.b.b.b.b.b.b.b.b.b.b.b.",
"b.b.b.b.b.b.b.b.b.b.b.b.b.b.b.b.b.b.b.b.b.b.b.b.b.b.b.b.b.M.i.+ * r i G.D.w $ y.b.b.b.b.b.b.b.b.b.b.b.b.b.b.b.b.b.b.b.b.b.b.b.b.",
"b.b.b.b.b.b.b.b.b.b.b.b.b.b.b.b.b.b.b.b.b.b.b.b.b.b.b.b.b.b.y.& q i - & & O 2 z.b.b.b.b.b.b.b.b.b.b.b.b.b.b.b.b.b.b.b.b.b.b.b.b.",
"b.b.b.b.b.b.b.b.b.b.b.b.b.b.b.b.b.b.b.b.b.b.b.b.b.b.b.b.b.b.l.y d D.h i h w <.b.b.b.b.b.b.b.b.b.b.b.b.b.b.b.b.b.b.b.b.b.b.b.b.b.",
"b.b.b.b.b.b.b.b.b.b.b.b.b.b.b.b.b.b.b.b.b.b.b.b.b.b.b.b.b.b.b.y.F.F.F.k h u z.m.b.b.b.b.b.b.b.b.b.b.b.b.b.b.b.b.b.b.b.b.b.b.b.b.",
"b.b.b.b.b.b.b.b.b.b.b.b.b.b.b.b.b.b.b.b.b.b.b.b.b.b.b.b.b.b.n.g.d G.k i g g.b.b.b.b.b.b.b.b.b.b.b.b.b.b.b.b.b.b.b.b.b.b.b.b.b.b.",
"b.b.b.b.b.b.b.b.b.b.b.b.b.b.b.b.b.b.b.b.b.b.b.b.b.b.b.b.b.b.x.y.h i F.i K v.b.b.b.b.b.b.b.b.b.b.b.b.b.b.b.b.b.b.b.b.b.b.b.b.b.b.",
"b.b.m.b.b.b.b.b.b.b.b.b.b.b.b.b.b.b.b.b.b.b.b.b.b.b.b.b.n.m.7.D.I.i & & 2 z.n.b.b.b.b.b.b.b.b.b.b.b.b.b.b.b.b.b.b.b.b.b.b.b.b.b.",
"b.b.b.b.b.b.b.b.b.b.b.b.b.b.b.b.b.b.b.b.b.b.b.b.b.b.b.A._..X}.K.L.G.q q 6.Q.B.n.b.b.b.b.b.b.b.b.b.b.b.b.b.b.b.b.b.b.b.b.b.b.b.b.",
"b.b.b.b.b.b.b.b.b.b.b.b.b.b.b.b.b.b.b.b.b.b.b.b.b.x.W..X@X@X@X|./.U.g.z.S.].OX XN.v.b.b.b.b.b.b.b.b.b.b.b.b.b.b.b.b.b.b.b.m.b.b.",
"b.b.b.b.b.b.b.b.b.b.b.b.b.b.b.b.b.b.b.b.b.b.b.b.b.b. X@X@X@X@X@XOXoX.X(.~.(.OX@X Xz.b.b.b.b.b.b.b.b.b.b.b.b.b.b.b.b.b.b.b.b.b.b.",
"b.b.b.b.b.b.b.b.b.b.b.b.b.b.b.b.b.b.b.b.b.b.b.b.n.C.].{.@X@X@X@X@X@X@X_.^._.OXOXoXv.b.b.b.b.b.b.b.b.b.b.b.b.b.b.b.b.b.b.b.b.b.b.",
"b.b.b.b.b.b.b.b.b.b.b.b.b.b.b.b.b.b.b.b.b.b.b.b.v.!.].~.OX@X@X@X@X@X@X.X]..XOXoX].b.z.b.b.b.b.b.b.b.b.b.b.b.b.b.b.b.b.b.b.b.b.b.",
"b.b.b.b.b.b.b.b.b.b.b.b.b.b.b.b.b.b.b.b.b.b.b.b.n.].^.C.XXOX@XOX{.|..X{.].|.@X.XE.b.b.b.b.b.b.b.b.b.b.b.b.b.b.b.b.b.b.b.b.b.b.b.",
"b.b.b.b.b.b.b.b.b.b.b.b.b.b.b.b.b.b.b.b.b.b.b.b.m.|.^.n.{.XXOXA.4 _.).A.% 3.+X{.Z.C.b.b.b.b.b.b.b.b.b.b.b.b.b.b.b.b.b.b.b.b.b.b.",
"M.b.b.b.b.b.b.b.b.m.b.b.b.b.b.b.b.b.b.b.b.b.b.b.A..X^.e.^.}.A.4 /.OXOX^.1 S.OX^.S.E.v.b.b.b.b.b.b.b.b.b.b.b.b.b.b.b.b.b.b.b.b.b.",
"b.b.b.b.b.b.b.b.b.b.b.b.b.b.b.b.b.b.b.b.b.b.b.v._. X).3.Z.n.# i.^.]._.1 C.XX.XC.E.(.z.b.b.b.b.b.b.b.b.b.b.b.b.b.b.b.b.b.b.b.b.b.",
"b.b.b.b.b.b.b.b.b.b.b.b.b.b.b.b.b.b.b.b.b.b.b.b.|.].).t.l.3.. #   % A.. W.S.`.l.E.(.z.b.b.b.b.b.b.b.b.b.b.b.b.b.b.b.b.b.b.b.b.b.",
"b.b.b.b.b.b.b.b.b.b.b.b.b.b.b.b.b.b.b.b.b.b.v.Z..X'.!.t.l.).^.{.5 # '.m.C.b.b.2.M.~.k.b.b.b.b.b.b.b.m.b.b.b.b.b.b.b.b.b.b.b.b.b.",
"b.b.b.b.b.b.b.b.b.b.b.b.b.b.b.b.b.b.b.b.b.b.z.Z._.E.N.i.a.^.]..X).A..X{.'.A.u.4 z.(.z.v.b.b.b.b.b.b.b.b.b.b.b.b.b.b.b.b.b.b.b.b.",
"b.b.b.b.b.b.b.b.b.b.b.b.b.b.b.b.b.b.b.b.b.b.z.!.A.Z.b.i.t.W. X X@XOXXXoX{.A.x.1.M.(.v.b.b.b.b.b.b.b.b.b.b.b.b.b.b.b.b.b.b.b.b.b.",
"b.b.b.b.b.b.b.b.b.b.b.b.b.b.b.b.b.b.b.b.b.b.z.(.].~.u.i.I Q. X.XOX X|.XX!.m.^.t.z.M.B.l.b.b.b.b.b.b.b.b.b.b.b.b.m.b.b.b.b.b.b.b.",
"b.b.b.b.b.b.b.b.b.b.b.b.b.b.b.b.b.b.b.b.b.b.l.<.g.n.i.u.p. X{.XX|.|..XW.B.].`.t.t h 4.z.b.b.b.b.b.b.b.b.b.b.b.b.b.b.b.b.b.b.b.b.",
"b.b.b.b.b.b.b.b.b.b.b.b.b.b.b.b.b.b.b.b.b.b.b.d.k y a.t.W..X'.[.{.[.~.).[.(.W.y.f P.f.b.b.b.b.b.m.b.b.b.b.b.b.b.b.b.b.b.b.b.b.b.",
"b.b.b.b.b.b.b.b.b.b.b.b.b.b.b.b.b.b.b.b.b.b.b.d.I.a x.0.Z._.'.[.).).).).].[.{.M.y P.h.z.b.b.b.b.b.b.b.b.b.b.b.b.b.b.b.b.b.b.b.b.",
"b.b.b.b.b.b.b.b.b.b.b.b.b.b.b.b.b.b.b.b.b.b.b.d.I.5.b.3.M.Z.A.!.~.`.`.(.B.k.x.k.4.P.h.b.b.b.b.b.b.b.b.b.b.b.b.b.b.b.b.b.b.b.b.b.",
"b.b.b.b.b.b.b.b.b.b.b.b.b.b.b.b.b.b.b.b.b.b.b.g.P.5.b.I 8.V.!.).^.V.j.E T Y ! Z 7.H.h.z.b.b.b.b.b.b.b.b.b.b.b.b.b.b.b.b.b.b.b.b.",
"b.b.b.b.b.b.b.b.b.b.b.b.b.b.b.b.b.b.b.b.b.b.n.5.K.s n.E n U U / ~ Y ' *.*.*.$.Y 0.s.5.0.b.b.b.b.b.b.b.b.b.b.b.b.b.b.b.b.b.b.b.b.",
"b.b.b.b.b.b.b.b.b.b.b.b.b.b.b.b.b.b.b.b.b.b.b.I u a y.q.L o.*.;.o._ } o.*.>.o.B 5 s.5.2.b.b.b.b.b.b.b.b.b.b.b.b.b.b.b.b.b.b.b.b.",
"b.b.b.b.b.b.b.b.b.b.b.b.b.b.b.b.b.b.b.b.b.b.v.1.a J.H.I M o.;.;. .v v Y X.$.} B u L.G.g.b.b.b.b.b.b.b.b.b.b.b.b.b.b.b.b.b.b.b.b.",
"b.b.b.b.b.b.b.b.b.b.b.b.b.b.b.b.b.b.b.b.b.b.v.6.K.k j K L o.o.o.D ; z } ;.%.{ S f.f f g.b.b.b.b.b.b.b.b.b.b.b.b.b.b.b.b.b.b.b.b.",
"b.b.b.b.b.b.b.b.b.b.b.b.b.b.b.b.b.b.b.b.b.b.b.f.K.g p p b } } .._ > S ..=.$.[ R 6.r y g.b.b.b.b.b.b.b.b.b.b.b.b.b.b.b.b.b.b.b.b.",
"b.b.b.b.b.b.b.b.b.b.b.b.b.b.b.b.b.b.b.b.b.b.b.t.g g 3.p n L ..o.' n o.T.=.o.( A 6.y d.g.b.b.b.b.b.b.b.b.b.b.b.b.b.b.b.b.b.b.b.b.",
"b.b.b.b.b.b.b.b.b.b.b.M.b.b.b.b.b.b.b.b.b.b.m.x.6.s 3.n.P ..=..._ n =.T.T.R.X.9.b.z.z.b.b.b.b.b.b.b.b.b.b.b.b.b.b.b.b.b.b.b.b.b.",
"b.b.b.b.b.b.b.b.b.b.b.b.b.b.b.b.b.b.b.b.n.n.n.b.b.v.v.m.E o.=. ._ D T.R.R.T.] k.b.b.b.b.b.b.b.b.b.b.b.b.b.b.b.b.b.b.b.b.b.b.b.b.",
"b.b.b.b.b.b.b.b.b.b.b.b.b.b.b.b.b.b.b.b.b.b.b.b.b.b.b.b.q. .o. .] Y -.R.R.T.` l.b.b.b.b.b.b.b.b.b.b.b.b.b.b.b.b.b.b.b.b.b.b.b.b.",
"b.b.b.b.b.b.b.b.b.b.b.b.b.b.b.b.b.b.b.b.b.b.b.b.b.b.b.b.u.} o.' ..Y $.R.R.=.q.b.b.b.b.b.b.b.b.b.b.b.b.b.b.b.b.b.b.b.b.b.b.b.b.b.",
"b.b.b.b.b.b.b.b.b.b.b.b.b.b.b.b.b.b.n.b.b.b.b.b.b.b.b.b.u.} .. .o.Y | R.T...r.b.b.b.b.b.b.b.b.b.b.b.b.b.b.b.b.b.b.b.b.b.b.m.b.b.",
"b.b.b.b.b.b.b.b.b.b.b.b.b.b.b.b.b.b.b.b.b.b.b.b.b.b.b.b.q.T  . ...Y | >.;.] k.b.b.b.b.b.b.b.b.b.b.b.b.b.b.b.b.b.b.b.b.b.b.b.b.b.",
"b.b.b.b.b.b.b.b.b.b.b.b.b.b.b.b.b.b.b.b.b.b.b.b.b.b.b.b.I Y ) ' _ n | >.>.o.r.b.b.b.b.b.b.b.b.b.b.b.b.b.b.b.b.b.b.b.b.b.b.b.b.b.",
"b.b.b.b.b.b.b.b.b.b.b.b.b.b.b.b.b.b.b.b.b.b.b.b.b.b.b.b.R Y ) ^ v A } -.-.o.q.b.b.b.b.b.b.b.b.b.b.b.b.b.b.b.b.b.b.b.b.b.b.b.b.b.",
"b.b.b.b.b.b.b.b.b.b.b.b.b.b.b.b.b.b.b.b.b.b.b.b.b.b.b.b.I L C n < I Y ) } Y p.b.b.b.b.b.b.b.b.b.b.b.b.b.b.b.b.b.b.b.b.b.b.b.b.b.",
"b.b.b.b.b.b.b.b.b.b.b.b.b.b.b.b.b.b.b.b.b.b.b.b.b.b.b.b.u.v n N v 8.Z o.{ ~ p.b.b.b.b.b.b.b.b.b.b.b.b.b.b.b.b.b.b.b.b.b.b.b.b.b.",
"b.b.b.b.b.b.b.b.b.b.b.b.b.b.b.b.b.b.b.b.b.b.b.b.b.b.b.b.z.D J D N 0.~ %.T.X.k.b.b.b.b.b.b.b.b.b.b.b.b.b.b.b.b.b.b.b.b.b.b.b.b.b.",
"b.b.b.b.b.b.b.b.b.b.b.b.b.b.b.b.b.b.b.b.b.b.b.b.b.b.b.b.b.A J G N 9.~ :.T.X.k.b.b.b.b.b.b.b.b.b.b.b.b.b.b.b.b.b.b.b.b.b.b.b.b.b.",
"b.b.b.b.b.b.b.b.b.b.b.b.b.b.b.b.b.b.b.b.b.b.b.b.b.b.b.b.M.r.S G N 3 ( :.>.$.9.b.b.b.b.b.b.b.b.b.b.b.b.m.b.b.b.b.b.b.b.b.b.b.b.b.",
"b.b.b.b.b.b.b.M.b.b.b.b.b.b.b.b.b.b.b.b.b.b.b.b.b.b.b.b.z.e.b J M : [ :.T.[ E M.b.b.b.b.b.b.b.b.b.b.b.b.b.b.b.b.b.b.b.b.b.b.b.b.",
"b.b.b.b.b.b.b.b.b.b.b.b.b.b.b.b.z.M.b.b.b.b.b.M.b.b.b.b.b.K < V c , ( :.%.J / z.b.b.b.b.b.b.b.b.b.b.b.b.b.b.b.b.b.b.b.b.b.b.b.b.",
"b.b.b.b.b.b.b.b.b.b.b.b.b.b.b.b.M.z.b.b.b.b.b.z.b.b.b.b.b.k.x l c l G -.$.( ` z.b.b.b.b.b.b.b.b.b.b.b.b.b.b.b.b.b.b.b.m.b.b.b.b.",
"b.b.b.b.b.b.b.b.b.b.b.b.b.b.b.b.z.M.b.b.b.b.z.M.b.b.b.b.b.b.e.< > , W $.$.] k.b.b.b.b.b.b.b.b.b.b.b.b.b.b.b.b.b.b.b.b.b.b.b.b.b.",
"b.b.b.b.b.b.b.b.b.b.b.b.b.b.b.b.M.z.M.b.b.b.M.z.b.b.b.b.b.b.p.v z > z W | J z.b.b.b.b.b.b.b.b.b.b.b.b.b.b.b.b.b.b.b.b.b.b.b.b.b.",
"b.b.b.b.b.b.b.b.b.b.b.b.b.b.b.b.b.b.b.b.b.b.b.M.b.b.b.b.b.v.E m m V G G W V q.b.b.b.b.b.b.b.b.b.b.b.b.b.b.b.b.b.b.b.b.b.b.b.b.b.",
"b.b.M.b.b.b.b.b.b.b.b.b.b.b.b.b.b.b.b.b.b.b.b.b.b.b.b.b.b.r.G F m F G M M G ~ l.b.b.b.b.b.b.b.b.b.b.b.b.b.b.b.b.b.b.b.b.b.b.b.b.",
"b.b.b.b.b.b.b.b.b.b.b.b.b.b.b.b.b.b.b.b.b.b.b.b.b.b.b.b.j.O.@.@.O.l l N S < A b.b.b.b.b.b.b.b.b.b.b.b.b.b.b.b.b.b.b.b.b.b.b.b.b.",
"b.b.b.b.b.b.b.b.b.b.b.b.b.b.b.b.b.b.b.b.b.b.b.b.b.b.b.z.j.:.+.+.| v m N N n r.b.b.b.b.b.b.b.b.b.b.b.b.m.b.b.b.b.b.b.b.b.b.b.b.b.",
"b.b.b.b.b.b.b.b.b.b.b.b.b.b.b.b.b.b.b.b.b.b.b.b.b.b.b.b.k.a.x.k.r.I G Q Q Q G k.z.b.b.M.b.b.b.b.b.b.b.b.b.b.b.b.b.b.b.b.b.b.b.b.",
"b.b.b.b.b.b.b.b.b.b.b.b.b.b.b.b.b.b.b.b.b.b.b.b.b.b.b.b.b.b.z.z.v.9.H #.&.&.+.[ z.b.b.b.b.b.b.b.b.b.b.b.b.b.b.b.b.b.b.b.b.b.b.b.",
"b.b.b.b.b.b.b.b.b.b.b.b.b.b.b.b.b.b.b.b.b.b.b.b.b.b.b.b.b.b.b.b.b.1./ c.V.b.x.q.k.b.b.b.b.b.b.b.b.b.b.b.b.b.b.b.b.b.b.b.b.b.b.b.",
"b.b.b.b.b.b.b.b.b.b.b.b.b.b.b.b.b.b.b.b.b.b.b.b.b.b.m.b.b.b.b.b.b.t.A I ,.1.2.w.z.b.b.b.b.b.b.b.b.b.b.b.b.b.b.b.b.b.b.b.b.b.b.b."
};
