/* XPM */
static char *Player_L1721365446[] = {
/* columns rows colors chars-per-pixel */
"64 64 199 2 ",
"   c #1B1615",
".  c #301E15",
"X  c #3B231A",
"o  c #2C2524",
"O  c #4A2618",
"+  c #562A1A",
"@  c #65301B",
"#  c #74361D",
"$  c #7B391D",
"%  c #483227",
"&  c #4C3D36",
"*  c #6C4734",
"=  c #794F38",
"-  c #74513B",
";  c #3D4E68",
":  c #484E58",
">  c #514F51",
",  c #56565A",
"<  c #785A4C",
"1  c #745D54",
"2  c #425369",
"3  c #535B66",
"4  c #415670",
"5  c #485D78",
"6  c #4B617E",
"7  c #57677D",
"8  c #676668",
"9  c #796D6E",
"0  c #676B73",
"q  c #7A7576",
"w  c #8A431F",
"e  c #854424",
"r  c #8D4F32",
"t  c #87624D",
"y  c #986C4D",
"u  c #8F6B57",
"i  c #9C7255",
"p  c #A77758",
"a  c #857165",
"s  c #87726B",
"d  c #8D746B",
"f  c #8B7B76",
"g  c #B6815A",
"h  c #9C867B",
"j  c #AC8569",
"k  c #B78869",
"l  c #A6897B",
"z  c #B69075",
"x  c #C58A66",
"c  c #CF906B",
"v  c #D89968",
"b  c #C59778",
"n  c #CA9A79",
"m  c #D69C73",
"M  c #E19B68",
"N  c #E6A16D",
"B  c #E3A271",
"V  c #E8A173",
"C  c #EBA875",
"Z  c #F4AD77",
"A  c #F4AD79",
"S  c #F8B076",
"D  c #F6B07A",
"F  c #425F85",
"G  c #476487",
"H  c #496384",
"J  c #45648B",
"K  c #556A84",
"L  c #536C8C",
"P  c #5E738E",
"I  c #466A94",
"U  c #476B98",
"Y  c #516C94",
"T  c #4F7096",
"R  c #4E729D",
"E  c #537197",
"W  c #53729A",
"Q  c #59769C",
"!  c #577A9F",
"~  c #657386",
"^  c #6E7A8D",
"/  c #7A7E86",
"(  c #6B7C94",
")  c #677B98",
"_  c #647D9D",
"`  c #737E91",
"'  c #4876A9",
"]  c #5276A3",
"[  c #5479A5",
"{  c #5C7CA3",
"}  c #547CAB",
"|  c #5A7EAB",
" . c #447ABA",
".. c #507DB2",
"X. c #7D848C",
"o. c #7A8394",
"O. c #788699",
"+. c #7C8698",
"@. c #5E82A7",
"#. c #5781AF",
"$. c #5B81AC",
"%. c #4982BC",
"&. c #5C83B2",
"*. c #5A84B6",
"=. c #5486BC",
"-. c #6382A3",
";. c #6E86A2",
":. c #6284AC",
">. c #7D8DA3",
",. c #728BA9",
"<. c #7E98AF",
"1. c #6687B2",
"2. c #658BB5",
"3. c #6A8CB4",
"4. c #638DBB",
"5. c #6C92BD",
"6. c #7994B2",
"7. c #799ABC",
"8. c #4987C8",
"9. c #548CC6",
"0. c #5C91C8",
"q. c #4A8CD3",
"w. c #5C9CDC",
"e. c #648FC0",
"r. c #6592C4",
"t. c #6B95C4",
"y. c #6797CA",
"u. c #6C9BCB",
"i. c #729BC6",
"p. c #629FDB",
"a. c #77A2CE",
"s. c #67A1D7",
"d. c #75A4D4",
"f. c #78A6D5",
"g. c #7CAAD7",
"h. c #7BAAD9",
"j. c #878385",
"k. c #85858A",
"l. c #8B8A8D",
"z. c #978A88",
"x. c #838995",
"c. c #868A94",
"v. c #8C8D93",
"b. c #838D9D",
"n. c #908F92",
"m. c #8F9093",
"M. c #8E929B",
"N. c #929296",
"B. c #9B9594",
"V. c #94959C",
"C. c #98979C",
"Z. c #9B9A9E",
"A. c #A68F84",
"S. c #B29686",
"D. c #A59691",
"F. c #A29B9D",
"G. c #818FA2",
"H. c #8C94A1",
"J. c #8695A9",
"K. c #9598A2",
"L. c #9D9DA2",
"P. c #829AB7",
"I. c #A19EA3",
"U. c #9CA5AE",
"Y. c #A2A1A6",
"T. c #A7A6AB",
"R. c #AAABAE",
"E. c #A7AEB6",
"W. c #ACACB0",
"Q. c #B1B2B6",
"!. c #B4B5B9",
"~. c #B7B8BB",
"^. c #BBBCBE",
"/. c #C5A68F",
"(. c #C4C0BF",
"). c #9EADC4",
"_. c #A8B8CB",
"`. c #BBBDC1",
"'. c #BCC1C9",
"]. c #C3C3C6",
"[. c #C2C4C8",
"{. c #C7C8CC",
"}. c #C9CACE",
"|. c #CDCED2",
" X c #CFD0D4",
".X c #D2D2D5",
"XX c #D4D5D9",
"oX c #D8D7D9",
"OX c #D9DADD",
"+X c #DDDEE3",
"@X c #DFE0E4",
"#X c #E1E2E6",
"$X c #E4E5EA",
"%X c #E7E8EC",
"&X c #E8E9EE",
"*X c #ECEDF2",
"=X c #EFF0F5",
"-X c #F1F1F6",
";X c #F3F5FA",
/* pixels */
"T.T.T.T.T.T.T.T.T.T.T.T.T.T.T.T.T.T.T.T.T.T.R.I.h h l.B.Y.T.T.T.T.T.T.T.T.T.T.T.T.T.T.T.T.T.T.T.T.T.T.T.T.T.T.T.T.T.T.T.T.T.T.T.",
"T.T.T.T.T.T.T.T.T.T.T.T.T.T.T.T.T.T.T.T.T.T.Y.1 * w e r < h Z.T.T.T.T.T.T.T.T.T.T.T.T.T.T.T.T.T.T.T.T.T.T.T.T.T.T.T.T.T.T.T.T.T.",
"T.T.T.T.T.T.T.T.T.T.T.T.T.T.T.T.T.T.T.T.T.T.Z.& . O @ # w w 9 Y.T.T.T.T.T.T.T.T.T.T.T.T.T.T.T.T.T.T.T.T.T.T.T.T.T.T.T.T.T.T.T.T.",
"T.T.T.T.T.T.T.T.T.T.T.T.T.T.T.T.T.T.T.T.T.T.Y.q = X $ = $ $ * l.T.T.T.T.T.T.T.T.T.T.T.T.T.T.T.T.T.T.T.T.T.T.T.T.T.T.T.T.T.T.T.T.",
"T.T.T.T.T.T.T.T.T.T.T.T.T.T.T.T.T.T.T.T.T.T.U.b M * O @ # $ # 9 T.T.T.T.T.T.T.T.T.T.T.T.T.T.T.T.T.T.T.T.T.T.T.T.T.T.T.T.T.T.T.T.",
"T.T.T.T.T.T.T.T.T.T.T.T.T.T.T.T.T.T.T.T.T.T.R.q y g % O + + + q T.T.T.T.T.T.T.T.T.T.T.T.T.T.T.T.T.T.T.T.T.T.T.T.T.T.T.T.T.T.T.T.",
"T.T.T.T.T.T.T.T.T.T.T.T.T.T.T.T.T.T.T.T.T.T.I.h < x i * = X X j.T.T.T.T.T.T.T.T.T.T.T.T.T.T.T.T.T.T.T.T.T.T.T.T.T.T.T.T.T.T.T.T.",
"T.T.T.T.T.T.T.T.T.T.T.T.T.T.T.T.T.T.T.T.T.T.Z.l m S B g -   > Y.T.T.T.T.T.T.T.T.T.T.T.T.T.T.T.T.T.T.T.T.T.T.T.T.T.T.T.T.T.T.T.T.",
"T.T.T.T.T.T.T.T.T.T.T.T.T.T.T.T.T.T.T.T.T.T.Y.h m S C g * o k.Y.T.T.T.T.T.T.T.T.T.T.T.T.T.T.T.T.T.T.T.T.T.T.T.T.T.T.T.T.T.T.T.T.",
"T.T.T.T.T.T.T.T.T.T.T.T.T.T.T.T.T.T.T.T.T.T.R.D.m B g y N < C.T.T.T.T.T.T.T.T.T.T.T.T.T.T.T.T.T.T.T.T.T.T.T.T.T.T.T.T.T.T.T.T.T.",
"T.T.T.T.T.T.T.T.T.T.T.T.T.T.T.T.T.T.T.T.T.T.T.D.z 9 o c S v h C.T.T.T.T.T.T.T.T.T.T.T.T.T.T.T.T.T.T.T.T.T.T.T.T.T.T.T.R.T.T.T.T.",
"T.T.T.T.T.T.T.T.T.T.T.T.T.T.T.T.T.T.T.T.T.T.T.T.F.I.h B Z b ].|.T.Y.T.T.T.T.T.T.T.T.T.T.T.T.T.T.T.T.T.T.T.T.T.T.T.T.T.T.T.T.T.T.",
"T.T.T.T.T.T.T.T.T.T.T.T.T.T.T.T.T.T.T.T.T.T.T.T.R.Z.8 k /.oX;X;X#XT.L.T.T.T.T.T.T.T.T.T.T.T.T.T.T.T.T.T.T.T.T.T.T.T.T.T.T.T.T.T.",
"T.T.T.T.T.T.T.T.T.T.T.T.T.T.T.T.T.T.T.T.T.T.T.T.T.R.(..X*X;X;X*X@X$XQ.Y.T.T.T.T.T.T.T.T.T.T.T.T.T.T.T.T.T.T.T.T.T.T.T.T.T.T.T.T.",
"T.T.T.T.T.T.T.T.T.T.T.T.T.T.T.T.T.T.T.T.T.T.T.T.I..X-X;X;X;X;X#X=X-X@XL.T.T.T.T.T.T.T.T.T.T.T.T.T.T.T.T.T.T.T.T.T.T.T.T.T.T.T.T.",
"T.T.T.T.T.T.T.T.T.T.T.T.T.T.T.T.T.T.T.T.T.T.T.T.T.$X;X;X;X;X;X@X-X-X*X~.C.T.T.T.T.T.T.T.T.T.T.T.T.T.T.T.T.T.T.T.T.T.T.T.T.T.T.T.",
"T.T.R.T.T.T.T.T.T.T.T.T.T.T.T.T.T.T.T.T.T.T.T.T.T.%X=X$XOX].=XoX*X;X;X.XN.Y.T.T.T.T.T.T.T.T.T.T.T.T.T.T.T.T.T.T.T.T.T.T.T.T.T.T.",
"T.T.T.T.T.T.T.T.T.T.T.T.T.T.T.T.T.T.T.T.T.T.T.T.I.@X~.'.{.m.@X'..X-X;X*X`.I.T.T.T.T.T.T.T.T.T.T.T.T.T.T.T.T.T.T.T.T.T.T.T.T.T.T.",
"T.T.T.T.T.T.T.T.T.T.T.T.T.T.T.T.T.T.T.T.T.T.T.T.L.'.T.$X|.T.$X~.l.+X;X-X%XW.T.T.T.T.T.T.T.T.T.T.T.T.T.T.T.T.T.T.T.T.T.T.T.T.T.T.",
"T.T.T.T.T.T.T.T.T.T.T.T.T.T.T.T.T.T.T.T.T.T.T.T.L.v.8 l.Z.I.+X.Xl.l.*X-X*X.XZ.T.T.T.T.T.T.T.T.T.T.T.T.T.T.T.T.T.T.T.T.T.T.T.T.T.",
"T.T.T.T.T.T.T.T.T.T.T.T.T.T.T.T.T.T.T.T.T.T.T.T.Y.l.Q.q Q.`..XOX!., I.*X&X#X~.Z.T.T.T.T.T.T.T.T.T.T.T.T.T.T.T.T.T.T.T.T.T.T.T.T.",
"T.T.T.T.T.T.T.T.T.T.T.T.T.T.T.T.T.T.T.T.T.T.T.T.z.9 oX|.|.$X$X$X].0 > {.&X.X^.V.Y.T.T.T.T.T.T.T.T.T.T.T.T.T.T.T.T.T.T.T.T.T.T.T.",
"T.T.T.T.T.T.T.T.T.T.T.T.R.T.T.T.T.T.T.T.T.T.T.B.p < ~.&X+X*X-X&X.Xk., m.{.OXOXT.C.T.T.T.T.T.T.T.T.T.T.T.T.T.T.T.T.T.T.T.T.T.T.T.",
"T.T.T.T.T.T.T.T.T.T.T.T.T.T.T.T.T.T.T.T.T.T.T.z.y a Q.&X@X$X*X*X.XY.8 N..X(.l a I.T.T.T.T.T.T.T.T.T.T.T.T.W.T.T.T.T.T.T.T.T.T.T.",
"T.T.T.T.T.T.T.T.T.T.T.T.T.T.T.T.T.T.T.T.T.T.T.Z.u s `.$X$X#X&X$X.XR.0 I.B.p N j L.T.T.T.T.T.T.T.T.T.T.T.T.W.T.T.T.T.T.T.T.T.T.T.",
"T.T.T.T.T.T.T.T.T.T.T.T.T.T.T.T.T.T.T.T.T.T.T.T.I.C.[.$X$X$X$X$XOXQ.l.L.h C S j Z.T.T.T.T.T.T.T.T.T.T.T.T.T.T.T.T.T.T.T.T.T.T.T.",
"T.T.T.T.T.T.T.T.T.T.T.T.T.T.T.T.T.T.T.T.T.T.T.T.T.Y.|.+X*X$X$X$X@X}.I.Z.S.Z S g L.T.T.T.T.T.T.T.T.T.T.T.T.T.T.T.T.T.T.T.T.T.T.T.",
"T.T.T.T.T.T.T.T.T.T.T.T.T.T.T.T.T.T.T.T.T.T.T.T.T.L.[.+X$X#XXX+X$X XW.m.D.C S z F.T.T.T.T.T.T.T.T.T.T.T.T.T.T.T.T.T.T.T.T.T.T.T.",
"T.T.T.T.T.T.T.T.T.T.T.T.T.T.T.T.T.T.T.T.T.T.T.T.T.L.C.+X+X$X+X}.|.|.].N.N.B D b L.T.T.T.T.T.T.T.T.T.T.T.T.T.T.T.T.T.T.T.T.T.T.T.",
"T.T.T.T.T.T.R.T.T.T.T.T.T.T.T.T.T.T.T.T.T.T.T.T.T.Y.k.`.|.XXXX.X}.Q.m.0 C.z D n I.T.T.T.T.T.T.T.T.T.T.T.T.T.T.T.T.T.T.T.T.T.T.T.",
"T.T.T.T.T.T.T.T.T.T.T.T.T.T.T.T.T.T.T.T.T.T.T.T.T.T.k.: 3 0 7 : 7 K 6 6 x.S.D n Y.T.T.T.T.T.T.T.T.T.T.T.T.T.T.T.T.T.T.T.T.T.T.T.",
"T.T.T.T.T.T.T.T.T.T.T.T.T.T.T.T.T.T.T.T.T.T.T.T.T.T.V.5 2 | 5.L 5.3.$.T o.A.A n Y.T.T.T.T.T.T.T.T.T.T.T.T.T.T.T.T.T.T.T.T.T.T.T.",
"T.T.T.T.T.T.T.T.T.T.T.T.T.T.T.T.T.T.T.T.T.T.T.T.T.T.V.L 6 5.u.! :.5.:.Q ` A.A b I.T.T.T.T.T.T.T.T.T.T.T.T.T.T.T.T.T.T.T.T.T.T.T.",
"T.T.T.T.T.T.T.T.T.T.T.T.T.T.T.T.T.T.T.T.T.T.T.T.T.T.M.E 4 3.f.5.Q 1.:.E o.l Z n F.T.T.T.T.T.T.T.T.T.T.T.T.T.T.T.T.T.T.T.T.T.T.T.",
"T.T.T.T.T.T.T.T.T.T.T.T.T.T.T.T.T.T.T.T.T.T.T.T.T.T.H.4.6 6 a.d.1.{ E L k.b Z B l F.T.T.T.T.T.T.T.T.T.T.T.T.T.T.T.T.T.T.T.T.T.T.",
"T.T.T.T.T.T.T.T.T.T.T.T.T.T.T.T.T.T.T.T.T.T.T.T.T.T.>.d.4.4 i.d.t.&.] 5 k.m C V x d I.T.T.T.T.T.T.T.T.T.T.T.T.T.T.T.T.T.T.T.T.T.",
"T.T.T.T.T.T.T.T.T.T.T.T.T.T.T.T.T.T.T.T.T.T.T.T.T.Y.6.f.u.H i.f.a.e.H 2 v.p m x u < B.T.T.T.T.T.T.T.T.T.T.T.T.T.T.T.T.T.T.T.T.T.",
"T.T.T.T.T.T.T.T.T.T.T.T.T.T.T.T.T.T.T.T.T.T.T.T.T.K.i.h.u.E 2.d.d.Q ; Y +.A.p u t j.I.T.T.T.T.T.T.T.T.T.T.T.T.T.T.T.T.T.T.T.T.T.",
"T.T.T.T.T.T.T.T.T.T.T.T.T.T.T.T.T.T.T.T.T.T.T.T.T.J.a.h.u.#.! a.| 5 E [ ) L.f u n.I.T.T.T.T.T.T.T.T.T.T.T.T.T.T.T.T.T.T.W.T.T.T.",
"T.T.T.T.T.T.W.T.T.T.T.T.T.T.T.T.T.T.T.T.T.T.T.T.T.6.).h.u.*.T @.F Q e.| Q K.I.L.T.T.T.T.T.T.T.T.T.T.T.T.T.T.T.T.T.T.T.T.T.T.T.T.",
"T.T.T.T.T.T.T.T.T.T.T.T.T.T.T.T.T.T.T.T.T.T.T.T.U.<.g.h.r.4.E 2 Q t.t.| Q M.T.T.T.T.T.T.T.T.T.T.T.T.T.T.T.T.T.T.T.T.T.T.T.T.T.T.",
"T.T.T.T.T.T.T.T.T.T.T.T.T.T.T.T.T.T.T.T.T.T.T.T.L.6.g.f.4.4.;.X.1.u.u.| W c.T.T.T.T.T.T.T.T.T.T.T.T.T.T.T.T.T.T.T.T.T.T.T.T.T.T.",
"T.T.T.T.T.T.T.T.T.T.T.T.T.T.T.T.T.T.T.T.T.T.T.T.C.7.f.u.4.:.V.I.,.u.y.| Y ` T.T.T.T.T.T.T.T.T.T.T.T.T.T.T.T.T.T.T.T.T.T.T.T.T.T.",
"T.T.T.T.T.T.T.T.T.T.T.T.T.T.T.T.T.T.T.T.T.T.T.Y.J.f.f.y.r.>.T.T.G.t.u.4.Y P I.I.T.T.T.T.T.T.T.T.T.T.T.T.T.T.T.T.T.T.T.T.T.T.T.T.",
"T.T.T.T.T.T.T.T.T.T.T.T.T.T.T.T.T.T.T.T.T.T.T.V.7.h.s.*.@.K.T.T.I.1.u.| ] Y ^ F.T.T.T.T.T.T.T.T.T.T.T.T.T.T.T.T.T.T.T.T.T.T.T.T.",
"T.T.T.T.T.T.T.T.T.T.T.T.T.T.T.T.T.T.T.T.T.T.T.b.u.u.&.! ~ Y.T.T.I.G.r.r.R R F M.T.T.T.T.T.T.T.T.T.T.T.T.T.T.T.T.T.T.T.T.T.T.T.T.",
"T.T.T.T.T.T.T.T.T.T.T.T.T.T.T.T.T.T.T.T.T.T.T.H.u.u.#.[ ) Y.T.T.R.I.) | *.| W ) I.R.T.T.T.T.T.T.T.T.T.T.T.T.T.T.T.T.T.T.T.T.T.T.",
"T.T.T.T.T.T.T.T.T.T.T.T.T.T.T.T.T.T.T.T.T.T.T.L.5.s.r.#.O.T.T.T.T.T.H._ | ..| ] ` T.T.T.T.T.T.T.T.T.T.T.T.T.T.T.T.T.T.T.T.T.T.T.",
"T.T.T.T.T.T.T.T.T.T.T.T.T.T.T.T.T.T.T.T.T.T.T.L.4.s.0.$.V.T.T.T.T.T.T.L.` | } } Q V.T.T.T.T.T.T.T.T.T.T.T.T.T.T.T.T.T.T.T.T.T.T.",
"T.T.T.T.T.T.T.T.T.T.T.T.T.T.T.T.T.T.T.T.T.T.T.L.5.s.0.#.K.T.T.T.T.T.T.T.J.| [ ] ] ~ K.Y.T.T.T.T.T.T.T.T.T.T.T.T.T.T.T.T.T.T.T.T.",
"T.T.T.T.T.T.T.T.T.T.T.T.T.T.T.T.T.T.T.T.T.T.T.K.y.p.0.@.K.T.T.T.T.T.T.T.I._ | ] ] U ~ I.T.T.T.T.T.T.T.T.T.T.W.T.T.T.T.T.T.T.T.T.",
"T.T.T.T.W.T.T.T.T.T.T.T.T.T.T.T.T.T.T.T.T.T.T.H.0.s.9.@.L.T.T.T.T.T.T.T.R.L.{ } U R Y x.T.T.T.T.T.T.T.T.T.T.T.T.T.T.T.T.T.T.T.T.",
"T.T.T.T.T.T.T.T.T.T.T.T.T.T.T.T.T.T.T.T.T.T.T.>.s.w.=.-.Y.T.T.T.T.T.T.T.T.T.o.} U J J v.T.T.T.T.T.T.T.T.T.T.T.T.T.T.T.T.T.T.T.T.",
"T.T.T.T.T.T.T.T.T.T.T.T.T.T.T.T.T.T.T.T.T.T.Y.,.s.q.#.O.T.T.T.T.T.T.T.T.T.T.K.L I F F ` I.T.T.T.T.T.T.T.T.T.T.T.T.T.T.T.T.T.T.T.",
"T.T.T.T.T.T.T.T.T.T.T.T.T.T.T.T.T.T.T.T.T.T.Y.2.w.9.*.M.T.T.T.T.T.T.T.T.T.T.T.v.K F Y F ^ V.T.T.T.T.T.T.T.T.T.T.T.T.T.T.T.T.T.T.",
"T.T.T.T.T.T.T.T.T.T.T.T.T.T.T.T.T.T.T.T.T.T.C.r.w.%.-.L.T.T.T.T.T.T.T.T.T.T.T.I.( ] I I W >.V.T.T.T.T.T.T.T.T.T.T.T.T.T.T.T.T.T.",
"T.T.T.T.T.T.T.T.T.T.T.T.T.T.T.T.T.T.T.T.T.Y.^ =.8.' P L.T.T.T.T.T.T.T.T.T.T.T.T.` F F F ..).l.T.T.T.T.T.T.T.T.T.T.T.T.T.T.T.T.T.",
"T.W.T.T.T.T.T.T.T.T.T.T.T.T.T.T.T.T.T.T.T.b.G U ' I W V.T.T.T.T.T.T.T.T.T.T.T.T.`  . . .| L.l.T.T.T.T.T.W.T.T.T.T.T.T.T.T.T.T.T.",
"T.T.T.T.T.T.T.T.T.T.T.T.T.T.T.T.T.T.T.T.T.M.T ' U F / I.T.T.T.T.T.T.T.T.T.T.T.I.| q.=.P.V.l.I.T.T.T.T.T.T.T.T.T.T.T.T.T.T.T.T.T.",
"T.T.T.T.T.T.T.T.T.T.T.T.T.T.T.T.Y.L.L.C.+.) J I } ] c.T.T.T.T.T.T.T.T.T.T.T.I.` ' *._.v.N.T.W.T.T.T.T.T.T.T.T.T.T.T.T.T.T.T.T.T.",
"T.T.T.T.T.T.T.T.T.T.T.T.T.T.T.T.M.,.&... .q.q...@.1.b.T.T.T.T.T.T.T.T.T.T.M._  . .P.L.C.T.T.T.T.T.T.T.T.T.T.T.T.T.T.T.T.T.T.T.T.",
"T.T.T.T.T.T.T.T.T.T.T.T.T.T.T.T.N.K.P.i.8.8.8.9._.'.E.L.T.T.T.T.T.T.T.T.T.` 6.P.U.K.K.T.T.T.T.T.T.T.T.T.T.T.T.T.T.T.T.T.T.T.T.T.",
"T.T.T.T.T.T.T.T.T.T.T.T.T.T.T.T.T.C.l.Z.H.O.<.J.'.'.U.Z.T.T.T.T.T.T.T.T.T.N.j.N.F.Y.T.T.T.T.T.T.T.T.T.T.T.T.T.T.T.T.T.T.T.T.T.T.",
"T.T.T.T.T.T.T.T.T.T.T.T.T.T.T.T.T.T.T.Z.l.X.k.k.X.q q Z.T.T.T.T.T.T.T.T.T.T.Y.T.T.T.T.T.T.T.T.T.T.T.T.T.T.T.T.T.T.T.T.T.T.T.T.T."
};
