/* XPM */
static char *_1721606552[] = {
/* columns rows colors chars-per-pixel */
"64 64 236 2 ",
"   c #1F1D1D",
".  c #211F22",
"X  c #262425",
"o  c #252429",
"O  c #28262B",
"+  c #2C2B2E",
"@  c #362D2B",
"#  c #373130",
"$  c #353334",
"%  c #3C393B",
"&  c #592E1D",
"*  c #772F1C",
"=  c #53332C",
"-  c #453833",
";  c #6B3925",
":  c #743724",
">  c #50423E",
",  c #774935",
"<  c #3E3D42",
"1  c #413F40",
"2  c #3B597C",
"3  c #454344",
"4  c #494546",
"5  c #4D4B4C",
"6  c #574C48",
"7  c #514E50",
"8  c #545253",
"9  c #595556",
"0  c #5D5B5C",
"q  c #695349",
"w  c #6A534F",
"e  c #7A5849",
"r  c #685B56",
"t  c #5F605F",
"y  c #786358",
"u  c #4D5C6F",
"i  c #615F60",
"p  c #586A77",
"a  c #646364",
"s  c #686466",
"d  c #6C6A6C",
"f  c #75706E",
"g  c #6C6E73",
"h  c #747374",
"j  c #787579",
"k  c #7C7A7C",
"l  c #8F3C1F",
"z  c #813D27",
"x  c #914D2F",
"c  c #9A5838",
"v  c #A85B2E",
"b  c #BB5629",
"n  c #AE5230",
"m  c #B76631",
"M  c #CB5E2B",
"N  c #CA6A34",
"B  c #D26934",
"V  c #D77736",
"C  c #E16F2F",
"Z  c #E57B36",
"A  c #8A5949",
"S  c #94694D",
"D  c #8A6656",
"F  c #B06F4D",
"G  c #BB764B",
"H  c #A77759",
"J  c #89746A",
"K  c #90756E",
"L  c #827C7D",
"P  c #887C7A",
"I  c #A07966",
"U  c #CA7A4C",
"Y  c #D9803E",
"T  c #EB863A",
"R  c #F5903D",
"E  c #BF865C",
"W  c #958278",
"Q  c #AD8A6F",
"!  c #AA8878",
"~  c #B68C75",
"^  c #D3844D",
"/  c #EC9244",
"(  c #F69742",
")  c #CB9670",
"_  c #D3A27E",
"`  c #3F699A",
"'  c #3E6EA1",
"]  c #46658D",
"[  c #546D8C",
"{  c #56718B",
"}  c #456A94",
"|  c #4A719D",
" . c #57769A",
".. c #6A7788",
"X. c #797D87",
"o. c #657C98",
"O. c #737D91",
"+. c #4975A7",
"@. c #547BA4",
"#. c #507EB2",
"$. c #817E81",
"%. c #7A828F",
"&. c #6B829B",
"*. c #788697",
"=. c #73869B",
"-. c #5B84AB",
";. c #4C81B9",
":. c #5887B8",
">. c #6889A8",
",. c #798EA4",
"<. c #6C91AE",
"1. c #7C93A9",
"2. c #658DB4",
"3. c #6993B8",
"4. c #7598B7",
"5. c #588DC2",
"6. c #608EC0",
"7. c #6696C2",
"8. c #6B9AC3",
"9. c #719EC4",
"0. c #7BA2C3",
"q. c #76A4C8",
"w. c #79AACF",
"e. c #7CAACD",
"r. c #838385",
"t. c #898586",
"y. c #85858A",
"u. c #8B8A8C",
"i. c #9A8983",
"p. c #928C8C",
"a. c #858B97",
"s. c #8E8E91",
"d. c #85909E",
"f. c #8D929C",
"g. c #949191",
"h. c #939294",
"j. c #999697",
"k. c #95959A",
"l. c #99979A",
"z. c #9C9A9C",
"x. c #AE9586",
"c. c #A59B97",
"v. c #A29B9C",
"b. c #B5A994",
"n. c #8C96A2",
"m. c #8696A8",
"M. c #959AA3",
"N. c #959BA5",
"B. c #9D9DA3",
"V. c #869DB4",
"C. c #A09FA3",
"Z. c #9FA0A7",
"A. c #9DA2AB",
"S. c #87A3BA",
"D. c #94A3B4",
"F. c #99A8B8",
"G. c #A3A2A5",
"H. c #ABA5A4",
"J. c #A7A6AB",
"K. c #A9A7AA",
"L. c #ABABAD",
"P. c #B5ACA7",
"I. c #AEAEB2",
"U. c #A1ABB8",
"Y. c #B0AFB2",
"T. c #A9B1BB",
"R. c #B3B3B4",
"E. c #B7B7B9",
"W. c #B5B5BA",
"Q. c #B9B6B9",
"!. c #BCBBBD",
"~. c #C9A389",
"^. c #D9A98C",
"/. c #D1AD98",
"(. c #E7BA98",
"). c #CFB0A4",
"_. c #C3BCB9",
"`. c #F5C49C",
"'. c #D0C1B5",
"]. c #F5C7A3",
"[. c #8AAAC5",
"{. c #84ADCC",
"}. c #8FAEC8",
"|. c #94B3CB",
" X c #98B2C9",
".X c #83AED1",
"XX c #85B2D3",
"oX c #8BB4D4",
"OX c #8BB8D7",
"+X c #88B6D9",
"@X c #8DBADA",
"#X c #99BBD6",
"$X c #93BCDB",
"%X c #A2B2C3",
"&X c #BEBEC0",
"*X c #A2BED4",
"=X c #8FBDE0",
"-X c #C2BFC2",
";X c #97C0DF",
":X c #9CC1DD",
">X c #BFC1C3",
",X c #A5C4DC",
"<X c #9CC5E4",
"1X c #9DC8E7",
"2X c #A1C6E2",
"3X c #A8C7E2",
"4X c #A5CAE5",
"5X c #AACBE5",
"6X c #A4CCEB",
"7X c #AACEEA",
"8X c #A5D0EC",
"9X c #ADD2ED",
"0X c #B1D4EE",
"qX c #ABD2F0",
"wX c #B3D6F0",
"eX c #C4C3C5",
"rX c #C7C7CA",
"tX c #CCCBCD",
"yX c #D2CECD",
"uX c #C7CCD4",
"iX c #CECED1",
"pX c #D4D3D4",
"aX c #D7D7D8",
"sX c #DBDBDC",
"dX c #E1DEDC",
"fX c #DFDFE1",
"gX c #E1DFE1",
"hX c #DFE1E2",
"jX c #E3E3E4",
"kX c #E8E8E8",
"lX c #EBECEC",
"zX c #F0EEEF",
"xX c #EFF0F1",
"cX c #F3F3F3",
"vX c #F7F8F8",
"bX c #FAFBFB",
/* pixels */
"J.J.J.J.J.J.J.J.J.J.J.J.J.J.J.J.L.K.K.J.J.J.J.J.J.J.J.J.J.J.J.J.J.J.K.K.J.J.J.J.J.J.J.J.J.K.J.J.J.J.J.J.J.J.J.J.J.J.J.J.J.J.J.J.",
"J.J.J.J.J.G.Z.l.h.f.s.s.y.h.C.C.G.K.J.J.G.J.J.J.G.J.J.J.J.K.J.J.J.J.K.K.J.J.J.J.J.J.J.J.J.J.K.K.J.L.J.J.J.J.J.J.J.J.G.H.J.J.J.J.",
"J.J.J.J.k.d 9 7 5 5 3 - = = 9 f h j k %.r.y.%.k k k $.r.y.u.u.s.k.C.G.Z.K.K.J.J.J.J.J.J.J.H.H.c.c.v.v.v.z.z.z.z.z.v.c.c.c.C.J.J.",
"J.J.G.j 5 % 1 < 5 5 3 = : * = 7 0 7 8 8 9 0 t a d f h k $.L L y A S S D u.A.L.K.J.J.J.J.J.x.Y Y V H F U U ) ) G F I G U U i.J.J.",
"J.G.j 3 < < 1 9 $.$.D c A x 6 9 0 5 7 > 3 8 8 9 9 8 0 r a 9 > x v m m v c H.>XW.K.K.J.J.K.b.~._ ) S m V ^ _ ) m F S ! ~./.H.J.J.",
"J.z.a s 9 i 8 h $.$.$.$.I K g $.g.h d 5 d g W p.j g p.r.r.w , l v x : x x D v.Q.T.J.J.J.G.j.c.h.J D J H H W Q I J y J c.k.C.J.J.",
"J.s.g y.k g.d u.W.W.P.$.$.$.v.J.K.t.k t h.z.K.R.g.z._.K.H., , z ; & , & ; v W z.L.J.J.J.J.rXsXuXt.F.5X,X*XF.,X,X2X,.y.uXuXI.J.J.",
"J.y.t.z.h.z.j G.-XuX$.c n F H.-XL.u.r.d K.L.W.!.j.K.rXR.W.q ; ; , , S Q , x _.L.u.Z.J.J.J.rXkXuXN.,X9X7X,X X,X5X7X,Xd.uXaXW.J.J.",
"K.s.Z.K.z.h.h Q.uXiX$.M n F -XsXz.j.y.k L.R.!.&Xj.Z.!.'.!.J & A _ `.`.`.Q A dX>XZ.Z.J.J.J.>XaXT.%X0X0X7X,X X5X7X9X5XA.A.rXI.J.J.",
"K.h.L.G.j.L j rXaXaX~ B U U iXgXR.L.h.u.L.L.R.P.z.>XaXaXeXj.> e q Q Q q D i.cX'.rXrXL.J.J.W.%XT.5X0X0X5X,X X5X,X0X0X,XM.A.J.J.J.",
"G.l.W.L.r.t.t.-X-XyX).^._ /.gXgXeXR.G.eXkXlXlXkXpXkXzXzXjXj.q J W r y W f g.vXeXaXaXJ.J.G.Z.F.,XwXwX0X4X:XF.,X,X0X0X5X:XN.f.K.J.",
"K.&XaX'.W i.H.aXzXzXzXzXzXzXzXzXsXeXeX&XkXcXcXcXxXlXlXjXaXR.e b./._ b.(.Q c.xX!.hXhXL.J.G.U.,XwXwX0XwX4X|.S.:X,X9X9X9X4X|.A.A.J.",
"K.!.aXP.! x.b._.pX-XaX-XiXyXyXaXpXyXtXeX&XeXrXrXtXtXtXrX!.R.W Q ^._ ^.(.b.'.fX!.xXhXJ.J.F.,X9XwXwX0X0X5X=.=.}.4X7X7X8X4X:XF.A.L.",
"J.L.&X'.b.P.P.dXzXzXzXzXjXlXgXgXsXsXaXsXsXsXsXfXaXsXsXdXsXsXpX/.`._ /.].'.'.tXeXcXsXJ.J.U.3X0XwXwX0X9X:X1.%.S.:X5X7X0X5X:X|.A.A.",
"J.J.A.L.-X-X-XzXzXzXzXzXzXzXzXQ.z.sXkXlXkXkXlXjXtX!.dXlXlXlXsXR._ _ /.(.'.lXpXyXhXtXK.J.U.7X0X0X0X9X4X:XD.A.S.4X7X0X9X5X2X|.A.L.",
"J.J.J.L.v.v.C.Z.Q.-X-XiXiXaXgX$.k K.rXsXtXz.v.tXj.d I.jXlXsXg.h X.s.z.z.G.pXkX_.tXE.J.J.%X9X0X0XwX0X5X:XF.A.S.:X8X0X0X8X2X|.A.L.",
"J.J.Z.L.W.G.z.z.G.L.R.Q.!.!.Q.Q.Y.P.Y.Y.C.X.t._.G.G.H.pXsXL.8 3 3 3 3 5 5 a rXaXQ.W.J.J.%X5X0XwXwXwX9X:XS.B.}.7XqX9X9X7X2X|.U.G.",
"J.J.Z.j.v.v.u.p.h.L t.P j L L L L s.j.s.t.$.k X.g.I.z.R.R.t + $ $ $ $ $ $ > j.tXC.C.J.J.%X3X0XwXwX0X9X:XS.A.[.6X7XwXqX7X2X}.A.J.",
"J.J.J.G.j.z.G.C.G.$.t.r.L k $.L $.$.y.s.u.s.p.k k g.R.>XB.u.a > 3 3 4 5 7 k s.fXtXC.J.L.%X3X0X0X0X0X9X:XV.A.[.2XqXqXqX6X<X}.A.J.",
"J.J.J.J.G.G.G.K.J.G.C.C.C.z.B.C.B.C.z.l.l.j.h.s.G.W.jXxX!.k G.I.z.h.h.G.L.h.r.sXvXjXC.J.U.2X9X0X0X0X5X:Xm.B.S.:XqXqX7X6X<X[.B.J.",
"J.J.J.J.K.J.J.J.J.J.J.J.J.J.J.J.J.J.J.J.J.J.J.J.L.aXxXvXlXG.h.G.Z.K.L.R.G.u.!.cXzXzXW.C.U.3X7X9X0X9X4X|.m.G.S.,X6XqX7X6X$XS.B.J.",
"J.J.J.K.J.J.J.J.J.J.J.J.J.J.J.J.J.J.J.J.J.J.J.G.!.jXvXvXcXiXtXrX!.!.>XrXyX!.gXcXzXzXuXJ.U.#X5XqX9X7X<X[.m.J.S.$X6X7X6X6X$XV.G.J.",
"J.K.J.J.J.J.J.J.J.J.J.J.J.J.J.J.J.J.J.J.J.J.J.J.iXxXcXcXpX&XrXtXdXkXcXvXcXeXiXfXzXxXsXC.C.}.$X2X4X<X#X4.f.G.F.oX<X2X2X$X0.m.J.J.",
"J.J.J.J.J.J.J.K.J.J.J.J.J.J.J.J.J.J.J.J.J.J.J.R.xXcXxXsXR.G.A.'.pXtXrXpXiXY.C.iXxXlXjXI.J.S..XoXOX.X0.>.d.J.F.{.{.oXoX{.<.d.J.J.",
"J.J.J.J.J.J.J.J.J.J.J.J.J.J.J.J.J.J.J.J.J.J.C.tXbXbXkXtXG.L.eXhXyXL.tXcXzX>XM.W.jXvXbXpXJ.F.+X@X.X{.9.<.M.J.U.$XoXXX.Xe.<.n.K.K.",
"J.J.J.J.J.J.J.J.J.J.J.J.J.J.J.J.J.J.J.J.J.K.J.-XjXzXsXJ.u.I.yXlXhXtXjXbXcX'.s.z.iXzXlX-XC.F.<X<X$X$XoX9.B.J.A.:X6X<X=X@X9.M.K.K.",
"J.J.J.J.J.J.J.J.J.J.J.J.J.J.J.J.J.J.J.J.K.K.H.yXcXjX-X$.g L.tXlXxXcXvXbXlXE.s.a Y.jXcXgXG.%X1X6X6X6X$XS.B.J.A.$X6X6X6X<X{.m.J.J.",
"J.J.J.J.J.I.J.J.J.J.J.J.I.J.J.J.J.J.J.J.H.H.H.yXlXkXQ.a f L.pXlXvXbXbXbXlXQ.u.8 j.dXcXkXY.%X1X=X<X=X$X4.B.J.J.#X6X$X=X<XoXN.G.J.",
"J.J.J.J.K.J.J.J.J.J.J.J.J.J.J.J.J.J.J.J.J.J.C.dXkXjXR.s.t.W.sXcXbXbXbXvXlX'.%.t s.sXlXyXP.*XqXqXqX<X$X4.M.C.L.*X6XqX6X6X#XD.J.J.",
"J.J.J.J.J.J.J.J.J.J.J.J.J.J.J.K.J.J.J.J.J.J.L.lXbXlXG.z.f.L.jXvXbXvXbXvXlX_.s.%.k.jXbXxXY.#X6XqXqX6X#X4.M.L.L.*X6XqX6X6X#XV.J.J.",
"J.J.J.J.J.J.J.J.J.J.J.J.J.J.J.J.J.J.L.J.J.J.W.cXbXlXG.h.j.G.sXcXvXvXvXvXlX&Xs.<.n.jXbXcX&X+X=XqXqX<X.Xo.M.C.J. X1X1X2X=XoX,.J.J.",
"J.K.J.J.J.J.J.K.J.J.J.J.J.J.J.J.J.J.J.J.J.J.I.jXbXjXz.s.z.G.tXlXcXcXcXxXhXW.u.,.a.iXzXgXJ.#X=X$X=X$X.Xo.M.J.J.[.+X=XoX+X{.m.C.J.",
"J.J.K.J.J.J.J.J.J.J.J.J.J.J.J.J.J.J.L.J.J.J.Y.pXkXdXL.u.k.R.tXfXkXlXlXkXaX!.u.*.%.tXlXkX!.|.<X1X1X$X4.>.B.U.J.V.oX+X@X=Xq.=.Z.J.",
"J.J.J.J.J.J.J.J.J.J.J.J.J.J.J.J.J.J.J.J.J.J.I.kXzXdXR.*.h.R.>XeXpXaXaXiX!.E.h.r.u.tXxXkX!.S.|.OX@XXX8.1.A.J.J.{.XX+X@XXX3.,.C.J.",
"J.J.J.J.J.J.J.J.J.J.J.J.J.J.J.J.J.J.J.J.J.J.I.lXcXkXR.h u.W.G.W I.W.L.%.W !.z.L x.pXxXkX!.S.0.oXOXOX0.&.J.J.B.oX=X+X.Xe.3.d.J.J.",
"J.J.J.J.J.J.J.J.J.J.J.J.J.J.J.J.J.J.J.J.J.J.L.hXcXkXb.d h B.G.k L.!.E.W L.R.p.W ~ pXcXxXW.F.oXoXOX{.4...B.J.J.[..Xe.4.<.o.n.J.J.",
"K.J.J.J.J.J.J.J.J.J.J.J.I.J.J.J.J.J.J.J.J.J.J.hXcXjXc.Q u.eXR.s.tXhXuXW z.eXL.W ^.pXcXkXI.J.D.e.q.<.[ ..G.J.J.F.w.e.3.>...B.J.J.",
"J.J.J.J.J.J.J.J.J.K.J.J.J.J.J.J.J.J.J.J.J.J.J.tXfXtXc.~ W C.n...N.!.T.%.d.F.h W ~.!.kXsXJ.K.A.S.V.1.m.M.G.J.J.J.S.V.V.V.n.G.J.J.",
"J.J.J.I.J.J.J.J.J.I.J.J.J.J.J.J.J.J.J.J.J.J.J.eXsXrXz.W h -.9.3.3.<.&.<.8.w.q.&.W Z.rXrXZ.K.J.J.U.J.J.J.J.J.J.J.I.J.J.J.J.J.J.J.",
"J.J.J.J.J.J.J.J.J.J.J.J.J.J.J.K.J.J.J.J.J.J.K.sXvXkXI.%. .q.w.q.8.-.-.-.8.w.w.<.a.tXcXcXW.J.J.J.G.G.J.J.J.J.J.J.J.J.J.J.J.J.J.J.",
"J.J.J.J.J.J.J.J.J.J.J.J.J.J.J.J.L.J.J.J.J.J.L.sXkXR.K.n.3.q.e.9.-.{ 2 -.-.9.e.0.L.z.pXkXR.W J D D A D J s.G.K.L.J.J.J.J.J.J.J.J.",
"J.J.J.J.J.J.J.J.J.J.J.J.J.J.J.J.J.J.J.J.J.J.J.uXpXC.W.D.q.XX{.9.2 ..p 2 -.3.OX;XI.z.K.pXW c m N B U N b c A g.v.J.J.J.J.J.J.J.J.",
"J.J.J.J.J.J.J.J.J.J.J.J.J.J.J.J.J.J.J.J.J.J.G.Z.J.h.L.*.4.oXOXe.-.f.h.{ :.e.;XXXn.u.k W m V Y T T T Z Z B b z X.J.K.K.J.L.J.J.J.",
"J.J.J.J.J.J.J.J.J.J.J.J.J.J.J.J.J.J.J.J.J.K.K.G.C.C.G.*.9.OXOXq.&.N.A.p ;.q.;X;Xd.J c M Y R R ( ( ( R Z Z B M l X.K.K.J.J.J.J.J.",
"J.J.J.J.J.J.J.J.J.J.L.J.J.J.J.J.J.J.J.J.J.J.J.K.J.J.J.*.e.$XOX0.&.G.G.%.;.8.;Xe.$.c M V T R ( ( ( ( ( R Z C B n z h.J.J.J.J.J.J.",
"J.J.J.J.J.J.J.J.J.J.J.J.J.J.J.J.J.J.J.J.J.J.J.J.J.J.J.=.{.@XOX9.d.G.K.a.+.3.;XXXy b M T R R ( / / / / / Z C M M l y G.J.J.J.J.J.",
"J.J.J.J.J.J.J.J.J.J.J.J.J.J.J.J.J.J.J.J.J.J.J.J.J.J.J.=.{.OX@X4.z.K.K.M.| :.e.e.y b B V G E G E H S A c c b M n l : L L.J.J.J.J.",
"J.J.J.J.J.J.J.J.J.J.J.J.J.J.J.J.J.J.J.J.K.J.J.J.J.J.J.=.XXOX+X1.G.G.K.A.&.:.;X;XJ v c D y r > > q 6 - # - = ; z z * r K.J.J.J.J.",
"J.J.J.J.J.J.J.J.J.J.J.J.L.J.J.J.J.J.J.J.J.J.J.J.J.J.J.=.+X.X.X,.J.J.K.G.&.;.e.$XV.e q 8 a + O o X O o o o O + - = & > f u.G.K.J.",
"I.J.J.J.J.J.J.J.J.J.J.J.J.J.J.J.J.J.J.L.J.J.J.J.J.J.N.o.9.2.9.d.J.J.J.J...;.w.<X,.9 k rXu.+ o o X X o X o O +   @ @ > 0 8 B.J.J.",
"J.J.J.J.L.J.J.J.J.J.J.J.J.J.J.J.J.J.J.J.J.J.J.J.J.J.J.o.9.9.@.a.J.J.G.K...} 9.w.p > !.cX!.+ o o o o o o o O 8 8 @ @ - 9 h h.J.J.",
"J.J.J.J.J.J.J.J.J.J.J.J.J.J.J.J.J.J.J.J.J.J.J.J.J.J.J.=.4.2.@.f.J.J.K.J.a.} 8.9.u 5 G.A.a o o o o o o o o O h l.X - 6 s h u.J.J.",
"J.J.J.J.J.J.J.J.J.J.J.J.J.J.J.J.J.J.J.J.J.J.J.J.J.J.K.,.8.3.@.B.J.J.J.J.X.| q.w.p 7 3 $ o o o o o o o o o o s %.X - 4 h a r.K.K.",
"J.J.J.J.J.J.J.J.J.J.J.J.J.J.J.J.J.J.J.J.J.J.J.J.J.J.C.>.7.8.2.C.J.J.J.J.*.| 9.w.p 5 % o o o o o o o o o o o < <   @ 4 a 8 u.J.K.",
"J.J.J.J.J.J.J.J.J.J.J.J.J.J.J.J.J.J.J.J.J.J.J.J.J.J.C.o.5.7.>.C.J.J.J.J.a.` 5.q.{ 5 < o o o o o o o o o o O + .   X 3 9 3 u.J.J.",
"J.J.J.J.J.J.J.J.J.J.J.J.J.J.L.J.J.L.J.J.J.J.J.J.J.J.C.o.:.6.>.G.J.J.J.J.f.u ;.7. .3 < o o o o o o o o o o o O . X - f j %.z.J.J.",
"J.J.J.J.J.J.J.J.J.J.J.J.J.J.J.J.J.J.J.J.J.J.J.J.J.J.f.+.:.:.O.J.J.J.J.J.A.o.#.:.o.> % X X o o o o o o o o O O + $ k G.J.J.J.J.J.",
"J.J.J.J.J.J.J.L.J.J.J.J.J.J.J.J.J.J.J.J.J.J.J.J.J.J.O.#.:.#.o.G.J.J.J.J.k.| ;.:.;.g 3 + o o o o o o o o o o $ 3 a Z.J.J.J.J.J.J.",
"J.J.J.J.J.J.J.J.J.J.J.J.J.J.J.J.J.J.J.J.J.J.J.J.J.J.a.| +.+. .C.J.J.J.J.a.` } +.} u.h 8 % o o o o o o + + $ 4 r z.J.J.J.J.J.J.J.",
"L.J.J.J.J.J.J.J.L.J.J.J.L.J.J.J.J.J.J.J.J.J.L.J.J.G.%.} } } *.G.J.J.J.K.a.| ` } | %.G.X.8 5 % + + + $ < 4 5 d l.J.J.J.J.J.J.J.J.",
"J.J.J.J.J.J.J.J.L.J.J.J.J.J.J.J.J.J.J.J.J.J.J.J.J.G.o.] ]  .o.G.J.J.J.J.k.| ] ] ` { z.G.k.j a t 9 0 t t g s.G.J.J.J.J.J.J.J.J.J.",
"J.J.J.J.J.J.J.J.J.J.J.J.J.J.J.J.J.J.J.J.J.J.J.J.B.O.} +.| >...C.J.J.J.J.k. .@.` ` | %.G.K.J.G.B.k.k.z.A.J.J.J.J.J.J.K.J.J.J.J.J.",
"J.J.J.J.J.J.J.J.J.J.J.J.J.J.J.J.J.J.J.J.J.J.J.J.n. .+.` +.:.m.G.J.J.J.J.B.<.:.+.` ;. .d.G.K.J.J.J.J.J.G.J.J.J.K.J.J.J.J.J.K.J.J.",
"J.J.J.J.J.J.J.J.J.J.J.J.J.J.J.J.J.J.J.J.J.J.J.B.>.;.;.+.<.D.J.G.J.J.J.J.G.A.D.-.;.;.5.:.n.G.J.J.J.J.J.J.J.J.J.J.J.J.J.J.J.J.J.J."
};
