/* XPM */
static char *_1721606553[] = {
/* columns rows colors chars-per-pixel */
"64 64 240 2 ",
"   c #1F1D1D",
".  c #211F22",
"X  c #262425",
"o  c #252429",
"O  c #28262B",
"+  c #2C2A2E",
"@  c #362D2B",
"#  c #373130",
"$  c #363435",
"%  c #3B3A3D",
"&  c #4F291C",
"*  c #73361D",
"=  c #573225",
"-  c #54332D",
";  c #433B39",
":  c #6E3625",
">  c #4C413E",
",  c #57443D",
"<  c #734531",
"1  c #3E3D42",
"2  c #413F40",
"3  c #444244",
"4  c #484446",
"5  c #4D4B4C",
"6  c #564C48",
"7  c #4A4D53",
"8  c #514F50",
"9  c #545253",
"0  c #585558",
"q  c #5D5B5D",
"w  c #765649",
"e  c #6D5550",
"r  c #665B58",
"t  c #5F605F",
"y  c #716259",
"u  c #615F60",
"i  c #586879",
"p  c #636264",
"a  c #676569",
"s  c #6B6A6C",
"d  c #736B6B",
"f  c #6C6D71",
"g  c #706F71",
"h  c #717274",
"j  c #747375",
"k  c #75757A",
"l  c #7E7779",
"z  c #7B7A7C",
"x  c #8F3C1F",
"c  c #813D27",
"v  c #894A27",
"b  c #955338",
"n  c #B4552A",
"m  c #A75737",
"M  c #9A643F",
"N  c #AA6331",
"B  c #D15F2A",
"V  c #CE7038",
"C  c #E57734",
"Z  c #8B5542",
"A  c #A25E4B",
"S  c #96684B",
"D  c #886656",
"F  c #956B52",
"G  c #B2704E",
"H  c #A47558",
"J  c #93776C",
"K  c #847677",
"L  c #827C7D",
"P  c #A97964",
"I  c #C8794B",
"U  c #DD843F",
"Y  c #E9873B",
"T  c #F7933F",
"R  c #96847B",
"E  c #AE8B71",
"W  c #AA877A",
"Q  c #B68C75",
"!  c #D48449",
"~  c #D58952",
"^  c #EA924B",
"/  c #F59843",
"(  c #CD8F6C",
")  c #C7987A",
"_  c #D8A37A",
"`  c #E8AB7C",
"'  c #3D6693",
"]  c #3E6EA2",
"[  c #435F85",
"{  c #47668B",
"}  c #566B87",
"|  c #5B718A",
" . c #466B97",
".. c #4C729B",
"X. c #597799",
"o. c #69778B",
"O. c #797C84",
"+. c #687C96",
"@. c #717F90",
"#. c #4B75A6",
"$. c #4A77AB",
"%. c #557CA8",
"&. c #4C7CB1",
"*. c #827D81",
"=. c #7C818A",
"-. c #69839D",
";. c #788597",
":. c #5C85AA",
">. c #5786B7",
",. c #6989A8",
"<. c #768CA2",
"1. c #7892AA",
"2. c #668EB5",
"3. c #6994B9",
"4. c #7599B8",
"5. c #5C8EC1",
"6. c #608FC0",
"7. c #6A9AC4",
"8. c #739EC2",
"9. c #6FA0C7",
"0. c #7BA4C4",
"q. c #78A6CA",
"w. c #7BACD0",
"e. c #838284",
"r. c #898587",
"t. c #85858A",
"y. c #8B8A8D",
"u. c #978C88",
"i. c #8E8E92",
"p. c #848A99",
"a. c #8E939C",
"s. c #969091",
"d. c #949294",
"f. c #9A9696",
"g. c #95959B",
"h. c #99979B",
"j. c #9B9A9D",
"k. c #A48B84",
"l. c #A99588",
"z. c #B89989",
"x. c #A79890",
"c. c #A29C9C",
"v. c #B1A293",
"b. c #B8A996",
"n. c #818EA1",
"m. c #8796A6",
"M. c #8C9BAB",
"N. c #9399A3",
"B. c #9D9DA3",
"V. c #939EAC",
"C. c #879EB2",
"Z. c #A19FA2",
"A. c #9CA1A7",
"S. c #9BA3AD",
"D. c #8AA4BA",
"F. c #96A6B6",
"G. c #A3A2A5",
"H. c #A7A6AB",
"J. c #A9A7A8",
"K. c #A8A7AA",
"L. c #ABABAD",
"P. c #B6ACA5",
"I. c #A3ABB5",
"U. c #AEAEB2",
"Y. c #B1AFB0",
"T. c #AAB0B8",
"R. c #B3B2B4",
"E. c #B6B7B9",
"W. c #B9B6B9",
"Q. c #BCBBBC",
"!. c #CBA286",
"~. c #D9A888",
"^. c #CBAA9B",
"/. c #D9B397",
"(. c #E8B28C",
"). c #EAB996",
"_. c #CEB3A8",
"`. c #C3BEBD",
"'. c #F1C29D",
"]. c #C0C0BF",
"[. c #8CABC3",
"{. c #84ACCC",
"}. c #89AAC8",
"|. c #93ADC1",
" X c #88B1CE",
".X c #93B2CC",
"XX c #82ADD0",
"oX c #85B3D4",
"OX c #8AB4D4",
"+X c #8AB7D8",
"@X c #8DBADA",
"#X c #94BAD7",
"$X c #9CBBD4",
"%X c #A9B7C5",
"&X c #B5BDC6",
"*X c #BCBEC1",
"=X c #A1BDD5",
"-X c #92BEE1",
";X c #C2BFC2",
":X c #9CC1DD",
">X c #BEC2C5",
",X c #A4C3DC",
"<X c #B6C9DA",
"1X c #96C1E1",
"2X c #9CC5E5",
"3X c #9EC9E9",
"4X c #A3C6E3",
"5X c #A5CAE5",
"6X c #AAC8E1",
"7X c #A4CCEC",
"8X c #AACEEA",
"9X c #A7D1EF",
"0X c #ADD2ED",
"qX c #B0D4EF",
"wX c #ACD2F0",
"eX c #B2D6F1",
"rX c #B4D8F2",
"tX c #C4C3C4",
"yX c #C6C7CB",
"uX c #CCCBCC",
"iX c #D4CFCE",
"pX c #D0D0CF",
"aX c #C6CBD3",
"sX c #CDCDD1",
"dX c #D1CFD0",
"fX c #D4D3D4",
"gX c #D6D8DB",
"hX c #DCDBDC",
"jX c #E2DAD4",
"kX c #E1E0DF",
"lX c #DEDFE0",
"zX c #E1DFE1",
"xX c #DCE1E5",
"cX c #E4E3E3",
"vX c #E8E7E5",
"bX c #E8E8E7",
"nX c #ECEBEB",
"mX c #F1EFEE",
"MX c #F3F3F3",
"NX c #F9F9F8",
/* pixels */
"H.H.H.H.H.H.H.H.H.H.H.H.G.H.H.H.G.K.H.H.H.H.H.H.H.H.H.H.J.H.G.G.B.Z.c.Z.J.J.J.G.H.H.H.H.H.H.H.H.H.H.H.L.H.H.H.H.H.H.H.H.H.H.H.H.",
"H.H.H.H.H.G.A.h.d.d.i.i.t.d.Z.Z.J.J.H.H.G.H.H.H.H.G.H.H.J.j.s.D M G M H u.G.H.H.H.H.H.H.H.H.H.H.H.H.H.H.H.H.H.H.H.H.H.H.H.H.H.H.",
"H.H.H.H.g.s 0 8 5 5 3 ; - - r s j z z =.e.t.e.z z z O.r.t.K < v n N N N b f.H.H.H.H.H.H.H.H.H.H.H.H.H.H.H.H.H.H.H.H.H.H.H.H.H.H.",
"H.H.B.z 5 1 % 1 5 5 3 - : : - 8 q 8 9 0 0 q u p s g j z z w < v v v * v b F A.H.H.H.H.H.H.H.H.H.H.H.H.H.H.H.H.H.H.H.H.H.H.H.H.H.",
"H.G.j 4 % 2 > 0 *.*.p Z Z Z , 0 q 5 8 > 3 8 0 0 0 9 r q r < * c = & : = * N P.E.H.H.H.H.H.H.H.H.H.H.H.H.H.H.H.H.H.H.H.H.H.L.H.H.",
"H.j.p a 0 u 9 j *.*.*.P P J d *.d.j s 5 s h R y.l d y.e.=., = < F E E !.< v s.E.R.H.H.H.H.H.H.H.H.H.H.H.H.H.L.H.H.H.H.H.H.H.H.H.",
"H.i.g t.O.i.d y.%XW.P.*.*.*.c.H.S.r.z t d.j.J.L.d.f.;XK.Y.a & S _ '.).~.H D c.h.L.H.H.H.H.H.H.H.H.H.H.H.H.H.H.H.H.H.H.H.H.H.H.H.",
"H.t.r.j.d.c.j G.;X;X*.m m G K.;XL.t.R s J.U.E.Q.h.H.tXW.Q.R , w > E D , e c.nXK.i.G.H.H.H.H.H.H.H.H.H.H.H.H.H.H.H.H.H.H.H.H.H.H.",
"J.y.c.J.j.d.j E.;XhX*.B A P ;XzXj.f.t.z U.Y.Q.tXd.G.*X`.E.R e W E J R z.J f.NX;XB.Z.H.H.H.H.H.H.H.H.H.L.H.H.H.H.H.H.H.H.H.H.H.H.",
"H.d.Y.J.f.z z tXgXzXQ V B I iXzXW.L.f.r.L.L.R.L.j.tXgXfXtXr.w z.^.) ) ^.W P.NXtXtXuXH.H.H.B.H.H.H.H.H.H.H.H.H.H.H.H.H.H.H.K.H.H.",
"J.g.Q.K.e.r.r.`.;X;X_.~.~.^.zXzX;XR.G.tXvXnXnXvXfXbXmXMXjXG.u.) ).) /.'./.zXNX;XfX_.Q Q W u.k.E k.x.k.k.u.k.W Q W Z.L.H.H.H.H.H.",
"H.Q.fX`.R u.P.gXMXMXMXMXnXnXnXnXhXtXtX;XbXMXMXNXmXnXnXkXgXfXQ.!.'.~./.'.jXNXNX`.hX_ ^ ! Y H V ! ~ _ ~ N G H I ~ P c.H.H.K.H.H.H.",
"H.Q.hXP.W z.x.`.fX;XfX;XdXdXdXdXfXdXuX;X*X;XtXyXuXuXpXtXQ.Q.R.x.) ~.'./.Q.kXcXQ.hXP.b.v.H D N I ~ ) G S S D x.P.Z.H.H.H.H.H.H.H.",
"H.L.Q.`.P.^.P.hXMXmXMXnXnXnXbXzXhXhXgXhXhXhXzXzXgXhXhXhXhXlXhXtXy E !.b.fXuXuX].bXtXQ.G.d N.S.A.g.B.A.A.N.r h.E.R.H.K.H.H.H.H.H.",
"H.H.J.L.;X;XfXnXMXMXMXMXmXmXnXW.f.hXnXnXnXnXbXcXuXQ.kXhXbXcX`.l.Q E ( (.b.uXtXtXgXgXxX&XN.5X0X4X,X,X,X8X8Xn.B.gXaXL.H.H.H.H.H.H.",
"H.H.H.L.G.H.*.Z.W.W.;XsXsXgXzX*.z K.yXhXuXg.B.uXf.g c.g.J.Q.B.z._ (._ _ v.g.j A.;XgXgXI.%X0XeX6X,X,X,X0X8X$XN.aXaXL.H.H.H.H.K.H.",
"H.H.G.L.W.J.f.h.G.L.R.W.Q.Q.Q.W.Y.L.Y.R.Z.O.r.`.J.f.E.J.J.pXE.c.R W R u.h.z e.hXsX;X&X%X8XeXeX4X$X,X,X8X0X8XF.S.T.K.H.H.H.H.H.H.",
"H.H.A.d.c.c.y.y.s.L r.L K L L L L s.f.i.t.*.z *.R.vXnXQ.J.Q.pXpX].Q.Y.K.Z.r.L.vXyXI.I.6XeXeXqX4X$X=X,X8XeX0X,XS.A.A.H.H.H.H.H.H.",
"H.H.H.G.f.f.G.G.G.*.t.*.z z *.L L *.t.y.y.i.i.G.vXNXNXkXJ.uXhXhXkXkXhXfXfXR.Q.nX*XF.6XeXeXeXqX$X.X.X=X8X0X0X8X:XF.g.K.H.H.H.H.H.",
"H.H.H.H.G.G.J.J.H.G.Z.Z.Z.B.B.B.B.Z.j.j.h.g.j.hXNXNXNXvXQ.E.fXpXhXkXxXcXjXY.tXmX&X4XqXeXeXqXwX$X;.F.$X8X0X0X8X5X.XA.H.H.H.H.H.H.",
"H.H.H.H.H.H.H.H.H.H.H.H.H.H.H.H.H.H.H.H.H.H.R.mXNXNXNXnXU.a.].fXuXpXpXtXQ.G.L.vX<XqXqXeXeXwX8X$X@.-..X4X8X0X0X4X:XD.H.H.H.H.H.H.",
"H.H.H.H.H.H.H.H.H.H.H.L.H.H.H.H.H.H.H.H.H.H.W.NXNXNXMXkXG.R i.=.tXvXvXpX*.r.L tX=XqXeXeXeX8X4X.XA.M.#X5X0X0X0X5X:X[.H.H.H.H.H.H.",
"H.H.H.H.H.H.H.H.H.H.H.H.H.H.H.H.H.H.H.H.H.R.sXzXNXMXMXpXt.f N.y.tXmXMXfXO.k 0 h.=XqXeXeXeXeX5X.XS.M. X7X0X0X0X5X:X|.K.K.H.H.H.H.",
"H.H.H.H.H.H.H.H.H.H.H.H.H.H.H.H.H.H.H.H.H.L.MXcXMXmXcXY.z p y.f `.mXmXiXk q % s =XqXeXrXeXeX8X#XV.V.#X0X0X0X0X8X:X|.S.H.H.H.H.H.",
"H.H.H.H.H.H.H.H.H.H.H.H.H.H.H.H.H.H.H.H.H.L.fXcXmXcXtXg 5 h s q z f.d.z t e.t 7 .X0XeXeXeXqX6X#XM.F.#XwXwXwX0X5X:X|.A.H.H.H.H.K.",
"H.H.H.H.H.H.H.H.H.H.H.H.H.H.H.L.H.H.H.H.H.uXvXnXvXuXG.3 ; Y.=.h yXpXtXK.h Y.d.% .X8XeXeXeXqX7X.XM.V.OX7XwXwX0X7X:XD.H.H.H.H.H.H.",
"H.H.H.H.H.H.H.H.H.H.H.H.H.H.H.H.H.H.H.H.L.gXvXmXcXG.s $ s uXJ.k kXmXcXQ.z d.L.7 }.6XwXeXeX8X5X}.N.V.[.7XwXwX9X3X:XD.G.H.H.H.H.H.",
"H.H.H.H.H.H.H.H.H.H.H.H.H.H.H.H.H.H.H.H.R.fXfXR.Q.d.% # =.i.=.=.pXvXvXuX=.a t.i }.5XeXeXeXwX4X}.N.V.[.7X9XwX8X5X@XD.G.H.H.H.H.H.",
"H.H.H.H.H.H.H.H.H.L.H.H.H.H.H.H.H.H.H.H.U.hXkXW.e.k t 9 E.E.s k tXgXgXhXy.k d.i }.2X8XwX8X8X-X1.B.S.[.3X8X8X7X:X XM.H.H.H.H.H.H.",
"H.H.H.H.H.H.H.H.H.H.H.H.H.H.H.H.H.H.H.H.Y.hXnXiXy.e.e.a L.U.z N.yX>XfXxXj.f =.-.}.OX:X4X3X2X.X<.B.G.[.@X2X3X3X@X4.V.H.H.H.K.H.H.",
"H.H.H.L.H.H.H.H.H.H.H.H.H.L.H.H.H.H.H.L.G.cXMXzXR.d.d.p t.=.k K.pXpXpXpXT.h k ;.C.{.XXOX+XXX8.,.B.H.[.{. XOXOX0.-.A.H.H.H.H.H.H.",
"H.H.H.H.H.H.H.H.H.H.H.H.H.H.H.H.H.H.H.H.U.hXmXcXR.j.A.g p ;.a.R.>X>X>X&XE.d.f.=.*.}.+X+XXX{.8.<.G.H.|.@XOXoX{.0.,.A.H.H.K.H.H.H.",
"H.H.H.H.H.L.H.H.H.H.H.H.H.H.H.H.H.H.H.H.H.fXnXbXQ.B.A.y.h J.>X>XQ.E.T.E.>XfXfXS.g.$X3X3X-XOX{.1.H.H.F.3X3X-X-X-X4.V.H.H.H.H.H.H.",
"H.H.H.H.H.H.H.H.H.H.H.H.H.H.H.H.H.H.H.H.J.&XbXhXY.G.J.A.D.1.Y.fXxXbXnXmXmXbXpX>XG.$X3X7X7X3X+Xm.H.H.I.3X7X7X9X-XC.N.H.H.H.H.H.H.",
"H.H.H.H.H.H.H.H.H.H.L.H.H.H.H.H.H.H.H.H.J.H.fXhXA.B.J.1.q.-.=.I.fXfXxXcXgXS.;.4.M.:X3X1X2X2XOX-.G.H.I.3X3X-X-X-X{.S.H.H.H.H.H.H.",
"H.H.H.H.H.H.H.H.H.H.H.H.H.H.H.H.H.H.H.H.J.N.L.R t d.J.<.2.:.2.,.D.>X>XF.D.9.,.,.D.3X9XwX7X3XoX;.H.H.I.2X9XwXwX3XOXS.H.H.H.H.H.H.",
"H.H.H.H.H.H.H.H.H.H.H.H.H.H.H.H.H.H.H.H.H.y.r J E l.J.=.| 3.q.9.2.:.:.2.q.w.w.-.m.3X9XwX9X2X{.;.B.H.I.-X8X9X9X3X}.V.H.H.H.H.H.H.",
"H.H.H.H.H.H.H.H.H.H.H.H.H.H.H.H.H.H.H.H.H.B.) ` E ) J.;.:.q.w.9.3.:.:.:.9.w.w.:.C.1X1X3X3X:X0.@.Z.H.I.#X2X2X-X-XD.a.H.H.H.H.H.H.",
"H.H.H.H.H.H.H.H.H.H.H.H.H.H.H.H.H.H.H.H.J.G.) _ R W c.<.8.9.w.3...i { { :.8.w.0.C.2X1X@X@XoX3.o.Z.I.S.{.oXOX+X+X8.m.H.H.H.H.H.H.",
"H.H.H.H.H.H.H.H.H.H.H.H.H.H.H.H.H.H.H.H.J.A.E ) c.c.b.<.q.oXoX4.{ =.h ' :.8.1X1XM.OX2X3X2XoX3.;.Z.H.S.{.@X@X1XoX7.*.H.H.H.H.H.H.",
"H.H.H.H.H.H.H.H.H.H.H.H.H.H.H.H.H.H.H.H.H.J.R P h.G.Z.;.7.OXOXq.:.j.i.' >.oX@X+XD. X#X+XoXw.4.z D A *.OX+XXXOXq.2.a.H.H.H.H.H.H.",
"H.H.H.H.H.H.H.H.H.H.H.H.H.H.H.H.H.H.H.H.H.H.z y d.H.K.;.{.OXOX9.-.j.A.} >.w.:XoXB.4.}. X1XoX1.J V C *.+X@X+XoX}.+.B.H.H.H.H.H.H.",
"H.H.H.L.H.H.H.H.H.H.H.H.H.H.H.H.H.H.H.H.H.H.c.e.*.Z.Z.<.{.@XOX4.p.A.J.=.&.q.1XoXN.F.OX Xw.1.i E C C I OXXXq.%.%.+.B.L.H.H.H.H.H.",
"H.H.H.H.H.H.H.H.H.H.H.H.H.H.H.L.H.H.H.H.H.H.H.J.Z.I.Z.<.oX@X@X4.N.J.J.<.$.3.OX{.a.K p.0.9.:.=.~ / / / z.8.XXD.+.@.H.H.H.H.H.H.H.",
"H.H.H.H.H.H.H.H.H.H.H.H.H.H.H.H.H.H.H.H.H.H.H.H.H.H.G.<.oX@XOX1.G.J.H.g...3.+Xw.z b G ( ( ~ ~ / / / / ^ ( I P A Z h.H.H.H.H.H.H.",
"H.H.H.H.L.H.H.H.H.H.H.H.H.H.H.H.H.H.H.H.H.H.H.H.H.H.B.<.OX+XOXn.J.H.H.A.X.>.+X+XK n B Y Y ^ T T ^ ^ ^ ^ C B B n x e H.H.H.H.L.H.",
"H.H.H.H.H.H.H.H.H.H.H.H.H.H.H.H.H.H.H.H.H.H.H.H.H.H.B.<.{.w.{.m.H.H.H.G.X.>.OX1Xm.n V V V ! E H H A A b A n n n x : *.L.H.H.H.H.",
"H.H.H.H.H.H.H.H.H.J.J.H.H.H.H.H.H.H.H.H.H.H.H.H.H.H.N.%.8.6.2.p.H.H.H.A.o.%.w.oXz n A Z y r , , 6 6 ; # - - : c x * r H.H.H.H.H.",
"L.H.H.H.H.H.H.H.H.H.H.H.H.L.H.H.H.H.H.H.H.H.H.H.H.H.G.,.8.8.%.a.H.H.H.H.o.{ 9.9.r b e 9 p + + o + O O X o o + ; = & , h y.G.H.H.",
"H.H.H.H.H.H.H.H.H.H.H.H.H.H.H.H.L.H.H.H.H.H.H.H.H.H.Z.-.2.2.X.N.H.H.H.H.;.&.9.9.t r z yXy.O o o X X o o o O + . $ & > q 9 j.H.H.",
"H.H.H.H.H.H.H.H.H.H.H.H.H.H.H.H.H.H.H.H.H.H.H.H.H.H.G.<.7.7.%.Z.H.H.H.H.;.%.9.w.i 4 Q.MX&X+ o o o o o o o O 9 9 X ; ; q j d.H.H.",
"H.H.H.H.H.H.H.H.H.H.H.H.H.H.H.H.H.H.H.H.H.H.H.H.H.H.B.+.7.7.1.Z.H.H.H.H.t.#.7.w.i 5 Z.A.p o o o o o o o o O h g.X # , a j y.H.H.",
"H.H.H.H.H.H.H.H.H.H.H.H.H.H.H.H.H.H.H.H.H.H.H.H.H.H.Z.X.6.7.,.Z.H.H.H.H.t.{ 6.7.i 9 3 $ o o o o o o o o o o s t.X # 4 j p e.L.H.",
"H.H.H.H.H.H.H.H.H.H.H.H.H.H.H.H.H.H.H.H.H.H.H.H.H.H.N.X.5.>.<.B.H.H.H.H.y.{ >.7.i 7 % o o o o o o o o o o o 1 % X @ 4 p 9 y.H.H.",
"H.H.H.H.H.L.H.H.H.H.H.H.H.H.H.H.H.H.H.H.H.H.H.H.H.H.;.&.>.>.p.H.H.H.H.H.=.{ >.>.{ 7 1 o o o o o o o o o o O + .   X > 0 3 y.H.H.",
"H.H.H.H.H.H.H.H.H.H.H.H.H.H.H.H.H.H.H.H.H.H.H.H.H.H.+.&.&.&.;.G.H.H.H.H.;.' >.>...7 1 o o o o o o o o o o o O X . ; j k e.h.H.H.",
"H.H.H.H.H.H.H.H.H.H.H.H.H.H.H.H.H.H.H.H.H.L.H.H.H.H.@. .#. .+.G.H.H.H.H.;.'  . . .3 % X o o o . o o o o o O O + $ L G.H.H.H.H.H.",
"H.H.H.H.H.H.H.H.H.H.H.H.H.H.H.H.H.H.H.H.H.H.H.H.H.G.o. .{ ..p.H.H.H.H.H.p.#. . . .a 3 + o o o o . o o o o o $ 3 a c.H.H.H.H.H.H.",
"H.H.H.H.H.H.H.H.H.H.H.L.H.H.H.H.H.H.H.H.H.H.H.H.H.N.|  .{ { +.B.H.H.H.H.a. . .{ ' | s 9 % o o X o o X + + $ 4 q g.H.H.H.H.H.H.H.",
"H.H.H.H.H.H.H.H.H.H.H.H.H.H.H.H.H.H.H.H.H.H.H.H.B.+.' ] #.4.;.H.H.H.H.H.N.%.&. .]  .o.=.0 5 % $ + + $ 3 4 5 f g.K.K.H.H.H.H.H.H.",
"H.H.H.H.H.H.H.H.H.H.H.H.H.H.H.H.H.H.H.H.H.H.H.G.p.$.#.] ] 2.M.G.H.H.H.H.B.,.%.&.#.&.#.;.y.z a t q 0 t t j y.G.H.H.H.H.H.H.H.H.H.",
"H.H.H.H.H.H.H.H.H.H.H.H.H.H.H.H.H.H.H.H.H.H.H.B.4.&.>.%.m.H.J.G.H.H.H.H.Z.G.S.,.>.>.>.3.B.G.G.j.g.h.j.A.G.H.H.H.H.H.H.H.H.H.H.H.",
"H.H.H.H.H.H.H.H.H.H.H.H.H.H.H.H.H.H.H.H.H.H.H.].*X%X%XE.U.g.B.H.H.H.H.H.H.Z.H.Q.T.T.T.>X>XJ.H.H.H.H.K.H.H.H.H.H.H.H.H.L.H.H.H.H.",
"H.H.H.H.H.L.I.H.H.H.H.H.H.H.H.H.H.H.H.H.H.H.H.j.Z.G.L.G.Z.H.H.H.H.H.H.H.H.H.H.Z.G.G.G.J.j.G.H.H.H.H.H.H.H.H.H.H.H.H.H.H.H.H.H.H."
};
