/* XPM */
static char *_1721606554[] = {
/* columns rows colors chars-per-pixel */
"64 64 227 2 ",
"   c #1E1D1C",
".  c #201E21",
"X  c #292525",
"o  c #252428",
"O  c #252528",
"+  c #2C292D",
"@  c #362D2B",
"#  c #3D342F",
"$  c #332F31",
"%  c #26303B",
"&  c #343334",
"*  c #3A3839",
"=  c #4F291C",
"-  c #73361D",
";  c #4F342D",
":  c #573225",
">  c #463834",
",  c #413D3E",
"<  c #6E3625",
"1  c #4C413E",
"2  c #56443C",
"3  c #70432E",
"4  c #774735",
"5  c #393E45",
"6  c #374859",
"7  c #3A4E65",
"8  c #3E5166",
"9  c #3B597E",
"0  c #444244",
"q  c #494547",
"w  c #4D4B4C",
"e  c #514D4E",
"r  c #584F4A",
"t  c #4D4E52",
"y  c #545253",
"u  c #5A5556",
"i  c #565559",
"p  c #5C5B5C",
"a  c #604E46",
"s  c #665248",
"d  c #775649",
"f  c #675D5A",
"g  c #765C57",
"h  c #746258",
"j  c #47586A",
"k  c #5F5F63",
"l  c #445B74",
"z  c #615F60",
"x  c #5B626C",
"c  c #4B647C",
"v  c #586676",
"b  c #636264",
"n  c #67666A",
"m  c #6B6A6D",
"M  c #716969",
"N  c #6D6D71",
"B  c #706F71",
"V  c #6F7276",
"C  c #747375",
"Z  c #75767A",
"A  c #7E7779",
"S  c #7B7A7C",
"D  c #8F3C1F",
"F  c #813D27",
"G  c #8A4928",
"H  c #904F36",
"J  c #975737",
"K  c #B15428",
"L  c #BB572A",
"P  c #A55639",
"I  c #9A643F",
"U  c #AC622D",
"Y  c #BB6236",
"T  c #CF5F29",
"R  c #CA6B36",
"E  c #D36938",
"W  c #D97635",
"Q  c #E16F2F",
"!  c #E57B36",
"~  c #905844",
"^  c #99664B",
"/  c #886658",
"(  c #946952",
")  c #B1714E",
"_  c #A47559",
"`  c #886F6B",
"'  c #89736A",
"]  c #9C7A65",
"[  c #827C7D",
"{  c #897D7B",
"}  c #A17664",
"|  c #C97B4F",
" . c #EB863A",
".. c #F5903D",
"X. c #95837A",
"o. c #A98878",
"O. c #B18C72",
"+. c #EC9244",
"@. c #F69742",
"#. c #C8987B",
"$. c #D19976",
"%. c #DFA77D",
"&. c #3D6696",
"*. c #4B6986",
"=. c #4F6D89",
"-. c #546D85",
";. c #58738B",
":. c #4B7098",
">. c #597995",
",. c #687889",
"<. c #7A7C83",
"1. c #637B97",
"2. c #4E7CAC",
"3. c #807E82",
"4. c #5D819C",
"5. c #7C828A",
"6. c #65839D",
"7. c #798697",
"8. c #5B83A5",
"9. c #4780BE",
"0. c #5985B6",
"q. c #6285A4",
"w. c #678BAA",
"e. c #798AA3",
"r. c #6C91AC",
"t. c #7B95AB",
"y. c #648EB3",
"u. c #6B94B4",
"i. c #6A96B9",
"p. c #7296B3",
"a. c #779BB7",
"s. c #749CBB",
"d. c #7AA1BE",
"f. c #538CC7",
"g. c #5692CE",
"h. c #6C99C2",
"j. c #729CC2",
"k. c #669FD6",
"l. c #78A4C6",
"z. c #7CAACB",
"x. c #7BADD2",
"c. c #72ACDA",
"v. c #78AFD8",
"b. c #6FABE2",
"n. c #838284",
"m. c #898587",
"M. c #85858A",
"N. c #8B8A8C",
"B. c #998B85",
"V. c #938C8C",
"C. c #858C96",
"Z. c #8D8D91",
"A. c #948F91",
"S. c #8D939C",
"D. c #939295",
"F. c #9B9595",
"G. c #95959B",
"H. c #99979B",
"J. c #97989B",
"K. c #9B9A9D",
"L. c #AA9587",
"P. c #B99883",
"I. c #A19793",
"U. c #A29C9C",
"Y. c #B0A296",
"T. c #B7A795",
"R. c #8B96A7",
"E. c #8496AF",
"W. c #949AA3",
"Q. c #9D9DA2",
"!. c #A19EA3",
"~. c #9DA4AE",
"^. c #A3A2A5",
"/. c #A7A6AB",
"(. c #A9A7A8",
"). c #A8A7AB",
"_. c #ABAAAD",
"`. c #B5ACA6",
"'. c #AEAEB1",
"]. c #B1B0B1",
"[. c #B3B2B4",
"{. c #B5B6B8",
"}. c #B9B7BA",
"|. c #B9B8BA",
" X c #BCBBBC",
".X c #CBA286",
"XX c #D9A888",
"oX c #CBAA9B",
"OX c #D9B397",
"+X c #E8B28C",
"@X c #C7ADA7",
"#X c #C3BEBD",
"$X c #F1C29D",
"%X c #C0C0BF",
"&X c #8DACC7",
"*X c #82ACCB",
"=X c #83B2D4",
"-X c #89B7D7",
";X c #85B5D9",
":X c #8BBADC",
">X c #BEBEC1",
",X c #C1BFC1",
"<X c #BFC0C2",
"1X c #C4C3C4",
"2X c #C7C7C9",
"3X c #CCCBCC",
"4X c #D4CFCE",
"5X c #D0D0CF",
"6X c #CECED0",
"7X c #D1CFD0",
"8X c #D4D3D4",
"9X c #D9D8D7",
"0X c #DCDBDC",
"qX c #E2DAD4",
"wX c #E1E0DF",
"eX c #DFDFE1",
"rX c #E1DFE1",
"tX c #E4E3E3",
"yX c #E8E7E5",
"uX c #E9E8E6",
"iX c #ECEBEB",
"pX c #F1EFED",
"aX c #F2F0ED",
"sX c #F0EFF0",
"dX c #F3F2F3",
"fX c #F9F9F6",
"gX c #FAF9F8",
/* pixels */
"/./././././././././././././././._././././././././././././././.^.^.K.U.^.(.).)./././././././././././././././././././././././././.",
"/././././.^.Q.J.D.D.D.Z.3.G.!.!.^._./.^./././././././././.K.V./ ^ ) I ^ B.^././././././././././././././././././././././././././.",
"/./././.G.m i t t w 0 > ; ; u B C Z S 5.n.M.n.S S S <.n.m.A 3 G K U U U J F./.)./././././././././././././._././././././././././.",
"/./.Q.S t * 1 * w w 0 ; < < : e p w y i i p z b m B C S S d 4 G G G - J G ( Q./././././././././././././././././././././././././.",
"/.^.C q * 0 1 i 3.3.g d P ~ a t p w r 1 q t u u u y f p f 3 F - : = : : - I Y.|.)./././././././././././././././././././././././.",
"/.K.b n i z y C 3.3.3.} } ` M 3.D.C m w n V X.m.A B N.n.n.2 : 3 ^ O.O..X4 J D.{.]././././././././././././././././././././././._.",
"/.Z.B M.S A.m N.}.}.@X3.3.3.!./.~.M.A z D.Q.(.[.D.F. X(.[.M = ^ %.$X$XXX_ / U.F._./././././././././././././././._./././././././.",
"/.M.M.K.D.U.Z ^.,X2X3.P P ) `.,X_.M.X.m (.'.}. XF.(.2X{. X[ 2 d 2 o./ 2 s U.iX_.Z.!././././././././././././././././././././././.",
"(.N.!.(.J.A.C |.6X6X3.L P ) 2XrXK.D.N.S ].]. X1XG.!. X,X}.{ s o.O.M X.T.' I.fX1XQ.^./././././././././././././._././././././././.",
"(.D.'.(.F.[ A 2X0X0XP.E E | 7XrX{.).D.N.(._.[._.H.1X9X9X1Xm./ P..X.X#.OXo.`.gX1X2X2X/./././././././././././././././././././././.",
"^.J. X_.n.m.m.%X,X,X@XXX$.oXrXrX#X[.!.2XuXiXiXuX9XuXpXpXwX!.B.#.+X#.OX$XOXwXfX1X8X0X_././././././././././././././././././././._.",
"/.%X9X%XX.X.(.0XsXsXdXdXsXsXsXsXeX2X,X>XiXdXdXdXsXiXiXtX9X5X X.X$XXXOX$XqXgXfX XtX0X_./././././././././././././././././././././.",
"/. X0X`.o.P.I. X8X,X8X,X7X7X8X7X8X7X7X,X,X,X2X2X2X2X4X2X X X].I.#.XX$XOX|.0XtX XdXeX/./././././././././././././././././././././.",
"/._. X%XY.oX`.wXsXsXsXsXsXtXiXrX0X0X9X0XeX9XeXeX0X0X0X0X0XwX0X1Xh O.#.oX8X3X3X XdX0X/./././././././././././././././././././././.",
"/./.^.'.,X,X,XsXdXdXsXdXsXsXsX}.G.9XiXiXiXyXuXtX3X X0X0XwXtX1XL.#.O.O.+X`.3X%X2XeX6X~./././././././././././././././././././././.",
"/././._.!.!.!.!.}.,X,X6X7X8XrX3.<./.2X0X3XG.Q.3XF.B Q.K._.%X/.P.$.+X%.%.T.K.C ^.2X>X/./././././././././././././././././././././.",
"/./.^._.|.^.J.K.^._.[.}. X X X}.].`.].[.!.3.m.>X^.J.{._._.5X{.!.I.O.X.A.K.Z 5.9XtX1X/./././././././././././././././././././././.",
"/./.Q.F.U.U.V.N.D.[ m.{ [ [ [ [ [ Z.D.D.M.3.S 3.[.uXiX X^.{.5X5X X X]._.^.m.].uXuXuX X/././././././././././././././././././././.",
"/././.^.J.J.!.!./.S M.n.A S [ [ 3.3.m.N.N.Z.A.!.uXgXfXwX'.5X0X0XwXwX9X8X8X]. XaXaXpX9X_././././././././././././././././././././.",
"/./././.^.^./.(./.^.!.Q.Q.Q.Q.Q.!.Q.K.K.G.G.K.0XfXfXfXuX|.|.8X5X9XwXwXwXtX`.1XpXpXpXiX>X/./././././././././././././././././././.",
"/./././.(././././././._././././././././././.[.sXfXfXfXuX].D. X8X3X5X5X1X X^._.tXyXpXaX9X_././././._././././././././././././././.",
"/././.(././././././././././././././././././.}.gXfXfXdXuX^.n.Z.5.1XuXuX5Xn.m.3.2X9XaXaXiX}./././././././././././././.'./././././.",
"/././././././././././././././././././././.[.6XrXfXfXaX5XN.m J.Z.1XaXaX9X<.C u J.1XiXaXiX}./././././././././././././././././././.",
"/././././././././././././././././././././.'.dXtXfXaXtX[.S b Z.N %XaXiX5XS z * m [.tXpXqX_./././././././././././././././././././.",
"/./././././././.)././././././././././././.'.6XtXpXtX1XB w V m i S F.D.S p n.p t S.8XeX}._.!././././././././.'./././././././././.",
"/././././././././././././././././././././.3XuXiXuX3X!.0 0 ].5.V 2X5X2X^.C ].D.* C >X,XQ.)._././././././././././././././././././.",
"/./././././././._./././././././././././.).9XuXaXyX^.N * n 3X^.Z wXaXtX%XS Z._.6 i Q.!.].3X_././././././././././././././././././.",
"/././././././.(././././././././././././.[.9X8X[. XD.& & 5.Z.M.5.3XuXuX3X5.m X.v 1.z N.3XtX7X/./././././././././././././././././.",
"/./././././././././././././././././././.'.0X0X}.3.S p i |.{.m Z <X0X0XeXZ.Z J.c E.M G.7XpXuX#X)././././././././././././././././.",
"/.(././././././././././././././././././.].0XiX4XN.5.M.n _.'.<.J.<X<X8XeXQ.m N.4.&XG.D.7XsXsX,X)././././././././././././././././.",
"/./././././././././././._././././././././.tXdXtX[.D.D.b M.5.Z _.6X8X5X5X{.N C 7.E.).3.,XiXiX,X_././././././././././././././././.",
"/./././././././././././././././././././._.0XpXtX[.K.^.m k 7.S.[.<X<X<X{.{.D.J.5.3./.H.].yXiXyX&X/./././././././././././././././.",
"/./././././././././././././././././././.~.8XiXiX XK.Q.N.n Q. X2X<X{.'.|.%X8X5XQ.J.^.7.M./.<X{.^.(./././././././././././././././.",
"/././././././././._./././././././././././. XuX0X_.~.S b n h F.1XeXeX9X9XwX8X(.h n.D.<.J.N.<X XJ.^./././././././././././././././.",
"/./././././././././././././._./././././././.8X0X^.K.n t q 4 J I X.o._ O._ / 4 1 6 3.D.~.5.m.A N /././././././._././././././././.",
"/././././._./././././././././././././._.^.Q._.X.b N.x c =.>.,.C k 4 4 d N V 4.*.8 M.(./.H.o.O.o././././././././././././././././.",
"/././././././././././././././././././././.N.f ] O.B.j ;.p.s.*X*Xz.p.d.a.z.p.u.w.=.M.(./.U.O.X.P././././././././././././././././.",
"/././././././././././././././././././././.U.#.%.O.#.v r.p.d.a.*X-XE.-X=Xz.u.w.w.r.7./._.!.B.' o.^././././././././././././.)././.",
"/././././././././././././././././././././.^.#.$.X.o.Z i.a.p.a.a.d.d.=X&Xd.w.4.i.l.e.^./.^.F.F.X.^././././././././././.)././././.",
"/./././././././././././.(./././././././._.^.O.#.U.J.N.d.*X*Xa.r.p.p.*Xp.;.-.r.z.l.E./././.^./.F.^.^.^./././././././././././././.",
"/././././././././././././././././././././.^.X.] F.Q.c u.z.=X*Xs.;.v >.7 6 4.d.z.x.t.^._.J.X.' ' / / / ` 3.!././././././././././.",
"/./././././././././././././././././././././.X.h V.Q.c y.*X=X=X*Xp.j 5 % l w.l.x.x.d.Q.m.~ J U R R R R Y P / D.!.)./././././././.",
"/./././././././././././././././././././././.Q.5.3.G.=.i.z.=X;X-Xs.7.n l w.z.-Xv.x.j.' J U W  . .!  .! Q E L H 3./././././././.).",
"/./././././._././././././././././././././././.^.!.Q.>.i.z.=X;X*Xr.S.5.4.z.-X:X;Xv.h.~ R  . ...@.@.@.@...! T T D 3./././././././.",
"/././././././././././././././././._./././././././.Q.6.i.x.;X;Xz.i.W.J.r.=X:X:X:Xv.j.) Q  .+.@.@.@.@.@...! ! T K G D././././././.",
"/./././././././././././././././././././././././././.6.h.x.x.;X=Xd.~.W.w.:X:X:X:Xv.a.R  ...+...@.+.+.+.+.! Q T L D g !./././././.",
"/././././././././.(././././././././././././././././.C.i.x.x.;X;Xd.Q.W.p.-X:X:X:Xx.E.R W R O.Y O._ ^ ~ J P K L K D < m./././.)./.",
"/./././././././././././././././././././././././././.R.y.x.;X:X-Xp.W.W.w.=X:X:X:Xl.<.~ ~ h f 2 s s s > > > ; < F D - f /././././.",
"/././././././././././././._././././././././././././.3.>.x.;X:Xx.r.W.G.4.d.-X;Xv.y.M a * 0 & + @ > # @ X X X + > : : 2 V N.(././.",
"/./././././././././././././././././././././././././.3.j j.;X;Xl.;.J.K.;.i.x.v.j.>.u q N.J.* O o o o o o o O X   @ @ 1 z y J././.",
"/./././././././././././././././././././././././._.!.E.j 0.z.*Xy.j C.Q.>.y.l.l.y.j & n.iX9X0 o o o o o o X + w & X # > u C D././.",
"/./././././././././././././././././././././././././.1.*.l 1.y.&.t R.S.4.8.i.i.>.l 5 J.5XK.& o o o o o o o + <.C X > q M C M././.",
"/./././././././././././././././././././././././././.G.1.l *.&.5 6.~.R.s.>.8.>.=.v * k 6 + o o o o o o o o o S A X > 1 C b m.(./.",
"/./././././././././././././././././././././././././.!.-.-.l 9 5 N.Q.t.l.0.>.>.:.;.+ u . o o o o o o o o o o q 6 . @ q b y N././.",
"/._./././././././././././././././././././././././._.Q.v 6 5 5 o 5./.7.>.8.;.>.q.7.& u X o o o o o o o o o o + .   X 0 i 1 N././.",
"/./././././././././././././././././././././././.(./.!.;.*.l 6 6 ,.^.t.s.r.q.8.7.K.p p O o o o o o o o o o + o . X * B Z 5.K././.",
"/././././././././././._././././././././././././././.!.<.9 &.9 5 N.Q.d.l.*X*X*Xt.Q.b q o o o o o o o o o O O X o & S ^./././././.",
"/././././._./././././././././././././././././././././.E.2.9.:.l G.Q.6.4.6.4.4.7./.Z.w & o o o o O o o o O O # 6 b !././././././.",
"/././././././././././././././././././././._././././.!.2.9.g.9.:.G.Q.,.6.w.4.>.5.^./.<.t * o o o . o o + & & q f K./././././././.",
"/./././././././././././././././././././././././././.~.f.b.k.f.:.W./.7.-.:.:.&.V /./.^.X.p w , & & & $ , q e m G././././././././.",
"/./././././././././././././././././././././././././.!.2.k.k.f.2.W./.5.:.9.g.0.1././././.D.S n k u u z z B Z.^./././././././././.",
"/././././././././././././././././././././././././././.R.2.0.1.R././.M.:.k.v.c.g.R././././.^.^.J.J.J.K.K././././././././././././.",
"/./././././._./././././././././././././././././././././.^.~.^./././.Q.7.i.k.g.f.2.^././././././././._./././././././././././././.",
"/././././././././././././._./././././././././._./././._././././././././.W.R.R.R.R.^././._./././._./././././././././././././././."
};
