/* XPM */
static char *_1721606554[] = {
/* columns rows colors chars-per-pixel */
"64 64 222 2 ",
"   c #1F1D1E",
".  c #2A211F",
"X  c #282527",
"o  c #242428",
"O  c #2B292C",
"+  c #352D2A",
"@  c #3A312C",
"#  c #2C2D32",
"$  c #2D3138",
"%  c #323233",
"&  c #393536",
"*  c #3C3B3D",
"=  c #43271A",
"-  c #6D351E",
";  c #583326",
":  c #52332D",
">  c #453834",
",  c #413E3E",
"<  c #773625",
"1  c #46403D",
"2  c #59453C",
"3  c #704431",
"4  c #383E45",
"5  c #38485A",
"6  c #3A4E65",
"7  c #3D546D",
"8  c #444345",
"9  c #464649",
"0  c #4C4A4C",
"q  c #534C4B",
"w  c #4B4E54",
"e  c #524F51",
"r  c #4A5259",
"t  c #555354",
"y  c #5A5455",
"u  c #56555A",
"i  c #5A5759",
"p  c #5C5B5C",
"a  c #654E46",
"s  c #68524A",
"d  c #765649",
"f  c #635D5D",
"g  c #765D56",
"h  c #6E6059",
"j  c #7A645A",
"k  c #475768",
"l  c #5F5F63",
"z  c #465C75",
"x  c #615F60",
"c  c #5D646D",
"v  c #4B637A",
"b  c #596676",
"n  c #636263",
"m  c #67666A",
"M  c #6B6A6C",
"N  c #716B6B",
"B  c #6D6D71",
"V  c #6F7074",
"C  c #747375",
"Z  c #75757A",
"A  c #7D7878",
"S  c #7B7A7C",
"D  c #8F3B1E",
"F  c #884828",
"G  c #954B31",
"H  c #965636",
"J  c #B0542A",
"K  c #A45638",
"L  c #9A643F",
"P  c #AF6332",
"I  c #C85A29",
"U  c #CB6933",
"Y  c #CF6834",
"T  c #DB7535",
"R  c #E2712F",
"E  c #E57D36",
"W  c #875846",
"Q  c #995A43",
"!  c #9A6348",
"~  c #83685C",
"^  c #996D56",
"/  c #9A7258",
"(  c #AC7051",
")  c #886C66",
"_  c #88736B",
"`  c #9C7863",
"'  c #827C7D",
"]  c #897C79",
"[  c #A17664",
"{  c #EA863A",
"}  c #F28E3D",
"|  c #96847B",
" . c #AE8B74",
".. c #B88C74",
"X. c #D28444",
"o. c #F79843",
"O. c #C8987B",
"+. c #D19976",
"@. c #DFA77D",
"#. c #3D6696",
"$. c #4D6B88",
"%. c #506D8B",
"&. c #58738B",
"*. c #4C729B",
"=. c #597996",
"-. c #677787",
";. c #797C83",
":. c #657C96",
">. c #4E7CAC",
",. c #807E82",
"<. c #5D819C",
"1. c #7C8289",
"2. c #66839C",
"3. c #798798",
"4. c #5B83A5",
"5. c #4780BE",
"6. c #5985B6",
"7. c #6285A4",
"8. c #688AAA",
"9. c #708CA5",
"0. c #7A93A9",
"q. c #648EB3",
"w. c #6B94B3",
"e. c #6A96B9",
"r. c #7296B3",
"t. c #779BB7",
"y. c #749BBA",
"u. c #7BA2BE",
"i. c #538CC7",
"p. c #5692CE",
"a. c #6C9AC2",
"s. c #669FD6",
"d. c #77A3C5",
"f. c #7CABCC",
"g. c #65A3DF",
"h. c #7BADD2",
"j. c #6FABE2",
"k. c #838284",
"l. c #8A8383",
"z. c #858589",
"x. c #8A878A",
"c. c #8B8A8D",
"v. c #9A8D86",
"b. c #938D8C",
"n. c #878C96",
"m. c #8D8D91",
"M. c #958F91",
"N. c #8D939C",
"B. c #939295",
"V. c #9A9596",
"C. c #95959B",
"Z. c #99969A",
"A. c #97989B",
"S. c #9B9A9D",
"D. c #AA9588",
"F. c #B09282",
"G. c #A29A99",
"H. c #B2A392",
"J. c #B7A795",
"K. c #8C95A4",
"L. c #8493AA",
"P. c #949AA3",
"I. c #9C9DA2",
"U. c #A09EA3",
"Y. c #9DA4AE",
"T. c #A3A2A5",
"R. c #A7A6AB",
"E. c #A9A7A8",
"W. c #A8A7AB",
"Q. c #ABAAAD",
"!. c #B5ADA7",
"~. c #AEAEB1",
"^. c #B2B0B0",
"/. c #B3B2B3",
"(. c #B5B6B8",
"). c #B9B7BA",
"_. c #B9B8BA",
"`. c #BCBBBC",
"'. c #C69F84",
"]. c #CBA286",
"[. c #D9A888",
"{. c #CBAA9B",
"}. c #D9B397",
"|. c #E8B28C",
" X c #C7ADA7",
".X c #C3BEBD",
"XX c #F1C29D",
"oX c #C0C0BF",
"OX c #8DACC7",
"+X c #82ADCC",
"@X c #83B2D4",
"#X c #89B7D7",
"$X c #85B5D8",
"%X c #8BBBDC",
"&X c #BEBEC1",
"*X c #C1BFC1",
"=X c #BFC0C2",
"-X c #C4C3C4",
";X c #C7C7C9",
":X c #CCCBCD",
">X c #D4CFCE",
",X c #D0D0CF",
"<X c #CECDD0",
"1X c #D1CFD0",
"2X c #D4D3D4",
"3X c #D9D8D7",
"4X c #DCDBDC",
"5X c #E2DAD4",
"6X c #E1E0DF",
"7X c #DFDFE1",
"8X c #E1DFE1",
"9X c #E4E3E3",
"0X c #E8E7E6",
"qX c #E9E8E6",
"wX c #ECEBEB",
"eX c #F1EFED",
"rX c #F2F0ED",
"tX c #F0EFF0",
"yX c #F3F2F3",
"uX c #F8F7F6",
"iX c #F9F9F6",
"pX c #FAFAF9",
/* pixels */
"R.R.R.R.R.R.R.R.R.R.R.R.U.R.R.R.R.R.R.R.R.R.R.R.R.R.R.R.E.E.E.T.U.I.G.T.E.E.R.R.R.R.R.R.R.R.R.R.R.R.R.R.R.R.R.R.R.R.R.R.R.R.R.R.",
"R.R.R.R.R.T.I.S.B.B.B.m.x.B.U.U.R.E.E.R.T.R.R.R.R.T.R.R.E.V.b.~ P ( ! / b.T.R.R.R.R.R.R.R.R.R.R.R.R.Q.R.R.R.R.R.R.R.R.R.R.R.R.R.",
"R.R.R.R.C.M t q 0 0 9 > : : y V C C S 1.z.z.k.S S S ,.k.1.A 2 F J P P P H B.R.R.R.R.R.R.R.R.R.R.R.R.R.R.R.R.R.R.R.R.R.R.R.R.R.R.",
"R.R.I.S 0 , , 1 0 0 8 : < < ; e p q t u u p l n M C C S | d 3 D F F - F H ^ S.E.R.R.R.R.R.R.R.R.R.R.R.R.R.R.R.Q.R.R.R.R.R.R.R.R.",
"R.T.Z 8 * , 5 q ,.,.g W Q W a w p q 0 1 8 t y i y t f f f 3 < F ; = 3 ; - P G._.R.R.R.R.R.R.R.R.R.R.R.R.R.R.R.R.Q.R.R.R.R.R.R.R.",
"R.S.n m i x t C ,.,.,.) [ ) N ,.B.C M q M C ' c.S M c.k.,.2 ; 3 !  . .+.3 H V.(./.R.R.R.R.R.R.R.R.R.R.R.R.R.R.R.R.R.R.R.R.R.R.R.",
"R.m.V k.;.b.M c.).). X,.,.,.U.R.E.z.A x M.G.E./.B.Z..XE./.N ; ! +.XXXX[./ ~ S.V.R.R.R.R.R.R.R.R.R.R.R.R.R.R.R.R.R.R.R.R.R.R.R.R.",
"R.z.x.S.B.G.A T.*X*X,.Q I ( E.*XE.m.k.M E.~._.`.Z.E.-X(.`.' : d 2  .~ 2 d G.wXQ.n.I.R.R.R.R.R.R.R.R.R.R.R.R.R.R.R.R.R.R.R.R.R.R.",
"E.m.U.E.S.B.C _.<X2X,.I K ( *X2XS.B.x.A ^.^.`.`.Z.U.*X&X.X] s  . .N | J._ V.uX-XI.I.E.R.R.R.R.R.R.R.R.R.R.R.R.R.R.R.R.R.R.R.R.R.",
"E.B.Q.E.B.' A ;X4X4X..Y Y +.>X8X(.Q.B.c.Q.Q.(.Q.S.-X2X2X-Xz.d F.].].O.}. . XpX-X-X:XQ.R.R.R.R.R.R.R.R.R.R.R.R.R.R.R.R.R.R.R.R.R.",
"R.A.`.E.l.x.x.oX*X*X X[.+.{.8X8X*X(.T.-XqXwXwXqX2XwXyXtX9XU.v.].|.O.}.XX{.6XpX*X2X3XR.R.R.R.R.R.R.R.R.R.R.R.R.R.R.R.R.R.R.R.R.R.",
"R.`.3XoX| | E.4XtXtXuXyXtXtXtXtX7X-X*X&XwXyXyXyXtXwXqX9X3X>X=X].XX[.}.XX5XpXpX.X9X7X~.R.R.R.R.R.R.R.R.R.R.R.R.R.R.R.R.R.R.R.R.R.",
"R.`.4X!.F.F.G.`.2X*X3X*X1X1X2X1X2X1X1X*X*X*X;X;X;X:X:X;X_.`.^.D.O.[.XX}._.4X9X`.tX7XR.R.R.R.R.R.R.R.R.R.R.R.R.R.R.R.R.R.R.R.R.R.",
"R.Q.`..XH.{.J.6XtXtXtXtXtX9XwX8X4X4X2X7X7X4X4X7X4X3X4X4X4X4X4X-Xj  .@.J.,X,X:X`.yX4XR.R.R.R.R.R.R.R.R.R.R.R.R.R.R.R.R.R.R.R.R.R.",
"R.R.R.Q.*X*X*XtXtXyXtXtXtXtXtX).V.4X0XwXwX0X0X9X<X`.6X4X9XqX.XH... ...|.!.:X-X;X7X<XR.R.R.R.R.R.R.R.R.R.R.R.R.R.R.R.R.R.R.R.R.R.",
"R.R.E.Q.U.U.U.U.).*X*X<X<X2X8X,.;.R.;X4X<XC.I.:XZ.N I.Z.Q.`.E.F.@.@.@.@.H.P.C T.;X&XR.R.R.R.R.R.R.R.R.R.Q.R.R.R.R.R.R.R.R.R.R.R.",
"R.R.T.Q._.E.A.A.E.Q./.).`.`.).).^.!.~./.U.,.,.*XW.A._.W.W.,X(.T.v. .| b.S.Z 1.4X6X-XR.R.R.R.R.R.R.R.R.R.R.R.R.R.R.R.R.R.R.R.R.R.",
"R.R.U.B.U.G.b.b.B.S l.' ' ' ' ' ,.b.B.B.z.,.' ,.^.qXwX`.R._.,X,X=X`./.E.G.z.^.qXwX0X`.R.R.R.R.R.R.R.R.R.R.R.R.R.R.R.R.R.R.R.R.R.",
"R.R.R.T.A.S.U.U.E.S z.k.A S ' ,.,.,.z.c.x.M.M.U.qXiXiX6XE.,X4X4X6X6X4X2X3X(.=XwXrXeX3XQ.R.R.R.R.R.R.R.R.R.R.R.R.R.R.R.R.R.R.R.Q.",
"R.R.R.R.T.T.T.E.R.T.I.T.U.I.U.I.I.U.S.S.C.C.Z.7XiXiXiXqX_._.2X,X4X6X6X6X6XQ.=XtXeXeXwX*XR.R.R.R.Q.R.R.R.R.R.R.R.R.R.R.R.R.R.R.R.",
"R.R.R.R.E.R.R.R.E.W.R.R.R.R.R.R.R.R.R.R.R.R./.tXiXiXiXqX^.B.`.2X,X,X,X-X`.U.Q.9X0XrXrX3XR.R.R.R.R.R.R.R.R.R.R.R.R.R.R.R.R.R.R.R.",
"R.R.R.R.R.R.R.R.R.R.R.R.R.R.R.R.R.R.R.R.R.R.).pXiXiXyXqXT.1.m.k.-XqXqX,Xk.x.| -X3XrXrXrX).R.R.R.R.R.R.R.R.R.R.R.R.R.R.R.R.R.R.R.",
"R.R.R.R.R.R.R.R.R.R.R.R.R.R.R.R.R.R.R.R.R./.<X7XiXiXrX,Xc.M A.m.;XrXrX3X;.C t A..XrXrXqX).R.R.R.R.R.R.R.R.R.R.R.R.R.R.R.R.R.R.R.",
"R.R.R.R.R.R.R.R.R.R.R.R.R.R.R.R.R.R.R.R.R.~.yX9XiXyX6X/.S n n.B `.rXqX,XS p * C /.6XrX3XQ.R.R.R.R.R.R.R.R.R.R.R.R.R.R.R.R.R.R.R.",
"R.R.R.R.R.R.R.R.R.R.R.R.R.R.R.R.R.R.R.R.T.~.2X9XwX0X-XB q N m u S A.B.S p 1.p 0 M.2X8X).W.U.R.R.R.R.R.R.R.R.R.R.R.R.R.R.R.R.R.R.",
"R.R.R.R.R.R.R.R.R.R.R.R.Q.R.R.R.R.R.R.R.R.;X0XwXqX:XT., 5 ~.z.V ;X,X;XT.C ^.B.* V *X*XI.Q.R.R.R.R.R.R.R.R.R.R.R.R.R.R.R.R.R.R.R.",
"R.R.R.R.R.R.R.R.R.R.R.R.R.R.R.R.R.R.R.R.Q.3X0XrX0XT.V & M :XT.Z 6XrX6X`.S m.Q.5 k U.U.).:X~.R.R.R.R.R.R.R.R.R.R.R.R.R.R.Y.~.R.R.",
"R.R.R.R.R.R.R.R.R.R.R.R.R.R.R.R.R.R.R.R./.3X2X^.`.B.& % 1.m.z.1.,XqXqX,Xz.M c.c :.x m.*X8X*XS.V.V.I.U.R.R.R.R.R.R.R.R.R.R.R.R.R.",
"R.R.R.R.E.R.R.R.R.R.R.R.R.R.R.R.R.R.R.R.~.4X9X(.1.A p t (._.M Z =X2X3X7Xc.Z B.&.L.B N.).D./ ! K K Q W ) M.U.R.R.R.R.R.R.R.R.R.R.",
"R.R.R.R.R.R.R.R.R.R.R.R.R.R.R.R.R.R.R.R.~.4XwX1Xc.k.z.m Q.~.;.P.;X;X2X7XA.B c.&.OX,.g Q P Y T R T T Y J G ) U.R.R.R.R.R.R.R.R.R.",
"R.R.R.R.R.R.R.R.R.R.R.R.R.R.R.R.R.R.R.R.R.8XyX9X/.B.B.n z.1.Z W.<X<X<X<X(.B Z 3.n.) K Y E o.} } } } E R I G ~ Y.R.R.Q.R.R.R.R.R.",
"R.R.R.R.R.R.R.R.R.R.R.R.R.R.R.R.R.R.R.R.~.4XeX9X(.S.I.B c 1.N./.=X;X;X(.(.B.B.1.g K U E E o.o.o.o.o.o.E R I G ) R.R.R.R.R.R.R.R.",
"R.R.R.R.R.R.R.R.R.R.R.R.R.Q.R.R.R.R.R.R.Y.,XwXwX_.S.S.z.M U..X;X(.(.~.(.=X2X<X| G I R { } o.o.o.o.} } { R I J D l.W.R.R.R.R.R.R.",
"R.R.R.R.R.R.R.R.R.R.R.R.R.R.R.R.R.R.R.R.R.&XqX4X^.T.1.n m h V.;X7X7X7X7X9X2XV.a J R T { X.X.X.X.X.( U P R I J D a I.R.R.R.R.R.R.",
"R.R.R.R.R.R.R.E.R.R.R.R.R.R.R.R.R.R.R.R.R.E.2X4XT.S.m w 8 3 H ! |  ./ / / ^ 3 3 J P P / / j j j j 2 2 2 - G D D - ,.R.R.R.R.R.R.",
"R.R.R.R.R.R.R.R.R.R.R.R.R.R.R.R.R.R.R.R.R.I.Y.| n c.c b $.=.-.B f 3 H d B V w < H d a 1 @ + @ 1 1 + + + + > 2 - - f b.U.R.R.R.R.",
"R.R.W.R.R.R.R.R.R.R.R.R.R.R.R.R.R.R.R.R.R.c.h `  .D.k =.w.y.@X+Xf.0.u.t.d.-.8 : d 1 1 C 9 o o o .     o o X o > + s t Z R.R.R.R.",
"R.R.R.R.R.R.R.R.R.R.R.R.R.R.R.R.R.R.R.R.E.T.O.@.....b 8.t.t.r.+X#Xu.#XOX0.1.9 > q & Q.2Xu o O o X X X o O %   + > 0 i C T.R.R.R.",
"R.R.R.R.R.R.R.R.R.R.R.R.R.R.R.R.R.R.R.R.E.T.O.+.|  .Z e.t.r.t.t.u.u.#X+X-.' M > @ u 2X;Xr X o o X o o o # S 0 + = e M l.I.R.R.R.",
"R.R.R.R.R.R.R.R.R.R.R.R.R.R.R.R.R.R.R.R.E.T. .O.S.Z.c.u.@XOXy.9.r.r.+Xw.m n ' 1 + n n 5 O X o o o o o o O 1.f O @ y n M P.R.R.R.",
"R.R.R.R.R.R.R.R.R.R.R.R.R.R.R.R.R.R.R.R.R.R.| ` V.I.v q.+X@X+Xy.&.$.&.6 u M S > + n o o X o o X o o o o O u * X @ y y V A.R.R.R.",
"R.R.R.R.R.R.R.R.R.R.R.R.R.R.R.R.R.R.R.R.R.R.| h b.I.$.q.+X@X@X+Xr.r 4 $ r p C @ X f O o o o o o o o o o O O o   + t 8 f S.R.R.R.",
"R.R.W.R.R.R.R.R.R.E.R.R.R.R.R.R.R.R.R.R.R.R.S.,.,.C.%.q.d.@X@X@Xe.3.m 7 b r u & O 8 $ o   o o o o o o o o o   . , M C ;.U.R.R.R.",
"R.R.R.R.R.W.R.R.R.R.R.R.R.R.R.R.R.R.R.R.R.R.R.R.T.I.=.e.f.@X#X@Xw.n.n.<.d.f.r.&.5 * # o o o o o o o o o O o O * z.U.R.R.R.R.R.R.",
"R.R.R.R.R.R.R.R.R.R.R.R.R.R.R.R.R.R.R.R.R.R.R.R.R.U.:.a.h.@X$Xh.y.P.A.9.$X%X%X$Xr.0 1 X o o X o o o o o o % , V U.R.R.R.R.R.R.R.",
"R.R.R.R.R.R.R.R.R.R.R.R.R.R.R.R.R.R.R.R.R.R.R.R.R.U.7.a.h.@X$X$Xd.I.P.9.#X%X%X%Xh.2.t 8 # o X X o o O # 8 0 m P.R.R.R.R.R.R.R.R.",
"R.R.R.R.R.R.R.R.R.R.R.R.R.R.R.E.R.R.R.R.R.R.R.R.R.R.n.a.h.h.$X$Xu.I.P.r.%X%X%X%Xh.r.c.n p 9 * % $ & 8 e e C U.R.R.R.R.R.R.R.R.R.",
"R.R.R.W.R.R.R.R.R.R.R.R.R.R.R.R.R.R.R.R.R.R.R.R.R.R.K.q.h.$X$X$Xy.P.N.q.@X%X%X%Xf.0.Y.I.;.M n p p p n C C.T.R.R.R.R.R.R.R.R.R.R.",
"R.R.W.R.R.R.R.R.R.R.R.R.R.R.R.R.R.R.R.R.R.R.R.R.R.R.,.*.h.$X%X+Xw.I.Z.=.d.$X%Xh.w.K.R.R.R.R.U.U.S.I.T.E.R.R.R.R.R.R.R.R.R.R.R.R.",
"R.R.R.R.R.R.R.R.R.R.R.R.R.R.R.R.R.R.R.R.R.R.R.R.R.R.,.k d.$X$Xd.&.A.S.=.e.h.h.a.:.P.R.R.R.R.R.R.R.R.R.T.R.R.R.Q.R.R.R.R.R.R.R.R.",
"R.R.R.R.R.R.R.R.R.R.R.R.R.R.R.R.R.R.R.R.R.R.R.R.R.R.L.k >.d.+X>.6 N.I.=.q.d.d.q.z P.R.R.R.R.R.R.R.R.R.R.R.R.R.R.R.R.R.R.R.R.R.R.",
"R.R.R.R.R.R.R.R.R.R.R.R.R.R.R.R.R.R.R.R.R.R.~.Y.R.W.:.$.$.:.w.$.r K.N.<.4.e.a.<.z C.R.R.R.R.R.R.R.R.R.R.R.R.R.R.R.R.R.R.R.R.R.R.",
"R.R.R.R.R.R.R.R.R.R.R.R.R.R.R.R.R.R.R.R.R.R.R.R.R.R.K.:.z $.#.4 -.Y.K.y.=.4.=.%.-.U.R.R.R.R.R.R.R.R.R.R.R.R.R.R.R.R.R.R.R.R.R.R.",
"R.R.R.R.Q.R.R.R.R.R.R.R.R.R.R.R.R.R.R.R.R.R.R.R.R.R.G.%.$.z #.4 n.U.0.d.7.=.*.%.:.U.R.R.R.R.R.R.R.R.R.R.R.R.R.R.R.R.R.R.R.R.R.R.",
"R.R.R.R.R.R.R.R.R.R.R.R.R.Q.R.R.R.R.R.R.R.R.R.R.R.R.U.b 5 4 $ o 1.Y.3.=.7.*.%.2.K.R.R.R.R.R.R.R.R.R.R.R.R.R.R.R.R.R.R.E.R.R.R.R.",
"R.R.R.R.R.R.R.R.R.R.R.R.R.R.R.R.R.R.R.R.R.R.R.R.R.R.U.-.$.k 6 5 ;.T.0.u.8.7.8.9.U.R.R.R.R.R.R.R.R.R.R.R.R.R.R.R.Q.R.R.R.R.R.R.R.",
"R.R.R.R.R.R.R.R.R.R.R.R.R.R.R.R.R.R.R.R.R.R.R.R.R.R.R.;.#.#.7 4 z.Y.t.d.+Xf.+Xt.U.R.R.R.R.R.R.R.R.R.R.R.Q.R.R.R.R.R.R.R.R.R.R.R.",
"R.R.R.R.R.R.R.R.R.R.R.R.R.R.R.R.R.R.R.R.R.R.R.R.R.R.R.8.>.>.#.z C.I.2.2.2.<.<.1.R.R.R.R.R.R.R.R.R.R.R.R.R.R.R.R.R.R.R.R.R.R.R.R.",
"R.R.R.R.R.R.R.R.R.R.R.R.R.R.R.R.R.R.R.R.R.R.~.R.R.R.Y.:.5.p.>.>.N.T.-.2.8.4.=.1.U.R.R.R.R.R.R.R.R.R.R.R.R.R.R.R.R.R.R.R.R.R.R.R.",
"R.R.R.R.R.R.R.R.R.R.R.R.R.R.R.R.R.R.R.R.R.R.Y.R.R.R.I.i.g.g.i.*.C.E.3.$.*.*.#.V R.R.R.R.R.R.R.R.R.R.R.R.R.R.R.R.R.R.R.R.R.R.R.R.",
"R.R.R.R.R.R.R.R.R.R.~.R.R.R.R.R.R.R.R.R.R.R.R.R.R.R.Y.6.g.s.i.=.I.T.1.*.6.i.6.:.R.R.R.R.R.R.R.R.R.R.R.R.R.R.R.R.R.R.R.E.R.R.R.R.",
"R.R.R.R.R.R.R.R.R.R.R.R.R.R.R.R.R.R.R.R.R.R.R.R.R.R.~.,.7.6.>.K.R.R.1.*.s.j.j.i.K.Q.R.R.R.R.R.R.R.R.R.R.R.R.R.R.R.R.R.R.R.R.R.R.",
"R.R.R.R.R.R.R.R.R.R.R.R.R.R.R.R.R.R.R.R.R.R.R.R.R.R.R.R.T.U.Y.R.R.R.U.3.a.s.s.i.>.I.R.R.R.R.R.R.R.R.R.R.R.R.R.R.R.R.R.R.R.R.R.R.",
"R.R.R.R.R.R.R.R.R.R.R.R.R.R.R.R.R.R.R.R.R.R.R.R.R.R.R.~.R.R.R.R.R.R.R.T.I.P.L.3.L.R.R.R.R.R.R.R.R.R.R.R.R.R.R.R.R.R.R.R.R.R.R.R."
};
