/* XPM */
static char *_11721606555[] = {
/* columns rows colors chars-per-pixel */
"64 64 233 2 ",
"   c #1E1C1C",
".  c #23211F",
"X  c #252326",
"o  c #252428",
"O  c #28272B",
"+  c #28282B",
"@  c #332E2C",
"#  c #392D29",
"$  c #3A312E",
"%  c #2D2E34",
"&  c #312F31",
"*  c #27323D",
"=  c #343335",
"-  c #393635",
";  c #3D3B3D",
":  c #43271A",
">  c #72371E",
",  c #583224",
"<  c #51312A",
"1  c #463A35",
"2  c #413D3D",
"3  c #663828",
"4  c #743424",
"5  c #4B433D",
"6  c #57443C",
"7  c #6E4330",
"8  c #734A38",
"9  c #383D46",
"0  c #413F41",
"q  c #374859",
"w  c #3A4E65",
"e  c #3E5166",
"r  c #3B597E",
"t  c #454244",
"y  c #4A4747",
"u  c #4D4B4D",
"i  c #524C4C",
"p  c #4E4E53",
"a  c #514E50",
"s  c #545354",
"d  c #595557",
"f  c #5C5A5C",
"g  c #6C564F",
"h  c #765649",
"j  c #645C5B",
"k  c #726159",
"l  c #46586A",
"z  c #5E5F66",
"x  c #455C74",
"c  c #615E60",
"v  c #4B647C",
"b  c #586573",
"n  c #636264",
"m  c #686569",
"M  c #6D6B6C",
"N  c #716B6A",
"B  c #6E6E71",
"V  c #717073",
"C  c #747374",
"Z  c #767579",
"A  c #7B7778",
"S  c #7B7A7C",
"D  c #87391F",
"F  c #894728",
"G  c #854B34",
"H  c #9A4C38",
"J  c #955432",
"K  c #A74723",
"L  c #AD5C2E",
"P  c #B85528",
"I  c #A55436",
"U  c #9A643F",
"Y  c #B36431",
"T  c #C75A29",
"R  c #D6682C",
"E  c #C76832",
"W  c #D16B38",
"Q  c #DB7637",
"!  c #E67C35",
"~  c #885744",
"^  c #965B47",
"/  c #98634A",
"(  c #85675A",
")  c #996B56",
"_  c #9A735B",
"`  c #AD6D4D",
"'  c #A4765B",
"]  c #926E66",
"[  c #8B7468",
"{  c #9A7864",
"}  c #857977",
"|  c #827C7D",
" . c #967E74",
".. c #A27664",
"X. c #CB7B5D",
"o. c #D4803F",
"O. c #EA873B",
"+. c #F38C3B",
"@. c #8F817E",
"#. c #94837A",
"$. c #A6846D",
"%. c #B3896C",
"&. c #A98878",
"*. c #B5927A",
"=. c #D88845",
"-. c #E58D43",
";. c #F79842",
":. c #C8987B",
">. c #D89F7A",
",. c #DFA77D",
"<. c #3D6696",
"1. c #4B6986",
"2. c #4F6D89",
"3. c #516C85",
"4. c #57738C",
"5. c #4A6D93",
"6. c #4C729B",
"7. c #597995",
"8. c #687887",
"9. c #777B85",
"0. c #657C96",
"q. c #4E7CAC",
"w. c #807E82",
"e. c #5D819C",
"r. c #7B828B",
"t. c #65839D",
"y. c #798798",
"u. c #5B83A5",
"i. c #4780BE",
"p. c #5985B6",
"a. c #6285A4",
"s. c #678BAA",
"d. c #7689A0",
"f. c #6C91AC",
"g. c #7B94AA",
"h. c #648EB3",
"j. c #6C94B4",
"k. c #6A96B9",
"l. c #7296B3",
"z. c #779BB7",
"x. c #749CBB",
"c. c #7AA1BE",
"v. c #538CC7",
"b. c #528CC8",
"n. c #5A97D4",
"m. c #6B99C1",
"M. c #739FC3",
"N. c #669FD6",
"B. c #75A2C5",
"V. c #79A4C6",
"C. c #7CAACB",
"Z. c #7BADD2",
"A. c #72ACDA",
"S. c #78AFD8",
"D. c #6FABE2",
"F. c #838284",
"G. c #898486",
"H. c #85858A",
"J. c #8A8789",
"K. c #8B8A8C",
"L. c #9A8A84",
"P. c #938C8C",
"I. c #888C94",
"U. c #958F91",
"Y. c #8C939D",
"T. c #939295",
"R. c #9A9595",
"E. c #95959B",
"W. c #99969A",
"Q. c #97989E",
"!. c #9C9A9D",
"~. c #A48C82",
"^. c #A79688",
"/. c #B89783",
"(. c #A19793",
"). c #A29C9C",
"_. c #B0A296",
"`. c #B8A995",
"'. c #808DA4",
"]. c #8B95A5",
"[. c #949AA3",
"{. c #9C9DA2",
"}. c #A19EA3",
"|. c #9DA4AE",
" X c #A3A2A6",
".X c #A7A6AB",
"XX c #A9A7A8",
"oX c #A8A7AB",
"OX c #ABAAAD",
"+X c #B5ADA7",
"@X c #AEAEB1",
"#X c #B1AFB0",
"$X c #AFB1B3",
"%X c #B3B2B4",
"&X c #B6B6B8",
"*X c #B8B7B8",
"=X c #B9B6B9",
"-X c #BCBBBC",
";X c #C69F84",
":X c #CBA387",
">X c #D7A88B",
",X c #CFAA9A",
"<X c #D9B396",
"1X c #C7ADA7",
"2X c #C3BEBD",
"3X c #F0C29C",
"4X c #D1C6BD",
"5X c #82ACCB",
"6X c #89B0CD",
"7X c #83B2D4",
"8X c #89B7D7",
"9X c #85B5D9",
"0X c #8BBADC",
"qX c #BEBEC1",
"wX c #C1BFC1",
"eX c #BFC0C2",
"rX c #C4C3C4",
"tX c #C7C6C8",
"yX c #CCCBCC",
"uX c #D3CFCF",
"iX c #CECDD0",
"pX c #D4D3D4",
"aX c #D9D8D7",
"sX c #DCDBDC",
"dX c #E0DFDF",
"fX c #E1DFE1",
"gX c #E4E3E3",
"hX c #E9E8E6",
"jX c #ECEBEB",
"kX c #F0EFEF",
"lX c #F3F2F3",
"zX c #F9F9F6",
"xX c #FAF9F8",
/* pixels */
".X.X.X.X.X.X.X.X.X.X.X.X.X.X.X.X.X.X.X.X.X.X.X.X.X.X.X.X.X.X.X X}.}.(. XXXOX|.XX.X.X.X.X.X.X.X.X.X.X.X.X.X.X.X.X.X.X.X.X.X.X.XoX",
".X.X.X.X.X X{.!.T.T.T.I.w.E.}.}..X.X.X.X.X.X.XXX X.X.X.XXX!.P.( ` Y U ) #.XXOXOX.X.X.X.X.X.X.X.X.X.X.X.X.X.X.X.X.X.X.X.X.X.X.X.X",
".X.X.X.XT.M s i u u t 1 < < d B C S S r.r.F.r.S A S r.@.G.S 7 F L L Y L J T.|.XX.X.X.X.X.X.X.X.X.X.X.X.X.X.X.X.X.X.X.X.X.X.X.X.X",
".X.X{.S u ; 1 q u u t < 4 4 , i f a s s s j j m M B C Z | h 7 F F 8 > J J ) {.XX.X.X.X.X.X.X.X.X.X.X.X.X.XoX.X.XoX.X.X.X.X.X.X.X",
".X XC t 9 0 ; d w.w.m ~ ^ ~ i d f u i 5 t s d d d s f c c 7 > D , # 3 , > L _.&X.X.X.X.X.X.X.X.X.X.X.X.X.X.X.X.X.X.X.X.X.X.X.X.X",
".X!.n m f j s C w.w.w.....] N w.T.C M u m B @.K.A B K.@.@.6 , 7 ` $.*.>.h F T.*X%X.X.X.X.X.X.X.X.X.XoXoXoX.X.X.X.X.X.X.X.X.X.XoX",
".XI.V G.S P.B K.wX=X1Xw.w.w.}..X|.G.S c T.).XX%XT.W.qXOX$Xm , / >.3X3X>X$.k ).E.XXoX.X.X.X.X.X.X.X.XoXoX.X.X.X.X.X.X.X.X.X.X.X.X",
".XH.J.!.T.!.A  XwXwXw.H I ` +XwXOXK.@.M XXOX=X-XR.XXtX%X-X| 6 h 6 $.( 6 8 ).jXXXI.}..X.X.X.X.X.X.X.XoXoX.X.X.X.X.X.X.X.X.X.X.X.X",
"XXK.).XX!.R.C =XwXsXw.T H X.wXiX!.T.K.A #X%X-XqXW. XwXwX=X .g &.*.[ #.`. .R.zXrX{.{.XX.X.X.X.X.X.X.X.X.X.X.X.X.X.X.X.X.X.X.X.X.X",
"XXT.$XXXT.9.A tXsXsX:.W W X.uXfX&XOXT.K.XXOX%X@XW.rXpXpXrXG.h /.:X:.:.,X&.+XxXtXrXtXXX.X.X.X.X.X.X.X.X.X@X.X.X.X.X.X.X.X.X.X.X.X",
".XE.-XXXF.G.K.rXwXwX1X>X>X,XfXfXqX%X XtXhXjXjXhXpXjXkXlXgX}.L.;X3X:.<X3X<XhXzXrXpXsX@X.X.X.X.X.X.X.X.X.X.X.X.X.X.X.X.X.X.X.X.X.X",
".X-XaXrX#.#._.sXlXlXlXlXkXkXkXkXsXrXrXqXjXlXlXlXkXjXhXgXsXyX2X:X3X:X<X3X4XlXkX&XfXfX.X.X.X.X.X.X.X.X.X.X.X.X.X.X.X.X.X.X.X.X.X.X",
".X-XsX+X~./.(.-XpXwXsXwXiXuXuXpXpXiXyXwXqXrXtXtXtXtXyXyX-X=X%X(.:.,.>X$._ { _ / { L.G.}.XX}..X.X.X.X.X.X.X.X.X.X.X.X.X.X.X.X.X.X",
".XOX-X2X_.,X+XdXlXkXkXkXjXgXjXfXfXsXaXsXsXsXsXfXsXsXsXsXsXsXfXwXk ) U Y E W W Q W Y H ( W.OX.X.X.X.X.X.X.X.X.X.X.X.X.X.X.X.X.X.X",
".X.X.XOXwXwXwXjXlXlXlXlXlXkXkX=XW.sXjXjXjXhXjXgXyX-XsXsXgXgX2X~.~ J E Q O.O.O.+.! ! R P G 9.OX.X.X.X.X.X.X.X.X.X.X.X.X.X.X.X.X.X",
".XXXXXOX}.}.}.}.=XwXwXwXiXpXfXw.S XXtXsXyXE.{.yXW.B {.W.OX-X).( L E O.+.;.;.;.+.;.O.Q R T G R.XX.X.X.X.X.X.X.X.X.X.X.X.X.X.X.X.X",
".X.X X@X*X X!.!.XXOX%X*X-X-X-X*X%XOX%X%X).S J.-X X!.&XOXOXyXP.H T o.+.+.;.;.;.;.+.+.! R T K h {..X.X.X.X.X.X.X.X.X.X.X.X.X.X.XoX",
".X.X{.T.).).P.K.T.S @.| A w.S A @.U.T.T.H.F.S w.$XhXhX-X X}./ P R O.O.O.-.=.=.Q Q Q ! R T K D A .X.X.X.X.X.X.X.X.X.X.X.X.X.X.XoX",
".X.X.X XW.W.).}. X| G.r.S S w.@.S r.F.K.J.T.T. XhXzXzXgXXX@.F P Y Y ` $.{ { [ ( h h G J K K D 7 {..X.X.X.X.X.X.X.X.X.X.X.X.X.XoX",
".X.X.X.X X X.XOX.X X X X}.}.{.{.{.{.!.!.E.E.W.sXzXzXzXhX$Xg F I h h 6 5 $ y 6 1 # # # 1 < 3 > 3 w. X.X.X.X.X.X.X.X.X.X.X.X.X.X.X",
".X.X.X.X.X.X.X.X.X.X.X.X.X.XXX.X.X.X.X.XXX.X%XlXzXzXzXsXS 5 7 g 5 ; s = O o O o X o X X . 1 < : c f T..X.X.X.X.X.X.X.X.X.X.X.X.X",
".X.X.X.X.X.X.X.X.X.X.X.X.X.X.X.X.X.X.X.X.X.X&XzXzXzXjX+XC ; 6 5 5 +XXX= O o o o o o o O O   $ # d d w.oX.X.X.X.XoX.X.X.X.X.X.X.X",
".XXX.X.X.X.X.X.X.X.X.X.X.X.X.X.X.XXX.X.X.X%XiXfXzXzXhXF.F.5 5 @ C hXpX0 o o o o o o o = C O - # d V w.}..X.X.X.X.X.X.X.X.X.X.X.X",
".X.X.X.X.X.X.X.X.X.X.X.X.X.X.X.X.X.X.X.X.XOXlXgXlXlXpXM C C 5 @ V r.u + o o O o o o o - XX; & 1 c c V .X.X.X.X.X.X.X.X.X.X.X.XoX",
".X.X.X.X.X.X.X.X.X.X.X.X.X.X.X.X.X.X.X.X.X@XpXgXkXgX=XC n N 1 = u + o o o o o o o o o % S & & # N i w.}..X.X.X.X.X.X.X.X.X.X.X.X",
".X.X.X.X.X.X.X.X.X.X.X.X.X.X.X.X.X.X.X.XoXtXhXjXhXyXR.m f N @ @ p . o o + o o o o o o O %   . # c 2 9..X.X.X.X.X.X.X.X.X.X.X.X.X",
".X.X.X.XOX.X.X.X.X.X.X.X.X.X.X.X.X.X.X.XOXaXhXkXhX XM 0 t f @ + s o o o o o o o o o o O o   . 2 f d 9.}..X.X.X.X.X.X.XoX.X.X.X.X",
".X.X.X.X.X.X.X.X.X.X.X.X.X.X.X.X.X.X.X.X%XpXaX%X-XT.- = B f y = 0 + o o o o o o o o o O o X ; H.}.}..X.X.X.X.X.X.X.X.X.X.XoX.X.X",
".X.X.X.X.X.X.X.X.X.X.X.X.X.X.X.X.X.XoX.X@XsXsX&Xw.S f s &X=Xm s t % X X o o o o o o o o = y 9.}..X.X.X.X.X.X.X.X.X.X.X.X.X.X.X.X",
".X.X.X.X.X.X.X.X.X.X.X.X.X.X.X.X.X.X.X.X@XsXjXuXK.r.H.m OX$XS Y.C u = o o o . o o O & ; u w.wX.X.X.X.X.X.X.X.X.X.X.X.X.X.X.X.X.X",
".X.X.X.X.X.X.X.X.X.X.X.X.X.X.X.X.X.X.X.X.XgXlXgX%XT.T.n r.r.Z OXeXF.f y 9 % + + % t u d P.aXyX.X.X.X.X.X.X.X.X.X.X.X.X.X.XoX.X.X",
".XXX.X.X.X.X.X.X.X.X.X.X.X.X.X.X.X.X.X.XOXsXkXgX%X!.}.B n r.Y.&XeXeX{.M n f s p d f n W.fXjXfX@X.X.X.X.X.X.X.X.X.X.X.X.X.X.X.X.X",
".X.X.X.X.X.X.X.X.X.X.X.X.X.X.X.X.X.X.X.XXXiXjXjX&X{.{.H.m }.2XtX*X$X$X&X$X&XOXK.K.E.r.H.OXeX&X X XOX.X.X.X.X.X.X.X.X.X.X.X.X.X.X",
".X.X.X.X.X.X.X.X.X.X.X.X.X.X.X.X.X.X.X.X|.qXhXsX%X Xw.n M k R.tXsXdXdXgXgXpX_.n F.E.9.[.H.qX-XE..X.X.X.X.X.X.X.X.X.X.X.X.X.X.X.X",
".X.X.X.X.X.X.X.X.X.XXXoX.X.X.X.X.X.X.X.X.XXXpXsX X{.M p t 7 J / $.$.' ' _ / 8 5 9 r.I..XF.K.S V  X.X.X.X.X.X.X.X.X.X.X.X.X.X.X.X",
".X.X.XoX.X.X.XoX.XoXXX.X.X.X.X.X.X.X.X.X.X{..X@.c K.z v 2.7.8.V n 8 G h M 8.7.2.e K..X.X!.$.%.~..X.X.X.X.X.X.X.X.X.X.X.X.X.X.X.X",
".X.X.X.X.X.X.X.X.X.X.X.X.X.X.X.X.X.X.X.X.XK.k { %.^.l 7.f.c.5X5X5Xl.c.z.5Xx.j.s.2.I..X.X).&.{ /. XOX.X.X.X.X.X.X.X.X.X.X.X.X.X.X",
"oX.X.X.X.X.X.X.X.X.X.X.X.X.X.X.X.X.X.X.XXX X:.,.%.*.b f.l.c.x.5X6Xc.8X6X5Xj.s.a.f.y..X.X XL.} &. X.X.X.X.X.X.X.X.X.X.X.X.X.X.X.X",
".X.X.X.X.X.X.X.X.X.X.X.X.X.X.X.X.X.X.X.X.X X:.>.#.&.Z k.l.l.g.l.c.c.6X6Xx.s.e.l.B.y..X.X XR.).#. X.X.X.X.X.X.X.X.X.X.XOX.X.X.X.X",
".X.X.X.X.X.X.X.XoX.X.X.X.X.X.X.X.X.X.X.X.X.X$.:.).T.K.c.7X5Xc.f.l.l.5Xl.7.3.f.C.B.]..X.XXX X.X!. XOX.X.X.X.X.X.X.X.X.X.X.X.X.X.X",
".X.X.X.X.X.X.X.X.X.X.X.X.X.X.X.X.X.X.X.X.X X$.{ R.{.v h.5X7X5Xc.4.3.4.l q e.c.C.C.g..X.X.X.X.X.X.X.X.X.X.X.X.X.X.X.X.X.X.X.X.X.X",
".XoX.X.X.X.X.X.X.XOX.X.X.X.X.X.X.X.X.X.X.X|.9.k P.{.3.h.C.8X7XC.f.l q % x s.V.Z.Z.c. X.X.X.X.X.X.X.X.X.X.X.X.X.X.X.X.X.X.X.X.X.X",
".X.X.X.X.X.X.X.X.X.X.X.X.X.X.X.X.X.X.X.X.X.X X| S E.2.h.C.7X8X8Xx.t.n l h.C.9XS.S.B..X.X.X.X.X.X.X.X.X.X.X.X.X.X.X.X.X.X.X.X.X.X",
".X.X.X.X.X.X.X.X.X.X.X.X.X.X.X.X.XOX.XOX.X.X.XOX X{.7.k.C.Z.8X5Xf.Y.K.7.C.9X0X0XS.B.|..X.X.X.X.X.X.X.X.X.X.X.X.X.X.X.X.X.X.X.X.X",
".X.X.X.X.X.X.X.X.X.X.X.X.X.X.X.X.X.X.X.X.X.X.XXX.X{.0.m.Z.7X9X5Xl.Q.E.f.7X0X0X0XS.B.|..X.X.X.X.X.X.X.X.X.X.X.X.X.X.X.X.X.X.X.X.X",
".X.X.X.X.X.X.X.X.X.X.X.X.X.X.X.X.X.X.X.X.X.X.X.X.X Xa.M.Z.7X9X7Xc.|.!.s.9X0X0X0XS.M..X.X.X.X.X.X.X.X.X.X.X.X.X.X.X.X.X.X.X.X.X.X",
"OX.X.X.X.X.X.X.X.X.X.X.X.X.X.X.X.X.X.X.X.X.X.X.X.X.X'.m.Z.Z.9X9Xc.{.[.j.8X0X0X0XS.x. X.X.X.X.X.X.X.X.X.X.X.X.X.X.X.X.X.X.X.X.X.X",
".X.X.X.X.X.X.X.X.X.X.X.X.X.X.X.X.X.X.X.X.X.X.X.X.X.XE.h.Z.7X8X9Xx.[.E.h.6X0X0X0XB.g. X.X.X.X.X.X.X.X.X.X.X.X.X.X.X.X.X.X.X.X.X.X",
".X.X.X.X.X.X.X.X.X.X.X.X.X.X.X.X.X.X.X.X.X.X.X.X.X.Xw.7.Z.9X0X7Xf.{.W.7.M.7X9X7Xj.]..X.X.X.X.X.X.X.X.X$X.X.X.X.X.X.X.X.X.X.X.X.X",
".X.X.X.X.X.X.XOX.X.X.X.X.X.X.X.X.X.X.X.X.X.X.X.X.X.Xw.l M.9X9XM.4.!.!.7.j.Z.Z.B.0.}..X.X.X.X.X.X.X.X.X.X.X.X.X.X.X.X.X.X.X.X.X.X",
".X.X.X.X.X.X.X.X.X.X.X.X.X.X.X.X.X.X.X.X.X.X.X.X.X.X'.l 0.A.7X0.e Y.{.7.h.B.B.h.x Q..X.X.X.X.X.X.X.X.X.X.X.X.X.X.X.X.X.X.X.X.X.X",
".X.X.X.X.X.X.X.X.X.X.X.X.X.X.X.X.X.X.X.X.X.X.X.X.X.X0.1.x q.m.1.q ].[.7.u.k.m.7.x E..X.X.X.X.X.X.X.X.X.X.X.X.X.X.X.X.X.X.X.X.X.X",
".X.X.X.X.X.X.X.X.X.X.X.X.X.X.X.X.X.X.X.X.X.X.X.X.X.XI.0.x 1.<.q 8..X].x.6.u.q.2.8.}..X.X.X.X.X.X.X.X.X.X.X.X.X.X.X.X.X.X.X.X.X.X",
".X.X.X.X.X.X.X.X.X.X.X.X.X.X.X.X.X.X.X.X.X.X.X.X.X.X}.8.1.x r 9 I. Xg.V.a.7.7.4.0.}..X.X.X.X.X.X.X.X.X.X.X.X.X.X.X.X.X.X.X.X.X.X",
".X.X.X.X.X.X.X.X.X.X.X.X.X.X.XOX.X.X.X.X.X.X.X.X.X.X}.b w 9 * o r..Xy.7.s.2.6.0.]..X.X.X.X.X.X.X.X.X.X.X.X.X.X.X.X.X.X.X.X.XOX.X",
".X.X.X.X.X.X.X.X.X.X.X.X.X.X.X.X.X.X.X.X.X@X.X.X.X.X}.4.1.l w q 9. Xg.x.h.a.a.d.}..X.X.X.X.X.X.X.X.X.X.X.X.X.X.X.X.X.X.X.X.X.X.X",
".X.X.X.X.X.X.X.X.X.X.X.X.X.X.X.X.X.X.X.X.X.X.X.X.X.X.X9.r <.r 9 I.{.z.V.5XC.5Xg.|..X.X.X.X.X.X.X.X.X.X.X.X.X.X.X.X.X.X.X.X.X.X.X",
".X.X.X.X.X.X.X.X.XOX.X.X.X.X.X.X.X.X.X.X.X.X.X.X.X.X.Xg.q.i.6.x E.[.t.u.t.t.e.y..X.X.X.X.X.X.X.X.X.X.X.X.X.X.X.X.X.X.X.X.X.X.X.X",
".X.X.X.X.X.X.X.X.X.X.X.X.X.X.X.X.X.X.X.X.X.X.X.X.X.X|.0.i.n.i.5.E. X8.t.s.e.7.r.{.XX.X.X.X.X.X.X.X.X.X.X.X.X.X.X.X.X.X.X.X.X.X.X",
".XOX.X.X.X.X.X.X.X.X.X.X.X.X.X.X.X.X.X.X.X.X.X.X.X.X}.b.D.n.b.6.[. Xy.3.5.6.<.B .X.X.X.X.X.X.X.X.X.X.X.X.X.X.X.X.X.X.X.X.X.X.X.X",
".X.X.X.X.X.X.X.X.X.X.XOX.X.X.X.X.X.X.X.X.X.X.X.X|..X Xp.N.N.b.q.{. Xr.6.p.v.p.t..X.X.X.X.X.X.X.X.X.X.X.X.X.X.X.X.X.X.X.X.X.X.X.X",
".X.X.X.X.X.X.X.X.X.X.X.X.X.X.X.X.X.X.X.X.X.X.X.X.X.XqXw.q.p.0.]..X Xr.6.N.D.A.v.].OX.X.X.X.X.X.X.X.X.X.X.X.X.X.X.X.X.X.X.X.X.X.X",
".X.X.X.X.X.X.X.X.X.X.X.X.X.X.X.X.X.X.X.X.X.X.X.X.X.X|.|. X|. X.X.X.X Xy.m.N.n.v.q. X.X.X.X.X.X.X.X.X.X.X$X.X.X.X.X.X.X.X.X.X.X.X",
".X.X.X.X.X.X.X.X.X.X.X.X.X.X.X.X.X.X.X.X.X.X.X.X.X.X.X.X.X.X.X.X.X.XXX.X{.].].'.]..X.X.X.X.X.X.X.X.X.X.X.X.X.X.X.X.X.X.X.X.X.X.X"
};
