/* XPM */
static char *_21721606555[] = {
/* columns rows colors chars-per-pixel */
"64 64 221 2 ",
"   c #1E1C1C",
".  c #262425",
"X  c #242328",
"o  c #2B292B",
"O  c #352D2B",
"+  c #2B2E34",
"@  c #323134",
"#  c #343334",
"$  c #393637",
"%  c #3A393C",
"&  c #592B1F",
"*  c #51342E",
"=  c #453936",
"-  c #423E3D",
";  c #703327",
":  c #5B463A",
">  c #6F4533",
",  c #383E45",
"<  c #374859",
"1  c #3A4E65",
"2  c #3E5166",
"3  c #3B597E",
"4  c #444245",
"5  c #484647",
"6  c #4D4B4C",
"7  c #544D4D",
"8  c #4D4E52",
"9  c #514F50",
"0  c #555354",
"q  c #5A5555",
"w  c #585659",
"e  c #5C5B5D",
"r  c #6E544E",
"t  c #785548",
"y  c #655E5C",
"u  c #6E6059",
"i  c #7A6454",
"p  c #475768",
"a  c #5E5F66",
"s  c #445B74",
"d  c #495E77",
"f  c #615F60",
"g  c #5B626C",
"h  c #4B647C",
"j  c #596676",
"k  c #636264",
"l  c #666569",
"z  c #686669",
"x  c #6B6A6D",
"c  c #716B6A",
"v  c #6C6D71",
"b  c #706F71",
"n  c #6E7379",
"m  c #747375",
"M  c #7C7576",
"N  c #75757A",
"B  c #7B7A7C",
"V  c #8D3B1F",
"C  c #8E462D",
"Z  c #994C37",
"A  c #985839",
"S  c #A34D2A",
"D  c #BA5629",
"F  c #A65738",
"G  c #AB6339",
"H  c #C05227",
"J  c #C8622D",
"K  c #CE6B33",
"L  c #D16B39",
"P  c #D77234",
"I  c #E57C38",
"U  c #8D5441",
"Y  c #976448",
"T  c #8D6A57",
"R  c #AB6F59",
"E  c #8B6D66",
"W  c #9C7A65",
"Q  c #897976",
"!  c #827C7D",
"~  c #A27564",
"^  c #CA7D52",
"/  c #E68338",
"(  c #F38E3C",
")  c #94837A",
"_  c #B3896C",
"`  c #AA8777",
"'  c #B29078",
"]  c #CD844B",
"[  c #D98A48",
"{  c #F69742",
"}  c #C6977A",
"|  c #D89F7A",
" . c #E8AB7C",
".. c #3D6696",
"X. c #4B6986",
"o. c #4F6D89",
"O. c #546D85",
"+. c #58738B",
"@. c #4A6D93",
"#. c #4C729B",
"$. c #587996",
"%. c #5C7A95",
"&. c #677788",
"*. c #797C83",
"=. c #657C96",
"-. c #4E7CAC",
";. c #807E82",
":. c #5D819C",
">. c #7F8186",
",. c #7B838B",
"<. c #65839D",
"1. c #798797",
"2. c #5B83A5",
"3. c #4780BE",
"4. c #5985B6",
"5. c #6285A4",
"6. c #6788A9",
"7. c #658CAC",
"8. c #698DAB",
"9. c #7689A0",
"0. c #6C91AC",
"q. c #7B94AA",
"w. c #648EB3",
"e. c #6C94B4",
"r. c #6A96B9",
"t. c #7296B3",
"y. c #779BB7",
"u. c #749CBB",
"i. c #7AA1BE",
"p. c #538CC7",
"a. c #528CC8",
"s. c #5A97D4",
"d. c #6B99C1",
"f. c #739FC3",
"g. c #669FD6",
"h. c #75A2C5",
"j. c #7BA3C3",
"k. c #77A6C9",
"l. c #7CAACB",
"z. c #7BADD2",
"x. c #72ACDA",
"c. c #78AFD8",
"v. c #6FABE2",
"b. c #838284",
"n. c #888586",
"m. c #85858A",
"M. c #89878A",
"N. c #8B8B8D",
"B. c #968A84",
"V. c #928C8C",
"C. c #858C96",
"Z. c #8D8D91",
"A. c #948F92",
"S. c #8D939C",
"D. c #939294",
"F. c #9A9595",
"G. c #95959B",
"H. c #99969A",
"J. c #97989B",
"K. c #9B9A9D",
"L. c #A58C82",
"P. c #AA9789",
"I. c #A29C9C",
"U. c #B4A894",
"Y. c #8C94A3",
"T. c #8496AF",
"R. c #8A98A8",
"E. c #949AA3",
"W. c #9C9DA2",
"Q. c #A19FA3",
"!. c #9DA4AE",
"~. c #A3A2A6",
"^. c #A7A6AB",
"/. c #A9A7A8",
"(. c #A8A7AB",
"). c #ABAAAD",
"_. c #B5ACA3",
"`. c #AEAEB1",
"'. c #B1AFB1",
"]. c #B0B0B1",
"[. c #B3B2B4",
"{. c #B5B6B9",
"}. c #B9B7BA",
"|. c #B7B8BA",
" X c #BBBABC",
".X c #D2A390",
"XX c #C7ADA7",
"oX c #C4BEBC",
"OX c #C0C0BF",
"+X c #8DACC7",
"@X c #82ACCB",
"#X c #83B2D4",
"$X c #89B7D7",
"%X c #85B5D9",
"&X c #8BBADC",
"*X c #BEBEC1",
"=X c #C0BFC0",
"-X c #BFC0C2",
";X c #C4C3C4",
":X c #C6C7C9",
">X c #CCCBCC",
",X c #D7CFCD",
"<X c #D0D0CF",
"1X c #CECED1",
"2X c #D1CFD0",
"3X c #D4D3D3",
"4X c #D9D8D7",
"5X c #DCDBDC",
"6X c #E1E0DF",
"7X c #DFDFE0",
"8X c #E1DFE1",
"9X c #E4E3E3",
"0X c #E8E7E5",
"qX c #E9E8E6",
"wX c #ECECEB",
"eX c #F1EFED",
"rX c #F2F0ED",
"tX c #F0EEF0",
"yX c #F3F2F3",
"uX c #F9F9F6",
"iX c #F9F9F7",
/* pixels */
"^.^.^.^.^.^.^.^.^.^.^.^.^.^.^.^.(.(.^.^.^.^./.^.^.^.^.^.).~.~.W.D.D.D.J.^.~./.(.^.^.^.^.^.^.).^.^.^.^.^.^.^.^.^.^.^.^.^.^.^.^.^.",
"^.^.^.^.^.~.W.K.D.D.A.N.;.G.Q.Q././.~./.^.^.^./.~.^.^.^.~.B.E A G F F A T Z.^.(.^.^.^.^.^.^.^.^.^.^.^.^.^.^.^.^.^.^.^.^.^.^.^.^.",
"^.^.^.^.G.x w 8 8 6 4 = * * q b N N B >.>.m.b.B B B *.*.c F J / I / I P J Z Q Q.^.^.^.^.^.^.^.^.^.^.^.^.^.^.^.^.^.^.^.^.^.^.^.^.",
"^.^.~.N 6 - % - 6 6 4 * ; ; * 7 e 6 q q w e e l x b M i F K / ( ( { ( ( I J S Q ~.^.^.^.^.^.^.^.^.^.^.^.^.^.^.^.^.^.^.^.^.^.^.^.",
"^.~.N 4 , - - w ;.;.z U U U 7 7 e 6 6 4 4 0 q q q 0 r Z J / ( ( { { { ( I P H C V./.).^.^.^.^.^.^.^.^.^.^.^.^.^.^.^.^.^.^.^.^.^.",
"^.K.f l w f 0 m H.;.;.~ ~ ~ c ;.D.m c 6 l n ) n.M l > D P / [ [ [ ] ] K P J H V t ~.~.).^.^.^.^.^.^.^.^.^.^.^.^.^.^.^.^.^.^.^.^.",
"^.Z.b n.! V.x Z.^.'.XX;.;.;.Q.Q./.b.B k D.I./.[.D.b C G F Y T i i u r : ; > S V ; N.^.^.^.^.^.^.^.^.^.^.^.^.^.^.^.^.^.^.^.^.^.^.",
"^.m.M.K.D.K.M ~.=X=X;.Z F R XX=X/.N.b.c /.).}. XA.y ; U r - # o O O O o . . = & & k >.~.^.^.^.^.^.^.^.^.^.^.^.^.^.^.^.^.^.^.^.^.",
"/.N.Q./.K.C.m {.=X8X;.H Z R ,X5XK.D.N.B ).[. X|.) 6 : 5 0 J.w X X X X X X o . o O q 7 N.^.^.^.^.^.^.^.^.^.^.^.^.^.^.^.^.^.^.^.^.",
"/.D.].~.D.) M :X5X5X} L L ^ ,X8X|.).D.N.).).].J.B q = O Z.7Xv X X X . X X % e . = 7 c D.^.^.^.^.^.^.^.^.^.^.^.^.^.^.^.`.^.^.^.^.",
"^.J. X/.n.n.n.=X=X=XXX.X.X.X8X8XOX].~.;XqXqXwX|.l B - - m k @ X X X X X . % N.o $ q e ;.^.^.^.^.^.).^.^.^.^.^.^.^.^.^.^.^.^.^.^.",
"/. X4XOX) B._.5XyXyXiXyXtXtXtXtX7X;X-X-XqXiXiX:Xm c $ 4 4 . X X X X X X . + 0 . O e 0 n.^.^.^.^.^.^.^.^.^.^.^.^.^.^.^.^.^.^.^.^.",
"/.*X4X_.` P.P. X3X=X4X=X2X2X2X,X3X1X<X-X X;X:X~.w k $ # 4 X . X X X X X X o .   O e 6 >.^.^.^.^.^.^.^.^.^.^.^.^.^.^.^.^.^.^.^.^.",
"^.).*X XXXU._.6XtXtXtXtXtX0XtX8X5X5X4X5X9X5X6X>XK.B q $ % . X X X X X X X o . o ) {.J.W.^.^.^.^.^.^.^.^.^.^.^.^.^.^.^.^.^.^.^.^.",
"^.^.^.).=X=X=XtXyXyXyXyXtXtXtX}.J.5XwXwXwX0XqX0X<X}.;XB % X . . X X X X X . O e *X<X^.^.^.^.^.^.^.^.^.^.^.^.^.^.^.^.^.^.^.^.^.^.",
"^.^./.).I.W.Q.Q.*X=X=X2X2X4X=XH.B /.:X5X:XJ.J.>XJ.x I.D.k 4 + . X X X o + < 5 M.:X X^.^.^.^.^.^.^.^.^.^.^.^.^.^.^.^.^.^.^.^.^.^.",
"^.^.~.).}.~.H.K.~.).[.}.}. X}.}.'.).'.].Q.;.m.oX~.K.{.).W.n.0 9 $ # % 6 6 6 B 4X9X;X^.^.^.^.^.^.^.^.^.^.^.^.^.^.^.^.^.^.^.).^.^.",
"^.^.~.D.I.I.N.V.D.! n.Q ! b.! ! ! V.F.D.n.;.N ;.].9XwX X~.{.].D.B B B B b.;.].6XqXqX}.^.^.^.^.^.^.^.^.^.^.^.^.^.^.^.^.^.^.^.^.^.",
"^.^.^.~.G.H.~.I.~.*.M.b.B ! ! ;.;.;.n.N.M.A.A.Q.wXuXiX6X).<X4X5X6X6X5X<X4X].OXrXrXrX5X).^.^.^.^.^.).^.^.^.^.^.^.^.^.^.^.^.^.^.^.",
"^.^.^.^.~.~.^.^.^.~.W.~.Q.W.W.K.Q.Q.K.K.G.G.H.8XiXuXuX0X X}.4X<X5X6X6X6X6X].:XrXrXrXwX X^.^.^.^.^.^.^.^.^.^.^.^.^.^.^.^.^.^.^.^.",
"^.^.^.^./.^.^.^.^.^.^.^.^.^.^.(.^.^.^.^.(.^.[.tXiXiXiX0X].J.;X<X<X<X<X;X}.~.).6X0XrXrX4X).^.^.^.^.^.^.^.^.^.^.^.^.^.^.^.^.^.^.^.",
"^.^.^.^.^.^.^.^.^.^.^.^.^.^.^.^.^.^.^.^.(.(.{.iXiXiXiX0X~.*.Z.>.;X9XqX<Xb.n.;.:X4XrXrXqX}.^.^.^.^.^.^.^.^.^.^.^.^.^.^.^.^.^.^.^.",
"^.^.^.^.^.^.^.^.^.^.^.^.^.^.^.^.^.^.^.^.(.[.1X8XiXiXrX<XN.x J.N.OXrXrX4XB N w J.;XwXrXrX|.^.^.^.^.^.^.^.^.^.^.^.^.^.^.^.^.^.^.^.",
"^.^.^.(.^.^.^.^.^.^.^.^.^.^.^.^.^.^.^.^.^.`.yX9XrXrXqX].B k N.v OXrXwX<XB e % b ].9XrX4X).^.^.^.^.^.^.^.^.^.^.^.^.^.^.^.^.^.^.^.",
"^.^.^.^.^.^.^.^.^.(.^.^.^.^.^.^.^.^.(.^.^.`.2X0XwX9X;Xb 6 n l w B J.D.B e b.e 8 A.3X9X|.).^.^.^.^.^.^.^.^.^.^.^.^.^.^.^.^.^.^.^.",
"(.^.^.^.^.^.^.^.^.^.^.^.^.^.^.^.^.^.^.^.^.:XqXwXqX>XQ.4 4 ].m.n >X<X:X/.m ].D.% m *X*XK.^.^.^.^.^.^.^.^.^.^.^.^.^.^.^.^.^.^.^.^.",
"^.^.^.^.^.^.(.^.^.^.^.^.^.^.^.^.^.^.^.^.).4XqXrX9X~.v $ v >X~.N 6XrX6X}.B V.).< p K.~.[.>X).^.^.^.^.^.^.^.^.^.^.^.^.^.^.^.^.^.`.",
"^.^.^.^.^.^.^.^.^.^.^.^.(.^.^.^.^.^.^.^.[.3X4X[. XD.$ # *.C.m.b.>XqXwX>XN.l N.g &.l M.:X9X>X).^.^.^.^.^.^.^.^.^.^.^.^.^.^.^.^.^.",
"^.(.^.^.^.^.^.^.^.^.^.^.^.^.^.^.^.^.^.^.`.5X5X{.>.B a 0 {.{.x N -X5X5X7XN.n J.+.T.v G.3XwX9X*X^.^.^.^.^.^.^.^.^.^.^.^.^.^.^.^.^.",
"^.^.^.^.^.(.^.^.(.^.^.^.^.^.^.^.^.^.^.^.`.5XwX2XN.b.M.l ).`.*.E.-X-X3X7XJ.x S.j +XD.A.2XtXwX:X^.^.^.^.^.^.^.^.^.^.^.^.^.^.^.^.^.",
"^.^.^.^.^.^.^.^.^.^.^.^.(.^.^.^.(.^.^.^.^.9XyX9X[.D.D.k m.,.N ).1X3X<X1X|.v N 1.T./.m.;XwXwX:X^.^.^.^.^.^.^.^.^.^.^.^.^.^.^.^.^.",
"^.^.^.^.^.^.^.^.^.^.^.^.^.^.^.^.^.^.^.^.^.8XeX9X[.K.Q.v a ,.S.[.-X-X-X{.{.D.J.,.*.^.G.`.0XwX8X`.^.^.).^.^.^.^.^.^.^.^.^.^.^.^.^.",
"^.^.^.^.^.^.^.^.^.^.^.^.^.^.^.^.^.^.^./.^.1XwXwX XK.K.N.z ~. X;X-X{.].|.-X3X<XW.G.~.1.m.^. X}.~./.^.^.^.^.^.^.(.^.^.^.^.(.^.^.^.",
"^.^.^.^.^.^.^.^.^.^.^.).^.^.^.^.^.^.^.^.!.-X9X5X].~.;.k z u F.>X7X7X4X4X7X3X/.u n.E.*.E.M.;X}.H.(.^.^.^.^.^.^.^.^.^.^.^.^.^.^.^.",
"^.^.^.^.^.^.^.^.^.^.^.^.^.^.^.^.^.^.^.^./.(.3X5X~.W.l 8 5 > A A ) W R _ W Y > : % >.D.^.;.M.N x ^.^.^.^.^.^.^.^.^.^.^.^.^.^.^.^.",
"`.^.^.^.^.^.^.^.^.^.^.^.^.^.^.^.^.^.^.^.^.W.^.) k N.g h o.%.&.N y t > i x &.%.o.1 C.^.^.I.` _ L.~.^.^.^.^.^.^.^.^.^.^.^.^.^.^.^.",
"^.^.^.^.^.^.^.^.^.^.^.^.^.^.^.^.^.^.^.^.^.Z.y W _ P.p %.e.u.@X@X@X0.T.y.l.u.e.7.o.C.^.^.I.' W P.^.^.(.^.^.^.^.(.^.^.^.^.^.^.^.^.",
"^.^.^.^.^.^.^.^.^.^.^.^.^.^.^.^.^.^.^.^./.~.}  ._ ' j 0.y.y.y.@X#Xl.&X@Xl.0.7.6.w.1.~.^.~.B.Q ` ~.^.^.^.^.^.^.^.^.^.^.^.(.^.^.^.",
"^.^.^.^.^.^.^.^.^.^.^.^.^.^.^.^.^.^.^.^.^.~.} | ) ` n r.t.t.y.y.i.i.#X+Xu.6.:.t.f.C.^./.~.F.K.) ~.(.(.^.^.^.^.^.^.^.^.^.^.^.^.^.",
"^.^.^.^.^.^.^.^.^.^.^.^.^.^.^.^.^.^.^.^.^.W._ } I.J.N.i.#X+Xy.0.t.t.@Xt.$.O.0.l.k.R.^.^.^.~.~.I.~.(.^.^.^.^.^.^.^.^.(.^.^.^.^.^.",
"^.^.^.^.^.^.^.^.^.^.^.^.^.^.^.^.^.^.^.^.^.~.) W H.W.h w.l.#X@Xu.+.j %.2 < :.i.l.l.y.~.).^.^.^.^.^.^.^.^.^.^.^.^.^.^.^.^.^.^.^.^.",
"^.^.^.^.^.^.^.^.^.^.^.^.^.^.^.^.^.^.^.^.^.^.Q u V.W.h e.@X#X#X@Xt.p < + s 7.h.z.z.i.^.~.^.^.^.^.^.^.^.^.^.^.^.^.^.^.^.^.^.^.^.^.",
"^.^.^.^.^.^.^.^.^.^.^.^.^.^.^.^.).^.^.^.^.^.~.b.*.H.o.w.l.#X#X#Xr.1.k 2 7.l.#Xc.c.h.~.).^.^.^.^.^.^.^.^.^.^.].^.^.^.^.^.^.^.^.^.",
"^.^.^.^.^.^.^.^.^.^.^.^.^.^.^.^.^.^.^.^.^.)./.~.~.W.$.r.l.#X$X#Xe.S.m.:.l.&X&X%Xc.h.!.~.^.^.^.^.^.^.^.^.^.^.^.^.^.^.^.^.^.^.^.^.",
"^.^.^.^.^.^.^.^.^.^.^.^.^.^.^.^.^.^.^.^.^.^.^.^.^.~.=.d.z.#X%X@Xu.E.J.0.#X&X&X&Xc.f.!.^.^.^.^.^.^.^.^.^.^.^.^.^.^.^.^.^.^.^.^.^.",
"^.^.^.^.^.^.^.^.^.^.^.).^.^.^.^.^.^.^.^.^.^.^.^.^.~.5.d.z.#X%X#Xj.W.K.6.$X&X&X&Xc.f.^.^.^.^.^.^.^.^.^.^.^.^.^.^.^.^.^.^.^.^.^.^.",
"^.^.^.^.^.^.^.^.^.^.^.^.^.^.^.^.^.^.^.^.^.^.^.^.^.^.C.d.z.z.%X%Xi.E.E.u.&X&X&X&Xc.y.~.^.^.^.^.^.^.^.^.^.^.^.^.^.^.^.^.^.^.^.^.^.",
"^.^.^.^.^.^.^.^.^.^.^.^.^.^.^.^.^.^.^.^.^.^.^.^.^.^.Y.w.z.#X%X%Xu.E.J.7.#X&X&X&Xk.q.~.^.^.^.^.^.^.^.^.^.^.^.^.^.^.^.^.^.^.^.^.^.",
"^.^.^.^.^.^.^.^.^.^.^.^.^.^.^.^.^.^.^.^.^.^.^.^.^.^.;.$.c.%X&X#X8.W.J.$.i.#X%Xc.e.Y.^.^.^.^.^.^.^.^.^.^.^.^.^.^.^.^.^.^.^.^.^.^.",
"^.^.^.^.^.^.^.^.^.^.^.^.^.^.^.^.^.^.^.^.^.^.^.^.^.^.;.p f.%X%Xf.+.K.K.%.r.z.z.f.$.W.^.^.^.^.^.^.^.^.^.^.^.^.^.^.^.^.^.^.^.^.^.^.",
"^.^.^.^.^.^.^.^.^.^.^.^.^.^.^.^.^.^.^.^.^.^.^.^./.^.T.p =.z.l.4.2 S.K.$.w.k.h.w.d H.^.^.^.^.^.^.^.^.^.^.^.^.^.^.^.).^.^.^.^.^.^.",
"^.^.^.^.^.^.^.^.^.^.^.^.^.^.^.^.^.^.^.^.^.^.^.^.(.Q.=.X.s -.w.X.< Y.E.%.2.r.f.$.d E.^.^.^.^.^.^.^.^.^.^.^.^.^.^.^.^.^.^.^.^.^.^.",
"^.^.^.^.^.^.^.^.^.^.^.^.^.^.^.^.^.^.^.^.^.).^.^.^.^.G.=.d X..., =.^.R.u.#.-.%.@.&.Q.^.^.^.^.^.^.^.^.^.^.^.^.^.^.^.^.^.^.^.).^.^.",
"^.^.^.^.^.^.`.^.^.^.^.^.^.^.^.^.^.^.^.^.^.^.^.^.^.^.Q.O.X.s X., N.~.q.k.6.$.$.+.=.Q.^.^.^.^.^.^.^.^.^.^.^.^.^.^.^.^.^.^.^.^.^.^.",
"^.^.^.^.^.^.^.^.^.^.^.^.^.^.^.^.^.^.^.^.^.^.^.^.^.^.Q.j < , , X b.~.1.$.6.o.#.=.Y.Q.^.^.^.^.^.^.^.^.^.^.^.^.^.^.^.^.^.^.^.^.^.^.",
"^.^.^.^.^.^.^.^.^.^.^.^.^.^.^.^.^.^.^.^.^.^.^.^.^.^.Q.+.X.s < < *.~.q.u.w.6.6.9.Q.^.^.^.^.^.^.^.^.^.^.^.^.^.^.^.).^.^.^.^.^.^.^.",
"^.^.^.^.^.^.^.^.^.^.^.^.^.^.^.^.^.^.^.^.^.^.^.^.^.^.).=.....3 , C.W.y.j.@X@X@Xy.!./.^.^.^.^.^.^.^.^.^.^.^.^.^.^.^.^.^.^.^.^.^.^.",
"^.^.^.^.^.^.^.^.^.^.^.^.^.^.^.^.^.^.^.^.^.^.^.^.^.^.^.9...3...s G.E.<.<.5.:.:.,.^.^.^.^.^.^.^.^.^.^.^.^.^.^.^.^.^.^.^.^.^.^.^.^.",
"^.^.^.^.^.^.^.^.^.^.^.^.^.^.^.^.^.^.^.^.^.^.^.^.^.^.!.=.a.s.3.#.G.~.&.<.7.:.$.,.~.^.(.(.^.^.^.^.^.^.^.^.^.^.^.^.^.^.^.^.^.^.^.^.",
"^.^.^.^.^.^.^.^.^.^.^.^.^.^.^.^.^.^.^.^.^.^.^.^.^.^.!.4.v.g.a.#.E.~.1.o.@.#...n ^.^.^.(.^.^.^.^.^.^.^.^.^.^.^.^.^.^.^.^.^.^.^.^.",
"^.^.^.^.^.^.^.^.^.^.^.^.^.^.^.^.^.^.^.^.^.^.^.^.^.^.^.-.g.s.a.$.W.^.,.#.4.p.4.=.~.).^.(.^.^.^.^.^.^.).^.^.^.^.^.^.^.^.^.^.^.^.^.",
"^.^.^.^.^.^.^.^.^.^.^.^.^.^.^.^.^.^.^.^.^.^.^.^.^.^.^.Y.6.4.-.E.^.~.>.#.g.v.x.p.R.(.^./.^.^.^.^.^.^.^.^.^.^.^.^.^.^.^.^.^.^.^.^.",
"^.^.^.^.^.^.^.^.^.^.^.^.^.^.^.^.^.^.^.^.^.^.^.^.^.^.^.^.!.W.~.^.^.^.Q.1.d.g.s.p.-.W.^.^.^.^.^.^.^.^.^.^.^.^.^.^.^.^.^.^.).^.^.^.",
"^.^.^.^.^.^.^.^.^.^.^.`.^.^.^.^.^.^.^.^.^.^.).^.^.^.^.^.^.^.^.^.^.^.^.~.W.Y.T.Y.Y.!.^.^.^.^.^.^.^.^.^.^.^.^.^.^.^.^.^.^.^.^.^.^."
};
