/* XPM */
static char *_31721606555[] = {
/* columns rows colors chars-per-pixel */
"64 64 216 2 ",
"   c #2B221E",
".  c #36251C",
"X  c #282526",
"o  c #362C27",
"O  c #2D3035",
"+  c #383739",
"@  c #4F2F1D",
"#  c #452D24",
"$  c #553525",
"%  c #51372F",
"&  c #473936",
"*  c #6B3325",
"=  c #534136",
"-  c #56433A",
";  c #6D442C",
":  c #744D35",
">  c #353E48",
",  c #374859",
"<  c #3A4E65",
"1  c #3E5166",
"2  c #3B597E",
"3  c #444244",
"4  c #474649",
"5  c #4D4B4D",
"6  c #554C48",
"7  c #4D4E52",
"8  c #514E50",
"9  c #555354",
"0  c #5A5455",
"q  c #575659",
"w  c #5C5B5D",
"e  c #6A544D",
"r  c #7A5848",
"t  c #645E5C",
"y  c #70625B",
"u  c #475768",
"i  c #5E5F66",
"p  c #445B74",
"a  c #495E77",
"s  c #615F60",
"d  c #4B647C",
"f  c #596676",
"g  c #636264",
"h  c #666669",
"j  c #68666A",
"k  c #6B6A6D",
"l  c #736B69",
"z  c #6D6D71",
"x  c #716F71",
"c  c #6E7379",
"v  c #747375",
"b  c #7E7675",
"n  c #75757A",
"m  c #7B7A7C",
"M  c #935133",
"N  c #A6503C",
"B  c #99603D",
"V  c #BF632B",
"C  c #C86D32",
"Z  c #D0703C",
"A  c #8C5341",
"S  c #896249",
"D  c #966953",
"F  c #A8785B",
"G  c #B17151",
"H  c #9C7A65",
"J  c #90716A",
"K  c #827C7E",
"L  c #887B78",
"P  c #A67A62",
"I  c #CB7B5D",
"U  c #DA823F",
"Y  c #EB873C",
"T  c #94837A",
"R  c #A8836C",
"E  c #B5886B",
"W  c #A88676",
"Q  c #B69179",
"!  c #D0956A",
"~  c #D79A6E",
"^  c #D69A6F",
"/  c #C89777",
"(  c #EFAA74",
")  c #E8AB7D",
"_  c #3D5E85",
"`  c #3D6EA6",
"'  c #4B6986",
"]  c #4F6D89",
"[  c #546D85",
"{  c #58738B",
"}  c #4A6D93",
"|  c #4C729B",
" . c #587996",
".. c #5C7A95",
"X. c #677788",
"o. c #787B84",
"O. c #657C96",
"+. c #4E7CAC",
"@. c #807E82",
"#. c #5D819C",
"$. c #7F8186",
"%. c #7B838B",
"&. c #65839D",
"*. c #798797",
"=. c #5B83A5",
"-. c #4780BE",
";. c #5985B6",
":. c #6285A4",
">. c #6788A9",
",. c #658CAC",
"<. c #698DAB",
"1. c #7689A0",
"2. c #6C91AC",
"3. c #7B94AA",
"4. c #648EB3",
"5. c #6C94B4",
"6. c #6A96B9",
"7. c #7296B3",
"8. c #779BB7",
"9. c #749CBB",
"0. c #7AA1BE",
"q. c #538CC7",
"w. c #528CC8",
"e. c #5A97D4",
"r. c #6B99C1",
"t. c #739FC3",
"y. c #669FD6",
"u. c #75A2C5",
"i. c #7BA3C3",
"p. c #77A6C9",
"a. c #7CAACB",
"s. c #7BADD2",
"d. c #72ACDA",
"f. c #78AFD8",
"g. c #6FABE2",
"h. c #838284",
"j. c #888586",
"k. c #85858A",
"l. c #898789",
"z. c #8B8A8C",
"x. c #988B87",
"c. c #928D8C",
"v. c #858C96",
"b. c #8C8D91",
"n. c #918F92",
"m. c #8D939C",
"M. c #939294",
"N. c #9A9696",
"B. c #95959B",
"V. c #99969A",
"C. c #97989B",
"Z. c #9B9A9D",
"A. c #A58C82",
"S. c #A4958B",
"D. c #B69684",
"F. c #A09795",
"G. c #A29C9D",
"H. c #B4A894",
"J. c #8C94A3",
"K. c #8496AF",
"L. c #8A98A8",
"P. c #949AA3",
"I. c #9C9DA2",
"U. c #A19FA3",
"Y. c #9DA4AE",
"T. c #A3A2A5",
"R. c #A7A6AB",
"E. c #A9A7A8",
"W. c #A8A7AB",
"Q. c #ABAAAD",
"!. c #B5ACA3",
"~. c #AEAEB1",
"^. c #B1AFB1",
"/. c #B0B0B1",
"(. c #B3B2B4",
"). c #B5B6B8",
"_. c #B9B7BA",
"`. c #B7B8BB",
"'. c #BBBABC",
"]. c #D2A390",
"[. c #F5B584",
"{. c #C7ADA7",
"}. c #C0C0BF",
"|. c #8DACC7",
" X c #82ACCB",
".X c #83B2D4",
"XX c #89B7D7",
"oX c #85B5D9",
"OX c #8BBADC",
"+X c #BEBEC1",
"@X c #C1BFC1",
"#X c #BFC0C2",
"$X c #C4C3C4",
"%X c #C7C7C9",
"&X c #CCCBCC",
"*X c #D4CFCE",
"=X c #D0D0CF",
"-X c #CECED1",
";X c #D1CFD0",
":X c #D4D3D4",
">X c #D9D8D7",
",X c #DCDBDC",
"<X c #E1DFDE",
"1X c #E1E0DF",
"2X c #DFDFE1",
"3X c #E1DFE1",
"4X c #E4E3E3",
"5X c #E8E7E5",
"6X c #E9E8E6",
"7X c #ECEBEB",
"8X c #F1EFED",
"9X c #F2F0ED",
"0X c #F0EFF0",
"qX c #F3F2F3",
"wX c #F9F9F6",
"eX c #F9F9F7",
/* pixels */
"R.R.R.R.R.R.R.W.R.R.R.R.U.R.R.R.R.R.R.R.R.R.W.W.W.W.W.R.W.W.W.Y.E.W.W.W.W.R.R.R.R.R.R.R.R.R.R.R.R.R.R.R.R.W.R.R.R.R.R.R.R.R.R.R.",
"R.R.R.R.R.T.I.C.M.M.n.b.l.M.U.U.R.R.R.R.R.R.E.E.T.W.R.R.E.E.W.W.W.W.W.W.W.R.R.R.R.R.R.R.R.R.R.R.R.R.W.R.R.R.R.R.R.R.R.W.R.R.R.R.",
"R.R.R.R.B.k q 5 5 5 3 & % % 0 x v n o.%.$.h.h.m n m $.$.l.M.G.S.W Q R S.T.W.R.R.R.R.R.R.R.R.R.R.R.R.R.R.R.R.R.R.R.R.R.R.R.W.R.R.",
"R.R.I.m 5 3 + > 5 5 3 % * * $ 8 w 7 9 q 9 w w h k z v m T T R Y Y Y Y C H C.W.R.R.R.R.R.W.R.R.R.R.R.R.R.R.R.R.R.R.R.R.R.R.R.R.R.",
"R.T.n 3 + 3 = q @.@.j A N A e 8 w 5 6 = 3 9 0 0 0 0 w s l G Y Y U Z C C V S Q.`.W.R.R.R.R.R.R.W.R.R.R.R.R.R.R.R.R.R.R.R.R.R.R.R.",
"R.Z.s j w s 9 v V.@.@.J J J l @.M.v h 6 h v K c.n z l.T S C M : ; ; * * ; M L _.(.R.R.R.R.R.R.R.R.R.R.R.R.R.R.R.R.R.R.R.R.R.R.R.",
"R.b.x k.m c.k z.W.^.{.@.@.@.U.R.Y.z.m t M.G.Q./.M.N.$XG.M : # # @ @ @ @ . # e x.W.R.R.R.R.R.R.R.R.R.W.R.R.R.R.R.R.R.R.R.R.R.R.R.",
"R.k.l.Z.M.G.n T.@X@X@.N N G !.@XE.k.T k W.~.).'.N.E.$XG.= % $ G ! ! G @ # o & V.z.T.R.R.R.R.R.R.R.R.R.R.R.R.W.R.R.R.R.R.W.R.R.R.",
"E.l.G.E.C.z.v ).@X,X@.V N I {.:XG.M.l.n /.(.'.}.C.T.}.W.+   = ( ( ( ( B .   = M.T.T.W.W.R.R.R.R.R.R.R.R.R.R.R.R.W.R.R.R.R.R.R.R.",
"E.M./.E.C.T b %X>X3XQ Z Z I ;X3X).Q.M.z.Q.Q././.C.#X>X#Xk . ; R M ^ r : o . - t }.&XW.R.R.R.R.R.R.R.R.R.R.R.R.R.R.R.R.R.W.R.R.R.",
"W.C.).E.h.l.l.}.@X*X{.].].].3X3X#X(.E.%X5X9X7X6X>X6X9X1XT r B ^ ! ~ D E = - - 9 &X,XW.R.R.R.R.R.R.R.R.R.R.R.R.R.R.R.R.R.R.R.R.R.",
"Q.'.>X$XT x.E.>XqXqXqXqX0X0X0X0X,X$X#X#X6XqXqXqX9X7X7X:Xb D E [.( ! R ^ e - - N.2X2XW.R.R.R.W.R.R.R.R.R.R.R.R.R.R.R.R.R.R.R.R.R.",
"R.'.>X!.W D.H.'.,X@X@X;X;X;X;X;X:X&X&X#X}.#X%X%X#X&X:X}.t o r ( ( ! R R o . 6 Y.0X2XW.Y.Q.R.R.R.R.R./.R.R.R.R.R.R.R.R.R.R.W.R.R.",
"R.Q.+X#XW.].!.,XqXqXqX0X0X5X7X3X,X2X>X,X2X,X,X2X,X,X>X=Xt o o R ) / R 6   = - C.qX,XW.W.R.R.R.R.R.R.R.R.R.R.R.R.R.R.R.W.R.R.R.R.",
"R.R.R.Q.@X@X@X0XqXqXqXqXqX0X0X_.C.>X7X7X7X6X7X4X&X'.2X&XT.6   6 T Q y o   = w C.2X-XY.W.R.R.R.R.R.R.R.R.R.R.R.R.R.R.R.R.R.R.R.R.",
"R.W.R.Q.I.U.U.R.^.@X@X@X;X>X@XG.m Q.%X,X%XC.Z.&XC.z I.C.Q.Q.s = - = o   + 9 w Z.#X#XQ.W.R.R.R.R.R.R.R.R.R.R.R.R.R.R.R.R.R.R.R.R.",
"R.R.T.~.).E.N.C.T.!.(._.'.'._._.^.Q.^.(.U.@.j.{.R.C.).Q.Q.=X(.z.k k h k m k $.>X<X$XR.W.R.R.W.R.R.R.R.R.R.R.R.R.R.R.R.R.R.R.R.R.",
"R.R.I.M.G.G.c.l.M.K j.K K K L K @.c.M.n.j.@.$.%.(.4X7X'.R.).=X=X'.).(.W.Z.l.~.6X7X5X'.R.R.R.R.R.R.R.R.R.R.R.R.R.R.R.R.R.R.R.R.R.",
"R.R.R.T.N.C.T.U.T.o.k.@.m K K @.@.@.j.z.k.c.M.Y.7XwXwX1XQ.=X>X,X1X1X,X:X>X(.}.9X9X7X,XQ.R.R.R.R.R.R.R.R.R.R.R.R.R.R.R.R.R.R.R.R.",
"R.R.R.R.T.T.E.E.R.T.U.Y.U.C.I.I.U.U.Z.I.B.B.N.<XwXwXwX6X).).>X=X,X1X1X1X1XQ.$X9X9X9X7X'.R.R.R.R.R.R.R.R.R.R.R.R.R.R.R.R.R.R.R.R.",
"R.R.R.R.R.R.R.R.R.W.R.R.W.R.R.R.R.R.R.R.E.W.(.0XwXwXwX6X/.C.}.=X=X=X=X}.}.U.Q.1X6X9X9X>XQ.R.R.R.R.R.R.R.R.R.R.R.R.R.R.R.R.R.R.R.",
"R.R.R.R.R.R.R.R.R.R.R.R.R.R.R.R.R.R.R.R.Q.W.`.eXwXwXqX6XT.$.b.h.%X1X7X=Xh.h.h.%X>X9X9X7X).R.R.R.R.R.R.R.R.R.R.R.R.R.R.R.R.R.R.R.",
"R.R.R.R.R.R.R.R.R.R.R.R.R.R.R.R.R.R.R.R.W.(.-X2XwXwX9X=Xz.k Z.z.}.9X9X>X@.v q N.}.9X9X7X`.R.R.R.R.R.R.R.R.R.R.R.R.~.R.R.R.R.R.R.",
"W.E.R.R.R.R.R.R.R.R.R.R.R.R.R.R.R.R.R.R.W.~.qX4XwX9X4X/.m g z.z }.7X7X=Xm s + x (.1X9X>X~.R.R.R.R.R.R.R.R.R.R.R.R.R.R.R.R.R.R.R.",
"W.W.R.R.R.R.R.R.R.R.W.R.R.R.R.R.R.R.R.R.R.~.:X4X8X4X$Xx 6 z h q K C.M.m w h.w 7 n.>X4X`.Q.T.R.R.R.R.R.R.R.R.R.R.R.R.R.R.R.R.R.R.",
"W.W.R.R.R.R.R.R.R.R.R.R.R.W.R.R.R.R.R.R.T.&X5X7X5X&XU.3 , ^.h.c &X=X%XT.v (.M.+ v '.$XC.Q.W.R.R.R.R.R.R.R.R.R.R.R.R.R.R.R.R.R.R.",
"R.R.R.R.R.R.W.R.R.R.R.R.R.R.R.R.R.R.R.R.Q.>X5XqX5XT.z + k &XW.n 1X9X1X'.m b.E., u C.W.(.&XQ.R.R.R.R.R.R.R.R.R.R.R.R.R.R.R.R.R.R.",
"W.R.R.R.R.R.R.R.R.R.R.R.R.R.R.R.R.R.R.R.^.>X:X(.).M.+ O $.b.%.$.&X6X9X&X$.h z.h X.g k.%X4X&XR.R.R.R.R.R.R.R.R.R.R.R.R.R.R.R.R.R.",
"R.R.R.R.R.W.R.R.R.R.R.R.R.R.R.R.W.R.R.R.~.,X<X).T n w 9 ).`.k n #X,X,X2Xb.n M.{ K.k B.:X7X4X`.R.R.R.R.R.R.R.R.R.R.R.R.R.R.R.R.R.",
"R.R.R.R.R.R.R.R.R.R.R.R.R.R.R.R.R.R.R.R.~.,X7X*Xz.o.k.h Q.~.o.C.#X#X:X4XZ.z z.{ |.M.n.=X0X7X&XR.R.~.R.R.R.R.R.R.R.R.R.R.R.R.R.R.",
"R.R.R.R.R.R.R.R.R.R.R.R.R.W.R.R.R.R.R.R.T.2XqX4X_.B.M.g k.%.n W.-X:X#X>X).z n *.L.R.k.$X7X7X-XR.R.R.R.R.R.R.R.R.R.R.R.R.R.R.R.R.",
"R.R.R.R.R.R.R.R.W.R.R.R.R.R.R.R.R.R.R.R.~.2X8X3X).Z.I.z i %.m.).#X#X#X`.).M.C.$.%.R.m.~.5X7X4XR.R.R.R.R.R.R.R.R.R.R.R.R.R.R.R.R.",
"R.R.R.R.R.R.R.R.R.R.R.R.R.W.R.R.R.R.R.R.Y.-X6X7X'.I.I.l.k I.#X&X#X`.(.`.#X:X&XI.C.W.%.k.W.@X).T.R.R.R.R.W.R.R.R.R.R.R.R.R.R.R.R.",
"R.R.R.R.R.R.R.R.W.R.R.R.R.R.R.R.R.R.R.R.R.$X6X,X(.T.m g j y N.=X2X2X,X,X4X:XE.y l.C.X.I.l.@X'.B.R.R.R.R.R.R.R.R.R.R.R.W.R.R.R.R.",
"R.R.R.R.R.R.R.R.R.R.R.R.R.R.R.R.R.R.R.R.R.R.:X,XT.C.k 7 4 ; M M T R F H F S : & > o.M.Y.h.z.m z T.R.R.R.R.R.R.R.R.R.R.R.R.W.R.R.",
"R.R.R.R.W.R.R.R.R.R.R.R.R.R.R.R.R.R.R.R.R.I.R.T g b.i d ] ..X.c g : : r z X.O.] 1 k.R.R.Z.R E A.R.R.R.R.R.R.R.R.R.R.R.R.R.R.R.R.",
"W.R.R.R.R.R.R.R.R.R.R.R.R.R.R.R.R.R.R.R.R.z.t H E S.u  .2.0. X Xa.3.0.8. X7.5.4.] v.W.R.G.W H D.R.R.R.R.R.R.R.R.R.R.R.R.R.R.R.R.",
"R.R.R.R.R.R.R.W.R.R.R.R.R.W.R.R.R.R.R.R.E.T./ ) E Q f 2.8.9.7. X.X0.XX|.a.5.>.>.2.*.W.W.G.x.L W T.R.R.R.R.R.R.R.R.R.R.R.R.R.R.R.",
"R.R.R.R.R.R.R.R.R.R.R.R.R.R.R.R.R.R.R.R.R.T./ ~ x.W n 6.7.8.8.3.0.0.XX X9.>.O.6.i.*.R.R.W.N.Z.T T.W.W.R.R.R.R.R.R.R.R.R.W.R.R.R.",
"R.R.R.R.R.R.R.R.R.W.R.R.R.R.R.R.R.R.R.R.W.W.W / Z.N.z.9..X X9.<.7.7. X7...[ 2.a.u.K.R.R.W.T.R.G.T.W.R.R.R.R.W.R.R.R.R.R.R.R.R.R.",
"R.R.R.R.R.W.R.R.R.R.R.R.R.R.R.R.R.R.R.R.R.T.T P V.I.d 4. X.X Xi.{ f  .1 , #.i.a.a.3.E.Q.R.R.R.R.R.R.R.R.R.R.R.R.W.R.R.R.R.R.R.R.",
"R.W.R.R.R.R.R.R.R.R.R.R.R.R.R.R.R.R.R.R.R.R.T y c.I.' <.a.XX.X X7.u > O p <.u.s.s.0.Y.R.R.R.R.R.R.R.R.R.R.R.R.R.R.R.R.R.W.R.R.R.",
"R.R.R.R.R.R.R.R.R.R.R.R.R.R.R.R.R.R.R.R.W.W.P.$.m B.] 4.p..X.X.X6.*.h 1 ,.a..Xf.d.t.R.R.R.R.R.R.R.R.R.R.R.R.R.R.R.R.R.R.R.R.R.R.",
"R.R.R.R.R.R.R.R.W.R.R.R.R.W.R.R.R.R.R.R.W.W.W.T.U.I. .6.a..XXX.X5.J.v.#.a.OXOXoXd.u.T.R.R.R.R.R.R.R.R.R.R.R.R.R.R.R.R.R.R.R.R.R.",
"R.R.W.R.R.R.R.W.R.R.R.R.R.R.R.R.R.R.R.R.R.R.R.R.R.I.O.r.s.s.oXs.7.P.C.2..XOXOXOXf.u.Y.R.R.R.R.R.R.R.R.R.R.R.R.R.R.R.R.R.R.R.R.R.",
"R.R.R.R.R.R.R.R.R.R.R.R.R.R.R.R.R.R.R.R.R.R.R.R.W.T.>.t.s..XoX.Xi.I.P.>..XOXOXOXf.u.T.R.R.R.R.R.R.~.R.R.R.R.R.R.R.R.R.R.R.R.R.R.",
"R.R.R.R.R.R.R.R.R.R.R.R.R.R.W.R.R.R.R.R.R.R.R.R.W.W.v.r.s..X.XoX0.I.P.7.XXOXOXOXs.9.T.R.R.R.R.R.R.R.R.R.R.R.R.R.R.R.R.R.R.R.R.R.",
"R.R.R.R.R.R.R.R.R.R.W.R.R.R.R.R.R.R.R.W.R.R.R.R.W.W.J.4.s..XOXOX9.P.P.,.XXOXOXOXp.3.R.R.R.R.R.R.R.R.R.R.R.R.R.R.R.R.R.R.R.R.R.R.",
"R.R.R.R.R.R.W.R.R.R.R.R.R.R.R.R.R.R.R.R.R.R.R.R.R.R.o. .s.XXOX X4.I.Z...i..XoXs.6.J.R.R.R.R.R.R.R.R.R.R.R.R.R.R.R.R.R.R.R.R.R.R.",
"R.R.R.R.R.R.R.R.R.R.R.R.R.R.R.R.R.R.R.R.R.R.R.R.R.R.@.u t.oXoXt.{ C.I.{ 6.s.s.t.O.I.R.R.R.R.R.R.R.R.R.R.R.R.R.R.R.R.R.R.R.R.R.R.",
"R.R.W.R.R.R.R.R.R.R.R.R.R.R.R.R.W.R.R.R.R.R.W.R.W.W.@.p ;.p.|.+.u v.P...4.u.u.4.a P.R.R.R.R.R.R.R.R.R.R.R.R.R.R.R.R.R.R.R.R.R.R.",
"R.R.R.R.R.R.R.R.R.R.R.R.R.R.R.R.R.R.R.R.R.R.R.R.W.^.O.} a ..6.' , P.P...=.6.t. .a J.R.R.R.R.R.R.R.R.R.R.R.R.R.R.R.R.R.R.R.R.R.R.",
"R.R.R.R.R.R.R.R.R.R.R.R.R.R.R.R.R.R.R.R.R.R.R.R.W.R.B.O.a _ ' < O.Y.L.9. .=.+.] X.U.R.R.R.R.R.R.R.R.R.R.R.R.R.R.R.R.R.R.R.R.R.R.",
"R.R.R.R.R.R.R.R.R.R.R.R.R.R.R.R.R.R.R.R.R.R.R.W.R.R.U.[ [ a 2 > z.T.3.i.:. . .] X.U.R.R.R.R.R.R.R.R.R.R.R.R.R.R.R.R.R.R.R.R.R.R.",
"R.R.R.R.R.R.R.W.R.R.R.R.R.R.R.R.R.R.R.R.R.R.R.R.R.R.U.f , > > X %.T.*. .>.} | O.J.R.R.R.R.R.R.R.R.R.R.R.R.R.R.R.R.R.R.R.R.R.R.R.",
"R.R.W.R.R.R.R.R.R.R.R.R.R.R.R.R.W.R.R.R.R.R.R.R.R.R.U.{ _ p , , o.W.3.9.4.:.,.*.U.R.R.R.R.R.R.R.R.R.R.R.R.R.R.R.R.R.R.R.R.Q.R.R.",
"R.R.R.R.R.R.R.R.R.R.R.R.R.R.R.R.R.R.R.R.R.R.R.R.R.R.R.o._ _ 2 > v.I.8.i. Xa. X3.U.R.R.R.R.R.R.R.R.R.R.R.R.R.R.R.R.R.R.R.R.R.R.R.",
"R.R.R.R.R.R.R.R.R.R.R.R.R.R.R.R.R.R.R.R.R.W.R.R.R.R.R.J.` +.` p B.I.&.&.:.#.#.*.R.R.R.R.R.R.R.R.R.R.R.R.R.R.R.Q.R.R.R.R.R.R.R.R.",
"R.R.R.R.R.R.R.R.R.R.R.R.R.R.R.R.R.R.R.R.R.R.R.R.R.R.I.+.q.e.-.} B.T.X.:.,.#...%.R.R.R.R.R.R.R.R.R.R.R.R.R.R.R.R.R.R.Q.R.R.R.R.R.",
"R.R.R.R.R.R.R.R.R.R.R.R.R.R.R.R.R.R.R.R.R.R.R.R.R.R.Y.w.g.y.q.+.P.T.%.] } +._ c R.R.R.R.R.R.R.R.R.R.R.R.R.R.R.R.R.R.R.R.R.R.R.R.",
"R.R.R.R.R.R.R.R.R.R.R.R.R.R.R.R.R.R.R.R.R.R.R.R.R.R.I.;.y.e.q. .I.T.%.| ;.q.;.O.R.R.R.R.R.R.R.R.R.R.R.R.R.R.R.R.R.R.R.R.R.R.Q.R.",
"R.R.R.R.R.R.R.R.R.R.R.R.R.R.R.R.R.R.R.R.R.R.R.R.R.R.|.@.>.;.+.P.R.R.%.| y.g.g.q.P.U.R.R.R.R.R.R.R.R.R.R.R.R.R.R.R.R.R.R.R.R.R.R.",
"R.R.R.R.R.R.R.R.R.R.R.R.~.R.R.R.R.R.R.R.R.R.R.R.R.R.^.E.T.I.T.R.W.R.I.*.r.y.e.q.+.U.R.R.R.R.R.R.R.R.R.R.R.R.R.R.R.R.R.R.R.R.R.R.",
"R.R.R.R.R.R.R.R.R.R.R.R.R.R.R.R.R.R.R.R.R.R.R.Q.R.R.Q.Q.R.R.R.R.R.R.R.T.I.m.K.J.J.Y.R.R.Q.R.R.R.R.R.R.R.R.R.R.R.R.R.R.R.R.R.R.R."
};
