/* XPM */
static char *_41721606555[] = {
/* columns rows colors chars-per-pixel */
"64 64 224 2 ",
"   c #251E1B",
".  c #2C211D",
"X  c #37261D",
"o  c #2A2726",
"O  c #362B26",
"+  c #2D3034",
"@  c #3A3A3C",
"#  c #492D1D",
"$  c #56311D",
"%  c #483427",
"&  c #563427",
"*  c #53322E",
"=  c #453C3A",
"-  c #6F3424",
";  c #4A413C",
":  c #57443B",
">  c #74472D",
",  c #714B34",
"<  c #374658",
"1  c #3C4D62",
"2  c #3D5570",
"3  c #454345",
"4  c #4D4A4C",
"5  c #534B4A",
"6  c #494F56",
"7  c #545354",
"8  c #5A5455",
"9  c #565659",
"0  c #5D5A5C",
"q  c #6C564F",
"w  c #765849",
"e  c #685D59",
"r  c #68615D",
"t  c #786359",
"y  c #404E61",
"u  c #445669",
"i  c #565D67",
"p  c #445C76",
"a  c #615F60",
"s  c #5E6065",
"d  c #4A657B",
"f  c #596778",
"g  c #636264",
"h  c #666367",
"j  c #6B6A6C",
"k  c #746C69",
"l  c #626A75",
"z  c #6C6D72",
"x  c #6E7074",
"c  c #737374",
"v  c #75767A",
"b  c #797678",
"n  c #7B7A7C",
"m  c #904C31",
"M  c #885537",
"N  c #A15E2C",
"B  c #A65739",
"V  c #D16D39",
"C  c #D57837",
"Z  c #8A5644",
"A  c #975541",
"S  c #916B52",
"D  c #AF7050",
"F  c #8B7269",
"G  c #8D746C",
"H  c #987B6A",
"J  c #827C7E",
"K  c #8A7D7A",
"L  c #A77A63",
"P  c #CB7B5D",
"I  c #EB893D",
"U  c #B6815A",
"Y  c #94827A",
"T  c #B98866",
"R  c #A9897E",
"E  c #B58F75",
"W  c #D6864C",
"Q  c #E88B42",
"!  c #C48D66",
"~  c #D2976B",
"^  c #C79677",
"/  c #D59E77",
"(  c #E2A67C",
")  c #F9B37A",
"_  c #3D6B9E",
"`  c #496886",
"'  c #556E87",
"]  c #54718B",
"[  c #5C758A",
"{  c #446893",
"}  c #4D739D",
"|  c #517391",
" . c #5C7691",
".. c #577A97",
"X. c #5A7D9C",
"o. c #667686",
"O. c #7C7D82",
"+. c #777D8B",
"@. c #667B94",
"#. c #4A76A7",
"$. c #4477AF",
"%. c #597BA3",
"&. c #627FA6",
"*. c #817E82",
"=. c #5F839F",
"-. c #7C828A",
";. c #67839B",
":. c #778496",
">. c #7D8B9C",
",. c #5C82A4",
"<. c #4780BD",
"1. c #5586BA",
"2. c #6588A7",
"3. c #6A8DAA",
"4. c #6C8EAF",
"5. c #778CA5",
"6. c #7994AC",
"7. c #6C94B4",
"8. c #6B97B8",
"9. c #7599B4",
"0. c #739CBB",
"q. c #7C9EBA",
"w. c #78A0BF",
"e. c #558DC7",
"r. c #518ECC",
"t. c #5A99D7",
"y. c #6C9BC4",
"u. c #719BC2",
"i. c #6B9ED2",
"p. c #6EA0C4",
"a. c #77A4C7",
"s. c #7BA5C4",
"d. c #7DAACC",
"f. c #69A3DB",
"g. c #75ABD6",
"h. c #7EAED1",
"j. c #7EB1D6",
"k. c #64A9E7",
"l. c #6DB2EE",
"z. c #838284",
"x. c #898484",
"c. c #868589",
"v. c #898789",
"b. c #8B8A8C",
"n. c #998A84",
"m. c #928C8C",
"M. c #858B97",
"N. c #8C8D93",
"B. c #918F92",
"V. c #8D9198",
"C. c #939294",
"Z. c #9C9495",
"A. c #94959A",
"S. c #99969A",
"D. c #97999D",
"F. c #9B9B9D",
"G. c #A78F8A",
"H. c #A7948B",
"J. c #A59A97",
"K. c #B6AA91",
"L. c #8A95A5",
"P. c #939AA5",
"I. c #959AA4",
"U. c #9C9DA3",
"Y. c #A09FA3",
"T. c #9EA1A8",
"R. c #A3A2A5",
"E. c #A7A6AB",
"W. c #A9A7A8",
"Q. c #A8A7AB",
"!. c #ABAAAC",
"~. c #B4ADA6",
"^. c #AEAEB1",
"/. c #B1AFB1",
"(. c #AFB1B2",
"). c #B3B2B3",
"_. c #B6B6B9",
"`. c #B7B7BA",
"'. c #B9B7B9",
"]. c #BCBBBD",
"[. c #D2A390",
"{. c #C7ADA7",
"}. c #C2BEBD",
"|. c #C0C0BF",
" X c #819CC0",
".X c #83AECD",
"XX c #86B1CE",
"oX c #81AFD1",
"OX c #84B4D6",
"+X c #89B4D3",
"@X c #85B6DA",
"#X c #86B8DC",
"$X c #8BBBDC",
"%X c #B4BAC4",
"&X c #BEBEC1",
"*X c #87B6E3",
"=X c #C0BEC0",
"-X c #BEC0C3",
";X c #C4C4C5",
":X c #C5C7C9",
">X c #C9C8C9",
",X c #CCCBCC",
"<X c #D2D0CF",
"1X c #CECDD1",
"2X c #D1CFD0",
"3X c #D4D3D4",
"4X c #D8D7D7",
"5X c #D9D8D7",
"6X c #DCDBDB",
"7X c #E0DEDC",
"8X c #E1E0DF",
"9X c #E1DFE1",
"0X c #DFE0E0",
"qX c #E4E3E3",
"wX c #E8E7E6",
"eX c #EAE9E7",
"rX c #ECEBEB",
"tX c #F0EFEC",
"yX c #F2F1ED",
"uX c #F0EFF0",
"iX c #F4F3F3",
"pX c #F8F7F5",
"aX c #F9F9F7",
"sX c #F9F9F8",
/* pixels */
"E.E.E.E.E.E.E.E.E.E.E.E.E.E.E.E.Q.Q.E.E.E.E.E.E.E.E.E.E.E.E.E.E.E.E.E.E.E.E.E.E.E.E.E.Q.E.E.E.E.E.E.E.E.E.E.E.E.E.E.E.E.E.E.E.E.",
"E.E.E.E.E.R.U.S.C.C.B.N.x.B.Y.R.R.Q.E.E.E.E.E.E.E.R.E.E.E.E.E.E.E.E.E.R.E.E.E.E.E.E.E.E.E.E.E.E.E.Q.E.E.E.E.E.E.E.E.E.E.E.E.E.E.",
"E.E.E.E.A.j 7 4 4 4 3 = * * 8 z b v n -.-.-.z.n n n -.z.-.b.b.C.S.H.H.R J.J.E.E.E.E.Q.Q.E.E.E.E.E.E.E.E.E.E.E.E.E.E.E.E.E.E.E.E.",
"E.Q.U.b 4 3 @ 3 4 4 3 * - - * 5 0 5 9 9 7 e r s j k c v Y z.z.b D Q I I V D n.R.E.Q.Q.Q.E.E.E.E.E.E.E.E.E.E.E.E.E.E.E.E.E.E.E.E.",
"E.E.v 3 @ 3 3 7 *.*.h Z A Z 5 8 0 4 4 3 3 7 8 8 9 8 e 0 g 0 q V I I W I C C N H.E.E.E.E.E.E.E.E.E.E.E.E.E.E.E.E.E.E.E.E.E.E.E.E.",
"Q.D.g h 9 a 7 c *.*.*.G L F k *.C.c j 4 j b n b.n z b.z.z.e N C N M > > > - m M R.E.E.E.E.Q.E.E.E.E.E.E.E.E.E.E.E.E.E.E.E.E.E.E.",
"E.N.z x.n B.j b.'.'.{.*.*.*.J.E.T.b.n e C.F.Q.).C.S.}.!.).k m > $ X # # $ # X $ Y E.E.E.E.E.E.E.E.E.E.E.E.E.E.E.E.E.E.E.E.E.E.E.",
"E.c.v.F.C.J.b R.=X=X*.B B D ~.=XE.b.Y k W.!._.].Z.W.;X).].e & # , U U D m $ X   8 T.E.E.E.E.E.E.Q.E.E.E.E.E.E.E.E.E.E.E.E.E.E.E.",
"Q.b.Y.W.F.C.c '.=X6X*.B B P {.6XF.S.v.n ~.).&X&XC.R.&X].].r o X S ) ) ) W ,   O : F.Q.Q.E.E.E.E.E.E.E.!.E.E.E.E.E.E.E.E.E.E.E.E.",
"E.C.~.Q.Z.J b >X6X9X^ V V P 2X9X_.!.C.b.!.!.(.^.F.;X5X4X;Xv ; X S D U ~ w ,   O ; F.Q.W.E.E.E.E.E.E.E.E.E.E.E.E.E.E.E.E.E.^.E.E.",
"E.A.].!.z.v.v.}.=X=X{.[.[.[.9X9X=X).E.:XwXrXrXwX3XeXrXiXqXb.t : T T T T S S ; : ; c.Q.Q.E.E.E.E.E.E.E.E.E.E.E.E.E.E.E.E.E.E.E.E.",
"E.|.5X|.Y Y W.6XiXiXiXiXuXuXuXuX6X;X=X&XeXiXiXiXuXrXrX8X5X!.t S / ) ( ~ W ! : : r &X!.Q.E.Q.E.E.E.E.E.E.E.E.E.E.E.E.E.E.E.E.E.E.",
"E.].6X~.R K.H.].4X=X4X=X1X1X3X3X3X1X1X=X&X;X:X,X>X,X,X>X].F.: % ! ) ( T U Y O ; z 3XQ.Q.T.Q.E.E.E.E.E.E.E.E.E.E.E.E.E.E.E.E.E.E.",
"E.Q.].|.Q.[.K.7XiXuXuXuXuXwX9X9X6X6X4X6X6X6X6X6X6X6X6X6X6X|.5 X w / ( ~ S ;   ; g ,XQ.Q.E.Q.E.E.E.E.E.E.E.E.E.E.E.E.E.E.E.E.E.E.",
"E.E.W.!.=X=X=XuXiXiXpXpXuXuXuX'.S.6XrXrXrXwXrXwX,X].0XrXeX-Xc O O t ^ E q o O ; j _.W.Q.E.E.E.E.E.E.E.!.E.E.E.E.E.E.E.E.E.E.E.E.",
"E.E.E.!.Y.Y.Y.Y._.=X=X=X2X6X=XY.n E.:X6X1XA.F.,XS.j (.4X;XF.).n @ ; : ; o   5 9 g Q.T.!.E.E.E.E.E.E.E.E.E.E.E.E.E.E.E.E.E.E.E.E.",
"E.E.R./.'.R.S.F.R.!.).'.].].'.'./.~./.).Y.O.v.}.R.R.R.R.R.T.].|.F.g c c k c n j B.4X,XQ.E.E.E.E.E.E.E.E.E.E.E.E.E.E.E.E.E.E.E.E.",
"E.E.F.A.J.Y.m.b.C.J x.K J *.J J J B.A.B.x.*.b J C.~.!.5X<X!.R.<X>X!.F.U.C.F.-.c }.eXeX2XE.E.E.E.E.E.E.E.E.E.E.E.E.E.E.E.E.E.E.E.",
"E.E.E.R.S.F.Y.Y.R.n c.x.b n J J *.*.x.b.v.B.N.n *.R.0XsXpX].).;X5X5X<X<X-X|.(.W.2XrXtXeX&XU.E.E.E.E.E.E.Y.!.E.E.E.E.E.E.E.E.E.E.",
"E.E.E.E.R.R.R.W.E.E.U.R.Y.U.Y.U.Y.U.U.S.A.A.C.C.E.0XsXsXpX4XR.6X7X8XeXeXwXwX7X!.4XyXuXuX6XU.P.U.E.E.U.5.5.I.E.E.E.E.E.E.E.E.E.E.",
"E.E.E.E.Q.E.E.E.E.E.E.E.E.E.E.E.E.E.E.E.Q.E.Q.E._.aXsXsXpXqXR.].<X<X4X4X4X4X,XZ.3XrXyXyXrXM.6 i I.E.+.1 1  .Y.E.E.E.E.E.E.E.E.E.",
"E.E.E.E.E.E.E.E.E.E.E.E.E.E.E.E.E.E.E.E.E.E.E.E.:XsXsXsXpX4XR.F.;X;X>X5X3X}.'.b.;XwXeXyXuX=Xp u :.U.@.] %.} L.E.!.E.E.E.E.E.E.E.",
"E.E.E.E.E.E.E.E.E.E.E.E.E.E.E.E.E.E.E.E.E.E.E.E.<XsXaXpXtX<XC.b.v.C.5XeXeX_.b c F.>XqXyXuXwX+X1.@.I.e.k.t.#.M.E.E.E.E.E.E.E.!.E.",
"E.E.E.E.Q.E.E.E.E.E.E.E.E.E.E.E.E.E.E.E.E.E.E.].<XrXaXpXrX:Xc -.D.B.8XyXyX).z.c j F.3XyXuX9X*Xr...U.i.l.f.#.V.E.E.E.E.E.E.E.E.E.",
"E.Q.E.E.E.E.Q.E.E.E.E.E.E.E.E.E.E.E.E.E.E.E.E.,XrX9XpXtX5XR.j n B.n 6XyXyX).n 4 3 c.:XuXrX1Xg.$.@.I.t.k.t.{ *.E.E.E.E.E.E.E.E.E.",
"E.E.E.E.E.E.E.E.E.E.E.E.E.E.E.E.E.E.E.E.E.E.E.(.6XrXrX9X|.h 9 z s 9 C.F.F.c 9 v 3 h (.qX4X_.u.{ *.Y.%.t.r.{ I.E.E.E.E.E.E.E.E.E.",
"E.E.E.E.E.E.E.E.E.E.E.E.E.E.E.E.E.E.E.E.E.E.E.3X6XrX8X,XN.@ 7 Q.s -.(.(.F.c.c `.g 3 I.3X'.F. X{ *.E.&.r.r.{ L.E.E.E.E.E.E.E.E.E.",
"E.E.E.E.E.E.E.E.Q.E.E.E.E.E.E.E.E.E.E.E.E.E._.wXiXyX3X!.j @ n 5XO.F.yXtX7XW.v `.c.= z %XQ._.%X%.L.E.u.k.k.e.*.E.E.E.E.E.E.E.E.E.",
"E.E.E.E.E.E.E.E.E.E.E.E.E.E.E.E.E.E.E.E.E.E.'.3X5X6X3Xn @ @ b.).z.T.eXrX8XW.v v I.a a N.Y.&X4XL.*.E.i.l.l.e.+.E.E.E.E.E.E.E.E.E.",
"E.E.E.E.E.E.E.E.E.E.E.E.E.Q.E.E.E.E.E.E.E.E.].4X;XR.N.j + g !.-.z >.3X0XeX|.O.c *.*.O.a E.9XwX}.I.E.u.l.k.1.@.E.E.E.E.E.E.E.E.E.",
"E.E.E.E.E.E.E.E.E.E.E.E.E.E.E.E.E.E.E.E.E.E.&XwX6X~.c b.7 -.;X^.z D.,X3X5X<XO.c.*.*.Y.k E.9XtX9XY.E.&.t.t.#.+.E.E.E.E.E.E.E.E.E.",
"E.Q.E.E.E.E.Q.E.E.E.E.E.E.E.E.E.E.E.E.E.E.!._.rXyX;Xn D.c b /.b.n ].3X-X3X5Xn z N.*.Y.B.Y.9XiX9X/.W.&.#.#.{ M.E.E.E.!.E.E.E.E.E.",
"E.E.E.E.E.E.E.E.E.E.E.E.E.E.E.E.E.E.E.E.E.E._.tXyX5XR.F.n k -.O.-._.<X3X,X,XT.v v C.U.U.b.3XyXqX].R.:.p p f Y.E.E.E.E.E.E.E.E.E.",
"E.E.E.E.E.E.E.E.E.E.E.E.E.E.E.E.E.E.E.E.E.E._.eXyX5XR.D.n < f n T.(.|.,X-X(.E.v c.c N.E.S.;XrXrX,XE.R.c.+.V.E.E.E.E.E.E.E.E.E.E.",
"E.E.E.^.E.E.E.E.E.E.E.E.E.E.E.E.E.E.E.E.E.E.Q.6XrX0XR.D.b ; e , U K.H.n.n.G F Z t g i R.U.F.].,XE.T.E.E.E.E.E.E.E.E.E.E.E.E.E.E.",
"E.E.E.E.E.E.E.E.E.E.E.E.E.E.E.E.E.E.E.E.E.E.T.<XeX3XW.C.l d ] l f r t > M t k f ' p 6 I.Q.N.S.;X!.U.E.E.E.E.E.E.E.E.E.E.E.E.E.E.",
"E.E.E.E.E.E.E.E.E.E.E.E.E.E.E.E.E.E.E.E.E.E.R._.>X3XC.c.2 =.7.s.d.s.9.5.5.q.s.9.8.=.d D.Q.F.J !.c c.E.E.E.E.E.Q.E.E.Q.E.E.E.E.Q.",
"E.E.E.E.E.E.E.E.E.E.E.E.E.E.E.E.E.E.E.E.E.E.R.(.;XU.v -.d 7.q.9.s.XXXXXX+XXX0.7.3.,.=.A.Q.T.Y F F m.E.Q.E.E.E.E.E.E.E.E.E.E.E.E.",
"E.E.E.E.E.E.E.E.E.E.E.E.E.E.E.E.E.E.E.E.E.E.R.v r e k n ] 0.q.9.6.9..X.XXXXX0.3.;.0.8.V.Q.Q.H.E ^ J.!.E.E.E.E.E.E.E.E.E.E.E.E.E.",
"E.E.E.E.E.E.E.E.E.E.E.E.E.E.E.E.E.E.E.E.E.Q.E.x.T / / Y ..s..Xs.3.3.9.d.s.7. . .8.d.p.T.E.E.H.Y H H.Q.E.E.E.E.E.E.E.E.E.E.E.E.E.",
"E.E.E.E.E.E.E.E.E.E.E.E.E.E.E.E.E.E.E.E.E.E.E.J.[.( H R ] 0..XXXXX3.] ;.=.1 2 2.p.d.a.P.E.E.S.Z.Y n.E.E.E.E.E.E.E.E.E.E.E.E.E.E.",
"E.E.E.E.E.E.E.E.E.E.E.E.Q.E.E.E.E.E.E.E.E.E.E.J.^ ^ n.H.@.0.OXOXXXs.[ < + + ] 7.s.j.h.6.E.E.Y.Y.J.n.E.E.E.E.E.E.E.E.E.E.E.E.E.E.",
"E.E.E.E.E.E.E.E.E.E.E.E.E.E.E.E.E.E.E.E.E.E.E.Z.L ^ R.v.;.0.h.OXXXXX3.-.6 d 7.d.h.j.g.q.E.E.Q.T.E.Y.E.E.E.E.E.E.E.Q.E.E.E.E.Q.E.",
"E.E.E.E.E.E.E.E.E.E.E.Q.E.E.E.E.E.E.E.E.E.E.E.J.S Y Y.M.X.u.d.@XOXd.3.F.o.3.d.$X#Xj.h.q.E.E.Q.E.E.E.E.E.E.E.E.E.E.E.E.E.E.E.E.E.",
"E.E.E.E.E.E.E.E.E.E.E.E.E.E.E.E.Q.E.Q.Q.E.E.E.R.k k F.C.,.u.d.@XOXa.6.T.-.w.+X$X$Xj.g.q.W.W.E.E.E.E.E.E.E.E.E.E.E.E.E.E.E.E.E.E.",
"E.E.E.E.E.E.E.E.E.E.E.E.E.E.E.E.E.E.Q.E.E.E.E.E.N.b v.D.2.i.oXOXOXh.q.R.>.w.$X$X$X#Xg.q.E.!.E.E.E.E.E.E.E.E.E.E.E.E.E.E.E.E.E.E.",
"E.E.E.E.E.E.E.E.E.E.E.E.E.Q.E.E.E.E.E.E.E.E.E.E.E.R.T.R.3.a.g.@XOXOX6.R.L.a.$X$X$X#Xg.L.E.E.E.E.E.E.E.E.E.E.E.E.E.E.E.E.E.E.E.Q.",
"E.E.E.E.E.E.E.E.E.E.E.E.E.E.E.E.E.E.E.E.E.E.E.E.E.E.E.E.:.y.oX@X$Xj.6.R.>.0.$X$X$X#Xp.L.Q.E.E.E.E.E.E.E.E.E.E.E.E.E.E.E.E.E.E.E.",
"!.E.E.E.E.E.E.E.E.E.E.E.E.E.E.E.E.E.E.E.E.E.E.E.E.E.E.E.o.7.OX$X#Xa.6.R.-.,.d.@X@X.X4.Y.E.E.E.E.E.E.E.E.E.E.E.E.E.E.E.E.E.E.E.E.",
"E.E.E.E.E.!.E.E.E.E.E.E.E.E.E.E.E.E.E.^.E.E.E.E.E.E.E.E.s | g.@XOX8.o.R.M.,.p.h.oXu.@.Y.E.E.E.E.E.E.E.E.E.E.E.E.E.E.E.E.E.E.E.E.",
"E.E.E.E.E.E.E.E.E.E.E.E.E.E.E.E.E.E.E.E.E.E.E.E.E.E.E.T.o.p y.h.d.X.i T.M...y.d.u.%.o.Y.E.E.E.E.E.E.E.E.E.E.E.E.E.E.E.E.E.E.E.E.",
"E.E.E.E.E.E.E.E.E.E.E.E.E.E.E.E.E.E.E.E.E.E.E.E.E.E.E.Y.@.y | 4.7.2 u T.>...3.p.y.] ' Y.E.E.E.E.E.E.E.E.E.E.E.E.E.E.E.E.E.E.E.^.",
"E.E.E.E.E.E.E.E.E.E.E.E.E.E.E.E.E.E.E.E.E.E.E.E.E.E.E.E.@. .u { ` 1 >.T.L.2...,.} d +.R.E.E.E.E.E.E.E.E.E.E.E.E.E.E.E.E.E.E.E.E.",
"!.E.E.E.E.E.E.E.E.E.E.E.E.E.E.E.E.E.E.E.E.E.E.E.E.E.E.E.A.] ` u 1 6 T.T.q.p.%.X...] :.E.E.E.E.E.E.E.E.E.E.E.E.E.E.E.E.E.E.E.E.E.",
"E.E.E.E.E.E.E.E.E.E.E.E.E.E.E.E.E.E.E.E.E.E.E.E.E.E.E.E.A.u y < + @ D.T. .3...] | ;.I.!.E.E.E.E.E.E.E.E.E.E.E.E.E.E.E.E.E.E.E.E.",
"E.E.E.E.E.E.E.E.E.!.E.E.E.E.E.E.E.E.E.E.E.E.E.E.E.E.E.E.L.` p 1 < < V.I.9.3.2.,.2.>.E.E.E.E.E.E.E.E.E.E.E.E.E.E.E.E.E.E.E.E.E.E.",
"E.E.E.E.E.E.E.E.E.E.E.E.E.E.E.E.E.E.E.E.E.E.E.E.E.E.E.E.Y.` ` 2 < 2 I.P.0.XXd.XXu.L.Y.Y.!.!.E.E.E.E.E.E.E.E.E.E.E.E.E.E.E.E.E.E.",
"E.E.E.E.E.E.E.E.E.E.E.E.E.E.E.E.E.E.E.E.!.E.E.E.E.E.E.E.Y.#._ $.{ f R.P.3.=.2.2.&.V.!.!.E.E.E.E.E.!.E.E.E.E.E.E.E.E.E.E.E.E.E.E.",
"E.E.E.E.E.E.E.E.E.E.E.E.E.E.E.E.E.E.E.E.E.E.E.E.E.E.E.E.Y.$.r.r._ ' R.A.[ 2.=.=. .M.E.E.E.E.E.E.E.E.E.E.E.E.E.E.E.E.E.E.E.E.E.E.",
"E.E.E.E.E.E.E.E.E.E.E.E.E.E.E.E.E.E.E.E.E.E.E.E.E.E.E.E.T.e.k.t.<. .T.F.[ | ` { ` M.E.E.E.E.E.E.E.E.E.E.E.E.E.E.E.E.E.E.E.E.E.E.",
"E.E.E.E.E.E.E.E.E.E.E.E.E.E.E.E.E.E.E.E.E.E.E.E.E.E.E.E.P.t.f.t.$.:.E.I.f } 1.1.#.*.^.E.E.E.E.E.E.E.E.E.E.E.E.E.E.E.E.E.E.E.E.E.",
"E.E.E.E.E.E.E.E.E.E.E.E.E.E.E.E.E.E.E.E.E.E.E.E.E.E.E.E.I.&.&.e.2.I.Q.I.l <.g.l.t.4.T.E.E.E.E.E.E.E.E.E.E.E.E.E.E.E.E.E.E.E.E.E.",
"E.E.E.E.E.E.E.E.E.E.E.E.E.E.E.E.E.E.E.E.E.E.E.E.E.E.!.E.E.E.T.U.U.E.E.R.V.2.i.f.t.e.5.E.E.E.E.E.E.E.E.E.E.E.E.!.E.E.E.E.!.E.E.E.",
"E.E.E.E.^.E.E.E.E.E.E.E.E.E.E.E.E.E.E.E.E.E.E.E.E.E.E.E.E.E.E.E.E.E.E.E.E.T.P.M.5.4.M.E.E.E.E.E.E.E.E.E.E.E.E.E.E.E.E.E.E.E.E.E."
};
