/* XPM */
static char *_51721606556[] = {
/* columns rows colors chars-per-pixel */
"64 64 218 2 ",
"   c #251E1B",
".  c #37261D",
"X  c #2A2726",
"o  c #362B26",
"O  c #2D3034",
"+  c #3A3A3C",
"@  c #492D1D",
"#  c #56311D",
"$  c #483427",
"%  c #563427",
"&  c #53322E",
"*  c #453C3A",
"=  c #6F3424",
"-  c #4A413C",
";  c #57443B",
":  c #74472D",
">  c #714B34",
",  c #2A3642",
"<  c #384759",
"1  c #3A4E62",
"2  c #3D5570",
"3  c #454345",
"4  c #4D4A4C",
"5  c #534B4A",
"6  c #4B5056",
"7  c #545354",
"8  c #5A5455",
"9  c #565659",
"0  c #5D5A5C",
"q  c #6C564F",
"w  c #765849",
"e  c #685D59",
"r  c #68615D",
"t  c #786359",
"y  c #434F60",
"u  c #455669",
"i  c #575E66",
"p  c #445C76",
"a  c #615F60",
"s  c #5A6068",
"d  c #4B647B",
"f  c #586779",
"g  c #636264",
"h  c #666367",
"j  c #6B6A6C",
"k  c #746C69",
"l  c #626A76",
"z  c #6C6D72",
"x  c #6D7076",
"c  c #737374",
"v  c #75767A",
"b  c #797678",
"n  c #7B7A7C",
"m  c #904C31",
"M  c #885537",
"N  c #A15E2C",
"B  c #A65739",
"V  c #D16D39",
"C  c #D57837",
"Z  c #8A5644",
"A  c #975541",
"S  c #916B52",
"D  c #AF7050",
"F  c #8B7269",
"G  c #92776B",
"H  c #827C7E",
"J  c #A77A63",
"K  c #CB7B5D",
"L  c #EB893D",
"P  c #B6815A",
"I  c #94827A",
"U  c #B98866",
"Y  c #A9897E",
"T  c #B58F75",
"R  c #E88B42",
"E  c #C48D66",
"W  c #D2976B",
"Q  c #C79677",
"!  c #D59E77",
"~  c #E2A67C",
"^  c #F9B37A",
"/  c #3D6B9E",
"(  c #4B6887",
")  c #546C87",
"_  c #55728B",
"`  c #496D94",
"'  c #567796",
"]  c #5B7692",
"[  c #5B7D9C",
"{  c #657586",
"}  c #6C7788",
"|  c #7C7D82",
" . c #757C89",
".. c #647E99",
"X. c #4A76A9",
"o. c #5177A4",
"O. c #477CB4",
"+. c #627FA6",
"@. c #817E82",
"#. c #5F839F",
"$. c #7C818A",
"%. c #67839B",
"&. c #798899",
"*. c #5C82A4",
"=. c #4B80BA",
"-. c #5586BA",
";. c #6488A7",
":. c #6A8DAA",
">. c #758CA5",
",. c #6F90AA",
"<. c #7994AC",
"1. c #688CB4",
"2. c #6C94B4",
"3. c #6B97B8",
"4. c #789BB7",
"5. c #739CBB",
"6. c #78A0BF",
"7. c #4E89C6",
"8. c #538DC9",
"9. c #5791CB",
"0. c #5999D7",
"q. c #6999C3",
"w. c #729DC4",
"e. c #6B9ED2",
"r. c #6EA0C4",
"t. c #76A4C7",
"y. c #7BA5C4",
"u. c #7DAACC",
"i. c #67A3DC",
"p. c #75ACD5",
"a. c #7EAED1",
"s. c #7EB1D6",
"d. c #5FA3E0",
"f. c #64A7E4",
"g. c #64AAE9",
"h. c #6FB1EA",
"j. c #6BB4F2",
"k. c #838284",
"l. c #898484",
"z. c #85858A",
"x. c #898789",
"c. c #8B8A8C",
"v. c #998A84",
"b. c #928C8C",
"n. c #838996",
"m. c #8D8D92",
"M. c #918F92",
"N. c #8D9198",
"B. c #939294",
"V. c #9C9495",
"C. c #94959A",
"Z. c #99979A",
"A. c #97999D",
"S. c #9B9A9D",
"D. c #A78F8A",
"F. c #A7948B",
"G. c #A59A97",
"H. c #B6AA91",
"J. c #8895A6",
"K. c #8C97A9",
"L. c #9198A3",
"P. c #959AA4",
"I. c #9C9DA3",
"U. c #849AB4",
"Y. c #A09FA3",
"T. c #9DA1A8",
"R. c #A3A2A5",
"E. c #A7A6AB",
"W. c #A9A7A8",
"Q. c #A8A7AB",
"!. c #ABAAAC",
"~. c #B4ADA6",
"^. c #AEAEB1",
"/. c #B1AFB1",
"(. c #AFB1B2",
"). c #B3B2B3",
"_. c #B6B6B9",
"`. c #B7B7BA",
"'. c #B9B7B9",
"]. c #BCBBBD",
"[. c #D2A390",
"{. c #C7ADA7",
"}. c #C2BEBD",
"|. c #C0C0BF",
" X c #83AECD",
".X c #86B1CE",
"XX c #84B4D6",
"oX c #88B5D5",
"OX c #85B6DA",
"+X c #8BBBDC",
"@X c #BEBEC1",
"#X c #C0BEC0",
"$X c #BEC0C3",
"%X c #C4C4C5",
"&X c #C6C7C9",
"*X c #C9C8C9",
"=X c #CCCBCC",
"-X c #D2D0CF",
";X c #CECDD1",
":X c #D0CFD0",
">X c #D4D3D4",
",X c #D8D7D7",
"<X c #D9D8D7",
"1X c #DCDBDB",
"2X c #E1DFDF",
"3X c #E1E0DF",
"4X c #DFE0E0",
"5X c #E4E3E3",
"6X c #E8E7E6",
"7X c #EAE9E7",
"8X c #ECEBEB",
"9X c #F0EFEC",
"0X c #F2F1ED",
"qX c #F0EFF0",
"wX c #F4F3F3",
"eX c #F8F7F5",
"rX c #F9F9F7",
"tX c #F9F9F8",
/* pixels */
"E.E.E.E.E.E.E.E.E.E.E.E.E.E.E.E.Q.Q.E.E.E.E.E.E.E.E.E.E.E.E.E.E.E.E.Q.Q.R.E.E.E.E.E.E.E.E.E.E.E.E.E.E.E.E.E.E.E.E.E.Q.E.E.E.E.E.",
"E.E.E.E.E.R.I.A.B.B.M.m.@.B.Y.E.Q.R.E.E.E.E.E.E.T.E.E.E.E.E.E.E.E.E.Q.R.E.E.E.E.E.Q.E.E.E.E.E.E.E.E.E.E.E.E.Q.E.E.E.Q.W.E.E.E.E.",
"E.E.E.E.C.j 9 6 4 4 3 * & & 8 j c b $.I $.x.k.n n n | k.$.c.c.B.Z.F.F.Y V.G.E.E.E.E.E.E.E.E.E.E.E.E.E.E.E.E.E.E.E.E.E.E.E.E.E.E.",
"E.Q.I.b 4 - + - 4 4 3 & = = & 5 0 4 6 9 7 0 e g j z c n I k.k.b D R L L C D v.E.E.E.E.E.E.E.E.E.E.E.E.E.E.E.E.E.E.E.E.E.E.E.E.E.",
"E.E.v 3 + 3 + 9 @.@.h Z A Z 5 8 0 4 5 3 3 6 8 8 8 8 e 0 g 0 q V L R L C C V N F.Q.Q.Q.E.E.E.E.E.E.E.E.E.E.E.E.E.E.E.E.E.E.E.E.E.",
"E.A.g h 9 a 7 c @.@.@.J J F k @.M.c j 4 j x I c.b z c.k.k.e N C N M > : : = m M Q.R.E.E.E.E.Q.E.E.E.E.E.E.E.E.E.E.E.E.E.E.E.E.E.",
"E.m.z l.n B.j c.'./.{.@.@.@.Y.Y.Q.x.n a B.S.Q./.V.Z.].!.).k m : # @ @ # # @ . # I Q.E.E.E.E.E.E.E.E.E.E.E.E.E.E.E.E.E.E.E.E.E.E.",
"E.z.x.S.B.G.b R.#X#X@.B B D ~.#X!.c.k.j Q.~.`.].V.W.&X).].e % @ > P P D : # . o 8 T.E.E.E.E.E.E.E.E.E.E.E.E.E.E.E.E.E.E.E.E.E.E.",
"Q.m.R.W.A.m.c '.;X>X@.B B K {.1XS.B.c.n ~.).].@XB.R.$X].].g X . S ^ ^ ^ E :   o ; S.W.W.E.E.E.E.E.E.E.E.E.E.E.E.E.E.E.E.E.E.E.E.",
"E.B.~.R.C.I b *X1X1XQ V V K ;X2X).^.Z.x.!.!.(.^.S.%X,X1X%Xb - . S D P W M : . o - S.!.T.E.E.E.E.E.E.E.E.E.E.E.E.E.E.!.E.E.E.E.E.",
"R.A.].W.k.l.x.}.#X#X{.[.[.[.5X2X#X).R.&X6X8X8X8X>X7X0X8X5Xc.t ; U U U U S S $ ; - k.!.W.E.Q.E.E.E.E.E.E.E.E.E.E.E.E.E.E.E.E.E.E.",
"E.|.<X|.I v.W.1XqXqXeXeXqXqXqXqX1X&X@X@X6XwXwXwX8X8X8X5X<XW.t S ! ^ ~ W E E ; ; r &XQ.Q.E.E.E.E.!.E.E.E.E.E.E.E.E.E.E.E.E.E.E.E.",
"E.].1X~.Y H.F.].,X#X,X#X;X;X>X>X>X:X;X}.@X%X&X=X*X=X;X*X].S.; $ E ^ ~ U P S o - k ,XE.E.E.E.E.E.E.E.E.E.E.E.E.E.E.E.E.E.E.E.E.E.",
"E.Q.].|.Q.[.H.2XqXqXqXqXqX6X6X2X1X1X,X1X1X1X1X1X1X1X1X1X1X].5 . w ! ~ Q I -   - g &XE.E.E.E.E.E.E.E.E.E.E.E.!.E.E.E.E.E.E.E.E.E.",
"Q.E.W.!.#X#X#XqXwXwXeXeXqXqXqX'.Z.1X8X8X8X6X8X6X=X].4X8X7X%Xc o o t Q T q X o - j `.!.E.E.E.E.E.E.E.E.E.E.E.E.E.E.E.E.E.E.E.E.E.",
"E.Q.Q.Q.I.Y.Y.Y.'.#X#X#X;X,X2X@.n E.&X1X;XC.S.=XZ.j (.<X].S.`.n + * ; - X   5 9 i !.R.Q.E.Q.E.E.E.E.E.E.E.E.E.E.E.E.E.E.E.E.E.E.",
"E.E.R.!.'.W.C.Z.R.~.).'.].].'.'./.~./.).Y.| l.@XR.R.R.R.R.T.|.|.S.g c c c c n j M.<X=XQ.E.E.E.E.E.!.E.E.E.E.E.E.E.E.E.E.E.E.E.E.",
"E.E.R.B.G.Y.c.b.B.H l.H H H H H H M.B.M.l.@.b @.B.(.~.<X-X!.R.-X=X!.S.S.B.S.$.c |.7X7X-XQ.E.E.E.E.E.E.E.E.E.E.E.E.E.E.E.E.E.E.E.",
"E.E.E.R.C.A.R.G.R.| z.k.b H H H @.@.l.m.c.M.M.n n R.5XtXeX].).%X<X<X>X-X|.|.(.Q.-X8X8X7X].E.E.E.E.E.E.E.E.E.E.E.E.E.E.E.E.E.E.E.",
"E.E.E.E.R.R.Q.E.E.R.Y.R.Y.I.I.I.Y.I.I.Z.C.C.B.M.E.4XrXtXeX>XR.1X1X3X7X7X7X3X1X~.<X0X0X9X,XQ.E.E.E.E.E.E.E.E.E.E.E.E.E.E.E.E.E.E.",
"E.E.E.E.Q.E.E.E.E.E.E.E.E.E.E.E.E.E.E.E.E.E.E.E.`.wXtXtXeX3XR.].-X-X>X<X<X<X=XB.>X0X0X0X6X/.Q.E.E.E.E.!.E.E.E.E.E.E.E.E.!.E.E.E.",
"E.E.E.E.E.E.E.E.E.E.E.E.E.E.E.E.E.E.E.E.E.E.E.E.&XrXtXtXeX<XR.P.|.=X=X<X-X}.].c.|.6X7X0X9X:XE.E.E.E.E.E.E.E.E.E.E.E.E.E.E.E.E.E.",
"E.E.E.E.E.E.E.E.E.E.E.E.E.E.E.E.E.E.E.E.E.E.E.E.>XrXeXeX0X-XB.c.x.B.<X7X7X'.n c S.*X3X0X0X5X!.E.E.E.E.E.E.E.E.E.E.E.E.E.E.E.E.E.",
"E.E.E.E.Q.E.E.E.E.E.E.E.E.E.E.E.E.E.E.E.E.E.E.#X-X8XeXeX9X*Xc $.A.b.3X0X0X`.n c j S.>X0X0X5X(.E.E.E.E.E.E.E.E.E.E.E.E.E.E.E.E.E.",
"E.E.E.E.E.E.Q.E.E.E.E.E.E.E.E.E.E.E.E.E.E.E.E.=X8X5XwX9X,XR.j n M.n 3X0X0X~.n 4 3 k.&X8X8X=XE.E.E.E.E.E.E.E.E.E.E.E.E.E.E.E.E.E.",
"E.E.E.E.E.E.E.E.E.E.E.E.E.E.E.E.E.E.E.E.E.E.E./.1X8X8X5X|.h 9 z s 9 B.S.S.c 9 v 3 h ).5X,X'.R.Q.E.E.E.E.E.E.E.E.E.E.E.E.E.E.E.E.",
"E.E.E.E.E.E.E.E.!.!.E.E.E.E.E.E.E.E.E.E.E.E.E.,X2X8X2X*Xm.+ 7 !.s $.).(.R.$.c `.i 4 I.:X].S.Q.Q.E.E.E.E.E.E.E.E.E.E.E.E.E.E.E.E.",
"E.E.E.Q.E.E.E.E.E.E.E.E.E.E.E.E.E.E.E.E.E.E.`.5XwX0X>X!.j + n <Xn I.0X0X3XW.v `.c.+ z ].Q.).].Q.E.E.^.E.E.E.E.E.E.E.E.E.E.E.E.E.",
"E.E.E.E.E.E.E.E.E.E.E.E.E.E.E.E.E.E.E.E.E.E.'.>X<X1X>Xn + + m.(.$.T.5X0X3XW.c v C.a i m.P.;X1X(.E.E.E.E.E.E.E.E.E.E.E.E.!.E.E.E.",
"E.E.E.E.E.E.E.E.E.E.E.E.E.E.E.E.E.E.E.E.E.E.].,X}.R.M.j O g !.| z N.>X4X6X|.| c @.| H a E.1X6X;XE.E.E.E.E.E.E.E.E.E.E.E.E.E.E.E.",
"E.E.E.Q.E.E.E.Q.E.E.E.E.E.E.E.E.E.E.E.E.E.E.@X6X4X!.c c.7 | %X(.z A.*X,X<X:X| z.| c.S.z !.1XqX4X^.E.E.E.E.E.E.E.E.E.E.E.E.E.E.E.",
"E.E.E.E.E.E.E.E.E.E.E.E.E.E.E.E.E.E.E.E.E.E.'.8X9X%Xn Z.c n (.c.b `.>X$X>X<Xn z c.@.E.M.I.5XqX5X(.E.E.E.E.E.E.E.E.E.E.E.E.E.E.E.",
"E.E.E.E.E.E.E.E.E.E.E.E.E.E.E.E.E.Q.E.E.E.E._.0X0X<XR.S.$.x $.} $.`.-X>X=X$XT.$.c B.T.R.c.>X0X3X%XE.E.E.E.E.E.E.E.E.E.E.E.E.E.E.",
"E.E.E.E.E.E.E.E.E.E.E.E.E.E.E.E.E.E.E.E.E.E._.7X0X<XR.S.b - f v T.(.%X=X$X`.T.v c.z c.E.C.&X8X8X*XR.E.E.E.E.E.E.E.E.E.E.E.E.E.E.",
"E.E.E.E.E.E.E.E.E.E.E.E.E.E.E.E.E.E.E.E.E.E.W.<X8X4XR.Z.b - e M P H.F.v.v.I F Z t g 0 T.I.S.].=XW.Y.E.E.E.E.E.E.E.E.E.E.E.E.E.E.",
"E.E.E.E.E.E.E.E.E.E.E.E.E.E.!.!.E.E.E.E.E.E.T.>X6X,XW.B.f d f _ f r t : M w k l ) p y I.E.m.C.&X!.I.E.E.E.E.E.E.E.E.E.E.E.E.E.E.",
"E.E.E.E.E.E.E.E.E.E.E.E.E.E.E.E.E.E.E.E.E.E.T.`.*X>XB.z.u #.2.y.u.y.4.>.>.4.6.5.2.*.d A.W.S.$.W.c z.E.E.E.E.E.E.E.E.E.E.E.E.E.E.",
"E.E.E.E.E.E.E.E.E.E.E.E.E.E.E.E.E.E.E.E.E.E.R.(.&XS.v $.d 2.4.4.y..X.X.X.X.X6.2.:.*.#.C.E.T.I F F b.E.E.E.E.E.E.E.E.E.E.E.E.E.E.",
"E.E.E.E.E.E.E.E.E.E.E.E.E.E.E.E.E.E.E.E.E.Q.R.v g t k n _ 5.4.4.<.4.y. X.X.X4.:.%.y.2.L.E.E.F.Q Q H.E.E.E.E.E.E.E.E.E.E.E.E.E.E.",
"E.E.E.E.E.E.E.E.E.E.E.E.E.E.E.E.E.E.E.E.E.E.Q.k.P ! ! I ' y. Xy.,.,.4.y. X2.] ] 2.y.t.P.E.E.V.I G F.E.E.E.E.E.E.E.E.E.E.E.E.E.E.",
"^.E.E.E.E.E.E.E.E.E.E.E.E.E.E.Q.E.E.E.E.E.E.E.G.[.! J D.) q. XXXu.:._ #.#.1 2 :.6.u.t.L.E.E.V.V.@.D.E.E.E.!.E.E.E.^.E.E.E.E.E.E.",
"E.E.E.E.E.E.E.E.E.E.E.Q.E.E.E.E.E.E.E.E.E.E.E.G.! Q M.F.%.3. XoX.Xy._ < O O ( 3.t.s.p.J.E.E.I.C.G.@.E.Y.K.K.T.E.E.E.E.E.E.E.E.E.",
"E.E.E.E.E.E.E.E.E.E.E.E.E.E.E.E.E.E.E.E.E.Q.E.V.D T Y.c.%.5.XXOXXX.X:.$.6 d 2.y.s.s.p.4.E.E.&.s x C.E. .u p n.E.E.E.E.E.E.E.E.E.",
"E.E.E.E.E.E.E.E.E.E.E.E.E.E.E.E.E.E.E.E.E.Q.Q.S.S D.Y.n.' 5.u.OXoXy.:.S.{ :. X+X+Xs.p.U.E.T.*.d y  .Y.+._ ) +.Y.E.E.E.E.E.E.E.E.",
"E.E.E.E.E.E.E.E.E.E.E.E.E.E.E.E.E.E.E.E.E.E.E.R.k k S.N.*.r.u.XXXXt.<.R.$.6.+X+X+Xs.p.6.W.T.d.0.-.[ P.9.d.8.' I.E.E.E.E.E.E.E.E.",
"E.E.E.E.E.E.E.E.E.E.E.Q.E.E.E.E.E.E.E.E.E.E.E.E.m.b x.A.;.q.s.XXoXa.4.R.&.6.+X+X+XOXs.4.E.U.f.j.0.] I.e.j.0.' Y.E.E.E.E.E.E.E.E.",
"E.E.E.E.E.E.E.E.E.E.E.E.E.Q.E.E.Q.E.E.E.E.E.E.E.E.R.T.R.:.r.s.XXOXXX<.R.J.y.+X+X+X+Xp.<.E.J.0.g.7.{ I.q.f.8.) I.E.E.E.E.E.E.E.E.",
"E.E.E.E.E.E.E.E.E.E.E.E.E.E.E.E.E.E.E.E.E.E.E.E.E.E.E.!.&.r.s.OX+Xa.<.R.&.r.+X+X+X+Xr.J.E.J.O.0./ @.Y.o.0.7.( R.E.E.E.E.E.E.E.E.",
"E.E.E.E.E.E.E.E.E.E.E.E.E.E.E.E.E.E.E.E.E.!.E.E.E.E.E.E.} 1.XXOX+Xt.<.T.$.#.u.OXoX X+.P.E.U.8.0.X.@.^.q.0.8.` Y.E.E.E.E.E.E.E.E.",
"E.E.E.E.E.E.E.E.E.E.E.E.E.E.E.E.E.E.E.E.E.E.E.E.E.E.E.E.i ) XXOXXX2.{ T.&.#.t.XX Xw.+.E.E.U.g.d.=.@.E.e.j.g.o.P.E.E.E.E.E.E.E.E.",
"E.E.E.E.^.E.E.E.E.E.E.E.E.E.E.E.E.E.E.E.E.E.E.E.E.E.E.Y.{ p q.a.u.[ i T.n.[ 6.u.w.+.} E.E.U.j.g.=.@.T.w.h.g.=.P.E.E.E.E.E.E.E.E.",
"E.E.E.E.E.E.E.E.E.E.E.E.E.E.E.E.E.E.E.E.E.E.E.E.E.E.E.Y...1 ' 1.2.2 i T.&.' -.q.w.( ) U.`.@.g.d.X.@.E.+.g.i.o.T.E.E.E.E.E.E.E.E.",
"E.E.E.E.E.E.E.E.E.E.E.E.E.E.E.E.E.E.E.E.E.E.E.E.E.E.E.E.+.] u ( d 1 &.T.J.;.[ *.o.(  .Y.E.@.7.X.` @.T.+.8.O.( @.E.E.E.E.E.E.E.E.",
"E.E.E.E.E.E.E.E.E.E.E.E.E.E.E.E.E.E.E.E.E.E.E.E.E.E.E.E.B.) ( 2 2 6 T.T.4.5.[ [ ' ) n.Y.E.T.) y ( @.E.@.( ( } Y.E.E.E.E.E.E.E.E.",
"E.E.E.E.E.E.E.E.E.E.E.E.E.E.E.E.E.E.E.E.E.E.E.E.E.E.E.E.C.u y < , + A.T...:.[ ) ` ;.P.E.E.E.@.} @.I.E.P.} } @.E.E.E.E.E.E.E.E.E.",
"E.E.E.E.E.E.E.E.E.E.E.E.E.E.E.E.E.E.E.E.E.E.E.E.E.E.E.E.L.( p 1 < < N.A.2.:.;.+.;.n.E.E.E.E.E.E.T.E.E.E.E.Y././.E.E.E.E.E.E.E.E.",
"E.E.E.E.E.E.E.E.E.E.E.E.E.E.E.E.E.Q.E.E.E.E.E.E.E.E.E.E.Y.( ( 2 < 1 I.K.5.XXu..X X@./.E.E.E.E.E.E.E.E.E.E.E.E.E.E.E.E.E.E.E.E.E.",
"E.E.E.E.E.E.E.E.E.E.E.E.E.E.E.E.E.E.E.E.E.E.E.E.E.E.E.E.Y.o./ O.( f R.L.:.%.%.;.+.K.E.E.E.E.E.E.E.E.E.E.E.E.E.E.E.E.E.E.E.E.E.E.",
"E.E.E.E.E.E.E.E.E.E.E.E.E.E.E.E.E.E.E.E.E.E.E.!.E.E.E.E.I.O.8.7./ _ I.L.] %.*.#.o.@.E.E.E.E.E.E.E.E.E.E.E.E.E.E.E.E.E.E.E.E.E.E.",
"E.E.E.E.E.E.E.E.E.E.E.E.E.E.E.E.E.E.E.E.E.E.E.E.E.E.E.Q.I.9.f.e.=.' I.I.] ` ` ( ` @.E.E.E.E.E.E.E.E.E.E.E.E.E.E.E.E.E.E.E.E.E.E.",
"E.E.E.E.E.E.E.E.E.E.E.E.E.E.E.E.E.Q.E.E.Q.E.E.E.E.E.E.E.K.8.f.0.O.%.E.S.l o.-.-./ @./.E.E.E./.E.E.E.E.E.E.E.E.E.E.E.E.E.E.E.E.E.",
"E.E.E.E.E.E.E.E.E.E.E.E.E.E.E.E.E.E.E.E.E.E.E.E.E.E.E.E.I.+.-.-.;.L.E.A.l =.i.p.e.1.E.E.E.E.E.E.E.E.E.E.E.E.E.E.E.E.E.E.E.E.E.E.",
"!.E.E.E.E.E.E.E.E.E.E.E.E.E.E.E.E.E.E.E.E.E.E.E.E.E.E.E.E.E.I.I.E.E.E.E.N.;.p.i.0.7.@.E.E.E.E.E.E.E.E.E.E.E.E.E.E.E.E.E.E.E.E.E.",
"E.E.E.E.E.E.E.E.E.E.E.E.E.^.E.E.E.E.E.E.E.E.E.E.E.E.E.E.E.E.E.E.E.E.E.E.E.T.L.>.U.+.U.E.E.E.E.E.E.E.E.E.E.E.E.E.E.E.E.E.E.E.E.E."
};
