/* XPM */
static char *_71721606556[] = {
/* columns rows colors chars-per-pixel */
"64 64 224 2 ",
"   c #251E1B",
".  c #2C211D",
"X  c #37261D",
"o  c #2A2726",
"O  c #362B26",
"+  c #2D3034",
"@  c #3A3A3C",
"#  c #492D1D",
"$  c #56311D",
"%  c #483427",
"&  c #563427",
"*  c #53322E",
"=  c #453C3A",
"-  c #6F3424",
";  c #4A413C",
":  c #57443B",
">  c #74472D",
",  c #714B34",
"<  c #2A3642",
"1  c #3E434B",
"2  c #374658",
"3  c #3A4E62",
"4  c #3E5269",
"5  c #3D5879",
"6  c #454345",
"7  c #494445",
"8  c #4D4A4C",
"9  c #534B4A",
"0  c #4B5056",
"q  c #545354",
"w  c #5A5455",
"e  c #565659",
"r  c #5D5A5C",
"t  c #6C564F",
"y  c #765849",
"u  c #685D59",
"i  c #68615D",
"p  c #786359",
"a  c #445669",
"s  c #565D67",
"d  c #445C76",
"f  c #615F60",
"g  c #5E6065",
"h  c #4B647B",
"j  c #596778",
"k  c #636264",
"l  c #666367",
"z  c #6B6A6C",
"x  c #746C69",
"c  c #626A75",
"v  c #6C6D72",
"b  c #6E7074",
"n  c #737374",
"m  c #75767A",
"M  c #797678",
"N  c #7B7A7C",
"B  c #904C31",
"V  c #885537",
"C  c #A15E2C",
"Z  c #A65739",
"A  c #BF6F3C",
"S  c #D16D39",
"D  c #D57837",
"F  c #8A5644",
"G  c #975541",
"H  c #916B52",
"J  c #AF7050",
"K  c #8B7269",
"L  c #92776B",
"P  c #827C7E",
"I  c #8A7D7A",
"U  c #A77A63",
"Y  c #CB7B5D",
"T  c #EB893D",
"R  c #B6815A",
"E  c #94827A",
"W  c #B98866",
"Q  c #A9897E",
"!  c #B58F75",
"~  c #D6864C",
"^  c #C48D66",
"/  c #D2976B",
"(  c #C79677",
")  c #D59E77",
"_  c #E2A67C",
"`  c #F9B37A",
"'  c #3D6B9E",
"]  c #4A6887",
"[  c #556C87",
"{  c #56718B",
"}  c #4B6F99",
"|  c #557795",
" . c #5B7691",
".. c #5B7C9D",
"X. c #667585",
"o. c #767C86",
"O. c #7C7D82",
"+. c #667D95",
"@. c #456FA0",
"#. c #4A78AB",
"$. c #557BA7",
"%. c #487CB4",
"&. c #627FA6",
"*. c #817E82",
"=. c #5F839F",
"-. c #7C8189",
";. c #67839B",
":. c #798899",
">. c #5C82A4",
",. c #4980BC",
"<. c #5686BA",
"1. c #6588A7",
"2. c #6A8DAA",
"3. c #758CA5",
"4. c #6F90AA",
"5. c #7994AC",
"6. c #6589B2",
"7. c #6C94B4",
"8. c #6B96B9",
"9. c #789BB7",
"0. c #739CBB",
"q. c #78A0BF",
"w. c #4E89C7",
"e. c #558ECA",
"r. c #5A93CA",
"t. c #5997D5",
"y. c #6C9CC5",
"u. c #729EC3",
"i. c #679DD3",
"p. c #6EA0C9",
"a. c #76A4C7",
"s. c #7BA5C4",
"d. c #7DAACC",
"f. c #69A2D9",
"g. c #75ACD5",
"h. c #7EAED1",
"j. c #7EB1D6",
"k. c #64A9E7",
"l. c #6CB0EB",
"z. c #6AB3F1",
"x. c #838284",
"c. c #898484",
"v. c #868589",
"b. c #898789",
"n. c #8B8A8C",
"m. c #998A84",
"M. c #928C8C",
"N. c #8D8D92",
"B. c #848B98",
"V. c #918F92",
"C. c #8F9092",
"Z. c #8D919A",
"A. c #939294",
"S. c #9C9495",
"D. c #95959A",
"F. c #99979A",
"G. c #97999D",
"H. c #9B9B9D",
"J. c #A78F8A",
"K. c #A7948B",
"L. c #A59A97",
"P. c #B6AA91",
"I. c #8A96A6",
"U. c #959AA4",
"Y. c #959BA7",
"T. c #9D9DA3",
"R. c #829CB6",
"E. c #A09FA3",
"W. c #9EA1A9",
"Q. c #A3A2A5",
"!. c #A7A6AB",
"~. c #A9A7A8",
"^. c #A8A7AB",
"/. c #ABAAAC",
"(. c #B4ADA6",
"). c #AEAEB1",
"_. c #B1AFB1",
"`. c #AFB1B2",
"'. c #B3B2B3",
"]. c #B6B6B9",
"[. c #B7B7BA",
"{. c #B9B7B9",
"}. c #BCBBBD",
"|. c #D2A390",
" X c #F7B583",
".X c #C7ADA7",
"XX c #C2BEBD",
"oX c #C0C0BF",
"OX c #809FC1",
"+X c #83AECD",
"@X c #86B1CE",
"#X c #81AFD1",
"$X c #84B4D6",
"%X c #88B5D5",
"&X c #85B6DA",
"*X c #8BBBDC",
"=X c #BEBEC1",
"-X c #C0BEC0",
";X c #BEC0C3",
":X c #C4C4C5",
">X c #C6C7C9",
",X c #C9C8C9",
"<X c #CCCBCC",
"1X c #D2D0CF",
"2X c #CECDD1",
"3X c #D0CFD0",
"4X c #D4D3D4",
"5X c #D8D7D7",
"6X c #D9D8D7",
"7X c #DCDBDB",
"8X c #E1DFDF",
"9X c #E1E0DF",
"0X c #DFE0E0",
"qX c #E4E3E3",
"wX c #E8E7E6",
"eX c #EAE9E7",
"rX c #ECEBEB",
"tX c #F0EFEC",
"yX c #F2F1ED",
"uX c #F0EFF0",
"iX c #F4F3F3",
"pX c #F8F7F5",
"aX c #F9F9F7",
"sX c #F9F9F8",
/* pixels */
"!.!.!.!.!.!.!.!.!.!.!.!.!.!.!.!.^.^.^.!.!.!.!.!.!.!.!.!.!.!.!.!.!.!.!.!.!.!.!.!.!.!.!.!.^.!.^.!.!.!.!.!.!.!.!.!.!.!.!.!.!.!.!.!.",
"!.!.!.!.!.W.T.G.A.A.V.N.*.A.E.!.Q.~.!.!.!.!.!.!.W.!.!.!.!.!.!.!.!.!.^.^.!.!.!.!.!.!.!.!.!.!.!.!.!.!.!.!.!.!.!.!.!.!.!.!.!.!.!.!.",
"!.!.!.!.D.z q q 8 8 6 = * * w x m m N *.-.v.x.O.N N O.x.v.n.n.Z.S.J.J.Q J.H.!.^.!.!.!.!.!.!.!.!.!.!.!.!.!.!.!.!.!.!.!.!.!.!.!./.",
"!.^.T.M 8 ; @ = 8 8 6 * - - * 9 r 9 e e q r u l z x n N x.x.v.K J T T T D J m.!.!.!.!.!.!.!.!.!.!.!.!.!.!.!.!.!.!.!.!.!.!.!.!.!.",
"^.!.m 6 @ 6 1 q *.*.l F G F 9 w r 9 q 6 6 q w w e q u f k w t A T T ~ T D S C m.!.!.!.!.!./.!.!.!.!.!.!.!.!.!./.!.!.!.!.!.!.!.!.",
"!.G.k l e f q n *.*.*.U U K x *.C.n l 9 z M N n.M v n.x.x.u C D C V > > > - B F !.^.!.!.!.!.!.!.!.!.!.!.!.!.!.!.!.!.!.!.!.!.!.!.",
"!.N.v c.N C.z n.].]..X*.*.*.T.E.~.v.N f A.H.~.'.S.F.XX/.'.x B > # X # $ $ # X $ E Q.!.!.!.!.!.!.!.!.!.!.!.!.!.!.!.!.!.!.!.!.!.!.",
"!.v.b.H.A.L.M Q.-X-X*.Z Z J (.-X/.n.x.z ~.(.{.}.S.!.:X'.}.i & # > R R J V $ X X w W.!.!.!.!.!.!.!.!.!.!.!.!.!.!.!.!.!.!.!.!.!.!.",
"!.N.E.~.H.A.n {.2X2X*.Z Z Y .X7XH.A.n.N _.'.}.=XA.Q.;X}.{.i o X H ` ` ` ~ ,   % ; G.~.~.!.!.!.!.!.!.!.!.!.!.!.!.!.!.!.!.!.!.!.!.",
"!.A.(.~.S.P M ,X7X7X( S S Y 3X8X'.).A.n.~./.'.).H.:X6X4X:Xn ; . H J R / V > . O ; H.^.^.!.!.!.!.!.!.!.!.!.!.!.!.!./.!.!.!.!.!.!.",
"Q.G.{.^.c.v.c.XX-X-X.X|.|.|.qXqX-X'.!.>XeXrXrXwX5XwXuXiXqXb.u , W W R ^ H H ; : ; -.^.^.!.!.!.!.!.!.!.!.!.!.!.!.!.!.!.!.!.!.!.!.",
"^.}.6XoXE m.~.7XiXiXiXiXuXuXuXuX8X-X-X=XeXiXiXiXuXrXrXqX6X~.i U ) ` _ / R ^ : : i ;X/.^.!.!.!.!.!.!.!.!.!.!.!.!.!.!.!.!.!.!.!.!.",
"^.}.6X(.Q P.K.}.5X-X7X-X2X3X3X4X4X3X2X=X=X:X>X>X,X<X<X<XoXH.: % ^  X_ W R E O ; n 4X^.^.W.^.!.!.!.!.!.!.!.!.!.!.!.!.!.!.!.!.!.!.",
"^./.}.oX^.|.P.8XiXuXuXuXrXwXwXqX7X7X5X7X7X7X7X0X7X6X7X7X6XoX7 X y ) _ / E ;   ; k <X^.^.^.^.!.!.!.!.!.!.!.!.!.!.!.!.!.!.!.!.!.!.",
"!.!.^./.-X-X-XuXiXiXiXiXuXuXuX{.F.7XrXrXrXrXrXqX<X}.0XrXrX:Xn O O p ( ! , o O ; z ]./.^.^.^.W.!.!.!.!.!.!.!.!.!.!.!.!.!.!.^.!.!.",
"!.!.^./.T.E.E.!._.-X-X-X2X7X7X*.N !.>X7X<XD.H.2XS.z `.6XoXH.'.N @ ; : ;     8 e k ~.W./.^.^./.!.!.!.!.!.!.!.!.!.!.!.!.!.!./.!.!.",
"!.!.Q./.{.Q.F.H.Q./.'.{.}.}.{.{._./._._.E.P b.=XQ.Q.Q.~.Q.W.oXoXH.k n n v n N z A.6X,X/.!.!.!.!.!.!.!.!.!.!.!.!.!.!.!.!.!.!.!.!.",
"!.!.Q.A.L.E.n.M.A.P c.I M P P P *.M.D.V.b.*.M N A.(.~.6X1X/.Q.1X<X/.H.H.A.G.x.n }.eXrX3X/.!.!.!.!.!.!.!.!.!.!.!.!.!.!.!.!.!.!.!.",
"!.!.!.Q.S.H.E.E.!.N v.c.P N P P *.P b.n.n.V.V.N *.W.0XsXpX}.'.:X4X6X4X1X:XoX'.~.1XtXrXeX}.!.!.!.!.!.!.!.!.!.!.!.!.!.!.!.!.!.!.!.",
"!.!.!.!.Q.Q.Q.~.^.Q.T.T.E.T.T.E.E.E.H.H.F.D.A.V.^.0XsXsXpX4XQ.7X9X9XeXeXeX9X7X(.5XyXyXrX6X!.!.!.!.).!.!.!.!.!.!.!.!.!.!.!.!.!.!.",
"!.!.!.!.!.!.!.!.!.!.!.!.!.!.!.!.!.!.!.!.!.!.!.!.[.aXaXsXpX9XQ.{.1X1X4X6X6X6X<XA.4XtXyXyXwX'.Q.!.!.!.!.!.!.!.!.!.!.!.!.!.!.!.!.!.",
"!.!.!.!.!.!.!.!.!.!.!.!.!.!.!.!.!.!.!.!.!.!.!.!.>XsXsXaXpX6XQ.H.oX<X,X6X4XoX}.M.:XqXeXyXtX3X~.^.!.!.!.!.!.!.!.!.!.!.!.!.!.!.!.!.",
"!.!.!.!.!.!.!.!.!.!.!.!.!.!.!.!.!.!.!.!.!.!.!.!.1XsXpXpXyX1XA.n.n.C.6XeXeX'.M n H.:X9XyXyXqX).!.!.!.!.!.!.!.!.!.^.!.!.!.).!.!.!.",
"!.!.!.!.!.!./.!.!.!.!.!.!.!.!.!.!.!.!.!.!.!.!.=X2XtXpXpXtX,Xn -.H.C.9XyXyX'.-.n z H.5XyXtXqX).!.!.!.!.!.!.!.!.!.!.!.!.!.!.!.!.!.",
"!.!.!.!.!.!.!.!.!.!.!.!.!.!.!.!.!.!.!.!.!.!.!.<XrXqXpXrX5X~.z o.N.M 9XyXyX`.M 8 6 x.>XrXrX<X^.!.!.!.!.!.!.!.!.!.!.!.!.!.!.!.!.!.",
"!.!.!.!.!.!.!.^.!.!.!.!.!.!.!.!.!.!.!.!.!.!.!.).7XrXrXqX}.l e v k e A.H.H.n e M 6 z '.qX6X{.Q.^.!.!.!.!.!.!.!.!.!.!.!.!.!.!.!.!.",
"!.!.!.!.!.!.!.!.!.!.!.!.!.!.!.!.!.!.!.!.!.!.!.5X8XrX8X,XN.@ q /.g -.`.`.Q.-.n [.s 7 G.4X}.H.^.^.!.!.!.!.!.!.!./.!.!.!.!.!.!.!.!.",
"!.!.!.!.!.!.!.!.!.!.^.!.!.!.!.!.!.!.!.!.!.!.].qXpXyX4X/.z @ N 6Xo.H.yXyX9X~.m [.n.@ v }.^.'.}.^.!.!.!.!.!.!.!.!.!.!.!.!.!.!.!.!.",
"!.!.!.!.!.!.!.!.!.!.!.!.!.!.!.!.!.!.^.!.!.!.{.4X5X6X4XN @ @ N.`.-.Y.wXyX9X~.n N D.s k N.F.2X7X).!./.!.!.!.!.!.!.!.!.!.!.!.!.!.!.",
"!.!.!.!.!.!.!.!.!.!.!.!.!.!.!.!.!.!.^.!.!.!.}.5X:XQ.C.z + k /.O.v C.4XqXwXoXN n *.O.P f !.8XwX3X!.!.!.!.!.!.!.!.!.!.!.!.!.!.!.!.",
"/.!.!.!.!.!.!.!.!.!.!.!./.!.!.!.!.!.!.!.!.!.=XwX7X/.n n.q N >X`.v G.;X7X6X1XO.-.O.n.T.z !.7XuX8X).!.!.!.!.!.!.!.!.!.!.!.!.!.!.!.",
"!.!.!.!.!.!.!.!.!.!.!.!./.!.!.!.!.!.!.!.!.!.{.rXyX:XN F.n N `.n.N }.4X;X4X7XN v b.*.!.V.E.qXuXwX`.!.!.!.!.!.!.!.!.!.!.!.!.!.!.!.",
"!.!.!.!.!.!.!.!.!.!.!.!.!.!.!.!.!.!.!.!.!.^.].yXyX7XQ.W.O.b -.m -.[.1X4X2X>XW.m m Z.W.H.n.3XuX0XoXQ.^.^.!.!.!.!.!.^.^.!.!.!.!.!.",
"!.!.!.!.!.!.!.!.!.!.!.!.!.!.!.!.^.!.!.!.!.^.].rXyX4XQ.H.M 6 j m W.`.oX:X;X[.!.m n.b N.!.G.>XeXtX3XQ.^.^.!.!.!.!.!.!.!.!.!.!.!.!.",
"!.!.!.!.!.!.!.!.!.!.!.!.!.!.!.!.!.!.!.!.!.^./.4XrX9XQ.G.N 6 r V R P.S.E m.E K F p l i W.W.T.}.<X/.W.!.!.!.!.!.!.!.!.!.!.!.!.!.!.",
"!.!.!.!.!.!.!.!.!.!.!.!.!.!.!.!.!.!.!.!.!.!.W.1XeX4X/.A.g h j { j i p V V y z c j 5 0 W.^.n.D.>X~.T.!.!.!.!.!.!.!.!.!.!.!.!.!.!.",
"!.!.!.!.!.!.!.!.!.!./.^.!.^.!.!.!.!.!.!.!.!.W.].>X4XA.v.4 ;.7.s.d.s.0.:.3.9.q.9.8.=.h G.^.T.E /.n v.!.!.!.!.!.!.!.!.!.!.!.!.!.!.",
"!.!.!.!.!.!.!.!.!.!.!.^.!.!.!.!.!.!.!.!.!.!.Q._.:XT.m -.h 7.s.0.s.%X@X@X$X@Xq.7.2.>.=.Z.!.Q.P K K n.!.!.!.!.!.!.!.!.!.!.!.!.!.!.",
"!.!.!.!.!.!.!.!.!.!.!.!.!.!.!.!.!.!.^.!.^.!.Q.m i u x N { 9.9.9.5.9.s.+X@X@X0.2.;.0.8.Z.!.!.K.! ( P.!.!.!.!.!.!.!.!.!.!.!.!.!.!.",
"!.!.!.!.!.!.!.!.!.!.!.!.!.!.!.!.!.!.!.!.^.~.~.v.W ) ) E | s.+Xs.2.4.9.s.@X7. . .7.a.a.W.^.!.K.E L K.!.!.!.!.!.!.!.!.!.!.!.!.!.!.",
"!.!.!.!.!.!.!.).!.!.!.!.^.!.!.!.!.!.!.!.!.^.!.L.|.) L Q  .0.+X$X+X2.{ ;.=.3 4 1.s.d.a.I.!.!.S.S.E m.`.!.!.!.!.!.!.!.!.!.!.!.!.!.",
"!.!.!.!.!.!.!.!.!.!.!.!.!.!.^.!.!.!.!.!.!.!.!.L.( ( K.J.;.8.$X%Xd.s.| 1 + < ] 7.d.d.g.I.!.!.H.W.L.m.!.!.!.!.!.!.!.!.!.!.!.!.!.!.",
"!.!.!.!.!.!.!.!.!.!.!.!.!.!.!.!.!.!.!.!.!.!.!.S.U ( E.c.;.0.h.$X%X+X2.-.0 h 4.d.h.j.g.0.!.!.!.!.!.T.!.!.!.!.!.!./.!.!.!.!.!.!.!.",
"!.!.!.!.!.!.!.!.!.!.^.!.!.!.!.!.^.!.!.!.!.!.!.H.H E E.B. .u.d.$X%Xd.2.G.X.2.d.*X*Xj.h.q.!.!.!.^.!.!.!.!.!.!.!.!.^.^.!.!.!.!.!.!.",
"!.!.!.!.!.^.!.!.!.!.!.!.!.!.!.!.!.!.!.!.!.!.!.Q.x x L.Z.$.u.g.$X$Xa.5.W.:.0.%X*X*Xj.g.q.~.~.!.!.!.!.!.!.!.!.!.!.!.!.!.!.!.!.!.!.",
"!.!.!.!.!.!.!.!.!.!.!.!.!.!.!.!.!.!.!.!.!.!.!.!.V.m b.U.6.y.#X&X$Xd.5.!.B.s.*X*X*X&Xg.R.!./.!.!.!.!.!.!.!.!.!.!.!.!.!.!.!.!.!.!.",
"!.!.!.!.!.!.!.!.^.!.!.^.!.!.!.!.!.!.!.!.!.!.!.!.!.!.T.Q.2.a.j.#X%X$X5.Q.I.s.*X*X*X*Xg.5.!.!.!.!.!.!.!.!.!.!.!.!.!.!.!.!.!.!.!.!.",
"!.!.!.!.!.!.!.!.!.!.!.^.^.!.!.!.!.!.!.!.!.!.!.!.!.!.!.!.:.y.#X%X*Xj.5.Q.:.u.*X*X*X*Xy.I.^.^.!.!.!.!.!.!.!.!.!.!.!.!.!.!.!.!.!.!.",
"!.!.!.!.!.!.!.!.!.!.!.!.!.!.!.!.!.!.!.!.!.!.!.!.!.!.!.!.X.6.%X*X*Xs.5.W.-.>.h.%X*X#X&.T.!.!.!.!.!.!.!.!.!.!.!.!.!.!.!.!.!.!.!.!.",
"!.!.!.!./.!.!.!.!.!.!.!.!.!.!.!.!.!.!.!.!.!.!.!.!.!.!.!.j [ #X&X$X7.X.W.:.=.a.h.#Xu.+.E.!.!.W.E.!.!.!.!.!.!.!.^.!.!.!.!.!.!.!.!.",
"!.!.!.!.!.!.!.!.!.!.!.!.!.!.!./.!.!.!.!.!.T.*.o.O.!.!.!.X.d y.g.d...s W.B...p.d.a.$.X.E.!.*.j [ U.!.!.!.!.!.!.^.!.!.!.^.!.!.!.^.",
"!.!.!.!.!.!.!.!.!.!.!.!.!.!.!.!.!.!.!.!.!.U.} 6 { Y.!.W.+.a } &.8.4 s W.:.| >.u.u.] [ !.W.[ d } 1.!.!.!.!.!.!.!.!.!.!.!.!.!.!.!.",
"!.!.!.!.!.!.!.!.!.!.!.!.!.!.!.!.!.!.!.!.~.u.t.w.} Y.!.!.&.[ 4 [ h 2 :.^.I.>...>.} ] o.E.W.r.t.<.+.W.!.!.!.!.!.!.!./.!.!.!.!.!.!.",
"!.!.!.!.!.!.!.!.!.!.!.!.!.!.!.!.!.!.!.!.^.a.z.k.,.*.!.!.*. .] d 4 a W.W.9.a.>.....[ B.!.W.i.l.r...E.!.!.!.!.!.!.!.!.!.!.!.!.!.!.",
"!.!.!.!.!.!.!.!.!.!.!.!.!.!.!.!.!.!.!.!.^.y.k.k.%.*._.!.T.a 3 2 + @ A.W.+.1...[ { 1.U.!.W.i.k.e.[ E././.^.!.!.!.!.!.!.!.!.!.!.!.",
"!.!.!.!.!.!.!.!.!.!.!.!.!.!./.!.!.!.!.^.E...t.t.} S.).!.Y.[ ] 2 2 3 B.W.7.2.1.>.1.:.Q.!.W.%.t.,.[ E.Q./.!.!.!.!.!.!.!.!.!.!.!.!.",
"!.!.!.!.!.!.!.!.!.!.!.!.!.!.!.!.!.!.!.!.!.&.w.e.] E.!.^.T.] ] 5 2 3 T.U.0.+Xd.+XOXI.!.!.W.<.t.w.[ W.!.!.!.!.!.!.!.!.!.!.!.!.!.!.",
"!.!.!.!.!.!.!.!.!.!.!.!.!.!.!.!.!.!.!.!.!.f.k.t.$.E.!.^.E.$.' #.] j Q.I.2.>.1.1.&.U.!.!.E.i.k.k.&.E.!.!.!.!.!.!.!.!.!.!.!.!.!.!.",
"!.!.!.!.!.!.!.!.!.!./.!.!.!.!.!.!.!.!.!.!.i.l.t.[ E.^.^.U.%.e.w.' { W.D. .>.;.;...*.!.!.!.i.z.k.$.U.!.!.).!.!.!.!.!.!.!.!.!.!.!.",
"!.!.!.!.!.!.!.!.!.!.!.!.!.!.!.!.!.!.!.!.!.i.z.t.[ E.^.E.U.r.k.k.,.| W.H. .] } ] ' *.!.!.W.y.l.f.} T.!.!.!.!.!.!.!.!.!.!.!.!.!.!.",
"!./.!.!.!.!.!.!.!.!.!.!.!.!.!.!.!.!.!.!.W.&.e.%.] E.!.!.U.e.k.t.%.;.!.G.j >.,.<.@.*.).!.W.&.e.<.[ T.!.!.!.!.!.!.!.!.!.!.!.!.!.!.",
"!.!.!.!.!.!.!.!.!.!.!.!.!.!.!.!.!.!.!.!.!.+.] a j F.!.!.T.&.<.$.&.U.!.U.c ,.g.g.f.6.W.!.!.+.] ] X.W.!.!.!.!.!.!.!.!.!.!.!.!.!.!.",
"!.!.!.!.!.!.!.!.!./.!.!.!.!.!.!.!.!.!.!.!.U.j s *.E.!.!.!.!.T.T.!.!.!.!.C.1.f.f.t.w.&.!.!.*.[ [ *.!.!.!.!.!.!.!.!.!.!.!.!.!.!.!.",
"!.!.!.!.!.!.!.!.!.!.!.!.!.!.!.!.!.!.!.!.!.W.E.T.T.!.!.!.!.!.!.!.!.!.!.!./.W.Y.3.OX*.I.!.!.!.W.!.).!.!.!.!.!.!.!.!.!.!.!./.!.!.!."
};
