/* XPM */
static char *_81721606557[] = {
/* columns rows colors chars-per-pixel */
"64 64 216 2 ",
"   c #251E1B",
".  c #2C211D",
"X  c #37261D",
"o  c #2A2726",
"O  c #362B26",
"+  c #323133",
"@  c #3B3A3C",
"#  c #492D1D",
"$  c #56311D",
"%  c #483427",
"&  c #563427",
"*  c #53322E",
"=  c #453C3A",
"-  c #6F3424",
";  c #4A413C",
":  c #57443B",
">  c #74472D",
",  c #714B34",
"<  c #2A3642",
"1  c #3D4B5B",
"2  c #454345",
"3  c #494445",
"4  c #4D4A4C",
"5  c #474E57",
"6  c #545354",
"7  c #5A5455",
"8  c #565659",
"9  c #5D5A5C",
"0  c #6C564F",
"q  c #765849",
"w  c #685D59",
"e  c #68615D",
"r  c #786359",
"t  c #434F62",
"y  c #435669",
"u  c #565D66",
"i  c #455C77",
"p  c #615F60",
"a  c #5E6065",
"s  c #4B657C",
"d  c #596777",
"f  c #636264",
"g  c #666367",
"h  c #6B6A6C",
"j  c #746C69",
"k  c #626A75",
"l  c #6C6D72",
"z  c #6E7074",
"x  c #737374",
"c  c #75767A",
"v  c #797678",
"b  c #7B7A7C",
"n  c #904C31",
"m  c #885537",
"M  c #A15E2C",
"N  c #A65739",
"B  c #D16D39",
"V  c #D57837",
"C  c #8A5644",
"Z  c #975541",
"A  c #916B52",
"S  c #AF7050",
"D  c #8B7269",
"F  c #987B6A",
"G  c #827C7E",
"H  c #8A7D7A",
"J  c #A77A63",
"K  c #CB7B5D",
"L  c #EB893D",
"P  c #B6815A",
"I  c #94827A",
"U  c #B98866",
"Y  c #A9897E",
"T  c #B58F75",
"R  c #D6864C",
"E  c #C48D66",
"W  c #D2976B",
"Q  c #C79677",
"!  c #D59E77",
"~  c #E2A67C",
"^  c #F9B37A",
"/  c #445F82",
"(  c #476789",
")  c #566B85",
"_  c #58718A",
"`  c #466A95",
"'  c #4F719E",
"]  c #577895",
"[  c #5A7D9C",
"{  c #657586",
"}  c #7B7D82",
"|  c #7B7F88",
" . c #667C94",
".. c #4976A9",
"X. c #4C78A8",
"o. c #557BA7",
"O. c #817E82",
"+. c #5F839F",
"@. c #7C8189",
"#. c #67839B",
"$. c #7A8898",
"%. c #5B82A5",
"&. c #4A80BA",
"*. c #5587BC",
"=. c #6488A7",
"-. c #6A8DAA",
";. c #6C8EAF",
":. c #758CA5",
">. c #7994AC",
",. c #6C94B4",
"<. c #6C98BA",
"1. c #7599B4",
"2. c #739CBB",
"3. c #7C9EBA",
"4. c #78A0BF",
"5. c #4D89C6",
"6. c #578EC6",
"7. c #5C92C6",
"8. c #5998D6",
"9. c #6A99C1",
"0. c #729EC1",
"q. c #659CD2",
"w. c #6EA0C9",
"e. c #76A4C7",
"r. c #7BA5C4",
"t. c #7DAACC",
"y. c #67A2D8",
"u. c #75ACD5",
"i. c #7DAED1",
"p. c #7EB1D6",
"a. c #5FA3E5",
"s. c #64ABE9",
"d. c #6AB4F2",
"f. c #838284",
"g. c #898484",
"h. c #85858A",
"j. c #898789",
"k. c #8B8A8C",
"l. c #998A84",
"z. c #928C8C",
"x. c #858B96",
"c. c #8D8D92",
"v. c #918F92",
"b. c #8F9092",
"n. c #8D929B",
"m. c #939294",
"M. c #9C9495",
"N. c #95959A",
"B. c #99979A",
"V. c #97999D",
"C. c #9B9B9D",
"Z. c #A78F8A",
"A. c #A7948B",
"S. c #A59A97",
"D. c #B6AA91",
"F. c #8996A6",
"G. c #959BA5",
"H. c #9D9DA3",
"J. c #829CB6",
"K. c #A09FA3",
"L. c #9EA0A6",
"P. c #9EA1AA",
"I. c #A3A2A5",
"U. c #A7A6AB",
"Y. c #A9A7A8",
"T. c #A8A7AB",
"R. c #ABAAAC",
"E. c #B4ADA6",
"W. c #AEAEB1",
"Q. c #B1AFB1",
"!. c #AFB1B2",
"~. c #B3B2B3",
"^. c #B6B6B9",
"/. c #B7B7BA",
"(. c #B9B7B9",
"). c #BCBBBD",
"_. c #D2A390",
"`. c #C7ADA7",
"'. c #C0C0BF",
"]. c #82AECD",
"[. c #86B1CE",
"{. c #81AFD1",
"}. c #84B3D5",
"|. c #89B4D3",
" X c #84B6DA",
".X c #86B8DC",
"XX c #8BBBDC",
"oX c #BEBEC1",
"OX c #C0BEC0",
"+X c #BEC0C3",
"@X c #C4C4C5",
"#X c #C6C7C9",
"$X c #C9C8C9",
"%X c #CCCBCC",
"&X c #D1D1CF",
"*X c #CECDD1",
"=X c #D0CFD0",
"-X c #D4D3D4",
";X c #D8D7D7",
":X c #D9D8D7",
">X c #DCDBDB",
",X c #E0DEDC",
"<X c #E1E0DF",
"1X c #E1DFE1",
"2X c #DFE0E0",
"3X c #E4E3E3",
"4X c #E8E7E6",
"5X c #EAE9E7",
"6X c #ECEBEB",
"7X c #F0EFEC",
"8X c #F2F1ED",
"9X c #F0EFF0",
"0X c #F4F3F3",
"qX c #F8F7F5",
"wX c #F9F9F7",
"eX c #F9F9F8",
/* pixels */
"U.U.U.U.U.U.U.U.U.U.U.U.U.U.U.U.U.T.U.U.U.U.U.U.U.U.U.U.T.T.T.U.U.U.U.U.U.U.U.U.U.U.U.U.U.U.U.U.U.U.U.U.U.U.U.U.R.U.U.U.U.U.U.U.",
"U.U.U.U.U.I.H.V.m.m.v.c.h.v.K.K.Y.Y.U.U.I.U.U.U.U.U.U.U.T.T.T.T.U.U.T.I.U.U.U.U.U.U.U.U.U.U.U.U.U.U.U.U.U.U.U.U.U.U.U.U.U.U.U.U.",
"U.U.U.U.N.h 8 4 4 4 2 = * * 7 j c c b f.f.h.@.b b b } @.f.k.k.m.N.A.Z.Z.Z.C.U.U.U.U.U.U.U.U.U.U.U.U.U.U.U.U.U.U.U.U.U.U.U.U.U.U.",
"U.T.H.v 4 2 @ ; 4 4 2 * - - * 6 9 4 7 8 8 9 w g h j x v f.f.g.v S L L L V S l.U.U.U.U.U.U.U.U.U.U.U.U.U.U.U.U.U.U.U.U.U.U.U.U.U.",
"U.U.c 2 @ 2 @ 8 O.} w C Z C : 7 p 4 4 2 3 6 7 7 8 7 9 w a 8 0 B L L L R V B M l.T.T.U.U.U.U.U.U.U.U.U.U.U.U.U.U.U.U.U.U.U.U.U.U.",
"U.V.f g 8 p 6 x O.f.} J J D j O.b.x h 4 h x G k.b j k.g.g.w M V M m > > > - n C I.U.U.U.U.U.U.U.U.U.U.U.U.U.U.U.U.U.U.U.U.U.U.U.",
"T.c.l g.b c.h c.(.^.`.O.O.O.K.U.P.j.b e m.C.Y.~.m.C.).R.~.j n > # X % $ $ # X $ I U.U.U.U.U.U.U.U.U.U.U.U.U.U.U.R.U.U.U.U.U.R.U.",
"U.h.j.C.m.S.v I.OXOXO.N N S T.OXU.k.I h Y.R.).).N.Y.@X~.).w & # > P S S n $ X X 7 L.U.U.U.U.U.U.U.U.U.U.U.U.U.U.U.U.U.U.U.U.U.U.",
"U.k.I.Y.C.m.z oX*X-XO.N N K `.1XG.N.k.b R.~.).+Xm.I.+X)./.w o X A ^ ^ ^ R >   O : C.Y.Y.U.U.U.U.U.U.U.U.U.U.U.U.U.U.U.U.U.U.U.U.",
"U.m.E.Y.m.@.c *X>X>XQ B B K *X1X!.W.m.j.R.R.~.R.C.@X:X-X@Xc ; . A P P W A ,   O ; B.T.Y.U.U.U.U.U.U.U.U.U.U.U.U.U.U.U.U.U.U.U.U.",
"I.C.(.Y.g.j.j.`.OXOX`._._._.1X1X+XoXU.#X5X6X6X3X:X3X8X0X3Xh.0 , U U P U A A % : ; @.T.P.U.U.U.U.U.U.U.U.U.R.U.U.U.U.U.U.U.U.U.U.",
"U.).:X'.I l.T.>X9X0X0X0X9X9X9X9X2X`.oXoX5XqX0X0XqX6X6X3X;XR.r F ! ^ ~ W P E : : e #XR.R.T.U.U.U.U.U.U.U.U.U.U.U.U.U.U.U.U.R.U.U.",
"T.).:XE.Y D.A.).;XOXOX=X*X*X-X-X=X=X*X@XoX@X#X$X@X%X%X%X).S.: % U ^ ~ U P A O ; j -XT.P.T.T.U.U.U.U.U.U.U.U.U.U.U.U.U.U.U.U.U.U.",
"T.R.).'.E._.D.>X0X0X0X9X9X4X1X1X,X>X-X>X>X>X>X>X:X>X>X>X>X).3 O q ! ~ W I ;   ; f %XT.T.T.T.U.U.U.U.U.U.U.U.U.U.U.U.U.U.U.U.U.U.",
"U.U.T.R.OXOXOX6X0X0XqX0X9X9X9X(.N.>X6X6X6X6X6X5X%X).2X6X5X@Xx O O r Q T 0 o O ; h /.Y.T.T.U.U.U.U.U.U.U.U.U.U.U.U.U.U.U.U.U.U.U.",
"U.T.T.R.K.K.K.P.(.OXOXOX=X>XOXK.} U.#X>X%XN.C.%XN.h !.;X'.H.~.b 3 ; : ; . o 4 8 f Y.P.R.U.T.U.U.U.U.U.U.U.U.U.U.U.U.U.U.U.U.U.U.",
"U.U.I.R.(.Y.B.C.I.R.~.(.).).(.(.Q.R.Q.~.K.O.g.oXI.I.I.Y.I.H.'.'.C.e x x x x b h b.:X%XT.U.T.U.U.U.U.U.U.U.U.U.U.U.U.U.U.U.U.U.U.",
"U.U.L.m.S.H.z.k.m.G g.H G G G G O.z.m.v.g.O.v } m.Q.R.:X&XR.I.&X%XR.B.H.m.C.@.x ).5X5X&XT.U.U.U.U.U.U.U.U.U.U.U.U.U.U.U.U.U.U.U.",
"U.U.U.I.m.B.S.L.I.} j.f.v b G G O.O.g.c.k.v.v.b b I.3XeX8X).~.@X:X:X-X&X).'.!.T.&X8X7X5X).U.U.U.U.U.U.U.U.U.U.U.U.U.U.U.U.U.U.U.",
"U.U.U.U.I.I.U.R.T.I.K.H.K.H.K.H.K.K.C.C.N.N.m.v.T.2XeXeXwX:XI.>X<X<X5X5X<X5X,XR.;X8X8X6X:XT.U.U.U.U.U.U.U.U.U.U.U.U.U.U.U.U.U.U.",
"U.U.U.U.U.U.U.U.U.U.U.U.U.U.U.U.U.U.U.U.U.U.U.U.^.wXeXeXqX<XI.).&X&X&X-X:X:X%XM.-X8X8X8X3X~.U.U.U.U.U.U.U.U.U.U.U.U.U.U.U.U.U.U.",
"U.U.U.U.U.R.U.U.U.U.U.U.U.U.U.U.U.U.U.U.U.U.U.U.#XeXeXqXqX:XI.C.@X%X%X:X&X@X(.k.'.4X5X8X7X&XU.U.U.U.R.U.U.U.U.U.U.U.U.R.U.U.U.U.",
"U.U.U.U.U.U.U.U.U.U.U.U.U.U.U.U.U.U.U.U.U.U.U.U.&XwXwXqX8X&Xb.k.j.b.:X5X5X~.v x C.$X<X8X8X3XR.T.U.U.U.U.U.U.U.U.U.U.U.U.U.U.U.U.",
"U.U.U.U.U.U.U.U.U.U.U.U.U.U.U.U.U.U.U.U.U.U.W.`.&X6XwXqX6X$Xx @.C.b.<X8X8X~.f.x h C.-X8X7X3X!.T.U.U.U.U.U.U.U.U.U.U.U.U.U.U.U.U.",
"U.U.U.U.U.U.U.U.U.T.U.U.U.U.U.U.U.U.U.U.U.U.U.*X6X2XqX6X:XI.h } b.b ,X8X8X!.v 4 2 h.#X9X6X%XT.T.U.U.U.U.U.U.U.U.U.U.U.U.U.U.U.U.",
"U.U.U.U.U.U.U.U.U.U.U.U.U.U.U.U.U.U.U.U.U.U.U.!.>X6X6X3X).g 8 z a 8 m.C.C.v 8 b 2 g !.3X>X^.L.U.U.U.U.U.U.U.U.U.U.U.U.U.U.U.U.U.",
"U.U.U.U.U.U.U.U.U.U.U.U.U.U.U.U.U.U.U.U.U.U.U.;X>X6X1X%Xc.@ 6 R.a @.!.!.B.k.z /.f 3 G.*X).C.T.U.U.U.U.U.U.U.U.U.U.U.U.U.U.U.U.U.",
"U.U.U.U.U.U.U.U.U.U.U.U.U.U.U.U.U.U.U.U.U.U./.2X0X8X-XR.h @ b :X} H.6X8X<XR.c ~.j.@ l oXU.~.).T.U.U.U.U.U.U.U.U.U.U.U.U.U.U.U.U.",
"U.U.U.U.U.U.U.U.U.U.U.U.U.U.U.U.U.U.U.U.U.U./.-X:X>X;Xb @ @ c.~.f.L.5X8X<XY.c c N.p f c.V.=X>XW.U.U.U.U.R.U.U.U.U.U.U.U.U.U.U.U.",
"U.R.U.U.U.U.U.U.U.U.U.U.U.U.U.U.U.U.U.P.U.U.oX;X'.T.k.h + f R.@.l n.&X2X4X'.b x O.} } p R.>X3X*XU.U.U.U.U.U.U.U.U.U.U.U.U.U.U.U.",
"U.U.U.U.U.U.U.U.U.R.U.U.U.U.U.U.U.U.U.W.U.U.+X4X>XR.x k.4 @.@XR.l V.+X2X:X&X} @.} j.V.l T.>X9X2X!.U.U.U.U.U.U.U.U.U.U.U.U.U.U.U.",
"U.U.U.U.U.U.U.U.U.R.U.U.U.U.U.U.U.U.U.U.U.U./.6X8X@Xb C.c b !.k.} /.&X+X:X:X} l j.O.T.c.I.3X0X5X!.U.U.U.U.U.U.U.U.U.U.U.U.U.U.U.",
"U.U.U.U.U.U.U.U.U.U.U.U.U.U.U.U.U.U.U.U.U.U.^.7X8X:XI.C.} x @.{ @./.&X-X%X+XP.@.c b.L.H.k.-X8X<X@XI.U.U.U.U.U.U.U.U.U.U.U.U.T.U.",
"U.U.U.U.U.U.U.U.U.U.U.U.U.U.U.U.U.U.U.U.U.U.^.6X8X:XL.C.v ; k c L.!.+X#X+X^.P.c k.l c.U.C.@X6X6X%XI.R.U.U.U.U.U.U.U.U.U.U.U.U.U.",
"U.U.U.U.U.U.U.U.U.U.U.U.T.U.U.U.U.U.U.U.U.U.T.:X6X<XI.V.b ; f m P D.M.I l.I D C r h u I.H.V.).*XR.I.U.U.U.U.U.U.T.U.U.U.U.U.U.U.",
"U.U.U.U.U.U.U.U.U.U.U.U.U.U.U.U.U.U.T.U.U.U.L.&X4X;XT.m.d s d _ d e r n m q j k d i t C.U.c.N.@XU.H.U.U.U.T.U.U.U.U.U.U.U.U.U.U.",
"U.U.U.U.U.W.U.U.U.U.U.U.U.U.T.U.U.U.U.U.U.U.L.^.#X-Xm.h.y +.,.r.t.e.2.$.:.3.4.1.<.+.s V.T.C.@.E.x h.U.U.U.U.U.U.U.U.U.U.U.U.T.U.",
"U.U.U.U.U.U.U.U.U.U.U.U.U.U.U.U.T.U.U.U.U.U.U.!.@XH.c @.s ,.3.,.4.|.[.[.[.[.4.,.-.%.+.n.T.P.I D D z.U.U.T.U.U.U.U.U.U.T.U.U.U.U.",
"U.U.U.U.U.U.U.U.U.U.U.U.U.U.U.U.U.U.U.U.T.T.I.c e w j G _ 2.1.3.1.1.].].[.[.2.-.#.2.,.F.T.U.A.T Q S.U.U.U.U.U.U.U.U.U.U.U.U.U.U.",
"U.U.U.U.U.U.U.U.U.U.U.U.U.U.U.U.U.U.U.U.T.T.I.g.U ! ! I ] r.].r.-.>.1.r.t.1._ ] ,.r.e.L.U.U.A.I F A.T.U.U.U.U.U.U.U.U.U.U.U.U.U.",
"U.U.U.U.U.U.U.U.U.T.U.U.U.U.U.U.U.U.U.U.U.U.U.S._.~ F Y _ 2.{.[.].-._ +.] 1 y -.4.e.t.F.U.U.B.M.I l.U.U.U.U.U.U.U.U.U.U.U.U.U.W.",
"U.U.U.U.U.U.U.U.U.U.U.U.U.U.U.T.U.T.U.U.U.U.T.S.Q Q l.Z.#.<.{. X].4.] 2 < @ ( ,.e.p.u.F.U.U.C.H.S.z.U.U.U.U.U.U.U.U.U.U.U.U.U.U.",
"U.U.U.U.U.U.U.U.U.U.U.U.U.U.U.U.U.U.U.U.U.U.U.M.J Q K.j.#.9.{.|.|.].-.@.5 s ;.t.p.p.u.3.U.U.T.P.U.K.U.U.U.U.U.U.U.U.U.U.U.U.U.U.",
"U.U.U.U.U.U.U.U.U.U.U.U.U.U.U.U.U.U.U.U.U.U.U.C.A I K.c.[ 2.t. X|.t.-.G.{ -.i.XXXXp.u.3.T.T.T.U.U.T.U.U.U.U.U.U.T.U.U.U.U.U.U.U.",
"U.U.U.U.U.U.U.U.U.T.U.U.U.U.U.U.U.U.U.U.T.U.U.I.j j C.n.%.w.u.}.}.e.>.P.$.2.XXXXXXp.u.3.Y.Y.U.U.U.U.U.U.U.U.U.U.U.U.U.U.U.U.U.U.",
"U.U.U.U.U.U.U.U.U.U.U.U.T.U.U.U.T.U.U.U.U.U.U.U.v.v j.V.%.e.i. X}.i.>.U.x.4.XXXXXX.Xu.J.T.T.U.U.U.U.U.U.U.U.U.U.U.U.U.U.U.U.U.U.",
"U.U.U.U.U.U.U.U.U.U.U.U.U.U.U.U.U.U.U.U.U.U.U.U.U.I.H.P.-.e.i.}.}.}.>.I.F.e.XXXXXX.Xu.J.T.T.T.U.U.U.U.U.U.U.U.U.U.U.U.U.U.U.U.U.",
"U.U.U.U.U.U.U.U.U.U.U.U.U.U.U.U.U.U.U.U.U.U.U.U.U.U.T.U.$.w.i.}.XXp.>.I.$.2.XXXXXX.X<.F.T.T.U.U.U.U.U.T.U.U.U.U.U.U.U.U.U.U.U.U.",
"U.U.U.U.U.U.U.U.U.U.U.U.U.U.U.U.U.U.U.U.U.U.U.U.U.U.U.U.{ ,.}..XXXe.:.I.@.+.i. XXX|. .H.U.T.U.U.U.U.U.U.T.U.U.U.U.U.U.U.U.U.U.U.",
"W.U.U.U.U.U.U.U.U.U.U.U.U.U.U.U.U.U.U.U.U.U.U.U.U.U.U.U.a _ t.i.}.<.{ I.x.[ e.}.].q. .H.U.T.H.U.U.U.U.U.U.U.U.U.U.U.U.U.U.U.U.U.",
"U.U.U.U.U.U.U.U.U.U.U.U.U.U.U.U.U.U.U.U.U.U.U.U.U.U.U.K.{ i d t _ ] i L.x.[ w.t.w.o.{ T.U.} i ) G.U.U.U.U.U.U.U.U.U.U.T.U.U.U.U.",
"U.U.U.U.U.U.U.U.U.U.U.U.U.U.U.U.U.U.U.U.U.U.U.U.U.U.U.K.#.' o.s ) y u P.$.] %.2.9.) ) P.P.) i )  .U.U.T.U.U.U.U.U.U.U.U.U.U.U.U.",
"U.U.U.U.U.U.U.U.U.U.U.U.U.U.U.U.U.R.U.U.U.U.U.U.U.U.U.U.:.7.s.a.X.i :.U.F.=.[ o.' ( } K.P.6.8.6.o.U.U.U.U.U.U.U.U.U.U.U.U.U.U.U.",
"U.U.U.U.U.U.U.U.U.U.U.U.U.U.U.U.U.U.U.U.U.U.U.U.U.U.U.U.n.7.d.s.X.s H.G.J.0.o.[ ] _ x.U.P.y.d.8. .K.U.U.U.U.U.U.U.U.U.U.U.U.U.U.",
"U.U.U.U.U.U.U.U.U.U.U.R.U.U.U.U.U.U.U.U.U.U.U.U.U.U.U.U.n.' s.8.` 1 C.H.] -.[ _ _ =.G.U.P.y.s.6.) U.T.U.U.U.U.U.U.U.U.U.U.U.U.U.",
"U.U.U.U.U.U.U.U.U.U.U.U.U.U.U.U.U.U.U.U.U.U.U.U.U.U.U.U.n.` 5.8.i t n.G.1.-.=.o.=.$.U.U.P.o.8.X.) K.T.T.U.U.U.T.U.U.U.U.U.U.U.U.",
"U.U.U.U.U.U.U.U.U.U.U.U.U.U.U.U.U.U.U.U.U.U.U.U.U.U.U.U.G.6.8.8.( u G.G.2.{.t.{.].F.U.U.K.o.8.5.) K.U.U.U.U.U.U.U.U.U.U.U.U.U.U.",
"U.U.U.U.U.U.U.U.U.U.U.U.U.U.U.U.U.R.U.U.U.U.U.U.U.U.U.U.K.q.s.8.` d K.G.-.#.=.=.o.G.U.U.U.y.s.a.o.K.U.U.U.U.U.U.U.U.U.U.U.U.U.U.",
"U.U.U.U.U.U.U.U.U.U.U.U.U.R.U.U.U.U.U.U.U.U.U.U.U.U.U.U.H.q.d.8.( ) K.N._ %.#.[ [ O.U.U.U.q.d.s.o.K.U.U.U.U.U.U.U.U.U.U.U.U.U.U.",
"U.U.U.U.U.U.U.U.U.U.R.U.U.U.U.U.U.U.U.U.U.U.U.U.U.U.U.U.G.6.s.5./ _ K.K.{ ] ` ( ` O.U.U.P.9.d.y.' G.U.U.R.U.U.U.U.U.U.U.U.U.U.U.",
"U.U.U.U.U.U.U.U.U.U.U.U.U.U.U.U.U.U.U.U.U.U.U.U.U.U.U.U.G.o...` s  .U.V.d X.*.*.X.G U.U.U.o.8.5.) K.U.U.U.R.U.U.U.U.U.U.U.U.U.U.",
"U.U.U.U.U.R.U.U.U.U.U.U.U.U.U.U.U.U.U.U.U.U.U.U.U.U.U.U.G. .y t k N.U.V.k &.y.p.a.;.P.U.U. ./ / { P.U.U.U.U.U.U.U.U.U.U.U.U.R.U.",
"U.U.U.U.U.U.U.U.U.U.U.U.U.U.U.U.U.U.U.U.U.U.U.U.U.U.U.U.U.K.x.O.m.K.U.U.n.=.y.y.a.5. .U.U.O.) k x.U.U.U.U.U.U.U.U.U.U.U.U.U.U.U.",
"U.U.U.U.U.U.U.U.U.U.U.U.U.U.U.U.U.U.U.U.U.U.U.U.U.U.U.U.U.U.U.U.U.U.U.U.U.I.F.F.2.O.F.U.U.W.K.K.U.U.U.U.U.U.U.U.U.U.U.U.U.U.U.U."
};
