/* XPM */
static char *_91721606556[] = {
/* columns rows colors chars-per-pixel */
"64 64 220 2 ",
"   c #251E1B",
".  c #2C211D",
"X  c #37261D",
"o  c #2A2726",
"O  c #362B26",
"+  c #323133",
"@  c #3B3A3C",
"#  c #492D1D",
"$  c #56311D",
"%  c #483427",
"&  c #563427",
"*  c #53322E",
"=  c #453C3A",
"-  c #6F3424",
";  c #4A413C",
":  c #57443B",
">  c #74472D",
",  c #714B34",
"<  c #2A3642",
"1  c #3D4B5B",
"2  c #454345",
"3  c #494445",
"4  c #4D4A4C",
"5  c #534B4A",
"6  c #474E57",
"7  c #545354",
"8  c #5A5455",
"9  c #565659",
"0  c #5D5A5C",
"q  c #6C564F",
"w  c #765849",
"e  c #685D59",
"r  c #68615D",
"t  c #786359",
"y  c #434F62",
"u  c #435669",
"i  c #565D66",
"p  c #465C77",
"a  c #615F60",
"s  c #5E6065",
"d  c #4B647D",
"f  c #5A6878",
"g  c #636264",
"h  c #6C6262",
"j  c #646469",
"k  c #6B6A6C",
"l  c #746C69",
"z  c #626A75",
"x  c #6C6D72",
"c  c #6E7074",
"v  c #737374",
"b  c #75767A",
"n  c #797678",
"m  c #7B7A7C",
"M  c #904C31",
"N  c #885537",
"B  c #A15E2C",
"V  c #A65739",
"C  c #D16D39",
"Z  c #D57837",
"A  c #8A5644",
"S  c #975541",
"D  c #916B52",
"F  c #AF7050",
"G  c #8B7269",
"H  c #8D746C",
"J  c #987B6A",
"K  c #827C7E",
"L  c #A77A63",
"P  c #CB7B5D",
"I  c #EB893D",
"U  c #B6815A",
"Y  c #94827A",
"T  c #B98866",
"R  c #A9897E",
"E  c #B58F75",
"W  c #D6864C",
"Q  c #E88B42",
"!  c #C48D66",
"~  c #D2976B",
"^  c #C79677",
"/  c #D59E77",
"(  c #E2A67C",
")  c #F9B37A",
"_  c #445F82",
"`  c #466689",
"'  c #556C84",
"]  c #56728B",
"[  c #456A96",
"{  c #4B719A",
"}  c #587794",
"|  c #5A7D9C",
" . c #667687",
".. c #7B7D82",
"X. c #7B7F88",
"o. c #667D95",
"O. c #4C77A8",
"+. c #527DAA",
"@. c #4D7CB1",
"#. c #627EA0",
"$. c #817E82",
"%. c #5F839F",
"&. c #7C8189",
"*. c #6A8299",
"=. c #7A8797",
"-. c #5981A6",
";. c #4D82B9",
":. c #5788B7",
">. c #6589A8",
",. c #6A8DA9",
"<. c #738CA4",
"1. c #6F90AA",
"2. c #7993AC",
"3. c #6C94B4",
"4. c #6C98B9",
"5. c #779BB7",
"6. c #739BBB",
"7. c #78A0BF",
"8. c #4E8DCC",
"9. c #568EC6",
"0. c #5C93C7",
"q. c #4F90D2",
"w. c #5998D7",
"e. c #6A9AC2",
"r. c #699CC8",
"t. c #6EA0C4",
"y. c #76A5C7",
"u. c #7BA5C4",
"i. c #7DAACC",
"p. c #62A1DA",
"a. c #75ACD5",
"s. c #7DAED1",
"d. c #7EB1D6",
"f. c #5FA3E5",
"g. c #65ACEA",
"h. c #68AEEA",
"j. c #6AB4F1",
"k. c #838284",
"l. c #898484",
"z. c #85858A",
"x. c #898789",
"c. c #8B8A8C",
"v. c #998A84",
"b. c #928C8C",
"n. c #838A96",
"m. c #8D8D92",
"M. c #918F92",
"N. c #8E9299",
"B. c #939294",
"V. c #9C9495",
"C. c #95959A",
"Z. c #99979A",
"A. c #97999D",
"S. c #9B9B9D",
"D. c #A78F8A",
"F. c #A7948B",
"G. c #A59A97",
"H. c #B6AA91",
"J. c #8997A7",
"K. c #949AA4",
"L. c #9D9DA2",
"P. c #829CB6",
"I. c #A09FA3",
"U. c #9EA1A8",
"Y. c #A3A2A5",
"T. c #A7A6AB",
"R. c #A9A7A8",
"E. c #A8A7AB",
"W. c #ABAAAC",
"Q. c #B4ADA6",
"!. c #AEAEB1",
"~. c #B1AFB1",
"^. c #AFB1B2",
"/. c #B3B2B3",
"(. c #B6B6B9",
"). c #B7B7BA",
"_. c #B9B7B9",
"`. c #BCBBBD",
"'. c #D2A390",
"]. c #C7ADA7",
"[. c #C2BEBD",
"{. c #C0C0BF",
"}. c #83ADCD",
"|. c #86B1CE",
" X c #81AFD1",
".X c #84B3D5",
"XX c #89B4D3",
"oX c #84B6DA",
"OX c #86B8DC",
"+X c #8BBBDC",
"@X c #BEBEC1",
"#X c #C0BEC0",
"$X c #BEC0C3",
"%X c #C4C4C5",
"&X c #C6C7C9",
"*X c #C9C8C9",
"=X c #CCCBCC",
"-X c #D2CFCF",
";X c #D1D1CF",
":X c #CECDD1",
">X c #D0CFD0",
",X c #D4D3D4",
"<X c #D8D7D7",
"1X c #D9D8D7",
"2X c #DCDBDB",
"3X c #E0DEDC",
"4X c #E1E0DF",
"5X c #E1DFE1",
"6X c #DFE0E0",
"7X c #E4E3E3",
"8X c #E8E7E6",
"9X c #EAE9E7",
"0X c #ECEBEB",
"qX c #F0EFEC",
"wX c #F2F1ED",
"eX c #F0EFF0",
"rX c #F4F3F3",
"tX c #F8F7F5",
"yX c #F9F9F7",
"uX c #F9F9F8",
/* pixels */
"T.T.T.T.T.T.T.T.T.T.T.T.T.T.T.T.T.T.T.T.T.T.E.T.T.T.T.T.T.T.T.T.T.T.T.T.T.T.T.T.T.T.T.T.T.T.T.T.T.T.T.T.T.T.T.T.T.T.T.T.T.T.T.T.",
"T.T.T.T.T.Y.L.A.B.B.M.m.z.M.I.Y.R.R.T.T.E.U.E.R.T.Y.T.T.E.E.T.T.T.T.T.T.T.T.T.T.T.T.T.T.T.T.T.T.T.T.T.T.T.T.T.T.T.T.T.E.T.T.T.T.",
"T.T.T.T.C.k 9 4 4 4 2 = * * 8 x m b ..&.k.z.&.m m n ..k.&.c.m.B.Z.D.D.R V.G.T.T.T.T.T.T.T.T.T.T.T.T.T.T.T.T.T.T.T.T.T.T.T.T.T.T.",
"T.E.L.n 4 @ ; 2 4 4 2 * - - * 5 0 5 7 9 7 0 g g k v v m Y k.z.l F Q I I Z F v.Y.T.T.T.T.T.T.T.T.T.T.T.T.T.T.T.T.T.T.T.T.T.T.T.T.",
"T.T.b 2 @ 2 @ 9 $.$.h A S A 5 8 0 4 4 2 2 7 8 8 8 7 e i g 8 e C I I W I Z C B D.T.T.T.T.T.T.T.T.T.T.T.T.T.T.T.T.T.T.T.T.T.T.T.T.",
"T.A.g j 9 a 7 v $.$.$.H L G l $.B.v k 4 j v Y c.n v c.k.l.e B Z B N > > > - M N R.T.T.T.T.T.T.T.T.T.T.T.T.T.T.T.T.T.T.T.T.T.T.T.",
"T.m.x l.m b.x c._._.].$.$.$.G.T.U.c.m e B.S.T./.B.Z.[.E./.h M > $ O # $ $ # X $ Y R.T.T.T.T.T.T.T.T.T.T.T.T.T.T.E.T.T.T.T.T.T.T.",
"T.z.x.S.B.G.n Y.#X#X$.V V F Q.#XT.c.Y k E.W._.`.V.R.%X/.`.t & # > U U F > $ X X 8 U.T.E.T.T.T.T.T.T.T.T.T.T.T.T.T.T.T.T.T.T.T.T.",
"E.m.I.R.S.b.v _.:X,X$.V V P ].2XS.C.x.m ~.~.`.$XB.U.@X@X(.r o X D ) ) ) ! >   O : B.E.W.E.T.T.T.T.T.T.T.T.T.T.T.T.T.T.T.T.E.T.T.",
"E.B.Q.R.V.K n *X<X2X^ C C P :X5X(.W.B.c.W.Q.^.!.S.%X<X<X%Xb ; . D U U ~ N > . O : A.E.R.T.T.T.T.T.T.T.T.T.T.T.T.T.T.T.T.T.T.T.T.",
"U.A.(.R.l.x.l.[.#X#X].'.'.'.5X5X@X/.Y.&X8X0X0X8X<X8XqXeX7Xx.q , T T U T D D % : ; z.E.E.T.T.T.T.T.T.T.T.T.T.T.T.T.T.T.T.T.T.T.T.",
"R.{.1X{.Y v.E.3XrXrXrXrXeXeXeXeX2X%X%X@X8XrXrXrXwX0X0X7X1XE.t J / ) ( ~ ! ! : : r $XE.E.T.T.T.T.T.T.T.T.T.T.T.T.T.T.T.T.T.T.T.T.",
"R.`.2XQ.E H.F._.<X#X<X#X:X:X,X,X,X>X:X@X@X%X&X*X*X*X;X*X{.S.: % ! ) ( T U D O ; v ;XT.T.T.T.T.T.T.T.T.T.T.T.T.T.T.T.T.T.T.T.T.T.",
"T.E.`.{.G.].Q.3XrXeXeXeXeX8X5X5X2X2X<X2X2X2X2X2X2X2X2X2X2X`.; O w / ( ^ Y ;   ; g =XT.T.E.T.T.T.T.T.T.T.T.T.T.T.T.T.T.T.T.T.T.T.",
"T.Y.R.W.#X#X#XeXrXrXtXtXeXeXeX_.Z.2X0X0X0X0X8X8X=X`.2X0X9X%Xn O O t ^ E q o O ; k (.R.E.T.T.T.T.T.T.T.T.T.T.T.T.T.T.T.T.T.T.T.E.",
"T.E.E.W.I.I.I.I.(.#X#X#X>X2X#XI.m T.&X2X=XC.U.=XV.k ^.2X{.S./.m @ ; : ; . o 4 8 g R.U.W.T.T.T.T.T.T.T.T.T.T.T.T.T.T.T.T.T.T.T.T.",
"T.T.Y.W._.Y.V.A.R.W./._.`.`.`._.~.Q.~./.I.K z.`.R.Y.Y.R.Y.U.{.{.S.g v v v v m k M.2X*XE.T.E.T.T.T.T.T.T.T.!.T.T.T.T.T.T.T.T.T.T.",
"T.T.U.C.G.I.b.b.b.K l.K K K K K K M.C.M.z.$.n $.b.~.R.1X;XW.Y.;X=XW.S.L.B.S...v {.9X9X-XE.T.T.T.T.T.T.T.T.T.T.T.T.T.T.T.T.T.T.T.",
"T.T.T.Y.Z.Z.Y.S.Y...z.k.m K K K $.$.l.c.x.M.M.m &.I.6XuXrX`./.%X1X1X;X;X$X{.^.R.;X0XwX9X`.T.T.T.T.T.T.T.T.T.T.T.T.T.T.T.T.T.T.T.",
"T.T.T.E.Y.Y.T.E.T.Y.I.L.I.S.L.L.L.I.L.Z.Z.C.B.M.E.6XuXyXtX,XY.2X3X4X9X9X9X4X3XW.<XwXwX0X1XT.T.T.T.T.T.T.T.T.T.T.T.T.T.T.T.T.T.T.",
"T.T.T.T.E.T.T.T.T.T.T.T.T.T.T.T.T.T.T.T.T.T.T.E.(.yXuXuXtX4XY.`.;X;X;X1X1X1X=XV.,XwXwXwX8X!.T.T.T.T.T.T.T.T.T.T.T.T.T.T.T.T.T.T.",
"T.T.T.T.T.T.T.T.T.T.T.T.T.T.T.T.T.T.T.T.T.T.E.Y.&XuXuXuXtX1XY.A.{.=X=X1X;X{.`.c.{.8X9XwXqX-XE.T.T.T.T.T.T.T.T.T.T.T.T.T.T.T.T.T.",
"T.T.T.T.T.T.T.T.T.T.T.T.T.T.T.T.T.T.T.T.T.T.E.T.;XuXtXtXwX;XB.c.l.M.1X9X0X/.m v S.*X4XwXwX7XW.T.T.T.T.T.T.T.T.T.T.T.T.T.T.T.T.T.",
"T.T.T.T.T.T.T.E.T.T.T.!.T.T.T.T.T.T.T.T.T.T.T.@X;XqXtXtX0X*Xv &.S.M.4XwXwX/.$.v k S.,XwXqX7X^.T.T.T.T.T.T.T.T.T.T.T.T.T.T.T.T.T.",
"T.T.T.T.T.T.T.T.T.T.T.T.T.T.T.T.T.T.T.T.T.T.T.=X0X5XtXqX1XR.k m B.m 2XwXwX/.b 4 2 k.&X0X0X=XT.T.T.T.T.T.T.T.T.T.T.T.T.T.T.T.T.T.",
"T.T.T.T.T.T.T.T.T.T.T.E.T.T.T.T.T.T.T.T.T.T.T.!.2X0X0X5X`.j 9 c s 9 B.S.S.b 7 m 2 j ^.7X1X(.Y.E.T.T.T.T.T.T.T.T.T.T.T.T.T.T.T.T.",
"T.T.T.T.T.T.T.T.T.T.T.T.T.E.T.T.T.T.T.T.T.T.T.,X3X0X7X&Xm.@ 7 T.s &.^.^.U.Y v ).s 4 A.,X`.S.R.E.T.T.T.T.T.T.T.T.T.T.T.T.T.T.T.T.",
"T.T.T.T.T.T.T.T.T.T.T.T.T.T.T.T.T.T.T.T.T.T.(.8XrXwX<XE.k @ m 1X..L.0XwX2XR.b ).x.@ x `.E.(.`.E.T.T.T.T.T.T.T.T.T.T.T.T.T.T.T.T.",
"T.T.T.T.T.T.T.T.T.T.T.E.T.T.T.T.T.T.T.T.T.T.(.<X1X2X<Xm @ @ c./.k.K.7XwX6XW.b b C.0 s m.A.:X2X^.T.T.T.T.T.T.T.T.T.T.T.T.T.T.T.T.",
"T.T.T.T.T.T.T.T.T.T.T.T.T.T.T.T.T.T.T.T.T.T.`.<X{.Y.m.k + g W.&.x N.,X6X8X{...v k.m ..g E.2X8X:XT.T.T.T.T.T.T.T.T.T.T.T.T.T.T.T.",
"T.T.T.T.T.T.T.T.T.T.T.T.T.T.T.T.T.T.T.T.T.E.@X9X3XW.v c.7 &.%X!.x A.;X,X1X;X..&.&.x.A.k E.2X0X6X!.T.T.T.T.T.T.T.T.T.T.T.T.T.T.T.",
"T.T.T.T.T.T.T.T.T.T.T.T.T.T.T.T.T.T.T.T.T.T.(.0XqX%XK Z.x b /.c...).;X$X,X1X..x x.k.T.B.Y.7XrX8X^.T.T.T.T.T.T.T.T.T.!.T.T.T.T.T.",
"T.T.T.T.T.T.T.T.T.T.T.T.T.T.T.T.T.T.T.T.T.T.(.qXwX2XY.L.$.x &. .&.).;X,X=X&XU.b v B.L.L.c.,XqX7X@XT.T.T.T.T.T.T.T.T.T.T.T.T.T.T.",
"T.T.T.T.T.T.T.T.T.T.T.T.T.T.T.T.T.T.T.T.T.E.(.0XwX,XU.S.n 3 f b U.^.{.&X$X(.T.b c.v m.T.A.%X0X0X=XY.T.T.T.T.T.T.T.E.T.T.T.T.T.T.",
"T.T.T.T.T.T.T.T.T.T.T.T.T.T.T.T.T.T.T.T.E.T.E.1X0X4XU.S.n 2 e N U H.V.Y v.Y G A t j i Y.L.S.`.=XE.L.T.T.T.T.T.T.T.T.T.T.T.T.T.T.",
"T.T.T.T.T.T.T.T.T.T.T.T.T.T.T.T.T.T.T.T.T.T.U.;X9X,XE.B.j d f ] f r t N N w k z ] u y L.E.m.Z.&XE.L.T.T.T.T.T.T.T.T.T.T.T.T.E.T.",
"T.T.T.T.T.T.T.T.T.T.T.T.T.T.T.T.T.T.E.T.T.T.U.(.*X,XB.z.u >.3.u.i.u.6.=.<.5.7.5.4.%.d A.T.A.&.^.v x.T.T.T.T.T.T.T.T.T.T.T.T.T.T.",
"T.T.T.T.T.T.T.T.T.T.T.T.T.T.!.T.T.T.T.T.T.T.Y.!.%XL.b &.d 3.6.3.u.XX|.}.XX|.7.3.,.-.%.N.T.T.Y D G b.T.E.T.T.T.T.T.T.T.!.T.T.T.T.",
"T.T.T.T.T.T.T.T.T.T.T.T.T.T.T.T.T.T.T.T.T.T.U.b r t l m ] 5.5.5.1.5.}.}.|.|.6.,.*.4.3.J.T.T.G.E ^ G.E.E.T.T.T.T.T.T.T.T.T.T.T.T.",
"T.T.T.T.T.T.T.T.T.T.T.T.T.T.T.T.T.T.T.T.E.E.W.z.U / / Y } u.}.u.1.1.5.u.}.1.} } 3.i.7.U.T.T.F.Y J F.E.E.T.T.T.T.T.T.T.T.T.T.T.T.",
"T.T.T.T.T.T.T.T.T.T.T.T.T.T.T.T.T.T.T.T.T.T.T.G.( ~ J R } 6.}..X}.,.] %.} 1 p >.7.i.y.J.T.T.V.V.Y v.T.T.T.T.T.T.T.T.T.T.T.T.T.T.",
"T.T.T.T.T.T.T.T.T.T.T.T.T.T.T.T.T.T.E.T.T.T.T.G.^ ^ b.D.o.4..XXX}.u.} 2 < + ` 3.i.s.a.J.T.T.S.S.G.b.T.T.T.T.T.T.T.T.T.T.T.T.T.T.",
"T.T.T.T.T.T.T.T.T.T.T.T.E.T.T.T.T.T.T.T.E.E.T.V.L '.I.k.*.e.}.XXXX}.,.&.6 d 3.u.s.d.a.5.T.T.T.T.Y.Y.T.T.T.T.T.T.T.T.T.T.T.T.T.T.",
"T.T.T.T.T.T.T.T.T.T.T.T.T.T.T.T.T.T.T.T.T.E.Y.S.D Y I.n.| e.i.oXoXi.,.K. .,.}.+XOXd.d.P.T.T.T.T.T.E.T.T.T.T.T.T.T.T.T.T.T.T.T.T.",
"!.T.T.T.T.T.T.T.T.T.E.T.T.T.T.T.T.T.T.T.T.T.T.Y.l l Z.C.+.y.s..XXXy.2.U.=.6.+X+XOXd.a.5.R.W.T.T.T.T.T.T.T.T.T.T.T.T.T.T.T.T.T.T.",
"T.T.T.T.T.T.T.T.T.T.T.T.T.T.T.T.T.T.T.T.T.R.T.T.M.n x.L.>.r.d.oX.Xs.2.T.n.7.+X+X+XOXs.5.E.E.T.T.T.T.E.T.T.T.T.T.T.T.T.T.T.T.T.T.",
"T.T.T.T.T.T.T.T.T.T.T.T.T.T.T.T.T.T.T.T.T.T.T.T.T.T.L.Y.<.r.s. XoXoX2.Y.J.u.+X+X+XOXa.P.E.T.T.T.T.T.T.T.T.T.T.T.T.T.T.T.T.T.T.T.",
"T.T.T.T.T.T.T.T.T.T.T.T.T.T.T.T.T.T.T.T.T.T.T.T.T.T.T.T.=.r.s.oXOX}.2.Y.=.t.+X+X+X+Xt.J.T.T.T.T.T.T.T.T.T.T.T.T.T.T.T.T.T.T.T.T.",
"T.T.T.T.T.T.T.T.T.T.T.T.T.T.T.T.T.T.T.T.T.T.T.T.T.T.T.T. .3..XoX+Xy.1.Y.=.#. XoXoX}.#.K.T.T.T.T.T.T.T.T.T.T.T.T.T.E.T.T.T.T.T.T.",
"T.T.T.T.T.T.T.T.T.T.T.T.T.T.T.T.T.T.T.T.T.T.T.T.T.T.T.T.a ] i. X X4. .T.z.| t. X Xu.#.I.T.T.T.T.T.T.T.T.T.T.T.T.T.T.T.T.T.T.T.T.",
"T.T.T.T.T.T.T.T.T.T.T.T.T.T.T.T.T.T.T.T.T.T.T.T.T.T.T.I. ._ _ 7 ] | i Y.n.| 6.u.y.+. .T.T.T.T.T.T.T.T.T.T.T.T.T.T.T.T.T.T.T.T.T.",
"T.T.T.T.T.T.T.T.T.T.T.T.T.T.T.T.T.T.T.T.T.T.T.T.T.T.T.I.o.} +._ ' u p L.=.] d ` >.` ' U.T.T.T.T.T.T.T.T.T.T.T.T.T.T.T.T.T.T.T.T.",
"T.T.T.T.T.T.T.T.T.T.T.T.T.T.T.T.T.T.T.T.T.T.T.T.T.T.T.T.#.r.g.p.@.p n.T.J.] p p { _ X.I.T.T.T.T.E.T.T.T.T.T.T.T.T.T.T.T.T.T.T.T.",
"T.T.T.T.T.T.T.T.T.T.T.T.T.T.T.T.T.T.T.T.T.T.T.T.T.T.T.T.N.0.j.g.@.p K.K.5.0.0.9.{ ] n.W.T.T.T.!.T.T.T.T.T.T.T.T.T.T.T.T.T.T.T.T.",
"T.T.T.T.T.T.T.T.T.T.T.T.T.T.T.T.T.T.T.T.T.T.T.T.T.T.T.T.B.O.g.p.[ 1 Z.L.} 0.j.p.{ o.K.T.T.T.T.T.T.T.T.T.T.T.E.T.T.T.T.T.T.T.T.T.",
"T.T.T.T.T.T.T.T.T.T.T.T.T.T.T.T.T.T.T.T.T.T.T.T.T.T.T.T.N.[ 8.q.p y C.K.2.0.g.w.[ =.I.T.T.T.T.T.T.T.T.T.T.T.T.T.T.T.T.T.T.T.T.T.",
"T.T.T.T.T.T.T.T.T.T.T.T.T.T.T.T.T.T.T.T.T.T.T.T.T.T.T.T.L.0.w.q.` i L.K.e.+.w.8.` X.T.T.T.T.T.T.T.T.T.T.T.T.T.T.T.T.T.T.T.T.T.T.",
"T.T.T.T.T.T.T.T.T.T.W.T.T.T.T.T.T.T.T.T.T.T.T.T.T.T.T.T.U.r.g.w.[ f I.C.,.+.q.q.[ n.T.T.T.T.T.T.T.T.T.T.T.T.T.T.T.T.T.T.T.T.T.T.",
"T.T.T.T.T.T.T.T.T.T.T.T.T.T.T.T.T.T.T.T.T.T.T.T.T.T.T.T.U.p.h.w.` ' I.K. .:.h.g.;...T.T.T.T.T.T.T.T.T.T.T.T.T.T.T.T.T.T.T.T.T.T.",
"T.T.T.T.T.T.T.T.T.T.T.T.T.T.T.T.T.T.T.T.T.T.T.T.T.T.T.T.K.9.g.9._ ] I.I. .:.j.h.;.X.T.T.T.T.T.T.T.T.W.T.T.T.T.T.T.T.T.T.T.T.T.T.",
"T.T.T.W.T.T.T.T.T.T.T.T.T.T.T.T.T.T.T.T.T.T.T.T.T.T.T.T.J.+.O.[ p X.I.L.' -.g.g.@.X.T.T.T.T.T.T.T.T.T.T.T.T.T.T.T.T.T.T.T.T.T.T.",
"T.T.T.T.T.T.T.T.T.T.T.T.T.T.T.W.T.T.T.T.T.T.T.T.T.T.T.T.L.o.u y f K.T.L.z O.0.9.[ o.T.T.T.T.T.T.T.T.T.T.T.W.T.T.T.T.T.T.T.T.T.T.",
"T.T.T.T.T.T.T.T.T.T.T.T.T.T.T.T.T.T.T.T.T.T.T.T.T.T.T.T.T.I.n.X.N.I.T.T.m.} [ ` ` ;.<.T.T.T.T.T.T.T.T.T.T.T.T.T.T.T.T.T.T.T.T.T.",
"T.T.T.T.T.T.T.T.T.T.T.T.T.T.T.T.T.T.T.T.T.T.T.T.T.T.T.T.T.W.I.T.T.W.T.T.T.N.' f o.<.n.T.T.T.T.T.T.T.T.W.T.T.T.T.T.T.T.T.T.T.T.T."
};
