/* XPM */
static char *_921721606557[] = {
/* columns rows colors chars-per-pixel */
"64 64 207 2 ",
"   c #201D1D",
".  c #28221F",
"X  c #3A251A",
"o  c #2A2625",
"O  c #352A25",
"+  c #373231",
"@  c #393738",
"#  c #4D2F1D",
"$  c #452E20",
"%  c #473328",
"&  c #573622",
"*  c #453B35",
"=  c #66352E",
"-  c #4F413B",
";  c #664837",
":  c #734934",
">  c #2F3843",
",  c #413F42",
"<  c #3A4048",
"1  c #364657",
"2  c #364C68",
"3  c #3D5269",
"4  c #444244",
"5  c #4A4648",
"6  c #4A4A4D",
"7  c #4C4C50",
"8  c #524F51",
"9  c #545254",
"0  c #585558",
"q  c #5C5A5B",
"w  c #6A554D",
"e  c #785946",
"r  c #665554",
"t  c #73635B",
"y  c #435669",
"u  c #545C65",
"i  c #5C5D62",
"p  c #455A72",
"a  c #645F60",
"s  c #5E6165",
"d  c #5A616B",
"f  c #48627B",
"g  c #5D6977",
"h  c #636164",
"j  c #6A6565",
"k  c #66666A",
"l  c #6C6A6D",
"z  c #736D6B",
"x  c #6C6D72",
"c  c #636C78",
"v  c #716E70",
"b  c #6E7177",
"n  c #737275",
"m  c #74767A",
"M  c #787779",
"N  c #7A7A7C",
"B  c #863D31",
"V  c #864E31",
"C  c #AB5B31",
"Z  c #AF6936",
"A  c #C77336",
"S  c #D07C3C",
"D  c #975D40",
"F  c #AC5945",
"G  c #886A59",
"H  c #976D54",
"J  c #A97254",
"K  c #91776B",
"L  c #847C7A",
"P  c #A67F65",
"I  c #B37561",
"U  c #DD7147",
"Y  c #B7835E",
"T  c #9F816F",
"R  c #93827B",
"E  c #B5896B",
"W  c #A88673",
"Q  c #C1855A",
"!  c #C9936A",
"~  c #CF9573",
"^  c #D9A074",
"/  c #3C6492",
"(  c #3B6EA6",
")  c #4B6984",
"_  c #4C6A88",
"`  c #556E85",
"'  c #4E708F",
"]  c #53718D",
"[  c #5C768F",
"{  c #496E96",
"}  c #537595",
"|  c #587A95",
" . c #5D7E9A",
".. c #687787",
"X. c #7C7D82",
"o. c #727C89",
"O. c #667C95",
"+. c #4C7BAB",
"@. c #827E80",
"#. c #5E819E",
"$. c #7F8184",
"%. c #7E828B",
"&. c #69839A",
"*. c #7A8593",
"=. c #5C85A7",
"-. c #4B82BD",
";. c #5785B6",
":. c #6384A2",
">. c #6788A6",
",. c #638AAA",
"<. c #6B8FAC",
"1. c #768DA3",
"2. c #6D91AE",
"3. c #7891A9",
"4. c #658FB1",
"5. c #6C94B4",
"6. c #6A95B8",
"7. c #7499B7",
"8. c #729CBC",
"9. c #79A0BE",
"0. c #558EC8",
"q. c #679CCF",
"w. c #719FC2",
"e. c #75A2C4",
"r. c #79A3C3",
"t. c #76A6CA",
"y. c #7DAACB",
"u. c #848284",
"i. c #84858A",
"p. c #898789",
"a. c #8B8A8D",
"s. c #9A8A84",
"d. c #918D8D",
"f. c #8D8E92",
"g. c #848B98",
"h. c #918E91",
"j. c #8D9199",
"k. c #939295",
"l. c #999494",
"z. c #95969B",
"x. c #99979A",
"c. c #97989C",
"v. c #9A999D",
"b. c #AC9289",
"n. c #A89D93",
"m. c #A19C9C",
"M. c #AFA593",
"N. c #8693A1",
"B. c #969AA2",
"V. c #9D9DA2",
"C. c #A19EA3",
"Z. c #9DA0A5",
"A. c #A3A2A5",
"S. c #A9A5A5",
"D. c #A7A6AB",
"F. c #A9A7AB",
"G. c #A6A9AD",
"H. c #ABAAAD",
"J. c #B1ADAD",
"K. c #ADADB1",
"L. c #B2AFB2",
"P. c #AEB0B5",
"I. c #B3B2B4",
"U. c #BAB6B7",
"Y. c #B5B6B9",
"T. c #B6B9BB",
"R. c #BCBBBC",
"E. c #CDAE96",
"W. c #EDB095",
"Q. c #CBBEA2",
"!. c #C1BDBA",
"~. c #CDC3B3",
"^. c #BCBDC1",
"/. c #C1BEC2",
"(. c #BFC1C3",
"). c #C3C3C5",
"_. c #C8C5C6",
"`. c #C5C6C9",
"'. c #C6C8CA",
"]. c #CBC8C8",
"[. c #CCCBCC",
"{. c #D1CECD",
"}. c #CECED0",
"|. c #D1CFD0",
" X c #CFD0D2",
".X c #D3D3D3",
"XX c #D7D6D7",
"oX c #D7D8D9",
"OX c #DBDBDB",
"+X c #EDD6CE",
"@X c #E3D8D6",
"#X c #E1DEDE",
"$X c #E3E1DF",
"%X c #DCDFE1",
"&X c #E2DFE1",
"*X c #DFE1E2",
"=X c #E3E2E3",
"-X c #E9E6E6",
";X c #E8E7E8",
":X c #EDEBEB",
">X c #F1EFEF",
",X c #F3F1EF",
"<X c #EFEEF0",
"1X c #F1EFF1",
"2X c #F5F3F3",
"3X c #F9F7F6",
"4X c #FDFCFC",
/* pixels */
"D.D.D.D.F.D.D.D.D.D.D.D.D.D.D.D.D.D.D.D.D.D.D.D.D.D.D.D.D.D.D.D.D.D.H.D.D.D.D.D.D.D.D.D.D.D.D.D.D.D.D.D.D.D.D.D.D.D.D.D.D.D.D.D.",
"D.D.D.D.D.D.D.D.D.D.D.D.D.D.D.D.D.D.D.D.D.D.D.D.D.D.D.D.D.D.D.D.D.C.n.S.D.D.D.D.D.D.D.D.D.D.D.D.F.D.D.D.D.D.D.D.D.D.D.D.D.D.D.D.",
"D.D.D.D.D.D.D.D.D.F.G.D.H.H.D.C.T. X[./.P.D.D.D.D.D.D.D.D.D.D.V.P I J J m.F.D.D.D.D.D.D.D.D.D.D.F.D.D.D.D.D.D.D.D.D.D.D.D.F.D.D.",
"D.D.D.D.D.D.D.D.D.D.D.K././.A.C.[.<X4X4X4X-X/.P.D.D.D.D.D.D.v.J S Q S A D x.D.D.D.D.D.D.D.D.D.D.D.D.D.D.D.D.D.D.D.D.D.D.D.D.D.D.",
"D.D.D.D.D.D.D.D.D.D.H.`.`.L.|.&XOX.XXX&X>X2XXX[.C.C.D.D.H.C.K A A Z C C C G C.S.G.D.D.D.D.D.D.D.D.D.D.D.D.D.D.D.D.D.G.G.D.D.D.D.",
"D.D.D.D.D.D.D.F.D.D.P.].L.|.4X4X4X4X2XOXOX#X:X-X|.I.D.D.D.V.C V & & & # & : l.S.D.D.D.D.D.D.D.D.D.D.D.D.D.D.D.D.D.D.D.H.D.D.D.D.",
"D.D.D.D.D.D.D.D.D.C.Y.H.H.=X4X4X4X4X4X:X>X3X2X#X].H.C.D.D.h.= $ # # & # X $ L C.D.D.D.D.D.D.D.D.D.D.D.F.D.D.D.D.D.D.D.D.D.D.D.D.",
"D.D.D.D.D.D.D.D.D.C.L.l.!.=X4X4X4X4X=X-X4X3X-X.X|.H.H.D.C.M % % J ! I : X o a D.D.D.D.D.D.D.D.D.D.D.D.D.D.D.F.G.D.D.D.D.D.D.D.F.",
"D.D.D.D.D.D.D.D.C.C.m.l.{.&X>X2X4X:X.X3X4X4X:XoX].G.D.D.Z.v . X Y ^ ^ Z O O - v.G.S.G.G.D.D.D.D.D.D.D.D.D.D.D.D.D.D.D.D.D.D.D.D.",
"D.D.D.D.D.D.D.D.B.j.p.S.[..X@X&X-X|.$X4X4X4X-X#XR.G.D.D.k.k @ - H e H ; O O - p.G.G.G.S.D.D.D.D.D.D.D.D.D.D.D.D.D.D.D.D.D.D.D.D.",
"D.D.D.D.D.D.D.D.p.p.M C._.|.OX=XOX).<X4X:XoX.X.XI.F.G.S.u.6 w : ! Y Y T ; - - R S.G.G.G.D.D.G.D.D.D.D.D.D.D.D.D.D.D.D.D.D.D.D.D.",
"D.D.D.D.D.D.D.V.a.@.L m.!.{.{..X[._.3X=XR.S.A.].F.G.G.c.M k w H ^ ! Y Y e - i Z.G.G.S.G.D.D.D.D.D.D.D.D.D.D.D.D.D.D.D.D.D.D.D.D.",
"D.D.D.D.D.D.D.k.p.j z s.J.].XX].~.}.3X].S.D.J./.D.D.D.k.a.n * * ! ^ T H - O q Z.S.D.D.D.D.D.D.D.D.D.D.D.D.D.D.H.D.D.D.D.D.D.D.D.",
"D.D.D.D.D.D.A.a.u.v l.C.S.S.U.{..X#X4X}.J.D.].U.D.D.G.k.c.k - o G ! E w . + 4 c.D.D.D.D.D.D.D.D.D.D.D.D.D.D.D.D.D.D.H.D.D.D.D.D.",
"D.D.D.D.D.D.v.u.M L U.].|..X-X:XXX:X4X4X-X[..XI.D.D.A.X.c.a.9 O , T H @ . @ 9 z.D.D.D.D.D.D.D.D.D.D.D.D.D.D.D.D.D.D.D.D.D.D.D.D.",
"D.D.D.D.D.D.a.N l l._.{.XX>X4X2X#X2X4X4X:X.X[.D.D.D.V.x a.a.p.9 @ - O   o - 6 $.D.D.D.D.D.D.D.D.D.D.D.D.D.D.D.D.D.D.D.D.D.D.D.D.",
"D.D.D.D.D.C.@.M a d./.{.XX3X4X3X=X4X2X-X|.|._.D.G.D.V.x i.B.D.c.k q 7 6 9 k 9 k.G.A.D.D.D.D.D.D.D.D.D.D.D.D.D.D.D.D.H.D.D.D.D.D.",
"D.D.D.D.D.v.M l l l.m.A.J.:X4X:X-X=XS.I.I.!.U.D.G.G.C.Y.A.c.T.P.S.k.f.f.c.b m ). XY.A.D.D.D.D.D.D.D.D.D.D.D.D.D.D.D.D.D.D.D.D.D.",
"D.D.D.D.D.k.z j p.!.[._.I.:X4X=X>X.Xp.L.L.A.H.D.G.G.}.*X/.c.K.^.^.I.P.Z.v.i.v. XoX.XK.D.D.D.D.D.D.D.D.D.D.D.D.D.D.D.D.D.D.D.D.D.",
"D.D.D.D.A.i.j a a.R.[.}.|.4X3X#X3X:X{.I.a.x.F.D.G.'.*X*XOXV.Y.[.'. X X'.}.T.Z.oXOXoX).D.D.D.D.D.H.D.D.D.D.D.D.D.D.D.D.D.D.D.D.D.",
"D.D.D.D.C.N a a l.U.).^.&X4X<X&X4X.XH.v.a.d.S.G.P.*X*X=XoXI.G.R.^.(.'.(.`.H.V.oXOXoX.XD.D.D.D.D.D.D.D.D.D.D.D.D.D.D.D.D.D.D.D.D.",
"D.D.D.D.B.v 8 8 p.S.!.~.:X4X&X:X4XH.p.d.x.x.D.D.^.*X*X*XOXG.j.H.I.I.(.).G.k.p.'..XOXOXT.D.D.D.D.D.D.D.D.D.D.D.D.D.D.D.D.D.D.D.D.",
"D.D.D.G.p.a 0 a l M u.C.-X-XXX2X4X[.A.v.k.V.D.A.^.*X=X*X.Xc.b X.X.(.oXoXp.b h G.(.oXOX[.D.D.D.D.D.D.D.D.D.D.D.D.D.D.D.D.D.D.D.D.",
"D.D.D.C.m 8 a @.l.v.m.D.R.OXOX4X4XOXH.x.k.D.D.P.(.oX*X%X).a.s a.X.~.oXoXf.M 6 $.P.oXOX[.A.D.D.D.D.D.D.D.D.D.D.D.D.D.D.D.D.D.D.D.",
"D.D.D.v.v a @.C.D.v.L._.[.&X-X4X#X_.H.l.v.D.A.H.oX X%X}.G.M s X.s T. X'.$.q @ u V. X.XP.c.A.D.D.D.D.D.D.D.D.D.D.D.D.D.D.D.D.D.D.",
"D.D.D.@.r r @.Y.{.[.{..X<X-X<X].J.U.m.a.V.D.D.K.^..X}.^.M < b s u N $.N q x b @ X.`.(.V.V.G.D.D.D.D.D.D.D.D.D.D.D.D.G.D.D.D.D.D.",
"D.H.v.r = t @.L.].>X4X3X4X-X:Xx.S.L.d.h.D.D.G.(.oXoX^.C.6 @ Z.$.N (.}.T.M $.Z.@ d P.V.k.v.A.G.G.D.H.D.D.D.D.D.D.D.D.D.D.D.D.D.D.",
"D.C.n = B F @.b.~ E.+X4X2X>X4XOX_.C.@.v.D.G.A.`.}.oXI.x @ 0 K.j.$. X%X(.$.b j.q 9 i.k.Y.I.A.G.D.D.D.D.D.D.D.D.D.D.D.D.D.D.D.D.D.",
"D.C.a = B I b.I F U W.3X1X3X4X;X].l.p.C.D.D.A.`.T.c.c.8 o b %.x *.(.oX Xc.s N x X.0 f.].}.K.D.D.D.D.D.D.D.D.D.D.D.D.D.D.D.D.D.D.",
"D.V.r , t K s.F F U W.3X-X3X4X&X!.@.h.C.D.D.V.}._.z.x n 4 B.K.x N T.(.(.G.s %.l B.a j.`.oX/.D.D.D.D.D.D.D.D.D.D.D.D.D.D.D.D.D.D.",
"C.a.8 0 @.C.!.b.I ^ +X3X:X4X3XXXL.L k.D.D.D.C.}..XK.n k.i f.c.x B.T.T.(.T.s $.b V.p.g.}.OX`.D.D.D.D.D.D.D.D.D.D.D.D.H.D.D.D.D.D.",
"D.X.8 l z.L.].&X,X+X3X1X2X4X&X/.n.l.V.D.D.D.A.OXoX^.j.v.s m c b Z.(.(.T.T.$.x $.f.C.i.^.oX'.D.D.D.D.D.D.D.D.D.D.D.D.D.D.D.D.D.D.",
"A.v 5 i f.K.[.#X:X-X4X-X3X4X[.!.p.a.A.D.D.D.A.'.oX).f.v.u.6 s p.Z.G.P.G.B.N 9 M @.D.j.K.XX.XF.A.H.D.D.D.D.D.D.D.D.D.D.D.D.D.D.D.",
"Z.h 4 5 s R V.R..X#X,X$X4X1XU.L.m.C.G.D.D.G.V.^.oX'.v.B.N 4 - : H z H z e ; + k z.D.C.a.V.Y.V.C.G.D.D.D.D.D.D.D.D.D.D.D.D.D.D.D.",
"A.h - 7 N l.d.u.a.I.U.!.2XXXC.S.S.D.D.D.D.D.V.Y.}.P.f.D.X.3 p s w : V : 0 d 3 k D.D.D.a.j.T.f.V.D.D.D.D.D.D.D.D.D.D.D.D.D.H.D.D.",
"G.N , 9 $.S.J.v.d.M.E.Q.@XI.C.S.A.S.D.D.D.D.A.V.`.T.i.S.b f :.5.7.>.&.&.<.,.] c A.D.D.B.x n q v.D.D.D.D.D.D.D.D.D.D.D.D.D.D.D.D.",
"D.k.9 l d.G.H.D.x.W M.~._.L.L.J.C.S.D.D.D.D.A.f.i.q j A.c | 2.3.9.9.9.9.2.#.| &.C.H.G.D.R W W C.D.D.D.D.D.D.D.D.D.D.D.D.D.D.D.D.",
"F.A.u.l u.F.~.^.XX{.~.~.^./.U.J.C.D.D.D.D.D.D.M t P W m.c :.<.>.2.7.9.9.:.#.,.&.C.G.D.D.s.G K m.D.D.D.D.D.D.H.D.D.D.D.D.D.D.D.D.",
"D.D.D.c.a.a.A.I.OX:X$XT.L.L.S.L.A.D.D.D.D.D.S.m.! E T l.c ,.e.w.&.&.7.>.f #.7.3.A.G.D.D.s.u.K l.D.D.D.D.D.D.D.D.D.D.D.D.D.D.D.D.",
"D.A.G.G.D.D.A.A.I.!.I.G.D.D.A.D.D.D.D.D.D.D.D.v.! W R R `  .w.N.2.f f 1 p 4.8.2.V.D.D.S.l.a.z h.D.D.D.D.D.D.D.D.D.D.D.D.D.D.D.D.",
"D.D.D.D.D.D.D.D.D.D.D.D.D.D.D.D.D.D.D.D.D.D.D.x.P W V.d.g  .w.w.8.] < @ ] 6.8.6.Z.G.G.G.C.l a V.D.D.D.D.D.D.D.D.D.D.D.D.D.D.D.D.",
"D.D.D.D.D.D.D.D.D.D.D.D.D.D.H.D.D.D.D.D.D.D.D.v.G K C.C...=.8.t.9.&.c p 6.9.e.6.B.G.G.G.A.m p.A.D.D.D.D.H.D.D.D.D.D.D.D.D.D.D.D.",
"D.D.D.D.H.D.D.D.D.D.D.D.D.D.D.D.D.D.D.D.D.D.D.A.j z v.A.O.=.w.r.8.&.j.#.t.t.t.6.B.D.G.S.D.A.D.D.D.D.D.D.D.D.D.D.D.D.D.D.D.D.D.D.",
"D.D.D.D.D.D.D.D.D.D.D.D.D.D.D.D.D.D.D.D.D.D.D.D.h.M f.G.o.4.w.t.8.1.B.<.y.y.t.6.B.D.D.D.D.D.D.D.D.D.D.D.D.D.D.D.D.D.D.D.D.H.D.D.",
"D.D.H.D.D.D.D.D.D.D.D.D.D.D.D.D.D.D.D.H.D.D.D.D.D.G.A.D.N.4.t.q.t.3.B.<.y.y.t.6.B.G.D.D.D.D.D.D.D.D.D.D.D.D.D.D.D.D.D.D.D.D.D.D.",
"D.D.D.D.D.D.D.D.D.D.D.D.D.D.D.D.D.D.D.D.D.D.D.D.D.D.D.D.B.4.q.q.9.3.B.2.G.y.t.2.V.G.D.D.D.D.D.D.D.D.D.D.D.D.D.D.D.D.D.D.D.D.D.D.",
"D.D.D.D.D.D.D.D.D.D.D.D.D.D.D.D.D.D.D.D.D.D.D.D.D.D.D.D.B.O.t.G.9.1.z.#.q.y.e.>.Z.D.D.D.D.D.D.D.D.D.D.D.D.D.D.D.D.D.D.D.D.D.D.D.",
"D.D.D.D.D.D.D.D.D.D.D.D.D.D.D.D.D.D.D.D.D.D.D.D.D.D.D.D.B.p q.N.6.*.c.[ w.q.6.*.G.G.D.D.D.D.D.D.D.D.D.D.D.D.D.D.D.D.D.D.D.D.D.D.",
"D.D.G.D.D.D.D.D.D.D.D.D.D.D.D.D.D.D.D.D.D.D.D.D.D.D.D.D.z.y 4.w. .c B.] 4.w. .@.D.D.D.D.D.D.D.D.D.D.D.D.D.D.D.D.D.G.D.D.D.D.D.D.",
"D.D.D.D.D.D.D.D.D.D.D.D.D.D.D.D.D.D.D.D.H.D.D.D.D.D.D.D.j.p { 4._ u z.] ,.4.{ o.D.D.D.D.D.D.D.D.D.D.D.D.D.D.D.D.D.D.H.D.D.D.D.D.",
"D.D.D.D.D.D.D.D.D.D.D.D.D.D.D.D.D.D.D.D.D.D.D.D.D.D.D.D.x.` y / 2 o.N.O.} } ) o.D.D.H.D.D.D.D.D.D.D.D.D.D.D.D.D.D.D.D.D.D.D.D.D.",
"D.D.D.D.D.D.D.D.D.D.D.D.D.D.D.D.D.D.D.D.D.D.D.D.D.D.D.H.C.` p 2 1 j.N.4.} { ) j.D.D.D.D.D.D.D.D.D.D.D.D.D.D.D.D.D.D.D.D.D.D.D.D.",
"D.D.D.D.D.D.D.D.D.D.D.D.D.D.D.D.D.D.D.D.D.D.D.D.D.D.D.D.D.` 2 > @ B.*.O.} _ ..B.D.D.D.D.D.D.D.D.D.D.D.D.D.D.D.D.D.D.D.D.D.D.D.D.",
"D.D.D.D.D.D.D.D.D.D.D.D.D.D.D.D.D.D.D.D.D.D.D.H.D.D.D.D.C...2 1 > N.1.:.} } o.D.D.D.D.D.D.D.D.D.D.D.D.D.D.D.D.D.D.D.D.D.D.D.D.D.",
"D.D.D.D.D.D.D.H.D.D.D.D.D.D.D.D.D.D.D.D.D.D.D.D.D.D.D.D.C...y 2 1 z.3.7.w.7.N.D.D.D.D.D.D.D.D.D.D.D.D.D.D.D.D.D.D.D.D.D.D.D.D.D.",
"D.D.D.D.D.D.D.D.D.D.D.D.D.D.D.H.D.D.D.D.D.D.D.D.D.D.D.D.C.O.( / p V.o.}  .} g.D.D.D.D.D.D.D.D.D.D.D.D.G.D.D.D.D.D.D.D.D.D.D.D.D.",
"D.G.D.D.D.D.D.D.D.D.D.D.D.D.D.D.D.D.D.D.D.D.D.D.D.F.D.D.K. .-.+.` V.o.O.' f %.S.D.D.D.D.D.D.D.D.D.D.D.D.D.D.D.D.D.D.D.D.D.D.D.D.",
"D.D.D.D.D.D.D.D.D.D.D.D.D.D.D.D.D.D.D.D.D.D.D.D.D.D.D.F.D.+.q.0.} V.X./ { / X.D.D.D.D.D.D.D.D.D.D.D.D.D.D.D.D.D.D.D.D.D.D.D.D.D.",
"D.D.D.D.D.D.D.D.D.D.D.D.D.D.D.D.D.D.D.D.D.D.D.D.D.D.F.F.C.+.0.-. .V.@.{ +.+.1.C.D.D.D.D.D.D.D.D.D.D.D.D.D.D.D.D.D.D.H.D.D.D.D.D.",
"D.D.D.D.D.D.D.D.D.D.D.D.D.D.D.D.D.D.D.D.D.D.D.D.D.D.F.F.C.N. .O.g.B.o.} q.q.;.C.D.D.D.D.D.D.D.D.D.D.D.D.D.D.D.D.D.D.D.D.D.D.D.D.",
"D.D.D.D.D.D.D.D.D.D.D.D.D.D.D.D.D.D.D.D.D.D.D.D.D.D.D.D.D.X.X.o.@.C.p.1.w.0.+.@.D.D.D.D.D.D.D.D.D.D.D.D.D.D.D.D.D.D.D.D.D.D.D.D.",
"D.D.D.D.D.D.D.D.D.D.D.D.D.D.D.D.D.D.D.D.D.D.D.D.D.D.D.D.D.C.f.f.C.C.h.X.B.V.N.j.D.D.D.D.D.D.D.D.D.D.D.D.D.D.D.D.D.K.D.D.D.D.D.D.",
"D.D.D.D.D.D.D.D.D.D.D.D.D.D.D.H.D.D.D.D.D.D.D.D.D.D.D.D.D.D.D.D.D.D.C.j.X.X.X.j.D.D.D.D.D.D.D.D.D.D.D.D.D.D.D.D.D.D.D.D.D.D.D.D.",
"D.D.D.D.D.D.D.D.D.D.D.D.D.D.D.D.D.D.D.D.D.D.D.D.D.D.D.D.D.D.D.D.D.D.D.D.D.D.D.D.D.D.D.D.K.D.D.D.D.D.D.D.D.D.D.D.D.D.D.D.D.D.D.D."
};
