/* XPM */
static char *_931721606558[] = {
/* columns rows colors chars-per-pixel */
"64 64 214 2 ",
"   c #3B2315",
".  c #282525",
"X  c #332C2A",
"o  c #37312D",
"O  c #3C3636",
"+  c #3D3836",
"@  c #452E21",
"#  c #4C3426",
"$  c #5B3C24",
"%  c #443A35",
"&  c #6E382E",
"*  c #5A4339",
"=  c #674435",
"-  c #704630",
";  c #364455",
":  c #374C65",
">  c #3C546E",
",  c #494544",
"<  c #42444A",
"1  c #4D4B4C",
"2  c #564844",
"3  c #5F514A",
"4  c #484C53",
"5  c #515155",
"6  c #5A5352",
"7  c #575558",
"8  c #52565C",
"9  c #685246",
"0  c #635D5C",
"q  c #735C58",
"w  c #7F6149",
"e  c #7B6357",
"r  c #445162",
"t  c #495869",
"y  c #5A5D63",
"u  c #455E76",
"i  c #6D5F60",
"p  c #5E6267",
"a  c #5E636B",
"s  c #6C6664",
"d  c #62656B",
"f  c #656568",
"g  c #6C696A",
"h  c #716A67",
"j  c #736D6B",
"k  c #79716D",
"l  c #666B72",
"z  c #616975",
"x  c #6A6E75",
"c  c #6B7077",
"v  c #6D727B",
"b  c #757476",
"n  c #7A7473",
"m  c #77787B",
"M  c #7B797C",
"N  c #94572D",
"B  c #AD6C37",
"V  c #C56C3B",
"C  c #905846",
"Z  c #AE5842",
"A  c #87644A",
"S  c #8F6B53",
"D  c #9A765C",
"F  c #AA6C4A",
"G  c #A47A5B",
"H  c #857B75",
"J  c #8A7B75",
"K  c #837C7A",
"L  c #957F75",
"P  c #987D76",
"I  c #A27C69",
"U  c #B27362",
"Y  c #D27554",
"T  c #89817D",
"R  c #94837C",
"E  c #AA8467",
"W  c #BC8C64",
"Q  c #B5A07F",
"!  c #3C5C80",
"~  c #396498",
"^  c #486684",
"/  c #4C6D8B",
"(  c #556982",
")  c #5B7289",
"_  c #4A6F94",
"`  c #527494",
"'  c #597797",
"]  c #547699",
"[  c #5B7C9B",
"{  c #657588",
"}  c #757A83",
"|  c #7B7E84",
" . c #747C89",
".. c #647A94",
"X. c #4877AD",
"o. c #557DA3",
"O. c #477BB5",
"+. c #5D819E",
"@. c #7F8086",
"#. c #7D838B",
"$. c #6D8197",
"%. c #7C8694",
"&. c #77879B",
"*. c #7E8A9B",
"=. c #5D83A4",
"-. c #5F88AC",
";. c #5385BC",
":. c #648BAC",
">. c #6B8CAA",
",. c #7B8EA4",
"<. c #738DA8",
"1. c #7191AF",
"2. c #648EB2",
"3. c #688FB0",
"4. c #6390B6",
"5. c #6B91B3",
"6. c #6B98BE",
"7. c #6E9BC0",
"8. c #848284",
"9. c #8B8584",
"0. c #82858D",
"q. c #89888A",
"w. c #8B898D",
"e. c #948582",
"r. c #938985",
"t. c #948D8B",
"y. c #998D8A",
"u. c #97908E",
"i. c #99928E",
"p. c #848B94",
"a. c #8C8D93",
"s. c #858B98",
"d. c #938F91",
"f. c #87909F",
"g. c #8D939C",
"h. c #949194",
"j. c #9B9593",
"k. c #94959B",
"l. c #99969A",
"z. c #92989F",
"x. c #9B9A9E",
"c. c #A0938F",
"v. c #A39894",
"b. c #A39A96",
"n. c #A59E9A",
"m. c #B5A58F",
"M. c #A7A09D",
"N. c #AAA29E",
"B. c #B3A499",
"V. c #828EA2",
"C. c #8792A4",
"Z. c #969CA4",
"A. c #9D9DA2",
"S. c #969DA8",
"D. c #A09FA3",
"F. c #9FA0A7",
"G. c #9DA3AB",
"H. c #9EA6B1",
"J. c #A3A2A6",
"K. c #ADA5A2",
"L. c #AFA9A5",
"P. c #A7A6AB",
"I. c #A8A7AB",
"U. c #ABA9AC",
"Y. c #B2AAA4",
"T. c #B3AAA5",
"R. c #B4ACA9",
"E. c #B6B0AF",
"W. c #BBB2AD",
"Q. c #A4ABB4",
"!. c #A9ADB3",
"~. c #A8AFB8",
"^. c #B1AEB1",
"/. c #AAB0B7",
"(. c #ADB4BC",
"). c #BCB5B3",
"_. c #BAB5B5",
"`. c #B0B7BE",
"'. c #C6B69B",
"]. c #E8AD93",
"[. c #D5AFA0",
"{. c #C2B5AC",
"}. c #C3BAB5",
"|. c #C5BEB9",
" X c #C9BFB8",
".X c #C9C1BA",
"XX c #CBC3BC",
"oX c #D1C3BA",
"OX c #F6D2BF",
"+X c #B5BCC3",
"@X c #B9BFC6",
"#X c #BBC3CB",
"$X c #CDC5C0",
"%X c #D3CBC5",
"&X c #D5CBC5",
"*X c #D7D0C9",
"=X c #DBD2CC",
"-X c #C5CDD5",
";X c #D9D3D0",
":X c #E0D6CF",
">X c #E1D7D1",
",X c #E5DBD4",
"<X c #E8DED6",
"1X c #E6DED8",
"2X c #E9E0D6",
"3X c #EDE3DC",
"4X c #F1E6DE",
"5X c #EFE6E0",
"6X c #F4EAE3",
"7X c #F5EFE8",
"8X c #FBF4EB",
"9X c #FAF3EC",
"0X c #FCF8F2",
"qX c #FFFEFB",
/* pixels */
"P.P.P.P.P.I.P.P.P.P.P.P.I.P.P.P.P.I.P.P.P.P.P.P.P.P.P.P.P.P.P.P.P.P.P.P.P.P.P.P.P.P.P.P.P.P.P.I.P.P.P.P.P.P.P.P.P.P.P.P.P.P.P.P.",
"P.P.P.P.P.P.P.P.P.P.P.P.P.P.P.P.P.P.P.P.P.P.P.P.P.I.P.P.P.P.I.P.P.P.D.P.P.P.P.P.P.I.P.P.P.P.P.P.P.P.P.P.P.P.P.P.P.P.P.P.P.P.P.P.",
"P.P.P.P.P.P.P.P.P.P.P.P.P.P.P.P.P.P.P.P.P.P.P.P.P.P.P.P.P.P.I.I.D.P F e.P.P.P.P.P.P.P.P.P.P.P.P.P.P.P.P.P.P.P.P.I.P.P.P.P.P.P.P.",
"P.P.P.P.P.P.P.P.P.P.P.P.P.P.P.P.P.P.P.P.P.P.P.P.P.P.P.P.P.P.I.I.y.F B F b.P.P.P.P.P.P.P.P.P.P.P.P.P.P.P.P.P.P.P.P.P.P.P.P.I.P.P.",
"P.P.P.P.P.P.P.P.P.P.P.P.P.P.P.P.P.P.P.P.P.P.P.P.P.P.P.P.P.P.U.D.I B N N P P.P.P.P.P.P.P.P.P.P.P.P.P.P.P.P.P.P.P.P.P.P.P.P.P.P.P.",
"P.P.P.P.P.P.P.P.I.P.P.P.P.P.P.I.P.P.P.P.P.P.P.P.P.P.P.P.P.P.D.D.C $ @ @ q D.P.P.P.P.P.P.P.P.P.P.P.P.P.P.P.P.I.P.P.P.P.P.P.P.P.P.",
"P.P.I.P.P.P.P.P.P.P.P.P.P.P.P.P.P.P.P.P.P.P.P.P.P.P.P.P.P.P.P.A.* @ @   2 A.P.P.P.P.P.I.P.P.P.P.P.P.P.P.P.P.P.P.P.P.P.I.P.P.P.P.",
"P.P.P.P.P.I.P.P.P.P.P.P.P.P.P.P.P.I.P.P.P.P.P.P.P.P.I.P.P.P.P.a.% A G # O A.P.P.P.P.P.P.P.P.P.P.P.I.P.P.P.P.P.P.P.P.P.P.P.P.P.P.",
"P.P.P.P.P.P.P.P.P.P.P.P.I.P.P.P.I.P.P.P.P.P.P.P.P.P.P.P.P.P.P.q.. S W = X a.I.P.P.P.P.P.P.P.P.P.P.P.P.P.P.P.P.P.P.P.P.P.P.P.P.P.",
"P.P.P.P.P.P.P.P.P.P.P.P.P.P.P.P.P.P.P.P.P.P.P.P.P.P.P.I.P.P.P.} o = w * X | I.I.P.P.P.P.I.P.P.P.P.P.I.P.P.P.P.P.P.P.P.P.P.P.P.P.",
"P.P.P.P.P.P.P.P.P.P.P.P.P.P.P.P.P.P.D.I.D.E.;X1X;X|.!.P.P.P.J.d 3 D D - + #.P.P.P.P.P.P.P.P.P.P.P.P.P.P.P.P.P.P.P.P.P.P.P.P.P.P.",
"P.P.I.P.P.P.P.P.P.P.P.P.P.P.P.P.I.I._.R.A.E.1X9X0X5X$Xn.D.P.A.x 3 E E A * k.P.P.P.P.I.P.P.P.P.P.P.P.P.P.P.P.P.P.P.P.P.I.P.P.P.P.",
"P.P.P.P.P.I.P.P.P.P.P.P.P.P.P.I.P.^._.E.&X;X&X$X=X;X>X XI.I.k.8.% D E 2 + g.I.P.P.P.P.P.P.P.P.P.P.P.P.P.P.P.P.I.P.P.P.P.P.P.P.P.",
"P.P.P.I.P.P.P.P.P.P.P.P.P.P.P.P.I.}.{.,XqXqXqX<X,X3X,X}.I.P.l.@.o 9 E + + w.P.P.P.P.P.P.P.I.P.P.P.P.P.P.P.P.P.P.P.I.P.P.I.P.P.P.",
"P.P.P.P.P.P.P.P.P.P.P.P.P.P.P.P.R.R.W.6XqXqX0X<X6X5X%X_.P.P.k.w.1 * e . + w.I.I.P.P.P.P.P.P.P.P.I.P.P.P.P.P.P.P.P.P.P.P.P.P.P.P.",
"P.P.P.P.P.P.P.P.P.P.P.P.P.P.P.P.D.n. X5X0X0X,X5X9X<X*X_.P.P.8.0.v + o . ; 8.I.I.P.P.P.P.P.P.P.P.P.P.P.P.P.P.P.P.P.P.P.P.P.P.P.P.",
"P.P.P.P.P.P.P.P.P.P.P.P.P.P.P.J.j.n.*X2X3X2X=X9X9X2X%X!.I.P.| } g.f 1 ; 8 @.J.P.P.P.P.P.P.P.P.P.P.P.P.P.P.P.P.P.P.P.P.P.P.P.P.P.",
"P.P.P.P.P.P.P.P.P.P.P.P.P.P.P.l.r.B.oX*X,X%X1X8X4X=X.XI.P.P.Z.s.Z.z.#.m a H./.J.P.P.P.P.P.P.P.P.P.P.P.P.P.P.P.P.I.P.P.P.P.P.P.P.",
"P.P.P.I.P.P.P.P.P.P.P.P.P.P.F.8.8.R.oX=X*XXX3X=XN.R._.P.P.I.#XG.F.H.G.p.#.`.#XP.P.P.P.P.P.P.P.P.P.P.P.P.P.P.P.P.P.P.P.P.P.P.P.P.",
"P.P.P.P.P.P.P.P.P.P.P.P.P.P.l.K T Y..XXXXX.X2XW.N.L.!.I.P.`.-X+XQ.`.#X`.Z.#X#XU.P.P.P.P.P.P.P.P.P.P.P.P.P.P.P.P.P.P.P.P.P.P.I.P.",
"P.P.P.I.I.P.P.P.P.P.P.P.P.P.9.j T B.XXoX.X%X,XM.M.).U.I.I.#X-X(.g.!.(./.z.+X#X/.P.P.P.P.P.P.P.P.P.P.P.P.P.P.P.P.P.P.P.P.P.P.P.P.",
"P.P.P.P.P.P.P.P.P.P.P.P.P.n.K s H y.K.}.oX2X4XXX|._.I.I.I.#X-X/.p.H./.G.#.Q.#X#XP.P.P.P.P.P.P.P.P.P.P.P.P.P.P.I.P.P.P.P.P.P.P.P.",
"P.P.P.P.P.P.P.P.P.P.P.P.P.h.n 9.W.|.&X,X*X6X9X1X%X_.I.I.G.#X-XQ.x } #XG.l z.#X#XI.P.P.P.P.P.P.P.P.P.P.P.P.P.P.P.P.P.I.P.P.P.P.P.",
"P.P.P.P.P.P.P.P.P.P.P.P.F.T k b.}.*X7X6X:X7X4X=X$XU.P.P.!.#X-XG.d #.@XG.8 v `.+XP.P.P.P.P.P.P.P.I.P.P.P.P.P.P.P.P.P.P.P.P.P.P.P.",
"P.P.P.P.P.P.P.P.P.P.P.P.l.n j W.%X;X0X4X2X1X.XW.).I.P.P.Q.#X#X0.y c `.z.; y /.Q.A.P.P.P.P.P.P.P.P.I.P.P.P.P.P.P.P.P.P.P.P.P.P.P.",
"P.P.P.P.P.P.P.P.P.P.P.P.9.s s j.N.oX8X2X=Xi.K.M.U.P.P.P.G.#X/.8 p 8 l p f 8 G.G.A.P.P.P.P.P.P.P.P.P.P.P.P.P.P.I.P.P.P.P.P.P.P.P.",
"P.P.P.P.P.P.P.P.P.P.P.A.n h i.R.N..X7X,X1XM.n.u.P.P.P.P./.#XZ.< #.#.(.%.#.4 %.w.x.P.P.P.P.P.P.P.P.P.P.P.P.P.P.P.P.P.P.P.P.P.P.P.",
"P.P.P.I.P.I.P.P.P.P.I.l.h h K.XXXX3X7X2X3X$Xu.9.J.P.P.J.(.#Xm , #.#.#Xg.x 8 l Z.G.P.P.P.P.P.P.P.P.P.P.P.P.P.P.P.P.P.I.P.P.P.P.P.",
"P.P.P.I.P.P.P.P.P.P.P.a.0 k B.}.XX8X3X4X|.t.r.l.P.P.P.P.~.g.p ; c #.+XG.d l p G.(.P.P.P.P.P.P.P.P.P.P.P.P.P.P.P.P.P.P.P.I.P.P.P.",
"P.P.P.P.P.P.P.P.P.P.D.b 6 H R.}.*X9X;X6XR.9.t.x.P.P.P.J./.g.d d *.v Q.H.c | m G.`.F.P.P.P.P.P.P.P.P.P.P.P.P.P.P.P.P.P.P.P.P.P.P.",
"P.P.P.P.P.P.P.P.P.P.A.s 1 s 9.n.=X<X1X9XXXi.t.J.P.P.P.J.`.G.M c %.%.Q.H.a } a.G.#XG.P.P.P.P.P.P.I.P.P.P.P.P.P.P.I.P.P.I.P.P.P.I.",
"P.P.P.P.P.P.P.P.P.P.a.0 0 k n 9.W.*X3X4X|.b.l.P.P.P.P.P.#XQ.a.a l p.~.H.z m h.Z.#XP.I.P.P.P.P.P.P.P.P.P.I.P.P.P.P.P.P.P.P.P.P.P.",
"P.P.P.P.P.P.P.P.I.D.n 6 k r.M.W.oX:X4X&XY.d.A.P.P.P.P.P.+XQ.k.g y *.Z.f.p l k.z.#XG.P.P.P.P.P.P.P.P.P.P.P.P.P.P.P.P.P.P.P.P.P.P.",
"P.P.P.P.P.P.P.P.I.l.h h M.Y.Y. X>X,X}.T.b.d.D.P.P.P.P.D.Q.~.k.p * w e e * p D.a.z.Z.P.P.P.P.P.P.P.P.P.P.P.P.P.P.P.P.P.I.P.P.P.P.",
"P.P.P.P.P.P.P.P.P.8.6 j Y.*X,X4X4X,Xn.n.e.l.P.P.P.P.P.P.Q.S.l.z : 6 - 3 r v P.z.g.a.P.P.P.P.P.P.P.P.P.P.P.I.P.P.P.P.P.P.P.P.P.P.",
"P.P.P.P.P.P.P.P.A.q = k B.oX4X8X4X7X*XY.9.A.P.P.P.P.P.P.J.S.k.z +.+.) +.` } P.A.g c P.P.P.P.P.P.P.P.P.P.P.P.P.P.P.P.P.P.P.P.P.P.",
"P.P.P.P.P.P.P.P.K & C I U Y ].6X4X8X=Xv.9.D.P.P.P.P.P.P.p.y q.) +.3.5.:.` $.P.P.L R P.P.P.P.P.P.P.P.P.P.P.P.P.P.P.P.I.P.P.P.P.P.",
"P.P.P.P.P.P.P.D.i & F I Z V ].4X7X7X$Xr.d.P.P.P.P.P.P.P.b S y.{ +.+.3.=.` &.P.F.J J P.P.P.P.P.P.P.P.P.P.P.P.P.P.P.P.P.P.I.P.P.P.",
"P.P.P.P.P.P.P.l.6 2 L P Z Y OX4X0X<XW.9.A.P.P.P.P.P.P.P.c.I P ..2.+.=.^ +.,.P.J.8.H P.P.P.P.P.P.P.P.I.P.P.P.P.P.P.P.P.P.P.P.P.P.",
"P.P.P.P.U.U.D.w.5 g c.{.'.[.4X3X0X&Xn.r.D.P.P.P.P.P.P.P.c.P K ) -.+.u : +.<.J.P.q.M P.P.P.P.P.P.P.P.P.P.P.P.P.I.P.P.P.P.P.P.P.P.",
"P.P.P.P.P.P.P.b 6 T R.%X2X2X6X7X6X).y.i.P.P.P.P.P.P.P.P.d.P a.( 2.:.; : :.1.P.P.q.b I.I.P.P.P.P.P.P.P.P.P.P.P.P.P.P.P.P.P.P.P.P.",
"P.P.P.P.P.P.A.i 6 9.R.%X,X2X3X8X=XD.D.D.I.P.P.P.P.P.P.P.d.J D...2.2.v / 4.5.J.P.h.w.P.P.P.P.P.P.P.P.P.P.P.P.P.P.P.P.P.P.P.P.P.P.",
"P.P.P.P.P.P.l.5 * y H j.E.XXXX3X{.v.n.P.P.P.P.P.P.P.P.P.l.h D...4.:.*.=.6.5.P.P.P.P.P.P.P.P.P.P.P.P.P.P.P.P.P.P.P.P.P.I.P.P.P.P.",
"P.P.P.P.P.P.d.1 1 T i.M T m.'.XXn.v.D.I.P.P.P.P.P.P.P.P.D.M l...4.3.f.>.6.5.G.P.P.P.P.P.P.P.P.P.P.P.P.I.P.P.P.P.P.P.P.P.P.P.P.P.",
"P.P.P.P.P.P.l.1 6 9.M.j.R m.[.{.Y.B.D.P.P.P.P.P.P.P.P.P.P.P.P...4.5.f.3.7.1.J.P.P.P.P.P.P.P.P.P.P.P.P.I.P.I.P.P.P.P.I.P.I.P.P.P.",
"P.P.P.P.P.P.A.7 h i.B.K.B.m.W.).W.D.P.P.P.I.P.P.P.P.P.P.P.P.P.V.4.5.f.3.6.1.F.P.P.P.P.P.P.P.P.P.P.P.P.P.P.P.P.P.P.P.P.P.P.P.P.P.",
"P.P.P.P.P.P.J.M g i.W..X<X&XR.R.n.I.P.P.P.P.P.P.P.P.P.P.P.P.P.%.4.5.s.:.6.,.P.P.P.P.P.P.P.P.P.P.P.P.P.P.P.P.P.P.P.P.P.P.P.P.P.P.",
"P.P.P.P.P.P.P.D.h.8.j.R.&X).I.P.I.I.P.P.P.P.P.P.P.P.P.P.P.P.J.} -.-.p.+.2.*.P.P.P.P.P.P.P.P.P.P.P.P.P.P.P.P.P.P.P.P.P.P.P.P.P.P.",
"P.P.P.P.P.P.P.P.P.P.P.P.U.P.P.P.P.P.P.P.P.P.P.P.P.P.P.P.P.P.P. .o.' 0.' o.p.P.P.P.P.P.P.P.P.P.P.P.P.P.P.P.P.P.P.P.P.P.P.P.P.P.P.",
"P.P.P.P.P.P.P.P.P.P.P.P.P.P.P.P.P.P.P.P.P.P.P.P.P.P.P.P.P.P.P. ./ ^  .` ]  .P.P.I.P.P.P.P.P.P.I.P.P.P.P.P.P.P.P.P.P.P.P.P.P.P.P.",
"P.P.P.P.P.P.P.P.P.P.P.P.P.P.P.P.P.P.P.P.P.P.P.P.P.P.P.P.P.P.D. .> u %.` ^ s.P.P.P.P.P.P.P.P.P.P.P.P.P.P.P.P.P.P.P.P.P.P.P.P.P.P.",
"P.P.P.U.P.P.P.P.P.P.P.P.P.P.P.P.P.P.P.P.P.P.P.P.P.P.P.P.P.P.U.s.> r *.` ^ s.P.P.P.P.P.P.P.P.P.P.P.P.P.I.P.I.P.P.P.P.P.I.I.P.P.P.",
"P.P.P.P.P.P.P.P.P.P.P.P.P.P.P.P.P.P.P.P.P.P.P.P.P.P.P.P.P.P.P.a.; 4 %./ ^ Z.P.P.P.P.P.P.P.P.P.P.P.P.P.I.P.P.P.P.P.P.P.P.P.P.P.P.",
"P.P.P.P.P.P.P.P.P.P.P.P.P.P.P.P.P.P.P.P.P.P.P.P.P.P.P.P.P.P.P.f.: 4 s._ ' A.P.P.P.P.P.P.P.P.P.P.P.P.P.P.P.P.P.P.P.P.P.I.P.P.P.P.",
"P.P.P.P.P.P.P.P.P.P.P.P.P.P.P.P.P.P.P.U.P.P.P.P.P.P.P.P.P.P.P.h.: t &.2.<.A.I.P.P.P.P.P.P.P.P.P.P.P.P.P.P.P.P.P.P.P.P.P.P.P.P.P.",
"P.P.P.P.P.P.P.P.P.P.P.P.P.P.P.P.P.P.P.P.P.P.P.P.P.P.U.P.P.P.P.C.~ ( %./ ..S.P.P.P.P.P.P.P.P.P.P.P.P.P.P.P.P.P.P.P.P.P.P.P.P.P.P.",
"P.P.P.P.P.P.P.P.P.P.P.P.P.P.P.P.P.P.P.P.P.P.P.P.P.P.P.P.P.P.P.C.X.' s./ ) D.P.P.P.P.P.P.P.P.P.P.P.P.P.P.P.P.P.P.P.P.P.P.I.P.P.P.",
"P.P.P.P.P.P.P.P.P.P.P.P.P.P.P.P.P.P.P.P.P.P.P.P.P.P.P.P.P.P.P.C.O.]  .! ( D.P.P.P.P.P.P.P.P.I.P.P.P.P.P.P.P.P.P.P.P.P.P.P.P.P.P.",
"P.P.U.P.P.P.P.P.P.P.P.P.P.P.P.P.P.P.P.P.P.P.P.P.P.P.P.P.P.P.P.V.O.' 0._ o.D.P.P.P.P.P.P.P.P.P.P.P.P.P.P.P.P.P.P.P.I.P.P.P.P.P.P.",
"P.P.P.P.P.P.P.P.P.P.P.P.P.P.P.U.P.P.P.P.P.P.P.P.P.P.P.P.P.P.P.g...&.%.o.;.S.P.P.I.P.P.P.P.P.P.P.P.P.P.I.P.P.I.P.P.P.P.P.P.P.P.I.",
"P.P.P.P.P.P.P.P.P.P.P.P.P.P.P.P.P.P.P.P.P.U.P.P.P.P.P.P.P.P.P.h.{ @.h.[ X.*.P.P.P.P.P.P.P.P.P.P.P.P.P.P.P.P.P.P.P.P.I.P.P.I.P.P.",
"P.P.P.P.P.P.P.P.P.P.P.P.P.P.P.P.P.P.P.P.P.P.P.P.P.P.P.P.P.P.P.D.d.x.k.0.s.g.P.P.P.P.P.P.P.P.P.P.P.P.I.P.P.I.P.P.P.P.P.P.P.P.P.P.",
"P.P.P.P.P.P.P.P.P.P.P.P.P.P.P.P.P.P.P.P.P.P.P.P.P.P.P.P.P.P.P.P.D.I.D.@.} a.P.P.P.P.P.P.P.P.P.P.P.P.P.P.P.P.P.P.P.P.P.P.P.P.P.P.",
"P.P.P.P.P.P.P.P.P.P.P.P.P.P.P.P.P.P.P.P.P.P.P.P.P.P.P.P.P.I.P.P.P.P.P.P.P.P.P.P.P.P.P.P.P.I.P.P.P.P.P.P.P.P.P.P.I.P.P.P.P.I.P.P."
};
