/* XPM */
static char *_93_1721606558[] = {
/* columns rows colors chars-per-pixel */
"64 64 229 2 ",
"   c #1E1B1B",
".  c #201E1D",
"X  c #252325",
"o  c #352A27",
"O  c #2B2D37",
"+  c #332F30",
"@  c #2B313D",
"#  c #373537",
"$  c #3C3A3B",
"%  c #48332D",
"&  c #4F3830",
"*  c #6B392E",
"=  c #57453D",
"-  c #694538",
";  c #2E3545",
":  c #363C48",
">  c #3C414B",
",  c #3B4455",
"<  c #35445B",
"1  c #384A66",
"2  c #3B5070",
"3  c #3D5575",
"4  c #474444",
"5  c #4E4B4C",
"6  c #554A47",
"7  c #58504D",
"8  c #494D56",
"9  c #5A5352",
"0  c #5A5758",
"q  c #6E5751",
"w  c #635C5A",
"e  c #69645B",
"r  c #79685A",
"t  c #475467",
"y  c #5A5D66",
"u  c #445B78",
"i  c #6D5F60",
"p  c #5C626B",
"a  c #4D617B",
"s  c #556377",
"d  c #646265",
"f  c #6A6563",
"g  c #666569",
"h  c #6C696B",
"j  c #746865",
"k  c #726D6B",
"l  c #7C736E",
"z  c #666A75",
"x  c #726E71",
"c  c #747375",
"v  c #7A7472",
"b  c #777679",
"n  c #7B797C",
"m  c #8F5439",
"M  c #B06039",
"N  c #D6723F",
"B  c #975140",
"V  c #AE5842",
"C  c #926B59",
"Z  c #B06D4C",
"A  c #8C786B",
"S  c #90736B",
"D  c #96746A",
"F  c #847C76",
"G  c #837D7B",
"H  c #A67A6A",
"J  c #AD7969",
"K  c #CF774C",
"L  c #F7CE13",
"P  c #F8D025",
"I  c #EEC93D",
"U  c #AF9850",
"Y  c #89817D",
"T  c #A3906D",
"R  c #AF8877",
"E  c #E78543",
"W  c #F38B43",
"Q  c #CB987D",
"!  c #CCB57E",
"~  c #D4BC7A",
"^  c #EDC841",
"/  c #EDCF75",
"(  c #3E5D83",
")  c #425E82",
"_  c #476487",
"`  c #44648C",
"'  c #576C89",
"]  c #456B96",
"[  c #4A6C93",
"{  c #496E9A",
"}  c #4C719D",
"|  c #5A7190",
" . c #53749B",
".. c #697386",
"X. c #6A7789",
"o. c #767B86",
"O. c #667A94",
"+. c #4B75A3",
"@. c #4D7AA8",
"#. c #567AA4",
"$. c #527DAC",
"%. c #517FB1",
"&. c #627FA4",
"*. c #817F80",
"=. c #788497",
"-. c #5A82AC",
";. c #4E84B9",
":. c #5383B4",
">. c #5787B8",
",. c #5A8CBC",
"<. c #6685AA",
"1. c #7B8BA3",
"2. c #668CB4",
"3. c #7694B6",
"4. c #558BC4",
"5. c #5E92C4",
"6. c #5C95CB",
"7. c #5A98D4",
"8. c #618EC1",
"9. c #6294C3",
"0. c #649BCD",
"q. c #669ACC",
"w. c #659DD1",
"e. c #69A3D6",
"r. c #6CA2D4",
"t. c #6DA6DA",
"y. c #71A8D7",
"u. c #73ABDC",
"i. c #75AEE0",
"p. c #77B1E3",
"a. c #7BB3E3",
"s. c #848285",
"d. c #8B8584",
"f. c #88868A",
"g. c #8C8A8D",
"h. c #938A85",
"j. c #948E8C",
"k. c #988D8C",
"l. c #95908E",
"z. c #99928E",
"x. c #8B8D94",
"c. c #918E92",
"v. c #8F929D",
"b. c #939194",
"n. c #9A9593",
"m. c #95959A",
"M. c #99969A",
"N. c #97989E",
"B. c #9C9A9D",
"V. c #BF958F",
"C. c #A39A96",
"Z. c #A79B95",
"A. c #A59C9B",
"S. c #A6A09E",
"D. c #AAA29D",
"F. c #BAAD97",
"G. c #B4A79A",
"H. c #8795A9",
"J. c #9198A7",
"K. c #949AA4",
"L. c #9C9CA3",
"P. c #A19FA3",
"I. c #B89BA5",
"U. c #96A5B6",
"Y. c #A3A2A6",
"T. c #ACA7A5",
"R. c #A7A6AB",
"E. c #A9A6AB",
"W. c #ACAAAD",
"Q. c #B2AAA4",
"!. c #B4A6AA",
"~. c #B4ACA9",
"^. c #B6B0AF",
"/. c #BAB2AD",
"(. c #AEADB1",
"). c #AEAEB3",
"_. c #B3B2B5",
"`. c #BCB5B4",
"'. c #B6B5B9",
"]. c #BAB8BB",
"[. c #BCBBBD",
"{. c #D8859E",
"}. c #C6B299",
"|. c #E8AD93",
" X c #CB93AC",
".X c #C8B3A8",
"XX c #C2BAB5",
"oX c #C7BBB8",
"OX c #C5BEB9",
"+X c #E4CD94",
"@X c #D8C6A4",
"#X c #CAC1B7",
"$X c #CBC3BD",
"%X c #D2C5B6",
"&X c #EBD1AC",
"*X c #80AAD6",
"=X c #A6AFC1",
"-X c #BDBDC2",
";X c #C2C2C5",
":X c #CCC5C2",
">X c #CBCACD",
",X c #D4CBC5",
"<X c #D7CCC6",
"1X c #DAD2C6",
"2X c #DBD2CC",
"3X c #CECED2",
"4X c #D0CFD1",
"5X c #D3D2D4",
"6X c #D8D5D6",
"7X c #D6D6D9",
"8X c #DBDBDD",
"9X c #E3D6C8",
"0X c #E0D7D1",
"qX c #E4DBD4",
"wX c #E7DED7",
"eX c #ECE3D6",
"rX c #EDE3DC",
"tX c #F1E6DE",
"yX c #DEDEE1",
"uX c #E2E3E5",
"iX c #E9E7E7",
"pX c #E9E9EB",
"aX c #F4EAE3",
"sX c #F5EFE8",
"dX c #F8F3EA",
"fX c #FAF3EC",
"gX c #EEEFF1",
"hX c #F6F6F6",
"jX c #FBFCFD",
/* pixels */
"R.R.R.R.E.R.R.R.R.R.R.R.R.R.R.R.R.R.R.R.R.R.R.R.R.R.R.R.R.R.R.R.R.R.R.E.R.E.R.R.R.R.R.R.R.R.R.R.R.R.R.R.R.R.R.R.R.R.R.R.R.R.R.R.",
"R.R.R.R.E.R.R.R.R.R.R.R.R.R.R.R.R.R.R.R.R.R.R.R.R.R.R.R.R.R.R.R.R.P.A.G.A.P.E.R.R.R.R.R.R.R.R.R.R.R.R.R.R.R.R.R.R.R.R.R.R.R.R.R.",
"R.R.R.R.R.R.R.R.R.R.R.R.R.E.R.R.R.R.R.R.R.R.R.R.R.R.R.R.R.R.R.P.n.J K K K K H P.T.R.R.R.R.R.R.R.R.R.R.R.R.R.R.R.R.R.R.R.R.R.R.R.",
"R.R.R.R.R.R.R.R.R.R.R.R.R.R.R.R.R.R.R.R.R.R.R.W.R.R.R.R.R.R.R.h.C N N W W W K Z j.R.R.R.R.R.R.R.R.R.R.R.R.R.R.R.R.R.R.R.R.R.R.R.",
"R.R.R.R.R.R.R.R.R.R.R.R.R.R.R.R.R.R.R.R.R.R.R.R.R.R.R.R.R.R.L.q M N E E E W E M q d.R.R.R.R.R.R.R.R.R.R.R.R.R.R.R.R.R.R.R.R.R.R.",
"R.R.R.R.R.R.R.R.R.R.R.R.R.R.R.R.R.R.R.R.R.R.R.R.R.R.R.R.R.R.*.% m M m C C K Z - + s.R.R.R.R.R.R.R.R.R.R.Y.W.R.R.R.R.R.R.R.R.R.R.",
"R.R.R.R.R.R.R.R.R.R.R.R.R.R.R.R.R.R.R.R.R.R.R.R.R.R.R.R.R.R.x o % - 7 Y j C 7 X . c R.R.R.R.R.R.R.R.R.R.W.R.R.R.R.R.R.R.R.R.R.R.",
"R.R.R.R.R.R.R.R.R.R.R.R.R.R.R.R.R.R.R.R.R.R.R.R.R.R.R.R.R.R.d X o o # 5 7 l v %   y Y.R.R.R.R.R.R.R.R.R.R.R.R.R.R.R.W.R.R.R.R.R.",
"R.R.R.R.R.R.R.R.R.R.R.R.W.R.R.R.R.R.R.R.R.R.R.R.R.R.R.R.R.Y.e = % - o % = + 7 #   0 R.R.R.R.W.R.R.R.R.R.R.R.R.R.R.R.R.R.R.R.R.R.",
"R.R.R.R.R.R.R.R.E.R.R.R.R.R.R.R.R.R.R.R.R.R.R.R.R.R.R.R.R.R.S.l.A r - & % o X     d R.R.R.R.R.R.R.R.R.R.R.R.R.R.R.R.R.R.R.R.R.R.",
"R.R.R.R.R.R.R.R.R.R.R.R.R.R.R.R.R.R.R.R.Y.~.2XwX6XOX).R.R.x.v l.n.v T l 9 = X     n R.R.R.R.R.R.R.R.R.R.R.R.R.R.R.R.R.R.R.R.R.R.",
"W.R.R.R.R.R.R.R.R.R.R.R.R.R.R.R.R.R._.~.M.`.wXfXhXrX$XS.P.Y w = 4 e l.W.C.z.f $ $ n.R.R.R.R.R.R.R.R.R.R.R.R.R.R.R.R.R.R.R.R.R.R.",
"R.R.R.R.R.R.R.R.R.R.R.R.R.R.R.R.R._.`./.<X2X,X$X1X2X6X$XW.n.g.l.j 5 5 w G g.b.n g b.R.R.R.R.R.R.R.R.R.R.R.R.R.R.R.R.R.R.R.R.R.R.",
"R.R.R.R.W.R.R.R.R.R.R.R.R.R.R.R.W.`./.qXjXjXjXrXeXrX6XXXm.k G l.A.v n d G g.l.Y y f.R.R.R.R.R.R.R.R.R.R.R.R.R.R.R.R.R.R.R.R.R.R.",
"R.R.R.R.R.R.R.R.R.R.R.R.R.R.R.R.E.~./.aXjXjXdXrXaXrX%XOXB.h 5 4 0 h d.M.W.5XuX8X'.Y.R.R.R.R.R.R.R.R.R.R.R.R.R.R.R.R.R.R.R.R.R.R.",
"R.R.R.R.R.R.R.R.R.R.R.R.R.R.R.R.T.D.#XsXfXfXqXrXdXrX1X].R.Y.d.n n n d.W.8XiX8XuXpXuX'.R.R.R.R.R.R.R.R.R.R.R.R.R.R.R.R.R.R.R.R.R.",
"R.R.R.R.R.R.R.R.R.R.R.R.R.R.R.Y.n.D.,XeXtXeX2XdXfXwX,X^.E.L.Y l.].R.s.>X7X3XyXhXjXjX8XR.R.R.R.R.R.R.R.R.R.R.R.R.R.R.R.R.R.R.R.R.",
"R.R.R.R.R.R.R.R.R.R.R.R.R.R.R.M.g.G.$X2X6X1X9XfXrX0XOX!.I.m.=.).5X;XR.6X>X-XuXjXjXjXpX).R.R.R.R.R.R.R.R.R.R.R.R.R.R.R.R.R.R.R.R.",
"R.R.R.R.R.R.R.R.R.R.R.R.R.R.P.*.Y ^.$X2X9X/ / 9XT.!.-XE.U.J.).>X7X5X[.5X-X).8XjXjXhXpX[.R.R.R.R.R.R.R.R.R.R.R.R.R.R.R.R.R.R.R.R.",
"R.R.R.R.R.R.R.R.R.R.R.R.R.R.N.G Y G.#X$X%X^ P }.P.I.!.).R.).3X7X6X4X_.4XW.m.'.gXjXjXhX>XR.R.R.R.R.R.R.R.R.R.R.R.R.R.R.R.R.R.R.R.",
"R.R.W.R.R.R.R.R.R.R.R.R.R.R.d.l Y D.$X$X%X+X&XS.A.XXI. XP.'.7X7X5X4X).;XY.g _.gXhXjXjXyXR.R.R.R.R.R.R.R.R.R.R.R.R.R.R.R.R.W.R.R.",
"R.R.R.R.R.R.R.R.R.R.R.R.R.L.G e F k.G.XX%XeXiX$XXXoX X{.I.-XyX7X4X4XW.W.R.0 c.8XhXjXjXpXR.R.R.R.R.R.W.R.R.R.R.R.R.R.R.R.R.R.R.R.",
"R.R.R.R.R.R.R.R.R.R.R.R.R.l.k Y /.oX1XqX2XtXdXeX:X'.I.I.E.-X7X7X>X>X].B.-Xd =.3XgXhXhXgX'.R.R.R.R.R.R.R.R.R.R.R.R.R.R.R.R.R.R.R.",
"R.R.R.R.R.R.R.R.R.R.R.R.Y.Y A Z.XX1XsXaX2XdXtX1X:X).P.{.I.-X7X7X-X'.[._.-Xn y -XpXgXhXgX;XR.R.R.R.R.R.R.R.R.R.R.R.R.R.R.R.R.R.R.",
"R.R.R.R.R.R.R.R.R.R.R.R.n.v U / +X9XfXtXeXqX#X~.XXE.R.V.G.-X>X;X'.'.W.5X>Xb.5 Y.>XpXgXhX-XR.R.R.R.R.R.R.R.R.R.R.R.R.R.R.R.R.R.R.",
"R.R.R.R.R.R.R.R.R.R.R.R.s.U L L ^ %XfXrX2Xn.T.D.E.R.R.R.P.K.U.U.J.Y.E.-X>Xg.# c ;XyXpXpX-XR.R.R.R.R.R.R.R.R.R.R.R.R.R.R.R.R.R.R.",
"R.R.R.R.R.R.R.R.R.R.R.L.b D I L I %XsXqXqXD.A.l.R.R.R.R.=.y <.2.-.=.g.W.W.g.5 > v.3X8X7X3XR.W.R.R.R.R.R.R.R.R.R.R.R.R.R.R.R.R.R.",
"R.R.R.R.R.R.R.R.R.R.R.K.f j ! +X@XeXaXwXrX$Xz.d.Y.F.~ }.f >  .>.#.| s d.g.l.d $ c ;XyXuXyX_.R.R.R.R.R.R.R.R.R.R.R.R.W.R.R.R.R.R.",
"R.R.R.R.R.R.R.R.R.R.R.g.w l G.XX$XdXrXtX#Xg.h.m.T.~ L I e 1 @. .a 3 s f c h h $ h ;XuXgXpX;XR.R.R.R.R.R.R.R.R.R.R.R.R.R.R.R.R.R.",
"R.R.R.R.R.R.R.R.R.R.Y.b 9 F !.XX1XdX2XaX~.d.j.B.T.~ P I r 2 _ 1 > > 8 p b =.c $ $ g.>XuXpXyXW.R.R.R.R.R.R.R.R.R.W.R.R.R.R.R.R.R.",
"R.R.R.R.R.R.R.R.R.R.N.h 5 e j.A.2XqXqXfX$Xz.l.Y.R.T.~ F.d , , > @ $ 8 -.-.| z 5 + g R.3XpXuX'.R.R.R.R.R.R.R.R.R.R.R.R.R.R.R.R.R.",
"R.R.R.R.R.R.R.R.R.R.g.w w x =.*X'.2XrXtX#XM.M.R.R.R.T.R.b O # @ ; 1 [ 0.p.u.2.t $ y o.R.-X'.R.R.R.R.R.R.R.R.R.R.R.R.R.R.R.R.R.R.",
"R.R.R.R.R.R.R.R.E.P.b 9 l h.P.=X$X0XaX,X!.k.L.R.R.R.R.R.z X ; ; 1 [ y.a.y.y.y.-.: g s.o.M.k.Y.R.R.R.R.R.R.R.R.R.R.R.R.R.R.R.R.R.",
"R.R.R.R.R.R.R.R.R.M.h h A.!.!.oX9XqXXXQ.Z.g.P.R.R.R.R.P.d ; < 1 [ r.a.a.a.y.2.r._ y L.h D R Z.R.R.R.R.R.R.R.R.R.R.R.R.R.R.R.R.R.",
"R.R.R.R.R.R.R.R.E.*.0 k Q.<XwXtXaXqXZ.A.h.M.R.R.R.R.R.R.y : ` ] 5.a.a.a.a.p.0.9.q.| L.h D Q V.R.R.R.R.R.R.R.R.R.R.R.R.R.R.R.R.R.",
"R.R.R.R.R.R.R.R.A.i * l G.%XrXfXaXsX9X!.*.P.R.R.R.R.R.P.z ` 4.%.,.y.a.a.a.p.y.,.t.2.v.n S H H Y.R.R.R.R.R.R.R.R.R.R.R.R.R.R.R.R.",
"R.R.R.R.R.R.E.R.*.* B H J K |.tXrXfX2XZ.f.P.R.R.R.R.R.R.z _ %.} { 6.t.p.a.y.0.,.r.#.f.c k C A Y.R.R.R.R.R.R.R.R.R.R.R.R.R.R.R.R.",
"R.R.R.R.R.R.R.P.i * Z H V K |.tXsXsXoXh.c.R.R.R.R.R.R.R.c 2 +.( 1 } 6.7.y.0.,.,.8._ o.x 6 e x.R.R.R.R.R.R.R.R.R.R.R.R.R.R.R.R.R.",
"R.R.R.R.E.R.E.P.9 - S D V N &XtXfXwXXXo.L.R.R.R.R.R.R.R.g.; 2 1 O > ( @.-.:.2.r.r.>.o.Y.c.B.R.R.R.R.R.R.R.R.R.R.R.R.R.R.R.R.R.R.",
"R.R.R.R.E.E.E.*.8 h B.XX.X.XaXrXfX<XZ.k.P.R.R.R.R.R.R.R.J.: 1 < @   O < 3 -.y.a.u.r.=.R.R.E.R.R.R.R.R.R.T.R.R.R.R.R.R.R.R.R.R.R.",
"R.R.R.R.R.R.R.o.0 Y ~.,XeXeXaXsXsXXXk.k.R.R.R.R.R.R.R.R.L._ @.+.2 @ X < -.w.p.a.a.y.1.T.R.R.W.R.R.R.R.R.R.R.R.R.R.R.R.R.R.R.R.R.",
"R.R.R.R.R.R.L.w 7 s.~.,X6XeXtXdX2XT.P.P.R.R.R.R.R.R.R.R.P.' %.6.;.3 @ 3 >.t.p.a.a.r.3.Y.R.R.Y.R.R.R.R.R.R.R.R.R.R.R.R.R.R.R.R.R.",
"R.R.R.R.R.W.m.9 = 0 Y n.^.%X#XrX/.C.A.R.R.R.R.R.R.R.R.R.P...>.q.6.] ; 1 >.t.p.a.a.y.H.T.R.R.R.R.R.R.R.R.R.R.R.R.E.R.R.R.R.R.R.R.",
"R.R.R.R.E.P.x.5 6 Y l.Y Y F.F.%XA.Z.P.E.R.R.R.R.R.R.R.R.E...@.5.6.] ; < :.e.i.p.i.y.3.Y.R.R.R.R.R.R.R.R.R.R.R.W.R.R.R.R.R.R.R.R.",
"R.R.R.R.R.R.m.5 7 d.D.n.z.R }.XXQ.D.E.R.R.R.R.R.R.R.R.R.P...{ >.,.[ ; ; ] 5.y.p.u.r.H.W.W.R.R.R.R.R.W.R.R.R.R.E.R.R.R.R.R.R.R.R.",
"R.R.R.R.R.R.P.y k z.D.D.G.F..X/.~.A.R.R.R.R.R.R.R.R.R.R.P.' ] %.:._ > z 2 @.,.r.y.2.H.R.R.R.R.R.R.R.R.R.R.R.R.R.R.R.R.R.R.R.R.R.",
"R.R.R.R.R.R.P.b h j./.#XeX,X_.~.A.~.R.R.R.R.R.R.R.R.R.W.v.u +.%.:.3 8 b.a } :.>.,.-.J.W.R.R.R.R.R.R.R.R.R.R.R.R.R.R.R.R.R.R.R.E.",
"R.R.R.R.R.R.I.P.c.s.n.~.,X].R.R.R.R.R.R.R.R.R.R.R.R.R.R.o.` } $.] < y Y.p [ :.0.w.,.1.W.R.R.R.R.R.R.R.R.R.R.R.R.R.R.R.R.R.R.R.R.",
"R.R.R.R.R.R.R.R.R.R.R.R.).R.R.R.R.R.R.R.R.R.R.R.R.R.R.P.&.@.4.,.} 1 =.Y.s [ 5.w.q.q.H.R.R.R.R.R.R.R.R.R.R.R.R.R.R.R.R.R.R.R.R.R.",
"R.R.R.R.R.R.R.R.R.R.R.R.R.R.R.R.R.R.R.R.R.R.R.R.R.R.W.L.&.w.0.q.} y M.Y.=.5.r.e.9.#.H.R.R.R.R.R.R.R.R.R.R.R.R.R.R.R.R.R.R.R.R.R.",
"R.R.R.R.R.R.R.R.R.R.R.R.R.R.R.R.R.R.R.R.R.R.W.R.R.R.R.J.>.w.i.i.,.=.Y.J.-.e.i.y.9.O.P.R.R.R.R.R.R.R.R.R.R.R.R.R.R.R.R.R.R.R.R.R.",
"R.R.R.R.R.R.R.R.R.R.R.R.R.R.R.R.R.R.R.R.R.R.R.R.R.E.P.J.:.w.w.w.2.L.Y.v.,.t.a.i.0.3.R.R.R.R.R.R.R.R.R.R.R.R.R.R.R.R.R.R.R.R.R.R.",
"R.R.R.R.R.R.R.R.R.R.R.R.R.R.R.R.R.R.R.R.R.R.R.R.R.R.P.o.$.w.w.7.<.Y.R.=.4.u.p.i.r.U.W.R.R.R.R.R.R.R.R.R.R.R.R.R.R.R.R.R.R.R.R.R.",
"R.R.R.R.R.R.R.R.R.R.R.R.R.R.R.R.R.R.R.R.R.R.R.R.R.R.P.y ] 7.w.4.v.Y.Y.| :.0.e.e.9.J.R.R.R.R.R.R.R.R.R.R.R.R.R.R.R.R.R.R.R.R.R.R.",
"R.R.R.R.R.R.R.R.R.R.R.R.R.R.R.R.R.R.R.R.R.R.R.R.R.R.P.' 3 +.;.{ x.R.K.' ;.6.e.0.2.K.R.R.R.R.R.R.R.R.R.W.R.R.R.R.R.R.R.R.R.W.R.R.",
"R.R.R.R.R.R.R.R.R.R.R.R.R.R.R.R.E.R.R.R.R.R.R.R.R.R.L. .+.@.@.( o.R.B._ +.>.,.#.O.R.R.R.R.R.R.R.R.R.R.R.R.R.R.R.R.R.R.R.R.R.R.R.",
"R.R.R.R.R.R.R.R.R.R.R.R.R.R.R.R.R.R.R.R.R.R.R.R.R.R.P...) _ _ _ x.R.v. .>.:.#.[ O.R.R.R.R.R.R.R.R.R.R.R.R.R.R.R.R.R.R.R.R.R.R.R.",
"R.R.R.R.R.R.R.R.R.R.R.R.R.R.R.R.R.R.R.R.R.R.R.R.R.R.R.b u u 1 z Y.R.K.t u } #. .=.Y.R.R.R.R.R.R.R.R.R.R.R.R.R.R.R.R.R.R.R.R.R.R.",
"R.R.R.R.R.R.R.R.R.R.R.R.R.R.R.R.R.R.R.R.R.R.R.R.R.R.R...( ] 2 s R.R.R.o.) _ u s N.R.R.R.R.R.R.R.R.R.R.R.R.R.R.R.R.R.R.R.R.R.R.R.",
"R.R.R.R.R.R.R.R.R.R.R.R.R.R.R.R.R.R.R.R.R.R.R.R.R.R.L.#.4.4.` : x.R.Y.X.[ } [ [ v.R.R.R.R.R.R.R.R.R.R.R.R.R.R.R.R.R.R.R.R.R.R.R.",
"R.R.R.R.R.R.R.R.R.R.R.R.R.R.R.R.R.R.R.R.R.R.R.R.R.R.J.@.7.4.{ : s.R.P.&.6.7.4.:.2.1.J.K.R.R.R.R.R.R.R.R.R.R.R.R.R.R.R.R.R.R.R.R.",
"R.R.R.R.R.R.R.R.R.R.R.R.R.R.R.R.R.R.R.R.R.R.R.R.R.R.m.} 4.$. .o.P.E.K.$.7.7.7.4.6.w.5.3.K.R.R.R.R.R.R.R.R.R.R.R.R.R.R.R.R.R.R.R.",
"R.R.).R.R.R.R.R.R.R.R.R.R.R.R.R.R.R.R.R.R.R.R.R.R.R.Y.L.J.J.L.R.R.R.K.#.4.4.4.:.$.<.-.1.R.R.R.R.R.R.R.R.R.R.R.W.R.R.R.R.R.R.R.R.",
"R.R.R.R.R.R.R.R.R.R.R.R.R.R.R.R.R.R.R.R.R.R.R.R.R.R.R.R.R.R.R.R.R.R.W.K.J.J.K.K.K.R.L.R.R.R.R.R.R.R.R.R.R.R.R.R.R.R.R.R.R.R.R.R."
};
