/* XPM */
static char *_941721606558[] = {
/* columns rows colors chars-per-pixel */
"64 64 224 2 ",
"   c #1E1C1B",
".  c #211C1B",
"X  c #21201F",
"o  c #272528",
"O  c #382A27",
"+  c #282C36",
"@  c #333134",
"#  c #383638",
"$  c #48342E",
"%  c #4D352D",
"&  c #453C3B",
"*  c #673930",
"=  c #58423B",
"-  c #2D3341",
";  c #2E384A",
":  c #363D4A",
">  c #323F52",
",  c #413E40",
"<  c #384356",
"1  c #35445B",
"2  c #384B67",
"3  c #394F6E",
"4  c #39506E",
"5  c #3C5678",
"6  c #3E5A7B",
"7  c #484647",
"8  c #4F4C4E",
"9  c #584F56",
"0  c #555357",
"q  c #5B595C",
"w  c #614C47",
"e  c #6F5346",
"r  c #775B4F",
"t  c #655B58",
"y  c #6F6757",
"u  c #48596E",
"i  c #595C65",
"p  c #475D7A",
"a  c #625A62",
"s  c #77586E",
"d  c #59626D",
"f  c #59677A",
"g  c #656365",
"h  c #666668",
"j  c #6C6A6C",
"k  c #776D6B",
"l  c #6C6C72",
"z  c #666E7C",
"x  c #716F70",
"c  c #7A6A72",
"v  c #737370",
"b  c #737275",
"n  c #797575",
"m  c #76777A",
"M  c #7A7579",
"N  c #7C7A7C",
"B  c #A85839",
"V  c #9D6431",
"C  c #D1733D",
"Z  c #E67E3F",
"A  c #8E5F50",
"S  c #836A5D",
"D  c #B67149",
"F  c #B7734F",
"G  c #895769",
"H  c #956D61",
"J  c #90746B",
"K  c #936B77",
"L  c #877A79",
"P  c #A77571",
"I  c #F24857",
"U  c #CF7945",
"Y  c #E07D40",
"T  c #EB5663",
"R  c #DD6E78",
"E  c #DA727B",
"W  c #AB8F32",
"Q  c #D5B439",
"!  c #FDD204",
"~  c #FBD10A",
"^  c #F8CE15",
"/  c #F3CD33",
"(  c #F1CC35",
")  c #988552",
"_  c #8A847C",
"`  c #97817C",
"'  c #A59562",
"]  c #A9867A",
"[  c #B78471",
"{  c #E98442",
"}  c #F38C43",
"|  c #CB987C",
" . c #CFB97A",
".. c #EAC849",
"X. c #EACA5A",
"o. c #E7CC71",
"O. c #3F5D83",
"+. c #415C83",
"@. c #446184",
"#. c #45658A",
"$. c #4A6589",
"%. c #576A84",
"&. c #59718D",
"*. c #486B95",
"=. c #516E90",
"-. c #4B729E",
";. c #58769A",
":. c #6C7584",
">. c #7E7E82",
",. c #4A74A3",
"<. c #4A76A6",
"1. c #4A75A8",
"2. c #4D7CAD",
"3. c #5A7DA6",
"4. c #517DAC",
"5. c #657FA9",
"6. c #8B7B88",
"7. c #B47C97",
"8. c #D37A82",
"9. c #D877A1",
"0. c #E77CAB",
"q. c #7C818F",
"w. c #788598",
"e. c #5781AC",
"r. c #4F83BB",
"t. c #5383B4",
"y. c #5486BA",
"u. c #5888B8",
"i. c #5C8DBD",
"p. c #6986A5",
"a. c #788DA8",
"s. c #6691B9",
"d. c #4E88C6",
"f. c #578DC4",
"g. c #5D92C4",
"h. c #5D95CB",
"j. c #5D98CE",
"k. c #5998D6",
"l. c #6393C4",
"z. c #6899C4",
"x. c #6196CA",
"c. c #659ACC",
"v. c #6A9DCC",
"b. c #659ED3",
"n. c #6BA0CE",
"m. c #65A0D4",
"M. c #6CA2D4",
"N. c #6DA5D9",
"B. c #6FA8D9",
"V. c #75ABDA",
"C. c #73ACDD",
"Z. c #78B0DE",
"A. c #75AEE0",
"S. c #79B3E3",
"D. c #7BB3E3",
"F. c #848284",
"G. c #898686",
"H. c #86868A",
"J. c #8C8A8C",
"K. c #968C8C",
"L. c #93908F",
"P. c #878B94",
"I. c #938F92",
"U. c #8C909C",
"Y. c #959395",
"T. c #9A9697",
"R. c #96969A",
"E. c #9B9A9D",
"W. c #AD948A",
"Q. c #A7989B",
"!. c #A19D9E",
"~. c #B2A793",
"^. c #B5AB99",
"/. c #B5AC9C",
"(. c #828FA2",
"). c #8995A7",
"_. c #959BA7",
"`. c #9D9DA2",
"'. c #889EB4",
"]. c #A29FA3",
"[. c #AF9FA5",
"{. c #B29DA2",
"}. c #B79DAB",
"|. c #9FA3AC",
" X c #A3A2A5",
".X c #ACA2A6",
"XX c #ADA9A5",
"oX c #A7A6AB",
"OX c #A8A7AC",
"+X c #A9A8AD",
"@X c #B0A8A5",
"#X c #B0AEAE",
"$X c #B3B2B4",
"%X c #B8B6B9",
"&X c #BCBBBC",
"*X c #CE8088",
"=X c #CE9A85",
"-X c #C19494",
";X c #C4B38A",
":X c #CD86A5",
">X c #D786A9",
",X c #C795AC",
"<X c #CEB6AF",
"1X c #C0BEBF",
"2X c #C5C0B5",
"3X c #BFBEC1",
"4X c #C1BEC0",
"5X c #C4C3C4",
"6X c #C8C7C8",
"7X c #CBCACC",
"8X c #D2CFCC",
"9X c #D0CFD1",
"0X c #D4D3D4",
"qX c #D8D7D9",
"wX c #DBDBDC",
"eX c #EFE7D6",
"rX c #DEDEE1",
"tX c #E3E2E4",
"yX c #E7E7E8",
"uX c #EAEAEC",
"iX c #F1F0EF",
"pX c #F3F4F5",
"aX c #F6F7F9",
"sX c #FAFBFD",
/* pixels */
"oXoXoXoXoXoXoXoXoXoXoXoXoXoXoXoXoXoXoXoXoXoXoXoXoXoXoXoXoXoXoXoXoXoXXXoXoXoXoXoXoXoXoXoXoXoXoXoXoXoXoXoXoXoXoXoXoXoXoXoXoX+X+XoX",
"oXoXoXoXoXoXoXoXoXoXoXoXoXoXoXoXoXoXoXoXoXoXoXoXoXoXoXoXoXoXoX XK.] P [ W.T.oXoXoXoXoXoXoXoXoXoXoXoXoXoXoXoXoXoXoXoXoXoX+XoX+XoX",
"oXoXoXoXoXoXoXOXoXOXoXoXoXOXoXoXoXoXoXoXoXoXoXoXoXoXoXoXOX.XE.J U Z { { Y D `  XoXoXoXoXoXoXoXoXoXoXoXoXoXoXoXoXoXoXoXoXoX+XoXoX",
"oXoXoXoXoXoXoXoXoXoXoXoXoXoXoXoXoXoXoXoXoXoXoXoXoXoXoXoXOX!.k B Y { } } } Z D J `.oXoXoXoXoXoXoXoXoXoXoXoXoXoXoXoXoXoXoX+XoX+XoX",
"oXoXoXoXoXoXoXoXoXoXoXoXoXoXoXoXoXoXoXoXoXoXoXoXoXoXoXOXoXH.* B C C H { { Y A 7 J.oXoXoXoXoXoXoXoXoXoXoXoXoXoXoXoXoXoXoXoXoX+XoX",
"oXoXoXoXoXoXoXoXoXoXoXoXoXoXoXoXoXoXoXoXoXoXoXoXoXoXoXoXoXb $ * V e v S F e O o P.oXoXoXoXoXoXoXoXoXoXoXoXoXoXoXoXoXoXoXoX+X+XoX",
"oXoXoXOXoXoXoXoXoXoXoXOXoXoXoXoXoXoXoXoXoXoXoXoXoXoXoXoXoXh O O O 7 j t L t o X b oXoXoXoXoXoXoXoXoXoXoXoXoXoXoXoXoXoXoXoX+X+XoX",
"oXoXoXoXoXoXoXoXoXoXoXoXoXoXoXoXoXoXoXoXoXoXoXoX XoX3X9X9X$XJ.t % o & = t n #   j oXoXoXoXoXoXoXoXoXoXoXoXoXoXoXoXoXoXoX+X+X+XoX",
"oXoXoXoXoXoXoXoXoXoXoXoXoXoXoXoXoXoXoXoXoXoXoX|.E.XX5X6X5X6X6XT.e * $ O o # o . x  XoXoXoXoXoXoXoXoXoXoXoXoXoXoXoXoXoXoX+X+X+XoX",
"oXoXoXoXoXoXoXoXoXoXoXoXoXoXoXoXoXoXoXoXoXoXoXoXXXyXiXuX6XqX6XXXL S = = @     X m XXoXoXoXoXoXoXoXoXoXoXoXoXoXoXoXoXoXoXoX+X+XoX",
"oXoXoXoXoXoXoXoXoXoXoXoXoXoXoXoXoXoXoXoXoXoXoXE.+XqXtXqX6XwX0X$X_ L.T._ y =   # Y.oXoXoXoXoXoXoXoXoXoXoXoXoXoXoXoXoXoXoX+XoX+XoX",
"oXoXOXoXoXoXoXoXoXoXOXoXOXoXoXoXoXoXoXoXoXoXE.J.!.5X6X6X2XwX$X Xg k J.!.E.J.j t `.oXoXoXoXoXoXoXoXoXoXoXoXoXoXoXoXoXoXoXoXoX+XoX",
"oXoXoXoXoXOXoXoXoXoXoXOXoXoXoXoXoXoXoXoXoXoXE.N L.$X1X&X&X6XT.Y.v q 8 j _ G.v h I.oXoXoXoXoXoXoXoXoXoXoX+XoXoXoXoXoXoXoXoX+X+XoX",
"oXoXOXoXoXoXoXoXoXoXoXoXoXoXoXoXoXoXoXoXoXoXY.b m !.$X$X#X8X#X+XL._ G. X%X5X#Xq.R.oXoXoXoXoXoXoXoXoXoXoXoXoXoXoXoXoXoXoX+XoX+XoX",
"oXoXoXoXoXoXoXoXoXoXoXoXoXoXoXoXoXoXoXoXoXoXY.j h J.!.%X3XwXwX&XY.G.!.9XyXyXwXqX%XoXoXoXoXoXoXoXoXoXoXoXoXoXoXoXoXoXoXoXoX+XoXoX",
"oXoXoXoXoXoXoXoXoXoXoXoXoXoXoXoXoXoXoXoXoXoXR.v v XX2XwX7X8X&XXXJ.F.6XwXqXwXpXsXaX$X`.oXoXoXoXoXoX+XoXoXoXoXoXoXoXoXoXoXoXoX+XoX",
"oXoXoXoXoXoXoXoXoXoXoXoXoXoXoXoXoXoXoXoXoXoXR.j v XX#XqX0X6XJ.T.N R.0X9X5XuXsXsXsX7Xh E.oXoXoXoXoXoXoXoXoXoXoXoXoXoXoXoX+XoX+XoX",
"oXoXOXoXoXoXoXoXoXoXoXoXoXoXoXoXoXoXoXoXoXoX`.j h Y.E.&XwX8X3XY.N +XqX4X$XyXsXsXaXwXq v oXoXoXoXoXoXoXoXoXoXoXoXoXoXoXoXoX+X+XoX",
"oXoXoXoXoXoXoXoXoXoXOXoXoXoXoXoXOXoXoXoXoXoX`.h t `.#X1XrX7X&XN F.+X0X$X|.9XpXsXsXyX!.] oXoXoXoXoXoXoXoXoXoXoXoXoXoXoXoX+X+X+XoX",
"oXoXoXoXoXoXoXoXoXoXoXoXoXoXoXoXoXoXoXoXoXoX.Xv 0 G.!.#X0X5XwX XJ. X6X|.b %XpXsXsXsX8X( ^.oXoXoXoXoXoXoXoXoXoXoXoXoXoX+X+X|.+XoX",
"OXoXoXoXoXOXoXoXoXoXoXoXoXoXoXoXoXoXOXOXoXoX;X) 7 g v L.&X3X8XXXL.`.%XE.q +XuXaXsXsXeX^ X.XXoX+XoXoXoXoXoXoXoXoXoXoXoXoXOXoX+XoX",
"oXoXoXoXoXoXoXoXoXoXoXoXoXoXoXoXoXoXoX.XXX/.X.W 0 m J. X&X7X#XY.L R.|.$Xq J.wXaXsXsXeX/ ~ / ..;XoXoXoXoXoXoXoXoXoXoXoXoXOX+X+XoX",
"oXoXoXoXoXoXoXoXoXoXoXoXoXoXoXoXoXoXoX^.../ ^ W 0 G.#X7XwX9X0X#X_ E. X6Xx m 6XiXpXiXiXX.! ~ ..^.oXoXoXoXoXoXoXoXoXoXOXoX+X+X+XoX",
"oXoXoXoXoXoXoXoXoXoXoXoXoXoXoXOXoXoXoXXXX.~ ! W * k ] [ <X0XtX5XF.R.7X3X>.t %XqXiXsXsXo.! ( /.oXoXoXoXoXoXoXoXoXoXoXOXOXOX|.+XoX",
"oXoXoXoXoXoXOXoXoXoXoXoXoXoXoXoXoXoXoXoXXX..~ V * H A B =X0XrX6XJ.F.5X7XJ.< J.7XtXuXuX;X! ( XXoXoXoXoXoXoXoXoXOXOXoXoXoXOXOX+XoX",
"oXoXoXoXoXoXoXoXoXoXoXoXoXoXoXoXoXoXoXoXXX( ~ W = y T.W.<X0XwX5XR.N 1X$XN # 0 XXwXtXwX4X../ /.oXoXoXoXoXoXoXoXoXoXoXoXoXOXOX+XoX",
"oXoXoXoXoXoXoXoXoXoXoXoXoXoXoXoXoXoXoXoX@X.. ._ 8 N .X5X6X8XqX3XY.F.F.Y.J.g < G.7XwXwX0X#X^./.oXoXOXoXoXoXoXoXoXoXoXoXoXOX+X+XoX",
"oXoXoXoXoXoXoXoXoXoXoXoXoXoXoXoXOXoXoXoXoX~.J.b < 0 n F.J.!.^.$XT.L N N n g # m 7XtXuXtX&X+X+X+XOX|.oXoXoXoXoXoXoXoXoXoXOX|.+XoX",
"OXoXoXoXoXoXoXoXoXoXoXoXoXoXoXoXoXoXoXoXoXY.M >.7 = n L.F._ W. X!.J.l L _ x # q +XrXyXyX9XOXoXoXOXoXOXoXoXoXoXoXoXoXoXoX+XOX+XOX",
"oXoXoXoXoXoXoXoXoXOXoXoXoXoXoXoXoXoXoXoXoXR.h b H.7 l Y. X%X#Xl q d =.;.:.x , @ m %XwXiXrX+XoXoXOXoXoXoXoXoXoXoXoXoXoXOXOXOX+XOX",
"oXoXoXoXoXoXoXoXoXoXoXoXoXoXOXoXoXoXoXoXoX XY.Y.Q.a F.x g b i @ < p s.V.n.&.8 # g U.3X9X3XOXoXoXoXoXoXoXoXoXoXoXOXoXOXOXOXOX+XoX",
"oXoXoXoXoXOXoXoXoXoXoXoXoXoXoXoXoXoXoXoXoXoXoX[.:Xn  Xl o + @ 2 $.g.V.Z.Z.m.$.# l m F.`.`.oXoXoXoXoXoXoXoXoXoXoXoXoXOX|.+XOX+XoX",
"oXOXoXoXoXoXoXoXoXoXoXoXoXoXoXoXoXoXoXoX+X+X}.,X9.K ].i + 1 1 @.z.S.D.D.S.b.c.2 s 7.c L W.].OXoXoXoXoXoXoXoXoXoXoXoXoXoXOXOXOXOX",
"oXoXoXoXoXoXoXoXoXoXoXoXoXoXoXoXoXoXoXoX+X,X>X>X9.6.9.9 > p +.i.Z.S.'.D.S.h.c.u.s 9.G P | -XOXoXoXoXoXoXoXoXoXoXoXoXoXoXOXOX+XoX",
"oXoXoXoXoXoXoXoXoXoXoXoXoXoXoXoXoXoXoXoXOX}.>X0.9.K 9.a 5 t.4.h.Z.S.D.D.Z.c.l.V.5.9.K J [ ] OXoXOXoXoXoXoXoXoXoXoXoXoXoXOXOXOXoX",
"oXoXoXoXoXoXOXoXoXoXoXOXoXoXoXoXoXOXoXoXOX+X[.,X9.6.].i *.f.,.4.m.C.S.S.A.v.g.M.3.7.P K H P oXoXoXoXoXoXoXoXoXOXoXoXoXoX+XOX+XoX",
"oXoXoXoXoXoXoXoXoXoXoXoXoXoXoXoXoXoXoXoXoXoXoX}.0.}.oXl 6 2.O.5 t.c.N.B.M.i.s.l.@.6.s w r K.oXoXoXoXoXoXoXoXoXoXoXoXoXoXoX+X+XoX",
"oXoXoXoXoXoXoXoXoXoXoXoXoXoXoXoXoXoXoXoXoXoXoXoX}.].oX>.; 5 4 - 3 <.y.i.u.u.c.x.,.H.K.M Y. XoXoXoXoXoXoXoXoXoXoXoXoXoXoX+XoX+XoX",
"oXoXoXoXoXoXoXoXoXoXOXoXoXoXoXoXoXoXoXoXoXoXoXoXoXoXoXU.: 1 1 + o ; 4 #.e.n.A.C.s.P.oXoXOXOXoXoXoXoXoXoXoXoXoXoXoXoXoXoXoX+XoXoX",
"oXoXoXoXoXoXoXoXoXoXoXoXoXoXoXoXoXoXoXoXoXoXoXoXoXoXoX`.p *.6 < + o 1 -.v.D.D.D.v.a.oXoXoXOXoXoXoXoXoXoXoXoXoXoXoXoXoXoXoXoX+XoX",
"oXOXoXoXoXoXoXoXoXoXoXoXoXoXoXoXoXoXoXoXOXoXoXoXoXoXoX`.$.y.g.2.1 + 4 f.B.S.S.S.M.).XXoXOXoXoXoXoXoXoXoXoXoXoXoXoXoXoXoX+XoX+XoX",
"oXoXoXoXoXoXoXoXoXoXoXoXoXoXoXoXoXoXoXoXoXoXoXoXoXoXoXoX%.u.c.c.+.- 5 y.B.S.S.S.M.).oXoXoXoXoXoXoXoXoXoXoXoXoXoXoXoXoXoX+XoX+XoX",
"oXoXoXoXoXoXoXoXoXoXoXoXoXoXoXoXoXoXoXoXoXoXoXoXoXoXoXoX:.t.g.j.#.- 4 y.B.S.Z.Z.n.).oXoXoXoXoXoXoXoXoXoXoXoXoXoXoXoXoXoX+XoX+XoX",
"oXoXoXoXoXoXoXOXoXoXoXoXoXoXoXoXoXoXoXoXoXoXoXoXoX/.;X;Xn -.y.i.#.+ 1 <.j.B.S.Z.n.'.oXoXoXoXoXoXoXoXoXoXoXoXoXoXoXoXoXoXoX+X+XoX",
"oXoXoXoXoXoXoXoXoXoXoXoXoXoXoXoXoXoXoXoXoXoXoXoXoX;X/ ^ j *.t.y.#.< y 6 e.c.B.B.z. XoXoXoXoXOXoXoXoXoXoXoX+XoXoXoXoXoXoX+X+X+XoX",
"oXoXoXoXoXoXoXoXoXoXoXoXoXoXoXoXoXoXoX[.oXoXoXoXoXoX .Q h ,.t.2.5 w Q u -.e.u.i.e.`.oXoXoXoXOXoXoXoXoXoXoXoXoXoXoXoXoXoX+XoX+XOX",
"oXoXOXoXoXoXoXoXoXoXoXoXoXoXoXoXoXoX{.E }.oXoXoXoXoX^.' #.,.2.,.< g  .y -.t.j.c.i.R.oXoXoXoXoX*XoXOXoXoXoXoXoXoXoXoXoXoXoX+X+XoX",
"oXoXoXoXoXoXoXoXoXoXoXoXoXoXoXoXoX[.R I E [.oXoXoXXX;X_ 2.y.4.*.< q.`.g #.i.M.n.n.).oXoXoX.X8.I R [.oXoXoXoXoXoXoXoXoXoXoXoX+XoX",
"oXoXoXoXoXOXoXoXoXoXoXoXoXOXoXoXoXoX{.R {..XoXoXoXoX~.w.h.x.x.*.u R.^.:.g.M.v.l.5._.oXoXOXOX-XT 8.[.OXOXoXoXoXoXoXoXoXoXOXOXOXOX",
"oXoXoXoXoXoXoXoXoXoXoXoXoXoXoXoXoXoXoX{.oXoXoXoXoXoXE.u.b.C.N.t.H.oXE.p.b.A.N.i.&.`.oXoXoX|.[.-XoXOXoXoXoXoXoXoXoXoXoXoXOXOXOXoX",
"oXoXoXoXoXoXoXoXoXoXoXoXoXoXoXoXoXoXoXoXoXoXoXoXoXoX).u.b.N.m.s._.oX(.f.C.S.Z.v.'.oXOXoXoXoXoXoXoXoXoXoXoXoXoXoXoXoXoXoXOXOXOXOX",
"oXoXoXOXoXoXoXoXoXoXoXoXoXoXoXoXoXoXoXoXoXoXoXoXoXoXP.e.b.b.x.a.oX Xw.f.A.S.Z.n.'.oXoXoXoXoXoXoXOXoXoXoXoXoXoXOXoXoXoXoXOXOXOXOX",
"oXoXoXoXoXoXoXoXoXoXOXOXoXoXoXoXoXoXoXoXoXoXoXoXoX_.i <.j.b.g.(.oX`.&.y.m.B.M.z.'.oXoXoXoXoXoXoXoXoXoXoXoXoXoXoXoXoXoXoXOX+X+XoX",
"oXoXoXoXoXOXoXoXoXoXOXOXoXoXoXoXoXoXoXoXoXoXoXoXoX`.u 5 2.f.,.U.oXR.=.y.h.b.c.s.`.oXoXoXoXoXoXoXoXoXoXoXoXoXoXoXoXoXoXoXOXOX+XoX",
"oXoXoXoXoXoXoXoXoXoXoX|.oXoXoXoXoXoXoXoXoXoXoXoXoX`.;.,.,.,.O.q.OXR.p 1.g.x.4.a.oXoXoXoXoXoXoXoXoXoXoXoXoXoXoXoXoXoXoXoX+XOXOXoX",
"oXoXoXoXoXoXoXoXoXoXoXoXoXoXOXoXoXoXoXoXoXoXoXoXoX Xf #.*.*.@.q.OXU.;.u.4.1.#.>.oXoXOXoXoXoXoXoXoXoXoXoXoXoXoXoXoXoXoXoXoXoX+XoX",
"oXoXoXoXoXoXoXoXoXoXoXoXoXoXoXoXoXoXoXoXoXoXoXoXoXoX:.+.5 2 l  XoXP.u @.e.e.-.w.oXoXoXoXoXoXoXoXoXoXoXoXoXoXoXoXoXoXoXoX+XoX+XoX",
"oXoXoXoXoXoXoXOXoXoXoXoXoXoXoXoXoXoXoXoXoXoXoXoXoXoX:.+.#.4 l oXoXoXz +.p +.f `.oXoXoXoXoXoXoXoXoXoXoXoXOXoXoXoXoXoXoXoXoX+X+XoX",
"OXoXoXoXoXoXoXoXoXoXoXOXoXoXoXoXoXoXoXoXOXoXoXoXoX].;.d.2.O.< Y.oXoX:.#.*.#.%._.oXoXoXoXoXoXoXoXoXoXoXoXoXoXoXoXoXoXoXoX+X|.+XoX",
"oXoXoXoXoXoXoXoXoXoXoXoXoXoXoXoXoXoXoXoXoXoXoXoX].H.2.k.d.-.: i R.`.3.h.x.f.4.p.).`.oXoXoXoXoXoXoXoXoXoXoXoXoXoXoXoXoXoX+XoX+XoX",
"oXoXoXoXoXoXoXoXoXoXoXoXoXOXoXoXoXoXoXoXoXoXoX`.6.d -.d.r.$.8 g b :.t.k.k.k.f.j.z.l.a.].oXoXoXoXoXoXoXoXoXoXoXoXoXoXoXoX+XOX+XOX",
"oXoXoXoXoXoXoXoXOXoXoXoXoXoXoXoXoXoXoXoXoXoXoX XY.m P.).).P.z l j 0 1.d.h.d.t.t.u.e.p.E.oXoXoXoXoXoX+X|.oXoXoXoXoXoXoXoXOXOXOXOX",
"oXoXoXoXoXoXoXoXoXoXoXoXoXoXoXoXoXoXoXoXoXoXoXoXoX X`.`.`. X X`.J.j q.(.(.(.)._.|.|.|.`.oXoXoXoXoXOXOXOXoXoXoXoXoXoXoXoXOXOX+XoX",
"oXoXoXoXoXoXoXoXoXoXoXoXoXoXoXoXoXoXoXoXoXoXoXoXoXoXoXoXoXoXOXoX X|.|.OX+X+XoXoX XoXoXoXoXoXoXoXoXOXOXOXoXoXoXoXoXoXoXoXOXOX+XoX"
};
