/* XPM */
static char *_971721606559[] = {
/* columns rows colors chars-per-pixel */
"64 64 222 2 ",
"   c #1E1C1C",
".  c #231F1E",
"X  c #2A2728",
"o  c #352D2B",
"O  c #272B34",
"+  c #2D313B",
"@  c #393639",
"#  c #48342D",
"$  c #4B3731",
"%  c #6E352A",
"&  c #69483A",
"*  c #2D3545",
"=  c #333A48",
"-  c #313D52",
";  c #413F40",
":  c #384357",
">  c #34435B",
",  c #384B68",
"<  c #3A506E",
"1  c #3C5575",
"2  c #3D597C",
"3  c #474547",
"4  c #554B49",
"5  c #474A53",
"6  c #585658",
"7  c #6B534A",
"8  c #685D5D",
"9  c #75635D",
"0  c #475266",
"q  c #585A63",
"w  c #455B77",
"e  c #5F626E",
"r  c #5A677B",
"t  c #636265",
"y  c #686568",
"u  c #6B6A6D",
"i  c #766D6B",
"p  c #676B73",
"a  c #736F72",
"s  c #747275",
"d  c #76767A",
"f  c #797778",
"g  c #7D7B7C",
"h  c #824831",
"j  c #A85938",
"k  c #F8394C",
"l  c #905C45",
"z  c #956756",
"x  c #AC6B4C",
"c  c #92766A",
"v  c #867D7C",
"b  c #AD7968",
"n  c #EF4D5C",
"m  c #C77648",
"M  c #DA7B43",
"N  c #E27E42",
"B  c #E85A66",
"V  c #E2636F",
"C  c #FDD204",
"Z  c #FBD10B",
"A  c #F8CF1D",
"S  c #FAD013",
"D  c #FAD01A",
"F  c #F6CE23",
"G  c #F4CD2B",
"H  c #F8D024",
"J  c #E9C63F",
"K  c #EECA3D",
"L  c #F2CC33",
"P  c #F1CB3B",
"I  c #A38B7E",
"U  c #D88347",
"Y  c #EF8942",
"T  c #F38B44",
"R  c #C5947A",
"E  c #D7BE6D",
"W  c #D9BE6D",
"Q  c #CDB87D",
"!  c #D6BD74",
"~  c #D4BC78",
"^  c #EDC944",
"/  c #E8C64B",
"(  c #E6C558",
")  c #DCC06A",
"_  c #E1C363",
"`  c #3F5E82",
"'  c #425E84",
"]  c #476388",
"[  c #44648B",
"{  c #596B84",
"}  c #476B94",
"|  c #49709D",
" . c #567295",
".. c #69768A",
"X. c #7B7C83",
"o. c #6A7390",
"O. c #4C77A7",
"+. c #527BA8",
"@. c #4F7EB4",
"#. c #667BA3",
"$. c #817F81",
"%. c #907191",
"&. c #D17B84",
"*. c #C978A4",
"=. c #ED7CAD",
"-. c #588990",
";. c #7E818B",
":. c #798497",
">. c #5882AE",
",. c #5383B4",
"<. c #5788B8",
"1. c #5388BC",
"2. c #5C8CBC",
"3. c #768BA7",
"4. c #6A8EB4",
"5. c #6791BA",
"6. c #7AB4BD",
"7. c #4D89C7",
"8. c #578EC5",
"9. c #5D92C5",
"0. c #5C95CB",
"q. c #5A98D4",
"w. c #618FC2",
"e. c #6294C2",
"r. c #6296C9",
"t. c #659ACC",
"y. c #699CCB",
"u. c #669ED1",
"i. c #49BFCA",
"p. c #5ABCC7",
"a. c #6DB6C8",
"s. c #6BA2D3",
"d. c #69A4D8",
"f. c #6EA6D9",
"g. c #77A5D6",
"h. c #7AA3DB",
"j. c #73ABDD",
"k. c #76AEE0",
"l. c #79B3E3",
"z. c #7BB3E3",
"x. c #3EC1CD",
"c. c #42C0CC",
"v. c #858384",
"b. c #878587",
"n. c #8C8A8C",
"m. c #938988",
"M. c #96928F",
"N. c #848B97",
"B. c #8D8E93",
"V. c #928E92",
"C. c #8F929C",
"Z. c #949294",
"A. c #959599",
"S. c #999698",
"D. c #9B9A9D",
"F. c #A8958D",
"G. c #A19B9D",
"H. c #B69193",
"J. c #A3A19F",
"K. c #BAAF97",
"L. c #B6AD9D",
"P. c #B9AE9A",
"I. c #BEB195",
"U. c #888AA6",
"Y. c #8B97A9",
"T. c #949AA6",
"R. c #9D9DA2",
"E. c #A19FA2",
"W. c #AF9EA5",
"Q. c #B39AA3",
"!. c #9EA5AC",
"~. c #8BA8B8",
"^. c #9EA5B6",
"/. c #95A9B5",
"(. c #84B1BA",
"). c #A3A1A5",
"_. c #ABA5A7",
"`. c #ADA9A6",
"'. c #A7A6AB",
"]. c #A9A5A9",
"[. c #ABAAAC",
"{. c #B2ABA2",
"}. c #B1AFAF",
"|. c #A1A5B2",
" X c #ADADB1",
".X c #B0AFB0",
"XX c #B5B3B5",
"oX c #B6B5BA",
"OX c #BCBBBD",
"+X c #C98E8C",
"@X c #C48C92",
"#X c #C9B785",
"$X c #CAB785",
"%X c #C5B48C",
"&X c #C9A497",
"*X c #C1B292",
"=X c #D18CAA",
"-X c #C0BDBE",
";X c #D2C6AA",
":X c #8BA4CA",
">X c #89A3CC",
",X c #94A4C1",
"<X c #83A3D3",
"1X c #BFBFC1",
"2X c #C0BFC1",
"3X c #C4C3C4",
"4X c #C8C6C8",
"5X c #CBCACC",
"6X c #D0CCCE",
"7X c #D4D2D4",
"8X c #D8D7D8",
"9X c #DCDBDC",
"0X c #E4DFD6",
"qX c #EFE8D6",
"wX c #DEDEE1",
"eX c #E3E2E4",
"rX c #E6E7E9",
"tX c #EBEBED",
"yX c #EFEFEF",
"uX c #F2F3F5",
"iX c #F6F6F8",
"pX c #FAFBFD",
/* pixels */
"'.'.'.'.'.'.'.'.[.'.'.'.'.'.'.'.'.'.'.'.'.'.'.'.'.'.'.'.'.'.].E.|.].W.'.'.'.'.'.'.'.'.'.'.'.'.'.'.'.'.'.'.'.'.'.'.'.'.'.'.'.'.'.",
"'.'.'.'.'.'.'.'.'.'.'.'.'.'.'.'.'.'.'.'.'.'.'.'.'.'.'.'.'.].E.F.F.F.G.W.'.'.'.'.'.'.'.'.'.'.'.'.'.'._.'.'.'.'.'.'.'.'.'.'.[.'.'.",
"'.'.'.'.'.'.'.'.'.'.'.'.'.'.'.'.'.'.'.'.'.].'.'.'.'.'.'.E.m.x m N N m b S.'.'.'.'.'.'.'.'.'.'.'.'.'.'.'.'.'.'.'.'.'.'.'.'.'.'.'.",
"'.'.'.'.'.'.'.'.'.'.'.'.'.'.'.'.'.'.'.'.'.'.'.'.'.'.'.'.v x M Y T T T N x m.).'.'.'.'.'.'.'.'.].@X'.'.'.'.'.'.'.'.'.'.'.'.'.'.'.",
"'.'.'.'.'.'.'.'.'.'.'.'.'.'.'.'.'.'.'.'.'.'.'.'.'.'.'.A.7 j M M U N Y Y x 7 n.'.'.'.'.'.'.'.].@XB W._.'.'.'.'.'.'.'.'.'.'.'.'.'.",
"'.'.'.'.'.'.'.'.'.'.'.'.'.'.'.'.'.'.'.'.'.'.'.'.'.'.'.g # h j h 9 c x l # X b.'.'.'.'.'.'._.@XB k V @X].'.'.'.'.'.'.'.'.'.'.'.'.",
"'.'.'.'.'.'.'.'.'.P.*X'.'.'.'.'.'.'.'.'.'.'.'.'.'.'.'.u . # # 4 I t c 4 X . d '.'.'.'.'.'.W.&.n k B &._.'.'.'.'.'.'.'.'.'.'.'.'.",
"'.'.'.'.'.'.'.'.'.! P *X'.'.'.'.'.'.'.'.'.'.'.'.OX4X4X!.y & # o ; 4 i f +   y '.'.'.'.'.'.'.].H.n Q.'.'.'.'.'.'.'.'.'.'.'.'.'.'.",
"'.'.'.'.'.'.'.'.].( C L *XL.*X$XI.[.'.'.'.).D.D.OX5X5X3X3XM.& # # # o 3 X . u [.'.'.'.'.'.'.'.`.@X].'.'.'.'.'.'.'.'.'.'.'.'.'.'.",
"'.'.'.'.'.'.'.'.`.K C C H F S H I.'.'.'.!..X`.9XrXeX3X8X3XJ.I 7 # # o .   . s !.'.'.'.'.'.'.'.'.W.'.'.'.'.'.'.'.'.'.'.'.[.'.'.'.",
"'.'.'.'.'.'._.L.W D C C C C C / `.'.'.'.J.!.`.9XqXeX3X9X7XXXs M.b.9 7 X   X n.'.'.'.'.'.'.'.'.'.'.'.'.'.'.'.'.'.'.'.'.'.'.'.'.'.",
"'.'.'.'.'.{.W G C C C C C C A I.'.'.'.'.J.Z.J.4X7X5X3X9X4X{.p I J.!.n.I 5 4 R.'.'.'.'.'.'.'.'.'.'.'.'.'.'.'.'.[.'.'.'.'.'.'.'.'.",
"'.'.'.'.'.{._ A C C C C C C G L.'.'.'.'.D.;.M.XXOXOXXX5XS.B.s 6 4 u I X.X.u B.'.'.'.'.'.'.'.'.'.'.'.'.'.'.'.'.'.'.'.'.'.'.'.'.'.",
"'.'.'.'.'.'.`.*X( S C C C C Z ! '.'.'.'.S.f g `.XXXXXX5XJ.D.M.g f S.D.J.n.a Z.'.'.'.'.'.'.'.'.'.'.'.'.'.'.'.'.'.'.'.'.'.'.'.'.'.",
"'.'.'.'.'.'.'.'.`.L C C S S C L L.'.'.'.S.s y m.J.}.2X9X7XOXB.X.S.2XeXtXwX3X!.'.'.'.K.`.'.'.'.'.'.'.'.'.'.'.'.'.'.'.'.'.'.'.'.'.",
"'.'.'.'.'.'.'.'._./ C F Q %X! ( I.'.'.'.S.s f J.OX8X3X7X5X.XS.I OX9XwX8XtXiXyXXX).[.( ( K.'.'.'.'.'.'.'.'.'.'.'.'.'.'.'.'.'.'.'.",
"'.'.'.'.'.'.'.'._._ H $X'.'.'.'.].'.'.'.D.a u [.XX9X7X5XM.D.g n.7X7X4XrXpXpXpX5Xs J./ C ^ I.].`.P.$X%X_.'.'.'.'.'.'.'.'.'.'.'.'.",
"'.'.'.'.'.'.'.'.'.%X$X].'.'.'.'.'.'.'.'.D.u 6 Z.S.2X8X6XOXS.s !.8X1XoXrXpXpXiXwX6 f / C C L ( ^ H S W '.'.'.'.'.'.'.'.'.'.'.'.'.",
"'.'.[.'.'.'.'.'.'.'.'.|.'.'.'.'.'.'.'.'.).u y )..X2X9X4XOXg g [.7XoX[.8XiXpXpXrXb.v J C C C C C C D *X'.'.'.'.'.'.'.'.'.'.'.'.'.",
"'.'.'.'.'.'.'.'.'.'.'.'.'.'.'.'.'.'.'.!.'.u 6 M.[.XX9X3X8XS.;.J.5X'.v.oXuXpXpXiX3XQ A C C C C C C ( _.'.'.'.'.'.'.'.[.'.'.'.'.'.",
"'.'.'.'.'.'.'.'.'.'.'.'.'.'.'.'.'.).'.p.6.s 3 y s n.oX3X8X Xn.D.1XE.q XXtXiXpXpX0XH C C C C C C Z Q '.'.'.'.'.'.'.'.'.'.'.'.'.'.",
"'.'.'.'.'._.].'.'.'.'.'.'.'.'.'.'.6.6.i.i.-.4 a I Z.oX3XXXS.v.S.). X6 B.wXiXpXpXqXA C C C C C C Z ) '.'.'.'.'.'.'.'.'.'.'.'.'.'.",
"'.'.'.'.].].].].'.'.'.'.'.'.'.'.'./.i.x.c.-.6 v.J.-X7X5X4XJ.X.C.R.4Xy X.5XyXuXiXuX( C C C C C C C G *X'.'.'.'.'.'.'.'.'.'.'.'.'.",
"'.'.'.'.].'.'.].'.'.'.'.'.'.'.'.'.'.6.i.i.-.4 i F.I.6X8XeX3XI Z.2X1X$.q 3X0XyXiXuX;X^ C C C C C C C / {.'.'.'.'.'.'.'.'.'.'.'.'.",
"'.'.'.'.'.'.'.'.'.[.'.'.'.'.'.'.'.'.6.(./.p % z z j +X0XeX4Xn.v.4X7XZ.3 A.4XrXyXtX1X%XZ C C F / P L L %X'.'.'.'.'.'.'.'.'.'.'.'.",
"'.'.'.'.'.'.'.'.'.|.|.|.'.'.'.'.'.'.'.].].s $ i v b &X8X9X3XS.$.1X1Xv.@ t oXwXrXwX1XL.F C F %X`.{.{.L.`.'.'.'.'.'.'.'.'.'.'.'.'.",
"'.'.'.'.'.'.'.'.'.'.:X:X'.'.'.'.'.'.'.'.'.;.3 f `.3X3X7X8X3XN.I B.E.v.6 3 N.5XwX8X5X{.^ S ~ ).'.'.'.'.'.'.'.'.'.'.'.[.'.'.'.'.'.",
"'.'.'.'.'.'.'.'.'.|.<X<X^.'.'.].'.'.'.).Z.s 3 t v.S.G.{.{.XXn.f g b.v.t + d 3XwXtXeX XW E ].'.'.'.'.'.'.'.'.'.'.'.'.'.'.'.'.'.'.",
"'.'.'.'.'.'.'.'.|.,Xh.h.<X>X,X'.'.'.'.A.;.v.3 ; s b.g m.F.{.J.n.p d s a @ e 1XeXtXrX4X`._.'.'.'.'.'.'.'.'.'.'.'.'.'.'.'.'.'.'.'.",
"'.'.'.'.'.'.'.^.>Xh.h.h.h.h.:X|.'.'.'.Z.y s X.3 a Z.D.`.{.b.a s { ..d f $ @ X.1XwXtX9X[.'.'.'.'.'.'.'.'.'.'.'.'.'.'.'.'.'.'.'.'.",
"'.'.'.'.'.'.'.|.,X:X<Xk.<X^.|.'.'.'.'.].v.n.D.q s f v.Z.$.@ : < >.y.4.r 5 @ t T.5X9X7X[.'.'.'.'.'.|.|.'.'.[.'.'.'.'.'.'.'.'.'.'.",
"'.'.'.'.'.'.'.'.'.|.,Xh.:XW.].].'.'.'.'.].).R.s ).s X + + : 1 <.j.z.l.y.w @ y d B.'.).'.'.'.'.'.'.|.>X|.'.'.'.'.'.'.'.'.'.'.'.'.",
"'.'.'.'.'.'.'.'.'.'.|.<X^.'.'.'.'.'.'.'.'.'.R.g ).y O = : w <.l.z.j.d.y.5.> u n.f m.F.G._.'.'.'.'./.h.:X].].|.].|.].'.'.'.'.'.'.",
"'.'.'.'.'.'.'.'.'.].'.^.|.].'.'.'.'.'.'.'.].R.f E.q = < 1 ,.g.z.z.z.l.5.u.>.e !.8 c R F.'.'.'.'.|.>Xh.<X:X,X|.].'.].'.'.'.'.'.'.",
"'.'.'.'.'.'.'.'.'.'.'.'.'.'.'.'.'.'.'.'.'.'.R.s R.q , O.+.0.k.l.z.z.z.y.e.f.-.T.u c R I '.'.'.,X<Xh.h.h.h.<X/.'.'.'.'.'.'.'.'.'.",
"'.'.'.'.'.'.'.'.'.'.'.'.'.'.'.'.'.].`.'.'.'.R.s T.p ] 8.O.,.d.k.z.<Xz.f.w.f.>.B.g c b v ].'.'.,X<Xh.h.h.:X|.|.'.'.'.'.'.'.'.'.'.",
"'.'.'.'.'.'.'.'.'.'.'.'.'.'.'.'.'.Q W ].'.'.].E.'.p ' @.[ ' 7.u.f.j.f.5.2.r.] $.y 8 z I '.'.'.'.'.^.h.<X^.'.'.'.'.'.'.'.'.'.'.'.",
"'.'._.'.'.'.'.'.'.'.'.'.'.].'.'.*XG L L.'.'.'.'.'.X.- ' 1 * 2 ,.9.9.9.<.t.w.} b.b.8 $.D.'.'.'.'.'.'.,X<X|.'.'.'.'.'.'.'.'.'.'.'.",
"'.'.'.'.'.'.'.'.'.'.'.{.`.`.'.P.P C D *X'.'.'.'.].V.= , > O O > ` } +.t.j.j.w.N.`.!.'.'.'.'.'.'.'.'.|.^.].'.'.].'.'.'.'.'.'.'.'.",
"'.'.'.'.'.'.'.'.'.'.P.^ K / ( P C C Z ~ '.'.'.|.].T.0 w 1 * X X : } e.l.z.z.y.U./././.6.'.'.'.'.'.'.].'.'.'.'.'.'.'.'.'.'.'.'.'.",
"'.'.'.'.'.'.'.'.'.'.{.( Z C C C C C C ^ %X{.].'.'.R.{ 1.8.| - O < 1.f.l.z.l.s.Y.6.c.c.6.`.`.'.'.'.|.'.'.'.'.'.'.'.'.'.'.'.'.'.'.",
"'.'.'.'.'.'.'.'.'.'.'.*XG C C C C C C C S P ! P.'.).{ ,.t.9.' + < 1.j.l.z.l.s.Y.6.x.c.c.(.'.'.'.'.'.'.'.'.'.'.].].'.'.'.'.'.'.'.",
"'.'.'.'.'.'.'.'.'.'.'.'.! Z C C C C C C C C S ! '.]...,.0.0.} + < 1.d.l.l.l.f.3.a.c.c.p.6.'.'.'.'.'.'.'.'.'.'.].].'.'.'.'.'.'.'.",
"'.'.'.'.'.'.'.'.'.'.'.'.*XS C C C C C C Z P Q `.).)...| 2.9.] * > O.s.j.l.l.s.~.'./.c.!.'.'.'.'.'.'.'.'.].'.'.'.].].'.'.'.'.'.'.",
"'.'.'.'.'.'.'.'.'.'.'.'.W C C C C C C Z W L.'.'.'.).r } ,.<.' = : ` <.s.j.j.5.Y.[.!./.'.'.'.'.'.'.'.'.'.].'.'.'.'.'.'.'.'.'.'.'.",
"'.'.'.'.'.[.'.'.'.'.'.L.L C C C C C C G L.'.'.'.'.D.{ O.@.+.' 5 b.w | ,.2.2.>.!.'.[.'.'.'.'.'.'.'.'.'.'.].].'.'.'.'.'.'.'.'.'.'.",
"'.'.'.'.'.'.'.'.'.'.'.Q Z Z G / G C C L L.'.'.'.].N.] | ,.O., q D.r O.<.9.9.<.Y.'.'.'.'.'.'.'.'.'.'.'.P.%X].'.'.'.'.'.'.'.'.'.'.",
"'.'.'.'.'.'.'.'.'.'.'.%XE %X{.`.P.^ C L `.'.'.'.].o.O.@.+.} : f ).y ' 1.f.y.y.T.'.'.'.'.'.'.'.'.'.'.K.P ( [.[.'.'.'.'.'.'.'.'.'.",
"'.'.'.'.'.'.'.'.'.'.'.'.'.'.'.'.'.L.( / `.'.'.'.E.#.2.e.r.| 0 M.@Xo.,.u.u.r.w.Y.'.'.'.'.'.L.W $X*X%XK C L {.'.'.'.'.'.'.'.'.'.'.",
"'.'.'.'.'.'.'.'.'.'.'.'.'.'.'.'.'.'.{.P.'.'.'.'.T.>.s.f.u.@.%.*.*.#.u.k.u.8.o.Q._.'.'.'.'.{.P Z S A C C F P.'.'.'.'.'.'.'.'.'.'.",
"'.'.'.'.'.'.'.'.'.'.'.'.'.'.'.'.'.'.'.'.'.'.'.'.T.,.u.j.f.5.*.=.*.w.f.l.k.y.%.=X[.].'.'.'.'.~ Z C C C C S _ I.'.'.'.'.'.'.'.'.'.",
"'.'.'.'.'.'.'.'.'.'.'.'.'.'.'.'.'.'.'.'.'.'.'.'.B.,.q.d.t.4.).=X%.8.k.z.h.g.~.].'.].'.'.'.'.L.P C C C C C C H _ {.'.'.'.'.'.'.'.",
"'.'.'.'.'.'.'.'.'.'.'.'.'.'.'.'.'.'.'.'.'.'.'.).p O.q.u.0.3.'.R.o.8.u.k.d.t./.'.'.'.'.'.'.'.L.L C C C C C C A / L.'.'.'.'.'.'.'.",
"'.'.'.'.'.'.'.[.'.'.'.'.'.'.'.'.'.'.'.'.'.'.'.!.0 1 ,.8.+.N.'.R. .1.r.u.u.5.T.'.'.'.'.'.'.'.W Z C C C C Z ^ %X]._.'.'.'.'.'.'.'.",
"'.'.'.'.'.'.'.'.'.'.'.'.[.'.'.'.'.'.'.'.'.'.'.R. .} O.O.[ ;.'.D.w +.0.u.8.:.'.'.'.'.'.'.'.L.L Z S S C C G L.'.'.[.'.'.'.'.'.'.'.",
"'.'.'.'.'.'.'.'.'.'.'.'.'.@XW.'.'.'.'.'.'.'.'.).{ } | | [ :.'.Y. .+.@.O.] X.'.].].'.'.'.'.L.! $XK.%XP C K `.'.'.'.'.'.'.'.'.'.'.",
"'.'.'.[.'.'.'.'.'.'.'.'.W.B @X'.].].'.'.'.'.'.)...` , , e R.'.B.'  .,.,.+.:.'.'.].'.'.'.'.'.'.'.'.'.*XP ( '.'.'.'.'.'.'.'.'.'.'.",
"'.'.'.'.'.'.'.'.'.'.'.@XV k n &.Q.'.'.'.'.'.].].X.1 ` , p '.'.).p 1 w ] r A.'.'.'.'.'.'.'.'.'.'.'.'.'.*X%X'.'.'.'.'.'.'.'.'.'.'.",
"'.'.'.'.'.'.'.'.'.'.].@XB k n &.W.'.'.'.'.'.'.!.o.1.@.` 5 T.'.'...] } ] { R.'.'.'.'.'.'.'.'.'.'.'.'.'.'.'.'.'.'.'.'.'.'.'.'.'.'.",
"'.'.'.'.'.'.'.'.'.'.'.'.W.B &.].'.'.'.'.'.'.].B.O.q.8.} - t D.!.#.2.9.,.O.3.T.R.'.'.'.'.'.'.'.'.'.'.'.'.'.'.'.'.'.'.'.'.'.'.'.'.",
"'.'.'.'.'.'.'.'.'.'.'.'.'.@XW.'.'.'.'.'.'.R.b.p | 7.7.| - 6 v X.@.q.q.q.8.9.9.5.3.)._.'.'.'.'.'.'.'.'.'.'.'.'.'.'.'.[.'.'.'.'.'.",
"'.'.'.'.'.'.'.'.'.'.'.'.'.'.'.'.'.'.'.'.'.'.n.s :.3.3.o.p y u q O.7.q.q.1.1.2.2.4.A.'.'.'.'.'.'.'.'.'.'.'.'.'.'.'.'.'.'.'.'.'.'.",
"'.'.'.'.'.'.'.'.'.'.'.'.'.'.'.'.'.'.'.'.'.'.'.D.D.E.'.E.D.D.X.t ..3.3.3.3.Y.T.T.A.R.'.'.'.'.'.'.'.'.'.'.'.'.'.'.'.'.'.'.'.'.'.'.",
"'.'.'.'.'.'.'.'.'.'.'.'.'.'.'.'.'.'.'.'.'.'.'.'.'.'.'.'.'.'.'.A.R.!.'.'.'.'.'.'.'.'.'.'.'.'.'.'.'.'.'.'.'.'.'.'.'.'.'.'.'.'.'.'."
};
