/* XPM */
static char *_991722399863[] = {
/* columns rows colors chars-per-pixel */
"64 64 225 2 ",
"   c #171717",
".  c #090809",
"X  c #251C19",
"o  c #1C2434",
"O  c #302B2A",
"+  c #4D3B30",
"@  c #514136",
"#  c #644B3B",
"$  c #734F37",
"%  c #283146",
"&  c #263F6A",
"*  c #36465F",
"=  c #2A426D",
"-  c #364A6A",
";  c #2A4876",
":  c #324C76",
">  c #385177",
",  c #464648",
"<  c #564C47",
"1  c #525154",
"2  c #5B5B5C",
"3  c #585657",
"4  c #514F50",
"5  c #775B4A",
"6  c #665347",
"7  c #786558",
"8  c #716953",
"9  c #5B5D66",
"0  c #46546E",
"q  c #605F63",
"w  c #5D6068",
"e  c #5C657B",
"r  c #65656A",
"t  c #6B6B6D",
"y  c #646467",
"u  c #766B66",
"i  c #6C6D71",
"p  c #676B77",
"a  c #6F717A",
"s  c #727274",
"d  c #75767B",
"f  c #78797D",
"g  c #925B35",
"h  c #A6673F",
"j  c #D07936",
"k  c #8A735C",
"l  c #8A6B54",
"z  c #937864",
"x  c #9D675B",
"c  c #E16873",
"v  c #E78836",
"b  c #E1BF3E",
"n  c #CDAE3A",
"m  c #FDD204",
"M  c #FBD10C",
"N  c #F7CE1A",
"B  c #FAD013",
"V  c #F9D019",
"C  c #F9CF0E",
"Z  c #F6CE27",
"A  c #EDC83B",
"S  c #F2CC35",
"D  c #E8C220",
"F  c #BCA240",
"G  c #978573",
"H  c #AD9178",
"J  c #B8AF7F",
"K  c #CE844B",
"L  c #C9B056",
"P  c #DABF6E",
"I  c #D2BB78",
"U  c #CFB97F",
"Y  c #DFC15E",
"T  c #EAC848",
"R  c #E4C458",
"E  c #DDC165",
"W  c #DCC06B",
"Q  c #E1C361",
"!  c #2F538A",
"~  c #365888",
"^  c #355D98",
"/  c #2D518C",
"(  c #396299",
")  c #3B68A6",
"_  c #3F6FB0",
"`  c #465F88",
"'  c #496489",
"]  c #586986",
"[  c #456596",
"{  c #597392",
"}  c #697284",
"|  c #7C7D83",
" . c #747986",
".. c #6B7095",
"X. c #436BA5",
"o. c #4674AA",
"O. c #4476B3",
"+. c #477AB8",
"@. c #5178A4",
"#. c #6179A2",
"$. c #457CC3",
"%. c #8A7F84",
"&. c #D17D85",
"*. c #7E8086",
"=. c #7E828C",
"-. c #718398",
";. c #5785B9",
":. c #5382B4",
">. c #718FB0",
",. c #76B5BE",
"<. c #4B82C2",
"1. c #4E87CD",
"2. c #548BC5",
"3. c #558CC9",
"4. c #5E97CD",
"5. c #4C8AD3",
"6. c #5997D6",
"7. c #528ED4",
"8. c #6697CD",
"9. c #6D9ECF",
"0. c #48BFCB",
"q. c #5ABBC6",
"w. c #67B9C3",
"e. c #6BA5DA",
"r. c #74A9D5",
"t. c #5B9CE3",
"y. c #609FE0",
"u. c #5DA0E6",
"i. c #62A6EC",
"p. c #6AADEC",
"a. c #66A7E6",
"s. c #6DB0EC",
"d. c #73B4ED",
"f. c #6DB3F3",
"g. c #73B6F2",
"h. c #75BCF9",
"j. c #75BBF7",
"k. c #71ADE8",
"l. c #3EC1CD",
"z. c #78C0FD",
"x. c #83858B",
"c. c #898A8F",
"v. c #848488",
"b. c #8B8C93",
"n. c #898C96",
"m. c #8F9199",
"M. c #929296",
"N. c #93949B",
"B. c #99999E",
"V. c #9A989A",
"C. c #958F8C",
"Z. c #A99488",
"A. c #B99D84",
"S. c #A59897",
"D. c #B39396",
"F. c #97B59C",
"G. c #BAA886",
"H. c #B5AC9D",
"J. c #B9AE9A",
"K. c #B5AA93",
"L. c #BEB194",
"P. c #ADA595",
"I. c #8C97A6",
"U. c #9699A2",
"Y. c #9D9DA3",
"T. c #959AA7",
"R. c #849ABD",
"E. c #B39DA5",
"W. c #A49FA2",
"Q. c #9DA4AA",
"!. c #9BA8B4",
"~. c #84B2BA",
"^. c #93B0AC",
"/. c #A2A1A6",
"(. c #ADA2A6",
"). c #ADA8A6",
"_. c #A7A6AB",
"`. c #A8A7AB",
"'. c #A3A8AC",
"]. c #A6AAAA",
"[. c #B1AAA2",
"{. c #B1A0AB",
"}. c #AAADB4",
"|. c #A4A8B2",
" X c #AFB2B8",
".X c #B2B5BB",
"XX c #B8B9BC",
"oX c #C7868D",
"OX c #CDB882",
"+X c #C4B48E",
"@X c #CAB787",
"#X c #D8BA9C",
"$X c #C3AD8F",
"%X c #87C38D",
"&X c #E4CAAF",
"*X c #97A6C2",
"=X c #BBBDC3",
"-X c #B9BCC5",
";X c #A7B1C3",
":X c #BEC2C9",
">X c #C2C4CB",
",X c #C6C8CE",
"<X c #C3C4C7",
"1X c #C7CAD2",
"2X c #CBCDD2",
"3X c #CED0D6",
"4X c #CDD1D9",
"5X c #D2D5DB",
"6X c #D6D9DE",
"7X c #D3D5D9",
"8X c #DADDE2",
"9X c #D7DAE2",
"0X c #DEE0E6",
"qX c #DEE0E8",
"wX c #E3E5EA",
"eX c #E6E8EC",
"rX c #EAEBEE",
"tX c #E1E3E5",
"yX c #ECEDF2",
"uX c #E7EAF0",
"iX c #EEF1F5",
"pX c #F2F4F5",
"aX c #F5F6F8",
"sX c #FCFDFD",
"dX c #F7F8F9",
/* pixels */
"_._._._._._._._._.`._.`._._._._._._._._.`._._._._._._._._._._._._._.`.`.`._._._._._._._._._._._._._._._._._._._.`._.`._.`.`.`._.",
"_._._._._._._._._._._._._._._._._._._._._._.`._._._._._._._._._._._.`.).`.`._._._._._._._._._._._._._._._._._._._._._._.`.`._._.",
"_._._._._._._._._._._._._._._._._._.`._._._._._._._._._._.`.`.`._./.W.S.D.S.S._._._._._._._._._._._._._._._._._._._._._.`.`._._.",
"_._.`._._.`._._._._._._._.`._._._._._._._._._._._._.`._._._.`.`./.C.x j v v v K S./._._._._._._._._._.`._._.`._._._._._.`.`._._.",
"_._._._._._._._._._._._._._._._._._._._._._._._._._./.`././.Q.Y.z g j v v v v v v H /._._._._._._._._._._._._._._._._._.`.`.`.`.",
"_._._._._._._._._.`._._._._._._._._._._._._.`._./.Y.U.Y.|./.m.c.6 g j j g $ + + + 5 M._._.`._._._._._._._._._._._._._._.`.`.`.`.",
"_._.`._._._._._._._._._._._._._._._._._._._.`.`./.}./.=X,X=X}.%.< x h # + 5 5 # O   2 /._._._._._.`._._._._._._._._._._.`.`._._.",
"_._._._._.`._._._._._._._._._.`.`._._._._._.`.Y.Q.-X,XuX;Xf %.r y V.< X 5 #X&X&Xu . O N._._._._._._._._.`._._._.`._._.|.`.`._._.",
"_._._._._._._._._._._._._.`.`.`._._._._._._.`.Y.=.T.wX8Xn.p d s 4 2   X l 7 G Z.# .   | `.`.`._._._._._._._._._._._._._.`.`.`._.",
"_._._._._._._._._._.`.`.D.(._.`._._._._._._./.}.6X8XwX-XB.m.d v.+ 2   + A.H G H < .   d /.`.`._._._._._._._._.`._._._.`.`.`.`._.",
"`._._._._._._._._._._.(.c &._._._._._._._._./.XXuXiX9X}.n.c.i U.< y O O H &XG.G.8 .   f /.`._._._._.`._._._._._._._._._.`.`._._.",
"_._._._.`._.`._.`._._._.D.E._._._._._._._._.Y..X2X6X5XQ.U.d x.B.r @ q X # $XH G + . O c._._._.`._._._._._._._._._._._._.`.`._._.",
"_._._._._._._._._._._._.`.`._._._._._._./.'.S./.}.>X>XN.f =X3X8X2X].c.3 X l G l   . 4 Y._._._._.`._._._._._._._._.`._._.`.|.`.`.",
"_._._._._._._._._._.`._.`.`._._._._._._.].'.G.M.m..XXX=.| .X-X,X7X7X:Xd 4 @ k 6 . , n./._._._._._._._._._._._._._._._._.`.`._._.",
"_._._._._._._._._._._._._._.`._._._._.L.OXI P.=X,XXX-X*.x.Y.*.d f M.B.c.i s 2 4 9 i U.|._._._._._.`._._._.`._._._._._._.`.`._._.",
"_._._.`._._.`._._._._._.`._._._._._.).P B b .XyXrX3X8X .B.v.v.}.<XXXB.t t w q 2 3 x &._._._._._._._._._._._._._._._._.|.`.`._._.",
"_._._._._._._.`._._._._._._._._._._._.).Y L  XuXeX4X0Xd d t =XrXpXeX8X.Xc.N.x.s 4 v.D.)._._.`._._._.).(._._._._._._._._.`.`._._.",
"_._._._._._._._._._.`._._._._._._._._._.K.K.9X5XqX4X9Xa w x.9XdXsXsXpX2XY..X7X<Xi f Q._._._._._._._.U P _._._._._._._._.`.`._._.",
"_._.`._._._._._._._._._._._._.`._._.`._.K.K.8XiXqX0X4Xr y -XeXsXsXsXsXwXB./.rXpX<Xs /._._._.`.`.).J.T Z L._._._._._._._.`.`._._.",
"_._._._._._._._._._._._._._._._._._._._.G.).-XuXeX8X1X2 r =XwXsXsXsXsXwX`.m.<X7X Xt c._._._.`.@XT S M m S R OX_._._._._.`.`._._.",
"_._._._._.`._._._._._._._._._._._._._._.V./.,XwX0X8X:X1 i -XyXsXsXsXaX<X.Xc.].yX8Xz =.Q._._._.J.A m m m m S +X_._._._._.`.`.]._.",
"_._._._._._._._._._._._._._._._._._._._.B..X3XwX0X0X-X4 r .XeXpXdXdX6X}.-X%.Y.sXrXs d '._._._._.+XV m m V @X)._._.`._._.`.`._._.",
"_._._._._._._._._._.`.`._._._._._._._._.Y.2XpXyX8X0X X, r =XaXsXdXwX.X}.-X| v.pX5Xf y Y._._._._.J.V B M B +X`._._._._._.`.`._._.",
"_.`.`._._._._._._._._.'.~.!._._._._._._.Y.9XiXiX9XqX}., r ,XpXsXsXpX|..X|.i m.9X`.f i Y._._._._.+XR @X+XT @X`.`._._._._.`.`._._.",
"_._._._._._._._._._.|.w.0.,.'._._._._._.U.1X6XrX6X1Xm., s ,XiXdXdXwXm.N.c.x. XM.d c.-XM._._._._.).)._._.).[._._._._._._.`.|.`.`.",
"_._._._._._._._._._.'.w.l.w.!._._._.`./.Y.1X,X6X9X5Xb., d 3XyXdXaX8X*.s f v.].v.r x.3Xx.B._._._._._._._._._._._._._._._.`.`._.`.",
"_._._._._._._._._._._.~.w.~._._._.`._./.|.5X9XeX9XqXY.1 w :XyXdXpX2Xt v.c.,XeX6X.Xx.2X}.v._._._.`._._._._._._._._._._._.`.`._._.",
"_.`._._._._._._._._._.`._.|._._._.`.`.Y.}.yXpXyX9X8Xb.2 , }.,X7X7X7Xc.d /.pXsXsX<Xx.tX6XN.]._._._._._._._._._._._.`._._.`.`.`._.",
"_._._._._._._._._._._._._._._._._._._.Y.Y.5XwXyX5X4Xf t 2 Y.5XrXpXpX].x.6XsXsXaX_.x.wXdX-X/._._._._._._._._._.`._._._._.`.`._._.",
"_._._._.`._._.|._._._._._._._._._._._.Y.Y.>X2XeX4X:X| y 4 | 3XiXdXdX>X XrXaXyX4Xv.b.8XyX7XY._.`._._._._._._.(._.`._._._._.`._._.",
"_._._._.{.{._._._._._._.`._._._._._._.Y.n.,XqXyX5X1X=.|.}.8 -XiXsXdX3XQ.:X<X=X}.d  .5XsXpXY./.`._._._._._._.E.(._._.`._.`.|._._.",
"_._._.`.{.{._._._.`._._._._._._.`._._./.t | }.5X>X>X=.9  .* c.5XaXdXwX<X6XwXeX5Xx.r =XrXrX6X/._._._._.`._._._._._._.`.`.`.`._._.",
"_._._._._._._._.]./.]./._._.`._._._._._.x.1 1 t  .f p , o o , :XpXyXyXn.T.!.Q.-.| s Q.wXdX0XY.`._._._._._._._._._._._._.`.`.|.`.",
"_._._._._._._._._.F.F.]._._._._._._._._./.N. .9 9 r 9 % ; ( % m.tXpXdX|.@.3.2.1.{ N.*.:XXXXXN.`._._._._._._._._._._._._.`.`._.`.",
"_._._._._._._._.F.%X%XF.]._._._._._._._.`.`._./.V.M.m.w o.7.> w 2XrXtXQ.r.s.6.4.;.B.b.s u H Z.]._.`._._.`._._._.`._._._.`.`._.`.",
"_._._._._._._._.F.%X%XF.]._._._._._.`.`.`.`._._._._.'.} :.p.:.* | [.J.G.>.2.3.p.p.I._.u # k Z.]._._._._._._._._._._._._.`.`._._.",
"_._._._._._._._.`.F.F._._._._._._._._.`._._._._._._._.p O.y.3.' 6 $X#X#Xd [ y.g.j.R.).u + 6 C._._._._._._._._._._.`._._.`.`.|.`.",
"_._.]._.`._._._._._./._._._._._._._._._._._._._._._._.} ( 3.k.;.1 H #X@X7 o.e.z.j.r./.v.6 7 V._._._._._._._._._._._._._._.`._.`.",
"_._.`._._._._._._._.`.`._._._._._._._._._._._._._._.'. .( 6.j.e.0 7 G z p 4.j.z.z.k.Y./.B.N._._._._._.`._._.`._._._._._.`.`._._.",
"_._._._._.`.]._._._._._._._._._._._._._._._._._._._._.n.~ 4.j.d.{ < 6 6 { p.z.z.z.g.I.`._._._._._._._._._._._._._._._._.`.`._._.",
"_._._._._.`._._._._._._.`._.`._._._._._._._._._._._._.N.> 2.d.j.8.' - % ~ a.z.z.z.z.>.]._._._._._._._._._._._._._._.'._.`.|.`.`.",
"_._._._._._._._._._._._.).)._._.`._._._.`._._._._._._.N.- ;.s.g.f.4.o.= = :.s.z.g.g.,.]._._._._._._._._._._._.).'.!.w.'.`._._.`.",
"_._._._._._._._._._._.`.P R `._._._._._.`._._._._._._.M.= o.p.d.g.e.:.> ( ( y.f.g.g.9.S._._._._._._._._._._._.~.w.q.0.~.!.`._._.",
"`._._._._._._._._._._.J.S M @X_._._._._._._._._._._._.n.- o.a.p.p.4.>.=.O._ 2.p.f.g.e.W._._._._._._._._._._.`.!.0.l.l.0.,.]._._.",
"_._._._.`._._._._._._.U B m S J.`._._._._._._._.`._./.a : o.6.a.y.:.B.Q.0 ~ O.a.p.p.e.G./.]._._._._._._._._._.'.,.l.l.,.`.`.`.`.",
"`._._._._._._._._._.).T m m m E `._._._._._._._.`./.=.> ! ) 7.6.2.-._.Q.0 = ~ _ 7.7.>.A L._._._._.`._._._._._.'.,.,.w.,.`.`._.`.",
"_._._._.`._._._._._.L.Z m m m V L.`.`._.`.`._._.].m.[ ( ( ( [ ) ' N.'.n.[ 6.6.:.o.' F C T [.`._.`.`._._._._._._.Q.'.|.!.`.`._._.",
"_._._._._._._._.).).E m m m m m S E E I I @X+X(.'.e ) 3.( > : & d '.'.} o.i.z.p.2.} D m m A R R P I +X`._._._._._.]._._.`.`._._.",
"_._._._.[.H.L.U P A V m m m m m m m m m m m Z J.Y.0 ) t.y.O.~ ` m.'.P.2 ) i.f.h.p.>.N m m m m m m M R `._._._._._._._._.`.`.`.`.",
"_._.`.).P A N M m m m m m m m m m m m m m B P [.B.- ) 6.i.i.y.>.Q.Q.W 8 ^ 6.p.f.p.T.N m m m m m m T J.`._._._._._._._._.`.`.`./.",
"_._.`.).R m m m m m m m m m m m m m m m C Q [./.Y.- / 7.t.t.$.T.].].[.G ; <.u.i.y.J M m m m m m T +X_._._._._._.`._._._.`.`.`.`.",
"_._._._.).P C m m m m m m m m m m m m M R H.`.`.Y.e / O.1.+.../._._.].b.; _ 5.t.2.L m m m m m S +X`./.`._._._._._._._._.`.`._.`.",
"_._.`._._.).OXZ m m m m m m m m m m m T H._._./. .= _ ) ^ ~ n./._._._.B.- ( +.:.[ n m m m m m P `.`._._._._._._._._._._.`.`._._.",
"_._._._._._._.+XS m m m m m m m m m m U _._._.n.0 = ^ $.$.[ T._._._./.n.( :.7.7.3.Z.C m m m m T ).`._._._._._.E.oX_._._.`.`._._.",
"_._._._._._._._.@XM m m m m m m m m m E _._._.a / / X.X.( ` S.Q._._./.] / _ $.<._ G B m m m m Z H._._._._._._.(.oXE.`._.`.`._._.",
"_._._._._._._._.+XM m m m m m m m m m T )._.`.} / 7.t.t.5...&.!._._._.=.; ) 5.t.u.I.N N m m m M +X_._._._._._._._.`.`.|.`.`._._.",
"_._._._._._._._.@XB m m m m m m m m m Z J.(./.| & ) O.+.X...{.`._._._.Y.' 1.4.2.2.#.$X+XOXS M m P _._._._._._._._._._._.`.`.`.`.",
"_._._._._._._.`.U M m m m Z T Z m m m M OX_.Q.} ^ _ O.1.<.#.Y.`._._._.U.[ O.[ o.3.3.#.T._.[.OXT E _._._._._._._.`._._._.`.`._._.",
"_._._._._._._._.P m m B R +X_.J.U S M m E _.Y.9 ; / $.6.6.5.#.{._._._.m./ & / ) 6.y.a.y.8./.`.`.[./._._._._._._._._._._.`.`._._.",
"`._.`._._._._._.P m A U )._._._._.[.@XT E ).Y.=.} / ) 5.i.i.u.>./._._.U. .e e ` X.$.k.d.k.>._._.`.`._._._.|.|._._._._._.`.`._._.",
"_._._._._._._._.I Y L.`._._._.`._._._._.(._._. . . .] @.4.k.k.9.T._.{.U.n.b.n.b.U.I.*X*X;X|.Y._._._.`._._.*X*X_._._._._.`.`.`.`.",
"_._._._._._._._._.)._._._._._._._._._._._.`.`.{.Y.%.n.m.|.;X;X;XT._._._.Y.U.S.N.m.x.x.b.n.b./._._._._._._._./._._._._._.`.`.`._.",
"_.`._._.`._._._._._._.`._._._._.`.`._._._._._._._.Q.R.R.m.Y.W.U./.`._._._._._._._._._./._._._._._._._._._._._._._.`._._.`.`._._.",
"_._._._._._._._._._._._._._._._.|._._._._._._._._./.|.|._._._._.`.`._._._._._._._._._._._._.`._._._._._._._._._._._.`.|.`.`._._."
};
