/* XPM */
static char *_9921721606560[] = {
/* columns rows colors chars-per-pixel */
"64 64 219 2 ",
"   c #0A0A0B",
".  c #120F0F",
"X  c #171515",
"o  c #221C18",
"O  c #2B221D",
"+  c #292728",
"@  c #363133",
"#  c #49382E",
"$  c #47403D",
"%  c #574338",
"&  c #69462E",
"*  c #263650",
"=  c #273D62",
"-  c #463F42",
";  c #3D4A5F",
":  c #2B436B",
">  c #384D6E",
",  c #2A4776",
"<  c #4A4949",
"1  c #4D4E54",
"2  c #545351",
"3  c #565557",
"4  c #5B5A5D",
"5  c #6C5446",
"6  c #645A55",
"7  c #766854",
"8  c #47546D",
"9  c #5A5C62",
"0  c #465774",
"q  c #5E6168",
"w  c #5B6271",
"e  c #646466",
"r  c #66676A",
"t  c #69696D",
"y  c #6C6D72",
"u  c #696C79",
"i  c #6D7078",
"p  c #74757B",
"a  c #77777B",
"s  c #8B5834",
"d  c #B86E38",
"f  c #D07833",
"g  c #845A40",
"h  c #886949",
"j  c #846956",
"k  c #87766C",
"l  c #957B69",
"z  c #C17744",
"x  c #DC8239",
"c  c #E88734",
"v  c #F28C34",
"b  c #D3B237",
"n  c #F3CA0F",
"m  c #FDD204",
"M  c #FBD10D",
"N  c #F6CD18",
"B  c #FAD014",
"V  c #F9D01C",
"C  c #EFC928",
"Z  c #F6CF22",
"A  c #F5CE29",
"S  c #EECA3C",
"D  c #F2CC36",
"F  c #A6914B",
"G  c #988470",
"H  c #A58B76",
"J  c #A49177",
"K  c #BA997C",
"L  c #B3A375",
"P  c #D4884D",
"I  c #CDB151",
"U  c #D9BF68",
"Y  c #D5BD74",
"T  c #D1BB7C",
"R  c #ECC942",
"E  c #EAC849",
"W  c #E4C457",
"Q  c #DDC166",
"!  c #DDC16E",
"~  c #E0C363",
"^  c #2D5089",
"/  c #355888",
"(  c #355D96",
")  c #3A6299",
"_  c #3A69A6",
"`  c #3D71AF",
"'  c #566985",
"]  c #52698E",
"[  c #456696",
"{  c #54739A",
"}  c #66718A",
"|  c #767A87",
" . c #7C7D84",
".. c #697895",
"X. c #416DA5",
"o. c #4673AA",
"O. c #5379AA",
"+. c #4374B3",
"@. c #487BB9",
"#. c #517CB2",
"$. c #447DC5",
"%. c #ED7CAE",
"&. c #7E8188",
"*. c #788496",
"=. c #5580AC",
"-. c #4B82BE",
";. c #5584BB",
":. c #728DAF",
">. c #7A97B8",
",. c #78B5BE",
"<. c #4C84C6",
"1. c #548BC7",
"2. c #5E95CD",
"3. c #518DD5",
"4. c #5896D9",
"5. c #6394CA",
"6. c #6B9BCF",
"7. c #57BCC7",
"8. c #6AB8C2",
"9. c #71B6C0",
"0. c #66A2DC",
"q. c #77A6D8",
"w. c #5A9CE2",
"e. c #5EA0E4",
"r. c #63A3E2",
"t. c #66A8E8",
"y. c #69ADEB",
"u. c #6CAEED",
"i. c #72B4EC",
"p. c #6DB3F3",
"a. c #71B5F2",
"s. c #75BBF7",
"d. c #75BCF9",
"f. c #3EC1CD",
"g. c #42C0CC",
"h. c #78C0FD",
"j. c #828286",
"k. c #83858C",
"l. c #8A888B",
"z. c #9B9089",
"x. c #878A96",
"c. c #8C8D93",
"v. c #8E9196",
"b. c #8E919A",
"n. c #919195",
"m. c #94959B",
"M. c #98989C",
"N. c #9A9A9E",
"B. c #AA9687",
"V. c #BA9E86",
"C. c #A59A98",
"Z. c #9EA294",
"A. c #B5AC9D",
"S. c #B9AE9A",
"D. c #BEB194",
"F. c #BCB098",
"G. c #8C94A4",
"H. c #9599A3",
"J. c #9399A7",
"K. c #9C9CA3",
"L. c #A39EA5",
"P. c #B99CAB",
"I. c #9EA4AB",
"U. c #8DABB6",
"Y. c #98A9B4",
"T. c #82B2BA",
"R. c #A2A1A6",
"E. c #ABA7A7",
"W. c #ADA9A5",
"Q. c #A7A6AB",
"!. c #AAA5AA",
"~. c #A2A8AE",
"^. c #B1AAA2",
"/. c #B1A1AB",
"(. c #A4A8B3",
"). c #AAACB4",
"_. c #AEB1B8",
"`. c #B2B4BB",
"'. c #B7BABE",
"]. c #CAB786",
"[. c #CDB981",
"{. c #C5B48C",
"}. c #C9B688",
"|. c #C3B393",
" X c #CEB296",
".X c #CC88A6",
"XX c #D68CAC",
"oX c #C596AC",
"OX c #E483AD",
"+X c #DCC4AA",
"@X c #E2C7AC",
"#X c #86A3C9",
"$X c #92A4C3",
"%X c #81A3D4",
"&X c #B6BBC3",
"*X c #BABDC4",
"=X c #BEC1C8",
"-X c #C3C6CC",
";X c #C7C8CC",
":X c #C6C9CE",
">X c #C5C9D1",
",X c #CACDD4",
"<X c #CED1D7",
"1X c #D2D5DB",
"2X c #D7D9DC",
"3X c #D6D9DD",
"4X c #D7DAE1",
"5X c #DADDE3",
"6X c #DEE0E5",
"7X c #DFE2E9",
"8X c #E3E5EB",
"9X c #E4E7EB",
"0X c #E9EBED",
"qX c #E7EAF1",
"wX c #EBEDF1",
"eX c #EEF0F2",
"rX c #F3F4F5",
"tX c #F6F7F9",
"yX c #FCFCFD",
/* pixels */
"Q.Q.Q.Q.Q.Q.Q.Q.Q.Q.Q.Q.Q.Q.Q.Q.Q.Q.Q.Q.Q.Q.Q.Q.Q.Q.Q.Q.Q.Q.Q.Q.Q.Q.Q.Q.Q.Q.Q.Q.Q.Q.Q.Q.Q.Q.Q.Q.Q.Q.E.^.Q.Q.Q.Q.Q.Q.Q.Q.Q.Q.Q.Q.",
"Q.Q.Q.Q.Q.Q.Q.Q.Q.Q.Q.Q.Q.^.Q.Q.Q.Q.Q.Q.Q.Q.Q.Q.Q.Q.Q.Q.!./.Q.Q.Q.Q.Q.Q.Q.Q.Q.Q.Q.Q.Q.Q.Q.Q.Q.Q.Q.Q.{.E A.Q.Q.Q.Q.Q.Q.Q.Q.Q.Q.Q.",
"Q.Q.Q.Q.Q.Q.Q.Q.Q.Q.Q.Q.].W ^.Q.Q.Q.Q.Q.Q.Q.Q.Q.Q.Q.!.C.C.C.C.L.Q.!.!.Q.Q.Q.Q.Q.Q.Q.Q.Q.Q.Q.Q.Q.Q.^.W B T Q.Q.Q.Q.Q.Q.Q.Q.Q.Q.Q.",
"Q.Q.Q.Q.Q.Q.Q.Q.Q.Q.Q.^.E B ].Q.Q.Q.Q.Q.Q.Q.Q.Q.R.C.P x v f z l N.!.Q.Q.Q.Q.Q.Q.Q.Q.Q.Q.Q.Q.Q.Q.Q.{.Z m D ^.Q.Q.Q.Q.Q.Q.Q.Q.Q.Q.",
"Q.Q.Q.Q.Q.Q.Q.Q.Q.Q.Q.[.B m E ^.Q.Q.Q.Q.Q.Q.!.R.H P c v v v v d 7 m.R.L.Q.L.Q.Q.Q.Q.Q.Q.Q.Q.Q.Q.W.W m m M Y Q.Q.Q.Q.Q.Q.Q.Q.Q.Q.",
"Q.Q.Q.Q.Q.Q.Q.Q.Q.Q.W.R m m B [.Q.Q.Q.Q.Q.Q.Q.l.g & & & g z f f s 6 m.L.Q.I.L.H.R.Q.Q.Q.S.{.[.Y W V m m m A Q [.|.F.E.Q.Q.Q.Q.Q.",
"Q.Q.Q.Q.Q.Q.^.|.}.T W M m m m D Q T ].D.^.Q.M.< o # # & # # g d s # c.`.&X-X).H.Q.R.Q.A.R B m m m m m m m m m m B Z ! E.Q.Q.Q.Q.",
"Q.Q.Q.Q.Q.S.R V M m m m m m m m m m M V Q E.p X . J +X@X X# O j P.6 p x.l.-XqX&X*XI.R.Q.].V m m m m m m m m m m m D |.Q.Q.Q.Q.Q.",
"Q.Q.Q.Q.Q.Q.T V m m m m m m m m m m m R A.R.t   . k  XB.G h . + t 2 y e r H.6X4Xm.k.H.Q.Q.}.B m m m m m m m m m R D.Q.Q.Q.Q.Q.Q.",
"Q.Q.Q.Q.Q.Q.W.[.A m m m m m m m m m S A.Q.R.4   . 5 l j G J o O 1 < k.u c.K.-XwX,X,XQ.Q.Q.Q.}.V m m m m m m m E F.Q.Q.Q.Q.Q.Q.Q.",
"Q.Q.Q.Q.Q.Q.Q.Q.[.V m m m m m m m R S.Q.Q.R.4   . H {.|.@XG o ; 6 3 m.p H.x.`.5X0XqX`.R.Q.Q.W.S m m m m m m m T Q.Q.Q.Q.Q.Q.Q.Q.",
"Q.Q.Q.Q.Q.Q.Q.Q.W.R m m m m m m m Y Q.Q.Q.Q.t .   7 G V.K & o q # p N.i a b.~.1X2X,X_.K.Q.Q.S.A m m m m m m m Q Q.Q.Q.Q.Q.Q.Q.Q.",
"Q.Q.Q.Q.Q.Q.Q.Q.^.D m m m m m m m ~ Q.Q.Q.Q.c.+   @ l H 7 O 6 G M.;X1X=X_.p I.,X,X).Q.L.Q.Q.|.B m m M B m m m E E.Q.Q.Q.Q.Q.Q.Q.",
"Q.Q.Q.E.Q.Q.Q.Q.F.Z m m m B m m m R ^.Q.Q.Q.R.y X X k l # 2 &.=X8X5X1X-X'.p v.-X`.v.v.m.Q.Q.[.M M R [.|.W B m D ^.Q.Q.Q.Q.Q.Q.Q.",
"Q.Q.Q.Q.Q.Q.Q.Q.{.B M C ! |.! A m A ^.Q.Q.Q.Q.l.e - < 6 e t m.E.m.l.j.v.~.i c.*X`.*X).n.R.Q.T S T A.Q.Q.Q.{.E S ^.Q.Q.Q.Q.Q.Q.Q.",
"Q.Q.Q.Q.Q.Q.Q.Q.}.A Q A.Q.Q.Q.D.~ S |.Q.Q.Q.Q.n.t r t t e y y l.K.R.v.p n.v.k.1X1XqX9X).R.Q.^.^.Q.Q.Q.Q.Q.Q.W.|.W.Q.Q.Q.Q.Q.Q.Q.",
"Q.Q.Q.Q.Q.Q.Q.Q.W.^.).Q.Q.Q.Q.Q.E.^.W.Q.Q.Q.Q.Q.k < y p &.&._.2X9X0X6X(.e &.&.7X<XqXqX_.m.R.Q.Q.Q.Q.Q.Q.Q.Q.Q.Q.Q.Q.Q.Q.Q.Q.Q.Q.",
"Q.Q.Q.Q.Q.Q.).Q.Q.Q.!.!.Q.Q.Q.Q.Q.!.Q.Q.Q.Q.Q.N.y t *X:XR.I.1XtXyXyXrX<Xp r &.5X2X9X4X>Xm.!.Q.Q.Q.Q.Q.Q.Q.Q.Q.Q.Q.Q.Q.Q.Q.Q.Q.Q.",
"Q.Q.Q.Q.Q.Q.Q.Q.Q.Q.Q.Q.Q.Q.Q.Q.Q.Q.Q.Q.Q.Q.R.N.a ;X9X2XN.R.9XyXyXyXyX7X~.3 | 4X2X9XwX9XR.R.Q.Q.Q.Q.Q.Q.Q.Q.Q.Q.Q.!.Q.Q.Q.Q.Q.Q.",
"Q.Q.Q.Q.Q.Q.Q.Q.Q.Q.!.Q.Q.Q.Q.Q.Q.Q.Q.Q.Q.Q.R.j.a <X0X;Xv.'.0XyXyXyXtX8X&X4 t 1X4X0X9X-XH.L.Q.Q.Q.Q.Q.Q.Q.Q.Q.Q.Q.Q.Q.Q.Q.E.Q.Q.",
"Q.Q.Q.Q.Q.Q.Q.Q.Q.Q.Q.Q.Q.Q.Q.Q.Q.Q.Q.Q.Q.Q.N.p j.1X2Xn.v.=X1XyXyXyXyX8X).r e ,X4X8X8X,X).H.Q.Q.Q.Q.Q.Q.Q.Q.Q.Q.Q.Q.Q.Q.Q.Q.Q.Q.",
"Q.Q.Q.Q.Q.Q.Q.Q.Q.Q.Q.Q.Q.Q.Q.Q.Q.Q.Q.Q.Q.Q.C.r H.tXrXc.v.=X).eXyXyXtX0X~.r 3 -X7X8X8X*XQ.H.Q.Q.Q.Q.Q.Q.Q.Q.Q.).Q.Q.Q.Q.Q.Q.Q.Q.",
"Q.Q.Q.Q.Q.Q.Q.Q.Q.Q.Q.Q.Q.Q.Q.Q.Q.Q.Q.Q.Q.Q.v.9 v.rX0Xa l.,XI.,XeXtXyXqX~.9 1 =X8X8X0XqX>XK.Q.Q.Q.Q.Q.Q.Q.Q.Q.Q.Q.).Q.Q.Q.Q.Q.Q.",
"Q.Q.E.Q.Q.Q.Q.Q.Q.Q.Q.Q.Q.!.Q.!.Q.Q.Q.Q.Q.Q.c.e &.<X5X .a :XI.'.rXyXyXeX&X6 1 &X5X5XwXrX1XK.Q.Q.Q.Q.Q.Q.Q.Q.Q.Q.Q.Q.Q.Q.Q.Q.Q.Q.",
"Q.Q.Q.Q.Q.Q.Q.Q.Q.Q.Q.Q.Q.Q.Q.!.Q.Q.Q.Q.Q.Q.N.Q.p l.).m.j.N.H.).wXtXrX0X=X6 1 ).4X4XwXqX<XH.Q.Q./.oXQ.Q.Q.Q.Q.Q.Q.Q.Q.Q.Q.Q.Q.Q.",
"Q.Q.Q.Q.Q.Q.Q.Q.Q.Q.Q.Q.Q.Q.!.oX!.Q.Q.Q.Q.K.c.,Xy 9 N.Q. .p p m.0XyXtXrX;Xy < b.,X4X4X,X=Xm.Q.L.XXOX/.Q.Q.Q.Q.Q.Q.Q.Q.Q.Q.Q.!.Q.",
"Q.Q.Q.Q.Q.Q.Q.Q.Q.!.Q.Q.Q.Q.oXOXP.Q.Q.Q.R.j._.-X .Q.`.;XN.l.p &.8XrXtX0X-Xe 2 (.7X5X8X,X;XK.P.P.OX%.XXoX!.Q.Q.Q.Q.Q.Q.Q.Q.Q.Q.Q.",
"Q.Q.Q.Q.Q.Q.Q.Q.Q.Q.Q.Q.!.oXOX%.XXP./.Q.R.v.2X-Xp 8XyXyX2Xk.p l.,X6X8X<X).< 4 J.7X4XwXwX9XQ..X%.%.%.OXOXP.Q.Q.Q.Q.Q.Q.Q.Q.Q.Q.Q.",
"Q.Q.Q.Q.Q.Q.Q.Q.Q.Q.Q.!.XXOX%.%.%.OXoXQ.R.,XrX,X| 1XyXyXtX`.r '.wX0X6X,XH.2 r l.4X4XwXwX7XQ.L.P.OX%.oX/.!.Q.Q.Q.Q.Q.Q.Q.Q.Q.Q.Q.",
"E.).Q.Q.Q.Q.Q.Q.Q.Q.Q.Q.!./.OXOXXXP.!.Q.L.5XrX1Xa ).wXtXyX9XK.>XrXrXwX,Xp 1 3 p >X,XqX-X-XK.L.Q.oXOX/.Q.Q.Q.Q.Q.Q.Q.Q.Q.Q.Q.Q.Q.",
"Q.Q.Q.Q.Q.Q.Q.Q.Q.Q.Q.Q.Q.Q.oXOX/.Q.Q.R.).tXrX-Xi  .`.<X5X<XR.5XyXyXwX&Xt v.m.b.,X1XwX5X1XK.K.Q./.oX!.Q.Q.Q.E.Q.Q.Q.Q.Q.Q.!.Q.Q.",
"Q.Q.Q.Q.Q.Q.Q.Q.Q.Q.Q.Q.Q.Q./.oX!.Q.Q.R.,X0X0X`.4 ~.1X;X-X*XI.9XtXtX6Xb.q ~.&.&.>X,X8X,XK.p R.Q.Q.Q.Q.Q.Q.Q.Q.Q.Q.Q.Q.Q.Q.Q.Q.Q.",
"Q.Q.Q.Q.Q.Q.Q.Q.Q.Q.Q.Q.Q.Q.Q.Q.Q.Q.R._.rXyX2Xv.y &.=X2X6X<X_.eXtXeX=X1 + + 9 *.I.H.H.a 3 p R.Q.Q.Q.Q.Q.Q.Q.Q.Q.Q.Q.Q.Q.Q.Q.Q.Q.",
"Q.Q.Q.Q.Q.Q.Q.Q.Q.Q.Q.Q.Q.Q.E.Q.Q.Q.R.R.1X7X,X&.v.[ o.{ { w _.eX0X2Xn.* : * @ 4 q 4 1 4 a H.Q.Q.Q.Q.Q.Q.Q.Q.).Q.Q.Q.Q.Q.Q.Q.Q.Q.",
"Q.Q.Q.Q.Q.Q.Q.Q.Q.Q.Q.Q.Q.Q.Q.Q.Q.Q.Q.z.B.n.m.l.v.=.4.0.p.>.;XyXtX<Xq : -.) 1 | a a l.R.E.Q.Q.Q.Q.Q.Q.Q.Q.Q.Q.Q.Q.Q.Q.Q.I.Q.Q.Q.",
"Q.Q.Q.(.Q.Q.Q.R.Q.Q.Q.Q.Q.Q.Q.Q.Q.Q.E.J G % a R.:.t.0.<.e.:.M.+X;XI.; O.e.` &.Q.Q.R.Q.Q.Q.Q.Q.Q.Q.Q.Q.Q.Q.Q.Q.Q.Q.Q.Q.Q.,.Y.Q.Q.",
"Q.Q.Q.,.Y.E.).E.Q.Q.Q.Q.Q.Q.Q.Q.Q.Q.R.G 5 2 l.R.,.s.y.;.o.l. X XB.4 > 2.t.` | Q.Q.Q.Q.Q.Q.Q.Q.Q.Q.Q.Q.Q.Q.Q.Q.Q.).Y.Y.T.g.,.~.Q.",
").E.Y.7.f.T.Y.I.Q.Q.E.Q.Q.Q.Q.Q.Q.Q.Q.l % % l.N.q.s.a.2./ l +X XK 3 =.0.1.) | Q.Q.Q.Q.Q.Q.Q.Q.Q.Q.!.Q.Q.Q.Q.Q.Q.Q.9.g.g.f.g.,.U.",
"I.,.7.g.f.f.7.,.Q.Q.Q.Q.Q.Q.Q.Q.Q.Q.(.K.k j.Z.M.i.h.h.t.O.7 K L 7 0 0.i.1.) *.R.Q.Q.Q.Q.Q.Q.Q.Q.Q.Q.Q.Q.Q.!.Q.Q.E.Y.7.g.f.g.f.,.",
"Y.8.g.f.7.f.8.Q.Q.Q.Q.Q.Q.Q.Q.Q.Q.Q.Q.R.~.~.~.>.h.h.h.h.0.t j j 6 { i.s.3./ v.R.Q.Q.Q.Q.Q.Q.Q.Q.Q.Q.Q.Q.Q.Q.Q.Q.E.~.g.f.f.g.T.I.",
"E.I.g.g.g.g.T.Q.Q.Q.Q.Q.Q.Q.Q.Q.Q.Q.Q.Q.Q.E.Q.#Xh.h.d.d.r.> $ < 8 ;.h.i.-.> N.~.E.E.~.E.Q.Q.Q.Q.Q.Q.Q.Q.Q.Q.Q.Q.Q.Y.g.8.g.g.U.E.",
"Q.~.,.g.g.8.,.Q.Q.Q.Q.Q.Q.Q.Q.Q.Q.Q.Q.Q.Q.Q.I.q.h.h.d.u.;.: : [ =.i.i.i.;.> K.[.{.~.Q.Q.Q.Q.Q.Q.Q.Q.Q.Q.Q.Q.Q.Q.~.I.Y.~.~.,.U.E.",
"Q.Q.,.T.~.I.U.~.Q.Q.Q.Q.).Q.Q.Q.Q.Q.Q.Q.Q.I.K.q.h.a.a.r.) ^ > ;.t.p.i.i.o.; M.E D A.Q.Q.Q.Q.Q.Q.Q.Q.Q.Q.Q.Q.Q.Q.E.Q.Q.Q.Q.Q.~.E.",
"Q.Q.Q.Q.~.Q.Q.E.Q.Q.Q.Q.Q.Q.Q.Q.Q.Q.Q.Q.Q.(.I.0.a.a.y.-.) ` } =.t.i.i.0._ : L N m Q Q.Q.Q.Q.Q.Q.E.Q.Q.Q.Q.Q.Q.Q.~.Q.Q.Q.Q.Q.Q.).",
"Q.Q.Q.Q.E.Q.Q.Q.Q.Q.Q.Q.Q.Q.Q.Q.Q.E.E.~.Q.Q.>.t.u.u.r.-.+.{ K.x.5.y.y.0._ > I m m V D.W.R.E.Q.Q.Q.Q.Q.Q.Q.Q.Q.Q.Q.Q.Q.Q.Q.Q.Q.Q.",
"Q.Q.E.Q.~.Q.Q.Q.Q.Q.Q.Q.Q.Q.Q.Q.Q.~.E.W.W.W.Z.0.t.4.1./ = 9 Q.K.=.4.e.2._ : 7 n m m Z S E E Q A.Q.Q.Q.Q.Q.Q.Q.Q.Q.Q.Q.Q.Q.Q.Q.Q.",
"Q.Q.Q.Q.Q.Q.Q.Q.Q.Q.Q.Q.Q.Q.Q.Q.Q.{.W W S D I *.-.-.X.X.) 0 R.E.*.+.-.-.) ( , F B m m m m M W W.Q.Q.Q.Q.Q.Q.Q.Q.Q.Q.Q.Q.Q.Q.Q.Q.",
"Q.Q.Q.Q.Q.Q.Q.Q.~.Q.Q.Q.Q.Q.Q.Q.Q.{.A m m m m F ) -.0.p.4.] L W.M.0 / ) ) ) ` { b m m m m E F.R.).Q.Q.Q.Q.Q.Q.Q.Q.Q.Q.Q.Q.Q.Q.Q.",
"Q.Q.Q.Q.Q.Q.Q.Q.Q.Q.Q.Q.Q.Q.Q.Q.Q.!.].V m m m b O.t.s.s.r.) J E.!.u = , / -.3._ 7 n m m S |.Q.Q.E.Q.Q.Q.Q.Q.Q.Q.Q.Q.Q.Q.Q.Q.Q.Q.",
"Q.Q.).Q.Q.Q.Q.Q.Q.Q.Q.Q.Q.Q.Q.Q.Q.Q.!.T B m m I 5.a.p.p.4./ i R.R.n.O.<.4.e.4._ 6 n m m ! Q.Q.Q.Q.Q.Q.Q.Q.Q.Q.Q.Q.Q.Q.Q.Q.Q.Q.Q.",
"Q.Q.Q.Q.Q.Q.Q.Q.Q.Q.Q.Q.Q.Q.Q.Q.Q.Q.Q.^.S m m C q.p.y.e.<., p Q.Q.Q.>.4.t.w.3.( 6 n m m Q ~.Q.Q.Q.Q.Q.Q.Q.Q.Q.Q.Q.Q.Q.Q.Q.Q.Q.Q.",
"Q.Q.Q.Q.Q.Q.Q.Q.Q.Q.Q.Q.Q.Q.Q.Q.Q.Q.Q.A.Z m m M Z.e.e.4._ : c.Q.Q.Q.J.@.3.w.$.^ 7 m m m S ^.Q.Q.Q.Q.Q.Q.Q.Q.Q.Q.Q.Q.E.Q.Q.Q.Q.Q.",
"Q.Q.Q.Q.Q.Q.E.Q.Q.Q.Q.Q.Q.Q.Q.Q.Q.Q.Q.{.M m m M L -.4.<._ 8 N.Q.Q.Q.R.' ` $._ ( 3 I C m V F.R.Q.Q.Q.Q.Q.Q.Q.Q.Q.Q.Q.E.Q.Q.Q.Q.Q.",
"Q.Q.Q.Q.Q.E.Q.Q.Q.Q.Q.Q.Q.Q.Q.Q.Q.Q.Q.Q m M S Y G o.@.+./ 0 I.Q.Q.Q.!.c.^ _ @.( : u E.! R {.Q.Q.Q.Q.Q.Q.Q.Q.Q.Q.Q.Q.Q.Q.).E.Q.Q.",
"Q.Q.Q.Q.Q.Q.Q.Q.Q.Q.Q.Q.E.Q.Q.Q.Q.Q.!.Q W {.W.H.O.<.4.4.<.) x.Q.Q.Q.Q.v.) @.+./ : : *.I.!.P.Q.Q.Q.Q.Q.Q.Q.Q.Q.Q.Q.Q.Q.Q.Q.Q.Q.Q.",
"Q.Q.Q.Q.Q.Q.Q.Q.Q.Q.Q.Q.Q.Q.Q.Q.Q.Q.E.W.!.R.!.L.O.<.<.` ) , } Q.Q.!.!.b.[ X.@.+._ ^ p ~.Q.Q.Q.Q.Q.Q.Q.Q.Q.Q.Q.Q.Q.Q.Q.Q.Q.Q.Q.Q.",
"Q.Q.Q.Q.Q.Q.Q.Q.Q.Q.Q.Q.Q.Q.Q.Q.Q.Q.Q.Q.Q.Q.!.H.5.e.w.3._ 8 H.Q.Q.Q.Q.L.{ 3.w.w.$., | Q.Q.Q.Q.Q.Q.Q.Q.Q.Q.Q.Q.Q.Q.Q.Q.Q.Q.Q.Q.Q.",
"Q.Q.Q.Q.Q.Q.Q.Q.).Q.Q.Q.Q.Q.Q.Q.Q.Q.Q.Q.Q.Q.L.:.$.#.#.3.$.} !.Q.Q.Q.!.L..._ +.+._ ^ | (.Q.Q.Q.Q.Q.Q.Q.Q.Q.Q.Q.L.Q.Q.Q.Q.Q.Q.Q.Q.",
"Q.Q.Q.Q.Q.Q.Q.Q.Q.Q.Q.Q.Q.Q.Q.Q.Q.Q.Q.Q.Q.J.>.1.6.$.+.^ _ [ K.Q.Q.Q.Q.G.#.<.1.+.( ( u Q.Q.Q.Q.Q.Q.Q.Q.Q.Q.Q./.(.Q.Q.Q.Q.E.Q.Q.Q.",
"Q.Q.Q.Q.Q.Q.Q.Q.Q.Q.Q.Q.Q.Q.Q.Q.Q.Q.Q.L.>.r.t.y.r.$.( = = 8 K.Q.Q.Q.G.1.3.w.3.$.^ = w K.Q.Q.Q.Q.Q.Q.Q.Q.Q.(.%Xq.(.R.Q.Q.Q.Q.Q.Q.",
"Q.Q.Q.Q.Q.Q.Q.Q.Y.q.$XQ.Q.Q.Q.Q.Q.Q.Q.H.6.q.q.2.#.{ ..x.x.x.L.!./.J.6.u.p.r.$.^ 0 x.k.L.Q.Q.Q.Q.Q.Q.Q.Q.Q.(.q.q.Y.Q.Q.Q.Q.Q.Q.Q.",
"Q.Q.Q.Q.Q.Q.Q.Q.%Xq.#XQ.Q.Q.Q.Q.Q.Q.Q.H.)._.$X(.K.n.k. .k.x.L.(.Q.J.6.q.q.5...*.|  .m.Q.Q.Q./.Q.Q.Q.Q.Q.Q.Q.Y.$XQ.Q.Q.Q.Q.Q.Q.Q.",
"Q.Q.Q.Q.Q.Q.Q.Q.(.$X(.Q.Q.Q.Q.Q.Q.Q.R.L.m.n.v.c.b.M.L.L.Q.Q.Q.Q.Q.H.(.&X).J.H.k.c.Q.Q.Q.Q.Q.Q.Q.Q.Q.Q.Q.Q.Q.Q.Q.Q.Q.Q.).Q.Q.Q.Q.",
"Q.Q.Q.Q.Q.Q.Q.Q.Q.Q.Q.Q.Q.Q.Q.Q.Q.Q.!.!.!.!.(./.L.Q.Q./.Q.Q.Q.Q.!.L.H.L.L.M.L.L.Q.Q.Q.Q.Q.Q.Q.Q.Q.Q.Q.Q.Q.Q.Q.Q.Q.Q.Q.Q.Q.Q.Q.Q."
};
