/* XPM */
static char *_9931721606561[] = {
/* columns rows colors chars-per-pixel */
"64 64 218 2 ",
"   c #100E0C",
".  c #14100F",
"X  c #1C1919",
"o  c #211E1D",
"O  c #30251E",
"+  c #211F26",
"@  c #282527",
"#  c #342E2E",
"$  c #2B2D36",
"%  c #393637",
"&  c #46332B",
"*  c #57443B",
"=  c #704F3B",
"-  c #2C3646",
";  c #2E3D53",
":  c #323E51",
">  c #2F425C",
",  c #36455A",
"<  c #364A64",
"1  c #334C6B",
"2  c #364E6B",
"3  c #324E71",
"4  c #3B5677",
"5  c #484546",
"6  c #5D504E",
"7  c #4A4D55",
"8  c #575457",
"9  c #5D5B5D",
"0  c #70584B",
"q  c #635C5A",
"w  c #72655C",
"e  c #424F60",
"r  c #49566A",
"t  c #585C66",
"y  c #475A74",
"u  c #655C62",
"i  c #596575",
"p  c #646365",
"a  c #696465",
"s  c #64656A",
"d  c #6C6B6D",
"f  c #736B68",
"g  c #666974",
"h  c #6D6D72",
"j  c #747375",
"k  c #74757A",
"l  c #79777B",
"z  c #7C7A7C",
"x  c #915538",
"c  c #92603D",
"v  c #825F4F",
"b  c #876758",
"n  c #9C6E53",
"m  c #B67244",
"M  c #8A7368",
"N  c #827C7A",
"B  c #AB7E67",
"V  c #C37343",
"C  c #FDD204",
"Z  c #FCD10C",
"A  c #F8CF1D",
"S  c #FAD013",
"D  c #F9D019",
"F  c #F7CE23",
"G  c #F8CF22",
"H  c #F4CD2C",
"J  c #EECA3B",
"K  c #F2CC33",
"L  c #F0CB39",
"P  c #95837A",
"I  c #BA8464",
"U  c #AA8B77",
"Y  c #B48C76",
"T  c #CC834F",
"R  c #D68448",
"E  c #E9934C",
"W  c #C89575",
"Q  c #D8BE6A",
"!  c #D6BD75",
"~  c #D3BB7B",
"^  c #ECC943",
"/  c #E9C74B",
"(  c #EAC84D",
")  c #E6C553",
"_  c #E2C45C",
"`  c #DDC165",
"'  c #DEC169",
"]  c #E1C361",
"[  c #365C85",
"{  c #395B81",
"}  c #3D638B",
"|  c #3C6996",
" . c #3E75AA",
".. c #3D7AB1",
"X. c #44668C",
"o. c #556E8E",
"O. c #446E9C",
"+. c #45749E",
"@. c #69768C",
"#. c #747B85",
"$. c #7D7D83",
"%. c #4478A7",
"&. c #447CAC",
"*. c #447FB5",
"=. c #827F82",
"-. c #927582",
";. c #D07A9F",
":. c #E077A5",
">. c #ED7CAE",
",. c #7A828F",
"<. c #4A84B3",
"1. c #4885BA",
"2. c #5489BB",
"3. c #718AA7",
"4. c #7A97B8",
"5. c #4889C3",
"6. c #4B8CC1",
"7. c #4C92C8",
"8. c #5598CA",
"9. c #4E95D2",
"0. c #549BD5",
"q. c #6C9CC3",
"w. c #59A6DA",
"e. c #6CB8C2",
"r. c #6BABD7",
"t. c #72A7D6",
"y. c #5AADE1",
"u. c #62AFE1",
"i. c #63B2E3",
"p. c #66B7E7",
"a. c #6CBCEB",
"s. c #6FC0ED",
"d. c #71C0EE",
"f. c #848384",
"g. c #898585",
"h. c #84858B",
"j. c #8B8789",
"k. c #8B8A8C",
"l. c #938E8D",
"z. c #9B928E",
"x. c #818893",
"c. c #8E8D91",
"v. c #8E9299",
"b. c #949295",
"n. c #96969B",
"m. c #99979A",
"M. c #9B9A9D",
"N. c #B0998E",
"B. c #A29792",
"V. c #A29C9C",
"C. c #A3A69B",
"Z. c #B5AC9D",
"A. c #BAAF99",
"S. c #BDB095",
"D. c #BCB098",
"F. c #8895A6",
"G. c #9D9DA1",
"H. c #959CA8",
"J. c #A19FA3",
"K. c #AD9BA6",
"L. c #B59EA8",
"P. c #BD9BAB",
"I. c #9DA4AB",
"U. c #8CAFB6",
"Y. c #9BA6B5",
"T. c #87B1B9",
"R. c #A2A2A5",
"E. c #ABA7A5",
"W. c #ADA9A5",
"Q. c #A7A6AB",
"!. c #AAA5AA",
"~. c #A3A8AC",
"^. c #ABABAC",
"/. c #B2ABA1",
"(. c #B2A0AB",
"). c #B3ACA8",
"_. c #A2A8B3",
"`. c #AEAEB2",
"'. c #B3B3B4",
"]. c #B6B7BA",
"[. c #BCBBBC",
"{. c #CAB786",
"}. c #CEB981",
"|. c #C5B48D",
" X c #C8B689",
".X c #C1B391",
"XX c #DE87AD",
"oX c #D68CAC",
"OX c #DB89AD",
"+X c #CA93AC",
"@X c #C298AC",
"#X c #D190AC",
"$X c #E483AD",
"%X c #E880AD",
"&X c #C0BDBC",
"*X c #C2C1BF",
"=X c #89A3C9",
"-X c #92A5C2",
";X c #80A3D5",
":X c #BEBFC1",
">X c #BEC2C8",
",X c #C4C3C4",
"<X c #C6C8CA",
"1X c #CCCBCB",
"2X c #D0CFCE",
"3X c #CCCDD1",
"4X c #D4D3D3",
"5X c #D6D8D9",
"6X c #DCDBDC",
"7X c #E0DFDF",
"8X c #DADDE1",
"9X c #DEE2E4",
"0X c #E5E4E4",
"qX c #E8E8E8",
"wX c #EBECEA",
"eX c #F1F0EE",
"rX c #F3F3F2",
"tX c #F9F8F7",
/* pixels */
"Q.Q.Q.Q.Q.Q.Q.Q.Q.Q.Q.Q.Q.Q.Q.Q.Q.Q.Q.Q.Q.Q.Q.Q.Q.Q.Q.Q.Q.Q.Q.Q.Q.Q.Q.Q.Q.Q.Q.Q.Q.Q.Q.Q.Q.Q.Q.Q.Q.Q.Q.Q.Q.Q.Q.Q.Q.Q.Q.Q.Q.Q.Q.Q.",
"Q.Q.Q.Q.Q.Q.Q.Q.Q.Q.Q.Q.Q.Q.Q.Q.Q.Q.Q.Q.Q.Q.Q.Q.Q.Q.Q.Q.Q.Q.Q.Q.Q.Q.Q.Q.Q.Q.Q.Q.Q.Q.Q.Q.Q.Q.Q.Q.Q.Q.Q.Q.Q.Q.Q.Q.Q.Q.Q.Q.Q.Q.Q.Q.",
"Q.Q.Q.Q.Q.Q.Q.Q.Q.Q.Q.Q.Q.Q.Q.Q.Q.Q.Q.Q.Q.Q.Q.Q.Q.B.Y I I B P V.R.!.Q.Q.Q.Q.Q.Q.Q.Q.Q.Q.Q.Q.Q.Q.Q.Q.Q.Q.Q.Q.Q.Q.Q.Q.Q.Q.Q.Q.Q.Q.",
"Q.Q.Q.Q.Q.Q.Q.Q.Q.Q.Q.Q.Q.Q.Q.Q.Q.Q.Q.Q.Q.Q.Q.R.U T E E E R m v k.!.Q.Q.Q.R.m.J.Q.Q.Q.Q.Q.Q.Q.Q.Q.Q.Q.Q.Q.Q.Q.Q.Q.Q.Q.Q.Q.Q.Q.Q.",
"Q.Q.Q.Q.Q.Q.Q.Q.Q.Q.Q.Q.Q.Q.Q.Q.Q.Q.Q.Q.Q.Q.E.P V E E E E R V c * l.>X].'.`.v.n.R.Q.Q.Q.Q.Q.Q.Q.Q.Q.Q.Q.Q.Q.Q.Q.Q.Q.Q.Q.Q.Q.Q.Q.",
"Q.Q.Q.Q.Q.Q.Q.Q.Q.Q.Q.Q.Q.Q.Q.Q.Q.Q.Q.Q.Q.E.f.= n m R R T W Y x & 5 b.].4X'.C.n.k.Q.Q.Q.Q.Q.Q.Q.Q.Q.Q.Q.Q.Q.Q.Q.Q.Q.Q.Q.Q.Q.Q.Q.",
"Q.Q.Q.Q.Q.Q.Q.Q.Q.Q.Q.Q.Q.Q.Q.Q.Q.Q.Q.Q.Q.Q.l @ O * = n ).<X<Xf & O P ~.5X2X[.n.l Q.Q.Q.Q.Q.Q.Q.Q.Q.Q.Q.Q.Q.Q.Q.Q.Q.Q.Q.Q.Q.Q.Q.",
"Q.Q.Q.Q.Q.Q.Q.Q.Q.Q.Q.W.).Q.Q.Q.Q.Q.Q.Q.Q.R.z X * E.N * b.P c.c.f & l M.>X[.V.k.=.m.G.Q.Q.Q.Q.Q.Q.Q.Q.A.~ ^.Q.Q.Q.Q.Q.Q.Q.Q.Q.Q.",
"Q.Q.Q.Q.Q.Q.Q.Q.Q.Q.E.` ~ Q.Q.Q.Q.Q.Q.Q.Q.Q.z X % w q % q a 9 k.~.l q I.*X6X*X6X'.,.z M.Q.Q.Q.Q.Q.Q.Q.! A  XQ.Q.!.Q.Q.Q.Q.Q.Q.Q.",
"Q.Q.Q.Q.Q.Q.Q.Q.Q.Q..XG K Z.Q.Q.Q.Q.Q.Q.Q.Q.$.X . . . @ p p 9 l.~.d 5 b.<X0X4X9X^.P d h.Q.Q.Q.Q.Q.Q.A.L C ( W.Q.Q.Q.Q.Q.Q.Q.Q.Q.",
"Q.Q.Q.Q.Q.Q.Q.Q.Q.^._ C Z ! Q.Q.Q.Q.Q.Q.Q.R.g.+       X k.<X^.R.c.N a k.*X0X,X1X'.,.s h R.Q.E.W./.A.` Z C S }././.Q.Q.Q.Q.Q.Q.Q.",
"Q.Q.Q.Q.Q.Q./.A.|.Q A C C H ! {.S.Z.E.Q.Q.Q.m.&     . o g.[.).W.].~.j p E.9X*X^.M.P p 9 n.E.~ ^ L F S C C C S H ^ ) A.Q.Q.Q.Q.Q.",
"Q.Q.Q.Q.Q.A.( A Z C C C C C C Z S ) W.Q.Q.Q.Q.z X   X 5 l.^.[.&XB.P M p l.5X:Xb.'.'.f.d f.~.S.H C C C C C C C C C ( S.Q.Q.Q.Q.Q.",
"Q.Q.Q.Q.Q.!.}.G C C C C C C C C K |.Q.Q.Q.Q.Q.R.d @ 5 z W.'.B.z.z.j.f w f ].1X).,X5XC.k l ~.Q.S.F C C C C C C C ^ .XQ.Q.Q.Q.Q.Q.",
"Q.Q.Q.Q.Q.Q.Q.~ H C C C C C C K S.Q.Q.Q.Q.Q.Q.Q.m.8 d C.N.z.2XwXeX7XI.t 6 l.1X'.,X<Xl.a d I.~.Q.|.S C C C C C L S.Q.Q.Q.Q.Q.Q.Q.",
"Q.Q.Q.Q.Q.Q.Q.Q.! C C C C C C ~ Q.Q.Q.Q.Q.Q.Q.Q.R.f.N m.N 2XqXwXwXqX1X,.7 p &X1X<X&XC.,.a G.E.Q.A.G C C C C C ( Q.Q.Q.Q.Q.Q.Q.Q.",
"Q.Q.Q.Q.Q.Q.Q.Q.Q C C C C C C ~ Q.Q.Q.Q.Q.Q.Q.Q.Q.m.z V.).6XwXqX0X6X>XH.r p *X6X5X6X1XE.j G.Q.Q.|.S C Z Z C C K /.Q.Q.Q.Q.Q.Q.Q.",
"Q.Q.Q.Q.Q.Q.Q.Q._ C Z A F Z C _ Q.Q.Q.Q.Q.Q.Q.!.G.=.g.h 1X0XtXtXrX6X'.v.r t ,X7XqXwX7X^.h b.Q.Q.! Z H ` {.^ Z G A.Q.Q.Q.Q.Q.Q.Q.",
"Q.Q.Q.Q.Q.Q.Q./.^ A _ D.A.' F ^ /.Q.Q.Q.Q.Q.Q.J.b.p j z 1X4XqX7X6X<XI.z r e ^.0X0XeX0X*Xk.k.Q.Q.~ ` S.Q.Q.E.{./ .XQ.Q.Q.Q.Q.Q.Q.",
"Q.Q.Q.Q.Q.Q.Q.).! S.Q.Q.Q.E.S.}.^.Q.Q.Q.Q.Q.Q.j 9 l d z [.,X<X2X<X`.k.t r 2 M.qXqXeXwX1XM.f.Q.Q.Q.E.Q.Q.Q.Q.Q.^.E.Q.Q.Q.Q.Q.Q.Q.",
"Q.Q.Q.Q.Q.Q.Q.Q.Q.Q.Q.Q.Q.Q.Q.Q.Q.Q.Q.Q.Q.Q.Q.h # t 9 s H.].3X3X<X~.h 5 y 2 k.9X0XeXwX4XW.z R.Q.Q.Q.Q.Q.Q.Q.Q.Q.Q.Q.Q.Q.Q.Q.Q.Q.",
"Q.Q.Q.Q.Q.Q.Q.Q.Q.Q.Q.Q.Q.Q.Q.Q.Q.Q.Q.Q.Q.Q.Q.j % 9 9 c.G.5XqXqX5XI.7 - X., z 6XqXwXwX2XC.h m.Q.Q.Q.Q.Q.Q.Q.Q.Q.Q.Q.Q.Q.Q.Q.Q.Q.",
"Q.Q.Q.Q.Q.Q.Q.Q.Q.Q.Q.Q.Q.Q.Q.Q.Q.Q.Q.Q.Q.Q.Y.n.k 9 a I.`.qXwXwX8Xn.# ; } , d 4XqX4X1X).b.d b.Q.Q.Q.Q.Q.Q.Q.Q.Q.Q.Q.Q.Q.Q.Q.Q.Q.",
"Q.Q.Q.Q.Q.Q.Q.Q.Q.Q.Q.Q.Q.Q.Q.Q.Q.Q.Q.Q.Q.Q.~.Q.b.8 a I.'.wXrX8X4Xc.@ - } , 9 4X0X5X7X5X'.l v.Q.Q.Q.Q.Q.Q.Q.Q.Q.!.Q.Q.Q.Q.Q.Q.Q.",
"Q.Q.Q.Q.Q.Q.Q.L.Q.Q.Q.Q.Q.Q.Q.Q.Q.Q.Q.Q.Q.Q.Q.Q.J.h.=.J._.9XtXrX>X,.@ > 4 r N *XqXqXrXqX&Xg.k.Q.Q.Q.(._.Q.Q.Q.Q.L.E.Q.Q.Q.Q.Q.Q.",
"Q.Q.Q.Q.Q.Q.Q.L.!.Q.Q.Q.Q.P.L.Q.Q.Q.Q.Q.Q.Q.Q.Q.Q.,Xn.R.3XqX9X9X>Xd # t ,.C.d M.7XwXrXqX,Xl.f.Q.Q.L.$X(.Q.Q.Q.Q.Q.!.Q.Q.Q.Q.Q.Q.",
"Q.Q.Q.Q.Q.Q.Q.Q.Q.Q.Q.Q.Q.XXoX!.Q.Q.Q.Q.Q.Q.Q.Q.Q.,XV.'.rX9X5X>Xv.7 * h.n.k , l.0XqXrXwX1Xh.l Q.Q.+X>.+XQ.Q.Q.Q.Q.Q.!.Q.Q.Q.Q.Q.",
"Q.Q.Q.Q.Q.Q.Q.Q.Q.Q.Q.Q.P.>.$X!.Q.Q.Q.Q.Q.Q.Q.Q.Q.:X).4XrXqX8X].d @ $ < 4 < - z &X7XeXqX,XP h R.!.XX>.$X!.Q.Q.Q.Q.Q.Q.Q.Q.Q.Q.Q.",
"Q.Q.Q.Q.Q.Q.Q.Q.Q.Q.Q.!.oX>.>.@XQ.Q.Q.Q.Q.Q.Q.Q.G.`.`.qXtXwX3XF.% # 0 f h p q w j.4X0X5X[.h.h K.+X>.>.>.+XL.Q.Q.Q.Q.Q.Q.Q.Q.Q.Q.",
"Q.Q.Q.Q.Q.Q.Q.Q.Q.(.@XoX>.>.>.%X+X(.Q.Q.Q.Q.Q.Q.J.b.3XeXqX5XI.8 @ % 6 f M P M q f.<X0X7X[.k.u ;.>.>.>.>.>.>.OXP.Q.Q.Q.Q.Q.Q.Q.Q.",
"Q.Q.Q.Q.Q.Q.Q.Q.@X$X>.>.>.>.>.>.>.$XoX!.Q.Q.Q.Q.`.'.4XrX9X_.s @ $ < | X.i , % * d M.'.`.m.k.-.:.>.>.>.>.>.>.$X#X!.Q.Q.Q.Q.Q.Q.Q.",
"Q.Q.Q.Q.Q.Q.Q.Q.(.+X$X>.>.>.>.>.%X$X+XQ.Q.Q.Q.!.'.wX,X:X:X@.$ + > | 7.8.1.4 , x.G.m.G.G.R.R.K.+X$X>.>.>.OX@XL.!.Q.Q.Q.Q.Q.Q.Q.Q.",
"Q.Q.Q.Q.Q.Q.Q.Q.Q.Q.(.+X%X>.>.oXP.!.Q.Q.Q.Q.Q.Q.m.4XqX~.i ; + $ < &.y.w.1.| < C.Q.Q.Q.Q.Q.Q.Q.Q.).$X>.%XP.Q.Q.Q.Q.Q.Q.Q.Q.Q.Q.Q.",
"Q.Q.Q.Q.Q.Q.Q.Q.Q.Q.Q.Q.oX>.%XP.Q.Q.Q.Q.Q.Q.Q.V.U U V.$.X.> $ , | 2.y.w.1.4 t I.Q.Q.Q.Q.Q.Q.Q.Q.Q.+X>.oX!.Q.Q.Q.Q.Q.Q.Q.Q.Q.Q.Q.",
"Q.Q.Q.Q.Q.Q.Q.Q.Q.Q.Q.Q.@X%XoXQ.Q.Q.Q.Q.Q.Q.K.N.W W n x.o.> : } 7.8.w.w.<., s I.Q.Q.Q.Q.Q.Q.Q.Q.Q.(.%X@XQ.Q.Q.Q.Q.Q.Q.Q.Q.Q.Q.Q.",
"Q.Q.Q.Q.Q.Q.Q.Q.Q.Q.Q.Q.!.XX@XQ.Q.Q.Q.Q.Q.Q.K.Y W W M n.o.4 4 2.i.i.8.&.} < c.~.Q.Q.Q.Q.Q.Q.Q.Q.Q.Q.@X!.Q.Q.Q.Q.Q.Q.Q.Q.Q.Q.Q.Q.",
"Q.Q.Q.Q.Q.Q.Q.Q.Q.Q.Q.Q.Q.(.!.Q.Q.Q.Q.Q.Q.Q.M.M B B N K.y , 4 8.i.u.1.3 , ,.E.R.Q.Q.Q.Q.Q.Q.Q.Q.Q.Q.Q.Q.Q.Q.Q.Q.Q.Q.Q.Q.Q.Q.Q.Q.",
"Q.Q.Q.Q.Q.Q.Q.Q.Q.Q.Q.Q.Q.Q.Q.Q.Q.Q.Q.Q.Q.Q.M.b v 0 j.n.r 2 +.r.p.w.<.; 7 C.Q.Q.Q.Q.Q.Q.Q.Q.Q.Q.Q.Q.Q.Q.Q.Q.Q.Q.Q.Q.Q.Q.Q.Q.Q.Q.",
"Q.Q.Q.Q.Q.Q.Q.Q.Q.Q.Q.Q.Q.Q.Q.!.Q.Q.Q.Q.Q.Q.G.M 0 0 j.x.} <.r.a.s.i.%.> N ~.Q.Q.Q.Q.Q.Q.Q.Q.Q.Q.Q.Q.Q.Q.Q.Q.Q.Q.Q.Q.Q.Q.Q._.Q.Q.",
"Q.Q.^.Y.Y.Q.Q.Q.Q.Q.Q.Q.Q.Q.Q.Q.Q.Q.Q.Q.Q.Q.Q.V.N g.M.3.<.w.a.d.s.w...y m.Q.Q.Q.Q.Q.Q.Q.Q.Q.Q.Q.Q.Q.Q.Q.Q.Q.Q.Q.Q.Q.Q.T.e._.Q.Q.",
"Q.Q.~.e.e.~.Q.Q.Q.Q.Q.Q.Q.Q.Q.Q.Q.Q.Q.Q.Q.Q.Q.Q.Q.Q.Q.4.7.u.d.d.p.w. .r R.Q.Q.Q.Q.Q.Q.Q.Q.Q.Q.Q.Q.Q.Q.Q.Q.Q.Q.Q.Q.Q.Q.U.e.Y.Q.Q.",
"Q.Q.Q.U.U.Q.Q.Q.Q.Q.Q.Q.Q.Q.Q.Q.Q.Q.Q.Q.Q.Q.Q.Q.Q.Q.Q.q.w.p.d.s.i.1.4 s R.Q.Q.Q.Q./.D.Q.Q.Q.Q.Q.Q.Q.Q.Q.Q.Q.Q.Q.Q.Q.Q.Q.~.~.Q.Q.",
"Q.Q.Q.Q.Q.Q.Q.Q.Q.Q.Q.Q.Q.Q.Q.Q.Q.Q.Q.Q.Q. X{.Q.Q.Q.R.t.r.p.a.a.w.| 3 g Q.Q.Q.Q.Q.}.H D.Q.Q.Q.Q.Q.Q.Q.Q.Q.Q.Q.Q.Q.Q.Q.Q.Q.Q.Q.Q.",
"Q.Q.Q.Q.Q.Q.Q.Q.Q.Q.Q.Q.Q.Q.Q.Q.Q.Q.Q.Q.Z.L ^ /.Q.Q.R.r.a.p.a.i.0. ., ,.Q.Q.Q.Q.W.( C _ E.Q.Q.Q.Q.Q.Q.Q.Q.Q.Q.Q.Q.Q.Q.Q.Q.Q.Q.Q.",
"Q.Q.Q.Q.Q.Q.Q.Q.Q.Q.Q.Q.Q.Q.Q.Q.Q.Q.Q.R.` C A |.Q.Q.~.r.p.s.p.w.%.| y b.~.~.Q.Q..XD C Z {.Q.Q.Q.Q.Q.Q.Q.Q.Q.Q.Q.Q.Q.Q.Q.Q.Q.Q.Q.",
"Q.Q.Q.Q.Q.Q.Q.Q.Q.Q.Q.Q.Q.Q.Q.Q.E.^./.|.G C C ] Q.Q.H.t.p.y.8.<.4 > #.~.E.~.E.Z.` C C C K ' ~ }.{.Z.Q.Q.Q.Q.Q.Q.Q.Q.Q.Q.Q.Q.Q.Q.",
"Q.Q.Q.Q.Q.Q.Q.Q.Q.Q.Q.Q.Q.Q./.] / J L G C C C H ~ D.E.e.i.8.1.| 4 - p C. X! ) H S C C C C C C C F |.Q.Q.Q.Q.Q.Q.Q.Q.Q.Q.Q.Q.Q.Q.",
"Q.Q.Q.Q.Q.Q.Q.Q.Q.Q.Q.Q.Q.Q.W._ Z C C C C C C C Z G J C.8.<.+.X.} 3 > P / C C C C C C C C C C D ~ ^.Q.Q.Q.Q.Q.Q.Q.Q.Q.Q.Q.Q.Q.Q.",
"Q.Q.Q.Q.Q.Q.Q.Q.Q.Q.Q.Q.Q.Q.Q.Z.( C C C C C C C C C C Q q.8.1.<.5. .; $.Z.) C C C C C C C C S ' /.Q.Q.Q.Q.Q.Q.Q.Q.Q.Q.Q.Q.Q.Q.Q.",
"Q.Q.Q.Q.Q.Q.Q.Q.Q.Q.Q.Q.Q.Q.Q.Q.A.^ C C C C C C C Z ) Z.F.<.<.7.7.1.[ r G.W.] S C C C C C C / /.Q.Q.Q.Q.Q.Q.Q.Q.Q.Q.Q.Q.Q.Q.Q.Q.",
"Q.Q.Q.Q.Q.Q.^.Q.Q.Q.Q.Q.Q.Q.Q.Q.Q.! C C C C C C S Q E.R.Q.#.} <.7.7...1 #.R.E.J C C C C C C L /.Q.Q.Q.Q.Q.Q.Q.Q.Q.Q.Q.Q.Q.Q.Q.Q.",
"Q.Q.Q.Q.Q.Q.Q.Q.Q.Q.Q.Q.Q.Q.Q.Q.Q._ C C C C C C G A.Q.Q.Q.H.y | 1.7.9.} y F.E.^ C C C C C C D D.Q.Q.Q.Q.Q.Q.Q.Q.Q.Q.Q.Q.`.Q.Q.Q.",
"Q.Q.Q.Q.Q.Q.Q.Q.Q.Q.Q.Q.Q.Q.Q.Q./.L C C C Z C C S S.Q.Q.Q.R.o.%.7.y.y...3 @.E.L C Z K J D C Z }.Q.Q.Q.Q.Q.Q.Q.Q.Q.Q.Q.Q.Q.Q.Q.Q.",
"Q.Q.Q.Q.Q.Q.Q.Q.Q.Q.Q.Q.Q.Q.Q.Q.S.A Z K Q ] F Z S .XQ.Q.Q.I.2.w.y.p.y...1 X.V.H D _ A.W.D.` H ` Q.Q.Q.Q.Q.Q.Q.Q.Q.Q.Q.Q.Q.Q.Q.Q.",
"Q.Q.Q.Q.Q.Q.Q.Q.Q.Q.Q.Q.Q.Q.Q.Q.|.) ~ /.E.E.|.( S |.Q.Q.Q.Y.1.0.p.y.9. .1 { g._ }./.Q.Q.Q.Q./.Z.Q.Q.Q.Q.Q.Q.Q.Q.Q.Q.Q.Q.Q.Q.Q.Q.",
"Q.Q.Q.Q.Q.Q.Q.Q.Q.Q.`.Q.Q.Q.Q.Q.E.Q.Q.Q.Q.Q.Q.W.}.A.Q.Q.Q.H.2.1.w.0.5.[ 1 2 r V.Q.Q.Q.Q.Q.Q.Q.Q.Q.Q.Q.Q.Q.Q.Q.Q.Q.Q.Q.Q.Q.Q.Q.Q.",
"Q.Q.Q.Q.Q.Q.Q.Q.Q.Q.Q.Q.Q.Q.Q.Q.Q.Q.Q.Q.Q.Q.Q.Q.Q.Q.Q.Q.(._.%.&. .&.O.[ < [ { c._.Q.Q.Q.Q.Q.Q.Q.Q.Q.Q.Q.Q.Q.Q.Q.Q.Q.Q.Q.Q.Q.Q.Q.",
"Q.Q.Q.Q.Q.Q.Q.Q.Q.Q.Q.Q.Q.Q.Q.Q.Q.Q.Q.Q.Q.Q.Q.Q.Q.Q.Q.K._.`.@.5.5.5.*.O.3 | 1 g K.Q.Q.Q.Q.Q.Q.Q.Q.Q.Q.Q.Q.Q.Q.(.Q.Q.Q.Q.Q.Q.Q.Q.",
"Q.Q.Q.Q.Q.Q.!.Q.Y.Q.Q.Q.Q.Q.Q.Q.Q.Q.Q.Q.Q.Q.Q.Q.Q.Q.K._.H.F.%.*.6.5.&.{ 1 [ 2 t J.Q.Q.Q.Q.Q.Q.Q.Q.Q.Q.Q.Q.Q.Y.;X-XQ.Q.Q.Q.Q.Q.Q.",
"Q.Q.Q.Q.Q.Q.!.-Xt.-XQ.Q.Q.Q.Q.Q.Q.Q.Q.Q.Q.Q.Q.Q.K.H.F.F.*.5.5.*.&.| [ 1 < i h.h.J.Q.Q.Q.Q.Q.Q.Q.Q.Q.Q.Q.Q.Q._.t.;XQ.Q.Q.Q.Q.Q.Q.",
"Q.Q.Q.Q.!.Q.Q.-X;X-XQ.Q.Q.Q.Q.Q.Q.Q.Q.Q.Q.Q.Q.Q.H.,.3.8.0.9.9.9.5.*.} 1 k n.n.=.G.Q.Q.Q.Q.Q.Q.Q.Q.Q.Q.Q.Q.Q.Q._._.Q.Q.Q.Q.Q.Q.Q.",
"Q.Q.Q.Q.Q.Q.Q.Q.!.Q.Q.Q.Q.Q.Q.Q.Q.Q.Q.Q.Q.Q.Q.Q.Q.G.J.Y.U.=X=X4.4.F.@.i k k.G.J.Q.Q.Q.Q.Q.Q.Q.Q.Q.Q.Q.Q.Q.Q.Q.Q.Q.Q.Q.Q.Q.Q.Q.Q.",
"Q.Q.Q.Q.Q.Q.Q.Q.Q.Q.Q.Q.Q.Q.Q.Q.Q.Q.Q.Q.Q.Q.!.Q.Q.G.M.J.Q.`.`.`.!.!.G.h.G.Q.!.Q.Q.Q.Q.Q.Q.Q.Q.Q.Q.Q.Q.Q.Q.Q.Q.Q.Q.Q.Q.Q.Q.Q.Q.Q.",
"Q.Q.Q.Q.Q.Q.Q.Q.Q.Q.Q.Q.Q.Q.Q.Q.Q.Q.Q.Q.Q.Q.Q.Q.Q.Q.Q.Q.Q._.K.Q.Q.Q.Q.Q.Q.Q.Q.Q.Q.Q.Q.Q.Q.Q.Q.Q.Q.Q.Q.Q.Q.Q.Q.Q.Q.Q.Q.Q.Q.Q.Q.Q."
};
