/* XPM */
static char *_9951721606561[] = {
/* columns rows colors chars-per-pixel */
"64 64 224 2 ",
"   c #1C1514",
".  c #261D1B",
"X  c #34251D",
"o  c #29292E",
"O  c #3B2B25",
"+  c #3D393A",
"@  c #4A3129",
"#  c #5A3E34",
"$  c #643C2B",
"%  c #6A483B",
"&  c #744B3D",
"*  c #293447",
"=  c #2F3E55",
"-  c #473F41",
";  c #364358",
":  c #364A66",
">  c #3C516B",
",  c #375173",
"<  c #494748",
"1  c #454850",
"2  c #595759",
"3  c #65514A",
"4  c #755B4A",
"5  c #615C5C",
"6  c #76665B",
"7  c #4E596A",
"8  c #555C68",
"9  c #4B5D76",
"0  c #615F60",
"q  c #5A6573",
"w  c #666264",
"e  c #6D696A",
"r  c #776C69",
"t  c #7A7769",
"y  c #6A6E72",
"u  c #6E737A",
"i  c #747374",
"p  c #787677",
"a  c #7A797B",
"s  c #964F38",
"d  c #88573A",
"f  c #AD5933",
"g  c #B66836",
"h  c #B16C3E",
"j  c #CA733C",
"k  c #DA7838",
"l  c #9B5C49",
"z  c #896655",
"x  c #956E55",
"c  c #936C58",
"v  c #B46D4A",
"b  c #AC7E5B",
"n  c #887468",
"m  c #837B79",
"M  c #937970",
"N  c #C9764B",
"B  c #E95A66",
"V  c #E85B68",
"C  c #DC6E78",
"Z  c #DB813F",
"A  c #EB883D",
"S  c #F4913F",
"D  c #D7B52E",
"F  c #F9CE0D",
"G  c #FDD204",
"H  c #FBD10B",
"J  c #EBC41C",
"K  c #F4CB15",
"L  c #F7CF1F",
"P  c #F8CF1B",
"I  c #FAD013",
"U  c #F9D01B",
"Y  c #EBC525",
"T  c #F6CE23",
"R  c #F5CD2A",
"E  c #EECA3C",
"W  c #F1CB36",
"Q  c #918657",
"!  c #B28C54",
"~  c #868574",
"^  c #96817B",
"/  c #A99164",
"(  c #A7847C",
")  c #D58E51",
"_  c #F39141",
"`  c #D5B655",
"'  c #C0AB6E",
"]  c #D9BF6C",
"[  c #D5BD74",
"{  c #D8BE72",
"}  c #D2BB7C",
"|  c #EAC84A",
" . c #E4C459",
".. c #DCC068",
"X. c #E1C363",
"o. c #3D5C83",
"O. c #3A5D88",
"+. c #3D6798",
"@. c #3D71A8",
"#. c #415E82",
"$. c #436489",
"%. c #486C96",
"&. c #446D9C",
"*. c #47729E",
"=. c #5A7390",
"-. c #677487",
";. c #64748B",
":. c #797C84",
">. c #4775A7",
",. c #4A74A3",
"<. c #4B7BAC",
"1. c #497CB2",
"2. c #847E82",
"3. c #D37881",
"4. c #EB7EAD",
"5. c #75859A",
"6. c #5283AF",
"7. c #4E82B5",
"8. c #4C83BD",
"9. c #5587B6",
"0. c #5285BB",
"q. c #5389BD",
"w. c #6D88A7",
"e. c #77B5BE",
"r. c #4C8AC7",
"t. c #538CC1",
"y. c #5692CC",
"u. c #5C94C8",
"i. c #5995CC",
"p. c #5C9AD3",
"a. c #5898D5",
"s. c #629BCD",
"d. c #629ED4",
"f. c #5EA1DB",
"g. c #64A4DA",
"h. c #69A7DC",
"j. c #64A8E1",
"k. c #6BADE3",
"l. c #6EB1E6",
"z. c #6EB2E8",
"x. c #72B4E8",
"c. c #72B5EA",
"v. c #75B9ED",
"b. c #78BDF1",
"n. c #848385",
"m. c #85858A",
"M. c #898688",
"N. c #8C8A8C",
"B. c #918D8D",
"V. c #988B89",
"C. c #8A8D95",
"Z. c #928F92",
"A. c #8A9394",
"S. c #949295",
"D. c #999697",
"F. c #95959A",
"G. c #9B9A9C",
"H. c #A2928E",
"J. c #A19B9B",
"K. c #B99598",
"L. c #B7999E",
"P. c #8FAD93",
"I. c #BAAD8D",
"U. c #B3A796",
"Y. c #B6AD9D",
"T. c #BAAF99",
"R. c #BDB096",
"E. c #BCB098",
"W. c #8893A4",
"Q. c #969CA6",
"!. c #9D9DA2",
"~. c #A19FA3",
"^. c #B39CA2",
"/. c #BA9CAB",
"(. c #9CA1AA",
"). c #90ACB7",
"_. c #A3A2A5",
"`. c #ABA4A6",
"'. c #ADA9A5",
"]. c #A7A6AB",
"[. c #A9A5AA",
"{. c #A1A8AE",
"}. c #ABAAAE",
"|. c #B1AAA2",
" X c #B2ABAD",
".X c #A8AAB1",
"XX c #B2AFB0",
"oX c #B4B2B3",
"OX c #B9B6B7",
"+X c #B6B6B9",
"@X c #BCBBBC",
"#X c #C48C93",
"$X c #C9B685",
"%X c #CDB882",
"&X c #C5B48C",
"*X c #C9B689",
"=X c #C1B291",
"-X c #D98BAD",
";X c #C994AC",
":X c #E681AD",
">X c #C0BFBE",
",X c #C2C0BF",
"<X c #90A4C7",
"1X c #BDBEC2",
"2X c #C1BFC2",
"3X c #B9C4D3",
"4X c #C3C2C2",
"5X c #C8C7C8",
"6X c #CCCBCC",
"7X c #D1D0CE",
"8X c #CECED0",
"9X c #D4D4D3",
"0X c #D8D7D5",
"qX c #DAD8D7",
"wX c #D8D7D8",
"eX c #DCDBDB",
"rX c #E0DFDE",
"tX c #DFE2E4",
"yX c #E4E3E3",
"uX c #ECECEB",
"iX c #F0EFEE",
"pX c #F0F0EE",
"aX c #F4F4F3",
"sX c #F8F8F6",
/* pixels */
"].].].].].].].].].].].].].].].].].].].].].}.].].].].].].].].].].].].].].].].].].].].].].].].].].].].].].].].].].].].].].].].].}.",
"].].].].].].].].].].].].].].].].].].].].].].].].].].].].].^.~.V.V.H.D.`.].].].].].].].].].].].].].].].].].].].].].].].].].].].}.",
"].].].].].].].].].].].].].].].].].].].].].].].].].].].].~.2.v j Z N j c G.].].].].].].].].].].].].].].].].].].].].].].].].].].}.",
"].].].].].].].].].].].].].].].].].].].].].].].].].].].].M N _ S _ _ S j z G.].].].].].].].].].].].].].].].].].].].].].].].].].}.",
"].].].].].].].].].].].].].].].].].].].].].].].].].].].S.l k A S _ A A k f n ~.~.].].].].].].].].].].].].].].].].].].].].].].].}.",
"].].].].].].].].].].].].].].].].].].].].].].].].].].F.r s k A j h g g g f $ :.~.].].].].].].].].].].].].].].].].].].].].].].].}.",
"].].].].].].].].].}.].].].].].].].].].].].].].].].F.w 5 z g d @ % 4 O X $ $ @ C.].].].].].].].].].].].].].].].].].].].].].].].}.",
"].].].].].].].].].].].].].].].].].].].].].].].].~.:.- + % $ X @ d l @ .   O o :.].].].].].].].].].].].].].].].].].].].].].].].XX",
"].].].].].].].].].].].].].].].].].[.].].].].].].G.a - X @ . O $ % & # @   . o a (.].].].].].].].].].].].].].].].].].].].].].].XX",
"].].].].].].].].].].].].].].].].].].^.^.].].].].!.G.i + 2 XXqXrXqXqX9X7X4X@Xt y G.].].].L.^.].].].].].].].].].].].].].].].].]..X",
"].].].].].].].].].].].].].].].].].`.3.V ^.].].].~.oXJ.5 B.0XsXsXsXsXsXsXsXpX4X~ G.].[.L.C #X`.].].].].].].].].].].].].]..X[.].].",
"].].].].].].].].].].].].].].].].].`.C B #X].].].!.XXD.D.XX0XsXsXsXaXsXaXsXaX8Xi G.].].#XB C ^.].].].].].].].].].].].].].].~..XXX",
"].].].].].].].].].].].].].].].].].].^.K.].].].'.G.M.e M.OX6XuXpXpXpXpXpXpXpX,X2 S.].].].#X^.].].].].].].].].].].].].].].].].].].",
"].].].].].].].].].].].].].].].].].].].].].].].{.N.0 e B. X>X6X0XqXqXqXqXqX,X|.+ i !.].].].].].].].].].].].].].].].].].].].]..XXX",
"].].].].].].].].|.} |.].].].].].].].].'.].].(.'.XXoX_.B.OX,X,XqXqXqXqXeX0XoXV.2 2 i F.].].].].].].].].].]. X*X[.].].].].].].~..X",
"].].].].].].].=XX.U X.&X}.].].].].].].{.{._.}.8XuX7X>XS.,X6X,X5XeXyXrXyXeXoXJ.e m }.!.A.].].].].].].].'.=X{ R %X|.].].].].[.[..X",
"].].}.].].].].*XT G L %X[.].].].].].].].].XXuXtXuXuX5X`.OX6X,XqXeXeXrXeX0X@X[.~ ].9X+Xu Z.[.].].].].].[.{ I G R *X].].].].].].}.",
"].].].].].].].'.| T E |.].].].].].].].].].6XaXuXpXuX7XOXOX6X@X9XqXqXqX0X7XXX[.D.@XrX4XC.A._.].[.].].].].|.R I | }.].].].].].].}.",
"].].].].].].].'.*XT.*X'.].].].].].].].].].9XyXeXaXyX6X@X@X5X,X0XqXqXqX9X7X X{.D.XXrXyX+X_.Q.].{.].].].].|.} &X%X'.].].].].].].}.",
"].].].].].].].].].].].].].].].].].].].[.OXaXqX3XsXyXXXXX>X4X@X9X0XqX9X9X7X'.'.Z.[.yXuX8X4X+X_.[.].].].].].}.[.].].].].].].].].}.",
"].].].].].].].].].].].].].].].].].].]._.@XaXqX9XaXyX!.S.>XOX_.4X6X6X6X6X@XB._.m J.yXuXyX8X5X(.{.].].].].].].].].].].].].].].].}.",
"].].].].].].].].].].].].].].].].].].].!.].6X5XuXaXqXS.n.@XOXG.8X0XqXqX0X6XG.`.i F.eXpXuX6X+XF.[.].].].].].].].].].].].].].].].}.",
"].].].].].].].].].].].].].].].].].].].G._.OXqXaXuX6Xa a @XXX].6X8X9X8X8X5XG.`.a n.0XuXuX6Xi m._.].].].].].].].].].].].].].].].}.",
"].].].].].].].].].].].].].].].].].].].!.wXuXuXuX0X}.2 a @XoXF.1X6X5X6X5X4XF._.p w 2XeXqXwXG.a [.].].].].].].].].].].].].].].].}.",
"].].].].].].].].].].].].].[.[.].].].].}.rXaXaXyX1Xr + C.2X XZ.K.`.+XoXK.K.S.~.i + B.5X0X9XOXm.(.].].].].].].].].].].].].].].]..X",
"].].].].`.K.^..X].].].].].].[..X].].!.@XiXiXiXeX].1 @ S.1X[.`.N l 4X Xs N Z.G.e + e XX7XqX9X'.G.].].].].].].].].[.[.^.].].].].].",
"].].].].^.V /.].].].].].].].].].].].~.>XwXuXuX8XA.2 1 m.@X].N.( ^ XX}.^ ( B.S.e 1 e '.7X0X8X@XD.].].].].].].].].[.#XV ^.].].].}.",
"].].].].`.^.`.].].].].].].].].].].].].eXyXeX8X].p e 2 }.OX~.i n.S.F.S.Z.p B.G.XXr 2 Z.1X6X9X@XS.].].].].].].].].].[./.^.].].].}.",
"].].].].].].].].].].{.].].].].].].].}.aXaXuXeX].2 5 M.>X@X~.a !.].].'._.A.M.S.eXn # n.5XrX5X}.C.].].].].].].].].]..X].].].].].}.",
"].].].].].].].].].]././.].].].].].]._.yXaXpX9XF.M.% n F.2X}.N.]._.S.A.Z.D.Z._.qX6 r :.2XqX6X5X1X].].].]./.].].].].].].].].].].}.",
"].].].].].].].].].].;X-X[.].].].].].oXuXiXuX8XF._.:.- 8 wX1XQ.!.(.G.[.G.G.J.oX6X2 ~.N.].9X9X+X.X].].].[.-X/.].].].].].].].].].}.",
"].].].].].].].].].-X:X4.-X/.].].].]._.yXuXeX{.F.[.m.> *.3X1XW.F.F.G.(.G.D.G.3X).7 !.!.a XX4X_.2.].]./.-X4.:X;X].].].].].].].].XX",
"].].].].].].].].].[.-X:X/.[.].].].].N.oX6X@XM.~.`.5.<.f.h.l.x.x.z.l.l.l.h.h.s.6.q P.P.e n.D.m.m.].].`.;X:X-X/.].].].].].].].].}.",
"].].].].].].].].].]./.;X[.].].].].].N.n M.m i ~._.5.9.f.l.x.v.v.c.c.c.l.l.h.g.6.9 5.P.Q 4 t z ~ ].].].].-X/.].].].].].].].].]. X",
"].].].].].].].].].].].[.].].].].].].J.v h % 6 ~.(.;.9.g.x.x.v.v.c.k.h.g.g.g.u.<.7 A.P.x 3 # d ^ ].].].].[.[.].].].].].].].].]..X",
"].].].].].].].].].].].].].].].].].].H.) ! 6 z Q._.A.q.s.h.x.v.x.h.s.9.*.7.9.<.&.> Z.~.n n 3 x V.].].].].].].].].].].].].].].]..X",
"].].].].].].].].].].].].].].].].].].~.b b B.n !.Q.Q.u.h.k.g.g.d.0.o.= * o.<.7.>.#.Z._.^ M c x G.].].].].].].].].].].].].].].].}.",
"].].].].].].].].].].].].].].].].].].$X! ! V.~.[.!.Q.s.k.c.l.g.q.o.* o o.q.p.i.8.%.F.].D.M ! H.].].].].].].].].].].].].].].].].}.",
"].].[.].].].].].].].].].].].].].].Y.W Y / c _.].!.Q.u.g.l.l.h.i.&.= * &.u.p.p.0.=.!.}.U.! ` [.].].].].].].].].].].].].].].].].}.",
"].]..X].].].].].].].].].].].].].].] G G [ G.].].!.Q.g.k.k.k.k.f.0.: * %.t.y.y.1.-._.[...I I } ].].].].].].].].].].].].].]..X].}.",
"].).h.'.'.].].].].].].].].].].].&XL G G E |.].].G.(.g.z.l.k.k.f.0.8 = O.1.t.0.&.7 !.|.E G G R Y.].].].].].].].].].].].].{.e.).}.",
"(.).).{.{.'.].].].].].].].].[.'.| G G G U *X].].(.(.h.v.c.l.g.f.,.:.; O.&.<.<.o.8 ~.&XI G G G  .'.].].].].].].].].].].].{.e.).}.",
"].{.].].].].].].].].].].].].].[ F G G G G X.].].].A.i.z.v.v.j.t.#.2.7 o., , , = u '. .H G G G I &X].].].].].].].].].].].].].].].",
"].].].].].}.(.'.Y.R.=X*X*X%X[ T G G G G G T R.].{.A.6.g.v.f.q.*.9 S.= : o.o.o., 8 U.R G G G G G E *X=XT.T.Y.|.|.].].].].].].].}.",
"].].].].].].]...T U I H H G G G G G G G G H E ] *XU.=.q.g.g.y.*.-.~.8 : $.,.,.&.q ` G G G G G G G H I L L T R E =X].].].].].].}.",
"].].].].].].{.|.W G G G G G G G G G G G G G G G H L ~ @.6.6.6.%.-.~.q O.7.y.i.1.t I G G G G G G G G G G G G G R =X].].].].].].}.",
"].].].].].[.{.}.*XR G G G G G G G G G G G G G G G I ~ 9.s.u.q.9.;.~.y >.t.i.y.<.Q H G G G G G G G G G G G G R %X].].].].].].].}.",
"].].].].].[.}.{.].%XU G G G G G G G G G G G G G G G 5.f.v.b.v.z.9.~.w $.t.u.t.&.e K G G G G G G G G G G G T ..}.].].].].].].].}.",
"].].].].].].].].].].[ I G G G G G G G G G G G G G I ~ f.b.b.b.c.s.W.-.&.1.t.7.>.q J G G G G G G G G G G I ] |.].].].].].].].].}.",
"].].].].].].].].].].}...H G G G G G G G G G G G G Y w.h.b.b.b.v.d.W.u <.y.p.a.q.-.J G G G G G G G G G H X.|.].].].].].].].].].}.",
"].].{.[.].].].].].].].E.T G G G G G G G G G G G E R.w.j.c.v.v.l.p.w.m., 8.y.y.6.t K G G G G G G G G G R E.].].].].].].].].].].}.",
"].].[.K.^.].].].].].].&XI G G G G G G G G G G T I.(.w.y.l.l.h.p.0.W.C.> >.8.7.%.Q F G G G G G G G G G L T.].].].].].].^.L.].].}.",
"].].].^.`.].].].].].].{ G G G G G G G G G G G T Y.].Q.,.i.t.<.*.$.C.C.: +.@.@.9 D G G G G G G G G G G G %X].].].].].[.`.L.].].}.",
"].].].].].].].].].].'. .G G G G G G G G G G G L E.]._.;.7.y.p.y.,.C.S.= +.7.+.8 Y G G G G G G G G G G G X.].].].].].].].].].].}.",
"].].].].].].].].].].Y.L G G G G G H G G G G G H &X].!.=.r.f.j.a.1.C.S.; 9 @., ; D G G G G G G G G G G G W '.].].].].].].].].].}.",
"].].].].].].].].].].&XH G G G T  .%X .I G G G H *X].Q.%.1.a.p.a.>.-.Z.5 5.5.5.2 Q F G G H | { E H G G G I E.].].].].].].].].].}.",
"].].[.[.].].].].].]...G H W ..Y.].].'.%XE H G H $X].~.:.O.1.1.r.>.-.F.< e J.i 5 / H G R .. X[.|.&X .L G H %X].].].].].].].].]..X",
"].]..X_.].].{.].].].%X| &X|.[.].].].].].T.X.T G } ].].~.9 @.y.a.>.:.~.i 2.F.n.n D U  .&X}.].].].].[.E.] W } ].].].].].].].].]..X",
"].]..X.X].{.<X{.].].].[.].].].].].].].].].'.*X| $X].~.F.7 @.t.y.+.y !.Q.N.S.Z.' E } |.].{.].].].].].].].|.|.].]..X<X{.].].].]..X",
"].].[.[.!..X{.].].].].].].].].].].].].].].].].'. X~.F.w y ;.<.w.;.-..X].{.}.[.'.T.].].].].].].].].].].].].].].].].{.{.].].{./.}.",
"].].].].].].].].].].].].].].].].].].].].].].].].[.!.Z.OX[.Z.Z.~.t w _.].}.].].].].].].].].].].].].].].].].].].].].].].].].].].].",
"].].].].].].].].].].].].].].].].].].].].].].].].].~.S.+X+XG.2.B.2.i (.].[.[.].].].].].].].].].].].].].].].].].].].].].].].].]..X",
"].].].].].].].].].].].].].].].].].].].].].].].].].].!.S.N.m.n.n.:.n.[.].].].].].].].].].].].].].].].].].].].].].].].].].].].].}.",
"].]..X].].].].].].].].].].].].].].].].].].].].].].].].].].].].].[.].].].].].].].].].].].].].].].].].].].].].].].].].].].].].[.}."
};
