/* XPM */
static char *_9991721606562[] = {
/* columns rows colors chars-per-pixel */
"64 64 225 2 ",
"   c #0F0D0C",
".  c #110E0D",
"X  c #1A1716",
"o  c #2C221E",
"O  c #272428",
"+  c #362F2C",
"@  c #272A36",
"#  c #383639",
"$  c #553B2A",
"%  c #413D3D",
"&  c #643D2C",
"*  c #4C443E",
"=  c #724B36",
"-  c #2B3344",
";  c #323A4A",
":  c #344152",
">  c #36455B",
",  c #364A64",
"<  c #344D6C",
"1  c #3B506B",
"2  c #324E72",
"3  c #375477",
"4  c #3A5A7D",
"5  c #454549",
"6  c #4C4A4C",
"7  c #574B46",
"8  c #444B58",
"9  c #545154",
"0  c #565356",
"q  c #5C5A5B",
"w  c #6F5950",
"e  c #6D625E",
"r  c #45556C",
"t  c #585D67",
"y  c #605F61",
"u  c #5C6169",
"i  c #576477",
"p  c #646365",
"a  c #666569",
"s  c #6B6A6C",
"d  c #786B64",
"f  c #746F6F",
"g  c #6E6E71",
"h  c #686F7B",
"j  c #6D747B",
"k  c #747375",
"l  c #777678",
"z  c #7C7A7C",
"x  c #A4623F",
"c  c #94705D",
"v  c #AE7048",
"b  c #89776C",
"n  c #897872",
"m  c #A47D6C",
"M  c #C77E50",
"N  c #D4727A",
"B  c #E36570",
"V  c #FDD204",
"C  c #FCD10B",
"Z  c #F8CF1C",
"A  c #FAD013",
"S  c #F9D01A",
"D  c #F7CF22",
"F  c #F4CD2B",
"G  c #EDCA3D",
"H  c #F2CC33",
"J  c #F1CB3A",
"K  c #8A827F",
"L  c #958278",
"P  c #B08970",
"I  c #D5844A",
"U  c #E38D4A",
"Y  c #EA954D",
"T  c #C69575",
"R  c #CCB863",
"E  c #D9BE6D",
"W  c #CFB97D",
"Q  c #D5BD75",
"!  c #D9BF73",
"~  c #D2BB7A",
"^  c #ECC945",
"/  c #E9C74A",
"(  c #E8C64C",
")  c #E6C552",
"_  c #E3C45B",
"`  c #DEC164",
"'  c #DCC06A",
"]  c #E0C266",
"[  c #355982",
"{  c #3B5C82",
"}  c #3D6085",
"|  c #3A638D",
" . c #3D6996",
".. c #3E73A5",
"X. c #5B6F8C",
"o. c #466E99",
"O. c #45719B",
"+. c #6C7885",
"@. c #757B86",
"#. c #7D7D81",
"$. c #4479A9",
"%. c #477EB4",
"&. c #9F7F83",
"*. c #CF7E86",
"=. c #D27C84",
"-. c #588086",
";. c #758185",
":. c #7A889C",
">. c #4984B6",
",. c #4886BA",
"<. c #5184B3",
"1. c #788AA2",
"2. c #6F92B4",
"3. c #7BA3B7",
"4. c #7BB4BC",
"5. c #4C8CC4",
"6. c #4A8CC9",
"7. c #4C92C8",
"8. c #5794C7",
"9. c #5094CE",
"0. c #539BCD",
"q. c #5399D3",
"w. c #6697CB",
"e. c #49BECA",
"r. c #5CBBC6",
"t. c #59A5D8",
"y. c #64B9C4",
"u. c #62ABDA",
"i. c #66B0DF",
"p. c #5DAFE3",
"a. c #5FB1E6",
"s. c #64B4E4",
"d. c #69B8E9",
"f. c #6CB9E8",
"g. c #6BBCEB",
"h. c #3EC1CD",
"j. c #70C1EE",
"k. c #838384",
"l. c #878789",
"z. c #85858A",
"x. c #8B8A8C",
"c. c #968D8A",
"v. c #97928F",
"b. c #898D95",
"n. c #918F93",
"m. c #8E9196",
"M. c #949395",
"N. c #96969A",
"B. c #97999C",
"V. c #989899",
"C. c #9B9A9C",
"Z. c #A79285",
"A. c #A39A9A",
"S. c #B9969C",
"D. c #94AD95",
"F. c #94B699",
"G. c #ADA991",
"H. c #BAAE95",
"J. c #B6AD9D",
"K. c #B9AF99",
"L. c #BEB195",
"P. c #BBB098",
"I. c #8591A3",
"U. c #959CA7",
"Y. c #9D9DA1",
"T. c #A29EA1",
"R. c #AE9FA4",
"E. c #B39CA2",
"W. c #BA9DAB",
"Q. c #9CA6AA",
"!. c #88A5B9",
"~. c #92ACB4",
"^. c #9BAAB1",
"/. c #9BA5BA",
"(. c #84B1B9",
"). c #A2A2A5",
"_. c #ABA3A7",
"`. c #A2A9A6",
"'. c #ADA9A5",
"]. c #A7A6AB",
"[. c #A8A7AB",
"{. c #A3A9AC",
"}. c #ACABAC",
"|. c #B1ABA2",
" X c #B3B0AF",
".X c #ADAEB1",
"XX c #A3AAB8",
"oX c #ACB2BB",
"OX c #B3B2B4",
"+X c #B6B7B9",
"@X c #BCBBBC",
"#X c #C8878F",
"$X c #C9B787",
"%X c #CCB883",
"&X c #C4B48D",
"*X c #C8B688",
"=X c #C3A797",
"-X c #C1B291",
";X c #85C38B",
":X c #C3C1BF",
">X c #95A4C1",
",X c #BBBEC2",
"<X c #BDC1C5",
"1X c #C3C2C3",
"2X c #C7C6C9",
"3X c #CCCBCC",
"4X c #D2CBC9",
"5X c #D0D0CF",
"6X c #CBCED2",
"7X c #CFD2D4",
"8X c #D4D3D4",
"9X c #D8D7D6",
"0X c #D4D6DA",
"qX c #DCDCDB",
"wX c #E0DFDF",
"eX c #DDDFE2",
"rX c #E0E1E2",
"tX c #E4E4E4",
"yX c #E8E7E7",
"uX c #ECEBEB",
"iX c #F0EFEE",
"pX c #F1F1EF",
"aX c #EFF1F1",
"sX c #F3F3F2",
"dX c #F9F8F5",
/* pixels */
"].].].].].].].].].].[.].].].].].].].].].].].].].].].].].].].].].].].].].].].].].].].].].].].].].].].].].].].].].].].].].XX[.].].",
"].].].].[.].].].].].].].].].].].].].].].].].].].[.].].].].].].].].].R.R.Y.A.A.T.R.].].].].].].].].].].].].].].].].].].].].].].].",
"].].].].].].].].].].].].].].].].{.].].].].].].].].].].].[.].].`.].].V.b v M M I M Z.`.`.].].].].].].].].].].].].].].].].[.[.].].",
"].].].].].].].].].].].].].].].].].].].].{.].].].].].T.Y.C.).`.]..Xn.w v M Y Y Y Y I m `.].].].].].].].].].].].].].].].].[.[.].].",
"].].].].].].].].].].].].].[.].].].].].].].].].].].T.N.M.N.@X2X+XA.7 & v M I U Y U I v L ].].].].].].].].].].].].].].].].[.[.[.[.",
"].].].].].].].].].[.].].].].].].].].].].].].].].[.Y.k.OXOX2X5XT.d o & P 4X=XM M v = $ 7 N.].].].].].].].].].].].].].].].[.[.[.[.",
"].].].].[.].].].].].].].].].].].].].].].].].].].].M.g ).@X5X@XN.0 o 0 A.+X+Xc.= w * X 6 C.].].].].].].].].].].].].].].].].].].].",
"].[.].].].].].].].].].].].].].].].].].].R.R.].B.b.N.T.T.OX3X XM.q g V.l.s n q 7  Xv.o % C.].].].].].].].].].].].].].].].[.XX].].",
"].].].].].].].].].].].].].].].].].].].E.N #XR.z k V.5XyX5XqXOXz 0 N.].f 0 e 6 o + + X # M.Q.].].[.].[.].].].].].].].].].[.[.[.[.",
"[.].].].].].].].].].].].[.].].].].].].E.B N A.s k V.@X8X9XtX+Xf 0 k.`.k.z x.q . . . . % *.S.].].].].].]._.].].].].].].].[.[.[.[.",
"].].].].].].].].].].].].].].].].].].].].E.R.k.t a C.:X1XqX0XC.a k.N.M.}.3X:X7 .     . q N *._.].].].].].[.[.].].].].].].[.[.[.].",
"[.].].].].].].].].].L.K.].].].].].].].].[.].k p z C.C.Y.qX1Xz p k. X:X X'. Xa X     O K S._.].].].].].].].].].].].].].].[.[.].].",
"].[.].].].].].].].|.( ` }.].].].].].].].].C.s l }.3X}.T.8XOXd d b L Z.'.1X}.l.5 X X p T.].].].].].].].].].'.&X].].].[.].[.].].].",
"].].].].].].].|.Q ) C Z ) Q |.].].].].].].B.p K +XwX X:X5XK w p m.@X:XA.v.'.A.k % y C.`.].].].].].].].].].*XJ K.].].].].XX].].].",
"].].].].].[.].|.' A V V A E ].].].].].].].x.y z `.3X:X1X Xq 8 B.8XuXdXdX9Xc.A.M.y z ].].].].].].].].].%X_ J V J E J.[.].[.[.].].",
"].].].].].].].].|.H V V G '.].].].].].}.{.l.l T.+X3X5X3XM.6 i oX3XtXyXyXtX:Xk.A.z Y.}.].].].].].].].].L.H V V C ( K.[.[.[.[.].].",
"].].].].].].].].|.H / ^ ^ |.].].].].].].].#.x.1XwXuXqX9XT.8 h oX1XuXsXsXiXqXv.b.x.Q.{.).].].].].].].].].Q C V S &X].].].[.[.[.[.",
"].].].].].].].].'.-X'.|.&X'.].].].].].[.T.l M.3XyXuXtX9Xm.8 h Q.+XyXiXdXiXqX|.s z j T.Q.].].].].].].].].' G ) F &X].].].[.[.].].",
"].].].].].].].].].].].]._.[.[.].].].].].Y.z }.9XpXuXyX9Xl 1 u k.).6X9X0X8X3X+Xa k &.&.Q.].].].].].].].].K.J._.P.K.].].].[.[.].].",
"].[.].].].].[.].].].].].[.[.[.].].].].].N.k.@XqXpXuXyX3Xu 4 > a M.1X5X9X3XOXY.s 0 u # U.].].].].].].].].].].}.].].].].].[.[.].].",
"].].].].].].].].].[.].].].].[.].].].].].b.l.:XrXpXyXyX1X0 4 > : ;.,X8X6X8X).l.t 8 0 # B.].].].].].].].].].].].].].].].].{.].].].",
"].].].].].].].].].].].].].].].].].].].{.+.l }.3XtXyXyX@X8 4 4 @ g ,XtXsXsX3X{.l.6 a 5 C.^.{.].].].].].].].].].].].].].].[..X].].",
"].].].].].].].].].].].].].].].].].].{.(.-.k. X3X3X8XyX}.: 3 3 O 0 ,XtXyXaX5X`.n.6 k Q.4.r.~.].].].].].].].].].].].].].].[.[.].].",
"].].].[.].].].].].].].].].].].].].].`.^.-.C.3XyXuXwXtX'.5 , 4 O 5 XX0XsXaX3X].M.p s Y.e.e.r.~.].].].].].].].].].].].].].[.[.].].",
"].].].[.].].#XE.].].].].].].].].].].].Q.;.T.9XuXpXyX9Xx.x.u 3 @ # U.eXsXaX0X{.M.].).^.r.e.4.{.].].].].].].].].].].[.].[.[.[.[.].",
"].].].].].].S.E.].].].].[.].[.].].].].C.k '.qXpXpXuX3Xy z .XB.q # m.,X0XeXtX2XM.+X.X].^.~.~.].].].].].].].].].].].E.*.R.[.[.].].",
"].].].].].].].].].].].].].].].].].].].V.s ).qXpXuXrX2X0 > i @.t + t ].6XeXiXyXN.1XOX].].[.].].].].].].].].].].].].[.E.].{.[.].].",
"].].].].].].].].].].].].[.].].[.].].].n.s T.9XuXyX2Xc.0 > 1 r 5 + + @.7XeXaXdX1X@X.X].].[.[.].].].W.W.].].].].].].].].].[.[.].[.",
"].].].].].].].[.].].].].].].].].].].].k.g `.8XqX9X@Xe b b b b c 7 O 6 U.0XsXsXeXT.T.].].].].].].].].].].].].].].].].].].[.[.[.[.",
"].].].].].].].].].].].].R.].].].].].[.z g N.<XqX9X X0 0 p d y t > @ O t /.0XuXsX.XB.].].].].].].].].].].].].].].].].].].[.[.[.{.",
"].].].].].].].].].].].].W.[.].].].].].Y.x.M.N.V.M.k.k # # | %.%.O.> @ O j ,XyX0X1X2X].].].].].].].].].].W.].].].].].].].[.[.[.[.",
"].].].[.].].].].].].].].[.].].].].].].].[.`.F.;XF.`.`.z ; ..9.t.5.[ - X # +.B.1XyX6XD.].].].].].].].].].W.[.].].].].].].XX[.].].",
"].].].].].].].].].].].].].].].].].].].].}.Q.;X;XF.].^.&., $.0.t.t.O.< @ @ 1 j @X4XZ.D.F.}.].].].].].].].].].].].].].].].[.[.].].",
"].].].].].].].].].].].].].].].}.].].].].].[.].F.Q.].Q.m.> | 0.p.t.,. .; @ { X.k m T P `._.].].].].].].].].].].].].].].].[.[.].].",
"].].].].].].].].].].].].].].].].].].].].].].].`.].].].Y.8 3 5.8.t.t.5.4 > 2 1.n m T T A.].].].].].].].].].].].].].].].].[.[.].].",
"].].].].].].].].].].].].].].].].].].].].].].].].].].{.].z., { %.t.s.u.o.1 1 :.m.m T P c.].].].].].].].].].].].].].].].].[.].].].",
"].].].].].].].].].].].].].].].].].].].].}.[.[.].].].].].].j - | 0.i.f.$., > +.Y.b c c n ].].[.].].].].].].].].].].].].].{.].].].",
"].].^.^.].].].].].].].].].].].].].].`.'.` *X].].].].].].T.Y.; 2 <.f.f.f.O.{ i T.f w x n H.'.].].].].].}.].].].].].].].].[.].].].",
"{.^.4.y.4.^.].].].].].].].].].].].].].Q C ( '.].].].].].[.].a [ 0.g.g.g.u.>.o.Y.d w d Z.H E ].].].].].].].].].].].].[.].{.~.(.].",
"{.4.e.h.r.^.].].].].].].].].].].].].K.F V Z H.].].].].].{.[.#.{ 6.s.g.g.f.8.%.U.).C.T.W C Z -X].].].].].].].].].].].[.^.y.e.e.(.",
"[.^.r.h.y.{.].].].].].].].].].].].'._ V V V Q [.].].].].].].x.< >.t.j.j.j.t.8.U.].].|.( V V ^ '.].].].].].].].].].].[.].y.e.e.(.",
"].].4.~.~.{.].].].].].].].].].].].&XZ V V V G |.].].].].].].N., | 0.d.j.j.i.t.!.].].-XS V V C ~ ].].].].].].].].].].[.{.(.y.r.^.",
"].].].].].].].].].].].'._.'.'.'.K.^ V V V V C $X].].[.[.].].Y.8 [ ,.s.g.j.p.s.!.].].' V V V V F J.].].].].].].].].].].].{.{.^.{.",
"].].].].].].].].].J.' ) / G G F F V V V V V V ) -XJ.].[.[.].).t [ ,.0.s.j.d.g.3.].L.H V V V V V ^ E ~ ~ $X&X-X'.].].].].[.[.[.[.",
"].].].].].].].].].J.J V V V V V V V V V V V V V A H ( Q &X|.].l.3 4 >.t.s.s.j.`._ J C V V V V V V V V V C C D *X].].].].[.[.[.[.",
"].].[.].].[.].].].].&XF V V V V V V V V V V V V V V V V A / |.Y.8 : | >.0.p.i.G.V V V V V V V V V V V V V V ) J.].].].].[.[.].[.",
"].].].].].].].].].].].%XZ V V V V V V V V V V V V V V V V G K.#.; , | O.>.0.y.R V V V V V V V V V V V V V ^ K.].].].].].[.[.].].",
"].].].].].].].].].].].}.' A V V V V V V V V V V V V V C ( J.[.t <  . .O.>.>.3.G V V V V V V V V V V V V H -X].].].].].XX[.[.].].",
"].].].].{.[.[.].].].].]._.] C V V V V V V V V V V V A E '.[.N.8 | ,.7.5.8.8.G.A V V V V V V V V V V V F %X].].].].].].].].}.].].",
"].].].].R.R.].].].].].].[.|.F V V V V V V V V V V Z ~ _.].).h < %.7.7.>.o.:.L.H V V V V V V V V V V V Q '.].].].].].]._.].].].].",
"].[.]._.=.=.R.].].[.].].{.-XS V V V V V V V V V V Q ].].{.I.< ..5.6.,.O.h B.].K.F V V V V V V V V V V Q ].].].].].].].S.#X].].].",
"].].[._.=.=.[.].].].].].].~ V V V V V V V V V V C W ].].U.X.2 6.q.7.$.} ;.{.].'.^ V V V V V V V V V V / _.].].].].]._.=.B E.].].",
"].].].].R._.].].].].].].[.) V V V V V V V V V V V ! [.].b.[ [ q.a.p.7.,.1.{.].'.G V V V V V V V V V V F J.].].].].].[.].S.[.[.[.",
"].].].].[.{.].].].].].].|.H V V V V A D V V V V V E [.).+.[ [ 6.a.a.a.0.2.].].|.F V V V V C V V V V V A &X].].].[.].[.].[.[.].[.",
"].].].].].].[.].].].].].-XA V V Z ) *XH._ Z V V V _ `.M.r { 2 %.q.p.p.,.2.Q.].J.D V V V D ' %X/ Z V V V E ].].].].].].].[.[.].[.",
"].].].].].].].].[.].].].~ V F E -X'.[.].'.%XJ C V / _.@.2 2 ,  .7.0.,.$.2.].].P.D V A ^ &X_.].].L.` F V / _.].].].].].].].[.].].",
"].].].].].].].].].].].].K.%XJ.].[.].].].].].K.] D ^ A.t  .{ 2 .. .....,.I.].].-XZ F E |.].].].].].].J.%X~ ].].].].].].].].].].].",
"].].].].].].]./.].].].].].].].].].].].].].].[.].&X*Xn., 3 { 2 $.,.7.6.%.1.].].|.E K._.[.].].[.].].].[.].].].].].]./.].].].].].].",
"].].].].].].]./.XX].].].].].].].].].].].].].].].[.[.b.t 3 3 , | $.,.,.,.$.2.I.).T.].].].[.].].].].].].].].].].>X/./.].].[.[.].].",
"].].].].].].].].].].].].].].].].].].].].].].].].].[.l.M.N.@.: 2 | $.%.6.7.8.8.2.:.U.].].].].[.].[.].].].].].[.>XXX].].].[.{.].].",
"].].].].].].].].].].].].].].].].].].].].].].].].].].C.x.x.&.r 4 o.%.5.8.6.9.w.2.b.b.].[.].].].].].].].].].].[.].].].[.].[.].].].",
"].].].].].].].].].].].].].].].].].].].].].].].].].].].).T.U.j b.XXXXXX>XXX,X,XW.T.Y.{.{.].].].].].].].].].].].].].].].].[.XX].].",
"].].].].].].].].].].].].].].].].].].].].].].].].].].].].[.].T.U.R.T.].].).Y.U.T.T.].].].].].].].].].].].[.].].].].].].].[.[.].].",
"].].].].].].].].].].].].].].].].[.].].].].].].].].].].].[.[.T.].].].].].XX].].E.].].].].[.].].].[.].].].].].].].].].].[.[.[.].]."
};
