/* XPM */
static char *__player_bhB1721364823[] = {
/* columns rows colors chars-per-pixel */
"64 64 229 2 ",
"   c #02012A",
".  c #09092C",
"X  c #090735",
"o  c #161536",
"O  c #26253F",
"+  c #6F371F",
"@  c #593728",
"#  c #623623",
"$  c #724632",
"%  c #060457",
"&  c #0B0955",
"*  c #070459",
"=  c #09065B",
"-  c #0C095C",
";  c #15165D",
":  c #211F5F",
">  c #373749",
",  c #0A0663",
"<  c #0E0A63",
"1  c #0D096B",
"2  c #110B65",
"3  c #130B6C",
"4  c #181566",
"5  c #0F0A74",
"6  c #120C74",
"7  c #1A0E75",
"8  c #1B1674",
"9  c #211B6A",
"0  c #251D79",
"q  c #262868",
"w  c #363D6C",
"e  c #292774",
"r  c #2E3371",
"t  c #364674",
"y  c #3D577B",
"u  c #534D4D",
"i  c #464557",
"p  c #6F584E",
"a  c #74625A",
"s  c #4F536E",
"d  c #4A4A7C",
"f  c #66656D",
"g  c #706C72",
"h  c #78777A",
"j  c #884726",
"k  c #98532A",
"l  c #925B39",
"z  c #B4642D",
"x  c #946E58",
"c  c #977868",
"v  c #8F7972",
"b  c #8D7B76",
"n  c #AD7C61",
"m  c #97857D",
"M  c #AA826B",
"N  c #B8876A",
"B  c #A58777",
"V  c #BC937A",
"C  c #C89879",
"Z  c #D89D79",
"A  c #D7A17E",
"S  c #210F86",
"D  c #220F88",
"F  c #231186",
"G  c #271A86",
"H  c #25128A",
"J  c #29158D",
"K  c #2A1B8C",
"L  c #2B1692",
"P  c #2E1993",
"I  c #2F1998",
"U  c #321C95",
"Y  c #341D9A",
"T  c #342E87",
"R  c #322A8A",
"E  c #352894",
"W  c #36209B",
"Q  c #3A229C",
"!  c #3A3495",
"~  c #3D29A1",
"^  c #443496",
"/  c #4227A4",
"(  c #4B27AE",
")  c #4C2BAD",
"_  c #4C33AB",
"`  c #5137AC",
"'  c #4E2BB0",
"]  c #522DB2",
"[  c #5F29B2",
"{  c #5432B5",
"}  c #5B34B6",
"|  c #583AB6",
" . c #5735B8",
".. c #5836B9",
"X. c #5C3BBB",
"o. c #622CB4",
"O. c #6531B6",
"+. c #6839B4",
"@. c #6434B9",
"#. c #6A35BA",
"$. c #633CBB",
"%. c #6D3ABD",
"&. c #703DBF",
"*. c #3A4B84",
"=. c #3C5889",
"-. c #3D6898",
";. c #3E6DA0",
":. c #4D548D",
">. c #4D4698",
",. c #465A97",
"<. c #605794",
"1. c #43648E",
"2. c #486A97",
"3. c #586A97",
"4. c #4D739A",
"5. c #56779B",
"6. c #7C7B89",
"7. c #6C6D90",
"8. c #534AAB",
"9. c #6352AB",
"0. c #6747B5",
"q. c #6C44B2",
"w. c #6242BC",
"e. c #7146B8",
"r. c #7554B3",
"t. c #775AB6",
"y. c #5869A5",
"u. c #4975A8",
"i. c #5071AD",
"p. c #5879A8",
"a. c #4C7DB3",
"s. c #6569AC",
"d. c #7766B5",
"f. c #6A73B1",
"g. c #723FC0",
"h. c #6A4AC1",
"j. c #7442C2",
"k. c #7A48C3",
"l. c #836FAF",
"z. c #8878AD",
"x. c #836CB0",
"c. c #8A79B2",
"v. c #8251C7",
"b. c #9569CD",
"n. c #5982AA",
"m. c #4B81BA",
"M. c #5886B8",
"N. c #6487A8",
"B. c #638CB4",
"V. c #6492BC",
"C. c #6B94B9",
"Z. c #7590B6",
"A. c #518BC2",
"S. c #6797C4",
"D. c #6C9BC4",
"F. c #719EC0",
"G. c #78A3C5",
"H. c #74A4CA",
"J. c #7AA9CB",
"K. c #7DAFD2",
"L. c #878688",
"P. c #85858B",
"I. c #988A86",
"U. c #8F8C95",
"Y. c #969397",
"T. c #9C9A9D",
"R. c #A48E86",
"E. c #A99489",
"W. c #B79986",
"Q. c #A79C99",
"!. c #B59F94",
"~. c #B5A298",
"^. c #8C84AB",
"/. c #948AAE",
"(. c #9D9DA2",
"). c #9B95AD",
"_. c #9999A8",
"`. c #9287B3",
"'. c #A19FA3",
"]. c #A19EAC",
"[. c #98A5B4",
"{. c #A4A1A5",
"}. c #A9A5A7",
"|. c #A7A6AB",
" X c #AAAAAD",
".X c #A8ADB5",
"XX c #AFB0B2",
"oX c #B2B2B5",
"OX c #BABABC",
"+X c #C79E84",
"@X c #D09F84",
"#X c #C7A38A",
"$X c #D7A787",
"%X c #D3AD92",
"&X c #D9B49A",
"*X c #E4AB86",
"=X c #EAB28A",
"-X c #E5B796",
";X c #F2BA90",
":X c #CABBB2",
">X c #F8C59D",
",X c #C9C1BE",
"<X c #EDC3A2",
"1X c #81ADCD",
"2X c #84B2D3",
"3X c #88B5D4",
"4X c #8CB9D7",
"5X c #8DBBDA",
"6X c #A6B6C6",
"7X c #BBBEC3",
"8X c #BBC2C9",
"9X c #C2C3C4",
"0X c #C6C7C8",
"qX c #CBCCCC",
"wX c #CECFD1",
"eX c #D2D3D4",
"rX c #D6D6D8",
"tX c #DADBDC",
"yX c #DEDFE0",
"uX c #DFE1E2",
"iX c #E2E3E4",
"pX c #E7E7E8",
"aX c #EBEBEC",
"sX c #EEEEF0",
"dX c #EFF0F2",
"fX c #F2F3F4",
"gX c #F6F7F9",
"hX c #F7F8FA",
"jX c #FAFAFC",
/* pixels */
"|.|.|.|.|.|.|.|.|.|.|.|.|.|.|.|.|.|.|.|.|.|.|.|. X|.|.|.|.|.|. X}.|.}. X}.|.|.|.|.|.|.|.|.|.|.|.|.|.|.|.|.|.|.|.|.|.|.|.|.|.|.|.",
"|.|.|.|.|.|.|.|.|.|.|.|.|.|.|.|.|.|.|.|.|.|.|.|.|.|.|.|.{.Y.v c c c U.{.|.|.|.|.|. X|.|.|.|.|.|.|.|.|.|.|.|.|.|.|.|.|.|.|.|.|.|.",
"|.|.|.|.|.|.|.|.|.|.|.|.|.|.|.|.|.|.|.|.|.|.|.|.|.|.|.|.m p k z z z l m |.|.|.|.|.|.|.|.|.|.|.|.|.|.|.|.|.|.|.|.|.|.|.|.|.|.|.|.",
"|.|.|.|.|.|.|.|.|.|.|.|.|.|.|.|.|.|.|.|.|.|.|.|.|.|.|.T.c $ j j j k k x T.|.|.|.|.|.|.|.|.|.|.|.|.|.|.|.|.|.|.|.|.|.|.|. X|.|.|.",
"|.|.|.|.|.|.|.|.|.|.|.|.|.|.|.|.|.|.|.|.|. X|.|.|.|.|.Y.$ + j # # @ # k v |.|.|.|.|.|.|.|.|.|.|.|.|.|.|.|.|.|.|.|.|.|.|.|.|.|.|.",
"|.|.|.|.|.|.|.|.|.|.|.|.|.|.|.|.|.|.|.|.|.|.|.|.|.|.|.T.$ # $ x x C x j m }.|.|.|.|.|.|.|.|.|.|.|.|.|.|.|.|.|.|.|.|.|.|.|.|.|.|.",
"|.|.|.|.|.|.|.|.|.|.|.|.|.|.|.|.|.|.|.|.|.|.|.|.|.|.|.|.g $ M =X>X-XV $ Y.|.|.|.|.|.|.|.|.|.|.|.|.|.|.|. X|.|.|.|.|.|.|.|.|.|.|.",
"|.|.|.|.|.|.|.|.|.|.|.|.|.|.|.|.|.|.|.|.|.|.|.|.|.|.|.|.L.@ p u M u p a {.|.|.|.|.|.|.|.|.|.|.|.|.|.|.|.|.|.|.|.|.|.|.|.|.|.|.|.",
"|.|.|.|.|.|.|.|.|.|. X|.|.|.|.|.|.|.|.|.|.|.|.|.|.|.|.|.b a #XB c W.E.a '.|.|.|.|.|.|.|.|.|.|.|.|.|.|.|.|.|.|. X|.|.|.|.|.|.|.|.",
"|.|.|.|.|.|.|.|.|.|.|.|.|.|.|.|.|.|.|.|.|.|.|.|.|.|.|.|.I.x #XW.$XW.W.m {.|.|.|.|.|.|.|.|.|.|.|.|.|.|.|.|.|.|.|.|.|.|.|.|.|.|.|.",
"|.|.|.|.|.|.|.|.|.|.|.|.|.|.|.|.|.|.|.|.|.|.|.|.|.|.|.|.{.R.-X=XC <X&XQ.|.|.|.|.|.|.|.|.|.|.|.|.|.|.|.|.|.|.|.|.|.|.|.|.|.|.|.|.",
"|.|.|.|.|.|.|.|.|.|.|.|.|.|.|.|.|.|.|.|.|.|.|.|.|.|.|.|.|.(.C *X&X<X&X|.|.|.|.|.|.|.|.|.|.|.|.|.|.|.|.|.|.|.|.|.|.|.|.|.|.|.|. X",
"|.|.|.|.|.|.|.|.|.|.|.|.|.|.|.|.|.|.|.|.|.|.|.|.|.|.|.|.|.|.I.V -X%XQ.|.|.|.|.|.|.|.|.|.|.|.|.|.|.|.|.|.|.|.|.|.|.|.|.|.|.|.|.|.",
"|.|.|.|.|.|.|.|.|.|.|.|.|.|.|.|.|.|.|.|.|.|.|.|.|.|.|.|.|.T.m a c C E.{.|.|.|.|.|.|.|.|.|.|.|.|.|.|.|.|.|.|.|.|.|.|.|.|.|.|.|.|.",
"|.|.|.|.|.|.|.|.|.|.|.|.|.|.|.|.|.|.|.|.|.|.|.|.|.|.|.|. XQ.C *XA =X#X XoX|.|.|.|.|.|.|.|.|.|.|.|.|.|.|.|.|.|.|.|.|.|.|.|.|.|.|.",
"|.|. X|.|. X|.|.|.|.|.|.|.|.|.|.|.|.|.|.|.|.|.|.|.oXoXtXsXeX!.C $XV :XaXhXiX8X X|.|.|.|.|.|.|.|.|.|.|.|.|.|.|.|.|.|.|.|.|.|.|.|.",
"|.|.|.|.|.|.|.|.|.|.|.|.|.|.|.|.|.|.|.|.|.|.|.|.oXuXfXhXhXhXfXpXpXaXhXjXjXjXhXeX}.|.|.|.|.|.|.|.|.|.|.|.|.|.|.|.|.|.|.|.|.|.|.|.",
"|.|.|.|.|.|.|.|.|.|.|.|.|.|.|.|.|.|.|.|.|.|.|. XtXdXfXsXsXhXjXjXjXjXjXjXjXjXsXsXOX|.|.|.|.|.|.|.|.|.|.|.|.|.|.|.|.|.|.|.|.|.|.|.",
"|.|.|.|.|.|.|.|.|.|.|.|.|.|.|.|.|.|.|.|.|.|.|.OXdXaXuXtXaXfXhXhXjXjXjXjXjXfXyXaXwX|.|.|.|.|.|.|.|.|.|.|.|.|.|.|.|.|.|.|.|.|.|.|.",
"|.|.|.|.|.|.|.|.|.|.|.|.|.|.|.|. X|.|.|.|.|.|.eXfXtX9XeXpXdXtXwXiXwXOXhXjXyX8XuXrX|.|.|.|.|.|.|. X|.|.|.|.|.|.|.|. X|.|.|.|.|.|.",
"|.|.|.|.|.|.|.|.|.|.|.|.|. X|.|.|.|.|.|.|.|.|.eXdX0XL.8XuXqXY.eXaXOXh sXhXqX{.pXuX}.}.|.|.|.|.|.|.|.|.|.|.|.|.|.|.|.|.|.|.|.|.|.",
"|.|.|.|.|.|.|.|.|.|.|.|.|.|.|.|.|.|.|.|.|.|.oXtXfXpXm (.qXf '.wXtXL.qXjXdX.X|.pXaX8X|.|.|.|.|.|.|.|.|.|.|.|.|.|.|.|.|.|.|.|.|.|.",
"|.|. X|.|.|.|.|.|.|.|.|.|.|.|.|.|.|.|.|.|.'.E.C ~.,X}.T.9Xh h i oXL.9XaXpXT.0XtX:X~.{.|.|.|.|.|.|.|.|.|.|.|.|.|. X|.|.|.|.|.|.|.",
"|.|.|.|.|.|.|.|.|.|.|.|.|.|.|.|.|.|.|.|.|.'.$X*XZ M T.'.OXuXpXm rXaXaXaXrXQ.R.$X*X%X{.|.|.|.|.|.|.|.|.|.|.|.|.|.|.|.|.|.|.|.|.|.",
"|.|.|.|.|.|.|.|.|.|.|.|.|.|.|.|.|.|.|.|.|.'.$XA N R.{.(.oXiXgXaXpXrXqX0XqX}.Y.n *X&X}.|.|.|.|.|. X|.|.|.|.|.|.|.|.|.|.|.|.|.|.|.",
"|.|.|.|.|.|.|.|.|.|.|.|.|.|.|.|.|.|.|.|.}.}.@X=X$XE.|.(.XXyXsXsXgXhXfXaXqX}.Y.M <X<X}.}.|.|.|.|.|.|.|.|.|.|.|.|.|.|.|.|.|.|.|.|.",
"|.|.|.|.|.|.|.|.|.|.|.|.|.|.|.|.|.|.|.|.|.].W.=X;XW.{.(.XXtXiXaXgXhXfXpX9X{.E.*X>X&X|.|.|.|.|.|.|.|.|.|.|.|.|.|.|.|.|.|.|.|.|.|.",
"|.|.|.|.|.|.|.|.|.|.|.|.|.|.|.|.|.|.|.|.|.'.R.$X;X%X].{. XtXyXpXfXfXaXtXOX}.E.;X>X#X|.|.|.|.|.|.|.|.|.|.|.|.|.|.|.|.|.|.|.|.|.|.",
"|.|.|.|.|.|.|.|.|.|.|.|. X X|.|.|.|.|.|.|.|.'.V ;X$XQ.(.XXrXuXaXaXaXiXtXqX XE.;X<XQ.|.|.|.|.|.|.|.|.|.|.|.|.|.|.|.|.|.|.|.|.|.|.",
"|.|.|.|.|.|.|.|.|.|.|.|.|.|.|.|.|.|.|.|.|.|.}.Q.A *XQ.(.OXwXuXaXsXaXpXeXqXoXE.;X#X{.|.|.|.|.|.|.|.|.|.|.|.|.|.|.|.|.|.|.|.|.|.|.",
"|.|.|.|.|.|.|.|.|.|.|.|.|.|.|.|.|.|.|.|.|.|.|.}.E.Z V T.OX9XqXwXrXwXrXtXrXQ.n A ~.|.|.|.|.|.|.|.|.|.|.|.|.|.|.|.|.|.|. X|.|.|.|.",
"|.|.|.|.|.|. X|.|.|.|.|.|.|.|.|.|.|.|.|.|.|.|.|.Q.B C V E.7XrXuXtXpXaXaXoX+XN B {.|.|.|.|.|.|.|.|.|.|.|.|.|.|.|.|.|.|.|.|.|.|.|.",
"|.|.|.|.|.|.|.|.|.|.|.|.|.|.|.|.|.|.|.|.|.|.|.|.{.m C M v Y.8XqXyXiXuX8Xh C A !.|.|.|.|.|.|.|.|.|.|.|.|.|.|.|.|.|.|.|.|.|.|.|.|.",
"|.|.|.|.|.|.|.|.|.|.|.|.|.|.|.|.|.|.|.|.|.|.|.|.}.Q.Z M n.N.Z.8X8X7X6XG.n.m $XQ.|.|.|.|.|.|.|.|.|.|.|.|.|.|.|.|.|.|.|.|.|.|.|.|.",
"|.|.|.|.|.|.|.|.|.|.|.|.|.|.|.|.|.|.|.|.|.|.}.|.}.}.m n.C.F.D.V.n.B.F.J.K.n.U.}.|.|.|.|.|.|.|.|.|.|.|.|.|.|.|.|.|.|.|.|.|.|. X|.",
"|.|.|.|.|.|.|.|.|.|.|.|.|.|.|.|.|.|.|.}.].].)./.^.f.5.N.J.J.C.M.5.p.C.H.K.C.7.z.^./._.].|.|.|.|.|.|.|.|.|.|.|.|.|.|.|.|.|.|.|.|.",
"|.|.|.|.|.|.|.|.|.|.|.|.|.|.|.|.].).^.x.t.e.+.o.O.o.s.C.1XJ.n.:.d y p.V.2X1X<.o.o.o.+.q.t.c./.].|.|.}.}.|.|.|.|.|.|.|.|.|.|.|.|.",
"|.|.|.|.|.|.|.|.|.|.|.|.|.|./.x.r.+.O.#.e.e.g.+.O.O.3.J.2X2XB.:.` y p.G.4X5Xs.@.o.o.[ o.[ o.O.q.x./.].}.|.|.|.}.|.|.|.|.|.|.|.|.",
"|.|.|.|.|.|.|.|.|.|.|.).c.r.O.o.o.o.O.e.b.b.k.g.%.%.<.J.4X3XV.9.&.>.a.H.5X5Xd.%.O.O.O.o.o.o.[ [ o.o.+.t./.}. X X|.|.|.|.|.|.|.|.",
"|.|.|.|.|.|.|.|.|._.l.e.o.[ o.o.#.#.#.k.b.b.v.j.e.e.s.2X4X3XB.9.&.9.u.S.5X4Xd.e.%.%.%.#.#.O.O.O.o.o.[ [ O.r./.|.|.|.|.|.|.|.|.|.",
"|.|.|.|.|.|.|.|.c.e.o.o.o.O.o.#.#.#.g.k.v.v.v.k.j.e.f.3X4X3Xf.e.&.q.2.V.4X3Xd.j.j.e.g.g.g.g.#.#.#.O.o.o.o.o.O.t.).|.|.|.|.|.|.|.",
"|.|.|.|.|.|.).t.[ [ o.O.O.#.#.g.g.g.j.j.k.j.g.#.} } p.3X4X3Xy.) ] ) ,.M.2X2X9...X.%.g.g.j.j.g.g.g.#.#.O.o.o.o.[ +.^.{.|.|.|.|.|.",
"|.|.|.|.|./.r.[ [ [ [ g.g.g.g.g.g.%.#.} ] ' ( ( ( ) f.3X4X1X8.) ) { <.M.2X5Xs.{ { ] ' ' ] } g.j.g.g.g.%.#.O.O.[ o.o.l.{.|.|.|.|.",
"|.|.|.|./.q.o.o.g.[ g.g.g.g.g.O.o.] ] ' ' ) ' ' ) ) p.2X2XG.8.} { { >.a.K.5XZ.w.w. .' ( ' ' ( ] } g.g.g.&.%.O.o.o.o.o.x.|.|.|.|.",
"|.|.|.).r.o.o.#.g.g.g.g.g. .' ( ' ' ( ( ' { | { ] 8.p.D.D.N.`  . . .>.u.H.5XZ.$.w...{ ] ' ' ' ' ( (  .g.j.g.%.@.O.o.o.o.c.|.|.|.",
"|.|.|.x.o.o.O.#.g.g.[ ] ( ( ( ( ' ' ' { | w.8.w.| ` p.G.D.2.E U U U T =.S.J.,.) ` | |  . . .{ ] ] ] ( ( ] #.g.%.#.o.o.o.q.).|.|.",
"|.|.).q.o.#.%.g.g.@.' ( ( ' ' { { {  . .8.{ _ ~ L K 4.B.B.,.J F S S e 2.S.H.=.K J K L Y / ' {  .{ { ' ' ' ' } %.%.#.o.o.[ l.|.|.",
"|.|.^.O.o.#.%.g.O.' ' ' ' ] {  . . .{ ~ I K H D D G 5.D.V.2.K H J J R 2.D.J.2.Q E K F S S H L ~ '  . . .] ] ( ] %.%.%.O.o.r.|.|.",
"|.|.c.o.#.%.%.} { { { ] { {  . .o.Y H S S S D H H G 3.S.S.,.I P I L W -.S.H.i.i.8.! L H D D S S H Y ' ..{ { ] ' ] %.%.%.O.q.|. X",
"|.|.c.O.#.%.@.{ X.t.X.|  . .] Q F S D D H H H L L U 2.V.V.=.~ ~ Q U Y =.M.C.y.f.u.! I L J H H F H D H Q | X. .] ] ] %.g.#.q.|.|.",
"|.|./.+.%.%.] { $.k.0.w.X.) L S S F H H J J L I Y E 2.M.n.! Q Q Q Y Y *.m.S.4.8.8./ Y U L I K U L J H S J ) X...{ ] } #.O.r.|.|.",
"|.|.].e.%.[ ) ' ..X.w.w./ F S F H H L L P I Y Y W =.M.a.u.r 3 1 1 < 4 *.a.M.4.T R I Y Y U Y Q / Q P H D D H ) $.X.] ] #.#.c.|.|.",
"|.|.|.c.#.] ' ]  .w.X.) H F J J L L U Y U I F 7 < t u.m.4.t = = * * ; =.4.a.2.9 , , < 7 G U ~ _ Q Q I J H D H ) X. .' @.r.].|.|.",
"|.|.|.].r.' ' ] ..X.| L S F J J L Q Y U 0 4 - % & t 4.4.=.q - - , < w 2.-.-.1.t * * * * * - 0 K Q W U L H H D J ....{ $.`.|.|.|.",
"|.|.|.|.).w.] | X.h.~ H D H J L U K e e e 4 ; * 4 t 2.1.4.t & 1 3 6 q 2.2.-.-.s 4 , = = * - - - 3 K U U L H H D ~ X.X.z.].|.|.|.",
"|.|.|.|.|.).0...g.X.I D H J L I 7 2 9 :.<.e 2 ; y -.4.4.n.t 5 5 5 6 8 1.4.-.-.-.t 4 , < , * * * & * 7 L I L H D P w.c.].|.|.|.|.",
"|.|.|.|.|.|.].d.w.X.K H J U L 7 * - 9 w ^ e 8 r -.;.-.4.C.:.6 5 5 3 q n.M.u.-.a.1.r 7 1 , , * * % * % 2 L L H J >.^.|.|.|.|.|.|.",
"|.|.|.|.|.|.|.|.`.h.U K J J 3 % * * 2 9 9 9 d p.m.m.n.N.(.L.X   X   O U.[.B.m.a.A.n.d 6 5 1 , - * % % % 3 L ! 7._.|.|.|.|.|.|.|.",
"|.|.|.|.|.|.|.|..X[.N.^ U 7 % % * * - < 2 e (.8X[.[.T.T.h s .       . > N..X.X.X6X8X'.2 6 5 1 , = * % & q 7._.].{.|.|.|.|.|.|.|.",
"|.|.|.|.|.|.|.|. X|.}.'.^.d : % * * , , 1 e 6.P.Y.L.f > o .             o > f h P.P.g   & 6 3 1 - 4 w 7.Y.'.|.|.|.|.|.|.|.|.|.|.",
"|.|.|.|.|.|.|.|.|.|.|.|.}.}._.6.d q 2 < 1 5 5 X .                                         2 0 :.7.U._.{.|.|.|.|.|.|.|.|.|.|.|.|.",
"|.|.|.|.|.|.|.|.|.|.|.|.}.}.|.|.|._.U.7.:.! e o .                             . o o > i f 6.Y.'.{.}.|.|.|.|.|.|.|.|.|.|.|.|.|.|.",
"|.|.|.|.|.|.|.|.|.|.|.|.|.|.|.|.|.|.|.|.{.(.T.U.N.h f s s i > i i i i i s f a h L.U.(.].{.|.|.|.|.|.|.|.|.|.|.|.|.|.|.|.|.|.|.|.",
"|.|.|.|.|.|.|.|.|.|.|.|.|.|.|.|.|.|.|.|.|.|.}.}.~.}.}. X|.|.|.|.|.{.}.}.}.}. X X|.|.|.|.|.|.|.|.|.|.|.|.|.|.|.|.|.|.|.|.|.|.|.|."
};
