/* XPM */
static char *__player_bhA1721364824[] = {
/* columns rows colors chars-per-pixel */
"64 64 233 2 ",
"   c #03022B",
".  c #08082C",
"X  c #090832",
"o  c #0D1034",
"O  c #191A38",
"+  c #1F233D",
"@  c #77452C",
"#  c #6C4435",
"$  c #794B36",
"%  c #060457",
"&  c #070459",
"*  c #09065B",
"=  c #0C095A",
"-  c #110F54",
";  c #211F5F",
":  c #1C2648",
">  c #2A304A",
",  c #253354",
"<  c #0A0662",
"1  c #0E0A64",
"2  c #0D096A",
"3  c #120D65",
"4  c #130C6C",
"5  c #181566",
"6  c #0E0974",
"7  c #120C74",
"8  c #180E76",
"9  c #1C1571",
"0  c #211C69",
"q  c #251D7B",
"w  c #1F226A",
"e  c #373769",
"r  c #292676",
"t  c #302F70",
"y  c #3B427B",
"u  c #464658",
"i  c #77584C",
"p  c #75625F",
"a  c #52556F",
"s  c #494A7A",
"d  c #4A5A73",
"f  c #63626D",
"g  c #746E74",
"h  c #884B29",
"j  c #875239",
"k  c #A45F38",
"l  c #A2613A",
"z  c #936955",
"x  c #946E59",
"c  c #8C7268",
"v  c #967868",
"b  c #AA7D61",
"n  c #998174",
"m  c #AA856B",
"M  c #B68B6F",
"N  c #A78777",
"B  c #B7927B",
"V  c #C3977A",
"C  c #D6A07F",
"Z  c #210F87",
"A  c #220F88",
"S  c #231187",
"D  c #25128A",
"F  c #29158E",
"G  c #291A8C",
"H  c #2B1692",
"J  c #2E1A93",
"K  c #2F1998",
"L  c #311B95",
"P  c #341C9A",
"I  c #33298B",
"U  c #382599",
"Y  c #3C3597",
"T  c #3D27A0",
"R  c #423196",
"E  c #443A97",
"W  c #4328A4",
"Q  c #4B27AE",
"!  c #4C2BAD",
"~  c #4D37AB",
"^  c #4E2AB1",
"/  c #522DB2",
"(  c #5D2BB3",
")  c #5432B4",
"_  c #5637B6",
"`  c #5B34B6",
"'  c #5A3CB6",
"]  c #5836B9",
"[  c #5C3BBB",
"{  c #653CAF",
"}  c #622CB4",
"|  c #6631B5",
" . c #6839B4",
".. c #6435B9",
"X. c #6A35BA",
"o. c #623DBB",
"O. c #6D3ABC",
"+. c #703DBF",
"@. c #4C498E",
"#. c #4B5887",
"$. c #595B9C",
"%. c #605794",
"&. c #4C658C",
"*. c #556788",
"=. c #5B728C",
"-. c #486B96",
";. c #566C94",
":. c #4B719B",
">. c #57769B",
",. c #797C8A",
"<. c #6B6E90",
"1. c #68769B",
"2. c #4949A5",
"3. c #5A49AF",
"4. c #6746B7",
"5. c #7247B7",
"6. c #655AB0",
"7. c #7556B7",
"8. c #546AA7",
"9. c #4D77A8",
"0. c #597AA6",
"q. c #6C6DA8",
"w. c #6976A4",
"e. c #6B60B2",
"r. c #7963B5",
"t. c #6D72B3",
"y. c #7978BA",
"u. c #733FC0",
"i. c #6A4AC1",
"p. c #7542C2",
"a. c #7A48C3",
"s. c #7F6AC6",
"d. c #846FAC",
"f. c #8879AD",
"g. c #836CB0",
"h. c #897AB3",
"j. c #8251C7",
"k. c #9569CD",
"l. c #74829A",
"z. c #5C84AB",
"x. c #5C84B3",
"c. c #5A86B5",
"v. c #6685A9",
"b. c #7889A8",
"n. c #6C90AF",
"m. c #7991AA",
"M. c #638BB4",
"N. c #688CB7",
"B. c #7687B7",
"V. c #6692BC",
"C. c #6A95BB",
"Z. c #6A96BA",
"A. c #799AB8",
"S. c #7EA1BF",
"D. c #6B9AC2",
"F. c #749CC5",
"G. c #75A2C4",
"H. c #7AA6C7",
"J. c #7CA9CC",
"K. c #7FAFD3",
"L. c #868488",
"P. c #968B8A",
"I. c #888B98",
"U. c #989497",
"Y. c #AC968C",
"T. c #B69786",
"R. c #A79A98",
"E. c #B7A195",
"W. c #B9A399",
"Q. c #8886AB",
"!. c #9489AE",
"~. c #9B95AD",
"^. c #9B99A8",
"/. c #8C91B4",
"(. c #A29FA3",
"). c #A19EAC",
"_. c #8AA4BB",
"`. c #A4A2A6",
"'. c #ABA3A4",
"]. c #A7A6AB",
"[. c #A9A6AA",
"{. c #ABAAAE",
"}. c #B4A8A5",
"|. c #A7ACB3",
" X c #AEADB1",
".X c #B0AFB4",
"XX c #B2B1B5",
"oX c #B7B6BA",
"OX c #BBBABC",
"+X c #C59C82",
"@X c #CAA48A",
"#X c #D5A788",
"$X c #DBAC8D",
"%X c #C9A894",
"&X c #D3AF97",
"*X c #D7B198",
"=X c #E3AE8B",
"-X c #E6B28E",
";X c #E3B798",
":X c #CAB3A5",
">X c #D2B9A9",
",X c #C8BDBA",
"<X c #D8C1B5",
"1X c #8398C2",
"2X c #83A9CB",
"3X c #85ACD0",
"4X c #85B2D2",
"5X c #89B5D5",
"6X c #8BB8D7",
"7X c #A4B6C7",
"8X c #BDBEC2",
"9X c #BCC3C9",
"0X c #C3C3C5",
"qX c #C5C6CA",
"wX c #CACACC",
"eX c #D6D0CE",
"rX c #CECED0",
"tX c #D3D3D4",
"yX c #D6D7D9",
"uX c #DBDBDD",
"iX c #E3D3CB",
"pX c #E7E0DE",
"aX c #DEDFE1",
"sX c #E0DFE1",
"dX c #DFE1E2",
"fX c #E3E3E4",
"gX c #E7E7E8",
"hX c #EBEBEC",
"jX c #EFEFF1",
"kX c #EFF0F2",
"lX c #F2F3F4",
"zX c #F6F7F9",
"xX c #F9FAFB",
/* pixels */
"].].].].].].].].].].].].].].].].].].].].].].].].].].].].].].].].].].].].].].].].].].].].].].].].].].].].].].].].].].].].].].].].",
"].].].].].].].].].].].].].].].].].].].].].].].].].].].].`.`.`.`.`.`.`.].].].].].].].{.].].].].].].].].].].].].].].].].].].].].].",
"].].].].].].].].].].].].].].].].].].].].].].].].|.`.].`.(.U.N m m N U.`.].].].].].].].].].].].].].].].].].].].].].].].].{.].].].",
"].].].].].].].].].].].].].].].].].].].].].].].].`.|.`.U.n z l k l l x Y.`.].].].].].].].].].].].].].].].].].].].].].].].].].].].",
"].].].].].].].].].].].].].].].].].].].].].].].].`.`.U.n @ h @ h h h j c (.[.[.].].].].].].].].].].].].].].].].].].].].].].].].].",
"].].].].].].].].].].].].].].].].].].].].].].].].|.U.n $ @ @ @ @ @ @ h z U.[.].].].].].].].].].].].].].].].].].].].].].].].].].].",
"].].].].].].].].].].].].].].].].].].].].].].].].(.n # @ j z m m M b z c U.].].].].].].].].].].].].].].].].].].].].].].].].].].].",
"].].].].].].].].].].].].].].].].].].].].].].].].(.g # i m V C C V m v P.[.].].].].].].].].].].].].].].].].{.].].].].].].].].].].",
"].].].].].].].].].].].].].].].].].].].].].].].].U.p @ n m V V m v c L.(.].].].].].].].].].].].].].].].].].].].{.].].].].].].].].",
"].].].].{.].].].].].].].].].].].].].].].].].].|.L.i i c x n n n n n U.`.].].].].].].].].].].].].].].].].].].].].].].].].].].{.].",
"].].].].].].].].].].].].].].].].].].].].].].].U.g n N B N B T.%XE.Y.R.].].].].].].].].].].].].].].].].].].].].].].].].].].].].].",
"].].].].].].].].].].].].].].].].].].].].].].`.n n m @XE.V C &X*X%XE.`.].].].].].].].].].{.].].].].].].].].].].].].].].].].].].].",
"].].].].].].].].].].].].].{.].].].].].].].`.|.n n V $X#X#X$X;X;X:X'.].].].].].].].].].].].].].].].].].].].].].].].].].].].].].].",
"].].].].].].].].].].].].].].].].].].].].].|.`.R.B C -X*X$X;X*X*X}.[.].].].].].].].].].].].].].].].].].].].].].].].].].].].].].].",
"].].].].].].].].].].].].].].].].].].].].].].[.`.E.%XC $X$X#X#XW.'.].].].].].].].].].].].].].].].].].].].].].].].].].].].].].].].",
"].].].].].].].].].].].].].].].].].].].].].].[.[.'.N N M B V @XE.W.].].].].].].].].].].].].].].].].].].].].].].].].].].].].].].].",
"].].].].].].{.].].].].].].].].].].].].].].{.].].(.N m M B V C #X:X,XwXwXwXwX0XXX].[.].].].].].].].].].].].].].].].].].].].].].].",
"].].].].].].].].].].].].].].].].].].].].].].].].'.B V #X$X$X*X<XeXfXhXlXlXlXgXrXXX{.].].].].].].].].].].].].].].].].].].].].].].",
"].].].].].].].].].].].].].].].].].].].].].].].{.}.:X>X<XiXiXpXhXjXzXxXxXxXxXlXgXwX{.].].].].].].].].].].].].].].].].].].].].].].",
"].].].].].].].].].].].].].].].].].].].].{.OX0XrXuXpXgXjXjXlXxXxXxXxXxXxXxXlXgXfXyXXX].].].].].].].].].].].].].].].].].].].].].].",
"].].].].].].].].].].].].{.].].].].].].|.0XuXhXlXlXlXzXzXzXzXzXlXjXhXfXfXlXgXrXtXdXOX].].].].].].].].{.].].].].].].].].].].].].].",
"].].].].].].].].].].].].].].].].].{..XqXfXjXlXhXjXlXlXlXhXuXyXdXuXrXOXXXtXtXoX0XdXqX{.].].].].].].].].].].].].].].].].].].].{.].",
"].].].].].].].].].].].].].].].].{.oXrXgXhXhXfXfXfXhXhXfXwXXXoXyXfXwX{.].wXqX X0XsXrX X].].].].].].].].].].].].].].].].].].].].].",
"].].].].].].].].].].].].].].].].oXtXhXhXdXwX0X0XwXrXrX9X`.P.[.0XwXXX{.OXtX8X{.OXiX,X}.].].].].].].].].].].].].].].].].].].].].].",
"].].].].].].].].].].].].].].].].8XfXhXfXrXoX.X{.{.{..X].P.L.L.L.U.|.{.OXqXXX[.W.%X$XW.{.].].].].].].].].].].].].].].].].].].].].",
"].].].].].].].].{.].].].].].].].8XfXhXgXyXwXOX{.].].].].].oX9X(.U.OXwXrX0X.X].Y.V =X&X{.].].].].].].].].].].].].].].].].].].].].",
"].{.].].].].].].].].].].].].].].oXyXfXpXiX>X%X).].].].].XXtXgXsXaXgXhXfXOX].].U.V ;X:X}.].].].].].].].].].].].].].].].].].].].].",
"].{.].].].].].].].].].].].].].].{.OX,X:X#X#X+XE.).].].].XXtXfXgXkXzXlXgX8X].].E.=X;X:X{.].].].].].].].].].].].].].].].].].].].].",
"].].].].].].].].].].].].].].].].].'.W.#X$X#X#X@XW.[.].].{.wXuXgXhXlXjXfXOX{.].E.-X;X}.[.].].].].].].].].].].].].].].].].].].].].",
"].].].].].].].].].].].].].].].].].].W.W.@X$X=X-X*X}.].].{.qXuXfXhXjXgXuXOX{.].E.-X*X{.[.].].].].].].].].].].].].].].].].].].].].",
"].].].].].].].].].].].].].].].].].].].].'.W.%X$X=X%XW.]. X0XyXpXhXgXfXuXOX].].E.#X&X{.].].].].].].].].{.].].].].].].].].].].].].",
"].].].].].].].].].].].].].].].].].].].].].].(.W.+X#XE.R.[.OXwXyXaXaXuXyX0X X'.T.B E.[.].].].].].].].].].].].].].].].].{.].].].].",
"].].].].].].].].].].].].].].].{.].].].].].].].].E.T.B B Y. X9XtXuXuXaXdXaXoXE.T.B '.].].].].].].].].].].].].].].].].].].].].].].",
"].].].].].].].].].].].].].].].].].].].].].].].'.`.R.B M N P.{.qXyXaXdXdXrX|.P.B @X'.].].].].].].].].].[.].].].].].].].].].].].].",
"].].].].].].].].].].].].].].].].].].].].].].[.[.].].T.B n l.m.|.8X9X9X9X7X_.m.I.U.U.].].].].].].].].[.].].].].].].].].].].].].].",
"].].].].].].].].].].].].].].].].].].].].].^.~.!.f.d.d.P.l.n.Z.A.G._._.A.G.G.J.G.A.m./.^.].].].].].].].[.].].].].].].].].].].].].",
"].].].].].].].].].].].].].].].].).~.!.g.7.5.O.| } } { 1.v.A.G.D.Z.z.z.z.c.Z.Z.J.J.J.J.1X1X/.~.).].].'.].].].].].].].].].].].].].",
"].].].].].].].].].].].].].(.!.d.7.{ | | 5.5.+.| | | { r.n.G.J.G.V.>.=.*.&.>.z.V.J.K.5X5X5X2XB.e.r.!.(.'.].].].].].].].].].].].].",
"].].].].].].].].].].].~.h.7...} } } | u.k.k.a.u...+.X.7.n.J.4XH.Z.>.=.,.<.;.>.z.c.G.J.3X5X5X2Xy.4.} 4.r.~.`.].].].].].].].].].].",
"].].].].].].].].].^.d.5.} } } } X.X.O.5.k.k.j.p.u.p.p.7.B.H.4X4XG.n.l.I.Q.y.w.w.t.0.c.D.F.J.4XK.B.4.} ( | 7.~.`.].].].].].].].].",
"].].].].].].].^.h.5.} } } } } X.X.X.u.j.j.j.j.a.5.p.p.i.m.J.5X5X4XS.n.b.k.y.i.7.r.t.w.0.x.Z.J.5X3Xy.| } } } | 7.~.].].].].].].].",
"].].].].].].^.7.} } } X.} X.X.u.p.u.p.p.u.p.u...` ( ( 4.B.H.5X6X6XJ.A.b.6.3.3.[ [ 4.e.q.w.z.D.K.3Xy.X.} } } } ( { !.].].].].].].",
"].].].].'.!.5.} } } ( u.u.u.u.u.u.O.X.` / ^ Q Q Q Q ! 3.Q.H.4X6X5X4XS.m.6.) ) ) ) / ' 6.w.0.D.J.1Xs.+.+.X.| } } ( } g.).].].].].",
"].].].].~.4.| | } ( u.u.u.u.u...} ^ ^ ^ ^ ^ ^ ^ ! / / 3.m.S.2X6X5X4X2Xm.6.) ) [ 4._ ! 3.w.>.c.F.y.4.p.u.+.X.| } } } } g.].].].].",
"].].'.~.5.} | | ( u.u.u.u.] ^ Q ^ ^ Q ^ ^ _ _ ) ) ) ) 3.Q.A.2X4X6X4XH.A.e.[ [ 4.4.] ] _ q.;.x.F.t.^ ) [ p.u.O...| } } } f.].].].",
"].].].g.( } |  .u.u.../ Q Q Q ^ ^ ^ ^ ) ] 4.[ 3._ / ! 3.b.A.G.H.J.J.S.m.$.U T ! ) ) ] 3.1.0.V.D.6.) ^ ^ / ..u.u.X.} } } { ).].].",
"].].~.4.} X.O.u.u.u./ Q Q Q ^ ) ) ) _ ] _ ~ ~ T J D Z I ,.n.C.D.D.Z.n.l.@.S S G G G J E 8.M.D.t._ ) / ^ ^ ^ ` O.X.X.| } } d.].].",
"].].!.| } ..u.u.[ ^ Q ^ ^ / ) ) ] ] _ T K G G A S Z S Y b.m.C.D.Z.N.v.1.@.D I U I G G #.>.Z.N.3.) ] ] ] / / ! / O.O.X...} 5.].].",
"].].f.} X.O.u.` ) ) ) / ) ) ] ] / P D Z Z S D D D D D R I.m.N.V.M.v.v.w.2.K Y 8.2.Y R ;.x.V.8.I D U ! ] _ / / ^ / O.X.O.| 5.`.].",
"].].h.| X.O...) [ 7.4._ ] ] ) P D Z S S D D D H F F K E b.n.V.D.V.n.w.$.Y U 2.t.8.Y $.0.c.c.@.G A A A T _ [ ] ) ^ / O.O.X.5.`.].",
"].].!.| O.O.^ ) o.a.4.[ [ W H Z Z Z D D F F F L L L P E b.n.D.D.V.w.;.Y P T ~ 2.2.2.;.0.M.8.U L H F A Z F ! [ ` _ / ` u.| 7.].].",
"].].).5.O.( Q ^ ' o.4.[ W D A A D F F L J L P P P H L @.1.c.c.c.z.;.t 2 2 9 r I E $.0.c.w.2.U R U J D A S S ! o.] ) / X.X.h.].].",
"].].].h.X./ Q / ] [ [ ! F A D F F F L P P J S 8 3 * 0 *.>.M.c.M.>.s * & * & * t *.;.0.x.1.Y T ~ T U H F F S D Q [ ] / ` 7.~.].].",
"].].{.).7.^ ^ ) ] 4._ H A D F F L P P L q 5 = & & & w ;.9.x.9.>.*.e 1 1 * < e a ;.9.9.0.*.w 9 L U P P H D D D F ] ] ) 4.!.].].].",
"].].].].).4.Q ` [ i.T S A D F K L F q t r 0 = * * * w -.9.9.9.;.s 8 4 2 2 4 d *.-.9.-.#.e - = = 4 G P L H F D A T [ [ g.].].].].",
"].].].].).~.4.' [ [ K A D H H H 9 3 0 @.$.r 5 < 1 9 e -.:.:.&.#.r 6 7 6 Z e ;.-.-.-.&.e 5 * & & & & 8 H H H D A J 4.h.).].].].].",
"].].].].].].`.r.i.[ G D F J H 4 & = 0 e E r 5 2 5 y #.-.-.&.#.t 7 7 6 2 7 #.;.-.-.-.&.w 1 < * & % % % 3 H H F F @.Q.).].].].].].",
"].].].].].].].{./.i.J D H H 4 & & & 5 9 0 5 2 9 y &.-.-.:.:.d o         X d >.:.-.-.&.9 6 < < * & % % % 2 H Y <.~.].].].].].].].",
"].].].].].].].].|.].f.E L 8 & & & & = 1 3 2 7 r &.:.:.:.-.=.u .         . d 0.9.9.9.-.w 6 7 2 < & & % % ; <.!.].].].].].].].].].",
"].].].].].].].].].].`.).Q.s 0 & & & < < 2 6 7 9 &.:.:.&.d > O           . u =.>.9.0.;.: % 7 7 1 = 5 e <.U.].].].].].].].].].].].",
"].].].].].].].].].].].].'.].U.,.s t - < 2 2 2 - : , , , +                 O > > , , , o   5 r s <.I.^.`.].].].].].].].].].].].].",
"].].].].].].].].].].].].].].].].[.^.I.<.#.Y r O .                             . X O > u f ,.!.(.'.].].].].].].].].].].].].].].].",
"].].|.].].].].].].].].].].].].].].].].].`.).U.I.l.g f a a u > u u u u u a f g ,.L.U.U.`.].].].].].].].].].].].].].].].].].].].].",
"].].].].].].].].].].].].].].].].].].].].].].].[.}.[.[.'.[.[. X].`.`.].].`.].{.`.].].].].].].].].].].].].].].].].].].].].].].].]."
};
