/* XPM */
static char *__player_bhB1721364823[] = {
/* columns rows colors chars-per-pixel */
"64 64 237 2 ",
"   c #02022A",
".  c #090A2E",
"X  c #060536",
"o  c #171937",
"O  c #22243E",
"+  c #77452C",
"@  c #6C4435",
"#  c #794B36",
"$  c #060457",
"%  c #080650",
"&  c #070459",
"*  c #09065C",
"=  c #0C095C",
"-  c #121058",
";  c #1F2B4B",
":  c #2C324B",
">  c #253354",
",  c #0A0764",
"<  c #0E0964",
"1  c #0D096B",
"2  c #100A64",
"3  c #120B6C",
"4  c #191665",
"5  c #0E0A74",
"6  c #110B73",
"7  c #150E77",
"8  c #1C1478",
"9  c #21167E",
"0  c #1E2570",
"q  c #292B6C",
"w  c #36366A",
"e  c #2A2874",
"r  c #363678",
"t  c #3B4274",
"y  c #454658",
"u  c #77584C",
"i  c #585764",
"p  c #464879",
"a  c #4F5471",
"s  c #495B75",
"d  c #63626C",
"f  c #706C74",
"g  c #884B29",
"h  c #8D553A",
"j  c #A45F38",
"k  c #A2613A",
"l  c #936955",
"z  c #946E59",
"x  c #8C7268",
"c  c #967868",
"v  c #8C7B77",
"b  c #AA7D61",
"n  c #998174",
"m  c #AA856B",
"M  c #B68B6F",
"N  c #A78777",
"B  c #B7927B",
"V  c #C3977A",
"C  c #D6A07F",
"Z  c #220F87",
"A  c #220F88",
"S  c #231186",
"D  c #281A82",
"F  c #25128A",
"G  c #29148E",
"H  c #2B1A8D",
"J  c #2B1692",
"K  c #2E1994",
"L  c #321B95",
"P  c #341D9B",
"I  c #2C2289",
"U  c #352797",
"Y  c #3B239D",
"T  c #363390",
"R  c #3D29A1",
"E  c #423296",
"W  c #44399A",
"Q  c #452AA6",
"!  c #4B27AE",
"~  c #4C2BAE",
"^  c #4733A6",
"/  c #553DAD",
"(  c #4E2BB1",
")  c #522DB3",
"_  c #5F29B2",
"`  c #5533B5",
"'  c #5B33B6",
"]  c #583BB5",
"[  c #5936B9",
"{  c #5C3BBA",
"}  c #643BAE",
"|  c #622CB4",
" . c #6532B4",
".. c #6633B8",
"X. c #6A35BA",
"o. c #643BB9",
"O. c #6D3ABD",
"+. c #713DBF",
"@. c #3E4181",
"#. c #494689",
"$. c #4A5786",
"%. c #545684",
"&. c #4B4696",
"*. c #575B99",
"=. c #645C9A",
"-. c #4C668C",
";. c #546789",
":. c #5B728C",
">. c #486B96",
",. c #576B94",
"<. c #4B719C",
"1. c #58769B",
"2. c #68698E",
"3. c #787C8A",
"4. c #6A769B",
"5. c #787A9A",
"6. c #4849A8",
"7. c #5B5BA4",
"8. c #5C47B6",
"9. c #655AAC",
"0. c #6C43B1",
"q. c #6748B9",
"w. c #724BB7",
"e. c #6756B6",
"r. c #7655B4",
"t. c #5167A8",
"y. c #4D77A8",
"u. c #5879A7",
"i. c #6A6CA6",
"p. c #6776A6",
"a. c #7964B5",
"s. c #7172B5",
"d. c #6F3FC0",
"f. c #723FC0",
"g. c #7341C1",
"h. c #704DC3",
"j. c #764AC4",
"k. c #7D72C6",
"l. c #8F7F8D",
"z. c #846EAB",
"x. c #8A7AAE",
"c. c #826CB0",
"v. c #8674B2",
"b. c #74829A",
"n. c #5C84AB",
"m. c #5C84B3",
"M. c #5A86B5",
"N. c #6685A9",
"B. c #7889A8",
"V. c #6C90AF",
"C. c #7991AB",
"Z. c #638CB4",
"A. c #688AB8",
"S. c #7788B8",
"D. c #6692BC",
"F. c #6A95BB",
"G. c #6A96BA",
"H. c #799AB8",
"J. c #7EA1BF",
"K. c #6C8AC1",
"L. c #6B99C2",
"P. c #749CC5",
"I. c #75A2C4",
"U. c #7AA6C7",
"Y. c #7CA9CC",
"T. c #7FAFD3",
"R. c #868488",
"E. c #968B8A",
"W. c #878997",
"Q. c #989498",
"!. c #AC968C",
"~. c #B69786",
"^. c #A79A98",
"/. c #B7A195",
"(. c #B9A399",
"). c #8585A8",
"_. c #9489AE",
"`. c #9A99A6",
"'. c #9B94AE",
"]. c #9E9AAC",
"[. c #8C91B3",
"{. c #A19EA7",
"}. c #8AA4BB",
"|. c #A5A2A6",
" X c #ABA3A4",
".X c #A7A6AB",
"XX c #A9A6AA",
"oX c #ABAAAE",
"OX c #B4A8A5",
"+X c #A7ACB3",
"@X c #AEADB1",
"#X c #B0AFB4",
"$X c #B2B1B5",
"%X c #B7B6BA",
"&X c #BBBABC",
"*X c #C59C82",
"=X c #CAA48A",
"-X c #D5A788",
";X c #DBAC8D",
":X c #C9A894",
">X c #D3AF97",
",X c #D7B198",
"<X c #E4B08C",
"1X c #E3B798",
"2X c #CAB3A5",
"3X c #D2B9A9",
"4X c #C8BDBA",
"5X c #D8C1B5",
"6X c #8599C3",
"7X c #83A9CB",
"8X c #86ACD0",
"9X c #85B2D2",
"0X c #8AB5D5",
"qX c #8BB8D7",
"wX c #A4B6C7",
"eX c #BDBEC2",
"rX c #BCC3C9",
"tX c #C3C3C5",
"yX c #C5C6CA",
"uX c #CACACC",
"iX c #D6D0CE",
"pX c #CECED0",
"aX c #D3D3D4",
"sX c #D6D7D9",
"dX c #DBDBDD",
"fX c #E3D3CB",
"gX c #E7E0DE",
"hX c #DEDFE1",
"jX c #DFE1E2",
"kX c #E3E3E4",
"lX c #E7E7E8",
"zX c #EBEBEC",
"xX c #EFEFF1",
"cX c #EFF0F2",
"vX c #F2F3F4",
"bX c #F6F7F9",
"nX c #F9FAFB",
/* pixels */
".X.X.X.X.X.X.X.X.X.X.X.X.X.X.X.X.X.X.X.X.X.X+X.X.X.X.X.X.X.X.X.X.X.X.X.X.X.X.X.X.X.X.X.X.X.X.X.X.X.X.X.X.X.XoX.X.X.X.X.X.X.X.X.X",
".X.X.X.X.X.X.X.X.X.X.X.X.X.X.X.X.X.X.X.X.X.X.X.X.X|..X.X|.|.|. X|.|..X.X.X.X.X.X.X.X.X.X.X.X.X.X.X.X.X.X.X.X.X.X.X.X.X.X.X.X.X.X",
".X.X.X.X.X.X.X.X.X.X.X.X.X.X.X.X.X.X.X.X.X.X.X.X.X.X.X|.|.Q.N m m N Q.|..X.X.X.X.X.X.X.X.X.X.X.X.X.X.XoX.X.X.X.X.X.X.X.X.X.X.X.X",
".X.X.X.X.X.X.X.X.X.X.X.X.X.X.X.X.X.X.X.X.X.X.X.X.X.X.XQ.n l k j k k z !.|..X.X.X.X.X.X.X.X.X.X.X.X.X.XXX.X.X.X.X.X.X.X.X.X.X.X.X",
".X.X.X.X.X.X.X.X.X.X.X.X.X.X.X.X.X.X.X.X.X.X.X.X.X|.Q.n # g g + g g h x Q..X.X.X.X.X.X.X.X.X.X.X.X.X.X.X.X.X.X.X.X.X.X.X.X.X.X.X",
".X.X.X.X.X.X.X.X.X.X.X.X.X.X.X.X.X.X.X.X.X.X.X.X.XQ.n # + + + + + + g l ^..X.X.X.XoX.X.X.X.X.X.X.X.X.X.X.X.X.X.X.X.X.X.X.X.X.X.X",
".X.X.X.X.X.X.X.X.X.X.X.X.X.X.X.X.X.X.X.X.X.X|..X|.n # + h l m m M b l x Q..X.X.X.X.X.X.X.X.X.X.X.X.X.X.X.X.X.X.X.X.X.X.X.XoX.X.X",
".X.X.X.X.X.X.X.X.X.X.X.X.X.X.X.X.X.X.X.X.X.X+X.XQ.f @ u m V C V B b c E..X.X.X.X.X.X.X.X.X.X.X.X.X.X.X.X.X.X.X.X.X.X.X.X.X.X.X.X",
".X.X.X.X.X.X.X.X.X.XoX.X.X.X.X.X.X.X.X.X.X.X.X|.Q.u @ n m V V m c x R.{..X.X.X.X.X.X.X.X.X.X.X.X.X.X.X.X.X.X.X.X.X.X.X.X.X.X.X.X",
".X.X.X.X.X.X.X.X.X.X.X.X.X.X.X.X.X.X.X.X.X.X.X+XR.u u x n n n n N n Q.|..X.X.X.X.X.X.X.X.X.X.X.X.X.X.X.X.X.X.X.X.X.X.X.X.X.X.X.X",
".X.X.X.X.X.X.X.X.X.X.X.X.X.X.X.X.X.X.X.X.X.X|.Q.v x N B m M ~.(./.!.Q.oX.X.X.X.X.X.X.X.X.X.X.X.X.X.X.X.X.X.X.X.X.X.X.X.X.X.X.X.X",
".X.X.X.X.X.X.X.X.X.X.X.X.X.X.X.X.X.X.X.X.X.X|.n x N C /.V C >X,X:X/.XX.X.X.X.X.X.X.X.X.X.X.X.X.X.X.X.X.X.X.X.X.X.X.X.X.X.X.X.X.X",
"oX.X.X.X.X.X.X.X.X.X.X.X.X.X.X.X.X.X.X.X.X|.+Xn n V ;X-X-X;X1X1X2X X.X.X.X.X.X.X.X.X.X.X.X.X.X.X.X.X.X.X.X.X.X.X.X.X.X.X.X.X.X.X",
"oX.X.X.X.X.X.X.X.X.X.X.X.X.X.X.X.X.X.X+X.X+X|.^.B ,X<X,X;X1X1X>X(.XX.X.X.X.X.X.X.X.X.X.X.X.X.X.XoX.X.X.X.X.X.X.X.X.X.X.X.X.X.X.X",
".X.X.X.X.X.X.X.X.X.X.X.X.X.X.X.X.X.X.X.X.X.X|.|././.-X;X;X;X:X(.XX|..X.X.X.X.X.X.X.X.X.X.X.X.X.X.X.X.X.X.X.X.X.X.X.X.X.X.X.X.X.X",
".X.X.X.X.X.X.X.XoX.X.X.X.X.X.X.X.X.X.X.X.X.X.X+X/.B m M B V V =XOXXX.X.X.X.X.X.X.X.X.X.X.XoX.X.X.X.X.X.X.X.X.X.X.X.X.X.X.X.XoX.X",
".X.X.X.X.X.X.X.X.X.X.X.X.X.X.X.X.X.X.X.X.X.X.X.X^.N N M B C -X=X2X4XuXuXpXuXrX$XoX.X.X.X.X.XoX.X.X.X.X.X.X.X.X.X.X.X.X.X.X.X.X.X",
".X.X.X.X.X.XoX.X.X.X.X.X.X.X.X.X.X.X.X.X.X.X.XXX X~.V C -X;X>X5XiXgXzXcXvXcXlXpX$X.X.X.X.X.XXX.X.X.X.X.X.X.X.X.XoX.X.X.X.X.X.X.X",
".X.X.X.X.X.X.X.X.X.X.X.X.X.X.X.X.X.X.X.X.XXX.XoXOX2X3X5XfXfXgXzXvXbXnXnXnXnXvXlXyX@X.X.X.X.X.X.X.X.X.X.X.X.X.X.X.X.X.X.X.X.X.X.X",
".X.X.X.X.X.X.X.X.X.X.X.X.X.X.X.X.X.X.X.XoX%XyXpXdXgXlXzXxXvXnXnXnXnXnXnXnXvXlXkXsX$X.X.X.X.X.X.X.X.X.X.X.X.X.X.X.X.X.X.X.X.X.X.X",
".X.X.X.X.X.X.X.XoX.X.X.X.X.X.X.X.X.X.XoXtXhXzXxXvXvXbXnXbXbXbXvXcXzXkXkXxXlXpXaXjX%X.X.X.X.X.X.X.X.X.X.X.X.X.X.X.X.X.X.X.X.X.X.X",
".X.X.X.X.X.X.X.X.X.X.X.X.X.X.X.X.X.X#XyXkXxXcXxXcXvXvXvXzXdXsXjXdXpX%X$XaXaX&XtXjXyXoX.X.X.X.X.X.X.X.X.X.X.X.X.X.X.X.X.X.X.X.X.X",
".X.X.X.X.X.X.X.X.X.X.X.X.X.X.X.XoX&XpXlXxXzXkXjXkXlXzXkXuX$X&XsXjXuXoXoXuXuX@XtXjXpX@X.X.X.X.X.X.X.X.X.X.X.X.X.X.X.X.X.X.X.X.X.X",
".X.X.X.X.X.X.X.X.X.X.X.X.X.X.X.X$XsXlXzXhXpXtXtXuXpXpXrX|.E.|.tXuX%X.X&XaXeXoX&XfX4XOXXX.X.X.X.X.X.X.X.X.X.X.X.X.X.X.X.X.X.X.X.X",
".X.X.X.X.X.X.X.X.X.X.X.X.X.X.X.XrXkXzXkXpX%X@XoXoX@XoX.XE.R.R.R.Q.oX@X%XtX$XoX(.>X<X(.XXXXXX.X.X.X.X.X.X.X.X.X.X.X.X.X.X.X.X.XoX",
".X.X.X.X.X.X.X.X.X.X.X.X.X.X.X.X&XkXzXzXdXuX&XoX.X.X.X.X.X%XrX|.Q.&XuXpXtX$X.X!.B <X2XXX.XXX.X.X.X.X.X.X.X.X.X.X.X.X.X.X.X.X.X.X",
".X.X.X.X.X.X.X.X.X.X.X.X.X.X.X.X%XsXkXgXfX3X(.|..X.X.X.X$XaXlXjXdXlXzXjX&X.X.XQ.V 1X,XoX.X.X.X.X.X.X.X.X.X.X.X.X.X.X.X.X.X.X.X.X",
".X.X.X.X.X.X.X.X.X.X.X.X.X.X.X.XoX%X4X2X-X-X*X/..X.X.X.X#XaXkXlXcXbXbXlXeX.X.X/.;X1X2XoX.X.X.X.X.X.X.X.X.X.X.X.X.X.X.X.X.X.X.X.X",
".X.X.X.X.X.X.X.X.X.X.X.X.X.X.X.XoX X(.-X;X-X-X-XOX{.XX.X#XuXdXlXcXvXxXjX&X.X.X/.1X1XOX.X.X.X.X.X.X.X.X.XoX.X.X.X.X.X.X.X.X.X.X.X",
".X.X.X.X.X.X.X.X.X.X.X.X.X.X.X.X.X.X(.(.=X;X<X<X;XOXXXXX@XyXdXkXzXzXlXdX&XoX.X(.<X,XOX.X.X.X.X.X.X.X.X.X.X.X.X.X.X.X.X.X.X.X.X.X",
".X.XoX.X.X.X.X.X.X.X.X.X.X.X.X.X.X.X.X.X X(.:X;X<X=X X XoXtXsXkXzXlXlXdX&X.X X/.-X:XoX.X.X.X.X.X.X.X.X.X.X.X.X.X.X.X.X.X.X.X.X.X",
".X.X.X.X.X.X.X.X.X.XoX.X.X.X.X.X.X.X.X.X.X.X{./.=X-X~.{.XX4XuXaXdXkXdXsXtX#X X!.V /. X.X.X.X.X.X.X.XoX.X.X.X.X.X.X.X.X.X.X.X.X.X",
".X.X.X.X.X.X.X.X.X.X.X.X.X.X.X.X.X.X.X.X.X.X.X|./.B B B !.@XtXpXsXdXjXjXdX&X/.~.B ^.oX.X.X.X.X.X.X.X.X.X.X.X.X.X.X.X.X.X.X.X.X.X",
".X.X.X.X.X.X.X.X.X.X.X.X.X.X.X.X.X.X.X.X.X.X.X.X|.^.B V N E.@XrXdXdXjXjXaX+XE.B =XXX.X.X.X.X.X.X.X.X.X.X.X.X.X.X.X.X.X.X.X.X.X.X",
".X.X.X.X.X.X.X.X.X.X.X.X.X.X.X.X.X.X.X.X.X.X.X.X.XXX~.B n b.[.+XeXrXrXrXwX}.C.W.Q.Q.|..X.X.X.X.X.X.X.X.X.X.X.X.X.X.X.X.X.X.X.X.X",
".X.X.X.X.X.X.X.X.X.X.X.X.X.X.X.X.X.X.X.X|.].'._.x.s.z.R.b.V.G.G.J.}.J.H.I.I.Y.I.H.C.[.]..X.X.X.X.X.X.X.X.X.X.X.X.X.X.X.X.X.X.X.X",
".X.X.X.X.X.X.X.X.X.X.X.X.X.X.X.X|.'._.a.w.0. ._ | | } 5.N.H.I.L.G.n.N.1.n.D.I.I.Y.T.U.6X6X[.'.]..X.X.X.X.X.X.X.X.X.X.X.X.X.X.X.X",
".X.X.X.X.X.X.X.X.X.X.X.X.X{.'.z.r. .| _ _ | _ | | | X.i.V.I.Y.I.Z.n.:.;.-.1.n.D.Y.T.0XqX8X7XS.a.a._.{. X.X.X.X.X.X.X.X.X.X.X.X.X",
".X.X.X.X.X.X.X.X.X.X.X{.v.w. .| _ | | | |  . ...X.O.w.r.G.U.9XU.G.1.:.3.2.:.1.n.K.L.Y.9X0X0X7XS.0.| 0.a.'..X.X.X.X.X.X.X.X.X.X.X",
".X.X.X.XoX.X.X.X.X].c.0.| | | |  . . .X.X.X.O.O.+.g.h.k.C.U.9X9XU.V.N.W.).a.p.p.p.u.M.L.P.Y.T.8XS.e.| _  .r._..X.X.X.X.X.X.X.X.X",
".X.X.X.X.X.X.X.Xv.O.| _ | | | ..X.X.O.O.f.f.f.f.g.j.h.k.S.U.0X0XT.J.V.B.a.j.j.r.a.s.p.u.M.G.Y.9X8Xs. .| | |  .a.'..X.X.X.X.X.X.X",
".X.X.X.X.X.X'.r.| | | |  . ...f.+.+.g.g.g.d.o.X.' ] 8.e.C.7X0XqXqXY.H.B.9.) ] ' o.q.a.p.p.N.L.T.8Xk.X.X. . .| | 0.).{..X.X.X.X.X",
".X.X.X.X.X_.0.| | | ....X.f.f.f.g.+.X.' ) ) ) ` ` ) ` 8.S.U.9XqXqX8XJ.C.9.! ( ! ! ! / 9.p.u.L.U.6Xk.f.+.X.X.| | |  .v.{..X.X.X.X",
".X.X.X.X_.} | | | ....d.+.w.f...' ) ( ( ( ( ` { q.] ` q.).J.7XqXqX9X7XC.9.( ( ( ~ ) ) / p.1.M.P.s.+.f.f.+.O.X.....| | v..X.X.X.X",
".X.XoX{.w._ | | ..d.d.f.d.[ ( ( ( ( ) ( ) ` [ { 8.{ { q.).H.7X9X0X9XU.H.e.[ ` ` ` ` ` 8.4.<.m.P.s.~ ` o.d.O.O.O.X.X.|  .x..X.X.X",
".X.X.Xc.| | |  ...d..._ ! ( ( ) ) ` ` ` ` [ ` ` ` Q Y &.B.H.I.U.Y.Y.H.C.7.~ ~ ` { 8.8.8.i.u.L.L.9.~ ! ( ) ..f.f.X.X.| | 0.{..X.X",
".X.X'.} |  .X.X.f.d.) ( ( ) ) ` [ ` ) Q Y K H H D F 9 E 5.V.G.L.G.G.V.b.#.S F G U ^ / 8.i.m.L.s.] ) ( ( ! ( _ O.+.+.X.| | v..X.X",
".X.X_.|  . .O.O.' ! ( ) ` ` [ ` Q P G A Z S H I U T I E b.C.G.L.G.G.N.4.#.F S A Z F I *.u.D.A.e.[ ` ) ( ( ( ( ) O.+.O.X.| w..X.X",
".X.Xx.| X.O.O.' ~ ) ) ` [ ` R J Z Z Z F Z G U W t.6.R W W.C.A.D.D.N.p.4.&.G F S F F T ,.m.D.u.^ [ [ [ ` ` ` ` ` ` O.+.X.| 0..X.X",
".X.Xx...O.O.o.~ ) ` { [ Q J S A Z F F F G G U 6.M.t.R &.B.C.D.L.D.V.p.*.T K J J J H *.u.M.m.&.F J Q [ [ [ { q.h.` ) X.+.X.w.|..X",
".X.X_.X.X.X.) ) [ [ [ Y S Z G G J K K K K P Y ^ 6.6.R 6.N.V.D.D.D.p.7.W Y P P P L E ,.u.Z.t.H S Z S Y ` { { h.h.` ~  .+.X.r..X.X",
".X{.{.w.X.' ) [ { ` L F A F G P E Q P P P P P I I I e t b.M.M.D.N.,.r 7 8 F J P W =.u.m.n.&.H G Z Z Z P [ { 8.{ ` ( ( O.X.x..X.X",
".X.X.Xv.X.' ` { ' L Z F G G L Q ^ Q P J 8 3 < $ , = 4 s N.m.M.m.1.a * $ $ $ = w %.,.u.M.i.Y K G G G G Z P { { { ` ( ! ..w.]..X.X",
".X.XoX].r.) [ { Q A A G G L P P U 9 4 = $ $ * $ & * 0 ,.y.M.y.u.;.w , * $ < w a ,.u.y.u.,.E Y K J F G A Z Q d.{ [ ( ! o._..X.X.X",
".X.X.X.X'.q.{ ` G Z F G K L G 8 2 = * & & & , , , , 0 >.y.n.y.-.p 3 1 , 2 4 a ;.>.t.<.-.p r 9 K K J G A Z J { { [ ( ` c..X.X.X.X",
".X.X.X.XoX'.e.~ A A G J L Z 2 $ $ $ * * , , , 1 5 8 t >.<.>.-.$.e 6 5 5 7 r ;.>.>.>.-.%.=.w 4 3 G K J F Z A ` 8.[ 8.v.{..XoX.X.X",
".X.X.X.X.X.X'.i.I G G J 8 * $ $ & * & , , 1 5 7 D t -.>.>.-.$.e 6 5 5 5 5 %.,.>.>.>.-.r #.e 2 = 2 S K J F A ! h.h.[..X.X.X.X.X.X",
".X.X.X.X.X.X.X{.x.&.K 8 * $ $ * * * , 5 5 7 5 4 t s -.>.<.<.s . X X X % = $.1.<.>.>.-.0 4 4 = $ $ * S K F A / v.]..X.X.X.X.X.X.X",
".X.X.X.X.X.X.X.X X`.5.p - % $ & , , 3 7 1 $ X o s <.<.>.<.:.y .         . s n.y.y.y.<.0 2 = * $ $ $ , G U =.'..X.X.X.X.X.X.X.X.X",
".X.X.X.X.X.X.X.X.X.XoX{.l.a q 2 , 1 6 < X     o -.<.<.-.s : o             y :.1.y.y.y.0 < , * * $ - w 4.'..X.X.X.X.X.X.X.X.X.X.X",
".X.X.X.X.X.X.X.X.X.X.X.X|.|.`.3.s r 8 %   .   . ; > > : O                 o : : > r T 7 1 2 0 w 2.W.{.|..X.X.X.X.X.X.X.X.X.X.X.X",
".X.X.X.X.X.X.X.X.X.X.X.X.X.X.X.X|.`.W.f i : O o .                               . 4 r @.2.3.Q.{.|..X.X.X.X.X.X.X.X.X.X.X.X.X.X.X",
".X.X.X.X.X.X.X.X.X.X.X.X.X.X.X.X.X.X.X.X|.|.Q.W.R.f d i i y y y y : y y i d f f R.`.].{.{..X.X.X.X.X.X.X.X.X.X.X.X.X.X.X.X.X.X.X",
".X.X.X.X.X.X.X.X.X.X.X.X.X.X.X.X.X.X.X.X|.XXoX.XoX.X.X.X.X|.|.oXoXoX.X.X.X.X.X@X.X.X.X.X.X.X.X.X.X.X.X.X.X.X.X.X.X.X.X.X.X.X.X.X"
};
