/* XPM */
static char *__player_bhB1721364824[] = {
/* columns rows colors chars-per-pixel */
"64 64 230 2 ",
"   c #02012A",
".  c #090A2E",
"X  c #080736",
"o  c #131637",
"O  c #24243E",
"+  c #7D4E37",
"@  c #060457",
"#  c #080650",
"$  c #070559",
"%  c #09065B",
"&  c #0D0A5C",
"*  c #131354",
"=  c #2E354E",
"-  c #0A0764",
";  c #0E0A63",
":  c #0D096C",
">  c #120C69",
",  c #1A1665",
"<  c #0E0A74",
"1  c #120C75",
"2  c #1B1477",
"3  c #211777",
"4  c #2C2B6C",
"5  c #36376C",
"6  c #292776",
"7  c #363779",
"8  c #39466E",
"9  c #464557",
"0  c #7A574C",
"q  c #7B6259",
"w  c #585764",
"e  c #4C4F73",
"r  c #4C5679",
"t  c #6D6C76",
"y  c #864B2B",
"u  c #83533A",
"i  c #9D5B35",
"p  c #865847",
"a  c #936850",
"s  c #A9755C",
"d  c #8D736A",
"f  c #987A68",
"g  c #8C7C79",
"h  c #A47C66",
"j  c #9C806E",
"k  c #9A837B",
"l  c #AD876D",
"z  c #A68877",
"x  c #B58D74",
"c  c #BB947B",
"v  c #C79A7C",
"b  c #220F87",
"n  c #220F88",
"m  c #231286",
"M  c #25128A",
"N  c #29158E",
"B  c #29198A",
"V  c #2C1691",
"C  c #2E1993",
"Z  c #311B95",
"A  c #341D9A",
"S  c #2D2287",
"D  c #362796",
"F  c #3B239D",
"G  c #383191",
"H  c #3D29A1",
"J  c #412A9D",
"K  c #453D98",
"L  c #4729A9",
"P  c #4C2AAE",
"I  c #4D37A9",
"U  c #4E2AB0",
"Y  c #522DB3",
"T  c #5E2AB2",
"R  c #5533B5",
"E  c #5C33B6",
"W  c #573BB4",
"Q  c #5937B9",
"!  c #5C3BBA",
"~  c #622CB4",
"^  c #6532B4",
"/  c #653BB7",
"(  c #6533B8",
")  c #6A35BA",
"_  c #6D3ABD",
"`  c #713DBE",
"'  c #3B4F87",
"]  c #4F568D",
"[  c #535886",
"{  c #454596",
"}  c #645C9A",
"|  c #4C668D",
" . c #566B8A",
".. c #4B6C94",
"X. c #486B9A",
"o. c #556897",
"O. c #4E7098",
"+. c #597498",
"@. c #6F6D8B",
"#. c #686796",
"$. c #64789A",
"%. c #787C9B",
"&. c #4E4FA7",
"*. c #5A4AAD",
"=. c #5C47B4",
"-. c #714CAD",
";. c #6958A9",
":. c #6C43B2",
">. c #6746BA",
",. c #7548BB",
"<. c #6954B9",
"1. c #7657B5",
"2. c #4E68A8",
"3. c #4B74A2",
"4. c #5879A7",
"5. c #6869A8",
"6. c #6779A7",
"7. c #7A7FAD",
"8. c #6765B5",
"9. c #7968B4",
"0. c #6379B3",
"q. c #757BBB",
"w. c #6F3FC0",
"e. c #723FC0",
"r. c #6847C1",
"t. c #7441C1",
"y. c #7949C3",
"u. c #7C71C1",
"i. c #887E80",
"p. c #866CAD",
"a. c #8C7BAE",
"s. c #8776B2",
"d. c #8556C7",
"f. c #966BCE",
"g. c #5C83AB",
"h. c #5A87B5",
"j. c #6886AB",
"k. c #768BA9",
"l. c #7B92AC",
"z. c #678AB4",
"x. c #7489B6",
"c. c #6C91B5",
"v. c #6693BC",
"b. c #6A94BB",
"n. c #6A96BC",
"m. c #7597B8",
"M. c #7C84C7",
"N. c #6C9AC1",
"B. c #739EC2",
"V. c #76A3C6",
"C. c #7BA3C4",
"Z. c #7DAACB",
"A. c #898589",
"S. c #998D8B",
"D. c #888A97",
"F. c #969195",
"G. c #979499",
"H. c #9D9C9E",
"J. c #A68A8F",
"K. c #AB958B",
"L. c #B89987",
"P. c #A79895",
"I. c #A59C9C",
"U. c #AA9F9C",
"Y. c #B39E93",
"T. c #AAA19F",
"R. c #B9A398",
"E. c #848AA5",
"W. c #9489AE",
"Q. c #8894A6",
"!. c #9B99A9",
"~. c #A284A2",
"^. c #A29CA6",
"/. c #90A3B4",
"(. c #9BA7B6",
"). c #A4A2A5",
"_. c #ABA3A4",
"`. c #A7A6AB",
"'. c #A9A6AA",
"]. c #A7A8A9",
"[. c #ABAAAE",
"{. c #B3A9A7",
"}. c #A5AAB3",
"|. c #B1AFB2",
" X c #B3B3B4",
".X c #B8B7B8",
"XX c #BBBBBD",
"oX c #C49E86",
"OX c #C09F97",
"+X c #CAA388",
"@X c #D3A485",
"#X c #D4A78A",
"$X c #DBAD8D",
"%X c #C6A897",
"&X c #D6AD93",
"*X c #DAB398",
"=X c #E6B794",
"-X c #C5B3AB",
";X c #D5B9AA",
":X c #D8C5BC",
">X c #87A9C6",
",X c #82ADCE",
"<X c #93AEC4",
"1X c #8DB1CD",
"2X c #85B2D2",
"3X c #8AB7D6",
"4X c #BBBEC3",
"5X c #BFC7CF",
"6X c #C3C3C4",
"7X c #C6C6C9",
"8X c #CBCBCD",
"9X c #D3CCC9",
"0X c #C3CAD1",
"qX c #CFCED1",
"wX c #D3D3D5",
"eX c #D9D5D5",
"rX c #D6D6D8",
"tX c #DBDCDD",
"yX c #E0CBC0",
"uX c #E3DCD8",
"iX c #DDDEE0",
"pX c #DFE0E2",
"aX c #E3E3E5",
"sX c #E7E7E8",
"dX c #EBEBEC",
"fX c #EEEFF1",
"gX c #F3F3F4",
"hX c #F6F7F9",
"jX c #F7F8FA",
"kX c #F8F9FB",
/* pixels */
"`.`.`.`.`.`.`.`.`.`.'.`.`.`.`.`.`.`.`.`.`.`.`.`.`.`.`.`.`.`.`.`.`.`.`.`.`.`.`.`.`.`.`.`.`.`.`.`.`.`.`.`.`.`.`.`.`.`.`.`.`.`.`.`.",
"`.`.`.`.`.'.`.`.`.`.`.`.`.`.`.`.`.`.`.`.`.`.`.`.`.`.`.`.`.].`.`.`.`.`.`.`.`.`.`.`.`.`.`.`.`.`.`.`.`.`.`.`.`.`.`.`.`.`.[.`.`.`.`.",
"`.`.`.`.`.`.`.`.`.`.`.`.`.`.`.`.`.`.`.].`.`.`.`.`.`.`.).^.U.T.).`.'.).`.`.`.`.`.`.`.[.'.`.`.`.`.`.`.`.`.`.`.`.`.`.`.`.`.`.`.`.`.",
"`.`.`.`.`.`.`.`.`.`.`.`.`.`.`.`.`.`.`.`.`.`.`.`.`.^.P.f s s h z I.'.`.`.`.`.`.`.`.`.`.`.`.`.`.`.`.`.[.`.`.`.`.`.`.`.`.`.`.`.`.`.",
"`.`.`.`.`.`.`.`.`.`.'.`.`.`.'.}.`.`.`.`.].].].].H.g a p i i i a g I.`.`.`.`.`.`.`.`.`.`.`.`.`.`.`.`.`.`.`.`.`.`.`.`.`.`.`.`.`.`.",
"`.`.`.`.'.`.`.`.`.`.`.`.`.`.`.`.`.`.`.`.`.).(.G.g p y y y y y y a k '.`.`.`.`.`.`.`.`.`.`.`.`.`.`.`.`.`.`.`.`.`.`.`.`.`.`.`.`.`.",
"`.`.`.`.`.`.'.`.`.`.`.`.`.`.`.`.`.`.`.`.`.`.G.k p y + + u u u y p h `.`.`.`.`.`.`.`.`.`.`.`.`.`.`.`.`.`.`.`.`.`.`.`.`.`.`.`.`.`.",
"`.`.`.`.`.`.`.`.`.`.`.'.`.`.`.`.`.`.`.`.`.H.k 0 u p s j l x l a d J.`.`.`.`.`.`.`.`.`.`.`.`.`.`.`.`.`.`.`.`.`.`.`.`.`.`.`.`.`.`.",
"`.`.`.`.`.`.`.`.`.`.`.`.`.`.`.`.].].].].(.S.q + a x v v v l f d F.).`.`.`.`.`.`.`.`.`.`.`.`.`.`.`.`.`.`.`.`.`.`.`.`.`.`.`.`.`.`.",
"`.`.`.`.`.`.`.`.`.`.`.'.`.`.`.`.].].].].).t 0 a l c v x j d d A.^.`.`.`.`.`.`.`.`.`.`.`.`.`.`.`.`.`.`.`.`.`.`.`.[.'.`.`.`.`.`.`.",
"`.`.`.`.`.`.`.`.`.`.`.`.`.`.`.`.].].].H.k q p d j l z z j j k G.).`.`.`.`.`.`.`.`.`.`.`.`.`.`.`.`.`.`.`.`.`.`.`.`.`.`.`.`.`.`.`.",
"`.`.`.`.`.`.`.`.`.`.`.`.`.`.`.`.].].H.A.t d j j z z L.L.K.k G.).`.`.`.`.`.`.`.`.`.`.`.`.`.`.`.`.'.`.`.`.`.`.`.`.`.`.`.`.`.`.`.`.",
"`.`.`.`.`.`.`.`.`.`.`.`.`.`.`.`.].H.A.g z v c v v +X%X%XR.I.).`.`.`.`.`.`.[.`.`.`.`.`.`.`.`.`.`.[.`.`.`.`.`.`.`.`.`.[.`.`.`.`.`.",
"`.'.`.`.`.`.`.`.`.`.`.`.`.'.`.`.].A.j z v v R.$X*X*X=XR._._.].`.`.`.`.`.`.`.`.`.`.`.`.`.`.[.`.`.`.`.`.`.`.`.`.`.`.`.`.`.`.`.`.`.",
"`.`.`.`.`.`.`.`.`.`.`.`.`.`.`.`.H.k z v &X#Xv =X=X=X%X{.`.`.].].`.`.`.`.`.`.`.`.`.`.`.`.`.`.`.`.`.`.`.`.`.`.`.`.`.`.`.`.`.`.`.`.",
"`.`.`.`.`.`.`.`.`.`.`.`.`.`.`.`.H.c v $X$X*X*X*X;XR.{.].`.`.`.[.`.`.`.`.`.`.`.`.`.`.`.`.`.`.`.`.`.`.`.`.`.`.`.`.`.`.`.`.`.`.`.`.",
"`.`.`.`.`.`.`.`.`.`.`.`.`.`.).`.P.oX#X$X$X$X&X%XY.Y.).].[.[.[.[.}.[.[.`.`.`.`.`.`.`.`.`.`.`.`.`.`.`.`.`.`.`.`.`.`.`.`.`.`.`.`.`.",
"`.`.`.`.`.`.`.`.`.`.`.`.`.`.'.'.Y.oX@X@X@X+X+XoXY.U.{..X5X8X8X8X7X7X6X X[.`.`.`.`.`.`.`.`.`.`.`.`.`.`.`.`.`.`.`.`.`.`.`.`.`.`.`.",
"`.`.'.`.`.`.`.`.`.`.`.`.`.`.`.).Y.c c v v v @X+X%X:X9XtXaXfXfXfXfXdXaXwX4X[.`.`.`.`.`.`.`.`.`.`.`.`.`.`.`.`.`.`.`.`.`.`.`.`.`.`.",
"`.`.`.`.'.`.`.`.`.`.`.`.`.`.'.I.J.h l v v #X%X;X9XuXdXgXgXjXjXjXhXgXfXaXwX X`.`.`.`.`.[.`.`.`.`.`.`.`.`.`.`.`.`.`.`.`.`.`.[.'.`.",
"`.`.`.`.`.`.`.`.`.`.`.`.`.`.).S.l x v @X&X;X:XuXdXgXjXkXjXjXjXgXgXsXaXaXtX.X`.`.`.`.`.`.`.`.`.`.`.`.`.`.[.`.`.`.`.`.`.`.`.`.`.`.",
"`.`.`.`.`.`.`.`.`.`.`.`.`.'.I.c v @X&X=XyXuXdXhXjXjXjXjXjXjXgXfXsXrXqXrXtX6X`.`.`.`.`.`.`.`.`.`.`.`.`.`.`.`.`.`.`.`.`.`.`.`.`.`.",
"`.`.`.`.`.'.`.`.`.`.`.`.`.'.Y.oX&X;XyXuXdXhXjXjXjXgXdXpXiXpXaXaXeX6X4XqXiXqX|.`.`.`.`.`.`.`.`.`.`.`.`.`.`.`.`.`.`.`.`.`.`.`.`.`.",
"`.`.`.'.`.}.`.`.`.`.`.'.'.`.{.;XyXuXdXgXkXjXgXfXpXtX8X.X[.XXqXtXqX4X.X8XuXeX.X'.`.`.`.`.`.`.`.`.`.`.`.`.`.`.`.`.`.`.`.`.`.`.`.`.",
"`.`.`.`.`.`.`.`.`.`.`.'. X-X9XtXsXgXhXhXgXdXaXpXtX8X.XH.H. X8XwX8X.X|.-X:X;X-X{.`.`.`.`.`.`.`.`.`.`.`.`.`.`.`.`.`.`.`.`.`.`.`.`.",
"`.`.`.'.`.`.`.`.`.`.'.XX8XtXsXgXhXhXfXaXiXtXiXiXrX6X[.H.H.}.6XqX7X X^.P.oX#X*X%X'.`.`.`.`.`.`.`.`.`.`.`.`.`.`.`.`.`.`.`.`.`.`.`.",
"`.`.`.`.`.`.`.`.`.}.XXrXdXfXhXhXhXdXeX4X6X7X5X.X].).]. XXX:X8XwX8X.X^.P.J.oX=X*X{.`.`.`.`.`.`.`.`.`.`.`.`.`.`.`.`.`.`.`.`.`.`.`.",
"`.`.`.`.`.`.`.`.`. XwXdXgXhXgXgXsXqX|.^.H.H.H.H.H.].4XrXsXsXsXaXwX4X[.U.L.#X=X*X{.`.`.`.`.`.`.`.`.`.`.`.`.`.`.`.`.`.`.[.`.`.`.`.",
"`.`.`.`.`.`.`.`.[.7XaXgXgXgXgXdXeX XF.k.P. X8XwXwXtXaXfXgXgXfXsXtX7X{.^.oX$X=X*X{.).`.`.`.`.`.`.`.`.`.`.`.`.`.`.`.`.`.`.`.`.`.`.",
"`.`.`.'.`.`.`.}.4XiXfXfXdXsXdXtX6X).H.[.:XwXtXpXaXaXsXdXgXgXfXsXtXqX.X'.L.$X=X*X{.`.`.`.`.`.`.`.`.`.`.}.`.`.`.`.`.`.`.`.`.`.`.`.",
"`.`.`.`.`.`.`. XqXdXsXaXiXtXrX7X X[.[. X XXX5XqXrXuXpXsXdXfXsXaXuXwX7X|.Y.oX@XOX_.`.`.).`.`.`.`.}.(.<X<X1X<X}.`.`.`.`.`.`.`.`.`.",
"`.`.`.`.`.`.`.XXtXsXiXqX8X6X.X'.).).).).].].]..X5XwXeXpXaXaXaXpXtXrXqX-XY.x v L.'.`.`.`.`.}.}.(.<X,X,XZ.2X1X}.`.`.`.`.`.`.`.`.`.",
"`.`.`.`.`.`.}.-XiXaX8X4X].).^.^.^.^._.U.T.U.^.). XXX5X8XwXrXtXpXiXiXwX.XL.c c L.).).(.(.(.(.1X1XZ.B.b.b.V.,X(.`.`.`.`.`.`.`.`.`.",
"`.`.`.`.`.`.`.4XaXrX5X.X'.U.P.^.R.%X%X%XoXL.K.K.Y.T.{.XX0XrXpXpXiXiX0X}.Q.F.F.!.Q.Q./.>X1XZ.C.n.z.j.j.0.v.>X(.].`.`.`.`.`.].`.`.",
"`.`.`.`.`.`.`.4XaXtXqX-X-XK.L.+X#X$X#XoXL.L.x v x k A.H.}.5X5X5X5X4X1X>XB.B.V.V.V.V.Z.C.B.c.k.l.Q.Q.Q.k.z.C.(.`.`.`.`.`.`.`.`.`.",
"`.`.`.`.`.`.^.4XaXsXeX;XoXv @X$X&XR.Y.U.I.P.J.K.S.k k.c.B.V./././.m.c.c.c.v.v.c.c.c.x.l.Q.Q.!.)._._.I.k.z.m.).`.`.`.`.`.`.`.`.`.",
"`.`.`.`.`.`.`.4XrXuX:X&Xv @X$XOX).!.W.p.-./ ^ / %.%.j.B.V.V.n.v.g.+.+.$.+.+.6.5.;.;.5.1.p.a.W.^.`.`.`.D.z./.(.`.`.`.`.`.`.`.`.`.",
"`.`.`.`.`.`.`.|.6X:X&X#X@XOXP.a.1.^ T T ~ ~ T ~ -.6.c.B.V.V.N.c.g.+.@.#.;.} ;.;.) ` >.,.) ^ ) _ 9.W.!.k.c./.`.`.`.`.`.`.`.`.`.`.",
"`.[.`.`.`.`.^.[.|.%X#XOX~.p./ ~ ~ ~ T ~ ~ ) ~ ) :.8.k.V.Z.,XZ.n.c.g.6.;._ _ ( ) ) t.f.f.y.) ~ ~ T ~ ;.k.l.!.`.`.'.`.`.`.`.`.`.`.",
"`.`.`.`.`.`.[.[.^.U.a.1.^ ~ ~ ~ ~ ~ ( ) ( ) _ ` e.1.q.m.Z.2X3X2XZ.V.B.q.t.t.t.e.,.d.d.f.d.` ) ) ~ / 5.k.x.9.W.`.`.`.`.`.`.`.].`.",
"`.`.`.`.`.`.`.^.s._ T T ~ ~ ~ ( ) ) w.w.e.e.e.e.t.y.9.x.Z.,X3X3X3X3X,XC.M.M.u.u.u.u.d.d.y.t.e.e._ ;.j.v.8.^ ^ 1.^.`.`.`.`.`.`.`.",
"`.`.`.`.`.`.!.1.~ ~ ~ ~ ( ^ ) ` e.e.e.e.e.w.w.( ! Q =.8.x.>X,X1X3X3X3X3X,X,X,XC.C.x.1.e.y.e.e.e.,.9.z.u.-.( ^ ~ :.a.`.}.`.`.`.`.",
"`.`.`.`.`.W.,.T ~ ~ ~ ~ ) ` ` t.e.e.w.E Y Y U Y R U Y W 8.m.C.,X2X3X3X3X2X2XZ.B.k.k.5.W Y ( ) >.9.x.z.9.,.) ~ ~ ~ ^ p.^.`.`.`.`.",
"`.`.`.`.W./ T ~ ~ ~ e.w.` ` ` ) E U P U U U R ! >.Q Q R =.q.m.>XZ.Z.2XZ.Z.V.N.v.j.j.5.I P U U =.5.j.M.y.e.) ) ) ( ~ ~ s.^.`.`.`.",
"`.`.`.!.-.~ ~ ~ ~ w.w.w.w.R U U U U U U Y R Q / =.! ! Q ! k.l.m.B.B.V.B.N.N.N.z.j.$.*.R U P P *.x.z.<./ e._ _ ) ) ( ~ ~ a.[.}.`.",
"`.`.).p.~ ~ ~ ( ( w.w.T U U U Y Y R R R R R R R I L H A D %.l.k.c.m.n.n.n.v.h.j.4.<.<.! R Y W 5.0.0.*.P Y ( e.e.) ) ( ~ :.!.`.`.",
"`.`.!.) ~ ~ ) ( w.w.Y U U Y Y R R Q R L F V V B B m m m S %.D.l.l.c.b.v.n.v.z.4.{ I I W ! Q =.6.0.<.R P P P Y _ ` ` ) ~ ~ s.`.`.",
"`.`.W.~ ( ) ) _ Q U U U R Q Q R H F N b b b B D G D S m S a.Q.Q.l.c.b.n.n.v.z.' M M B V H &.8.h.8.R Y U Y P Y T _ ` _ ( ~ 1.^.`.",
"`.`.a.( ) ` _ R Y Y R R Q Y H V b b b n M M D K 2.&.A C D %.Q.l.c.v.v.N.v.z.6.{ M n n 3 G o.4.0.*.Q R Y Y R R Q E _ ` ) ~ :.`.`.",
"`.`.a.~ ) _ ( U Y R Q Q L V m M M M M M N V G &.h.2.H A D %.E.k.z.N.h.v.z.j.&.G N N N K o.6.2.' D L Q Q R ! r.>.E Y _ _ ( ,.`.`.",
"`.`.W.( _ ) Y Y Q ! R F m m M N N Z Z Z C Z H H &.&.H H K %.j.h.h.z.h.z.6.o.G A Z Z K o.6.4.] B b n F Q ! =.r.r.R P ^ ` ) 1.`.`.",
"`.`.^.,.) E Y Q ! R A M n M N A J J A A A A A Z B S 2 7  .$.g.h.h.h.j.$.[ S C C A I } 4.2.X.K N n n b Z Q >.r.! R P U _ ) s.`.`.",
"`.`.`.s.) Y R ! E Z n M N V Z F J L D N 2 > ; & - & 5 r +.g.4.h.4.4.$.e 4 @ $ & 5 ] o.3.o.{ A V M M M n A ! ! ! Y U P ( ,.^.`.`.",
"`.`.}.^.1.Y Q ! F n M M N Z A A D B > & $ @ @ $ - & r +.g.3.h.g.4.+.r 4 % & $ & r | ..o.] J A A V N N n b L w.! R U U ( W.`.`.`.",
"`.`.`.`.!.>.! R V n N N V A C 3 ; & % % % % % - ; 4 | O.3.3.3.+.$.[ 4 ; - > ; 8 | ..| [ e 6 B C Z V N n b N ! ! Q Y U 7.`.`.`.`.",
"`.`.`.`.[.!.<.P n n N V Z b ; @ @ $ % % % - : > 7 | | ..X.O.+. .r 6 1 < 1 1 8 | ..| | ] #.4 , > M Z V N n n I r.! ! s.`.`.`.`.`.",
"`.`.`.`.`.`.^.5.S V V V 2 % @ @ $ $ - - - : 2 7 | ......+. . .r 6 2 : < < 1 ' 3.X.X.[ 7 { 4 , @ ; m Z V M n U r.<.W.`.`.`.`.`.`.",
"`.`.`.`.`.`.`.^.a.{ Z 1 - @ @ % % % - : < 1 6 [ | X.O.O.+. .w O . X X # % ' X.3.3.X.7 , , , & $ @ % m C V n *.s.!.}.`.`.`.`.`.`.",
"`.`.`.`.`.`.`.`._.^.%.e * # @ @ - - > 1 < # 8 ..3.3... .w = o .           9 ..X.3.X.6 > ; ; $ $ @ @ > V D } W.`.`.`.`.`.`.`.`.`.",
"`.`.`.`.`.`.`.`.`.`.`.^.i.e 4 ; - > < ; X   = .... .r = o                 . o * * 6 2 - - - $ $ @ * 5 #.Q.`.`.`.`.`.`.[.`.`.`.`.",
"`.`.`.`.`.`.`.`.`.`.`.`.}.^.!.%.r 7 2 #     . o o o o .                           & 1 - ; & , 5 @.D.^.).`.`.`.`.`.`.`.`.`.`.`.`.",
"[.`.`.`.`.`.`.`.`.`.`.`.`.`.'.'.`.!.D.t w = O o .                               . , G { #.%.!.^.^.'.'.'.`.`.`.`.`.`.`.`.`.`.`.`.",
"`.`.`.`.`.`.`.`.`.`.`.`.`.`.).'.`.`.].].].!.G.D.A.t t w w 9 9 = 9 9 9 9 w w t @.A.!.!.).).].`.`.`.`.`.`.`.`.`.`.`.`.[.`.`.`.`.`.",
"`.`.`.`.`.`.`.`.`.`.`.`.`.`.`.'.`.`.`._.].].].].].].].).'.`.'.].].].[.].[.].].].`.`.`.`.`.).`.`.`.`.`.`.`.`.`.`.`.`.`.`.`.`.`.`."
};
