/* XPM */
static char *__player_bhA1721364824[] = {
/* columns rows colors chars-per-pixel */
"64 64 231 2 ",
"   c #02012A",
".  c #08092D",
"X  c #0A0A31",
"o  c #14183A",
"O  c #7D4E37",
"+  c #060457",
"@  c #070459",
"#  c #09065B",
"$  c #0D0B5B",
"%  c #121155",
"&  c #211F5F",
"*  c #282C49",
"=  c #0B0863",
"-  c #0D096A",
";  c #130D6A",
":  c #181566",
">  c #0E0973",
",  c #130C75",
"<  c #1A0E75",
"1  c #181476",
"2  c #231C73",
"3  c #282767",
"4  c #35376A",
"5  c #2A2775",
"6  c #333176",
"7  c #38476C",
"8  c #464557",
"9  c #7A574C",
"0  c #7B6259",
"q  c #4E5171",
"w  c #4D577B",
"e  c #686771",
"r  c #864B2B",
"t  c #83533A",
"y  c #9D5B35",
"u  c #865847",
"i  c #936850",
"p  c #A9755C",
"a  c #8D736A",
"s  c #987A68",
"d  c #8C7C79",
"f  c #A47C66",
"g  c #9C806E",
"h  c #9A837B",
"j  c #A68269",
"k  c #B58A6E",
"l  c #A68877",
"z  c #B58D74",
"x  c #AE907D",
"c  c #BB947B",
"v  c #C79A7C",
"b  c #210F87",
"n  c #220F88",
"m  c #25128A",
"M  c #271689",
"N  c #29158E",
"B  c #2B1692",
"V  c #2E1993",
"C  c #2F1998",
"Z  c #311B95",
"A  c #341C9A",
"S  c #34298F",
"D  c #3A3788",
"F  c #372498",
"G  c #3E2CA1",
"H  c #433296",
"J  c #463D98",
"K  c #4328A4",
"L  c #4B27AE",
"P  c #4C2BAE",
"I  c #4A33A8",
"U  c #5337AF",
"Y  c #4E2AB0",
"T  c #522DB2",
"R  c #5E2AB2",
"E  c #5432B5",
"W  c #5B33B6",
"Q  c #5839B6",
"!  c #5836B9",
"~  c #5C3BBB",
"^  c #622CB4",
"/  c #6631B6",
"(  c #693AB3",
")  c #6434B9",
"_  c #6A35BA",
"`  c #623DBB",
"'  c #6D3ABD",
"]  c #703DBF",
"[  c #3A4789",
"{  c #525785",
"}  c #474296",
"|  c #4F5890",
" . c #605794",
".. c #4D668B",
"X. c #566C8C",
"o. c #4B6B95",
"O. c #486C98",
"+. c #576798",
"@. c #4E7098",
"#. c #597498",
"$. c #72718B",
"%. c #666795",
"&. c #647899",
"*. c #797D9B",
"=. c #544EAB",
"-. c #5B48B4",
";. c #6A57A9",
":. c #7153AE",
">. c #6745B6",
",. c #7247B9",
"<. c #7658B7",
"1. c #5966A4",
"2. c #4B74A2",
"3. c #5879A8",
"4. c #5869B3",
"5. c #696BA9",
"6. c #6779A8",
"7. c #7374A9",
"8. c #6563B3",
"9. c #7865B6",
"0. c #667AB6",
"q. c #767ABA",
"w. c #733EC0",
"e. c #6E4EC3",
"r. c #7442C1",
"t. c #7A49C3",
"y. c #7A74C3",
"u. c #8C6DA8",
"i. c #8979AD",
"p. c #836CB0",
"a. c #8878B2",
"s. c #8251C7",
"d. c #9569CD",
"f. c #5C83AB",
"g. c #5A87B5",
"h. c #6886AB",
"j. c #768BA9",
"k. c #7B92AC",
"l. c #678AB4",
"z. c #7487B6",
"x. c #6C91B5",
"c. c #6693BC",
"v. c #6A94BB",
"b. c #6A96BC",
"n. c #7597B8",
"m. c #7C84C5",
"M. c #6C9AC1",
"N. c #739EC2",
"B. c #76A3C6",
"V. c #7BA3C4",
"C. c #7DAACB",
"Z. c #898589",
"A. c #998D8B",
"S. c #898B99",
"D. c #969195",
"F. c #979498",
"G. c #9D9C9E",
"H. c #A78A8F",
"J. c #AB958B",
"K. c #B89987",
"L. c #A79895",
"P. c #A59C9C",
"I. c #AA9F9C",
"U. c #B59E94",
"Y. c #AAA19F",
"T. c #B9A398",
"R. c #868AA6",
"E. c #948AAE",
"W. c #8894A6",
"Q. c #9A98A8",
"!. c #8D93B4",
"~. c #A486A4",
"^. c #A29DA7",
"/. c #90A3B4",
"(. c #9BA7B6",
"). c #A4A2A5",
"_. c #ABA4A4",
"`. c #A7A6AB",
"'. c #A9A6AA",
"]. c #A7A8A9",
"[. c #ABAAAE",
"{. c #B3A9A7",
"}. c #A5AAB3",
"|. c #B1AFB2",
" X c #B3B3B4",
".X c #B8B7B8",
"XX c #BBBBBD",
"oX c #C49E86",
"OX c #CAA388",
"+X c #D3A485",
"@X c #D4A78A",
"#X c #DBAD8D",
"$X c #C6A897",
"%X c #D6AD93",
"&X c #DAB398",
"*X c #E6B794",
"=X c #C5B3AB",
"-X c #D5B9AA",
";X c #D8C5BC",
":X c #8292CD",
">X c #86A8C7",
",X c #82ADCE",
"<X c #93AEC4",
"1X c #8DB1CD",
"2X c #85B2D2",
"3X c #8AB7D6",
"4X c #BBBEC3",
"5X c #BFC7CF",
"6X c #C3C3C4",
"7X c #C6C6C9",
"8X c #CBCBCD",
"9X c #D6CAC5",
"0X c #C3CAD1",
"qX c #CFCED1",
"wX c #CFD0D2",
"eX c #D3D3D5",
"rX c #D9D5D5",
"tX c #D6D6D8",
"yX c #DBDCDD",
"uX c #E0CBC0",
"iX c #E3DCD8",
"pX c #DDDEE0",
"aX c #DFE0E2",
"sX c #E3E3E5",
"dX c #E7E7E8",
"fX c #EBEBEC",
"gX c #EEEFF1",
"hX c #F3F3F4",
"jX c #F6F7F9",
"kX c #F7F8FA",
"lX c #F8F9FB",
/* pixels */
"`.`.`.`.'.`.`.`.`.`.`.`.`.`.`.`.`.`.`.`.`.`.`.`.`.`.`.`.`.`.`.`.`.`.`.`.`.`.`.`.`.`.`.`.`.'.`.`.`.`.`.`.`.'.`.`.'.`.`.`.`.`.`.`.",
"`.`.`.`.`.`.`.`.`.`.`.`.'.`.`.`.`.].`.`.`.`.`.`.`.`.`.`.`.`.`.`.`.`.`.`.`.`.`.`.`.`.`.`.`.`.`.`.`.`.`.`.`.`.`.`.`.`.`.`.`.`.`.`.",
"`.`.`.`.`.`.`.`.`.`.`.`.`.`.`.`.`.`.`.`.`.`.`.`.`.`.`.)._.I.I.^.`.`.`.`.`.`.`.`.`.`.`.`.`.`.`.`.`.`.`.`.'.`.`.'.`.`.`.`.`.`.`.`.",
"`.`.`.`.`.`.`.`.`.`.`.`.`.`.`.`.`.`.`.`.`.`.`.`.`.^.L.s p p f l P.).`.`.`.`.`.`.`.`.`.`.`.}.`.`.`.`.`.`.`.`.`.`.'.`.`.}.`.`.`.`.",
"`.`.`.`.`.`.`.`.`.`.`.`.`.`.`.`.`.`.`.`.`.`.}.).G.d a y y y y i d P.`.`.`.`.`.`.`.`.`.`.`.`.`.`.`.`.`.`.`.`.`.`.`.`.`.`.`.`.`.`.",
"`.`.`.`.`.`.`.'.`.`.`.`.`.`.`.`.`.`.`.`.`.`.).G.d u r r r r r r i h `.`.`.`.`.`.`.`.`.`.`.`.`.`.`.`.`.`.`.`.`.`.`.`.`.`.`.`.`.`.",
"`.`.`.`.`.'.`.`.'.`.`.`.`.`.'.}.`.`.`.`.`.].F.d u r r O O t t t u f ).`.`.`.`.`.`.`.`.`.`.`.`.`.`.`.`.`.`.`.`.`.`.`.`.`.`.`.`.`.",
"`.`.`.`.`.`.`.`.`.`.`.`.`.`.`.`.`.`.`.].].Q.h 9 t u s f k k f i a H.`.`.`.`.`.`.`.`.`.`.`.`.`.`.`.`.`.`.`.`.`.`.`.`.`.`.`.`.`.`.",
"`.`.'.`.`.`.`.`.`.'.`.`.`.`.`.`.].].].).).D.0 O i k v v c k f a D.).`.`.`.`.`.`.`.`.`.`.`.`.`.`.'.`.`.'.`.`.'.`.`.`.`.`.'.`.`.'.",
"`.`.`.`.`.`.`.`.`.`.`.`.`.'.`.`.].].].(.G.d 9 i j c v x j a a Z.^.`.`.`.`.`.`.`.`.`.`.`.`.`.[.`.`.`.`.`.'.`.`.`.`.`.`.`.`.`.`.`.",
"`.`.`.`.`.`.`.`.`.`.`.`.`.`.`.`.].].].G.Z.0 0 a g j l l g g d G.`.`.`.`.`.`.`.`.`.`.`.`.`.`.'.`.`.`.`.`.`.`.`.`.`.`.`.'.`.`.`.`.",
"`.`.`.`.`.`.`.`.`.`.`.`.`.`.`.`.].].G.Z.0 a g g l x K.K.x A.G.).`.`.`.`.`.`.`.`.`.`.`.`.`.`.`.`.}.`.`.'.`.`.`.`.`.'.`.`.`.`.`.}.",
"`.`.`.`.`.`.`.`.`.`.`.`.`.`.`.`.].).Z.d l v c c v OX%XT.U.P.).).`.`.`.`.`.`.`.`.`.`.`.`.`.`.`.`.`.`.`.`.`.`.`.`.`.`.`.`.`.`.`.`.",
"`.`.`.`.`.`.`.`.`.`.`.`.`.`.`.`.G.D.g l v v T.@X&X&X*XT._.'.'.`.`.`.`.`.`.`.`.`.`.`.`.`.`.`.'.`.`.`.`.`.`.`.`.`.`.`.`.`.`.`.`.`.",
"`.'.`.`.`.`.`.`.`.`.`.`.`.`.`.`.G.g l v %X@X#X*X*X&X=X{.`.`.].].`.`.`.`.`.`.`.`.`.`.`.`.`.`.'.`.`.`.`.`.`.`.`.`.`.`.`.`.`.`.`.`.",
"`.`.`.`.`.`.`.`.`.`.`.`.`.`.`.`.G.x v #X#X&X&X&X&XT.T.].`.`.].].`.`.`.`.`.`.`.`.`.`.`.`.`.`.`.`.`.`.`.`.`.`.`.`.`.`.`.`.`.`.`.`.",
"`.`.`.`.`.`.'.`.`.`.`.`.`.`.`.).L.OX#X#X#X&X#X$XU.I.Y.].].[.[.[.[.[.[.`.`.`.`.`.'.`.`.'.`.`.`.`.`.`.`.`.'.[.`.`.`.`.`.`.`.`.`.`.",
"`.`.`.`.`.`.`.`.`.`.`.`.`.`.`.`.U.oX+X+X+X+XOXK.U.Y.{..X5X8X8X8X0X7X6X X[.`.`.`.`.`.`.`.`.`.`.`.`.`.`.`.`.`.`.`.`.`.`.`.`.`.`.`.",
"`.`.`.`.`.`.`.`.`.`.`.`.`.`.'._.J.c c v v OX+XOX$X;X9XyXdXfXgXgXgXfXsXeX4X'.`.`.`.`.`.`.`.`.`.`.`.`.`.`.`.`.`.`.`.`.`.`.`.`.`.`.",
"`.`.`.`.`.`.`.`.`.`.`.`.`.`.`.P.H.j k z v OX%X-X9XiXfXhXkXkXlXkXjXhXgXsXeX X`.`.'.`.`.'.`.`.`.`.`.`.`.`.'.`.`.'.`.`.`.`.`.`.`.`.",
"`.`.`.`.`.`.`.`.`.`.`.`.`.).^.A.k k v +X#X-X;XiXfXhXkXlXlXkXkXhXhXfXsXsXyXXX`.`.`.`.'.`.`.`.`.`.`.`.`.`.`.`.`.`.`.`.`.`.`.`.`.`.",
"`.`.`.`.`.`.`.`.`.`.`.`.`.'.I.K.v +X%X&X;XiXfXjXkXkXkXkXkXjXjXhXsXtXqXtXyX6X`.`.`.`.`.`.`.`.`.`.`.`.`.`.`.`.`.`.`.[.`.`.`.`.`.`.",
"`.'.`.`.`.'.`.`.`.`.`.`.`.`.U.oX%X-XuXiXfXjXlXlXjXhXfXaXyXaXsXsXtX7X4XqXyXqX|.`.`.`.[.`.`.`.`.`.`.`.`.`.`.`.`.`.`.`.`.`.`.`.`.`.",
"`.`.`.`.`.}.'.`.`.`.`.`.`.'.{.-X9XiXfXjXlXjXhXgXsXyX8X.X[.XXwXrXqXXX X8XyXrX.X`.`.`.`.`.`.`.`.`.`.`.`.`.`.`.`.'.`.`.`.`.`.`.`.`.",
"`.`.`.`.`.`.`.`.`.`.`.'.|.=X9XrXdXhXjXjXhXfXsXaXyX8X XG.G. X8XeX8X X|.=X;X-X=X{.`.`.`.`.`.`.`.`.`.`.`.`.`.`.`.`.`.`.`.`.`.`.`.`.",
"`.`.`.`.`.`.`.`.`.`.[.XXqXyXfXhXjXjXgXsXpXaXaXpXeX5X|.G.G.}.5XwX8X X^.L.oX@X&X$X`.`.`.`.`.`.`.`.`.`.`.`.`.`.`.`.`.`.`.`.`.`.`.`.",
"`.`.`.`.`.`.`.`.`.`.XXtXfXhXhXlXjXfXrX6X6X7X7X.X].G.]. XXX;X8XeX8X.X^.L.H.oX*X&X{.`.`.`.`.`.`.`.`.`.`.`.`.`.`.`.`.`.`.`.`.`.`.`.",
"`.`.`.`.`.`.`.`.`. XeXfXhXhXjXhXdX8X|.P.G.G.G.G.G.].6XeXsXfXdXaXrX4X'.I.K.@X*X&X{.`.`.`.`.`.`.`.`.`.`.`.`.`.`.`.`.`.`.`.`.`.`.`.",
"`.`.`.`.`.`.`.`.}.7XsXhXhXhXhXfXtX XD.j.L..X8XwXeXyXsXfXhXhXhXfXiX7X|.^.oX#X*X&X{.`.`.`.`.`.`.`.`.`.`.`.`.`.`.`.`.`.`.`.`.`.`.`.",
"`.`.`.`.`.`.`.}.4XpXgXgXfXdXdXyX6X).G.[.;XeXyXaXsXsXfXfXhXhXfXsXyX8X.X_.K.#X*X&X{.`.`.`.`.`.`.`.`.}.}.`.`.`.`.`.`.`.`.`.`.`.`.`.",
"'.`.`.`.`.`.`.|.qXfXfXaXaXyXtX7X X`.[. X XXX5XwXtXaXaXdXfXfXfXsXyXeX7X|.U.oX+X$X_.`.`.`.`.`.`.`.}.(./.1X<X<X}.`.`.`.'.[.`.`.`.`.",
"`.`.`.`.`.`.`.XXyXfXyXqX7X6X.X[.).].).).).].]..X7XwXrXaXsXdXsXaXyXtXqX=XU.c z K._.`.`.).`.(.}.(.<X1X,X,X2X1X(.`.`.`.`.`.`.`.`.`.",
"`.`.`.`.`.`.'.4XiXsX8X.X'.).^.^.^.I.Y.^.I.I.^.). XXX5X8XeXyXtXaXyXpXeX.XK.K.v K.Y.).(.(.(./.<X1XC.N.b.M.B.,X(.].`.`.`.`.`.`.`.'.",
"`.`.`.`.`.`.'.4XsXtX5X X'.P.L.I.T.$X$X$XoXK.J.J.J.Y.{.4X0XtXaXaXpXpX0X}.F.S.F.W.W.!./.>X1X2XB.b.l.h.h.f.x.>X(.'.`.`.`.`.`.`.`.`.",
"`.`.`.`.`.`.`.4XsXaXqX6X{.K.K.OX#X#X@XoXK.K.z v z h Z.G.}.5X5X5X5X4X<X>XN.N.V.V.V.B.B.C.n.v.j.k.W.W.R.j.l.V.(.`.`.`.`.`.`.'.`.`.",
"`.`.`.`.`.`.).4XaXdXrX-XOXv +X#X$XT.U.I.P.L.H.H.J.Z.j.x.n.B./././.n.x.v.x.c.c.x.x.x.x.k.W.W.Q.).).].^.S.h.n.(.`.`.`.`.`.`.`.`.`.",
"`.`.`.`.`.`.`.XXyXyX;X#X+X+X@X$X_.Q.E.p.<.,.( ,.$.j.j.b.B.N.M.c.f.#.#.#.#.#.&.1.;.;.;.:.9.a.E.^.`.`.`.S.h./.`.`.`.`.`.`.`.`.`.`.",
"`.`.`.`.`.`.`.|.6X;X%X+X@XK.~.i.<.( ^ _ ,.,.] ( :.7.x.N.C.B.M.c.f.#.$.%.;.;.;.;./ ^ T R R ^ ^ >.<.E.^.j.x./.`.`.`.`.`.'.`.`.`.`.",
"`.`.`.`.`.`.`.`.|.$X$X$X~.p.( ^ ^ ^ / ,.d.d.t.] >.9.j.B.C.C.C.n.x.f.h.5.e.t.' _ / / / ^ ^ ^ ^ R R R ;.j.n.(.).`.`.`.`.`.`.`.`.`.",
"`.`.`.`.`.`.`.`.^.~.u.p.( ^ ^ ^ _ / _ t.d.d.s.t.r.,.q.n.C.2X2X2XC.B.n.m.s.e.t.,.] ' _ _ _ / / / ^ >.5.h.q.9.Q.).`.`.`.`.`.`.`.`.",
"`.`.`.`.`.`.`.^.a.,.^ ^ ^ ^ / _ _ _ w.t.s.s.s.t.r.r.9.z.N.1X3X3X3X3X,X>X:X:Xy.y.q.e.t.,.] ' ' _ _ :.0.z.8.( / <.Q.[.`.`.`.`.`.`.",
"`.`.`.`.`.`.^.<.^ ^ ^ _ / _ _ w.r.w.w.t.t.w.w.w./ E Q 8.z.>X,X3X3X3X3X2X2X,X,XV.n.z.<.r.w.r.w.w.,.7.l.0.,.^ R R ( E.`.`.`.`.`.`.",
"`.`.`.`.'.E.,.^ ^ ^ w.R ' w.w.w.w.w.) W Y Y L L L L L U 8.n.V.>X2X3X3X3X2X2XC.N.j.j.5.U E ) ' ,.9.z.x.y.>./ ^ ^ R ^ p.`.`.`.`.`.",
"`.`.`.`.E.>.^ ^ ^ ) ) w.w.w.w.) ^ Y Y L Y Y L L P Y T T Q z.n.>XC.C.2XC.C.B.M.c.h.h.7.U Y Y Y Q 5.h.y.<.] ' ) ^ R R ^ p.^.`.`.`.",
"[.`.`.^.:.^ ^ / R w.w.w.w.! Y L Y P L P Y E ! E T E E Q Q *.W.n.n.B.B.N.M.M.c.l.f.6.=.E Y T P =.z.h.8._ r.w._ ) / ^ ^ ^ a.'.}.`.",
"`.[.^.p.^ ^ / ] w.w.w.Y L L L L Y Y Y E ! -.-.~ Q T P K I j.j.j.x.b.b.b.M.c.c.3.5.=.Q Q ! E -.8.0.0.-.Y E _ w.w._ ^ ^ ^ ( Q.`.`.",
"`.`.Q.( ^ / ' ] w.w.Y L L Y Y E E E E ~ Q U U G B m b b S $.W.j.k.x.b.b.c.c.l.3.D M V A K T =.h.0.-.E Y Y Y W ' ' _ / ^ ^ p.`.`.",
"`.`.E.^ / _ ] ] ! Y Y Y T Y E E ! ! E G C M M n b b b b S j.W.W.k.x.b.c.b.c.l.| S S m b m D 1.0.4.Q ! E T Y Y T ' _ _ _ ^ :.`.`.",
"`.`.a.^ _ ' w.) E E ! T E E ! ! Y A N b b b n m m m m N S R.R.k.x.c.c.M.M.c.h.4.=.S V M D +.3.3.} F P ~ Q E T Y T _ ' ] / :.).).",
"`.`.a./ _ ' ) T ~ <.` ! ! ! E A m n b b m m m B B B B B F *.R.j.l.c.g.c.g.6.1.0.4.G S H +.6.2.} M b m F E ~ ! E Y T ' ] / ,.`.`.",
"`.`.E._ ' ' Y E ` e.>.~ ~ P B b n n m m N N B C Z A A A } 6.j.g.g.c.g.h.6.=.=.=.=.G J +.6.3.+.F V m n b N P ~ ! E T W _ _ <.`.`.",
"`.`.Q.,.' E P Y Q ` >.~ K m b b m m N B Z Z A A Z V M H { &.f.g.g.g.h.&.w 6 2 S S [ +.3.2.=.} K F Z m n m m P ) ~ E T _ _ a.`.`.",
"`.`.`.a._ Y Y Y ! ~ ~ I m b m M B B Z A A V b 1 = $ 4 w +.3.g.g.f.3.&.w 3 + # $ 4 { O.O.o.} K I K F B N N b m P ~ ! T W ,.Q.`.`.",
"`.`.[.^.<.Y Y T ~ ` Q N b m m B V A A S 2 : $ @ # $ w @.3.f.2.3.3.X.w 3 = # # $ w ..O.o.w : 1 S F A A B m m n N ! ! E >.E.`.`.`.",
"`.`.`.`.E.>.E ! ~ w.K b m m B C Z M 2 6 5 : $ # $ 4 ..#.2.2.2.#.#.{ 5 ; - - - 7 ..O...w 4 % # $ ; N A Z B m m n G ! ~ a.`.`.`.`.",
"`.`.`.`.[.E.:.! ~ -.C n m N B B < ; 2 |  .5 : = 4 { ..o.O.O.#.&.{ 6 , > , , [ ..O.O...4 : # @ @ @ # < B Z N m m C >.a.^.`.`.`.`.",
"`.`.`.`.`.`.^.9.e.~ B m m C N < @ $ : 6 } 3 : 4 w ..o.@.@.#.X.w 5 ; > - , 1 [ 2.O...{ 2 = # @ @ + + + = N C N N J E.(.).).`.`.`.",
"`.`.`.`.`.`.}.`.!.e.V N B B ; + @ # : 2 2 : 6 { @.O.O.@.#.e q * X         7 @.2.2.@.6 , > - = $ + + + + ; C D %.Q.`.`.`.`.`.`.`.",
"`.`.[.`.`.`.`.`.`.^.7.J C < + + @ @ # = = - [ O.f.O.@.X.q * o .           7 o.O.@...* = , > - = # + + $ 3 %.E.`.`.`.`.`.`.`.`.`.",
"`.`.`.`.`.`.`.'.`.`.[.^.R.q & + @ @ # = - > D o.O.X.w * o .               X o o o % X   % > > - $ : 4 $.D.^.`.`.`.`.`.`.`.`.`.`.",
"`.`.`.`.`.'.`.`.`.`.`.`.^.^.Q.$.q 3 ; - > > : % o o o .                               .   : 2 w $.S.Q.).`.`.`.`.`.`.`.`.`.`.`.`.",
"`.`.`.`.`.`.`.`.`.`.`.'.[.`.`.[.].Q.S.$.{ D 5 o .                             . X o * 8 e $.E.`.).).`.`.`.`.'.`.`.`.`.`.`.`.`.`.",
"`.`.`.`.'.`.`.`.`.`.`.`.`.`.`.`.`.`.`.`.`.Q.G.S.Z.e e 8 8 8 8 8 8 8 8 8 q e e e Z.F.G.).).`.`.`.`.`.`.`.`.`.`.`.`.`.`.`.`.`.`.`.",
"`.`.`.`.`.`.`.`.`.`.`.`.`.`.`.`.`.`.`.`.`.`.].[.[.].].[.].].).].).).].]._.'.[. X`.`.`.`.`.`.`.`.`.`.`.`.`.`.`.`.`.`.`.`.`.`.`.`."
};
