/* XPM */
static char *__player_bhA1721364825[] = {
/* columns rows colors chars-per-pixel */
"64 64 239 2 ",
"   c #02012A",
".  c #0C0A2E",
"X  c #18132D",
"o  c #060436",
"O  c #231D30",
"+  c #282335",
"@  c #4D3B2D",
"#  c #624E35",
"$  c #080547",
"%  c #060457",
"&  c #080650",
"*  c #070459",
"=  c #09055B",
"-  c #0C095C",
";  c #100D5F",
":  c #19165B",
">  c #39384D",
",  c #0B0764",
"<  c #0E0962",
"1  c #0A0769",
"2  c #0E096C",
"3  c #110A65",
"4  c #120C6C",
"5  c #1B1867",
"6  c #0E0A74",
"7  c #120C74",
"8  c #150D7A",
"9  c #1D1378",
"0  c #241B6A",
"q  c #211678",
"w  c #2F2B6F",
"e  c #493654",
"r  c #3F4E79",
"t  c #484758",
"y  c #574A57",
"u  c #775C59",
"i  c #585764",
"p  c #514A73",
"a  c #6D6B78",
"s  c #8C5639",
"d  c #87673E",
"f  c #855A47",
"g  c #886758",
"h  c #926D51",
"j  c #A3795A",
"k  c #846F6A",
"l  c #8B756B",
"z  c #967A6A",
"x  c #8C7975",
"c  c #977C74",
"v  c #A47B63",
"b  c #B9894A",
"n  c #AB8255",
"m  c #9D816E",
"M  c #96837B",
"N  c #A78369",
"B  c #A88A76",
"V  c #B38C72",
"C  c #BA937A",
"Z  c #CA9749",
"A  c #E2AA44",
"S  c #C6997C",
"D  c #220F86",
"F  c #261687",
"G  c #25128A",
"H  c #29148E",
"J  c #2C1692",
"K  c #2E1994",
"L  c #321B95",
"P  c #341D9A",
"I  c #2D2389",
"U  c #362A8C",
"Y  c #393989",
"T  c #352597",
"R  c #3A239D",
"E  c #3B3598",
"W  c #3D29A1",
"Q  c #443590",
"!  c #4829AA",
"~  c #4C2AAE",
"^  c #4835A6",
"/  c #5237AE",
"(  c #4F2BB1",
")  c #522DB3",
"_  c #5F29B2",
"`  c #5533B5",
"'  c #5A36B5",
"]  c #5735B8",
"[  c #5937B9",
"{  c #5C3BBA",
"}  c #622CB4",
"|  c #6532B4",
" . c #643DB7",
".. c #6534B9",
"X. c #6A35BA",
"o. c #6D3ABC",
"O. c #713DBE",
"+. c #3E4B8A",
"@. c #4D5191",
"#. c #655A98",
"$. c #4D6996",
"%. c #556A9A",
"&. c #537297",
"*. c #707291",
"=. c #5948AD",
"-. c #5250AE",
";. c #5A5AA9",
":. c #5943B2",
">. c #6455AF",
",. c #6947B6",
"<. c #724BBA",
"1. c #6657B4",
"2. c #7759B5",
"3. c #5965A7",
"4. c #5070A8",
"5. c #5678A8",
"6. c #6667A7",
"7. c #6679AD",
"8. c #7477AB",
"9. c #726FB1",
"0. c #796AB3",
"q. c #723EC0",
"w. c #6847C1",
"e. c #7647C1",
"r. c #7F69C9",
"t. c #93758D",
"y. c #A17988",
"u. c #8C7AAC",
"i. c #836DB0",
"p. c #8775B3",
"a. c #8570C6",
"s. c #74879E",
"d. c #5A86B2",
"f. c #6788AA",
"g. c #788CA7",
"h. c #7B93AD",
"j. c #688CB4",
"k. c #7483B2",
"l. c #6693BC",
"z. c #6A95BB",
"x. c #6C95B9",
"c. c #7798B8",
"v. c #7CA1BD",
"b. c #6F9BC1",
"n. c #729EC2",
"m. c #7C9BC3",
"M. c #74A2C5",
"N. c #7AA4C5",
"B. c #7BA7CA",
"V. c #968A87",
"C. c #8B8992",
"Z. c #9A9599",
"A. c #AB9489",
"S. c #B89886",
"D. c #BD9E8D",
"F. c #AF8F94",
"G. c #A79A98",
"H. c #B59F94",
"J. c #B1A199",
"K. c #B8A49A",
"L. c #8786A6",
"P. c #948AAE",
"I. c #8B96A7",
"U. c #9D9CA4",
"Y. c #9698A9",
"T. c #9D9CAB",
"R. c #9287B5",
"E. c #908AB8",
"W. c #859BB3",
"Q. c #A29FA3",
"!. c #A19CAE",
"~. c #96A0AE",
"^. c #9DA2AC",
"/. c #86A3BC",
"(. c #96A6B6",
"). c #A4A2A5",
"_. c #ABA3A3",
"`. c #A7A6AB",
"'. c #A9A7AA",
"]. c #ABAAAC",
"[. c #B3A6A1",
"{. c #B9ABA5",
"}. c #A1A7B1",
"|. c #ADACB1",
" X c #B1AFB2",
".X c #ACB1B7",
"XX c #B3B3B4",
"oX c #B6B6B9",
"OX c #BAB7B8",
"+X c #BABABC",
"@X c #C39C83",
"#X c #C89C82",
"$X c #C19A91",
"%X c #C9A389",
"&X c #D2A689",
"*X c #D4AA8C",
"=X c #DBAD8D",
"-X c #C8A996",
";X c #D4AD94",
":X c #CEB09D",
">X c #DAB397",
",X c #E2B08E",
"<X c #E3B796",
"1X c #D0B8AA",
"2X c #C6BBBB",
"3X c #D2C3BC",
"4X c #9A8DC5",
"5X c #A89FC7",
"6X c #86A7C4",
"7X c #82ADCD",
"8X c #94ACC1",
"9X c #8DB0CB",
"0X c #88B4D4",
"qX c #ACABC8",
"wX c #BCBDC2",
"eX c #BBC4CD",
"rX c #C5C4C5",
"tX c #C6C6CA",
"yX c #CBCBCD",
"uX c #D4CFCC",
"iX c #CECFD1",
"pX c #CDCAD8",
"aX c #D2D2D4",
"sX c #D5D6D9",
"dX c #D9D8D8",
"fX c #DBDBDD",
"gX c #E4D9D4",
"hX c #E6E0DE",
"jX c #DEDEE1",
"kX c #DFE0E2",
"lX c #E2E3E4",
"zX c #E8E7E7",
"xX c #E6E6E8",
"cX c #EBEBED",
"vX c #EEEEF0",
"bX c #F0EFF0",
"nX c #F2F3F4",
"mX c #F6F7F8",
"MX c #F8F8FA",
/* pixels */
"`.`.`.`.`.`.`.`.`.`.`.`.`.`.`.`.`.'.'.`.`.`.`.`.`.`.`.`.`.`.`.`.`.`.`.`.`.'.`.`.`.`.'.`.`.`.`.`.`.`.`.`.`.`.`.`.`.`.`.'.`.`.`.`.",
"`.`.`.`.`.`.`.`.`.`.`.`.`.`.`.].`.`.'.'.`.`.`.`.`.`.'.`.`.`.`.`.'.`.`.`.`.`.`.`.`.`.`.`.`.`.`.'.'.`.}.`.`.'.`.'.`.`.`.`.`.`.`.`.",
"`.`.`.`.`.`.`.`.`.`.`.`.`.`.`.`.`.`.`.`.`.'.`.`.`.`.`.`.`.`.`.'.`.`.`.`.`.`.`.`.`.`.}.`.`.`.`.`.`.`.'.`.`.`.`.`.'.`.`.`.`.'.`.`.",
"`.`.`.`.`.`.`.`.`.`.`.`.`.`.`.`.`.`.`.`.`.`.`.`.`.`.`.`.`.'.`.'.`.`.`.`.`.`.`.`.`.`.'.`.`.'.`.`.`.`.`.`.`.`.`.`.`.`.}.'.`.`.`.`.",
"`.'.`.`.`.`.`.`.`.`.`.`.`.`.`.`.`.`.'.`.`.`.`.`.`.`.'.'.!.'.'.!.`.`.`.`.`.!.'.'.`.`.`.`.`.`.'.`.`.`.`.`.'.`.`.`.`.`.'.`.`.'.`.`.",
"`.`.`.`.`.`.`.`.`.`.`.`.`.`.`.`.`.`.`.`.`.`.`.'.`.`.'.{.'.'.'.'.`.`.`.`.`.|.`.'.`.`.'.`.`.`.`.}.`.'.`.`.`.`.`.'.`.`.`.`.`.`.`.`.",
"`.`.`.`.`.`.`.`.`.`.`.`.`.`.`.`.`.`.`.`.'.`.`.!.`.G.B j c Q.'.'.`.`.`.`.`.`.`.`.`.'.'.`.`.`.`.`.`.`.`.`.`.`.`.}.`.`.`.`.}.`.'.`.",
"`.'.`.`.`.`.`.`.`.`.`.`.].`.`.`.`.`.`.`.`.`.!.G.M h s h c _.'.'.`.`.'.`.`.`.'.`.`.`.`.`.`.`.`.`.`.`.`.'.'.`.`.`.`.`.`.`.'.`.`.`.",
"`.`.`.`.`.`.`.`.`.`.`.`.`.`.`.`.`.`.`.`.`.`.Q.x s s s l G.`.`.`.'.`.`.`.`.`.`.`.`.`.`.`.`.`.`.`.`.`.`.`.`.'.'.}.`.'.`.`.`.'.`.`.",
"`.`.`.`.`.`.`.`.`.`.`.`.`.`.`.`.`.`.`.`.!.G.z f # h z G.`.`.`.`.`.`.`.`.`.`.`.`.`.`.`.`.'.`.`.'.`.|.`.`.`.`.`.`.`.`.`.'.`.}.`.`.",
"`.`.`.`.`.`.`.`.`.`.`.`.`.`.`.`.`.`.`.`.Z.l f h j v V.`.`.`.`.`.`.`.`.`.`.`.`.`.`.`.`.`.`.`.`.`.`.`.`.`.`.`.`.`.`.'.`.`.`.`.`.`.",
"|.`.`.`.`.`.`.`.`.`.].`.`.`.`.`.`.`.`.Z.x h v V N V.^.`.`.`.`.`.`.`.`.`.`.`.`.`.`.`.`.`.`.`.'.`.`.`.`.`.`.`.`.`.`.`.`.`.`.'.`.`.",
"'.`.`.`.`.`.`.`.`.`.`.`.`.`.`.`.`.`.Z.l h V C B c Z.`.'.`.`.`.`.'.}.`.`.'.`.`.`.`.`.`.`.}.'.'.`.`.`.`.`.'.`.`.'.`.`.`.`.`.`.`.'.",
"`.`.`.`.`.`.`.`.`.`.`.`.`.].`.`.`.U.x h V S N l V.!.`.'.`.`.`.`.'.'.`.'.`.`.`.`.`.`.`.`.`.`.`.`.`.`.`.`.`.`.`.`.`.`.`.`.`.`.`.`.",
"`.`.`.`.`.`.`.`.`.`.`.'.`.`.`.`.Z.x h N S N m V.Z.`.`.'.oX+XXX|.|.'.'.'.'.`.`.`.`.`.`.`.`.`.`.`.`.`.`.`.`.`.'.`.`.`.`.'.`.`.`.`.",
"`.`.`.`.`.`.`.`.`.`.`.`.`.`.'.`.V.g j V B B M V.`.`.`.oXiXdXaXuX2X:X;X:X:X`.`.`.`.`.`.'.`.`.`.`.`.`.`.`.`.`.`.`.`.`.'.}.`.`.'.`.",
"`.`.`.`.`.`.`.`.`.`.`.`.`.`.^.Z.k h N B B B A.U.`.`.].yXkXkXkXfX1X&X=X<X>X-X'.`.`.`.`.`.`.`.].`.`.'.`.`.`.`.`.`.`.`.`.`.`.'.`.`.",
"`.`.`.`.`.`.`.`.`.`.`.`.].).U.M u j m B A.A.A.^.`.'.oXfXxXfXsXuX1XS.#X,X<X>X{.`.`.`.`.'.`.'.'.}.(.}.}.`.`.`.`.`.`.`.`.`.`.`.`.`.",
"`.`.`.`.`.`.`.`.`.].`.`.`.).V.u h m N C D.A.Q.).`.].eXxXcXaXrX+X[.F.S.*X<X<X-X`.`.`.`.`.`.`.}.8X9X7X8X}.`.`.`.`.'.`.`.`.`.`.`.`.",
"`.`.`.`.`.`.`.`.`.`.`.'.^.Z.a h l m B D.D.G.).`.`. XaXcXcXiX+X X).G.G.D.*X=X&XH.`.`.`.`.`.}.(.0XB.n.B.8X}.`.`.}.`.`.`.`.`.`.`.`.",
"`.`.`.`.`.`.`.`.`.`.`.'.U.x u l m B D.-XD.J.).).].+XfXnXcXiX+XXX'.).Q.H.$X%XS S.G.`.`.`.^.(.9XB.b.j.j.M.(.}.`.`.`.`.`.`.`.`.`.`.",
"`.`.`.`.`.`.`.`.].).).^.C.M m m B C %X%XK._.).].].rXcXmXcXdXrXoXXX X].[.H.D.S C D.H.U.T.(.9X7Xn.k.g.g.j.7X^.`.`.`.`.`.`.`.'.`.`.",
"`.`.`.`.`.`.`.`.^.].^.Z.M m B B C K.-X-XK.).].`.OXdXnXmXcXfXyXrXwX+XXX X[.S.C S D.A.I.W.6X7XN.j.g.Y.U.g.c.(.`.`.].`.'.`.`.`.`.`.",
"`.`.`.`.`.`.].`.].].Z.M M m B C D.%X;X-X[.].`.].eXxXmXmXcXfXaXyXuXtXwX+X XH.S S A.Z.h.v.B.N.x.h.Y.`.).Y.g.(.`.`.`.`.`.`.`.`.`.`.",
"`.`.].`.`.`.`.`.`.`.V.M B S.C S &X>X>X{.[.].`.+XdXnXMXnXlXdXiXaXdXiXyXrX2XK.S.A.Z.I.v.N.M.x.g.Y.`.`.`.).I.W.`.`.`.`.`.`.`.`.`.`.",
"`.`.`.`.`.`.`.`.`.).V.B C %X%X%X*X>X>XK._.).|.yXcXmXMXxXsXiXiXfXkXdXiXyX2XK.A.V.I.v.N.M.x.h.Y.).`.`.`.`.I.h.^.`.`.`.`.`.`.`.`.`.",
"`.`.`.`.].`.`.`.`.Q.M C S %X%X*X>X<X>X{._.'.+XfXnXMXcXiXrXyXfXxXzXjXdXaXrX_.Z.I.v.M.x.x.h.I.`.`.`.`.`.'.I.h.}.`.`.`.`.`.`.`.`.].",
"`.`.`.`.`.`.`.`.`.).G.@X%X%X&X=X<X<X:X[.'. XyXcXMXnXiXoX+XdXxXcXlXjXdXsXrX`.W.c.N.x.x.h.Y.`.`.`.`.`.`.).I.j.^.}.`.`.`.`.`.`.`.`.",
"`.`.`.`.`.`.`.`.`.`.K.%X*X&X*X=X<X1X:X_.).OXfXmXmXdX]. XiXcXbXcXkXfXkXkXeX(.v.M.z.x.I.`.).`.`.`.`.`.`.`.I.h.^.`.`.`.`.`.`.`.`.`.",
"`.`.].`.`.`.`.`.`.`.[.*X=X*X=X>X<X>XK._.].rXcXmXxXoX].tXcXnXvXxXkXfXkXsXwXv.v.l.f.s.^.`.`.`.`.`.`.`.`.`.I.h.^.`.`.`.].`.`.`.`.`.",
"`.`.`.`.`.`.`.`.`.`.K.;X=X=X=X<X<X:X[.).].uXnXmXiX`.oXlXbXvXxXkXkXkXkXeX8Xv.l.f.s.I.^.`.`.~.Y.^.`.`.`.`.I.W.}.`.`.`.`.`.`.`.`.`.",
"`.`.`.`.`.`.`.`.`.`.[.*X,X=X<X<X>X:X_._.XXfXnXcX+X`.iXvXcXxXkXfXkXsXeX8Xc.f.f.s.I.).).`.~.I.I.Y.`.`.`.).W.W.`.`.`.`.`.`.`.`.`.`.",
"`.`.`.`.`.`.`.`.`.`._.$X&X=X,X,X;X-XJ._.OXlXmXkXXX.XkXzXkXfXsXsXeXeX(.h.f.f.s.).`.`.`.~.W.h.g.I.).`.`.^.h.W.`.`.`.`.`.`.`.`.`.`.",
"`.`.'.`.`.'.`.`.`.`.`.G.@X&X=X,X-XK.H._.3XxXmXdX.X3XlXkXaXyXeXeX8X/.f.s.s.Z.Q._.`.T.W./.c.g.s.I.'.'.`.U.h.(.`.`.`.`.`.`.`.`.'.`.",
"`.`.`.`.`.`.`.`.`.`._.F.B @X#X&X%XD.H.K.rXcXmXsX XyXfXaXwX.X(.6Xv.f.&.&.Z.`.].^.(.(.6Xn.x.f.g.Z.`.`.`.~.h.^.`.`.`.'.`.`.`.`.`.`.",
"`.`.`.`.`.`.`.`.`.`.!.Q.V v S #X%XD.K.-XuXcXnXdXXXaXdX+X^.v.v.b.l.d.f.*.8.0.h.W.6X6XN.b.j.f.g.^.`.`.`.I.c.^.`.`.`.`.`.`.`.`.`.`.",
"`.`.`.`.`.`.`.`.`.`.`.J.S.S V S S %X%X:XuXbXnXdXXXaXtXT.L.x.M.M.z.j.x.z.n.m.m.7X0XB.n.l.j.g.L.Q.`.`.).g.W.).`.`.`.`.'.`.'.`.`.'.",
"`.`.`.'.`.'.`.`.`.`.XXOX$X#XS S S &X-X1XgXnXnXfXXXiXqX2.8.x.N.N.B.B.B.0X7X0X0X0XB.n.b.l.j.j.9.,.0.P.Y.g.~.`.`.`.`.`.`.`.`.`.`.`.",
"`.`.`.`.`.`.`.`.`.|.tXdXuX:X;X=X*X*X>X3XgXnXnXjXoXiX5X<.9.x.N.7X7X0X0X0X0X0X0XB.n.b.l.l.j.k.<.} _ | 8.k.P.).`.`.`.`.`.`.`.`.`.`.",
"`.`.`.`.`.`.`.`.`.|.pXcXcXgX3X1X1X>X3XuXzXmXnXjX+XiX5Xa.9.h.N.B.0X0X0X0X0XB.n.b.z.l.b.z.j.9.X.X.} >.7.1. .2.P.`.`.`.'.`.`.`.'.`.",
"}.'.`.`.`.`.`.}.u.p.sXvXnXvXzXhXgXgXgXhXbXmXbXhX+XyX5Xa.0.h.c.N.7X7X7X7Xm.n.z.x.z.l.b.j.k.r.O.o.o.9.8. .} } | 2.!.!.`.`.`.`.`.`.",
"'.'.`.`.`.`.Y.2.} 2.pXvXvXnXnXnXbXbXbXnXmXmXbXlX+XtX(.{ >.8.h.h.c.6Xm.c.x.x.x.x.l.l.l.7.0.e.O.<.1.7.1.X.| | } } ,.u.).`.`.`.`.`.",
"`.`.`.`.'.P.,.} } ,.qXxXxXxXnXmXmXmXmXMXMXnXxXfXoXtXE.] ` :.>.>.1.1.1.;.-.;.3.j.l.d.d.7.>.| O.2.7.8.<.O.o.X...} } | i.`.`.`.`.`.",
"`.`.`.`.P.| } } } q.4XjXsXjXxXvXnXnXbXzXxXkXdXyXXXtXE.] ` ` ` ` ` ) ) ) ) ) :.k.d.d.7.6.) ~ / ;.4.9.e.q.O.X.X...X.} } i.`.`.`.`.",
"`.`.).Q.<._ } } ..X.a.pXfXyXyXkXzXlXfXiXeX X].'.oXwXR...] ] ] ] ] ] ] ] ) ] =.5.d.4.4.w.` ( ;.%.3.=.) ..q.q.X.X.X.| } | u.`.`.`.",
"`.'.`.i._ _ | | o.q.<.4XaXyXOXOXyXsXyXoXQ.Z.Z.'.oXT.*.P P L L K K T T W ! ^ 5.d.d.1.-.{ ] -.5.%.=.~ ~ ~ ) ..q.q.o.X.} } ,.!.`.`.",
"`.`.!. .} | | X.o...) :.E.pX3XXX].XXXX].).Q.).].Q.t.Q G D D D D D D D D D I 4.5.4.E -.:.:.3.%.3.' ) ) ~ ~ ~ _ O.O.o.X.} } i.`.`.",
"`.`.u.| | X.X.O.] ( ( ) ,.E.OX3XK.J.G.G.)._._.J.F.#.I H D D H H H G G G D I %.&.4.Y H K 3.%.3.>.' ) ) ) ) ~ ( ) o.q.o.X.} 2.!.`.",
"`.`.u.} X.O.o._ ( ) ` ` [ :.u.$X#X@XS.S.D.$XD.F.L.;.T J H H J J L K K J G T $.$.&.E F E $.$.@.^ ] ' ] ` ` ` ] ] ] o.O.X.} ,.).'.",
"`.`.u.| X.q...( ) ` ] ] ! J Q *.y.y.y.y.y.y.t.6.j.-.E P P K P P R R P P K E $.$.@.U U %.$.@.I D K ! ] ] [ { w.,.` ) o.O.| <.`.'.",
"`.`.R.X.....) ) ` { ` R G D 9 H H L L L L P R ^ -.^ W R P P P P R R R P R @.&.$.E K E 4.4.+.F G D G R ] { :.e.w.' ( } O.X.2.`.`.",
"`.).!.<.q.] ) ] { ] P G G G J L ! Q R P P P T T I I 9 7 3 4 3 3 3 4 4 q Y $.&.@.P P +.4.4.E H G D D D L [ w.:.{ ) ( ( X.o.p.`.`.",
"`.`.`.p.X.) ` { } L D G G J K R ^ ! R H 9 3 < - - - * * * : e y u e : w $.$.r 5 4 q T 4.;.Q K J H G H D P { w.[ ` ~ ~ | <.!._.`.",
"`.`.`.!.i.) ] :.R D G G H L P R R q 3 - * = % % * * - - - w B v A n h *.&.r : % % % < 0 I R P L J H H D D ! { { ] ( ~  .P.!.'.`.",
"`.`.`.`.P.<.{ ` J G G J K P J q 3 - * = = * = , , 1 1 4 2 w g b A n b C.+.0 , - = = 5 0 w w F L K J H D D H { { ' ` ` 0.`.`.'.'.",
"`.`.`.`.'.P.2.! D G H J L D 3 & * * = = - , 1 2 2 6 7 8 7 w n j b b b a 0 4 1 , - = 5 @.6.w : 3 G L J H D D / w.{ { p.!.`.`.`.'.",
"'.`.`.`.`.`.!.6.L G H J 8 = * % * * , , 1 2 4 8 8 7 7 2 2 0 N n Z b b i 8 6 6 2 2 4 5 w @.0 3 - < D K J G G ( w.1.R.`.`.`.`.`.`.",
"`.`.`.`.`.`.`.`.u.@.H D - * % * * - 1 1 6 8 6 , & $ o o   . g h Z n u t - 1 6 8 6 2 5 9 0 5 - * % - F K H G :.p.T.`.`.`.`.`.`.`.",
"`.`.`.`.`.`.`.`._.Q.8.p : * % * - 1 6 7 2 & o             X u h Z n h h   o $ ; 7 8 2 1 < - * * % % 3 H T #.P.}.'.`.`.`.`.`.'.`.",
"'.`.`.`.`.`.`.`.).`.'.G.s.i 0 < , 2 6 ; o                   O d n u d h         & 8 6 1 1 , = * % : w *.Y.`.`.`.'.`.`.`.`.`.`.`.",
"`.`.`.'.`.`.`.`.`.`.`.`.'.).Z.*.p Y 9 $                       # d # O O           < 6 1 < 3 0 w a C.T.`.`.`.`.`.`.`.`.`.`.`.`.`.",
"`.`.`.`.`.`.`.`.`.`.`.`.'.'.'.'.).U.C.a i > + X .             O # @ X           . : Y @.#.s.Z.U.^.`.`.`.`.`.`.`.`.`.'.`.`.`.'.`.",
"`.`.`.`.`.`.`.`.`.`.`.`.`.`.'.`.`.`.`.`.^.^.Z.C.C.a a i i t > t t y t t i i a a C.Z.^.^._.'.`.`.`.`.`.`.'.`.`.`.`.`.`.`.`.`.`.`.",
"`.`.`.'.`.`.`.`.`.`.`.`.`.`.`.`.`.`.`.`.`.'.`.`.`.`.).'.`.`.].'.]._.`.`.`.].].|.`.`._.`.`.`.`.`.`.`.`.`.`.`.`.`.`.`.`.`.`.`.`.`."
};
