/* XPM */
static char *_6_desapearA11721962197[] = {
/* columns rows colors chars-per-pixel */
"64 64 239 2 ",
"   c #0E0B0E",
".  c #231A0D",
"X  c #03022A",
"o  c #070627",
"O  c #050337",
"+  c #191836",
"@  c #181328",
"#  c #352A2A",
"$  c #30241C",
"%  c #453310",
"&  c #493930",
"*  c #5A4319",
"=  c #6D573B",
"-  c #090649",
";  c #060457",
":  c #070459",
">  c #09065B",
",  c #0D0A5C",
"<  c #090757",
"1  c #120E5C",
"2  c #16154F",
"3  c #241C53",
"4  c #332B53",
"5  c #0A0763",
"6  c #0E0963",
"7  c #0E096C",
"8  c #110B65",
"9  c #130C6B",
"0  c #181467",
"q  c #0E0A74",
"w  c #0F0A78",
"e  c #120C74",
"r  c #160E78",
"t  c #1C1177",
"y  c #221E6A",
"u  c #221779",
"i  c #372C66",
"p  c #312B78",
"a  c #2D296E",
"s  c #43335E",
"d  c #433A7A",
"f  c #4B4256",
"g  c #745A54",
"h  c #5C5C69",
"j  c #4D486E",
"k  c #685363",
"l  c #725672",
"z  c #6A6A73",
"x  c #75757E",
"c  c #7A6774",
"v  c #7B6051",
"b  c #A57C35",
"n  c #8A6625",
"m  c #967457",
"M  c #8D6D51",
"N  c #8D7071",
"B  c #A67A79",
"V  c #A37B6F",
"C  c #AA7C5A",
"Z  c #BE821A",
"A  c #CC9129",
"S  c #D6972B",
"D  c #CC9539",
"F  c #D59A34",
"G  c #D59B38",
"H  c #C98D2B",
"J  c #DCA43A",
"K  c #E4A22C",
"L  c #E4A73A",
"P  c #EEAC2F",
"I  c #ECA31D",
"U  c #A98556",
"Y  c #B88859",
"T  c #B38646",
"R  c #A58567",
"E  c #B88B66",
"W  c #BC996A",
"Q  c #B68977",
"!  c #B99777",
"~  c #AA8976",
"^  c #BEA175",
"/  c #BFA16B",
"(  c #C9964B",
")  c #D39B48",
"_  c #C79A56",
"`  c #D39953",
"'  c #C58A51",
"]  c #DAA546",
"[  c #CEA05A",
"{  c #D8A754",
"}  c #D9AC57",
"|  c #E1AA49",
" . c #EBB849",
".. c #E6B556",
"X. c #E7B256",
"o. c #C58C6A",
"O. c #C69869",
"+. c #C9946F",
"@. c #CDA769",
"#. c #D4A967",
"$. c #DAB46A",
"%. c #C5A471",
"&. c #C8A878",
"*. c #D2AB74",
"=. c #DAB675",
"-. c #E7BA64",
";. c #E6C36F",
":. c #FBC654",
">. c #210F86",
",. c #220F88",
"<. c #231185",
"1. c #25128A",
"2. c #29148D",
"3. c #2C1A8D",
"4. c #2C1692",
"5. c #2E1893",
"6. c #311B95",
"7. c #341D9A",
"8. c #381F9B",
"9. c #301D8A",
"0. c #37278C",
"q. c #392499",
"w. c #33298E",
"e. c #391FA0",
"r. c #3D25A1",
"t. c #3E35A2",
"y. c #463887",
"u. c #483596",
"i. c #49338B",
"p. c #452AA6",
"a. c #4C27AF",
"s. c #4C2AAE",
"d. c #462AA6",
"f. c #4D33AD",
"g. c #5838AA",
"h. c #4E2BB0",
"j. c #522DB3",
"k. c #5F29B2",
"l. c #5533B5",
"z. c #5B32B6",
"x. c #5735B8",
"c. c #5937B9",
"v. c #5C3BBB",
"b. c #593CB3",
"n. c #502FAF",
"m. c #622CB4",
"M. c #6532B5",
"N. c #6534B8",
"B. c #6A35BA",
"V. c #613EBC",
"C. c #6D3ABD",
"Z. c #6838B4",
"A. c #713DBF",
"S. c #683EAC",
"D. c #5A4687",
"F. c #584996",
"G. c #544E8C",
"H. c #6A598D",
"J. c #6C6A85",
"K. c #776484",
"L. c #706E94",
"P. c #5649B3",
"I. c #6C49A8",
"U. c #7549AB",
"Y. c #7755A7",
"T. c #6844B4",
"R. c #724BB2",
"E. c #7A48B9",
"W. c #6B55B7",
"Q. c #7B5DB1",
"!. c #7655B4",
"~. c #6A5BAC",
"^. c #7A6AAC",
"/. c #723EC0",
"(. c #6E3EC0",
"). c #6646C1",
"_. c #7342C1",
"`. c #7C4BC1",
"'. c #7454C2",
"]. c #87569D",
"[. c #897B83",
"{. c #997888",
"}. c #8D679A",
"|. c #986799",
" X c #8A6F90",
".X c #A87886",
"XX c #A87A99",
"oX c #895BA9",
"OX c #8757B6",
"+X c #814EB1",
"@X c #8568AB",
"#X c #8672AA",
"$X c #9976A9",
"%X c #926AB7",
"&X c #8978B2",
"*X c #8F69AE",
"=X c #A376A6",
"-X c #A279BA",
";X c #8150C5",
":X c #87878D",
">X c #8C8B9B",
",X c #95949B",
"<X c #B8968A",
"1X c #B28492",
"2X c #AE898E",
"3X c #BCA382",
"4X c #BCA58B",
"5X c #ADA299",
"6X c #B2A59B",
"7X c #B4A99D",
"8X c #B8A796",
"9X c #8D87A7",
"0X c #938BAE",
"qX c #998BAA",
"wX c #9B94AD",
"eX c #9E9AAC",
"rX c #9A99A3",
"tX c #9991B1",
"yX c #A19DAD",
"uX c #A399A7",
"iX c #AE86B0",
"pX c #ABA6A5",
"aX c #A7A6AB",
"sX c #A9A6A9",
"dX c #AAA7A8",
"fX c #B3ADA6",
"gX c #B8B5A9",
"hX c #C69885",
"jX c #C08F87",
"kX c #C4AB88",
"lX c #CAB18F",
"zX c #C4BCAF",
"xX c #D1CCAD",
"cX c #E7E3B2",
"vX c #B389C4",
"bX c #C3B6C0",
"nX c #DEDEC5",
"mX c #E1DCC3",
"MX c #F9F8C9",
/* pixels */
"aXaXaXaXaXaXaXaXaXaXaXaXaXaXaXaXaXaXaXaXaXaXaXaXaXaXaXdXaXaXaXaXaXaXaXaXaXaXdXaXaXaXaXaXaXaXaXaXaXaXaXaXaXaXaXaXaXaXaXaXaXaXaXaX",
"aXaXaXaXaXaXaXaXaXaXaXaXaXaXaXaXaXaXaXaXaXaXaXaXaXaXaXaXaXaXaXaXaXaXaXaXaXaXaXaXaXaXaXaXaXaXaXaXaXaXaXaXaXaXaXaXaXaXaXaXaXaXaXaX",
"aXaXaXaXaXaXaXaXaXaXaXaXaXaXaXaXaXaXaXaXaXaXaXaXaXaXaXaXaXaXaXaXaXaXaXaXaXaXaXaXaXaXaXaXaXaXaXaXaXaXaXaXgXaXaXaXaXaXaXaXaXaXaXaX",
"aXaXaXaXaXaXaXaXaXaXaXaXaXaXaXaXaXaXaXaXaXaXaXaXaXaXaXaXaXaXaXaXaXaXaXaXaXaXaXaXaXaXaXaXaXaXaXaXaXaXaXaXaXaXaXaXaXaXaXaXaXaXaXaX",
"aXaXaXaXaXaXaXaXaXaXaXaXaXaXaXaXaXaXaXaXaXaXaXaXaXaXaXaXaXaXaXaXaXaXaXaXaXaXaXaXaXaXaXaXaXaXaXaXaXaXaXaXaXaXaXaXaXaXaXaXaXaXaXaX",
"aXaXaXaXaXaXaXaXaXaXaXaXaXaXaXaXaXaXaXaXaXaXaXaXaXaXaXaXaXaXaXaXaXaXaXaXaXaXaXaXaXaXaXaXaXaXaXaXaXaXaXaXaXaXaXaXaXaXaXaXaXaXaXaX",
"aXaXaXaXaXaXaXaXaXaXaXaXaXaXaXaXaXaXaXaXaXaXaXaXaXaXaXaXaXaXaXaXaXaXaXaXaXaXaXaXaXaXaXaXaXaXaXaXaXaXaXaXaXaXaXaXaXaXaXaXaXaXaXaX",
"aXaXaXaXaXaXaXaXaXaXaXaXaXaXaXaXaXaXaXaXaXaXaXaXaXaXaXaXaXaXaXaXaXaXaXaXaXaXaXaXaXaXaXaXaXaXaXaXaXaXaXaXaXaXaXaXaXaXaXaXaXaXaXaX",
"aXaXaXaXaXaXaXaXaXaXaXaXaXaXaXaXaXaXaXaXaXaXaXaXaXaXaXaXaXaXaXaXaXaXaXaXaXaXaXaXaXaXaXaXaXaXaXaXaXaXaXaXaXaXaXaXaXaXaXaXaXaXaXaX",
"aXaXaXaXaXaXaXaXaXaXaXaXaXaXaXaXaXaXaXaXaXaXaXaXaXaXaXaXaXaXaXaXaXaXaXaXaXaXaXaXaXaXaXaXaXaXaXaXaXaXaXaXaXaXaXaXaXaXaXaXaXaXaXaX",
"aXaXaXaXaXaXaXaXaXaXaXaXaXaXaXaXaXaXaXaXaXaXaXaXaXaXaXaXaXaXaXaXaXaXaXaXaXaXaXaXaXaXaXaXaXaXaXaXaXaXaXaXaXaXaXaXaXaXaXaXaXaXaXaX",
"aXaXaXaXaXaXaXaXaXaXaXaXaXaXaXaXaXaXaXaXaXaXaXaXaXaXaXaXaXaXaXaXaXaXaXaXaXaXaXaXaXaXaXaXaXaXaXaXaXaXaXaXaXaXaXaXaXaXaXaXaXaXaXaX",
"aXaXaXaXaXaXaXaXaXaXaXaXaXaXaXaXaXaXaXaXaXaXaXaXaXaXaXaXaXaXaXaXaXaXaXaXaXaXaXaXaXaXaXaXaXaXaXaXaXaXaXaXaXaXaXaXaXaXaXaXaXaXaXaX",
"dXaXaXaXaXaXaXaXaXaXaXaXaXaXaXaXaXaXaXaXaXaXaXaXaXaXaXaXaXaXaXaXaXaXaXaXaXaXaXaXaXaXaXaXaXaXaXaXaXaXaXaXaXaXaXaXaXaXaXaXaXaXaXaX",
"aXaXaXaXaXaXaXaXaXaXaXaXaXaXaXaXaXaXaXaXaXaXaXaXaXaXaXaXaXaXaXaXaXaXaXaXaXaXaXaXaXaXaXaXaXaXaXaXaXaXaXaXaXaXaXaXaXaXaXaXaXaXaXaX",
"aXaXaXaXaXaXaXaXaXaXaXaXaXaXaXaXaXaXaXaXaXaXaXaXaXaXaXaXaXaXaXaXaXaXaXaXaXaXaXaXaXaXaXaXaXaXaXaXaXaXaXaXaXaXaXaXaXaXaXaXaXaXaXaX",
"aXaXaXaXaXaXaXaXaXaXaXaXaXaXaXaXaXaXaXaXaXaXaXaXaXaXaXaXaXaXaXaXaXaXaXaXaXaXaXaXaXaXaXaXaXaXaXaXaXaXaXaXaXaXaXaXaXaXaXaXaXaXaXaX",
"aXaXaXaXaXaXaXaXaXaXaXaXaXaXaXaXaXaXaXaXaXaXaXaXaXaXaXaXaXaXaXaXaXaXaXaXaXaXaXaXaXaXaXaXaXaXaXaXaXaXaXaXaXaXaXaXaXaXaXaXaXaXaXaX",
"aXaXaXaXaXaXaXaXaXaXaXaXaXaXaXaXaXaXaXaXaXaXaXaXaXaXaXaXaXaXaXaXaXaXaXaXaXaXaXaXaXaXaXaXaXaXaXaXaXaXaXaXaXaXaXaXaXaXaXaXaXaXaXaX",
"aXaXdXaXaXaXaXaXaXaXaXaXaXaXaXaXaXaXaXaXaXaXaXaXaXaXaXaXaXaXaXaXaXaXaXaXaXaXaXaXaXaXaXaXaXaXaXaXaXaXaXaXaXaXaXaXaXaXaXaXaXaXaXaX",
"aXaXaXaXaXaXaXaXaXaXaXaXaXaXaXaXaXaXaXaXaXaXaXaXaXaXaXaXaXaXaXaXaXaXaXaXaXaXaXaXaXaXaXaXaXaXaXaXaXaXaXaXaXaXaXaXaXaXaXaXaXaXaXaX",
"aXaXaXaXaXaXaXaXaXaXaXaXaXaXaXaXaXaXaXaXaXaXaXaXaXaXaXaXaXaXaXaXaXaXaXaXaXaXaXaXaXaXaXaXaXaXaXaXaXaXaXaXaXaXaXaXaXaXaXaXaXaXaXaX",
"aXaXaXaXaXaXaXaXaXsX&.6XaXaXpX@.kXaXaXaX8XD ! aXaX5X5XaXpX^ ] A P  .=.gXaXaX%.8XaXaXaXaXaXaXaXaXaXaXgXaXaXaXaXaXaXaXaXaXaXaXaXaX",
"aXaXaXaXaXaXaXaXaXsX5XaXaXaXaXpX6XaXaXdXuX_ } pXaX+.` 5X4X( ..A I P #.pXaXaX4X8XdXaXaXaXaXaXaXaXaXzXcXgXaXaXaXaXaXaXaXaXaXaXaXaX",
"aXaXaXaXaXaXaXaXaXaXdX7XpXaXaXaXaXaXaXaXpX{  .$.lX%.W pX*.D $. .K G 5XaXaXaXaXaX7XdXaX5XaXaXaXaXaXgXxXgXaXaXaXaXaXaXaXaXaXaXaXaX",
"aXaXaXaXaXaXaXaXaXfX4X7XaXaXaXaXsX7XdXaX7X{ ;.-.#.&.3XpX4X) ..:.P ` pXaXpX5XpXdXpXaXaX5XpXpXaXaXaXaXdXaXaXaXaXaXaXaXaXaXaXaXaXaX",
"aXaXaXaXaXaXaXaXaXdXdX5XsXsXsXsX5X4X7XaXdXlXgX7X@.kX} *.lX#.X. .| @.3X^ %.[ 8XaXaXaXaXaX8X^ dXaXaXaXaXaXaXaXaXaXaXaXaXaXaXaXaXaX",
"aXaXaXaXaXaXaXaXaXaXaX5X5XaXaXsXW _ fXdXdXzXfXaX&.-.X.%.@.#.X.P J %.W F [ D ` pXaXaXaXaXlX{ 8XpXaX7XfXaXaXaXaXaXaXaXaXaXaXaXaXaX",
"aXaXaXaXaXaXaXaXaXaXaXaXdXaXsX6X( W pXzXxXmXaXyXuXkXqX<XO.G L L L ` ! b ^ ) ` uXuXsXaXaX8XlXpXaXaX7X7XaXaXaXaXaXaXaXaXaXaXaXaXaX",
"aXaXaXaXaXaXaXaXaXaXaXaXaXaXsX6X` ! uXzXMXMXzX$XU.|.]..XD F | L K F B ].( } *.@XT.R.Q.#X0XwXsXaXaXaXaXaXaXaXaXaXaXaXaXaXaXaXaXaX",
"aXaXaXaXaXaXaXaXaXaXaXaXaXaXwXqX<XY.oXzXmXmX%XoXS.].` ( A G G H | K o.oX' S *.@Xm.m.k.k.m.Z.R.^.0XeXaXaXaXaXaXaXaXaXaXaXaXaXaXaX",
"aXaXaXaXaXaXaXaXaXaXaXeXqX@XT.I.|.m.oXlX-XbX`.B.B.E.` F S E Q G K K ] 2XD S @.jXoXm.m.m.m.k.k.k.M.~.^.9XyXaXaXaXaXaXaXaXaXaXaXaX",
"aXaXaXaXaXaXaXaXyXwX@XU..X.XM.m.m.m.`.jXvXiXOXA.+XXXo.G Q |.E.o.J J G / [ J 2X*X*XB.m.B.m.m.m.m.oX#Xm.k.T.@XwXaXaXaXaXaXaXaXaXaX",
"aXaXaXaXaXsXsXeX@XS.m.m.oX` A.m.B./.`.$X-X%X%X`.-X=.XX1X*X=X1X` J [ ( D D J 1X_.A.C.A.C.C.C.B.B.R.R.m.m.k.m.S.@XeXaXaXaXaXaXaXaX",
"aXaXaXaXsXeX&XT.m.m.B.+XhX#.+X/.;X%XOX;X;X;X`.=XoX<XXX=X=X1X]  .....] S F ( oX_._._.(.E././.C.C.+XA.M.M.m.m.k.m.T.&XaXaXaXaXaXaX",
"aXaXaXaXwXQ.m.m.m.M.+XXXhXX.XX`.%XkX*XE.(.N.I.}.Z.I.o.+.#.) K S J  .L ) D ( Y.c.T.N.c.C././._.`.|..X+XB.M.m.m.m.k.k.Q.eXaXaXaXaX",
"aXaXaXwXR.m.m.m.B.B.A.OXE.=X+X/.E.&.oXh.h.a.a.s.a.I.E kXX.F | ) ( F C Y..X{ *.@X#Xb.j.h.S.T.W.oX+.` OXA.B.B.B.m.m.k.k.R.eXaXaXaX",
"aXaXwXR.m.m.B.B.B.A.A.A./.(.N.l.g.I.n.a.h.f.l.h.h.j.Y.%.@.! [ } G Z ( Y.{.-. ...$Xb.l.n..X{.#Xg.B Q !._._.A.B.B.m.m.k.k.R.eXaXaX",
"dXeX!.k.m.M.N.C.C.C.A.M.j.h.a.^.zX#Xs.j.l.c.2X}.l.l.Y.) B Q ) ) F S ' 2X|.*.+.$X!.v.l.l.I.I.b.j.I.S.n.k.B._.A.C.B.N.m.m.k.Q.aXaX",
"aX&XM.m.B.B.C./._.N.k.h.a.a.a.~.cXdXl.l.v.W.<X+.}.Y.g.E R o.) J D S %.D.u.F.F.d.f.l.l.l.l.j.l.l.j.j.h.h.h.j.C.A.C.B.N.k.k.k.&XaX",
"yXR.m.N.B.A.A.B.j.a.a.a.j.j.j.j.~.R.c.c.b.f.u.D.! ;.~ ~ l ! } D N [ ;.c 0.N D.3.0.H.i.9.r.d.l.x.x.x.l.h.h.h.a.z.C.C.B.N.m.m.R.aX",
"wXZ.m.B.A.A.C.j.h.h.j.j.j.j.l.x.x.f.p.7.3.<.2.2.y.' m y.i.l ) S N Q X.N D.E W G.K.#.*.j >.1.2.7.s.x.x.l.x.j.h.h.j.C.C.B.M.m.Z.wX",
"0XM.N.C.C.C.z.l.l.j.l.h.x.x.x.l.q.2.>.>.<.<.<.9.K.V C [.H.D.` ` +.%.<XK.N ..] O.#X%.Q N 1.<.>.>.>.4.p.l.c.x.l.h.h.j.C.C.C.Z.m.qX",
"0Xk.N.C.C.z.x.T.T.v.x.x.x.l.8.1.>.>.>.,.2.1.2.0. XD.i.%.) E =.` @.$.~ u. X] { O.^.F.u.4.2.1.1.1.1.>.>.4.d.c.v.l.j.h.j.C.A.C.N.0X",
"0XN.B./.z.h.z.'.'.v.v.v.d.4.>.>.,.,.1.2.2.4.5.5.7.6.q. X[.R / ! _ D #.B V @.@.2XP.t.7.5.4.4.4.4.2.2.<.<.,.7.c.v.c.j.j.x.B.B.Z.wX",
"yXE.C.B.s.s.l.T.).V.v.r.1.>.,.,.1.1.4.4.4.6.7.7.q.F.q.2.0.W ( / l b m U T c Y  Xt.w.r.r.7.7.q.q.q.6.2.1.,.,.5.l.v.c.j.j.B.Z.!.yX",
"aX&XC.z.a.h.l.v.T.v.p.1.1.1.1.4.4.5.7.7.7.6.2.r 9 k i ; 2 M ^ [ M T v 4 M 4 k T s 0 9 <.3.q.r.d.g.r.6.2.,.1.,.4.c.v.x.j.m.C.&XsX",
"aXyX!.j.h.h.l.v.V.n.2.>.2.2.1.4.7.7.q.3.t 7 > : , < 2 < , g M T N v v R M 3 f T 4 , < < 5 9 t q.q.q.7.6.4.1.1.,.6.v.v.j.z.Q.eXaX",
"aXaXtXb.h.h.c.V.v.7.,.,.1.2.5.7.w.w.u y 0 1 : : k f 1 , i U k U k N a a i 6 8 i 1 > > : : : > 1 t 5.7.q.5.2.1.,.,.d.P.x.T.tXaXaX",
"aXaXaX0XP.x.v.).x.2.,.1.2.5.5.1.r y d G.a 0 , , j c 0 9 0 R v T m x J.d t e 7 7 7 5 5 5 , > : : < < e 4.7.4.4.,.,.7.c.W.0XaXaXaX",
"aXaXaXaXtX'.(.).f.1.1.2.4.5.>.5 1 y y.H.p 0 8 7 7 7 q q q p U D W d G.~ u <.r r r q 7 5 5 5 : : ; ; < 6 1.4.4.1.,.3.W.tXaXaXaXaX",
"aXaXaXaXaXyX^.).d.,.1.4.6.t : < , 0 a p y e 9 q q w w e 6 0 N / U v - 3 - < 6 7 w r r r 7 5 5 > : ; ; ; 5 ,.4.4.w.L.yXaXaXaXaXaX",
"aXaXaXaXaXaXaXtX~.3.4.5.<.: : : : , 0 0 0 9 q q e 8 - O O & b U = & = $ X X X X O - 6 q e q 7 5 > : ; ; ; 6 w.H.9XyXaXaXaXaXaXaX",
"aXaXaXaXaXaXaXaXaX9XF.w.6 ; ; ; : > 5 7 q q r 9 - X X X o # * * * n m # X X X X X X X O 5 w 9 7 5 > ; , a h >XyXaXaXaXaXaXaXaXaX",
"aXaXaXaXaXaXaXaXaXaXaXrXJ.i 1 < > 5 5 7 q q 5 O X X X X X   . % * $ $ X X X X X X X X X o 5 q q 8 y j J.,XyXaXaXaXaXaXaXaXaXaXaX",
"aXaXaXaXaXaXaXaXaXaXaXaXaXyX,XJ.j a 7 7 w w - o X X X X o     % .   X X X X X X X X X X o 2 p j L.>XrXaXaXaXaXaXaXaXaXaXaXaXaXaX",
"aXaXaXaXaXaXaXaXaXaXaXaXaXaXaXaXaXrX>XL.G.y.4 + @ X X X o o o o o X X X X o o + + 4 f h z :XrXaXaXaXaXaXaXaXaXaXaXaXaXaXaXaXaXaX",
"aXaXaXaXaXaXaXaXaXaXaXaXaXaXaXaXaXaXaXaXaXaXrX,X:X[.x z z h h h h h h z z x :X:X,XrXdXaXaXaXaXaXaXaXaXaXaXaXaXaXaXaXaXaXaXaXaXaX",
"aXaXaXaXaXaXaXaXaXaXaXaXaXaXaXaXaXaXaXaXaXaXaXaXaXaXaXaXaXaXaXaXaXaXaXaXaXaXaXaXaXaXaXaXaXaXaXaXaXaXaXaXaXaXaXaXaXaXaXaXaXaXaXaX",
"aXaXaXaXaXaXaXaXaXaXaXaXaXaXaXaXaXaXaXaXaXaXaXaXaXaXaXaXaXaXaXaXaXaXaXaXaXaXaXaXaXaXaXaXaXaXaXaXaXaXaXaXaXaXaXaXaXaXaXaXaXaXaXaX",
"aXaXaXaXaXaXaXaXaXaXaXaXaXaXaXaXaXaXaXaXaXaXaXaXaXaXaXaXaXaXaXaXaXaXaXaXaXaXaXaXaXaXaXaXaXaXaXaXaXaXaXaXaXaXaXaXaXaXaXaXaXaXaXaX",
"aXaXaXaXaXaXaXaXaXaXaXaXaXaXaXaXaXaXaXaXaXaXaXaXaXaXaXaXaXaXaXaXaXaXaXaXaXaXaXaXaXaXaXaXaXaXaXaXaXaXaXaXaXaXaXaXaXaXaXaXaXaXaXaX",
"aXaXaXaXaXaXaXaXaXaXaXaXaXaXaXaXaXaXaXaXaXaXaXaXaXaXaXaXaXaXaXaXaXaXaXaXaXaXaXaXaXaXaXaXaXaXaXaXaXaXaXaXaXaXaXaXaXaXaXaXaXaXaXaX",
"aXaXaXaXaXaXaXaXaXaXaXaXaXaXaXaXaXaXaXaXaXaXaXaXaXaXaXaXaXaXaXaXaXaXaXaXaXaXaXaXaXaXaXaXaXaXaXaXaXaXaXaXaXaXaXaXaXaXaXaXaXaXaXaX"
};
