/* XPM */
static char *_6_desapearB11721962197[] = {
/* columns rows colors chars-per-pixel */
"64 64 237 2 ",
"   c #0D0A0E",
".  c #241B0D",
"X  c #02012A",
"o  c #060526",
"O  c #050435",
"+  c #171531",
"@  c #271D27",
"#  c #362B2B",
"$  c #3C2D13",
"%  c #483411",
"&  c #503C31",
"*  c #5B451A",
"=  c #644D2A",
"-  c #080549",
";  c #060456",
":  c #070459",
">  c #09065C",
",  c #0E0A5C",
"<  c #090757",
"1  c #151153",
"2  c #251D53",
"3  c #2E2955",
"4  c #0A0662",
"5  c #0D0963",
"6  c #0D096B",
"7  c #120C64",
"8  c #120C6B",
"9  c #191468",
"0  c #0E0972",
"q  c #0F0A78",
"w  c #120C74",
"e  c #130C79",
"r  c #190E76",
"t  c #1D1277",
"y  c #221C6B",
"u  c #221779",
"i  c #342B66",
"p  c #2C2676",
"a  c #353073",
"s  c #473958",
"d  c #47396A",
"f  c #5F4D5B",
"g  c #765A51",
"h  c #786140",
"j  c #464069",
"k  c #5C5B69",
"l  c #524A74",
"z  c #685361",
"x  c #6B5277",
"c  c #6A6876",
"v  c #75747D",
"b  c #78677A",
"n  c #A37B37",
"m  c #876326",
"M  c #876856",
"N  c #9A7754",
"B  c #8A6C4B",
"V  c #A37B57",
"C  c #876979",
"Z  c #90756B",
"A  c #A87C75",
"S  c #B17F64",
"D  c #BD8219",
"F  c #CC9129",
"G  c #D5962B",
"H  c #CB953A",
"J  c #D49B3A",
"K  c #D69A36",
"L  c #CA8C24",
"P  c #DBA23A",
"I  c #E4A637",
"U  c #ECA92C",
"Y  c #E39F29",
"T  c #B48747",
"R  c #B38754",
"E  c #A68366",
"W  c #B88A64",
"Q  c #BB9868",
"!  c #AC8A75",
"~  c #B78675",
"^  c #B99977",
"/  c #AE926F",
"(  c #BEA37F",
")  c #C4874D",
"_  c #C69649",
"`  c #D39B47",
"'  c #C79958",
"]  c #CF9556",
"[  c #D9A446",
"{  c #CCA257",
"}  c #DBAB54",
"|  c #D5A557",
" . c #DDB15D",
".. c #CEA04F",
"X. c #E4AB48",
"o. c #EBB84A",
"O. c #E7B558",
"+. c #E8B355",
"@. c #C58E68",
"#. c #C29A64",
"$. c #CC986C",
"%. c #CAA66A",
"&. c #D4A865",
"*. c #DDB569",
"=. c #C8A675",
"-. c #D9B677",
";. c #E6B862",
":. c #F1C257",
">. c #EAC46A",
",. c #DFC47A",
"<. c #210F87",
"1. c #220F88",
"2. c #231186",
"3. c #25128A",
"4. c #29158E",
"5. c #2C198D",
"6. c #2C1692",
"7. c #2E1894",
"8. c #321B96",
"9. c #341C9A",
"0. c #301E8F",
"q. c #36258A",
"w. c #3B239D",
"e. c #382697",
"r. c #3E2DA2",
"t. c #453598",
"y. c #48328E",
"u. c #4B27AF",
"i. c #4D2AAE",
"p. c #452AA6",
"a. c #4D34AC",
"s. c #5839AB",
"d. c #4E2BB1",
"f. c #522DB2",
"g. c #5E29B2",
"h. c #5433B5",
"j. c #5A32B5",
"k. c #5735B8",
"l. c #5936B9",
"z. c #5C3ABA",
"x. c #593BB4",
"c. c #512DAF",
"v. c #633CAA",
"b. c #622CB3",
"n. c #6631B5",
"m. c #6535B9",
"M. c #6934B9",
"N. c #623CBC",
"B. c #6D3ABD",
"V. c #6838B3",
"C. c #713DBF",
"Z. c #713EB4",
"A. c #713EAF",
"S. c #584487",
"D. c #584895",
"F. c #504C8B",
"G. c #69598B",
"H. c #70569C",
"J. c #796687",
"K. c #71708D",
"L. c #5A48B3",
"P. c #6A45A9",
"I. c #754AAB",
"U. c #7658A9",
"Y. c #6845B4",
"T. c #724CB2",
"R. c #7948B9",
"E. c #6B56B6",
"W. c #7756B3",
"Q. c #6D5FAD",
"!. c #7961B1",
"~. c #7871AA",
"^. c #723FC0",
"/. c #6E3FC0",
"(. c #7442C1",
"). c #7B49C2",
"_. c #6B4CC1",
"`. c #8A599D",
"'. c #877586",
"]. c #9B7582",
"[. c #956897",
"{. c #9A7794",
"}. c #866693",
"|. c #A67787",
" X c #A57998",
".X c #8559A9",
"XX c #804EB9",
"oX c #8959B3",
"OX c #876DAB",
"+X c #9568A7",
"@X c #8978AB",
"#X c #8868B2",
"$X c #8974B4",
"%X c #9770AE",
"&X c #A576A4",
"*X c #A375BA",
"=X c #8251C5",
"-X c #8B8A99",
";X c #8F8E97",
":X c #B68789",
">X c #B89787",
",X c #B38992",
"<X c #AD8D8F",
"1X c #BBA489",
"2X c #ADA39C",
"3X c #ABA196",
"4X c #B2A59B",
"5X c #B4A99C",
"6X c #B7A697",
"7X c #8E88A8",
"8X c #948AAE",
"9X c #988BAB",
"0X c #9B94AD",
"qX c #9E9AAD",
"wX c #9A99A3",
"eX c #9A92B1",
"rX c #A682A3",
"tX c #A19DAC",
"yX c #A398A6",
"uX c #A882B4",
"iX c #ABA5A5",
"pX c #A7A6AB",
"aX c #A9A6A9",
"sX c #AAA8A8",
"dX c #B2A9A2",
"fX c #B9B5A8",
"gX c #AFADB1",
"hX c #C39686",
"jX c #C5AA85",
"kX c #C6B292",
"lX c #CAAE90",
"zX c #C3B9B1",
"xX c #D3CDAD",
"cX c #E5E2B2",
"vX c #B99CC0",
"bX c #E4DFC2",
"nX c #F1F0C8",
/* pixels */
"pXpXpXpXpXpXpXpXpXpXpXpXpXpXpXpXpXpXpXpXpXpXpXpXpXpXpXpXpXpXpXpXpXpXpXpXpXpXpXpXpXpXpXpXpXpXpXpXpXpXpXpXpXpXpXpXpXpXpXpXpXpXpXpX",
"pXpXpXpXpXpXpXpXpXpXpXpXpXpXpXpXpXpXpXpXpXpXpXpXpXpXpXpXpXpXpXpXpXpXpXpXpXpXpXpXpXpXpXpXpXpXpXpXpXpXpXpXpXpXpXpXpXpXpXpXpXpXpXpX",
"pXpXpXpXpXpXpXpXpXpXpXpXpXpXpXpXpXpXpXpXpXpXpXpXpXpXpXgXpXpXpXpXpXpXpXpXpXpXpXpXpXpXpXpXpXpXpXpXpXpXpXpXpXpXpXpXpXpXpXpXpXpXpXpX",
"pXpXpXpXpXpXpXpXpXpXpXpXpXpXpXpXpXpXpXpXpXpXpXpXpXpXpXpXpXpXpXpXpXpXpXpXpXpXpXpXpXpXpXpXpXpXpXpXpXpXpXpXpXpXpXpXpXpXpXpXpXpXpXpX",
"pXpXpXpXpXpXpXpXpXpXpXpXpXpXpXpXpXpXpXpXpXpXpXpXpXpXpXpXpXpXpXpXpXpXpXpXpXpXpXpXpXpXpXpXpXpXpXpXpXpXpXpXpXpXpXpXgXpXpXpXpXpXpXpX",
"pXpXpXpXpXpXpXpXpXpXpXpXpXpXpXpXpXpXpXpXpXpXpXpXpXpXpXpXpXpXpXpXpXpXpXpXpXpXpXpXpXpXpXpXpXpXpXpXpXpXpXpXpXpXpXpXpXpXpXpXpXpXpXpX",
"pXpXpXpXpXpXpXpXpXpXpXpXpXpXpXpXpXpXpXpXpXpXpXpXpXpXpXpXpXpXpXpXpXpXpXpXpXpXpXpXpXpXpXpXpXpXpXpXpXpXpXpXpXpXpXpXpXpXpXpXpXpXpXpX",
"pXpXpXpXpXpXpXpXpXpXpXpXpXpXpXpXpXpXpXpXpXpXpXpXpXpXpXpXpXpXpXpXpXpXpXpXpXpXpXpXpXpXpXpXpXpXpXpXpXpXpXpXpXpXpXpXpXpXpXpXpXpXpXpX",
"pXpXgXpXpXpXpXpXpXpXpXpXpXpXpXpXpXpXpXpXpXpXpXpXpXpXpXpXpXpXpXpXpXpXpXpXpXpXpXpXpXpXpXpXpXpXpXpXpXpXpXpXpXpXpXpXpXpXpXpXpXpXpXpX",
"pXpXpXpXpXpXpXpXpXpXpXpXpXpXpXpXpXpXpXpXpXpXpXpXpXpXpXpXpXpXpXpXpXpXpXpXpXpXpXpXpXpXpXpXpXpXpXpXpXpXpXpXpXpXpXpXpXpXpXpXpXpXpXpX",
"pXpXpXpXpXpXpXpXpXpXpXpXpXpXpXpXpXpXpXpXpXpXpXpXpXpXpXpXpXpXpXpXpXpXpXpXpXpXpXpXpXpXpXpXpXpXpXpXpXpXpXpXpXpXpXpXpXpXpXpXpXpXpXpX",
"pXpXpXpXpXpXpXpXpXpXpXpXpXpXpXpXpXpXpXpXpXpXpXpXpXpXpXpXpXpXpXpXpXpXpXpXpXpXpXpXpXpXpXpXpXpXpXpXpXpXpXpXpXpXpXpXpXpXpXpXpXpXpXpX",
"pXpXpXpXpXpXpXpXpXpXpXpXpXpXpXpXpXpXpXpXpXpXpXpXpXpXpXpXpXpXpXpXpXpXpXpXpXpXpXpXpXpXpXpXpXpXpXpXpXpXpXpXpXpXpXpXpXpXpXpXpXpXpXpX",
"pXpXpXpXpXpXpXpXpXpXpXpXpXpXpXpXpXpXpXpXpXpXpXpXpXpXpXpXpXpXpXpXpXpXpXpXpXpXpXpXpXpXpXpXpXpXgXpXpXpXpXpXpXpXpXpXpXpXpXpXpXpXpXpX",
"pXpXpXpXpXpXpXpXpXpXpXpXpXpXpXpXpXpXpXpXpXpXpXpXpXpXpXpXpXpXpXpXpXpXpXpXpXpXpXpXpXpXpXpXpXpXpXpXpXpXpXpXpXpXpXpXpXpXpXpXpXpXpXpX",
"pXpXpXpXpXpXpXpXpXpXpXpXpXpXpXpXpXpXpXpXpXpXpXpXpXpXpXpXpXpXpXpXpXpXpXpXpXpXpXpXpXpXpXpXpXpXpXpXpXpXpXpXpXpXpXpXpXpXpXpXpXpXpXpX",
"pXpXpXpXpXpXpXpXpXpXpXpXpXpXpXpXpXpXpXpXpXpXpXpXpXpXpXpXpXpXpXpXpXpXpXpXpXpXpXpXpXpXpXpXpXpXpXpXpXpXpXpXpXpXpXpXpXpXpXpXpXpXpXpX",
"pXpXpXpXpXpXpXpXpXpXpXpXpXpXpXpXpXpXpXpXpXpXpXpXpXpXpXpXpXpXpXpXpXpXpXpXpXpXpXpXpXpXpXpXpXpXpXpXpXpXpXpXpXpXpXpXpXpXpXpXpXpXpXpX",
"pXpXpXpXpXpXpXpXpXpXpXpXpXpXpXpXpXpXpXpXpXpXpXpXpXpXpXpXpXpXpXpXpXpXpXpXpXpXpXpXpXpXpXpXpXpXpXpXpXpXpXpXpXpXpXpXpXpXpXpXpXpXpXpX",
"pXpXpXpXpXpXpXpXpXpXpXpXpXpXpXpXpXpXpXpXpXpXpXpXpXpXpXpXpXpXpXpXpXpXpXpXpXpXpXpXpXpXpXpXpXpXpXpXpXpXpXpXpXpXpXpXpXpXpXpXpXpXpXpX",
"pXpXpXpXpXpXpXpXpXpXpXpXpXpXpXpXpXpXpXpXpXpXpXpXpXpXpXpXpXpXpXgXpXpXpXpXpXpXpXpXpXpXpXpXpXpXpXpXpXpXpXpXpXpXpXpXpXpXpXpXpXpXpXpX",
"pXpXpXpXpXpXpXpXpXpXpXpXpXpXpXpXpXpXpXpXpXpXpXpXpXpXpXpXpXpXpXgXpXpXpXpXpXpXpXpXpXpXpXpXpXpXpXpXpXpXpXpXpXpXpXpXpXpXpXpXpXpXpXpX",
"pXpXpXpXpXpXpXpXpXpXpXpXpXsXpXpXpXpXpXpXpXpXpXpX1XjXpXpXfX*.U U F J 1XpXpX>X2XpXiX/ K 6XpXpXpXjX&.sXpXpX4X( pXpXpXpXpXpXpXpXpXpX",
"pXpXpXpXpXpXpXpXpXpXpXaXfXcXfXpXpXpXpXpXpXpXaXdX6X1XpXpXgX&.U U F } ` 6X4X` ^ pXdX&.] iXpXpXpX4XsXpXpXpXsX4XpXpXpXpXpXpXpXpXpXpX",
"pXpXpXpXpXpXpXpXsXpXpXpXfXxXfXpXpXpXpXaX3XpXsX6XsXsXpXpXpX3XJ U o.*.H =.sXQ %.kX*.O.} sXpXpXpXpXpXpXpX2X5XsXpXpXpXpXpXpXpXpXpXpX",
"pXpXpXpXpXpXpXpXpXpXpXpXpXsXpXpXpXpXsXsX2XpXpXsXpXsX4XpXpX2X..I :.O.` lXiX1XjX .;.;.} 5XpXdX5XpXpXpXpXaX6X1XsXpXpXpXpXpXpXpXpXpX",
"pXpXpXpXpXpXpXpXpXpXpXpXpXpXpXpXpX2X( 6XpXpXpXpXpX6X%.#.1X( %.X.:.o.*.jX=. .jX%.5XfXlXgXpX5X1X3XpXpXpXsX3XsXsXpXpXpXpXpXpXpXpXpX",
"pXpXpXpXpXpXpXpXpXpXpXpXpX5XdXpXpX1X} kXpXpXpXpXdX` _ ' K %.Q G U +.#.%.%. .:.=.iXfXzXgXpX5X' ^ pXpXpX2X2XpXpXpXpXpXpXpXpXpXpXpX",
"pXpXpXpXpXpXpXpXpXpXpXpXpXiX6XpXpXdXkXkXpXpXpXtXyX| | Q T / ` P X.I K $.<X0XjXyXtXgXbXxXzXpX#._ 2XpXpXpXpXpXpXpXpXpXpXpXpXpXpXpX",
"pXpXpXpXpXpXpXpXpXpXpXpXpXpXpXpXpXpX0X8X$XU.I.Y.+X-.} ) `.A K Y I [ G H |.`..XI.%XzXnXnXzXtX^ ] 5XpXpXpXpXpXpXpXpXsXpXpXpXpXpXpX",
"pXpXpXpXpXpXpXpXpXpXpXpXpXpXqX7X~.T.V.b.g.g.g.b.+X%.F ) .X@.Y X.F J G L ` ] `.I.oX#XbXcXzXU.U.$.9XqXpXpXpXpXpXpXpXpXpXpXpXpXpXpX",
"pXpXpXpXpXpXpXpXpXpXpXpX7XW.T.V.g.g.g.g.g.b.b..X>X&.G J ~ | Y I J ~ @.K G @.Z.M.^.^.zX*XlX.Xb.[.P.V.OX0XtXpXpXpXpXpXpXpXpXpXpXpX",
"pXpXpXpXpXpXpXpXpX0XOXZ.b.b.@X.Xb.b.b.b.n.M.M.+X#X,XP { Q [ [ P ~ XX+XA P $.&X).^.oXuXuXhX).M.b.b.b.A  XY.OX0XpXpXpXpXpXpXpXpXpX",
"pXpXpXpXpXpXpXtX!.V.g.b.b.b.I.R.M.M.B.B.B.B.B.C.).:XP K H _ | P ` ,X&X+X:X X-.%X).oX*X*X*X).B.M.M.XX] .Xb.b.Z.OX0XpXpXpXpXpXpXpX",
"pXpXpXpXpXtX$Xv.b.b.b.b.b.n.I.XX/.^.^.^.^.(.(.(.(.+X` J G P +.:.+.` ,X&X,X[.,XoX+X).=X=XXXXX%X).Z.XX&.hXR.b.b.b.Y.@XpXpXpXpXpXpX",
"pXpXpXpXtXW.b.b.b.b.b.M.M..X|.+X(.^.(./.B.l.z.P.j.U._ H ..I o.X.G I ` &.~ @.v.A.[.Y./.Y.XX&XlX#XXX&X+.hX,XI.b.b.g.n.!.qXpXpXpXpX",
"pXpXpX9XT.b.g.b.b.M.B.B./.oX] ~ .XW.P.v.d.d.L.@X[.=.} ].H.) J ' ` X.G O.jX~ P.u.i.i.i.i.u.OXhXT.^.XX&XR.oXR.M.M.b.b.b.T.0XpXpXpX",
"pXpX0XT.b.b.b.b.M.M.C.^.^..X~ A s.@X|.|.d.h.z.&X;.o.;.{.U.) D J | ..^ &.jXU.f.d.i.h.d.d.u.i.U.s.g.b.B.^.^.C.B.M.M.n.n.g.T.qXpXpX",
"pXtXT.b.b.b.M.M.B.^.^.m.f.h.v.P.h.x.I.P.h.x.z.W. X$.=. X X` G J [ ` :XA ` U.h.h.[.&Xx.h.c.i.@XfXW.u.u.f.m.B.^.C.B.M.M.b.g.!.pXpX",
"pX@Xb.b.b.b.M.B.^.N.f.d.d.f.f.f.h.h.h.h.h.h.h.a.p.s.S.e.D.%.G H P J W A E s.!.}.$.>XE.L.k.x.sXxXW.d.u.u.u.f.m.(.^.B.M.M.b.g.@XpX",
"tXT.b.b.M.M.B.B.j.d.d.d.f.h.h.k.h.h.p.w.8.S.S.q.5.S.C q.}.:.' Z H } / x ~ E ,./ S.t.s.L.z.l.E.W.f.f.f.f.u.u.u.j.B.^.B.M.b.b.W.tX",
"0Xn.b.M.M.B.B.f.d.d.f.h.k.l.h.p.9.3.<.<.S.&. .J.G.#.W l C  .! C K [ x y.y.V W y.2.2.3.4.9.r.h.l.z.k.f.f.d.d.d.d.f.M.^.B.M.b.V.0X",
"8Xb.M.Z.C.N.f.d.f.k.j.k.h.w.7.<.3.2.<.3.'.Q =.{.$.X.O.'.J.>X=.^ | ] S.C ].V A G.4.3.2.3.<.<.3.w.d.z.k.h.f.h.h.h.j.j.B.^.B.n.n.9X",
"8Xb.M.C.B.f.d.f.k.k.k.p.6.1.3.3.3.3.4.3.5.r.D.~.#...[ J.t.! O.&.' -.W ` =.y.S.'.q.3.3.3.3.1.1.<.4.w.h.k.k.k.z._.Y.h.h.B.B.m.m.9X",
"8XM.M./.j.f.f.k.z.h.8.3.2.3.3.5.6.7.6.6.7.9.r.L.>X&.%.A ].| J #.^ #.E '.J.w.9.9.7.7.6.4.4.3.3.3.1.1.6.i.z.z.L._.R.x.f.g.^.B.V.eX",
"qXT.M.M.f.h.z.z.h.5.1.2.3.6.8.e.e.9.9.9.w.w.r.t.C R C T E V n z #.{ W q.5.t.D.9.9.9.7.6.6.4.4.3.1.1.<.3.p.z./.z.L.h.d.u.M.M.T.tX",
"pX$XB.j.f.k.z.h.6.3.1.4.6.8.w.a.p.r.w.4.2.9 7 j V f 3 N 3 B T M ' Q g 1 : s k 8 <.4.8.w.9.7.7.4.4.3.3.2.3.p.N.N.z.h.d.u.m.C.$XpX",
"pXtXW.f.h.z.l.8.1.1.4.4.8.e.w.w.e.t 7 > ; < 1 3 T s 2 N Z B g Z R N g , : , > > ; : 5 t 7.w.9.9.4.4.5.4.1.4.h.N.z.k.f.d.f.W.tXpX",
"pXpXeXY.k.z.r.3.3.3.4.7.9.9.5.r 7 < : < : > > 7 i 9 , i a a Z z R z N i > 5 f z : : , y y p 0.e.7.6.4.3.1.1.9.z.N.z.h.d.L.eXpXpX",
"pXpXpX8XL.k.9.3.3.4.6.7.6.r , ; : : : > 4 4 5 6 6 8 0 r j G.v N T M Z 9 6 7 Z j 4 > 9 p F.a y 9 5.7.6.6.3.1.3.L.N.z.k.L.8XtXpXpX",
"pXpXpXpXeXE.5.2.3.6.6.2.5 ; ; ; : > > 4 4 6 w w e e t p E F.l _ H E a 0 q w 8 6 5 5 9 a Q.F.y , > <.7.6.3.3.2.a._._._.eXpXpXpXpX",
"pXpXpXpXpXqXK.q.4.4.3.4 ; ; ; : 4 4 4 6 w e e w 6 5 < < 2 1 g / =.Z 9 6 w q q 6 0 8 9 y p y 9 , ; : <.9.6.3.2.a._.~.qXpXpXpXpXpX",
"pXpXpXpXpXpXtX7XD.q., ; ; : : > 4 6 6 w 0 , - O O X X X @ = & h R T # o O ; 5 w q 0 8 9 9 9 > > ; ; < 2.6.3.0.Q.eXpXpXpXpXpXpXpX",
"pXpXpXpXpXpXpXpXpX7Xk y < : : 4 6 w w 5 O O X o X X X X @ N m * * * # o X X O - 8 e 0 6 5 4 > : ; ; ; 5 e.H.-XtXpXpXpXpXpXpXpXpX",
"pXpXpXpXpXpXpXpXpXpXpX;XK.j 9 7 0 q , O X X O o X X X X o @ $ % % .   o X X X X O 8 q 0 6 4 4 4 < 9 a K.wXtXpXpXpXpXpXpXpXpXpXpX",
"pXpXpXpXpXpXpXpXpXpXpXpXpXtX;XK.l a 1 X X X o O X X X X X X   . %     o X X X X o - q q 6 9 p j K.;X2XpXpXpXpXpXpXpXpXpXpXpXpXpX",
"pXpXpXpXpXpXpXpXpXpXpXpXpXpXpXpXpXwX-Xc k s # + + o o o X X o o   o o o o X O + + 3 F.F.K.7XwXpXpXpXpXpXpXpXpXpXpXpXpXpXpXpXpXpX",
"pXpXpXpXpXpXpXpXpXpXpXpXpXpXpXpXpXpXpXpXsXwXwX;X;X'.K.v c k k k k k k c c v v -X;XqXqXpXpXgXpXpXpXpXpXpXpXpXpXpXpXpXpXpXpXpXpXpX",
"pXpXpXpXpXpXpXpXpXpXpXpXpXpXpXpXpXpXpXpXsXpXpXpXpXpXpXpXpXpXpXpXsXpXpXpXpXpXsXpXpXpXpXpXpXpXpXpXpXpXpXpXpXpXpXpXpXpXpXpXpXpXpXpX",
"pXpXpXpXpXpXpXpXpXpXpXpXpXpXpXpXpXpXpXpXpXpXpXpXpXpXpXpXpXpXpXpXpXpXpXsXpXpXpXpXpXpXpXpXpXpXpXpXpXpXpXpXpXpXpXpXpXpXpXpXpXpXpXpX",
"pXpXpXpXpXpXpXpXpXpXpXpXpXpXpXpXpXpXpXpXpXpXpXpXpXpXpXpXpXpXpXpXpXpXpXpXpXpXpXpXpXgXpXpXpXpXpXpXpXpXpXpXpXpXpXpXpXpXpXpXpXpXpXpX",
"pXpXpXpXpXpXpXpXpXpXpXpXpXpXpXpXpXpXpXpXpXpXpXpXpXpXpXpXpXsXpXpXpXpXpXpXpXpXpXpXpXpXpXpXpXpXpXpXpXpXpXpXpXpXpXpXpXpXpXpXpXpXpXpX",
"pXpXpXpXpXpXpXpXpXpXpXpXpXpXpXpXpXpXpXpXpXpXpXpXpXpXpXpXpXpXpXpXpXpXpXpXpXpXpXpXpXpXpXpXpXpXpXpXpXpXpXpXpXpXpXpXpXpXpXpXpXpXpXpX",
"pXpXpXpXpXpXpXpXpXpXpXpXpXpXpXpXpXpXpXpXpXpXpXpXpXpXpXpXpXpXpXpXpXpXpXpXpXpXpXpXpXpXpXpXpXpXpXpXpXpXpXpXpXpXpXpXpXpXpXpXpXpXpXpX"
};
