/* XPM */
static char *_91_desapearB31721962198[] = {
/* columns rows colors chars-per-pixel */
"64 64 209 2 ",
"   c #02012A",
".  c #0B092B",
"X  c #040232",
"o  c #070638",
"O  c #181736",
"+  c #1C172C",
"@  c #2A222A",
"#  c #362A2A",
"$  c #382F32",
"%  c #715838",
"&  c #09064E",
"*  c #070446",
"=  c #161246",
"-  c #060457",
";  c #090657",
":  c #070459",
">  c #09065C",
",  c #0D0A5D",
"<  c #0A0857",
"1  c #140F5C",
"2  c #1B195D",
"3  c #291E58",
"4  c #251D57",
"5  c #29255B",
"6  c #382A57",
"7  c #2B2A43",
"8  c #0A0662",
"9  c #0D0963",
"0  c #0D096B",
"q  c #120C64",
"w  c #120B6B",
"e  c #15126A",
"r  c #1B146C",
"t  c #1A1665",
"y  c #0E0972",
"u  c #0F0A78",
"i  c #120C74",
"p  c #1A0F73",
"a  c #130C79",
"s  c #1A0F7E",
"d  c #1C1274",
"f  c #1E117A",
"g  c #161176",
"h  c #211D6A",
"j  c #241A63",
"k  c #21137D",
"l  c #241E71",
"z  c #29266C",
"x  c #3E3967",
"c  c #2B2472",
"v  c #2D2777",
"b  c #312974",
"n  c #3E3578",
"m  c #372B6A",
"M  c #453855",
"N  c #473F63",
"B  c #473874",
"V  c #513C76",
"C  c #544159",
"Z  c #745957",
"A  c #7A6546",
"S  c #41406A",
"D  c #5D5C6A",
"F  c #595965",
"G  c #4C4577",
"H  c #595074",
"J  c #604D6A",
"K  c #7D6263",
"L  c #676771",
"P  c #6D6A77",
"I  c #75747D",
"U  c #90713F",
"Y  c #85683C",
"T  c #836956",
"R  c #987650",
"E  c #A97F56",
"W  c #8F7068",
"Q  c #826771",
"!  c #947860",
"~  c #BF904D",
"^  c #A98758",
"/  c #B68A55",
"(  c #B99559",
")  c #A38068",
"_  c #C18F4B",
"`  c #C99647",
"'  c #D29E46",
"]  c #C59858",
"[  c #210F86",
"{  c #220F88",
"}  c #231285",
"|  c #25128A",
" . c #29158E",
".. c #2C198E",
"X. c #27188A",
"o. c #301E8F",
"O. c #2B1692",
"+. c #2E1993",
"@. c #311B95",
"#. c #341D9B",
"$. c #2C228D",
"%. c #31228C",
"&. c #36298E",
"*. c #332B94",
"=. c #3B239D",
"-. c #392C9C",
";. c #352497",
":. c #38339A",
">. c #3A23A1",
",. c #3F2BA0",
"<. c #3F36A3",
"1. c #442AA6",
"2. c #4B27AE",
"3. c #472AA8",
"4. c #4D29AF",
"5. c #4126A3",
"6. c #413EA2",
"7. c #4D32AD",
"8. c #4937A8",
"9. c #4E2AB0",
"0. c #522DB2",
"q. c #5E29B2",
"w. c #5433B5",
"e. c #5B32B6",
"r. c #5639B6",
"t. c #5735B8",
"y. c #5936B9",
"u. c #5C3ABA",
"i. c #5739B8",
"p. c #622CB4",
"a. c #6531B5",
"s. c #6A35B7",
"d. c #6739B2",
"f. c #6A3CB4",
"g. c #6534B9",
"h. c #6A35BA",
"j. c #633CBC",
"k. c #6D3ABD",
"l. c #713DBF",
"z. c #494585",
"x. c #585291",
"c. c #635A9A",
"v. c #6D6C86",
"b. c #706F89",
"n. c #78778A",
"m. c #737193",
"M. c #6B6799",
"N. c #4C4FAD",
"B. c #4D53AB",
"V. c #4B55A7",
"C. c #5D42B8",
"Z. c #6D5FAD",
"A. c #6C43B1",
"S. c #6F49B1",
"D. c #6342BC",
"F. c #6943BD",
"G. c #6547B7",
"H. c #714DB3",
"J. c #7242BE",
"K. c #7949BF",
"L. c #6B57B3",
"P. c #6252BF",
"I. c #7351B1",
"U. c #795CB1",
"Y. c #7A57B8",
"T. c #7C62B1",
"R. c #617ABA",
"E. c #6E3FC0",
"W. c #723EC0",
"Q. c #6944C1",
"!. c #7442C2",
"~. c #7945C4",
"^. c #754CC3",
"/. c #7B4AC4",
"(. c #6C50C2",
"). c #7556C4",
"_. c #7F6ACB",
"`. c #807F88",
"'. c #826CAF",
"]. c #8B7CAE",
"[. c #8672AF",
"{. c #816BB0",
"}. c #8876B3",
"|. c #804EC7",
" X c #8454C6",
".X c #8859C7",
"XX c #8768CB",
"oX c #9063CC",
"OX c #89888F",
"+X c #8B8A9C",
"@X c #8A8990",
"#X c #908F9C",
"$X c #93929A",
"%X c #A29A8B",
"&X c #8F81AF",
"*X c #8D8BA4",
"=X c #9185AE",
"-X c #948BAE",
";X c #988FAE",
":X c #9B9AA3",
">X c #9B94AD",
",X c #9E9AAD",
"<X c #9492A4",
"1X c #9A92B1",
"2X c #A19DAC",
"3X c #A09FA6",
"4X c #A7A6AB",
"5X c #A1A0A6",
"6X c #A780D5",
/* pixels */
"4X4X4X4X4X4X4X4X4X4X4X4X4X4X4X4X4X4X4X4X4X4X4X4X4X4X4X4X4X4X4X4X4X4X4X4X4X4X4X4X4X4X4X4X4X4X4X4X4X4X4X4X4X4X4X4X4X4X4X4X4X4X4X4X",
"4X4X4X4X4X4X4X4X4X4X4X4X4X4X4X4X4X4X4X4X4X4X4X4X4X4X4X4X4X4X4X4X4X4X4X4X4X4X4X4X4X4X4X4X4X4X4X4X4X4X4X4X4X4X4X4X4X4X4X4X4X4X4X4X",
"4X4X4X4X4X4X4X4X4X4X4X4X4X4X4X4X4X4X4X4X4X4X4X4X4X4X4X4X4X4X4X4X4X4X4X4X4X4X4X4X4X4X4X4X4X4X4X4X4X4X4X4X4X4X4X4X4X4X4X4X4X4X4X4X",
"4X4X4X4X4X4X4X4X4X4X4X4X4X4X4X4X4X4X4X4X4X4X4X4X4X4X4X4X4X4X4X4X4X4X4X4X4X4X4X4X4X4X4X4X4X4X4X4X4X4X4X4X4X4X4X4X4X4X4X4X4X4X4X4X",
"4X4X4X4X4X4X4X4X4X4X4X4X4X4X4X4X4X4X4X4X4X4X4X4X4X4X4X4X4X4X4X4X4X4X4X4X4X4X4X4X4X4X4X4X4X4X4X4X4X4X4X4X4X4X4X4X4X4X4X4X4X4X4X4X",
"4X4X4X4X4X4X4X4X4X4X4X4X4X4X4X4X4X4X4X4X4X4X4X4X4X4X4X4X4X4X4X4X4X4X4X4X4X4X4X4X4X4X4X4X4X4X4X4X4X4X4X4X4X4X4X4X4X4X4X4X4X4X4X4X",
"4X4X4X4X4X4X4X4X4X4X4X4X4X4X4X4X4X4X4X4X4X4X4X4X4X4X4X4X4X4X4X4X4X4X4X4X4X4X4X4X4X4X4X4X4X4X4X4X4X4X4X4X4X4X4X4X4X4X4X4X4X4X4X4X",
"4X4X4X4X4X4X4X4X4X4X4X4X4X4X4X4X4X4X4X4X4X4X4X4X4X4X4X4X4X4X4X4X4X4X4X4X4X4X4X4X4X4X4X4X4X4X4X4X4X4X4X4X4X4X4X4X4X4X4X4X4X4X4X4X",
"4X4X4X4X4X4X4X4X4X4X4X4X4X4X4X4X4X4X4X4X4X4X4X4X4X4X4X4X4X4X4X4X4X4X4X4X4X4X4X4X4X4X4X4X4X4X4X4X4X4X4X4X4X4X4X4X4X4X4X4X4X4X4X4X",
"4X4X4X4X4X4X4X4X4X4X4X4X4X4X4X4X4X4X4X4X4X4X4X4X4X4X4X4X4X4X4X4X4X4X4X4X4X4X4X4X4X4X4X4X4X4X4X4X4X4X4X4X4X4X4X4X4X4X4X4X4X4X4X4X",
"4X4X4X4X4X4X4X4X4X4X4X4X4X4X4X4X4X4X4X4X4X4X4X4X4X4X4X4X4X4X4X4X4X4X4X4X4X4X4X4X4X4X4X4X4X4X4X4X4X4X4X4X4X4X4X4X4X4X4X4X4X4X4X4X",
"4X4X4X4X4X4X4X4X4X4X4X4X4X4X4X4X4X4X4X4X4X4X4X4X4X4X4X4X4X4X4X4X4X4X4X4X4X4X4X4X4X4X4X4X4X4X4X4X4X4X4X4X4X4X4X4X4X4X4X4X4X4X4X4X",
"4X4X4X4X4X4X4X4X4X4X4X4X4X4X4X4X4X4X4X4X4X4X4X4X4X4X4X4X4X4X4X4X4X4X4X4X4X4X4X4X4X4X4X4X4X4X4X4X4X4X4X4X4X4X4X4X4X4X4X4X4X4X4X4X",
"4X4X4X4X4X4X4X4X4X4X4X4X4X4X4X4X4X4X4X4X4X4X4X4X4X4X4X4X4X4X4X4X4X4X4X4X4X4X4X4X4X4X4X4X4X4X4X4X4X4X4X4X4X4X4X4X4X4X4X4X4X4X4X4X",
"4X4X4X4X4X4X4X4X4X4X4X4X4X4X4X4X4X4X4X4X4X4X4X4X4X4X4X4X4X4X4X4X4X4X4X4X4X4X4X4X4X4X4X4X4X4X4X4X4X4X4X4X4X4X4X4X4X4X4X4X4X4X4X4X",
"4X4X4X4X4X4X4X4X4X4X4X4X4X4X4X4X4X4X4X4X4X4X4X4X4X4X4X4X4X4X4X4X4X4X4X4X4X4X4X4X4X4X4X4X4X4X4X4X4X4X4X4X4X4X4X4X4X4X4X4X4X4X4X4X",
"4X4X4X4X4X4X4X4X4X4X4X4X4X4X4X4X4X4X4X4X4X4X4X4X4X4X4X4X4X4X4X4X4X4X4X4X4X4X4X4X4X4X4X4X4X4X4X4X4X4X4X4X4X4X4X4X4X4X4X4X4X4X4X4X",
"4X4X4X4X4X4X4X4X4X4X4X4X4X4X4X4X4X4X4X4X4X4X4X4X4X4X4X4X4X4X4X4X4X4X4X4X4X4X4X4X4X4X4X4X4X4X4X4X4X4X4X4X4X4X4X4X4X4X4X4X4X4X4X4X",
"4X4X4X4X4X4X4X4X4X4X4X4X4X4X4X4X4X4X4X4X4X4X4X4X4X4X4X4X4X4X4X4X4X4X4X4X4X4X4X4X4X4X4X4X4X4X4X4X4X4X4X4X4X4X4X4X4X4X4X4X4X4X4X4X",
"4X4X4X4X4X4X4X4X4X4X4X4X4X4X4X4X4X4X4X4X4X4X4X4X4X4X4X4X4X4X4X4X4X4X4X4X4X4X4X4X4X4X4X4X4X4X4X4X4X4X4X4X4X4X4X4X4X4X4X4X4X4X4X4X",
"4X4X4X4X4X4X4X4X4X4X4X4X4X4X4X4X4X4X4X4X4X4X4X4X4X4X4X4X4X4X4X4X4X4X4X4X4X4X4X4X4X4X4X4X4X4X4X4X4X4X4X4X4X4X4X4X4X4X4X4X4X4X4X4X",
"4X4X4X4X4X4X4X4X4X4X4X4X4X4X4X4X4X4X4X4X4X4X4X4X4X4X4X4X4X4X4X4X4X4X4X4X4X4X4X4X4X4X4X4X4X4X4X4X4X4X4X4X4X4X4X4X4X4X4X4X4X4X4X4X",
"4X4X4X4X4X4X4X4X4X4X4X4X4X4X4X4X4X4X4X4X4X4X4X4X4X4X4X4X4X4X4X4X4X4X4X4X4X4X4X4X4X4X4X4X4X4X4X4X4X4X4X4X4X4X4X4X4X4X4X4X4X4X4X4X",
"4X4X4X4X4X4X4X4X4X4X4X4X4X4X4X4X4X4X4X4X4X4X4X4X4X4X4X4X4X4X4X4X4X4X4X4X4X4X4X4X4X4X4X4X4X4X4X4X4X4X4X4X4X4X4X4X4X4X4X4X4X4X4X4X",
"4X4X4X4X4X4X4X4X4X4X4X4X4X4X4X4X4X4X4X4X4X4X4X4X4X4X4X4X4X4X4X4X4X4X4X4X4X4X4X4X4X4X4X4X4X4X4X4X4X4X4X4X4X4X4X4X4X4X4X4X4X4X4X4X",
"4X4X4X4X4X4X4X4X4X4X4X4X4X4X4X4X4X4X4X4X4X4X4X4X4X4X4X4X4X4X4X4X4X4X4X4X4X4X4X4X4X4X4X4X4X4X4X4X4X4X4X4X4X4X4X4X4X4X4X4X4X4X4X4X",
"4X4X4X4X4X4X4X4X4X4X4X4X4X4X4X4X4X4X4X4X4X4X4X4X4X4X4X4X4X4X4X4X4X4X4X4X4X4X4X4X4X4X4X4X4X4X4X4X4X4X4X4X4X4X4X4X4X4X4X4X4X4X4X4X",
"4X4X4X4X4X4X4X4X4X4X4X4X4X4X4X4X4X4X4X4X4X4X4X4X4X4X4X4X4X4X4X4X4X4X4X4X4X4X4X4X4X4X4X4X4X4X4X4X4X4X4X4X4X4X4X4X4X4X4X4X4X4X4X4X",
"4X4X4X4X4X4X4X4X4X4X4X4X4X4X4X4X4X4X4X4X4X4X3X2X2X;X<X=X].].].].].].].].-X;X;X2X3X2X4X4X4X4X4X4X4X4X4X4X4X4X4X4X4X4X4X4X4X4X4X4X",
"4X4X4X4X4X4X4X4X4X4X4X4X4X4X4X4X4X4X>X=X[.U.I.f.d.a.p.p.q.p.p.p.p.p.p.p.p.a.a.d.A.H.{.}.=X2X2X4X4X4X4X4X4X4X4X4X4X4X4X4X4X4X4X4X",
"4X4X4X4X4X4X4X4X4X4X4X4X4X4X,X=X{.S.d.q.q.q.q.p.p.p.p.a.p.a.p.s.p.a.a.p.p.p.p.p.p.s.s.f.h.A.H.{.=X,X4X4X4X4X4X4X4X4X4X4X4X4X4X4X",
"4X4X4X4X4X4X4X4X4X4X4X4X=XU.f.p.q.p.p.p.p.p.p.p.p.s.k.k.l.h.h.h.h.h.h.h.h.s.s.s.s.l.K. XK.l.a.p.p.A.{.,X4X4X4X4X4X4X4X4X4X4X4X4X",
"4X4X4X4X4X4X4X2X4X>X{.f.p.p.p.p.p.p.a.a.a.h.g.h.k.!.).(.^.!.W.W.W.W.E.E.W.W.W.E.W.~..XoXoX/.s.p.p.p.p.p.f.[.2X4X4X4X4X4X4X4X4X4X",
"4X4X4X4X4X4X4X2X{.d.p.p.p.p.p.a.h.k.h.h.k.l.k.J.!.^._._./.~.~.~.~./.!.!.!.!.W.W.!./. XoX.XK.k.h.h.s.p.p.p.p.s.'.>X4X4X4X4X4X4X4X",
"4X4X4X4X4X2X[.f.p.q.p.p.p.a.h.k.h.W.W.W.W.!.J.!.^.(.).).(.E.j.j.E.E.g.E.E.W.W.!.!./.|.|. X/.~.l.l.h.a.a.p.p.p.p.A.].4X4X4X4X4X4X",
"4X4X4X2X2XU.p.q.p.p.p.h.h.h.E.W.W.!.!.E.j.g.e.e.0.w.r.r.0.9.2.9.2.2.2.2.2.9.9.0.0.e.j.F.!.!.W.W.W.W.W.h.h.h.p.p.p.p.T.,X4X4X4X4X",
"4X4X4X>XA.p.p.p.p.h.k.W.E.!.!.!.E.g.0.0.2.0.w.e.w.w.w.0.9.9.0.9.9.0.9.2.9.9.2.2.9.2.9.4.0.0.e.h.W.W.W.W.W.h.a.a.p.p.p.I.>X4X4X4X",
"4X4X2XS.p.p.p.a.a.h.W.W.!.h.e.0.2.9.9.2.0.w.u.G.u.t.t.w.t.t.t.w.t.0.w.0.0.9.0.9.9.9.9.9.2.9.9.2.q.p.E.W.W.W.W.h.h.s.p.p.H.>X4X4X",
"4X3XH.p.p.p.a.h.W.W.W.g.0.0.9.0.0.0.0.0.w.w.u.D.j.j.u.t.t.t.r.r.t.t.y.t.w.w.w.w.w.r.r.r.0.9.9.2.9.2.2.0.g.W.W.W.h.h.a.p.q.U.5X4X",
"4X[.q.p.p.a.h.h.W.j.0.2.9.0.0.0.w.0.t.t.t.w.r.7.1.=.;.@.+.+.O.+.+.+.#.>.>.3.9.w.r.C.P.u.t.w.0.9.9.9.2.2.2.0.g.W.W.h.h.s.p.a.].4X",
"2XH.q.p.a.s.k.k.e.9.9.9.0.t.w.w.t.0.4.>.@...| X.X.X.{ { [ [ { { { [ [ [ { { { { @.,.8.i.u.y.t.w.w.0.0.0.2.2.2.e.W.W.l.s.a.p.H.4X",
";Xs.a.a.h.l.g.q.9.9.0.w.t.t.w.3.#.| [ [ [ | $.*.*.$.X.| { {  .|  . .| [ { { { [ [ | X.+.#.1.w.t.y.t.0.0.0.4.4.2.0.k.J.h.h.p.d.>X",
"-Xa.s.l.k.h.0.9.0.w.e.t.w.5.O.[ { [ [ { X...:.V.V.:.+. .O. .O.+.@.+.O. . . .{ { | | } [ [ [ O.>.w.t.t.w.0.w.w.w.0.w.k.l.h.a.p.;X",
"-Xa.s.l.k.0.9.w.y.y.y.3. .[ | |  . .{ | | ;.6.R.R.<.-.+.+.+.#.;.=.#.#.@.@.O.O.O. .| | | [ [ [ [ | =.w.t.t.e.j.G.F.e.w.l.l.h.a.-X",
";Xs.h.k.t.0.w.y.j.7.#.} } |  ...+.+.O.O.+.#.<.N.B.8.>.;.#.#.#.>.=.>.=.#.#.#.+.#.+.+.O.| O.{ { [ [ [ O.4.u.u.u.(.Y.r.0.e.l.h.f.1X",
",XH.h.a.0.w.y.u.q...} [ | ..o.=.;.#.#.#.>.>.>.:.*.$.} d f f p p d k k }  .+.#.#.#.#.#.+.O.O.|  .| [ } | 3.u.D.D.u.e.2.2.h.h.H.2X",
"4X}.g.e.9.t.u.t.+.| | | O.@.5.8.1.>.;. .f g w q 9 < - 2 > 1 3 M M 6 6 4 3 1 9 w [ | #.;.#.@.+.O. .| | } | 3.u.D.u.w.2.2.a.f.}.4X",
"4X2XY.e.w.u.u.+.[ {  .O.@.#.;.=.;.k w > < : : < 8 : : B M M Z ~ ` ^ ! C N 5 : - - : 9 d +.#.#.@.O. ...| | | r.j.u.w.0.2.w. X2X4X",
"4X4X1XG.r.u.5.} | | O.+.#.@. .d q < : : : > > > 8 8 8 z m m / ` ` R %XK 6 q > > : - q t z b $.;.@.O.O.| [ [ #.D.u.u.w.2.D.1X4X4X",
"4X4X4X=XG.r.#.| |  .O.+.O.p > ; : : : , > 8 9 0 0 0 0 n b l E ' / W H J K r 0 > 8 , t c z.&.t r  .+.O. .| | | i.Q.u.r.C.=X4X4X4X",
"4X4X4X4X>XL.| | | O.@.} 9 - - ; : > > 8 0 0 i i a a s V G V ) _ ] Q B P B d i 0 9 9 r v M.z.h , , } +.O.| | | 7.Q.P.L.1X4X4X4X4X",
"4X4X4X4X4X,XM.&.| O.[ 8 - - - : > 8 9 0 u a a i w , > & = A ^ ( ^ T j c g u y y i w e z b c t , ; > [ +.O.| | 7.(.T.,X4X4X4X4X4X",
"4X4X4X4X4X4X4X*Xc.$., - - : > : 8 0 0 u y 8 * o X         # Y R R #     o & 0 a u 0 w e e e , < ; ; > } O. ...Z.1X4X4X4X4X4X4X4X",
"4X4X4X4X4X4X4X4X3X+XH z ; : : 8 0 i a , o                 . @ A % + .         * w a u 0 9 8 > : - - - w &.c.*X2X4X4X4X4X4X4X4X4X",
"4X4X4X4X4X4X4X4X4X4X5X$Xb.S t 0 e a , X                     . # @               o w a 0 0 8 > : : 1 x v.<X4X4X4X4X4X4X4X4X4X4X4X",
"4X4X4X4X4X4X4X4X4X4X4X4X4X3X$Xb.z.v =         X                                   * u u y e z G b.#X5X4X4X4X4X4X4X4X4X4X4X4X4X4X",
"4X4X4X4X4X4X4X4X4X4X4X4X4X4X4X4X4X:XOXI F M $ O . . .         .           . . . O 5 z.x.m.+X:X5X4X4X4X4X4X4X4X4X4X4X4X4X4X4X4X4X",
"4X4X4X4X4X4X4X4X4X4X4X4X4X4X4X4X4X4X4X4X5X3X:X$X@X`.n.P L D D D F F D L P I n.@X$X:X4X4X4X4X4X4X4X4X4X4X4X4X4X4X4X4X4X4X4X4X4X4X",
"4X4X4X4X4X4X4X4X4X4X4X4X4X4X4X4X4X4X4X4X4X4X4X4X4X4X4X4X4X4X4X4X4X4X4X4X4X4X4X4X4X4X4X4X4X4X4X4X4X4X4X4X4X4X4X4X4X4X4X4X4X4X4X4X",
"4X4X4X4X4X4X4X4X4X4X4X4X4X4X4X4X4X4X4X4X4X4X4X4X4X4X4X4X4X4X4X4X4X4X4X4X4X4X4X4X4X4X4X4X4X4X4X4X4X4X4X4X4X4X4X4X4X4X4X4X4X4X4X4X",
"4X4X4X4X4X4X4X4X4X4X4X4X4X4X4X4X4X4X4X4X4X4X4X4X4X4X4X4X4X4X4X4X4X4X4X4X4X4X4X4X4X4X4X4X4X4X4X4X4X4X4X4X4X4X4X4X4X4X4X4X4X4X4X4X",
"4X4X4X4X4X4X4X4X4X4X4X4X4X4X4X4X4X4X4X4X4X4X4X4X4X4X4X4X4X4X4X4X4X4X4X4X4X4X4X4X4X4X4X4X4X4X4X4X4X4X4X4X4X4X4X4X4X4X4X4X4X4X4X4X",
"4X4X4X4X4X4X4X4X4X4X4X4X4X4X4X4X4X4X4X4X4X4X4X4X4X4X4X4X4X4X4X4X4X4X4X4X4X4X4X4X4X4X4X4X4X4X4X4X4X4X4X4X4X4X4X4X4X4X4X4X4X4X4X4X",
"4X4X4X4X4X4X4X4X4X4X4X4X4X4X4X4X4X4X4X4X4X4X4X4X4X4X4X4X4X4X4X4X4X4X4X4X4X4X4X4X4X4X4X4X4X4X4X4X4X4X4X4X4X4X4X4X4X4X4X4X4X4X4X4X"
};
