/* XPM */
static char *_97_desapear1721364831[] = {
/* columns rows colors chars-per-pixel */
"64 64 182 2 ",
"   c #1A1B16",
".  c #1C1B1C",
"X  c #251C16",
"o  c #262719",
"O  c #37281E",
"+  c #272723",
"@  c #2C2C2D",
"#  c #3F3726",
"$  c #353535",
"%  c #3A3A39",
"&  c #482D17",
"*  c #4A301A",
"=  c #53351D",
"-  c #513E1E",
";  c #5C3A1E",
":  c #633E1F",
">  c #4B3424",
",  c #473529",
"<  c #513520",
"1  c #5C3E25",
"2  c #553D2B",
"3  c #583E2C",
"4  c #483D35",
"5  c #503D30",
"6  c #633F21",
"7  c #3F5229",
"8  c #394232",
"9  c #5C5218",
"0  c #61571C",
"q  c #756B1C",
"w  c #464824",
"e  c #554521",
"r  c #5D422B",
"t  c #545529",
"y  c #574537",
"u  c #465335",
"i  c #634124",
"p  c #6C4523",
"a  c #64442B",
"s  c #674A29",
"d  c #6E4A2C",
"f  c #744B25",
"g  c #7C4E25",
"h  c #734C2A",
"j  c #695825",
"k  c #77512F",
"l  c #7C512C",
"z  c #634630",
"x  c #674831",
"c  c #694930",
"v  c #724E30",
"b  c #6E523C",
"n  c #576A3F",
"m  c #5B7734",
"M  c #5B743B",
"N  c #706C2B",
"B  c #363C46",
"V  c #393D45",
"C  c #393A4E",
"Z  c #3C3D51",
"A  c #3C424C",
"S  c #3E4353",
"D  c #464746",
"F  c #4C4B4C",
"G  c #544A45",
"H  c #5A514D",
"J  c #404554",
"K  c #424954",
"L  c #4E4F54",
"P  c #45485B",
"I  c #444C5B",
"U  c #4D515B",
"Y  c #535353",
"T  c #5A5555",
"R  c #54565C",
"E  c #5B5A5B",
"W  c #63544A",
"Q  c #7C5F48",
"!  c #655D5A",
"~  c #6A5F5A",
"^  c #5A674B",
"/  c #5B6253",
"(  c #6B6F54",
")  c #716057",
"_  c #4A4E61",
"`  c #4E5265",
"'  c #535865",
"]  c #5D5E63",
"[  c #525669",
"{  c #555B6D",
"}  c #595E71",
"|  c #605F61",
" . c #5D636F",
".. c #5B6274",
"X. c #636364",
"o. c #65676C",
"O. c #6C6B6D",
"+. c #786E6A",
"@. c #6F726F",
"#. c #646A75",
"$. c #6C6D74",
"%. c #656B7D",
"&. c #716E71",
"*. c #6C717B",
"=. c #747273",
"-. c #76777A",
";. c #797879",
":. c #7B7A7C",
">. c #855426",
",. c #8A5727",
"<. c #8D5A27",
"1. c #82552C",
"2. c #8A5729",
"3. c #87582F",
"4. c #8C592B",
"5. c #945D2B",
"6. c #995F2A",
"7. c #875C37",
"8. c #96602D",
"9. c #9C622C",
"0. c #8A603C",
"q. c #A4662C",
"w. c #866348",
"e. c #6C8E33",
"r. c #78A43C",
"t. c #A89923",
"y. c #85B83E",
"u. c #C4B020",
"i. c #D5BF20",
"p. c #E0C81F",
"a. c #F7D91A",
"s. c #86857D",
"d. c #8DC340",
"f. c #666E80",
"g. c #6C7484",
"h. c #6E7788",
"j. c #6F7889",
"k. c #757B84",
"l. c #7B7D84",
"z. c #747D8C",
"x. c #797E88",
"c. c #767F90",
"v. c #827E80",
"b. c #77808E",
"n. c #768191",
"m. c #7A8494",
"M. c #7C8798",
"N. c #7E8999",
"B. c #838284",
"V. c #868589",
"C. c #8A898C",
"Z. c #918D8F",
"A. c #93988F",
"S. c #808997",
"D. c #8D8D90",
"F. c #818B9B",
"G. c #918F92",
"H. c #84909F",
"J. c #939395",
"K. c #969599",
"L. c #98979B",
"P. c #9B9A9E",
"I. c #8793A3",
"U. c #9E9DA2",
"Y. c #A09FA4",
"T. c #A2A1A5",
"R. c #A7A6AB",
"E. c #A8A7AC",
"W. c #A9A9AA",
"Q. c #B4B4B4",
"!. c #BDBDBD",
"~. c #C5C5C5",
"^. c #CDCDCD",
"/. c #D5D5D4",
"(. c #DCDCDC",
"). c #E6E6E6",
"_. c #EBEBEC",
"`. c #F0F0EF",
"'. c #EFF0F0",
"]. c #F4F4F3",
"[. c #F6F9F8",
"{. c #FCFCFC",
/* pixels */
"R.R.R.R.R.R.R.R.R.R.R.R.R.R.R.R.R.R.R.R.R.R.R.R.R.E.R.R.R.R.R.R.R.R.R.R.R.R.R.R.R.R.R.R.R.R.R.E.R.R.R.R.R.R.R.R.R.R.R.R.R.R.R.R.",
"R.R.R.R.R.R.R.R.E.R.R.R.R.R.R.R.R.R.R.R.R.R.R.R.R.R.R.R.R.R.R.R.R.E.R.R.R.R.R.R.R.R.R.R.R.R.R.R.R.R.R.R.R.R.R.E.R.R.R.R.R.R.R.R.",
"R.R.R.R.R.R.R.R.R.R.R.R.R.R.R.R.R.R.R.R.R.R.R.R.R.R.R.R.R.R.R.R.R.R.R.R.R.R.R.R.R.R.R.R.R.R.R.R.R.R.R.R.R.R.R.R.R.R.R.R.E.R.R.R.",
"R.R.R.R.R.R.R.R.R.R.R.R.R.R.R.R.R.R.E.R.R.R.R.R.R.R.R.R.R.R.R.R.R.R.R.R.R.R.R.R.R.R.R.R.R.R.R.R.R.R.R.R.R.R.R.R.R.R.R.R.R.R.R.R.",
"R.R.R.R.R.E.R.R.R.R.R.R.R.R.R.R.R.R.R.R.R.R.R.R.R.R.R.R.R.R.R.R.R.R.R.R.R.R.R.R.R.R.R.E.R.R.R.R.R.R.E.R.R.R.R.R.R.R.R.R.R.R.R.R.",
"R.R.R.R.R.R.R.R.R.R.R.R.R.R.R.E.R.R.R.R.R.R.R.R.R.R.R.R.R.E.R.R.R.R.R.R.E.R.R.R.R.R.R.R.R.R.R.R.R.R.R.R.R.R.R.R.R.R.R.R.R.R.R.R.",
"R.R.R.R.R.R.R.R.R.R.R.R.R.R.R.R.R.R.R.R.R.R.R.R.R.R.R.R.R.R.R.R.R.R.R.R.R.R.R.R.R.R.R.R.R.R.R.R.R.R.R.R.R.R.R.R.R.E.R.R.R.R.R.R.",
"R.R.R.R.R.R.R.R.R.R.R.R.R.R.R.R.R.R.R.R.R.R.R.R.R.R.R.R.R.R.R.R.R.R.R.R.R.R.R.R.R.R.R.R.R.R.R.R.R.R.R.R.R.R.R.R.R.R.R.R.R.R.R.R.",
"R.R.R.R.R.R.R.R.R.R.R.R.R.R.R.R.R.R.R.R.R.R.R.R.R.E.R.R.R.R.R.R.R.R.R.R.R.R.R.R.E.R.R.R.R.R.R.E.R.R.R.R.R.R.R.R.R.R.R.R.R.R.R.R.",
"R.R.R.R.R.R.R.R.R.R.R.R.R.R.R.R.R.R.R.R.R.R.R.R.R.R.R.R.R.R.R.R.E.R.R.R.R.R.R.R.R.R.R.R.R.R.R.R.R.R.R.R.R.R.R.R.R.R.R.R.R.R.R.R.",
"R.R.R.R.R.R.R.R.R.R.E.R.R.R.R.R.R.R.R.R.R.R.R.R.R.R.R.R.R.R.R.R.R.R.R.R.R.R.R.R.R.R.R.R.R.R.R.R.R.R.R.R.E.R.R.R.R.R.R.R.R.E.R.R.",
"R.R.R.R.R.R.R.R.R.R.R.R.R.R.R.R.R.R.R.R.R.R.R.R.R.R.R.R.R.R.R.R.R.R.R.R.R.R.R.R.R.R.R.R.R.R.R.R.R.R.R.R.R.R.R.R.R.R.R.R.R.R.R.R.",
"R.R.R.R.R.R.R.R.R.R.R.R.R.R.R.R.R.R.R.R.R.R.R.R.R.R.R.R.R.R.R.R.R.R.R.R.R.E.R.R.R.R.R.R.R.R.R.R.R.R.R.R.R.R.R.R.R.R.R.R.R.R.R.R.",
"R.R.R.R.R.R.R.R.R.R.R.R.R.R.R.R.R.R.R.R.R.E.R.R.R.R.R.R.E.R.R.R.R.R.R.R.R.R.R.R.R.R.R.R.R.R.R.R.R.R.R.R.R.R.R.R.R.R.R.R.R.R.R.R.",
"R.R.R.R.R.R.R.R.R.R.R.R.R.R.R.K.D.U.R.R.R.R.R.R.R.R.R.R.R.R.R.R.R.R.R.R.R.R.R.R.R.R.R.R.R.R.R.R.R.R.R.R.R.R.R.R.R.E.R.R.R.R.R.R.",
"R.R.R.R.R.R.R.R.R.R.R.R.R.R.:.K.W.=.K.R.R.R.R.R.R.R.R.R.R.R.R.R.R.R.R.R.R.R.R.R.R.R.R.T.T.T.T.T.R.E.R.R.R.R.R.R.R.R.R.R.R.R.R.R.",
"R.R.R.R.R.R.R.E.R.R.T.K.J.K.B.].{.(.-.R.R.E.E.R.R.R.R.R.R.R.R.R.R.R.R.R.R.R.R.R.U.C.k.*.$.$.#.' R o.D.R.R.R.R.R.R.R.R.R.R.R.R.R.",
"R.R.R.R.R.R.R.R.R.U.B.R.E./ :.{.{.].=.G.l.=.K.E.R.R.R.R.R.R.R.R.R.R.R.R.R.R.U.B.*.z.F.I.I.I.I.I.b.U $ o.P.R.R.R.R.R.R.R.R.R.R.R.",
"R.R.R.R.R.R.R.R.R.C.U.{.{./.Y ).{._.Y =.!.~.@.L.R.R.R.R.R.R.R.R.R.R.R.R.R.U.:.x.F.I.I.I.I.I.I.I.I.I.j.V L K.R.R.R.R.R.R.R.R.R.R.",
"R.R.R.R.R.R.R.R.R.V.K.{.{.{.=.C.`.W.s.).{.{.!.:.R.R.R.R.R.R.R.R.R.R.R.R.U.k.n.I.I.I.I.I.I.I.I.I.I.I.I.b.V K G.R.R.R.R.R.R.R.R.R.",
"R.R.R.E.R.R.R.R.R.T.T Q.[.].:.# ( D /.[._.~.b.Z.R.R.R.R.R.R.R.R.R.R.R.T.l.n.I.I.I.I.I.I.I.I.I.I.I.I.I.I.b.B U P.R.R.R.R.R.E.R.R.",
"R.R.R.R.R.R.R.R.R.R.U.D $.F.t.i.p.0 X.O.D . F P.R.R.R.R.R.R.R.R.R.R.R.J.x.I.I.I.I.I.I.I.I.I.I.I.I.I.I.I.H. .A $.R.R.R.R.R.R.R.R.",
"R.R.R.R.R.R.R.R.R.L.-.F $ + u.a.a.t.o -.:.s.;.Y G.R.R.R.R.R.R.R.R.R.T.x.F.I.I.I.I.I.I.I.I.I.I.I.I.I.I.I.I.F.A U J.R.R.R.R.R.R.R.",
"R.R.R.R.R.R.R.R.G.| P.(._.s.t.a.p.q   Q.{.{.[.P.O.R.R.R.R.R.R.R.R.E.L.x.I.I.I.I.I.I.I.I.I.I.I.I.I.I.I.I.I.I.R S $.R.R.R.R.R.R.R.",
"R.R.R.R.R.R.R.R.] C.{.{.{.~.o 9 0 o + @ E J.D.X.C.R.R.K.-.R.R.R.R.R.C.M.I.I.I.I.I.I.I.I.I.I.I.I.I.I.I.I.I.I.g.A U T.W.R.R.R.R.R.",
"R.R.R.R.R.R.R.R.;.D !.(.^.X.$ E @ 4 /.^.B.  E K.T.R.C.^ u K.R.R.R.R.l.F.I.I.I.I.I.I.I.I.I.I.I.I.I.I.I.I.I.H.m.A I K.R.R.R.R.R.R.",
"R.R.R.R.R.R.R.R.R.:.T E L   K.[.Q.F '.{.{.R.O.R.E.G.^ r.e.B.R.R.R.Y.k.I.I.I.I.I.I.I.I.I.I.I.I.I.I.I.I.I.I.I.S.A K C.R.R.R.R.R.R.",
"R.R.R.R.R.E.R.R.R.R.R.T.K.Y (.{.).$ ~.{.{./.E T.U.^ r.d.^ D.R.R.R.Y.k.I.I.I.I.I.I.I.I.I.I.I.I.I.I.I.I.I.I.I.F.A I C.R.R.R.R.R.R.",
"R.R.R.R.R.R.R.R.R.R.R.R.D.:.[.{.~.$ Y ^.(.V.+ V.b.m d.y.^ U.R.R.R.Y.z.I.I.n.%.*.f.m.H.f.} g.g.{ ....m.I.I.I.N.S I C.R.R.R.R.R.R.",
"R.R.R.R.R.R.R.R.R.R.R.R.J.o.].].B.O.C.] X.F 8 D Y e.d.M :.R.R.R.R.Y.z.I.I.n.Z [ ` _ M.} C g.h.C  .I _ F.I.I.F.K I C.R.R.R.R.R.R.",
"R.R.R.R.R.R.R.R.R.R.R.R.T.T :.:.X.U.E.R.T.T./ 7   e.M @.Y.R.R.R.R.Y.x.I.I.M.S [ { Z j.%.C j.z.C ..` S n.I.I.N.K _ C.R.R.R.R.R.R.",
"E.R.R.R.R.R.R.R.R.R.R.R.R.U.B.V.U.R.R.R.R.R.v.M o 8 :.T.R.R.R.R.R.T.x.I.I.M.Z [ { _ M.f.C j.z.C } ` Z n.I.I.F.K I C.R.R.R.R.R.R.",
"R.R.R.R.R.R.R.R.R.R.R.R.R.R.R.E.R.R.R.R.R.R.P.( n V.R.R.R.R.R.R.R.T.x.I.I.M.J P _ g.I.%.C h.z.Z [ _ ` F.I.H.F.K I C.R.R.R.R.R.R.",
"R.R.R.R.R.R.R.E.R.R.R.R.R.R.R.R.R.R.R.R.R.R.E.R.A.;.R.R.R.R.R.R.R.Y.x.I.I.M.J [ { P N.%.C h.z.Z ` f.c.I.I.I.F.J I C.R.R.R.R.R.R.",
"R.R.R.R.R.R.R.R.R.R.R.R.R.R.R.R.R.R.R.R.R.R.R.R.R.-.=.U.R.R.R.R.R.T.x.I.I.M.S [ { Z c.f.C h.j.Z } I.I.I.I.I.F.K I C.R.R.R.R.R.R.",
"R.R.R.R.R.R.R.R.R.R.R.R.R.R.R.R.R.R.R.R.R.R.R.R.R.R.K.Y.R.R.R.R.R.T.x.I.I.c.P ` %.P h.} Z %.g.Z [ I.I.I.I.I.F.K U C.R.R.R.R.R.R.",
"R.R.E.R.R.R.R.R.R.R.E.R.R.R.R.R.R.R.R.R.R.R.R.R.R.R.R.R.R.R.R.R.E.Y.x.I.I.H.S.M.H.M.F.F.m.N.F.c.c.I.I.I.I.I.F.J I C.R.R.R.R.R.R.",
"R.R.R.R.R.R.R.R.R.R.R.R.R.R.R.R.R.R.E.R.R.R.R.R.R.R.R.R.R.R.R.R.E.Y.k.I.I.I.I.I.I.I.I.I.I.I.I.I.I.I.I.I.I.I.S.P I D.R.R.R.R.R.R.",
"R.R.R.R.R.R.R.R.R.R.R.R.R.R.R.R.R.R.R.R.R.R.R.R.R.R.R.R.R.R.R.R.E.Y.k.I.I.I.I.I.I.I.I.I.I.I.I.I.I.I.I.I.I.I.F.J I C.R.R.R.R.R.R.",
"R.R.R.R.R.R.R.R.R.R.R.R.R.R.R.R.R.R.R.R.R.R.R.R.R.R.R.R.R.R.R.R.E.Y.x.I.I.I.I.I.I.I.I.I.I.I.I.I.I.I.I.I.I.I.F.P I C.R.R.R.R.R.R.",
"R.R.R.R.R.E.R.R.R.R.R.R.R.R.R.R.R.R.R.R.R.R.R.R.R.R.R.R.R.R.R.R.E.Y.k.I.I.I.I.I.I.I.I.I.I.I.I.I.I.I.I.I.I.I.S.K I C.R.R.R.R.R.R.",
"R.R.R.R.R.R.R.R.R.R.R.R.R.R.R.R.R.R.R.R.R.R.R.E.R.R.R.R.R.R.R.R.E.Y.k.I.I.I.I.I.I.I.I.I.I.I.I.I.I.I.I.I.I.I.F.K I C.R.R.R.R.R.R.",
"R.R.R.R.R.R.R.R.R.R.R.R.R.R.R.R.R.R.R.R.R.R.R.R.R.R.R.R.R.R.R.R.E.Y.k.I.I.I.I.I.I.I.I.I.I.I.I.I.I.I.I.I.I.I.F.K I C.R.R.R.R.R.R.",
"R.R.R.R.R.R.R.R.R.R.R.R.E.R.R.R.R.R.R.R.R.R.R.R.R.R.R.R.R.R.R.R.E.Y.k.I.I.I.I.I.I.I.I.I.I.I.I.I.I.I.I.I.I.I.S.K I C.R.R.R.R.R.R.",
"R.R.R.R.R.R.R.R.R.R.R.R.R.R.R.R.R.R.E.R.R.R.R.R.R.R.R.R.R.R.R.R.E.Y.k.I.I.I.I.I.I.I.I.I.I.I.I.I.I.I.I.I.I.I.N.J I C.R.R.R.R.R.R.",
"R.R.R.R.R.R.R.R.R.R.R.R.R.R.R.R.R.R.R.R.R.R.R.R.R.R.R.R.R.R.R.R.E.Y.k.I.I.I.I.I.I.I.I.I.I.I.I.I.I.I.I.I.I.I.F.J I C.R.R.R.R.R.R.",
"R.R.R.E.R.R.R.R.E.R.R.R.R.R.R.R.R.R.R.R.R.R.R.R.R.R.R.R.R.R.R.R.E.Y.k.I.I.I.I.I.I.I.I.I.I.I.I.I.I.I.I.I.I.I.F.K I V.R.R.R.R.R.R.",
"R.R.R.R.R.R.R.R.R.R.R.R.R.R.R.R.R.R.R.R.R.R.R.R.R.R.T.P.K.Y.R.R.L.D.| #.| T | g.c.$.! T R g.I.I.I.I.I.I.I.I.N.S I C.R.R.R.R.R.R.",
"R.R.R.R.R.R.R.E.R.R.R.R.R.R.R.R.R.R.R.R.R.R.E.E.E.U.l.H u ! ;.E W c 6 > h 5.4.6 # h 5.6.,.i F c.I.I.I.I.I.I.F.K K C.R.R.R.R.R.R.",
"R.R.R.R.R.R.R.R.R.R.R.R.R.R.R.R.R.R.E.R.R.R.E.Y.G.) 1.2.w e g ; >.9.q.q.4.6.q.q.4.2.q.q.q.5.1 5 F x.I.I.I.I.F.S K C.R.R.R.R.R.R.",
"R.R.R.R.R.R.R.R.R.R.R.R.E.R.R.R.R.R.R.E.R.R.Y.Z.W 2.q.6.w j q.q.2.6.q.9.6 6 p q.q.q.q.q.q.,.5.9.5.y b.H.I.I.S.J I C.R.R.R.R.R.R.",
"R.R.R.R.R.R.R.R.R.R.R.R.R.R.R.R.R.R.Y.G.v.+.| 4 6 9.q.6.t j q.q.q.q.q.2.>.q.q.q.q.q.q.6.>.6.q.q.5.s r y *.H.F.J I C.R.R.R.R.R.R.",
"R.R.R.R.R.R.R.R.R.R.R.R.R.R.R.R.Y.v.) 7.4.9.9.6.2.3.q.q.j j q.q.q.q.q.q.q.q.q.q.q.q.q.9.1.& 5.q.4.5.q.9.3 #.F.S S C.R.R.R.R.R.R.",
"E.R.R.R.R.R.R.R.R.R.R.R.R.R.U.C.| k q.q.q.6.5.6.q.q.q.9.N N q.q.q.q.q.q.q.q.q.q.q.q.q.q.q.g = q.q.q.q.9.l , ' A I C.R.R.R.R.R.R.",
"R.R.R.R.R.R.R.R.R.R.R.R.T.B.T y < 6 <.q.q.2.d 1 6 q.q.6.e 2 2.q.q.q.q.q.q.q.q.q.q.q.q.q.q.q.2.q.9.9.3.v x z O . @ =.R.R.R.R.R.R.",
"R.R.R.R.R.R.R.T.U.P.L.K.=.b <.9.q.q.9.9.9.q.q.q.* 6 q.q.8.4.p 2.q.q.6.>.6 6 >.q.q.q.q.q.q.9.8.3.k c c c x > , 2 r y O.T.R.R.R.R.",
"R.R.R.R.R.R.D.~ G b 7.0.k - 9.q.q.6.6 6 6 4.q.q.q.6 q.q.q.q.9.5.q.q.q.6.9.2.= * 5.9.5.7.l v x x > > 2 x x z z c z x 2 :.R.R.R.R.",
"R.R.R.R.R.G.Q f 2.q.q.q.q.2.p q.q.: p q.q.q.q.q.q.q.q.q.q.q.q.q.q.q.9.8.0.4.1.6 O a x x x x x x 2 , X O z x x x x x a D L.E.R.R.",
"R.R.R.R.Z.w.9.,.q.q.q.9.q.q.9.q.q.9.q.q.q.q.9.q.9.9.6.8.5.3.1.1.k v 6 v c c 3 c z z x x x x x x x x r O > x a c x x x 2 &.R.R.R.",
"R.R.Y.C.W 2.,.5.<.<.,.,.>.>.>.g g g d d 6 d 6 3 3 3 3 3 3 3 3 3 3 3 3 3 3 3 3 3 3 3 3 3 3 3 3 3 3 3 3 2 2 2 2 1 r 2 r 2 % L.R.R.",
"R.R.L.V.v.v.;.&.+.=.=.&.&.&.&.=.&.+.=.&.&.&.&.&.;.&.&.&.&.&.&.&.&.&.&.&.*.&.&.&.&.&.&.&.$.&.&.&.&.&.&.$.&.&.&.&.&.$.&.&.=.K.R.R.",
"R.R.E.E.R.R.R.R.E.R.R.R.R.R.R.R.E.E.E.E.E.E.E.E.E.E.E.E.E.Y.E.E.E.E.E.E.E.E.E.E.R.R.E.R.R.R.R.R.R.R.E.E.R.R.R.R.R.R.R.R.E.E.R.R.",
"R.R.R.R.R.R.R.R.E.E.R.R.R.R.R.R.Y.E.E.E.E.E.E.E.E.E.E.Y.E.E.E.E.E.E.E.Y.E.E.E.E.R.R.R.R.R.R.R.R.R.R.E.R.R.R.R.R.R.R.R.R.R.R.R.R.",
"R.R.R.R.R.R.R.R.R.R.R.R.R.R.R.R.E.E.E.E.E.Y.Y.E.E.E.E.E.E.E.E.Y.E.E.E.E.E.E.Y.E.R.R.R.R.R.R.R.R.R.R.R.R.R.R.R.R.R.R.R.R.R.R.R.R."
};
