/* XPM */
static char *Open1C1721789025[] = {
/* columns rows colors chars-per-pixel */
"64 64 233 2 ",
"   c #0B0000",
".  c #170000",
"X  c #230000",
"o  c #2C0000",
"O  c #370000",
"+  c #293A33",
"@  c #460202",
"#  c #4B0202",
"$  c #5B0505",
"%  c #670404",
"&  c #770505",
"*  c #711818",
"=  c #7E191A",
"-  c #773D1D",
";  c #53342E",
":  c #563635",
">  c #723736",
",  c #757D08",
"<  c #5A462D",
"1  c #63452C",
"2  c #684B35",
"3  c #0F1A40",
"4  c #152752",
"5  c #162757",
"6  c #2E2F4E",
"7  c #182D65",
"8  c #1E336E",
"9  c #1D3776",
"0  c #2A3462",
"q  c #233B79",
"w  c #513B58",
"e  c #374F51",
"r  c #344F70",
"t  c #4D5851",
"y  c #72534A",
"u  c #7E5455",
"i  c #496559",
"p  c #536B5F",
"a  c #72624C",
"s  c #786654",
"d  c #544E72",
"f  c #734B6F",
"g  c #51706D",
"h  c #727270",
"j  c #880606",
"k  c #9B0807",
"l  c #950909",
"z  c #941317",
"x  c #A40909",
"c  c #AC0B0B",
"v  c #B71414",
"b  c #A12719",
"n  c #BB221D",
"m  c #8B382C",
"M  c #9D3020",
"N  c #C71617",
"B  c #D71212",
"V  c #C5221E",
"C  c #E61B23",
"Z  c #E21D21",
"A  c #EC1C24",
"S  c #CD2223",
"D  c #9B4A09",
"F  c #9C4D11",
"G  c #A25010",
"H  c #9A4C2A",
"J  c #99563A",
"K  c #A45332",
"L  c #A6683E",
"P  c #9A3D5F",
"I  c #C83B62",
"U  c #865455",
"Y  c #8C5051",
"T  c #935353",
"R  c #94525D",
"E  c #A56C46",
"W  c #89556C",
"Q  c #957272",
"!  c #A36A6E",
"~  c #A46D71",
"^  c #7C870A",
"/  c #7C8672",
"(  c #858B11",
")  c #8B9413",
"_  c #A69E1A",
"`  c #9BA41C",
"'  c #A6A71D",
"]  c #A5AC1E",
"[  c #B0AC1F",
"{  c #A09C30",
"}  c #A6AC21",
"|  c #A7AA25",
" . c #ABAD2C",
".. c #B7AC23",
"X. c #B4B429",
"o. c #BBBB2E",
"O. c #BCBB32",
"+. c #B8BA3A",
"@. c #FA9907",
"#. c #FA9D09",
"$. c #F09B14",
"%. c #F8A313",
"&. c #CFAA2D",
"*. c #C4B32C",
"=. c #D8B635",
"-. c #EFAB27",
";. c #EBAA35",
":. c #F5AA36",
">. c #F9AB33",
",. c #E7BA3C",
"<. c #F8B53C",
"1. c #FBC238",
"2. c #929257",
"3. c #BB994D",
"4. c #AFAF4B",
"5. c #88916F",
"6. c #AF916E",
"7. c #DE9E4B",
"8. c #D2B849",
"9. c #DAB359",
"0. c #EAA943",
"q. c #F5BB43",
"w. c #FCBB43",
"e. c #E4B95B",
"r. c #D1B470",
"t. c #E3BA67",
"y. c #B2C353",
"u. c #AEC86F",
"i. c #F7C948",
"p. c #F3CA57",
"a. c #E1C474",
"s. c #1E3E87",
"d. c #233E83",
"f. c #1F4290",
"g. c #28448A",
"h. c #224493",
"j. c #2B4A98",
"k. c #374F90",
"l. c #35549B",
"z. c #264DA6",
"x. c #3556A7",
"c. c #2B57BB",
"v. c #365BB6",
"b. c #3A5EB5",
"n. c #3E61B7",
"m. c #3D63BD",
"M. c #4A508C",
"N. c #6D578F",
"B. c #586A9E",
"V. c #717594",
"C. c #4D5EAD",
"Z. c #665DA7",
"A. c #4364BE",
"S. c #4968BB",
"D. c #536BB6",
"F. c #5270B3",
"G. c #5974BB",
"H. c #6161A6",
"J. c #677AAD",
"K. c #3F65C1",
"L. c #4166C0",
"P. c #4A6FC0",
"I. c #925697",
"U. c #8A7B8F",
"Y. c #78858F",
"T. c #6987AB",
"R. c #7887A6",
"E. c #6A95AE",
"W. c #7A88B5",
"Q. c #6B99B4",
"!. c #7491B1",
"~. c #71A1B4",
"^. c #75A9B9",
"/. c #5785C3",
"(. c #679AC4",
"). c #77AEC7",
"_. c #888686",
"`. c #8D8B8A",
"'. c #878897",
"]. c #8E8F90",
"[. c #999195",
"{. c #969598",
"}. c #9B9A9E",
"|. c #A38381",
" X c #B5AA95",
".X c #8A97A8",
"XX c #8994AE",
"oX c #9D9CA4",
"OX c #979AA8",
"+X c #828EB3",
"@X c #9BA4AA",
"#X c #98AAAE",
"$X c #A3A2A6",
"%X c #A8A5A7",
"&X c #A7A6AB",
"*X c #A9A7A9",
"=X c #AAAAA9",
"-X c #B4B2B0",
";X c #C8B28F",
":X c #D0B7AC",
">X c #B6D18D",
",X c #A9D8AF",
"<X c #B2DAAD",
"1X c #A8D8B5",
"2X c #C9D195",
"3X c #83BBC4",
"4X c #8BC7C8",
"5X c #93CFD0",
"6X c #97DAD4",
"7X c #A4DDC7",
"8X c #A1D5D8",
"9X c #9EE0CA",
"0X c #9AE1D7",
"qX c #96E2D8",
"wX c #9AE1D8",
"eX c #B1E6C8",
"rX c #A3E4DB",
"tX c #A8E4DB",
"yX c #B3E8DC",
"uX c #A8E7E0",
"iX c #ACE9E1",
"pX c #B3ECE4",
"aX c #BAEAE3",
"sX c #D7D2D0",
"dX c #F0E6DE",
"fX c #C6EDE8",
"gX c #CCF1EC",
"hX c #D3F1ED",
"jX c #DBF4F1",
"kX c #E9E8E8",
"lX c #E5F5F3",
"zX c #E9F4F2",
"xX c #F7F6F6",
/* pixels */
"&X&X&X&X&X&X&X&X&X&X&X&X&X&X&X&X&X&X&X&X&X&X&X&X&X&X&X&X&X&X&X&X&X&X&X&X&X&X&X&X&X&X&X&X&X&X&X&X&X&X&X&X&X&X&X&X&X&X&X&X&X&X&X&X",
"&X&X&X&X&X&X&X&X&X&X&X&X&X&X&X&X&X&X&X&X&X&X&X&X&X&X&X&X&X&X&X&X&X&X&X&X&X&X&X&X&X&X&X&XJ.@X&X&X&X&X&X&X&X&X&X&X&X&X&X&X&X&X&X&X",
"&X&X&X&X&X&X&X&X&X&X&X&X*X&X&X&X&X&X&X&X&X&X&X&X&X&X&X&X&X&X&X&X&X&X&X&X&X&X&X&X&X&X+XP.P.&X&X&X&X&X&X&X&X&X&X&X&X&X&X&X&X&X&X&X",
"&X&X&X&X&X&X&X&X&X&X&X&X&X&X&X&X&X&X&X&X&X&X&X&X&X&X&X&X&X&X&X&X&X&X&X&X&X&X&X&XXXJ.L.K.P.&X&X&X&X&X&X&X&X&X&X&X&X&X&X&X&X&X&X&X",
"&X&X&X&X&X&X&X&X&X&X&X&X&X&X&X&X&X&X&X&X&X&X&X*X&X=X&X&X&X&X&X&X&X&X&X&X&X@XOXJ.L.L.K.K.P.$X&X&X&X&X&X&X&X&X&X&X&X&X&X&X&X&X&X&X",
"&X&X&X@XoX@X%X%X&X&X&X&X&X&X&X*X&X&X&X&X&X&X&X&X&X&X&X&X&X&X&X&X&X&X&X&X@XW.P.L.K.K.K.L.G.$X&X%X&X&X&X&X&X&X&X&X&X&X&X&X&X&X&X&X",
"&X&XOXB.B.J.R.R.R.'.{..XOXOX$X&X&X&X&X*X&X&X%X&X&X&X&X&X&X&X&X&X&X&X&X(.P.L.L.L.K.K.K.K.J.[.[.[.OX[.[.[.[.[.[.[.[.[.[.[.[.OX&X&X",
"&X&XoXM.T.4X4X3X3XQ.E.E.E.!.~.T.T.V.R.V.+X.X.XOXOX@XoX$X&X&X&X&X&X+XP.L.L.K.K.K.K.K.K.K.Z.x k k x x k k k k k k k k k x j : &X&X",
"&X&X&XB.4XwXwXwX6XwX0X6X0XqX6X5X5X4X3X^.^.Q.E.T.F.T.J.T.T.J.R.!.G.A.K.K.K.K.K.A.s.d.A.L.N.% $ & # % % @ & % j l l j j % c : &X&X",
"&X*X$XB.4XqX0X0XwX6X0X6X0X0XqXqX0XwXqXqX0XqX6X0X6X6X4X4X4X3XE.n.L.K.K.K.K.K.A.9 3 d.K.L.I.& # B % v j o N & x v C v c $ x : &X&X",
"&X&X@XB.#XqX0X0XwX0X7X6X0X0X0XqX0X0XwX0XqX0XqX0XqX9XrXrX0X0X^.n.K.K.K.K.K.x.5 3 : M.K.K.d o . k B N O . N $ . O N # . o k : &X&X",
"&X&X@XV.4XqXwXwX<Xr.9.>X7X0X0X0XqX0X0X0X0X0X0XtXyXfXhXhXaXrX~.n.K.K.A.d.C.0 0 M.z f A.A.P j . # A l . X N $   o N # . X x : &X&X",
"&X&X&XV.4X6XwX7X7.$.@.$.>X7X6XwX0X0X0X0X0X0XrXhXjXlXlXlXlXaX^.m.C.M.4 6 P - y f M m C.A.6 o . l B N o . n $   o N #   X x : $X&X",
"&X&X&XR.3XwXwX<X&.@.@.@.9.7XwX0X0XwX0XwX0X0X0XtXfXgXgXaXtXtX~.m.f m w - D D F H F H C.A.6   # N & B j o N $   o N @   X x : &X&X",
"&X&X&XR.3X6X6X1X;.@.@.$.r.7X0X0X0X0X0X0X0XwX0X0X0XrX0X0XwX0XE.A.P H J F L 6.;X:XT U L.A.; o x c X % B # v %   o N #   X x : &X&X",
"&X&X&XXX).6XrX8Xu.7.-.8.<X0XwX0X0X0X0XqXqX0X0X0X0XwX0XqXwXwXQ.N.H E ;XsXdXxXxXxXE T A.Z.n l v #   . c j v $   X v @   X x : &X&X",
"&X&X&X.XQ.qX0X0X9X1X<X7X7X0XwXwX0X0X0X0X0X0X6XwX0XqX0XqX0X0X).N.D ;XxXkXsX-XoXxXE J A.H.z j j & & & & j j & & & j & * & c : &X&X",
"&X&X&X.XE.qX0X0X0X0XwXwX0XwX0X0XqXqX0X0X0X0X0XqX0XwX0X0X0X0X).H.J :XkX-XzXsX*XxXL R A.H.> = z = = = * z * z = = * z = = * : &X&X",
"&X&X&X@X~.0X0X0X0X0X0X0XwX0X0XwX0X0X6X0XwX6XwX0X0X0X0X0X0X0X(.H.K :X=X=XsX&X-XkXT N.m.J.&X&X&X&X&X&X&X&X&X&X&X=X=X&X&X&X&X&X&X&X",
"&X&X&X@X~.qX0X0X0X0X0XqX0X0X0X0X0XrXrXrXyXaXaXyXtX0X0X0XwX0X(.H.G :X}.}.h sXkXdXL u A.W.&X&X&X&X&X&X&X&X&X&X&X&X&X&X&X&X&X&X&X&X",
"&X&X=X#XQ.6XqX0X0X0X0XqXrXyXaXfXfXgXhXjXlXlXlXlXjXgXaX8XqXqX(.H.G :XxXxXkXkXxXsXT R A.W.&X&X&X&X&X&X&X&X&X&X&X&X&X&X&X&X&X&X&X&X",
"&X=X=X@XE.9X0XqX0X0X0XtXhXlXlXlXzXzXzXzXzXlXzXlXzXlXjXfX0X6XQ.C.J :XxXxXsX:X~ L T H.A.XX&X&X&X&X&X&X&X&X&X&X&X&X&X&X&X&X&X&X&X&X",
"&X&X&X#XQ.qX0X0X0X0XqXrXgXlXlXzXzXzXzXzXzXzXlXlXzXlXzXlXaX6X(.H.H Q |.E K D K H R A.A.XX&X&X&X&X&X&X&X&X&X&X&X&X&X&X&X&X&X&X&X&X",
"&X&X=X=XQ.6X0X0X0X0XqXqXrXaXhXlXzXzXlXlXlXjXhXfXaXfXhXjXaX0X(.f G M H G G m N.f M.L.P.OX&X&X&X&X&X&X&X&X&X&X&X&X&X&X&X&X&X&X&X&X",
"&X&X&X@XQ.9XqX0X0X0X0X0X0X0XrXtXyXyXaXyXyXtXrX0X0XrX0XtXqX6X/.H.R H f f N.M.v.8 x.L.A.Y.%X&X&X&X&X&X&X&X&X&X&X&X&X&X&X&X&X&X&X&X",
"&X&X&X$XT.5XqX0X0X0X0XwXqXwX0X0X0X0X0X6X0XwX6XwXwXwX0X6XqX5XF.K.N.f d.x.x.d.c.9 v.L.C.V.$X%X$X%X$X$X$XoX@X&X%X$X&X&X&X&X&X&X&X&X",
"&X&X&X&XT.5XqXqX0X0XqX0X0XqXwXqXqXqXqX0X0X0XwX0X0X0X0X0XqX5XP.L.A.j.d.x.x.9 z.9 b.L.A.u s U a y y a a a a s a s a s s {.&X&X&X&X",
"&X&X&X$X!.6XrXuXrXrXrXwXwXwXqXwX0X0X0XqX0X0XqX0X0X0X0X0XqX6XP.K.x.d.j.L.m.j.z.9 b.K.Z.S S S S S N n n n V n V V S n : }.&X&X&X&X",
"&X&X&X&X!.8XpXpXiXpXiXiXiXiXiXtXtXtXqX0X0XqXwXqX0X0XqXwXqX5XP.K.x.d.A.L.K.v.s.d.K.K.I.A A A A A A A A A A A A A Z z s &X&X&X&X&X",
"&X&X&X&XR.6XiXiXuXtXtXtXrXwXrXwXwXqXqXqX0X0XrXwXrXtXuXuXwX5XP.K.b.x.A.j.b.K.j.d.A.K.I.A A A A A A A A A A A A A N ; '.&X&X&X&X&X",
"&X&X&X&XXX4XqXqXqX0X0X0XwXwXqXwX0XqX0XrXtXiXpXpXpXpXpXpXpX8XP.K.K.K.j.4 j.K.A.j.A.K.I A A A A A A A A A A A A A b y %X&X&X&X&X&X",
"&X&X&X&XXX3XqXqXqXwX0X0XwXwXwXwXrXtXiXpXpXaXpXpXpXpXpXpXpX6XP.L.K.b.7 4 q K.L.A.A.D.I.A A A A A A A A A A A A Z b y oX&X&X&X&X*X",
"%X%X@X=X~.^.qX9X,X1X1X9XqXqXuXiXpXpXpXpXpXpXpXpXpXpXpXpXpX5XS.K.A.d.5 s.7 v.m.m.K.L.I A A A A A A A A A A A A A S - / &X&X&X&X&X",
"&X=X=X=X~.E.9X,Xy.u.u.eXiXiXpXpXaXpXpXpXpXpXpXaXpXpXpXaXpX5XL.K.x.5 9 c.s.h.x.k.M.M.I A A A A A A A A A A A A A A b 2 }.&X&X&X&X",
"&X&X X#X{.~.>X>Xy.u.u.yXeXeX<X2X2X2X>X>X>X<X<X<XeXeXaXyXaX4XL.n.7 5 z.c.z.8 g.i i r I C A C C C A A C A C C A A A C m h &X&X&X&X",
"&X&X#X X#X~.u.<Xu.u.y.u.y.+.8.q.i.O.+.O.O.O.O.y.+.y.y.u.>X#XK.v.8 d.c.c.c.q 7 i g k.P J ! ! ! ! ! ~ Q ~ ~ ~ ~ ~ ~ ! Q Q &X&X&X&X",
"&X&X&X&X#X].u.y.y.+.+.o.o.O.1.q.,.o.o.O.*.O.o.o.o.O.O.O.+.5.P.K.l.h.c.c.c.q e e g l.p h $X&X&X&X$X&X&X&X&X&X&X&X&X&X&X&X&X&X&X&X",
"&X&X&X&X}.Y.o.o.X.X.] X.O.*.q.q.i.o.O.o.o.o.O.O.O.O.O.*.+.5.K.K.b.j.z.c.z.r i i i k.g h oX&X&X&X&X&X&X&X&X&X&X&X&X&X&X&X&X&X&X&X",
"&X&X&X&X$X/ +.o.+.} ^ X.o.X.=.<.1.=.X.X.X.o.o.o.o.o.o.O.o.].m.m.m.x.h.z.8 e t t i j.i p oX&X&X&X&X&X&X&X&X&X&X&X&X&X&X&X&X&X&X&X",
"&X&X&X&X=XY.+.o.o.` ^ ` } } ..i.w.,.*.] ] ] X.| ) o.O.o.o.].m.j.x.b.9 q x.4 + i g l.V.h $X&X&X&X&X&X&X&X&X&X&X&X&X&X&X&X&X&X&X&X",
"&X&X&X&X%X/ 4.o.X.) ( ) ] ] ..,.<.w.,.[ ] ] ] ( , ] o.o.o.`.K.g.q m.x.n.K.l.8 p g F.Y.oX&X&X&X&X&X&X&X&X&X&X&X&X&X&X&X&X&X&X&X&X",
"&X&X&X&X=XY.4. .] ` ` ] ] [ =.<.w.w.,.X.] ] ] ^ , ` } X.o.].K.g.4 b.m.m.x.8 r e g F.}.{.&X&X&X&X&X&X&X&X&X&X*X&X&X&X&X%X&X&X&X&X",
"&X&X&X&X=XR.2.} ] ] ] ] [ =.<.w.w.w.,.[ } ] ` ^ , ( ] [ X.Y.K.j.7 g.m.n.7 5 e p g C.t h %X&X*X*X&X&X&X&X&X&X%X%X&X&X&X%X&X&X&X&X",
"&X&X&X&X=XY.5.] ] ] ] X.,.<.i.w.w.w.,.[ } ] ^ , ^ ^ ` ] } Y.K.j.9 8 b.9 4 7 f.r r B.; a [.].`.`._.`.`.`.`.`.`.`.`.].[.@X&X&X&X&X",
"&X&X&X&X%X'.2.} ] ] *.,.w.w.w.w.<.i.*.] } ` ( , , ( ` ] | V.m.j.h.9 j.5 s.7 m.n.j.H.2 1 2 2 1 1 ; 1 1 1 2 < 1 1 ; 1 < U.&X&X&X&X",
"&X&X&X&X&X].5.} ]  .;.q.w.w.w.w.w.=.[ ] } ] ) ) ( ) ) ] | J.m.d.h.q l.s.h.7 m.K.m.H.T T T T T T T T Y Y T T T T T y < oX&X*X&X&X",
"&X=X&X&X#X]./ } } *.w.w.w.w.w.w.w.*.] ] ] } | ` ' ` ] } { J.K.d.h.q z.h.f.8 m.K.K.H.T T T T T T T T T T T T T T T ; h $X&X&X&X&X",
"&X&X=X=X=X@X/ } } =.w.w.w.w.w.w.w...] } ] } } } } ] } } { J.K.d.f.q l.z.f.9 m.K.K.N.T T T T T T T T T T T T T T 2 ; {.&X&X&X&X&X",
"&X&X&X&X&XOX/ } } =.w.w.w.w.w.w.q.*.| ] ] ] ] ] ] ] ] ] { J.K.8 d.q d.z.s.9 K.K.D.N.T T T T T T T T T T T T T T 2 y oX&X&X&X&X&X",
"&X&X&X&X&X}.Y.] } X.q.w.w.w.w.w.w.,...[ ] | ' ' } ] ] } 4.G.K.j.8 d.s.z.s.d.K.K.A.N.T T T T T T T T T T T T T T 2 < 5.*X&X&X&X&X",
"&X&X&X&X&X}.V.| ] ..<.<.<.<.<.<.:.>.;.&.' _ ' ' ] ] ] ] 2.J.K.K.A.b.d.d.8 d.K.K.A.W T T T T T T T T T T T T T T T 1 y $X&X&X&X&X",
"&X&X&X&X=X@XY.| ' &.>.>.>.>.>.>.>.>.>.>.&._ _ _ ' ' ] ] 4.G.K.K.K.A.b.v.d.d.K.K.L.W T R T T T T T T T T T T T T T Y < h &X&X&X&X",
"&X&X&X&X&X&X_.{ &.:.>.>.>.>.>.>.0.>.>.>.;.;.&._ _ _ ' ] 6.F.K.K.K.K.K.K.K.m.K.K.S.W Y y U u u U U U u u u u U u u u y s &X&X&X&X",
"&X&X&X&X&X@XV.3.;.:.>.>.>.:.:.0.0.0.0.7.7.7.7.3.2.2.h 5._.F.L.K.K.K.K.K.K.K.K.K.S.U : y {.OXoX{.}.}.}.}.}.oX}.}.oXOX{.$X&X&X&X&X",
"=X&X&X&X&X%XV.V.Q U.U.~ U.U.U.U.V.U.V.U.U.U.'.U.U.'.'.OX@XOXW.G.L.L.K.K.K.K.L.L.G.h : h &X&X&X&X*X&X*X&X&X&X&X&X$X&X&X&X&X&X&X&X",
"&X&X&X&X&X&X}.'.{.}.oX$X XOX$XOX$X$X&X$X&X@X&X%X%X&X%X&X&X&X&X@X+XP.L.K.K.K.K.L.J.@X{.&X&X&X&X&X*X%X&X&X&X&X&X&X&X&X&X&X&X&X&X&X",
"&X&X&X&X&X&X&X&X&X&X=X=X=X=X=X=X*X*X=X=X=X=X=X%X=X&X%X%X&X=X*X*X&XOX(.D.A.L.K.K.J.&X&X&X&X&X&X&X&X&X&X&X&X&X&X&X&X&X&X&X&X&X&X&X",
"&X&X&X&X&X&X&X&X&X&X X;X;X;Xa.t.e.e.e.e.p.e.t.t.t.t.t.2X;X X=X-X&X&X&X&X+XG.L.K.W.&X&X&X&X&X&X&X&X&X&X&X&X&X&X&X&X&X&X&X&X&X&X&X",
"&X&X&X&X&X&X&X=X;X;Xp.<.-.%.#.#.#.#.#.#.@.@.@.#.#.%.%.%.<.i.t.;X-X&X&X&X&XOX+XG.+X&X&X&X&X&X&X&X&X&X&X&X&X&X&X&X&X&X&X&X&X&X&X&X",
"&X&X&X&X&X&X&X;Xp.i.-.%.#.#.@.#.#.@.#.#.@.@.@.@.@.#.#.%.%.1.i.i.;X&X&X&X&X&X&X&X&X&X&X&X&X&X&X&X&X&X&X&X&X&X&X&X&X&X&X&X&X&X&X&X",
"&X&X&X&X&X&X&Xr.q.q.i.1.1.1.1.1.1.1.1.<.1.<.1.1.1.<.1.1.w.w.i.e.;X&X&X&X&X&X&X&X&X&X&X&X&X&X&X&X&X&X&X&X&X&X&X&X&X&X*X&X&X&X&X&X",
"&X&X&X&X&X&X&X%X X;Xr.r.9.e.9.e.e.9.e.9.e.e.e.9.e.t.r.r.r.;X X%X&X&X&X&X&X&X&X&X&X&X&X&X&X&X&X&X&X&X-X&X&X&X&X&X&X&X&X&X&X&X&X&X",
"&X&X&X&X&X&X&X&X&X&X&X&X%X%X&X&X%X%X%X%X%X%X%X&X%X&X&X&X&X&X&X&X&X&X&X&X&X&X&X&X&X&X&X&X&X&X&X&X&X&X&X&X&X&X&X&X&X&X&X&X&X&X&X*X",
"&X&X=X&X&X&X&X&X&X&X&X&X&X&X&X&X&X&X&X&X%X%X&X&X&X&X&X&X&X&X&X&X&X&X&X&X&X&X&X&X&X&X&X&X&X&X&X&X&X&X&X&X&X&X&X&X&X&X&X&X&X&X&X&X"
};
