/* XPM */
static char *B01721604124[] = {
/* columns rows colors chars-per-pixel */
"64 64 187 2 ",
"   c #79553F",
".  c #353849",
"X  c #3C4152",
"o  c #424149",
"O  c #464C5D",
"+  c #494D5E",
"@  c #595558",
"#  c #5A5659",
"$  c #5D5B5D",
"%  c #7E5A43",
"&  c #605F5F",
"*  c #494E61",
"=  c #4D5363",
"-  c #525563",
";  c #555963",
":  c #5D5E63",
">  c #515769",
",  c #545A69",
"<  c #5A5F6B",
"1  c #585F70",
"2  c #5C6374",
"3  c #5E6778",
"4  c #5F687A",
"5  c #646366",
"6  c #6F6963",
"7  c #65666B",
"8  c #6B6C6D",
"9  c #726A62",
"0  c #7D6F63",
"q  c #7A7466",
"w  c #777368",
"e  c #676A73",
"r  c #61697A",
"t  c #6F7173",
"y  c #757678",
"u  c #82573F",
"i  c #865A40",
"p  c #89684B",
"a  c #916B4C",
"s  c #9A714F",
"d  c #866B54",
"f  c #86735F",
"g  c #947456",
"h  c #9B7553",
"j  c #9E7856",
"k  c #937559",
"l  c #997758",
"z  c #977859",
"x  c #9C7C5C",
"c  c #A47C56",
"v  c #AB7D55",
"b  c #A47E59",
"n  c #B47D52",
"m  c #847867",
"M  c #967F61",
"N  c #8C7D7A",
"B  c #AC865E",
"V  c #B58055",
"C  c #B3875C",
"Z  c #BA8559",
"A  c #BD8C5D",
"S  c #9D8365",
"D  c #97856B",
"F  c #898375",
"G  c #928672",
"H  c #99867F",
"J  c #978978",
"K  c #9F947B",
"L  c #9E957B",
"P  c #A48461",
"I  c #A98562",
"U  c #AC8A64",
"Y  c #A78D6B",
"T  c #AA8E6A",
"R  c #BA8D60",
"E  c #B89367",
"W  c #A48F70",
"Q  c #A59878",
"!  c #B99B73",
"~  c #C49563",
"^  c #C69C6B",
"/  c #CA9C68",
"(  c #CAA26D",
")  c #C3A877",
"_  c #CEAE77",
"`  c #C3A878",
"'  c #D4AD73",
"]  c #D8AF73",
"[  c #D7B176",
"{  c #DAB275",
"}  c #D7B67C",
"|  c #DEBA7C",
" . c #E1BE7E",
".. c #656F81",
"X. c #677183",
"o. c #697384",
"O. c #6B7688",
"+. c #6E798B",
"@. c #727985",
"#. c #717C8E",
"$. c #747F92",
"%. c #758295",
"&. c #788599",
"*. c #7D8A9C",
"=. c #9B8780",
"-. c #858C94",
";. c #828E9D",
":. c #A19B81",
">. c #AD9C84",
",. c #AF9E88",
"<. c #A89F95",
"1. c #AAA28D",
"2. c #B6A689",
"3. c #B3A48C",
"4. c #B2A893",
"5. c #B1AC9F",
"6. c #808EA0",
"7. c #8593A4",
"8. c #8B97A5",
"9. c #8796A8",
"0. c #8897A9",
"q. c #8C9CAD",
"w. c #8F9EB0",
"e. c #93A3B4",
"r. c #96A7B8",
"t. c #97A8B8",
"y. c #9BACBC",
"u. c #9EB0BF",
"i. c #A5A3A4",
"p. c #AAA7A6",
"a. c #ACA9A4",
"s. c #A7A6AB",
"d. c #A9A7A8",
"f. c #A9A8AA",
"g. c #B3AEA1",
"h. c #B5B1A6",
"j. c #BCB5A7",
"k. c #BDB6A9",
"l. c #A0B1BF",
"z. c #C1AC85",
"x. c #CCAE85",
"c. c #D2B682",
"v. c #D3BA84",
"b. c #DBBE84",
"n. c #D6BF8B",
"m. c #C5BB9A",
"M. c #C1BCA2",
"N. c #CEC08E",
"B. c #D8C28C",
"V. c #DDCB94",
"C. c #DCC897",
"Z. c #DED096",
"A. c #E3C383",
"S. c #E7CC8D",
"D. c #EBD08F",
"F. c #E3CC93",
"G. c #E6CE97",
"H. c #EAD394",
"J. c #E3D39B",
"K. c #EAD69A",
"L. c #EFDA99",
"P. c #F1DD9E",
"I. c #F4E19E",
"U. c #C6C3AA",
"Y. c #DED5BB",
"T. c #E6DBA6",
"R. c #EADCA4",
"E. c #F5E3A2",
"W. c #F9E9A6",
"Q. c #F6E6AC",
"!. c #F7E8A8",
"~. c #FBEDAB",
"^. c #EBE0B4",
"/. c #EDE1BC",
"(. c #FAEEB4",
"). c #F7EBBA",
"_. c #FCF1BB",
"`. c #9FB1C0",
"'. c #A0B1C0",
"]. c #ECE3C0",
"[. c #F3E8C5",
"{. c #FAF2CB",
"}. c #EAE8D7",
"|. c #FAF4D7",
" X c #FBF6DD",
".X c #F6F4E7",
"XX c #FBF9EA",
/* pixels */
"s.s.s.s.s.s.s.s.s.s.s.s.s.s.s.s.s.s.s.s.s.s.s.s.s.s.s.s.s.s.s.s.s.s.s.s.s.s.s.s.s.s.s.s.s.s.s.s.s.s.s.s.s.s.s.s.s.s.s.s.s.s.s.s.",
"s.s.s.s.s.s.s.s.s.s.s.s.s.s.s.s.s.s.s.s.s.s.s.s.s.s.s.s.s.s.s.s.s.s.s.s.s.s.s.s.s.s.s.s.f.f.s.s.s.s.s.s.s.s.s.s.s.s.s.s.s.s.s.s.",
"s.s.s.s.s.s.s.s.s.s.s.s.s.s.s.s.s.s.s.s.s.s.s.s.s.s.s.s.s.s.s.s.s.s.s.s.s.s.s.s.s.s.s.s.f.s.s.s.s.s.s.s.s.s.s.s.s.s.s.s.s.s.s.s.",
"s.s.s.s.s.s.s.s.s.s.s.s.s.s.s.s.s.s.s.s.s.s.s.s.s.s.s.s.s.s.s.s.s.s.s.s.s.s.s.s.s.s.s.s.s.s.s.s.s.s.s.s.s.s.s.s.s.s.s.s.s.s.s.s.",
"s.s.s.s.s.s.s.s.s.s.s.s.s.s.s.s.s.s.s.s.s.s.s.s.s.s.s.s.s.s.s.s.s.s.s.s.s.s.s.s.s.s.s.s.s.s.s.s.s.s.s.s.s.s.s.s.s.s.s.s.s.s.s.s.",
"s.s.s.s.s.s.s.s.s.s.s.s.s.s.s.s.s.s.s.s.s.s.s.s.s.s.s.s.s.s.s.s.s.s.s.s.s.s.s.s.s.s.s.s.s.s.s.s.s.s.s.s.s.s.s.s.s.s.s.s.s.s.s.s.",
"s.s.s.s.s.s.s.s.s.s.s.s.s.s.s.s.s.s.s.s.s.s.s.s.s.s.s.s.s.s.s.s.s.s.s.s.s.s.s.s.s.s.s.s.s.s.s.s.s.s.s.s.s.s.s.s.s.f.s.s.s.s.s.s.",
"s.s.s.s.s.s.s.s.s.s.s.s.s.s.s.s.s.s.s.s.s.s.s.s.s.s.s.s.s.s.s.s.s.s.s.s.s.s.s.s.s.s.s.s.s.s.s.s.s.s.s.s.s.s.s.s.s.s.s.s.s.s.s.s.",
"s.s.s.s.s.s.s.s.s.s.s.s.s.s.s.s.s.s.s.s.s.s.s.s.s.s.s.s.s.s.s.s.s.s.s.s.s.s.s.s.s.s.s.s.s.s.s.s.s.s.s.s.s.s.s.s.s.s.s.s.s.s.s.s.",
"s.s.s.s.s.s.s.s.s.s.s.s.s.s.s.s.s.s.s.s.s.s.s.s.s.s.s.s.s.s.s.s.s.s.s.s.s.s.s.s.s.s.s.s.s.s.s.s.s.s.s.s.s.s.s.s.s.s.s.s.s.s.s.s.",
"s.s.s.s.s.s.s.s.s.s.s.s.s.s.s.s.s.s.s.s.s.s.s.s.s.s.s.s.s.s.s.s.s.s.s.s.s.s.s.s.s.s.s.s.s.s.s.s.s.s.s.s.s.s.s.s.s.s.s.s.s.s.s.s.",
"s.s.s.s.s.s.s.s.s.s.s.s.s.s.s.s.s.s.s.s.s.s.s.s.s.s.s.s.s.s.s.s.s.s.s.s.s.s.s.s.s.s.s.s.s.s.s.s.s.s.s.s.s.s.s.s.s.s.s.s.s.s.s.s.",
"s.s.s.s.s.s.s.s.s.s.s.s.s.s.s.s.s.s.s.s.s.s.s.s.s.s.s.s.s.s.s.s.s.s.s.s.s.s.s.s.s.s.s.s.s.s.s.s.s.s.s.s.s.s.s.s.s.s.s.s.s.s.s.s.",
"s.s.s.s.s.s.s.s.s.s.s.s.s.s.s.s.s.s.s.s.s.s.s.s.s.s.s.s.s.s.s.s.s.s.s.s.s.s.s.s.s.s.s.s.s.s.s.s.s.s.s.s.s.s.s.s.s.s.s.s.s.s.s.s.",
"s.s.s.s.s.s.s.s.s.s.s.s.s.s.s.s.s.s.s.s.s.s.s.s.s.s.s.s.s.s.s.s.s.s.s.s.s.s.s.s.s.s.s.s.s.s.s.s.s.s.s.s.s.s.s.s.s.s.s.s.s.s.s.s.",
"s.s.s.s.s.s.s.s.s.s.s.s.s.s.s.s.s.s.s.s.s.s.s.s.s.s.s.s.s.s.s.s.s.s.s.s.s.s.s.s.s.s.s.s.s.s.s.s.s.s.s.s.s.s.s.s.s.s.s.s.s.s.s.s.",
"s.s.s.s.s.s.s.s.s.s.s.s.s.s.s.s.s.s.s.s.s.s.s.s.s.s.s.s.s.s.s.s.s.s.s.s.s.s.s.s.s.s.s.s.s.s.s.s.s.s.s.s.s.s.s.s.s.s.s.s.s.s.s.s.",
"s.s.s.s.s.s.s.s.s.s.s.s.s.s.s.s.s.s.s.s.s.s.s.s.s.s.s.s.s.s.s.s.s.s.s.s.s.s.s.s.s.s.s.s.s.s.s.s.s.s.s.s.s.s.s.s.s.s.s.s.s.s.s.s.",
"s.s.s.s.s.s.s.s.s.s.s.s.s.s.s.s.s.s.s.s.s.s.s.s.s.s.s.s.s.s.s.s.s.s.s.s.s.s.s.s.s.s.s.s.s.s.s.s.s.s.s.s.s.s.s.s.s.s.s.s.s.s.s.s.",
"s.s.s.s.s.s.s.s.s.s.s.s.s.s.s.s.s.s.s.s.s.s.s.s.s.s.s.s.s.s.s.s.s.s.s.s.s.s.s.s.s.s.s.s.s.s.s.s.s.s.s.s.s.s.s.s.s.s.s.s.s.s.s.s.",
"s.s.s.s.s.s.s.s.s.s.s.s.s.s.s.s.s.s.s.s.s.s.s.s.s.s.s.s.s.s.s.s.s.s.s.s.s.s.s.s.s.s.s.s.s.s.s.s.s.s.s.s.s.s.s.s.s.s.s.s.s.s.s.s.",
"s.s.s.s.s.s.s.s.s.s.s.s.s.s.s.s.s.s.s.s.s.s.s.s.s.s.s.s.s.s.s.s.s.s.s.s.s.s.s.s.s.s.s.s.s.s.s.s.s.s.s.s.s.s.s.s.s.s.s.s.s.s.s.s.",
"s.s.s.s.s.s.s.s.s.s.s.s.s.s.s.s.s.s.s.s.s.s.s.s.s.s.s.s.s.s.s.s.s.s.s.s.s.s.s.s.s.s.s.s.s.s.s.s.s.s.s.s.s.s.s.s.s.s.s.s.s.s.s.s.",
"s.s.s.s.s.s.s.s.s.s.s.s.s.s.s.s.s.s.s.s.s.s.s.s.s.s.s.s.s.s.s.s.s.s.s.s.s.s.s.s.s.s.s.s.s.s.s.s.s.s.s.s.s.s.s.s.s.s.s.s.s.s.s.s.",
"s.s.s.s.s.s.s.s.s.s.s.s.s.s.s.s.s.s.s.s.s.s.s.s.s.s.s.s.s.s.s.s.s.s.s.s.s.s.s.s.s.s.s.s.s.s.s.s.s.s.s.s.s.s.s.s.s.s.s.s.s.s.s.s.",
"s.s.s.s.s.s.s.s.s.s.s.s.s.s.s.s.s.s.s.s.s.s.s.s.s.s.s.s.s.s.s.s.s.s.s.s.s.s.s.s.s.s.s.s.s.s.s.s.s.s.s.s.s.s.s.s.s.s.s.s.s.s.s.s.",
"s.s.s.s.s.s.s.s.s.s.s.s.s.s.s.s.s.s.p.p.d.s.s.s.s.s.s.s.s.s.s.d.p.p.a.s.s.s.s.s.f.s.s.f.s.i.s.d.s.s.s.s.s.s.s.s.s.s.s.s.s.s.s.s.",
"s.s.s.s.s.s.s.s.s.s.s.s.s.s.s.s.i.3.` z.2.g.h.h.h.h.g.h.h.h.g.3.z.z.z.4.g.h.h.g.h.h.h.j.h.5.3.z.z.3.s.s.s.s.s.s.s.s.s.s.s.s.s.s.",
"s.s.s.s.s.s.s.s.s.s.s.s.s.s.s.i.Q c s s h G F F F F F F F F J x h h s x G F F F F F F F N G l h h j ,.s.s.s.s.s.s.s.s.s.s.s.s.s.",
"s.s.s.s.s.s.s.s.s.s.s.s.s.s.p.,.x U B.c.q e r r r r r r r r t T b.F.v.J t r r r r r r r r r m n.b.b l 3.f.s.s.s.s.s.s.s.s.s.s.s.",
"s.s.s.s.s.s.s.s.s.s.s.s.s.s.k.I B F.].Y.-.w.y.y.y.y.y.y.y.y.y.U.R.[.].U.y.y.y.u.y.y.y.y.y.q.-.]./.C.h H f.s.s.s.s.s.s.s.s.s.s.s.",
"s.s.s.s.s.s.s.s.s.s.s.s.s.s.k.I ! /..X}.-.q.y.`.'.'.'.'.l.l.t.U.Q. XXXk.t.'.'.'.`.'.l.l.y.0.8.}. X].I =.s.s.s.s.s.s.s.s.s.s.s.s.",
"s.s.s.s.s.s.s.s.s.s.s.s.s.s.k.I ! ).~.T.8 X.#.9.q.q.e.q.w.*.@.U.(._.{.a.#.6.w.w.q.q.q.7.%.r y R.(.(.T H s.s.s.s.s.s.s.s.s.s.s.s.",
"s.s.s.s.s.s.s.s.s.s.s.s.s.s.k.I ! W.~.Z.t ;.0.w.9.e.y.t.t.e.7.M.E.Q.P.5.8.e.r.r.t.t.0.e.q.*.y R.~.W.U H i.s.s.s.s.s.s.s.s.s.s.s.",
"s.s.s.s.s.s.s.s.s.s.s.s.s.s.k.I E E.I.c.5 r 9.0.*.0.0.q.0.0.&.>.b.b.b.W ;.0.q.8.0.7.7.7.;.r t B.I.P.B =.s.s.s.s.s.s.s.s.s.s.s.s.",
"s.s.s.s.s.s.s.s.s.s.s.s.s.s.k.I B A.A._ & , r r 4 4 4 r r r 7 L ( ' x.D < 3 r r 3 3 4 r r - 5 v.A.B.b =.s.s.s.s.s.s.s.s.s.s.s.s.",
"s.s.s.s.s.s.s.s.s.s.s.s.s.s.k.I C  .| E @ 4 %.%.%.%.%.&.%.@.1.^.[.{..X].J O.%.%.%.%.&.%.%.r : )  . .c H p.f.s.s.s.s.s.s.s.s.s.s.",
"s.s.s.s.s.s.s.s.s.s.s.s.s.s.k.I B  .' V # - , , , , , > , 8 Z.{.|.{.XXXXm.; < , ; , , , , - # B {  .c H s.s.s.s.s.s.s.s.s.s.s.s.",
"s.s.s.s.s.s.s.s.s.s.s.s.s.s.k.I B  .{ _ Q G :.:.:.:.:.L m k J.W.n.} G.|.C.d G :.:.:.:.Q L D Q ) ] { c H s.s.s.s.s.s.s.s.s.s.s.s.",
"s.s.s.s.s.s.s.s.s.s.s.s.s.s.k.P B [ {  .H.| B.H.J.H.H.H.( A I.I.~ n ( ).J.Z ' H.H.H.H.H.B.| S.| ] ' s H s.s.s.s.s.s.s.s.s.s.s.s.",
"s.s.s.s.s.s.s.s.s.s.s.s.s.s.k.k u V V Z / ( / ( ( ( ( ( ^ ^ I.I.A n / Q.J.^ ^ ^ ( ( ( ( ( ( / Z n n u N s.s.s.s.s.s.s.s.s.s.s.s.",
"s.s.s.s.s.s.s.s.s.s.s.s.s.s.h.k u V V C f 6 9 6 9 9 6 6 6 m J.D.~ n ~ L.n.0 9 9 9 9 9 6 9 9 m C v n u N s.s.s.s.s.s.s.s.s.s.s.s.",
"s.s.s.s.s.s.s.s.s.s.s.s.s.s.k.k a / / R $ O O + 3 3 4 4 r , L b.} / ] } D < r r 4 r 2 + + O $ ! / ~ p N i.s.s.s.s.s.s.s.s.s.s.s.",
"s.s.s.s.s.s.s.s.s.s.s.s.s.s.k.g h  . ._ $ = r +.q.t.q.q.q.%.< L ` ` ` M : $.w.w.e.e.q.#.r + 5 }  . .p N s.s.s.s.s.s.s.s.s.s.s.s.",
"s.s.s.s.s.s.s.s.s.s.s.s.s.f.k.g j  .A._ # O r o.*.e.w.0.t.7.2 - ; $ # - r 7.w.q.q.q.*.O...= 5 v. . .a N s.s.s.s.s.s.s.s.s.s.s.s.",
"s.s.s.s.s.s.s.s.s.s.s.s.s.f.k.g B P.I.V.$ - X.+.+.q.t.e.t.t.q.9.7.6.;.7.w.r.r.r.t.q.%.#.X.= 7 J.P.P.g N s.s.s.s.s.s.s.s.s.s.s.s.",
"s.s.s.s.s.s.s.s.s.s.s.s.s.s.k.g Y !.~.Z.& X.&.&.9.t.u.`.u.u.u.u.u.u.u.u.u.u.u.u.`.y.7.*.*...e R.~.E.g N i.s.s.s.s.s.s.s.s.s.s.s.",
"s.s.s.s.s.s.s.s.s.s.s.s.s.s.j.g P H.H.B.$ ; r r %.q.q.q.q.q.q.q.w.w.w.q.w.w.w.w.w.q.+.r 3 > 7 C.D.H.a N s.s.s.s.s.s.s.s.s.s.s.s.",
"s.s.s.s.s.s.s.s.s.s.s.s.s.s.k.k Y W.W.Z.& 1 %.&.w.y.y.u.u.t.u.y.y.y.y.y.y.y.y.y.t.y.e.*.+.> 8 R.W.I.k F s.s.s.s.s.s.s.s.s.s.s.s.",
"s.s.s.s.s.s.s.s.s.s.s.s.s.s.k.k Y W.~.Z.& , 4 t %.9.w.w.t.q.q.q.t.t.y.w.w.w.e.q.q.9.%.o.4 > 8 R.~.W.l N s.s.s.s.s.s.s.s.s.s.s.s.",
"s.s.s.s.s.s.s.s.s.s.s.s.s.s.k.k P D.L.N.& + 2 2 X.*.0.q.w.q.0.q.q.q.q.q.0.q.q.q.9.*.r r 2 O 5 C.K.H.g N s.s.s.s.s.s.s.s.s.s.s.s.",
"s.s.s.s.s.s.s.s.s.s.s.s.s.s.h.S   a a p X . . . X O O O O O O O O O * O O + O O O O X . . . o d a p % =.i.s.s.s.s.s.s.s.s.s.s.s.",
"s.s.s.s.s.s.s.s.s.s.s.s.s.s.s.<.S x x x q w q w w q q q q w w w w w w w q w w w w w w w w q q x x x S <.s.s.s.s.s.s.s.s.s.s.s.s.",
"s.s.s.s.s.s.s.s.s.s.s.s.s.s.s.s.a.g.h.g.g.h.g.g.g.5.a.g.g.5.5.5.g.5.5.5.5.5.5.5.5.5.5.5.g.g.g.h.g.g.a.i.s.s.s.s.s.s.s.s.s.s.s.s.",
"s.s.s.s.s.s.s.s.s.s.s.s.s.s.s.s.s.s.s.s.d.f.s.s.d.i.s.s.f.s.s.s.s.s.s.s.s.s.s.s.s.s.d.s.s.s.s.s.d.s.s.s.s.s.s.s.s.s.s.s.s.s.s.s.",
"s.s.s.s.s.s.s.s.s.s.s.s.s.s.s.s.s.s.s.s.f.f.s.s.f.f.s.s.s.s.s.s.s.s.s.s.s.s.s.s.s.s.s.s.s.s.s.s.s.s.s.s.s.s.s.s.s.s.s.s.s.s.s.s.",
"s.s.s.s.s.s.s.s.s.s.s.s.s.s.s.s.s.s.s.s.s.s.s.s.s.s.s.s.s.s.s.s.s.s.s.s.s.s.s.s.s.s.s.s.s.s.s.s.s.s.s.s.s.s.s.s.s.s.s.s.s.s.s.s.",
"s.s.s.s.s.s.s.s.s.s.s.s.s.s.s.s.s.s.s.s.s.s.s.s.s.s.s.s.s.s.s.s.s.s.s.s.s.s.s.s.s.s.s.s.s.s.s.s.s.s.s.s.s.s.s.s.s.s.s.s.s.s.s.s.",
"s.s.s.s.s.s.s.s.s.s.s.s.s.s.s.s.s.s.s.s.s.s.s.s.s.s.s.s.s.s.s.s.s.s.s.s.s.s.s.s.s.s.s.s.s.s.s.s.s.s.s.s.s.s.s.s.s.s.s.s.s.s.s.s.",
"s.s.s.s.s.s.s.s.s.s.s.s.s.s.s.s.s.s.s.s.s.s.s.s.s.s.s.s.s.s.s.s.s.s.s.s.s.s.s.s.s.s.s.s.s.s.s.s.s.s.s.s.s.s.s.s.s.s.s.s.s.s.s.s.",
"s.s.s.s.s.s.s.s.s.s.s.s.s.s.s.s.s.s.s.s.s.s.s.s.s.s.s.s.s.s.s.f.s.s.s.s.s.s.s.s.s.s.s.s.s.s.s.s.s.s.s.s.s.s.s.s.s.s.s.s.s.s.s.s.",
"s.s.s.s.s.s.s.s.s.s.s.s.s.s.s.s.s.s.s.s.s.s.s.s.s.s.s.s.s.s.s.s.s.s.s.s.s.s.s.s.s.s.s.s.s.s.s.s.s.s.s.s.s.s.s.s.s.s.s.s.s.s.s.s.",
"s.s.s.s.s.s.s.s.s.s.s.s.s.s.s.s.s.s.s.s.s.s.s.s.s.s.s.s.s.s.s.s.s.s.s.s.s.s.s.s.s.s.s.s.s.s.s.s.s.s.s.s.s.s.s.s.s.s.s.s.s.s.s.s.",
"s.s.s.s.s.s.s.s.s.s.s.s.s.s.s.s.s.s.s.s.s.s.s.s.s.s.s.s.s.s.s.s.s.s.s.s.s.s.s.s.s.s.s.s.s.s.s.s.s.s.s.s.s.s.s.s.s.s.s.s.s.s.s.s."
};
