/* XPM */
static char *b11721604124[] = {
/* columns rows colors chars-per-pixel */
"64 64 199 2 ",
"   c #473F3D",
".  c #79533D",
"X  c #333644",
"o  c #3C3E4B",
"O  c #3D4151",
"+  c #41424A",
"@  c #4D4B4E",
"#  c #464B5C",
"$  c #494D5D",
"%  c #4D515E",
"&  c #5A5757",
"*  c #54545D",
"=  c #7F5941",
"-  c #645E5B",
";  c #6B655D",
":  c #7A685B",
">  c #4D5263",
",  c #515563",
"<  c #565863",
"1  c #5B5D66",
"2  c #545A6B",
"3  c #545B6B",
"4  c #615F61",
"5  c #5F6066",
"6  c #5B6374",
"7  c #5E6678",
"8  c #5F687A",
"9  c #646263",
"0  c #676566",
"q  c #6D6963",
"w  c #6B6B6B",
"e  c #746D67",
"r  c #7B746A",
"t  c #666B76",
"y  c #616B7C",
"u  c #6C7078",
"i  c #757473",
"p  c #80573E",
"a  c #825D44",
"s  c #885A40",
"d  c #88654A",
"f  c #9E724F",
"g  c #936E51",
"h  c #947254",
"j  c #9B7352",
"k  c #9C7B5A",
"l  c #A8754D",
"z  c #A17754",
"x  c #A37A56",
"c  c #AB7A52",
"v  c #A47E5A",
"b  c #B47B51",
"n  c #8A7C68",
"m  c #977F63",
"M  c #A4805D",
"N  c #AB845D",
"B  c #B98659",
"V  c #BB8659",
"C  c #8B836F",
"Z  c #99866B",
"A  c #878377",
"S  c #8B8473",
"D  c #948A74",
"F  c #988E76",
"G  c #9C937B",
"H  c #A68866",
"J  c #AC8C65",
"K  c #B28C63",
"L  c #AA906D",
"P  c #BC9464",
"I  c #B4946C",
"U  c #B9966B",
"Y  c #BD9A6B",
"T  c #AD9574",
"R  c #A8997B",
"E  c #B69A73",
"W  c #BCA579",
"Q  c #BBA47C",
"!  c #C18F5E",
"~  c #C3905E",
"^  c #C49563",
"/  c #C49C6B",
"(  c #CDA36D",
")  c #CFA86F",
"_  c #D1A96F",
"`  c #C8A774",
"'  c #D3AD74",
"]  c #CDB17C",
"[  c #D5B176",
"{  c #DAB376",
"}  c #D6B27A",
"|  c #DBB67A",
" . c #E2BD7C",
".. c #E4C07E",
"X. c #656F81",
"o. c #677183",
"O. c #697386",
"+. c #6B7689",
"@. c #6E798C",
"#. c #707986",
"$. c #717D8E",
"%. c #727E91",
"&. c #788089",
"*. c #758294",
"=. c #798697",
"-. c #798799",
";. c #7D8A9C",
":. c #7E8DA0",
">. c #999181",
",. c #828C9B",
"<. c #929698",
"1. c #A49D84",
"2. c #AD9E83",
"3. c #A79D8A",
"4. c #AA9F8F",
"5. c #ACA38A",
"6. c #BAA582",
"7. c #B9AB85",
"8. c #B4AC8F",
"9. c #BCAC8B",
"0. c #BCB08B",
"q. c #ACA495",
"w. c #A3A19D",
"e. c #A9A49B",
"r. c #AEAA9D",
"t. c #B2A695",
"y. c #B3AB93",
"u. c #B9AE95",
"i. c #B4AD9C",
"p. c #BEB094",
"a. c #B7B19F",
"s. c #BBB29C",
"d. c #818FA0",
"f. c #8493A4",
"g. c #8797A9",
"h. c #8897A9",
"j. c #8C9BAD",
"k. c #929EAA",
"l. c #8E9EB0",
"z. c #8FA0B2",
"x. c #93A4B4",
"c. c #9AA9B6",
"v. c #96A7B8",
"b. c #97A8B9",
"n. c #9BACBC",
"m. c #9EB0BF",
"M. c #A5A3A5",
"N. c #A9A6A4",
"B. c #ACA9A5",
"V. c #A7A6AB",
"C. c #A8A7A9",
"Z. c #AFADA9",
"A. c #B2ACA2",
"S. c #B5B4A9",
"D. c #A3ADB2",
"F. c #A6B2BB",
"G. c #C4AE86",
"H. c #C9B78A",
"J. c #D3B986",
"K. c #DCBD82",
"L. c #C4B797",
"P. c #C4BFA8",
"I. c #DDC58C",
"U. c #C7C39D",
"Y. c #D6CA97",
"T. c #E1C283",
"R. c #E3C98C",
"E. c #E9CD8D",
"W. c #EBD08E",
"Q. c #E8D699",
"!. c #EBD49B",
"~. c #EDDA9B",
"^. c #F1DA96",
"/. c #F2DD9C",
"(. c #F7EA9B",
"). c #FBF19D",
"_. c #CAC9A4",
"`. c #D9D3A4",
"'. c #CDCDB7",
"]. c #E9D9A6",
"[. c #E9D9B5",
"{. c #F5E5A3",
"}. c #F9E9A6",
"|. c #F4E6AA",
" X c #FAEBA9",
".X c #FCF0A2",
"XX c #F6EAB7",
"oX c #F9EDB5",
"OX c #9FB1C0",
"+X c #CBCDC7",
"@X c #DCDCD2",
"#X c #E2DDC4",
"$X c #EEE6C5",
"%X c #F5EBC3",
"&X c #FAF2CC",
"*X c #E4E7DE",
"=X c #FAF4D3",
"-X c #FAF5DB",
";X c #FBF8E7",
/* pixels */
"V.V.V.V.V.V.V.V.V.V.V.V.V.V.V.V.V.V.V.V.V.V.V.V.V.V.V.V.V.V.V.V.V.V.V.V.V.V.V.V.V.V.V.V.V.V.V.V.V.V.V.V.V.V.V.V.V.V.V.V.V.V.V.V.",
"V.V.V.V.V.V.V.V.V.V.V.V.V.V.V.V.V.V.V.V.V.V.V.V.V.V.V.V.V.V.V.V.V.V.V.V.V.V.V.V.V.V.V.V.V.V.V.V.V.V.V.V.V.V.V.V.V.V.V.V.V.V.V.V.",
"V.V.V.V.V.V.V.V.V.V.V.V.V.V.V.V.V.V.V.V.V.V.V.V.V.V.V.V.V.V.V.V.V.V.V.V.V.V.V.V.V.V.V.V.V.V.V.V.V.V.V.V.V.V.V.V.V.V.V.V.V.V.V.V.",
"V.V.V.V.V.V.V.V.V.V.V.V.V.V.V.V.V.V.V.V.V.V.V.V.V.V.V.V.V.V.V.V.V.V.V.V.V.V.V.V.V.V.V.V.V.V.V.V.V.V.V.V.V.V.V.V.V.V.V.V.V.V.V.V.",
"V.V.V.V.V.V.V.V.V.V.V.V.V.V.V.V.V.V.V.V.V.V.V.V.V.V.V.V.V.V.V.V.V.V.V.V.V.V.V.V.V.V.V.V.V.V.V.V.V.V.V.V.V.V.V.V.V.V.V.V.V.V.V.V.",
"V.V.V.V.V.V.V.V.V.V.V.V.V.V.V.V.V.V.V.V.V.V.V.V.V.V.V.V.V.V.V.V.V.V.V.V.V.V.V.V.D.V.V.V.V.V.V.V.V.V.V.V.V.V.V.V.V.V.V.V.V.V.V.V.",
"V.V.V.V.V.V.V.V.V.V.V.V.V.V.V.V.V.V.V.V.V.V.V.V.V.V.V.V.V.V.V.V.V.V.V.V.V.V.V.V.V.V.V.V.V.V.V.V.V.V.V.V.V.V.V.V.V.V.V.V.V.V.V.V.",
"V.V.V.V.V.V.V.V.V.V.V.V.V.V.V.V.V.V.V.V.V.V.V.V.V.V.V.V.V.V.V.V.V.V.V.V.V.V.V.V.V.V.V.V.V.V.V.V.V.V.V.V.V.V.V.V.V.V.V.V.V.V.V.V.",
"V.V.V.V.V.V.V.V.V.V.V.V.V.V.V.V.V.V.V.V.V.V.V.V.V.V.V.V.V.V.V.V.V.V.V.V.V.V.V.V.V.V.V.V.V.V.V.V.V.V.V.V.V.V.V.V.V.V.V.V.V.V.V.V.",
"V.V.V.V.V.V.V.V.V.V.V.V.V.V.V.V.V.V.V.V.V.V.V.V.V.V.V.V.V.V.V.V.V.V.V.V.V.V.V.V.V.V.V.V.V.V.V.V.V.V.V.V.V.V.V.V.V.V.V.V.V.V.V.V.",
"V.V.V.V.V.V.V.V.V.V.V.V.V.V.V.V.V.V.V.V.V.V.V.V.V.V.V.V.V.V.V.V.V.V.V.V.V.V.V.V.V.V.V.V.V.V.V.V.V.V.V.V.V.V.V.V.V.V.V.V.V.V.V.V.",
"V.V.V.V.V.V.V.V.V.V.V.V.V.V.V.V.V.V.V.V.V.V.V.V.V.V.V.V.V.V.V.V.V.V.V.V.V.V.V.V.V.V.V.V.V.V.V.V.V.V.V.V.V.V.V.V.V.V.V.V.V.V.V.V.",
"V.V.V.V.V.V.V.V.V.V.V.V.V.V.V.V.V.V.V.V.V.V.V.V.V.V.V.V.V.V.V.V.V.V.V.V.V.V.V.V.V.V.V.V.V.V.V.V.V.V.V.V.V.V.V.V.V.V.V.V.V.V.V.V.",
"V.V.V.V.V.V.V.V.V.V.V.V.V.V.V.V.V.V.V.V.V.V.V.V.V.V.V.V.V.V.V.V.V.V.V.V.V.V.V.V.V.V.V.V.V.V.V.V.V.V.V.V.V.V.V.V.V.V.V.V.V.V.V.V.",
"V.V.V.V.V.V.V.V.V.V.V.V.V.V.V.V.V.V.V.V.V.V.V.V.V.V.V.V.V.V.V.V.V.V.V.V.V.V.V.V.V.V.V.V.V.V.V.V.V.V.V.V.V.V.V.V.V.V.V.V.V.V.V.V.",
"V.V.V.V.V.V.V.V.V.V.V.V.V.V.V.V.V.V.V.V.V.V.V.V.V.V.V.V.V.V.V.V.V.V.V.V.V.V.V.V.V.V.V.V.V.V.V.V.V.V.V.V.V.V.V.V.V.V.V.V.V.V.V.V.",
"V.V.V.V.V.V.V.V.V.V.V.V.V.V.V.V.V.V.V.V.V.V.V.V.V.V.V.V.V.V.V.V.V.V.V.V.V.V.V.V.V.V.V.V.V.V.V.V.V.V.V.V.V.V.V.V.V.V.V.V.V.V.V.V.",
"V.V.V.V.V.V.V.V.V.V.V.V.V.V.V.V.V.V.V.V.V.V.V.V.V.V.V.V.V.V.V.V.V.V.V.V.V.V.V.V.V.V.V.V.V.V.V.V.V.V.V.V.V.V.V.V.V.V.V.V.V.V.V.V.",
"V.V.V.V.V.V.V.V.V.V.V.V.V.V.V.V.V.V.V.V.V.V.V.V.V.V.V.V.V.V.V.V.V.V.V.V.V.V.V.V.V.V.V.V.V.V.V.V.V.V.V.V.V.V.V.V.V.V.V.Z.V.V.V.V.",
"V.V.V.V.V.V.V.V.V.V.V.V.V.V.V.V.V.V.V.V.V.V.V.V.V.V.V.V.V.V.V.V.V.V.V.V.V.V.V.V.V.V.V.V.V.V.V.V.V.V.V.V.V.V.V.V.V.V.V.V.V.V.V.V.",
"V.V.V.V.V.V.V.V.V.V.V.V.V.V.V.V.V.V.V.V.V.V.V.V.V.V.V.V.Z.V.V.V.V.V.V.V.V.V.V.V.V.V.V.V.V.V.V.V.V.V.V.V.V.V.V.V.V.V.V.V.V.V.V.V.",
"V.V.V.V.V.V.V.V.V.V.V.V.V.V.V.V.V.V.V.V.V.V.V.V.V.V.V.V.V.V.V.V.V.V.V.V.V.V.V.V.V.V.V.V.V.V.V.V.V.V.V.V.V.V.V.V.V.V.V.V.V.V.V.V.",
"V.V.V.V.V.V.V.V.V.V.V.V.V.V.V.V.V.V.V.V.V.V.V.V.V.V.V.V.V.V.V.V.V.V.V.V.V.V.V.V.V.V.V.V.V.V.V.V.V.V.V.V.V.V.V.V.V.V.V.V.V.V.V.V.",
"V.V.V.V.V.V.V.V.V.V.V.V.V.V.V.V.V.V.V.V.A.A.A.Z.V.V.V.V.V.V.V.V.V.V.V.V.V.V.V.V.V.V.V.V.V.V.V.V.V.V.V.V.V.V.V.V.V.V.V.V.V.V.V.V.",
"V.V.V.V.V.V.V.V.V.V.V.V.V.V.V.V.V.V.M.q.L K U 6.A.B.M.N.M.M.V.V.V.V.V.V.V.V.V.V.V.V.V.V.V.V.C.V.V.V.V.V.V.V.V.V.V.V.V.V.V.V.V.V.",
"V.V.V.V.V.V.V.V.V.V.V.V.V.V.V.V.V.w.3.H z J z g n 1.1.t.y.u.a.A.A.e.t.L.u.i.M.V.V.V.V.V.V.V.C.C.V.V.V.V.V.V.V.V.V.V.V.V.V.V.V.V.",
"V.V.V.V.V.V.V.V.V.V.V.V.V.V.V.V.V.t.x v J.!.G.e t 6 3 1 3 0 w i A G v x H J 6.i.Z.Z.B.N.V.V.V.C.V.V.V.V.V.V.V.V.V.V.V.V.V.V.V.V.",
"V.V.V.V.V.V.V.V.V.V.V.V.V.V.V.V.V.L.x J.$X-X'.;.v.c.x.l.f.,.%.+.X.i H ` / k h n n G 3.4.t.u.i.A.4.t.G.L.e.V.V.V.V.V.V.V.V.V.V.V.",
"V.V.V.V.V.V.V.V.V.V.V.V.V.V.V.V.V.G.x `.%X&XZ.,.v.OXOXOXOXOXOXOXn.F.I.].].K.>.#.y 6 3 3 3 4 w r m j j x 2.M.V.V.V.V.V.V.V.V.V.V.",
"V.V.V.V.V.V.V.V.V.V.V.V.V.V.V.V.B.6.x !. X}.F t @.d.x.v.v.n.OXOXn.D.].%X;X#XD.OXn.b.x.k.d.,.%.O.0 E J.J z 4.M.V.V.V.V.V.V.V.V.V.",
"V.V.V.V.V.V.V.V.V.V.V.V.V.V.V.V.B.E v ~. X~.n %.h.h.h.l.l.h.l.d.%.<.|.XX-X@Xk.OXOXn.OXOXOXOXm.b.d.P.[.R.x v Z.V.V.V.V.V.V.V.V.V.",
"V.V.V.V.V.V.V.V.V.V.V.V.V.V.V.V.A.K v E.^.T.w 6 ,.l.h.v.n.n.n.v.j.w.{.oXXXP.#.;.l.z.v.b.n.b.b.l.d.@X;X$X/ z P.V.V.V.V.V.V.V.V.V.",
"V.V.V.V.V.V.V.V.V.V.V.V.V.V.V.V.a.N N  ...[ ; 3 6 y y o.&.=.;.k.k.1.T.E.E.9.k.x.b.v.l.l.g.f.@.X.u `.oX%XE H s.V.V.V.V.V.V.V.V.V.",
"V.V.V.V.V.V.V.V.V.V.V.V.V.V.V.V.s.N K ..{ N % y *.*.*.&.*.o.&.`.!.W / ) _ Z $.f.g.l.x.b.l.v.v.;.u ]. X XI K u.V.V.V.V.V.V.V.V.V.",
"V.V.V.V.V.V.V.V.V.V.V.V.V.V.V.V.L.M P ..( x & % 3 3 6 y y *.;.~..X|.].[.[.R 9 y X.X.X.O.o.%.%.7 i R.}./.H U t.V.V.V.V.V.V.V.V.V.",
"V.V.V.V.V.V.V.V.V.V.V.V.V.V.V.M.L.j / ..| R.W R G A i 0 1 % < G }.=X=X-X;X$XD +.*.*.%.@.+.o.X.> e  .E.T.x ` e.V.V.V.V.V.V.V.V.V.",
"V.V.V.V.V.V.V.V.V.V.V.V.V.V.V.N.9.p c ~ ~ _ | } Q.Q.~.Q.`.I.M I }.].!.].-X-X>., > 3 6 y X.+.@.3 e | ..[ f ] B.V.V.V.V.V.V.V.V.V.",
"V.V.V.V.V.V.V.V.V.V.V.V.V.V.V.N.W . l b B K U Y Y ( ) ] | } K [ }.I.b ~ !.XXU n F S i e 9 1 , * : ^  .( f H.V.V.V.V.V.V.V.V.V.V.",
"V.V.V.V.V.V.V.V.V.V.V.V.V.V.V.Z.I . B B B : * 5 ; r S Z L I U R.}.[ b V !.oX/ ^ R.~.~.~.`.Y.Q R W (  .( z H.V.V.V.V.V.V.V.V.V.V.",
"V.V.V.V.V.V.V.V.V.V.V.V.V.V.V.A.J d { { ) ; # $ $ 3 3 * < < 5 L.~.( b V W.].` / / ( ( ( { ' { T.T.| | P x L.M.V.V.V.V.V.V.V.V.V.",
"V.V.V.V.V.V.V.V.V.V.V.V.V.V.V.A.k j |  .' - # O.*.:.j.:.-.*.6 A K.{ ! (  .J.0 4 q r n Z L I U / ! b ! f j L.V.V.V.V.V.V.V.V.V.V.",
"V.V.V.V.V.V.V.V.V.V.V.V.V.V.V.s.h J ^.W.] & $ 8 @.S.'.`.S.b.=.5 F ] } | ` r t y 7 6 < , $ * < e V b b p m u.V.V.V.V.V.V.V.V.V.V.",
"V.V.V.V.V.V.V.V.V.V.V.V.V.V.V.p.d W  X XH.* 6 @.@.U.).)._.j.:.7 % - q r 4 t d.x.j.z.g.;.6 > # q / ! V p L A.V.V.V.V.V.V.V.V.V.V.",
"V.V.V.V.V.V.V.V.V.V.V.V.V.V.V.0.= W ^./.0.> +.-.;._.).).`.m.m.x.f.,.*.y O.%.g.x.j.z.x.h.*.X.# i K. .' s E A.V.V.V.V.V.V.V.V.V.V.",
"V.V.V.V.V.V.V.V.V.V.V.V.V.V.N.5.= J.~.(.R $ 5 8 o.r.Y.Y._.n.n.m.n.OXOXn.n.n.n.b.v.l.d.O.7 3 # n K.T.( s 6.N.V.V.V.V.V.V.V.V.V.V.",
"V.V.V.V.V.V.V.V.V.V.V.V.V.C.C.Q d I. X}.G , O.=.g.x.n.x.j.j.z.j.l.z.x.x.v.n.n.n.OXOXz.;.-.+.$ 5./.^.] = 6.V.V.V.V.V.V.V.V.V.V.V.",
"V.V.V.V.V.V.V.V.V.V.V.V.V.V.Z.T d I.{.{.S $ 6 o.@.g.z.b.n.b.F.n.OXn.b.b.l.l.l.l.l.l.d.O.@.@.> y. X XG.a 9.M.V.V.V.V.V.V.V.V.V.V.",
"V.V.V.V.V.V.V.V.V.V.V.V.V.V.C.T . M U Y ; O 3 8 O.-.j.z.b.z.F.*X*X+Xn.n.v.n.n.n.n.v.l.$.X.> , 9.^.^.Y d L.V.V.V.V.V.V.V.V.V.V.V.",
"V.V.V.V.V.V.V.V.V.V.V.V.V.V.V.r.Z d d =   X X X O 3 8 +.$.,.F.;X;X+Xn.x.z.z.b.z.l.l.f.=.@.7 1 U.{.(.J g p.M.V.V.V.V.V.V.V.V.V.V.",
"V.V.V.V.V.V.V.V.V.V.V.V.V.V.V.M.A.L.0.7.1.D S r ; & @ + O O u +X+X<.y y *.;.f.h.g.;.+.y 7 > 0 ]. X}.H k q.M.V.V.V.V.V.V.V.V.V.V.",
"V.V.V.V.V.V.V.V.V.V.V.V.V.V.V.V.V.V.M.M.M.N.A.A.i.i.y.8.5.F C S r 4 @ O X O O O > 3 $ # > # 9 I./.^.h H t.V.V.V.V.V.V.V.V.V.V.V.",
"V.V.V.V.V.V.V.V.V.V.V.V.V.V.V.V.V.V.V.V.V.V.V.V.V.V.M.C.M.w.w.e.r.q.8.8.5.G D n ; & @ o X X   d f v . T e.V.V.V.V.V.V.V.V.V.V.V.",
"V.V.V.V.V.V.V.V.V.V.V.V.V.V.V.V.V.V.V.V.V.V.V.V.V.V.V.V.V.V.V.V.C.V.M.V.M.M.e.r.i.r.y.5.5.G Z Z h d g G <.V.V.V.V.V.V.V.V.V.V.V.",
"V.V.V.V.V.V.V.V.V.V.V.V.V.V.V.V.V.V.V.V.V.V.V.V.V.V.V.V.V.V.V.V.V.V.V.V.V.V.M.V.V.M.M.M.V.N.N.A.A.s.q.M.V.V.V.V.V.V.V.V.V.V.V.V.",
"V.V.V.V.V.V.V.V.V.V.V.V.V.V.V.V.V.V.V.V.V.V.V.V.V.V.V.V.V.V.V.V.V.V.V.V.V.V.V.V.V.V.V.V.V.V.V.V.V.V.V.V.V.V.V.V.V.V.V.V.V.V.V.V.",
"V.V.V.V.V.V.V.V.V.V.V.V.V.V.V.V.V.V.V.V.V.V.V.V.V.V.V.V.V.V.V.V.V.V.V.V.V.V.V.V.V.V.V.V.V.V.V.V.V.V.V.V.V.V.V.V.V.V.V.V.V.V.V.V.",
"V.V.V.V.V.V.V.V.V.V.V.V.V.V.V.V.V.V.V.V.V.V.V.V.V.V.V.V.V.V.V.V.V.V.V.V.V.V.V.V.V.V.V.V.V.V.V.V.V.V.V.V.V.V.V.V.V.V.V.V.V.V.V.V.",
"V.C.V.V.V.V.V.V.V.V.V.V.V.V.V.V.V.V.V.V.V.V.V.V.V.V.V.V.V.V.V.V.V.V.V.V.V.V.V.V.V.V.V.V.V.V.V.V.V.V.V.V.V.V.V.V.V.V.V.V.V.V.V.V.",
"V.V.V.V.V.V.V.V.V.V.V.V.V.V.V.V.V.V.V.V.V.V.V.V.V.V.V.V.V.V.V.V.V.V.V.V.V.V.V.V.V.V.V.V.V.V.V.V.V.V.V.V.V.V.V.V.V.V.V.V.V.V.V.V.",
"V.V.V.V.V.V.V.V.V.V.V.V.V.V.V.V.V.V.V.V.V.V.V.V.V.V.V.V.V.V.V.V.V.V.V.V.V.V.V.V.V.V.V.V.V.V.V.V.V.V.V.V.V.V.V.V.V.V.V.V.V.V.V.V.",
"V.V.V.V.V.V.V.V.V.V.V.V.V.V.V.V.V.V.V.V.V.V.V.V.V.V.V.V.C.V.V.V.V.V.V.V.V.V.V.V.V.V.V.V.V.V.V.V.D.V.V.V.V.V.V.V.V.V.V.V.V.V.V.V.",
"V.V.V.V.V.V.V.V.V.V.V.V.V.V.V.V.V.V.V.V.V.V.V.V.V.V.D.V.V.V.V.V.V.V.V.V.V.V.V.V.V.V.V.V.V.V.V.V.V.V.V.V.V.V.V.V.V.V.V.V.V.V.V.V.",
"V.V.V.V.V.V.V.V.V.V.V.V.V.V.V.V.V.V.V.V.V.V.V.V.V.V.V.V.V.V.V.V.V.V.V.V.V.V.V.V.V.V.V.V.V.V.V.V.V.V.V.V.V.V.V.V.V.V.V.V.V.V.V.V.",
"V.V.V.V.V.V.V.V.V.V.V.V.V.V.V.V.V.V.V.V.V.V.V.V.V.V.V.V.V.V.V.V.V.V.V.V.V.V.V.V.V.V.V.V.V.V.V.V.V.V.V.V.V.V.V.V.V.V.V.V.V.V.V.V."
};
