/* XPM */
static char *B31721604124[] = {
/* columns rows colors chars-per-pixel */
"64 64 210 2 ",
"   c #3E373C",
".  c #744D39",
"X  c #77533E",
"o  c #7B543E",
"O  c #2F3243",
"+  c #363947",
"@  c #413F46",
"#  c #3E4354",
"$  c #47474D",
"%  c #484A53",
"&  c #464A5B",
"*  c #4A4D5C",
"=  c #514E54",
"-  c #4D515E",
";  c #5A5554",
":  c #53545D",
">  c #59575D",
",  c #5A595E",
"<  c #6C5040",
"1  c #775843",
"2  c #7E5A42",
"3  c #645C59",
"4  c #68625B",
"5  c #7B6C5D",
"6  c #494F60",
"7  c #4E5362",
"8  c #4F5668",
"9  c #515562",
"0  c #5A5C66",
"q  c #535A6C",
"w  c #565E70",
"e  c #605F62",
"r  c #5C6374",
"t  c #5E6779",
"y  c #636264",
"u  c #6A6866",
"i  c #746D65",
"p  c #78736A",
"a  c #626672",
"s  c #626977",
"d  c #636B7D",
"f  c #6E727B",
"g  c #7A7975",
"h  c #82563D",
"j  c #845D43",
"k  c #89664A",
"l  c #966B4C",
"z  c #9A6D4C",
"x  c #9B714F",
"c  c #8B6F5B",
"v  c #9B7452",
"b  c #967758",
"n  c #A7754E",
"m  c #A37A55",
"M  c #B47C51",
"N  c #857C69",
"B  c #A7835D",
"V  c #AC845C",
"C  c #B7865A",
"Z  c #BB8A5C",
"A  c #88816E",
"S  c #92836C",
"D  c #998468",
"F  c #8C8472",
"G  c #8A8678",
"H  c #928972",
"J  c #998E74",
"K  c #9C937C",
"L  c #A28464",
"P  c #AC8A64",
"I  c #AA8E6A",
"U  c #B38D64",
"Y  c #BE8F62",
"T  c #AC916E",
"R  c #B2936B",
"E  c #BB9769",
"W  c #A99677",
"Q  c #B79D75",
"!  c #ACA07F",
"~  c #B9A57D",
"^  c #C1915F",
"/  c #C59663",
"(  c #C69865",
")  c #C69D6A",
"_  c #C99D69",
"`  c #C3A06F",
"'  c #CCA26C",
"]  c #D1A76F",
"[  c #C3A372",
"{  c #C6A87A",
"}  c #D4AD73",
"|  c #D5AF7C",
" . c #CBB17D",
".. c #D9B377",
"X. c #DBB779",
"o. c #DEBA7A",
"O. c #E1BD7C",
"+. c #E3C07E",
"@. c #656E80",
"#. c #677183",
"$. c #697485",
"%. c #6B7689",
"&. c #6E798C",
"*. c #717C8E",
"=. c #727E90",
"-. c #77808C",
";. c #768294",
":. c #788597",
">. c #788599",
",. c #7C8A9C",
"<. c #7F8DA1",
"1. c #9A9683",
"2. c #818D9C",
"3. c #8A9091",
"4. c #A79E89",
"5. c #ACA387",
"6. c #B7A886",
"7. c #B4AB8C",
"8. c #BCB28D",
"9. c #A9A59B",
"0. c #B5AD93",
"q. c #B8AE99",
"w. c #B5B090",
"e. c #BBB395",
"r. c #BBB39C",
"t. c #818FA1",
"y. c #8492A4",
"u. c #8897A8",
"i. c #8C9BAD",
"p. c #989FA0",
"a. c #8F9EB0",
"s. c #9CA5AA",
"d. c #8FA0B1",
"f. c #93A4B4",
"g. c #97A6B4",
"h. c #97A8B8",
"j. c #9BACBC",
"k. c #9EB0BF",
"l. c #A5A3A6",
"z. c #A9A6A5",
"x. c #ADA9A5",
"c. c #A7A6AB",
"v. c #A8A6A9",
"b. c #A4ADAF",
"n. c #ACAAAB",
"m. c #B3AEA5",
"M. c #B0ACA8",
"N. c #B6B0A4",
"B. c #BBB5A2",
"V. c #A2AFB8",
"C. c #A7B1B5",
"Z. c #B2B8B6",
"A. c #C3AD85",
"S. c #C9B68A",
"D. c #D3B983",
"F. c #DCBD83",
"G. c #D3BA8B",
"H. c #C4B593",
"J. c #C6BA94",
"K. c #CBB994",
"L. c #C1B69B",
"P. c #C4BA9A",
"I. c #E0BF83",
"U. c #C3BBA4",
"Y. c #BEC0AC",
"T. c #DFC78C",
"R. c #D6C895",
"E. c #E5C786",
"W. c #E4CB8E",
"Q. c #EAD08F",
"!. c #E3C995",
"~. c #E6D296",
"^. c #EBD494",
"/. c #E8D798",
"(. c #EBD69A",
"). c #EEDA9B",
"_. c #F1DE9B",
"`. c #EDE198",
"'. c #F6E69E",
"]. c #FBF09C",
"[. c #CAC5A6",
"{. c #DDCEA8",
"}. c #DDD4AB",
"|. c #E9DAA5",
" X c #ECDEAE",
".X c #EEE2A8",
"XX c #F4E3A2",
"oX c #F9EBA4",
"OX c #F4E7AA",
"+X c #FBECAA",
"@X c #EFE1B6",
"#X c #F6E9B8",
"$X c #FCF0B1",
"%X c #9FB0C0",
"&X c #A0B1C1",
"*X c #A9B8C4",
"=X c #C8CAC5",
"-X c #D4D4CD",
";X c #DADBD4",
":X c #E4E1CC",
">X c #F5EBC6",
",X c #F5EDCB",
"<X c #FBF2C4",
"1X c #FAF2CC",
"2X c #E8E7D9",
"3X c #F8F3D5",
"4X c #FBF7DD",
"5X c #FBF8E5",
"6X c #FCF8E4",
"7X c #F7F5E8",
/* pixels */
"c.c.c.c.c.c.c.c.c.c.c.c.c.c.c.c.c.c.c.c.c.c.c.c.c.c.c.c.c.c.c.c.c.c.c.c.c.c.c.c.c.c.c.c.c.c.c.c.c.c.c.c.c.c.c.c.c.c.c.c.c.c.c.c.",
"c.c.c.c.c.c.c.c.c.c.c.c.c.c.c.c.c.c.c.c.c.c.c.c.c.c.c.c.c.c.c.c.c.c.c.c.c.c.c.c.c.c.c.c.c.c.c.c.c.c.c.c.c.c.n.c.c.c.c.c.c.b.c.c.",
"c.c.c.c.c.c.c.c.c.c.c.c.c.c.c.c.c.c.c.c.c.c.c.c.c.c.c.c.c.c.c.c.c.c.c.b.c.c.c.c.c.c.c.c.c.c.c.c.c.c.c.c.c.c.c.c.c.c.c.c.c.c.c.c.",
"c.c.c.c.c.c.c.c.c.c.c.c.c.c.c.c.c.c.c.c.c.c.c.c.c.c.c.c.c.c.c.c.c.c.c.c.c.c.c.c.c.c.c.c.c.c.c.c.c.c.c.c.c.c.c.c.c.c.c.c.c.c.c.c.",
"c.c.c.c.c.c.c.c.c.c.c.c.c.c.c.c.c.c.c.c.c.c.c.c.c.c.c.c.c.c.c.c.c.c.c.c.c.c.c.c.c.c.c.c.c.c.c.c.c.c.c.c.c.c.c.c.c.c.c.c.c.c.c.c.",
"c.c.c.c.c.c.c.c.c.c.c.c.c.c.c.c.c.c.c.c.c.c.c.c.c.c.c.c.c.c.c.c.c.c.c.c.c.c.c.c.c.c.c.c.c.c.c.c.c.c.c.c.c.c.c.c.c.c.c.c.c.c.c.c.",
"c.c.c.c.c.c.c.c.c.c.c.c.c.c.c.c.c.c.c.c.c.c.c.c.c.c.c.c.c.c.c.c.c.c.c.c.c.c.c.c.c.c.c.c.c.c.c.c.c.c.c.c.c.c.c.c.c.c.c.c.c.c.c.c.",
"c.c.c.c.c.c.c.c.c.c.c.c.c.c.c.c.c.c.c.c.c.c.c.c.c.c.c.c.c.c.c.c.c.c.c.c.c.c.c.c.c.c.c.c.c.c.c.c.c.c.c.c.c.c.c.c.c.c.c.c.c.c.c.c.",
"c.c.c.c.c.c.c.c.c.c.c.c.c.c.c.c.c.c.c.c.c.c.c.c.c.c.c.c.c.c.c.c.c.c.c.c.c.n.c.c.c.c.c.c.c.c.c.c.c.c.c.c.c.c.c.c.c.c.c.c.c.c.c.c.",
"c.c.c.c.c.c.c.c.c.c.c.c.c.c.c.c.c.c.c.c.c.c.c.c.c.c.c.c.c.c.c.c.c.c.c.c.c.c.c.c.c.c.c.c.c.c.c.c.c.c.c.c.c.c.c.c.c.c.c.c.c.c.c.c.",
"c.c.c.c.c.c.c.c.c.c.c.c.c.c.c.c.c.c.c.c.c.c.c.c.c.c.c.c.c.c.c.c.c.c.c.c.c.c.c.c.c.c.c.c.c.c.c.c.c.c.c.c.c.c.c.c.c.c.c.c.c.c.c.c.",
"c.c.c.c.c.c.c.n.c.c.c.c.c.c.c.c.c.c.c.c.c.c.c.c.c.c.c.c.c.c.c.c.c.c.c.c.c.c.c.c.c.c.c.c.c.c.c.c.c.c.c.c.c.c.c.c.c.c.c.c.c.c.c.c.",
"c.c.c.c.c.c.c.c.c.c.c.c.c.c.c.c.c.c.c.c.c.c.c.c.c.c.c.c.c.c.c.c.c.c.c.c.c.c.c.c.c.c.c.c.c.c.c.c.c.c.c.c.c.c.c.c.c.c.c.c.c.c.c.c.",
"c.c.c.c.c.c.c.c.c.c.c.c.c.c.c.c.c.c.c.c.c.c.c.c.c.c.c.c.c.c.c.c.c.c.c.c.c.c.c.c.c.c.c.c.c.c.c.c.c.c.c.c.c.c.c.c.c.c.c.c.c.c.c.c.",
"c.c.c.c.c.c.c.c.c.c.c.c.c.c.c.c.c.c.c.c.c.c.c.c.c.c.c.c.c.c.c.c.c.c.c.c.c.c.c.c.c.c.n.c.c.c.c.c.c.c.c.c.c.c.c.c.c.c.c.c.c.c.c.c.",
"c.c.c.c.c.c.c.c.c.c.c.c.c.c.c.c.c.c.c.c.c.c.c.c.c.c.c.c.c.c.c.c.c.c.c.c.c.c.c.c.c.c.c.c.c.c.c.c.c.c.c.c.c.c.c.c.c.c.c.c.c.c.c.c.",
"c.c.c.c.n.c.c.c.c.c.c.c.c.c.c.c.c.c.c.c.c.c.c.c.c.c.c.c.c.c.c.c.c.c.c.c.c.c.c.c.c.c.c.c.c.c.c.c.c.c.c.c.c.c.c.c.c.c.c.c.c.c.c.c.",
"c.c.c.c.c.c.c.c.c.c.c.c.c.c.c.c.c.c.c.c.c.c.c.c.c.c.c.c.c.c.c.c.c.c.c.c.c.c.c.c.c.c.c.c.c.c.c.c.c.c.c.c.c.c.c.c.c.c.c.c.c.c.c.c.",
"c.c.c.c.c.c.c.c.c.c.c.c.c.c.c.c.c.c.c.c.c.c.c.c.c.c.c.c.c.c.c.c.c.c.c.c.c.c.c.c.c.c.c.c.c.c.c.c.c.c.c.c.c.c.c.c.c.c.c.c.c.c.c.c.",
"c.c.c.c.c.c.c.c.c.c.c.c.c.c.c.c.c.c.c.c.l.c.c.c.c.c.c.c.c.c.c.c.c.c.c.c.c.c.c.c.c.c.c.c.c.c.c.c.c.c.c.c.c.c.c.c.c.c.c.c.c.c.c.c.",
"c.c.c.c.c.c.c.c.c.c.c.c.c.c.c.c.c.l.v.q.K.L.M.v.c.c.c.c.c.c.c.c.c.c.c.c.c.c.c.c.c.c.c.c.c.c.c.c.c.c.c.c.c.c.c.c.c.c.c.c.c.c.c.c.",
"c.c.c.c.c.c.c.c.c.c.c.c.c.c.c.c.z.9.W m m U { q.n.c.c.c.c.c.c.c.c.c.c.c.c.c.c.c.c.c.c.c.c.c.c.c.c.c.c.c.c.c.c.c.c.c.c.c.c.c.c.c.",
"c.c.c.c.c.c.c.c.c.c.c.c.c.c.c.z.5.P x m / m l W w.r.r.N.z.l.b.l.c.c.c.c.c.c.c.c.c.c.c.c.c.c.c.c.c.c.c.c.c.c.c.c.c.c.c.c.c.c.c.c.",
"c.c.c.c.c.c.c.c.c.c.c.c.c.c.c.B.R x E !.(.D.i : - y g 1.w.e.B.m.n.v.c.n.v.c.c.c.c.c.c.c.c.c.c.c.c.c.c.c.c.c.c.c.c.c.c.c.c.C.c.c.",
"c.c.c.c.c.c.c.c.c.c.c.c.c.c.c.H.m M |.,X,XB.-.y.,.$.r 8 : e g 1.5.L.r.A.H.P.U.v.v.v.c.c.c.c.c.c.c.c.c.c.c.c.c.c.c.c.c.c.c.c.c.c.",
"c.c.c.c.c.c.c.c.c.c.c.c.c.c.v.H.v A.>X1X3XZ.y.h.%Xk.h.i.,.-.t 8 9 y b z z m R 6.M.z.l.c.c.c.c.c.c.c.c.c.c.c.c.c.c.c.c.c.c.c.c.c.",
"c.c.c.c.c.c.c.c.c.c.c.c.c.c.x.A.z G.+X+X.XG ;.f.k.&X&X%Xk.k.j.d.t.=.D [ { U z m 5.L.U.B.M.l.l.c.c.c.c.c.c.c.c.c.c.c.c.c.c.c.c.c.",
"c.c.c.c.c.c.c.c.c.c.c.c.c.c.q.Q n ~.+X+XR.u t $.:.f.h.k.k.k.k.k.&XV.[.(.(.^.{ c 3 9 a N 4.7.r.B.M.x.c.z.M.z.c.c.c.c.c.c.c.c.c.c.",
"c.c.c.c.c.c.c.c.c.c.c.c.c.c.L.P m Q.oX_.Q d y.i.y.y.i.i.d.g.j.k.%Xg.}.$X3X,X{.c.i.=.%.w 7 : w N 1.0.H.6.A.K.L.z.c.c.c.c.c.c.c.c.",
"c.c.c.c.c.c.c.c.c.c.b.c.c.c.H.m U I.E.E.D 7 #.i.h.i.h.V.[.[.p.,.;.3..X$X4X5X=Xj.%X%X%Xg.i.2.$.w 9 9 u z z x P 6.c.c.c.c.c.c.c.c.",
"c.c.c.c.c.c.c.c.c.c.c.c.c.n.A.z _ O.X.} 5 * q d &.:.u.V.OX'.Y.f.t.9.OX$X#X1XZ.d.%X%X%X%X%X%X%Xg.i.2.t N D.` z P z.c.c.c.c.c.c.c.",
"c.c.c.c.c.c.c.c.c.c.c.c.c.N.` x } O.} C ; r ;.&.d t r f w.R.p.d.u.w.^.#X+X|.3.f =.f.h.%X%X%X&X&X&XV.t.z.|.!.U z 6.z.c.c.c.c.c.c.",
"c.c.c.c.c.c.c.c.c.c.c.c.c.L.P m X.X.^ n = 9 d %.>.>.:.&.$.a a a a Q X.O.E.D.p.h.d.f.a.i.a.a.h.f.h.f.t.-X6X>XR.x U r.c.c.c.c.c.c.",
"c.c.c.c.c.c.c.c.c.c.c.c.v.H.x V O.O.o.A.N 4 > = 7 r d &.>.>.*.f K { ` ) ' P $.a.f.h.%X%Xh.i.u.;.#.d f }.<X3X{.v E N.c.c.c.c.c.c.",
"c.c.c.c.c.c.c.c.c.c.l.c.v.6.o n ^ _ } ^.Q.D.R.5.H i 0 : 7 q a e.@X1X#X@X{.K 0 s @.&.,.i.h.a.h.j.i.%.g  X+X+X{.v A.M.c.c.c.c.c.c.",
"c.c.c.c.c.c.c.c.c.c.v.v.m.I . n M M C ( _ ' T._.XX|.R.8.F 3 p  X<X4X1X6X5X@XF %.%.@.r r @.%.>.<.-.#.G XX+XoX{ v K.v.c.c.c.v.c.c.",
"c.c.c.c.c.c.c.c.c.c.c.c.r.b o n M C Z L Q ) ) ) ' X.W.(.F.C [ 1X7X@X X,X5X3XK a =.>.<.;.&.@.d w 7 - W Q.oXXXU V H.l.c.c.c.c.c.c.",
"c.c.c.c.c.c.c.c.c.c.c.c.L.j z ] _ / b * : y p S W E ) ( / C F.3X7XG.^ D.>X,XH = 7 9 r @.&.>.>.>.r 7 ~ +.E.T.v E q.l.c.c.c.c.c.c.",
"c.c.c.c.c.c.c.c.c.c.c.n.6.j V O.O.X.5 & & & & * - , i S W [ (.$X!.^ M ' >X XU m 4.H i 9 6 7 q s q > Q O.O.] z { m.c.c.c.c.c.c.c.",
"c.c.c.c.c.c.c.c.c.c.c.m.Q j ` T.o.} 4 * r d d ;.%.r 8 7 * p (.`.' M M I.$X|.Z _ ^.XX).R.5.H i > - 4 C X.O.Y z S.z.v.c.c.c.c.c.c.",
"c.c.c.c.c.c.c.c.c.c.l.U.m k ^.).^.{ > & s ;.u.j.h.i.<.,.@.y S.+._ M Z I.XX!.` / ) ] X.!.).XX~.A.! Q / ..o.M m K.l.v.c.c.c.c.c.c.",
"c.c.c.c.c.c.c.c.c.c.c.U.k L XX+XoX6.* 9 t r t i.h.d.f.j.<.r A T.X._ ] I.W.H y W K.!.G.) _ ' ' | ^.W.E.O...n E L.c.v.c.c.c.c.c.c.",
"c.c.c.c.c.c.c.c.c.c.c.S.j R (._.XXJ 9 *.,.,.>.u.d.i.i.d.u.t 7 J Q D.O.' N u w c.3X6X:XN D R ` ( / Z ( ] ) l { N.c.c.c.c.c.c.c.c.",
"c.c.c.c.c.c.c.c.c.c.m.~ 1 D.'.^.T.i - d ;.,.u.j.%X%Xj.h.d.<.r - : y i y q *.u.=X7X5X2Xa & * 0 i T C M M z 2 S.z.c.c.c.c.c.c.c.c.",
"c.c.c.c.c.c.c.c.c.l.B.D k /.+XoXR.e - w r t >.f.h.j.%X%Xk.k.f.u.=.@.w q $.u.%X-X5X5X2X2.q 6 & * N Z M M k k K.z.c.c.c.c.c.c.c.c.",
"c.c.c.c.c.c.c.c.c.c.P.l b `.+XoX8.: t -.<.i.d.a.i.i.d.d.f.k.k.k.%X%Xg.i.a.i.i.=X5X5X2Xg.>.@.6 - W ] ( Z h b H.v.c.c.c.c.c.c.c.c.",
"c.c.c.c.c.c.c.c.c.c.e.2 v  .E.`.J p w.J.R.p.f.j.k.j.j.f.d.u.i.d.g.%X%X%X%X%X%X&X=X*Xs.$.@.a 6 e  .+.O.' o R q.c.c.c.c.c.c.c.c.c.",
"c.c.c.c.c.c.c.c.c.c.9.b . j k B 4 G ].'.^.-.<.i.i.h.h.h.k.k.j.d.a.i.i.f.g.%X%X%X%X%Xt.=.%.q & p o.+.o.Y o ~ z.c.c.c.c.c.c.c.c.c.",
"c.c.c.c.c.c.c.c.c.c.v.q.6.I v 1   A oX].(.g >.i.a.h.h.i.d.d.j.k.%Xj.j.f.a.a.a.d.h.h.<.,.<.$.* W `.).E.B k S.l.c.c.c.c.c.c.c.c.c.",
"c.c.c.c.c.c.c.c.c.c.c.c.m.B.U.H.W 6.oX`.R.% % 8 d -.<.i.f.f.j.f.j.f.d.h.j.%Xh.h.d.<.t t %.d 8 e.+XoX`.l c P.l.v.c.c.c.c.c.c.c.c.",
"c.c.c.c.c.c.c.c.c.c.c.c.c.c.c.v.M.B.[.[.7.H u %   # # # r %.<.d.d.h.d.i.d.h.f.h.j.j.y.;.r * y K.).'.T.2 I r.c.c.c.c.c.c.c.c.c.c.",
"c.c.c.c.c.c.c.c.c.c.c.c.c.c.c.v.c.v.z.c.9.N.B.r.7.K p : + O # # w $.>.i.d.j.f.i.<.;.%.;.%.8 g |.`.^.` o ~ m.c.c.c.c.c.c.c.c.c.c.",
"c.c.c.c.c.c.c.c.c.c.c.c.c.c.c.c.c.c.c.c.c.c.c.c.s.r.B.r.w.K p ; + + + # q #.:.y.,.&.#.r 8 6 1.OXoX].R 2 S.z.c.c.c.c.c.c.c.c.c.c.",
"c.c.c.c.c.c.c.c.c.c.c.c.c.c.c.c.c.c.c.c.c.c.c.c.l.b.c.l.l.m.r.r.8.W A y $ + + # 6 # 8 q * 7 q.oXoX'.v c J.l.c.c.c.c.c.c.c.c.c.c.",
"c.c.c.c.c.c.c.c.c.c.c.c.c.c.c.c.c.c.c.c.c.c.c.c.c.c.c.c.c.c.c.l.l.9.9.e.w.4.A 4 $ + O O + % W W.^.T.k I r.c.c.c.c.c.c.c.c.c.c.c.",
"c.c.c.c.c.c.c.c.c.c.c.c.c.c.c.c.c.c.c.c.c.c.c.c.c.c.c.c.c.c.c.c.l.c.c.s.9.p.9.r.w.5.H 4 % @ < j x b X ~ 9.c.c.c.c.c.c.c.c.c.c.c.",
"c.c.c.c.c.c.c.c.c.c.c.c.c.c.c.c.c.c.c.c.c.c.c.c.c.c.c.c.n.n.c.l.c.c.c.c.c.c.c.l.l.v.9.r.e.6.Q D k 1 b 6.v.c.c.c.c.c.c.c.c.c.c.c.",
"c.c.c.c.c.c.c.c.c.c.c.c.c.c.c.c.c.c.c.c.c.c.c.c.c.c.c.n.2X7X-Xc.c.c.c.c.c.c.c.c.c.c.c.c.l.z.9.q.H.7.4.l.c.c.c.c.c.c.c.c.c.c.c.c.",
"c.c.c.c.c.c.c.c.c.v.c.c.c.c.c.c.c.c.c.c.c.c.c.c.c.c.c.n.2X7X;Xc.c.c.c.c.c.c.c.c.c.c.c.c.c.c.c.c.l.v.c.c.c.c.c.c.c.c.c.c.c.c.c.c.",
"c.c.c.c.c.c.c.c.c.c.c.c.c.c.c.c.c.c.c.c.c.c.c.c.c.c.c.c.=X-X=Xc.c.c.c.c.c.c.c.c.c.c.c.c.c.c.c.c.c.c.c.c.c.c.c.c.c.c.c.c.c.c.c.c.",
"c.c.c.c.c.c.c.c.c.c.c.c.c.c.c.c.c.c.c.c.c.c.c.c.c.c.c.c.c.c.c.c.c.c.c.c.c.c.c.c.c.c.c.c.c.c.c.c.c.c.c.c.c.c.c.c.c.c.c.c.c.c.c.c.",
"c.c.c.c.c.c.c.c.c.c.c.c.c.c.c.c.c.c.c.c.c.c.c.c.c.c.c.c.c.c.c.c.c.c.c.c.c.c.c.c.c.c.c.c.c.c.c.c.c.c.c.c.c.c.c.c.c.c.c.c.c.c.c.c.",
"c.c.c.c.c.c.c.c.c.c.c.c.c.c.c.c.c.c.c.c.c.c.c.c.c.c.c.c.c.c.c.c.c.c.c.c.c.c.c.c.c.c.c.c.c.c.c.c.c.c.c.c.c.c.c.c.c.c.c.c.c.c.c.c.",
"c.c.c.c.c.c.c.c.c.c.c.c.c.c.c.c.c.c.c.c.c.c.c.c.c.c.c.c.c.c.c.c.c.c.c.c.c.c.c.c.c.c.c.c.c.c.c.c.c.c.c.c.c.c.c.c.c.c.c.c.c.c.c.c."
};
