/* XPM */
static char *B61721604126[] = {
/* columns rows colors chars-per-pixel */
"64 64 221 2 ",
"   c #3B373C",
".  c #6B4A39",
"X  c #724A37",
"o  c #744D39",
"O  c #77513B",
"+  c #7B553E",
"@  c #2E3143",
"#  c #323545",
"$  c #363948",
"%  c #48474B",
"&  c #464856",
"*  c #464A5B",
"=  c #4A4E5E",
"-  c #504F5A",
";  c #4C505E",
":  c #53545C",
">  c #5D5B5C",
",  c #795742",
"<  c #7C5944",
"1  c #635C5B",
"2  c #67635D",
"3  c #766659",
"4  c #494F62",
"5  c #4D5263",
"6  c #565963",
"7  c #5D5D63",
"8  c #515768",
"9  c #555A68",
"0  c #555B6C",
"q  c #585F70",
"w  c #59606F",
"e  c #5B6374",
"r  c #5E6778",
"t  c #5F687A",
"y  c #646364",
"u  c #696563",
"i  c #696868",
"p  c #6C6B69",
"a  c #726C64",
"s  c #706D68",
"d  c #7A7265",
"f  c #75716C",
"g  c #7B766A",
"h  c #626672",
"j  c #636B7C",
"k  c #69717F",
"l  c #767777",
"z  c #896448",
"x  c #946647",
"c  c #956A4B",
"v  c #996E4E",
"b  c #876C54",
"n  c #88715B",
"m  c #9C7452",
"M  c #9A7857",
"N  c #A3734E",
"B  c #A47A56",
"V  c #A57D59",
"C  c #B37C51",
"Z  c #877A67",
"A  c #A6825D",
"S  c #AA845D",
"D  c #B88355",
"F  c #B78558",
"G  c #BC8B5C",
"H  c #8B826D",
"J  c #95856A",
"K  c #8B8574",
"L  c #888476",
"P  c #968E76",
"I  c #9B947B",
"U  c #A88965",
"Y  c #B28C62",
"T  c #B98F62",
"R  c #AD936E",
"E  c #B69569",
"W  c #BD9B6D",
"Q  c #A99777",
"!  c #B49971",
"~  c #BB9D72",
"^  c #B19C7B",
"/  c #BCA378",
"(  c #BCA57E",
")  c #C18F5D",
"_  c #C49563",
"`  c #C69B68",
"'  c #C59D6B",
"]  c #C09F70",
"[  c #C5A16E",
"{  c #CBA26C",
"}  c #C5A372",
"|  c #CDA671",
" . c #C8AA77",
".. c #D3AB72",
"X. c #D5AE77",
"o. c #D4B279",
"O. c #DBB67A",
"+. c #DEBA7B",
"@. c #E1BD7C",
"#. c #656E80",
"$. c #677182",
"%. c #697385",
"&. c #6B7689",
"*. c #6E798B",
"=. c #787D84",
"-. c #717D8E",
";. c #737E90",
":. c #768295",
">. c #798596",
",. c #778498",
"<. c #798699",
"1. c #7C8A9C",
"2. c #7E8CA0",
"3. c #848D99",
"4. c #8F9292",
"5. c #A59E88",
"6. c #A39E93",
"7. c #A29E9D",
"8. c #ADA285",
"9. c #B9AA87",
"0. c #B3AA8A",
"q. c #BCB08E",
"w. c #ADA696",
"e. c #A5A19C",
"r. c #AAA59C",
"t. c #B4AD93",
"y. c #B3AD9E",
"u. c #BDB294",
"i. c #BBB39C",
"p. c #818FA1",
"a. c #8492A4",
"s. c #8796A9",
"d. c #8B9BAD",
"f. c #939DAA",
"g. c #8F9FB0",
"h. c #A19FA2",
"j. c #95A2AF",
"k. c #8FA0B1",
"l. c #93A4B4",
"z. c #99A8B5",
"x. c #97A8B8",
"c. c #9BACBC",
"v. c #9EB0BF",
"b. c #A5A3A5",
"n. c #A9A6A4",
"m. c #ADA9A3",
"M. c #A7A6AB",
"N. c #A8A6A9",
"B. c #ACAAA9",
"V. c #B3AEA5",
"C. c #B4AFA9",
"Z. c #B7B3A4",
"A. c #BCB5A3",
"S. c #BAB5AA",
"D. c #A6AEB2",
"F. c #A8B4BC",
"G. c #B6BCBC",
"H. c #C6AC84",
"J. c #C4B48C",
"K. c #CAB488",
"L. c #C9B58C",
"P. c #D2B885",
"I. c #DCBD83",
"U. c #C3B694",
"Y. c #C5B995",
"T. c #CBBC94",
"R. c #C3BA9C",
"E. c #C8BA9A",
"W. c #D1BE96",
"Q. c #E0BF80",
"!. c #C4BBA3",
"~. c #D9C38B",
"^. c #CEC39D",
"/. c #D6C997",
"(. c #DFD299",
"). c #E2C284",
"_. c #E2C589",
"`. c #E4CB8D",
"'. c #E8CD8C",
"]. c #E2CC92",
"[. c #E1D394",
"{. c #EAD395",
"}. c #EEDA96",
"|. c #E4D39B",
" X c #EBD59A",
".X c #EBD99C",
"XX c #F1DD9C",
"oX c #F1E198",
"OX c #F9ED9E",
"+X c #FBF19E",
"@X c #C7C3AB",
"#X c #D4C9AB",
"$X c #DBD2A9",
"%X c #E9D6A7",
"&X c #E8D7A7",
"*X c #ECDDA1",
"=X c #E6DCB5",
"-X c #EFE0A7",
";X c #F4E4A3",
":X c #F6E8A7",
">X c #FAEBAB",
",X c #EAE0BD",
"<X c #F7EAB6",
"1X c #9FB1C0",
"2X c #A1B2C1",
"3X c #BAC0C0",
"4X c #CDD2CE",
"5X c #DAD6C4",
"6X c #EBE5CA",
"7X c #F5ECC8",
"8X c #FAF2C9",
"9X c #E5E4D6",
"0X c #EBEBDC",
"qX c #F2ECD3",
"wX c #F9F3D5",
"eX c #F5F1DB",
"rX c #FAF5DC",
"tX c #F3F2E1",
"yX c #FAF6E1",
"uX c #FBF9E6",
"iX c #FCFAE8",
/* pixels */
"M.M.M.M.M.M.M.M.M.M.M.M.M.M.M.M.M.M.M.M.M.M.M.M.M.M.M.M.M.M.M.M.M.M.M.M.M.M.M.M.M.M.M.M.M.M.M.M.M.M.M.M.M.M.M.M.M.M.M.M.M.M.M.M.",
"M.M.M.M.M.M.M.M.M.M.M.M.M.M.M.M.M.M.M.M.M.M.M.M.M.M.M.M.M.M.M.M.M.M.M.M.M.M.M.M.M.M.M.M.M.M.M.M.M.M.M.M.M.M.M.M.M.M.M.M.M.M.M.M.",
"M.M.M.M.M.M.M.M.M.M.M.M.M.M.M.M.M.M.M.M.M.M.M.M.M.M.M.M.M.M.M.M.M.M.M.M.M.M.M.M.M.M.M.M.M.M.M.M.M.M.M.M.M.M.M.M.M.M.M.M.M.M.M.M.",
"M.M.M.M.M.M.M.M.M.M.M.M.M.M.M.M.M.M.M.M.M.M.M.M.M.M.M.M.M.M.M.M.M.M.M.M.M.M.M.M.M.M.M.M.M.M.M.M.M.M.M.M.M.M.M.M.M.M.M.M.M.M.M.M.",
"M.M.M.M.M.M.M.M.M.M.M.M.M.M.M.M.M.M.M.M.M.M.M.M.M.M.M.M.M.M.M.M.M.M.M.M.M.M.M.M.M.M.M.M.M.M.M.M.M.M.M.M.M.M.M.M.M.M.M.M.M.M.M.M.",
"M.M.M.M.M.M.M.M.M.M.M.M.M.M.M.M.M.M.M.M.M.M.M.M.M.M.M.M.M.M.M.M.M.M.M.M.M.M.M.M.M.M.M.M.M.M.M.M.M.M.M.M.M.M.M.M.M.M.M.M.M.M.M.M.",
"M.M.M.M.M.M.M.M.M.M.M.M.M.M.M.M.M.M.M.M.M.M.M.M.M.M.M.M.M.M.M.M.M.M.M.M.M.D.M.M.M.M.M.M.M.M.M.M.M.M.M.M.M.M.M.M.M.M.M.M.M.M.M.M.",
"M.M.M.M.M.M.M.M.M.M.M.M.M.M.M.M.M.M.M.M.M.M.M.M.M.M.M.M.M.M.M.M.M.M.M.M.M.B.M.M.M.M.M.M.M.M.M.M.M.M.M.M.M.M.M.M.M.M.M.M.M.M.M.M.",
"M.M.M.M.M.M.M.M.M.M.M.M.M.M.M.M.M.M.M.M.M.M.M.M.M.M.M.M.M.M.M.M.M.M.M.M.M.M.M.M.M.M.M.M.M.M.M.M.M.M.M.M.M.M.M.M.M.M.M.M.M.M.M.M.",
"M.M.M.M.M.M.M.M.M.M.M.M.M.M.M.M.M.M.M.M.M.M.M.M.M.M.M.M.M.M.M.M.M.M.M.M.M.M.M.M.M.M.M.M.M.M.M.M.M.M.M.M.M.M.M.D.M.M.M.M.M.M.M.M.",
"M.M.M.M.M.M.M.M.M.M.M.M.M.M.M.M.M.M.M.M.M.M.M.M.M.M.M.M.M.M.M.M.M.M.M.M.M.M.M.M.M.M.M.M.M.M.M.M.M.M.M.M.M.M.M.M.M.M.M.M.M.M.M.M.",
"M.M.M.M.M.M.M.M.M.M.M.M.M.M.M.M.M.M.M.M.M.M.M.M.M.M.M.M.M.M.M.M.M.M.M.M.M.M.M.M.M.M.M.M.M.M.M.M.M.M.M.M.M.M.M.M.M.M.M.M.M.M.M.M.",
"M.M.M.M.M.M.M.M.M.M.M.M.M.M.M.M.M.M.M.M.M.M.M.M.M.M.M.M.M.M.M.M.M.M.M.M.M.M.M.M.M.M.M.M.D.M.M.M.M.M.M.M.M.M.M.M.M.M.M.M.M.M.M.M.",
"M.M.M.M.M.M.M.M.M.M.M.M.M.M.M.M.M.M.M.M.M.M.M.M.M.M.M.M.M.M.M.M.M.M.M.M.M.M.M.M.M.M.M.M.M.M.M.M.M.M.M.M.M.M.M.M.M.M.M.M.M.M.M.M.",
"M.M.M.M.M.M.M.M.M.M.M.M.M.M.M.M.M.M.M.M.M.M.M.M.M.M.M.M.M.M.M.M.M.M.M.M.M.M.M.M.M.M.M.M.M.M.M.M.M.M.M.M.M.M.M.M.M.M.M.M.M.M.M.M.",
"M.M.M.M.M.M.M.M.M.M.M.M.M.M.M.M.M.M.M.M.M.M.M.M.M.M.M.M.M.M.M.M.M.M.M.M.M.M.M.M.M.M.M.M.M.M.M.M.M.M.M.M.M.M.M.M.M.M.M.M.M.M.M.M.",
"M.M.M.M.M.M.M.M.M.M.M.M.M.M.M.M.M.M.M.M.M.M.M.M.M.M.M.M.M.M.M.M.M.M.M.M.M.M.M.M.M.M.M.M.M.M.M.M.M.M.D.M.M.M.M.M.M.M.M.M.M.M.M.M.",
"M.M.M.M.M.M.M.M.M.M.M.M.M.M.M.M.M.M.M.M.M.M.M.M.M.M.M.M.M.M.M.M.M.M.M.M.M.M.M.M.M.M.M.M.M.M.M.M.M.M.M.M.M.M.M.M.M.M.M.M.M.M.M.M.",
"M.M.M.M.M.M.M.M.M.M.M.M.M.M.M.M.M.M.M.M.M.M.M.M.M.M.M.M.M.M.M.M.M.M.M.M.M.M.M.M.M.M.M.M.M.M.M.M.M.M.M.M.M.M.M.M.M.M.M.M.M.M.M.M.",
"M.M.M.M.M.M.M.M.M.M.M.M.M.M.M.M.M.M.M.M.M.M.M.M.M.M.M.M.M.M.M.M.M.M.M.M.M.M.M.M.M.M.M.M.M.M.M.M.M.M.M.M.M.M.M.M.M.M.M.M.M.M.M.M.",
"M.M.M.M.M.M.M.M.M.M.M.M.M.M.M.M.M.M.M.M.M.M.M.M.M.M.M.M.M.M.M.M.M.M.M.M.M.M.M.M.M.M.M.M.M.M.M.M.M.M.M.M.M.M.M.M.M.M.M.M.M.M.M.M.",
"M.M.M.M.M.M.M.M.M.M.M.M.M.M.M.M.M.M.M.M.M.M.M.M.M.M.M.M.M.M.M.M.M.M.M.M.M.M.M.M.M.M.M.M.M.M.M.M.M.M.M.M.M.M.M.M.M.M.M.M.M.M.M.M.",
"M.M.M.M.M.M.M.M.M.M.M.M.M.M.M.M.M.M.M.M.M.M.M.N.n.b.b.M.M.M.M.M.M.M.M.M.M.M.M.M.M.M.M.M.M.M.M.M.M.M.M.M.M.M.M.M.M.M.M.M.M.M.M.M.",
"M.M.M.M.M.M.M.M.M.M.M.M.b.b.b.h.h.M.M.M.M.M.M.E.|.Y.b.M.M.M.N.N.M.M.M.M.M.M.M.M.M.M.M.M.M.M.M.M.M.M.M.M.M.M.M.M.M.M.M.M.M.M.M.M.",
"M.M.M.M.M.M.M.M.M.M.M.M.6.J.J.J.q.7.n.b.b.j.6./.}./.b.b.M.N.b.V.m.r.r.e.M.M.M.M.M.M.M.M.M.M.M.M.N.N.M.h.B.M.M.M.M.M.M.M.M.M.M.M.",
"M.M.M.M.M.M.M.M.M.M.b.m.^ M m m A H.E.Y.u.u.q.(.XX(.i.i.y.w.8.H.K.K.K.8.e.r.e.e.7.7.b.n.N.N.N.N.h.7.A.y.w.h.M.M.M.M.M.M.M.M.M.M.",
"M.M.M.M.B.M.M.M.M.h.6.^ v B Y Y z b u y i p s l l L L L P P U c v v c B ( 0.0.9.q.q.Y.!.Y.R.i.u.J.R E W ' 9.7.h.M.M.M.M.M.M.M.M.",
"M.M.M.M.M.M.M.M.h.6.R m B P.{.`.Z h k j t e w q 0 0 w k l f b E  . .E x 3 : : 6 6 6 7 y y i i p Z v v v x B 8.h.M.M.M.M.M.M.M.M.",
"M.M.M.M.M.M.M.M.N.R.U B I.,X7X=X4.1.c.c.x.x.z.l.z.l.c.9XqX5Xu.(. X{.[.9.3.>.-.*.&.$.$.$.#.j e e 0 3 P.].} c V 9.h.M.M.M.M.M.M.M.",
"M.M.M.M.M.M.M.M.h.U.V V %XwXuX0Xf.a.c.v.1X1X1Xv.1XF.2X0XrX4X@X-X<X7X7X#XD.c.v.v.c.1Xc.c.c.c.x.x.s.*.W.%X X' x V E.M.M.M.M.M.M.M.",
"M.M.M.M.D.M.M.M.N.Y.V U 7X7X7X=Xl >.s.z.c.v.c.v.c.1X1X3X4XG.S.>X<XyXiX4Xz.v.v.v.1X1X2X2X2X2X2X1Xf.f.0XyXqX|.V N W.M.M.M.M.M.M.M.",
"M.M.M.M.M.M.M.M.N.T.B Y >X>X>X].u e $.%.1.s.s.s.d.d.g.d.1.:.i.>X>XwXwXG.3.d.l.x.c.c.c.c.c.c.x.l.p.3.6XwXrX6XV N W.M.M.M.M.M.M.M.",
"M.M.M.M.M.M.M.M.B.T.B Y >X>X:X/.i <.k.k.k.d.l.x.l.x.x.l.p.;.Z.>X<X<X>Xt.%.*.a.d.g.d.d.d.d.1.*.j e f &X>X>X<XU B T.M.M.M.M.M.M.M.",
"M.M.M.M.M.M.M.M.B.T.m Y *X:XoX .7 #.2.l.l.d.l.x.c.c.x.x.x.s.i.{.*X.X{.t.j.c.v.v.c.c.c.x.d.x.g.s.-.l &X>X>X;XB A Y.M.M.M.M.M.M.M.",
"M.M.M.M.M.M.M.M.B.T.m S )._.).} 6 * 9 $.%.&.*.-.-.;.-.>.<.&.Q o.@.@.O.J >.d.s.d.d.g.l.g.d.l.x.a.*.f /.;X>X}.A S U.n.M.M.M.M.M.M.",
"M.M.M.M.M.M.M.M.B.K.v G @.@.+.[ : e %.$.$.#.$.t j r r r 9 i R | { } ] Z 6 r h j j r j j j $.%.q 4 p P.'.}.~.N Y U.b.M.M.M.M.M.M.",
"M.M.M.M.M.M.M.M.B.T.v Y @.@...A : e >.<.1.1.<.1.1.1.1.;.l 9.-X<X<XqXqX#XZ $.;.;.-.&.&.&.#.#.j j 5 p O.~.@.X.v Y U.b.M.M.M.M.M.M.",
"M.M.M.M.M.M.M.M.e.L.v T @.O.G v = * 5 0 0 0 0 0 q e e 0 4.-XrXyX7XiXiXwXU.i ;.;.:.<.:.>.,.,.<.:.8 2 [ @.+.O.v E u.b.M.M.M.M.M.M.",
"M.M.M.M.M.M.M.M.m.K.v Y @.@.{ ~ H a g f i p i y y > : : 8.>X8X8X<X7XyXiX$X7 4 5 5 8 5 5 5 8 0 0 = 1 F ..@...v W !.h.M.M.M.M.M.M.",
"M.M.M.M.M.M.M.M.C.P.c T @.@.@.{..XI.`.-X*X*X|.|.(./.! M H.>XXXX.{ ..%X8X=Xn n L K L L L g f s y 7 g G { @...x ' !.M.M.M.M.M.M.M.",
"M.M.M.M.M.M.M.M.V.H.+ N ) ) _ ' X...{ +.I.).).`._._.{ D ~.>X XF C C _.8X*XF _  X;X;X;X;X;X*X].P.I. XQ.@.@.| x ] !.M.M.M.M.M.M.M.",
"M.M.M.M.M.M.M.M.V.9.o x C C D G } } ' ' } [ ` ' { ' ` ` '.:X{.G C C ).>X.XG ) ' ....X.O.P.O.X...I.Q......._ z ~ !.M.M.M.M.M.M.M.",
"M.M.M.M.M.M.M.M.S.^ X x C D ) A 2 a a a a d Z Z Z H J P ].:X_.D C C @.>X.X/ ~ ' ~ } } | } ' ' ' | P.H.H.` N X ~ A.M.M.M.M.M.M.M.",
"M.M.M.M.M.M.M.M.S.~ o B _ _ ) b & * * * = 5 4 = ; ; ; ; 0.{.I._ C ) I.XXJ.7 : 6 > 1 2 y u a a d 6.tXyXyX#XN , ~ A.M.M.M.M.M.M.M.",
"M.M.M.M.M.M.M.M.S.Q o W @.@.@.J & = 0 0 $.3.2.<.:.>.:.w p ( ~.O...X.@.X.Z 9 q q q j h h 5 * * * =.tXiXuX$XN X ~ A.M.M.M.M.M.M.M.",
"M.M.M.M.M.M.M.M.S.R o } @.@.@.J & 5 -.,.s.c.c.x.d.x.k.>.9 d / o.o.X. .Z 7 -.s.s.s.9X0X9X3.0 5 * =.tXuXuX6XH.o } y.M.M.M.M.M.M.M.",
"M.M.M.M.M.M.M.M.A.Y + { @.).I.Z & = e j *.s.l.l.s.l.l.s.r ; 7 y u u u = r a.x.x.j.0XuXyXM.,.&.= q 5XyXuXiX5X, ( Z.N.M.M.M.M.M.M.",
"M.M.M.M.M.M.M.M.A.U , `.XXOXXXH = 0 #.&.%.,.g.g.k.k.k.d.a.j r e h e 9 j >.p.s.g.j.0XtX0X4.#.e 4 - 5.qXuXiX5X< H.C.N.M.M.M.M.M.M.",
"M.M.M.M.M.M.M.M.A.A , [.>X>X:XL ; *.2.2.2.k.v.v.v.v.v.v.1Xc.c.c.x.x.l.x.x.c.x.x.1X3XF.j.<.&.j 4 = 0.7XyXrX5X, H.C.M.M.M.M.M.M.M.",
"M.M.M.M.M.M.M.M.A.A , ~.XXXX}.Z ; j &.:.:.k.x.c.x.x.c.v.c.v.v.c.1X1X1X1X1X1X1X1Xc.2Xc.s.2.2.<.e - i.<X7X8XT.< H.C.M.M.M.M.M.M.M.",
"M.M.M.M.M.M.M.M.i.A < ~.XX X].d * 8 r t j 2.d.s.s.d.d.d.d.d.d.d.d.k.k.k.l.l.l.x.l.l.l.a.:.:.;.r - U.>X>X:X! O K.V.M.M.M.M.M.M.M.",
"M.M.M.M.M.M.m.y.^.R b .X>X>XoXg ; $.<.2.k.c.c.c.c.c.c.x.c.x.c.x.x.l.l.x.k.l.k.d.g.l.d.:.j r 0 4 5 9.{.'.{.S + L.m.M.M.M.M.M.M.M.",
"M.M.M.M.M.M.!.-XOX}.! *X>X>XXXd * w r $.:.d.x.c.v.v.x.l.x.x.v.v.1X1Xx.1Xv.c.1X1X1Xc.2Xx.d.1.:.8 5 T.:X:X;XU + L.B.M.M.M.M.M.M.M.",
"M.M.M.M.M.B.R.OXOXoX! |.;X;X|.a * 8 $.$.$.:.F.0X0X0X3Xd.k.k.l.x.1Xx.k.d.d.k.x.d.s.s.s.:.&.$.j 9 6 /.>X>X:XU + L.n.M.M.M.M.M.M.M.",
"M.M.M.M.M.M.R.oXOX}.A Y ' [ W > & & 5 8 0 &.3XiXuXuX3Xs.d.k.d.d.g.k.k.k.l.l.l.l.l.d.1.*.$.%.e * 6 /.:X:X;XA + L.n.M.M.M.M.M.M.M.",
"M.M.M.M.M.M.m.^./.[.c X o X .   @ @ @ @ # $ 4.iXiXuX4.; 4 8 0 0 0 e r t j j &.&.*.*.&.e 8 8 4 & : H.`.`.`.M < K.n.M.M.M.M.M.M.M.",
"M.M.M.M.M.M.M.b.b.y.( / / ! R J H g a 2 2 2 6.eXrXwX4.% % % % % $ $ # # # # # # # # $ # # @ # # # , z z z + z Y.b.M.M.M.M.M.M.M.",
"M.M.M.M.M.M.M.M.M.M.C.Z.Z.Z.S.A.i.i.i.i.i.R.@X#X#X$X^.^.[.[.[./.0.8.8.^ Q I I I P L H g a a a 2 2 b z z < z ^ r.M.M.M.M.M.M.M.M.",
"M.M.M.M.M.M.M.M.M.M.M.M.M.M.N.M.M.M.M.M.n.M.M.M.D.M.n.A.OXOX+X/.e.e.r.r.y.y.y.Z.A.A.i.t.i.i.R.i.i.^.E.^.E.J.6.N.M.M.M.M.M.M.M.M.",
"M.M.M.M.M.M.M.M.M.M.M.M.M.M.M.M.M.M.M.M.N.N.M.M.M.M.z.S.;XOX+X^.M.M.b.M.M.N.n.z.M.M.M.M.N.b.M.b.b.M.M.M.N.N.b.M.M.M.M.M.M.M.M.M.",
"M.M.M.M.M.M.M.M.M.M.M.M.M.M.M.M.M.M.M.M.M.M.M.M.M.M.M.m./.$X(.R.M.M.M.M.M.M.M.M.M.M.M.M.M.M.M.M.M.M.M.M.M.M.M.M.M.M.M.M.M.M.M.M.",
"M.M.M.M.M.M.M.M.M.M.M.M.M.M.M.M.M.M.M.M.M.M.M.M.M.M.M.M.N.b.N.M.M.M.M.M.M.M.M.M.M.M.M.M.M.M.M.M.M.M.M.M.M.M.M.M.M.M.M.M.M.M.M.M.",
"M.M.M.M.M.M.M.M.M.M.M.M.M.M.N.D.M.M.M.M.M.M.M.M.M.M.M.M.M.M.M.M.M.M.M.M.M.M.M.M.M.M.M.M.M.M.M.M.M.M.M.M.M.M.M.M.M.M.M.M.M.M.M.M.",
"M.M.M.M.M.M.M.M.M.M.M.M.M.M.M.M.M.M.M.M.M.M.M.M.M.M.M.M.M.M.M.M.M.M.M.M.M.M.M.M.M.M.M.M.M.M.M.M.M.M.M.M.M.M.M.M.M.M.M.M.M.M.M.M."
};
