/* XPM */
static char *B81721604126[] = {
/* columns rows colors chars-per-pixel */
"64 64 223 2 ",
"   c #764F3A",
".  c #77513C",
"X  c #7A543E",
"o  c #35384B",
"O  c #363A4C",
"+  c #383A48",
"@  c #3B4053",
"#  c #45454B",
"$  c #404657",
"%  c #4B4C54",
"&  c #454A5B",
"*  c #494D5C",
"=  c #504F58",
"-  c #4D505E",
";  c #585556",
":  c #53545C",
">  c #5B5A5E",
",  c #615247",
"<  c #7A5640",
"1  c #7E5942",
"2  c #625D5B",
"3  c #66625D",
"4  c #7D6652",
"5  c #494E61",
"6  c #4E5363",
"7  c #4E566A",
"8  c #525664",
"9  c #545865",
"0  c #5C5D62",
"q  c #555C6C",
"w  c #595F70",
"e  c #5B6374",
"r  c #5E6779",
"t  c #5F687A",
"y  c #636263",
"u  c #686665",
"i  c #6D6B6A",
"p  c #736C62",
"a  c #797368",
"s  c #646B77",
"d  c #626B7D",
"f  c #6E737B",
"g  c #767677",
"h  c #835D44",
"j  c #86634A",
"k  c #8A664B",
"l  c #976646",
"z  c #966B4B",
"x  c #996D4C",
"c  c #9D714F",
"v  c #8E7056",
"b  c #977556",
"n  c #9E7452",
"m  c #9D7C5B",
"M  c #A57A54",
"N  c #A57D59",
"B  c #B57D52",
"V  c #8D7C68",
"C  c #837F71",
"Z  c #A8835C",
"A  c #BA8658",
"S  c #8C836D",
"D  c #958369",
"F  c #9B8B6D",
"G  c #8B8778",
"H  c #978B74",
"J  c #948E7B",
"K  c #9D957E",
"L  c #A88965",
"P  c #B18D65",
"I  c #AC936C",
"U  c #B9986C",
"Y  c #A18F72",
"T  c #A59779",
"R  c #B79C73",
"E  c #B9A277",
"W  c #BBA47D",
"Q  c #C1905F",
"!  c #C39463",
"~  c #C49866",
"^  c #C59C6A",
"/  c #C89C68",
"(  c #C69A70",
")  c #C6A26F",
"_  c #CDA36D",
"`  c #D1A76E",
"'  c #C6A877",
"]  c #CAAC7A",
"[  c #D3AB72",
"{  c #D3AB74",
"}  c #CFB078",
"|  c #DAB375",
" . c #D3B37C",
".. c #D8B479",
"X. c #DEBA7D",
"o. c #E2BD7C",
"O. c #E3C07E",
"+. c #666F80",
"@. c #667182",
"#. c #697385",
"$. c #6B7688",
"%. c #6E798B",
"&. c #717C8D",
"*. c #737F91",
"=. c #7E8086",
"-. c #768294",
";. c #788497",
":. c #798699",
">. c #7C899C",
",. c #7E8CA0",
"<. c #888889",
"1. c #9B9584",
"2. c #828D9B",
"3. c #8D959E",
"4. c #999A9A",
"5. c #A49C85",
"6. c #B19E83",
"7. c #A29D98",
"8. c #ABA287",
"9. c #B6A986",
"0. c #B9AC8C",
"q. c #BAB38C",
"w. c #A5A29C",
"e. c #AAA49A",
"r. c #ADA899",
"t. c #B5AC93",
"y. c #B7AC95",
"u. c #B4AD9B",
"i. c #BCB295",
"p. c #B6B09E",
"a. c #BBB39C",
"s. c #808EA1",
"d. c #8493A4",
"f. c #8796A7",
"g. c #8897A9",
"h. c #8C9BAD",
"j. c #9A9DA3",
"k. c #8E9FB0",
"l. c #A09EA0",
"z. c #90A0AF",
"x. c #8FA0B1",
"c. c #93A4B4",
"v. c #97A7B7",
"b. c #97A8B8",
"n. c #9AACBC",
"m. c #9EB0BF",
"M. c #A6A4A5",
"N. c #A9A6A4",
"B. c #ADAAA5",
"V. c #A7A6AB",
"C. c #A8A7AA",
"Z. c #ADABA9",
"A. c #B2ADA3",
"S. c #B1AEAA",
"D. c #B6B1A4",
"F. c #BBB4A3",
"G. c #B8B6AA",
"H. c #A8B1B5",
"J. c #B7B9B5",
"K. c #BCBBB3",
"L. c #C5AD83",
"P. c #C0AF88",
"I. c #CCB483",
"U. c #C4B38A",
"Y. c #C9B788",
"T. c #CAB58A",
"R. c #D2B483",
"E. c #D8BA84",
"W. c #C3B594",
"Q. c #C7BA98",
"!. c #C4B99C",
"~. c #D5BD96",
"^. c #C5BDA7",
"/. c #DEC086",
"(. c #DCC58C",
"). c #D9C796",
"_. c #D5C999",
"`. c #E4C485",
"'. c #E4C98A",
"]. c #E6CB8D",
"[. c #E8D08B",
"{. c #E6CE93",
"}. c #E5CC97",
"|. c #EBD292",
" X c #ECD597",
".X c #E3D39B",
"XX c #EDDA9B",
"oX c #F1DA97",
"OX c #F2DD9B",
"+X c #F4E69C",
"@X c #F9F09B",
"#X c #CEC4A4",
"$X c #D6C6A6",
"%X c #C6C5B9",
"&X c #DBD1B4",
"*X c #EADBA4",
"=X c #E6D7AF",
"-X c #EDE0A2",
";X c #F4E4A3",
":X c #F7E7A7",
">X c #FAEAA5",
",X c #F6E8AA",
"<X c #FAECAA",
"1X c #F7EBB8",
"2X c #9FB1C0",
"3X c #A0B2C1",
"4X c #BCC5C8",
"5X c #C7CBC8",
"6X c #D8D6C8",
"7X c #D4D8D3",
"8X c #DFE1D7",
"9X c #EDE2C0",
"0X c #F6ECC7",
"qX c #FAF1C7",
"wX c #EAE9D8",
"eX c #F5EDD3",
"rX c #F0EDD9",
"tX c #F6F1D5",
"yX c #F8F2D6",
"uX c #FAF4DB",
"iX c #FBF7E2",
"pX c #F8F6E8",
"aX c #FCFBF4",
/* pixels */
"V.V.V.V.V.V.V.V.V.V.V.V.V.V.V.V.V.V.V.V.V.V.V.V.V.V.V.V.V.V.V.V.V.V.V.V.V.V.V.V.V.V.V.V.V.V.V.V.V.V.V.V.V.V.V.V.V.V.V.V.V.V.V.V.",
"V.V.V.V.V.V.V.V.V.V.V.V.V.V.V.V.V.V.V.V.V.V.V.V.V.V.V.V.V.V.V.V.V.V.V.V.V.V.V.V.V.V.V.V.V.V.V.V.V.V.V.V.V.V.V.V.V.V.V.V.V.V.V.V.",
"V.V.V.V.V.V.V.V.V.V.V.V.V.V.V.V.V.V.V.V.V.V.V.V.V.V.V.V.V.V.V.V.V.V.V.V.V.V.V.V.V.V.V.V.V.V.V.V.V.V.V.V.V.V.V.V.V.V.V.V.V.H.V.V.",
"V.V.V.V.V.V.V.V.V.V.V.V.V.V.V.V.V.V.V.V.V.V.V.V.V.V.V.V.V.V.V.V.V.V.V.H.V.V.V.V.V.V.V.V.V.V.V.V.V.V.V.V.V.V.V.V.V.V.V.V.V.V.V.V.",
"V.V.V.V.V.V.V.V.V.V.V.V.V.V.V.V.V.V.V.V.V.V.V.V.V.V.V.V.V.V.V.V.V.V.V.V.V.V.V.V.V.V.Z.V.V.V.V.V.V.V.V.V.V.V.V.V.V.V.V.V.V.V.V.V.",
"V.V.V.V.V.V.V.V.V.V.V.V.V.V.V.V.V.V.V.V.V.V.V.V.V.V.V.V.V.V.V.V.V.V.V.V.V.V.V.V.V.V.V.V.V.V.V.V.V.V.V.V.V.V.V.V.V.V.V.V.V.V.V.V.",
"V.V.V.V.V.V.V.V.V.V.V.V.V.V.V.V.V.V.V.V.V.V.V.V.V.V.V.V.V.V.V.V.V.V.V.V.V.V.V.V.V.V.V.V.V.V.V.V.V.V.V.V.V.V.V.V.V.V.V.V.V.V.V.V.",
"V.V.V.V.V.V.V.V.V.V.V.V.V.V.V.V.V.V.V.V.V.V.V.V.V.V.V.V.V.V.V.V.V.V.V.V.V.V.V.V.V.V.V.V.V.V.V.V.V.V.V.V.V.V.V.V.V.V.V.V.V.V.V.V.",
"V.V.V.V.V.V.V.V.V.V.V.V.V.V.V.V.V.V.V.V.V.V.V.V.V.V.V.V.V.V.V.V.V.V.V.V.V.V.V.V.V.V.V.V.V.V.V.V.V.V.V.V.V.V.V.V.V.V.V.V.V.V.V.V.",
"V.V.V.V.V.V.V.V.V.V.V.V.V.V.V.V.V.V.V.V.V.V.V.V.V.V.V.V.V.V.V.V.V.V.V.V.V.V.V.V.V.V.V.V.V.V.V.V.V.V.V.V.V.V.V.V.V.V.V.V.V.V.V.V.",
"V.V.V.V.V.V.V.V.V.V.V.V.V.V.V.V.V.V.V.V.V.V.V.V.V.V.V.V.V.V.V.V.V.V.V.V.V.V.V.V.V.V.V.V.V.V.V.V.V.V.V.V.V.V.V.V.V.V.V.V.V.V.V.V.",
"V.V.V.V.V.V.V.V.V.V.V.V.V.V.V.V.V.V.V.V.V.V.V.V.V.V.V.V.V.V.V.V.V.V.V.V.V.V.V.V.V.V.V.V.V.V.V.V.V.V.V.V.V.V.V.V.V.V.V.V.V.V.V.V.",
"V.V.V.V.V.V.V.V.V.V.V.V.V.V.V.V.V.V.V.V.V.V.V.V.V.V.V.V.V.V.V.V.V.V.V.V.V.V.V.V.V.V.V.V.V.V.V.V.V.V.V.V.V.V.V.V.V.V.V.V.V.V.V.V.",
"V.V.V.V.V.V.V.V.V.V.V.V.V.V.V.V.V.V.V.V.V.V.V.V.V.V.V.V.V.V.V.V.V.V.V.V.V.V.V.V.V.V.V.V.V.V.V.V.V.V.V.V.V.V.V.V.V.V.V.V.V.V.V.V.",
"V.V.V.V.V.V.V.V.V.V.V.V.V.V.V.V.V.V.V.V.V.V.V.V.V.V.V.V.V.V.V.V.V.C.V.V.V.V.V.V.V.V.V.V.V.V.V.V.V.V.V.V.V.V.V.V.V.V.V.V.V.V.V.V.",
"V.V.V.V.V.V.V.V.V.V.V.V.V.V.V.V.V.V.V.V.V.V.V.V.V.V.V.V.V.V.V.V.V.V.V.V.V.V.V.V.V.V.V.V.V.V.V.V.V.V.V.V.V.V.V.V.V.V.V.V.V.V.V.V.",
"V.V.V.V.V.V.V.V.V.V.V.V.V.V.V.V.V.V.V.V.V.V.V.V.V.V.V.V.V.V.V.V.V.V.V.V.V.V.V.V.V.V.V.V.V.V.V.V.V.V.V.V.V.V.V.V.V.V.V.V.V.V.V.V.",
"V.V.V.V.V.V.V.V.V.V.V.V.V.V.V.V.V.V.V.V.V.V.V.V.V.V.V.V.V.V.V.V.V.V.V.V.V.V.V.V.V.V.V.V.V.V.V.V.V.V.V.V.V.V.V.V.V.V.V.V.V.V.V.V.",
"V.V.V.V.V.V.V.V.V.V.V.V.V.V.V.V.V.V.V.V.V.V.V.l.<.l.V.V.V.V.V.V.V.V.V.V.V.V.V.V.V.V.V.V.V.V.V.V.V.V.V.V.V.V.V.V.V.V.V.V.V.V.V.V.",
"V.V.V.V.V.V.V.V.V.V.V.V.V.V.V.V.V.V.V.V.V.V.V.7.D 1.V.V.V.V.V.V.V.V.V.V.V.V.V.V.V.V.V.V.V.V.V.V.V.V.V.V.V.V.V.V.V.V.V.V.V.V.V.V.",
"V.V.V.V.V.V.V.V.V.V.V.V.V.V.V.V.V.V.V.V.V.V.V.l.K 1.V.V.V.V.V.V.V.V.V.V.V.V.V.V.V.V.V.V.V.V.V.V.V.V.V.V.V.V.V.V.V.V.V.V.V.V.V.V.",
"V.V.H.V.V.V.V.V.V.V.V.V.V.V.V.V.V.V.V.V.V.V.V.V.V.l.l.J.^.Z.V.V.V.V.V.V.V.V.V.V.V.V.V.V.V.V.V.V.V.V.V.V.V.V.V.V.V.V.V.V.V.V.V.V.",
"V.V.V.V.V.V.V.V.V.V.V.V.V.V.j.4.V.V.V.V.V.V.V.V.V.V.V.6XiX%XV.V.V.V.V.V.V.V.V.V.V.V.V.V.V.V.V.V.V.V.V.V.V.V.V.V.V.V.V.V.V.V.V.V.",
"V.V.V.V.V.V.V.V.V.V.V.V.V.V.j.<.l.V.V.V.V.V.V.V.V.V.V.^.6XJ.V.V.V.V.V.V.V.V.V.V.V.V.V.V.V.N.M.N.G.S.V.V.V.V.V.V.V.V.V.V.V.V.V.V.",
"V.V.V.V.V.V.V.V.V.V.V.V.V.V.V.V.V.V.V.V.V.V.V.V.V.V.V.C.V.V.V.V.V.V.V.V.V.V.V.V.C.M.M.N.w.e.9.] L.' y.l.V.V.V.V.V.V.V.V.V.V.V.V.",
"V.V.V.V.V.V.V.V.V.V.V.V.V.C.C.V.V.V.V.V.V.V.V.V.V.V.V.V.l.A.F.!.!.D.N.e.u.D.a.a.F.W.W.0.9.9.m z x l N 6.7.V.V.V.V.V.V.V.V.V.V.V.",
"V.V.V.V.V.V.V.V.V.V.V.V.V.M.l.M.V.V.V.V.V.V.M.M.B.B.B.u.8.R U P Z P 0.8.5.J G C i i y 0 9 0 4 ' (.] c c 6.w.V.V.V.V.V.V.V.V.V.V.",
"V.V.V.V.V.V.V.V.V.V.V.V.B.!.T.T.y.A.u.y.y.!.W.i.i.8.1.1.H x M N Z x 4 : 8 8 q e s @.%.*.>.>.f i.*X=XR.n N W.V.V.V.V.V.V.V.V.V.V.",
"V.V.V.V.V.V.V.V.V.V.V.l.6.N M z M T H C i i y 0 : 9 9 q i L (.{. XU.1.d.g.c.c.v.n.2X2X2X2Xb.g.5XaXiX=XP N W.l.V.V.V.V.V.V.V.V.V.",
"V.V.V.V.V.V.V.V.V.V.V.6.M M ( U j 2 q e s +.$.*.>.2.g.c.v.#X.X1XeX=XJ.n.3X3X3Xm.3X3X2X2X2Xc.:.G.0XqX0X' n P.l.V.V.V.V.V.V.V.V.V.",
"V.V.V.V.V.V.V.V.V.l.6.N M R.|.).C 2.k.v.b.2X2X2X2X2X3X2Xm.%X>XqXaXpXH.b.3Xn.n.n.b.b.c.f.&.+.w 1.:X<X<X' c T.l.V.V.V.V.V.V.V.V.V.",
"V.V.V.V.V.V.V.V.V.Z.9.x ] *XeXwXg.d.n.3X3X3X2X2X2X2X2Xn.z.G.<X<XeXeX4.$.:.h.h.c.k.k.f.h.f.f.&.G ;X>X<XR.x R.V.V.V.V.V.V.V.V.V.V.",
"V.V.V.V.V.V.V.V.V.S.T.z E.eXiXuX4.>.g.k.b.c.c.c.c.c.h.*.#.4.,X1X,X;Xr.d.k.n.n.m.2Xn.h.c.b.s.#.a (.OX:X] z ] l.V.V.V.V.V.V.V.V.V.",
"V.V.V.V.V.V.V.V.V.C.T.x T.1X,X,XG e @.%.,.d.k.c.x.b.n.c.z.M..XXX|.'.5.d.c.k.h.f.s.>.-.%.$.e - u  .`.`._ z ' e.V.V.V.V.V.V.V.V.V.",
"V.V.V.V.V.V.V.V.V.N.Q.c L.<X<X>XH $.h.b.n.k.n.n.b.c.v.c.f.<. .| { [ D s d d s e e t d d @.$.w 0 ' o.o.[ x ' u.C.V.V.V.V.V.V.V.V.",
"V.V.V.V.V.V.V.V.V.V.!.n ( >X>XoXY e #.d.,.>.-.-.$.@.d e w p R ` R.$X~.a s &.*.:.>.:.>.:.-.-.e % N ` o.| x ( F.C.V.V.V.V.V.V.V.V.",
"V.V.V.V.V.V.V.V.V.C.#XN N [.oX`.I % 6 r e t d +.#.$.%.$.g 0.1X0XyXaXpX$XC d @.+.r w w q 6 6 : ; m ! o.| c P ^.C.V.V.V.V.V.V.V.V.",
"V.V.V.V.V.V.V.V.V.V.^.Z M ..O.o.I % s :.:.>.>.>.:.:.*.+.<.*XyXuXqXpXaXyXT * 8 0 u i g G J 5.Y 9.(.o.o.o.B P ^.V.V.V.V.V.V.V.V.V.",
"V.V.V.V.V.V.V.V.V.V.^.P M ..o.| Z : q d t e e q 8 6 6 6 G :X1X*X X|.0XyXT.v R )..X*X-X;X;X].E.].E.` _ { ~.Q.=XV.V.V.V.V.V.V.V.V.",
"V.V.V.V.V.V.V.V.V.V.G.R x { o.! M ; : 0 0 G q.q.9.5.K b I >X;X^ A A |.1X}.A ` `.E.E...` _ / ~ ~ Q B B / eXuXuXK.V.V.V.V.V.V.V.V.",
"V.V.V.V.V.V.V.V.V.V.G.' z { o.|  .U.W I..X-X>X@X@X+X/.Q ! +X>X~ B B E.<X X~ ~ ~ ) ' ^ U I I _.*X~.! B ( eXuXiX^.V.V.V.V.V.V.V.V.",
"V.V.V.V.V.V.V.V.V.V.A.L.l _ X.X.X.].`.` ..].>X>X[.) ~ ~ ` ;X>X_ B B ..:X.XS a p S T.9.3 : : %XiXuXR.! { 9XeXuX%XZ.V.V.V.V.V.V.V.",
"V.V.V.V.V.V.V.V.V.V.S.L.h B A A A ~ ^ / U ' I.0.E Y F S D  XXX` A A ` `.L.> 6 q 1.>X+X<.9 q 4XiXuX}.o.o.' &XuXuX6XV.V.V.V.V.V.V.",
"V.V.V.V.V.V.V.V.V.V.V.U.  l B B A Z a p 3 3 > : : - - 6 8 T E./.` ` E.} V e >.g.4X1X1XK.>.-.2.4.l.).o.o.) #XuXuX6XZ.V.V.V.V.V.V.",
"V.V.V.V.V.V.V.V.V.V.V.W.X l B A A v % & % * r +.$.-.-.>.#.0 F  . .{ ' D : %.c.n.7XuXuXJ.-.#.e @ 0 T.`.].E.#XtXtX6XV.V.V.V.V.V.V.",
"V.V.V.V.V.V.V.V.V.V.V.!.1 x ^ { | D * * d @.d.c.b.x.x.b.g.t : 3 y 0 > : q :.g.h.4X8X8Xj.@.@.+.5 9 ).>X>X.Xm 9.^.S.V.V.V.V.V.V.V.",
"V.V.V.V.V.V.V.V.V.V.V.!.k x X.o.o.I * * &.;.d.c.b.h.h.x.h.>.d r d &.-.>.g.c.n.n.m.m.m.z.>.,.,.+.9 Q.>X>XXXk m a.V.V.V.V.V.V.V.V.",
"V.V.V.V.V.V.C.C.N.V.V.!.v k ..O.o.R : & e t d ;.h.b.b.b.b.b.n.n.n.m.m.m.3X2X2X2Xm.m.m.c.-.%.%.t 6 6.|.].].z b !.V.V.V.V.V.V.V.V.",
"V.V.V.V.V.V.u.i.0.r.V.F.m j (.oXOX/.= 6 -.:.,.h.n.2X2X2Xm.m.m.m.m.m.b.c.c.c.c.z.x.g.h.f.$.t t 6 * 8.;X>X>Xm k !.C.V.V.V.V.V.V.V.",
"V.V.V.V.V.V.a.U.U.u.V.F.L j  X>X>X.X> e -.>.>.g.b.b.c.c.x.x.h.h.h.h.h.h.c.c.c.v.n.n.n.n.b.d.:.d * 5.>X>X>XL h Q.C.V.V.V.V.V.V.V.",
"V.V.V.V.V.V.y.T.U.y.C.G.R 1 (.+X+X).3 6 e d t -.h.x.x.c.b.b.n.n.m.n.m.m.n.n.n.n.v.c.v.f.%.d e q & 1.;X;X>XP 1 T.C.C.V.V.V.V.V.V.",
"V.V.V.V.V.V.A.a.i.B.C.S.W . ]  XXX[.i 7 d >.f.b.n.n.m.m.n.b.b.c.b.c.m.b.h.h.x.n.c.k.h.,.%.d t 6 $ i E.} ) b < U.B.C.V.V.V.V.V.V.",
"V.V.V.V.V.V.V.V.V.V.V.S.q.. I.>X<X+Xa =.7X7X6X3.,.h.h.x.n.x.z.z.b.b.b.c.z.g.f.>.>.-.#.t - O O + o + < < . . b r.V.V.V.V.V.V.V.V.",
"V.V.V.V.V.V.V.V.V.V.V.C.U.. ' <X<X-XS <.uXuXrX3.:.f.z.g.g.,.:.-.-.@.r e 7 * @ @ O O + o + # % ; 2 p L I R 9.t.N.V.V.V.V.V.V.V.V.",
"V.V.V.V.V.V.V.V.V.V.C.N.W.X I OX|.[.S <.pXuXrXf e q 7 * @ @ @ @ + @ o @ % ; 3 a S J K 8.9.t.i.a.!.a.u.u.B.Z.B.V.V.V.V.V.V.V.V.V.",
"V.V.V.V.V.V.V.V.V.V.C.C.Q.j h Z Z v , y J.K.G.0 @ @ % ; 3 a a S J K 8.q.i.i.u.p.A.D.D.N.N.N.C.V.C.C.V.V.C.C.V.V.V.V.V.V.V.V.V.V.",
"V.V.V.V.V.V.V.V.V.V.V.V.e.L < 1 1 k 4 p C J K 8.8.q.i.a.q.r.r.r.r.B.M.M.C.V.M.V.V.V.V.V.V.V.V.V.V.V.V.V.V.V.V.V.V.V.V.V.V.V.V.V.",
"V.V.V.V.V.V.V.V.V.V.V.V.M.w.0.i.Q.i.i.a.G.p.S.B.N.C.C.M.M.M.V.C.V.V.V.V.V.V.V.V.V.V.V.V.V.V.V.V.V.V.V.V.V.V.V.V.V.V.V.V.V.V.V.V.",
"V.V.V.V.V.V.V.V.V.V.V.V.V.V.N.V.C.V.V.M.C.V.V.V.H.C.C.p.p.p.N.M.V.V.V.V.V.V.V.V.V.V.V.V.V.V.V.V.V.V.V.V.V.V.V.V.V.V.V.V.V.V.V.V.",
"V.V.V.V.V.V.V.V.V.C.V.V.V.V.V.V.C.V.V.V.C.V.V.V.V.M.N.-X+X+Xi.V.V.V.V.V.V.V.V.V.V.V.V.V.V.V.V.V.V.V.V.V.V.V.V.V.V.V.V.V.V.V.V.V.",
"V.V.V.V.V.V.V.V.V.V.V.V.V.V.V.V.V.V.V.V.V.V.V.V.V.V.Z.-X@X@XQ.V.V.V.V.V.V.V.V.V.V.V.V.V.V.V.V.V.V.V.V.V.V.V.V.V.V.V.V.V.V.V.V.V.",
"V.V.V.V.V.V.V.V.V.V.V.V.V.V.V.V.V.V.V.V.V.V.V.V.V.V.N.-X+X@XQ.M.V.V.V.V.V.V.V.V.V.V.V.V.V.V.V.V.V.V.V.V.V.V.V.V.V.V.V.V.V.V.V.V.",
"V.V.V.V.V.V.V.V.V.V.V.V.V.V.V.V.V.V.V.V.V.V.V.V.V.V.V.S.D.D.B.V.V.V.V.V.V.V.V.V.V.V.V.V.V.V.V.V.V.V.V.V.V.V.V.V.V.V.V.V.V.V.V.V.",
"V.V.V.V.V.V.V.V.V.V.V.V.V.V.V.V.V.C.V.V.V.V.V.V.V.V.V.V.V.V.V.V.V.V.V.V.V.V.V.V.V.V.V.V.V.V.V.V.V.V.V.V.V.V.V.V.V.V.V.V.V.V.V.V."
};
