/* XPM */
static char *B91721604126[] = {
/* columns rows colors chars-per-pixel */
"64 64 212 2 ",
"   c #32333B",
".  c #3A393E",
"X  c #60473A",
"o  c #754E3A",
"O  c #77523D",
"+  c #7B543E",
"@  c #383A45",
"#  c #4B4848",
"$  c #524643",
"%  c #454856",
"&  c #464A5B",
"*  c #4B4E5C",
"=  c #4E515E",
"-  c #52535E",
";  c #5A585B",
":  c #7C5B43",
">  c #665E5B",
",  c #64625E",
"<  c #7A6554",
"1  c #4A4F60",
"2  c #4E5362",
"3  c #525662",
"4  c #565965",
"5  c #5B5C63",
"6  c #515768",
"7  c #545B6B",
"8  c #605E60",
"9  c #5E616A",
"0  c #5C6475",
"q  c #5F6779",
"w  c #646162",
"e  c #686668",
"r  c #6A6B6D",
"t  c #746E67",
"y  c #79746C",
"u  c #666B74",
"i  c #636B7C",
"p  c #7B7A76",
"a  c #835C43",
"s  c #8A5E42",
"d  c #896449",
"f  c #946B4C",
"g  c #9B6D4B",
"h  c #9C714F",
"j  c #846C58",
"k  c #936E51",
"l  c #9C7352",
"z  c #987859",
"x  c #A6734C",
"c  c #A07652",
"v  c #A47B55",
"b  c #A37D59",
"n  c #B57F52",
"m  c #887B67",
"M  c #907F64",
"N  c #817D73",
"B  c #7F807D",
"V  c #AB855E",
"C  c #B78154",
"Z  c #BA8658",
"A  c #98856A",
"S  c #8B8576",
"D  c #968B73",
"F  c #9D947A",
"G  c #AC8963",
"H  c #A78A68",
"J  c #B58E63",
"K  c #A4906F",
"L  c #AD926D",
"P  c #B4956C",
"I  c #B99568",
"U  c #AB9877",
"Y  c #B69C76",
"T  c #B9A27A",
"R  c #C69967",
"E  c #C99C67",
"W  c #C49E6D",
"Q  c #CEA46E",
"!  c #D1A76E",
"~  c #C7A878",
"^  c #D4AC73",
"/  c #D8B377",
"(  c #D4B37B",
")  c #DCB97D",
"_  c #E1BC7C",
"`  c #E3C07E",
"'  c #666F80",
"]  c #677082",
"[  c #6A7485",
"{  c #6C7689",
"}  c #6E798B",
"|  c #757A83",
" . c #727C8D",
".. c #727E91",
"X. c #7D8388",
"o. c #768294",
"O. c #798596",
"+. c #778598",
"@. c #798699",
"#. c #7C899C",
"$. c #7F8DA1",
"%. c #8A8985",
"&. c #989383",
"*. c #858E9B",
"=. c #8E939A",
"-. c #999B9B",
";. c #A59A84",
":. c #A39E9A",
">. c #9EA099",
",. c #AEA589",
"<. c #B7A787",
"1. c #BCAC8D",
"2. c #A4A29C",
"3. c #A9A79B",
"4. c #AAA69B",
"5. c #B7AD92",
"6. c #B2AB9B",
"7. c #BCB295",
"8. c #BBB29B",
"9. c #B8B89D",
"0. c #818EA1",
"q. c #8492A4",
"w. c #8A95A4",
"e. c #8897A9",
"r. c #8C9BAD",
"t. c #929BA7",
"y. c #9C9DA4",
"u. c #8F9FB0",
"i. c #99A1A9",
"p. c #8FA0B2",
"a. c #93A3B4",
"s. c #99A8B6",
"d. c #97A9B9",
"f. c #9BACBC",
"g. c #9FB0BF",
"h. c #A5A4A5",
"j. c #A9A6A3",
"k. c #A6A8A4",
"l. c #ADAAA4",
"z. c #A7A6AB",
"x. c #A8A7A9",
"c. c #ABAAAA",
"v. c #B1ADA5",
"b. c #B0AEAA",
"n. c #B5B1A4",
"m. c #BBB4A3",
"M. c #B3B1AC",
"N. c #BAB7A9",
"B. c #A4AFB5",
"V. c #AAB4B5",
"C. c #A4B2BB",
"Z. c #B8B9B2",
"A. c #C4AC86",
"S. c #C9B587",
"D. c #C4B28C",
"F. c #D4BA86",
"G. c #DBBC81",
"H. c #C8B894",
"J. c #C1B59C",
"K. c #C5BA9C",
"L. c #D1B891",
"P. c #C4BAA2",
"I. c #C7BCA1",
"U. c #DEC086",
"Y. c #DBC68E",
"T. c #CDC497",
"R. c #D8C897",
"E. c #E2C284",
"W. c #E4CA8B",
"Q. c #E7CB8A",
"!. c #E8D28D",
"~. c #E5CD92",
"^. c #E3CB9D",
"/. c #ECD494",
"(. c #EED894",
"). c #E3D59D",
"_. c #EBD59F",
"`. c #EDDA9C",
"'. c #F0DE92",
"]. c #F1DD9B",
"[. c #F4E59C",
"{. c #F9EE9C",
"}. c #FAF09C",
"|. c #CAC1A5",
" X c #D9CAA7",
".X c #D8D1A2",
"XX c #E8D8A5",
"oX c #EBDCB0",
"OX c #EDE3A6",
"+X c #F4E3A3",
"@X c #FAEBA5",
"#X c #F2E5AA",
"$X c #F7E9AC",
"%X c #FBECAA",
"&X c #ECE1BE",
"*X c #F9EDB8",
"=X c #9FB1C0",
"-X c #A0B1C0",
";X c #D5D2C6",
":X c #E3DCC4",
">X c #ECE2C5",
",X c #F4EAC5",
"<X c #F2EACE",
"1X c #FAF1C4",
"2X c #F9F1CE",
"3X c #EBE9D5",
"4X c #F2EDD4",
"5X c #F9F2D5",
"6X c #F4F1DC",
"7X c #FAF5DD",
"8X c #FBF7E0",
"9X c #FBF8E6",
/* pixels */
"z.z.z.z.z.z.z.z.z.z.z.z.z.z.z.z.z.z.z.z.z.z.z.z.z.z.z.z.z.z.z.z.z.z.z.z.z.z.z.z.z.z.z.z.z.z.z.z.z.z.z.z.z.z.z.z.z.z.z.z.z.z.z.z.",
"z.z.z.z.z.z.z.z.z.z.z.z.z.z.z.z.z.z.z.z.z.z.z.z.z.z.z.z.z.z.z.z.z.z.z.z.z.z.z.z.z.z.z.z.z.z.z.z.z.z.z.z.z.z.z.z.z.z.z.z.z.z.z.z.",
"z.z.z.z.z.z.z.z.z.z.z.z.z.z.z.z.z.z.z.z.z.z.z.z.z.z.z.z.z.z.z.z.z.z.z.z.z.z.z.z.z.z.z.z.z.z.z.z.z.z.z.z.z.z.z.z.z.z.z.z.z.z.z.z.",
"z.z.z.z.z.z.z.z.z.z.z.z.z.z.z.z.z.z.z.z.z.z.z.z.z.z.z.z.z.z.z.z.z.z.z.z.z.z.z.z.z.z.z.z.z.z.z.z.z.z.z.z.z.z.z.z.z.z.z.z.z.z.z.z.",
"z.z.z.z.z.z.z.z.z.z.z.z.z.z.z.z.z.z.z.z.z.z.z.z.z.z.z.z.z.z.z.z.z.z.z.z.z.z.z.z.z.z.z.z.z.z.z.z.z.z.z.z.z.z.z.z.z.z.z.z.z.z.z.z.",
"z.z.z.z.z.z.z.z.z.z.z.z.z.z.z.z.z.z.z.z.z.z.z.z.z.z.z.z.z.z.z.z.z.z.z.z.z.z.z.z.z.z.z.z.z.z.z.z.z.z.z.z.z.z.z.z.z.z.z.z.z.z.z.z.",
"z.z.z.z.z.z.z.z.z.z.z.z.z.z.z.z.z.z.z.z.z.z.z.z.z.z.z.z.z.z.z.z.z.z.z.z.z.z.z.z.z.z.z.z.z.z.z.z.z.z.z.z.z.z.z.z.z.z.z.z.z.z.z.z.",
"z.z.z.z.z.z.z.z.z.z.z.z.z.z.z.z.z.z.z.z.z.z.z.z.z.z.z.z.z.z.z.z.y.=.z.z.z.z.z.z.z.z.z.z.z.z.z.z.z.z.z.z.z.z.z.z.z.z.z.z.z.z.z.z.",
"z.z.z.z.z.z.z.z.z.z.z.z.z.z.z.z.z.z.z.z.z.z.z.z.z.z.z.z.z.z.z.z.y.=.z.z.z.z.z.z.z.z.z.z.z.z.z.z.z.z.z.z.z.z.z.z.z.z.z.z.z.z.z.z.",
"z.z.z.z.z.z.z.z.z.z.z.z.z.z.z.z.z.z.z.z.z.z.z.z.z.z.z.z.z.z.z.z.z.h.z.z.z.z.z.z.z.z.z.z.z.z.z.z.z.z.z.z.z.B.z.z.z.z.z.z.z.z.z.z.",
"z.z.z.z.z.z.z.z.z.z.z.z.z.z.z.z.z.z.z.z.z.z.z.z.z.z.z.z.z.z.z.z.z.z.z.z.z.z.z.z.z.z.z.z.z.z.z.z.z.z.z.z.z.z.z.z.z.z.z.z.z.z.z.z.",
"z.z.z.z.z.z.z.z.z.z.z.z.z.z.z.z.z.z.z.z.z.z.z.z.z.z.z.z.z.z.z.z.z.z.z.z.z.z.z.z.z.z.z.z.z.z.z.z.z.z.z.z.z.z.z.z.z.z.z.z.z.z.z.z.",
"z.z.z.z.z.z.z.z.z.z.z.z.z.z.z.z.z.z.z.z.z.z.z.z.z.z.z.z.z.z.z.z.z.z.z.z.z.z.z.z.z.z.z.z.z.z.z.z.z.z.z.z.z.z.z.z.z.z.z.z.z.z.z.z.",
"z.z.z.z.z.z.z.z.z.z.z.z.z.z.z.z.z.z.z.z.z.z.z.z.z.z.z.z.z.z.z.z.z.z.z.z.z.z.z.z.z.z.z.z.z.z.z.z.z.z.z.z.z.z.z.z.z.z.z.z.z.z.z.z.",
"z.z.z.z.z.z.z.z.z.z.z.z.z.z.z.z.z.z.z.z.z.z.z.z.z.z.h.k.h.h.z.z.z.z.z.z.z.z.z.z.z.z.z.z.z.z.z.z.z.z.z.z.z.z.z.z.z.z.z.z.z.z.z.z.",
"z.z.z.z.z.z.z.z.z.z.z.z.z.z.z.z.z.z.z.z.z.z.z.z.z.z.h.3.2.z.z.z.z.z.z.z.z.z.z.z.z.z.z.z.z.z.z.z.z.z.z.z.z.z.z.z.z.z.z.z.z.z.z.z.",
"z.z.z.z.z.z.z.z.z.z.z.z.z.z.z.z.z.z.z.z.z.z.z.z.z.z.z.-.:.z.z.z.z.z.z.z.z.z.z.z.z.z.z.z.z.z.z.z.z.z.z.z.z.z.z.z.z.z.z.z.z.z.z.z.",
"z.z.z.z.z.z.z.z.z.z.z.z.z.z.z.z.z.z.z.z.z.z.z.z.z.z.z.z.z.z.z.z.z.z.z.z.z.z.z.z.z.z.z.z.z.z.z.z.z.z.z.z.z.z.z.z.z.z.z.z.z.z.z.z.",
"z.z.z.z.z.z.z.z.z.z.z.z.z.z.z.z.z.z.z.z.z.z.z.z.z.z.z.z.z.z.z.z.z.z.z.z.z.z.z.z.z.z.z.z.z.z.z.z.z.z.z.z.z.z.z.z.z.z.z.z.z.z.z.z.",
"z.z.z.z.z.z.z.z.z.z.z.z.z.z.z.z.z.z.z.z.z.z.z.z.z.z.z.z.z.z.z.z.z.z.z.z.z.z.z.z.z.z.z.z.z.z.z.z.z.z.z.z.z.z.z.z.z.z.z.z.z.z.z.z.",
"z.z.z.z.z.z.z.z.z.z.z.z.z.z.z.z.z.z.z.z.z.z.z.z.z.z.z.z.z.z.z.z.z.z.z.z.z.z.z.z.z.z.z.z.z.z.z.z.z.z.z.z.z.z.z.z.z.z.z.z.z.z.z.z.",
"z.z.z.z.z.z.z.z.z.z.z.z.z.z.z.z.z.z.z.z.z.z.z.z.z.z.z.z.z.z.z.z.z.z.z.z.z.z.z.z.z.z.z.z.z.z.z.z.z.z.z.z.z.z.z.z.z.z.z.z.z.z.z.z.",
"z.z.z.z.z.z.z.z.z.z.z.z.z.z.z.z.l.v.j.x.z.z.z.z.z.z.z.z.z.z.z.z.z.z.z.z.z.z.z.z.z.z.z.z.z.z.z.z.z.z.z.z.z.z.z.z.z.z.z.z.z.z.z.z.",
"z.z.z.z.z.z.z.z.z.z.z.z.z.z.z.j.<.A.S.L.l.x.z.z.h.z.z.z.z.z.z.z.z.z.z.z.z.z.z.z.z.z.z.z.z.z.z.z.z.z.z.z.z.z.z.z.z.z.z.z.z.z.z.z.",
"z.z.z.z.z.z.z.z.z.z.z.z.z.h.:.U v g g g T 7.7.7.5.6.6.3.k.k.c.h.v.n.m.b.h.h.z.z.z.z.z.z.z.z.z.z.z.z.z.z.z.z.z.z.z.z.z.z.z.z.z.z.",
"z.z.z.z.z.z.z.z.B.c.z.z.z.:.L l v G.F.z < ; 5 r t p S F ,.5.7.H.L I Y ~ 1.l.l.x.x.z.z.z.z.z.z.z.z.z.z.z.z.z.z.z.z.z.z.z.z.z.z.z.",
"z.z.z.z.z.z.z.z.z.z.z.z.h.1.c V G.oX^.S | O.o.[ i 0 7 4 3 3 4 j l c l f b Y ,.8.J.8.P.P.m.n.v.j.:.K.P.J.h.z.z.z.z.z.z.z.z.z.z.z.",
"z.z.z.z.z.z.z.z.z.z.z.z.z.D.h A.,X9X6Xi.r.d.g.g.f.d.a.a.e.*.#.%.~ ~.~.~ k > 3 3 7 e r N S &.;.,.P b G J ,.z.z.z.z.z.z.z.z.z.z.z.",
"z.z.z.z.z.z.z.z.z.z.z.z.c.D.g R.1X1X&X*.e.d.g.g.-X-X-X-X-X-X=XV.XXOX#XXX!.T.=.O. .{ i 0 7 4 3 3 j G n g b 3.z.z.z.z.z.z.z.x.x.z.",
"z.z.z.z.z.z.z.z.z.z.z.z.c.A.g ^.%X%X).r i o.q.a.d.f.f.g.=X-Xf.V.#X1X8X2X@X[.Z.g.=X=Xf.s.s.u.r.O.t L.^.~ f L :.x.z.z.z.z.B.x.z.z.",
"z.z.z.z.z.z.z.z.z.z.z.z.v.~ c _.%X%XL.u O.#.*.e.e.r.r.r.r.*.o.2.$X*X7X7X.X.XV.g.-X-X-X-X-X-X-Xu.w.:X,XXXJ l J.c.z.z.z.z.z.z.z.z.",
"z.z.z.z.z.z.z.z.z.z.z.z.l.Y h G.+X].T 9 o.a.d.r.d.g.f.f.d.u.#.3.$X*X*XOXB i *.p.a.a.s.f.f.f.s.q.w.3X8X,X~ g L.z.z.z.z.z.z.z.z.z.",
"z.z.z.z.z.z.z.z.z.z.z.x.n.P b E.!.Q.L = 2 ] o.o.#.q.e.r.a.a.r.6./._./.^.=.r.a.a.d.p.p.e.q.} ] 0 S #X*X*XD.v L.z.z.z.z.z.z.z.z.z.",
"z.z.z.z.z.z.z.z.z.z.z.z.N.J V [.}.!.A = ' ' ' q q q q q i ] u K / / ) ~ X.r.a.d.d.g.d.p.a.a.r.} %.#X%X%XW v K.z.z.z.z.z.z.z.z.z.",
"z.z.z.z.z.z.z.z.z.z.z.z.P.V V {.}.Q.< 2 [ o.#.#.@.#.o...{ 0 N <.( S.^ L 5 i ] { } +.#.+.q.e.#.i S XX%X@XI G K.h.j.j.h.z.z.z.z.z.",
"z.z.z.z.z.z.z.z.z.z.z.z.|.b I (.'.) < = = 2 6 9 0 q ' [ ] S R.1X1X2X6X:XD u  .] i q q 0 0 0 7 = F W.[.(.~ A.|.j.3.3.>.z.z.z.z.z.",
"z.z.z.z.z.z.z.z.z.z.z.x.K.c R E.` E.Y.U U F S y r w 5 - * ;.$X5X5X7X9X8XR.u  .+.o.#.+.+.+.+.{ 4 H.[.!.E.&X5X<Xn.3.3.>.z.z.z.z.z.",
"z.z.z.z.z.z.z.z.z.z.z.c.H.a x E Q ^ Q.E.E.].].XX`.).R.Y z S.%XXX~._.,X8XoX5 1 3 3 6 0 0 i [ i 4 T.{./.) &X7X4Xv.>.2.-.z.z.z.z.z.",
"z.z.z.z.z.z.z.z.z.z.z.v.A.O g n C Z R Q E Q Q ! ( ) ` Q Z E.%XU.Z Z G.,XXXz A U D B t e 5 - * - A.!.Q.^ L.:X;Xc.k.v.v.c.z.z.z.z.",
"z.z.z.z.z.z.z.z.z.z.z.v.T o x n C Z m 5. XXXR.T I Q I Q R /.%X( C n G.*X^.Z ^ `.+X+X].)..XS.T <.T.^.XX! h S.v.x.M.Z.Z.M.z.z.z.z.",
"z.z.z.z.z.z.z.z.z.z.z.b.P O R E R V ; k.9X9X>Xe 9 , e y D ).+X! n C E.%X!.R R Q Q ! ^ G.U./ U.(.<X8X5X~ g H.c.z.n.Z.Z.M.z.z.z.z.",
"z.z.z.z.z.z.z.z.z.z.z.N.H a ~ _ _ L = k.9X9X3X .q 0 9 3 4 S.Q.! Z Z / ].A.m A K L Y I Y W R R Q >X8X<XH d H.c.z.c.N.V.b.z.z.z.z.",
"z.z.z.z.z.z.z.z.z.z.z.m.z d ^ _ _ H * 2.8X6X3Xf.p.$.e.#.0 y ) ` Q ! _ ( m = 2 1 = 2 5 > e t m K L.^.L.k a J.z.z.z.z.z.z.z.z.z.z.",
"z.z.z.z.z.z.z.z.z.z.z.P.k k ~.!.Q.A * 9 X.*.i.d.d.u.f.a.o.= D T ~ ( ~ m u  .@.} } [ q 2 & % % t R Z n s d J.z.z.z.z.z.z.z.z.z.z.",
"z.z.z.z.z.z.z.z.z.z.z.P.d V +X%X+XD * 0 } { ..e.e.e.r.e.#.0 = ; ; 8 w 3  .r.f.r.a.d.r. .i 2 & S ^ ! E s k P.z.z.z.z.z.z.z.z.z.z.",
"z.z.z.z.z.z.z.z.z.z.z.8.: G XX@X].S 6 o.$.$.e.d.g.g.g.f.d.u.$.O. .[ i } #.r.r.e.a.a.e.+.o.7 * D G._ _ s z 8.z.z.z.z.z.z.z.z.z.z.",
"z.z.z.z.z.z.z.z.z.z.h.H.: L /.(.Y.t 1 q ' { q.d.d.g.g.g.g.g.g.g.g.=Xf.f.f.d.d.a.a.q.{ q 0 2 & U E.E.^ s A m.z.z.z.z.z.z.z.z.z.z.",
"z.z.z.z.z.z.z.z.z.z.c.1.: ~ @X@X/.t 2 q { } $.u.u.u.r.p.p.p.a.a.s.f.f.f.=X=X=X-X=Xa.$.#...4 = H.]./.G.: L N.z.z.z.z.z.z.z.z.z.z.",
"z.z.z.z.z.z.z.z.z.z.z.<.: S.%X%X)., 9 [ +.r.f.g.g.V.C.V.f.s.p.u.u.e.u.e.r.u.u.d.d.u.+.+.@.' 4 .X%X%XU.: Y b.z.z.z.z.z.z.z.z.z.z.",
"z.z.z.z.z.z.z.z.z.z.M.Y O F.+X+XR.; & 0 q i #.e.s..XOXOXN.s.g.g.=X=Xf.d.f.d.a.u.r.0.' 0 0 7 w R.].].F.O T v.z.z.z.z.z.z.z.z.z.z.",
"z.z.z.z.z.z.z.z.z.z.M.U o f V I A * % 3 0 i +.q.B.OX}.}.N.p.a.a.d.a.u.u.p.s.d.f.f.d.u.+.' 1 r R.].(.I O A.l.z.z.z.z.z.z.z.c.z.z.",
"z.z.z.z.z.z.z.z.z.z.z.6.z s + o X   @ @ @ @ 2 0 X.OX}.}.9.r.r.a.a.a.u.a.u.d.r.u.q.+.[ ' i 6 y OX@X@XY : D.z.z.z.z.z.z.z.z.z.z.z.",
"z.z.z.z.z.z.z.z.z.z.z.h.8.H.A.D.1.&.%.t > ; # @ # 7.T.T.n.i.y.y.t.*.w.t.t.w.r.r.q...' ] 7 1 p $X%X@XL a J.z.z.z.z.z.z.z.z.z.z.z.",
"z.z.z.z.z.z.z.z.z.z.z.z.z.z.z.Z.6X7X4Xm.5.8.7.5.,.9.m.8.n.n.b.k.z.z.h.h.z.i.h.y.=.4 % & % % p Y././.b k J.z.z.z.z.z.z.z.z.z.z.z.",
"z.z.z.z.z.z.z.z.z.z.z.z.z.z.z.Z.2X7X4Xc.z.h.z.z.l.v.l.n.P.P.|.I.I.K.P.m.8.6.v.l.:.> .       $ d f c a z K.z.z.z.z.z.z.z.z.z.z.z.",
"z.z.z.z.z.z.z.z.z.z.z.z.z.z.z.Z.3X4X3Xc.z.z.z.z.z.z.k.z.z.z.z.z.c.l.l.j.n.n.8.J.P.7.5.,.F D M k f a d ;.v.z.z.z.z.z.z.z.z.z.z.z.",
"z.z.z.z.z.z.z.z.z.z.z.z.z.z.z.z.M.M.M.z.z.z.z.z.z.z.z.z.z.z.z.z.c.z.z.z.z.z.z.z.c.z.v.v.b.n.m.J.J.H.7.x.z.z.z.z.z.z.z.z.z.z.z.z.",
"z.z.z.z.z.z.z.z.z.z.z.z.z.z.z.z.z.z.z.z.z.z.z.z.z.z.z.z.z.z.z.z.z.z.z.z.z.z.z.z.z.z.z.z.z.z.z.z.z.z.z.z.z.z.z.z.z.z.z.z.z.z.z.z.",
"z.z.z.z.z.z.z.z.z.z.z.z.z.z.z.z.z.z.z.z.z.z.z.z.z.z.z.z.z.z.z.z.z.z.z.z.z.z.z.z.z.z.z.z.z.z.z.z.z.z.z.z.z.z.z.z.z.z.z.z.z.z.z.z.",
"z.z.z.z.z.z.z.z.z.z.z.z.z.z.z.z.z.z.z.z.z.z.z.z.z.z.z.z.z.z.z.z.z.z.z.z.z.z.z.z.z.z.z.z.z.z.z.z.z.z.z.z.z.z.z.z.z.z.z.z.z.z.z.z.",
"z.z.z.z.z.z.z.z.z.z.z.z.z.z.z.z.z.z.z.z.z.z.z.z.z.z.h.y.h.h.z.z.z.z.z.z.z.z.z.z.z.z.z.z.z.z.z.z.z.z.z.z.z.z.z.z.z.z.z.z.z.z.z.z.",
"z.z.z.z.z.z.z.z.z.z.z.z.z.z.z.z.z.z.z.z.z.z.z.z.z.z.K.Y.T.5.z.z.z.z.z.z.z.z.z.z.z.x.z.z.z.z.z.z.z.z.z.z.z.z.z.z.z.z.z.z.z.z.z.z.",
"z.z.z.z.z.z.z.z.z.z.z.z.z.z.z.z.z.z.z.z.z.z.z.z.z.l.XX{.@XK.z.z.z.z.z.z.z.z.z.z.z.z.z.z.z.z.z.z.z.z.z.z.z.z.z.z.z.z.z.z.z.z.z.z.",
"z.z.z.z.z.z.z.z.z.z.z.z.z.z.z.z.z.z.z.z.z.z.z.z.z.x.XX{.{.J.z.z.z.z.z.z.z.z.z.z.z.z.z.z.z.z.z.z.z.z.z.z.z.z.z.z.z.z.z.z.z.z.z.z."
};
