/* XPM */
static char *B911721604127[] = {
/* columns rows colors chars-per-pixel */
"64 64 209 2 ",
"   c #7D553E",
".  c #383A46",
"X  c #3E4251",
"o  c #474448",
"O  c #5A554E",
"+  c #454A5B",
"@  c #4A4E5D",
"#  c #4D515F",
"$  c #5B5757",
"%  c #55565D",
"&  c #7E5942",
"*  c #61595A",
"=  c #69625A",
"-  c #796A5D",
";  c #4E5464",
":  c #525663",
">  c #565965",
",  c #5C5C63",
"<  c #545A6B",
"1  c #5A5F6D",
"2  c #585F70",
"3  c #615F61",
"4  c #5B616F",
"5  c #5B6273",
"6  c #5F6778",
"7  c #5F687A",
"8  c #646264",
"9  c #696767",
"0  c #746C65",
"q  c #797366",
"w  c #7C7569",
"e  c #616673",
"r  c #626B7C",
"t  c #6C7079",
"y  c #7C7A73",
"u  c #797876",
"i  c #865B3F",
"p  c #825C43",
"a  c #876248",
"s  c #8C6A4D",
"d  c #956A4A",
"f  c #9B704F",
"g  c #886B53",
"h  c #87735E",
"j  c #947355",
"k  c #9B7251",
"l  c #987959",
"z  c #AE784F",
"x  c #A57A54",
"c  c #A47D5A",
"v  c #B47C50",
"b  c #877A66",
"n  c #8B7D6B",
"m  c #927B62",
"M  c #847F78",
"N  c #A8835C",
"B  c #B98456",
"V  c #B98658",
"C  c #8A816D",
"Z  c #99866B",
"A  c #8A8475",
"S  c #978D75",
"D  c #9C947D",
"F  c #A88763",
"G  c #A48D6B",
"H  c #AC8E6C",
"J  c #B38D64",
"K  c #AD926D",
"L  c #B89569",
"P  c #A79778",
"I  c #B29C7C",
"U  c #BA9E7B",
"Y  c #B2A27C",
"T  c #BEA379",
"R  c #C3925F",
"E  c #C79A66",
"W  c #C39C6B",
"Q  c #C09E70",
"!  c #C6A06B",
"~  c #CCA36D",
"^  c #CCAB74",
"/  c #C6A878",
"(  c #D3AB72",
")  c #D1AF7A",
"_  c #CCB07D",
"`  c #D8B377",
"'  c #D6B37B",
"]  c #DDB97C",
"[  c #E2BE7D",
"{  c #E3C07F",
"}  c #666F80",
"|  c #667082",
" . c #6A7484",
".. c #6C7688",
"X. c #6F7A8C",
"o. c #747A85",
"O. c #717C8D",
"+. c #737F91",
"@. c #7C828B",
"#. c #768294",
"$. c #798596",
"%. c #798699",
"&. c #7C899B",
"*. c #7F8DA0",
"=. c #888889",
"-. c #999685",
";. c #808E9F",
":. c #999998",
">. c #A89D86",
",. c #AA9D8A",
"<. c #AAA285",
"1. c #B6A889",
"2. c #BEB185",
"3. c #ABA69B",
"4. c #B5AD92",
"5. c #B9AA90",
"6. c #B5AD9B",
"7. c #BDB295",
"8. c #BCB39C",
"9. c #BBB49C",
"0. c #818FA2",
"q. c #8493A4",
"w. c #8997A6",
"e. c #8897A7",
"r. c #8C9CAD",
"t. c #999DA6",
"y. c #8F9FB0",
"u. c #A09FA4",
"i. c #94A2AE",
"p. c #8FA0B1",
"a. c #93A3B4",
"s. c #98A8B6",
"d. c #96A7B8",
"f. c #9BACBB",
"g. c #9FB0BF",
"h. c #A4A2A4",
"j. c #A9A6A6",
"k. c #ADAAA5",
"l. c #A7A6AB",
"z. c #A9A7A9",
"x. c #ACAAAB",
"c. c #A9AEAB",
"v. c #B3ADA4",
"b. c #B0ADA9",
"n. c #B6B1A4",
"m. c #BAB4A4",
"M. c #B5B3A9",
"N. c #A4B1BD",
"B. c #B9B8B5",
"V. c #C3AD86",
"C. c #C6B489",
"Z. c #D3B685",
"A. c #D5BB84",
"S. c #DCBD82",
"D. c #C2B393",
"F. c #C3B89A",
"G. c #D1BE9B",
"H. c #E0BE82",
"J. c #C7BEA4",
"K. c #C1BFB8",
"L. c #BEC0BC",
"P. c #DBC38B",
"I. c #D9C789",
"U. c #CDC292",
"Y. c #D8C998",
"T. c #DDD09B",
"R. c #E3C385",
"E. c #E5CB8A",
"W. c #E5CB8C",
"Q. c #EBD08E",
"!. c #E6CE92",
"~. c #EBD493",
"^. c #EDDA94",
"/. c #E4D49B",
"(. c #EAD89C",
"). c #F1DD9B",
"_. c #EEE19F",
"`. c #F6E69C",
"'. c #F5E99A",
"]. c #FAEF9C",
"[. c #CDC3A1",
"{. c #D7CAA5",
"}. c #C7C4BA",
"|. c #D8D2B9",
" X c #E8D7A5",
".X c #E8DBAA",
"XX c #EFE3AB",
"oX c #F4E3A3",
"OX c #F8E8A5",
"+X c #FAEBA6",
"@X c #FAEBAA",
"#X c #F8ECB7",
"$X c #F1E5BD",
"%X c #9FB1C0",
"&X c #A0B1C0",
"*X c #CACBC3",
"=X c #DCD8C7",
"-X c #DDDDD4",
";X c #ECDFC0",
":X c #EDE5C5",
">X c #EAE5CD",
",X c #F6ECC6",
"<X c #F9F0C6",
"1X c #ECE9D7",
"2X c #F3EDD3",
"3X c #FAF3D4",
"4X c #FAF6DD",
"5X c #FBF7E3",
"6X c #FBF8E5",
/* pixels */
"l.l.l.l.l.l.l.l.l.l.l.l.l.l.l.l.l.l.l.l.l.l.l.l.l.l.l.l.l.l.l.l.l.l.l.l.l.l.l.l.l.l.l.l.l.l.l.l.l.l.l.l.l.l.l.l.l.l.l.l.l.l.l.l.",
"l.l.l.l.l.l.l.l.l.l.l.l.l.l.l.l.l.l.l.l.l.l.l.l.l.l.l.l.l.l.l.l.l.l.l.l.l.l.l.l.l.l.l.l.l.l.l.l.l.l.l.l.l.l.l.l.l.l.l.l.l.l.l.l.",
"l.l.l.l.l.l.l.l.l.l.l.l.l.l.l.l.l.l.l.l.l.l.l.l.l.l.l.l.l.l.l.l.l.l.l.l.l.l.l.l.l.l.l.l.l.l.l.l.l.l.l.l.l.l.l.l.l.l.l.l.l.l.l.l.",
"l.l.l.l.l.l.l.l.l.l.l.l.l.l.l.l.l.l.l.l.l.l.l.l.l.l.l.l.l.l.l.l.l.l.l.l.l.l.l.l.l.l.l.l.l.l.l.l.l.l.l.l.l.l.l.l.l.l.l.l.l.l.l.l.",
"l.l.l.l.l.l.l.l.l.l.l.l.l.l.l.l.l.l.l.l.l.l.l.l.l.l.l.l.l.l.l.l.l.l.l.l.l.l.l.l.l.l.l.l.l.l.l.l.l.l.l.l.l.l.l.l.l.l.l.l.l.l.l.l.",
"l.l.l.l.l.l.l.l.l.l.l.l.l.l.l.l.l.l.l.l.l.l.l.l.l.l.l.l.l.l.l.l.l.l.l.l.l.l.l.l.l.l.l.l.l.l.l.l.l.l.l.l.l.l.l.l.l.l.l.l.l.l.l.l.",
"l.l.l.l.l.l.l.l.l.l.l.l.l.l.l.l.l.l.l.l.l.l.l.l.l.l.l.l.l.l.l.l.l.l.l.l.l.l.l.l.l.l.l.l.l.l.l.l.l.l.l.l.l.l.l.l.l.l.l.l.l.l.l.l.",
"l.l.l.l.l.l.l.l.l.l.l.l.l.l.l.l.l.l.l.l.l.l.l.l.l.l.l.l.l.l.l.l.l.l.l.l.l.l.l.l.l.l.l.l.l.l.l.l.l.l.l.l.l.l.l.l.l.l.l.l.l.l.l.l.",
"l.l.l.l.l.l.l.l.l.l.l.l.l.l.l.l.l.l.l.l.l.l.l.l.l.l.l.l.l.l.l.l.l.l.l.l.l.l.l.l.l.l.l.l.l.l.l.l.l.l.l.l.l.l.l.l.l.l.l.l.l.l.l.l.",
"l.l.l.l.l.l.l.l.l.l.l.l.l.l.l.l.l.l.l.l.l.l.l.l.l.l.l.l.l.l.l.l.l.l.l.l.l.l.l.l.l.l.l.l.l.l.l.l.l.l.l.l.l.l.l.l.l.l.l.l.l.l.l.l.",
"l.l.l.l.l.l.l.l.l.l.l.l.l.l.l.l.l.l.l.l.l.l.l.l.l.l.l.l.l.l.l.h.=.u.l.l.l.l.l.l.l.l.l.l.l.l.l.l.l.l.l.l.l.l.l.l.l.l.l.l.l.l.l.l.",
"l.l.l.l.l.l.l.l.l.l.l.l.l.l.l.l.l.l.l.l.l.l.l.l.l.l.l.l.l.l.l.l.t.l.l.l.l.l.l.l.l.l.l.l.l.l.l.l.l.l.l.l.l.l.l.l.l.l.l.l.l.l.l.l.",
"l.l.l.l.l.l.l.l.l.l.l.l.l.l.l.l.l.l.l.l.l.l.l.l.l.l.l.l.l.l.l.l.l.l.l.l.l.l.l.l.l.l.l.l.l.l.l.l.l.l.l.l.l.l.l.l.l.l.l.l.l.l.l.l.",
"l.l.l.l.l.l.l.l.l.l.l.l.l.l.l.l.l.l.l.l.l.l.l.l.l.l.l.l.l.l.l.l.l.l.l.l.l.l.l.l.l.l.l.l.l.l.l.l.l.l.l.l.l.l.l.l.l.l.l.l.l.l.l.l.",
"l.l.l.l.l.l.l.l.l.l.l.l.l.l.l.l.l.l.l.l.l.l.l.l.l.l.l.h.z.l.l.l.l.l.l.l.l.l.l.l.l.l.l.l.l.l.l.l.l.l.l.l.l.l.l.l.l.l.l.l.l.l.l.l.",
"l.l.l.l.l.l.l.l.l.l.l.l.l.l.l.l.l.l.l.l.l.l.l.l.l.l.u.=.=.t.l.l.l.l.l.l.l.l.l.l.l.l.l.l.l.l.l.l.l.l.l.l.l.l.l.l.l.l.l.l.l.l.l.l.",
"l.l.x.l.l.l.l.l.l.l.l.l.l.l.l.l.l.l.l.l.l.l.l.l.l.l.i.u u h.l.l.l.l.l.l.l.l.l.l.l.l.l.l.l.l.l.l.l.l.l.l.l.l.l.l.l.l.l.l.l.l.l.l.",
"l.l.l.l.l.l.l.l.l.l.l.l.l.l.l.l.l.l.l.l.l.l.l.l.l.l.j.:.:.l.l.l.l.l.l.l.l.l.l.l.l.l.l.l.l.l.l.l.l.l.l.l.l.l.l.l.l.l.l.l.l.l.l.l.",
"l.l.l.l.l.l.l.l.l.l.l.l.l.l.l.l.l.l.l.l.l.l.l.l.l.l.l.l.l.l.l.l.l.l.l.l.l.l.l.l.l.l.l.l.l.l.l.l.l.l.l.l.l.l.l.l.l.l.l.l.l.l.l.l.",
"l.l.l.l.l.l.l.l.l.l.l.l.l.l.l.l.l.l.l.l.l.l.l.l.l.l.l.l.l.l.l.l.l.l.l.l.l.l.l.l.l.l.l.l.l.l.l.l.l.l.l.l.l.l.l.l.l.l.l.l.l.l.l.l.",
"l.l.l.l.l.l.l.l.l.l.l.l.l.l.l.l.l.l.l.l.l.l.l.l.l.l.l.l.l.l.l.l.l.l.l.l.l.l.l.l.l.l.l.l.l.l.l.l.l.l.l.l.l.l.l.l.l.l.l.l.l.l.l.l.",
"l.l.l.l.l.l.l.l.l.l.l.l.l.l.l.l.l.l.l.l.l.l.l.l.l.l.l.l.l.l.l.l.l.l.l.l.l.l.l.l.l.l.l.l.l.l.l.l.l.l.l.l.l.l.l.l.l.l.l.l.l.l.l.l.",
"l.l.l.l.l.l.l.l.l.l.l.l.l.l.l.l.l.l.l.3.8.m.b.l.l.l.l.l.l.l.l.l.l.l.l.l.l.l.l.l.l.l.l.l.l.l.l.l.l.l.l.l.l.l.l.l.l.l.l.l.l.N.l.l.",
"l.l.l.l.l.l.l.l.l.l.l.l.l.l.l.l.h.h.,.H c J V.,.l.l.l.l.l.l.l.l.l.l.l.l.l.l.l.l.l.l.l.l.l.l.l.l.l.l.l.l.l.l.l.l.l.l.l.l.l.l.l.l.",
"l.l.l.l.l.l.l.l.l.l.l.l.l.l.l.l.3.I c x L c d I 5.7.6.k.j.h.l.l.l.l.l.l.l.l.l.l.l.l.l.l.l.l.l.l.l.l.l.l.l.l.l.l.l.l.l.l.l.l.l.l.",
"l.l.l.x.l.l.l.l.l.l.l.l.l.l.l.l.D.c J S.(.P.h * > 9 A >.4.7.6.k.l.l.b.j.l.l.l.l.l.l.l.l.l.l.l.l.l.l.l.l.l.l.l.l.l.l.l.l.l.l.l.l.",
"l.l.l.l.l.l.l.l.l.l.l.l.l.l.l.h.V.k Z.:X4X=X@.w.q.X.5 < > 9 A -.5.5.1.V.F.6.h.h.l.l.l.l.l.l.l.l.l.l.l.l.l.l.l.l.l.l.l.l.l.l.l.l.",
"l.l.l.l.l.l.l.l.l.l.l.l.l.l.l.v.U c .X,X<XB.q.d.%X%Xf.a.w.$.r 4 , j x f _ `.I.3.j.l.l.l.l.l.l.l.l.l.l.l.l.l.l.l.l.l.l.l.l.l.l.l.",
"l.l.l.l.l.l.l.l.l.l.l.l.l.l.l.6.H J oX+XoXA r q.d.%X%X%X%X%Xg.a.w.<.A.I.P.`.I.D 4.6.8.k.h.l.h.z.l.l.l.l.l.l.l.l.l.l.l.l.l.l.l.l.",
"l.l.l.l.l.l.l.l.l.l.l.l.l.l.l.D.c Q +X+X/.u O.O.%.r.a.d.f.%Xg.%XN.{. XXX(.G.=.4 > 8 y D 1.5.6.k.:.v.k.z.l.l.l.l.l.l.l.l.l.l.l.l.",
"l.l.l.l.l.l.l.l.l.l.l.l.l.l.l.D.f ~ ~.~./ 3 #.a.f.y.a.y.a.p.r.r.i..X@X4X>XB.g.i.e.+.r 1 < , u S K F Q V.,.l.l.l.l.l.l.l.l.l.l.l.",
"l.l.l.l.l.l.l.l.l.l.l.l.l.l.M.V.x ( [ [ G + < X.&.q.a.f.%Xf.r.#.-.XX#X3X1Xc.g.N.%X&XN.s.e.$.} 2 h J c k I h.l.l.l.l.l.l.l.l.l.l.",
"l.l.l.l.l.l.l.l.l.l.l.l.l.j.{.^.R.{ [ ~ - < X.| r 7 | +.0.r.s.i.c.oX#X#X{.o.;.s.%X%X%X%X%X%Xg.e.M Y.W.N c 3.h.l.l.l.l.l.l.l.l.l.",
"l.l.l.l.l.l.l.l.l.l.l.l.l.c. X].'.R.~ N * ;  .#.$.#.+. .r r }  .>.] R.E.5.w.w.r.r.r.p.a.f.f.d.e.N.2X$XZ.k U k.z.l.l.l.l.l.l.l.l.",
"l.l.l.l.l.l.l.l.l.l.l.l.l.c.Y.^.^.[ [ ' Z 9 , ; < 5  .+.$.+. .A / ~ ~ ^ n q.a.s.%Xf.a.q.q.X.X.X.M.4X4XT.c Q b.l.l.l.l.l.l.l.l.l.",
"l.l.l.l.l.l.l.l.l.l.l.l.l.x.I s V R E ] ~.A.I.D.D u 3 : < 2 <..X,X$X:X{.w 5 r O.&.r.a.r.d.y.%.e F.@X@X{.H  X}.b.l.l.l.l.l.l.l.l.",
"l.l.l.l.l.l.l.l.l.l.l.l.l.v.Z i z B B R E E ` Q.(.oX/.2.h - Y.#X3X3X6X4XF.t #. .7 7 } ..%.%.X.t Y.+X].^ T 2X2XB.l.l.l.l.l.l.l.l.",
"l.l.l.l.l.l.l.l.l.l.l.l.l.8.d d V B V h b G L E E ~ ] P.L E _.).S./.,X6X|.= r X.$.%.#. .r 5 ; 0 P.`.'.J U 2X2XB.l.l.l.l.z.l.l.l.",
"l.l.l.l.l.l.l.l.l.l.l.l.l.C.i L ] ( L $ @ @ $ 9 n G L W E ) OXE.B B S.<X[.= , : ; 5 r O.%.#.; C H.Q.E.x T }.B.x.l.l.l.l.l.l.l.l.",
"l.l.l.l.l.l.l.l.l.l.l.l.x.U p ^ [ [ Y.3.j.o.< 2 < : , 9 C Y.OX' v v R.#XA.V Z.C.P y 9 > : < # m S.$X$XG.D.x.l.l.l.l.l.l.l.l.l.l.",
"l.l.l.l.l.l.l.l.l.l.l.l.v.F j !.Q.R.$X5X6X*X0.a.e.%...6 ; 2.W.E v B Q.oX_ V ( R.^.`./.G.P q 9 N ` 2X5X,XG.z.l.l.l.l.l.l.l.l.l.l.",
"l.l.l.l.l.l.l.l.l.l.l.l.8.s K +X+X(.:X5X6XL.O.a.d.p.d.e.7 A ] ` E ~ E.P.Z G L U W ~ ` R.S.E.!.A.H.;X:X:XJ.l.l.l.l.l.l.l.l.l.l.l.",
"l.l.l.l.l.l.l.l.l.l.l.x.D.& U ).`.Y.m.-X-XB.#.q.r.e.r.y. .; D _ ` [ ) Z > : % 8 b G L L E ~ ~ ( [ ` c V.M.l.l.l.l.l.l.l.l.l.l.l.",
"l.l.l.l.l.l.l.l.l.l.l.b.I p P.).~.Y % o.&.&.r.f.g.f.f.a.*.7 > $ q n 0 e #.%...7 < : : = y G V B v z p V.b.l.l.l.l.l.l.l.l.l.l.l.",
"l.l.l.l.l.l.l.l.l.l.l.b.Z g _.+XOXS @ 2 r } %.d.d.f.g.g.g.d.e.$.| 2 5 O.a.s.y.p.r.X.< @ + % J v v d p C.z.l.l.l.l.l.l.l.l.l.l.l.",
"l.l.l.l.l.l.l.l.l.l.l.m.s F _.@X(.q :  .%.p.d.a.a.r.p.a.f.f.g.g.f.s.i.a.y.r.w.a.d.e.#.7 @ 0 ^ E J p k J.l.l.l.l.l.l.l.l.l.l.l.l.",
"l.l.l.l.l.l.l.l.l.l.l.8.a a L A.C.$ @ 7 7 X.r.d.f.g.f.d.r.r.r.d.f.f.N.&X%X%Xd.p.#.r r 5 @ A ] [ ~ p H m.l.l.l.l.l.l.l.l.l.l.l.l.",
"l.l.l.l.l.l.l.l.l.l.l.h.P a       X X : 7 X.*.r.p.d.a.d.f.f.d.a.a.r.r.a.d.f.%Xf.q.%.X.; ; I R.[ W p V.x.l.l.l.l.l.l.l.l.l.l.l.l.",
"l.l.l.l.l.l.l.l.l.l.l.l.M.F.2.1.m O o . . X 7 %.q.a.a.p.i.d.s.g.f.f.s.d.p.r.y.y.+.#.&.r 8 T.`.`.L p D.l.l.l.l.l.l.l.l.l.l.l.l.l.",
"l.l.l.l.l.l.l.l.l.l.l.l.l.l.j.k.v.8.4.D w $ o . 9 -.h.:.q.r.d.f.a.p.a.f.f.f.f.a.X.6 5 < u .XOXOXF l J.l.l.l.l.l.k.l.l.l.l.l.l.l.",
"l.l.l.l.l.l.l.l.l.l.l.l.l.l.l.l.l.l.h.k.n.9.4.P U.'.].Y o # 7 #.q.y.a.d.y.r.y.r.e.&.r @ -.~.~.W.a H v.l.l.l.l.l.l.l.l.l.l.l.l.l.",
"l.l.l.l.l.l.l.l.l.l.l.l.l.l.l.l.x.b.x.l.l.l.h.j.T.].].I.q O X . X : r #.q.r.&.X.r 7 5 < 7.@X`.I.p 1.k.l.l.l.l.l.l.l.l.l.l.l.l.l.",
"l.l.l.l.l.l.l.l.l.l.l.l.l.l.l.K.>X>X*Xl.l.l.l.l.L._._.U.6.6.4.D b = o X X ; 5 < 5 2 @ , {.@X@XT a D.h.l.l.l.l.l.l.l.l.l.l.l.l.l.",
"l.l.l.l.l.l.l.l.l.l.l.l.l.l.l.}.2X2X=Xl.l.l.l.l.c.3.b.j.l.l.l.c.M.9.4.>.C = o . . . . , Z.~.`.N j 8.l.l.l.l.l.l.l.l.l.l.l.l.l.l.",
"l.l.l.l.l.l.l.l.l.l.l.l.l.l.l.*X1X2X=Xl.l.l.l.l.h.c.l.l.l.l.l.l.l.l.l.j.n.m.7.<.C = o o & k J p H v.l.l.l.l.l.l.l.l.l.l.l.l.l.l.",
"l.l.l.l.l.l.l.l.l.l.l.l.l.l.l.x.B.B.M.l.l.l.l.l.c.h.l.l.l.l.l.l.l.l.l.l.l.l.l.x.n.m.D.2.H k p s 1.j.l.l.l.l.l.l.l.l.l.l.l.l.l.l.",
"l.l.l.l.l.l.l.l.l.l.l.l.l.l.l.l.l.l.l.l.l.l.l.l.l.l.l.l.l.l.l.l.l.l.l.l.l.l.l.l.l.l.l.x.M.F.D.3.k.l.l.l.l.l.l.l.l.l.l.l.l.l.l.l.",
"l.l.l.l.l.l.l.l.l.l.l.l.l.l.l.l.l.l.l.l.l.l.l.l.l.l.l.l.l.l.l.l.l.l.l.l.l.l.l.l.l.l.l.l.l.l.l.l.l.l.l.l.l.l.l.l.l.l.l.l.l.l.l.l.",
"l.l.l.l.l.l.l.l.l.l.l.l.l.l.l.l.l.l.l.l.l.l.l.l.l.l.l.l.l.l.l.l.l.l.l.l.l.l.l.l.l.l.l.l.l.l.l.l.l.l.l.l.l.l.l.l.l.l.l.l.l.l.l.l.",
"l.l.l.l.l.l.l.l.l.l.l.l.l.l.l.l.l.l.l.l.l.l.l.l.l.l.l.l.l.l.l.l.l.l.l.l.l.l.l.l.l.l.l.l.l.l.l.l.l.l.l.l.l.l.l.l.l.l.l.l.l.l.l.l.",
"l.l.l.l.l.l.l.l.l.l.l.l.l.l.l.l.l.l.l.l.l.l.l.l.l.l.9.9.7.j.l.l.l.l.l.l.l.l.l.l.l.l.l.l.l.l.l.l.l.l.l.l.l.l.l.l.l.l.l.l.l.l.l.l.",
"l.l.l.l.l.l.l.l.l.l.l.l.l.l.l.l.l.l.l.l.l.l.l.l.l.x.Y.~./.9.l.l.l.l.l.l.l.l.l.l.l.l.l.l.l.l.l.l.l.l.l.l.l.l.l.l.l.l.l.l.l.l.l.l.",
"l.l.l.l.l.l.l.l.l.l.l.l.l.l.l.l.l.l.l.l.l.l.l.l.l.j.T.`.~.6.l.l.l.l.l.l.l.l.l.l.l.l.l.l.l.l.l.l.l.l.l.l.l.l.l.l.l.l.l.l.l.l.l.l.",
"l.l.l.l.l.l.l.l.l.l.l.l.l.l.l.l.l.l.l.l.l.l.l.l.l.l.[./.T.n.l.l.l.l.l.l.l.l.l.l.l.l.l.l.l.l.l.l.l.l.l.l.l.l.l.l.l.l.l.l.l.l.l.l."
};
