/* XPM */
static char *B931721604127[] = {
/* columns rows colors chars-per-pixel */
"64 64 206 2 ",
"   c #30323F",
".  c #7A543E",
"X  c #2F3245",
"o  c #373947",
"O  c #43434B",
"+  c #544845",
"@  c #434757",
"#  c #464A5A",
"$  c #4A4D5C",
"%  c #4E515D",
"&  c #54555E",
"*  c #5C5A5E",
"=  c #7C5640",
"-  c #7F5941",
";  c #635F5D",
":  c #6C645D",
">  c #796758",
",  c #4B4F60",
"<  c #4D5262",
"1  c #525664",
"2  c #545866",
"3  c #5A5B63",
"4  c #545B6B",
"5  c #595E6D",
"6  c #585F70",
"7  c #605F61",
"8  c #5C6475",
"9  c #5E6678",
"0  c #5F687B",
"q  c #656363",
"w  c #6B6662",
"e  c #6B6867",
"r  c #6C6B6A",
"t  c #736D66",
"y  c #7A756B",
"u  c #656973",
"i  c #626B7C",
"p  c #6E727A",
"a  c #797775",
"s  c #825C44",
"d  c #88644B",
"f  c #956949",
"g  c #9B704E",
"h  c #8A6B53",
"j  c #906F52",
"k  c #89705A",
"l  c #947354",
"z  c #9D7452",
"x  c #9B7A59",
"c  c #B3794F",
"v  c #A47A54",
"b  c #A47E59",
"n  c #B47B51",
"m  c #867A68",
"M  c #9C7E64",
"N  c #AB835C",
"B  c #B98658",
"V  c #8D846C",
"C  c #96856B",
"Z  c #8A8577",
"A  c #948E7C",
"S  c #9E947B",
"D  c #AF8A63",
"F  c #A58968",
"G  c #B38B61",
"H  c #AE916C",
"J  c #B8956A",
"K  c #A78F71",
"L  c #A99777",
"P  c #B59B75",
"I  c #BCA47C",
"U  c #C59764",
"Y  c #C49D6B",
"T  c #C6A06E",
"R  c #CDA36C",
"E  c #C6A776",
"W  c #C2AB7D",
"Q  c #D3AC74",
"!  c #D3AD7A",
"~  c #DAB477",
"^  c #D5B37D",
"/  c #D9B578",
"(  c #DCB97C",
")  c #E2BD7C",
"_  c #E3C17F",
"`  c #656F81",
"'  c #677182",
"]  c #6A7485",
"[  c #6C7789",
"{  c #6E798B",
"}  c #757B83",
"|  c #727D8E",
" . c #727E91",
".. c #7A818B",
"X. c #768294",
"o. c #798494",
"O. c #798699",
"+. c #7D8A9B",
"@. c #7F8DA1",
"#. c #8E8B82",
"$. c #828E9D",
"%. c #9B9E9F",
"&. c #A59D83",
"*. c #A99F89",
"=. c #B49F80",
"-. c #A6A085",
";. c #ACA385",
":. c #ADA58C",
">. c #B6A584",
",. c #B7A889",
"<. c #BFB48B",
"1. c #A5A49B",
"2. c #ABA59E",
"3. c #B4AB94",
"4. c #B6AB96",
"5. c #BCB297",
"6. c #BCB39B",
"7. c #808EA1",
"8. c #8593A4",
"9. c #8997A7",
"0. c #8C9CAD",
"q. c #9C9FA7",
"w. c #8F9FB0",
"e. c #98A4AD",
"r. c #93A3B3",
"t. c #98A9B8",
"y. c #9BACBC",
"u. c #9EB0BF",
"i. c #A6A3A3",
"p. c #AAA6A4",
"a. c #ADA9A4",
"s. c #A7A6AB",
"d. c #A8A7AA",
"f. c #A6ABA9",
"g. c #ACAAAA",
"h. c #B2ADA2",
"j. c #B2AFA9",
"k. c #ACB0A5",
"l. c #B5B2A2",
"z. c #BBB5A4",
"x. c #BBB8A9",
"c. c #A1AFB7",
"v. c #ABB5B4",
"b. c #A2B1BC",
"n. c #BCBBB4",
"m. c #C3AD86",
"M. c #CBB584",
"N. c #CEB889",
"B. c #D7BB86",
"V. c #DABC82",
"C. c #C6B896",
"Z. c #C1B69D",
"A. c #C4BA9D",
"S. c #E1BF81",
"D. c #C4BBA3",
"F. c #C3BBA6",
"G. c #BDC1AB",
"H. c #BEC0BB",
"J. c #DEC386",
"K. c #DDC38A",
"L. c #DCC88C",
"P. c #CEC291",
"I. c #D7C696",
"U. c #DBCC9A",
"Y. c #DFD596",
"T. c #E2C383",
"R. c #E4CA8C",
"E. c #E9CB8A",
"W. c #E4D38E",
"Q. c #E8CE94",
"!. c #ECD695",
"~. c #E3D498",
"^. c #E9D29D",
"/. c #E6DC9C",
"(. c #ECDB9C",
"). c #F2DD97",
"_. c #F2DD99",
"`. c #EEE49C",
"'. c #F2E49C",
"]. c #F6EB9C",
"[. c #FAF09D",
"{. c #C9C5A8",
"}. c #D6CAA6",
"|. c #DAD3A6",
" X c #C6C6BC",
".X c #D4D1B0",
"XX c #E5DBBA",
"oX c #EEE2A2",
"OX c #F4E4A2",
"+X c #FAECA5",
"@X c #F5E6A9",
"#X c #FBEDA9",
"$X c #EFE5BD",
"%X c #FAEEB5",
"&X c #9FB1C0",
"*X c #A0B2C0",
"=X c #CACAC0",
"-X c #D8D6C6",
";X c #EDE4C7",
":X c #F3E9CA",
">X c #FAF2CD",
",X c #EFE9D2",
"<X c #F6EFD1",
"1X c #FAF4D4",
"2X c #F8F3D9",
"3X c #FAF7E4",
/* pixels */
"s.s.s.s.s.s.s.s.s.s.s.s.s.s.s.s.s.s.s.s.s.s.s.s.s.s.s.s.s.s.s.s.s.s.s.s.s.s.s.s.s.s.s.s.s.s.s.s.s.s.s.s.s.s.s.s.s.s.s.s.s.s.s.s.",
"s.s.s.s.s.s.s.s.s.s.s.s.s.s.s.s.s.s.s.s.s.s.s.s.s.s.s.s.s.s.s.s.s.s.s.s.s.s.s.s.s.s.s.s.s.s.s.s.s.s.s.s.s.s.s.s.s.s.s.s.s.s.s.s.",
"s.s.s.s.s.s.s.s.s.s.s.s.s.s.s.s.s.s.s.s.s.s.s.s.s.s.s.s.s.s.s.s.s.s.s.s.s.s.s.s.s.s.s.s.s.s.s.s.s.s.s.s.s.s.s.s.s.s.s.s.s.s.s.s.",
"s.s.s.s.s.s.s.s.s.s.s.s.s.s.s.s.s.s.s.s.s.s.s.s.d.s.s.s.s.s.s.s.s.s.s.s.s.s.s.s.s.s.s.s.s.s.s.s.s.s.s.s.s.s.s.s.s.s.s.s.s.s.s.s.",
"s.s.s.s.s.s.s.s.s.s.s.s.s.s.s.s.s.s.s.s.s.s.s.s.s.s.s.s.s.s.s.s.s.s.s.s.s.s.s.s.s.s.s.s.s.s.s.s.s.s.s.s.s.c.s.s.s.s.s.s.s.s.s.s.",
"s.s.s.s.s.s.s.s.s.s.s.s.s.s.s.s.s.s.s.s.s.s.s.s.s.s.s.s.s.s.s.s.s.s.s.s.s.s.s.s.s.s.s.s.s.s.s.s.s.s.s.s.s.s.s.s.s.s.s.s.s.s.s.s.",
"s.s.s.s.s.s.s.s.s.s.s.s.s.s.s.s.s.s.s.s.s.s.s.s.s.s.s.s.s.s.d.s.s.s.s.s.s.s.s.s.s.s.s.s.s.s.s.d.s.s.s.s.s.s.s.s.s.s.s.s.s.s.s.s.",
"s.s.s.s.s.s.s.s.s.s.s.s.s.s.s.s.s.s.s.s.s.s.s.s.s.s.s.s.s.s.s.s.s.s.s.s.s.s.s.s.s.s.s.s.s.s.s.s.s.s.s.s.s.s.s.s.s.s.s.s.s.s.s.s.",
"s.s.s.s.s.s.s.s.s.s.s.s.s.s.s.s.s.s.s.s.s.s.s.s.s.s.s.s.s.s.s.s.s.s.s.s.s.s.s.s.s.s.s.s.s.s.s.s.s.s.s.s.s.s.s.s.s.s.s.s.s.s.s.s.",
"s.s.s.s.s.s.s.s.s.s.s.s.s.s.s.s.s.s.s.s.s.s.s.s.s.s.s.s.s.s.s.s.s.s.s.s.s.s.s.s.s.s.s.s.s.s.s.s.s.s.s.s.s.s.s.s.s.s.s.s.s.s.s.s.",
"s.s.s.s.s.s.s.s.s.s.s.s.s.s.s.s.s.s.s.s.s.s.s.s.s.s.s.s.s.s.s.s.s.s.s.s.s.s.s.s.s.s.s.s.s.s.s.s.s.s.s.s.s.s.s.s.s.s.s.s.s.s.s.s.",
"s.s.s.s.s.s.s.s.s.s.s.s.s.s.s.s.s.s.s.s.s.s.s.s.s.s.s.s.s.s.s.s.s.s.s.s.s.s.s.s.s.s.s.s.s.s.s.s.s.s.s.s.s.s.s.s.s.s.s.s.s.s.s.s.",
"s.s.s.s.s.s.s.s.s.s.s.s.s.s.s.s.s.s.s.s.s.s.s.s.s.s.s.s.s.s.s.s.s.s.s.s.s.s.s.s.s.s.s.s.s.s.s.s.s.s.s.s.s.s.s.s.s.s.s.s.s.s.s.s.",
"s.s.s.s.s.s.s.s.s.s.s.s.s.s.s.s.s.s.s.s.s.s.s.s.s.s.s.s.s.s.s.s.s.s.s.s.s.s.s.s.s.s.s.s.s.s.s.s.s.s.s.s.s.s.s.s.s.s.s.s.s.s.s.s.",
"s.s.s.s.s.s.s.s.s.s.s.s.s.s.s.s.s.s.s.s.s.s.s.s.s.s.s.s.s.s.s.s.s.s.s.s.s.s.s.s.s.s.s.s.s.s.s.s.s.s.s.s.s.s.s.s.s.s.s.s.s.s.s.s.",
"s.s.s.s.s.s.s.s.s.s.s.s.s.s.s.s.s.s.s.s.s.s.s.s.s.s.s.s.s.s.s.s.d.s.s.s.s.s.s.s.s.s.s.s.s.s.s.s.s.s.s.s.s.s.s.s.s.s.s.s.s.s.s.s.",
"s.s.s.s.s.s.s.s.s.s.s.s.s.s.s.s.s.s.s.s.s.s.s.s.s.s.s.s.s.s.s.s.s.s.s.s.s.s.s.s.s.s.s.s.s.s.s.s.s.s.s.s.s.s.s.s.s.s.s.s.s.s.s.s.",
"s.s.s.s.s.s.s.s.s.s.s.s.s.s.s.s.s.s.s.s.s.s.s.s.s.s.s.s.s.s.s.s.s.s.s.s.s.s.s.s.s.s.s.s.s.s.s.s.s.s.s.s.s.s.s.s.s.s.s.s.s.s.s.s.",
"s.s.s.s.s.s.s.s.s.s.s.s.s.s.s.s.s.s.s.s.s.s.s.s.s.s.s.s.s.s.s.s.s.s.s.s.s.s.s.s.s.s.s.s.s.s.s.s.s.s.s.s.s.s.s.s.s.s.s.s.s.s.s.s.",
"s.s.s.s.s.s.s.s.s.s.s.s.s.s.s.s.s.s.s.s.s.s.s.s.s.s.s.s.s.s.s.s.s.s.s.s.s.s.s.s.s.s.s.s.s.s.s.s.s.s.s.s.s.s.s.s.s.s.s.s.s.s.s.s.",
"s.s.s.s.s.s.s.s.s.s.s.s.s.s.s.s.s.s.s.s.s.s.s.s.s.s.s.s.s.s.s.s.s.s.s.s.s.s.s.s.s.s.s.s.s.s.s.s.s.s.s.s.s.s.s.s.s.s.s.s.s.s.s.s.",
"s.s.s.s.s.s.s.s.s.s.s.s.s.s.s.s.s.s.s.s.s.s.s.s.s.s.s.s.s.s.s.s.s.s.s.s.s.s.4.l.p.s.s.s.s.s.s.s.s.s.s.s.s.s.s.s.s.s.s.s.s.s.s.s.",
"s.s.s.s.s.s.s.s.s.s.s.s.s.s.s.s.s.s.s.s.s.s.s.s.s.s.s.s.s.s.s.s.s.s.s.s.s.s.Y.'.z.s.s.s.s.s.s.s.s.s.s.s.s.s.s.s.s.s.s.s.s.s.s.s.",
"s.s.s.s.s.s.s.s.s.s.s.s.s.s.s.s.s.s.s.s.s.s.s.s.s.s.s.s.s.s.s.s.s.s.s.s.f.i.I./.z.s.s.s.s.s.s.s.s.s.s.s.s.s.s.s.s.s.s.s.s.s.s.s.",
"s.s.s.s.s.s.s.s.s.s.s.s.s.s.d.i.D.Z.Z.2.i.s.s.d.s.s.s.s.s.s.s.g.g.g.j.s.s.s.i.p.d.d.s.s.s.s.s.s.s.i.s.s.s.s.s.s.s.s.s.s.s.s.s.s.",
"s.s.s.s.s.s.s.s.s.s.s.s.s.s.2.P b b N P <.Z.Z.6.D.Z.5.5.4.4.4.L I W m.,.h.h.a.a.2.2.2.i.a.g.g.a.A.D.Z.i.s.s.s.s.s.s.s.s.s.s.s.s.",
"s.s.s.s.s.s.s.s.s.s.s.s.s.p.L z D Y b d : q q q e r e r t a C z g g f z P P >.*.&.&.;.;.:.:.,.H b b b =.i.s.s.s.s.s.s.s.s.s.s.s.",
"s.s.s.s.s.s.s.s.s.s.s.s.a.P z D K.(.>.r | X. .| [ [ ] ` i i a H K.R.B.b I Y.Y.m.3 1 1 2 1 1 2 h H Y v v =.i.s.s.s.s.s.s.s.s.s.s.",
"s.s.s.s.s.s.s.s.s.s.s.s.a.P x L.;X2X X$.t.y.*X&Xu.u.u.y.u.y.c.U.oX@X@X{.|.[.[./.e.0.0.0.9.9.+.p C._.T.v v P s.s.s.s.s.s.s.s.s.s.",
"s.s.s.s.s.s.s.s.s.s.s.a.I.W.E XX>X1Xn.+.w.y.*X*X&Xb.&X&X&X&Xy.|.%X2X3XH..X[.[.oXv.*Xb.*X&Xb.r.8.-X2X$XM.f m.g.s.s.s.s.s.s.s.s.s.",
"s.s.s.s.s.s.s.s.s.s.s.x.].[.L.@X+X#X;.5 i ..9.w.w.w.w.w.0.+.$.|.#X>X3XH.%.l.G.G.c.y.&Xy.y.t.9.X.XX1X1XC.g N.j.s.s.s.s.s.s.s.s.s.",
"s.s.s.s.s.s.s.s.s.s.s.x.'.'.J.'.+X+X&.] 8.9.w.9.t.t.r.r.w.+.o.|.%X%X#X3.p X.0.w.w.w.0.9.+.] i r }.#X#X^.z N.g.s.s.s.s.s.s.s.s.s.",
"s.s.s.s.s.s.s.s.s.s.s.s.F.T J _.+X!.C 8 X.r.w.9.w.t.t.t.t.t.9.K.W.~.Q.,.0.t.y.y.&Xy.t.w.t.r.@.p I.#X+XJ.g N.a.d.s.s.s.s.s.s.s.s.",
"s.s.s.s.s.s.s.s.s.s.s.s.F.D v T.E._ C $ 1 0 i i ` i ' ] ] ] u P Q Q Q M [ o.+.+.+.7.@.+.8.+.0 u M.(.OXL.E L.a.n.H.g.s.s.s.s.s.s.",
"s.s.s.s.s.s.s.s.s.s.s.s.F.D n ( ) ~ m % { X.X.{  .[ [ [ ] u Z N.V.I.D.P 3 9 i i 8 9 9 9 9 8 , 3 ! _ E.( '.'.2.-X-Xj.s.s.s.s.s.s.",
"s.s.s.s.s.s.s.s.s.s.s.s.F.D b ) ~ U > < 0 ] [ ] [ [ [ [ ' A |.1X>X1X3X:XL p O.O.O.O.O.O.O.O.9 3 I ) _ Q J.^.2.=X=Xn.s.s.s.s.s.s.",
"s.s.s.s.s.s.s.s.s.s.s.s.x.D v ) ~ B k 3 & 3 3 2 1 1 & % % -.+X>X>X>X3X3X}.3 4 2 2 4 6 6 5 8 2 & N ~ ) Y b I.s.s.s.s.s.s.s.s.s.s.",
"s.s.s.s.s.s.s.s.s.s.s.s.F.N G Q.Q.Q.^.N.M.U.U.U.P.P.C.L l M.#XQ.! ^ ^.1XU.> m Z Z Z #.| a t q t B Q ) Q }.$XF.s.s.s.s.s.s.s.s.s.",
"s.s.s.s.s.s.s.s.s.s.s.s.D.l F <X2X2XK.! R ~ T.T.R.R.E.R B J.OX_ n c ! %X^.B Q !.OX@X<X3X,XU.J.~.R.( _ Q ,X<X-Xs.s.s.s.s.s.s.s.s.",
"s.s.s.s.s.s.s.s.s.s.s.s.C.d M 2X2X2Xm.J Y J T T Y T T Y U R.#X^ n c Q #X!.G U R R ^ ,X3X;XE R R T U U J XX;X=Xs.s.s.s.s.s.s.s.s.",
"s.s.s.s.s.s.s.s.s.s.s.s.Z.s M ;X2X,XZ * * ; q q q q w t t P.'.^ n n Q '.I.C C F K K 6.n.x.L H J c c c f x D.g.s.s.s.s.s.s.s.s.s.",
"s.s.s.s.s.s.s.s.s.s.s.d.A.s b R.K.B.t # # # 1 u 8 8 8 6 < A J.( Y U ) S.L & % < % % < % $ % % w B c c f d Z.s.s.s.s.s.s.s.s.s.s.",
"s.s.s.s.s.s.s.s.s.s.s.d.A.s N T.) / : # 8 [ O.w.w.0.0.0.X.3 S ^ ( ~ / H e ] +.O.X.X.X.8 < < # w E R R f d 6.s.s.s.s.s.s.s.s.s.s.",
"s.s.s.s.s.s.s.s.s.s.s.d.A.s G T.) / : $ 8 { O.w.t.w.w.t.8.8 % t m m m * 8 7.t.w.r.u.u.@.X.8 # t ( ) ( v d D.s.s.s.s.s.s.s.s.s.s.",
"s.s.s.s.s.s.s.s.s.s.s.d.C.- P ).).Q.w # 8 ` ` O.w.0.0.0.9.@.i 9 6 6 5 8  .9.w.0.0.w.+.' 0 6 # y V.) ) z h D.d.s.s.s.s.s.s.s.s.s.",
"s.s.s.s.s.s.s.s.s.s.s.d.C.s E +X#X(.q 8 O.@.@.w.y.u.&X&Xu.u.u.t.y.t.t.t.y.y.y.y.y.r.@.X.X.8 $ Z (.).!.x l D.s.s.s.s.s.s.s.s.s.s.",
"s.s.s.s.s.s.s.s.s.s.s.d.C.= P !.).L.: 4 [ [  .9.r.t.t.t.t.y.t.y.y.y.y.y.y.&Xy.&Xu.y.w.@.@.O.4 #.+X+X+Xx h D.s.s.s.s.s.s.s.s.s.s.",
"s.s.s.s.s.s.s.s.s.s.s.d.5.. W _.`.K.; , i ` [ 8.w.0.0.w.w.f.l.l.d.0.0.0.9.0.w.0.w.0.X.i i 8 < Z !.).!.g l F.s.s.s.s.s.s.s.s.s.s.",
"s.s.s.s.s.s.s.s.s.s.s.g.C.= m.OX+X~.q 4 { O.0.t.y.y.u.u.&X.X+X].oXb.y.&Xy.y.y.y.y.t.w.@. .8 # #.(.'.!.f l D.s.s.s.s.s.s.s.s.s.s.",
"s.s.s.s.s.s.s.s.s.s.s.g.m.. ^ +X#X~.7 $ 5 9 ' +.@.0.r.r.w.{.+X[.|.u.r.w.w.w.t.r.w.w.@.X.] ` < &.+X#X'.l x D.s.s.s.s.s.s.s.s.s.s.",
"s.s.s.s.s.s.s.s.s.s.s.g.,.. G V.V.W & @ 1 8 p 1.k.v.r.w.r.{.oX`.Y.t.r.w.w.w.r.r.0.@. .` ` < # &.OX+X'.j x 6.s.s.s.s.s.s.s.s.s.s.",
"s.s.s.s.s.s.s.s.s.s.s.s.4.j F L H k   X X X y ].]./.1.e.q.s.g.d.%.} 8 8 9 ` ` ' ` ` 4 , , , @ m ^ ( ^ d F 6.s.s.s.s.s.s.s.s.s.s.",
"s.s.s.s.s.s.s.s.s.s.s.s.s.4.XX;XXX5.V m m y L OX[.`.z.j.j.j.l.a.a.#.O O O o O o o o X X X X X + . s s . F h.s.s.s.s.s.s.s.s.s.s.",
"s.s.s.s.s.s.s.s.s.s.s.s.s.g.-X-X-Xx.h.l.x.z.{.OXoX`.{.F.F.D.D.A.P.z.5.6.6.4.3.3.3.:.-.L &.&.S L L J H K 2.s.s.s.s.s.s.s.s.s.s.s.",
"s.s.s.s.s.s.s.s.s.s.s.s.s.s.n.=XH.v.s.s.f.s.d.j.j.g.d.s.s.s.s.d.s.s.f.s.s.g.g.d.g.g.g.j.j.j.j.j.l.l.l.j.d.d.d.s.s.s.s.s.s.s.s.s.",
"s.s.s.s.s.s.s.s.s.s.s.s.s.s.s.s.s.s.s.s.s.s.s.s.f.s.f.s.s.s.s.s.s.s.s.s.s.s.s.s.s.s.s.s.s.s.s.s.d.s.s.s.d.d.s.s.s.s.s.s.s.s.s.s.",
"s.s.s.s.s.s.s.s.s.s.s.s.s.s.s.s.s.s.s.s.s.s.s.s.s.s.s.s.s.s.s.s.s.s.s.s.s.s.s.s.s.s.s.s.s.s.s.s.s.s.s.s.s.s.s.s.s.s.s.s.s.s.s.s.",
"s.s.s.s.s.s.s.s.s.s.s.s.s.s.s.s.s.s.s.s.s.s.s.s.s.s.s.s.s.s.s.s.s.s.s.s.s.s.s.s.s.s.s.s.s.s.s.s.s.s.s.s.s.s.s.s.s.s.s.s.s.s.s.s.",
"s.s.s.s.s.s.s.s.s.s.s.s.s.s.s.s.s.s.s.s.s.s.s.s.s.s.s.s.s.s.s.s.s.s.s.s.s.s.s.s.s.s.s.s.s.s.s.s.s.s.s.s.s.s.s.s.s.s.s.s.s.s.s.s.",
"s.s.s.s.s.s.s.s.s.s.s.s.s.s.s.s.s.s.s.s.s.s.s.s.s.s.s.s.s.s.s.s.s.s.s.s.s.s.s.s.s.s.s.s.s.s.s.s.s.s.s.s.s.s.s.s.s.s.s.s.s.s.s.s.",
"s.s.s.s.s.s.s.s.s.s.s.s.s.s.s.s.s.s.s.s.s.s.s.s.s.i.3.,.:.p.s.s.s.s.s.s.s.s.s.s.s.s.s.s.s.s.s.s.s.s.s.s.s.s.s.s.s.s.s.s.s.s.s.s.",
"s.s.s.s.s.s.s.s.s.s.s.s.s.s.s.s.s.s.s.s.s.s.s.s.s.i.>.W >.i.s.s.s.s.s.s.s.s.s.s.s.s.s.s.s.s.s.s.s.s.s.s.s.s.s.s.s.s.s.s.s.s.s.s.",
"s.s.s.s.s.s.s.s.s.s.s.s.s.s.s.s.s.s.s.s.s.s.s.s.s.i.>.W >.i.s.s.s.s.s.s.s.s.s.s.s.s.s.s.s.s.s.s.s.s.s.s.s.s.s.s.s.s.s.s.s.s.s.s.",
"s.s.s.s.s.s.s.s.s.s.s.s.s.s.s.s.s.s.s.s.s.s.s.s.s.i.*.*.-.i.s.s.s.s.s.s.s.s.s.s.s.s.s.s.s.s.s.s.s.s.s.s.s.s.s.s.s.s.s.s.s.s.s.s."
};
