/* XPM */
static char *B941721604127[] = {
/* columns rows colors chars-per-pixel */
"64 64 210 2 ",
"   c #38373E",
".  c #5B4A3E",
"X  c #77553F",
"o  c #7B543D",
"O  c #393B47",
"+  c #3F424F",
"@  c #454345",
"#  c #524F4D",
"$  c #444855",
"%  c #454A5A",
"&  c #494D5C",
"*  c #4E515E",
"=  c #53545D",
"-  c #59575B",
";  c #7E5941",
":  c #645F56",
">  c #74695B",
",  c #4E5362",
"<  c #515664",
"1  c #555863",
"2  c #545A6B",
"3  c #5A5D68",
"4  c #615F61",
"5  c #5C6474",
"6  c #5F6779",
"7  c #646262",
"8  c #696867",
"9  c #746D65",
"0  c #746E69",
"q  c #7A746A",
"w  c #666A74",
"e  c #636C7D",
"r  c #6C727C",
"t  c #787674",
"y  c #81583F",
"u  c #845D42",
"i  c #89654A",
"p  c #946C4C",
"a  c #9A6D4C",
"s  c #9C714F",
"d  c #886D57",
"f  c #8B755C",
"g  c #9D7453",
"h  c #98795B",
"j  c #A1724D",
"k  c #A37A55",
"l  c #A97C55",
"z  c #A57E5A",
"x  c #B57C51",
"c  c #887C69",
"v  c #977B61",
"b  c #847D72",
"n  c #A7835D",
"m  c #B78155",
"M  c #B78457",
"N  c #BA8B5D",
"B  c #8E816D",
"V  c #96856A",
"C  c #8B8477",
"Z  c #948C74",
"A  c #928B7B",
"S  c #9C9378",
"D  c #A78967",
"F  c #AC8B65",
"G  c #B38E63",
"H  c #A8916D",
"J  c #B2946B",
"K  c #B8956A",
"L  c #BC9A6D",
"P  c #A59576",
"I  c #B49A73",
"U  c #BAA279",
"Y  c #C18E5E",
"T  c #C39362",
"R  c #C69966",
"E  c #C59D6B",
"W  c #C99E6A",
"Q  c #C19F70",
"!  c #CCA26D",
"~  c #D0A66C",
"^  c #C6A775",
"/  c #CCAD79",
"(  c #D0A770",
")  c #D4AD73",
"_  c #CDB17E",
"`  c #D9B477",
"'  c #D4B27B",
"]  c #DDBB7C",
"[  c #E1BE7D",
"{  c #E3C07F",
"}  c #656E80",
"|  c #677183",
" . c #6A7384",
".. c #6C7688",
"X. c #6E788A",
"o. c #717782",
"O. c #727D8E",
"+. c #737F91",
"@. c #768294",
"#. c #798494",
"$. c #7A8699",
"%. c #7D8A9C",
"&. c #8B8D86",
"*. c #95928F",
"=. c #828C99",
"-. c #8B959E",
";. c #979B99",
":. c #9D9B9B",
">. c #A49D89",
",. c #A09D9F",
"<. c #ABA184",
"1. c #ADA58D",
"2. c #B9A884",
"3. c #B6AB8C",
"4. c #BAAB8B",
"5. c #BEB48E",
"6. c #ABA597",
"7. c #AAA59D",
"8. c #B6AC95",
"9. c #BCAF91",
"0. c #B5AD9C",
"q. c #BDB294",
"w. c #BAB39C",
"e. c #BBB39C",
"r. c #8593A4",
"t. c #8997A8",
"y. c #8B9BAC",
"u. c #9096A1",
"i. c #8E9EB0",
"p. c #A19FA1",
"a. c #99A3AB",
"s. c #8FA0B1",
"d. c #93A3B4",
"f. c #9BAAB6",
"g. c #96A7B8",
"h. c #97A8B8",
"j. c #9BACBC",
"k. c #9FB0BF",
"l. c #A5A3A5",
"z. c #AAA6A4",
"x. c #ACA9A5",
"c. c #A7A6AB",
"v. c #A9A7A9",
"b. c #A6ABAE",
"n. c #ACAAA9",
"m. c #B2ADA3",
"M. c #B1AEAA",
"N. c #AFB4AE",
"B. c #B5B1A4",
"V. c #BBB4A3",
"C. c #B6B7AB",
"Z. c #A6AEB2",
"A. c #A6AEB5",
"S. c #A4B1B9",
"D. c #B9BAB8",
"F. c #C5AC82",
"G. c #C9B588",
"H. c #D5BA83",
"J. c #D3B984",
"K. c #DBBC82",
"L. c #C2B594",
"P. c #C4B897",
"I. c #CABA91",
"U. c #C5BB9B",
"Y. c #C8BD9A",
"T. c #DCC289",
"R. c #CCC398",
"E. c #DDCC93",
"W. c #D6C998",
"Q. c #DED29C",
"!. c #E3C587",
"~. c #E2CE91",
"^. c #EBD494",
"/. c #E9D698",
"(. c #E9DB9D",
"). c #F0DA97",
"_. c #F1DE9C",
"`. c #ECE29E",
"'. c #F3E59B",
"]. c #F8EE9D",
"[. c #FCF29E",
"{. c #D2C8A5",
"}. c #DDD5A8",
"|. c #DED6B7",
" X c #EBDCA4",
".X c #E5D7A8",
"XX c #F1DEA4",
"oX c #E6DBB8",
"OX c #F5E4A2",
"+X c #FAEBA5",
"@X c #F4E5A9",
"#X c #F6E9AC",
"$X c #FAECA9",
"%X c #F8EDB7",
"&X c #FCF1BB",
"*X c #9FB1C0",
"=X c #A0B1C1",
"-X c #D0CFC7",
";X c #D7DBD7",
":X c #E2DDCB",
">X c #EDE5C7",
",X c #F6EDCD",
"<X c #FBF2C3",
"1X c #FAF3CD",
"2X c #EBEADE",
"3X c #F4EDD3",
"4X c #F1ECD8",
"5X c #F9F4D7",
"6X c #FBF9E5",
"7X c #FBF9E8",
/* pixels */
"c.c.c.c.c.c.c.c.c.c.c.c.c.c.c.c.c.c.c.c.c.c.c.c.c.c.c.c.c.c.c.c.c.c.c.c.c.c.c.c.c.c.c.c.c.c.c.c.c.c.c.c.c.c.c.c.c.c.c.c.c.c.c.c.",
"c.c.c.c.c.c.c.c.c.c.c.c.c.c.c.c.c.c.c.c.c.c.c.c.c.c.c.c.c.c.c.c.c.c.c.c.c.c.c.c.c.c.c.c.c.c.c.c.c.c.c.c.c.c.c.c.c.c.c.c.c.c.c.c.",
"c.c.c.c.c.c.c.c.c.c.c.c.c.c.c.c.c.c.c.c.c.c.c.c.c.c.c.c.c.c.c.c.c.c.c.c.c.c.c.c.c.c.c.c.c.c.c.c.c.c.c.c.c.c.c.c.c.c.c.c.c.c.c.c.",
"c.c.c.c.c.c.c.c.c.c.c.c.c.c.c.c.c.c.c.c.c.c.c.b.c.c.c.c.c.c.c.b.c.c.c.c.c.c.c.c.c.c.c.c.c.c.c.c.c.c.c.c.c.c.c.c.c.c.c.c.c.c.c.c.",
"c.c.c.c.c.c.c.c.c.c.c.c.c.c.c.c.c.c.c.c.c.c.c.c.c.c.c.c.c.c.c.c.c.c.c.c.c.c.c.c.c.c.c.c.c.c.c.c.c.c.c.c.c.c.c.c.c.c.c.c.c.c.c.c.",
"c.c.c.c.c.c.c.c.c.c.c.c.c.c.c.c.c.c.c.c.c.c.c.c.c.c.c.c.c.c.c.c.c.c.c.c.c.c.c.c.c.c.c.c.c.c.c.c.c.c.c.c.c.c.c.c.c.c.c.c.c.c.c.c.",
"c.c.c.c.c.c.c.c.c.c.c.c.c.c.c.c.c.c.c.c.c.c.c.c.c.c.c.c.c.c.c.c.b.c.c.c.c.c.c.c.c.c.c.c.c.c.c.c.c.c.c.c.c.c.c.c.c.c.c.c.c.c.c.c.",
"c.c.c.c.c.c.c.c.c.c.c.c.c.c.c.c.c.c.c.c.c.c.c.c.c.c.c.c.c.c.c.c.c.c.c.c.c.c.c.c.c.c.c.c.c.c.c.c.c.c.c.c.c.c.c.c.c.c.c.c.c.c.c.c.",
"c.c.c.c.c.c.c.c.c.c.c.c.c.c.c.c.c.c.c.c.c.c.c.b.c.c.c.c.c.c.c.c.c.c.c.c.c.c.c.c.c.c.c.c.c.c.c.c.c.c.c.c.c.c.c.c.c.c.c.c.c.c.c.c.",
"c.c.c.c.c.c.c.c.c.c.c.c.c.c.c.c.c.c.c.c.c.c.c.c.c.c.c.c.c.c.c.c.c.c.c.c.c.c.c.c.c.c.c.c.c.c.c.c.c.c.c.c.c.c.c.c.c.c.c.c.c.c.c.c.",
"c.c.c.c.c.c.c.c.c.c.c.c.c.c.c.c.c.c.c.c.c.c.c.c.c.c.c.c.c.c.c.c.c.c.c.c.c.c.c.c.c.c.c.c.c.c.c.c.c.c.c.c.c.c.c.c.c.c.c.c.c.c.c.c.",
"c.c.c.c.c.c.c.c.c.c.c.c.c.c.c.c.c.c.c.c.c.c.c.c.c.c.c.c.c.c.c.c.c.c.c.c.c.c.c.c.c.c.c.c.c.c.c.c.c.c.c.c.c.c.c.c.c.c.c.c.c.c.c.c.",
"c.c.c.c.c.c.c.c.c.c.c.c.c.c.c.c.c.c.c.c.c.c.c.c.c.c.c.c.c.c.c.c.c.c.c.c.c.c.n.c.c.c.c.c.c.c.c.c.c.c.c.c.M.c.c.c.c.c.c.c.c.c.c.c.",
"c.c.c.c.c.c.c.c.c.c.c.c.c.c.c.c.c.c.c.c.c.c.c.c.c.c.c.c.c.c.c.c.c.c.c.c.c.c.c.c.c.c.c.c.c.c.c.c.c.c.c.c.c.c.c.c.c.c.c.c.c.c.c.c.",
"c.c.c.c.b.c.c.c.c.c.c.c.c.c.c.c.c.c.c.c.c.c.c.c.c.c.c.c.c.c.c.c.c.c.c.c.c.c.c.c.c.c.c.c.c.c.c.c.c.c.c.c.c.c.c.c.c.c.c.c.c.c.c.c.",
"c.c.c.c.c.c.c.c.c.c.c.c.c.c.c.c.c.c.c.c.c.c.c.c.c.c.c.c.c.c.c.c.c.c.c.c.c.c.c.c.c.c.c.c.c.c.b.c.c.c.c.c.c.c.c.c.c.c.c.c.c.c.c.c.",
"c.c.c.c.c.c.c.c.c.c.c.c.c.c.c.c.c.c.c.c.c.c.c.c.c.c.c.c.c.c.c.c.c.c.c.c.c.c.c.c.c.c.c.c.c.c.c.c.c.c.c.c.c.c.c.c.c.c.c.c.c.c.c.c.",
"c.c.c.c.c.c.c.c.c.c.c.c.c.c.c.c.c.c.c.c.c.c.c.c.c.c.c.c.c.c.c.c.c.c.c.c.c.c.c.c.c.c.c.c.c.c.c.c.c.c.c.c.c.c.c.c.c.c.c.c.c.c.c.c.",
"c.c.c.c.c.c.c.c.c.c.c.c.c.c.c.c.c.c.c.c.c.c.c.c.c.c.c.c.c.c.c.c.c.c.c.c.c.c.l.l.,.l.c.c.c.c.c.c.c.c.c.c.c.c.c.c.c.c.c.c.c.c.c.c.",
"b.c.c.c.c.c.c.c.c.c.c.c.c.c.c.c.c.c.c.c.c.c.c.c.c.c.c.c.c.c.c.c.c.c.c.c.c.c.l.R.E.0.c.c.c.c.c.c.c.c.c.c.c.c.c.c.c.c.c.c.c.c.c.c.",
"c.c.c.c.c.c.c.c.c.c.c.c.c.c.c.c.c.c.p.v.x.v.c.c.c.c.c.c.c.c.c.c.c.c.c.c.c.c.l.Q.[.U.c.c.c.c.c.c.c.A.c.c.c.c.c.c.c.c.c.c.c.c.c.c.",
"c.c.c.c.c.c.c.c.c.c.c.c.c.c.c.v.c.p.z.1.F.I.P.v.c.c.c.c.c.c.c.c.c.c.c.c.c.c.c.6.3.6.c.c.c.c.c.c.c.c.c.c.c.c.c.c.c.c.c.c.c.c.c.c.",
"c.c.c.c.c.c.c.c.c.c.c.c.c.c.c.c.z.1.H g a s F 9.m.7.l.c.c.c.c.c.c.c.c.c.c.c.v.c.c.c.c.c.c.c.c.c.c.c.c.c.c.c.c.c.c.c.c.c.c.c.c.c.",
"c.c.c.c.c.c.c.c.c.c.c.c.c.c.c.l.L.l k Q K.^ d d C S 1.q.0.m.n.c.l.c.c.l.c.v.n.x.n.c.c.c.c.c.c.c.c.c.c.c.c.c.c.c.c.c.c.c.c.c.c.c.",
"c.c.b.c.c.c.c.c.c.c.b.c.c.c.c.x.2.a F.XXoXI.t r 5 < < 4 t A 1.P.V.m.6.U.B.B..X`.(.e.c.c.c.c.c.c.c.c.c.c.c.c.c.c.c.c.c.c.c.c.c.c.",
"c.c.c.c.c.c.c.c.c.c.c.c.c.c.c.m.K z .X3X7X-X=.g.f.d.r.O.w 2 < 3 t P z z K F.'.[.[.U.c.c.c.c.c.c.c.c.c.c.c.c.c.c.c.c.c.c.c.c.c.c.",
"c.c.c.c.c.c.c.c.c.c.c.c.c.c.c.0.z K %X%X#X:.%.g.*X*X=Xk.j.g.t.#.e q n K n k ^.[.].W.m.v.c.l.c.c.c.c.v.c.c.c.c.c.c.c.c.c.c.c.c.c.",
"c.c.c.c.c.c.c.c.c.c.v.n.v.c.c.L.k J.$XXX Xt 5 +.y.f.*X=X=X=X*X*Xj.N.E.^.^./ I S S Z A 1.q.8.m.x.v.p.n.z.c.c.c.c.c.c.c.c.c.c.c.c.",
"c.c.c.c.c.c.c.c.c.c.7.W.W.>.*.F.s J.XXOXJ.t =.r.=.y.i.d.h.*X*X*Xh.C.@X1X,X.Xx.-.O.e < < 4 0 b <.L.8.Q I.P.p.v.c.c.c.c.c.c.c.c.c.",
"c.c.c.c.c.c.c.c.c.c.m.).).P &.Q j K.^.!.J 3 ..d.g.i.h.g.i.i.y.@.@.{.$X1X7X-Xf.k.*X*Xa.u.+.} 5 1 4 g a a l 2.p.v.c.c.c.c.c.c.c.c.",
"c.c.c.c.c.c.c.c.c.c.m.{.W.8.8.G l ` K.[ V * < } +.%.y.g.h.*X*Xy.#.Q.%X&X1XD.t.k.=X=X*XA.S.S.g.y.O.0 F.J.l z L.v.c.c.c.c.c.c.c.c.",
"c.c.c.c.c.c.c.c.c.c.c.v.c.c.U.l G [ ` T > 2 +...} 6 6 6 O.$.r.i.;.Q.`.#XOX>...%.i.d.g.*X*X=X=X=Xi.u.|.XXF.a I n.c.c.c.c.c.c.c.c.",
"c.c.c.c.c.c.c.c.c.c.c.c.c.n.G.a ! [ ! l - , | X.$.$.#.X.| e 5 5 B _ ] !.H.;.f.f.d.d.s.y.y.s.y.y.%.Z.6X5X.X^ K.Q.x.l.c.b.l.c.c.c.",
"c.c.c.c.c.c.c.c.c.c.c.c.c.n.E p ! { ] K.S 0 7 - < 2 6 | @.@.o.C G.' _ ^ J w %.y.d.j.k.j.t.y.@.} 5 8.&X<XoXQ '.OXB.A.Z.c.c.c.c.c.",
"c.c.c.c.c.c.c.c.c.c.c.c.c.B.D u M K ! ] ~.] E.R.U C 8 - * < C .X1X1X,X4X{.8 5 w 6 X.%.r.r.j.d.r.r R.+X$X/.D ~.R.C.Z.Z.c.c.c.c.c.",
"c.c.c.c.c.c.c.c.c.c.n.n.u.L.i u x x m T W W ) !./.`.(.W.H > 5.$X1X1X5X7X3X<. .$.@...6 6 e ....5 w R.+X$XJ.g G.l.l.b.c.l.c.c.c.c.",
"c.c.c.c.c.c.c.c.c.c.c.c.b.Y.v z K x G v B P L L E ! ` K.! N ~.+XK.K./.5X5X8.2 w X.@.$.$.@.O.| , 9 ] ).).L F oX-XD.c.c.c.c.c.c.c.",
"c.c.c.c.c.c.c.c.c.c.c.c.n.>X4X4X%X) F - % & - 0 B S I E R ! ).'.E x Y XX%XI > 7 = * 1 6 #.;X;Xc.B ] { ] n I >X:XD.c.c.c.c.c.c.c.",
"c.c.c.c.c.c.c.c.c.c.c.c.V.>X7X6X3X!.D & & < , 3 < * = 7 q U +X/.G x Y XX#XR T E.W.2.Z 0 t 2X7X-Xf ) ] ) j / :X;X=XM.c.c.c.c.c.c.",
"c.c.c.c.c.c.c.c.c.c.c.c.V.}.5X6X3XT.v & 5 $.%.y.r.@. .6 < C /.' x x W OXXXE Y ( !.).'.OX.X3X5X|.F ! { ! a G.m.n.n.n.c.c.c.c.c.c.",
"c.c.c.c.c.c.c.c.c.c.c.c.L.v {.%X&X^.9 & , e @.d.j.d.i.y...w _ ] W Y ) ^.G.b H K E E ! ) K.K.~.XXK.[ [ G k I.v.c.c.c.c.c.c.c.c.c.",
"c.c.c.c.c.c.c.c.c.c.c.c.2.y J.OX+XE.7 5 X.@. .%.s.t.i.d.%.< b F.K.[ [ Q f < , 1 4 c V I R E ! ! W ( ) j z P.p.c.c.c.c.c.c.c.c.c.",
"c.c.c.c.c.c.c.c.c.c.c.B.D i !./.^.U = e %.%.r.h.k.h.d.s.r.| < - 0 c c 4 e +.+. .6 2 , < - q V G x x x u K m.c.c.c.c.c.c.c.c.c.c.",
"c.c.c.c.c.c.c.c.c.c.c.V.h h OX$XOXZ % < 5 e $.h.j.*X*X*Xk.h.r.@.e 2 < 5 $.d.g.i.d.t.O., & % = D m x a o F.m.c.c.c.c.c.c.c.c.c.c.",
"c.c.c.c.c.c.c.c.c.c.c.L.i J +X+X Xt <  .%.%.r.y.y.y.s.d.k.k.k.k.A.i.t.y.t.y.y.t.g.j.y.+.6 % 4 ^ ~ T a y L.p.v.c.c.c.c.c.c.c.c.c.",
"c.c.c.c.c.c.c.c.c.c.c.4.; J ^.`.E.7 & 5 } $.d.j.k.h.d.s.y.y.s.d.g.S.*X*X*X*Xg.i.y.+.} } 5 % b K.K.[ a p U.c.c.c.c.c.c.c.c.c.c.c.",
"c.c.c.c.c.c.c.c.c.c.c.>.i X i n V $ % 5 } X.%.y.s.h.h.j.j.j.h.d.y.y.i.g.g.j.*X*Xj.r.+.X.2 & S K.[ ` u D e.p.c.c.c.b.c.c.c.c.c.c.",
"c.c.c.c.c.c.c.c.c.c.c.l.3.H g i .   O + + 2 @.t.d.j.s.t.y.d.j.k.*Xj.h.d.y.y.i.d.d.$.%.%.} < P._./.' y U m.c.c.c.c.b.c.c.c.c.c.c.",
"c.c.c.c.c.c.c.c.c.c.c.c.c.B.V.P.2.S 9 - O   + & 5 ..$.t.s.d.f.S.f.s.s.h.*Xj.j.d.t.| 6 e 5 7 Q.+X+X_ u G.z.c.c.c.c.c.c.c.c.c.c.c.",
"c.c.c.c.c.c.c.c.c.A.c.c.c.c.c.p.l.x.0.0.3.P B : @ + + + 2 &.}.oX}.b.s.s.h.s.d.j.h.y.@.5 & t ~.).).F i 9.c.c.c.c.c.c.c.c.c.c.c.c.",
"c.c.c.c.c.c.c.c.c.c.c.c.c.c.c.c.c.c.c.c.l.x.B.B.e.<.A 9 # 9 @X[.].A @.%.s.d.y.%.O.| e e , >.OXOX/.p n 8.c.c.c.c.c.c.c.c.c.c.c.c.",
"c.c.c.c.c.c.c.c.c.c.c.c.c.n.A.c.b.c.c.c.b.l.e.R.5.>.7.e.q.I.+X$X'.> O + , 5 X.X. .e 6 , * q.+X$X~.i J x.c.c.c.c.c.c.c.c.c.c.c.c.",
"c.c.c.c.c.c.c.c.c.c.c.c.c.A.S.A.A.c.c.c.c.v. X].[.U.c.c.l.7.R.R.R.5.S B : .   O O O $ $ 1 I.'.+XG.o U z.v.c.c.c.c.c.c.c.c.c.c.v.",
"c.c.c.c.c.c.c.c.c.c.c.c.c.c.N.A.A.c.c.c.c.v. X[.[.R.l.c.l.l.a.l.b.b.x.B.e.q.<.C 9 #     @ f K / n i L.l.c.c.c.c.c.c.c.c.c.c.c.c.",
"c.c.c.c.c.c.c.c.c.c.c.c.c.c.c.b.c.c.c.c.c.z.}. X`.w.b.c.b.c.c.c.c.c.b.b.c.c.n.B.0.q.3.S f i X o ; h e.c.c.c.c.c.c.c.c.c.c.c.c.c.",
"c.c.c.c.c.c.c.c.c.c.c.c.c.c.c.c.c.c.c.c.c.c.n.n.b.l.l.c.b.l.c.c.c.c.c.l.c.c.c.c.c.z.z.x.B.P.F.I H <.z.c.c.c.c.c.c.c.c.c.c.c.c.c.",
"c.c.c.c.c.c.c.c.c.c.c.c.c.c.c.c.c.c.c.c.c.c.c.c.c.c.c.c.c.c.c.c.c.c.c.c.c.c.c.c.c.c.c.c.c.c.l.z.n.l.c.c.c.c.c.c.c.c.c.c.c.c.c.c.",
"c.c.c.c.c.c.c.c.c.c.c.c.c.c.c.c.c.c.c.c.c.c.c.c.c.c.c.c.c.c.c.c.c.c.c.c.c.c.c.c.c.c.c.c.c.c.c.c.c.c.c.c.c.c.c.c.c.c.c.c.c.c.c.c.",
"c.c.c.c.c.c.c.c.c.c.c.c.c.c.c.c.c.c.c.c.c.c.c.c.c.c.c.c.c.c.c.c.c.c.c.c.c.c.c.c.c.c.c.c.c.c.c.c.c.c.c.c.c.c.c.c.c.c.c.c.c.c.c.c.",
"c.c.c.c.c.c.c.c.c.c.c.c.c.c.c.c.c.c.c.c.c.c.c.c.c.c.l.l.l.l.c.c.c.c.c.c.c.c.c.c.c.c.c.c.c.c.c.c.c.c.c.c.c.c.c.c.c.c.c.c.c.c.c.c.",
"c.c.c.c.c.c.c.c.c.c.c.c.c.c.c.c.c.c.c.c.c.c.c.c.c.p.b b C a.c.c.c.c.c.c.c.c.c.c.c.c.c.c.c.c.c.c.c.c.c.c.c.c.c.c.c.c.c.c.c.c.c.c.",
"c.c.c.c.c.c.c.c.c.c.c.c.c.c.c.c.c.c.c.c.c.c.c.c.c.;.c b B p.c.c.c.c.c.c.c.c.c.c.c.c.c.c.c.c.c.c.c.c.c.c.c.c.c.c.c.c.c.c.c.c.c.c.",
"c.c.c.c.c.c.c.c.c.c.c.c.c.c.c.c.c.c.c.c.c.c.c.c.c.p.b c B :.c.c.c.c.c.c.c.c.c.c.c.c.c.c.c.c.c.c.c.c.c.c.c.c.c.c.c.c.c.c.c.c.c.c.",
"c.c.c.c.c.c.c.c.c.c.c.c.c.c.c.c.c.c.c.c.c.c.c.c.c.p.A c C :.c.c.c.c.c.c.c.c.b.c.c.c.c.c.v.c.c.c.c.c.c.c.c.c.c.c.c.c.c.c.c.c.c.c."
};
