/* XPM */
static char *B951721604128[] = {
/* columns rows colors chars-per-pixel */
"64 64 214 2 ",
"   c #77513B",
".  c #7B533D",
"X  c #323544",
"o  c #34384B",
"O  c #383A48",
"+  c #3E4353",
"@  c #47454A",
"#  c #55504C",
"$  c #474956",
"%  c #464A5B",
"&  c #494D5C",
"*  c #4E515E",
"=  c #54545C",
"-  c #5A575A",
";  c #795844",
":  c #625D5B",
">  c #69635D",
",  c #78685A",
"<  c #7E705E",
"1  c #4D5363",
"2  c #525663",
"3  c #555964",
"4  c #545B6B",
"5  c #5A5D68",
"6  c #575F71",
"7  c #5B616F",
"8  c #5D6474",
"9  c #5F6778",
"0  c #5F6878",
"q  c #636264",
"w  c #6A6867",
"e  c #736C65",
"r  c #75726B",
"t  c #7C7568",
"y  c #656A75",
"u  c #626B7C",
"i  c #6F7072",
"p  c #7A7874",
"a  c #815C44",
"s  c #88654B",
"d  c #906647",
"f  c #966A4A",
"g  c #996D4C",
"h  c #97704E",
"j  c #9C714F",
"k  c #826A58",
"l  c #916F52",
"z  c #947456",
"x  c #9B7351",
"c  c #9C7C5B",
"v  c #AE794F",
"b  c #A37A55",
"n  c #A87852",
"m  c #A47E5A",
"M  c #B57C51",
"N  c #857866",
"B  c #857B6B",
"V  c #847F72",
"C  c #A9845E",
"Z  c #B88458",
"A  c #BC8A5C",
"S  c #8D826C",
"D  c #978469",
"F  c #8C8675",
"G  c #948B76",
"H  c #9B927A",
"J  c #A48664",
"K  c #AA8A65",
"L  c #AC8E69",
"P  c #AC916C",
"I  c #B99568",
"U  c #A89778",
"Y  c #B59A74",
"T  c #B99D75",
"R  c #BDA278",
"E  c #C08F5E",
"W  c #C1905F",
"Q  c #C59764",
"!  c #C39D6B",
"~  c #C99D69",
"^  c #C19F70",
"/  c #C6A26E",
"(  c #CDA46D",
")  c #D0A46C",
"_  c #C9A978",
"`  c #D2AC74",
"'  c #CEB27E",
"]  c #D7B176",
"[  c #D5B37A",
"{  c #DAB679",
"}  c #DDBA7C",
"|  c #E1BD7D",
" . c #E3C07E",
".. c #656E80",
"X. c #667082",
"o. c #6A7484",
"O. c #6D7788",
"+. c #6E798A",
"@. c #717C8D",
"#. c #737F91",
"$. c #768294",
"%. c #798595",
"&. c #79879A",
"*. c #7D8A9C",
"=. c #7F8EA1",
"-. c #8B898A",
";. c #9A9588",
":. c #848E9A",
">. c #8D9399",
",. c #939393",
"<. c #9A9896",
"1. c #A49B82",
"2. c #A69D8C",
"3. c #B09E82",
"4. c #A29D95",
"5. c #AAA38A",
"6. c #B6A787",
"7. c #BBAD8C",
"8. c #BDB18D",
"9. c #AAA499",
"0. c #A9A59D",
"q. c #B5AB94",
"w. c #B5AC94",
"e. c #B3AC9A",
"r. c #B7B090",
"t. c #BCB297",
"y. c #BCB39B",
"u. c #818FA1",
"i. c #8593A4",
"p. c #8796A6",
"a. c #8997A9",
"s. c #8C9BAD",
"d. c #9B9DA4",
"f. c #8E9FB0",
"g. c #A19FA2",
"h. c #97A3AE",
"j. c #8FA0B1",
"k. c #93A3B4",
"l. c #99A8B7",
"z. c #97A8B9",
"x. c #9BACBC",
"c. c #9EB0BF",
"v. c #A4A3A5",
"b. c #A9A6A3",
"n. c #AEAAA5",
"m. c #A7A6AB",
"M. c #A8A7A9",
"N. c #ABAAAA",
"B. c #B2ADA4",
"V. c #B2AEA9",
"C. c #BBB5A4",
"Z. c #BAB5A7",
"A. c #B5B2AB",
"S. c #A0AFBE",
"D. c #A3B0BB",
"F. c #B6B5B2",
"G. c #C3AC85",
"H. c #C5B289",
"J. c #DABB82",
"K. c #D2B588",
"L. c #C1AF90",
"P. c #C4B995",
"I. c #CBBA93",
"U. c #C4B798",
"Y. c #CABC9B",
"T. c #C5BBA2",
"R. c #C4BCA3",
"E. c #D8C28B",
"W. c #CBC197",
"Q. c #D7C896",
"!. c #D4CB9C",
"~. c #DDD09E",
"^. c #E2C284",
"/. c #E6CA8A",
"(. c #E6CC8E",
"). c #EAD18E",
"_. c #E2C695",
"`. c #E4CD91",
"'. c #ECD494",
"]. c #EEDC96",
"[. c #E5D498",
"{. c #EBDB9C",
"}. c #F0DF96",
"|. c #F1DC9B",
" X c #EDE29E",
".X c #F5E29D",
"XX c #F5EA9C",
"oX c #F9EE9A",
"OX c #FBF19D",
"+X c #D2CAA7",
"@X c #D4CCAD",
"#X c #C5C4BC",
"$X c #EDDBA3",
"%X c #E5D6A9",
"&X c #F0DEA9",
"*X c #E4D8B5",
"=X c #F4E3A2",
"-X c #F6E7A7",
";X c #F9E9A7",
":X c #FAEBAB",
">X c #EFE4B2",
",X c #F7E9B6",
"<X c #9EB0C0",
"1X c #A0B2C1",
"2X c #C7C9C4",
"3X c #D7D7C9",
"4X c #E3DDC7",
"5X c #EAE4CA",
"6X c #F5ECC9",
"7X c #EFEBD0",
"8X c #F4EED8",
"9X c #FAF3D6",
"0X c #FAF4DB",
"qX c #FAF8E7",
/* pixels */
"m.m.m.m.m.m.m.m.m.m.m.m.m.m.m.m.m.m.m.m.m.m.m.m.m.m.m.m.m.m.m.m.m.m.m.m.m.m.m.m.m.m.m.m.m.m.m.m.m.m.m.m.m.m.m.m.m.m.m.m.m.m.m.m.",
"m.m.m.m.m.m.m.m.m.m.m.m.m.m.m.m.m.m.m.m.m.m.m.m.m.m.N.m.m.m.m.m.m.m.m.m.m.m.m.m.m.m.m.m.m.m.m.m.m.m.m.m.m.m.m.m.m.m.m.m.m.m.m.m.",
"m.m.m.m.m.m.m.m.m.m.m.m.m.m.m.m.m.m.m.m.m.m.m.m.m.m.m.m.m.m.m.m.m.m.m.m.m.m.m.m.m.m.m.m.m.m.m.m.m.m.m.m.m.m.m.m.m.m.m.m.m.m.m.m.",
"m.m.m.m.m.m.m.m.m.m.m.m.m.m.m.m.m.m.m.m.m.m.m.m.m.m.m.m.m.m.m.m.m.m.m.m.m.m.m.m.m.m.m.m.m.m.m.m.m.m.m.m.m.m.m.m.m.m.m.m.m.m.m.m.",
"m.m.m.m.m.m.m.m.m.m.m.m.m.m.m.m.m.m.m.m.m.m.m.m.m.m.m.m.m.m.m.m.m.m.m.m.m.m.m.m.m.m.m.m.m.m.m.m.m.m.m.m.m.m.m.m.m.m.m.m.m.m.m.m.",
"m.m.m.m.m.m.m.m.m.m.m.m.m.m.m.m.m.m.m.m.m.m.m.m.m.m.m.m.m.m.m.m.m.m.m.m.m.m.m.m.m.m.m.m.m.m.m.m.m.m.m.m.m.m.m.m.m.m.m.m.m.m.m.m.",
"m.m.m.m.m.m.m.m.m.m.m.m.m.m.m.m.m.m.m.m.m.m.m.m.m.m.m.m.m.m.m.m.m.m.m.m.m.m.m.m.m.m.m.m.m.m.m.m.m.m.m.m.m.m.m.m.m.m.m.m.m.m.m.m.",
"m.m.m.m.m.m.m.m.m.m.m.m.m.m.m.m.m.m.m.m.m.m.m.m.m.m.m.m.m.m.m.m.m.m.m.m.m.m.m.m.m.m.m.m.m.m.m.m.m.m.m.m.m.m.m.m.m.m.m.m.m.m.m.m.",
"m.m.m.m.m.m.m.m.m.m.m.m.m.m.m.m.m.m.m.m.m.m.m.m.m.m.m.m.m.m.m.m.m.m.m.m.m.m.m.m.m.D.m.m.m.m.m.m.m.m.m.m.m.m.m.m.m.m.m.m.m.m.m.m.",
"m.m.m.m.m.m.m.m.m.m.m.m.m.m.m.m.m.m.m.m.m.m.m.m.m.m.m.m.m.m.m.m.m.m.m.m.m.m.m.m.m.m.m.m.m.m.m.m.m.m.m.m.m.m.m.m.m.m.m.m.m.m.m.m.",
"m.m.m.m.m.m.m.m.m.m.m.m.m.m.m.m.m.m.m.m.m.m.m.m.m.m.m.m.m.m.m.m.m.m.m.m.m.m.m.m.m.m.m.m.m.m.m.m.m.m.m.m.m.m.m.m.m.m.m.m.m.m.m.m.",
"m.m.m.m.m.m.m.m.m.m.m.m.m.N.m.m.m.m.m.m.m.m.m.m.m.m.m.m.m.m.m.m.m.m.m.m.m.m.m.m.m.m.m.m.m.m.m.m.m.m.m.m.m.m.m.N.m.m.m.m.m.m.m.m.",
"m.m.m.m.m.m.m.m.m.m.m.N.m.m.m.m.m.m.m.m.m.m.m.m.m.m.m.m.m.m.m.m.m.m.m.m.m.m.m.m.m.m.g.T.T.0.m.m.m.m.m.m.m.m.m.m.m.m.m.m.m.m.m.m.",
"m.m.m.m.m.m.m.m.m.m.m.m.m.m.m.m.m.m.m.m.m.m.m.m.m.m.m.m.m.m.m.m.m.m.m.m.m.m.m.m.m.m.;.[. XH.v.m.m.m.m.m.m.m.m.m.m.m.m.m.m.m.m.m.",
"m.m.m.m.m.m.m.m.m.m.m.m.m.m.m.m.m.m.m.m.m.m.m.m.m.m.m.m.m.m.m.m.m.m.m.m.m.m.m.m.m.m.b.~.'.8.v.m.m.m.m.m.m.m.m.m.m.m.m.m.m.m.m.m.",
"m.m.m.m.m.m.m.m.m.m.m.m.m.m.m.m.m.m.m.m.m.m.m.m.m.m.m.m.m.m.m.m.m.m.m.m.m.m.m.m.m.m.m.4.5.<.m.m.m.m.m.m.m.m.m.m.m.m.m.m.m.m.m.m.",
"m.m.m.m.m.m.m.m.m.m.m.m.m.m.m.m.m.m.m.m.m.m.m.m.m.m.m.m.m.m.m.m.m.m.m.m.m.m.m.m.m.m.M.M.M.M.v.m.m.m.m.m.m.m.m.m.m.m.m.m.m.m.m.m.",
"m.m.m.m.m.m.m.m.m.m.m.m.m.m.m.m.m.m.m.m.m.m.m.m.m.m.m.m.m.m.m.m.m.m.m.m.m.m.m.m.m.m.n.W.W.W.W.M.m.m.m.m.m.m.m.m.m.m.m.m.m.m.m.m.",
"m.m.m.m.m.m.m.m.m.m.m.m.m.m.m.m.m.m.m.m.m.m.m.m.m.m.m.m.m.m.m.m.m.m.m.m.m.m.m.m.m.m.B. XoXOX Xn.m.m.m.m.m.m.m.m.m.m.m.m.m.m.m.m.",
"m.m.m.m.m.m.m.m.m.m.m.m.m.m.m.m.m.m.m.m.m.m.m.m.m.m.m.m.m.m.m.m.m.m.m.m.m.m.m.m.m.m.A. XOXOX Xn.m.m.m.m.m.m.m.m.m.m.m.m.m.m.m.m.",
"m.m.m.m.m.m.m.m.m.m.m.m.m.m.m.m.m.m.m.m.m.m.m.m.m.m.m.m.m.m.m.m.m.m.m.m.m.m.m.m.m.m.V. XoXoX{.n.m.m.m.m.m.m.m.m.m.m.m.m.m.m.m.m.",
"m.m.m.m.m.m.m.m.m.m.m.m.m.m.m.m.m.m.m.m.m.m.m.m.m.m.m.m.m.m.m.m.m.m.m.m.m.m.m.m.m.m.b.9.r.w.w.v.m.N.V.m.m.m.m.m.m.m.m.m.m.m.m.m.",
"m.m.m.m.m.m.m.m.m.m.m.m.m.m.m.m.m.m.m.m.m.m.m.m.m.m.m.m.m.m.m.m.M.M.m.m.m.m.m.m.m.M.M.h.v.m.g.<.w.U.G.6.9.g.m.m.m.m.m.m.m.m.m.m.",
"m.m.m.m.m.m.m.m.m.m.m.m.m.m.m.m.m.m.m.m.m.m.m.m.m.m.m.m.m.m.v.B.C.B.w.9.M.M.0.e.B.B.e.r.y.U.r.6.J x g g K 2.v.m.m.m.m.m.m.m.m.m.",
"m.m.m.m.m.m.m.g.m.m.m.m.m.m.m.m.m.m.m.g.g.m.m.g.N.m.m.M.N.9.1.Y Y P K Y G.6.2.1.H G F p i q q : k T [ I f m 5.b.m.m.m.m.m.m.m.m.",
"m.m.m.m.g.,.,.<.g.N.m.m.g.g.q.U.Y.L.q.0.2.q.q.U.T.e.q.2.5.U P h x b m j , 2 = 2 3 3 6 8 y X.+.+.i U.$X[./ f K y.m.m.m.m.m.m.m.m.",
"m.m.m.m.<.t < N g.m.m.m.m.2.K n b x K H V V e w w 5 3 3 3 5 e L /.[.`.T -.%.u.p.s.j.k.l.x.x.<Xk.*.2XqX8X%XC m Y.m.m.m.m.m.m.m.m.",
"m.m.m.m.-.S B F g.m.m.m.0.P g C ^ K ; : 5 6 9 u o.@.#.:.:.s.m.~.{.>X,X@XS.1X1X1X<X1X<X<X<X<X<Xz.u.2X0X0X6XY b I.N.m.m.m.m.m.m.m.",
"m.m.m.m.:.1.;.1.g.N.m.g.3.j L /.[.6.i a.k.l.l.<Xx.S.1XS.S.1Xx.@X,X0XqX7XM.x.x.1Xc.x.x.x.z.k.p.@.u 5.>X:X,X_ x W.N.m.m.m.m.m.m.m.",
"m.m.m.m.m.v.m.g.m.m.m.R.m m _.6X8X3Xi.k.<X1X<X1X1XS.1Xx.<Xx.k.@X:X6XqX7X>.$.i.s.s.s.s.s.a.i.%.%...;.-X;X-X' x I.N.m.m.M.m.m.m.m.",
"m.m.m.m.m.m.m.m.m.m.m.R.A m *X0XqX3X%.u.f.k.l.l.l.k.k.f.a.$.o.C.:X,X:X>X;.*.s.k.z.x.x.x.s.z.x.a.O.F `..X;X` g K.b.m.m.m.M.m.m.m.",
"m.m.m.m.m.m.m.m.m.m.m.R.Y m *X,X:X~.q y ..+.i.a.f.k.k.k.z.f.a.B. X&X}.`.<.k.x.x.k.k.a.a.=.*.&.9 1 r J./.(.( f G.n.m.m.m.m.v.4.v.",
"m.m.m.m.m.m.m.m.m.m.m.C.T x {.:X:X[.r %.f.l.k.s.x.x.c.z.z.k.a.;.J.} { [ B X.+.+.X.u 9 8 9 8 9 8 1 q ' ^.| ) g _ B.M.m.m.m.4.q.r.",
"m.m.m.m.m.m.m.m.m.m.m.V._ j _.;X=XE.e u %.a.a.*.&.%.$.+.o.X.y N ! ` [ K.U q y o.+.@.#.&.&.&.*.&.8 = L { | ` g ! B.M.m.m.v.0.7.7.",
"m.m.m.m.m.m.m.m.m.m.m.V.G.f ` ].'.} , & 3 0 0 0 y 8 u X.X.u i t.%X>X8XqX6X6.y @.#.@.o.X.u y 8 6 1 = c Q | { g I y.M.M.m.v.v.0.0.",
"m.m.m.m.m.m.m.m.m.m.m.V.G.f / ^. .} < 1 O.$.$.*.&.%.&.&.$.o.5.>X0X9X9XqXqX5Xr * * 2 2 3 3 q w i r G _ ] | { x L y.v.m.m.m.m.m.M.",
"m.m.m.m.m.m.m.m.m.m.m.m.I.f Q ^.} ( , * u o.u u u 7 4 4 4 3 r.:X6X,X&X,X0X6XH k H 6.L.W.Q.~.[._.E.'./.} [ ` x m U.m.m.m.m.h.,.d.",
"m.m.m.m.m.m.m.F.F.A.N.m.Y.g A | [ A s $ * = 7 q w i p F B k H.-X$X! E ~ &X,X` M [ {.'././.E.{ ( ~ ( Q A Z A f l Y.M.m.m.m.m.>.,.",
"m.m.m.m.m.m.#X8X8X8XR.m.Y.n Z | { ~ _ U U L.!.~.[.$X{. X{ Z [ ;X'.E M E $X,XJ.A Q ~ ~ Q Q ! ! I T T I Z Z / *X*X4XN.m.m.m.v.>.,.",
"m.m.m.m.m.v.2X9X9XqX2Xm.T.m C | | } ).].J.} ^.J.J.[ ] ` Q A ] -X|.E M M '.;XQ.P D D D N t e > 5 - = k A Z K.8XqX8XF.m.m.m.h.>.-.",
"m.m.m.m.m.m.2X8X8X0X2Xm.W.c d W Q A W ~ Q Q ~ ! / / I T Y P 7.-X'.E M M ] '.6.= & = * 2 2 2 & & % % t ` ` _.0X0X7XF.m.m.m.m.g.g.",
"m.m.m.m.m.m.F.4X5X5X#Xv.T.D . v M M A K D N N e w - : - * * w E.^.] W ) | [ B q +.#.#.u.i.u.O...4 % r J.^./.%XY.*XV.m.m.m.m.m.m.",
"m.m.m.m.m.m.m.N.N.N.m.m.R.J ; v M M A # $ $ $ 1 4 8 9 u o.O.7 p G.J.K.{ [ D 5 #.s.z.a.x.<Xz.=.&.8 % w K.^.| / ; 7.A.m.m.m.m.m.m.",
"m.m.m.m.m.m.m.m.m.m.m.m.A.P . A ~ ) ! - $ * 8 u i.s.f.p.k.s.$.2 e c N N e 3 5 &.f.k.a.f.a.@.8 8 4 % w _.|.|.J.; Y V.m.m.m.m.m.m.",
"m.m.m.m.m.m.m.m.m.m.m.m.C.Y   / |  .] > % u %.*.k.x.z.s.k.k.i.X.1 4 4 4 6 ..&.s.f.k.z.z.k.=.&.&.#.4 q %X:X:X[.a P C.m.m.m.m.m.m.",
"m.m.m.m.m.m.m.m.m.m.m.m.A.R   / } } { > % 4 0 u +.p.j.s.s.j.k.k.a.s.f.k.l.l.l.<X<X<X<X<X<Xf.=.*.&.8 5 !.|.|.`.a J R.m.m.m.m.m.m.",
"m.m.m.m.m.m.m.m.m.m.m.m.N.8.. R ).).).B % 7 +.$.&.s.x.<X<X<X<X<X<X<X<X<X<Xl.<X<Xz.z.k.k.f.*.9 9 8 1 2 P.'.|.'.s z R.m.m.m.m.m.m.",
"m.m.m.m.m.m.m.m.m.m.m.m.v.H.. R ;X;X=XG 1 @.*.*.i.z.<Xx.z.z.z.k.k.j.s.s.s.s.s.s.f.f.k.f.k.k.i.&.#.4 2 P.:X:X=Xx l R.m.m.m.m.m.m.",
"m.m.m.m.m.m.m.m.m.m.m.m.m.U.; L =X.X].H & y u u X.i.s.s.j.j.j.k.k.k.k.x.z.<X<Xx.<X<Xx.z.z.k.*.+.u 4 1 7.;X;X=XD s I.M.m.m.m.m.m.",
"m.m.m.m.N.m.m.m.m.m.m.m.m.R.a m ).).'.U % 1 u +.p.k.x.x.<X<Xx.x.x.x.<Xx.c.j.s.k.f.z.s.f.i.&.o.X.u 1 & 2.}.'./.C s I.M.m.m.m.m.m.",
"m.m.m.m.m.m.m.m.m.m.m.m.m.y.s c =X=XXX8.* 8 @.$.u.a.j.j.j.z.f.s.s.k.x.k.c.j.h.k.j.j.f.s.=.+.5 2 * $ + > C x x a s q.M.m.m.m.m.m.",
"m.m.m.m.m.m.m.m.m.m.m.m.m.U.l z =X:X;XI.= * 8 y u #.=.s.j.z.j.j.s.s.p.=.%.$.$.u 0 8 4 1 % % X X X X X @ ; ; s l U v.M.m.m.m.m.m.",
"m.m.m.m.m.m.m.m.m.m.m.m.m.Z.z s {..X.XE.= % 4 8 6 y o.o.X.9 7 4 1 & + + O O O O o @ $ # : > B B S H 2.5.8.L.U.y.b.m.m.m.m.m.m.m.",
"m.m.m.m.m.m.m.m.m.m.m.m.m.C.K . ! / I c @ o X X X X o o O o @ @ $ - > e p F ;.5.6.r.y.y.y.q.e.e.B.n.n.n.M.b.m.m.M.m.m.m.m.m.m.m.",
"m.m.m.m.m.m.m.m.m.m.m.m.m.n.3.;   . ; ; # # - q r V F H 1.2.6.8.r.w.y.C.e.e.0.n.b.b.N.N.m.m.m.m.M.m.m.m.m.m.m.m.m.m.m.m.m.m.m.m.",
"m.m.m.m.m.m.m.m.m.m.m.m.m.m.b.6.R 6.G.H.P.t.y.y.t.e.B.B.B.v.v.v.M.m.n.h.m.m.m.m.m.m.m.M.m.m.m.m.m.m.m.m.m.m.m.m.m.m.m.m.m.m.m.m.",
"m.m.m.m.m.m.m.m.m.m.m.m.m.m.m.v.B.n.n.N.N.v.m.m.N.h.m.m.m.m.m.m.m.m.m.m.m.m.m.m.m.m.m.m.m.m.m.m.m.m.m.m.m.m.m.m.m.m.m.m.m.m.m.m.",
"m.m.m.m.m.m.m.m.m.m.m.m.m.m.m.m.m.m.m.m.m.m.m.m.m.m.m.m.m.F.R.R.C.N.m.m.m.m.m.m.m.m.m.m.m.m.m.m.m.m.m.m.m.m.m.m.m.m.m.m.m.m.m.m.",
"m.m.m.m.m.m.m.m.m.m.m.m.m.m.m.m.m.m.A.+X+X!.Z.m.m.m.m.m.m.+XXXXXXXW.m.m.m.m.m.m.m.m.m.m.m.m.m.m.m.m.m.m.m.m.m.m.m.m.m.m.m.m.m.m.",
"m.m.m.m.m.m.m.m.m.m.m.m.m.m.m.m.m.m.C.{.].].!.m.m.m.m.m.m.+XoXoXoXW.m.m.m.m.m.m.m.m.m.m.m.m.m.m.m.m.m.m.m.m.m.m.m.m.m.m.m.m.m.M.",
"m.m.m.m.m.m.m.m.m.m.m.m.m.m.m.m.m.m.C.{.]..X!.m.m.m.m.m.m.+XXXoXXXW.m.m.m.m.m.m.m.m.m.m.m.m.m.m.m.m.m.m.m.m.m.m.m.m.m.m.m.m.m.m.",
"m.m.m.m.m.m.m.m.m.m.m.m.m.m.m.m.m.m.C.{. X].W.m.m.m.m.m.m.C.!.!.!.A.m.m.m.m.m.m.m.m.m.m.m.m.m.m.m.m.m.m.m.m.m.m.m.m.m.m.m.m.m.m.",
"m.m.m.m.m.m.m.m.m.m.m.m.m.m.m.m.m.m.v.y.7.8.e.m.m.m.m.m.m.m.M.m.m.m.m.m.m.m.m.m.m.m.m.m.m.m.m.m.m.m.m.m.m.m.m.m.m.m.m.m.m.m.m.m.",
"m.m.m.m.m.m.m.m.m.m.m.m.m.m.m.m.m.m.m.m.m.v.m.m.m.m.m.m.m.m.m.m.m.m.m.m.m.m.m.m.m.m.m.m.m.m.m.m.m.m.m.m.m.m.m.m.m.m.m.m.m.m.m.m."
};
