/* XPM */
static char *B961721604128[] = {
/* columns rows colors chars-per-pixel */
"64 64 216 2 ",
"   c #30323E",
".  c #754E39",
"X  c #7A4F39",
"o  c #77513C",
"O  c #7A533D",
"+  c #2F3242",
"@  c #343745",
"#  c #393A45",
"$  c #3C3E4B",
"%  c #3E4252",
"&  c #49484B",
"*  c #484A55",
"=  c #464A5A",
"-  c #4B4E5C",
";  c #4E515D",
":  c #54545B",
">  c #595759",
",  c #62554A",
"<  c #785742",
"1  c #7E5A43",
"2  c #635C57",
"3  c #69625B",
"4  c #756657",
"5  c #4A4F60",
"6  c #4E5363",
"7  c #525662",
"8  c #565963",
"9  c #5B5C61",
"0  c #515769",
"q  c #555B6B",
"w  c #585E6E",
"e  c #585F70",
"r  c #635F60",
"t  c #5B606C",
"y  c #5C6374",
"u  c #5E6678",
"i  c #676666",
"p  c #696462",
"a  c #6B6A6B",
"s  c #736D65",
"d  c #7A7469",
"f  c #626977",
"g  c #636B7C",
"h  c #69717F",
"j  c #797771",
"k  c #805D45",
"l  c #88644A",
"z  c #956A4A",
"x  c #996D4D",
"c  c #9B714E",
"v  c #816150",
"b  c #8A6B53",
"n  c #8F7257",
"m  c #9C7452",
"M  c #957659",
"N  c #9B7C5C",
"B  c #A06D49",
"V  c #A8754D",
"C  c #A17752",
"Z  c #A47C58",
"A  c #B57C51",
"S  c #887B68",
"D  c #977C61",
"F  c #837F73",
"G  c #AA835B",
"H  c #B98658",
"J  c #8B836F",
"K  c #968267",
"L  c #8B8678",
"P  c #958B76",
"I  c #9C9279",
"U  c #A78864",
"Y  c #AC8B65",
"T  c #A38A6A",
"R  c #B1926A",
"E  c #B3946B",
"W  c #B99568",
"Q  c #A89576",
"!  c #B79B74",
"~  c #BBA379",
"^  c #C08E5D",
"/  c #C49562",
"(  c #C49967",
")  c #C99A65",
"_  c #C59C6A",
"`  c #C99D68",
"'  c #C7A16E",
"]  c #CDA26C",
"[  c #CDA771",
"{  c #CAAA75",
"}  c #C7AA7B",
"|  c #D0A771",
" . c #D3AB72",
".. c #D1AC74",
"X. c #D8B479",
"o. c #DDBA7C",
"O. c #E1BD7C",
"+. c #646E80",
"@. c #677081",
"#. c #6A7384",
"$. c #6C7689",
"%. c #6F7A8C",
"&. c #787D85",
"*. c #717C8D",
"=. c #737F92",
"-. c #758192",
";. c #798595",
":. c #778598",
">. c #79879A",
",. c #7C8A9C",
"<. c #7F8DA1",
"1. c #8A8C8D",
"2. c #9D9781",
"3. c #898F93",
"4. c #808E9E",
"5. c #9B999A",
"6. c #A59C85",
"7. c #B29F81",
"8. c #A29C95",
"9. c #AEA58B",
"0. c #B8A785",
"q. c #B3AA8E",
"w. c #BBB18C",
"e. c #AAA49B",
"r. c #AEA99D",
"t. c #B4AB94",
"y. c #B8AD95",
"u. c #B4AE9C",
"i. c #BDB293",
"p. c #B6B09B",
"a. c #BBB39C",
"s. c #818FA2",
"d. c #8493A5",
"f. c #8997A7",
"g. c #8B9BAD",
"h. c #8E9EB0",
"j. c #909FB0",
"k. c #A19FA1",
"l. c #8FA0B1",
"z. c #93A3B4",
"x. c #96A7B8",
"c. c #97A8B8",
"v. c #9BADBC",
"b. c #9FB0BF",
"n. c #A5A3A5",
"m. c #A9A6A5",
"M. c #AEAAA4",
"N. c #A7A6AB",
"B. c #A8A7AA",
"V. c #ACAAAA",
"C. c #B3AEA3",
"Z. c #B1AEA8",
"A. c #B6B1A5",
"S. c #BAB4A4",
"D. c #B8B3A9",
"F. c #A7B2B9",
"G. c #B9B8B4",
"H. c #C3AD86",
"J. c #CAB689",
"K. c #D4B985",
"L. c #DBBE84",
"P. c #C5B693",
"I. c #CBBA94",
"U. c #C4B999",
"Y. c #CBBD9C",
"T. c #D1BC92",
"R. c #C3BAA3",
"E. c #DAC38B",
"W. c #DDC993",
"Q. c #D4C798",
"!. c #DBD195",
"~. c #E2C284",
"^. c #E4C789",
"/. c #E4C98B",
"(. c #E9CE8D",
"). c #E8D08F",
"_. c #E4CD93",
"`. c #E2CE9C",
"'. c #EBD493",
"]. c #E8D498",
"[. c #ECDB9C",
"{. c #F1DD9B",
"}. c #EEE49A",
"|. c #F3E49D",
" X c #F4EB99",
".X c #F8EC9C",
"XX c #F9F09A",
"oX c #CAC4A6",
"OX c #DCD2A7",
"+X c #C6C3BA",
"@X c #D5D1BF",
"#X c #E9DAA6",
"$X c #ECDEB2",
"%X c #EFE1A5",
"&X c #F5E4A3",
"*X c #FAEAA5",
"=X c #F5E6A9",
"-X c #FBEDAA",
";X c #EBE1BD",
":X c #FBEFB3",
">X c #F6EABA",
",X c #FBF0B6",
"<X c #9EAFC0",
"1X c #9FB1C0",
"2X c #A0B2C0",
"3X c #C8C6C1",
"4X c #D1CFCA",
"5X c #D9D6C6",
"6X c #EAE3C7",
"7X c #F5EDCA",
"8X c #E7E5D7",
"9X c #F6EFD2",
"0X c #F9F1D3",
"qX c #F9F3D8",
"wX c #F8F4E3",
"eX c #FBF9EA",
/* pixels */
"N.N.N.N.N.N.N.N.N.N.N.N.N.N.N.N.N.N.N.N.N.N.N.N.N.N.N.N.N.N.N.N.N.N.N.N.N.N.N.N.N.N.N.N.N.N.N.N.N.N.N.N.N.N.N.N.N.N.N.N.N.N.N.N.",
"N.N.N.N.N.N.N.N.N.N.N.N.N.N.N.N.N.N.N.N.N.N.N.N.N.N.N.N.N.N.N.N.N.N.N.N.N.N.N.N.N.N.N.N.N.N.N.N.N.N.N.N.N.N.N.N.N.N.N.N.N.N.N.N.",
"N.N.N.N.N.N.N.N.N.N.N.N.N.N.N.N.N.N.N.N.N.N.N.N.N.N.N.N.N.N.N.N.N.N.N.N.N.N.N.N.N.N.N.N.N.N.N.N.N.N.N.N.N.N.N.N.N.N.N.N.N.N.N.N.",
"N.N.N.N.N.N.N.N.N.N.N.N.N.N.N.N.N.N.N.N.N.N.N.N.N.N.N.N.N.N.N.N.N.N.N.N.N.N.N.N.N.N.N.N.N.N.N.N.N.N.N.N.N.N.N.N.N.N.N.N.N.N.N.N.",
"N.N.N.N.N.N.N.N.N.N.N.N.N.N.N.N.N.N.N.N.N.N.N.N.N.N.N.N.N.N.N.N.N.N.N.N.N.N.N.N.N.N.N.N.N.N.N.N.N.N.N.N.N.N.N.N.N.N.N.N.N.N.N.N.",
"N.N.N.N.N.N.N.N.N.N.N.N.N.N.N.N.N.N.N.N.N.N.N.N.N.N.N.N.N.N.N.N.N.N.N.N.N.N.N.N.N.N.N.N.N.N.N.N.N.N.N.N.N.N.N.N.N.N.N.N.N.N.N.N.",
"N.N.N.N.N.N.N.N.N.N.N.N.N.N.N.N.N.N.N.N.N.N.N.N.N.N.N.N.N.N.N.N.N.N.N.N.N.N.N.N.N.N.N.N.N.N.N.N.N.N.N.N.N.N.N.N.N.N.N.N.N.N.N.N.",
"N.N.N.N.N.N.N.N.N.N.N.N.N.N.N.N.N.N.N.N.N.N.N.N.N.N.N.N.N.N.N.N.N.N.N.N.N.N.N.N.N.N.N.N.N.N.N.N.N.N.N.N.N.N.N.N.N.N.N.N.N.N.N.N.",
"N.N.N.N.N.N.N.N.N.N.N.N.N.N.N.N.N.N.N.N.N.N.N.N.N.N.N.N.N.N.N.N.N.N.N.N.N.N.N.N.N.N.N.N.m.M.N.N.N.N.N.N.N.N.N.N.N.N.N.N.N.N.N.N.",
"N.N.N.N.N.N.N.N.N.N.N.N.N.N.N.N.N.N.N.N.N.N.N.N.N.N.N.N.N.N.N.N.N.N.N.N.N.N.N.N.N.N.N.R.W.W.A.N.N.N.N.N.N.N.N.N.N.N.N.N.N.N.N.N.",
"N.N.N.N.N.N.N.N.N.N.N.N.N.N.N.N.N.N.N.N.N.N.N.N.N.N.N.N.N.N.N.N.N.N.N.N.N.N.N.N.N.N.N.R.'.).S.N.N.N.N.N.N.N.N.N.N.N.N.N.N.N.N.N.",
"N.N.N.N.N.N.N.N.N.N.N.N.N.N.N.N.N.N.N.N.N.N.N.N.N.N.N.N.N.N.N.N.N.N.N.N.N.N.N.N.N.N.N.D.oXQ.A.N.N.N.N.N.N.N.N.N.N.N.N.N.N.N.N.N.",
"N.N.N.N.N.N.N.N.N.N.N.N.N.N.N.N.N.N.N.N.N.N.N.N.N.N.N.N.N.N.N.N.N.N.N.N.N.N.N.N.N.N.N.N.N.N.N.N.N.N.N.N.N.N.N.N.N.N.N.N.N.N.N.N.",
"N.N.N.N.N.N.N.N.N.N.N.N.N.N.N.N.N.N.N.N.N.N.N.N.N.N.N.N.N.N.N.N.N.N.N.N.N.N.N.N.N.N.N.G.A.D.S.M.N.N.N.N.N.N.N.N.N.N.N.N.N.N.N.N.",
"N.N.N.N.N.N.N.N.N.N.N.N.N.N.N.N.N.N.N.N.N.N.N.N.N.N.N.N.N.N.N.N.N.N.N.N.N.N.N.N.N.N.N.oX|.}. XQ.N.N.N.N.N.N.N.N.N.N.N.N.N.N.N.N.",
"N.N.N.N.N.N.N.N.N.N.N.N.N.N.N.N.N.N.N.N.N.N.N.N.N.N.N.N.N.N.N.N.N.N.N.N.N.N.N.N.N.N.N.oXXXXX.X!.V.N.N.N.N.N.N.N.N.N.N.N.N.N.N.N.",
"N.N.N.N.N.N.N.N.N.N.N.N.N.N.N.N.N.N.N.N.N.N.N.N.N.N.N.N.N.N.N.N.N.N.N.N.N.N.N.N.N.N.N.oXXXXXXXW.m.N.N.N.N.N.N.N.N.N.N.N.N.N.N.N.",
"N.N.N.N.N.N.N.N.N.N.N.N.N.N.N.N.N.N.N.N.N.N.N.N.N.N.N.N.N.N.N.N.N.N.N.N.N.N.N.N.N.N.N.oX}.}.}.Q.m.N.N.N.N.N.N.N.N.N.N.N.N.N.N.N.",
"N.N.N.N.N.N.N.N.N.N.N.N.N.N.N.N.N.N.N.N.N.N.N.N.N.N.N.N.N.N.N.N.N.N.N.N.N.N.N.N.N.N.N.m.u.A.C.C.N.N.N.N.N.N.N.N.N.N.N.N.N.N.N.N.",
"N.N.N.N.N.N.N.N.N.N.N.N.N.N.N.N.N.N.N.N.N.N.N.N.N.N.N.N.N.N.N.N.N.N.N.N.N.N.N.N.N.N.N.N.N.n.r.A.a.y.8.k.N.N.N.N.N.N.N.N.N.N.N.N.",
"N.N.N.N.N.N.N.N.N.N.N.N.N.N.N.N.N.N.N.N.N.N.N.N.N.N.N.N.N.N.N.N.N.N.N.N.N.N.N.N.N.N.N.m.m.r.0.! U Z E 6.5.N.N.N.N.N.N.N.N.N.N.N.",
"N.N.N.N.N.N.N.N.N.N.N.N.N.N.N.N.N.N.N.N.N.N.N.N.N.N.N.N.N.N.N.N.N.N.N.N.k.n.N.n.M.A.u.a.t.0.m m Z C z Y Q 5.N.N.N.N.N.N.N.N.N.N.",
"N.N.N.N.N.N.N.N.N.N.N.N.N.N.B.N.N.N.N.N.N.N.N.N.N.N.N.N.n.5.e.r.A.e.M.C.9.t.t.q.9.L j i > 9 4 H.].^.W z Z w.k.N.N.N.N.N.N.N.N.N.",
"N.N.N.N.N.N.N.N.N.N.N.N.N.N.B.B.N.N.N.N.N.N.N.N.N.N.n.5.6.w.~ ~ Y ! 9.I L s i : : t y #.-.>.%.u.;X;X#X! z J.n.B.N.N.N.N.N.N.N.N.",
"N.N.N.N.N.N.N.N.N.N.N.N.N.N.N.B.N.N.N.N.N.N.n.m.M.A.p.t.! c x m m z 4 9 q f #.-.d.g.c.v.<Xv.d.2XwXwX7XT.z } 8.N.N.N.N.N.N.N.N.N.",
"N.N.N.N.N.N.N.N.N.N.N.N.B.m.m.M.B.k.n.M.r.S.t.9.6.L j a b C X.E.).~ 3.f.z.c.v.F.1X<X2X2X2Xc.,.3.6X>X:X#Xx ! t.B.N.N.N.N.N.N.N.N.",
"N.N.N.N.N.N.N.N.N.N.N.B.R.P.H.! i.t.0.2.L j p 8 : 8 y g 1.J.].#X=XOXF.v.2X2X1X1X<X<X<Xx.f.;.g a #X*X-X&XZ U Y.B.N.N.N.N.N.N.N.N.",
"N.N.N.N.N.N.N.N.N.N.N.t.N m z z S r 7 : q u #.=.4.j.z.v.b.+X=X9XeXwXv.x.v.v.c.z.h.h.g.s.>.,.>.f P.&X-X&XR C Y.B.N.N.N.N.N.N.N.N.",
"N.N.N.N.N.N.N.N.N.N.r.Q x W K.U 2 h ;.s.j.c.v.<XF.1X2X1Xc.G.:X-XqXwXV.%.-.f.g.g.z.c.z.h.v.z.:.f P /.{.'.W x T.M.N.N.N.N.N.N.N.N.",
"N.N.N.N.N.N.N.N.N.e.7.m W _.[.w.&.z.v.<X2X2X2X<X1X<Xv.l.<.m.>X-X,X:XU.3.g.c.b.v.c.x.h.s.4.=.q 5 F ~.O.~.` z H.A.N.N.N.N.N.N.N.N.",
"N.N.N.N.N.N.N.N.N.R.Y m K.>XqX8Xf.h.<X<X<Xv.c.z.l.g.g.:.-.3.#X&X%X{.J.3.x.j.d.,.=.#.+.f f h g 0 a ..O.O.| x ! S.N.N.N.N.N.N.N.N.",
"N.N.N.N.N.N.N.N.N.S.E m `.0XqX6XL %.-.:.d.f.g.h.l.x.c.v.c.f.Q.E.~.o.{ a h @.f g f @.*.=.:.>.:.e 8 G  .O.O.C Y y.N.N.N.N.N.N.N.N.",
"N.N.N.N.N.N.N.N.N.D.~ m `.7X-X&XF y -.,.g.g.x.b.v.c.z.f.4.h I [ ] ..J.P p @.=.>.,.:.-.%.h t q 6 > K / o.o.V Z I.N.N.N.N.N.N.N.N.",
"N.N.N.N.N.N.N.N.N.V.J.z K.-X-X*XP #.d.x.x.f.d.<.-.%.+.f e t 7.W.#X7XwX6X0.i @.g y q 6 7 9 a j S Q Q.o.O.o.H z I.m.N.N.N.N.N.N.N.",
"N.N.N.N.N.N.N.N.N.B.I.m ' =X*X{.R : y $.#.h u u f @.$.*.$.6.$XqX0XqXeXeX;Xd : > a L 6.w.Q.].].o.(.~.| ] / V O H.M.N.N.N.N.N.N.N.",
"N.N.N.N.N.N.N.N.N.N.Y.Z G _.{.^.~ > 6 u #.$.-.:.:.<.=.#.y P.:X0X7X>X7XqX7X! n } `.%X{.[.(.E.{ ) ` W H A A V . E C.N.N.N.N.N.N.N.",
"N.N.N.N.V.B.B.N.N.N.R.Y m X.~.O.[ 3 t -.:.-.#.g y e 0 7 7 i.=X=XK.| ] #X7XL.A ] L...[ [ ` _ _ E T T H H A V X Z S.N.N.N.N.N.N.N.",
"N.N.3X8X5X5XR.N.N.N.S.! x  .O.X.W , - q q 6 6 9 a j P P M } *X{./ A A _.:X_./ ) _ W E T S s 3 > * : T / ` ` l b R.V.V.N.N.N.N.N.",
"N.N.4XqX0X9X5XB.N.N.C.J.z ` ~.| H 4 > i J 2.w.Q.`.#X{.L.H | *X|.) A A L.*X[.Q S s 2 : 7 0 - = = - - I o.O.o.C 4 6X8X8X3XN.N.N.N.",
"N.N.3X9X9X9X@XB.N.B.B.J.x W O.X.] E.J.X.E.[.[.).~.X.| ( ) X.|.&X] A A ` (._.s 7 q y g %.:.*.+.g 6 = J O.O.O.H 1 8XeXeX4XN.N.N.N.",
"N.N.5X0X0XqX5XN.N.N.N.Q.m Y O.O.o././. .) ] ` ( W _ ! R J J Q.{.X./ ^  .o.E p $.s.d.d.c.v.l.:.%.6 = j L.^.(.{ b 8XeXwX4XN.N.N.N.",
"N.N.2XR.R.3XG.N.N.N.N.R.U z ` ) H ^ ) ' W E T S d p > : 7 7 L K.~.X.X.O.{ 4 y s.x.z.g.x.l.-.u y q - a #X&X*X'.l U.5X3XG.N.N.N.N.",
"N.N.N.N.N.N.N.N.N.N.N.S.Y o V A H ^ N 4 > : : 6 0 t u $.=.$.w s 7.! Y D s : g d.g.g.g.h.g.:.-.>.-.w t `.-X*X{.b n R.B.B.N.N.N.N.",
"N.N.N.N.N.N.N.N.N.N.N.D.! . B A H H 4 & * 5 6 #.<.f.g.g.z.g.%.7 8 7 0 0 w +.s.j.z.v.v.v.v.h.<.>.:.u 7 w.{.'._.Z k I.B.B.N.N.N.N.",
"N.N.N.N.N.N.N.N.N.N.N.V.w.o c ( ]  .N * - g =.f.v.v.x.g.l.g.d.=.#.=.4.f.z.c.v.<X<X<Xv.c.x.d.@.f y 0 - 9.%X-X*X! o J.M.N.N.N.N.N.",
"N.N.N.N.N.N.N.N.N.N.N.N.P.1 m o.O.O.E : - +.%.%.<.g.h.h.l.z.v.v.v.b.b.<Xb.v.v.c.z.z.g.g.g.g.,.*.*.g - 1.=X-X-XK.o ! A.N.N.N.N.N.",
"N.N.N.N.N.N.N.N.N.N.N.N.Y.b l o.O.O.{ > = 0 u #.-.h.v.1X1X1X1X1Xb.c.z.j.j.g.f.h.l.x.c.v.b.x.h.,.#.y 6 j %X-X=XL.< U A.B.N.N.N.N.",
"N.N.N.N.N.N.N.N.N.N.N.N.R.N 1 X.).'.W.s - +.<.<.d.c.<Xv.v.x.l.h.g.g.j.z.c.v.v.v.c.<Xx.z.g.d.$.g +.w - 9 I.L.[ W < N S.N.N.N.N.N.",
"N.N.N.N.N.N.N.N.N.N.N.N.D.E < K.*X*X&XJ 6 *.-.=.%.d.h.g.h.h.z.x.c.v.b.1Xb.v.l.g.g.x.x.z.h.,.$.y 0 = % % 4 1 O . 1 Q m.n.N.N.N.N.",
"N.N.N.N.N.N.N.N.N.N.N.N.B.0.X } *X|.|.I ; q u f %.g.c.v.v.<Xv.x.l.h.x.x.v.b.l.l.l.g.f.,.$.u = @ + + # & 4 N R ~ 0.e.N.N.N.N.N.N.",
"N.N.N.N.N.N.N.N.N.N.N.N.V.P.1 Z '.'.].~ * q *.<.g.x.c.z.h.x.x.g.l.z.x.z.g.<.-.h u 0 % % # % & > s J I 9.i.i.S.r.e.N.N.N.N.N.N.N.",
"N.N.N.N.N.N.N.N.N.N.N.N.N.R.b M }.*X*XQ.2 q g g g *.,.g.z.z.h.d.<.-.g y 6 % % % % & 2 j P Q q.y.p.t.M.m.N.N.N.N.N.N.N.N.N.N.N.N.",
"N.N.N.N.N.N.N.N.N.N.N.N.N.R.N v [.-X-X[.i * t g h +.%.-.=.+.q 5 % %   % * 3 d L 2.t.S.S.C.B.m.N.N.N.N.N.N.N.N.N.N.N.N.N.N.N.N.N.",
"N.N.N.N.N.N.N.N.N.N.N.N.N.D.E < W..X&X].d * = = % $ % % % = & : s J I 9.p.p.D.M.V.B.n.N.N.N.N.N.N.N.N.N.N.N.N.N.N.N.N.N.N.N.N.N.",
"N.N.N.N.N.N.N.N.N.N.N.N.N.N.0.. R [ W G ,     @ # & 2 d 1.5.5.t.p.C.r.m.N.N.N.N.N.N.N.N.N.N.N.N.N.N.N.N.N.N.N.N.N.N.N.N.N.N.N.N.",
"N.N.N.N.N.N.N.N.N.N.N.N.N.N.P.k o O O O < 3 d P 6.t.U.t.e.n.N.k.n.B.B.B.N.N.N.N.N.N.N.N.N.N.N.N.N.N.N.N.N.N.N.N.N.N.N.N.N.N.N.N.",
"N.N.N.N.N.N.N.N.N.N.N.N.N.N.B.6.D T ! H.P.S.a.C.V.n.N.n.N.N.n.n.B.N.N.N.N.N.N.N.N.N.N.N.N.N.N.N.N.N.N.N.N.N.N.N.N.N.N.N.N.N.N.N.",
"N.N.N.N.N.N.N.N.N.N.N.N.N.N.N.n.D.S.D.V.N.N.N.N.N.N.N.N.N.N.N.N.N.N.N.N.N.N.N.N.N.N.N.N.N.N.N.N.N.N.N.N.N.N.N.N.N.N.N.N.N.N.N.N.",
"N.N.N.N.N.N.N.N.N.N.N.N.N.N.N.N.N.N.N.N.N.N.N.N.N.N.N.N.N.N.N.N.N.N.N.N.N.N.N.N.N.N.N.N.N.N.N.N.N.N.N.N.N.N.N.N.N.N.N.N.N.N.N.N.",
"N.N.N.N.N.N.N.N.N.N.N.N.N.N.N.N.m.n.m.m.m.N.N.N.N.N.N.N.N.N.B.B.N.N.N.N.N.N.N.N.N.N.N.N.N.N.N.N.N.N.N.N.N.N.N.N.N.N.N.N.N.N.N.N.",
"N.N.N.N.N.N.N.N.N.N.N.N.N.N.N.N.a.Q.Q.Q.a.n.N.N.N.N.N.V.R.oXoXV.N.N.N.N.N.N.N.N.N.N.N.N.N.N.N.N.N.N.N.N.N.N.N.N.N.N.N.N.N.N.N.N.",
"N.N.N.N.N.N.N.N.N.N.N.N.N.N.N.N.S._.].!.Q.V.N.N.N.N.N.Z.%XXX XQ.n.N.N.N.N.B.N.N.N.N.N.N.N.N.N.N.N.N.N.N.N.N.N.N.N.N.N.N.N.N.N.N.",
"N.N.N.N.N.N.N.N.N.N.N.N.N.N.N.N.i.E.(./.i.m.N.N.N.N.N.V.}.XXXX}.r.n.N.N.N.N.N.N.N.N.N.N.N.N.N.N.N.N.N.N.N.N.N.N.N.N.N.N.N.N.N.N.",
"N.N.N.N.N.N.N.N.N.N.N.N.N.N.N.N.a.E.~.E.U.V.N.N.N.N.N.Z.}.XXXX XS.N.N.N.N.N.N.N.N.N.N.N.N.N.N.N.N.N.N.N.N.N.N.N.N.N.N.N.N.N.N.N."
};
