/* XPM */
static char *B9921722817549[] = {
/* columns rows colors chars-per-pixel */
"64 64 241 2 ",
"   c #252429",
".  c #29282D",
"X  c #2F2F35",
"o  c #3C3A3B",
"O  c #413938",
"+  c #6D3E30",
"@  c #5F4030",
"#  c #6A4334",
"$  c #6A483B",
"%  c #744A38",
"&  c #744C39",
"*  c #69503E",
"=  c #77513D",
"-  c #7C533D",
";  c #2D3043",
":  c #363847",
">  c #35394B",
",  c #3F404A",
"<  c #3D4254",
"1  c #47454B",
"2  c #544E4F",
"3  c #4A4C54",
"4  c #464B5D",
"5  c #494D5D",
"6  c #57555A",
"7  c #694C4A",
"8  c #704E44",
"9  c #6D534D",
"0  c #7B5641",
"q  c #785749",
"w  c #685957",
"e  c #765A54",
"r  c #66645E",
"t  c #78645C",
"y  c #4D5364",
"u  c #4F5669",
"i  c #535763",
"p  c #5C5D64",
"a  c #535A6C",
"s  c #585F72",
"d  c #645762",
"f  c #5C6475",
"g  c #5D6679",
"h  c #5F687A",
"j  c #646265",
"k  c #6A6765",
"l  c #6D6C6C",
"z  c #766866",
"x  c #7D7565",
"c  c #656777",
"v  c #636B7C",
"b  c #6C727B",
"n  c #787478",
"m  c #84573E",
"M  c #BC6034",
"N  c #D57639",
"B  c #835741",
"V  c #835C44",
"C  c #8B5C42",
"Z  c #8B5E4E",
"A  c #8A644A",
"S  c #89664B",
"D  c #946445",
"F  c #966548",
"G  c #956A4B",
"H  c #9A6C4C",
"J  c #9C714E",
"K  c #896856",
"L  c #946C55",
"P  c #9D7552",
"I  c #987658",
"U  c #A16947",
"Y  c #A36D4A",
"T  c #A4714D",
"R  c #AC744E",
"E  c #B0764F",
"W  c #A37653",
"Q  c #A47B56",
"!  c #A97A57",
"~  c #B27952",
"^  c #B47A51",
"/  c #85776B",
"(  c #8C726B",
")  c #967A65",
"_  c #8C7A76",
"`  c #A57B62",
"'  c #B1796A",
"]  c #C37342",
"[  c #DF833E",
"{  c #9F805F",
"}  c #A4815D",
"|  c #AA845C",
" . c #B8865A",
".. c #9E8568",
"X. c #898275",
"o. c #958B77",
"O. c #99927B",
"+. c #A68866",
"@. c #AD8A62",
"#. c #B48D66",
"$. c #AE926D",
"%. c #B2946C",
"&. c #BA9669",
"*. c #AA8F7B",
"=. c #B49B77",
"-. c #BD9D72",
";. c #BDA478",
":. c #E18C44",
">. c #C49967",
",. c #C19F77",
"<. c #CBA36C",
"1. c #C6A877",
"2. c #CDAD79",
"3. c #D3AC72",
"4. c #DAB678",
"5. c #D9B67A",
"6. c #E1BD7C",
"7. c #656E82",
"8. c #667183",
"9. c #6A7587",
"0. c #6E7A8C",
"q. c #797D89",
"w. c #637597",
"e. c #737F93",
"r. c #837E80",
"t. c #7D848B",
"y. c #758295",
"u. c #7B8593",
"i. c #7A8799",
"p. c #7C8A9C",
"a. c #5A86BB",
"s. c #6391C5",
"d. c #878385",
"f. c #8C8B8C",
"g. c #998B86",
"h. c #94928A",
"j. c #8B929B",
"k. c #949394",
"l. c #99989A",
"z. c #A69C84",
"x. c #B29E8F",
"c. c #A69B96",
"v. c #AEA587",
"b. c #B7A98A",
"n. c #AEA39A",
"m. c #B6A997",
"M. c #BCB293",
"N. c #BDB59D",
"B. c #808FA2",
"V. c #8593A4",
"C. c #8A97A5",
"Z. c #8C9BAD",
"A. c #969DA6",
"S. c #8E9EB0",
"D. c #829EB9",
"F. c #99A3AB",
"G. c #93A3B3",
"H. c #97A8B8",
"J. c #91AABF",
"K. c #9BACBC",
"L. c #A4A5A7",
"P. c #A9A5A5",
"I. c #AEAAA5",
"U. c #A7A6AB",
"Y. c #A8A7A9",
"T. c #ACAAAA",
"R. c #B2AEA5",
"E. c #B2AEAA",
"W. c #AFB2A8",
"Q. c #B6B1A5",
"!. c #BBB5A4",
"~. c #BAB6A9",
"^. c #A6AFB8",
"/. c #B4B2B3",
"(. c #BAB9B9",
"). c #C1AB86",
"_. c #CBB283",
"`. c #C9B78B",
"'. c #D4BA86",
"]. c #CCBC94",
"[. c #C7BB99",
"{. c #C3B99C",
"}. c #D1BD92",
"|. c #C4BBA4",
" X c #C5BBA5",
".X c #D6B9AE",
"XX c #C1BAB8",
"oX c #DBC38A",
"OX c #DEC68B",
"+X c #CCC19D",
"@X c #D4C599",
"#X c #E5C989",
"$X c #EBD08E",
"%X c #E2CC93",
"&X c #ECD392",
"*X c #E7D499",
"=X c #EDDB9D",
"-X c #F2DE9B",
";X c #F5E19E",
":X c #C8C2A6",
">X c #D5CAA6",
",X c #D8D2AC",
"<X c #CDC9BB",
"1X c #E9DAA6",
"2X c #EEDEAB",
"3X c #F4E4A4",
"4X c #F6E6A7",
"5X c #F9E9A6",
"6X c #FBECA8",
"7X c #F6EAB5",
"8X c #8AABC7",
"9X c #9BB1C5",
"0X c #8CB2D0",
"qX c #95B8D5",
"wX c #B6BBC0",
"eX c #A4BED4",
"rX c #9CC0DC",
"tX c #A8C4DA",
"yX c #B6C6D1",
"uX c #9CC4E2",
"iX c #AACDE9",
"pX c #B1D3EB",
"aX c #C3C3C4",
"sX c #C8C7C8",
"dX c #CBCBCC",
"fX c #CECDCC",
"gX c #D8D5CB",
"hX c #D4D3D4",
"jX c #D8D7D7",
"kX c #DCDCDC",
"lX c #DEDFDF",
"zX c #F3EAC5",
"xX c #FBF2C5",
"cX c #F0EAD2",
"vX c #FAF5D9",
"bX c #E3E3E4",
"nX c #EEE9E6",
"mX c #EAEBEB",
"MX c #FCF9E5",
"NX c #EFF0F0",
"BX c #F5F6F6",
/* pixels */
"U.U.U.U.U.U.U.U.U.U.U.U.U.U.U.U.U.U.U.U.U.U.U.U.U.U.U.U.U.U.U.U.U.U.U.U.U.U.U.U.U.U.U.U.U.U.U.U.U.U.U.U.U.U.U.U.U.U.U.U.U.U.U.U.",
"U.U.U.U.U.U.U.U.U.U.U.U.U.U.U.U.U.U.U.U.U.U.U.U.U.U.U.U.U.U.U.U.U.U.U.U.U.U.U.U.U.U.U.U.U.U.U.U.U.U.U.U.U.U.U.U.U.U.U.U.U.U.U.U.",
"U.U.U.U.U.U.U.U.U.U.U.U.U.U.U.U.U.U.U.U.U.U.U.U.U.U.U.U.U.U.U.U.U.U.U.U.U.U.U.U.U.U.U.U.U.U.U.U.U.U.U.U.U.U.U.U.U.U.U.U.U.U.U.U.",
"U.U.U.U.U.U.U.U.U.U.U.U.U.U.U.U.U.U.U.U.U.U.U.U.U.U.U.U.U.U.U.U.U.U.U.U.U.U.U.U.U.U.U.U.U.U.U.U.U.U.U.U.U.U.U.U.U.U.U.U.U.U.U.U.",
"U.U.U.U.U.U.U.U.U.U.U.U.U.U.U.U.U.U.U.U.U.U.U.U.U.U.U.U.U.U.U.U.U.U.U.U.U.U.U.U.U.U.U.U.U.U.U.U.U.U.U.U.U.U.U.U.U.U.U.U.U.U.U.U.",
"U.U.U.U.U.U.U.U.U.U.U.U.U.U.U.U.U.U.U.U.U.U.U.U.U.U.U.U.U.U.U.U.U.U.U.U.U.U.U.U.U.U.U.U.U.U.U.U.U.U.U.U.U.U.U.U.U.U.U.U.U.U.U.U.",
"U.U.U.U.U.U.U.U.U.U.U.U.U.U.U.U.U.U.U.U.U.U.U.U.U.U.U.U.U.U.U.U.U.U.U.U.U.U.U.U.U.U.U.U.U.U.U.U.U.U.U.U.U.U.U.U.U.U.U.U.U.U.U.U.",
"U.U.U.U.U.U.U.U.U.U.U.U.U.U.U.U.U.U.U.U.U.U.U.U.U.U.U.U.U.U.U.U.U.U.U.U.U.U.U.U.U.U.U.U.U.U.U.U.U.U.U.U.U.U.U.U.U.U.U.U.U.U.U.U.",
"U.U.U.U.U.U.U.U.U.U.U.U.U.U.U.U.U.U.U.U.U.U.U.U.U.U.U.U.U.U.U.U.U.U.U.U.U.U.U.U.U.U.U.U.U.U.U.U.U.U.U.U.U.U.U.U.U.U.U.U.U.U.U.U.",
"U.U.U.U.U.U.U.U.U.U.U.U.U.U.U.U.U.U.U.U.U.U.U.U.U.U.U.U.U.U.U.U.U.U.U.U.U.U.U.U.U.U.U.U.U.U.U.U.U.U.U.^.U.U.U.U.U.U.U.U.U.U.U.U.",
"U.U.U.U.U.U.U.U.U.U.U.U.U.U.U.U.U.U.U.U.U.U.U.U.U.U.U.U.U.U.U.U.U.U.U.U.U.U.U.U.U.U.U.U.U.U.U.U.U.U.U.U.U.U.U.U.U.U.U.U.U.U.U.U.",
"U.U.U.U.U.U.U.U.U.U.U.U.U.U.U.U.U.U.U.U.U.U.U.U.U.U.U.U.U.U.U.U.U.U.U.U.U.U.U.U.U.U.U.U.U.U.U.U.U.U.U.U.U.U.U.U.U.U.U.U.U.U.U.U.",
"U.U.U.U.U.U.U.U.U.U.U.U.U.U.U.U.U.U.U.U.U.U.U.U.U.U.U.U.U.U.U.L.U.U.Y.U.U.U.U.U.U.U.U.U.U.T.U.U.U.U.U.U.U.U.U.U.U.U.U.U.U.U.U.U.",
"U.U.U.U.U.U.U.U.U.U.U.U.U.U.U.U.U.U.U.U.U.U.U.U.U.U.U.U.L.U.U.P.U.U.Y.Y.U.U.U.U.U.U.I.{.].`.b.I.U.U.U.U.U.U.U.U.U.U.U.U.U.U.U.U.",
"U.U.U.U.U.U.U.U.U.U.U.U.U.U.U.U.U.U.U.U.U.U.U.U.Y.Y.T.R.|.{.}.m.U.Y.Y.Y.U.L.U.T.R.|.x.} P H J %.m.U.U.U.U.U.U.U.U.U.U.U.U.U.U.U.",
"U.U.U.U.U.U.U.U.U.U.U.U.U.U.U.U.U.U.U.U.U.U.U.!.[.}.`.1.%.@.W %.b.T.E.R.|.{.{.b.z.o.I L &.1.Q G | ).I.U.U.U.U.U.U.U.U.U.U.U.U.U.",
"U.U.U.U.U.U.U.U.U.U.U.U.U.U.U.U.U.U.U.U.U.L.I.=.! W L L Q +.! A ;.+Xb.h.X.l p 6 y i f l @X*X%X&.F &.|.U.U.U.U.U.U.U.U.U.U.U.U.U.",
"U.U.U.U.U.U.U.U.U.U.U.U.U.U.U.U.U.U.U.L.L.T.b.P P >._.%XcXnX1X%.6 p i i a f y.p.C.S.C.u.gXvXzX*XQ | [.U.U.U.U.U.U.U.U.U.U.U.U.U.",
"U.U.U.U.U.U.U.U.U.U.U.L.U.U.U.U.U.I.I.Q.!.N.].L ,.7XMXxXMXMXMX2Xr.y.p.C.S.K.K.K.H.S.Z.C.cXvXxX7X&.P @XU.U.U.U.U.U.U.U.U.U.U.U.U.",
"U.U.U.U.U.U.U.U.Y.I.!.+Xm.W.!.{.N.M.b.z.X.l p j @X7XcX%X}.>XvX7XW.H.H.G.G.F.F.F.W.:X,X,X3X3X3X5X2.F }.T.U.U.U.U.U.U.U.U.U.U.U.U.",
"U.U.U.U.U.U.U.U.n.2.;.@.&.b.O.X.l p i i a f b u.,X6X%X^ E >.4X6X[.j.F.W.:X>X1X3X3X-X*X'.;.} I *XOXH 2.Q.U.U.U.U.U.U.U.U.U.U.U.U.",
"U.U.U.U.U.U.U.I.;.G J P A r i a f 9.y.p.G.H.K.K.,X6X$X . .>.$X6XoX@.oX;X=XOX_.%.) S - & # # & 2.OXH -.!.U.U.U.U.U.U.U.U.U.U.U.U.",
"U.U.U.U.U.U.Y.b.I } oX%Xx b V.H.K.K.K.K.G.G.C.k.M.3X$X3.6.6.5.#X&.{ | ..S - * # # # # # # # $ } 4.T @.:XU.U.U.U.U.U.U.U.U.U.U.U.",
"U.U.U.U.U.U.m.} I 5.1X2XW.i.G.H.G.F.F.W.:X,X@X&.>.#X#X6.6.6.5.<.m # # + # # # # # # # # # # # G 4.| W +XU.U.U.U.U.U.U.U.U.U.U.U.",
"U.U.U.U.U.U.].J #.1XvXMXgXU.W.:X,X1X4X3X=XoX_.@.D I <.5.5.3.>.J # # # # # # # # + # # # + # # 0 4.&.G @XT.U.U.U.U.U.U.U.U.U.U.U.",
"U.U.U.U.U.U.+XQ } 3XxX7X7X3X3X*XoX2.$...S q $ $ # # V P S q & # # # # # # # # # + 7 # # # # # & <.>.D _.R.U.U.U.U.U.U.U.U.U.U.U.",
"U.U.U.U.U.U.|.@.W =X-XoX;.@.L m % $ @ # + + + # # # $ # + + + + # @ # # # # # # + + + + # # # $ &.3.F ;.!.U.U.U.U.U.U.U.U.U.U.U.",
"U.U.U.U.U.U.!.-.G %XoX0 # # # # # # # $ w 6 6 7 # 6 w j l l b _ x t t # # K U m U H Z F $ + # # | 4.H #.|.U.U.U.U.U.U.U.U.U.U.U.",
"U.U.U.U.U.U.R._.F 2.oX- # # # # # # # 9 l k _ _ ( _ l n q.X.f.n h.L.U.g.A g.n.g.c.c.o.c.q # # # P 4.| Q +XY.U.U.U.U.U.U.U.U.U.U.",
"U.U.U.U.U.U.Y.}.H &.4.A # # # # # # # d.l.f./.z.' /.k.l././.(.U.(.hXbX(.gX!.yXtXeXiXeX^./ # # # A 3. .H }.Y.U.U.U.U.U.U.U.U.U.U.",
"U.U.U.U.U.U.U.@XQ | 4.H # # # # @ # # c.P.k.sX.X.XgX/.dXjXjXjX/.aXjXmXjXcX!.yXiX9XqXiXJ.q % - B D  .E A _.I.U.U.U.U.U.U.U.U.U.U.",
"U.U.U.U.U.U.U.{.@.P 4.| # # # # # # # X.~.m.jXbXbXgXhXhXjXhXjXdXdXhXjXjXzX!.pXtX/ H.iXeXQ T E E R E Y % =.R.U.U.U.U.U.U.U.U.U.U.",
"U.U.U.U.U.U.T.~.-.G 3.&.# # # # + # # 7 r.P./.sXdXT.(.(./.E.hXaX(.lXkXsX*XfXpXwX' H.iXeX` F C B & F R % } |.U.U.U.U.U.U.U.U.U.U.",
"U.U.U.U.U.U.U./.2.D <.<.& # + # # # # + - |.gX<X|.z./ ( z ( g.P.c.XXXXm.#.m.pXyX@.A.iXeXe + # # # C R B G :XU.U.U.U.U.U.U.U.U.U.",
"U.U.U.U.U.U.U.T.@XG &.4.m # # # # # + + + *.{.m.) L C Z Y W E ~ ! ` L Z B ( iXdX@Xf.iXqXw + # # + - E C 0 ].U.U.U.U.U.U.U.U.U.U.",
"U.U.U.U.U.U.U.U.@XJ | 4.G # # # # # % % m C D U Z w w e t ) C B r.w.7 7.d c qXqX[.f.qXD.9 + # # # % R D & _.I.U.U.U.U.U.U.U.U.U.",
"U.U.U.U.U.U.U.U.:X} W 4.! % % B C F Y E R E ` _ 2 o o O 2 q.t % 7.s.7 w.c d qX0X_ r.qX8X7 # # # # $ Y U % -.R.U.U.U.U.U.U.U.U.U.",
"U.U.U.U.U.U.U.U.|.-.F &. .Y R E R W U D D _ E.l.k.f.f.f.k.l.E.z 7.s.7 w.g z tXqXz r.uX0X9 # # # # # H R % +.|.U.U.U.U.U.U.U.U.U.",
"U.U.U.U.U.U.U.U.~.1.B Y E H D m m % # # _ sXBXjX/./.(.wX/.jXbXY.7.a.d w.w.e qX8Xw q.uX8X9 % % - m D U E - I :XU.U.U.U.U.U.U.U.U.",
"U.U.U.U.U.U.U.Y.T.`.& D R % % # + # # 8 /.mXbXsX(.fXkXmXdXsXmXkXn 7.9 w.7.8.qXD.9 q.0X8XI W ^ >. .E ^ E B V @XU.U.U.U.U.U.U.U.U.",
"U.U.U.U.U.U.U.U.T.].0 C E - # # # # # e fXNXfXT.aXfXsXmXdXU.kXNXc.7 8 8 q f.8XC.` c.8XS.=.-.+./ @. .^ ^ D & `.T.U.U.U.U.U.U.U.U.",
"U.U.U.U.U.U.U.U.Y.:XS - E C # # # # % e hXkXg._ hXmXbXBXdXd./.mXXXZ U ' #.-.x.=.%.+.t.9.d y 4 4 z >.>.3. .0 ;.Q.U.U.U.U.U.U.U.U.",
"U.U.U.U.U.U.U.U.U.|.+.& R D # # + # # e hXgXK _ jXBXBXBX<X! x.bXdX1.&.$.o.) L K t a y u 4 4 4 4 j 5.5.6.<.0 $.!.U.U.U.U.U.U.U.U.",
"U.U.U.U.U.U.U.U.U.Q.%.% Y Y % # # # # t bXfX( g.bXBXBXBXfX-.m.bXdXn i 6 A ] [ N N L f.V.0.9.g 4 6 1.6.5.5.0 I +XU.U.U.U.U.U.U.U.",
"U.U.U.U.U.U.U.U.U.E.).% F R - - 0 C F #.nXgX,.x.jXNXBXNXaXl b lXhXc g z M [ :.:.N M ( K.V.e.7.4 y ;.#X$X$XL S @XU.U.U.U.U.U.U.U.",
"U.U.U.U.U.U.U.U.U.T.].- D ^ Y E ^ >.>.).lXdX/ l.sXlXbXbX(.q.y.hXhXS.C.Z D Z $ $ + + % r.7.7.g 5 4 v.5X6X6X$.& +XT.U.U.U.U.U.U.U.",
"U.U.U.U.U.U.U.U.U.U. XA B E  .^ #.z p c lXhXb l.T./.wXU.W.A.K.lXkX9XC.7 d.w       o O j e.p.p.9.y O.4X5X3X1.& ).R.U.U.U.U.U.U.U.",
"U.U.U.U.U.U.U.U.U.Y.:XP % R ^ ^  .6 4 c lXhXV.k.L.T.aXk./.l.U.bXhXG.B.2 6 :       1 O j B.p.i.0.y l %X$X&X4.- %.~.U.U.U.U.U.U.U.",
"U.U.U.U.U.U.U.U.U.U.~.$.&  .<.3.3.t 3 v gXyXF.F.l.A.^.j.F.C.A.dXyXH.t.2 X         . , b 0.h f a y j *X4X6X=XV I N.L.U.U.U.U.U.U.",
"U.U.U.U.U.U.U.U.U.U.E.1.& &.6.6.5.X.< v jXfXp.p.F.Z.H.H.K.K.^.dXgX^.G.j.3 .     X 3 t.S.S.p.p.y.a y +X6X6X3XI A @XL.U.U.U.U.U.U.",
"U.U.U.U.U.U.U.U.U.U.T.`.- | 6.6.6...3 f dX/.j.p.K.K.K.9XK.9XK.^.yXF.S.S.j.b f l u.S.K.K.G.i.8.f a 5 M.5X;X;X} - +XT.U.U.U.U.U.U.",
"U.U.U.U.U.U.U.U.U.U.U.>XS P #X-X=XoXi a y.p.p.G.K.K.K.G.S.Z.Z.Z.S.H.K.K.K.K.K.J.H.S.Z.V.p.8.8.7.y < X.5.1.#.S - ;.T.U.U.U.U.U.U.",
"U.U.U.U.U.U.U.U.U.U.T.:XK S 3X6X6X*Xp f y.y.9.y.Z.Z.Z.S.H.K.9XK.K.K.K.K.S.Z.Z.S.H.H.G.V.y.f u 4 < > 1 - = & - { n.U.U.U.U.U.U.U.",
"U.U.U.U.U.U.U.U.U.U.U.~.+.- %X3X-X$Xl 5 u f 9.V.H.K.9XK.K.G.S.S.G.H.K.K.J.S.S.C.p.i.9.f y > ; ; : 1 6 { %.;.].N.T.U.U.U.U.U.U.U.",
"U.U.U.U.U.U.U.U.U.U.Y.W.;.& 1.$X&X=XX.4 f y.p.D.G.G.Z.Z.H.G.G.G.S.G.Z.p.y.h a 4 < > : > 1 r x O.v.M.N.N.~.W.T.U.U.U.U.U.U.U.U.U.",
"U.U.U.U.U.U.U.U.U.U.Y.T.).% ;.5X6X5Xv.4 f f h h y.p.S.S.Z.V.p.0.v a < < > > , 3 r X.z.v.N.{.~.Q.I.L.L.T.L.U.U.U.U.U.U.U.U.U.U.U.",
"U.U.U.U.U.U.U.U.U.U.U.U.].0 @.5X6X6X`.5 4 h h h 8.0.8.f u < > > , < 6 x X.v.M.M.N.~.W.T.U.U.U.U.U.U.U.U.U.U.U.U.U.U.U.U.U.U.U.U.",
"U.U.U.U.U.U.U.U.U.U.U.L.[.A L 1X-X-X'.6 < < < , ; > > , 3 6 x O.v.M.{.!.Q.I.L.L.U.U.T.U.U.U.U.U.U.U.U.U.U.U.U.U.U.U.U.U.U.U.U.U.",
"U.U.U.U.U.U.U.U.U.U.U.U.N.{ - &.&.Q A : ; > , 3 j X.O.b.M.N.N.Q.L.L.Y.U.U.U.T.U.U.U.U.U.U.U.U.U.U.U.U.U.U.U.U.U.U.U.U.U.U.U.U.U.",
"U.U.U.U.U.U.U.U.U.U.U.U.I.;.= & - - A / X.=.v.{.N.!.W.T.T.T.U.U.T.L.U.U.U.U.U.U.U.U.U.U.U.U.U.U.U.U.U.U.U.U.U.U.U.U.U.U.U.U.U.U.",
"U.U.U.U.U.U.U.U.U.U.U.U.L.I.*.$.;.].+X[.!.Q.U.L.L.U.U.U.U.U.U.U.U.U.U.U.U.U.U.U.U.U.U.U.U.U.U.U.U.U.U.U.U.U.U.U.U.U.U.U.U.U.U.U.",
"U.U.U.U.U.U.U.U.U.U.U.U.U.L.L.~.I.T.U.U.L.U.U.U.T.L.U.U.U.U.U.U.U.U.U.U.U.U.U.U.U.U.U.U.U.U.U.U.U.U.U.U.U.U.U.U.U.U.U.U.U.U.U.U.",
"U.U.U.U.U.U.U.U.U.U.U.U.U.U.T.U.U.U.U.U.U.U.U.U.U.U.U.U.U.U.U.U.U.U.U.U.U.U.U.U.U.U.U.U.U.U.U.U.U.U.U.U.U.U.U.U.U.U.U.U.U.U.U.U.",
"U.U.U.U.U.U.U.U.U.U.U.U.U.U.U.U.U.U.U.U.U.U.U.U.U.U.U.U.U.U.U.U.U.U.U.U.U.U.U.U.U.U.U.U.U.U.U.U.U.U.U.U.U.U.U.U.U.U.U.U.U.U.U.U."
};
