/* XPM */
static char *B9931722817549[] = {
/* columns rows colors chars-per-pixel */
"64 64 239 2 ",
"   c #252429",
".  c #2B2B2F",
"X  c #2F2E33",
"o  c #3B3839",
"O  c #353031",
"+  c #433B38",
"@  c #4A352D",
"#  c #653829",
"$  c #6B4334",
"%  c #6B463A",
"&  c #6D493D",
"*  c #714837",
"=  c #744C3A",
"-  c #774C39",
";  c #7C523C",
":  c #77513E",
">  c #4E4139",
",  c #2E3245",
"<  c #363849",
"1  c #3D414E",
"2  c #4B4A4B",
"3  c #464342",
"4  c #4A4E5D",
"5  c #454857",
"6  c #585559",
"7  c #504E52",
"8  c #6C4D46",
"9  c #724E42",
"0  c #6B554B",
"q  c #745144",
"w  c #755549",
"e  c #7A5949",
"r  c #695857",
"t  c #775D57",
"y  c #664F54",
"u  c #78625B",
"i  c #6C655B",
"p  c #4A4F61",
"a  c #4C5264",
"s  c #4F576A",
"d  c #5B5C65",
"f  c #545868",
"g  c #575F71",
"h  c #675D65",
"j  c #5D616C",
"k  c #5B6375",
"l  c #5E6779",
"z  c #666568",
"x  c #756867",
"c  c #676A79",
"v  c #726D74",
"b  c #726E79",
"n  c #777578",
"m  c #707479",
"M  c #84553E",
"N  c #A95532",
"B  c #BA723D",
"V  c #CB6F37",
"C  c #875C44",
"Z  c #8D654B",
"A  c #886147",
"S  c #956B4D",
"D  c #9B6C4C",
"F  c #966546",
"G  c #866757",
"H  c #956B52",
"J  c #976D55",
"K  c #997458",
"L  c #9C724F",
"P  c #A26D4A",
"I  c #A56241",
"U  c #AD754E",
"Y  c #A4714C",
"T  c #B1774F",
"R  c #B57A4C",
"E  c #A57954",
"W  c #B47A51",
"Q  c #AE6D51",
"!  c #846C66",
"~  c #87746A",
"^  c #997A67",
"/  c #897A76",
"(  c #927A74",
")  c #A67B6A",
"_  c #EB873B",
"`  c #AA835B",
"'  c #B68459",
"]  c #998678",
"[  c #8F8876",
"{  c #A98968",
"}  c #B58B62",
"|  c #B29269",
" . c #BA9569",
".. c #A48676",
"X. c #A79679",
"o. c #B59873",
"O. c #BEA173",
"+. c #C7844C",
"@. c #F49340",
"#. c #C49667",
"$. c #C29E7B",
"%. c #C8A876",
"&. c #D5AD72",
"*. c #CCB17C",
"=. c #D9B67A",
"-. c #D8B478",
";. c #CBA56F",
":. c #E1BC7B",
">. c #656E81",
",. c #6B7485",
"<. c #697486",
"1. c #7D7C84",
"2. c #737986",
"3. c #737D93",
"4. c #577196",
"5. c #837E82",
"6. c #7A8698",
"7. c #78828F",
"8. c #728DB1",
"9. c #5681B1",
"0. c #6796CA",
"q. c #6E99C6",
"w. c #858384",
"e. c #8A8689",
"r. c #9C8E8A",
"t. c #968985",
"y. c #8C8C92",
"u. c #848A98",
"i. c #908F91",
"p. c #949294",
"a. c #9C9393",
"s. c #9C9799",
"d. c #9B9A9C",
"f. c #96969C",
"g. c #919196",
"h. c #A48F86",
"j. c #A3938D",
"k. c #A69A85",
"l. c #A39C9C",
"z. c #A69993",
"x. c #B69A87",
"c. c #9EA19E",
"v. c #A9A39C",
"b. c #B7A88F",
"n. c #8493A4",
"m. c #8B9BAC",
"M. c #8A96A6",
"N. c #9C9DA2",
"B. c #929EAB",
"V. c #939AA5",
"C. c #8F9FB0",
"Z. c #839AB3",
"A. c #818FA0",
"S. c #A39EA1",
"D. c #99A2A8",
"F. c #8FA0B1",
"G. c #93A4B4",
"H. c #97A8B8",
"J. c #9BACBB",
"K. c #98A8B6",
"L. c #9EB0BF",
"P. c #A5A2A5",
"I. c #A9A4A5",
"U. c #A7A6AB",
"Y. c #ACACAC",
"T. c #A5AAAC",
"R. c #B3ADAB",
"E. c #B8B5AA",
"W. c #A8AEB5",
"Q. c #A8B3BB",
"!. c #B3B3B4",
"~. c #BCBBBB",
"^. c #B8B7B7",
"/. c #B1AFB1",
"(. c #C9B485",
"). c #D7BD87",
"_. c #C9AD8C",
"`. c #C2BDBA",
"'. c #CCBBA2",
"]. c #CF9C89",
"[. c #DBC68C",
"{. c #CCC194",
"}. c #E4C788",
"|. c #E4CD93",
" X c #E4CF99",
".X c #EBD797",
"XX c #F1DD9B",
"oX c #F1DA97",
"OX c #EDD38F",
"+X c #F4E59D",
"@X c #EFE09F",
"#X c #D7CEA9",
"$X c #DCD2A7",
"%X c #CBC5B1",
"&X c #E3D5A3",
"*X c #E9DAA2",
"=X c #E5D4B1",
"-X c #F4E4A3",
";X c #FBEDA9",
":X c #F9EAA7",
">X c #F9ECB3",
",X c #EEE3B2",
"<X c #99B2C7",
"1X c #8AB3D4",
"2X c #98BBD6",
"3X c #87ADCC",
"4X c #ADBDCB",
"5X c #95BFE0",
"6X c #C0BEC0",
"7X c #BDC2C9",
"8X c #A6C4DB",
"9X c #9CC4E2",
"0X c #ADCFE9",
"qX c #A8C9E4",
"wX c #B1D3EC",
"eX c #ABD1ED",
"rX c #C4C4C4",
"tX c #CCCCCD",
"yX c #C8C7C9",
"uX c #D2CDCA",
"iX c #CDD1D4",
"pX c #D4D3D4",
"aX c #DCDBDC",
"sX c #D8D8D6",
"dX c #D1D2CD",
"fX c #E0DCDA",
"gX c #E4DFC7",
"hX c #E7E4DB",
"jX c #F9F3D5",
"kX c #F4EAC7",
"lX c #DEDFE2",
"zX c #E3E3E4",
"xX c #EBECEC",
"cX c #E7E7E8",
"vX c #FAF7E8",
"bX c #EFF0F0",
"nX c #F2F3F3",
"mX c #F9FAF8",
"MX c #D3E0E4",
/* pixels */
"U.U.U.U.U.U.U.U.U.U.U.U.U.U.U.U.U.U.U.U.U.U.U.U.U.U.U.U.U.U.U.U.U.U.U.U.U.U.U.U.U.U.U.U.U.U.U.U.U.U.U.U.U.U.U.U.U.U.U.U.U.U.U.U.",
"U.U.U.U.U.U.U.U.U.U.U.U.U.U.U.U.U.U.U.U.U.U.U.U.U.U.U.U.U.U.U.U.U.U.U.U.U.U.U.U.U.U.U.U.U.U.U.U.U.U.U.U.U.U.U.U.U.U.U.U.U.U.U.U.",
"U.U.U.U.U.U.U.U.U.U.U.U.U.U.U.U.U.U.U.U.U.U.U.U.U.U.U.U.U.U.U.U.U.U.U.U.U.U.U.U.U.U.U.U.U.U.U.U.U.U.U.U.U.U.U.U.U.U.U.U.U.U.U.U.",
"U.U.U.U.U.U.U.U.U.U.U.U.U.U.U.U.U.U.U.U.U.U.U.U.U.U.U.U.U.U.U.U.U.U.U.U.U.U.U.U.U.U.U.U.U.U.U.U.U.U.U.U.U.U.U.U.U.U.U.U.U.U.U.U.",
"U.U.U.U.U.U.U.U.U.U.U.U.U.U.U.U.U.U.U.U.U.U.U.U.U.U.U.U.U.U.U.U.U.U.U.U.U.U.U.U.U.U.U.U.U.U.U.U.U.U.U.U.U.U.U.U.U.U.U.U.U.U.U.U.",
"U.U.U.U.U.U.U.U.U.U.U.U.U.U.U.U.U.U.U.U.U.U.U.U.U.U.U.U.U.U.U.U.U.U.U.U.U.U.U.U.U.U.U.U.U.U.U.U.U.U.U.U.U.U.U.U.U.U.U.U.U.U.U.U.",
"U.U.U.U.U.U.U.U.U.U.U.U.U.U.U.U.U.U.U.U.U.U.U.U.U.U.U.U.U.U.U.U.U.U.U.U.U.U.U.U.U.U.U.U.U.U.U.U.U.U.U.U.U.U.U.U.U.U.U.U.U.U.U.U.",
"U.U.U.U.U.U.U.U.U.U.U.U.U.U.U.U.U.U.U.U.U.U.U.U.U.U.U.U.U.U.U.U.U.U.U.U.U.U.U.U.U.U.U.U.U.U.U.U.U.U.U.U.U.U.U.U.U.U.U.U.U.U.U.W.",
"U.U.U.U.U.U.U.U.U.U.U.U.U.U.U.U.U.U.U.U.U.U.U.U.U.U.U.U.U.U.U.U.U.U.U.U.U.U.U.U.U.U.U.U.U.U.U.U.U.U.U.U.U.U.U.U.U.U.U.U.U.U.U.U.",
"U.U.U.U.U.U.U.U.U.U.U.U.U.U.U.U.U.U.U.U.U.U.U.U.U.U.U.U.U.U.U.U.U.U.U.U.U.U.U.U.U.U.U.U.U.U.U.U.U.U.U.U.U.U.U.U.U.U.U.U.U.U.U.U.",
"U.U.U.U.U.U.U.U.U.U.U.U.U.U.U.U.U.U.U.U.U.U.U.U.U.U.U.U.U.U.U.U.U.U.U.U.U.U.U.U.U.U.U.U.U.U.U.U.U.U.U.U.U.U.U.U.U.U.U.U.U.U.U.U.",
"U.U.U.U.U.U.U.U.U.U.U.U.U.U.U.U.U.U.U.U.U.U.U.U.U.U.U.U.U.U.U.U.U.U.U.U.U.U.U.U.U.U.U.U.U.U.U.U.U.U.U.U.U.U.U.U.U.U.U.U.U.U.U.U.",
"U.U.U.U.U.U.U.U.U.U.U.U.U.U.U.U.U.U.U.U.U.U.U.U.U.U.U.U.U.U.U.U.U.U.S.U.U.U.U.U.U.U.U.U.U.U.U.U.U.U.U.U.U.U.U.U.U.U.U.U.U.U.U.U.",
"U.U.U.U.U.U.U.U.U.U.U.U.U.I.P.I.P.P.U.U.U.U.U.U.U.U.U.U.U.h.] ..j.z.a.l.S.v.U.U.U.U.U.U.U.U.U.U.U.U.U.U.U.U.U.U.U.U.U.U.U.U.U.U.",
"U.U.U.U.U.U.U.U.U.U.U.U.z.] J ^ ^ h.P.U.U.U.P.U.U.U.U.U.z.J D L D J S H J ) b.U.U.U.U.U.U.U.U.U.U.U.U.U.U.U.U.U.U.U.U.U.U.U.U.U.",
"U.U.U.U.U.U.U.U.U.U.U.l.{ S } | K G x c m m 2.5.u.y.y.f.[ K ).&X X#X=X'.} F z.U.U.U.U.U.U.U.U.U.U.U.U.U.U.U.U.U.U.U.U.U.U.U.U.U.",
"U.U.U.U.U.U.U.U.U.U.l.( L  .|..XX.d k k j f s s s a a f j {.>XvXjXjXvXvX XK / y.y.p.f.d.N.P.D.P.U.j.r.h.j.v.I.U.U.U.U.U.U.U.U.U.",
"U.U.U.U.U.U.U.U.U.U.l.S ;. XkXkXE.3.F.J.H.K.F.C.G.6.6.6.6.&X>X,X$X=XjXmXjXX.s a a s s a f j j j x J L H F { b.U.U.U.U.U.U.U.U.U.",
"U.U.U.U.U.U.U.U.U.U.j.S *.kXvXvX%Xn.m.F.F.F.G.G.G.K.H.H.Q.,X;X=.' ' %.jXjXE.B.m.n.u.6.6.3.,.>.c g x [.}.| F | I.U.U.U.U.U.U.U.U.",
"U.U.U.U.U.U.U.U.T.I.j.S ).;X>X>X,X$X$X#X#X%XE.E.E.T.c.g.c.+X:X*.W W #.:X;XE.G.G.H.H.J.J.J.J.J.J.6.e.$X&X|.` H z.U.U.U.U.U.U.U.U.",
"U.U.U.U.U.U.U.U.U.U.h.D [.*X*.*.[.}.|..X.X+X+X+X+X-X.X#. ..XoX:.&.&.-.oX-Xx.t.c.T.T.D.D.D.m.B.m.M.J.vXvX,X).S r.U.U.U.U.U.U.U.U.",
"U.U.U.U.U.U.U.U.U.T.r.D |.[.: * = u i e i e e ~ [ ] X.] ^ o.b.(.=.:.:.}.}. .;.OX*X*X*X.X&X X$X$X#X#XkXjXkX[.D j.U.U.U.U.U.U.U.U.",
"U.U.U.U.U.U.U.U.T.I.] S =.;.* % % 6 2 6 j & - 0 6 6 r z z v v n t.b._.).E C ..#.' ' #.#.{ $.).|. X.X@X@X;X[.H j.U.U.U.U.U.U.U.U.",
"U.U.U.U.U.U.U.U.I.I.] L &.| * $ u v v n s.( ( i.w.z w.i.i.p.w.w.l.I.R.l.! % r./.a.v.l.P.i.l.a.; e A Z ` *X).H l.U.U.U.U.U.U.U.U.",
"U.U.U.U.U.U.U.U.U.U.^ E =.} $ 9 e.p.i.c.^.Q ) `.a.5././.U.`.I.Y.`.pXcXyX5.* j.6X8XqX4XqX8XW.I.$ $ $ $ e |.*.H l.U.U.U.U.U.U.U.U.",
"U.U.U.U.U.U.U.U.U.P.^ E =.` $ e I.I.i.!.uX].].pX/./.tXtXtXaX~.~.yXaXnXaX`.h.N.4X0XqX2X8X0X<Xn $ $ $ $ C =.#.H l.U.U.U.U.U.U.U.U.",
"U.U.U.U.U.U.U.U.U.U.K E =.E $ : /.E.k.%XaXfXfXaXpX6XsXaXaXsXyX~.rXtXcXsXzXjXiX0XwXF.7.2XwXqXn $ $ $ $ A =.} J P.U.U.U.U.U.U.U.U.",
"U.U.U.U.U.U.U.U.U.S.K E =.L $ $ / /.R.tXcXcXcXtXtXlXsXpXyXaXaXtXsXzXsXpXfXvXMXwX0Xw.t <XqXqX5.$ $ $ $ Z =.` J P.U.U.U.U.U.U.U.U.",
"U.U.U.U.U.U.U.U.U.S.J ` =.S $ $ 9 / a.P./.~.~.Y.S.6XP.U.v.yXpXP.!.lXaXdX%X>XdXwXwXp.u 1XeXqX1.$ $ $ $ Z =.' K P.U.U.U.U.U.U.U.U.",
"U.U.U.U.U.U.U.U.U.S.H } =.F $ $ $ $ q x ! [ b.{._.~ u u ~ / l.d.v.%X%XI._.:X*XqXwXsX^ G.eXqX1.$ $ $ $ L =.` K P.U.U.U.U.U.U.U.U.",
"U.U.U.U.U.U.U.U.U.l.H } -.A $ $ $ $ $ $ G =XkX;XXXe * $ & $ & w t H G w { }.{.8XwX^.G M.eX9X1.$ $ $ $ K =.E ^ I.U.U.U.U.U.U.U.U.",
"U.U.U.U.U.U.U.U.U.l.Z U #.P F M M M ; - J gXgXE.z.u i r t $ $ 9 v d % 6 k : n 2X9XZ.e 6.9X2Xn $ $ $ $ ` =.Y ^ U.U.U.U.U.U.U.U.U.",
"U.U.U.U.U.U.U.U.U.a.; F R U U R T U U U } X.i 3 + o + 7 ( H C C 8.q.t x 4.y ! 3X1XG.[.D.1X3Xc $ $ $ $ ' -.Y ^ U.U.U.U.U.U.U.U.U.",
"U.U.U.U.U.U.U.U.U.r.* F P M ; ; C C C K ] n 6 2 2 2 2 z e.h.{ T 5.q.) ) q.) 5.2X9XQ.+X!.9X1X/ ; ; - : } &.H t.U.U.U.U.U.U.U.U.U.",
"U.U.U.U.U.U.U.U.U.t.= D P * $ $ # & ! I.~.p.d.d.p.d.d.i.N.~.s.C 3.0.x ! 8.! ) 8X9XK.*.Y.qX9Xk.T U U U ' W S t.U.U.U.U.U.U.U.U.U.",
"U.U.U.U.U.U.U.U.U.t.* P P * $ $ % ~ ^.zXnXrX/.Y./.!.~.U.pXcXtX! 3.0.y >.0.h G 8X9X6.9 g.9X9Xw.C C F F U P = ] U.U.U.U.U.U.U.U.U.",
"U.U.U.U.U.U.U.U.U.( * P P * $ $ q S.lXbXlXyXrXpXaXzXcXtXiXcXxXR.>.4.8 >.9.c x 1X1Xb % 6.2X1Xb $ $ $ * P I * ] U.U.U.U.U.U.U.U.U.",
"U.U.U.U.U.U.U.U.I./ * P F $ $ $ t tXnXxXyXY.!.tXyXpXlX~.Y.lXbXaX! y 8 h h h 5.3X3Xv 9 n.1Xq.v $ $ $ * P D * t.U.U.U.U.U.U.U.U.U.",
"U.U.U.U.U.U.U.U.P./ - U F * $ $ G pXbXpXv.T.dXlXrXlXnXyXd.rXxXxX5.9 $ $ $ & 5.Z.8.h & n 8.8.h $ $ $ * U F = a.U.U.U.U.U.U.U.U.U.",
"U.U.U.U.U.U.U.U.U.~ - U F ; - - ! aXzXI.w a.pXxXxXnXnX~./ s.aXxXR.9 $ $ $ $ & y 8 % $ $ t m w $ $ $ - U F : a.U.U.U.U.U.U.U.U.U.",
"U.U.U.U.U.U.U.U.I.G ; U T T W ' o.fXzXx.E z.aXmXmXmXnX!.C ~ tXxX6XM $ $ # u G C C w t % $ $ $ # % # - U F 9 s.U.U.U.U.U.U.U.U.U.",
"U.U.U.U.U.U.U.U.P.u ; U T W } { x.zXlX_.o.R.lXmXmXmXnX%X#.o.tXxX6X) Q Q S H Q V V V I G x = * * * $ M T C q l.U.U.U.U.U.U.U.U.U.",
"U.U.U.U.U.U.U.U.P.t M ' ' ' ` 6 1.xXzX1.z P.zXmXmXmXbX~.] ] uXmXuXo. .$.` V _ @._ V V N { ' ' T P D P T M C S.U.U.U.U.U.U.U.U.U.",
"U.U.U.U.U.U.U.U.v.e E =.-.&.} 4 2.zXfX1.c P.pXxXnXnXcX^.c p U.xX4Xf h y N V +.+.+.V V N M X.X.o.#.W W R C t S.U.U.U.U.U.U.U.U.U.",
"U.U.U.U.U.U.U.U.l.q ` =.=.:.| 4 m lXaXV.m.W.yXsXlXlXsX~.u.3.W.cX6X2.,.t M Z 8 > # + @ # # x k d | W R T M u P.U.U.U.U.U.U.U.U.U.",
"U.U.U.U.U.U.U.U.d.q ` :.:.:.X.4 ,.cXzXK.D.W.I./.%X!.D./.N.<X7XxXiXH.m.h y S.6       . o O 6 z 6 | #.#.+.M ! U.U.U.U.U.I.U.U.U.U.",
"U.U.U.U.U.U.U.U.d.w O.+XoXOXX.4 2.zXzXg.n D.d.d.7XU.i.!.g.N.tXbXiX<XD.z 2 z 3       X z + r z 6 %.:.=.-.C ! U.U.U.U.U.U.U.U.U.U.",
"U.U.U.U.U.U.U.U.r.: *.;X;X;XX.a 2.lXaXV.y./.v.D.yX!.y./.V.f.6XcX4Xm.5.d 3 O           O O 7 7 j *.:.:.-.C ~ U.U.U.U.U.U.U.U.U.U.",
"U.U.U.U.U.U.U.U.r.9 *.-X+X+X] a 6.tXyXV.V.N.N.B.Q.<XJ.Q.K.K.U.tX~.J.M.m 7 X           . 3 f a z ).:.}.&.; [ U.U.U.U.U.U.U.U.U.U.",
"U.U.U.U.U.U.U.U.t.: *.OXOXOX[ 4 2.lXaXV.6.C.C.C.G.G.H.H.K.J.4XcXdXJ.J.J.n.2 X .   . 1 g 7.7.a n -X:X;X}.e / U.U.U.U.U.U.U.U.U.U.",
"U.U.U.U.U.U.U.U.] ; |.;X;X+X~ 4 2.iX!.D.G.G.G.C.m.m.m.m.M.m.V.!.Q.G.F.m.D.i.2.m j 7.7.7.6.7.s w.:X;X;X[.; t.U.U.U.U.U.U.U.U.U.U.",
"U.U.U.U.U.U.U.U./ e |.;X;X-Xn p >.<.6.m.H.J.<XJ.<XQ.K.<XJ.<XJ.K.H.H.H.H.G.F.F.F.Z.6.l l g s 1 [ OXOXOX*.= t.U.U.U.U.U.U.U.U.U.U.",
"U.U.U.U.U.U.U.U./ e |.-X;X@Xv 4 s k l c 6.n.m.Z.G.m.m.m.C.J.K.<XJ.K.H.J.L.L.L.L.L.L.G.6.6.g 4 t.@X+X@X%.: p.U.U.U.U.U.U.U.U.U.U.",
"U.U.U.U.U.U.U.U.~ ;  .%.&.%.i 5 a l l >.6.n.F.G.G.G.G.G.C.H.G.<XH.F.m.m.F.G.8.F.m.6.7.7.c l p k.:X;X;X%.q p.U.U.U.U.U.U.U.U.U.U.",
"U.U.U.U.U.U.U.U.a.w * = = % 1 X , , < 1 s k c >.<.<.3.6.6.8.M.n.m.m.F.F.F.H.F.F.8.6.>.>.l a a b.;X;X;X%.q s.U.U.U.U.U.U.U.U.U.U.",
"U.U.U.U.U.U.U.U.U.a.r.e.[ / m j d f s 5 1 1 < < < < < < < < 1 5 1 a s s l l l <.m l a s s 5 4 k.OXoXoX .w P.U.U.U.U.U.U.U.U.U.U.",
"U.U.U.U.U.U.U.U.U.U.U.U.U.I.U.P.U.P.P.N.N.d.f.y.y.y.y.1.b d d d f 5 5 5 < < < < < , , , , , < 0 K E E A w S.U.U.U.U.U.U.U.U.U.U.",
"U.U.U.U.U.U.U.U.U.U.U.U.U.U.U.U.U.U.U.U.U.U.U.U.U.U.U.U.U.U.S.U.P.D.N.d.d.p.y.y.e.1.m b z d h h e w w 9 ( U.U.U.U.U.U.U.U.U.U.U.",
"U.U.U.U.U.U.U.U.U.U.U.U.U.U.U.U.U.U.U.U.U.U.U.U.U.U.U.U.U.U.U.U.T.U.U.U.U.U.U.U.U.U.U.U.U.U.D.S.P.S.d.l.U.U.U.U.U.U.U.U.U.U.U.U.",
"U.U.U.U.U.U.U.U.U.U.U.U.U.U.U.U.U.U.U.U.U.U.U.U.U.U.U.U.U.U.U.U.I.T.U.U.U.U.U.U.U.U.U.U.U.U.U.U.U.U.U.U.U.U.U.U.U.U.U.U.U.U.U.U.",
"U.U.U.U.U.U.U.U.U.U.U.U.U.U.U.U.U.U.U.U.U.U.U.U.U.U.U.U.U.U.U.U.U.U.U.U.U.U.U.U.U.U.U.U.U.U.U.U.U.U.U.U.U.U.U.U.U.U.U.U.U.U.U.U.",
"U.U.U.U.U.U.U.U.U.U.U.U.U.U.U.U.U.U.U.U.U.U.U.U.U.U.U.U.U.U.U.U.U.U.U.U.U.U.U.U.U.U.U.U.U.U.U.U.U.U.U.U.U.U.U.U.U.U.U.U.U.U.U.U.",
"U.U.U.U.U.U.U.U.U.U.U.U.U.U.U.U.U.U.U.U.U.U.U.U.U.U.U.U.U.U.U.U.U.U.U.U.U.U.U.U.U.U.U.U.U.U.U.U.U.U.U.U.U.U.U.U.U.U.U.U.U.U.U.U.",
"U.U.U.U.U.U.U.U.U.U.U.U.U.U.U.U.U.U.U.U.U.U.U.U.U.U.U.U.U.U.U.U.U.U.U.U.U.U.U.U.U.U.U.U.U.U.U.U.U.U.U.U.U.U.U.U.U.U.U.U.U.U.U.U."
};
