/* XPM */
static char *B9941722819516[] = {
/* columns rows colors chars-per-pixel */
"64 64 242 2 ",
"   c #252428",
".  c #2B292D",
"X  c #29272A",
"o  c #39373A",
"O  c #332F30",
"+  c #423D3C",
"@  c #4B3127",
"#  c #7A3A25",
"$  c #564539",
"%  c #6B4436",
"&  c #6A463A",
"*  c #6B483B",
"=  c #744C3A",
"-  c #754B38",
";  c #7A533E",
":  c #77503C",
">  c #6D412E",
",  c #383A48",
"<  c #383D50",
"1  c #403D40",
"2  c #3D414F",
"3  c #494545",
"4  c #4A4C5A",
"5  c #514F52",
"6  c #585558",
"7  c #554B4A",
"8  c #6B4A43",
"9  c #664C4A",
"0  c #6C5245",
"q  c #795746",
"w  c #685858",
"e  c #775850",
"r  c #766A5E",
"t  c #6A645A",
"y  c #4E5363",
"u  c #515664",
"i  c #565A69",
"p  c #635965",
"a  c #5E626D",
"s  c #5A6277",
"d  c #696768",
"f  c #786867",
"g  c #7C7168",
"h  c #6A6B75",
"j  c #766D72",
"k  c #7C7A7B",
"l  c #777578",
"z  c #6C717F",
"x  c #813F27",
"c  c #86543E",
"v  c #92563D",
"b  c #A95732",
"n  c #D77938",
"m  c #CA6933",
"M  c #865C44",
"N  c #814E41",
"B  c #8A644A",
"V  c #966A4A",
"C  c #9B6C4B",
"Z  c #966447",
"A  c #9B704E",
"S  c #8A6B58",
"D  c #986B53",
"F  c #9D7352",
"G  c #997759",
"H  c #8D705B",
"J  c #A36D4B",
"K  c #A9724D",
"L  c #A27553",
"P  c #A67858",
"I  c #B27A54",
"U  c #AA7051",
"Y  c #846B65",
"T  c #86756A",
"R  c #987966",
"E  c #857A7B",
"W  c #867775",
"Q  c #987A74",
"!  c #936F62",
"~  c #AA7E67",
"^  c #A05D4D",
"/  c #C26E50",
"(  c #E8843A",
")  c #F4913F",
"_  c #A9835C",
"`  c #B8865A",
"'  c #99846B",
"]  c #898378",
"[  c #968978",
"{  c #9B9379",
"}  c #A88868",
"|  c #B38761",
" . c #AE906D",
".. c #B7956A",
"X. c #A9947A",
"o. c #BA9C71",
"O. c #B39A75",
"+. c #A88975",
"@. c #B9A27C",
"#. c #D0884D",
"$. c #F59641",
"%. c #C29868",
"&. c #C29873",
"*. c #C38D7B",
"=. c #C4A779",
"-. c #D2AC73",
";. c #D7B579",
":. c #CAA26C",
">. c #E0BA79",
",. c #6D7788",
"<. c #7B7D83",
"1. c #777A87",
"2. c #6D758F",
"3. c #59759B",
"4. c #857B83",
"5. c #7A8493",
"6. c #7E8289",
"7. c #5C82B4",
"8. c #798EA5",
"9. c #7896B9",
"0. c #6D8CB3",
"q. c #7EA1BF",
"w. c #6795C7",
"e. c #6E9BCC",
"r. c #5D8BC0",
"t. c #8C8B8C",
"y. c #888486",
"u. c #968B89",
"i. c #9A938A",
"p. c #8D8D91",
"a. c #818C9B",
"s. c #8C9299",
"d. c #939294",
"f. c #9C9B9C",
"g. c #9A9898",
"h. c #948E90",
"j. c #A79887",
"k. c #A39B99",
"l. c #AA8F87",
"z. c #ABA389",
"x. c #B7A888",
"c. c #AAA49C",
"v. c #B6A997",
"b. c #BCB398",
"n. c #BCB28F",
"m. c #828FA0",
"M. c #8C9BAD",
"N. c #8795A6",
"B. c #9B9CA1",
"V. c #959DA8",
"C. c #879EB5",
"Z. c #A09FA2",
"A. c #98A0A9",
"S. c #93A3B3",
"D. c #9BACBB",
"F. c #9AA8B6",
"G. c #87A0BA",
"H. c #A4A3A4",
"J. c #A9A6A6",
"K. c #ADA9A6",
"L. c #A7A6AB",
"P. c #A8A7AA",
"I. c #ACAAAB",
"U. c #A6A9AC",
"Y. c #B3ADA5",
"T. c #B2AEA9",
"R. c #B8AAA6",
"E. c #B6B1A5",
"W. c #BBB5A4",
"Q. c #BCB6AA",
"!. c #B5B1AB",
"~. c #A8ADB5",
"^. c #B0AFB1",
"/. c #ABB1B5",
"(. c #B4B3B4",
"). c #BCBCBD",
"_. c #BAB8B8",
"`. c #C7AE83",
"'. c #C5B189",
"]. c #CAB689",
"[. c #D4BC89",
"{. c #CCBB95",
"}. c #C6BA9D",
"|. c #CBBC9A",
" X c #C6B595",
".X c #CEB298",
"XX c #C4BBA2",
"oX c #C4B8A6",
"OX c #C0BFBF",
"+X c #CABBB5",
"@X c #DEBFB2",
"#X c #D7C29A",
"$X c #D9C38C",
"%X c #E5CE94",
"&X c #EED999",
"*X c #DDD5B8",
"=X c #D0C8AF",
"-X c #E8D8AF",
";X c #F6E7B4",
":X c #F5E3A2",
">X c #F0E09B",
",X c #87A7C4",
"<X c #94ACC3",
"1X c #9CB4C8",
"2X c #89B3D4",
"3X c #97BAD6",
"4X c #87B0D0",
"5X c #B2BBC5",
"6X c #BFBFC1",
"7X c #A4B8CA",
"8X c #C1BEC0",
"9X c #9FC2DD",
"0X c #A7C4DB",
"qX c #B5C3CD",
"wX c #9AC3E3",
"eX c #AACEE9",
"rX c #A7CAE6",
"tX c #ACD0EC",
"yX c #B1D4EE",
"uX c #C3C3C3",
"iX c #CBCACB",
"pX c #C6C9C9",
"aX c #D1CFD1",
"sX c #D3D3D3",
"dX c #DCDCDD",
"fX c #D9D8D7",
"gX c #D4CFCA",
"hX c #E5DAC9",
"jX c #E0DCD8",
"kX c #F3E9C6",
"lX c #F4EEDA",
"zX c #EFE9D2",
"xX c #DFDFE0",
"cX c #E0DFE0",
"vX c #DFE1E4",
"bX c #E3E3E4",
"nX c #EBEBEC",
"mX c #E7E7E8",
"MX c #F4F4F4",
"NX c #F9FBFA",
"BX c #F8F9F5",
"VX c #F7F5E7",
/* pixels */
"L.L.L.L.L.L.L.L.L.L.L.L.L.L.L.L.L.L.L.L.L.L.L.L.L.L.L.L.L.L.L.L.L.L.L.L.L.L.L.L.L.L.L.L.L.L.L.L.L.L.L.L.L.L.L.L.L.L.L.L.L.L.L.L.",
"L.L.L.L.L.L.L.L.L.L.L.L.L.L.L.L.L.L.L.L.L.L.L.L.L.L.U.L.L.L.L.L.L.L.L.L.L.L.L.L.L.L.L.L.L.L.L.L.L.L.L.L.L.L.L.L.L.L.L.L.L.L.L.L.",
"L.L.L.L.L.L.L.L.L.L.L.L.L.L.L.L.L.L.L.L.L.L.L.L.L.L.L.L.L.L.L.L.L.L.L.L.L.L.L.L.L.L.L.L.L.L.L.L.L.L.L.L.L.L.L.L.L.L.L.L.L.L.L.L.",
"L.L.L.L.L.L.L.L.L.L.L.L.L.L.L.L.L.L.L.L.L.L.L.L.L.L.L.L.L.L.L.L.L.L.L.L.L.L.L.L.L.L.L.L.L.L.L.L.L.L.L.L.L.L.L.L.L.L.L.L.L.L.L.L.",
"L.L.L.L.L.L.L.L.L.L.L.L.L.L.L.L.L.L.L.L.L.L.L.L.L.L.L.L.L.L.L.L.L.L.L.L.L.L.L.L.L.L.L.L.L.L.L.L.L.L.L.L.L.L.L.L.L.L.L.L.L.L.L.L.",
"L.L.L.L.L.L.L.L.L.L.L.L.L.L.L.L.L.L.L.L.L.L.L.L.L.L.L.L.L.L.L.L.L.L.L.L.L.L.L.L.L.L.L.L.L.L.L.L.L.L.L.L.L.L.L.L.L.L.L.L.L.L.L.L.",
"L.L.L.L.L.L.L.L.L.L.L.L.L.L.L.L.L.L.L.L.L.L.L.L.L.L.L.L.L.L.L.L.L.L.L.L.L.L.L.L.L.L.L.L.L.L.L.L.L.L.L.L.L.L.L.L.L.L.L.L.L.L.L.L.",
"L.L.L.L.L.L.L.L.L.L.L.L.L.L.L.L.L.L.L.L.L.L.L.L.L.L.L.L.L.L.L.L.L.L.L.L.L.L.L.L.L.L.L.L.L.L.L.L.L.L.L.L.L.L.L.L.L.L.L.L.L.L.L.L.",
"L.L.L.L.L.L.L.L.L.L.L.L.L.L.L.L.L.L.L.L.P.L.L.L.L.L.L.L.L.L.L.L.L.L.L.L.L.L.L.L.L.L.L.L.L.L.L.L.L.L.L.L.L.L.L.L.L.L.L.L.L.L.L.L.",
"L.L.L.L.L.L.L.L.L.L.L.L.L.L.L.L.L.L.L.L.L.L.L.L.L.L.L.L.L.L.L.L.L.L.L.L.L.L.L.L.L.L.L.L.L.L.L.L.L.L.L.L.L.L.L.L.L.L.L.L.L.L.L.L.",
"L.L.L.L.L.L.L.L.L.L.L.L.L.L.L.L.L.L.L.L.L.L.L.L.L.L.L.L.L.L.L.L.L.L.L.L.L.L.L.L.L.L.L.L.L.L.L.L.L.L.L.L.L.L.L.L.L.L.L.L.L.L.L.L.",
"L.L.L.L.L.L.L.L.L.L.L.L.L.L.L.L.L.L.L.L.L.L.L.L.L.L.L.L.L.L.L.L.L.L.L.L.L.L.L.L.L.L.L.L.L.L.L.L.L.L.L.L.L.L.L.L.L.L.L.L.L.L.L.L.",
"L.L.L.L.L.L.L.L.L.L.L.L.L.L.L.L.L.L.L.L.L.L.L.L.L.L.L.L.U.U.J.L.L.L.U.H.L.L.L.L.L.L.L.L.L.L.L.L.L.L.L.L.L.L.L.L.L.L.L.L.L.L.L.L.",
"L.L.L.L.L.L.L.L.L.L.L.L.L.L.L.L.L.L.L.L.L.L.L.L.L.L.L.L.U.U.J.L.L.L.U.U.L.L.L.L.L.L.L.L.L.L.L.L.L.L.L.L.L.L.L.L.L.L.L.L.L.L.L.L.",
"L.L.L.L.L.L.L.L.L.L.L.L.L.L.L.L.P.L.L.L.L.L.L.L.L.L.L.L.U.H.U.Y.P.P.P.H.L.L.L.L.L.L.L.L.L.L.L.L.L.L.L.L.L.L.L.L.L.L.L.L.L.L.L.L.",
"L.L.L.L.L.L.L.L.L.L.L.L.L.L.L.L.E.XXE.Y.L.L.L.L.L.L.L.L.U.H.x.=.[.#X#X#X|.n.Z.L.L.L.L.L.L.L.L.L.L.L.L.L.L.L.L.L.L.L.L.L.L.L.L.L.",
"L.L.L.L.L.L.L.L.L.L.L.L.L.L.K.v.} ..o.@. XW.E.E.E.!.Y.U.c.z._ V D V A F L _ x.H.L.L.L.P.L.L.L.L.L.L.L.L.L.L.L.L.L.L.L.L.P.L.L.L.",
"L.L.L.L.L.L.L.L.L.L.L.L.L.J.v.} A P L B ' ] [ { i.z.x.n.n.O._ @.[.[.|. X..V O.XXT.Y.I.P.L.L.H.L.Y.Q.Y.Y.L.L.L.L.L.L.L.L.L.L.L.L.",
"L.L.L.L.L.L.L.L.L.L.L.L.J.n.~ L =.%X$Xd a s s i u i u 6 u 6 @.;XVXkXVXBXkX .g { z.z.x.n.n. X}. XO.O.o.=.c.L.L.L.L.L.L.L.L.L.L.L.",
"L.L.L.L.L.L.L.L.L.L.L.L.T.].V =.&XkX*X6.M.D.S.S.S.M.N.8.8.s.=X;X-X%X*XlXVX#Xa i u y u u u u p d S P F Z ..Y.L.L.L.L.L.L.L.L.L.L.",
"L.L.L.L.L.L.L.L.L.L.L.L.T.`.H [ ] E k w 6 w j l l <.6.<.6.t.i.k.j.~ I %XkX-XD.S.V.g.h.t.4.t.4.j Y [.%X .V O.c.I.L.L.L.L.L.L.L.L.",
"L.L.L.L.L.L.L.L.L.L.L.L.T.@.S 6 3 6 d w c 8 6 6 5 6 6 d d d d j E y.l.oX-X=XA.S.c.&.~ U #.&.~ P } .X;X%X| F {.L.L.L.L.L.L.L.L.L.",
"L.L.L.L.L.L.L.L.L.L.L.L.Q.x.g j h k B.4.Q [ d.y.d k h.p.t.f.4.E h.Z.L.L.T.v. . X+X^.h.Z.c.k.H.h.h.OXzXkX=.F {.L.L.L.L.L.L.L.L.L.",
"L.L.L.L.L.L.L.L.L.L.L.L.Q.j.h.d.t.A.+XQ ^ l.(.d.k f.(.I.I._.H.Z.(.8XsXcXiXk.#XkXgXiX5XrX0X3X0X0XF.uX*X;X=.C {.J.L.L.L.L.L.L.L.L.",
"L.L.L.L.L.L.L.L.L.L.L.L.oXB.H.f.y./.iX*./ .X8XL.d.^.).^.8XaX(.(.8XiXbXMXbXOX=XlXiX5X0XyX0X3XrXtX1XU.x.:X:.L {.L.L.L.L.L.L.L.L.L.",
"L.L.L.L.L.L.L.L.L.L.L.L.W.L._.g.i.=XfXgX@XhXdX8X6XdXbXcXbXbXiX_.8XiXcXMXbXaX*XkXuX0XyXeX1XD.0XtX0XM.D &X.._ |.L.L.L.L.L.L.L.L.L.",
"L.L.L.L.L.L.L.L.L.L.L.L.oXv.uXv.x.8XdXdXcXdXfXsXiXiXsXsXfXsXiX8X8XuXiXfXsXdXoX[./.yXyX7Xf l 3XeXtXD.H ;._ _ }.L.L.L.L.L.L.L.L.L.",
"L.L.L.L.L.L.L.L.L.L.L.L.oX .J.!.+XsXbXmXmXbXOXiXvXxXfXsXuXcXcXaXaXbXmXcXaXfX|.$XqXyXyX0Xb.E 3XeXtX<XH ;._ | XXH.L.L.L.L.L.L.L.L.",
"L.L.L.L.L.L.L.L.L.L.L.L.XX_ O.v.f.H.(.8XuX8XJ.J.8X^.Z.^.f.iXdX^.H.iXcXxXfX8X|.>XuXyXyXqXhXu.3XtXtX<XR ;.L ..}.U.L.L.L.L.L.L.L.L.",
"L.L.L.L.L.L.L.L.L.L.L.L.}.L ` -.T E E E i.R.E.oXc.W f W 4.h.T.L.g.^.8X8X8Xk.O.[.b.rXyX7XH r 3XtXtX<X' ;.J ..}.U.L.L.L.L.L.L.P.L.",
"L.L.L.L.L.L.L.L.L.L.L.P.|.F | -.; % % % } zXlXoXX.- % % - % e Y Y T T T f e = = g 0XyX1X0 & G.eXrX<X} -.C o.W.L.L.L.L.L.L.L.L.L.",
"L.L.L.L.L.L.L.L.L.L.L.L.{.A ..:.c % % % S  X XS 8 * & & q % % % 8 & % % & 9 & % f 0XeX3X[ B C.rXrXD.} -.C =.Y.L.L.L.L.L.L.L.L.L.",
"L.L.L.L.L.L.L.L.L.L.P.P.].Z K I K J J C Z e t t w f d f S - - - Y 2.s 9 w 3.6 > 1.3XwX2X=X`.N.3XwX9. .-.A =.!.U.P.U.L.L.L.L.L.L.",
"L.L.L.L.L.L.L.L.L.L.P.I.'.; C K Z V C G 9 @ + o o o o p u.I K K Q e.e.! D 9.2.N ! 4X2X,X=X-.M.2X2X8. .-.C =.E.P.L.L.L.L.L.L.L.L.",
"L.L.L.L.L.L.L.L.L.L.L.T.'.= C Z % q f k 6 3 , o $ o 3 d y.Q Q M D e.e.^ ^ e.4.I l.3XwX4Xu.I U.wXwXS.` ` C `.K.L.L.L.L.L.L.L.L.L.",
"L.L.L.L.L.L.L.L.L.L.L.!.x.* J D e u.I.t.d.d.y.] 6.t.t.t.h.L.h.q 9 3.r.9 8 3.2.q E 3XwX3XW B V.wXwXD.P J ; `.I.U.L.L.L.L.L.L.L.L.",
"L.L.L.L.L.L.L.L.L.L.L.!.@.= J +.T.aXnX6Xd.H.U.K.I.I.A.g.iXvX_.r w w.r.1 e w.3.9 f 0XrX2Xd & M.wXwX<XP Z : '.I.P.L.L.L.L.L.L.L.L.",
"L.L.L.L.L.L.L.L.L.L.U.W.O.= ~ J.fXMXMXxXuXuX).qXpXpXpX=XbXnXmXT.p e.7.& p e.3.9 p 3XwXC.w & N.3XwX,XP Z : ].I.P.L.L.L.L.L.L.L.L.",
"L.L.L.L.L.L.L.L.L.L.L.Q...= l.iXnXMXxXuX_.uXfXcXnXnXvXqXsXmXnXfXY 2.,.% ,.3.3.w j 3XwX8.8 8 8.2X2X9.P Z N  XJ.P.L.L.L.L.L.L.L.L.",
"L.L.L.L.L.L.L.L.L.L.U.Q.} q R.nXMXnXiXP.!.).aXuXaXcXsXI.^.dXMXnXL.9 p = p p p Y m.2X2X8.8 e G.2Xq.9.P M M }.P.P.L.L.L.L.L.L.L.L.",
"L.L.L.L.L.L.L.L.L.L.L.Q.} ; +XnXMXfX(.H.OXxXsX(.fXMXvX(.Z.pXnXBX8X^ B N : - - e s.,X,X2.* e 5.G.q.,.K v M }.L.L.L.L.L.L.L.L.L.L.",
"L.L.L.L.L.L.L.L.L.L.L.oXG q +XmXbX_.k t.=XxXnXxXnXBXvX(.] U.cXnXdXl.%.%...` ` ` | +.[ R C Z B W 5.] P M B }.L.L.L.L.L.L.L.L.L.L.",
"L.L.L.L.L.L.L.L.L.L.P.XXF B =XnXdXh.4 h qXvXMXMXNXNXdXV.d <.iXnXbXg.f f g T Q +.+.+.O.o...&.%.%.` P I c D }.U.H.L.L.L.L.L.L.L.L.",
"L.L.L.L.L.L.L.L.L.U.P.XXS F hXmXdX[ y 1.iXmXNXNXNXNXdXV.,.,.qXnXcXV.s i i u u E Y Z D Z S g d ' %.I K : H =XJ.U.L.L.L.L.L.L.L.L.",
"L.L.L.L.L.L.L.L.L.L.L.XXB P hXMXdX] y p.aXMXBXNXNXNXxX/.D.F.qXnXbX~.M.N.N.m.4.^ m n ( ( m v S u.%.%.I c _ W.U.P.L.L.L.L.L.L.L.L.",
"L.L.L.L.L.L.L.L.L.L.P.}.B } lXNXcXk y t.iXnXBXBXBXMXxX/.S.F.iXBXMX5XD.D.1XA.~ m ( $.) ) ( m b G ;.>.-.c } oXL.L.L.L.L.L.L.L.L.L.",
"L.L.L.L.L.L.L.L.U.L.P.{.q @.lXMXjX] i s.uXbXMXMXMXMXfXU.S.M./.nXmX/.C.M.N.Q m n #.#.#.#.n m b v =.;.-.c } oXL.L.L.L.L.L.L.L.L.L.",
"L.L.L.L.L.L.L.L.P.P.P.{.; ..zXmXsXk a B.uXsXbXmXmXmXsXI.D.D.qXxXbX5X1X~.4.M b B B : : $ > > x # T  X;.; O.Q.L.L.L.L.L.L.L.L.L.L.",
"L.L.L.L.L.L.L.L.L.L.I. X; &.zXnXfXk u B._.qXiXsXsXqX).!.A.S.5XbXmX5XD.F.l $ r k + X X X X . O @ 7 X.$Xq @.E.P.L.L.L.L.L.L.L.L.L.",
"L.L.L.L.L.L.L.L.L.L.K.'.: [.lXBXdX<.a f.K.t.Z._.I.y.f.T.s.M.5XmXmX5XM.M.h $ ] /.3         o 5 O 7 l @.; =.T.P.U.L.L.L.L.L.L.L.L.",
"L.L.L.L.L.L.L.L.L.L.^.@.q $XlXMXdX6.d d.K.d.I.pX).t.^.(.d.f.qXnXnXqXD.S.l 3 6 5 .         o a o 7 ] @.: `.I.L.L.L.L.L.L.L.L.L.L.",
"L.L.L.L.L.L.L.L.L.L.I.x.= =.hXnXaX<.1.I._.d.U.iX_.t.Z./.d.g._.mXvXD.C.5.a $ 1 .           . O . 7 { =.; '.K.L.U.L.L.L.L.L.L.L.L.",
"L.L.L.L.L.L.L.L.L.L.J.j.; B R.sX(.z h 6.p.l <.5.5.5.5.8.8.s.A.pXiXF.S.6.a 3 1 X               $ { $X@.; $XK.J.U.L.L.L.L.L.L.L.L.",
"L.L.L.L.L.L.L.L.L.L.L.c.X.G =XnXaXt.6 5 i 2 , , , , 2 2 2 2 a.fXvX/.z z z h 6 .             3 [ %X&Xo.; n.Z.J.U.L.L.L.L.L.L.L.L.",
"L.L.L.L.L.L.L.L.L.L.L.L.I.Q.fXmXuXE.b. Xn.x.x.z.{ { ] g g t t.pXxX(.a 2 2 5 6.6 o . . . O , 3 S G _ V q n.J.U.U.L.L.L.L.L.L.L.L.",
"L.L.L.L.L.L.L.L.L.L.L.L.L.L.6XpXH.^.U.P.P.I.I.T.U.E.b.W.Q.XXb.c.=XXXn.x.z.z.v.i.] ] r t r t t B q q ; } z.I.U.U.L.L.L.L.L.L.L.L.",
"L.L.L.L.L.L.L.L.L.L.L.L.L.L.L.L.L.L.L.L.L.L.L.L.L.L.L.L.L.L.L.L.A.J.J.H.J.P.I.K.Y.Y.W.E.b.W.XX}. X|. Xc.L.L.L.L.L.L.L.L.L.L.L.L.",
"L.L.L.L.L.L.L.L.L.L.L.L.L.L.L.L.L.L.L.L.L.L.L.L.L.L.L.L.L.L.L.L.U.U.L.L.L.L.L.L.L.L.L.L.L.L.L.L.P.L.L.L.L.L.L.L.L.L.L.L.L.L.L.L.",
"L.L.L.L.L.L.L.L.L.L.L.L.L.L.L.L.L.L.L.L.L.L.L.L.L.L.L.L.L.L.L.L.J.U.U.U.L.L.L.L.L.L.L.L.L.L.L.L.L.L.L.L.L.L.L.L.L.L.L.L.L.L.L.L.",
"L.L.L.L.L.L.L.L.L.L.L.L.L.L.L.L.L.L.L.L.L.L.L.L.L.L.L.L.L.L.L.L.U.U.J.J.L.L.L.L.L.L.L.L.L.L.L.L.L.L.L.L.L.L.L.L.L.L.L.L.L.L.L.L.",
"L.L.L.L.L.L.L.L.L.L.L.L.L.L.L.L.L.L.L.L.L.L.L.L.L.L.L.L.L.L.L.L.L.L.L.L.L.L.L.L.L.L.L.L.L.L.L.L.L.L.L.L.L.L.L.L.L.L.L.L.L.L.L.L.",
"L.L.L.L.L.L.L.L.L.L.L.L.L.L.J.L.L.L.L.L.L.L.L.L.L.L.L.L.L.L.L.L.L.L.L.L.L.L.L.L.L.L.L.L.L.U.L.L.L.L.L.L.L.L.L.L.L.L.L.L.L.L.L.L.",
"L.L.L.L.L.L.L.L.L.L.L.L.L.L.L.L.L.L.L.L.L.L.L.L.L.L.L.L.L.L.L.L.L.P.L.L.L.L.L.L.L.L.L.L.L.L.L.L.L.L.L.L.L.L.L.L.L.L.L.L.L.L.L.L.",
"L.L.L.L.L.L.L.L.L.L.L.L.L.L.L.L.L.L.L.L.L.L.L.L.L.L.L.L.L.L.L.L.L.L.L.L.L.L.L.L.L.L.L.L.L.L.L.L.L.L.L.L.L.L.L.L.L.L.L.L.L.L.L.L."
};
