/* XPM */
static char *B9951721604130[] = {
/* columns rows colors chars-per-pixel */
"64 64 234 2 ",
"   c #252328",
".  c #282628",
"X  c #2B2A2E",
"o  c #352E2B",
"O  c #312E31",
"+  c #363435",
"@  c #393636",
"#  c #3E3A39",
"$  c #4B332B",
"%  c #483D3A",
"&  c #6C3625",
"*  c #48423F",
"=  c #6A4234",
"-  c #66453C",
";  c #6A463A",
":  c #6C493D",
">  c #754C3A",
",  c #7C533D",
"<  c #373947",
"1  c #403F41",
"2  c #3C4153",
"3  c #494646",
"4  c #544B48",
"5  c #545048",
"6  c #514F51",
"7  c #585555",
"8  c #5D5A5B",
"9  c #6C4B42",
"0  c #674A48",
"q  c #6C534B",
"w  c #785648",
"e  c #604D52",
"r  c #665757",
"t  c #745B55",
"y  c #79645A",
"u  c #4E5466",
"i  c #575A68",
"p  c #565F75",
"a  c #635E66",
"s  c #625F72",
"d  c #5E6372",
"f  c #646364",
"g  c #6A6665",
"h  c #6A646B",
"j  c #6B6A6C",
"k  c #756866",
"l  c #7C7469",
"z  c #696976",
"x  c #757374",
"c  c #787579",
"v  c #7C7A7C",
"b  c #803B25",
"n  c #905136",
"m  c #AA4C26",
"M  c #A2553B",
"N  c #B76638",
"B  c #C55C2B",
"V  c #C96E37",
"C  c #D57033",
"Z  c #E17E39",
"A  c #895C46",
"S  c #89634A",
"D  c #996949",
"F  c #876858",
"G  c #966A56",
"H  c #917254",
"J  c #997556",
"K  c #A36B49",
"L  c #AA734D",
"P  c #B4754A",
"I  c #A47458",
"U  c #846C63",
"Y  c #857669",
"T  c #8B746C",
"R  c #987566",
"E  c #92776F",
"W  c #877A77",
"Q  c #A87863",
"!  c #C17357",
"~  c #EB873B",
"^  c #F4913E",
"/  c #B2885D",
"(  c #8F8570",
")  c #988678",
"_  c #AB8468",
"`  c #B88B63",
"'  c #AA916C",
"]  c #B99466",
"[  c #A88C79",
"{  c #AC9678",
"}  c #B99D76",
"|  c #BBA175",
" . c #EB9243",
".. c #C68F6F",
"X. c #C7A97A",
"o. c #D7B67D",
"O. c #5A6D8E",
"+. c #6D768B",
"@. c #5A7BAB",
"#. c #637CA4",
"$. c #817E84",
"%. c #7C828C",
"&. c #7C8799",
"*. c #5B85B2",
"=. c #708DB0",
"-. c #7FA1BD",
";. c #5992CC",
":. c #6496C9",
">. c #7DA5C4",
",. c #67A4DC",
"<. c #64A7E3",
"1. c #848284",
"2. c #858589",
"3. c #8A8789",
"4. c #8C8B8C",
"5. c #968989",
"6. c #98948D",
"7. c #898C94",
"8. c #928F93",
"9. c #949394",
"0. c #9A9796",
"q. c #94959B",
"w. c #9C9B9D",
"e. c #AB9286",
"r. c #A99586",
"t. c #B89788",
"y. c #A59B94",
"u. c #A19D9D",
"i. c #BBA888",
"p. c #A9A497",
"a. c #ABA39C",
"s. c #B4A998",
"d. c #BBB29A",
"f. c #8997A8",
"g. c #8999AB",
"h. c #9C9DA2",
"j. c #939CA8",
"k. c #A29FA1",
"l. c #99A2AC",
"z. c #8BA3B8",
"x. c #93A3B4",
"c. c #96A6B6",
"v. c #9BACBC",
"b. c #A4A3A4",
"n. c #A9A5A5",
"m. c #ACA9A5",
"M. c #A7A6AB",
"N. c #A8A7AB",
"B. c #A7A8A9",
"V. c #ACAAAC",
"C. c #B2ADA9",
"Z. c #B6B2A4",
"A. c #B8B5AA",
"S. c #A5ADB7",
"D. c #ADADB2",
"F. c #B1AFB3",
"G. c #A7B2BB",
"H. c #B4B3B4",
"J. c #BAB8B6",
"K. c #B5B6B9",
"L. c #BBBBBC",
"P. c #C4AE87",
"I. c #C9B288",
"U. c #D7BB88",
"Y. c #CEB292",
"T. c #C6BB97",
"R. c #CCB9A7",
"E. c #C5BBB5",
"W. c #BEC0AF",
"Q. c #D5C394",
"!. c #D7C79A",
"~. c #E9D291",
"^. c #E7D499",
"/. c #C9C5AC",
"(. c #C8C4B9",
"). c #D3CAB2",
"_. c #DBD5B8",
"`. c #E5D6A5",
"'. c #E9DBAC",
"]. c #DFE1BC",
"[. c #ECE3AE",
"{. c #F7E9A7",
"}. c #86ABCA",
"|. c #98AEC2",
" X c #8BB0CE",
".X c #9CB3C6",
"XX c #8BB4D4",
"oX c #89B5D6",
"OX c #9ABBD5",
"+X c #95BDDC",
"@X c #A7B8C6",
"#X c #BEBEC1",
"$X c #A4BDD1",
"%X c #95BFE0",
"&X c #C1BFC0",
"*X c #9CC1DE",
"=X c #BCC2C9",
"-X c #A8C4D9",
";X c #B4C9D8",
":X c #9AC4E4",
">X c #9CC5E4",
",X c #A4C9E5",
"<X c #AACCE5",
"1X c #A3CAE8",
"2X c #ABCEE9",
"3X c #ADD1EC",
"4X c #B2D1E8",
"5X c #B2D5ED",
"6X c #C3C2C3",
"7X c #C7C7C9",
"8X c #CBCBCC",
"9X c #D3CCCB",
"0X c #D7D5CD",
"qX c #CDCED1",
"wX c #D1CFD1",
"eX c #CCD2D3",
"rX c #D3D2D3",
"tX c #D7D7D8",
"yX c #DCDBDC",
"uX c #E4DEDD",
"iX c #EDE9D8",
"pX c #DEDEE0",
"aX c #E1DFE0",
"sX c #DFE0E1",
"dX c #E3E3E4",
"fX c #E6E7E8",
"gX c #EBEBEC",
"hX c #EEF0EF",
"jX c #F5F3E9",
"kX c #EFEFF0",
"lX c #EFF0F0",
"zX c #F3F4F4",
"xX c #F7F8F7",
"cX c #F9FAFA",
/* pixels */
"M.M.M.M.M.M.M.M.M.M.M.M.M.M.M.M.M.M.M.M.M.M.M.M.M.M.M.M.M.M.M.M.M.M.M.M.M.N.N.N.M.M.M.M.M.M.M.M.M.M.M.M.M.M.M.M.M.M.M.M.M.M.M.M.",
"M.M.M.M.M.M.M.M.M.M.M.M.M.M.M.M.M.M.M.M.M.M.M.M.M.M.M.M.M.M.M.M.M.M.M.M.M.N.M.M.M.M.M.M.M.M.M.M.M.M.M.M.M.M.M.M.M.M.M.M.M.N.M.M.",
"M.M.M.M.M.M.M.M.M.M.M.M.M.M.M.M.M.M.M.M.M.M.M.M.M.M.M.M.M.M.M.M.M.M.M.M.M.M.M.M.M.M.M.M.M.M.M.M.M.M.M.M.M.M.M.M.M.M.M.M.M.M.M.M.",
"M.M.M.M.M.M.M.M.M.M.M.M.M.M.M.M.M.M.M.M.M.M.M.M.M.M.M.M.M.M.M.M.M.M.M.M.M.M.M.M.M.M.M.M.M.N.M.M.M.M.M.M.M.M.M.M.M.M.M.M.M.M.M.M.",
"M.M.M.M.M.M.M.M.M.M.M.M.M.M.M.M.M.M.M.M.M.M.M.M.M.M.M.M.M.M.M.M.M.M.M.M.M.M.M.M.M.M.M.M.M.M.M.M.M.M.M.M.M.M.M.M.N.N.M.M.M.M.M.M.",
"M.M.M.M.M.M.M.M.M.M.M.M.M.M.M.M.M.M.M.M.M.M.M.M.M.M.M.M.M.M.M.M.M.M.M.M.M.M.M.M.M.M.M.M.M.M.M.M.M.M.M.M.M.M.M.M.N.N.M.M.M.M.M.M.",
"M.M.M.M.M.M.M.M.M.M.M.M.M.M.M.M.M.M.M.M.M.M.M.M.M.M.M.M.M.M.M.M.M.M.M.M.M.M.M.M.M.M.M.M.M.M.M.M.M.M.M.M.N.M.M.M.N.N.M.M.M.M.M.M.",
"M.M.M.M.M.M.M.M.M.M.M.M.N.M.M.M.M.M.M.M.M.M.M.M.M.M.M.M.M.M.M.M.M.M.M.N.M.M.M.M.M.M.M.M.M.M.M.M.M.M.M.M.M.M.M.M.M.M.M.M.M.M.M.M.",
"M.M.M.M.M.M.M.M.M.M.M.M.M.N.N.M.F.F.M.N.N.N.k.M.M.M.M.M.M.M.M.M.M.M.M.M.M.M.M.M.M.M.M.M.M.M.M.M.M.M.M.M.M.M.N.N.M.M.M.M.M.M.M.M.",
"M.M.M.M.M.M.M.M.M.M.M.w.8.7.8.8.$.$.$.w.q.h.h.h.h.h.w.w.q.w.h.h.k.M.M.M.M.M.M.M.M.M.M.M.N.N.k.D.M.M.k.M.M.M.M.N.M.M.M.M.M.M.M.M.",
"M.M.M.M.M.M.M.M.M.b.7.h 7 6 7 7 e 0 9 e h s z h j x x x v $.1.2.3.7.q.M.M.M.M.M.M.M.M.k.t.t.t.t.e.t.t.t.e.e.t.t.k.M.M.M.M.M.M.M.",
"M.M.M.M.M.M.M.M.M.9.a 3 3 6 z j e n > 0 e e 7 4 6 8 a r f j j g z c $.q.k.D.D.M.M.M.M.N.s...` I P ! ....I Q Q t.s.M.M.M.M.M.M.M.",
"M.M.M.M.M.M.M.M.l.( h f 8 j 8.8.$.Q R T 3.c f 8 x $.3.c 1.3.1.k c $.8.8.6.k.k.D.D.k.M.M.m.a.E W e.[ [ e.$.E E k.N.M.M.M.M.M.M.M.",
"M.M.M.M.M.M.M.M.q.%.2.3.v 4.V.V.$.E $.a.B.9.c x q.n.V.0.V.F.V.3.6.m.F.#X&X6XE.k.M.M.k.D.8XqXk.|.$X$X.X$X$X|.q.&X&XN.M.M.M.M.M.M.",
"M.M.M.M.M.M.M.M.w.9.w.0.2.a.=XE.Q M Q A.J.0.1.2.V.K.J.k.F.E.F.w.C.J.&X9XaXgXgXJ.k.M.M.D.7X7X@X<X2X,X$X$X<X<Xc.#X&XD.M.M.M.M.M.M.",
"M.M.M.M.M.M.M.M.h.b.a.4.%.V.rXE.! V ..9X7XB.0.0.H.J.H.V.7XwX&Xn.L.&X7XtXfXxXkX7X#XN.F.J.#X@X$X3X2X-XOX<X<X2X$Xc.S.M.M.M.M.M.M.M.",
"M.M.M.M.M.M.M.M.b.H.n.3.4.H.rX9XR.Y.R.uXtX&XF.&XsXdXsXtXfXfXtXJ.J.&X8XtXgXcXzX8XeXW.(.9XD.-X2X5X4X$X.X*X<X3X<X*Xb.b.N.N.N.M.M.M.",
"M.M.M.M.M.M.M.M.F.8XA.r.y.(.yXsXuXuXuXdXuX&X&X&XyXdXdXuXsXyXwX&XJ.J.L.7XtXgXfXwXyXJ._.].=X2X5X5X$Xh.q..X<X4X2X,XG.l.B.B.M.M.M.M.",
"M.M.M.M.M.M.M.M.V.6XJ.i.s.(.pXpXuXuXuXyXyXyXyXrXwXwXrXwXrXrXwX9X7X7X9XqX9XwXrX8XiX8.d.(.;X3X5X5X@XI.P.x.*X2X2X,XG.n.b.B.M.M.M.M.",
"M.M.M.M.M.M.M.M.M.N.F.J.E.tXgXgXkXkXgXyX&X&XaXfXsXsXyX7X9XdXdXsXrXrXdXfXfXaXrXrXtXS./._.4X5X5X<X@X`.`.G.,X2X2X<X-Xl.B.B.M.M.M.M.",
"M.M.M.M.M.M.M.M.M.B.n.b.b.V.J.=X8X8XeX6Xw.k.&XwXK.M.&Xu.w.rXdXrXm.n.&XfXdXdXyX8X=XS.W.).4X5X5X5X;XjXjXL.,X3X2X,X.XM.M.M.M.M.M.M.",
"M.M.M.M.M.M.M.M.M.M.M.a.y.9.w.q.b.B.N.b.w.k.N.N.9.3.b.b.a.L.rX=Xu.q.n.wXtX8XrX8XH.A.A.W.;X5X5X5XtXiXiX;X,X5X5X,X$XM.M.M.M.M.M.M.",
"M.M.M.M.M.M.M.M.M.M.b.s.} ) T.Q.T.Q.Q.T.T.T.R.!.Q.T.T.T.{ P.!.E.Z.m.C.(.(.(.J.(.Q.`.{.{._.5X5X5X8X~.^.0X<X3X5X1X@XM.M.M.M.M.M.M.",
"M.M.M.M.M.M.M.M.M.M.M.p.} J ^.U.| `.{.^.] _ J I J H H H S A X.U.U.U.U.!.P.{ Y H y / ~.~.).<X5X2Xl., F _.4X2X2X1X.XM.M.M.M.M.N.M.",
"M.M.M.M.M.M.M.M.M.M.M.p.] J ~.} H '.{.'.S = = = = = = : 9 = A ] ..] ] J > = = = 0 G ~.~.R.-X5X2Xz.9 w Q.-X1X3X>X.XM.M.M.M.M.M.M.",
"M.M.M.M.M.M.M.M.M.M.M.p.| J o.U.{ [.{.!.U q q q t q q q t = = = > y t r - = - 7 u t X.X.A.,X,X,X|.k w I.$X1X1X*X|.M.M.M.M.M.M.M.",
"M.M.M.M.M.M.M.M.M.M.M.y...D U.[.].).r.j 7 5 5 7 8 8 g l t = = = = W =.*.O.e - z @.z > t &.oX+X+X-.a , I..X+X+X Xx.M.M.M.M.M.M.M.",
"M.M.M.M.M.M.M.M.M.M.B.y...D U._.s.k # @ + + + + + @ 3 v W ; : = = t =.<.=.r & s ,.O.0 & c XXoX>.-.s w P..X X X>.g.M.M.M.M.M.M.M.",
"M.M.M.M.M.M.M.M.M.M.M.a.} D I.T.2.5 + + + + + + + # 6 v 4.k T 9 & 9 @.<.*.& 9 s ;.O.& 9 %.*X:XXX-.h n P.$X:X+XXXc.M.M.M.M.M.M.M.",
"M.M.M.M.M.M.M.M.M.M.M.Z.X.R s.6.1.7.x f 8 7 8 8 f j %.( 3.5.5.t - 9 O.;.@.9 & s ;.z : q g.>X:X>X}.c { !.-X,X:X+X|.M.M.M.M.M.M.M.",
"M.M.M.M.M.M.M.M.M.M.M.Z.i.a.&XJ.2.4.B.b.b.w.w.w.u.l.6.2.b.K.N.3.; 9 @.;.@.0 - s ;.O.= = %.*X>X>Xz.v ~.[.-X,X>X%X|.M.M.M.M.M.M.M.",
"M.M.M.M.M.M.M.M.M.M.M.V.L.rXgXfXK.9.w.B.l.m.V.H.B.b.9.B.yXfX8Xw.9 9 =.<.@.e & z ,.*.0 = %.,X2X>X}.k ~.[.;X1X1X,X.XM.M.N.M.M.M.M.",
"M.M.M.M.M.M.M.M.M.M.M.L.pXkXxXzXtX&XL.J.D.H.J.L.6X#XD.qXzXgXfXtX5.9 :.<.#.9 w #.<.*.a = $.*X1X%Xf.w I Y.-X:X:X:Xv.B.M.M.M.M.N.M.",
"M.M.M.M.M.M.M.M.M.M.F.wXfXzXkXdX0X7XeXrXtXyXsXfXgXgX7XrXdXdXzXgXE.Q +.:.$.K Q #.;.#.R P e.OX%XXX8.K L Q }.>.*X>.v.l.M.M.M.M.M.M.",
"M.M.M.M.M.M.M.M.M.N.7XdXzXzXdX8XL.F.C.=XtXyXsXfXdXdXL.J.8XdXkXgXtXe.G p k G Q +.O.O.W R j.+X%XXX7.S G e.}.:X:X>.z.B.B.M.M.M.M.M.",
"M.M.M.M.M.M.M.M.M.F.pXxXzXgXyXK.l.C.J.7XqX7X(.tXyX0XH.b.H.sXgXkXgXH.t a e & F h e r t x z. XXX}.+.& > 5.>.:X>.>.z.B.B.M.M.M.M.M.",
"M.M.M.M.M.M.M.M.M.#XfXxXzXaX7Xn.a.L.8XdXwXH.=XfXzXfX6Xb.b.8XgXzXxXwXU 9 9 & 9 & = = 9 W z.}.}.z.+.= : 5.x.}.-.=.f.M.M.M.M.M.M.M.",
"M.M.M.M.M.M.M.M.M.#XpXgXfXwXs.) 0.=XrXgXaX7XrXzXxXgX&Xb.4.F.pXkXkXqXT > & 9 - 9 ; & = t $.&.&.+.r = = I G &.z.=.f.M.M.M.M.M.M.M.",
"M.M.M.M.M.M.M.M.M.7XfXgXtXC._ D W (.rXzXgXgXlXxXxXdXJ.0.g 8.8XdXkXpXk.9 = = = & = = = = - ; ; ; ; = = K D t a.l.h.M.M.M.M.M.M.M.",
"M.M.M.M.M.M.M.M.M.#XdXkXrX5.K K Y =XrXjXxXxXcXcXcXdXC.y 9 k K.dXlXgXC.q = = ; - = = ; ; ; = ; ; ; ; > K D > I.V.M.M.M.M.M.M.M.M.",
"M.M.M.M.M.M.M.M.M.8XfXgXrXT K K W 7XyXzXcXcXcXcXcXdXm.w , w C.uXkXdXH.F , > > > n n Y W Y S S S S G E I D > P.C.M.M.M.M.M.M.M.M.",
"M.M.M.M.M.M.M.M.M.8XfXfX9XT L Q y.rXdXzXcXcXcXcXcXsXE.] ` ` s.tXfXpXC.{ ` ` ..] ] / _ D N V V C V M D Q G y P.m.M.M.M.M.M.M.M.M.",
"M.M.M.M.M.M.M.M.M.tXxXxX0XU D I 0.wXfXxXxXcXcXcXxXsXW.( ( ( Z.dXxXzXE.W Y Y Y l Y G K V ~ ~ ~ ~ ~ C B M R 5.d.m.M.M.M.M.M.M.M.M.",
"M.M.M.M.M.M.M.M.M.yXcXcXwXY K _ y.7XdXzXxXxXcXcXxXsX=Xc i i 0.dXcXxX#Xz u u u u r M V ~ ^ ^  .^  .~ C B n T P.m.M.M.M.M.M.M.M.M.",
"M.M.M.N.M.M.M.M.N.tXxXzX7XU / X.p.(.yXhXzXzXxXzXhXyXK.7.&.&.j.tXzXgXK.f.f.&.f.7.G B Z ~  . . . . .Z C B m , { m.M.M.M.M.M.M.M.M.",
"M.M.M.M.M.M.M.M.N.8XgXfX(.y ] U.b.6XeXdXhXhXhXhXgX0XK.l..Xv.v.=XdXdX&X.Xv.|.M.W A B N P L J D S n n M m m & R k.M.M.M.M.M.M.M.M.",
"M.M.M.M.M.M.M.M.N.8XfXdX8XY ] U.C.&X8XtXsXsXdXdXsXeXL.w.x.x.c.eXfXgX7Xx.g.j.7.9 n A F q * * % % @ o $ $ & & 0 4.b.M.M.M.M.M.M.M.",
"M.M.M.M.M.M.M.M.M.rXzXgX0XT | !.A.L.L.6X8XwXeX8XK.H.J.l.l.c.v.eXgXfX7X|.v.v.%.4 & U 8.h X . .   .   . o o $ % f 2.b.M.M.M.M.M.M.",
"M.M.M.M.M.M.M.M.N.tXzXkXtXE | s.V.H.9.4.B.W.H.w.v 0.K.b.l.v.G.eXlXlXeXv.G.v.&.3 3 1.7X7.X           X 3 2 o * 8 v a.M.M.M.M.M.M.",
"M.M.M.M.M.M.M.N.M.wXzXkXtXE ' v 0.b.4.v l.K.H.0.v V.K.9.%.h.K.yXlXlX=Xz.g.g.%.5 3 x 3.7 .           O j f o * g v a.M.M.M.M.M.M.",
"M.M.M.M.M.M.M.M.M.qXkXkXeX( [ 1.B.K.M.h.8XtXeXJ.2.B.W.H.6.q.G.tXhXgX=Xc.v.x.v 8 * 3 + .             X 6 6 o 3 j 1.B.B.M.M.M.M.M.",
"M.M.M.M.M.M.M.M.M.qXkXgX8XY r.4.K.L.w.1.D.7XW.l.v q.H.l.%.q.B.eXgXsX=Xc.x.&.f 7 # 3 X               X O . . # 8 %.B.M.M.M.M.M.M.",
"M.M.M.M.M.M.M.M.M.K.wX8XD.Y r.s.p.y.4.v 7.%.%.&.&.x.v.l.j.j.j.H.eXeXG.c.x.&.f 6 # # X               . .   o k ( 9.M.M.M.M.M.M.M.",
"M.M.M.M.M.M.M.M.M.&XdXsXL.8.' Q.Q.d.l u i p p d &.&.=.&.&.&.7.B.eXrXH.l.&.&.3.c f 2 X               . X @ r { m.b.M.M.M.M.M.M.M.",
"M.M.M.M.M.M.M.M.M.qXzXkXwX0.S S S S 5 + < < < < 2 2 2 2 2 2 u =XgXzX7X7.2 2 2 2 i f # X .   . .   . O % 0 Y { m.M.M.M.M.M.M.M.M.",
"M.M.M.N.M.M.M.M.M.8XfXrXH.m.( J H H l y k k l l Y ( ( l ( ( ( B.9XsX8Xp.( ( ( { 6.0.x 5 4 3 + # 3 r ( } i.i.a.l.M.M.M.M.M.M.M.M.",
"M.M.M.M.M.M.M.M.M.&XpXK.h.F.R.d.d.d.T.Z.d.d.d.d.d.d.d.s.d.A.Z.u.a.W.K.A.Z.Z.Z.Z.Z.N.w.9.0.0.x x 6.0.a.m.V.m.M.M.M.M.M.M.M.M.M.M.",
"M.M.M.M.M.M.M.M.M.M.M.M.M.M.M.M.M.M.M.M.B.N.M.M.M.N.l.M.M.N.N.M.B.B.M.M.B.B.M.V.M.M.N.N.B.m.M.M.M.M.M.M.M.M.M.M.M.M.M.M.M.M.M.M.",
"M.M.M.M.M.M.M.M.M.M.M.M.M.M.M.M.M.M.M.M.N.N.N.M.M.M.M.M.M.M.M.M.B.M.M.M.M.M.N.N.M.M.M.M.M.M.M.M.M.M.M.M.M.M.M.M.M.M.M.M.M.M.M.M.",
"M.M.M.M.N.M.M.M.M.M.M.M.M.M.M.M.M.M.M.M.N.N.M.M.M.M.M.M.M.M.M.M.B.B.M.M.M.M.M.M.M.M.M.M.M.M.M.M.M.M.M.M.n.M.M.M.M.M.M.M.M.M.M.M.",
"M.M.M.M.M.M.M.M.M.M.M.M.M.M.M.M.M.M.M.M.M.M.M.M.M.M.M.M.M.M.M.M.M.M.M.M.M.M.M.M.M.M.M.M.M.M.M.M.M.M.M.M.M.M.M.M.M.M.M.M.M.M.M.M.",
"M.M.M.M.M.M.M.M.M.M.M.M.M.M.M.M.M.M.B.M.M.M.M.M.M.M.M.M.M.M.M.M.M.M.N.M.M.M.M.M.M.M.M.M.M.M.M.M.M.B.M.M.M.M.M.M.M.M.M.M.M.M.M.M.",
"M.M.M.M.M.M.M.M.M.M.M.M.M.M.M.M.M.M.M.M.M.M.M.M.M.M.M.M.M.M.M.M.M.M.M.M.M.M.M.M.N.M.M.M.M.M.M.M.M.M.M.M.M.M.M.M.M.M.M.M.M.M.M.M.",
"M.M.M.M.M.M.M.M.M.M.M.M.M.M.M.M.M.M.M.M.M.M.M.M.M.M.M.M.M.M.M.M.M.M.M.M.M.M.M.M.M.M.M.M.M.M.M.M.M.M.M.M.M.M.M.M.M.M.M.M.M.M.M.M."
};
