/* XPM */
static char *_B1721706107[] = {
/* columns rows colors chars-per-pixel */
"64 64 238 2 ",
"   c #2A1F1B",
".  c #2F231D",
"X  c #02012A",
"o  c #0A0A2C",
"O  c #05033A",
"+  c #181736",
"@  c #2E2C31",
"#  c #4E2E1D",
"$  c #49352B",
"%  c #563522",
"&  c #473B36",
"*  c #50433C",
"=  c #765133",
"-  c #080545",
";  c #060457",
":  c #070459",
">  c #09055B",
",  c #0C095C",
"<  c #181659",
"1  c #353844",
"2  c #31324D",
"3  c #0A0662",
"4  c #0D0964",
"5  c #0A076A",
"6  c #0E096B",
"7  c #120D63",
"8  c #130C6D",
"9  c #1A1768",
"0  c #0E0A74",
"q  c #120C74",
"w  c #180E71",
"e  c #140D7A",
"r  c #1D1277",
"t  c #221A77",
"y  c #1C2D6D",
"u  c #2B2969",
"i  c #292675",
"p  c #423C6E",
"a  c #3D4349",
"s  c #3D4455",
"d  c #47474A",
"f  c #544B48",
"g  c #4B4D54",
"h  c #48505E",
"j  c #5A5757",
"k  c #795846",
"l  c #655855",
"z  c #474864",
"x  c #5A5B65",
"c  c #4F4F77",
"v  c #4C5876",
"b  c #5A626E",
"n  c #54637A",
"m  c #676567",
"M  c #6B6B73",
"N  c #746E70",
"B  c #787679",
"V  c #B9301C",
"C  c #C6261E",
"Z  c #E31B22",
"A  c #EB1C24",
"S  c #D42121",
"D  c #E2252F",
"F  c #B94C17",
"G  c #A65D22",
"H  c #AF6C32",
"J  c #D67B35",
"K  c #E13541",
"L  c #955A54",
"P  c #916B49",
"I  c #B07956",
"U  c #977B63",
"Y  c #837B79",
"T  c #AC796D",
"R  c #C64E53",
"E  c #B7AD10",
"W  c #9A8C21",
"Q  c #A7962E",
"!  c #BBA930",
"~  c #CABB0C",
"^  c #EEAC16",
"/  c #C8B837",
"(  c #D6C805",
")  c #DDD207",
"_  c #D7C915",
"`  c #E7DA04",
"'  c #F0D915",
"]  c #EEE109",
"[  c #F5E805",
"{  c #FBED02",
"}  c #FFF200",
"|  c #F5E617",
" . c #D4C72C",
".. c #EBD72C",
"X. c #F1E52B",
"o. c #908B4C",
"O. c #B09153",
"+. c #B7A344",
"@. c #918871",
"#. c #B78868",
"$. c #AF9472",
"%. c #B9AA71",
"&. c #E28948",
"*. c #C8B255",
"=. c #D09970",
"-. c #C8A96E",
";. c #E9A979",
":. c #DBC64A",
">. c #D9CC58",
",. c #E3D149",
"<. c #D6CC72",
"1. c #210F86",
"2. c #220F88",
"3. c #231286",
"4. c #25128A",
"5. c #29148E",
"6. c #281A88",
"7. c #2C1B8C",
"8. c #2B1692",
"9. c #2E1994",
"0. c #311B95",
"q. c #341C9B",
"w. c #302C88",
"e. c #372996",
"r. c #3A239C",
"t. c #3B369B",
"y. c #3E26A1",
"u. c #483793",
"i. c #4329A3",
"p. c #4B27AE",
"a. c #4C2AAE",
"s. c #4A36A9",
"d. c #5439A8",
"f. c #4E2BB1",
"g. c #522DB3",
"h. c #5E2AB2",
"j. c #4F31B0",
"k. c #5432B5",
"l. c #5C33B6",
"z. c #573AB5",
"x. c #5735B8",
"c. c #5A36B9",
"v. c #5C3BBB",
"b. c #622CB4",
"n. c #6432B4",
"m. c #673BB7",
"M. c #6633B8",
"N. c #6A35B9",
"B. c #6D3ABD",
"V. c #713CBF",
"C. c #245DA3",
"Z. c #376EAF",
"A. c #514F8E",
"S. c #576A86",
"D. c #4F6A92",
"F. c #5A7699",
"G. c #7C7C82",
"H. c #6E7092",
"J. c #647A9A",
"K. c #5348AB",
"L. c #6844B9",
"P. c #7347B9",
"I. c #6854B1",
"U. c #7656B1",
"Y. c #5574AD",
"T. c #6D79AB",
"R. c #7C64B4",
"E. c #6F3FC0",
"W. c #723FC0",
"Q. c #6C48C1",
"!. c #7441C1",
"~. c #7A4CC4",
"^. c #7663C5",
"/. c #906992",
"(. c #8571B0",
"). c #8877B1",
"_. c #8658C6",
"`. c #9C73D1",
"'. c #2F80BC",
"]. c #768290",
"[. c #5485B5",
"{. c #6E8BAC",
"}. c #3990D7",
"|. c #248CE3",
" X c #3799E5",
".X c #458DD8",
"XX c #68A7D4",
"oX c #4598E4",
"OX c #848489",
"+X c #88878A",
"@X c #968B89",
"#X c #8D8C92",
"$X c #8B899B",
"%X c #909196",
"&X c #939296",
"*X c #98979B",
"=X c #AE9387",
"-X c #A79A9A",
";X c #B9A488",
":X c #B2AF94",
">X c #B1A99A",
",X c #8C85AA",
"<X c #948AAE",
"1X c #9B98A9",
"2X c #948FB6",
"3X c #A39EA6",
"4X c #9DA9B2",
"5X c #A4A2A5",
"6X c #A9A7A7",
"7X c #A7A6AB",
"8X c #ACAAAD",
"9X c #B0ADAB",
"0X c #ACB1AD",
"qX c #B3B3B4",
"wX c #B7B6B9",
"eX c #BCBCBE",
"rX c #C1B38C",
"tX c #C9C284",
"yX c #CEC9AF",
"uX c #879AC9",
"iX c #8FADCB",
"pX c #8BB3D9",
"aX c #96B8D9",
"sX c #BFBFC0",
"dX c #8EBDE3",
"fX c #B2C0CD",
"gX c #96C2E7",
"hX c #A9CEEC",
"jX c #AAD5F3",
"kX c #C7C7C8",
"lX c #D0CFCE",
"zX c #D8D7D8",
"xX c #E1E0DE",
"cX c #E5E4E5",
"vX c #ECECEC",
"bX c #EEEFF1",
"nX c #F4F3F3",
"mX c #F9F9F7",
/* pixels */
"7X7X7X7X7X7X7X7X7X7X7X7X7X7X7X7X7X7X7X7X7X7X7X7X7X7X7X7X7X7X7X7X7X7X7X7X7X7X7X7X7X7X7X7X8X7X7X7X7X7X7X7X7X7X7X7X7X7X7X7X7X7X7X7X",
"7X7X7X7X7X7X7X7X7X7X7X7X7X7X7X7X7X7X7X7X7X7X7X7X7X7X7X7X7X7X7X7X7X7X7X7X7X7X7X7X7X7X7X7X7X7X7X7X7X7X7X7X7X8X7X7X7X7X7X7X7X7X7X7X",
"7X7X7X7X7X7X7X7X7X7X7X7X7X7X7X7X7X7X7X7X7X7X8X7X7X7X7X7X8X7X-X-X-X-X6X7X7X7X7X7X7X7X7X7X7X7X7X7X7X7X7X7X7X7X7X7X7X7X7X7X7X7X7X7X",
"7X7X7X7X7X7X7X7X7X7X7X7X7X7X7X8X7X7X7X7X7X7X7X7X7X7X7X7X-XT &.&.J I =X3X7X7X7X7X7X7X7X7X7X7X7X7X7X7X7X7X7X7X7X7X7X7X7X7X7X8X7X7X",
"7X7X7X7X7X7X7X7X7X7X7X7X7X7X7X7X7X7X7X7X7X7X7X7X7X7X6X-XI J J H G H G @X7X7X7X7X7X7X7X7X7X7X7X7X7X7X7X7X7X7X7X7X7X7X7X7X7X7X7X7X",
"7X7X7X7X7X7X7X7X7X7X7X7X7X7X7X7X7X7X7X7X7X7X7X7X7X7X9X@XG = % % % # % k 3X7X7X7X7X7X7X7X7X7X7X7X7X7X7X7X7X7X7X7X7X7X7X7X7X7X7X7X",
"7X7X7X7X7X7X7X7X7X7X7X7X7X7X7X7X7X7X7X7X7X7X7X7X7X7X7XN $ % I I L % . $ #X7X7X7X7X7X7X7X7X7X7X7X8X7X7X7X7X7X7X7X7X7X7X7X7X7X7X7X",
"7X7X7X7X7X7X7X7X7X7X7X7X7X7X7X7X7X8X7X7X7X7X7X7X7X7X7Xx   & =.;.=.G   & N 7X7X7X7X7X7X7X7X7X7X7X7X7X7X7X7X7X7X7X7X7X7X7X7X7X7X7X",
"7X7X7X7X7X7X7X7X7X7X7X7X7X7X7X7X7X7X7X7X7X7X7X7X7X7XOXj & k #.#.L P @ & j 6X6X4X6X7X7X7X7X7X7X7X7X7X7X7X7X7X7X7X8X7X7X7X7X7X7X7X",
"7X7X7X7X7X7X7X7X7X8X7X7X7X7X7X7X7X7X7X7X7X7X7X7X7X5XB m k O.;.;.I #.* f /.5X0X5X6X7X7X7X7X7X7X7X7X7X7X7X7X7X7X7X7X7X7X7X7X7X7X7X",
"7X7X7X7X7X7X7X7X7X7X7X7X7X7X7X7X7X7X7X7X7X7X7X7X5X*X#XN & k ;.=.#.L # & ].6X7X7X7X7X7X7X7X7X7X7X7X7X7X7X7X7X7X7X7X7X7X7X7X7X7X7X",
"7X7X7X7X7X7X8X3X7X7X7X7X7X7X7X7X7X7X7X7X7X7X7X8X7X&X*XM $ @ U -.@.& . f G.7X7X7X7X7X7X7X7X7X7X7X7X7X7X7X7X7X7X4X7X7X7X7X7X7X7X7X",
"7X7X7X7X7X7X7X-X-.*.:X0X7X7X7X7X7X7X7X7X7X7XeXkXsX#X5X*XY * f k & . * j M 3X7X7X7X7X7X7X7X7X7X7X7X7X7X7X7X7X7X%.-.;X7X7X7X7X7X7X",
"7X7X7X7X7X7X3X*.[ } | :X7X7X7X7X7X7X7X7XkXkXcXmXbXlXzXsX0X#XM m j j m m B kXsX8X7X7X7X7X7X7X7X7X7X7X7X7X7X7X<.| { ' $.7X7X7X7X7X",
"7X7X7X7X7X7X-XO.Q [ } <.7X7X7X7X6X8XwXfXzXzXnXmXmXnXlX0XsXlX0X0X7X1X+Xx &XlXbXzXsX7X8X7X7X7X7X7X8X7X7X7X7X8XX.} ) O.O.4X7X8X7X7X",
"7X7X7X8X3X3X=XW +.[ } >.8X7X7X7X7XyXzXcXcXvXnXmXbXcXqXB B *X5XeXsXkX#Xm @.7XzXbXnXzXkX0X8X7X7X7X7X7X7X7X7X0XX.} ) o.H -X7X7X7X7X",
"7X7X7X7X3XT R ^ { } X.rX0X6X6X7XwXxXzXxXcXxXcXxXlX0X6XB m &X#XkXwXqXOXm l &XsXcXcXnXbXvXcXlXzXqX7X7X7X7X7X6X<.} } [ J R T 6X7X7X",
"7X7X7X7X6X3X-X=.{ } >.9X6X7X6XeXxXvXkX6XqX0X0X6X5XN M x m M m eXlXwXM N g N Y 9XkXcXbXcXbXvXbXzXlX7X7X7X6X6X:XX.} X.;X-X3X6X7X7X",
"7X7X7X7X3X8X9X>X| } ,.tX<.<.:XkXvXcX0X+X+X&X5X5X5Xx g 1 &XG.].sXsX3XB 0Xm g B N /.B -X8X7X8X8XlXlX@X:X;X;XtXtXX.} ,.5X7X7X7X7X7X",
"7X7X7X7X8X6X3X9XX.} } { } ..:XzXxXkX5X*X5X5X7X5X6XB a g wX5X&XvXvXkXB *X+Xd 1X*X#XY Y B B N N Y /.k L T @./ | { } :.6X7X7X7X7X7X",
"7X7X7X7X7X7X7X>XX.{ ( } { / @XsXfX7X3X7X7X7X7X7X5XOX@ M *XB *XzXcXzX+XN G.M 7X7X7X7X5X5X*X*X*X@X&X%.P = k  .{ ) { :.3X7X7X7X7X7X",
"7X7X7X7X7X7X3X6X..{ E [ ..*.T Y @X5X5X7X7X7X7X7X6X#X* *XeX%.*.yXlXxX&XG.G.m 3X7X7X7X7X7X7X7X6X7X6X;X! _  ...) ( } >.6X7X7X7X8X7X",
"7X7X7X7X7X7X8X6X-.{ ` Q *.=.$.$.*X6X7X7X7X7X7X7X6X#Xj @.>.[ } | ..<.5Xm @.OX5X7X7X7X7X7X7X7X7X7X5X5X%.E ( ( E [ ' ;X7X7X7X7X7X7X",
"7X7X7X7X7X7X7X7X3X-.:.+.U $.$.=X7X6X7X7X7X7X7X7X0X&X+.| } } } { ] ] >.B ].B 5X7X7X7X7X7X7X7X7X7X6X7X>X%.! /  .:.%.6X7X7X7X7X7X7X",
"7X7X7X7X7X7X7X7X7X7X3X@XY -X-X-X7X7X7X7X7X7X7X7X7X%._ E ) } } ) o.o._ @.m B 5X7X7X7X7X7X7X7X7X7X7X7X7X7X3X-X6X7X7X7X7X7X7X7X7X7X",
"7X7X7X7X7X7X7X7X7X7X7X7X*X3X5X7X7X7X7X7X7X7X8X7X5X*.o.Y W ` ~ E ].Y ( %.f N 5X7X7X7X7X7X7X7X7X7X7X7X7X7X6X7X7X7X7X7X7X7X7X7X7X7X",
"7X7X7X7X7X7X7X7X7X7X7X7X7X7X7X7X7X7X7X7X7X7X7X7X7X:.W o.W F C F W W ] W f &X7X7X7X7X7X7X7X7X7X7X7X7X7X7X7X7X7X7X7X7X7X7X7X7X7X7X",
"7X7X7X7X7X7X7X7X7X7X7X7X7X7X7X7X7X7X7X7X7X7X7X7X7X%.[ ) G S A Z F (  .U l *X7X7X7X7X7X7X7X7X7X8X7X7X8X7X7X7X7X7X7X7X7X7X7X7X7X7X",
"7X7X7X7X7X7X7X7X7X7X7X7X7X7X7X7X7X7X7X7X7X7X7X7X7X5X@.W S A A A D L iX2X].].5X6X7X7X7X7X7X7X7X7X7X7X7X7X7X7X7X7X7X7X7X7X7X7X7X7X",
"7X7X7X7X7X7X7X7X7X7X7X7X7X7X7X7X7X7X7X7X7X7X7X7X4X5X].R A A A A A D 4XiXgXpX4X5X7X7X7X7X7X7X7X7X7X7X7X7X7X7X7X7X7X7X7X7X7X7X7X7X",
"7X8X7X7X7X7X7X7X7X8X7X7X7X7X7X7X7X7X6X7X7X7X7X7X5X*X$XK A Z A A Z A L 5XiXhXaX5X7X7X7X7X7X7X7X7X7X7X7X7X7X7X7X7X7X7X7X7X7X7X7X7X",
"7X7X7X7X7X7X7X7X7X7X7X7X7X7X7X7X7X7X7X7X7X7X7X7X*X:XQ V V V C V V F W  .0XhXjXiX7X7X7X7X7X7X7X7X7X7X7X7X7X7X7X7X7X7X7X7X7X7X7X7X",
"7X7X7X7X7X7X7X7X7X7X7X7X7X7X7X7X7X7X7X7X7X7X6X6X:X/ ] ) ( ~ ( ( ] ] ` ~ | 0XjXhX4X8X8X7X7X7X7X7X7X7X7X7X7X7X7X7X7X7X7X7X7X7X7X7X",
"7X7X7X7X7X7X7X7X7X7X7X7X7X7X7X7X7X7X7X7X7X7X7X%.| ~ ` } } } } } } } ] E { :.jXjXaX7X7X8X7X7X7X8X7X7X7X7X6X7X7X7X7X7X7X7X7X7X7X7X",
"7X7X7X7X7X7X7X7X7X7X7X7X7X7X7X7X7X7X5X5X1X<X).#.( E [ } } } } } } } } E _ %.jXjXhX2X(.(.).1X3X7X7X7X7X7X7X7X7X7X7X7X7X7X7X7X7X7X",
"7X7X7X7X7X7X7X7X7X7X7X7X7X7X7X3X3X,XR.U.m.n.n.T.Q ) } } } } } } } } } { ! $XgXjXjXaXm.N.W.P.P.U.).1X7X7X7X7X7X6X7X7X7X7X7X7X7X7X",
"7X7X7X7X7X7X7X7X7X7X8X7X3X1X).U.m.h.h.b.b.b.m.uX8X' } } { { } } { { { ] O.J.XXgXjXhXR.P._.~.N.b.b.n.P.(.<X5X6X8X7X7X7X7X7X7X7X7X",
"7X7X7X7X7X7X7X7X7X7X7X<X(.N.b.b.b.b.b.b.b.n.I.pXjXqX*.' { { } } { ' _ T j S.{.aXjXjXuX_.`._.W.M.b.b.b.b.m.U.).3X7X7X7X7X7X7X7X7X",
"7X7X7X7X7X7X7X7X5X<XU.N.b.h.b.b.b.N.b.N.B.B.T.gXjXjXaX$X@X=X$.$./././.!.L.z n {.pXaXuX_.`._.!.W.M.M.b.b.b.b.n.U.<X3X7X7X7X7X7X7X",
"7X7X7X7X7X7X7X3X(.n.b.b.b.b.b.b.N.B.B.W.P.d.F.gXjXjXpXT.^.~.!.E.V.V.B.B.m.h s n n S.I._._.~.W.W.W.B.M.N.b.b.b.b.M.U.1X7X7X7X7X7X",
"7X7X7X7X7X7X2XP.b.h.b.b.b.N.M.E.W.W.!.!.!.c z {.dXpXT.K.x.x.f.f.f.a.a.p.d.s s h h h d.M.Q.Q.W.E.W.W.W.B.N.b.N.b.b.h.n.).7X7X7X7X",
"7X7X7X7X7X).m.b.b.b.b.M.W.W.E.W.W.W.N.l.d.z s d b M A.x.j.f.f.f.h.a.g.a.A.v s @ a p p.p.p.f.k.E.B.W.W.W.W.!.N.N.M.b.b.N.(.3X7X7X",
"7X7X7X7X<Xn.h.h.b.M.M.E.W.W.E.E.g.f.p.p.d.s d f d p d.c.x.x.k.k.k.k.g.d.A.F.Y.h 2 u.g.g.f.f.p.p.p.g.l.E.W.W.V.B.M.M.b.b.b.(.3X7X",
"7X7X7X1Xm.h.b.b.M.M.W.W.E.h.f.f.g.f.g.g.A.s a d h A.L.v.x.x.x.x.x.c.c.d.v F.D.F.I.d.k.z.k.j.f.f.p.p.p.p.h.B.V.V.W.M.N.b.b.b.).7X",
"7X7X3X(.h.h.n.n.M.!.Q.l.f.f.f.j.k.j.k.s.2 1 a a p s.y.e.q.q.9.8.9.0.0.A.v Y.[.Y.K.z.L.Q.K.x.k.g.g.f.p.p.p.p.f.B.W.V.N.M.b.b.m.1X",
"7X3X<Xb.b.n.n.N.B.!.p.p.f.f.k.k.k.x.x.s.c @ 1 1 i 6.3.3.1.1.2.2.1.3.6.S.J.J.D.v w.0.y.s.K.v.x.x.k.k.g.g.k.p.p.f.b.W.W.B.N.b.b.).",
"7X7X(.b.n.n.N.W.c.f.f.f.g.x.x.x.j.y.3.w.v @ @ 2 e.e.w.5.3.2.2.5.4.6.w.n S.{.Y.u.1.3.3.5.8.q.y.j.x.x.x.k.g.g.f.f.g.h.B.W.B.N.b.U.",
"7X7X(.b.B.B.B.n.f.g.g.x.x.x.p.q.2.1.1.w.[.s s w.t.Y.t.e.5.5.5.8.9.e.c S.J.n S.w.3.4.3.3.2.2.2.8.y.g.x.x.k.g.g.k.k.k.l.B.W.B.b.m.",
"7X7X(.b.N.B.m.g.f.x.c.c.j.q.4.1.2.4.3.C.}.Y.D.e.Y..XK.e.9.9.9.9.0.e.v h n F.A.7.8.8.5.4.5.2.2.2.2.4.y.g.x.x.x.v.Q.L.j.l.B.B.M.L.",
"7X7X(.b.N.B.g.g.k.c.c.i.8.1.3.4.7.9.w.Y. X XZ.t.s.K.K.r.r.q.q.y.y.t.v {.{.n w.q.9.9.9.8.5.5.2.3.2.2.2.9.j.x.v.L.^.L.k.f.M.E.N.U.",
"7X8X2XB.N.l.g.x.v.v.i.5.1.4.5.0.r.e.t.}. X}.C.r.e.e.6.t r w w w i [.[.F.F.S.w.9.q.q.q.0.9.8.5.5.4.4.2.1.4.a.v.E.v.x.k.f.g.B.N.(.",
"7X3X3X(.N.g.k.c.v.y.4.4.4.4.8.r.t.s.t.}.oX}.6.4 7 7 , : : : : < [. X X X}.S.y , 6 e 3.9.q.q.0.9.8.5.4.4.2.2.s.m.L.x.j.f.p.N.P.<X",
"7X7X7X2XP.h.x.v.a.4.1.4.5.8.q.q.r.e.6.Z.}.C., : ; : : : > 5 3 < b pX X X|.C.5 , > > ; 7 t 7.i.q.0.8.5.5.4.2.5.l.v.v.k.f.p.n.).7X",
"7X7X7X7X,Xv.x.z.0.2.4.5.8.q.q.7.r 7 , y y y : 3 : 3 5 4 4 6 6 8 9 M XX X|.C.5 , > > ; 7 9 i u 7.q.0.9.5.4.2.2.y.Q.v.x.j.f.R.7X7X",
"7X7X7X7X7X).Q.a.3.4.5.5.8.0.r 4 ; ; : > 7 , 3 3 6 6 8 q r 0 0 q e y {.oX XZ.w 4 3 7 , 7 i A.p 9 w 4.0.9.5.2.2.8.v.v.x.x.R.3X7X7X",
"7X7X7X7X7X7X2XK.2.4.5.8.5.w ; > : : > > 4 4 6 6 q e e e q e e e e 3.u XXoX}.i 8 8 8 7 9 i A.A.9 , : r 9.9.5.4.4.x.Q.Q.(.1X7X7X7X",
"7X7X7X7X7X7X7X1XH.0.0.8.w ; ; ; : > 3 3 5 q e e q 5 , - - - O O O - - 1 {.XXA.5 0 q 6 w t u i 9 , ; > r 9.8.3.6.v.^.2X3X7X7X7X7X",
"7X7X7X7X7X7X7X7X5X,XA.t ; ; ; ; : 3 3 5 0 0 3 - O X X X X X X X X X X o o + - ; q e q 8 8 7 7 , ; ; ; > 3.8.8.u.T.4X7X7X7X7X7X7X",
"7X7X7X7X7X7X7X7X7X7X7X$Xc u , : > 5 q w 4 O X X X X X X X X X X X X X X X X o X O 3 e 0 6 5 4 > > ; > > 9 A.(.1X7X7X7X7X7X7X7X7X",
"7X7X7X7X7X7X7X7X7X7X7X7X-X&XH.c u 8 q w O X X X X X X X X X X X X X X X X X X X X X > e 0 5 3 > > < u S.$X1X7X7X8X7X7X7X7X7X7X7X",
"7X7X7X7X7X7X7X7X7X7X6X7X7X7X7X5X1XH.S.u + o X X X X X X X X X X X X X X X X X X X X O 1.q w i c H.$X3X3X7X7X7X7X7X7X7X7X7X7X8X7X",
"7X7X7X7X7X7X7X7X7X7X7X7X7X7X7X7X7X7X3X3X*XG.M x 1 2 + + + o X X o X X o o o + + 2 1 z S.H.$X1X5X3X7X7X7X7X7X7X7X7X7X7X7X7X7X7X7X",
"7X7X7X7X7X7X7X7X7X7X7X7X7X7X7X7X7X7X7X7X7X7X7X5X5X5X*X*X#X+XOXOXOXB ].OX+X#X#X&X1X5X7X7X8X8X7X7X7X7X7X7X7X7X7X7X7X7X7X7X7X7X7X7X",
"7X7X7X7X7X7X7X7X7X7X7X7X7X7X7X7X7X7X7X7X7X7X7X7X7X7X7X7X7X7X7X7X7X8X7X7X7X7X7X7X7X7X7X7X7X7X7X7X7X7X7X7X7X7X7X7X7X7X7X7X7X7X7X7X"
};
