/* XPM */
static char *_A1721706107[] = {
/* columns rows colors chars-per-pixel */
"64 64 248 2 ",
"   c #02012A",
".  c #0B0A2E",
"X  c #050339",
"o  c #171635",
"O  c #292026",
"+  c #302C2C",
"@  c #373639",
"#  c #50301E",
"$  c #4D372D",
"%  c #544238",
"&  c #6D4937",
"*  c #080545",
"=  c #060457",
"-  c #070459",
";  c #09065C",
":  c #0C095C",
">  c #15125A",
",  c #373A48",
"<  c #2F2E51",
"1  c #0A0763",
"2  c #0D0965",
"3  c #0B076A",
"4  c #0D096C",
"5  c #110B64",
"6  c #120C6C",
"7  c #0E1165",
"8  c #191567",
"9  c #0E0A74",
"0  c #110B74",
"q  c #1B0F77",
"w  c #140C79",
"e  c #1B1275",
"r  c #251F6E",
"t  c #231977",
"y  c #2A2674",
"u  c #302C70",
"i  c #463872",
"p  c #3C434C",
"a  c #3E465B",
"s  c #3F4467",
"d  c #484648",
"f  c #564C4A",
"g  c #434758",
"h  c #4E5158",
"j  c #575658",
"k  c #6E5751",
"l  c #474666",
"z  c #4A576A",
"x  c #575865",
"c  c #4B4C78",
"v  c #525977",
"b  c #55627B",
"n  c #666468",
"m  c #6C6A6C",
"M  c #766A6A",
"N  c #6B6C72",
"B  c #797779",
"V  c #D31D21",
"C  c #E71C23",
"Z  c #D12B27",
"A  c #B85417",
"S  c #90522D",
"D  c #BB5D2D",
"F  c #B1702F",
"G  c #C87038",
"H  c #886550",
"J  c #AF7652",
"K  c #8C7872",
"L  c #B36D6D",
"P  c #A9901E",
"I  c #B6AB11",
"U  c #AFA72D",
"Y  c #C79311",
"T  c #CAB20C",
"R  c #E68239",
"E  c #CCAC35",
"W  c #D6C705",
"Q  c #D1C60B",
"!  c #E7D903",
"~  c #E9D117",
"^  c #ECD61B",
"/  c #EEE103",
"(  c #F7E905",
")  c #FFF200",
"_  c #FDF00A",
"`  c #EEE11A",
"'  c #F7EA15",
"]  c #D4C72A",
"[  c #E9D426",
"{  c #E6D735",
"}  c #F0E435",
"|  c #B0924D",
" . c #A19851",
".. c #8A896E",
"X. c #B88864",
"o. c #AF9073",
"O. c #B5AB71",
"+. c #C29651",
"@. c #E89556",
"#. c #CCB450",
"$. c #CC9369",
"%. c #CDB06F",
"&. c #E1D652",
"*. c #E2D556",
"=. c #D2CB73",
"-. c #210F86",
";. c #220F88",
":. c #231384",
">. c #25118A",
",. c #29158E",
"<. c #27188A",
"1. c #2C1B8C",
"2. c #2B1692",
"3. c #2E1994",
"4. c #311B95",
"5. c #341C9B",
"6. c #381E9F",
"7. c #1D3080",
"8. c #312D8F",
"9. c #342697",
"0. c #3A229C",
"q. c #3B26A0",
"w. c #4C3893",
"e. c #4728A8",
"r. c #4C2AAE",
"t. c #4E32A9",
"y. c #5435AC",
"u. c #4E2AB0",
"i. c #512DB2",
"p. c #5E29B2",
"a. c #5532B5",
"s. c #5B32B6",
"d. c #5A3AB5",
"f. c #5735B8",
"g. c #5836B9",
"h. c #5C3BBB",
"j. c #6131AF",
"k. c #622CB4",
"l. c #6532B5",
"z. c #6839B3",
"x. c #6534B9",
"c. c #6A35BA",
"v. c #633CBC",
"b. c #6D3BBD",
"n. c #703DBF",
"m. c #354E98",
"M. c #2767AB",
"N. c #4E4F8D",
"B. c #534998",
"V. c #645397",
"C. c #4C668C",
"Z. c #576986",
"A. c #59759B",
"S. c #6F718F",
"D. c #7C7D82",
"F. c #747688",
"G. c #647997",
"H. c #4E46AB",
"J. c #6A54AF",
"K. c #6745B8",
"L. c #7349B7",
"P. c #7759B1",
"I. c #586EA9",
"U. c #6D6FAB",
"Y. c #7964B5",
"T. c #6F3FC0",
"R. c #723FC0",
"E. c #7542C2",
"W. c #764FC3",
"Q. c #7849C4",
"!. c #815BB9",
"~. c #8775AF",
"^. c #8570B2",
"/. c #8A7BB1",
"(. c #9165CB",
"). c #728497",
"_. c #5684B5",
"`. c #6886A6",
"'. c #748BB0",
"]. c #7998BA",
"[. c #368ED4",
"{. c #2791E4",
"}. c #3798E5",
"|. c #498FCF",
" X c #7B9DC4",
".X c #66A9DE",
"XX c #4899E3",
"oX c #848285",
"OX c #868489",
"+X c #8B8A8D",
"@X c #938888",
"#X c #8B8B95",
"$X c #908F98",
"%X c #949390",
"&X c #939294",
"*X c #99979B",
"=X c #AB9988",
"-X c #B09388",
";X c #A69A97",
":X c #B6AB89",
">X c #ACA69D",
",X c #B8B497",
"<X c #8981A9",
"1X c #9389AC",
"2X c #9D9DA3",
"3X c #9B96AB",
"4X c #8D8FB2",
"5X c #A29EA2",
"6X c #A29EAD",
"7X c #90A1B7",
"8X c #A4A2A5",
"9X c #ABA8A7",
"0X c #A7A6AB",
"qX c #A9A7A9",
"wX c #AEAEB1",
"eX c #B3B3B5",
"rX c #B8B8BA",
"tX c #C4B28B",
"yX c #D6AE90",
"uX c #CBC68B",
"iX c #CFCCB4",
"pX c #E8E4BE",
"aX c #8598C5",
"sX c #88A9CB",
"dX c #8CAECF",
"fX c #8DB4D8",
"gX c #95B9D9",
"hX c #A7B7CA",
"jX c #95BDE2",
"kX c #C2BEC0",
"lX c #BEC1C6",
"zX c #9BC5E7",
"xX c #A4CBEA",
"cX c #A4CFF0",
"vX c #ABD5F3",
"bX c #A8D5F5",
"nX c #AED9F5",
"mX c #C5C4C6",
"MX c #CBCBCC",
"NX c #D2D2CF",
"BX c #D4D4D4",
"VX c #DBDBDB",
"CX c #E5E4DE",
"ZX c #DFDFE2",
"AX c #E0DFE1",
"SX c #E8E8E7",
"DX c #F0EFED",
"FX c #F5F4F4",
/* pixels */
"0X0X0X0X0X0X0X0X0X0X0X0X0X0X0XqX0X0X0X0X0X0X0X0X0X0X0X0X0X0X0X0X0X0XqXqXqXqXqX0X0X0X0X0X0X0X0X0X0X0X0X0X0X0X0X0X0X0X0X0X0X0X0X0X",
"0X0X0X0X0X0X0X0X0X0X0X0X0X0X0X0X0X0X0X0XwX0X0X0X0X0X0X0X0X;X-Xo.-X;XqXqX6XqX0X0X0X0X0X0X0X0X0X0X0X0X0X0X0X0X0X0X0X0X0X0X0X0X0X0X",
"0X0X0X0X0X0X0X0X0X0X0XwX0X0X0X0X0X0X0X0X0X0X0X0X0X0X0X0X-XJ R @.R G K 9X0X0X0X0X0X0X0X0X0X0X0X0X0X0X0X0X0X0X0X0X0X0X0X0X0X0X0X0X",
"0X0X0X0X0X0X0X0X0X0X0X0X0X0X0X0X0X0X0X0X0X0X0X0X0X0X0X2XJ G G S S S S K 0X0X0X0X0X0X0X0X0X0X0X0X0X0X0X0X0X0X0X0X0X0X0X0X0X0X0X0X",
"0X0X0X0X0X0X0X0X0X0X0X0X0X0X0X0X0X0X0X0X0X0X0X0X0X0X0X@XS % # # # # # & 6X9X9XqX0X0X0X0X0X0XqXqX0X0X0X0X0X0X0X0X0X0XwX0X0X0X0X0X",
"0X0X0X0X0X0X0X0X0X0X0X0X0X0X0X0X0X0X0X0X0X0X0X0X0X0X>Xn # # +.$.+.# O + ~.>XqXqX0X0X0X0X0X0XqXqX0X0X0X0X0X0X0X0X0X0X0X0X0X0X0X0X",
"0X0X0X0X0X0X0X0X0X0X0X0X0X8X>X%.{ %.9X0X0X0X0X0X0X0X2Xj + & X.%.$.S O $ m 8XqX0X0X0X0X0X9XtX%.=X0X0X0X0X0X0X0X0X0X0X0X0X0X0X0X0X",
"0X0X0X0X0X0X0X0X0X0X0X0X0X5X#.( ) _ &.9X0X0X0X0X0X0X).f & H X.$.J H % % j 8X0X0X0X0X0X>X&._ ) ~ :X0X0X0X0X0X0X0X0X0X0X0X0X0X0X0X",
"0X0X0X0X0X0X0X0X0X0X0X0X0X>X~ ) ) ) ' ,XwXwX0X0X0X*XD.M M L yX$.J X.$ f OX0X0X0X0X0X0X=._ ) ) ) ] 8X0X0X0X0X0X0X0X0X0X0X0X0X0X0X",
"0X0X0X0X0X0X0X0X0X0X0X0X0X>X[ ) ) ) ' ,X0X0X0X0X0X*X&Xm $ S %.%.X.k + d oX0X0X0X0X0X0X=.) ) ) ) [ 9X0X0X0X0X0X0X0X0X0X0X0X0X0X0X",
"0X0X0X0X0X0X0X0X0X0X0X0XqXqXO.! ) ) =.9X0X0X0XwX0X&X&XB % + M %.K @ # $ B 0X0X0X0X0X6X,X' ) ) / %.9X0X0X0X0X0X0X0X0X0X0X0X0XqX0X",
"0X0X0X0X0X0X0X0X0X0X0X0XqXqXL A / _ uXwXwXwXlXVXNX&XeX8X&Xf % % + O d h m 0X0X8X0X0X0X0X=.) ! F -X9X0X0X0X0X0X0X0X0X0X0X0X0X0X0X",
"0X0X0X0X0X0X0X0X0X0X0X0X0X0X-XJ ! ) } =.iXBXDXFXFXCXVXmXrX>XoXB M m N N +XNXMX,X>X>X,X=.} _ Q D -X0X0X0X0X0X0X0XwX0X0X0X0X0X0X0X",
"0X0X0X0X0X0X0X0X0X0X0X0X0X0X0X| ! } uXMXVXSXFXFXFXDXMX*XwXMXrXrXeXwX%Xn %XmXDXSXCX*.{ Q / _ Q =X6XqX0X0X0X0X0X0X0X0X0X0X0X0X0X0X",
"0X0X0X0X0X0X0X0X0X0X0X0X0X0X0X#.] iXVXSXSXDXDXFXDXVXeX).m %X&XrXeXmX+Xm B 9XVXDXFXSXpXuX*.} ] #.qXqX0X0X0X0X0X0X0X0X0X0X0X0X0X0X",
"0X0X0X0X0X0X0X0X0X0X0X0X0X0X8X%.iXZXBXNXZXBXBXBXiX8X*XM n +X).BXMXkXoXj j oXeXVXCXFXFXFXFXSXSXiXqX6X0X0X0X0X0X0X0X0X0X0X0X0X0X0X",
"0XqX0X0X0X0X0X0X0X0X0X0X0X0XqXrXCXSXmX;X0X2X8X*X*Xn n h N N x qXrX>XM ).d n M 5XrXBXZXZXSXSXSXZXAXqX6X9X0X0X0X0X0X0X0X0X0X0X0X0X",
"0X0X0X0XwX0X0X0X0X0X0X0X0X0X9XMXSXCX9XoX+X*X8XqX>Xn d @ 2X+X&XBXBXeXm rXm % ~.B M M oX*X&X&X*XeXkXK -XyX-X8X0X0X0X0X0X0X0X0X0X0X",
"0X0X0X0X0X0X0X0X0X0X0X0X0X2XqXBXAXrX8X2X8X0X0X0X0X).@ x wX2X*XSXDXmX)...+Xj 8X2X*X&XOXK B B m ..K k k H L ..0X0X0X0X0X0X0X0X0X0X",
"0X0X0X0X0X0X0X0X0X0X0X8X0X@XoXeXeX0X8X0X0X0X0X0X0X+X+ B 2XD.%XBXCXVX%XB B m 0X0X0X0X8XqX8X8X2X*X*X=X~.H k @X0X0X0X0X0X0X0X0X0X0X",
"0X0X0X0X0X0X0X0X0X0X0X6X;Xo.| K +X8X0X0X0X0X0X0X0X+Xd *XrXB 2XmXBXZX&X).D.N 8X0X0X0X0X0X0X0X0X>X>X;X9XqX5X>X0X0X0X0X0X0X0X0X0X0X",
"0X0X0X0X0X0X0X0X0X0X0X;X+.~ ^ #.:X0X0X0X0X0X0X0X0X+Xj OX#XD.wXNXMXBXwXm B +X8X0X0X0X0X0X0X9X,X=.{ ] o.9X0X0X0X0X0X0X0X0X0X0X0X0X",
"0X0X0X0X0X0X0X0X0X0X5XE / ) ( / } :X0X0X0X0X0X0X0X#X).j ).+XeXlXMXlXeXD.D.B 8X0X0X0X0X0X0XtX{ / ) ) / | 2X0X0X0X0X0X0X0XwX0X0X0X",
"0X0X0X0X0X0X0X0X8X5X-X+.U ( Q ..U &.9X0X0X0X0X0X0X+X..f +X9XeXrXrXeXlX2Xj B 8X0X0X0X0X0X9X&.U  .Q / | E =X0X0X0X0X0X0X0X0X0X0X0X",
"0X0X0X0X0X0X0X0X0X0XO.|  .T U ..U } 9X0X0X0X0X0X0X%Xd d oX>X9X;X%XoXB K d B 0X0X0X0X0X0X9X} P oXI T ..| o.0X0X0X0X0X0X0X0X0X0X0X",
"0X0X0X0X0X0X0X0X0X0XO.] F Z A T ` =.0X0X0X0X0X0X0X8Xm + $ % % k k k & & f 3X0X0X0X0X0X0X0X=./ I A Z P ] =X0X0X0X0X0X0X0X0X0X0X0X",
"0X0X0X0X0X0X0X0X0X0X8Xo.V C C P =.8X0X0X0X0X0X0X0X9XD.@ f m k j k M K B x $X0X0X0X0X0X0X0X0XuXP C C V o.9X9X0X0X0X0X0X0X0X0X0X0X",
"0X0X0X0X0X0X0X0X0X0X6XL C C C F ,X0X0X0X0X0X8X0X0X2Xn ).'.).dXgX7XgXfXsX'.#X8X0X8X0X0X2X0X0X,XF C C C L 0X0X0X0X0X0X0X0X0X0X0X0X",
"wX0X0X0X0X0X0X0X0X0X0XL Z C V Y { *.=.,X>XO.%X8X0X2X'.fX7X`.).fXfXjXsXsXzXgX0XqX=XO.>X,X=.*.&.Y V C Z L 0X0X0X0X0X0X0X0X0X0X0X0X",
"0X0X0X0X0X0X0X0X0X0XqX5X| Y T W ! _ / I ] ` :X0X2X7XdXzXvXxX].].].].].sXdXxXgX0Xo.` ] U ( ) ! ! T Y | 8X0X0X0X0X0X0X0X0X0X0X0X0X",
"0X0X0X0X0X0X0X0X0X0X0X>X{ ) ) W W ) ) Q P { 9X0X$XdXcXxXgXdXsX].b Z.).'.sXxXvXhX>X{ P Q ( ) W ! ) ) { 8X0X0X0X0X0X0X0X0XwX0X0X0X",
"0X0X0X0X0X0X0X0X0X0X0X;X^ ) ) / I / ( Q I #.0X8X7XcXbXcX7X].D.z p p z `.7XfXnXnXdX#.I W ( / I / ) ) [ ;X0X0X0X0X0X0X0X0X0X0X0X0X",
"0X0X0X0X0X0X0X0X0X0X0X5X#.( ) ) ! I I I ] =X0X6XgXnXnXvXjXsXG.h + O z ).sXjXbXnXxX=X~ I I I ! ( ) ( #.5X0X0X0X0X0X0X0X0X0X0X0X0X",
"0X0X0X0X0X0X0X0X0X0X0X0X-X#.^ ( ( _ ~ #.:X0X0X7XzXnXnXxXdX].G.S.S.p p C.`.fXcXnXnXeX;X#.` ) ( ( [ #.;X0X0X0X0XqX0X0X0X0X0X0X0X0X",
"0X0X0X0X0X0X0X0X0X0X0X0X0X5X;X:XO.:X;X3X1X^.!.4XcXnXnXxXdXaXU.j.x.j.i v ]. XfXbXnXgX/.1X*X:XO.:X;X5X0X0X0X0X0X0X0X0X0X0XwX0X0X0X",
"0X0X0X0X0X0X0X0X0X0X0X0X0X0X6X3X/.^.L.L.z.l.K.sXvXnXnXjX XU.z.l.l.k.j.i C.A.].zXvXvXY.k.z.J.!.1X6X0X0X9X0X0X0X0X0X0X0X0X0X0X0X0X",
"0X0X0X0X0X0X0X0X0X0X0X6X3X^.L.z.k.k.c.L.(.n.Y.jXbXnXbXsXU.z.v.c.c.x.T.v.c Z.G.fXcXnXaXl.k.k.p.k.z.P.~.6X6X0XqX0X0X0X0X0X0X0X0X0X",
"0XqX0X0X0X0X0X0X0X6X1XP.z.k.k.k.k.l.n.(.(.!.'.jXnXbXjX XK.T.n.b.T.T.T.W.K.a z `. XsX].l.k.k.k.k.k.k.k.z.!.1X0X9X0X0X0X0X0X0X0X0X",
"0X0X0X0X0X0X0X8X/.P.l.k.k.k.k.x.T.R.n.!.(.V.b zXbXcX XP.E.E.E.E.R.Q.W.W.^.l g z z b V.c.c.x.x.x.k.k.k.k.p.j.P.1X0X0X0X0X0X0X0X0X",
"0X0X0X0X0X0X3XP.l.k.k.l.k.c.c.c.R.R.R.!.!.c h G..X XU.E.T.T.T.c.x.T.E.W.Y.g p g h i c.R.R.R.T.c.x.c.k.k.k.p.p.j.!.6X0X0X0X0X0X0X",
"0X0X0X0X6X/.K.k.k.k.x.c.c.c.R.R.R.R.R.R.b.g d d h x B.r.r.r.u.u.u.u.u.a.N.v z , @ w.z.K.E.E.E.T.R.T.c.c.k.k.k.k.k.K.1X9X9X0X0X0X",
"0X0X0X0X^.z.k.j.x.c.c.R.R.R.R.R.T.T.p.u.y.a d f f l t.r.r.r.u.i.u.u.u.t.N.A.A.z s t.r.r.i.f.T.T.R.R.R.T.R.c.k.k.p.p.j./.0X0X0X0X",
"0X0X0X^.l.k.k.c.c.c.T.R.R.R.k.i.e.u.u.e.c p p p g t.i.i.i.i.i.a.a.a.f.H.b A.A.I.J.d.i.u.u.u.r.u.i.c.R.R.R.c.c.x.k.k.p.l./.qX0X0X",
"0X0X/.z.k.k.c.c.c.R.T.c.k.u.u.u.u.u.u.u.u @ p p i a.a.a.f.f.g.g.s.f.a.B.Z._._.A.J.h.a.a.i.u.u.u.i.u.i.s.R.R.T.c.l.k.k.p.z.1X0X0X",
"qX3XL.k.l.c.c.n.n.c.s.r.r.r.r.i.i.i.i.d.v + @ < w.r.e.q.0.5.4.4.3.3.9.Z.Z.`.C.N.t.a.f.f.a.a.a.a.i.i.u.u.u.f.T.R.c.c.l.k.k.P.6X0X",
"qX/.l.k.c.c.n.n.x.i.r.r.u.i.i.a.i.s.h.y.b @ O r <.>.-.-.:.-.:.>.-.:.N.b Z.G.`.w.<.<.2.5.q.t.a.f.f.f.i.u.u.u.i.x.n.c.l.l.k.k.1X0X",
"qXP.k.l.b.n.n.l.r.r.i.i.i.i.a.f.g.a.e.m._.h a 7.-.;.;.;.;.>.<.>.>.1.z b G.Z.C.8.8.4.<.;.;.;.2.0.u.f.g.f.a.i.u.u.k.b.c.c.l.k.^.6X",
"0XL.k.c.b.b.x.a.a.s.i.i.f.f.f.a.0.2.t M.[.|.M.:.>.>.,.>.2.3.3.5.4.1.v Z.Z.Z.N.I.m.9.1.>.;.;.;.;.>.3.u.g.g.f.i.i.u.s.n.n.c.k.P.0X",
"0XL.z.b.T.f.i.K.K.h.f.f.g.a.q.2.-.-.7.[.[.}.M.1.2.2.2.3.3.5.0.q.0.m.s ).`.Z.C._.I.q.3.,.,.>.>.>.>.-.>.3.t.h.f.i.i.i.x.b.b.l.P.8X",
"0XP.c.n.x.u.a.K.W.K.h.g.r.9.;.;.-.>.8.|.}.[.8.3.3.5.5.6.6.6.6.q.H.|.|._.A.G.H.H.H.q.9.3.2.,.4.1.1.>.>.-.>.e.h.h.f.i.i.v.b.l.^.0X",
"0X1Xc.b.i.u.a.h.E.h.h.t.,.;.;.;.>.2.8.[.XX[.9.5.5.3.2.>.t q 0 y ].XX}.{.}.m.8.8.9.q.q.6.5.5.0.0.0.4.>.>.-.-.6.h.h.f.i.p.T.c.1X0X",
"0X6XL.l.r.r.i.f.K.h.a.<.;.<.;.<.2.4.9.M.[.H.:.q 3 1 ; - - = = > g dXXX{.{.M.- : 7 7 6 :.1.6.0.t.e.0.4.>.>.>.-.6.h.h.a.i.c.P.6X0X",
"0X0X4Xx.u.u.a.h.h.h.2.;.;.,.<.2.4.5.0.1.y 8 = = = - ; ; ; ; 1 ; > l fXXX{.M.: = - - ; = ; 6 t 9.0.9.4.2.,.,.;.;.e.h.f.a.b.1X0X0X",
"0X0X6X^.u.i.h.h.E.q.>.;.;.2.2.3.0.1.y r 8 > ; - ; ; 2 2 1 2 3 3 2 8 C.}.{.[.7 7 ; ; - - = - : 5 e 1.5.5.2.,.>.;.<.f.g.d./.0X0X0X",
"0X0X0X6XY.a.f.v.K.2.;.>.,.3.3.,.8 8 u Z.u 8 : 1 1 4 6 4 4 0 9 9 9 e r 7X.X}.7.4 1 2 1 1 ; - ; = = : q 3.3.2.,.>.>.t.T.Y.6X0X0X0X",
"0X0X0X0X0X/.K.v.h.>.;.,.3.2.-.1 > 8 w.V.8.8 6 2 3 4 0 9 0 9 w 9 0 w 7 > b `.m.e w 0 3 2 1 ; - = = = = 6 ,.2.,.>.>.w.4X0X0X0X0X0X",
"0X0X0X0X0X0X4XY.h.<.>.2.5.-.; = ; 7 r y r 8 6 4 9 w w 0 1 : * * * X X X * X 8 2 6 w w 0 3 1 1 ; = = = = 5 ,.,.8.V.4X0X0X0X0X0X0X",
"0X0X0X0X0X0XwX0X<XH.3.2.;.; = = - ; 7 8 6 0 0 w 0 : *                             X : 0 0 4 3 1 - = = = : r B.'.8X0X0X0X0X0X0X0X",
"0X0X0X0X0X0X0X0X0X6X).B.t - = = - ; 1 2 4 9 w : X                                       2 0 9 1 1 - = < c ~.8X0X0X0X0X0X0X0X0X0X",
"0X0X0X0X0X0X0X0X0X0X0X0X$XN u > ; ; 1 3 9 0 2 X                                           4 0 6 y u S.$X>X>X0X0X0X0X0X0X0X0X0X0X",
"0X0X0X0X0X0X0X0X0X0X0X0X0X0X2X$XF.c r 8 w w *                                         . o < N.S.$X8X0X0X0X0X0X0X0X0X0X0X0X0X0X0X",
"0X0X0X0X0X0X0X0X0X0X0X0X0X0X0X0X0X0X2X1X~.Z.c , < o o . .   .       . . . o o , , z N ~.*X8X0X0X0X0X0X0X0X0X0X0X0X0X0X0X0X0X0X0X",
"0X0X0X0X0X0X0X0X0X0X0X0X0X0X0X0X0X0X0X0X8XqX0X8X*X*X#X+XoXoX~.).oXoXoX+X#X$X*X*X8X0X0X0X0X0X0X0X0X0X0X0X0X0X0X0X0X0X0X0X0XwX0X0X",
"0X0X0X0X0X0X0X0X0X0X0X0X0X0X0X0X0X0X0X0XqXqX0X0X0X0X0X0X9X>X>X0X0X0X0X0X0X0X0X0X0X0X0X0X0X0X0X0X0X0X0X0X0X0X0X0X0X0X0X0X0X0X0X0X"
};
