/* XPM */
static char *_B1721706107[] = {
/* columns rows colors chars-per-pixel */
"64 64 245 2 ",
"   c #2D211B",
".  c #02012A",
"X  c #0B0A2E",
"o  c #050339",
"O  c #171635",
"+  c #2F2B2E",
"@  c #37373A",
"#  c #50301E",
"$  c #4C372B",
"%  c #544238",
"&  c #6B4A36",
"*  c #070445",
"=  c #060457",
"-  c #0B0755",
";  c #070459",
":  c #09055B",
">  c #0C095C",
",  c #110F58",
"<  c #15155B",
"1  c #333448",
"2  c #0A0662",
"3  c #0D0964",
"4  c #0A076A",
"5  c #0E096B",
"6  c #120D63",
"7  c #120C6D",
"8  c #191568",
"9  c #0F0A74",
"0  c #120C74",
"q  c #180E71",
"w  c #140D7A",
"e  c #1C1277",
"r  c #23197A",
"t  c #272466",
"y  c #33306C",
"u  c #2A2473",
"i  c #413E5C",
"p  c #433A75",
"a  c #3C434C",
"s  c #3E465B",
"d  c #3E4366",
"f  c #474648",
"g  c #564C49",
"h  c #434857",
"j  c #4E5157",
"k  c #575557",
"l  c #6C584D",
"z  c #7F6540",
"x  c #484666",
"c  c #49586C",
"v  c #575965",
"b  c #4B4C76",
"n  c #565B79",
"m  c #55627B",
"M  c #656468",
"N  c #6C6A6C",
"B  c #766D6C",
"V  c #6E6D73",
"C  c #787779",
"Z  c #B9301C",
"A  c #C6261E",
"S  c #E31B22",
"D  c #EB1C24",
"F  c #D42121",
"G  c #E1232C",
"H  c #B94C17",
"J  c #A0661F",
"K  c #90522D",
"L  c #B5703A",
"P  c #D4762F",
"I  c #E23944",
"U  c #A05A59",
"Y  c #896B52",
"T  c #B07753",
"R  c #8D7A72",
"E  c #AE7670",
"W  c #C75E58",
"Q  c #9E8A1C",
"!  c #B8AE12",
"~  c #948D2D",
"^  c #A99332",
"/  c #BCAA33",
"(  c #CABB0C",
")  c #DBA82F",
"_  c #D6C805",
"`  c #DDD107",
"'  c #D8CA13",
"]  c #E7DA05",
"[  c #EFD916",
"{  c #EEE107",
"}  c #F5E705",
"|  c #FBED02",
" . c #FFF200",
".. c #F5E717",
"X. c #D8C929",
"o. c #E9D42F",
"O. c #F1E52B",
"+. c #8F884E",
"@. c #AE954F",
"#. c #B7A453",
"$. c #918872",
"%. c #B88966",
"&. c #B2916F",
"*. c #BAAC76",
"=. c #DF9259",
"-. c #CAB650",
";. c #CC956B",
":. c #CBAC6F",
">. c #DCC849",
",. c #D7CA54",
"<. c #E4D448",
"1. c #D4CB6F",
"2. c #210F86",
"3. c #220F88",
"4. c #241486",
"5. c #25128A",
"6. c #29148E",
"7. c #2B1A8C",
"8. c #2B1692",
"9. c #2E1994",
"0. c #311B95",
"q. c #341C9A",
"w. c #2C2487",
"e. c #362F93",
"r. c #3A239C",
"t. c #362898",
"y. c #3D27A1",
"u. c #483791",
"i. c #4329A3",
"p. c #4B27AE",
"a. c #4C2AAE",
"s. c #4B36A9",
"d. c #5137AA",
"f. c #4E2BB1",
"g. c #522DB3",
"h. c #5E2AB2",
"j. c #5432B5",
"k. c #5C33B6",
"l. c #573AB5",
"z. c #5735B8",
"x. c #5A36B9",
"c. c #5C3BBB",
"v. c #6339AA",
"b. c #622CB4",
"n. c #6532B4",
"m. c #663BB7",
"M. c #6633B8",
"N. c #6A35B9",
"B. c #6D3ABD",
"V. c #713CBF",
"C. c #345295",
"Z. c #2662AA",
"A. c #494685",
"S. c #555191",
"D. c #75449D",
"F. c #586886",
"G. c #516E94",
"H. c #7B7C82",
"J. c #6E6E92",
"K. c #647A96",
"L. c #4546A6",
"P. c #5747AB",
"I. c #654CAE",
"U. c #6844B9",
"Y. c #7347B8",
"T. c #7656B2",
"R. c #576CA9",
"E. c #6C77A9",
"W. c #7B63B3",
"Q. c #6F3FC0",
"!. c #723FC0",
"~. c #6C48C1",
"^. c #7441C1",
"/. c #7A4CC5",
"(. c #5D6EC6",
"). c #946197",
"_. c #8571AE",
"`. c #8777B2",
"'. c #8658C7",
"]. c #9C73D1",
"[. c #7F8082",
"{. c #5684B5",
"}. c #6D8BB0",
"|. c #358DD4",
" X c #2791E4",
".X c #3798E5",
"XX c #4A8FCF",
"oX c #7CACD4",
"OX c #4899E3",
"+X c #51A7E8",
"@X c #838285",
"#X c #878488",
"$X c #8A8A8D",
"%X c #928A8D",
"&X c #8B8B96",
"*X c #939294",
"=X c #979595",
"-X c #95959A",
";X c #9C9A9C",
":X c #AF9488",
">X c #A69A9A",
",X c #B5A386",
"<X c #ACAC97",
"1X c #B1A99A",
"2X c #948AAE",
"3X c #9D9DA2",
"4X c #9A95AB",
"5X c #8C8DB0",
"6X c #A39EA6",
"7X c #96A5B3",
"8X c #A4A2A5",
"9X c #AAA7A6",
"0X c #A7A6AB",
"qX c #AAAAAD",
"wX c #AFB0AF",
"eX c #B3B3B4",
"rX c #B9B9BB",
"tX c #DCA685",
"yX c #C3B38C",
"uX c #C9CBA2",
"iX c #889DC9",
"pX c #89A9C9",
"aX c #8EB4D6",
"sX c #99BCDC",
"dX c #A9B7C8",
"fX c #93BFE5",
"gX c #C1BFC1",
"hX c #96C3E9",
"jX c #A4CAE9",
"kX c #A0CCF0",
"lX c #ABD5F3",
"zX c #AAD6F4",
"xX c #C5C4C5",
"cX c #CACACC",
"vX c #D1D0D1",
"bX c #D4D3D4",
"nX c #DBDADB",
"mX c #E1E0DF",
"MX c #DFDFE2",
"NX c #E0DFE1",
"BX c #E3E3E4",
"VX c #E7E7E8",
"CX c #EDECEB",
"ZX c #F0EFEF",
"AX c #F5F5F4",
/* pixels */
"0X0X0X0X0X0X0X0X0X0X0X0XqX0X0X0X0X0X0X0X0X0X0X0X0X0X0X0X0X0X0XqXqX0X0X0X0X0X0X0X0X0X0X0X0X0X0X0X0X0X0X0X0X0X0X0X0X0X0XqX0X0X0X0X",
"0X0X0X0X0X0X0X0X0X0X0X0X0X0X0X0X0X0X0X0XqX0X0X0X0X0X0X0X6X>X:X&.E >X0X6X0X0X0X0X0X0XqX0X0X0X0X0X0X0X0X0X0X0X0X0X0X0X0X0X0X0X0X0X",
"0X0X0X0X0X0X0X0X0X0X0X0X0X0X0X0X0X0X0X0X0X0X0X0X0X0X0X0X&.T =.=.=.P E 6X0X0X0X0X0X0X0X0X0X0X0X0XqX0X0X0X0X0X0X0X0X0X0X0X0X0X0X0X",
"0X0X0X0X0X0X0X0X0X0X0X0X0X0X0X0X0X0X0X0X0X0X0X0X0X0X0X;XT L P K K K K R 0X0X0X0X0X0X0X0X0X0X0X0X0X0X0X0X0X0X0X0X0X0X0X0X0X0X0X0X",
"0X0X0X0X0X0X0X0X0X0X0X0X0X0X0X0X0X0X0X0X0X0X0X0X0X0X9X$.K % # # # #   l 6X0X0X0X0X0X0X0X0X0X0X0X0X0X0X0X0X0X0XqX0X0X0X0X0X0X0X0X",
"0X0X0X0X0X0X0X0X0X0X0X0X0X0X0X0X0X0X0X0X0X0X0X0X0X0X9XN # % ;.;.T &   $ #X0X0X0X0X0X0X0X0X0X0X0X0X0X0X0X0X0X0X0X0X0X0X0X0X0X0X0X",
"0X0X0X0X0X0X0X0X0X0X0X0X0X0X0X0X0X0XqX0X0X0X0X0X0X0X3Xk   & T =.=.&   $ N 0X0X0X0X0X0X0X0XqX0X0X0X0X0X0X0X0X0X0X0X0X0X0X0X0X0X0X",
"0X0X0X0X0X0X0X0X0X0XqX0X0X0X0X0X0X0X0X0X0X0X0X0X0X0X[.j l Y ;.%.T Y $ % k 8X0X0X0X0X0X0X0X0X0X0X0X0X0X0X0X0X0X0X0X0X0XqX0X0X0X0X",
"0X0X0X0X0X0X0X0X0X0X0X0X0X0X0X0X0X0X0X0X0X0X0X0X0X-XC B z ;.tX;.T ;.$ g #X0X0X0X0X0X0X0X0X0X0X0X0X0X0X0X0X0X0X0X0X0X0X0X0X0X0X0X",
"0X0X0X0X0X0X0X0X0X0X0X0X0X0X0X0X0X0X0X0X0X0X0X0X0X;X=XN $ & tX:.%.l + $ @X0X0X0X0X0X0X0X0X0X0X0X0X0X0X0X0X0X0X0X0X0X0X0XqX0X0X0X",
"0X0X0X0X0X0X0X0X0X0X0XqX0X0X0X0X0X0X0X0X0X0X0XqX0X*X-XC f   B :.Y + + % C 0X0X0X0X0X0X0X0X0X0X0X0X0X0X0X0X0X0X0X0X0X0X0X0X0X0X0X",
"0X0X0X0X0X0X0X0X0XqX0X0X0X0X0X0X0X0X0X0XqXwXxXnXcX-XeX6X*Xk % g $ + f k N 0X0X0X0X0X0X0X0X0X9X0X0X0X0X0X0X0X0X0X0X0X0X0X0X0X0X0X",
"0X0X0X0X0X0X0X6X*.,.,XwX0X0X0X0X0X0X0XwXxXbXZXAXAXBXnXxXrX8X[.V V V C V $XcXcXeX0X0X0X0X0X0X0X0X0X0X0X0X0X0X9X*.:.,X8X9X0X0X0X0X",
"0X0X0X0X0X9X9X-.{  ...<X0X0X0X0X9XwXgXcXnXVXAXAXAXZXcX;XwXcXgXrXeXqX=Xk *XxXCXVXbXqX0X0X0X0X0XqX0XqX0X0X0X0X1...| [ &.8X0X0X0X0X",
"0X0X0X0X9X9X>X@.^ }  .1.0X0X0X0X9XgXnXCXVXCXAXZXCXnXeX[.N *X=XeXrXcX%XB R 0XnXZXAXVXbXdXrX0XqX9X0X0X0X0X0XqXO. .` @.%.8X0X0X0X0X",
"0X0X0X0XwX1X).^ ^ }  .,.0XqX0XqXxXmXvXvXmXbXbXbXxX9X-XV M $X[.vXcXdX#Xk j #XwXNXMXAXAXAXAXBXBXdXqX0X0X0X0XwXO. .` +.T :X9X0X0X0X",
"0X0X0X0X6XE I ) |  .O.yXwX0X7XrXVXVXcX;X8X8X8X;X;XM M k V N v wXeX0XN [.h N B 8XrXvXBXMXVXVXVXBXMX9X8X0X0X0X1. . .| P W E 6XqXqX",
"0X0X0X0X0X>X1X:. . .,.wX0X0X0XcXCXmX9X@X$X=X8X8X7XM f @ 3X$X&XnXbXeXV eXN f $.B B B ).-X*X*X=XrXdXE :XyX:X8X<XO. .O.,X6X>X0XqX6X",
"0X0X0X0X0X0X9X1X.. .<.yX1.1.wXbXnXgX3X3X0X8X0X0X8X[.@ k wX3X-XVXZXcX@X$X$Xk 9X3X=X*X#XR R C B C C l l U Y &.yXO. .o.8X0XqX6X0XqX",
"0X0X0X0XqX0X0X1XO. . . . .#.$.wXeX9X8X9X0X0X0X0X0X$X+ H.3X[.*XbXmXnX*XC C N 7X0X0X9X0X6X6X6X3X3X;X,./ K z >.| |  .,.0X0XqXqXqX6X",
"0X0X0X0X0X0X0X1X[ | _  .o.:.%.R $X8X0X0X0X0X0X0X0X$Xf ;XrXC 6XcXbXnX-X[.[.V 3X0X0X0X0X0X0X0XqX0X9X-.( ' o...} ` | >.6X0X6X0X0X0X",
"0X0X0X0X0X0X0X6Xo.| ! X.@.:.%.&.>X0X0X0X0X0X0X0X0X$Xk #X*X&.1.uXxXbXqXV C $X8X0X0X0X0X0X0X0X0X0X0X<X! `  .| ` _  .,.0X0XqX0X0X0X",
"0X0X0X0X0X0X0X0X:.} ] ~ R @.@.:X8X9X0X0X0X0X0X0X0X*X[.z X.[  ...o.1.wX[.[.C 8X0X0X0X0X0X0X0X0X0X0X8X-.! _ _ ! { [ ,X0X0X0X0X0X0X",
"0X0X0X0X0X0X0X0X6X:.>.-.R #.,X>X0X0X0X0X0X0X0X0X7X#X,...| |  .| ] { ,.;Xk C 8X0X0X0X0X0X0X0X0X0X0X0X8X*./ / o.>.,X9X0X0X0XqX6XqX",
"0X0X0X0X0X0X0X0X0X0X0X9X>X6X9X0X0X0X0X0X0X0X0X0X0X#.' ! `  . .` +.+.' $.g C <X7X0X0X0X0X0X0X0X0X0X0X0X0X8X>X8X0X0X0X9X0X0X0X0X0X",
"0X0X0X0X0X0X0X0X0X0X0X0X0X0X0X0X0X0X0X0X0X0X0X0X9X,.+.H.Q ` ( ! [.$.( ^ k ;XqX9X0X0X0X0X0X0X0X0X0X0X0X0X9X0X9XqX0X0X0X0X0X0X0X0X",
"0X0X0X0X0X0XqX0X0X0X0X0X0X0X0X0X0X0X0X0X0X0X0X0X9X,.~ +.Q H F J ~ Q ] #.l =X0X0X0X0X0X0X0X0X0X0X0X0X0X0X0X0X0X0X0X0X0X0X0X0X0X0X",
"0X0X0X0X0X0X0X0X0X0X0X0X0X0X0X0X0X0X0X0X0X0X0X0X0X*.} _ J S D S H X.1.7X}.}.8X0X0X0X0X0X0X0X0X0X0X0X0X0X0X0X0X0X0X0X0X0X0X0X0X0X",
"0XqX0X0X0X0X0X0X0X0X0X0X0X0X0X0X0X0X0X0X0X0X0X0X0X3X,X^ F D D D D U 7XpXsXsX7X9X0X0X0X0X0X0X0X0X0X9X0X0X0X0X0X0X0X0X0X0X0X0X0X0X",
"0X0X0X0X0X0X0X0X0X0X0X9X0X0X0X0X0X0X0X0X0X0X0X0X8X5XpXE D D D D D G 5XpXaXjXsX0X0X0X0X0X0X0X0X0X0X0X0X0X0X0X0X0X0X0X0X0X0X0X0X0X",
"0X0X0X0X0X0X0X0X0X0X0X0X0X0X0X0X0X0X0X0X0X0X0X0X-XoXpXI D S D S G D Y *X7XjXzXsX8X0X0X0X0XqX0X0X0X0X0X0X0X0X0X0X0X0X0XqX0X0X0X0X",
"0X0X0X0X0X0X0X0X0X0X0X0X0X0X0X0X0X0X0X0X0X0X0X0X7XuX^ Z A A A Z Z H Q X.<XaXlXlXdX0X0X0X0X0X0X0X0X0X0X0X0X0X0X0X0X0X0X0X0X0X0X0X",
"0X0X0X0X0X0X0X0X0X0X0X0X0X0X0X0X0X0X0X0X0X0X0X3XqXX.] ` _ ( _ _ { { ] ( [ wXzXzXjX0X0X0X0X0X0X0X0X0X0X0X0X0X0X0X0X0X0X0X0X0X0X0X",
"0X0X0X0X0X0X0X0X0X0X9X0X0X0X0X0X0X0X0X0X0X0X0X*.O.( ]  . . . . . . .] !  .<.zXzXlXdX6X0X0X0X0X0X0X0X0X0X0X0X0X0X0X0X0X0X0X0X0X0X",
"0X0X0X0X0X0X0X0X0X0X0X0X0X0X0X0X0X0X0X8X4X2X`.&._ ! }  . . . . . . . .! ( *.fXkXzXsX_.`.2X4X6X0X0X0X0X0X0X0X0X0X0X0X0X0X0X0X0X0X",
"0X0X0X0X0X0X0X0X0X0X0X0X0X0X9X8X4X2XW.T.v.n.I.5X^ `  . . . . . . . . . .! [.}.fXzXkX`.m.N.Y.Y.W.`.4X6X0X0X0X0X0X0X0X0X0X0X0X0X0X",
"0X0X0X0X0X0X0X0X0X0X0X0X0X4X`.T.m.b.h.b.b.b.T.aXwX[  . . . . . .| | | } T F.}.aXkXlXiX/.'./.N.b.b.n.Y._.4X6X0X0X0X0X0X0X0X0X0X0X",
"0X0X0X0X0X0X0X0X0X0X0X4XW.N.b.h.h.b.b.b.n.v.}.hXzXeX-.[ | |  . .| } X.%.D.1 j {.oXpX5X/.].'.V.M.b.b.b.b.n.T.2X6X0X0X0X0X0X0X0X0X",
"0X0X0X0X0X0X0X0X9X2XT.N.b.b.b.b.b.N.b.N.N.u.m fXkXjXpX_.2X:X&.&.).).D.Y.Y.x a c c m D.'.].'.!.!.N.M.b.b.b.b.b.T.2X0X0X0X0X0X0X0X",
"0X0X0X0X0X0X0X4X_.n.b.b.b.b.b.b.N.N.B.!.U.b h K.pXoXE.T.W./.~.B.B.Y.B.B.I.h a h h x Y.!.'.'.!.!.!.B.N.N.b.b.b.b.b.T.2X0X0X0X0X0X",
"0X0X0X0X0XqX4XY.b.b.b.b.b.N.N.Q.!.!.^.^.Y.h f f k v S.j.l.j.f.f.a.p.p.a.S.m c a + p c.m.~.~.!.Q.!.!.!.B.N.M.N.b.b.h.m.`.0X0X0X0X",
"0X0X0X0X0X`.v.h.b.b.b.N.N.!.Q.Q.^.!.N.k.P.s f f g p d.f.j.f.f.f.g.g.a.d.A.K.R.c d y.p.f.p.f.z.Q.B.!.!.!.!.!.N.N.M.b.b.b._.6X0X0X",
"0X0X0X0X`.n.b.b.b.b.N.B.!.!.!.Q.j.p.p.a.A.a a f h P.l.z.j.j.j.j.j.j.g.d.n G.K.{.R.f.f.f.f.a.f.p.p.g.x.B.!.!.Q.N.N.M.b.b.b._.6XqX",
"0X0X0X4XI.b.b.b.M.N.!.!.Q.k.g.f.g.f.g.l.y @ a a A.U.c.c.l.z.z.z.x.k.c.A.F.{.{.G.d.j.z.l.j.f.f.f.f.p.p.f.h.N.Q.Q.!.N.N.b.b.b.`.0X",
"0X0X6XW.b.b.b.b.N.!.Q.x.f.f.f.j.j.j.j.d.c + @ 1 e.s.y.r.q.9.9.8.0.0.t.F.F.E.F.S.j.l.U.~.P.z.j.f.g.f.f.p.p.p.h.N.!.Y.N.N.b.b.B.4X",
"0X0X4Xn.b.b.N.N.Q.M.g.p.f.f.j.j.j.j.j.i.m @ + 8 7.5.4.4.5.3.3.2.2.4.A.m F.}.{.e.4.9.y.s.L.c.z.z.g.j.g.g.g.a.p.f.k.V.V.B.N.b.b._.",
"0X0X_.b.b.N.N.V.x.g.f.g.j.j.l.j.a.y.w.C.{.j s w.t.e.w.7.5.5.3.6.4.w.x F.K.F.b w.5.2.4.4.9.q.y.j.x.z.z.j.g.g.g.a.f.h.V.V.N.N.b.T.",
"0X0X_.b.N.B.V.n.f.f.g.z.z.z.a.q.5.2.4.C..XXXZ.e.L.R.e.t.6.5.6.8.0.w.F.F.m F.A.w.5.5.5.3.3.3.5.8.r.g.x.z.j.g.g.j.j.j.k.V.V.N.b.U.",
"0X0X_.b.B.V.M.f.f.j.z.c.g.q.5.2.4.5.w.(..X.XZ.e.R.XXP.y.9.9.9.q.t.L.c [.}.F.e.8.8.8.6.5.5.5.2.2.3.5.y.j.l.z.z.c.U.U.j.z.Q.Q.b.U.",
"0X0X_.b.N.N.j.g.j.c.z.i.6.2.4.6.8.9.e.|..X XC.y.L.P.L.y.r.q.q.y.L.XX|.{.G.K.e.q.9.9.0.8.6.6.5.5.3.3.3.8.a.l.c.U./.U.j.f.x.Q.N.Y.",
"0X0X2XB.N.x.g.z.c.c.i.6.2.2.5.0.y.t.e.|.OX|.e.r.t.e.w.4.e 7 q u }.+X.X X.XC.w.9.q.q.q.0.9.8.6.5.5.5.3.2.5.a.c.U.U.c.j.p.g.Q.N._.",
"0X0X8X'.N.g.j.c.c.y.5.5.6.6.6.r.i.P.y.Z.|.C.8 6 3 , > : = = : , i aXOX X XZ.> > 5 w 4.9.q.q.0.0.6.8.5.5.5.5.a.c.U.P.g.f.p.N.Y.4X",
"0X0X0X4XY.j.j.c.p.5.3.5.6.9.0.q.r.t.4.8 8 , = : > : : : : 2 2 : , v oXOX XZ.- > ; ; ; 3 r w.r.q.0.8.8.6.5.3.6.k.c.c.j.f.p.m.`.0X",
"0X0X0X0X5Xl.j.x.0.3.5.6.9.0.q.0.e 6 > - ; : : : : 2 2 2 3 4 7 7 7 6 G.OX.X|.< 2 : : - 6 8 u u 7.0.0.8.8.5.3.2.i.~.c.z.f.f.T.6X0X",
"0X0X0X0X0X`.U.j.5.2.6.8.9.8.e 3 = = ; : : : 2 3 4 5 5 9 e 9 9 9 0 5 t }.+X.Xu 5 3 3 > 8 u S.b 8 q 5.0.8.6.3.3.8.c.c.U.j.T.0X0X0X",
"0X0X0X0X0X0X5XP.5.5.6.8.6.q = - = ; : : 2 4 4 9 0 w w 2.w w w w w 9 7 t c }.C.7 5 5 3 8 y S.u.8 > : e q.9.6.3.6.l.~.~.W.0X0X0X0X",
"0X0X0X0X0X0X0X4XJ.0.7.6.q = = - : : 2 2 4 9 w w 0 2 - = * * o * * * * - > 6 e 9 0 0 5 q t u u 8 > = : e 8.8.6.8.l.(.2X0X0X0X0X0X",
"0X0X0X0X0X0X0X0X0X&XP.r - = = : : : 2 9 9 5 > * . . . . . . . . . . . . . . * > 0 w 9 7 7 7 6 > - ; ; : 4.8.8.u.`.0X0X0X0X0X0X0X",
"0X0X0X0X0X0X0X0X0X0X6X&Xn t - : : 4 7 0 5 o . . . . . . . . . . . . . . . . . . o 2 w 9 5 2 2 : : ; - - 8 S.E.4X0X0X0X0X0X0XqX0X",
"qX0X0X0X0X0X0X0X0X0X0X0X8X*XJ.b t 7 0 6 o . . . . . . . . . . . . . . . . . . . . . 2 9 9 4 2 2 : 6 y F.&X4X0X0X0X0X0X0X0X0X0X0X",
"0X0X0X0X0X0X0X0X0X0X0X0X0X0X9X6X4XJ.S.y O X . . . X . . . . . . . . . . . . . . . . * 2.w e u b J.&X3X0X0X0X0X0X0X0X0X0X0X0X0X0X",
"0X0X0X0X0X0X0X0X0X0X0X0X0X0X0X0X0X0XqX8X-XH.V v 1 1 1 O X X X . X . X . X X O O 1 1 x F.J.&X4X6X8X9X0X0X0X0X0X0X0X0X0X0X0X0X0X0X",
"0X0X0X0X0X0X0X0X0X0X0X0X0X0X0X0X0X0X0X0XqXqX0X8X6X3X&X&X&X&X#X#XH.[.[.#X#X$X&X-X;X6X0X0XqXqX0X0X0X0X0X0X0X0X0XqX0X0X0X0X0X0X0X0X",
"0X0X0X0X0X0X0X0X0X0X0X0X0X0X0X0X0X0X0X0X0X0X0X0X0X0X0X0X0X0X0X0X0X0X0X0X0X0X0X9X0X0X0X0X0X0X0X0X0X0X0X0X0X0X0X0X0X0X0X0X0X0X0X0X"
};
