/* XPM */
static char *_B1721706108[] = {
/* columns rows colors chars-per-pixel */
"64 64 245 2 ",
"   c #31231B",
".  c #02012A",
"X  c #0B0A2E",
"o  c #050339",
"O  c #171635",
"+  c #342B26",
"@  c #292C38",
"#  c #343335",
"$  c #5D3620",
"%  c #4F3B32",
"&  c #574234",
"*  c #6E462D",
"=  c #070445",
"-  c #060457",
";  c #0A0756",
":  c #070459",
">  c #09065B",
",  c #0C095C",
"<  c #17155B",
"1  c #363848",
"2  c #333350",
"3  c #0A0662",
"4  c #0D0964",
"5  c #0A076A",
"6  c #0E096B",
"7  c #120D63",
"8  c #130C6D",
"9  c #1A1668",
"0  c #0E0A73",
"q  c #0F0B7A",
"w  c #120C74",
"e  c #190E71",
"r  c #130D7A",
"t  c #1D1277",
"y  c #23197A",
"u  c #2C2A6A",
"i  c #2A2473",
"p  c #463C57",
"a  c #493D78",
"s  c #3B424B",
"d  c #474648",
"f  c #554B47",
"g  c #444958",
"h  c #524F58",
"j  c #585759",
"k  c #6A544A",
"l  c #464465",
"z  c #4B5567",
"x  c #495877",
"c  c #515472",
"v  c #606269",
"b  c #686669",
"n  c #746A68",
"m  c #6B6C72",
"M  c #787679",
"N  c #B9301C",
"B  c #C6261E",
"V  c #E31B22",
"C  c #EB1C24",
"Z  c #D42121",
"A  c #E12029",
"S  c #B94C17",
"D  c #8D4E31",
"F  c #A1692B",
"G  c #DA782F",
"H  c #E23A44",
"J  c #A04A4E",
"K  c #8F6C4F",
"L  c #AB7757",
"P  c #866B6C",
"I  c #857C7B",
"U  c #B17773",
"Y  c #CB6055",
"T  c #B8AE12",
"R  c #A49628",
"E  c #AA982E",
"W  c #CABB0C",
"Q  c #EEAC16",
"!  c #C9B52F",
"~  c #D7C807",
"^  c #DDD107",
"/  c #D5C811",
"(  c #E7DA04",
")  c #EFD916",
"_  c #EEE10B",
"`  c #F5E705",
"'  c #FBED02",
"]  c #FFF200",
"[  c #F6E716",
"{  c #D8C730",
"}  c #E8D32A",
"|  c #F3E626",
" . c #F0E436",
".. c #918B4B",
"X. c #AD924C",
"o. c #BBAA4F",
"O. c #948468",
"+. c #B18F70",
"@. c #B7AB77",
"#. c #BCAD74",
"$. c #DF935B",
"%. c #C7B156",
"&. c #CA986E",
"*. c #CDAB6E",
"=. c #DBC649",
"-. c #D5C951",
";. c #E4D448",
":. c #D2CB6E",
">. c #210F86",
",. c #220F88",
"<. c #251686",
"1. c #25128A",
"2. c #29148E",
"3. c #2C1A8D",
"4. c #2B1692",
"5. c #2E1994",
"6. c #311B95",
"7. c #341C9A",
"8. c #2D2489",
"9. c #362798",
"0. c #3A239C",
"q. c #313191",
"w. c #3D27A1",
"e. c #48398E",
"r. c #4329A3",
"t. c #4B27AE",
"y. c #4C2AAE",
"u. c #4C37A9",
"i. c #5538A9",
"p. c #4E2BB1",
"a. c #522DB3",
"s. c #5E2AB2",
"d. c #4F31B0",
"f. c #5432B5",
"g. c #5C34B6",
"h. c #573AB6",
"j. c #5735B8",
"k. c #5A36B9",
"l. c #5C3BBB",
"z. c #622CB4",
"x. c #6432B4",
"c. c #663BB7",
"v. c #6633B8",
"b. c #6A35B9",
"n. c #6D3ABD",
"m. c #713CBF",
"M. c #3E478F",
"N. c #3456A8",
"B. c #1375B5",
"V. c #3067AC",
"C. c #524B8C",
"Z. c #5A5497",
"A. c #76459E",
"S. c #566887",
"D. c #5A7092",
"F. c #5C7395",
"G. c #797C85",
"H. c #6A7096",
"J. c #4F4AAB",
"K. c #674EA9",
"L. c #6242BB",
"P. c #6C45B8",
"I. c #7448B8",
"U. c #7656B1",
"Y. c #566FAD",
"T. c #6C77A8",
"R. c #7B63B3",
"E. c #6F3FC0",
"W. c #723FC0",
"Q. c #6E4BC2",
"!. c #7441C1",
"~. c #7A4BC4",
"^. c #5F71C9",
"/. c #857F81",
"(. c #946197",
"). c #856EAF",
"_. c #8877B1",
"`. c #8657C7",
"'. c #9C73D1",
"]. c #78828D",
"[. c #5A84B2",
"{. c #6B8AB7",
"}. c #7695B7",
"|. c #3889CE",
" X c #2890E3",
".X c #3997E3",
"XX c #3FA5E3",
"oX c #4A8ECC",
"OX c #4298E4",
"+X c #60A8E0",
"@X c #838285",
"#X c #868388",
"$X c #8C8B8E",
"%X c #8C8C94",
"&X c #938E90",
"*X c #959396",
"=X c #95959A",
"-X c #9B999C",
";X c #AC9487",
":X c #A99A9B",
">X c #B5A486",
",X c #AFA993",
"<X c #8B83AB",
"1X c #948AAE",
"2X c #8899AB",
"3X c #9B98A8",
"4X c #8F8CB3",
"5X c #A39EA7",
"6X c #96A8B5",
"7X c #A4A2A5",
"8X c #A9A3A4",
"9X c #A7A6AB",
"0X c #AAA9A8",
"qX c #ABABAE",
"wX c #AFB3AC",
"eX c #A9ABB1",
"rX c #B3B2B5",
"tX c #B9B9BB",
"yX c #C2BC8A",
"uX c #D6B097",
"iX c #B1C4AE",
"pX c #CAC384",
"aX c #C6C9B3",
"sX c #8BA7C8",
"dX c #92B6D6",
"fX c #B0B7C3",
"gX c #95BDE1",
"hX c #C0BFC2",
"jX c #A6C4DF",
"kX c #9BC6E9",
"lX c #A5CBE8",
"zX c #A9D3F1",
"xX c #ABD5F3",
"cX c #C5C4C5",
"vX c #CCCBCC",
"bX c #CFCFD1",
"nX c #D3D3D4",
"mX c #D7D5D8",
"MX c #DADADB",
"NX c #DDDDE0",
"BX c #E4E3E3",
"VX c #E9E8E7",
"CX c #ECECEB",
"ZX c #EFEFEE",
"AX c #F5F5F5",
/* pixels */
"9X9X9X9X9X9X9X9X9X9X9XqX9X9X9X9X9X9X9X9X9X9X9X9X9X9X9X9X5X&X&.Y &.+.5X5X5X9X9X9X9X9X9X9X9X9X9X9X9X9X9X9X9X9X9X9X9X9X9X9X9X9X9X9X",
"9X9X9X9X9X9X9X9X9X9X9X9X9X9X9X9X9X9X9X9X9X9X9X9X9X9X9X9X;XG G $.G G L 5X0X5X9X9X9X9X9X9X9X9X9X9X9X9X9X9X9X9X9X9X9X9X9X9X9X9X9X9X",
"9X9X9X9X9X9X9X9X9X9X9X9X9X9X9X9X9X9X9X9X9X9X9X9X9X9X9X-XL F D D * * D P 0X9X9X9X9X9X9X9X9X9X9X9X9X9X9X9X9X9X9X9X9X9X9X9X9X9X9X9X",
"9X9X9X9X9X9X9X9X9X9X9X9X9X9X9X9X9X9X9X9X9X0X9X9X9X9XeXO.* $ & * $ $   % 5X9X9X9X9X9X9X9X9X9X9X9XeX9X9X9XeX9X9X9X9X9X9X9X9X9X9X9X",
"9X9X9X9X9X9X9X9X9XqX9X9X9X9X9X9X9X9X9X9X9X9X9X9X9X9X7Xb + * $.*.$.*   + /.8X9X9X9X9X9X9X9X9X9X9X9X9X9X9X9X9X9X9X9X9X9X9X9X9X9X9X",
"9X9X9X9X9X9X9X9X9X9X9X9X9X9X9X9X9X9X9X9X9X9X9X9X9X9X*Xv + * U $.L * + % v 5X9X9X9X9X9X9X9X9X9X9X9X9X9X9X9X9X9X9X9X9X9X9X9X9X9X9X",
"9X9X9X9X9X9X9X9X9X9X9X9X9X9X9X9X9X9X9X9X9X9X9X9X9X5XM h k K *.*.L L % % b 9X9X9X9X9X9X9X9X9X9X9X9X9X9X9X9X9X9X9X9X9X9X9X9X9X9X9X",
"9X9X9X9X9X9X9X9X9X9X9X9X9X9X9X9X9X9X9X9X9X9X9X9X9X3X#XM k L uX$.+.U % f $X9X9X9X9XeX9X9X9X9X9X9X9X9X9X9X9X9X9X9X9XeX9X9X9X9X9X9X",
"9X9X9X9X9X9X9X9X9X9X9X9X9X9X9X9X9X9X9X9X9X9X9X9X9X=X=Xb % & &.*.+.& + & M 9X9X9X9X9X9XqX9X9X9X9X9X9X9X9X9X9X9X9X9X9X9X9X9X9X9X9X",
"9X9X9X9X9X9X9X9X9X9X9X9X9X9X9X9X9X9X9X9X9X9X9XtXqX%X=X@Xf + k +.k + + d M 7X9X9X9X9X9X9X9X9X9X9X9X9X9X9X9X9X9X9X9X9X9X9X9X9X9X9X",
"9X9X9X9X9X9X9X9X9X9X9X9X9X9X9X9X9X9X9X9XrXrXnXCXMX9XaXrX3Xm f d # # d j b 9X9X0X9X9X9X9X9X9X9X9X9X9X9X9X9X9X9X9X9X9X9X9X9X9X9X9X",
"0X0X9X9X9X9XqX5X9X9X9X9X9X9X9X9X9X9XqXrXvXMXAXAXAXZXMXcXcXrX-X$X@X@X@Xm &XbXMXhXqX9X9X9X9X9X9X9X9X9X9X9X9X9X9X9X9X9X9X9X9X9X9X9X",
"0X9X9X9X9X9X8X5X*.%.,XwX9X9X9X9X9XqXvXMXBXVXAXAXAXZXtX#X-XiXrXhXaXtX$Xv $XtXVXZXBXrXqX9X9X9X9X9X9X9X9X9X9X9X0X@.&.>X8X0X9X9X9X9X",
"9X9X9X9X9X9X5X%.[ ] [ ,X9X9X9X9XqXvXMXBXCXCXZXCXBXbXrXO.m -X&XtXqXtX&Xb n 8XnXCXZXZXNXnXcXrXrX9X9X9X9X9X0X0X:.[ ' ) >X0X9X9X9X9X",
"9X9X9X9X8X9X7XX.E ' ] :.9X9X9XrXbXBXnXcXmXvXvXaXtX$X%Xm v ].M bXMXvXM j d @X-XnXNXAXZXZXAXCXCXvXrX9X9X9X9X0X .] ( X.+.0X9X9X9X9X",
"9X9X9X9X5X5X;XE E _ ] -.9X9X7XhXVXVXtX&X*X&X-X-X-Xv z s M m m 7X9X=Xb =Xj v n #X3XtXnXnXmXmXmXNXNX8X0X9X7X0X .] ^ ..F :X9X9X9X9X",
"9X9X9X9X5XU H Q ' ] | yX0X9X9XnXCXmX7X*X*X-XeX9X7Xm d s wX$X*XBXBXtXM wXM h &XM n n M /./.G./.5X8XK +.uX;X:X:.' ' ` G H /.0X9X9X",
"9X9X9X9X5X8X5X*.' ] -.wX9X-X9XMXnXtX-X7X7X9X9X9X0X].# j 0X-X-XBXZXvX@X].$Xj 7X9X5X:X&X$X#XO.M I /.n k * K O.,X .] ) yX:X:X9X9X9X",
"9X9X9X9X9X9X9X8X| ' ;.pX:.+.O.:X8X7X6X9X9X9X9X9X9X$X# $XwXM $XbXMXNX$XM M b 9X9X9X9X9X9X9X9X9X7X5X>X;X+...@.,X| ] ;.5X9X9X9X9X9X",
"9X9X9X9X9X9X0X8X| ] ] [ =.*.+.O.+.7X9X9X9X9X9X9X0X$Xh -XrX].-XvXnXMX=XG./.M 5X9X9X9X9X9X9X9X9X9X7X{ ) / [ [ ] ' ] -.8X9X9X9X9X9X",
"9X9X9X9X9X9X9X,X| ] ~ { X.&.X.&.>X9X9X9X9X9X9X9XeX$Xj M ].G.wXbXbXbXrXm M #X9X9X9X9X9X9X9X9X9X9X9X%.T ~ ' ] ` ^ ] ;.5X9X9X9X9X9X",
"9X9X9X9X9X9XqX8X} ] T ! O.%.o.@.7X9X9X9X9X9X9X9X0X$X$Xh I @.:.iXaXtXeXM M M 5X9X9X9X9X9X9X9X9X9XeX,XT ^ ] ] ^ ~ ] %.0X9X9X9X9X9X",
"9X9X9X9X9X9X9X9X*.] ( R X.! o.>X7X9X9X9X9X9X9X9X9X#XO.k =._ ] [  .*.cXrXh M 9X9X9X9X9X9X9X9X9X9X9X7X#.T ~ / T ` ) >XqX9X9X9X9X9X",
"9X9X9X9X9X9X9X9X0X>X{ { o.o.>X8X9X9XeX0X9X9X9X9X0X*XE _ ] ] ] ' ( ` ! j d /.9X9X9X9X9X9X9X9X9X9X9X9X,X#.! ! { =.>XqX9X9X9X9X9X9X",
"9X9XqX9X9X9X9X9X9X9X8X5X8X8X9X9X9X9X9X9X9X9X9X9X9X#./ T ^ ' ] / ..../ K f -XwX0X9X9X9X9X9X9X9X9X9X9X9X0X7X:X8X9X8X9X9X9X9X9X9X9X",
"9X9X9X9X9X9X9X9X9X9X9X9X9X9X9X9X9X9X9X9X9X9X9X9X0X%...@XR ^ ~ T ].O./ o.m $X6X0X9X9X9X9X9X9X9X9X9X9X9X9X9X9X9X9X9X9X9X9X9X9X9X9X",
"9X9X9X9X9X9X9X9X9X9X9X9X9X9X9X9X9X9X9X9X9X9X9X9X7X=.R ..R S B S R R ^ ,X}.2X7X0X9X9X9X9X9X9X9X9X9X9X9X9X9X9X9X9X9X9X9X9X9X9X9X9X",
"9X9X9X9X9X9X9X9X9X9X9X9X9X9X9X9X9X9X9X9X9X9X9X9X9X@.[ ~ S Z C V S W :.6XkXkX6X0X9X9X9X9X9X9X9X9X9X9X9X9X9X9X9X9X9X9X9X9X9X9X9X9X",
"9X9X9X9X9X9X9X9X9X9X9X9X9X9X9X9X9X9X9X9X9X9X9X9X7X}.tXL Z C C C C J 2X}.sXlXlX6X9X9X9X9X9X9X9X9X9X9X9X9X9X9X9X9X9X9X9X9X9X9X9X9X",
"9X9X9X9X9X9XqX9XqX9X9X9X9X9X9X9X9X9X9X9X9X9X9X7X3XdXlXU C C C C C A G.].sXkXxXjX6X9X9X9X9X9X9X9X9X9X9X9X9X9X9X9X9XqX9X9X9X9X9X9X",
"9X9X9X9X9X9X9X9X9X9X9X9X9X9X9X9X9X9X9X9X9X9X9X7X6XzX6XH C V C C V C D $X}.dXxXxXfX9X9X9X9X9X9X9X9X9X9X9X9X9X9X9X9X9X9X9X9X9X9X9X",
"9X9X9X9X9X9X9X9X9X9X9X9X9X9X9X9X9X9X9X9X9X9X9X6XgXaXE S B N B N N S R / wXgXxXxXlXeX9X9X9X9X9X9X9X9X9X9X9X9X9X9X9X9X9X9X9X9X9X9X",
"9X9X9X9X9X9X9X9X9X9X9X9X9X9X9X9X9X9X9X9X9X9X0X6XiX{ _ ^ ~ W W ^ ( _ ( W ) wXkXxXxXfX3X9X9X9X9X9X9X9X9X9X9X9X9X9X9X9X9X0X9X9X9X9X",
"9X9X9X9X9X9X9X9X9X9X9X9X9X9X9X9X9X9X9X9X9X7X7X>X| W ( ] ] ] ] ] ] ] ( T ] { gXzXxXkXeX9X9X9X9X9X9X9X9X9X9X9X9X9X9X9X9X9X9X9X9X9X",
"9X9X9X9X9X9X9X9X9X9X9X9X9X9X9X9X9X9X9X5X3X1X_.+.~ T ` ] ] ] ] ] ] ] ] T W X.}.kXxXzX4X_.4X3X3X9X9X9X9X9X9X9X9X9X9X9X9X9X9X9X9X9X",
"9X9X9X9X9X9X9X9X9X9X9X9X9X9X9X9X3X1X).K.c.x.Y.sX..^ ] ] ] ] ] ] ] ] ] ] T b D.+XkXzXsXP.b.P.I.R._.1X9X9X9X9X9X9X9X9X9X9X9X9X9X9X",
"9X9X9X9X9X9X9X9X9X9X9X9X5X3X_.U.v.z.s.z.z.i.T.kXwX) ' ] ' ] ] ] ' ' ] ` L p g H.{.}.R.U.`.I.b.z.z.c.I.).1X7X0X9X9X9X9X9X9X9X9X9X",
"9X9X9X9X9X9X9X9X9X9X9X1X).v.z.z.z.z.z.z.x.e.j dXzX0X! ) ' ' ] ] ' ) } L A.l g z z c A.`.'.`.m.v.z.z.z.z.c.U._.5X9X9X9X9X9X9X9X9X",
"9X9X9X9X9X9X9X9X0X1XU.c.z.s.s.z.z.v.v.v.c.l g c }.}.H.).1X;X+.+.(.(.U.m.K.g s s p p m.`.'.`.!.E.b.x.x.z.z.z.x.U.1X5X9X9X9X9X9X9X",
"9X9X9X9X9X9X9X3X).x.z.z.z.z.z.v.b.n.n.n.P.l d d f h K.~.R.Q.~.c.c.I.E.P.Z.S.S.s 1 C.~.~.`.`.~.W.m.m.b.b.z.z.z.z.x.U.1X9X9X9XqX9X",
"9X9X9X9X9XqX1XI.z.z.z.z.z.b.b.E.W.W.!.!.K.l d f d a h.j.h.d.p.p.p.p.t.u.C.F.D.x x i.g.b.Q.E.!.!.W.W.W.n.b.v.v.z.z.z.c._.8X9X9X9X",
"9X9X9X9X9X_.c.s.z.z.z.v.b.E.E.E.W.W.c.g.l 2 s s g i.f.a.f.d.a.p.a.a.s.e.x D.[.[.J.r.t.y.t.p.f.v.n.W.W.W.m.m.n.b.v.z.z.z.).5X9X9X",
"9X9X9X9X<Xx.s.z.z.z.b.n.W.W.!.E.s.p.p.i.s # s s C.L.h.j.f.f.f.f.k.a.f.C.F.[.Y.D.i.y.y.a.p.y.t.t.p.a.g.n.W.W.W.n.b.v.z.z.z.).5X9X",
"9X9X9X3Xc.s.z.x.v.b.E.W.W.z.a.p.p.p.a.d.x @ @ 2 i.L.l.l.j.j.j.j.k.g.i.D.S.[.D.Z.f.f.j.h.j.p.p.p.t.p.t.p.s.b.m.m.n.b.b.v.z.z._.9X",
"9X9X5X).z.z.z.x.b.E.E.g.a.y.p.a.a.f.a.J.F.# @ e.u.y.w.0.6.6.5.5.5.6.C.S.D.F.F.u.f.h.L.Q.J.j.f.p.p.p.p.p.t.t.a.b.W.m.b.b.v.z.c.3X",
"9X8X1Xx.z.x.x.b.E.b.a.p.p.a.f.f.f.f.f.M.oXx x 8.<.>.<.1.1.>.>.1.>.3.z x ].F.S.8.<.6.w.u.J.l.j.j.a.f.a.a.a.y.t.p.g.m.m.n.b.z.z.).",
"9X9X).z.x.x.n.n.k.a.p.a.a.f.j.j.y.w.<.V..X.XV.8.q.q.8.<.1.1.1.1.<.8.x ].S.z a <.,.>.1.<.4.7.w.f.k.j.f.f.a.a.p.y.a.s.n.W.n.v.z.U.",
"9X9X).z.n.n.m.x.p.p.a.f.k.j.y.7.1.>.8.oX.X.XN.q.J.Y.w.9.4.1.2.4.8.J.x F.[.D.8.<.1.1.1.>.,.,.1.4.0.a.k.k.f.a.f.f.f.f.g.n.m.n.z.P.",
"9X9X).z.n.n.x.p.a.j.k.k.f.7.1.>.>.1.8.|.OX|.N.9.Y.oXJ.9.7.5.5.0.J.oXXXoXoXS.q.4.4.4.2.,.1.,.,.>.,.1.w.a.j.j.j.l.P.L.f.f.n.n.b.P.",
"9X9X).z.b.n.f.p.j.j.k.r.1.,.,.2.3.<.q.|..X|.q.w.u.J.J.w.7.7.7.9.4X+XOX X XV.w.5.5.5.5.4.4.4.,.1.,.,.,.5.d.h.l.L.~.P.f.p.v.n.b.U.",
"9X9X1Xn.b.x.a.j.h.l.w.2.>.1.2.6.9.r.0.N.Y.N.w.9.9.q.3.t e e e 8 2 2X+X.X XV.8.5.7.7.7.7.5.4.4.1.1.1.,.>.1.y.l.l.L.L.d.y.a.n.b.).",
"9XeX5X).v.a.f.l.l.r.1.1.1.1.3.0.r.u.r.7.5.<.e 5 7 7 , ; : : > : < u +X.X XB., , 4 r >.5.7.7.6.3.2.2.1.1.1.1.d.c.L.L.d.y.y.b.I.1X",
"9X9X9X1X!.f.j.l.t.1.,.1.2.4.7.7.0.0.y 8 3 > : : > > : > : 4 3 > , , x XXXX|.9 , : : : 7 t 8.0.0.7.4.4.2.1.,.2.g.l.l.j.p.p.x._.9X",
"9X9X9X9X4Xl.k.g.4.1.1.2.4.7.7.3.t 7 , > > : : : : 3 3 4 6 6 8 8 8 7 < ].+XXXi 4 > > > 7 9 u i 3.5.7.4.2.1.,.,.r.L.l.j.d.y.R.9X9X",
"9X9X9X9X9X_.L.d.<.1.2.2.5.5.t 7 : - > > > > 3 4 5 6 0 w w 0 q w r w e < 2 S.e.4 3 7 , 7 i Z.a 9 e <.5.4.2.1.,.4.l.L.L.f.R.3X9X9X",
"9X9X9X9X9X9X4XJ.1.1.2.5.2.8 > - - : : : 3 6 6 6 w t r r t r q r w q q r 0 6 8 0 6 8 7 9 i C.C.9 , > t 7.4.4.,.1.l.L.Q.R.5X9X9X9X",
"9X9X9X9X9X9X9X3XZ.9.5.4.e - - : : : 3 3 6 0 r r w 4 > = = = o = = = = ; 4 6 0 0 0 w 8 e 9 i i 9 , : : t 5.4.1.1.l.^.4X9X9X9X9X9X",
"9X9X9X9X9X9X9X9X5X=XZ.y : - - : : 3 5 6 0 0 3 = o . . . . . . . . . . . . o = , 0 r 0 8 8 9 7 , : : : : <.4.4.e._.5X9X9X9X9X9X9X",
"9X9X9X9X9X9X9X9X9X9X5X%Xc u , : : 3 8 w 4 o . . . . . . . . . . . . . . . . . . o 4 r 0 8 4 4 : : : : : 9 C.).3XeX9X9X9X9X9X9X9X",
"9X9X9X9X9X9X9XeX0X9X9X9X8X=XH.l i 8 w 9 o . . . . . . . . . . . . . . . . . . . . . , q 0 5 3 3 : < u m <X3X9X9X9X9X9X9X9X9X9X9X",
"9X9X9X9X9X9X9X9X9X9X9X9X8X9X9X5X3XG.Z.u O X . . . . . . . . . . . . . . . . . . . . o 0 w t i l H.%X3X9X9X9X9X9X9X9X9X9X9X9X9X9X",
"9X9X9X9X9X9X9X9X9X9X9X9X9X9X9X9X9X9X5X3X=X#Xm z 1 2 @ O X X X . X . X . X X O O 2 2 l H.H.2X3X7X7X9X9X9X9X9X9X9X9X9X9X9X9X9X9X9X",
"9X9X9X9X9X9X9X9X9X9X9X9X9X9X9X9X9X9X9X9X9X9X9X7X7X3X=X%X%X%X#X@X/.G.].#X#X$X%X*X-X5X9X9XqX0X9X9X9X9X9X9X9X9X9X9X9X9X9X9X9X9X9X9X",
"9X9X9X9X9X9X9X9X9X9X9X9X9X9X9X9X9X9X9X9XqX9X9X9X9X9X9X8X9X9X9X9X9X9X9X9X9X9X9X9X9X9X9X9X9X9X9X9X9X9X9X9X9X9X9X9X9X9X9X9XeX9X9X9X"
};
