/* XPM */
static char *_A1721706109[] = {
/* columns rows colors chars-per-pixel */
"64 64 250 2 ",
"   c #31231B",
".  c #03022A",
"X  c #0B0A2E",
"o  c #040236",
"O  c #151532",
"+  c #201F3B",
"@  c #352A26",
"#  c #2A2D34",
"$  c #333336",
"%  c #4D3A32",
"&  c #603724",
"*  c #574234",
"=  c #6F462D",
"-  c #0E0C4F",
";  c #060457",
":  c #07045A",
">  c #09065C",
",  c #0C095B",
"<  c #373A47",
"1  c #302F52",
"2  c #0A0763",
"3  c #0D0965",
"4  c #0B076A",
"5  c #0D096C",
"6  c #120C65",
"7  c #120C6C",
"8  c #0F1061",
"9  c #181569",
"0  c #0E0A73",
"q  c #110B74",
"w  c #160D78",
"e  c #1C1476",
"r  c #231B73",
"t  c #1A376A",
"y  c #302E73",
"u  c #403F5F",
"i  c #473B6F",
"p  c #3B424A",
"a  c #3D4357",
"s  c #3C4268",
"d  c #474648",
"f  c #554B47",
"g  c #434A58",
"h  c #585658",
"j  c #6A534A",
"k  c #6F635C",
"l  c #495467",
"z  c #4D506D",
"x  c #495776",
"c  c #526379",
"v  c #696668",
"b  c #6A6B74",
"n  c #716D72",
"m  c #787679",
"M  c #D31D21",
"N  c #E71C23",
"B  c #D12B27",
"V  c #B85417",
"C  c #8C5031",
"Z  c #BB5D2D",
"A  c #AC6E2B",
"S  c #D87735",
"D  c #8A5C4F",
"F  c #91674F",
"G  c #AA7656",
"H  c #8E756D",
"J  c #B76B6E",
"K  c #CF7E47",
"L  c #A48F18",
"P  c #B7AC08",
"I  c #B6AB13",
"U  c #B28E26",
"Y  c #AFA72D",
"T  c #C79311",
"R  c #CBB30D",
"E  c #C5B90A",
"W  c #C9AD36",
"Q  c #D6C805",
"!  c #D2C80A",
"~  c #E7D903",
"^  c #E7D018",
"/  c #EBD71A",
"(  c #EEE103",
")  c #F4E706",
"_  c #FBED02",
"`  c #FFF200",
"'  c #FDF00A",
"]  c #EEE11A",
"[  c #F7EA15",
"{  c #D5C725",
"}  c #EAD726",
"|  c #E2CC30",
" . c #E7D838",
".. c #EFE432",
"X. c #AC914E",
"o. c #A19851",
"O. c #89886D",
"+. c #AD8F71",
"@. c #B6A972",
"#. c #C98C5A",
"$. c #E79758",
"%. c #CAB748",
"&. c #CAAE50",
"*. c #CBB658",
"=. c #D09871",
"-. c #CBB270",
";. c #D6C74C",
":. c #E1D651",
">. c #EBE15E",
",. c #D3CB73",
"<. c #210F86",
"1. c #220F88",
"2. c #25128A",
"3. c #271688",
"4. c #29148E",
"5. c #2C1692",
"6. c #2E1994",
"7. c #311B95",
"8. c #341D9B",
"9. c #381E9F",
"0. c #332B8D",
"q. c #352497",
"w. c #3A229C",
"e. c #3B25A0",
"r. c #4D3C93",
"t. c #4628A8",
"y. c #4C2AAE",
"u. c #4D31AC",
"i. c #5236AC",
"p. c #4E2AB1",
"a. c #512DB2",
"s. c #5E29B2",
"d. c #5532B5",
"f. c #5B32B6",
"g. c #593AB5",
"h. c #5735B8",
"j. c #5836B9",
"k. c #5C3BBB",
"l. c #622CB4",
"z. c #6532B5",
"x. c #6839B4",
"c. c #6534B9",
"v. c #6A35BA",
"b. c #643CBC",
"n. c #6D3ABD",
"m. c #713DBE",
"M. c #314E8D",
"N. c #1967A8",
"B. c #396EAC",
"V. c #4E4D8F",
"C. c #564899",
"Z. c #615B98",
"A. c #576887",
"S. c #576F91",
"D. c #5B7496",
"F. c #6C718C",
"G. c #7A7B85",
"H. c #657C99",
"J. c #564EAC",
"K. c #6B55AE",
"L. c #6743BA",
"P. c #7349B8",
"I. c #7759B3",
"U. c #5A77AD",
"Y. c #6C72AC",
"T. c #7C64B4",
"R. c #6F3FC0",
"E. c #723FC0",
"W. c #7542C2",
"Q. c #744FC2",
"!. c #7D4AC5",
"~. c #477EC9",
"^. c #857F81",
"/. c #8875AF",
"(. c #8570B2",
"). c #8A7BB2",
"_. c #8555C7",
"`. c #9477CB",
"'. c #3B81BD",
"]. c #7A8491",
"[. c #5A84B2",
"{. c #6C86A7",
"}. c #768DA9",
"|. c #6F8EB5",
" X c #7896B7",
".X c #388CCF",
"XX c #2890E3",
"oX c #3997E3",
"OX c #3EA5E1",
"+X c #498ECB",
"@X c #7A95C4",
"#X c #78A9D2",
"$X c #4FA1E4",
"%X c #838285",
"&X c #878489",
"*X c #8D8C8E",
"=X c #938E8D",
"-X c #8B8B95",
";X c #928F97",
":X c #959295",
">X c #96959A",
",X c #9B9A9D",
"<X c #AE9187",
"1X c #AB9B89",
"2X c #A79C98",
"3X c #B6A686",
"4X c #B3AD8F",
"5X c #ABA49C",
"6X c #B8B596",
"7X c #8981A8",
"8X c #9389AC",
"9X c #9D9CA3",
"0X c #9B96AB",
"qX c #8D90B1",
"wX c #A29EA6",
"eX c #90A5BA",
"rX c #A4A2A5",
"tX c #A9A4A4",
"yX c #A7A6AB",
"uX c #ABAAA9",
"iX c #B0AFB1",
"pX c #B3B3B5",
"aX c #B5B7BB",
"sX c #BCBBBC",
"dX c #DFA583",
"fX c #C4BB8A",
"gX c #C8C282",
"hX c #E5D985",
"jX c #8899C9",
"kX c #89A8CA",
"lX c #8BAFD5",
"zX c #93B8DA",
"xX c #BEBEC1",
"cX c #95BDE3",
"vX c #A4C1DF",
"bX c #9BC6E9",
"nX c #A3CAE8",
"mX c #ABD3F0",
"MX c #A8D3F4",
"NX c #ABD5F4",
"BX c #AED9F5",
"VX c #C9C8C9",
"CX c #D2D1CD",
"ZX c #D3D2D4",
"AX c #DADADA",
"SX c #E6E3D8",
"DX c #E5E5E4",
"FX c #ECECEC",
"GX c #EFEFEE",
"HX c #F6F5F5",
/* pixels */
"yXyXyXyXyXyXyXyXyXyXyXyXyXyXyXuXyXyXyXyXyXyXyXyXyXyXyXyXyXyXyXyXyXyXyXyXyXyXyXyXyXyXyXyXyXyXyXyXyXyXyXyXyXyXyXyXyXyXyXyXyXyXyXyX",
"yXyXyXyXyXyXyXyXyXyXyXyXyXyXyXyXyXyXyXyXyXyXyXyXyXyXyXyXyXyXyXyXyXyXyXyXyXyXyXyXyXyXyXyXyXyXyXyXuXyXyXyXyXyXyXyXyXyXyXyXyXyXyXyX",
"yXyXyXyXyXyXyXyXyXyXyXyXyXyXyXyXyXyXyXyXyXyXyXyXyXyXyXyXyXyXyXuXyXyXyXuXyXyXyXyXyXyXyXyXyXyXyXyXyXyXyXyXyXyXyXyXyXyXyXyXyXyXyXyX",
"yXyXyXyXyXyXyXyXyXyXyXyXyXyXyXyXyXyXyXyXyXyXyXyXyXyXyXyXyXyXyXtXyXyXyXyXyXyXyXyXyXyXyXyXyXyXyXyXyXyXyXyXyXyXyXyXyXyXyXyXyXyXyXyX",
"yXyXyXyXyXyXyXyXyXyXyXyXyXyXyXyXyXyXyXyXyXyXyXyXyXyXyXyXyXyXwXwXwXwXiXwXyXyXyXyXyXyXyXyXyXyXyXyXyXyXyXyXyXyXyXyXyXyXyXyXyXyXyXyX",
"yXyXyXyXyXyXyXyXyXyXyXyXyXyXyXyXrXrXyXyXyXyXyXyXyXyXyXyXrX1X+.#.J <XwXuXyXyXyXyXyXyXyXyXyXyXyXuXyXyXyXyXyXyXyXyXyXyXyXyXyXyXyXyX",
"yXyXyXyXyXyXyXyXyXyXyXyXyXyXtX*.:.,.5XyXyXuXyXyXyXyXyXyX=XK $.$.$.S F 2XyXyXyXyXyXyXyXyXuXfX*.1XyXyXyXyXyXyXyXyXyXyXyXyXyXuXyXyX",
"yXyXyXyXyXyXyXyXyXyXyXyXyXwX&.) ` ' :.uXyXyXyXyXyXyXyX,XA Z C = = & C H yXyXyXyXyXyXyX5X:.[ ` / 3XyXyXyXyXyXyXyXyXyXyXyXyXyXyXyX",
"yXyXyXyXyXyXyXyXyXyXyXyXyX5X/ ` ` ` [ 6XiXyXyXyXyXyXyX&X= & = = & &   & >XuXyXyXyXyXyX,.' ` ` ` | yXyXyXyXyXyXyXyXyXyXyXyXyXyXyX",
"yXyXyXyXyXyXyXyXyXyXyXyXyX5X} ` ` ` [ 6XyXyXyXyXyXyXyXk @ = =.$.$.=     ].yXyXyXyXyXyX,.` ` ` ` | yXyXyXyXyXyXyXyXyXyXyXyXyXyXyX",
"yXyXyXyXyXyXyXyXyXyXyXyXyXyX@.~ ` ' ,.yXyXyXyXyXyXyXrXv @ = +.=.X.=   % v yXyXyXyXyXyX6X[ ` _ ( -.5XyXyXyXyXyXyXyXyXyXuXyXyXyXyX",
"yXyXyXyXyXyXyXyXyXyXyXyXyXyXJ V ( ' gXuXyXyXrXyXyXrXm h j F =.=.G G % * v 9XyXyXyXyXyXrX,._ ( A <XyXyXyXyXyXyXyXyXyXyXyXyXyXyXyX",
"yXyXyXyXyXyXyXyXyXyXyXyXyXyX<XG ~ _ ]  .,.4X;.5XyX>X&Xm f o.=.=.+.G $ * *XuXyX@.4XrXfX,...' ! Z <XwXyXyXyXyXyXyXyXyXyXyXyXyXyXyX",
"yXyXuXyXyXyXyXyXyXyXyXyXyXyXuXX.~ _ Q P ) ) | tXyX:X>Xv % * -.dXJ j # * G.yXrX@.] ..] ! ~ ` ! +.wXiXyXyXyXyXyXyXyXyXyXyXyXyXyXyX",
"yXyXyXyXyXyXyXyXyXyXyXyXyXyXuX%.Q ` ` E ( ' -.pXiX*X>X%Xf @ h +.k @ @ * m rXyX5X] ` ! Q ) ` ! @.yXyXyXyXuXyXyXyXyXyXyXyXyXyXuXyX",
"yXyXyXyXyXyXyXyXyXyXyXyXyXyXyX&.I ! ! E >.hXCXDXAXuXxXpX,Xb * * % $ p h v uXyXuX;.` Q P ` ( ! *.wXyXyXyXyXyXyXyXyXyXyXyXyXyXyXyX",
"yXyXyXyXyXyXyXyXyXyXyXyXyXyXyX2X@.%.%.,.CXAXHXHXHXGXAXVXVXpX5X*XO.].%Xv -XCXAXxX4X/ _ E P P Y 1XyXyXyXyXyXyXyXyXyXyXiXwXyXyXyXyX",
"yXyXyXyXyXyXyXyXyXyXyXyXyXyXyXyXyXuXVXAXSXFXHXHXHXFXsX%X,XaXaXsXxXpX*Xv *XsXFXFXDXiXfX*.*.fX5XyXiXwXyXyXyXyXyXyXwXiXyXyXyXyXyXyX",
"yXyXyXyXyXyXyXuXyXyXyXyXyXyXyXyXuXVXAXDXFXFXFXGXDXCXpX%Xb ,X*XaXuXxX*Xn n rXZXFXGXGXDXZXxXpXaXyXyXyXyXyXyXyXyXyXyXyXyXyXyXyXyXiX",
"yXyXyXyXyXyXyXyXyXyXyXyXyXyXyXiXCXDXZXVXCXVXCXVXaX*X*Xb v %Xm ZXAXVXm h d %X5XZXAXHXHXGXHXGXGXVXpXyXyXyXyXyXyXyXyXyXyXyXyXyXyXwX",
"yXyXyXyXyXyXyXyXyXyXuXyXyX2X5XVXDXFXsX:X:X:X,X,X,Xh h d m b v rXuX:Xb ;Xh h v *XwXpXCXZXZXZXAXAXAX2X2XrXrXyXyXyXyXyXyXyXyXyXyXyX",
"yXyXyXyXyXyXyXyXyXyXyXwX=.^ ..,.SXZXrX=X:X2XyXyXuXb d p iX:X-XDXDXxXm iXm g :XH n n H H O.].+.,. .^ #.=.<X2XyXwXyXiXyXyXyXyXyXyX",
"yXyXyXyXyXyXyXyXyXyXwXX.( ` ` ( ..gX9XrXuXyXyXyXyX].# h rX,X>XDXFXVX].O.*Xh rXyXrX,X8X*XO.@./ ( _ _ ( U D %XuXuXyXyXyXyXyXyXyXyX",
"yXyXyXyXyXyXuXyXyXyX<XW Y ) E O.Y >.tXyXyXyXyXyXyX-X$ -XyXm -XZXAXAX-Xm m v yXyXyXyXyXyX5X:.Y O.! ( X.W F =XuXuXyXyXyXyXyXyXyXyX",
"yXyXyXyXyXyXyXyXyXyX@.X.o.E I O.Y  .uXuXyXyXyXyXyX*Xg ,XpX].5XVXZXAX9XG.].m ,XuXyXyXyXyXyX..Y H I R O.X.+.wXiXyXyXyXyXyXyXyXyXyX",
"yXyXyXyXyXyXyXyXyXyX3X{ A B V I ] ,.yXyXyXyXyXyXyX-Xh G.].G.uXVXZXZXpXb m G.rXyXyXyXyXyXeX,.( I V B U { 3XyXwXyXyXyXyXyXyXyXyXyX",
"yXyXuXyXyXyXyXyXyXyXrXG M N N U ,.tXyXyXyXyXuXrXuX=X*Xh G.0XpXxXxXxXiXF.m n rXyXyXyXyXyXuXuXgXU N N M +.wXyXyXyXyXyXyXyXyXyXyXyX",
"yXyXyXyXyXyXyXyXyXyXwXJ N N N A 5XyXyXyXyXyXyXrXuX].m f >XuXsXsXxXxXVXiXh m rXyXrXyXyXrXuXyX4XA N N N J yXyXyXyXyXyXyXyXyXyXyXyX",
"yXyXyXyXyXyXyXyXyXyXyXJ B M M T ..:.,.6XrX@.=XuXuX*X* p v &X=XH n v j h d ].yXyX+.@.uX4X,.:.:.T M N B J yXyXyXyXyXyXyXyXyXyXyXyX",
"yXyXyXyXyXyXyXyXyXyXyXwXX.T R Q ( ' ~ I { ] 3XyXuXrXm @ % * & j D D C j j 9XyXyX1X] { Y ) ` ~ ~ R T X.rXyXyXyXyXyXyXyXyXyXyXyXyX",
"yXyXyXyXyXyXyXyXyXyXyXtX..` ` Q ! ` _ ! L  .rXyXyXyXm d h G.b b v b -X].b *XyXyXrX .L E _ ` Q ~ ` `  .wXyXyXyXyXyXyXyXyXyXyXyXyX",
"yXyXyXyXyXyXyXyXyXyXyX2X/ _ ` ( P ( _ ! E *.yXyXyXrXc {.}.}.lXbXzXcXzXlX XqXrXyXwX;.I ! _ ( P ( ` ` ^ 2XyXyXyXyXyXyXyXyXyXyXyXyX",
"yXyXyXyXyXyXyXyXyXyXyXwX&._ ` _ ~ P I P { 1XyXyXuX,X XzXzX}.].kXkXzX#XkXzXnXeXuXyX1X^ R I P Q ` ` _ &.rXyXyXyXyXyXyXyXyXyXyXyXyX",
"yXyXyXyXyXyXyXyXyXyXyXyX2X&./ ) ) _ ^ %.3XrXyXyX9XqXzXnXNXnX#X|.{.{.|.eXkXnXnXyXyXtX2X%.} ) ' ) } &.2XyXyXyXyXyXyXyXyXyXyXyXyXyX",
"yXyXyXyXyXyXyXyXyXyXyXyXuXwX2X3X3X3X2X0X8X(.T.I.Y.zXmXnXeXeXqX}.c A.S.{.kXvXNXvX/.T./.8X>X3X@.3X2XwXuXyXyXyXyXyXyXyXyXyXyXyXyXyX",
"yXyXyXyXyXyXyXyXyXyXyXyXyXtXwX0X).(.P.P.n.v.l.z.@XMXBXmXzX XH.l $ $ l }. XzXmXNXkXz.s.l.x.P.(.8X0XyXyXyXyXyXyXyXyXyXyXyXyXyXyXyX",
"yXyXyXyXyXyXyXyXyXyXyXyX0X(.P.x.l.l.v.P._.!.E.I.zXBXBXNXbXkXS.1 1   g S.kXbXnXNXnX(.l.l.s.l.s.l.x.I.).wXwXyXyXyXyXyXyXyXyXyXyXyX",
"yXyXyXyXyXyXyXyXyXwX8XI.v.l.s.z.l.v.P._.jX_.W._.bXBXNXMXkX@X{.K.x.i < D.{.lXbXNXBXjXv.l.l.l.l.l.s.s.s.x.(.8XyXrXyXyXuXyXyXyXyXyX",
"yXyXyXyXyXyXtXwX).I.z.s.l.l.l.l.l.E.P._.`._.Q.@XMXBXBXbXlX XK.W.E.W.C.l |.|.zXMXNXnXQ.R.R.l.l.c.z.l.s.l.l.l.P.0XyXyXyXyXyXyXyXyX",
"yXyXyXyXyXwX0XT.x.l.l.l.l.v.v.R.E.E.E._.!._.I.lXNXBXNXzX XK.b.R.v.n.L.V.x S.|.bXMXMX).E.E.E.R.R.v.v.z.l.l.s.s.l.(.0XyXyXyXyXyXyX",
"yXyXyXyXyX).P.s.l.l.l.l.v.E.E.E.E.E.E.E.E.x.Y.cXBXBXMX#XZ.p.y.y.p.p.p.u.V.c S.lXbXMXkXL.W.W.W.E.E.E.v.c.z.l.l.l.l.x.8XyXyXyXyXyX",
"yXyXyXwX(.c.s.l.v.z.E.E.E.E.E.E.E.v.s.p.p.i.Y.cXBXMXcXU.u.p.p.p.p.a.a.p.i.a g D.|. XY.u.d.h.k.R.E.E.E.E.n.v.l.l.s.l.z.).yXyXyXyX",
"yXyXyX/.z.l.z.v.v.v.E.E.E.R.l.p.p.p.y.y.u.r.l zXMXbX@XJ.a.d.a.h.d.d.h.d.i.u a l l l r.p.p.p.y.y.a.c.E.E.E.E.v.c.l.l.l.l.).yXyXyX",
"yXyX).x.l.v.l.v.n.R.R.c.s.p.p.p.p.p.p.p.i.s g c  X XZ.i.h.h.h.h.j.h.j.j.C.a p p g i i.d.d.p.p.y.a.a.p.f.n.E.R.v.z.l.l.l.x.8XyXyX",
"yX9XP.l.z.v.v.m.m.v.f.y.y.p.p.p.p.p.d.d.J.a d d f g V.t.w.q.7.6.6.6.7.7.V.A.S.p $ r.h.h.d.d.d.d.a.a.p.p.a.f.n.E.v.v.l.l.s.I.wXyX",
"yX).z.l.v.v.m.m.c.a.y.y.p.a.a.d.h.d.g.L.C.a p f f y 3.<.1.<.1.3.1.1.w 0.x D.S.x x y 5.8.e.u.d.d.h.h.a.p.p.a.a.c.m.n.v.l.l.l.8XyX",
"yXI.l.z.n.m.m.c.a.y.p.a.a.a.h.h.h.d.t.0.y p p d a y 1.1.1.2.2.4.2.4.2.0.x D.U.[.V.6.1.1.<.1.5.e.p.h.j.h.a.a.p.y.f.n.v.v.v.l.(.yX",
"uXP.l.v.m.m.f.d.d.d.a.a.h.h.j.u.e.5.<.0.a # p p y 2.4.4.4.6.7.6.6.5.5.x D.{.U.D.V.q.5.2.1.1.<.<.2.6.p.j.j.d.d.p.y.f.m.m.v.l.I.wX",
"yXK.z.n.R.f.d.b.L.L.k.j.j.h.e.5.1.<.<.3.l # # 1 r 5.5.6.6.8.e.e.8.q.q.A.c [.A.{.U.e.6.5.4.2.3.<.2.<.<.7.u.k.f.d.a.a.c.n.n.c.I.yX",
"yXI.v.E.c.p.d.L.Q.L.k.k.p.8.1.<.1.1.1.0.S.< # y q.8.8.9.w.w.w.9.w.w.V.c D.S.{.J.J.e.8.6.5.4.7.4.4.2.2.<.<.t.k.j.h.a.a.b.x.z.(.yX",
"yX).v.n.a.y.d.j.L.L.h.e.4.<.1.1.<.4.3.0.B.A.x q.8.6.5.2.<.e w 9 7 r a c H.H.x 0.0.e.w.9.8.8.q.w.q.7.4.2.1.2.9.k.j.j.d.s.v.R.8XwX",
"yXwXP.v.p.p.a.j.L.L.u.2.<.4.2.4.4.5.0.B.oXoXB.9 4 > > > ; ; : : - 9 c H.A.l s 8 2 3 e e 5.9.t.u.t.w.6.4.2.2.1.9.k.k.d.a.v.I.wXyX",
"yXyX8XR.p.p.h.k.L.k.6.1.1.5.4.5.7.8.0.~.oXoXN.- : ; ; > > > , 2 6 M.l F.H.S.9 ; : : : ; ; 7 r 8.w.w.7.5.4.4.1.1.e.k.h.p.L.8XyXyX",
"yXyXwX(.p.p.j.k.k.e.1.1.1.4.5.6.7.0.y $XoX.Xt : : 2 2 2 3 4 5 7 M.+XOX+X[.A.y , 2 : : : ; : , 6 e 3.8.8.5.4.1.1.6.j.j.L.).yXyXyX",
"yXyXyXwXT.h.j.k.k.8.1.1.5.6.6.4.r 9 y XXoX+X9 2 2 4 7 7 5 q 0 e qX$XoXoXXXN.q 5 2 2 2 2 : : : : ; , e 6.6.5.4.2.2.u.W.T.yXyXyXyX",
"yXyXyXyX0X).Q.k.L.4.1.5.5.6.e 2 6 r y S.B.M.6 4 4 7 q q 0 0 w 0 1 eX$XoXXXN.e e w q 5 2 2 2 ; : ; ; ; 7 4.5.4.2.1.C.8X0XyXyXyXyX",
"yXyXyXyXyXyXqXT.L.1.1.5.6.e 2 ; , 9 r r r 9 7 5 0 q q q ; ; ; - O < #XOXXXN.8 8 0 w w q 4 2 2 : ; ; ; ; 3 5.5.0.Z.qXyXyXyXyXyXyX",
"yXyXyXyXyXyXyXyX8XM.5.5.2.2 ; ; ; 2 8 9 9 9 0 w w ; - . . . . . . . l $XoX.XO . . - > 0 q 0 2 2 : ; ; - : r C.7X9XyXyXyXyXyXyXyX",
"yXyXyXyXyXyXyXyXyX0X).C.r ; ; : : : 2 3 4 0 w 3 o . . . . . . . . . O m #XOXt . . . . o 3 q 0 4 > : - 9 x &XwXyXyXyXyXyXyXyXyXyX",
"yXyXyXyXyXyXyXyXyXyXyXyX;Xb y 8 : ; 2 3 5 w 3 o . . . . . . . . . . . O p c p . . . . . . 3 q 7 9 z F.8XrXyXyXyXyXyXyXyXyXyXyXyX",
"yXyXyXyXyXyXyXyXyXyXyXyXyXyXwX;XF.x y e q q ; . . . . . . . . . . . . . . . . . . . . X + 1 Z.H.>X0XyXyXyXyXyXyXyXyXyXyXyXyXyXyX",
"yXyXiXyXyXyXyXyXyXyXyXyXyXyXyXyXyXyX0X8XG.Z.z < 1 O O X X . . X . . X X X O + < a l v ^.;X,XrXyXyXyXyXyXyXyXyXyXyXyXyXyXyXyXyXyX",
"yXyXyXyXyXyXyXyXyXyXyXyXyXyXyXyXyXyXyXyXyXyXyXrX,X:X-X-X&X%X%X].%X%X].*X-X-X>X9X9XyXyXyXyXyXyXyXyXyXyXyXyXyXyXyXyXyXyXyXyXyXyXyX",
"yXyXyXyXyXyXyXyXyXyXyXyXyXyXyXyXyXyXyXyXyXyXyXyXyXyXyXyXyXyXuXyXyXyXyXyXyXyXyXrXyXyXyXyXyXyXyXyXyXyXyXyXyXyXyXyXyXyXyXyXyXyXyXyX"
};
