/* XPM */
static char *_2A1721706112[] = {
/* columns rows colors chars-per-pixel */
"64 64 246 2 ",
"   c #31221B",
".  c #02012A",
"X  c #0B0A2E",
"o  c #050435",
"O  c #181734",
"+  c #342A27",
"@  c #262937",
"#  c #2B2E32",
"$  c #333337",
"%  c #4D3A32",
"&  c #603724",
"*  c #574234",
"=  c #6E462D",
"-  c #080546",
";  c #060457",
":  c #07045A",
">  c #09055C",
",  c #0C085A",
"<  c #181755",
"1  c #28284B",
"2  c #373B47",
"3  c #393A59",
"4  c #0A0763",
"5  c #0D0966",
"6  c #0E096C",
"7  c #130C68",
"8  c #181666",
"9  c #0F0A75",
"0  c #120B74",
"q  c #160E77",
"w  c #1A1276",
"e  c #221977",
"r  c #17286C",
"t  c #37356A",
"y  c #2A2775",
"u  c #332E72",
"i  c #493D54",
"p  c #3C4350",
"a  c #354C71",
"s  c #474548",
"d  c #564C48",
"f  c #444B57",
"g  c #544E50",
"h  c #585658",
"j  c #6D5449",
"k  c #70635D",
"l  c #485467",
"z  c #4E526B",
"x  c #444A77",
"c  c #4B5977",
"v  c #4E6176",
"b  c #56647A",
"n  c #696668",
"m  c #726B6D",
"M  c #6A6B73",
"N  c #767477",
"B  c #79797C",
"V  c #A23731",
"C  c #D31D21",
"Z  c #E71C23",
"A  c #D12B27",
"S  c #B85417",
"D  c #8C5031",
"F  c #AD6F2B",
"G  c #D87735",
"H  c #8F655B",
"J  c #AB7757",
"K  c #B96C70",
"L  c #CF7E47",
"P  c #A3921D",
"I  c #B7AC08",
"U  c #B6AB13",
"Y  c #AFA72D",
"T  c #C79310",
"R  c #CDB20C",
"E  c #C5B90A",
"W  c #C18D2B",
"Q  c #CAAE35",
"!  c #D6C805",
"~  c #D2C80A",
"^  c #E7D903",
"/  c #E9D317",
"(  c #EAD719",
")  c #EEE103",
"_  c #F4E606",
"`  c #FBED02",
"'  c #FFF200",
"]  c #FDF00A",
"[  c #EEE01D",
"{  c #F6E917",
"}  c #D5C726",
"|  c #E2CA2D",
" . c #EBD826",
".. c #E6D736",
"X. c #EFE430",
"o. c #8F8D54",
"O. c #AE8C4F",
"+. c #B4A653",
"@. c #8E896F",
"#. c #B08D71",
"$. c #B6A972",
"%. c #C9915B",
"&. c #E79658",
"*. c #CAB24E",
"=. c #CAB458",
"-. c #D19972",
";. c #CAB170",
":. c #D8C94F",
">. c #E1D550",
",. c #F4EA59",
"<. c #D6CD69",
"1. c #D1C976",
"2. c #210F86",
"3. c #220F88",
"4. c #231285",
"5. c #25118A",
"6. c #29148E",
"7. c #2C1C8A",
"8. c #2B1692",
"9. c #2E1894",
"0. c #311B94",
"q. c #341D9B",
"w. c #381E9F",
"e. c #352F8A",
"r. c #362396",
"t. c #3A229C",
"y. c #3B22A0",
"u. c #4E398A",
"i. c #4628A8",
"p. c #4C2AAE",
"a. c #4D34AC",
"s. c #5234AA",
"d. c #4E2AB1",
"f. c #522DB2",
"g. c #5E29B2",
"h. c #5532B5",
"j. c #5C32B6",
"k. c #5837B7",
"l. c #5836B9",
"z. c #5C3BBB",
"x. c #6239A8",
"c. c #622CB4",
"v. c #6532B5",
"b. c #663AB7",
"n. c #6534B9",
"m. c #6A35BA",
"M. c #6D3ABD",
"N. c #703DBE",
"B. c #2A5596",
"V. c #176FA4",
"C. c #376FAA",
"Z. c #4F5091",
"A. c #615B98",
"S. c #556988",
"D. c #5B6F8F",
"F. c #5B7497",
"G. c #6A708D",
"H. c #7A7A84",
"J. c #657A99",
"K. c #5947AD",
"L. c #6C45B5",
"P. c #6342BB",
"I. c #7349B7",
"U. c #6756B7",
"Y. c #7758B1",
"T. c #5B76AB",
"R. c #6D74AE",
"E. c #7A65B4",
"W. c #6F3FC0",
"Q. c #723FC0",
"!. c #7542C2",
"~. c #744FC2",
"^. c #7B49C4",
"/. c #867F80",
"(. c #8875AF",
"). c #8570B2",
"_. c #8A7BB1",
"`. c #8555C7",
"'. c #9375CB",
"]. c #788595",
"[. c #5A84B1",
"{. c #6B85A5",
"}. c #758CAE",
"|. c #7896B8",
" X c #3789CE",
".X c #2990E3",
"XX c #3997E3",
"oX c #498ECA",
"OX c #7A94C5",
"+X c #7BA4C7",
"@X c #4399E4",
"#X c #56A4E3",
"$X c #838285",
"%X c #89878B",
"&X c #938D8D",
"*X c #8C8B95",
"=X c #928F96",
"-X c #939294",
";X c #98959A",
":X c #9B999C",
">X c #AE9187",
",X c #AA9A89",
"<X c #A69B98",
"1X c #B5A687",
"2X c #AAA49C",
"3X c #B5AD90",
"4X c #B9B595",
"5X c #8981A8",
"6X c #9389AC",
"7X c #9C99A8",
"8X c #8E90B2",
"9X c #A39FA2",
"0X c #A29EAC",
"qX c #87A5BF",
"wX c #A4A2A5",
"eX c #AAA7A7",
"rX c #A7A6AB",
"tX c #ADADB1",
"yX c #AFAEB2",
"uX c #B4B4B7",
"iX c #BCBABC",
"pX c #C2BB8C",
"aX c #F7B583",
"sX c #DBD5A0",
"dX c #8A94C4",
"fX c #89A9CA",
"gX c #8BAFD5",
"hX c #93B8DA",
"jX c #BDBDC1",
"kX c #95BDE3",
"lX c #A3C1DF",
"zX c #9BC6E9",
"xX c #A3C9E9",
"cX c #A7D3F4",
"vX c #ABD3F0",
"bX c #ABD5F4",
"nX c #AED9F5",
"mX c #C8C8C9",
"MX c #D0D0CD",
"NX c #D4D3D5",
"BX c #DBDADB",
"VX c #E0DFDE",
"CX c #E4E4E3",
"ZX c #ECEBEB",
"AX c #F0EFEF",
"SX c #F5F5F5",
/* pixels */
"rXrXrXrXrXrXrXrXrXrXrXrXrXrXtXrXrXrXrXrXrXrXrXeXrXrXrXrXrXrXrXrXrXrXrXrXrXrXrXrXrXrXrXrXrXrXrXrXrXrXrXrXrXrXrXrXrXrXrXrXrXrXrXrX",
"rXrXrXrXrXrXrXrXrXrXrXrXrXrXrXrXrXrXrXrXrXrXrXrXrXrXrXrXrXrXrXrXrXrXrXrXrXrXrXrXrXrXrXrXrXrXrXrXrXrXrXrXrXrXrXrXrXrXrXrXrXrXrXtX",
"rXrXrXrXrXrXrXrXrXrXrXrXrXrXrXrXrXrXrXrXrXrXrXrXrXrXrXrXrXrXrXrXrXrXrXrXrXrXrXtXrXrXrXrXrXrXrXrXrXrXrXrXrXrXrXrXrXrXrXrXrXrXrXrX",
"rXrXrXrXrXrXrXrXrXrXrXrXrXrXrXrXrXrXrXrXrXrXrXrXrXrXrXrXrXrXrXrXrXrXrXrXrXrXrXrXrXrXrXrXrXrXrXrXrXrXrXrXrXrXrXrXrXrXrXrXrXrXrXrX",
"rXrXrXrXrXrXrXrXrXrXrXrXrXrXrXrXrXrXrXrXrXrXrXrXrXrXrXrXrXrXrXrXrXrXrXrXrXrXrXrXrXrXrXrXrXrXrXrXrXrXrXrXrXrXrXrXrXrXrXrXrXrXrXrX",
"rXrXrXrXrXrXrXrXrXrXrXrXrXrXrXeXwXwXrXrXrXrXrXrXrXrXrXrXrXrXrXrXrXrXrXrXrXrXrXrXrXrXrXrXrXrXrXeXrXrXrXrXrXrXrXrXrXrXrXrXrXrXrXrX",
"rXrXrXrXrXrXrXrXrXrXrXrXrXrX2X=.>.1.eXrXrXrXrXrXrXrXrXrXrXrXrXrXrXrXrXrXrXrXrXrXrXrXrXrXeXpX=.2XrXrXrXrXrXrXrXrXrXrXrXrXrXrXrXrX",
"rXrXrXrXrXrXrXrXrXrXrXrXrX0X=._ ' ] >.eXrXrXrXrXrXrXrXrXrXrXrXrXrXrXrXrXrXrXrXrXrXrXrX4X:.] ' ( ,XrXtXrXrXrXrXrXrXrXrXrXrXrXrXrX",
"rXrXrXrXrXrXrXrXrXrXrXrXrX2X/ ' ' ' { 4XtXtXrXrXrXrXrXrXrXrXrXrXrXrXrXrXrXrXrXrXrXrXrX1.] ' ' ' | 9XrXrXrXrXrXrXrXrXrXrXrXtXrXrX",
"rXrXrXrXrXrXrXrXrXrXrXrXrX2X .' ' ' { 4XrXrXrXrXrXrXrXrXrXrXrX0XrXrXrXrXrXrXrXrXrXrXrX1.' ' ' ' | eXrXrXrXrXrXrXrXrXrXrXrXrXrXrX",
"rXrXrXrXrXrXrXrXrXrXrXrXrXeX$.^ ' ] <.rXrXrXrXrXrXrXwXrXwX<X%.L J @.eXrXrXrXrXrXrXrXrX4X{ ' ' _ =.eXrXrXtXrXrXrXrXrXrXrXrXrXrXrX",
"rXrXrXrXrXrXrXrXrXrXrXrXrXrXK S ) ] pXeXrXrX2XwXrXrX0X9X>XL &.&.G G J wXrXrXrX0X0XrXrXrX<.' ^ G >XtXrXrXrXrXrXrXrXrXrXrXrXrXrXrX",
"rXrXrXrXrXrXrXrXrXrXrXrXrXrX>XJ ^ ` [ ..<.$.:.<XrXrXrX;XF D D = = = D H rXrXrX$.3XeXpX1.X.] ~ V /.eXeXrXrXrXrXrXrXrXrXrXrXrXrXrX",
"rXrXrXrXrXrXrXrXrXrXrXrXrXrX0X+.^ ` ! I ` ' *.9XrXrXeX%X= & = * = &   % 7XrXeX$.[ X.[ ~ ) ' ~ $.tXtXrXrXrXrXrXrXrXrXrXrXrXrXrXrX",
"rXrXrXrXrXrXrXrXrXrXrXrXrXrX9XQ ^ ' ` ~ ) ' ;.rXrXrXeXk % = -.&.%.=   + $XeXrX2X[ ` I ! _ ' ~ $.rXrXrXrXrXrXrXeXrXrXrXrXrXrXrXrX",
"rXrXrXrXrXrXrXrXrXrXrXrXrXrXrX=.U E ~ I '  .1XrXrXrX7Xh + = #.-.J D   % n wXrXwX..` ^ I ' ) ~ +.rXrXrXrXrXrXrXrXrXrXrXrXrXrXrXrX",
"rXtXrXrXrXrXrXrXrXrXrXrXrXrXrXwX$.*.Q  .:.3XwXrXrXrXB d j J -.-.#.J % * n 0XrXrX1X .` E I U Q 1XrXrXrXrXrXrXrXrXrXrXrXrXrXrXrXrX",
"rXrXrXrXrXrXrXrXrXrXrXrXrXrXrXrXrX<X2X2XwXrXrXrXrX:X].N j o.aX-.J J % d %XrXrXrXrXeX$.:.=.$.2XwXrXrXrXrXrXrXrXrXrXrXrXrXrXrXrXrX",
"rXrXrXrXrXrXrXrXrXrXrXrXrXrXrXrXrXrXrXrXrXrXrXrXeX-X:Xn % * -.;.#.d + % B rXrXrXrXrXrXrXrXrXrXrXrXrXrXrXrXrXrXrXrXrXrXrXrXrXrXrX",
"rXrXrXrXrXrXrXrXrXrXrXrXrXrXrXrXrXrXrXrXrXrXrXuXtX-X-X$Xs + j #.H + + s B rXrXrXrXrXrXrXrXrXrXrXrXrXrXrXrXrXrXrXrXrXrXrXrXrXrXrX",
"rXrXrXrXrXrXrXrXrXrXrXrXeX<XeXrXwXtXrXrXtXuXNXZXBX2XjXuX:XM s * $ # * h n rXrXrXrXrXrXrXeXwXrXeX2X<XeXeXeXrXrXrXrXrXrXrXrXrXrXrX",
"rXrXrXrXrXrXrXrXrXrXrX<X+.|  .<.3XwXtXtXMXBXSXSXSXAXBXmXmXuXeX-X$X$X].M *XMXVXjXrXrXrXrXeXeX4X<...| #.<XrXrXrXrXrXrXrXrXrXrXrXrX",
"rXrXrXrXrXrXrXrXrXrX<X*._ ] ' ) X.4XmXNXBXZXSXSXSXZXiX].:XuXiXjXjXtX%Xk %XiXZXZXVXjXtXrXrX4X.._ ` ' ^ O.eXrXrXrXrXrXrXrXrXrXrXrX",
"rXtXrXrXrXrXrXrXrXrX>XW +._ E o.Y ,.BXCXZXZXAXSXCXMXtX@.M :X].iXtXiX-Xn N 9XNXZXZXAXCXNXmX>.Y o.R _ +.Q >XrXrXrXrXrXrXyXrXrXrXrX",
"rXrXrXrXrXtXrXrXrXrX#.+.o.R Y @.Y ,.MXMXBXMXMXjXiX-X-XM n ].@.NXBXmXN h g ].<XNXBXSXAXAXSX,.P @.Y ! o.+.#.rXrXrXrXrXrXrXrXrXrXrX",
"rXrXrXrXrXrXrXrXrXrX$.} F A S E [ sXiX&X-X-X:X:X:Xh h p B M n :XeX-Xn -Xh h n @.2XuXNXNXNXsX[ U S A F | $.rXrXrXrXrXrXrXrXrXrXrX",
"rXrXrXrXrXrXrXrXrXrX9X#.A Z Z W sXNX2X-X-X:XrXrXeXM p s tX].-XCXCXiXN eXB g -XB N k N $X@.H.+.T Z Z Z J >X<XrXrXrXrXrXrXrXrXrXrX",
"rXrXrXrXrXrXrXrXrXrX0XK Z Z Z F VXuX9X2XrXrXwXrXeX$X# h wX:X:XCXZXMX]./.%Xh wXrX9X:X-X*X$X@.@.F Z Z Z V H $XrXrXrXrXrXrXrXrXrXrX",
"rXrXrXrXrXrXrXrXrXrXrXK A C C T X.,.1.4X2X$.&XrXeX].$ &XtXN ].NXVXBX%XB B n eXwX,X$.2X4X1.>...T C C A J k -XeXrXrXrXrXrXrXrXrXrX",
"rXrXrXrXrXrXrXrXrXrXrX0XO.T R ! ^ ' ^ U } [ 1XrXeX&Xf :XuX$XwXmXNXBX:XH.].N wXrX,X_ } P _ ' ^ ^ R T J <XeXrXrXrXrXrXrXrXrXrXrXrX",
"rXrXrXrXrXrXrXrXrXrXrX,X( ' ' ! ! ' ' ~ P ..wXrXeX%Xh B H.B tXMXMXmXuXM B $XeXrXwX..P ~ ` ' ! ^ ' ` | rXrXrXrXrXrXrXrXrXtXrXrXrX",
"rXrXrXrXrXrXrXrXrXrX0X@./ ' ' ) I ) ` ~ E =.wXrXrX&X-Xh ].-XtXjXlXjXtXB B M wXrXwX=.U ~ _ ) I ) ' ` / <XrXrXrXrXrXrXrXrXrXrXrXrX",
"rXrXrXrXrXrXrXrXrXrXrX;XQ ` ` ` ^ I U E | ,XrXrX0X/./.g -XtXiXjXjXiXmXuXh N 0XrXwX,X/ I U E ! ' ' ` *.9XrXrXrXrXrXrXrXrXrXrXrXrX",
"rXrXrXrXrXrXrXrXrXrXrXrX>X*. ._ _ _ / *.1XrXrX0X0X/.i % n %X%X/.m k j h i H.0X0XrXeX<X*. .` ] _  .*.<XrXrXrXrXrXrXrXrXrXrXrXrXrX",
"rXrXrXrXrXrXrXrXrXrXrXrXrX0X,X1X1X1X,X7X_.(.).I.I.b.x + & d & j H H D j d x.b.L.Y.Y.(.6X;X1X;.1X<XeXrXrXrXrXrXrXrXrXrXrXrXrXrXrX",
"rXrXrXrXrXrXrXrXrXrXrXrXrXrX0X0X_.).I.I.M.v.c.c.c.c.u.s z M N M n M H.].M u.c.g.g.c.g.c.b.L.E.6X7XwXrXrXrXrXrXrXrXrXrXtXrXrXrXrX",
"rXrXrXrXrXrXrXrXrXrXrX0X6X).Y.v.c.c.m.I.`.^.Q.m.m.v.c ].}.].gXzXgXkXgXfXdX}.b.c.c.c.c.c.g.c.g.c.v.Y._.7XrXrXrXrXrXrXrXrXrXrXrXrX",
"rXrXrXrXrXrXrXrXrX0X6XY.m.c.c.c.c.v.I.`.'.`.Q.Q.N.I.|.kXlX}.].+XfXhXfXfXkXxX8XN.n.m.v.v.c.c.c.c.c.c.c.b.Y.6XrXeXrXrXrXrXrXrXrXrX",
"rXrXrXrXrXrXrX9X_.Y.v.c.g.c.c.c.m.M.!.`.'.`.^.^.I.}.hXxXvXxXfX}.}.{.|.fXfXxXxX).M.M.W.m.m.m.n.n.c.c.c.c.c.c.Y.6XrXrXrXrXrXrXrXrX",
"rXrXrXrXrX0X7XE.v.c.c.c.c.c.W.Q.N.Q.!.`.`.^.^.!.E.hXbXxXqXqX|.{.v b G.J.fXxXbXxX`.Q.Q.Q.Q.Q.M.M.m.m.c.c.c.c.g.c.).0XrXrXrXrXrXrX",
"rXrXrXrXrX5XL.c.c.c.W.c.Q.m.Q.Q.Q.Q.Q.!.Q.M.j.k.OXcXbXvXgX8XJ.h $ $ l }.+XgXvXvXfXL.P.!.!.!.!.W.Q.W.m.m.m.c.c.c.g.b.6XeXrXrXrXrX",
"rXrXeX0X).v.c.c.c.c.m.Q.Q.Q.Q.Q.Q.v.g.d.d.d.p.K.kXbXnXbXzXfXD.t 1 # f D.+XzXcXnXxXE.d.d.f.l.W.W.Q.Q.Q.Q.W.m.c.c.g.g.v._.rXrXrXrX",
"rXrXrX).v.c.v.v.c.W.W.W.Q.Q.c.d.d.p.p.d.d.d.f.R.zXnXbXcXfX|.{.K.a.t $ F.{.gXzXnXnXfXh.d.d.d.d.d.f.W.Q.Q.Q.m.n.c.c.c.c.c._.eXrXrX",
"rXrX_.b.c.c.m.m.m.W.W.W.g.d.d.d.d.p.p.d.h.h.K.OXcXnXbXkXgX|.A.l.l.h.u.l [.|.hXxXnXlXU.h.f.d.d.d.d.d.d.j.W.Q.W.W.v.c.c.g.b.6XrXrX",
"rX0XI.c.v.m.m.N.Q.W.j.p.p.p.d.d.d.d.f.k.z.P.U.+XcXnXnXkX|.Z.r.9.9.9.9.u l F.|.zXvXvXE.z.l.h.h.h.d.f.d.d.d.j.W.W.m.v.c.c.c.Y.9XrX",
"rX(.c.c.m.M.Q.I.j.d.p.p.d.f.h.d.h.h.l.P.k.K.T.zXnXnXcX+XZ.7.4.4.2.2.2.4.u b F.+XzXvXfXe.y.p.h.h.j.h.f.d.d.d.f.n.Q.M.m.v.c.c.6XrX",
"rXY.c.n.M.M.Q.c.d.d.d.d.f.h.h.l.l.k.y.t.7.e.T.zXcXcXkXR.e.4.6.6.5.5.5.5.7.2 p {.}.|.F.7.5.5.6.t.d.l.l.l.f.f.d.d.g.W.m.m.v.c.).wX",
"eXI.c.m.Q.Q.j.f.h.h.h.h.h.h.k.h.y.8.2.3.4.t v +XcXzXOXB.6.9.9.0.9.8.8.6.e.3 p l l l e.5.5.3.2.2.3.9.p.l.l.l.f.d.d.j.N.M.M.c.Y.rX",
"rXY.n.N.W.j.f.P.L.P.k.k.l.k.y.9.3.2.2.3.7.3 f b |.|.D.r.9.q.w.y.q.9.9.9.e.p $ p f 3 r.6.6.5.5.5.3.2.2.9.a.l.l.j.f.d.n.M.M.v.Y.rX",
"rXY.m.M.n.d.h.P.~.P.z.l.d.9.4.5.3.3.5.6.e.3 s s d f e.r.w.w.y.y.y.y.q.q.Z.S.S.p $ u r.0.8.9.0.7.8.6.5.5.5.i.z.l.l.f.f.m.m.n.).rX",
"rX(.m.M.f.p.h.z.P.P.z.i.5.2.3.5.3.6.6.9.u.p p * g t 7.7.e w w 0 0 0 6 y c F.F.c x r.y.w.q.q.t.t.r.0.6.2.3.3.t.z.z.h.f.j.M.m.6XrX",
"rX0XI.n.p.d.h.l.P.P.h.6.5.5.5.6.8.9.9.r.t p p p p < , ; ; ; ; : : : : 3 c F.T.[.a 8 7 4.6.q.t.s.i.t.9.6.5.5.3.w.z.z.h.f.n.Y.0XrX",
"rXrX_.M.d.d.h.l.z.l.9.3.5.6.5.9.0.t.t.e.p $ 2 2 3 ; : , : > 4 > > 4 8 a F.[.[.S.r ; ; ; > 7 e r.t.t.0.9.6.6.3.3.i.z.l.h.L.6XrXrX",
"rXrXrX).d.f.h.z.!.i.2.3.5.5.9.9.q.7.y u l # @ @ < : 5 5 5 5 6 6 6 7 8 b b {.S.x 8 ; > > : : > 5 w 6.q.q.8.5.5.2.5.k.l.z._.rXrXrX",
"rXrXrX0XE.h.l.z.z.9.3.3.6.9.9.5.w 8 u S.F.1 @ 1 8 6 7 6 6 9 9 9 0 w x S.D.D.J.u 5 4 > 4 > : : ; ; , w 0.9.8.5.3.5.a.W.E.0XrXrXrX",
"rXrXrXrXrX(.P.~.P.6.3.6.9.9.e 5 < e u Z.oXv l 8 5 6 0 0 9 9 9 9 q e f b {.F.Z.e q 0 6 5 4 > : : ; ; ; 7 8.8.8.5.3.Z.8X0XrXrXrXrX",
"rXrXrXrXrX0X8XE.P.3.5.8.q.w 4 > , 8 r C.XXXXC.7 9 0 0 6 4 , - - o < b {.S.l p 7 9 0 q 0 6 4 4 : ; ; ; ; 7 6.8.r.A.6XrXrXrXrXrXrX",
"rXrXrXrXrXrXtXrX5XZ.8.8.3.4 ; ; : , r oXXXXXV.q q > - o . . . . X a l F.{.D.@ . o - > 9 0 9 4 4 > ; ; ; ; e Z.5X7XrXrXrXrXrXrXrX",
"rXrXrXrXrXrXrXrX0X0X}.Z.e ; ; ; : > r  X@XXXe.4 o o . . . . . X a oX#XoX[.v 1 . . . . o 4 0 9 6 > > , r z %XrXrXrXrXrXrXrXrXrXrX",
"rXrXrXrXrXrXrXrXrXrXrX0X*XM t 8 > > r  XXXC.8 o . . . . . . . O *X#XXX.X.Xa X . . . . . . 5 0 7 8 x M 6X0XrXrXrXrXrXrXrXrXrXrXrX",
"rXrXrXrXrXrXrXrXrXrXrXrXrXrX7X=XG.x u B.C.B.- . . . . . . . . . # qX#XXX.XV.X . . . . X O 3 A.G.;X9XrXrXrXrXrXrXrXrXrXrXrXrXrXrX",
"rXrXrXrXrXrXrXrXrXrXrXrXrXrXrXrXrXrX7X=X5XA.z 2 1 O O X X . . X X p +X@X.XV.@ 1 2 z M /.=X7XwXrXrXrXrXrXrXrXrXrXrXrXrXrXrXrXrXrX",
"rXrXrXrXrXrXrXrXrXrXrXrXrXrXrXrXrXrXrXrXrXrXrX7X:X;X=X%X%X].@.].@.].].+X+X|.:X7X0XwXrXrXrXrXrXrXrXrXrXrXrXrXrXrXrXrXrXrXrXrXrXrX",
"rXrXrXrXrXrXrXrXrXrXrXrXrXrXrXrXrXrXrXrXrXrXrXrXrXrXrXrXrXrXrXeXwXwXrXwXwXrXrXrXrXrXrXrXrXrXrXrXrXrXrXrXrXrXrXrXrXrXrXrXrXrXrXrX"
};
