/* XPM */
static char *_5A1721706113[] = {
/* columns rows colors chars-per-pixel */
"64 64 243 2 ",
"   c #2E201A",
".  c #02012A",
"X  c #0B0A2D",
"o  c #11102F",
"O  c #070538",
"+  c #171837",
"@  c #2E2A2D",
"#  c #383537",
"$  c #58311C",
"%  c #4B382E",
"&  c #663C28",
"*  c #44403F",
"=  c #56443C",
"-  c #744D34",
";  c #080545",
":  c #060457",
">  c #070459",
",  c #09065C",
"<  c #0B085B",
"1  c #151357",
"2  c #201E55",
"3  c #292945",
"4  c #383B48",
"5  c #272956",
"6  c #383A57",
"7  c #0A0763",
"8  c #0D0965",
"9  c #0E096B",
"0  c #130C6A",
"q  c #1A1667",
"w  c #0E0A75",
"e  c #120C74",
"r  c #160D78",
"t  c #1D1474",
"y  c #231D6D",
"u  c #241A77",
"i  c #262669",
"p  c #323072",
"a  c #45374E",
"s  c #3D4349",
"d  c #3C4557",
"f  c #3E4461",
"g  c #494749",
"h  c #534B49",
"j  c #454B58",
"k  c #4A525D",
"l  c #575558",
"z  c #675453",
"x  c #65605F",
"c  c #4A5568",
"v  c #5A5C63",
"b  c #4B4F75",
"n  c #485875",
"m  c #566277",
"M  c #686567",
"N  c #716C6E",
"B  c #6C6A74",
"V  c #777679",
"C  c #D31D21",
"Z  c #E71C23",
"A  c #D12B27",
"S  c #B85417",
"D  c #A25A31",
"F  c #AC6E2D",
"G  c #CF7637",
"H  c #885749",
"J  c #866557",
"K  c #986F53",
"L  c #A47253",
"P  c #8B7A75",
"I  c #B56E6D",
"U  c #979119",
"Y  c #B7AC08",
"T  c #B5A614",
"R  c #B7AE12",
"E  c #AF9227",
"W  c #AFA72E",
"Q  c #C59213",
"!  c #CDB20C",
"~  c #C5B90A",
"^  c #CBAF35",
"/  c #D6C805",
"(  c #D2C80A",
")  c #E7D903",
"_  c #E8D111",
"`  c #EBD71A",
"'  c #EEE103",
"]  c #F4E606",
"[  c #FBED02",
"{  c #FFF200",
"}  c #FDF00A",
"|  c #F6EA16",
" . c #D5C828",
".. c #EBD827",
"X. c #E4D231",
"o. c #EFE42F",
"O. c #AE914C",
"+. c #A19851",
"@. c #8E886C",
"#. c #AA836B",
"$. c #B08E71",
"%. c #B8A873",
"&. c #CC8D53",
"*. c #E08640",
"=. c #CBB24D",
"-. c #CAB458",
";. c #D39870",
":. c #CDAE6B",
">. c #ECAA77",
",. c #D7C64D",
"<. c #E2D54F",
"1. c #D6CD69",
"2. c #CFC877",
"3. c #F5EB67",
"4. c #210F86",
"5. c #220F88",
"6. c #25118A",
"7. c #281689",
"8. c #29148E",
"9. c #2B1692",
"0. c #2E1993",
"q. c #311A95",
"w. c #341C9A",
"e. c #372E88",
"r. c #352295",
"t. c #3A239C",
"y. c #3C25A0",
"u. c #563E91",
"i. c #4628A9",
"p. c #4C2AAE",
"a. c #4D33AC",
"s. c #5235AA",
"d. c #4E2BB1",
"f. c #522DB2",
"g. c #5E29B2",
"h. c #5532B5",
"j. c #5C33B6",
"k. c #5837B7",
"l. c #5936B9",
"z. c #5C3BBB",
"x. c #663BAE",
"c. c #622CB4",
"v. c #6532B5",
"b. c #6534B9",
"n. c #6A35BA",
"m. c #663AB8",
"M. c #6D3ABD",
"N. c #703CBE",
"B. c #314684",
"V. c #386DA6",
"C. c #4F4E91",
"Z. c #62468F",
"A. c #655796",
"S. c #576D89",
"D. c #536C8F",
"F. c #58749A",
"G. c #6D6C88",
"H. c #667588",
"J. c #7B7B84",
"K. c #657B99",
"L. c #5A49B0",
"P. c #6B4FAF",
"I. c #6744B9",
"U. c #7348B8",
"Y. c #7759B2",
"T. c #5C78A6",
"R. c #6D74AB",
"E. c #7D63B4",
"W. c #6F3FC0",
"Q. c #723FC0",
"!. c #7442C2",
"~. c #744FC2",
"^. c #794AC4",
"/. c #7E7AC0",
"(. c #857D8F",
"). c #8876AE",
"_. c #8570B2",
"`. c #8A7CB2",
"'. c #8555C7",
"]. c #73859B",
"[. c #5F85B7",
"{. c #6D88AF",
"}. c #748DAA",
"|. c #7A97B5",
" X c #3898E5",
".X c #5F98CB",
"XX c #7A9CC3",
"oX c #868589",
"OX c #968C8F",
"+X c #8E8E92",
"@X c #898996",
"#X c #938F99",
"$X c #979396",
"%X c #9B9A9D",
"&X c #AF928D",
"*X c #AD9B8A",
"=X c #A69B99",
"-X c #B3A588",
";X c #A8A199",
":X c #AAA39D",
">X c #B6B093",
",X c #8981A8",
"<X c #9388AD",
"1X c #9C99A8",
"2X c #928BB0",
"3X c #859BB9",
"4X c #A29FA7",
"5X c #92A0AF",
"6X c #A5A2A5",
"7X c #ABA8A7",
"8X c #A7A6AB",
"9X c #A8A7A9",
"0X c #B3B2AF",
"qX c #B1AFB1",
"wX c #B3B2B5",
"eX c #B8B8BA",
"rX c #C3BC89",
"tX c #DAB7A1",
"yX c #C8C282",
"uX c #EDE69A",
"iX c #CECBAC",
"pX c #849BC6",
"aX c #86A7C7",
"sX c #8AACD2",
"dX c #8DB3D9",
"fX c #95B8D8",
"gX c #BDBCC0",
"hX c #93BEE4",
"jX c #9BC5E7",
"kX c #9FCCF0",
"lX c #A5CBE9",
"zX c #AAD5F3",
"xX c #ACD5F3",
"cX c #A9D5F5",
"vX c #AED9F5",
"bX c #C7C7C8",
"nX c #CFCED0",
"mX c #D8D8D8",
"MX c #E0DFDF",
"NX c #E6E4D5",
"BX c #E7E7E6",
"VX c #EEEEF0",
"CX c #F5F5F4",
/* pixels */
"8X8X8X8X8X8X8X8X8X8X8X8X8X8X8X8X8X8X8X8X8X8X8X8X8X8X8X8X8X8X8X8X8X8X8X8X8X8X8X8X8X8X8X8X8X8X8X8X8X8X8X8X8X8X8X8X8X8X8X8X8X8X8X8X",
"8X8X8X8X8X8X8X8X8X8X8X8X8X8X8X8X8X8X8X8X8X8X8X8X8X8X8X8X8X8X8X8X8X8X8X8X8X8X8X8X8X8X8X8X8X8X8X8X8X9X8X8X8X8X8X8X8X8X8X8X8X8X8X8X",
"8X8X8X8X8X8X8X8X8X8X8X8X8X8X9X8X8X8X8X8X8X8X8X8X8X8X8X8X8X8X8X8X8X8X8X8X8X8X8X8X8X8X8X8X8X8X8X8X8X8X8X8X8X8X8X8X8X8X8X8X8X8X8X8X",
"8X8X8X8X8X8X8X8X8X8X8X8X8X8X8X8X8X8X8X8X8X8X8X8X8X8X8X8X8X8X8X8X8X8X8X8X8X8X8X8X8X8X8X8X8X8X8X8X9X8X8X8X8X8X8X8X8X8X8X8X8X8X8X8X",
"8X8X8X8X8X8X8X8X8X8X8X8X8X8X8X8X9X8X8X8X9X8X8X8X9X8X8X8X8X8X8X8X8X8X8X8X8X8X8X8X8X8X8X8X8X9X9X9X8X8X8X8X8X8X8X8X8XqX8X8X8X8X8X8X",
"8X8X8X8X8X8X8X8X8X8X8X8XqX8X8X8X6X6X8X8X8X8X8X8X8X8X8X9X8X8X8X8X8X8X8X8X8X8X8X8X8X8X8X7X8X8X9X9X8X8X8X8X8X8X8X8X8X8X8X8X8X8X8X8X",
"8X8X8X8X8X8X8X8X8X8X8X8X8X8X=X:.<.2.7X9X8X8X8X8X8X8X8X8X8X8X8X8X8X8X8X8X8X8X8X8X8X8X8X8X7XrX-.;X8X9X9X8X9X8X8X8X8X8X8X8X8X8X8X8X",
"8X8X8X8X8X8X8X8X8X8X8X8X8X4X=.[ { } <.7X8X8X8X8X8X9X8X8X8X8X8X8X8X8X8X8X8X8X8X8X8X8X8X:X<.| { ` *X9X8X8X8X8X8X8X8X8X8X8X8X8X8X8X",
"8X8X8X8X8X8X8X8X8X8X8X8X8X:X` { { { | rX8X8X8X8X8X8X8X8X8X8X8X8X8X8X8X8X8X8X8X8X8X8X8XyX} { { {  .7X8X8X8X8X8X8X8X8X8X8X8X8X8X8X",
"8X8X8X8X8X8X8X8X8X8X8X8X8X:X..{ { { | 0X8X8X8X8X8X8X8X8X8X8X8X8X8XqX8X8X8X8X8X8X8X8X9X2.{ { { { X.7X8X8X8X8X8X8X8X8X8X8X8X8X8X8X",
"8X8X8X8X8X8X8X8X8X8X8X8X9X9X%.) { } 1.9X8X8X8X9X8X8X8X8X8X8X9X8X8X8X8X8X8X8X8X8X8X8X8X>X| { [ ] :.7X8X8X8X8X8X8X8X8X8X8X8X8X8X8X",
"8X8X8X8X8X8X8X8X8X8X8X8X9X9XI S ' } yX7X8X8X7X9X8X8X8X8X8X8X8X8X8X8X8X8X8X8X8X8X9X8X8X9X1.[ ' F &X7X8X8X8X8X8X8X8X8X8X8X8X8X8X8X",
"8X8X8X8X8X8X8X8X8X8X8X8X9X8X&XL ) { o.X.1.%.,.;X8X8X8X8X8X9X8X8X8X8X9X8X8X8X7X%.-X7XrX2.o.} ( D &X9X9X8X8X8X8X8X8X8X8X8X8X8X8X8X",
"8X8X8X8X8X8X8X8X8X8X9X8X8X8X8XO.) { / Y ] [ ,.6X8X8X8X8X8X6X6X6X6X9X9X9X8X8X8X%.o.o.` ( ' { ( $.4X4X8X8X8X8X8X8X8X8X8X8X8X8X8X8X",
"8X8X8X8X8X8X8X9X9X8X8X8X8X8X7X=./ { { ~ ' { :.6X8X8X8X8X6X&XO.*.&.L =X9X8X8X8X;X` { ~ ( ] { ( %.8X8X8X8XqX8X8X8X8X8X8X8X8X8X8X8X",
"8X8X8X8X8X8X8X8X8X8X9X8X8X8X6X-.R ( ~ ~ { ..:X8X8X8X8X6XI G *.*.G F L OX8X8X8X4XX.{ ) Y { ' ( -.4X8X8X9X8X8X8X8X8X8X8X8X8X8X8X8X",
"8X8X8X8X8X9X8X8X8X9X8X8X8X8X8X:X%.=. .X.,.-X8X8X8X8X8X$XD D - $ & $ H z 6X8X8X8X-X..{ R ~ R W -X8X8X8X8X8X8X8X8X8X8X8X8X8X8X8X8X",
"8X8X8X8X8X8X8X8X8X8X8X8X8X8X8X8X6X;X;X6X6X8X8X8X8X9X6XP & % H H - $   % #X8X8X8X8X:X%.,.-.%.:X8X9X8X8X8X8X8X8X8X8X8X8X8X8X8X8X8X",
"8X8X8X8X8X8X8X8X8X8X8X8X8X8X8X8X8X8X8X8X8X8X8X8X8X8X9XM   = >.>.&.D   % V 8X8X8X8X8X8X8X8X8X9X9X8X8X8X8X8X8X8X8X8X8X8X8X8X8X8X8X",
"8X8XqX8X8X8X8X8X8X8X8X8X8X8X8X8X8X8X8X8X8X8X8X8X9X9X+Xl # - L O.K - @ % x 8X8X8XqX8X8X8X8X8X9X9X8X8X8X8X8X8X8X8X8X8X8X8X8X8X8X8X",
"8X8X8X8X8X8X8X8X8X8X9X8X6X=X:X8X8X8X8X8X8X8X8X8X9X6X].l J L tX;.#.$.& h V 6X8X8X6X8X8X8X9X9X9X9X:X4X9X8X8X8X8X8X8X8X8X8X8X8X8X8X",
"8X8X8X8X8X8X8X8X8X8X8X=X%.....1.>X8X8X8X8X8X8X8X9X+X@.V = L >.>.O.L % h oX8X8X8X8X8X8X8X9X7X>X1.X.X.$.1X8X8X8X8X8X8X8X8X8X8X8X8X",
"8X8X8X8X8X8X8X8X8X8X1X&.' [ { ' o.>X8X8X8X8X8X8X7X$X%XN * % $.:.$.%   % V 8X8X8X8X8X8X8X9X>XX.' [ [ ' &.6X6X8X8X8X8X8X8X8X8X8X8X",
"8X8X8X8X8X8X8X8X8X6X&X^ W ] ~ @.W <.9X8X8X8XwXgX0X+X%XOXx # h J z @ # g V 8X8X8X8X8X8X8X0X<.W +.( ' W ^ &X9X8X8X8X8X8X8X8X8X8X8X",
"8X8X8X8X8X8X8X8X8X8X%.O.+.~ T @.W o.9X8XeXgXMXCXBXeXnX0X7X@.M h % s l v N qXwX8X8X8X8X8X9Xo.E J.T ! @.O.$.8X8X8X8X8X8X8XqX8X8X8X",
"8X8X8X8X8X8X8X8X8X8X%. .F A S R | 2.qXeXnXMXCXCXCXCXmXgXbXgX9X6X%X#XoXN $XnXBXbXwX8X8X8X8X2.] T S A E  .*X8X8X8X8X8X8X8X8X8X8X8X",
"8X8X8X8X8X8X8X8X8X8X4X#.C Z Z E yXwXnXmXNXVXCXCXCXBXeXJ.].0X9XgXeXeX+XM oX0XBXVXVXnXeX8X8X8XyXQ C Z C #.7X7X8X8X8X8X8X8X8X8X8X8X",
"8X8X8X8X8X8X8X8X8X8X8XI Z Z Z F iXnXmXMXBXBXBXVXMXiX0X].M %X+XeXwXwX+XM M %XbXVXBXCXVXmXmXeXeXF Z Z Z I 9X8X8X8X8X8X8X8X8X8X8X8X",
"8X8X8X8X8X8X8X8X8X8X8XI A C C Q o.3.uX>XiXrX:XeX7XV ].x M V B nXmXbXN v g V OXbX0XuXBXNXuX3.3.Q C Z A I 7X9X9X8X8X8X8X8X8X8X8X8X",
"8X8X8X8X8X8X8X8X8X8X8X6XO.Q ! / ) } ' T  .| $.1X6Xv k * oXB V 0XqX$XN 7Xl l N V #.)  .W | [ ) ) ! Q O.:X4X9X9X8X8X8X8X8X8X8X8X8X",
"8X8X8X8XqX8X8X8X8X8X8X6X..{ { / ( { [ ( U X.8X8X9XV 4 h wX%X$XBXBXgXV 6XV g %XOX@.X.U ~ } { / ) [ [ ..;.$.$X8X8X8X8X8X8X8X8X8X8X",
"8X8X8X8X8X8X8X8X8X8X8X=X` { { ] Y ' ] ( R ,.8X8X9XoX@ v %XoX+XMXBXmXoXV +XM 6X6X7X-.R ( [ ' Y ] [ [ _ - H OX8X8X8X8X8X8X8X8X8X8X",
"8X8X8X8X8X8X8X8X8X8X8X;X=.[ { { ) Y T Y X.*X7X7X8XoX# $XwXV @XnXmXMX+XV V N 7X9X8X*X_ ~ T ~ ) [ [ [ =.OXP $X8X8X8X8X8X8X8X8X8X8X",
"8X8X8X8X8X8X8X8X8X8X8X4X#.^ ` ] [ ] ` =.*X9X4X4X8X@Xh %X8XJ.8XbXnXmX5XB oXV 1X6X4X6X=X=.` ] [ | ..=.=X4X8X8X8X8X8X8X8X8X8X8X8X8X",
"8X8X8X8X8X8X8X8X8X8X6X$XI $.I %.-X-X&X1X<X).'.U.P.A.v V ].].qXnXnXbXeXV V J.P.P.Y.E.).`.$X-XrX%.;X4X9X9X8X8X8X8X8X8X8X8X8X8X8X8X",
"8X8X8X8X8X8X8X8X8X8X6X+XP %X$X&X`._.Y.N.M.v.c.g.c.A.$Xh V ;XwXwXeXwXwX].V M j.g.g.g.g.c.m.U.E.,X4X8X8X9X8X8X8X8X8X8X8X8X8X8X8X8X",
"8X8X8X8X8X8X8X8X8X8X8X1X(._._.x.c.c.n.U.'.'.Q.Q.b.Z.M l =XwXgXbXgXwXgXwXh G.n.c.c.c.c.c.g.c.g.c.v.Y.`.4X4X8X8X8X8X8X8X8X8X8X8X8X",
"8X8X8X8X8X8X8X8X8X4X,XE.n.c.g.g.c.x.N.'.2X'.!.Q.n.x.a # h x J N x l & % 6 Z.U.M.b.n.c.n.c.c.c.c.c.c.g.n._.<X4X9X8X8X8X8X8X8X8X8X",
"8X8X8X8X8X8X8X8X,XY.v.g.g.c.g.g.c.n.U.'.'.'.'.!.'.N.Z.  % z - z H J H J v Y.^.Q.Q.Q.n.n.n.n.b.b.c.c.c.c.g.c.U.1X8X8X8X8X8X8X8X8X",
"8X8X8X8X8X8X<XY.b.g.c.b.c.g.Q.Q.Q.Q.'.'.'.'.Q.Q.N.N.u.c H.K.@X].H.,X3X|.G.A.^.!.!.Q.Q.Q.Q.Q.W.n.n.v.c.c.c.g.g.c._.4X8X8X8X8X8X8X",
"8X9X8X8X4X`.I.g.c.c.W.c.Q.Q.Q.Q.Q.Q.Q.Q.W.W.j.f.d.s.S.|.|.].aXjXfXjXdXaXfX3XP.h.j.b.m.I.Q.!.!.W.Q.Q.n.b.b.c.c.c.g.m.<X8X8X8X8X8X",
"8X8X8X4X_.m.c.c.c.c.Q.n.Q.Q.Q.Q.W.b.g.g.d.d.p.p.p.P.XXhXlXaX].XXaXsXaXsXfXlXaXk.s.h.d.d.f.l.W.W.Q.Q.Q.Q.W.n.c.c.c.c.c.`.8X8X8X8X",
"8X8X8X_.v.c.v.v.c.W.W.W.Q.W.g.d.d.p.p.p.d.d.d.d.L.{.hXlXlXlXfX}.K.K.|.3XsXlXlXpXI.l.f.f.d.d.p.d.f.W.Q.Q.Q.n.n.b.c.c.c.c.`.8X8X8X",
"8X8X<Xm.c.v.n.n.n.W.W.W.g.p.p.d.d.d.p.d.k.k.h.f.R.jXzXlX3X}.].H.c m c K.aXfXxXlX/.z.l.f.h.d.d.d.d.p.d.j.Q.Q.W.n.b.c.c.g.x.<X8X8X",
"8X4XP.c.v.n.n.N.Q.W.j.p.p.d.p.d.d.d.h.k.z.L.L.L.XXcXvXzXhX3XK.j @ @ m }.aXdXzXzXfXI.h.k.h.h.h.h.f.f.d.d.d.l.W.Q.n.n.c.c.c.Y.4X8X",
"8X`.c.c.n.M.N.N.l.d.p.p.d.d.f.h.h.l.l.L.k.a.y.L.fXvXvXzXfX3XK.p 5 @ 4 S.|.jXzXvXlXR.9.0.i.p.h.h.h.h.f.f.d.d.f.b.N.n.n.v.c.c.<X8X",
"8XY.c.b.M.N.N.c.d.d.d.d.d.f.h.h.l.h.y.y.7.7.0.[.kXvXvXlXsXaXF.e.7.i 4 F.{.XXkXvXvXaXu.4.4.4.9.t.d.l.l.h.h.d.d.d.j.N.n.n.c.c._.4X",
"7XU.c.n.N.N.j.h.h.l.f.h.h.l.l.h.y.9.5.5.5.5.e.XXcXvXvXjXaX{.C.r.0.0.u f [.{.sXjXxXlXC.4.4.4.4.4.5.q.d.l.l.h.h.d.d.g.N.N.n.b.Y.8X",
"8XU.n.M.W.j.f.m.I.I.k.l.k.k.y.9.5.5.5.5.6.6.u.XXcXvXcXhX{.s.r.t.w.w.9.e.f S.}.hXzXzX3X0.6.7.6.7.5.6.4.0.p.z.k.h.f.f.b.M.M.b.Y.9X",
"8XY.n.N.b.d.h.I.~.I.z.k.d.0.5.5.5.5.6.8.8.0.T.hXcXvXkXXXC.y.y.y.y.w.w.w.B.n m XXjXjXpXr.0.0.8.7.9.6.6.5.5.i.z.l.h.f.f.n.m.b._.8X",
"8X`.n.M.f.p.d.z.I.I.z.a.8.4.5.5.6.8.8.0.q.b K.kXcXcXdXF.u t t e e 0 0 t y 6 d S.F.].D.i.w.w.r.t.t.q.8.6.5.6.t.z.z.h.f.j.W.n.<X4X",
"8X4XU.m.d.d.h.l.z.z.h.9.5.8.5.8.8.q.q.w.r.p j pXkXhX[.p > : : > : , > > 2 4 d c k d i 4.0.w.i.a.i.t.0.6.6.6.6.w.z.z.h.f.n.Y.4X8X",
"8X8X2Xb.d.d.l.z.z.L.0.4.5.9.8.9.q.r.t.0.i s k k H.K.S.< , , 7 , 7 , 7 7 5 d d # s 3 1 , , 0 u r.t.r.w.9.8.6.5.5.i.z.l.f.I.2X8X8X",
"8X8X4X_.d.d.z.z.!.y.5.5.5.8.9.0.q.r.u i p s s s l g 5 8 8 8 9 9 9 9 9 q n F.T.d # 2 < > > > , 8 t 0.w.w.9.8.6.5.9.l.l.L.`.4X8X8X",
"8X8X8X8XE.h.l.z.z.q.5.5.8.0.0.8.t q p C.n d s s g 6 e 9 9 w w w w r w y n D.D.D.n q 7 7 > > > > : < t 0.9.9.6.6.5.a.!.E.8X8X8X8X",
"8X8X8X8X8X`.I.z.z.8.5.8.9.0.4.7 < t b C.d s s d 6 q e w w w w w r r r p n F.[.[.p w 9 7 7 , > > : : : 0 9.9.9.6.4.s.`.8X8X8X8X8X",
"8X8X8X8X8X8X5X~.z.9.6.9.w.r 7 < < q i p d # 4 s i e w e < < ; O ; O 1 c K.[.F.C.t r r e 9 7 7 , : : : : 0 0.8.r.A.5X8X8X8X8X8X8X",
"8X8X8X8X8X8X8X8X2XC.9.9.5.7 : : > < 8 i n + @ 3 i < ; O . . . . . . + m m {.F.d O ; , w w 9 7 , : : : : : y C.}.1X6X8X8X8X8X8X8X",
"8X8X8X8X8X8X8X8X5X1X,XC.u : : : > , 8 i [.# # 2 O . . . . . . . . o c H.F.S.S.3 . . . O 8 e w 9 , : < i b oX8X8X6X8X8X8X8X8X8X8X",
"8X8X8X8X8X8X8X8X8X8X8X8X@XB p 1 , , 8 B.[.V.n o . . . . . . . . . + d c ].].n o . . . . . 9 e 0 q b G.#X4X8X8X8X9X9X8X8X8X8X8X8X",
"8X8X8X8X8X8X8X8X8X8X8X8X8X8X4X#XH.b p V. X XV.X . . . . . . . . X + m }.S.k 3 . . . . X + 6 A.K.<X4X6X9X8X8X8X8X8X8X8X8X8X8X8X8X",
"8X8X8X8X8X8X8X8X8X8X8X8X8X8X8X8X8X8X1X3XXX.XD.4 3 + o o X X . . + V.m S.].S.s 3 a k B J.+X%X6X8X6X9X8X8X8X8X8X8X8X8X8X8X8X8X8X8X",
"8X8X8X8X8X8X8X8X8X8X8X8X8X8X8X8X8X8X9X8X8X8X6X4X%X#X#X+XoX].J.].].5XXX3X|.@X%X%X4X8X8X8X8X8X8X8X8X8X8X8X8X8X8X8X8X8X8X8X8X8X8X8X",
"8X8X8X8X8X8X8X8X8X8X8X8X8X8X8X8X8X8X9X8X5X8X8X8X8X8X8X8X7X7X7X9X9X9X6X9X9X8X8X8X8X8X8X8X8X8X8X8X8X8X8X8X8X8X8X8X8X8X8X8X8X8X8X8X"
};
