/* XPM */
static char *_7A1721706114[] = {
/* columns rows colors chars-per-pixel */
"64 64 248 2 ",
"   c #2E211B",
".  c #03022A",
"X  c #0C0C2E",
"o  c #05033A",
"O  c #181735",
"+  c #28272A",
"@  c #342E2F",
"#  c #272835",
"$  c #383638",
"%  c #473227",
"&  c #4F392F",
"*  c #593420",
"=  c #52423A",
"-  c #704B37",
";  c #090645",
":  c #060457",
">  c #07045A",
",  c #09065C",
"<  c #0C095A",
"1  c #141252",
"2  c #1B1A5D",
"3  c #282946",
"4  c #373C4B",
"5  c #2B295B",
"6  c #383A55",
"7  c #0A0763",
"8  c #0E096A",
"9  c #120C69",
"0  c #1A1768",
"q  c #0F0A75",
"w  c #110C74",
"e  c #150D78",
"r  c #1A1474",
"t  c #241F6B",
"y  c #221876",
"u  c #26256A",
"i  c #282572",
"p  c #393870",
"a  c #463462",
"s  c #3C434C",
"d  c #3B4255",
"f  c #3A4378",
"g  c #494749",
"h  c #554C4A",
"j  c #424857",
"k  c #535153",
"l  c #565559",
"z  c #6F5952",
"x  c #475469",
"c  c #565864",
"v  c #4C5576",
"b  c #695D77",
"n  c #566276",
"m  c #656367",
"M  c #6B6A6C",
"N  c #6B6A72",
"B  c #746B70",
"V  c #787679",
"C  c #D31D21",
"Z  c #E71C23",
"A  c #D12B27",
"S  c #B85417",
"D  c #93542D",
"F  c #BB5D2D",
"G  c #AE712E",
"H  c #C57036",
"J  c #805C55",
"K  c #886652",
"L  c #AE7552",
"P  c #8D7770",
"I  c #B16F70",
"U  c #C17F56",
"Y  c #A48F18",
"T  c #B7AC08",
"R  c #B5A614",
"E  c #BAB110",
"W  c #AF9227",
"Q  c #B1A62C",
"!  c #C79311",
"~  c #CDB20C",
"^  c #C5B90A",
"/  c #E68239",
"(  c #CCB037",
")  c #D6C805",
"_  c #D4C80D",
"`  c #E7D903",
"'  c #E8D113",
"]  c #EAD619",
"[  c #EEE103",
"{  c #F4E605",
"}  c #FBED02",
"|  c #FFF200",
" . c #FDF00A",
".. c #EDE116",
"X. c #F8EA16",
"o. c #D4C92B",
"O. c #EBD828",
"+. c #E5D332",
"@. c #F1E529",
"#. c #ECE13A",
"$. c #AF8D52",
"%. c #A19851",
"&. c #8A8B69",
"*. c #A58877",
"=. c #B28F71",
"-. c #B6A56F",
";. c #B7AB7C",
":. c #DE9655",
">. c #C9B04C",
",. c #CAB359",
"<. c #C48C63",
"1. c #C89574",
"2. c #CCB070",
"3. c #D7C64D",
"4. c #E3D650",
"5. c #EEE147",
"6. c #D7CC69",
"7. c #D0C976",
"8. c #210F86",
"9. c #220F88",
"0. c #25118A",
"q. c #28168A",
"w. c #29148E",
"e. c #2B1692",
"r. c #2E1894",
"t. c #311B95",
"y. c #331C9A",
"u. c #381F9F",
"i. c #342B89",
"p. c #362496",
"a. c #39229C",
"s. c #3F28A0",
"d. c #513995",
"f. c #623F9C",
"g. c #4228A4",
"h. c #4B27AE",
"j. c #4C2AAE",
"k. c #4E32AC",
"l. c #5235AD",
"z. c #4E2BB1",
"x. c #522DB2",
"c. c #5E29B2",
"v. c #5532B5",
"b. c #5C33B6",
"n. c #5837B7",
"m. c #5936B9",
"M. c #5C3BBB",
"N. c #663BA9",
"B. c #622CB4",
"V. c #6532B5",
"C. c #6838B4",
"Z. c #6534B9",
"A. c #6A35BA",
"S. c #633CBC",
"D. c #6D3ABD",
"F. c #703DBE",
"G. c #514F95",
"H. c #665694",
"J. c #566A88",
"K. c #566D91",
"L. c #6C6F8B",
"P. c #7A7B83",
"I. c #647A9A",
"U. c #5B49B1",
"Y. c #6C4CAD",
"T. c #6D45B5",
"R. c #6342BB",
"E. c #7349B8",
"W. c #7758B1",
"Q. c #5973A4",
"!. c #716FAE",
"~. c #7D63B4",
"^. c #6F3FC0",
"/. c #723FC0",
"(. c #7442C2",
"). c #744FC2",
"_. c #7B49C4",
"`. c #88738B",
"'. c #805EAA",
"]. c #8775AF",
"[. c #8570B2",
"{. c #8A7BB2",
"}. c #804FC7",
"|. c #8656C7",
" X c #9D73D1",
".X c #6E849E",
"XX c #5E82B2",
"oX c #6A84A6",
"OX c #7289A4",
"+X c #748DB2",
"@X c #7897BA",
"#X c #7A9DC3",
"$X c #7DA2C6",
"%X c #838389",
"&X c #878689",
"*X c #938787",
"=X c #8C8C94",
"-X c #938E97",
";X c #8E919B",
":X c #97969A",
">X c #AC9789",
",X c #B0908A",
"<X c #A59A98",
"1X c #B3A487",
"2X c #A9A49A",
"3X c #AAA39D",
"4X c #B4AE92",
"5X c #B8B498",
"6X c #8981A8",
"7X c #9388AD",
"8X c #9D9CA3",
"9X c #9B98AA",
"0X c #8E8EB4",
"qX c #A39FA3",
"wX c #A29EAC",
"eX c #90A1B7",
"rX c #A5A3A6",
"tX c #A9A4A5",
"yX c #ACAAA4",
"uX c #A7A6AB",
"iX c #A8A6A9",
"pX c #ABA9AD",
"aX c #AEADB1",
"sX c #B4B3B5",
"dX c #B7B7BA",
"fX c #C2B888",
"gX c #E0AA88",
"hX c #CDC786",
"jX c #D9CEB4",
"kX c #86A7C9",
"lX c #91B1CC",
"zX c #88ADD2",
"xX c #8DB4D8",
"cX c #96B8D8",
"vX c #BEBEC1",
"bX c #96BEE3",
"nX c #BFC0C4",
"mX c #9AC4E7",
"MX c #A3CAE9",
"NX c #A4CFF0",
"BX c #ABD5F3",
"VX c #A8D5F5",
"CX c #AED9F5",
"ZX c #C7C7C9",
"AX c #D5D1C8",
"SX c #D7D7D7",
"DX c #E9E8E7",
"FX c #F4F4F2",
/* pixels */
"uXuXuXuXuXuXuXuXuXuXuXuXuXuXuXuXuXuXuXuXuXuXuXuXuXuXuXuXuXuXuXuXuXuXuXuXuXuXuXuXuXuXuXuXuXuXuXuXuXuXuXuXuXuXuXuXuXuXuXuXuXuXuXuX",
"uXuXuXuXuXuXuXuXuXuXuXuXuXuXuXuXuXuXuXuXuXuXuXuXuXuXuXuXuXuXuXuXuXuXuXuXuXuXuXuXuXuXuXuXuXuXuXuXuXuXuXuXuXuXuXuXuXuXuXuXuXuXuXuX",
"uXuXuXuXuXuXuXuXuXuXuXuXuXuXuXuXuXuXuXuXuXuXuXuXuXuXuXuXuXuXuXuXuXuXuXuXuXuXuXuXuXuXuXuXuXuXuXuXuXuXuXuXuXuXuXuXuXuXuXuXuXuXuXuX",
"uXuXuXuXuXuXuXuXuXuXuXuXuXuXuXuXuXuXuXuXuXuXuXuXuXuXuXuXuXuXuXuXuXuXuXuXuXuXuXuXuXuXuXuXuXuXuXuXuXuXuXuXuXuXuXuXuXuXuXuXuXuXuXuX",
"uXuXuXuXuXuXuXuXuXuXuXuXuXuXuXuXuXuXuXuXuXuXuXuXuXuXuXuXuXuXuXuXuXuXuXuXuXuXuXuXuXuXuXuXuXuXuXuXuXuXuXuXuXuXuXuXuXuXuXuXuXuXuXuX",
"uXuXuXuXuXuXuXuXuXuXuXuXpXuXpXuXiX8XuXuXuXuXuXuXuXuXuXuXuXuXuXuXuXuXuXuXuXuXuXpXuXuXuXuXuXuXuXpXuXuXuXuXuXuXuXuXuXuXuXuXuXuXuXuX",
"uXuXuXuXuXuXuXuXuXuXuXuXuXuX3X,.4.7.yXuXuXuXuXuXuXuXuXuXuXuXuXuXuXuXuXuXuXuXuXuXuXuXuXuXpXfX,.1XuXuXuXuXuXuXuXuXuXuXuXuXuXuXuXuX",
"uXuXuXuXuXuXuXuXuXuXuXuXuXqX,.{ |  .4.yXuXuXuXuXuXuXuXuXuXuXuXuXuXuXuXuXuXuXuXuXuXuXuX5X3.X.| ] 1XuXuXuXuXuXuXuXuXuXuXuXuXuXuXuX",
"uXuXuXuXuXuXuXuXuXuXuXuXuX3X] } | | X.5XpXpXuXuXuXuXuXuXuXuXpXuXuXuXuXpXuXuXuXuXuXuXuXhX .| | | o.tXuXuXuXuXuXuXuXuXuXuXuXuXuXuX",
"uXuXuXuXuXuXuXuXuXuXuXuXuX3XO.| | | @.5XuXuXuXuXuXuXuXuXuXuXuXuXuXuXuXuXuXuXuXuXuXuXuX7.| | | | +.yXuXuXuXuXuXuXuXpXuXuXuXuXuXuX",
"uXuXuXuXuXuXuXuXuXuXuXuXiXpX-.` | | 6.yXuXuXuXuXuXuXuXuXuXuXuXuXuXuXuXuXuXuXuXuXuXuXuX5XX. .| { 2.yXuXuXuXuXuXuXuXuXuXuXuXuXuXuX",
"uXuXuXuXuXuXuXuXuXuXuXuXiXtXI S [ X.hX2XyXuX2XrXuXuXuXuXuXuXuXuXuXuXuXuXuXuXuXrXuXiXiXrX6.| ` H ,XpXuXuXuXuXuXuXuXuXuXuXuXuXuXuX",
"uXuXuXuXuXuXuXuXuXiXuXuXiXuX,XL ` } ..4.6.;.3.<XuXuXuXpXuXuXuXuXuXuXuXuXuXuXuX;.4XyXfX7.5.| _ D ,XiXiXiXpXuXuXuXuXuXuXuXuXuXuXuX",
"uXuXuXuXuXuXuXuXuXuXuXuXuXuXuX$.` | ) T { } 3.qXuXuXuXuXuXuXuXuXuXuXuXuXuXuXuX-.@.@.] ) ` | ^ ;.qXwXuXiXuXuXuXuXuXuXuXuXuXuXuXuX",
"uXuXuXuXiXuXuXuXuXuXuXuXiXiXpX>.) | | T [ | 2.tXuXuXuXuXuXuXpXpXuXuXuXuXpXuXuX2X..| ^ ) { | _ ,.uXuXuXuXuXuXuXuXuXuXuXuXuXuXuXuX",
"uXuXuXuXuXuXuXuXuXuXuXuXuXiXrX,.E ) _ ^ | O.3XuXuXuXuXuXuXuXuXaXuXuXuXuXuXuXuXuXo. .` E | [ ^ ,.wXuXuXuXuXuXuXuXuXuXuXuXuXuXpXuX",
"uXuXuXuXuXuXuXuXuXuXuXuXuXuXuXtX-.>.( O.3.1XuXuXuXuXuXuXuX<X,X=.=.<XuXuXuXuXuXiX1XO.| E T E Q 1XpXuXuXuXuXuXuXuXuXuXuXuXuXuXuXuX",
"uXuXuXuXuXuXuXuXuXuXuXuXuXuXuXuXtX3X3X3XiXuXuXuXuXuXuXuX<XU / :.H H P yXuXuXuXuXyX2X;.3.,.4X2XrXiXuXuXuXuXuXuXuXuXuXuXuXuXuXuXuX",
"uXuXuXuXuXuXuXuXuXuXuXuXuXuXuXuXuXuXuXuXuXuXuXuXuXuXrX<XL F G D F D D P uXuXuXuXiXuXuXuXyXiXuXuXuXuXuXuXuXuXuXuXuXuXuXuXuXuXuXuX",
"uXuXuXuXuXuXuXuXuXuXuXuXuXuXuXuXuXuXuXuXuXuXuXuXuXuXuX*XD - % * * * @ - qXuXuXuXuXuXuXuXiXiXuXuXuXuXuXiXuXuXuXuXuXuXuXuXuXuXuXuX",
"uXuXuXuXuXuXuXuXuXuXuXuXrX<X3XtXuXuXuXuXuXuXuXuXuXuXrXm % - :.1.L &   % &XiXuXuXuXuXuXuXuXuXuXiXtX<XqXuXuXuXuXuXuXuXuXuXuXuXuXuX",
"uXuXuXuXuXuXuXuXuXuXuX<X-.O.O.6.5XuXuXuXuXuXuXuXuXuX8Xl   - 1.:.<.D   & M rXuXuXuXuXuXuXuXuX5X6.+.o.=.<XuXuXuXuXuXuXuXpXuXuXuXuX",
"uXuXuXuXuXuXuXaXuXuX<X<.[ } | [ #.4XuXuXuXuXuXuXuXuX&.h h K <.<.L K & g m qXuXuXuXuXuXuXuXfX+.[ | } [ >.qXuXuXuXuXuXuXuXuXuXuXuX",
"uXuXuXuXuXuXuXuXuXrX>X( Q { ^ &.E 4.yXuXuXuXuXuXrX9XP.B z L gX2.L <.& h &XiXuXuXuXuXuXuXyX5.Q &._ { %.( ,XuXuXuXuXuXuXuXuXuXuXuX",
"uXuXuXuXuXuXuXuXuXuX-.%.&.~ R &.Q #.uXuXuXuXuXuXuX:X:XM % - 2.2.=.z + = .XyXiXiXuXuXuXuXuX#.W &.Q ) %.$.=.uXuXuXuXuXuXuXuXuXuXuX",
"uXuXuXuXuXuXuXuXuXuX-.o.G A S ^ ..7.uXuXuXuXuXpXuX;X:XV = @ B 1.P $ @ = V 3XuXiXuXpXuXuXuX7.] R S A G o.1XuXuXuXuXuXuXuXuXuXuXuX",
"uXuXuXuXaXuXuXuXiXiXtX*.C Z Z W hXuXuXuXaXaXZXDXAX;XsX8X=Xk = = % + & k N pXrXuXuXuXuXuXuXiX7.! C Z C *.tXuXuXuXuXuXuXuXuXuXuXuX",
"uXuXuXuXuXuXuXuXiXpXqXI Z Z Z G 5XuXuXpXnXAXDXFXFXDXSXZXdXyX&XV M B N V =XZXZXsXrXrXuXrXuXuXyXG Z Z Z I uXuXuXuXuXuXuXuXpXuXuXuX",
"uXuXuXuXuXuXuXuXwXpXiXI A Z C ! #.4.7.jXAXhXAXFXFXFXZX<XyXZXvXsXdXyX-Xm -XZXFXDX5X;.5X4X7.4.5.! C C A I uXuXuXuXuXuXuXuXuXuXuXuX",
"uXuXuXuXuXuXuXuXiXiXpXqX$.! ~ ) ` } ` Q o.@.jXFXDXSXsX.XM :X:XvXsXvX=XB V yXSXDXAX..o.Q { } ` ` ~ ! $.3XuXuXuXuXuXuXuXuXuXuXuXuX",
"uXuXuXuXuXuXuXuXiXuXuXtXO.| | ) ) | | _ Y 4.SXAXZX2X:XN m =X.XAXAXvX&Xl k &XsXSXSX5.Y _ } | ) ` | | +.tXuXuXuXuXuXuXuXuXuXuXuXuX",
"uXuXuXuXuXuXuXuXuXuXuX<X] | | { T [ { ) ^ 3.8X8X8Xm m l N M m 2XdX8XM V g M B tXaX6.R ) } ` T [ | } ] <XuXuXuXuXuXuXuXuXuXuXuXuX",
"uXuXuXuXuXuXuXuXuXuXuXqX>.} | } ` E R ^ o.*.qXuX2Xm g $ 8X&X=XSXAXsXV dXN g &XB B K ' E E E ) | | } ( gX>X<XuXuXuXuXuXuXuXuXuXuX",
"uXuXuXuXuXuXuXiXuXuXuXuX<X>.]  .{ { ' >.1XuXuXuXrX.X$ l sX8X:XDXDXZX&.*X=Xk 9X8X:X*X*.( ]  .} { ] Q - J I *.uXuXuXuXuXuXuXuXuXuX",
"uXuXuXuXuXuXuXuXuXuXuXuXtX*XP 1XfX1X>X9X7X].'.E.Y.G.@ P.8XV ;XSXDXSX:XV P.m Y.Y.E.W.].7X-X1X;.1X>X<X`.P z -XuXuXiXuXuXuXuXuXuXuX",
"pXuXiXuXuXuXuXuXuXuXuXuX<X1.=.P P.~.E.T.D.A.A.B.B.d.s :XvXV 8XZXSXSX:X.XP.N T.c.B.B.B.B.N.Y.[.7X9XiXiXqX:XrXuXuXuXuXuXuXuXuXuXuX",
"uXuXuXuXuXuXuXuXuXuXuX<XI 1.=.I N.B.A.E.|.E.F.A.B.f.l `.=XV aXZXZXZXaXN V `.R.Z.B.B.B.B.B.c.c.c.Z.W.{.9XuXuXuXuXuXuXuXuXuXuXuXuX",
"uXuXuXuXuXuXuXuXuXwX7XH.P `.'.`.B.V.F.|. X|.E.F.D.H.%Xc P.=XdXnXZXvXvXP.V N E.D.Z.Z.B.B.B.B.B.B.B.B.c.C.W.7XuXpXuXuXuXuXuXuXuXuX",
"uXuXuXuXuXuXuXuX{.W.V.f.b C.E.'.A.A.E.|. X}.}.(.F.H.*Xh *XpXsXvXvXvXnXrXl B ).(./.^.^.A.A.A.Z.Z.B.B.B.B.B.B.W.7XuXuXuXuXuXuXuXuX",
"uXuXuXuXuXwX9XW.N.B.B.V.N.B.A./.F./._.}.}.}._.(.(.Y.h g `.qXpXqX=XP.V P g H.).(././././././.Z.^.A.A.B.B.B.B.B.B.~.wXuXuXuXuXuXuX",
"uXuXuXuXrX{.T.c.c.c.B.B././.^./././.(.(./.A.b.x.z.j.p   % & & z z J D h a d.b.v.b.Z.C.^.(.(.(.^././.A.Z.Z.B.B.B.c.T.7XtXuXuXuXuX",
"uXuXuXwX[.C.c.B.c.^./././././.^.D.A.c.x.z.x.h.z.z.j.d.@ h B z z z B P B m d.v.v.l.v.z.z.v.v.^.^././././.D.A.B.B.c.c.C.{.uXuXuXuX",
"uXuXwX[.V.V.V.V.^.B.^.^./.^.c.c.h.z.h.h.z.k.x.z.z.j.x L.OX+XkXcXkXzXxXkX+XI.n.R.R.n.x.z.z.z.h.z.x.A./././.D.A.Z.B.B.B.B.7XiXuXuX",
"uXuX7XV.B.V.A.A.^.^.^.^.c.h.h.h.z.h.z.x.v.n.v.v.v.U.oXcXzXOX.XcXzXbXkXkXmXbX!.R.R.M.v.v.v.x.z.z.x.z.z.b.^./.^.A.Z.B.B.c.V.7XuXuX",
"pX9XE.B.B.A.A.F.^.^.m.h.h.h.x.s.v.s.v.n.R.U.R.M.U.Q.xXmXBXmXeX@X+X@XeXkXzXMXcXW.l.v.n.n.n.v.v.x.x.v.z.z.z.b.^.^.A.A.B.B.c.W.rXuX",
"uX{.V.B.A.D.F.F.m.z.h.h.z.z.m.v.m.n.n.M.l.k.s.p.G.zXNXMXlXlX$X@XJ.J.OXOXlXMXBXcXG.q.e.y.s.j.v.n.m.x.v.z.z.z.x.Z.F.D.A.B.B.c.7XuX",
"uXW.B.Z.A.F.F.V.z.h.z.z.x.v.v.m.m.v.s.p.q.q.q.q.oXNXCXNXlXOXJ.c 4 4 l .XkXzXBXBX0Xp.q.8.8.9.e.u.z.m.m.v.x.x.z.h.b.D.A.A.Z.B.~.uX",
"pXY.B.A.F.F.b.v.v.m.x.v.v.m.M.v.u.e.8.8.q.q.r.i.zXCXCXCXMXeXI.d # + x I.kXbXBXCXmXG.r.q.8.8.8.8.9.r.z.m.m.m.x.x.z.b.D.F.C.Z.W.uX",
"uXE.V.D.^.b.v.S.E.R.n.m.m.v.s.e.9.8.8.9.0.0.0.Q.bXCXCXVXzX@XoXd.i.3 4 K.oXxXNXVXBXkXp.w.w.0.q.q.0.8.0.r.x.M.n.x.x.x.Z.D.D.V.W.rX",
"pXW.A.F.Z.z.v.R.).R.M.n.k.r.9.9.9.0.0.w.w.e.r.#XNXVXCXMXzX#XG.g.a.p.5 J.@X#XbXNXBXxXG.r.e.r.r.q.e.0.0.8.0.g.M.M.v.x.x.S.D.Z.[.uX",
"uX{.A.D.x.h.v.M.R.R.M.j.q.8.9.0.0.w.w.r.t.t.d.$XVXCXCXbX#XJ.t r 9 w 0 3 n XX@XmXBXMX!.u.y.y.a.a.a.r.q.0.9.9.u.M.M.n.x.c.A.A.7XuX",
"uXwXE.Z.h.z.v.n.R.R.k.w.9.0.0.w.w.r.t.u.y.t.G.bXVXVXNXzXK.2 , > > > : < 6 n .XxXNXBXeXq.e.u.a.k.g.a.r.w.0.9.9.u.M.M.v.x.A.W.wXuX",
"uXuX{.A.z.z.v.n.M.n.t.8.0.q.w.e.r.u.u.q.t u I.mXCXVXbXoXu < , , , 7 7 , 2 s x oX$X$X+X2 > 9 y p.a.a.y.r.w.0.9.9.g.M.m.x.T.0XpXuX",
"uXuXuX[.z.z.n.M.(.g.8.9.0.w.e.r.t.i.y i t 5 n mXVXNX$XG.9 8 8 8 9 8 8 8 0 d d x x n 6 < > > < 9 y q.y.y.e.w.0.9.e.n.m.M.{.wXuXuX",
"uXuXuXuX!.v.m.M.M.r.8.9.w.r.r.w.r 0 p G.i d j .XzXkXQ.i 9 q q q q e e q i d s s d s 0 7 > > > > : < r r.r.e.0.0.0.k.R.[.wXuXuXuX",
"uXuXuXuXuX{.R.(.M.q.9.w.r.r.8.7 9 t p H.f d s = l x p w q q q q q e e r f v x s $ 5 9 8 7 , > > : : > 9 e.e.e.0.0.d.7XwXpXuXuXuX",
"uXuXuXuXwXpXeX~.R.0.0.e.y.y 7 > < 0 t i f d s h h 6 r w 7 < : ; ; ; o 1 x I.Q.x d y e w 8 7 7 > : : : : 9 w.r.p.H.0XuXuXuXuXuXuX",
"uXuXuXuXpXuXuXwX0XG.w.e.0., : > > , 7 0 d s s s s 5 ; . . . . . . . . 3 x K.Q.Q.x ; , q q 8 7 7 > : : : : i G.OXrXuXuXuXuXuXuXuX",
"uXuXuXuXpXuXuXuX9X9X6XG.0 : : : > 7 7 u d 4 s s $ X . . . . . . . . X 4 n XXXXK.3 . . o 8 q w 8 > > < 5 v `.wXuXrXuXuXuXuXuXuXuX",
"uXuXuXuXuXuXuXuXuXuXiXwX-XL.u 2 > 7 7 0 x # # $ O . . . . . . . . . O n K.XXJ.x X . . . . 8 w 9 0 v L.;XrXpXuXuXuXuXuXuXuXuXuXuX",
"uXuXuXuXuXuXuXuXuXuXuXuXuXuXwX-XL.v i i v # + # X . . . . . . . . . x n J.oXoX4 . . . X O 6 H.L.6X8XuXuXuXuXuXuXuXuXuXuXuXuXuXuX",
"pXuXuXuXuXuXuXuXuXuXuXuXuXuXuXrXuXuX8X;X@XN l d 3 O O X X X . . . O j J..XJ.v 4 6 c M P.;X8XrXuXuXuXuXuXuXuXuXuXuXuXuXuXuXuXuXuX",
"uXuXuXuXuXuXuXuXuXuXuXuXuXuXuXuXuXuXrXuXiXiXqX8X8X:X-X=X&X`.&..X%X%X.X&.8XeX8X8XwXrXuXuXuXuXuXuXuXuXuXuXuXuXuXuXuXuXuXuXuXuXuXuX",
"uXuXuXuXuXuXuXuXuXuXuXuXuXuXuXuXuXuXuXuXrXuXuXuXrXuXiXiXuXuXuXiXiXtXuXuXuXuXrXuXuXuXuXuXuXuXuXuXuXuXuXuXuXuXuXuXuXuXuXuXuXuXuXuX"
};
