/* XPM */
static char *_91A1721706116[] = {
/* columns rows colors chars-per-pixel */
"64 64 249 2 ",
"   c #32231C",
".  c #03022A",
"X  c #0B0A2D",
"o  c #08063A",
"O  c #181835",
"+  c #342925",
"@  c #2E2C30",
"#  c #343338",
"$  c #4E3B31",
"%  c #613724",
"&  c #544339",
"*  c #6F472E",
"=  c #060457",
"-  c #07045A",
";  c #09055C",
":  c #0C095A",
">  c #110F52",
",  c #353845",
"<  c #282852",
"1  c #363A57",
"2  c #0A0663",
"3  c #0D0968",
"4  c #120C66",
"5  c #191567",
"6  c #0F0A74",
"7  c #130C77",
"8  c #1A1573",
"9  c #251F6E",
"0  c #221876",
"q  c #1F2163",
"w  c #23236B",
"e  c #2F2C6D",
"r  c #393778",
"t  c #453A47",
"y  c #3D414B",
"u  c #3C4455",
"i  c #484647",
"p  c #554B47",
"a  c #444954",
"s  c #554F51",
"d  c #575559",
"f  c #6C5147",
"g  c #424E67",
"h  c #4A5466",
"j  c #50536F",
"k  c #644E6B",
"l  c #56647A",
"z  c #686567",
"x  c #6F6C6F",
"c  c #6A6974",
"v  c #756978",
"b  c #77767A",
"n  c #D31D21",
"m  c #E71C23",
"M  c #D12B27",
"N  c #B85417",
"B  c #8C5031",
"V  c #BB5D2D",
"C  c #AD6F2C",
"Z  c #D77734",
"A  c #885C4F",
"S  c #936A57",
"D  c #AC7756",
"F  c #8B7673",
"G  c #B56F72",
"H  c #A48F18",
"J  c #B7AC08",
"K  c #B5A614",
"L  c #B7AE13",
"P  c #AF9227",
"I  c #AFA72D",
"U  c #C79311",
"Y  c #CDB20C",
"T  c #C5B90A",
"R  c #CAB035",
"E  c #D6C805",
"W  c #D2C80A",
"Q  c #E7D903",
"!  c #E9D317",
"~  c #ECD71A",
"^  c #EEE103",
"/  c #F4E606",
"(  c #FBED02",
")  c #FFF200",
"_  c #FDF00A",
"`  c #EEE11A",
"'  c #F7EA15",
"]  c #D3C727",
"[  c #E2CC2D",
"{  c #EBD826",
"}  c #E7D837",
"|  c #EEE331",
" . c #AC914E",
".. c #8A8B69",
"X. c #B08C73",
"o. c #B6A972",
"O. c #C8905A",
"+. c #E98A41",
"@. c #C9B04D",
"#. c #CAB458",
"$. c #CE9873",
"%. c #C8B46F",
"&. c #E6A370",
"*. c #D7C64D",
"=. c #E1D652",
"-. c #ECE141",
";. c #D6CD69",
":. c #D0C976",
">. c #E1CD68",
",. c #210F86",
"<. c #220F88",
"1. c #231285",
"2. c #25128A",
"3. c #29148E",
"4. c #2C1B8C",
"5. c #2B1692",
"6. c #2E1994",
"7. c #311B95",
"8. c #331C9A",
"9. c #381E9F",
"0. c #362796",
"q. c #3A229C",
"w. c #3B3495",
"e. c #3D29A0",
"r. c #4F3C9C",
"t. c #633F9D",
"y. c #4628A8",
"u. c #4C2AAE",
"i. c #4D33AC",
"p. c #5534AE",
"a. c #4E2BB1",
"s. c #522DB2",
"d. c #5E29B2",
"f. c #5532B5",
"g. c #5C33B6",
"h. c #5837B7",
"j. c #5936B9",
"k. c #5C3BBB",
"l. c #6330AE",
"z. c #622CB4",
"x. c #6532B4",
"c. c #6938B4",
"v. c #6534B9",
"b. c #6A35BA",
"n. c #633DBC",
"m. c #6D3ABC",
"M. c #703DBE",
"N. c #504E90",
"B. c #74548B",
"V. c #694698",
"C. c #675697",
"Z. c #596B8B",
"A. c #5B7396",
"S. c #6F6A86",
"D. c #797A84",
"F. c #657899",
"G. c #5743B2",
"H. c #6A48A6",
"J. c #6E55AC",
"K. c #6D44B6",
"L. c #6342BB",
"P. c #7348B7",
"I. c #7858B3",
"U. c #5666AF",
"Y. c #7369AE",
"T. c #6F3FC0",
"R. c #723FC0",
"E. c #6F4FC3",
"W. c #7442C2",
"Q. c #7B49C4",
"!. c #92689E",
"~. c #877990",
"^. c #8D6EA6",
"/. c #8775AE",
"(. c #816BB1",
"). c #8A7CB2",
"_. c #8454C7",
"`. c #9C73D1",
"'. c #748397",
"]. c #6B86A9",
"[. c #738DAF",
"{. c #7794B6",
"}. c #7A96C1",
"|. c #7EA2CB",
" X c #838285",
".X c #84848A",
"XX c #8B8889",
"oX c #918D8E",
"OX c #97958F",
"+X c #8B8B94",
"@X c #908E9A",
"#X c #969699",
"$X c #AC8E88",
"%X c #AB9986",
"&X c #A69B99",
"*X c #B3A489",
"=X c #B7B28C",
"-X c #AAA59B",
";X c #AAA39D",
":X c #B4AB99",
">X c #B8B496",
",X c #8981A8",
"<X c #9489AE",
"1X c #9C99A8",
"2X c #9589B1",
"3X c #8C91B4",
"4X c #A39FA2",
"5X c #A29EAD",
"6X c #9FA1A7",
"7X c #85A2BD",
"8X c #A5A3A6",
"9X c #AAA4A5",
"0X c #A7A6AB",
"qX c #A8A7AA",
"wX c #ACABA8",
"eX c #B1AFAF",
"rX c #AEADB2",
"tX c #B4B3B6",
"yX c #BBBABB",
"uX c #C6BC90",
"iX c #D8B094",
"pX c #CDC489",
"aX c #DFD1BD",
"sX c #E5DAB6",
"dX c #87A8C9",
"fX c #88ABD1",
"gX c #8DB4D8",
"hX c #93B8DA",
"jX c #BDBDC1",
"kX c #92BAE2",
"lX c #C0BEC0",
"zX c #A2C1DD",
"xX c #9BC5E8",
"cX c #A3C9E8",
"vX c #A7D3F4",
"bX c #AAD3F0",
"nX c #ABD5F4",
"mX c #AED9F5",
"MX c #C3C3C4",
"NX c #CCCCCD",
"BX c #D2CFCC",
"VX c #D4D3D5",
"CX c #D7D7D9",
"ZX c #DBDBDC",
"AX c #E4DFD8",
"SX c #E6E5E4",
"DX c #ECEBEB",
"FX c #F1EFEF",
"GX c #F6F5F5",
/* pixels */
"0X0X0X0X0X0X0X0X0X0X0X0X0X0X0X0X0X0X0X0X0XqX0X0X0X0X0X0X0X0X0X0X0X0X0X0X0X0X0X0X0X0X0X0X0X0X0X0X0X0X0X0X0X0X0X0X0X0X0X0X0X0X0X0X",
"0X0X0X0X0X0X0X0X0X0X0X0X0X0X0X0X0X0X0X0X0X0X0X0X0X0X0X0X0X0X0X0X0X0X0XqX0X0X0X0X0X0X0X0X0X0X0X0X0X0X0X0X0X0X0X0X0X0X0X0X0X0X0X0X",
"0X0X0X0X0X0X0X0X0X0X0X0X0X0X0X0X0X0X0X0X0X0X0X0X0X0X0X0X0X0X0X0X0X0X0XqX0X0X0X0X0X0X0X0X0X0X0X0X0X0X0X0X0X0X0X0X0X0X0X0X0X0X0X0X",
"0X0X0X0X0X0X0X0X0X0X0X0X0X0X0X0X0X0X0X0X0X0X0X0X0X0X0X0X0X0X0X0X0X0X0XrX0X0X0X0X0X0X0X0X0X0X0X0X0X0X0X0X0X0X0X0X0X0X0X0X0X0X0X0X",
"0X0X0X0X0X0X0X0X0X0X0X0X0X0X0X0XqXqXqX0X0X0X0X0X0X0X0X0X0X0X0X0X0X0X0X0X0X0X0X0X0X0X0X0X0X0X0X0XrXqX0X0X0X0X0X0X0X0X0X0X0XrXqXqX",
"0X0X0X0X0X0X0X0X0X0X0X0X0X0X0XqX8X6XqX8X0X0X0X0X0X0X0X0X0X0X0X0X0X0X0X0X0X0X0X0X0X0X0X0X0X0X0X0X0XqX0X0X0X0X0X0X0X0X0X0X0X0X0X0X",
"0X0X0X0X0X0X0X0X0X0X0X0X0X0X;X%.=.:.wXqX0X0X0X0X0X0X0X0X0X0X0X0X0X0X0X0X0X0X0X0X0X0X0XqXwXuX#.*X0XqX0X0X0X0X0X0X0X0X0X0X0X0X0X0X",
"0X0X0X0X0X0X0X0X0X0X0X0X0X4X@.( ) _ =.wX0X0X0X0X0X0X0X0X0X0X0X0X0X0X0X0X0X0X0X0X0X0X0X:X*.' ) ~ %XqX0X0X0X0X0X0X0X0X0X0X0X0X0X0X",
"0X0X0X0X0X0X0X0X0X0X0X0X0X;X~ ( ) ) ' >XrX0X0X0X0X0X0X0X0X0X0X0X0X0X0X0X0X0X0X0X0X0X0XpX_ ) ) ) R qX0X0X0X0X0X0X0X0X0X0X0X0X0X0X",
"0X0X0X0X0X0X0X0X0X0X0X0X0X;X{ ) ) ) ' >X0X0X0X0X0X0X0X0X0X0X0X0X0X0X0X0X0X0X0X0X0X0X0X:.) ) ) ) { 9X0X0X0X0X0XqX0X0X0X0X0X0X0X0X",
"0X0X0X0X0X0X0X0X0X0X0X0X0X9Xo.Q ) ) ;.0X0X0X0X0X0X0X0X0X0X0X0X0X0X0X0X0X0X0X0X0X0X0X0X>X' _ ) ^ ;.9X0X0X0X0X0XrX0X0X0X0X0X0X0X0X",
"0X0X0X0X0X0X0X0X0X0X0X0X0X9XG N ^ ' pXwX0X0X8X8X0X0X0X0X0X0X0X0X0X0X0X0X0X0X0X6X0X0X0XqX;.) Q V $X0X0X0X0X0X0X0X0X0X0X0X0X0X0X0X",
"0X0X0X0X0X0X0X0X0X0X0X0X0X0X$XD Q ) ` } ;.o.*.&X0X0X0X0X0X0X0X0X0X0X0X0X0X0XqXo.=XwX=X:.| ) T V $XqXqX0X0X0X0X0X0X0X0X0X0X0X0X0X",
"0X0X0X0X0X0X0X0X0X0XqX0X0X0XrX .Q ) W J / ( *.8X0XrX0X0X0X0X0X0X0X0X0X0X0X0XqXo.` | ` W ^ ) W o.5X9X0X0X0X0X0X0X0X0X0X0X0X0X0X0X",
"0X0X0X0X0X0X0X0X0X0X0X0XqXqX9X@.E ) ) J ^ ( %.4X0X0X0X0X0X0X0X0X0X0X0X0X0X0X0X-X` ) J E / ) W o.0X0X0X0X0X0X0X0X0X0X0X0X0X0X0X0X",
"0X0X0X0X0XqX0X0X0XqXqX0X0XqX8X#.L W W T ) { :X0X0X0X0X0X0X0X0X0X0X0X0X0X0X0X0XqX*.) Q T ( ^ W #.0X0X0X0X0X0X0X0X0X0X0X0X0X0X0X0X",
"0X0X0X0X0X0X0X0X0X0X0X0X0X0X0X9Xo.R R { *.*XqX0X0X0X0X0X0X0X0X0X0XqX0X0X0X0X0X0X*X{ ) T J J I *X0X0X0X0X0X0X0X0X0X0X0X0X0X0X0X0X",
"0X0X0X0X0X0X0X0X0X0X0X0X0X0X0X0X0X8X;X9XqXqX0X0X0X0X0X0X0X0X0X0X0X0X0X0X0X0X0X0X8X;X%.#.#.=X:X0X0X0X0X0X0X0X0X0X0X0X0X0X0X0X0X0X",
"0X0X0X0X0X0X0X0X0X0X0X0X0X0X0X0X0X0X0X0X0X0XqX0X0X0X0X0X0X0X0X0X0X0X0XqX0X0X0X0X0X0X0X0X0X0X0X0X0X0X0X0X0X0X0X0X0X0X0X0X0X0X0X0X",
"0X0X0X0X0X0X0X0X0X0X0X0X0X0X0X0X0X0X0X0X0X0X0X0X0X0X0X0X0X0X0X0X0X0X0X0X0X0XqX0X0X0X0X0X0X0XqXqX0X0X0X0X0X0X0X0X0X0X0X0X0X0X0X0X",
"0X0X0X0X0X0X0X0X0X0X0X0X8X-X;X9X0X0X0X0X0X0X0X0X0X0X0X0X1X&XX.O.X.X.1X8X0XqX0X0X0X0X0X0X0X0XqXqX9X&XwXqXqX0X0XqX0X0X0X0X0X0X0X0X",
"0X0X0X0X0X0X0X0X0X0X8X&Xo.[ { ;.:XqX0X0X0X0X0X0X0X0X0X8X$X+.+.+.Z Z S 4X0X0X0X0X0X0X0X0XqXqX>X;.} [ X.5X0X0X0X0X0X0X0X0X0X0X0X0X",
"0X0X0X0XrX0X0X0X0X0X4XO.^ ( ) ^ | =XqXqX0X0X0X0X0X0X0X$XC C B * * * B S 0X0X0X0X0X0X0X0X0X=X{ ^ ( ( ^  .5X0XqX0XqX0X0X0X0X0XrX0X",
"0X0X0XqXqX0X0X0X0X0X$XR I / T ..I =.qX0X0X0X0X0X0X0X5X~.* $ $ * % % + $ 1X0X0X0X0X0X0X0XwX-.I ..W ^ I R $XwX0X0X0X0X0X0X0X0X0X0X",
"0X0X0X0X0X0X0X0X0X0Xo. ...Y K ..I } wXqX0X0X0X0X0X0X6Xz + * &.&.+.*   +  X0X0X0X0X0X0X0XwX| P  XK Y .. .X.0X0X0X0X0X0X0X0X0X0X0X",
"0X0X0X0X0X0X0X0X0X0Xo.] C M N T ' :.qX0X0X0X0X0X0X0X#Xz + * D $.D *   $ z 8X0X0X0X0X0X0X0X:./ K N M H ] *X0X0X0X0XqX0X0X0X0X0X0X",
"0X0X0X0X0X0X0X0X0X0X8XX.n m m P pXqX0X0X0X0X0X0XwXwXb s A S $.$.X.D $ & z 8X0X0X0X0X0X0X0XqX:.P m m n X.9XrX0X0X0X0X0X0X0X0X0X0X",
"0X0X0X0X0X0X0X0X0X0X5XG m m m C >XqXqX0X0X0X0XwX8XOX'.b f  .iX$.D X.$ & XX0X0X0XqX6X0X0X0X0X:XC m m m G 0X0X0X0X0X0X0X0X0X0X0X0X",
"0X0X0X0X0X0X0X0X0X0X0XG M n n U } =.:.>X-Xo.OX6X8X#X#Xz $ & %.&.X.p + & D.0X0X0XOXo.-X=X:.=.-.U n m M G 0X0X0X0X0X0X0X0X0X0X0X0X",
"0X0X0X0X0X0X0X0X0X0X0X4X .U Y E Q ) Q K ] ` *XtXeX+X#X Xs + f X.A @ + i b 0X0X0X%X/ ] I / ( Q Q Y U  .8X0X0X0X0X0X0X0X0X0X0X0X0X",
"0X0X0X0X0X0X0X0X0X0X0X;X{ ) ) E E ) ) W H -.NXDXCXqXMXwX#Xx i i # @ $ d z 0X0X0X8X} H W ( ) E Q ) ) } 4X0X0X0X0X0X0X0X0X0X0X0X0X",
"0X0X0X0X0X0X0X0X0X0X0X&X~ ) ) / J ^ ( W T ;.GXGXGXFXZXNXMXtX-XOX..XX'.x oXVXZXjX0X#.K W ( Q J ^ ) ( ! &X0X0X0X0X0X0X0X0X0X0X0X0X",
"0X0X0X0X0X0X0XqX0X0X0X4X@.( ) ( Q J K J [ aXGXGXGXFXjX..#XyXyXyXMXtXoXz XXtXDXFXZXeX! Y K J Q ( ) ( @.4X0X0X0X0X0X0X0X0X0X0X0X0X",
"0X0X0XqX0X0X0X0X0X0X0X0X&X@.~ _ / _ ! ;.aXDXFXFXDXBXtX'.x #X+XyXrXjX+Xx b 6XBXDXDXFXBX>.{ ( _ ' { @.&X0X0X0X0X0X0X0X0X0X0XrX0X0X",
"0X0X0X0X0X0X0X0X0X0X0X0X9X4X&X*XpXaXlXaXZXNXNXNXtXOXOXc z '.b VXCXNXb d s  X&XCXCXGXGXDXAXsXsXuXeX4X0X0X0X0X0X0X0X0X0X0X0X0X0X0X",
"0X0X0X0X0X0X0X0X0X0X0X0X0XqX8XjXDXFXyX#XoX@X~.!.Y.h d y b x z 6X6X#Xz #Xd d z XX4XtXVXVXCXVXZXSXSX9X9X9X9X0X0X0X0X0X0X0X0X0X0X0X",
"0X0X0X0X0X0X0X0X0X0X0X5X5X^.<XVXDXCX1X^.Y.I.M.b.c.k y i wX#X+XSXAXyXb eXb i V.B.v z v F F ~.~.4X9XS G iX$X&X9XwX0X0X0X0X0X0X0X0X",
"0XqX0X0X0X0X0X0X0X5X).(.c.t.1XVXCXrX/.I.`._.P.M.c.V.@ s 6X6X#XSXDXBX'. XXXh K.c.K.H.J.B.S.v v v B.k * f A ~.9XwX0X0X0X0X0X0X0X0X",
"0X0X0X0XqX0X0X4X).I.x.z.d.B.F &X5X(.P._.`._.Q.W.W.V.# .X0Xb XXVXAXZXoXb b c E.P.T.m.m.m.c.c.v.m.c.x.V.B.k V.(.^.0X0X0X0X0X0X0X0X",
"0X0X0X0X0X0X2X(.l.z.z.x.!.$.$.F H.P.W._._.Q.Q.W.W.H.a #XtX.X6XNXVXZX1Xb D.S.I.Q.W.W.R.R.R.R.T.T.b.x.z.z.z.z.d.d.(.5X0X0X0X0X0X0X",
"0XqX0X0X5X).K.l.z.z.z.H.G X.X.~.P.Q.W.W.R.b.g.f.s.r.d F '.D.rXNXNXNXtXc b D.h.g.g.g.n.M.W.W.W.T.R.R.b.b.z.z.z.z.d.c.<X0X0X0X0X0X",
"0X0X0X5X/.x.z.z.b.z.R.V.v !.^.!.m.v.d.a.a.a.u.u.u.V.oXs '.#XeXyXMXyXrXD.D.c p.g.f.p.u.s.s.f.n.T.R.R.R.R.R.b.z.z.z.z.z.).0X0X0X0X",
"0X0X0X/.x.z.z.x.b.b.b.c.B.K.J.H.u.u.u.u.a.a.a.a.s.N.D.s OXrXlXyXlXyXMXtXs v G.L.K.j.s.s.a.a.a.a.s.v.R.R.R.m.b.v.z.z.z.z.).9X0X0X",
"0X0X).c.z.x.b.b.m.T.T.T.g.u.u.a.a.u.a.s.h.h.f.f.f.r., $ z ..oX~.b z d d t N.L.L.L.k.f.s.f.a.a.a.s.s.a.g.T.R.T.b.z.z.z.z.c.<X0X0X",
"0X5XP.z.x.b.b.R.R.T.g.a.a.a.a.a.a.a.f.h.G.E.G.h.i.i.r + $ p * * A A B f t y.e.y.i.h.h.h.f.f.f.f.s.s.a.a.a.g.T.T.m.x.z.z.z.J.5X9X",
"0X).z.v.b.m.M.R.j.a.u.u.a.a.f.f.f.f.h.h.h.i.e.8.2.1.e i d Z.D.c z b +X'.c r 1.2.4.3.6.6.e.e.f.h.f.j.s.a.a.a.s.v.M.b.b.z.z.z.2X0X",
"0XI.z.z.m.R.m.z.a.a.a.a.a.s.f.j.j.f.e.e.4.2.2.1.,.4.h '.[.[.fXxXgXxXgXfX7X].r.0.0.4.2.,.2.<.5.9.a.j.j.j.s.s.a.a.g.M.b.b.x.z.(.0X",
"0XJ.z.b.m.M.g.f.f.f.f.s.f.j.h.s.e.5.,.,.2.1.2.2.1.N.{.hXhX7X'.dXdXhXdXdXhXzX[.U.r.w.4.2.2.2.<.<.<.6.u.j.j.f.f.s.u.d.M.M.m.z.I.0X",
"0XP.x.M.m.g.s.L.P.n.f.f.k.f.y.3.,.,.,.2.3.2.3.3.0.F.hXcXbXzXdX[.].].{.7XdXcXzX|.U.w.6.3.3.2.2.2.<.1.1.7.u.k.g.f.s.a.v.T.c.v.I.8X",
"0XI.b.M.v.a.f.L.E.L.k.k.a.7.1.1.<.2.2.2.3.5.5.5.U.hXnXcX7X7X{.'.l l l '.dXxXmXxXY.e.0.6.5.6.4.6.5.2.<.<.2.y.k.k.f.s.a.b.m.v.(.0X",
"0X).b.b.s.a.s.k.L.L.k.i.2.,.,.1.3.2.5.6.5.8.8.0.{.vXmXbXgX3XA.g # # h {.7XgXvXmXgXi.q.9.8.8.8.q.q.7.3.<.,.,.9.k.k.f.f.g.b.b.2X0X",
"0X5XP.b.u.a.f.j.L.L.f.2.1.3.<.3.5.5.7.q.8.7.<.N.gXnXmXvXxX7XF.y @ @ u Z.dXxXvXmXcXZ.8 1.6.8.e.i.y.q.6.3.2.2.2.9.k.k.f.s.b.I.5X0X",
"0X0X).b.a.a.s.k.k.f.5.,.3.5.3.3.7.q.q.4.8 4 : A.cXmXmXvXdX}.].e > < # A.].|.vXmXnX7X> : ; 4 0 0.q.q.8.5.5.2.<.<.y.k.f.f.K.2X0X0X",
"0X0X0X(.a.s.j.k.L.y.2.<.<.3.5.6.8.4.9 9 w > q {.vXmXmXxXfX[.g 6 3 5 < g {.[.|.vXnXzXj - - - : 4 8 4.8.8.5.3.<.<.3.h.k.k.).0X0X0X",
"0X0X0X0XY.f.k.k.L.7.<.2.2.5.6.3.8 5 w.N.e 5 r |.vXmXvXkX}.N.5 6 6 7 6 q g A.{.xXvXvXF.2 - - - = = ; 8 7.5.5.3.2.2.i.k.(.5X0X0X0X",
"0X0X0X0X8X).L.E.k.3.2.5.6.5.1.2 > w r N.r w N.kXvXmXvX|.N.8 6 6 7 8 6 6 e l Z.fXxXcXdX9 2 ; - - = = - 4 5.5.3.2.<.r.2X0X0X0X0X0X",
"0X0X0X0X0X0X3XI.L.2.2.3.8.,.= = : 5 w e 8 r '.xXmXvXkXA.q = = > > o o o > # u '.[.{.F.0 3 2 2 - = = = = 4 5.3.0.C.3X0X0X0X0X0X0X",
"0X0X0XrX0X0XrX0X2XN.5.5.2.2 = = - : 4 4 5 1 h gXvXxX}.u . . . . . . . . O y u h h h < 6 6 6 2 2 - = = = - 9 N.,X6X8X0X0X0X0X0X0X",
"0X0X0X0X0X0X0X0X5X1X,XN.8 = = = - ; 2 2 5 1 g l {.{.l O . . . . . . . . # u y y u # X o 3 6 3 2 2 - : w j .X6X0XqX0X0X0X0X0X0X0X",
"0X0X0X0X0X0X0X0X0X0X0X5X@Xc e 5 - - 2 3 w u i i s a # . . . . . . . . X g Z.Z.u @ @ X . . 3 7 8 8 g S.@X5X0X0X0XqXqX0X0X0X0X0X0X",
"0X0X0X0X0X0X0X0X0X0X0X0X0X0X8X@XS.j e 8 r u y s i # X . . . . . . . . O g A.A.g g O . X O 1 C.F.@X6X0X0X0X0X0X0X0X0X0X0X0X0X0X0X",
"0X0X0X0X0X0X0X0X0X0X0X0X0X0X0X0X0XqX1X3X'.c d d a , O X X . . . . . X y l A.].].l d c ~.@X#X8X0X0X0X0X0X0X0X0X0X0X0X0X0X0X0X0X0X",
"0X0X0X0X0X0X0X0X0X0X0X0X0X0X0X0X0X0X0X0XwXwX8X#X@X#X@X+XXX.X'. X.X'.'.OX@X6X7X0X5X8X0X0X0X0X0X0X0X0X0X0X0X0X0X0X0X0X0X0X0X0X0X0X",
"0X0X0X0X0X0X0X0X0X0X0X0X0X0X0X0X0X0X0X0X0X0X0X0X0X0X0X0XqX9X9XqXwX9X0X0X0X0X0X0X0X0X0X0X0X0X0X0X0X0X0X0X0X0X0X0X0X0X0X0X0X0X0X0X"
};
