/* XPM */
static char *_91B1721706116[] = {
/* columns rows colors chars-per-pixel */
"64 64 248 2 ",
"   c #03022A",
".  c #0B0B2D",
"X  c #07043E",
"o  c #171734",
"O  c #2B2831",
"+  c #363339",
"@  c #483732",
"#  c #66322A",
"$  c #4B402E",
"%  c #685238",
"&  c #7D6423",
"*  c #080544",
"=  c #060457",
"-  c #0A0759",
";  c #09055B",
":  c #17165A",
">  c #2C2E4F",
",  c #373A49",
"<  c #0A0663",
"1  c #0D0969",
"2  c #130D69",
"3  c #1B1667",
"4  c #0E0A75",
"5  c #120C77",
"6  c #1B1476",
"7  c #231A78",
"8  c #1F2263",
"9  c #27256A",
"0  c #34326D",
"q  c #2B2573",
"w  c #463949",
"e  c #3D414B",
"r  c #3B4355",
"t  c #3B437E",
"y  c #4A4649",
"u  c #554C4B",
"i  c #444B55",
"p  c #575457",
"a  c #6C5049",
"s  c #7A744D",
"d  c #434D66",
"f  c #4A5466",
"g  c #464976",
"h  c #545A70",
"j  c #664F70",
"k  c #54647B",
"l  c #696366",
"z  c #6F6A70",
"x  c #696976",
"c  c #766979",
"v  c #78777B",
"b  c #B9301C",
"n  c #953823",
"m  c #C6261E",
"M  c #E31C23",
"N  c #EB1C24",
"B  c #D42121",
"V  c #E1262D",
"C  c #B94C17",
"Z  c #9F5920",
"A  c #AC7631",
"S  c #D7752A",
"D  c #885C4F",
"F  c #8D665B",
"G  c #AC765B",
"H  c #8F5276",
"J  c #8F716E",
"K  c #877C7A",
"L  c #AF7879",
"P  c #C74B4C",
"I  c #988E1E",
"U  c #B08F17",
"Y  c #B1A70C",
"T  c #BDB308",
"R  c #BAAE1A",
"E  c #A2992E",
"W  c #A89230",
"Q  c #CCB40E",
"!  c #C6BA09",
"~  c #C4B813",
"^  c #D79137",
"/  c #CAB82E",
"(  c #E2A624",
")  c #D6C906",
"_  c #DDD107",
"`  c #D3C712",
"'  c #E6D605",
"]  c #E9DC03",
"[  c #EBD614",
"{  c #EEE20C",
"}  c #F6E806",
"|  c #FAED01",
" . c #FFF200",
".. c #FDF008",
"X. c #F5E71A",
"o. c #D3C520",
"O. c #D9C837",
"+. c #EBD630",
"@. c #F4E728",
"#. c #F0E438",
"$. c #8F894A",
"%. c #AF954C",
"&. c #BEA34E",
"*. c #8F8479",
"=. c #AF9179",
"-. c #B7AB7A",
";. c #BDB071",
":. c #C6875F",
">. c #C7B14F",
",. c #C49275",
"<. c #C8B36E",
"1. c #DCC748",
"2. c #DBCF5A",
"3. c #E4D44A",
"4. c #E6D848",
"5. c #D2CB72",
"6. c #D5CC76",
"7. c #E0D562",
"8. c #210F86",
"9. c #220F88",
"0. c #231386",
"q. c #25128A",
"w. c #29148E",
"e. c #2B1B8C",
"r. c #2C1692",
"t. c #2E1993",
"y. c #301B95",
"u. c #341D9A",
"i. c #372F95",
"p. c #372698",
"a. c #3A229C",
"s. c #3F25A1",
"d. c #423495",
"f. c #623E9C",
"g. c #4429A4",
"h. c #4B27AE",
"j. c #4C2AAE",
"k. c #4C34AB",
"l. c #5436AD",
"z. c #4E2BB1",
"x. c #522DB3",
"c. c #5D2AB2",
"v. c #4F31B0",
"b. c #5532B5",
"n. c #5C33B6",
"m. c #5738B7",
"M. c #5A36B9",
"N. c #5C3ABA",
"B. c #6438AC",
"V. c #632DB4",
"C. c #6432B4",
"Z. c #673AB7",
"A. c #6633B9",
"S. c #6A35BA",
"D. c #6D3ABD",
"F. c #713CBF",
"G. c #535090",
"H. c #684599",
"J. c #6E5492",
"K. c #5A6B8C",
"L. c #5B7397",
"P. c #787984",
"I. c #716B90",
"U. c #647797",
"Y. c #5747AB",
"T. c #6E4DAB",
"R. c #6242BB",
"E. c #6C45B8",
"W. c #7449B7",
"Q. c #7856B3",
"!. c #5A66A7",
"~. c #756FA7",
"^. c #7B63B4",
"/. c #6F3FC0",
"(. c #723FC1",
"). c #6747C1",
"_. c #7442C2",
"`. c #7B4AC5",
"'. c #986D8D",
"]. c #86768B",
"[. c #876EAB",
"{. c #8777B2",
"}. c #8455C7",
"|. c #9166CB",
" X c #728398",
".X c #6A86A9",
"XX c #738BAA",
"oX c #728EB3",
"OX c #7794B6",
"+X c #7996C2",
"@X c #7EA2CB",
"#X c #868488",
"$X c #8A8A96",
"%X c #908C93",
"&X c #97969A",
"*X c #A7999A",
"=X c #B59D91",
"-X c #B7A585",
";X c #A9A395",
":X c #B2AA9B",
">X c #B9B496",
",X c #958BAE",
"<X c #9B99A8",
"1X c #8E8CB1",
"2X c #A39EA2",
"3X c #A39FAA",
"4X c #A29EB0",
"5X c #9FA1A9",
"6X c #85A2BD",
"7X c #A6A3A6",
"8X c #AAA4A4",
"9X c #ACAAA5",
"0X c #A7A6AB",
"qX c #A9A8AC",
"wX c #AFAFAF",
"eX c #AEADB2",
"rX c #B6B5B9",
"tX c #C2BC89",
"yX c #CEAD9A",
"uX c #C8BB91",
"iX c #CDC38B",
"pX c #E8E0AE",
"aX c #87A8C9",
"sX c #91A6CA",
"dX c #85ACD3",
"fX c #8DB4D8",
"gX c #93B8DA",
"hX c #BEBEC1",
"jX c #92BAE2",
"kX c #C0BEC0",
"lX c #A2C1DC",
"zX c #9BC5E8",
"xX c #A3C9E8",
"cX c #A7D3F4",
"vX c #AAD3F0",
"bX c #ABD5F4",
"nX c #AED9F5",
"mX c #C4C4C6",
"MX c #CCCCCD",
"NX c #CECFD1",
"BX c #D4D3D5",
"VX c #DADADB",
"CX c #DDDDE1",
"ZX c #E0DFE2",
"AX c #E7E6E5",
"SX c #EBEBEC",
"DX c #F3F1EE",
"FX c #F4F4F4",
/* pixels */
"0X0X0X0X0X0X0X0X0X0X0X0X0X0X0X0X0X0X0X0X0X0X0X0X0X0X0X0X0X0X0X0X0X0X0X0X0X0X0X0X0X0X0XqX0X0X0X0X0X0X0X0X0X0X0X0X0X0X0X0X0X0X0X0X",
"0X0X0X0X0X0X0X0X0X0X0X0X0X0X0X0X0X0X0X0X0X0X0X0X0X0X0XqX0X0X0X0XqX0X0X0X0X0X0X0X0X0X0X0X0X0X0X0X0X0X0X0X0X0X0X0X0X0XqX0X0X0X0X0X",
"0X0X0X0X0X0X0X0X0X0XqX0X0X0X0X0X0XqX0X0X0X0X0X0X0X0X0X0X0X0X5XqX0X0X0X0X0X0X0X0X0X0X0X0X0X0X0X0XqX0X0X0X0X0X0X0X0X0X0X0X0X0X0X0X",
"0X0X0X0X0X0X0X0X0X0X0X0X0X0X0X0X0X0X0X0X0X0X0X0X0X0X0X0X0X0X9XqX0X0X0X0X0X0X0X0X0X0X0X0X0X0X0X0X0X0X0X0X0X0X0X0X0X0X0X0X0X0X0X0X",
"0X0X0X0X0X0X0X0X0X0X0X0X0X0X0X0X0X0X0X0X0X0X0X0X0X0X0X0X0X0X9X>X9X4X0X0X0XqX0X0X0X0X0X0X0X0X0X0X0X0X0X0X0X0XqX0X0X0X0X0X0X0X0X0X",
"0X0X0X0X0X0X0X0X0X0X0X0X0X0X0X0X0X0X0X0X0X0X0X0X0X0X0X0X0X>X7.@.@.5.9X0X0X0X0X0X0X0X0X0X0X0X0X0X0X0X0X0X0X0X0X0X0X0X0X0X0X0X0X0X",
"0X0X0X0X0X0X0X0X0X0X0X0X0X0XqX0X0X0X0X0X0X0X0X0X0X0X0X0X:X4. . . ...5.0X0X0X0X0X0X0X0X0X0X0X0X0X0X0X0X0X0X0X0X0X0X0X0X0X0XqX0X0X",
"0X0X0X0X0X0XqX0X0X0X0X0X0X0X0X0X0XqX9X0X0X0X0X0X0X0X0X0XiX.. . . . .#.9X0X0X0X0X0X0X0X0XqX0X0X0X0X0X0X0X0X0X0X0X0X0X0X0X0X0X0X0X",
"0XqX0X0X0X0XqX3X0X0X0X0X0X0X0X0X0X0X0X0X0X0X0X0X0X0X0X0X>XX. . . ...7.9X0X0X0X0X0X0X0X0X0X0X0X0X0X0X0X0X0X0X0X0X0X0X0X0X0X0X0X0X",
"0X0X0X0X0X0XqXqX0X0X0X0X0X0X0X0X0X0X0X0X0X0X0X0X0X0X0X0X9X6...|  .@.>X9X0X0X0X0X0X0X0X0X0X0X0X0X0X0X0X0X0X0X0X0X0X0X0X0X0X0X0X0X",
"0X0X0X0X0X0XqXqX0X0X0X0X0X0X0X0X0X0X0X0X0X0X0X0X0X0XqXqXwX5.{ T T X.iX9X0X0X0X0X0X0X0X0X0X0X0X0X0X0X0X0X0X0X0X0X0X0X0X0X0X0X0X0X",
"0X0X0X0X0X0X4XeX0X0X0X0X0X0X0X0X0X0X0X0X0X0X0X0X0X0XqX9X;.X.] ) ) } _ ;.9X0X0X0X0X0X0X0X0X0X0X0X0X0X0X0X0X0X0X0X0X0X0X0X0X0XqX0X",
"0X0X0X0XqX3XqX=X;.>.:X7X0X0X0X0X0X0X0X0X0X0X0X0X0X0X0X5.` Y | ' ] } T _ <.qX0X0X0X0X0X0X0X0X0XqX0X0X0X0X0X0X9X-.<.=X0X0X0X0X0X0X",
"0X0X0X0XqXqX3X&.{  .X.>X0X0X0X0X0X0X0X0X0X0X0X0X0X0X5X=.! _  . .|  ._ ~ =.qX0X0X0X0X0X0X0X0X0X0X0X0X0X0X0X0X5.X.} [ -X0X0X0X0X0X",
"0X0X0X0XqXqX2X%.E }  .7.0X0X0X0X0X0X0X0X0X0X0X0X0X0X0X2X>. . . . . ...>.2X0X0X0X0X0X0X0X0X0X0X0X0X0X0X0X0X9X#. ._ %.%.0X0X0X0X0X",
"0X0X0X0XqX:X'.W E }  .7.qX0X0X0X0X0X0X0X0X0X0X0X0X0X0X0X8X<.3.+.#.O.5.;X0X0X0X0X0X0X0X0X0X0X0X0X0X0X0X0X0X:X#. ._ $.A *X5X0X0X0X",
"0X0X0X0X2XG P ( |  .@.tX7X0X7X0X0X0X0X0X0X0X0X0X0X0X0X0X0X0X0X9X9X8XqX0X0X0X0X0X0X0X0X0X0X0X0X0X0X0X0X0X0X7X5...| } S P =.3XqXqX",
"0X0X0X0XqX3X=X<.|  .7.9X0X0X9X7X0X0X0X0X0X0X0X0X0X0X0X0X0X0X0X0X0X0X0X0X0X0X0X0X0X0X0X0X0X0XqX0X0X0X0X0X0X0X>X@.| X.-X*X2X0X0X0X",
"0X0X0X0XqXqXeX=X[  .4.iX5.5.iX>X;X7XqX0X0X0X0X0X0X0X0X0X0X0X0X0X0X0X0X0X0X0X0X0X0X0X0X0X0X0X0X0X5X-X>XiX5.iX>X@. .3.5X0X0X0X0X0X",
"0X0X0X0X3X4XeX8X@. .| .. .] ` } <.7X0X0X0X0X0X0X0X0X0X0X0X0X0X0X0X0X0X0X0X0X0X0X0X0X0X0X0X0X0X0X7XO.{ ` |  ...|  .1.7X0X0X0X0X0X",
"0X0X0X0XqXqXqX:XX.| ) |  .} ! Q -X0X0X0X0X0X0X0X0X0X0X0X2X=X=.:.G =X&X3X0XqX0X0X0X0X0X0X0X0X0X0X0X<.T ) |  .} _ | 1.3XqX0X0X0X0X",
"0X0X0X0XqX3X3X8X+.| T }  .| ! >.8X0X0X0X0X0X0X0X0X0X0X7X=.^ +.^ ^ S G 2X0X0X0X0X0X0X0X0X0X0X0X0X0X-XR _  . ._ )  .2.0X0X0X0X0X0X",
"0X0X0X0X0XqXqXqX<.} ' Y ) ` / -.7X0X0X0X0X0X0X0X0X0X9X=./ }  .} [ U n J qX0X0XqX0X0X0X0X0X0X0X0X0X7X>.R ` ` T ] [ -X0X0X0X0X0X0X",
"qX0X0X0X0XqX3XqX8X-XO.O./ &.-X8X0X0X0X0X0X0X0XqX7X9X<.X.| | | | ] ] Y % &X0X0X0X0X0X0X0X0X0X0X0X0X0X5X;./ / O.1.-X8X0X0X0X0X0X0X",
"0X0X0X0X0X0X0X0X0X0X3X2X2X8X0X0X0X0X0X0X0X0X0X0X0X-.o.R _  . ._ $.$.) &  X8X7X0X0X0X0X0X0X0X0X0X0X0X0X7X2X*X8X8X0X0X0X0X0X0X0X0X",
"0X0X0X0X0X0X0X0X0X0XqXqX0X0X0X0X0X0X0X0X0X0X0X0X7X1.$.v I _ ) R *.*.` U l 8X0X0X0X0XqX0X0X0X0X0X0X0X0X0XqX0X0X0X0X0X0X0X0X0X0X0X",
"0X0X0X0X0X0X0X0X0X0X0X0X0X0X0X0X0X0X0X0X0X0X0X0X5X1.E $.U C B Z I E ] E l 7X0X0X0X0X0X0X0X0X0X0X0X0X0X0XqX0X0X0X0X0X0X0X0X0X0X0X",
"0X0X0X0X0X0X0X0X0X0X0X0X0X0X0X0X0X0X0X0X0X0X0X0X0X-.} ) Z M N M C Q ~ % %X0X0X0X0X0X0X0X0X0X0X0X0X0X0X0X0X0X0X0X0X0X0X0X0X0X0X0X",
"0X0X0X0X0X0X0X0X0X0X0X0X0X0X0X0X0X0X0X0X0X0X0X0X0X&X-.I B N N N N n $ $ v 0X0X0X0X0X0X0X0X0X0X0X0X0X0XqX0X0X0X0X0X0X0X0X0XqX0X0X",
"0X0X0X0X0X0X0X0X0XqX0X0X0X0X0X0X0X0X0X0X0X0XqXrXwX%X&XP N N N N N B # y v 7X0X0X0X0X0X0X0X0X0X0X0X0X0X0X0X0XqX0X0X0X0X0X0X0X0X0X",
"0X0X0X0X0X0XqX0X0X0X0X0X0X0XqX0X0X0X0X0XwXrXBXSXBX9X;XV N M M M M N n s l qXqX0XqX0X0X0X0X0X0X0X0X0X0X0X0X0X0X0X0X0X0X0X0X0X0X0X",
"0X0X0X0X0X0X0X0X0X0X0X0X0X0X0X0X0X0XqXwXNXBXFXFXFXpXW b m m m b b C I ` =.MXCXhXqX0X0X0X0X0X0X0X0X0X0X0X0X0X0X0X0X0X0X0X0X0X0X0X",
"0X0X0X0X0X0X0X0X0X0X0X0X0X0X0X0X8XwXmXVXCXAXFXDXpXO.] _ ) ) ! _ ] ] ' ` [ uXSXDXCXrXeX0X0X0X0X0X0X0X0X0X0X0X0X0X0X0X0X0X0X0X0X0X",
"0X0X0X0X0X0X0X0X0X0X0X0X0X0X0X0XeXMXVXAXSXSXDXpX@.~ ]  .|  . . . . .] T  .O.BXSXSXFXZXBXhXrXeX4X0X0X0X0X0X0X0X0X0X0X0X0X0X0X0X0X",
"0X0X0X0X0X0X0X0X0X0X0X0X0X0X0XeXMXAXNXmXVXMXNX<.) Y }  . . . . . . . .Y ! &.*XBXVXFXDXDXFXSXSXMXrX0X0X0X0X0X0X0X0X0X0X0X0X0X0X0X",
"0X0X0X0X0X0X0X0X0X0X0X0X0X0X3XhXAXAXkX%X%X%X].I.W ]  . . . . . . . . .| Y a l #X*XrXBXBXVXBXVXCXZX8X3X0X8X0X0X0X0X0XqX0XqX0X0X0X",
"0X0X0X0X0X0X0X0X0X0X0X0X4X3X4XBXDXVX2XI.H.B.C.C.'.' } |  . . . . .| | } W w T.j c l c #XK ].K *X8XF ,.yXL *X9XqX0XqX0X0X0X0X0X0X",
"0X0X0X0X0X0X0X0X0X0X0X,X[.J.<XBXBXeX[.C.V.V.A.S.c.H Q ' |  . . .| [ [ W '.p E.(.W.W.[.J.].].c I.J.j # % D '.{.3X0X0X0X0X0X0X0X0X",
"0X0X0X0X0X0X0X0X0X,XQ.C.c.J.K &X<X[.C.S.S.D.S.D.D.H.@ J -X%.>.6.iXkX*.K c x }._.(._.`.}.|.}.`.E.B.S.H.J.j f.V.T.{.0X0X0X0X0X0X0X",
"0X0X0X0X0X0X0X<X[.C.V.B.'.,.,.F H.S.D.(.(._._._._.B.w <XrX].<XMXBXZX&Xv  Xc W._._._.`.`.}.}.(.(.F.F.F.S.V.V.V.V.C.Q.,X0X0X0X0X0X",
"0X0X0X0X0X0X,XW.V.c.V.H.J ,.'.=XW._._._._./.A.A.M.G.p P.P.P.eXMXMXMXrXc v P.l.x.x.x.n.S.).)._./._.(.(.S.S.S.S.V.V.V.B.{.0X0X0X0X",
"0X0X0X0X0X,XC.c.c.V.V.H.H [.[.'._.(.A.n.x.x.z.b.b.J.$Xp P.&XeXhXmXrXwXv v x l.z.h.h.h.z.h.z.M././.(.(.(.(.(.S.S.C.V.V.V.[.4X0X0X",
"0X0X0XqX{.B.c.V.V.S.S.Z.J.W.Q.Q.n.j.j.z.z.z.b.m.E.J.v p &XrXrXkXhXrXmXwXu c l.z.z.z.z.x.z.z.h.h.h.x.V./.(.(.(.S.S.S.V.V.V.[.3X0X",
"0X0X0X,XE.c.V.V.S.S.F.(.T.n.x.z.z.z.x.x.b.x.b.m.R.Y.@ @ l #X$X*.v z a p w G.m.c.b.b.b.m.b.v.z.h.h.z.h.z.x.S././.F.S.S.V.V.C.{.0X",
"0X0X0XQ.c.V.V.C.A././.n.z.z.z.z.x.b.b.b.b.b.M.b.k.k.0 O @ u % a D D D % w s.g.x.v.m.R.).Y.N.b.v.z.z.z.z.h.h.c.Z.(.(.S.S.V.V.Z.<X",
"0X0X,XC.c.C.S.S././.z.h.z.z.b.b.b.b.b.k.g.u.r.w.0.0.0 e p v z x l v $X$Xc 0 9.9.w.y.s.k.Y.N.m.m.x.b.x.z.z.h.h.j.n.F.F.D.S.V.V.[.",
"0X0X[.V.C.C.S.F.M.z.z.x.b.b.m.m.z.s.r.q.8.8.q.e.i.i.f  XXXXXaXzXfXjXgXdX6XXXi.8.8.0.0.0.r.u.s.v.M.M.b.b.x.x.z.h.j.n.D.(.S.S.V.Q.",
"0X0X[.C.S.F.F.C.z.z.x.b.M.M.j.u.9.8.8.9.0.q.w.i.Y.!.OXgXgX6X XaXdXfXaXaXgXzXXXw.q.q.q.9.9.9.9.r.a.x.M.M.n.x.x.b.b.b.n.D.(.S.V.E.",
"0X0X^.C.S.F.A.z.x.m.M.M.v.u.q.0.q.q.q.q.q.w.t.i.!.OXfXxXvXxX6XXX.X.XOX6XaXxXzXU.r.r.w.q.w.9.8.8.9.9.s.b.m.M.M.N.E.R.v.M./.S.S.E.",
"0X0X{.A.S.D.b.z.b.M.N.g.w.9.0.q.e.t.t.t.t.t.s.i.!.jXbXxX6X6X6X Xh k K. XaXzXnXlXY.t.t.r.w.w.q.q.9.9.9.r.v.N.N.R.`.E.b.j.n./.S.Q.",
"0X0X,XD.S.n.x.M.N.N.s.w.8.q.w.t.p.p.a.u.u.u.a.d.OXcXnXvXfXXX Xd + + f OXaXfXcXbXsXg.u.y.t.r.w.w.q.q.9.9.w.g.N.R.R.R.v.h.x./.S.[.",
"0X7X4X[.S.x.x.M.N.s.q.q.q.w.t.u.g.k.s.a.r.0.5 t fXbXnXcXzX@XK.e O O e K.aXzXcXnXxXL.q.t.u.u.y.y.r.w.q.q.9.q.j.Z.R.R.v.h.h.A.W.,X",
"0X0X0X,XW.b.b.N.h.q.q.q.w.t.y.u.p.p.7 2 - - - L.zXnXbXcXaX+X.X0 : O e L..X@XcXcXnX4X: 1 6 e.a.a.y.r.r.r.q.8.w.n.R.N.b.z.h.A.{.0X",
"0X0X0X0X1XN.m.N.y.9.q.q.t.u.u.y.6 2 - ; ; = 9 OXcXnXbXzXdXOXg 6 < 2 8 d oXXXfXcXnXgXg : 8 9 q e.y.y.r.w.9.9.8.s.).N.M.z.z.^.4X0X",
"0X0X0X0X0X{.R.v.q.9.q.r.y.y.6 < = ; ; ; < ; 0 @XbXnXcXjXOXt 7 5 5 4 1 8 d L.oXzXcXcXU.3 q G.g 3 2 w.y.t.r.9.9.r.N.N.N.M.^.<X0X0X",
"0X0X0X0X0X0X1XY.q.q.r.r.r.2 = = = = ; ; < 2 G.zXnXnXcX@XG.6 5 5 4 4 4 5 0 k L.dXzXxXaXq 0 G.d.3 < - 6 u.r.w.q.w.N.).).~.0X0X0X0X",
"0X0X0X0X0X0X0X<XJ.i.t.r.5 = = = = ; < < 1 0  XzXnXnXjXL.: * X X * * * - 8 , r  XXXOXL.7 3 q q 3 - = - 6 t.r.q.w.m.^.1X0X0X0X0X0X",
"0X0X0X0X0X0X0X0X0X$XG.7 - = = - - < < 4 5 > f fXcXzX+Xr           .     o e r f f d 0 2 2 2 2 - - = = = 0.t.r.d.~.4X0X0X0X0X0X0X",
"0X0X0X0X0X0X0X0X0X0X4X$Xh 8 - - - 1 2 5 3 , d k oXOXk o                 O r e e i , 6 5 2 1 < ; - = = = 3 G.~.4XeX0X0X0X0X0X0X0X",
"0X0X0X0X0X0X0X0X0X0X0X0X3X&XI.g 9 2 4 < > , e y u i +                 . d K.K.r + O 2 5 4 1 < < - : 0 G.$X4X0X0XeX0X0X0X0X0X0X0X",
"0X0X0X0X0X0X0X0X0X0X0X0XqXqX8X3X&XU.J.0 r r e y i + o                 o f L.L.g d o * 5 5 6 q g I.$X<X0X0X0X0X0X0X0X0X0X0X0X0X0X",
"0X0X0X0X0X0X0X0X0X0X0X0X0X0X0X0X0X0X0X5X Xv p p i , O o o .   .   .   e k L..X.Xh , d K.P.$X<X5X7X0X0X0X0X0X0X0X0X0X0X0X0X0X0X0X",
"0X0X0X0X0X0X0X0X0X0X0X0X0X0X0X0X0X0X0X0X9XqX0X<X&X<X&X$X%X#X#X X*. X X$X&X5X6X5X<X5X4X0XeX0X0X0X0X0X0X0X0X0X0X0X0X0X0X0X0X0X0X0X",
"0X0X0X0X0X0X0X0X0X0X0X0X0X0X0X0X0X0X0X0X0X9X0X0X0X0XqXqXqX8X8XqX9X8X0X0X5X0X0XqX0X0X0X0X0X0X0X0X0X0X0X0X0X0X0X0X0X0X0X0X0X0X0X0X"
};
