/* XPM */
static char *_92B1721706117[] = {
/* columns rows colors chars-per-pixel */
"64 64 243 2 ",
"   c #03022A",
".  c #0B0A2E",
"X  c #07043E",
"o  c #131332",
"O  c #1D203A",
"+  c #262738",
"@  c #312F34",
"#  c #5B3724",
"$  c #543729",
"%  c #544334",
"&  c #6F4E2D",
"*  c #070544",
"=  c #060457",
"-  c #09055B",
";  c #0B085B",
":  c #191856",
">  c #27294E",
",  c #363849",
"<  c #363B58",
"1  c #0A0663",
"2  c #0D0968",
"3  c #130E64",
"4  c #130C6C",
"5  c #1A1668",
"6  c #0F0A75",
"7  c #120C75",
"8  c #120C7A",
"9  c #1C1475",
"0  c #221C76",
"q  c #262566",
"w  c #353766",
"e  c #2A2573",
"r  c #323376",
"t  c #413A79",
"y  c #3C424A",
"u  c #3B4455",
"i  c #3C4776",
"p  c #4A4747",
"a  c #52494A",
"s  c #444B59",
"d  c #565058",
"f  c #6D514F",
"g  c #495568",
"h  c #595E66",
"j  c #4A4F75",
"k  c #575D77",
"l  c #65596C",
"z  c #6A656C",
"x  c #766A6C",
"c  c #756973",
"v  c #777477",
"b  c #992F1D",
"n  c #B9301C",
"m  c #C6261E",
"M  c #E31C23",
"N  c #EB1C24",
"B  c #D42121",
"V  c #E22A30",
"C  c #B94C17",
"Z  c #9B6223",
"A  c #AC7336",
"S  c #D27734",
"D  c #885749",
"F  c #866157",
"G  c #955566",
"H  c #94766C",
"J  c #B07772",
"K  c #CA5051",
"L  c #988E1E",
"P  c #B18E16",
"I  c #B3A60B",
"U  c #BDB308",
"Y  c #BAAE1A",
"T  c #A8922F",
"R  c #A2992E",
"E  c #C6BA09",
"W  c #D8A01D",
"Q  c #CEB611",
"!  c #C5B813",
"~  c #C6B630",
"^  c #D7C906",
"/  c #DDD107",
"(  c #D3C711",
")  c #E6D705",
"_  c #E9DC03",
"`  c #EAD415",
"'  c #EAD715",
"]  c #EEE209",
"[  c #F6E806",
"{  c #FAED01",
"}  c #FFF200",
"|  c #FDF008",
" . c #F5E619",
".. c #D8C630",
"X. c #EDDA2F",
"o. c #F4E728",
"O. c #F0E438",
"+. c #8E884D",
"@. c #B09350",
"#. c #878677",
"$. c #AC9274",
"%. c #B9AD77",
"&. c #D6864D",
"*. c #C7B14F",
"=. c #C69376",
"-. c #C7B566",
";. c #C7B371",
":. c #DBC747",
">. c #DBCF5A",
",. c #E5D748",
"<. c #D2CB72",
"1. c #D5CC76",
"2. c #E0D562",
"3. c #210F86",
"4. c #220F88",
"5. c #231386",
"6. c #25128A",
"7. c #29148E",
"8. c #2C1B8D",
"9. c #2C1692",
"0. c #2E1993",
"q. c #301B95",
"w. c #341D9A",
"e. c #352C8E",
"r. c #362797",
"t. c #3A229C",
"y. c #3F25A1",
"u. c #473993",
"i. c #653E8F",
"p. c #4429A4",
"a. c #4B27AE",
"s. c #4C2AAE",
"d. c #4D34AA",
"f. c #5334AD",
"g. c #4E2BB1",
"h. c #522DB3",
"j. c #5D2AB2",
"k. c #5432B5",
"l. c #5C33B6",
"z. c #5738B7",
"x. c #5A36B9",
"c. c #5C3ABA",
"v. c #622DA8",
"b. c #653BA8",
"n. c #632DB4",
"m. c #6431B4",
"M. c #673AB7",
"N. c #6633B9",
"B. c #6A35B9",
"V. c #6D3ABD",
"C. c #713CBF",
"Z. c #524F90",
"A. c #6C5192",
"S. c #576B87",
"D. c #587092",
"F. c #6E6E8E",
"G. c #7A7986",
"H. c #647A96",
"J. c #5948B0",
"K. c #6849A5",
"L. c #7256AE",
"P. c #6D44B7",
"I. c #6242BB",
"U. c #7449B8",
"Y. c #7756B3",
"T. c #5B77A3",
"R. c #657BA5",
"E. c #7471A7",
"W. c #7B63B4",
"Q. c #6F3FC0",
"!. c #723FC1",
"~. c #6747C1",
"^. c #7442C2",
"/. c #7B4AC5",
"(. c #8E6B8B",
"). c #A1798B",
"_. c #846BAE",
"`. c #8978A9",
"'. c #8777B2",
"]. c #8657C7",
"[. c #9C73D1",
"{. c #758599",
"}. c #5F85B6",
"|. c #6E89AF",
" X c #748BA7",
".X c #7A96B6",
"XX c #7C9DC4",
"oX c #868488",
"OX c #968D8D",
"+X c #8A8898",
"@X c #989599",
"#X c #B29086",
"$X c #A8999A",
"%X c #B6A586",
"&X c #A9A395",
"*X c #B2AA9B",
"=X c #B9B496",
"-X c #9189AE",
";X c #958BAE",
":X c #9A98A6",
">X c #829BBC",
",X c #A49EA7",
"<X c #A49EB5",
"1X c #85A0BC",
"2X c #A6A2A6",
"3X c #AAA4A3",
"4X c #ACAAA5",
"5X c #A7A6AB",
"6X c #A9A8AB",
"7X c #B3A9A5",
"8X c #ADADB2",
"9X c #AFB0B4",
"0X c #B4B2B5",
"qX c #B5B6BA",
"wX c #BDBBBD",
"eX c #C5BC88",
"rX c #C9B6AB",
"tX c #C9C286",
"yX c #E4DEA9",
"uX c #86A7C8",
"iX c #8CADD1",
"pX c #8DB4D9",
"aX c #95B8D8",
"sX c #BEBEC2",
"dX c #8EBEE4",
"fX c #95BEE4",
"gX c #C2BFC2",
"hX c #9BC5E7",
"jX c #9FCCF0",
"kX c #A5CBE9",
"lX c #ABD5F3",
"zX c #ACD5F3",
"xX c #A9D5F5",
"cX c #AED9F5",
"vX c #C8C7C9",
"bX c #CFCDCF",
"nX c #D6D5D6",
"mX c #E0DFE1",
"MX c #E5E4E3",
"NX c #EBEAEA",
"BX c #F0EFF0",
"VX c #F3F3F3",
"CX c #F9F8F7",
/* pixels */
"5X5X5X5X5X5X5X5X5X5X5X5X5X5X5X5X5X5X5X5X6X5X5X5X5X5X5X5X5X5X5X5X5X5X5X5X5X5X5X5X5X5X5X5X5X5X5X5X5X5X5X5X5X5X5X5X5X5X5X5X5X5X5X5X",
"5X5X5X5X5X5X5X5X5X5X5X5X5X5X5X5X5X5X5X5X5X5X5X5X5X5X5X5X5X5X5X5X5X5X5X5X5X5X5X5X5X5X5X5X5X5X6X5X5X5X5X5X5X5X5X5X5X5X5X5X5X5X5X5X",
"5X5X5X5X5X5X5X5X5X5X5X5X5X5X5X5X5X5X5X5X5X5X5X5X5X6X5X5X5X5X6X6X5X5X5X5X5X5X5X5X5X5X5X5X5X5X5X5X5X5X5X5X5X5X5X5X5X5X5X5X6X5X5X5X",
"5X5X5X5X5X5X5X5X5X5X6X5X5X5X5X5X5X5X5X5X5X5X5X5X5X5X5X5X5X6X6X4X5X6X5X5X5X5X5X5X6X5X5X5X5X5X5X5X5X5X5X5X5X5X5X5X5X6X5X5X5X5X5X5X",
"5X5X5X5X5X5X5X5X5X5X5X5X5X5X5X5X5X5X5X5X5X5X5X5X5X5X5X5X5X5X4X=X4X5X5X5X5X5X5X5X5X5X5X5X5X5X5X5X5X5X5X5X5X5X6X5X5X5X6X5X5X5X5X5X",
"5X5X5X5X5X5X5X6X5X5X5X5X5X5X5X6X5X5X5X5X5X5X5X5X5X5X5X5X5X=X2.o.o.<.6X5X5X6X5X5X5X5X5X5X5X5X5X5X5X5X5X5X5X5X5X5X6X5X5X5X5X5X5X5X",
"5X5X6X5X5X5X5X5X5X5X5X5X5X5X5X5X5X5X5X5X5X5X5X5X5X5X5X5X*X,.| } } | <.5X5X5X5X5X5X5X5X5X5X5X5X5X5X5X5X5X5X5X5X5X5X5X5X5X5X5X5X5X",
"5X5X5X5X5X5X5X5X5X5X5X5X5X5X5X5X5X5X6X5X5X5X5X5X5X5X5X5XtX| } } } } O.4X5X5X5X5X5X5X5X5X5X5X5X5X5X6X5X5X5X5X5X5X5X5X5X5X5X5X5X5X",
"5X5X5X5X5X5X5X5X5X5X5X5X5X5X5X5X5X5X5X5X5X5X5X5X6X5X5X5X=X .} } } | ,.8X5X5X5X5X5X5X5X5X5X5X5X5X5X5X5X5X5X5X6X5X5X5X5X5X5X5X5X5X",
"6X5X5X5X5X5X5X6X6X5X5X5X5X5X5X5X5X5X5X5X5X5X5X5X5X5X5X5X4X1.| } } o.=X5X5X5X5X5X5X5X5X5X5X5X5X5X5X5X5X5X5X5X5X5X5X5X5X5X5X5X5X5X",
"5X5X6X5X5X5X6X6X5X5X5X5X5X5X5X5X5X5X5X5X5X5X5X5X5X5X5X5X4X1.] U U  .tX6X5X5X5X5X5X5X5X5X5X5X5X5X5X5X5X5X5X5X6X5X5X5X5X5X5X5X6X5X",
"5X5X<X6X5X5X6X<X5X5X5X5X5X5X5X5X5X5X5X5X5X6X5X5X5X5X6X4X-.o._ ^ ^ [ / %.6X5X5X5X5X5X5X5X5X5X5X5X5X5X5X5X5X5X6X6X5X5X5X5X5X5X5X5X",
"5X5X5X5X5X5X5X$X%.*.*X2X5X5X5X5X6X5X5X5X5X5X5X5X5X5X5X<.( I [ ) _ [ U / ;.8X5X5X5X5X5X5X5X5X5X5X5X5X5X5X5X5X6X%X-.%X2X6X5X5X5X5X",
"5X5X5X5X5X5X,X*.[ }  .=X5X5X5X5X5X5X5X5X5X5X5X5X5X5X5X$.E / } } { } ^ Y $.5X5X5X5X5X5X5X5X5X5X5X5X6X5X5X5X6X<.] { ' $.2X5X5X5X5X",
"5X5X5X5X5X5X,X@.R [ } 2.5X5X5X5X5X5X5X5X5X5X5X5X5X6X5X:X*.{ } } } } | :.&X5X5X5X5X5X5X5X5X5X5X5X5X5X5X5X6X4XO.} ' @.$.2X5X5X5X5X",
"5X5X5X5X5X7XJ T R ] } 2.6X5X5X5X5X5X5X5X5X5X5X5X5X5X6X6X2X;.,.X.X.,.-.*X5X5X5X5X5X5X5X5X5X5X5X5X5X5X5X5X6X*XO.} / +.A $X5X5X5X5X",
"5X5X5X5X,XJ K W { } o.eX6X6X5X5X5X5X5X5X5X5X5X5X5X5X5X5X5X5X5X6X3X5X5X5X5X5X5X5X5X5X5X5X5X5X5X6X5X5X5X5X5X5X<.| } [ W K ).,X5X5X",
"5X5X5X5X6X,X#X-.{ } >.4X5X6X5X4X5X5X5X5X5X5X5X5X5X5X5X5X5X5X5X5X5X5X5X5X5X5X5X5X5X5X5X5X5X5X5X5X5X5X5X5X5X5X=Xo.{  .%X$X$X,X5X5X",
"5X5X5X5X6X,X8X7X .} ,.tX<.<.eX=X&X5X5X5X5X5X5X5X5X5X5X5X5X2X2X:X2X5X5X5X5X5X5X5X5X6X5X5X5X5X5X5X4X&X=XtX<.tXeXo.} ..5X5X5X6X5X5X",
"5X5X5X5X6X,X7X7XX.} { { } _ ( [ -.5X5X5X5X5X5X5X5X5X5X5X,X$.&.&.S J $X5X5X5X5X5X5X5X5X5X5X5X5X5X2X.. .( [ | | { } >.5X5X5X<X6X5X",
"5X5X5X5X5X5X5X7Xo.{ ^ { } [ E Q %X5X5X5X5X5X5X5X5X5X5X2X$.S &.&.S A Z $X5X5X5X5X5X5X5X5X5X5X5X5X2X-.U ^ { } [ / } ,.5X5X5X5X5X5X",
"5X5X5X5X5X5X6X3XX.{ U [ } { E *.&X5X5X5X5X5X5X5X5X5X5XOXA P E Z & # & F 2X5X5X5X5X5X5X6X5X5X5X5X5X%XY / } } / ^ } *.5X6X5X5X5X5X",
"5X5X5X5X5X5X6X,X-.[ ) I ^ E ~ %.6X6X5X5X5X5X5X5X5X5X,X$.W ] } [ / P $ $ @X5X5X5X5X5X5X5X5X5X5X5X5X2X-.I ( ( U ] ' %X5X5X5X5X5X5X",
"5X5X5X5X5X6X6X6X3X%X:...~ *.%X3X5X5X5X5X5X5X5X5X5X&X-. .} } } } ) ) I $ v 5X5X5X5X5X5X5X5X5X5X5X5X5X&X%.~ ~ ..:.%X4X5X5X5X5X5X5X",
"5X5X5X5X5X5X5X5X5X5X,X3X,X3X6X5X5X5X5X6X5X5X5X5X5X%.( Y / } } / +.+.^ & z 2X6X6X5X5X5X5X5X5X5X5X5X5X5X5X2X$X3X3X5X5X5X5X5X5X5X5X",
"5X5X5X5X5X5X5X5X5X5X5X6X5X5X6X5X5X5X5X5X5X5X5X5X5X*.+.#.L / E Y H #.( R v 3X5X6X5X5X5X5X5X5X6X5X5X5X5X5X5X5X5X5X5X5X5X5X5X5X5X5X",
"5X5X5X5X5X5X5X5X5X5X5X5X5X5X5X5X5X5X5X5X5X5X5X5X2X:.R +.P C m C L R _ R oX5X5X5X5X5X5X5X5X5X5X5X5X5X5X5X5X5X5X5X5X5X5X5X5X5X5X5X",
"5X5X5X5X5X5X5X5X5X5X5X5X5X5X5X5X5X5X5X5X5X5X5X6X2X%.[ ^ Z B N M C E ! & v 5X5X5X5X5X5X5X5X5X5X5X5X5X5X5X5X5X5X5X5X5X5X5X5X5X5X5X",
"5X5X5X5X5X5X5X5X5X6X5X5X5X5X5X5X5X5X6X5X6X5X8XsXqXOX%XT B N N N N b % % v 5X5X5X5X5X5X5X5X5X5X5X5X5X5X5X5X5X5X5X5X5X5X5X5X5X5X5X",
"5X5X5X5X5X5X5X5X5X5X5X5X5X5X5X5X5X5X6X6XqXwXMXVXmXqXnXK N N N N N B f f v 8X8X5X5X5X5X5X5X5X5X5X5X5X5X5X5X5X5X5X5X5X5X5X6X5X5X5X",
"5X5X5X5X5X5X5X5X5X5X5X5X5X5X5X5X5X5X8XqXbXnXCXCXCXVXrXV M M N N M N D H @XbXNXvXqX5X5X5X5X5X5X5X5X5X5X5X5X5X5X5X5X6X5X5X5X5X5X5X",
"5X5X5X5X5X5X5X5X5X5X5X5X5X5X6X5X5XqXbXnXMXNXCXCXVXyXT n m n m n C C L ( $.8XmXBXNXbXqX6X5X5X5X5X5X5X5X5X5X5X5X5X5X5X5X5X5X5X5X5X",
"5X5X5X5X5X5X5X5X5X5X5X5X5X5X5X5X0XbXnXmXNXMXNXMXyX.._ / ^ ^ ^ / _ _ ) ( ' %.vXNXNXCXBXmXnXsXsX5X5X5X5X5X6X5X5X5X5X5X5X5X5X5X5X5X",
"5X5X5X5X5X5X5X5X5X5X5X5X5X5X5X0XnXMXbXwXbXwXrXeXo.U _ } { } } } } } _ U } ..oXvXnXVXBXMXVXVXVXnXsX5X5X5X6X<X5X5X5X5X5X5X5X5X5X5X",
"5X5X5X5X5X5X5X5X5X5X5X5X5X5X2XvXNXNXwXoX(.+X`.@.^ I [ } { } } } } } } I Q T z x OXOXwXgXgXsXsXnXmX$X7X7X$X7X6X,X5X5X5X5X5X5X5X5X",
"5X5X5X5X5X5X5X5X5X5X5X5X5X2X6XnXNXbX:XA.b.b.j.v.T ) } } } } } } } } } } P a b.A.A.l x c H v v oXOXD H =.$.OX6X6X5X5X5X6X5X5X5X5X",
"5X5X5X5X5X5X5X5X5X5X5X5X5X@X@XbXvX<XL.v.n.n.n.n.G ^ [ { } } } } } } } [ @.l M.B.B.M.Y._._.(.F.A.A.i.f f D ).5X5X5X5X5X5X5X5X5X5X",
"5X5X5X5X5X5X5X5X5X5X5X;X_.H H OX+XL.m.j.n.N.n.B.j.(.W ' { } } } { ] ` @.F z U.C.C.C.C.].[.].C.B.m.n.M.i.t A.;X,X5X5X5X5X5X5X5X6X",
"5X5X5X5X5X5X5X5X3X;XY.K.(.=.=.H K.B.m.M.N.B.C.C.C.b.a OX$.@.-.1.eXrX@Xz (.G.U./.^.^.^.].[.].!.!.B.B.n.n.n.n.n.U.`.6X8X5X5X5X5X5X",
"5X5X5X5X5X5X5X,X_.m.j.K.J ).H ).b.V.V.V.!.!.!.U.C.A.h v {.(.0XbXnXbXqXv v G.U.^.^.^././.]././.!.C.B.B.B.B.n.n.n.m.Y.;X,X5X5X5X5X",
"5X5X5X5X5X6X;XU.n.j.n.i.c L._._.C.^.^.^.^.Q.B.c.x.A.@Xa {.2X0X0XqX8X8XoXv z f.h.h.j.l.M.~.~.!.!.!.!.!.V.V.n.N.N.n.n.M.`.<X6X6X5X",
"5X5X5X6X5X'.b.j.n.n.n.B.A.C.U.U.^.C.N.l.h.h.g.h.k.Z.z d @X0XwXvXsX0XwX8Xa A.f.h.a.a.s.s.g.g.x.N.V.!.!.!.!.C.V.B.B.n.n.n._.,X5X5X",
"5X5X5X6X-Xm.n.n.n.N.B.Q.C.U.!.B.l.s.a.g.g.g.k.l.I.K.$ @ a z x x f f % a , u.h.g.g.g.g.g.g.g.g.y.a.h.l.V.!.!.C.B.B.B.n.n.n._.,X6X",
"5X5X5X;XM.j.n.n.n.B.Q.!.C.M.g.g.g.h.h.h.k.h.k.c.I.I.u.@ $ f # & D F D F d f.k.h.h.k.z.z.k.k.g.s.a.a.a.a.j.B.C.!.V.B.B.n.n.n.'.5X",
"5X4X5XY.j.n.m.n.N.Q.Q.l.g.g.g.g.k.h.k.h.k.z.k.k.d.d.i g F.{.{.{.F. X>X.Xv Z.y.a.k.z.I.~.J.z.k.g.h.h.a.a.a.a.h.B.!.C.B.B.n.n.P.:X",
"5X5X;XM.n.n.B.B.Q.Q.g.a.g.g.k.k.z.z.k.h.y.w.9.7.5.e.j .X X XuXhXaXhXpXiXiX.XZ.4.6.q.y.d.J.c.z.z.k.h.k.h.h.s.a.g.l.C.!.V.B.n.n._.",
"5X5X_.n.m.B.B.C.x.g.g.h.k.k.z.z.s.y.7.6.5.5.5.8.e.Z.XXdXkXuX XXXuXpXuXuXaXhX1Xe.5.5.5.6.9.w.y.z.x.x.k.k.h.h.s.s.s.l.V.C.V.N.n.Y.",
"5X5X_.m.B.V.V.m.g.g.k.k.x.k.s.w.4.3.5.4.4.6.8.r.Z..XhXkXkXkXaX XH.D..X.XiXkXkX.X8.6.5.5.3.3.4.7.t.h.x.x.l.h.h.k.k.k.l.V.!.B.n.P.",
"5X5XW.m.B.Q.N.h.g.k.x.x.h.w.5.4.5.5.7.7.6.7.8.r.}.hXcXjXuX X{.H.g k g {.uXaXlXkXE.7.7.6.6.6.3.3.4.6.y.k.c.z.z.c.P.I.k.k.V.V.N.P.",
"5X5X'.m.B.B.h.g.x.c.c.p.7.4.4.7.8.0.0.9.9.0.r.u.XXcXcXlXaX1X{.u @ + g .XuXpXlXcXiXp.9.9.7.7.6.6.4.4.3.9.s.c.c.I./.I.k.s.M.V.B.Y.",
"5X5X;XM.N.l.h.k.x.c.y.7.3.6.7.9.r.t.t.w.w.w.t.J.aXcXcXlXaXuXH.u + + y S..XhXxXcXlXE.w.w.0.9.9.7.6.3.4.4.7.p.c.I.I.I.s.s.h.V.B._.",
"6X5X,X_.Q.h.k.x.c.y.6.7.6.6.9.r.p.d.y.r.9.5.9 R.jXcXcXkXiXXXD.q ; O + {.|.XXhXxXcXiXe.0.w.w.q.q.9.7.6.6.4.7.s.M.I.I.k.s.s.B.U.;X",
"5X5X5X;XU.k.z.c.a.4.4.7.9.0.w.w.t.r.5.3 1 - q XXxXcXxXfXiX}.w 3 ; 1 > u }.|.iXhXzXkXj ; 0 8.w.t.0.9.9.9.6.6.7.k.I.c.k.g.g.l.'.5X",
"5X5X5X5X-Xc.x.c.q.4.6.6.9.q.w.0.9 3 ; ; - 1 i XXxXcXxXpX|.r 4 4 3 2 2 : u D.|.hXlXzX-X5 5 q e 8.q.w.9.7.4.4.4.p.I.c.z.h.s.W.,X6X",
"5X5X5X5X5X'.I.d.6.4.6.9.0.q.9 1 = = - - - 5 D.dXcXxXjXXXj 6 6 7 8 6 6 6 q g k XXhXhX.Xq e Z.j 5 4 7.q.9.7.4.4.9.c.~.c.k.W.<X6X5X",
"5X5X5X5X5X5X-XJ.6.6.9.0.7.4 = - = = - - - w {.jXxXxXpXT.9 3.6 8 6 6 8 8 0 y u D.D.R.S.q r Z.u.5 ; ; 9 w.0.7.4.7.z.~.I.'.:X5X5X5X",
"5X5X5X5X5X5X5X:XA.e.9.9.7 = = = - - - 1 4 < u uXjXfX|.< * X X X * * * ; q y s g g s q 5 0 e e 5 ; = - 9 0.7.7.6.z./.;X5X5X5X5X5X",
"5X5X5X5X5X5X5X5X2X-XZ.e - = = = - 1 1 6 9 < d s H.H.k o           .     > u y @ y < 5 7 4 3 3 ; - = = - 5.9.8.u. X<X5X5X5X5X5X5X",
"5X5X5X5X5X5X5X5X5X5X5X+Xk q ; - 1 1 4 8 e y p p a p +                 o g D.}.u @ : 8 8 4 1 1 - - = = = 5 Z.E.<X5X5X5X5X5X5X5X5X",
"5X5X5X5X5X5X5X5X5X5X5X5X,X@XF.j q 4 8 5 u u y p p @                   O g D.D.k g o 3 8 6 2 1 1 = 3 r k +X<X5X5X5X5X5X5X5X5X5X5X",
"5X5X5X5X5X5X5X5X5X5X5X5X2X5X2X2X@XH.S.w y y y u , o                   , g T.}.}.u   * 8 8 9 e j F.+X:X3X5X5X5X5X5X5X5X5X5X5X5X5X",
"5X5X5X5X5X5X5X5X5X5X5X5X5X5X5X5X5X5X,X:XG.h h d s , + o o . .     . o g }.}.}.k , , g Z.E.+X:X2X2X5X6X6X5X5X5X5X5X5X5X5X5X5X5X5X",
"5X5X5X5X5X5X5X5X5X5X5X5X5X5X5X5X5X5X5X5X6X6X5X:X@X:X@X@X+XoX#.{.{.#.{.@X+X:X@X@X@X,X5X5X4X5X5X5X5X5X5X5X5X5X5X5X5X5X5X5X5X5X5X5X",
"5X5X5X5X5X5X5X5X5X5X5X5X5X5X5X5X5X5X5X5X5X5X5X6X6X5X5X5X5X5X5X5X5X4X5X5X5X6X5X4X5X5X5X5X5X5X5X5X5X5X5X5X5X5X5X5X5X5X5X5X5X5X5X5X"
};
