/* XPM */
static char *_94B1721706117[] = {
/* columns rows colors chars-per-pixel */
"64 64 242 2 ",
"   c #291E1A",
".  c #382C1E",
"X  c #02012A",
"o  c #0C0C2D",
"O  c #100F36",
"+  c #262736",
"@  c #302F34",
"#  c #4F362A",
"$  c #593420",
"%  c #5A4232",
"&  c #714936",
"*  c #746A3D",
"=  c #070445",
"-  c #060457",
";  c #070459",
":  c #09065C",
">  c #0D0A5B",
",  c #19185B",
"<  c #2A2A45",
"1  c #383B4B",
"2  c #2B2A54",
"3  c #393C52",
"4  c #0A0763",
"5  c #0C0968",
"6  c #140E67",
"7  c #130C6D",
"8  c #191668",
"9  c #0F0A74",
"0  c #130C77",
"q  c #1B1278",
"w  c #221C71",
"e  c #272668",
"r  c #35326E",
"t  c #353968",
"y  c #292474",
"u  c #463450",
"i  c #433879",
"p  c #3C434B",
"a  c #3C4357",
"s  c #3A4376",
"d  c #474649",
"f  c #554C49",
"g  c #434A57",
"h  c #585658",
"j  c #6F5751",
"k  c #485568",
"l  c #565864",
"z  c #484772",
"x  c #4A5A76",
"c  c #565D78",
"v  c #705E73",
"b  c #566276",
"n  c #6B676A",
"m  c #766969",
"M  c #767174",
"N  c #7C7576",
"B  c #B9301C",
"V  c #C6261E",
"C  c #E31B22",
"Z  c #EB1C24",
"A  c #D42121",
"S  c #E2272E",
"D  c #B94C17",
"F  c #A0661D",
"G  c #945330",
"H  c #AE7436",
"J  c #CE7430",
"K  c #886A4A",
"L  c #A2625A",
"P  c #837B7B",
"I  c #907472",
"U  c #AD7573",
"Y  c #C74A4B",
"T  c #C17F56",
"R  c #988E1E",
"E  c #B0901A",
"W  c #B1A70C",
"Q  c #BDB308",
"!  c #BAAE1A",
"~  c #968A2F",
"^  c #AB9130",
"/  c #BFAE39",
"(  c #C5B90A",
")  c #CBB811",
"_  c #C8B62B",
"`  c #E7A42F",
"'  c #D7C906",
"]  c #DDD107",
"[  c #D3C614",
"{  c #E7D707",
"}  c #E9DC03",
"|  c #ECD815",
" . c #EEE10B",
".. c #F6E806",
"X. c #FAED01",
"o. c #FFF200",
"O. c #FDF008",
"+. c #F5E719",
"@. c #DAC632",
"#. c #ECD72C",
"$. c #F4E728",
"%. c #F0E438",
"&. c #8F894A",
"*. c #AC934D",
"=. c #B5A64D",
"-. c #8C837D",
";. c #B08E72",
":. c #BBB175",
">. c #E19551",
",. c #C7B04E",
"<. c #C9936E",
"1. c #C7B36E",
"2. c #DCC749",
"3. c #D8CC54",
"4. c #E5D748",
"5. c #D2CB72",
"6. c #D4CB75",
"7. c #E0D562",
"8. c #210F86",
"9. c #220F88",
"0. c #231384",
"q. c #25128A",
"w. c #29148E",
"e. c #2C1B8C",
"r. c #2C1692",
"t. c #2E1993",
"y. c #311B95",
"u. c #341D9A",
"i. c #362C88",
"p. c #382698",
"a. c #3A239C",
"s. c #3F25A1",
"d. c #47388F",
"f. c #452AA4",
"g. c #4B27AE",
"h. c #4C2AAE",
"j. c #4F36AC",
"k. c #4E2BB1",
"l. c #522DB3",
"z. c #5E2AB2",
"x. c #5533B5",
"c. c #5C33B6",
"v. c #5738B7",
"b. c #5A36B9",
"n. c #5C3ABA",
"m. c #6535A9",
"M. c #632CB4",
"N. c #6532B4",
"B. c #673AB7",
"V. c #6633B9",
"C. c #6A34B9",
"Z. c #6D3ABD",
"A. c #713CBF",
"S. c #4F4B90",
"D. c #565796",
"F. c #684B98",
"G. c #566A88",
"H. c #566D91",
"J. c #6B708F",
"K. c #647A9A",
"L. c #5A43B3",
"P. c #6B4FAD",
"I. c #6C45B7",
"U. c #6242BB",
"Y. c #7347B9",
"T. c #7555B1",
"R. c #5B74A6",
"E. c #6F77AA",
"W. c #7B63B3",
"Q. c #6F3FC0",
"!. c #723FC0",
"~. c #6C48C1",
"^. c #7442C2",
"/. c #7B4AC5",
"(. c #857E85",
"). c #8B6890",
"_. c #8571B0",
"`. c #8777B1",
"'. c #8657C7",
"]. c #9C73D1",
"[. c #6E849E",
"{. c #5E82B2",
"}. c #6984A5",
"|. c #7289A5",
" X c #748EB3",
".X c #7897BA",
"XX c #7A9DC3",
"oX c #7DA2C6",
"OX c #868488",
"+X c #948686",
"@X c #8B8996",
"#X c #949090",
"$X c #989599",
"%X c #AD958B",
"&X c #A69B9C",
"*X c #B6A586",
"=X c #A9A395",
"-X c #B2A999",
";X c #B9B496",
":X c #8D82AB",
">X c #958BAD",
",X c #9D9CA2",
"<X c #9A96A9",
"1X c #8D8FB3",
"2X c #A39EA3",
"3X c #A39FAA",
"4X c #90A1B7",
"5X c #A5A3A5",
"6X c #A9A4A3",
"7X c #ACAAA5",
"8X c #A7A6AB",
"9X c #A9A7AA",
"0X c #AAA9AD",
"qX c #B2ADAC",
"wX c #B7B6B9",
"eX c #C3BB88",
"rX c #CCA393",
"tX c #CAC48E",
"yX c #DDD7A2",
"uX c #839CC2",
"iX c #86A7C9",
"pX c #91B1CC",
"aX c #89ADD2",
"sX c #8DB4D8",
"dX c #96B8D9",
"fX c #BFBFC1",
"gX c #96BEE3",
"hX c #9AC4E7",
"jX c #A3CAE9",
"kX c #A4CFF0",
"lX c #ABD5F3",
"zX c #A8D5F5",
"xX c #AED9F5",
"cX c #C8C7C8",
"vX c #D0CFCF",
"bX c #D8D7D8",
"nX c #DEDEE1",
"mX c #E0E0E0",
"MX c #E3E3E4",
"NX c #EBEAEA",
"BX c #F0EFEE",
"VX c #F5F4F4",
/* pixels */
"8X8X8X8X8X8X8X8X8X8X8X8X8X8X8X8X8X8X8X8X8X8X8X8X8X8X8X8X8X8X8X8X8X8X8X8X8X8X8X8X8X8X8X8X8X8X8X8X8X8X8X8X8X8X8X8X8X8X8X8X0X8X8X8X",
"8X8X8X8X8X8X8X8X8X8X9X8X8X8X8X8X8X8X8X8X8X8X8X8X0X8X8X8X8X8X8X8X8X8X8X8X8X8X8X8X8X8X8X8X8X8X8X8X8X8X8X8X8X8X8X8X8X8X8X8X8X8X8X8X",
"8X8X8X8X8X9X8X8X8X8X8X8X8X8X8X0X8X8X8X8X8X8X8X8X8X8X8X8X8X8X8X8X8X8X8X8X8X8X8X8X8X8X8X8X8X0X8X8X8X8X8X8X8X8X0X8X8X8X8X8X8X8X8X8X",
"8X8X8X8X8X8X8X8X8X8X8X8X8X8X8X8X8X0X8X8X8X8X8X8X8X8X8X8X8X8X8X7X8X8X8X8X8X8X8X8X8X8X8X8X8X8X8X8X8X8X8X8X8X8X8X8X8X8X8X8X8X8X8X8X",
"8X8X8X8X8X8X8X8X8X8X0X8X8X8X8X8X8X8X8X8X8X8X0X8X8X8X8X0X8X8X7X;X7X8X8X8X8X8X8X8X8X8X8X8X8X8X8X8X8X8X8X8X8X8X8X8X8X8X8X8X8X8X8X8X",
"8X8X9X8X8X8X8X8X8X8X8X8X8X8X8X8X8X8X8X8X8X8X8X8X8X8X8X8X8X;X7.$.$.5.7X8X8X0X8X8X0X8X8X8X8X8X8X8X8X8X8X8X8X8X8X8X8X8X8X8X8X8X8X8X",
"8X8X8X8X8X8X9X8X8X8X8X8X8X8X8X8X8X8X8X8X8X8X8X8X8X8X8X8X-X4.o.o.O.O.5.0X8X8X8X8X8X8X8X8X8X8X8X8X8X8X8X8X8X8X8X8X8X8X8X8X8X8X8X8X",
"8X8X8X8X8X8X8X8X8X8X8X8X8X8X8X8X8X8X8X8X8X8X8X8X8X8X8X8XtXO.o.o.o.o.%.7X8X8X8X8X8X8X8X8X8X8X8X8X0X8X8X8X8X8X8X8X8X8X8X0X8X8X8X8X",
"8X8X8X8X8X8X0X0X8X8X8X8X8X8X8X8X8X8X8X8X8X8X8X8X8X8X8X8X;X+.o.o.o.O.4.0X8X8X8X8X8X8X8X8X8X8X0X8X8X8X8X8X8X8X8X8X8X8X8X8X8X8X8X8X",
"8X8X8X8X8X0X3X3X8X8X8X8X8X8X8X8X8X0X8X8X8X8X8X8X8X8X8X8X7X6.O.o.o.$.;X0X8X8X8X8X8X8X8X8X8X8X8X8X8X8X8X8X8X8X8X8X8X8X8X8X8X8X8X8X",
"8X8X8X8X8X8X0X0X8X8X8X8X8X8X8X8X8X8X8X8X8X8X8X8X8X8X8X8X7X6.} ( Q +.tX8X8X8X8X8X8X8X8X8X8X8X8X8X8X8X8X8X8X8X8X8X8X8X8X8X8X0X8X8X",
"6X0X8X8X8X8X0X3X8X8X8X8X8X8X8X8X8X8X8X8X8X8X8X8X8X0X8X-X:.$.} ' ' ..] :.8X8X8X8X8X8X8X8X8X8X8X8X8X8X8X8X8X8X8X8X8X8X8X8X8X8X8X8X",
"8X8X8X8X8X8X6X2X:.,.-X8X8X8X8X8X8X8X8X8X8X8X8X8X8X8X8X5.[ W X.{ } } Q { 1.0X8X8X8X8X0X8X8X8X8X8X8X8X8X8X8X8X5X:.1.*X8X8X8X8X8X8X",
"8X8X8X8X8X8X3X,. .X.+.;X8X8X8X8X8X8X8X8X0X8X8X8X8X8X8X;.( ] X.o.o.o.] ( ;.8X8X8X8X8X8X8X8X8X8X8X8X8X8X8X8X7X5.+.X.| %X8X8X8X8X8X",
"8X8X8X8X6X8X6X*.^ X.o.7.8X8X8X8X8X8X8X8X8X8X8X8X8X8X8X,X,.X.X...o.X...,.,X8X8X8X8X8X8X8X8X8X8X8X8X8X8X8X0X7X%.o.] *.*.8X8X8X8X8X",
"8X8X8X8X3X2X%X^ ^  .o.7.9X8X8X8X8X8X8X8X8X8X8X8X8X8X8X8X2X1.4.#.%.%.1.-X0X0X8X8X8X8X8X8X8X8X8X8X8X8X8X0X0X7X%.o.[ ~ H &X8X8X8X8X",
"8X8X8X8X3XU Y ` X.X.$.eX8X8X5X8X8X8X8X8X8X8X8X8X8X8X8X8X8X&X;.<.;.&X5X8X8X8X0X8X8X8X8X8X8X8X8X8X8X8X8X8X8X5X5.o.o...J Y ;.3X0X9X",
"8X8X8X8X6X3X%X1.X.X.4.0X8X8X7X7X8X8X8X8X8X8X8X8X8X8X8X8X%X*.>.>.J J I 5X8X8X8X8X8X8X8X8X8X8X8X8X8X8X8X8X8X8X;X$.X.+.*X&X3X0X6X0X",
"8X8X8X8X3X0XqX-X+.X.4.tX6.6.eX;X=X5X8X8X8X8X8X8X8X8X7X$XL J H G G G G I 8X8X8X8X8X8X8X8X8X8X8X8X8X*X;XtX5.tXeX$.o.@.8X8X8X8X8X8X",
"8X8X8X8X0X0X3X-X$.o.X.X.o.} [ ..1.7X8X8X8X8X8X8X8X8X8X+XG & # $ $ $ # & 2X8X8X8X8X8X8X8X8X8X8X8X8X@.| [ ..O.O.X.o.3.8X8X8X8X8X8X",
"8X8X8X8X8X8X8X-X$.X.( X.o...( ) *X8X8X8X8X8X8X8X8X8X5Xn # & <.>.T $ . @ OX8X8X8X8X8X8X8X8X8X8X8X8X1.Q ' X.o...] X.2.8X8X8X8X8X8X",
"8X8X8X8X8X0X0X2X#.X.( ..o...[ / 7X8X8X8X8X8X8X8X8X8X,Xh . F 2.1.>.&   # n 8X8X8X8X0X8X8X8X8X8X8X8X*X! ] o.o.] ' O.3.6X8X8X8X8X8X",
"8X8X8X8X8X8X8X6X1...{ W ' [ _ *X5X8X8X8X8X8X8X8X8X8X-.K )  .X...| ^ % % l 8X8X8X8X8X8X8X8X8X8X8X8X5X,.! ' ' Q } | *X8X8X8X8X8X8X",
"8X8X8X8X8X8X8X8X3X1.2.@._ =.*X6X8X8X8X8X8X8X8X8X7X$X=. .o.o.o.X.{ } ) f @X8X8X8X8X8X8X8X8X8X8X8X8X8X5X:./ _ @.3.*X9X8X8X8X8X8X8X",
"8X8X8X8X8X8X8X8X8X8X3X6X6X6X8X8X8X8X8X8X8X8X8X8X8X:.[ ! { X.X.] &.&.] * OX8X8X5X8X8X8X8X8X8X8X8X8X8X8X9X2X2X6X6X6X6X8X8X8X8X8X8X",
"8X8X8X8X8X8X8X8X8X8X8X8X8X8X8X8X8X8X8X8X8X8X8X0X7X,.&.P R { ) Q -.-.[ E P 8X8X8X8X8X8X8X8X8X8X8X8X8X8X8X8X8X8X8X8X8X8X8X8X8X8X8X",
"8X8X8X8X8X8X8X8X8X8X8X8X8X8X8X8X8X8X8X8X7X0XcXmXvX@.R &.R D A F R R  .~ n 5X8X5X8X8X8X8X8X8X8X8X8X8X8X8X8X8X8X8X8X8X8X8X8X8X8X8X",
"0X8X8X8X0X8X8X8X8X8X8X8X8X8X8X8X8X8X8X0XcXbXBXVXVXyX+.' F C Z C D ) 2.M OXvXcXwX8X8X8X8X8X8X8X8X8X8X8X8X8X8X8X8X8X8X8X8X8X8X8X0X",
"8X8X8X8X8X8X8X8X8X8X8X8X8X8X8X8X8X0XfXcXbXMXVXVXVXBXtXH V Z Z Z Z L $Xl $XcXBXMXvX0X8X3X8X8X8X8X8X8X8X8X8X8X8X8X8X8X8X8X8X8X8X8X",
"8X8X8X8X8X8X8X8X8X8X8X8X8X8X8X0X0XfXbXNXNXNXBXVXBXbX0XY Z Z Z Z Z S -.M P 8XbXBXVXNXbXfXwX8X8X8X8X8X8X8X8X8X8X8X8X0X8X8X8X8X8X8X",
"8X8X8X8X8X8X8X8X8X8X8X8X8X8X8X0XcXmXvXvXmXvXbXvXcX5X-.S Z C Z Z Z Z G K h OXqXnXnXVXVXVXBXMXnXfX0X8X8X8X8X8X8X8X8X8X8X8X8X8X8X8X",
"8X8X8X8X8X8X8X8X8X0X8X8X8X8X8XwXMXNXcX5X7X,X7X,X,X=.E B V B V B B D R [ * n m ,XfXvXMXMXMXMXNXMXbX9X6X9X8X8X8X8X8X8X8X8X8X8X8X8X",
"0X8X8X8X8X8X8X8X8X8X8X8X6X8X9XvXNXMX9XOXOX$X5X&X:._ } ] ' ) ' ' } ..{ [ { ~ OXm m m (.$X#X#X$XwXfXI rXrX%X6X0X8X8X8X8X8X8X8X8X8X",
"8X8X8X8X8X8X8X8X8X8X8X8X8X2X0XbXmXwX5X,X8X8X8X1.+.( } o.o.o.X.o.o.o.} Q o.@.<X<X$X+X+X(.P N m N P j & K L +X0X8X8X8X8X8X8X8X8X8X",
"8X8X8X8X8X8X8X8X8X8X8X8X8X+XP qXwX5X2X3X<X>X_.U ' W ..o.o.o.o.o.o.o.o.W ) ^ I.B.I.T._.`.`.<X$X$X2X2X(.I j #X8X8X8X8X8X8X8X8X8X8X",
"8X8X8X8X8X8X8X8X8X8X8X8X&X<.<.I OX:X_.P.B.N.z.m.~ } o.o.o.o.o.o.o.o.o.o.! j I.z.M.M.M.C.C.I.Y._.`.>X3X2X&X5X8X8X8X8X8X8X8X8X8X8X",
"8X8X8X8X8X8X8X8X8X8X8X,X;.<.;.(.P.z.z.z.M.M.M.M.).| ....o.o.o.o.X.X.X...*.(.I.V.C.C.Z.A.'./.C.M.M.m.Y._.>X3X0X8X8X8X8X8X8X8X8X8X",
"8X8X8X8X8X8X8X8X8X8X8X(.I ).).).z.M.M.M.M.C.M.C.M.L ` { X.X.o.o...| | *.I v Y.!.A.A.Y.'.].'.A.C.M.M.M.M.m.T.`.3X8X8X8X8X0X8X8X8X",
"8X8X8X8X8X8X8X8X8X>XT.F.v m.P.T.M.C.N.C.C.C.A.A.A.F.OXj ;.1.1.1.eXrXqX2Xh M ^.!.^.^.^.'.].'.^.!.C.M.M.M.M.M.M.T.:X8X0X8X8X8X8X8X",
"8X8X8X8X8X8X8X3XW.N.z.z.m.M.C.M.C.C.Z.A.!.!.!.Y.A.F.f d P 6XqX2X#XP N N f S.^.^.^.^././.'./.!.!.A.Z.Z.C.N.M.M.M.M.T.>X8X8X8X8X8X",
"8X8X8X8X8X8X>XY.z.z.M.z.M.!.Q.Q.!.!.^.^.^.Q.Q.b.v.x.i . # # % j j K G % u z.k.l.l.z.c.B.~.~.!.Q.!.!.!.Z.C.C.C.C.M.M.B.`.6X8X8X8X",
"8X8X8X8X8X`.B.z.z.M.M.!.M.!.!.!.^.!.B.z.l.k.k.l.x.v.d.@ f n j j j m I J.h d.g.k.g.g.g.g.h.k.x.Q.Z.!.!.!.!.!.C.M.C.M.M.M._.3X8X8X",
"8X8X0X8X:Xm.z.M.z.M.Q.Q.!.!.!.Q.l.g.g.l.k.k.l.b.U.L.z K.|. XiXdXuXaXaXuX.XE.j.h.k.h.l.k.h.h.g.g.g.l.V.Z.!.!.A.Z.C.C.M.M.z._.3X8X",
"8X8X8X<XI.z.M.N.z.Q.Q.!.!.M.g.g.l.l.l.l.l.l.b.b.U.P.|.pXaX|.[.dXsXgXaXiXgXgXE.v.x.x.v.v.x.x.k.g.g.g.g.g.l.C.Q.!.Z.C.C.M.M.N.`.8X",
"8X8X8XT.M.M.M.M.Q.Q.Q.c.k.k.k.k.l.l.x.x.v.b.v.x.L.R.aXhXkXhXXX.X X.X.XpXpXjXdXT.j.v.U.U.L.L.x.k.l.k.k.g.g.g.z.B.!.!.C.C.M.M.I.<X",
"8X0X>XN.M.M.C.C.Q.n.k.g.k.l.l.x.v.v.x.h.s.u.r.w.D.iXkXjXpXpX4X.XG.G.|.|.iXjXxXpXS.t.a.j.L.n.v.v.l.x.l.l.l.g.g.g.c.Z.!.Z.C.M.M._.",
"8X8X_.M.M.C.C.Z.b.k.k.l.x.x.v.v.k.s.r.9.9.9.0.i. XkXxXjXpX.XJ.l 1 1 g }.iXsXlXlXuXe.q.q.r.u.s.x.b.b.x.x.l.l.k.g.k.c.Q.Q.C.C.M.T.",
"8X8X_.N.C.A.A.c.k.k.x.x.v.v.h.u.9.9.9.9.9.9.w.S.pXxXxXlXhX4XK.g @ + h [.aXdXlXxXhXS.q.q.9.8.9.e.s.l.b.b.x.x.l.x.x.x.z.Q.!.C.M.I.",
"8X8XW.N.Z.Z.V.k.k.b.b.b.j.u.q.8.9.q.q.q.w.w.r.R.hXxXxXzXaX.X}.i.i.< p H.|.sXkXzXxXuXt.q.q.q.8.8.8.q.s.x.v.v.b.b.U.U.l.b.Z.Z.V.I.",
"8X8X`.N.C.Z.l.l.b.v.n.f.w.8.q.q.t.e.t.w.t.t.u.XXkXzXxXjXaXXXD.a.u.p.t x .XXXsXkXxXdXd.r.w.w.q.q.8.8.8.r.j.v.v.~./.I.v.k.V.Q.V.T.",
"8X8X>XB.C.c.k.c.n.n.s.w.9.q.q.t.p.p.a.u.y.u.S.oXzXxXxXgXoXG.y 7 0 7 8 2 G.R..XhXlXjXE.u.t.r.w.w.q.9.8.8.q.h.n.U.U.U.x.g.k.Q.C._.",
"8X8X3X_.C.l.x.n.n.s.q.q.q.q.t.a.f.j.s.a.t.0.D.sXzXzXkXaXH., ; ; ; : - - a b [.sXkXxXuXu.u.u.u.y.r.r.q.q.9.w.h.B.U.L.k.h.g.V.Y.<X",
"8X8X8X>XY.x.x.n.g.q.9.q.w.t.u.u.p.p.w 7 : 2 [.gXzXxXhX}.e 4 4 > > 4 : : , p k }.uXiX}.e w e.u.a.y.r.r.r.q.9.r.x.n.n.x.g.g.V.`.8X",
"8X8X8X8X:Xn.x.v.t.9.q.w.r.u.u.t.q 5 4 > > < x gXzXkXoXS.8 5 5 9 7 5 5 4 8 p a x x c t > 8 e y e.u.y.r.w.q.9.9.s.U.n.v.x.g.W.3X8X",
"8X8X8X8X0X`.~.j.q.q.w.w.t.t.q 4 - ; ; ; , a k [.aXiXR.y 0 9 9 0 0 9 9 9 e a p p g d , 8 y D.s , 7 q.y.y.w.9.9.r.n.U.L.x.W.3X0X8X",
"8X8X8X8X8X8X1XL.q.q.w.t.r.7 - - - ; : 4 , a d d h k r 8.q 0 0 0 0 0 0 0 s x k 1 @ 2 6 8 r D.d.8 > : q y.r.w.q.q.n.~.~.W.3X8X8X8X",
"8X8X8X8X8X8X8X<XJ.y.r.r.7 - ; ; ; : 4 5 t a p f f 1 , = = = = o = = = , k R.K.k a 8 5 8 q y y 8 > ; : q r.r.q.q.v.~.1X8X8X8X8X8X",
"8X8X8X8X8X8X8X8X5X:XD.w ; - - - ; 4 4 7 t a p p p + X X X X X X X X X < x H.R.R.S.q 9 7 6 8 6 > ; - - : 9.r.r.d.1X4X8X8X8X8X8X8X",
"8X8X8X8X8X8X8X8X8X8X8X@Xc 2 > ; 4 4 7 y a @ p p @ o X X X X X X X X o 1 G.{.{.H.< 4 0 9 5 5 4 : ; ; ; ; 8 S.E.3X0X8X8X8X8X8X8X8X",
"8X8X8X8X8X8X8X8X8X8X8X8X3X$XJ.z e 7 0 8 k + @ @ + X X X X X X X X X O b G.R.G.k O X 4 0 9 5 4 4 : , r G.@X3X8X8X8X0X8X8X8X8X8X8X",
"8X8X8X8X8X8X8X8X8X8X8X8X3X8X8X3X$XK.D.s x + + + o X X X X X X X X X a b G.}.}.1 X X = 0 0 q y z J.@X2X3X8X8X8X8X8X8X8X8X8X8X8X8X",
"0X8X8X8X8X8X8X8X8X8X8X8X0X8X8X8X8X8X7X$X Xn h l 3 < + O O o o o X + g J.}.G.x < < 1 z G.E.@X<X8X3X6X8X8X8X8X8X8X8X8X8X8X8X0X8X8X",
"8X8X8X8X8X8X8X8X8X8X8X8X8X8X8X8X8X8X8X8X7X5X5X5X5X<X$X$X@XOX-.[.OXOX[.-.,X4X,X@X$X5X5X8X7X7X8X8X8X8X8X8X8X8X0X8X8X8X8X8X8X8X8X8X",
"8X8X8X8X8X8X8X8X8X8X8X8X8X8X8X8X8X8X8X8X8X8X8X8X8X8X8X8X8X8X7X5X5X5X8X8X5X8X8X8X8X8X8X8X9X0X8X8X8X8X8X8X8X8X8X8X8X8X8X8X8X8X8X8X"
};
