/* XPM */
static char *_95A1721706118[] = {
/* columns rows colors chars-per-pixel */
"64 64 248 2 ",
"   c #32231C",
".  c #02012A",
"X  c #0B0A2D",
"o  c #070638",
"O  c #191935",
"+  c #342A25",
"@  c #292B36",
"#  c #302F31",
"$  c #333336",
"%  c #4F3B31",
"&  c #613724",
"*  c #544339",
"=  c #70482F",
"-  c #080545",
";  c #060457",
":  c #07045A",
">  c #09065C",
",  c #0B085A",
"<  c #16135C",
"1  c #262843",
"2  c #363A48",
"3  c #28275B",
"4  c #363858",
"5  c #0A0763",
"6  c #0D0966",
"7  c #0E096B",
"8  c #130C6A",
"9  c #1A1766",
"0  c #0E0A75",
"q  c #110C74",
"w  c #160E78",
"e  c #1B1372",
"r  c #231F6F",
"t  c #231977",
"y  c #1D276D",
"u  c #2E2C70",
"i  c #443C42",
"p  c #3B414A",
"a  c #3D4453",
"s  c #35457B",
"d  c #474649",
"f  c #554B47",
"g  c #444B57",
"h  c #564A56",
"j  c #595659",
"k  c #6B5349",
"l  c #7E6657",
"z  c #414D66",
"x  c #495467",
"c  c #4E5170",
"v  c #4B5876",
"b  c #615F61",
"n  c #4E6176",
"m  c #566378",
"M  c #686668",
"N  c #6B6B73",
"B  c #706A72",
"V  c #777679",
"C  c #D31D21",
"Z  c #E71C23",
"A  c #D12B27",
"S  c #B85417",
"D  c #8C5031",
"F  c #BB5D2D",
"G  c #AD6F2C",
"H  c #D77734",
"J  c #88665C",
"K  c #956A53",
"L  c #AC7756",
"P  c #B76C6F",
"I  c #CE7E48",
"U  c #A48F18",
"Y  c #B7AC08",
"T  c #B5A614",
"R  c #BAB110",
"E  c #AF9227",
"W  c #B0A72D",
"Q  c #C79311",
"!  c #CDB20C",
"~  c #C5B90A",
"^  c #C19D20",
"/  c #C4A838",
"(  c #D6BE32",
")  c #D6C805",
"_  c #D2C80A",
"`  c #E7D903",
"'  c #E9D213",
"]  c #EBD719",
"[  c #EEE103",
"{  c #F4E605",
"}  c #FBED02",
"|  c #FFF200",
" . c #FDF00A",
".. c #EDE116",
"X. c #F8EA17",
"o. c #D7CA2C",
"O. c #E2CA2D",
"+. c #EBD827",
"@. c #E6D735",
"#. c #EFE32F",
"$. c #AD9050",
"%. c #A19851",
"&. c #8A8B69",
"*. c #A68777",
"=. c #B38F71",
"-. c #B8A46D",
";. c #B4AB7D",
":. c #C8905A",
">. c #E98A41",
",. c #CAB24C",
"<. c #CAB358",
"1. c #CE9872",
"2. c #C8B46F",
"3. c #E6A370",
"4. c #D7C64D",
"5. c #E1D651",
"6. c #EBE154",
"7. c #D6CD69",
"8. c #CFC877",
"9. c #210F86",
"0. c #220F88",
"q. c #25128A",
"w. c #281688",
"e. c #29148E",
"r. c #2B1692",
"t. c #2E1894",
"y. c #311B96",
"u. c #341C9A",
"i. c #372B8E",
"p. c #362496",
"a. c #3A229C",
"s. c #3D26A0",
"d. c #4B3793",
"f. c #4228A4",
"g. c #4B27AE",
"h. c #4C2AAE",
"j. c #4D32AB",
"k. c #5436AE",
"l. c #4E2BB1",
"z. c #522DB2",
"x. c #5E29B2",
"c. c #5532B5",
"v. c #5C33B6",
"b. c #5837B7",
"n. c #5936B9",
"m. c #5C3BBB",
"M. c #6335AD",
"N. c #622CB4",
"B. c #6532B5",
"V. c #6938B4",
"C. c #6534B9",
"Z. c #6A35BA",
"A. c #633CBC",
"S. c #6D3ABD",
"D. c #703CBE",
"F. c #474594",
"G. c #554E95",
"H. c #675694",
"J. c #556888",
"K. c #59728F",
"L. c #5B7498",
"P. c #686E89",
"I. c #7A7A83",
"U. c #647996",
"Y. c #5949B0",
"T. c #6E4FAC",
"R. c #6D46B5",
"E. c #6343BB",
"W. c #7349B7",
"Q. c #7758B2",
"!. c #5B79A8",
"~. c #6D6FAD",
"^. c #7D63B4",
"/. c #6F3FC0",
"(. c #723FC0",
"). c #7442C2",
"_. c #744FC2",
"`. c #794BC4",
"'. c #8C7197",
"]. c #8977AE",
"[. c #8570B2",
"{. c #8A7CB2",
"}. c #804FC7",
"|. c #8656C7",
" X c #9D73D1",
".X c #778496",
"XX c #5E81AE",
"oX c #6A84A5",
"OX c #738AAA",
"+X c #748DB4",
"@X c #7794B8",
"#X c #6493C7",
"$X c #709AC6",
"%X c #838285",
"&X c #88868A",
"*X c #928B8B",
"=X c #8B8B94",
"-X c #928F97",
";X c #8D9198",
":X c #98969A",
">X c #AC8D86",
",X c #AB9989",
"<X c #A59B98",
"1X c #B3A588",
"2X c #B6AE8F",
"3X c #A8A199",
"4X c #ABA39D",
"5X c #B8B498",
"6X c #8981A8",
"7X c #9388AD",
"8X c #9C99A8",
"9X c #918DB1",
"0X c #A29FA7",
"qX c #8EA3B4",
"wX c #A5A3A6",
"eX c #ABA8A7",
"rX c #A7A6AB",
"tX c #A8A7AA",
"yX c #ADADB1",
"uX c #AFAFB2",
"iX c #B7B7B9",
"pX c #C4B98E",
"aX c #E2B995",
"sX c #CFC986",
"dX c #E7E197",
"fX c #D3CEB1",
"gX c #899DC1",
"hX c #88A8C9",
"jX c #87ABD1",
"kX c #8DB4D9",
"lX c #93B8DA",
"zX c #BDBEC1",
"xX c #92BBE2",
"cX c #C0BEC1",
"vX c #A2C1DE",
"bX c #9BC5E8",
"nX c #A3C9E8",
"mX c #A7D3F4",
"MX c #ABD3F0",
"NX c #ABD5F4",
"BX c #AED9F5",
"VX c #C8C7C9",
"CX c #D0D1D0",
"ZX c #D8D8D9",
"AX c #E3E2D3",
"SX c #E9E9E8",
"DX c #F1F0EE",
"FX c #F7F6F5",
/* pixels */
"rXrXrXrXrXrXrXrXrXrXrXrXrXrXrXrXrXrXrXrXrXrXrXrXrXrXrXrXrXrXrXrXrXrXrXrXrXrXrXrXrXrXrXrXrXrXrXrXrXrXrXrXrXrXrXrXrXrXrXrXrXrXrXrX",
"rXrXrXrXrXrXrXrXrXrXrXrXrXrXrXrXrXrXrXrXrXrXrXtXrXrXrXrXrXrXrXrXrXrXrXrXrXrXrXrXtXrXrXrXrXrXrXrXrXrXrXrXrXrXrXrXrXyXrXrXrXrXrXrX",
"rXrXrXrXrXrXrXrXrXrXrXrXrXrXrXyXrXrXrXrXrXrXrXrXrXrXrXtXrXrXrXrXrXrXrXrXyXrXrXrXrXrXrXrXrXrXrXrXrXrXrXrXrXrXrXrXrXrXrXrXrXrXrXrX",
"rXrXrXrXrXrXrXrXrXrXrXrXrXrXrXtXrXrXrXrXrXrXrXrXrXrXrXrXrXrXrXrXrXrXrXrXtXrXrXrXrXrXtXrXrXrXrXrXrXrXrXrXrXrXrXrXrXrXrXrXrXrXrXrX",
"rXrXrXrXrXrXrXrXrXrXrXrXrXrXrXrXwXrXrXrXrXrXrXrXrXrXrXrXrXrXrXrXrXrXrXrXrXrXrXrXrXrXrXrXrXrXrXrXrXrXrXrXrXrXrXrXrXrXrXrXrXrXrXrX",
"rXrXrXrXrXrXrXrXrXrXrXrXrXrXrXrXwXwXrXrXrXrXrXrXrXrXrXrXrXrXrXrXrXrXrXrXrXrXrXrXrXrXrXrXrXrXrXeXrXrXrXrXrXrXrXrXrXrXrXrXrXrXrXrX",
"rXrXrXrXrXrXrXrXrXrXrXrXrXrX<X<.5.8.eXtXrXrXrXrXrXrXrXrXrXrXrXrXrXrXrXrXrXrXrXrXrXrXrXrXeXpX<.4XrXrXrXrXrXrXrXrXrXrXrXrXrXrXrXrX",
"rXrXrXrXrXrXrXrXrXrXrXrXrX0X<. .|  .5.eXrXrXrXrXrXrXrXrXrXrXrXrXrXrXrXrXrXrXrXrXrXrXrX4X5. .| ] 1XwXrXrXrXrXrXrXrXrXrXrXrXrXrXrX",
"rXrXrXrXrXrXrXrXrXrXrXrXrX4X' | | | X.5XyXrXrXrXrXrXrXrXrXrXrXrXrXrXrXrXrXrXrXrXrXrXrX8. .| | | O.0XrXrXrXrXrXrXrXrXrXrXrXyXrXrX",
"rXrXrXrXrXrXrXrXrXrXrXrXrX4X+.| | | X.5XrXrXrXrXrXrXtXrXrXrXrXrXrXrXrXrXrXrXrXrXrXrXrX8.| | | | +.eXrXrXrXrXrXrXrXrXrXrXrXrXrXrX",
"rXrXrXrXrXrXrXrXrXrXrXrXrXrX-.` |  .7.tXrXrXrXrXrXrXrXrXrXrXrXrXrXrXrXrXrXrXrXrXrXrXrX5XX.| | [ 2.eXrXrXrXrXyXrXrXrXrXrXrXrXrXrX",
"rXrXrXrXrXrXrXrXrXrXrXrXrXrXP S [  .sX4XrXrX4XrXrXrXrXrXrXrXrXrXrXrXrXrXrXrXrXwXrXrXrXrX7.| ` F >X0XrXrXrXrXrXrXrXrXrXrXrXrXrXrX",
"rXrXrXrXrXrXrXrXrXrXrXrXrXrX>XL ` } ..5.7.2.4.<XrXtXrXrXrXrXrXrXrXrXrXrXrXrXtX;.2XtXpX8.#.| ~ F >XtXtXrXrXrXrXrXrXrXrXrXrXrXrXrX",
"rXrXrXrXtXyXrXrXrXrXrXrXrXrXyX$.` | ) Y [ } 4.wXrXrXrXrXrXtXrXrXrXrXrXrXrXrXtX-...#..._ [  ._ ;.0XtXrXrXrXrXrXrXrXrXrXrXrXrXrXrX",
"rXrXrXrXrXrXrXrXrXrXrXrXrXrXeX/ ) | | ~ ` | 2.wXrXrXrXrXwXtXrX<XrXrXrXrXrXrXrX3X..| _ ) [ | _ -.tXrXrXrXrXrXrXrXrXrXrXrXrXrXrXrX",
"rXrXrXrXrXrXrXrXrXrXrXrXrXrXtX<.R _ ~ ~ | +.4XrXtXrXrXrXeX<X=.:.=.*.wXwXrXrXrXeX4.| ) Y | [ _ <.0XrXrXrXrXrXrXrXrXrXrXrXrXrXrXrX",
"rXrXrXrXrXyXtXrXrXrXrXyXrXrXrXwX-.,.( +.4.3XwXtXrXrXrXrX>X:.>.>.H H L wXrXrXrXrX1X] } _ ~ R W 1XrXrXrXrXrXrXrXrXrXrXrXrXrXrXrXrX",
"rXrXrXrXrXrXrXrXrXrXrXrXrXrXrXrXwX4X4X4X0XrXtXtXrXrXrX:XK G D = = = D J rXrXrXrXrX3X;.<.<.2X4XrXrXrXrXrXrXrXrXrXrXrXrXrXrXrXrXrX",
"rXrXrXrXrXrXrXrXrXrXrXrXrXrXrXrXtXrXrXrXrXrXtXtXrXrXrX&.= & & & & & + * :XrXrXrXrXrXrXwXwXwXtXrXrXtXrXrXrXrXrXrXrXrXrXrXrXrXrXrX",
"rXrXrXrXrXrXrXrXrXrXrXrXrXrXrXrXtXrXrXrXrXrXrXrXrXrXrXb   = 3.3.:.&   + %XrXrXrXrXrXrXrXrXrXtXtXrXtXyXrXrXrXrXrXrXrXrXrXrXrXyXrX",
"rXrXrXrXrXrXrXrXrXrXrXrXwX<X4XrXrXrXrXrXrXrXrXrXtXrX:Xb # = L :.L =   % M wXtXrXrXrXrXrXeXrXtXtX0X<XwXrXrXrXrXrXrXrXrXrXrXrXrXrX",
"rXrXrXrXrXrXrXrXrXrXrX<X-.] @.7.5XtXrXrXrXrXrXrXtXrXI.j J K 1.1.L L * * M wXtXtXrXrXrXrXeXeX5X7.@.O.=.0XrXtXrXrXrXrXrXrXrXrXrXrX",
"rXrXrXrXrXrXrXrXrXrX<X:.[ } | [ #.2XtXtXrXrXrXrX4X:X'.V * $.aX3.=.L % f -XtXrXrXrXrXrXrXeX2X@.[ } } [ :.wXrXrXrXrXrXrXrXrXrXrXrX",
"rXrXrXrXrXrXrXrXrXrX*.,.W { ~ &.W 5.tXrXrXrXrXrXeX:X;XN % % 1.aX=.k + % V rXrXrXrXrXrXrX4X6.W &._ { W / ,XwXrXrXrXrXrXrXrXrXrXrX",
"rXrXrXrXrXrXrXrXrXrX-.%.%.! T &.W #.eXtXrXrXrXuXyX;X;X&Xf + k %.l   + f V rXtXtXrXrXrXrXyX@.E &.T ! &.$.=.rXrXrXrXrXrXrXrXrXrXrX",
"rXrXrXrXrXrXrXrXrXrX;.o.G A S R ..8.rXrXyXiXZXSXZXrXzXyX3XN f f # $ i j M tXrXtXrXrXrXrXrX8.[ E S A U o.,XrXrXrXrXrXrXrXrXrXrXrX",
"rXrXrXrXrXrXrXrXtXeX0X*.C Z Z E 8.tXrXyXCXZXFXFXFXSXZXVXVXuXeX*.%X&X&XN =XCXZXzXyXrXrXrXrXrXsXQ Z Z C *.eXrXrXrXrXrXrXrXrXrXrXrX",
"rXrXrXrXrXrXrXrXtX4X0XP Z Z Z G 5XyXVXZXZXSXFXFXFXDXzX&X:XiXiXvXiXuX*Xb *XzXSXDXZXiXyXwXrXeX5XG Z Z Z P wXrXrXrXrXrXrXrXrXrXrXrX",
"rXrXyXtXrXrXrXrXtXrXtXP A C C Q @.6.dXAXAXsXfXDXSXCXuX%XN :X;XiXyXzX*XN V wXCXSXfXfXCXfXsX5.5.Q C Z A P tXrXrXrXrXrXrXrXrXrXrXrX",
"rXrXrXrXrXrXrXrXrXrXeX0X$.Q ! ) `  .` W o.X.pXVXiX*X&XN M &XV CXZXVXV j d %X<XZXfX..o.W } | ` ` ! Q $.wXrXtXrXrXrXrXrXyXrXrXrXrX",
"rXrXrXrXrXrXrXrXrXrXrXeX+.| | ) _ | | _ U o.:X:XwXj M p V M M :XeX;XM ;Xj b M &X<X@.U _ | | ) ` | | @.4XeXeXrXrXrXrXrXrXrXrXrXrX",
"rXrXrXrXrXrXrXrXrXtXrX<X]  .| [ R [ } _ ~ 7.wXrXwXN 2 d yX;X;XSXAXiXV eXV g 8XJ V W Y _ { [ Y [ |  .' 1.>X<XrXrXrXrXrXrXrXrXrXrX",
"rXrXrXrXrXrXrXrXrXrXrX8X,.} } } ` R T ~ O.,XeXeXrX&.$ j wX8X:XSXDXCX.X&.&Xj wXtX0X*.] ~ T ~ ` } } } ^ = J '.tXeXtXrXrXrXtXrXrXrX",
"rXrXrXrXrXrXrXrXrXrXrXrX<X/ ' X.{ { ' ,.,XeX0X0XrX.X$ &XtXV &XCXAXZX&X.XV N 8XrX0XwX<X,.+.} } { +.,.>X*Xl -XeXeXrXrXrXrXrXrXrXtX",
"rXrXeXrXrXrXrXrXrXrXrXrX,X1.:.$.-.1X<X8X7X].[.W.R.G.f :XiX.XwXVXCXZXqXV I.B T.R.Q.^.].{.:X1XpX;.<X0XrXrXtXwXrXrXrXrXrXtXrXrXrXrX",
"rXrXrXrXrXrXrXrXrXrXrX:XP 1.*.*.].^.W.W.V.Z.Z.N.Z.d.j V .XV uXCXCXCXiXN I.I.M.x.x.x.x.N.M.T.^.{.8X0XrXrXrXrXrXrXrXrXrXrXrXrXrXrX",
"rXrXrXrXrXrXrXrXrXrX0X&XJ '.'.'.M.N.Z.W.|.W.D.Z.Z.H.*Xh V :XuXiXzXzXyXI.I.N V.N.N.N.N.N.N.N.x.x.V.Q.{.8XrXrXrXrXrXrXrXrXrXrXrXrX",
"rXrXrXrXrXrXrXrXrXrX6XQ.H.M.T.Q.N.B.W.|. X|.).D.Z.H.J h :XyXiXVXzXiXVXiXj B W.S.Z.Z.N.Z.N.N.N.N.N.N.x.V.Q.7XrXrXrXrXrXrXrXrXrXrX",
"rXrXrXrXrXrXwX0X6XQ.M.v.N.N.N.N.Z.Z.(.|. X}.}.`.).T.g i b '.*X%XB M h k g H.`.).(.S./.Z.Z.Z.C.C.N.N.N.N.N.N.Q.7XrXrXrXrXrXrXrXrX",
"rXrXyXrXtXrX9X^.B.N.N.B.N.N././.D.(.}.}.}.}.).).(.).d.+ % k & k D J D k h Q._.).(.(.(.(.(.S.S.S.Z.Z.N.N.N.N.x.M.^.0XrXrXrXrXrXrX",
"rXrXrXrXrX{.R.x.B.x.).x.)./.(.(.(.(.).).).Z.n.z.z.h.s i b P.V N m P.'.=XN F.b.c.v.C.A.S.).).).).(.(.S.N.N.N.N.N.N.R.7XwXrXrXrXrX",
"rXrXrX0X[.C.x.N.x.x.).C.(.(././.S.Z.N.z.l.l.g.l.g.j.c OXOXOXkXbXkXvXkXjXqXOXm.c.c.c.l.h.z.z.S.).(.(.(.(.(.Z.N.N.x.x.M.{.rXrXrXrX",
"rXrX0X[.B.B.N.B.x.)./.).(./.x.x.g.g.g.g.l.h.z.l.z.Y.@XxXlX9X.X$XjXkXhXjXxXbX7XE.E.b.z.z.z.z.g.z.z.C./.(.(./.Z.C.N.N.N.N.{.rXrXrX",
"rXrX7XC.N.B.Z.Z./././.S.x.l.g.g.g.l.l.z.b.b.c.c.k.OXlXnXMXnXhXOXoXoX+XhXjXnXbX+XE.m.b.z.z.l.z.z.z.z.l.v./.(.(.Z.C.N.N.N.V.7XrXrX",
"rX8XW.N.B.Z.Z.D.(.).v.g.g.g.l.l.l.z.z.c.Y.E.Y.m.~.kXmXnXqXqX@XoXn J.P.oXqXbXMXvX~.c.v.c.c.c.c.z.z.z.l.l.l.v.)./.Z.B.N.N.N.T.rXrX",
"rX{.B.N.B.S.D.(.n.l.g.g.l.z.c.c.c.c.b.Y.c.j.s.s.@XNXBXnXkX@XU.x $ $ x @X$XlXMXMXhXi.r.t.f.l.c.c.n.c.z.l.l.l.l.C.D.S.Z.N.N.N.7XrX",
"rXQ.N.B.S.D.D.C.l.l.l.l.z.c.c.c.b.c.s.s.w.w.w.F.lXBXBXMXvXqXK.a @ @ a K.hXbXMXBXnX~.q.9.9.q.r.u.l.n.n.n.z.z.l.g.v.D.Z.Z.Z.N.[.0X",
"rXQ.N.Z.D.D.v.z.c.c.c.c.c.c.n.z.s.t.0.9.q.9.q.!.nXBXBXNXjX$XoXF.p.3 $ L.oXkXbXNXBXgXi.q.9.9.9.9.0.t.g.n.n.n.z.z.l.v.D.D.Z.N.Q.rX",
"rXW.B.S./.v.z.E.R.m.b.n.n.b.s.r.9.9.9.q.q.q.p.$XmXBXBXbX$X$XG.s.a.p.u s +X@XkXmXNXnXG.q.q.q.q.q.q.9.0.t.z.b.b.c.z.z.C.S.S.B.Q.rX",
"rXQ.Z.D.C.l.c.E._.E.m.n.l.u.9.9.9.q.q.q.r.t.F.$XNXBXBXxX@XG.a.s.a.a.p.u s K.@XbXMXBX~.y.y.r.r.w.r.q.q.0.0.f.m.b.n.z.z.S.Z.B.[.rX",
"rX{.Z.S.z.l.z.m.E.E.E.f.e.9.9.0.q.e.e.r.t.y.L.xXBXBXnX$XG.r e q 8 e 8 e 4 m U.$XbXmXhXf.u.u.u.f.p.y.w.q.9.q.a.b.m.n.z.c.Z.Z.7XrX",
"rX0XW.C.l.z.z.n.E.).j.q.0.q.q.e.e.r.u.u.u.i.~.bXBXBXxX!.3 : ; : : : ; ; < p g L.OX@XU.t t.u.f.j.f.a.t.e.e.q.q.u.m.n.c.z.Z.Q.0XrX",
"rXrX{.C.l.l.c.m.E.m.t.0.q.e.e.r.t.a.p.t.r 4 x kXmXbX$Xu < , : 5 > > 5 > < p a x x x 3 , : 8 t p.a.a.y.r.e.e.0.0.s.m.c.z.R.9XrXrX",
"rXrXrX[.l.z.b.m.m.s.0.0.q.e.r.t.a.w.t u y p g m +X@XJ.9 6 6 7 7 7 7 7 7 u a p p a 2 < ; ; : , 6 e t.u.u.r.e.0.0.t.b.b.E.{.rXrXrX",
"rXrXrXrX^.c.c.E.m.p.0.q.w.t.t.q.9 9 u G.u a d d h g u q 7 0 0 0 0 w w q v J.J.p $ 3 , 6 > : : : ; , t t.t.r.e.0.e.j.).^.0XrXrXrX",
"rXrXrXrXrX{.E.E.m.e.0.e.t.t.9.5 < 9 d.H.v g p f f 4 r 0 0 0 0 w w w w r v L.K.n s y 7 6 5 > : : ; ; : 7 e.r.e.e.q.F.{.rXrXrXrXrX",
"rXrXrXrXrXrX9X^.E.e.0.r.u.t 5 : > 9 y u 4 p p p a r 0 q 6 , - o - - o 4 v L.!.XXs w w q 7 5 5 : ; ; ; ; 8 w.r.p.H.9XrXrXrXrXrXrX",
"rXrXrXrXrXrXyXrX9XF.r.r.9.> ; ; : > 6 u a $ p p 4 , - . . . . . . . X g L.!.!.J.1 - > q q 7 5 5 : ; ; ; ; t G.OX8XrXrXrXrXrXrXrX",
"rXrXrXrXrXrXrXrXrX8X~.G.t : ; ; : : 5 y z @ @ @ O o . . . . . . . . O m J.oXK.s X . . - 6 q 7 6 : : > 3 c &XwXrXrXrXrXrXrXrXrXrX",
"rXrXrXrXrXrXrXrXrXrXyXeX-XN u < : 5 5 y K.2 @ O X . . . . . . . . X a J.K.L.L.@ . . . . . 7 0 q r z P.7XwXrXrXrXrXrXrXrXrXrXrXrX",
"rXrXrXrXrXrXrXrXrXrXrXrXrXrX8X-XP.s u s #Xn x X . . . . . . . . . O a n oXL.x O . . . X O 4 H.U.7X8XwXrXrXrXrXrXrXrXrXrXrXrXrXrX",
"rXrXrXrXrXrXrXrXrXrXrXrXrXrXrXrXrXrX0X;X#X#XXX2 1 O O X X X . . . O m oXJ.x x 2 i x N I.=X8XwXrXrXrXrXrXrXrXrXrXrXrXrXrXrXrXrXrX",
"rXrXrXyXrXrXrXrXrXrXrXrXrXrXrXrXrXrX0XrXrXrX0X0X8X:X=X=X&X.X'..X%X%X=X;X8X;X:X:X0XwXrXrXrXrXrXrXrXrXrXrXrXrXrXrXrXrXrXrXrXrXrXrX",
"rXrXrXrXrXrXrXrXrXrXrXrXrXrXrXrXrXrXrXrXrXrXrXrXwXrXrXrXtXtX4XrXrXrXrXrXrXrXrXrXrXrXrXrXrXrXrXrXrXrXrXtXrXrXrXrXrXrXrXyXrXrXrXrX"
};
