/* XPM */
static char *_97B1721706119[] = {
/* columns rows colors chars-per-pixel */
"64 64 246 2 ",
"   c #2A1F1A",
".  c #2F231D",
"X  c #02012A",
"o  c #0A0A2D",
"O  c #090837",
"+  c #181836",
"@  c #332D2D",
"#  c #272937",
"$  c #57331F",
"%  c #573623",
"&  c #4C3932",
"*  c #534437",
"=  c #754C31",
"-  c #080545",
";  c #151641",
":  c #060457",
">  c #070459",
",  c #09065C",
"<  c #0D095B",
"1  c #19185A",
"2  c #1B295D",
"3  c #282945",
"4  c #353947",
"5  c #26275D",
"6  c #373755",
"7  c #0A0762",
"8  c #0D0967",
"9  c #140E66",
"0  c #140D6D",
"q  c #1A1769",
"w  c #0F0A74",
"e  c #120C74",
"r  c #180E70",
"t  c #140D7A",
"y  c #1C1377",
"u  c #251B77",
"i  c #262467",
"p  c #373966",
"a  c #2B2574",
"s  c #343273",
"d  c #423D65",
"f  c #3C4349",
"g  c #3D4554",
"h  c #1C4976",
"j  c #3D4366",
"k  c #47474B",
"l  c #454B5B",
"z  c #565252",
"x  c #73564B",
"c  c #74595F",
"v  c #485265",
"b  c #4E506E",
"n  c #485777",
"m  c #506275",
"M  c #54637A",
"N  c #696667",
"B  c #756E6E",
"V  c #7A7778",
"C  c #B9301C",
"Z  c #B8292C",
"A  c #C6261E",
"S  c #E31B22",
"D  c #EB1C24",
"F  c #D72123",
"G  c #E2242B",
"H  c #B94C17",
"J  c #AB6814",
"K  c #9E612D",
"L  c #B27338",
"P  c #D47B32",
"I  c #95545C",
"U  c #936E4D",
"Y  c #AC7955",
"T  c #8E776A",
"R  c #847B79",
"E  c #AD786E",
"W  c #CA4F4F",
"Q  c #AC8D17",
"!  c #B0A50D",
"~  c #BDB308",
"^  c #BAAB1A",
"/  c #978F2F",
"(  c #A59927",
")  c #AA9235",
"_  c #C6BA09",
"`  c #CCBB10",
"'  c #CD862F",
"]  c #E9992F",
"[  c #C8B731",
"{  c #D6C806",
"}  c #DDD107",
"|  c #D4C711",
" . c #E8D906",
".. c #EBD714",
"X. c #EEE209",
"o. c #F6E806",
"O. c #FAED01",
"+. c #FFF200",
"@. c #FDF008",
"#. c #F5E719",
"$. c #D9C72D",
"%. c #EEDA2B",
"&. c #F4E728",
"*. c #F0E438",
"=. c #8E8849",
"-. c #AC9352",
";. c #8D886D",
":. c #B08F6F",
">. c #B9AC75",
",. c #C6AE4F",
"<. c #CF986F",
"1. c #C9B270",
"2. c #E9AA7A",
"3. c #DDC84A",
"4. c #DBCF5A",
"5. c #E6D84A",
"6. c #D4CB70",
"7. c #D4CC75",
"8. c #E0D562",
"9. c #210F86",
"0. c #220F88",
"q. c #25128A",
"w. c #29148E",
"e. c #291889",
"r. c #301E89",
"t. c #2C1692",
"y. c #2E1994",
"u. c #311B95",
"i. c #341D9A",
"p. c #332B8B",
"a. c #35298A",
"s. c #352295",
"d. c #3A239C",
"f. c #3C23A1",
"g. c #433B8C",
"h. c #4329A4",
"j. c #4B27AE",
"k. c #4C2AAE",
"l. c #4D38A9",
"z. c #5135AF",
"x. c #4E2BB1",
"c. c #522DB3",
"v. c #5E29B2",
"b. c #5532B5",
"n. c #5C33B6",
"m. c #5838B6",
"M. c #5A36B9",
"N. c #5C3BBB",
"B. c #6635A4",
"V. c #622CB4",
"C. c #6532B4",
"Z. c #673AB6",
"A. c #6633B9",
"S. c #6A34B9",
"D. c #6D3ABD",
"F. c #713CBF",
"G. c #335C98",
"H. c #555491",
"J. c #685B99",
"K. c #566B89",
"L. c #536A91",
"P. c #597597",
"I. c #6B718E",
"U. c #667A9A",
"Y. c #5C48B2",
"T. c #654DB6",
"R. c #6844B9",
"E. c #7348B8",
"W. c #7656B1",
"Q. c #5776A7",
"!. c #627CA6",
"~. c #7B64B4",
"^. c #7172B1",
"/. c #6F3FC0",
"(. c #723FC0",
"). c #6C48C1",
"_. c #7442C2",
"`. c #7B4AC5",
"'. c #8A6986",
"]. c #8571B0",
"[. c #8877B1",
"{. c #8657C7",
"}. c #9C73D1",
"|. c #6D8298",
" X c #5385B4",
".X c #6984A6",
"XX c #738DAF",
"oX c #7995B8",
"OX c #3B93D9",
"+X c #369AE5",
"@X c #468DD7",
"#X c #6792C3",
"$X c #799DC4",
"%X c #7FA2C7",
"&X c #878688",
"*X c #958B8B",
"=X c #8C8B96",
"-X c #928E91",
";X c #949295",
":X c #98969B",
">X c #9C999B",
",X c #AC9589",
"<X c #A79B9C",
"1X c #B6A586",
"2X c #ACA692",
"3X c #B3A99A",
"4X c #B9B496",
"5X c #948AAE",
"6X c #9C99A7",
"7X c #9A94AD",
"8X c #8E8DB0",
"9X c #A39EA7",
"0X c #85A0BB",
"qX c #A5A2A6",
"wX c #A9A5A7",
"eX c #ACAAA5",
"rX c #A7A6AB",
"tX c #ACAAAD",
"yX c #B0AEA2",
"uX c #B9B8BB",
"iX c #C2BC89",
"pX c #F4B482",
"aX c #D0C685",
"sX c #E7DCAE",
"dX c #8398C1",
"fX c #88A8C9",
"gX c #8AAAD3",
"hX c #8CB3D8",
"jX c #97B8D8",
"kX c #8CBCE2",
"lX c #95BEE3",
"zX c #9BC0DC",
"xX c #99C4E8",
"cX c #A4CBEA",
"vX c #AAD5F3",
"bX c #ADD4F0",
"nX c #A8D4F5",
"mX c #AED9F5",
"MX c #C6C5C7",
"NX c #D4D1CE",
"BX c #D7D6D8",
"VX c #E0DFDE",
"CX c #E4E4E4",
"ZX c #EBEBEB",
"AX c #EEEEEE",
"SX c #F5F4F4",
/* pixels */
"rXrXrXrXrXrXrXrXrXrXrXrXrXrXrXtXrXrXrXrXrXrXrXrXrXrXrXrXrXrXeXrXrXrXrXrXrXrXrXrXrXrXrXrXrXrXrXrXrXrXrXrXrXrXrXrXrXrXrXrXrXrXrXrX",
"rXrXrXrXrXrXrXrXrXrXrXrXrXrXrXrXrXrXrXrXrXrXrXrXrXrXrXrXrXrXrXrXrXrXrXrXrXtXrXrXrXrXrXrXrXrXrXtXrXrXrXrXrXrXrXrXrXrXrXrXrXrXrXrX",
"rXrXrXrXrXrXrXrXrXrXrXrXrXrXrXrXrXrXrXrXrXrXrXrXrXrXrXtXrXrXrXrXrXrXrXrXrXrXrXrXrXrXrXrXrXrXrXrXrXrXrXrXrXrXrXrXrXrXrXrXrXrXrXrX",
"rXrXrXrXrXrXrXrXrXrXrXrXrXrXrXrXrXtXrXrXrXrXrXrXrXrXrXrXrXrXrXrXrXrXrXrXrXrXrXrXrXrXrXrXrXrXrXrXrXrXrXrXrXrXrXrXtXrXrXrXrXrXrXrX",
"rXrXrXrXrXrXrXrXrXrXrXrXrXrXrXrXrXrXrXrXrXrXrXrXrXrXrXrXrXrXyX4XeXrXrXrXrXrXrXrXrXrXrXrXrXrXrXrXrXrXrXrXrXtXrXrXrXrXrXrXrXrXrXrX",
"rXrXrXrXrXrXrXrXrXrXrXrXrXrXrXrXrXrXrXrXrXrXrXrXrXrXrXrXrX4X8.&.&.7.eXrXrXrXrXrXrXtXrXrXrXrXrXrXrXrXrXrXrXrXrXrXrXrXrXrXrXrXrXrX",
"rXrXrXrXrXrXrXrXrXrXrXrXrXrXrXrXrXrXrXrXrXrXrXrXrXrXrXrX3X5.+.+.+.@.7.rXrXrXrXrXrXrXrXrXrXrXrXrXrXrXrXrXrXrXrXrXrXrXrXrXrXrXrXrX",
"rXrXrXrXrXrXrXrXrXrXrXrXrXrXrXrXrXrXrXrXrXrXrXtXrXrXrXrXaX#.+.+.+.+.*.eXrXrXrXrXrXrXrXrXrXrXrXrXrXrXrXrXrXrXrXrXrXrXrXrXrXrXrXtX",
"rXrXrXrXrXrXrXrXrXtXrXrXrXrXrXrXrXrXrXrXrXrXrXrXrXrXrXrXiX#.+.O.+.@.5.tXrXrXrXrXrXrXrXrXrXrXrXrXrXrXrXrXrXrXrXrXrXrXrXrXrXrXrXrX",
"rXrXrXtXrXrXrXrXrXrXrXrXrXrXrXrXrXrXrXrXrXrXrXrXrXtXrXrXtX7.O.O.+.&.4XrXrXrXrXrXrXrXrXrXrXrXrXrXrXrXrXrXrXrXrXrXrXrXrXrXrXrXtXrX",
"rXrXrXrXrXrXrXrXrXrXrXrXrXrXrXrXrXrXrXrXrXrXrXrXrXrXrXrXtX7.X._ ~ #.aXrXrXrXrXrXrXrXrXrXrXrXrXrXrXrXrXrXrXrXrXrXrXrXrXrXrXrXrXrX",
"rXrXrXrXrXrXrXrXrXrXrXrXrXrXrXrXrXrXrXrXrXrXrXrXrXrXrX3X>.&. .{ { o.} >.eXrXrXrXtXrXrXrXrXrXtXrXrXrXrXrXrXrXrXrXrXrXrXrXrXrXrXrX",
"rXrXrXrXrXrXrX9X1.,.2XrXrXrXrXrXrXrXrXrXrXrXrXrXrXrXrX7.| ! ..[ |  .~ | 1.tXrXrXrXrXrXrXrXrXrXrXrXrXrXrXrXrXeX>.1.1XqXrXrXrXrXrX",
"rXrXrXrXrXrX9X,.X.+.#.4XrXrXrXrXrXrXrXrXrXrXrXrXrXrXrX:.! ' ] ] ' ' ^ ` :.rXrXrXrXrXrXrXrXrXrXrXrXrXrXrXrXrX7.#.O...,XrXrXrXrXrX",
"rXrXrXrXrXrX<X-.) o.+.8.rXrXrXrXrXrXrXrXrXrXrXrXrXrXrX:XY P P L L K H -.6XrXrXrXrXrXrXrXrXrXrXrXrXrXrXrXrXeX*.+.} -.-.rXrXrXrXrX",
"rXrXrXrXrX9X:.) ) o.+.8.tXrXrXrXrXrXrXrXrXrXrXrXrXrXrX*XK = % $ % $ % x qXrXrXrXrXrXrXrXrXrXrXrXrXrXrXrXrXyX*.+.| / L <XrXrXrXrX",
"rXrXrXrX9XE W ] O.+.&.4XeXwXrXrXrXrXrXrXrXrXrXrXrXrXrXB % % Y Y K $ . @ =XrXrXrXrXrXrXrXrXrXrXrXrXrXrXrXrXrX6.@.+.X.P W E rXrXrX",
"rXrXrXrX9XwX,X1.O.+.4.eXrXwXrXrXrXrXrXrXrXrXrXrXrXrXqXN . * <.2.<.=   * B rXrXrXrXrXrXrXrXrXrXrXrXrXrXrXrXrX4X&.+.#.1X<XqXrXrXrX",
"rXrXrXrXrXrXtX3X#.O.5.aX6.7.iXiX2XrXrXrXrXrXrXrXrXrX|.z * I Y -.Y U & & z rXrXrXrXrXrXrXrXrXrXrXrX2X4XaX7.aXiX&.+.3.rXrXrXrXrXrX",
"rXtXrXrXrXrXrX3X&.O.O.@.+. .{ o.1.rXrXrXrXrXrXrXqX9X;.N x -.2.2.Y :.* z V rXrXrXrXrXrXrXrXrXrXrXeX$...| O.@.o.O.+.3.qXrXrXrXrXrX",
"rXrXrXrXrXrXrX3X%.+.{ +.+.o.~ ` 2XrXrXrXrXrXrXrXwX:X=XV * x pX<.:.U @ & &XrXrXrXrXrXrXrXrXrXrXrXrX1.~ } O.+.o.{ +.3.wXrXrXrXrXrX",
"rXrXrXrXrXrXtX<X%.O.~ X.+.o.{ ,.eXrXrXrXrXrXrXrXwX:X:XN * J ,.1.Y & @ k V rXrXrXrXrXrXrXrXrXrXrXeX2X^ } +.+.} { +.4.rXrXrXrXrXrX",
"rXrXrXrXrXrXrXrX1.o.} ! { | [ >.qXrXrXrXtXrXuXNXMX&XyX;.$. .+.o...Q * z B rXrXrXrXrXrXrXrXrXrXrXqXqX,.^ { | ~ X...1XrXrXrXrXrXrX",
"rXrXrXrXrXrXrXrXqX>.3.$.[ ,.1XwXrXrXrXtXuXMXCXSXAXNXaX&.+.+.+.O. . .[ B I.MXMXtXrXrXrXrXrXrXrXrXrXrXqX>.[ [ $.3.>.wXrXrXrXrXrXrX",
"rXtXrXrXrXrXrXrXrXrX9XwXwXqXwXrXrXtXuXuXNXCXSXSXSXsX$.^ } +.+.} =.=.| U ;XNXAXBXMX7XrXrXrXrXrXrXrXrXrXrX9X<X9XwXrXrXrXrXrXrXrXrX",
"rXrXrXrXrXrXrXrXrXrXrXrXrXrXrXrXrXuXBXCXCXAXSXSXAX8.=.;./ { _ ^ ;.R | ) |.yXBXAXSXVXMXuXtX9X6XrXrXrXrXrXtXwXtXrXrXrXrXrXrXrXrXrX",
"rXrXrXrXrXrXrXrXrXrXrXrXrXrXrXrXuXBXBXVXZXVXVXVXNX4.( =.Q H F J / (  ./ z -XMXZXCXSXSXAXCXBXBXuXrXrXrXrXtXrXrXrXrXrXrXrXrXrXrXrX",
"rXrXrXrXrXrXrXrXrXrXrXrXrXrXrXuXCXZXMXwXuXtXtXqXqX-.X.{ J F D S H ` [ ;.z B R tXMXCXZXZXAXAXZXBXNXrXqXwXrXrXrXrXrXrXrXrXrXrXrXrX",
"rXrXrXrXrXrXrXrXrXrXrXrXrXrXwXMXZXVXtX-X|.>XqXqXqXN =.J A G D D D I V tXN l V B V ;.:XtXwXtXtXMXNX,X3X3X,XwXrXrXrXtXrXrXrXrXrXrX",
"rXrXrXrXrXrXrXrXrXrXrXrXrX9XtXBXCXMXqX:X>XyXrXrXqXV * Z D S D D D G T :X&Xk qX>X-X'.V V T B B R '.x U E E *XrXrXrXrXrXrXrXrXrXrX",
"rXrXrXrXrXrXrXrXrXtXrXrXrX;X-XuXMXqX>XrXeXrXrXrXqX&X% F S S D S D D K T I.B qXrXrXrXqX9X:X:X;X;X:X;Xc x x *XrXrXrXrXrXrXrXrXrXrX",
"rXrXrXrXtXrXrXrXrXrXrXrX<X:.E R -XqXrXrXrXrXrXrXrX>.Q C A C A C C H Q | ;.N qXrXrXrXrXrXrXrXrXrXrXrXqX9X-X9XrXrXrXrXrXrXrXrXrXrX",
"rXrXrXrXrXrXrXrXrXrXqX9X,X<.<.:.:XrXrXrXrXrXrXwX>.$. .} { { { } X.o. .{ ..:.qXrXrXrXrXrXrXrXrXrXrXrXrXrXrXrXrXrXrXrXrXrXrXrXrXrX",
"rXrXrXrXrXrXrXrXrXrXrX*XT ,X*X,XqXrXrXqXrXrXrX1.#.~  .+.O.+.O.+.+.+. .~ +.$.6X6X9X9XrXrXrXrXrXrXrXrXrXrXrXrXrXrXrXrXrXrXrXrXrXrX",
"rXrXrXrXrXrXrXrXrXrXrX*XR <X9X<XrXrX9X9X7X5X].E { ! o.+.+.+.+.+.+.+.+.! ` ) Y.Z.D.W.].[.5X7X9XqXrXrXrXrXrXrXrXrXrXrXrXrXrXrXrXrX",
"rXrXrXrXrXrXrXrXrXrXtX9X;X9X9X9X7X5X].W.Z.V.v.B./  .+.+.+.+.+.+.+.+.+.+.Q c Z.V.V.V.V.S.S.E.E.~.[.7X9XrXrXrXrXrXrXrXrXrXrXrXrXrX",
"rXrXrXrXrXrXrXrXrXrXrXrX9X7X[.W.Z.V.v.v.V.V.V.V.'...o.o.+.+.+.+.+.O.+.o.L B.C.C.V.S.D._.{.E.S.V.V.Z.E.].7X9XqXrXrXrXrXrXrXrXrXrX",
"rXrXrXrXrXrXrXrXrXrXrX5X].S.V.V.V.V.V.V.V.V.V.S.V.'.]  .O.+.+.+.O. ...) x R.F.F.(.(.(.{.}.{.(.A.V.V.V.V.C.W.5X9XrXrXrXrXrXrXrXrX",
"rXrXrXrXrXrXrXrXqX7XW.Z.v.v.v.v.S.S.V.S.S.(.D.D.(.(.d B ;.>.>.7.>.:X7XoX|.J.E.(.(.`.(.{.}.{._./.S.C.V.V.V.V.V.W.[.rXrXrXrXrXrXrX",
"rXrXrXrXrXrXrX9X~.C.V.V.V.V.V.V.S.S.D.F.(.(.(.(.(.E.U.fXoX|.XXzXhXlXjXgXlXhX~._.(.(.`.`.{.{.`.(.F.D.S.S.C.V.V.V.S.W.7XrXrXrXrXrX",
"rXrXrXrXrXrX5XE.v.v.v.v.V.(././.F.(._._._./.A.Z.m.J.gXxXvXjXXXoX$XfXfXfXjXxXgXT.z.v.n.Z.).).(.(._.(.(.S.S.S.V.S.V.V.Z.[.9XrXrXrX",
"rXrXrXrXrX5XZ.v.v.v.V.(.V.(.(.(.(.(.A.n.c.c.x.b.Y.fXxXcXzXzXjXoXK.P.XX0XfXcXbXfXz.k.k.k.k.c.b.A./.(.(.(.(.(.D.S.C.V.V.C.].9XtXrX",
"rXrXrXrX5XC.v.v.V./././.(.(.(./.c.j.j.x.x.x.x.N.^.cXmXcX0XXXI.M l v l |.fXhXvXvXXXz.k.b.x.k.j.j.j.c.n./.(.(.F.S.S.S.V.V.V.].9XrX",
"rXrXrX7XB.v.V.V.V.V./.(.(.v.c.j.c.c.c.c.c.b.m.Y.gXnXmXvXzXfX|.g @ . m .XfXjXvXmXlXT.b.m.b.c.x.j.j.j.j.j.v.S./.(.D.S.S.V.V.V.[.rX",
"rXrX9X~.V.V.V.A./././.M.x.x.x.b.b.b.z.b.b.M.M.T.xXnXmXvXjXdX.Xs i # f K.XXkXcXmXbXdXY.Y.N.m.b.x.c.x.j.j.j.j.c.S.E.F.D.S.V.V.R.7X",
"rXqX7XC.V.V.S.S./.N.x.j.x.x.b.b.b.m.b.k.f.i.s.XXcXmXmXcXfX$XU.r.9.a 3 K.XX$XxXnXbXgXY.z.m.m.N.m.c.b.b.c.x.j.j.c.n.F.F.D.S.V.V.].",
"rXrX].V.C.S.D.D.M.x.x.c.b.b.m.b.k.f.t.0.9.9.p.%XnXmXnXxX%X!.p.w.q.e.r.6 Q..X%XxXbXcXJ.q.w.s.f.z.M.M.b.b.c.c.c.k.x.n.D.F.D.C.V.W.",
"rXqX].V.S.D.D.n.x.x.b.b.b.m.k.i.0.0.0.0.0.0.H.kXnXmXnXhX.Xp.t.t.y.u.y.r.p K..XjXbXmXoXw.9.9.q.w.f.x.M.M.b.c.c.b.n.c.v.F.F.D.V.R.",
"rXrX].V.D.D.A.x.x.m.m.M.x.s.q.0.q.q.q.q.q.r.Q.lXmXnXxX#Xg.y.y.i.i.d.d.u.p.g m oXhXhXoXr.w.0.9.9.9.q.f.b.N.b.m.N.T.R.b.b.D.D.A.E.",
"rXrX[.V.S.D.b.x.b.M.N.h.w.0.q.q.t.r.y.t.s.s P.xXmXnXgXJ.d.i.i.i.f.f.f.f.s.g g M K.K.H.t.w.w.q.0.0.9.9.y.k.N.N.R.).).b.k.A.F.A.W.",
"rXrX5XD.S.n.x.b.N.N.h.t.9.q.q.y.d.d.d.i.s.j v XXxXhX!.p.y r r 0 w 0 y y s 6 l l l l a.i.y.t.w.w.q.9.9.0.q.k.N.N.R.N.b.k.c.S.S.].",
"rXrXrX~.A.b.b.N.N.f.q.q.q.w.t.d.h.l.f.d.p.6 k k m M b < > > > > > > , , j v l # 4 6 e.y.i.i.u.t.t.t.q.q.0.q.z.Z.N.N.b.x.j.A.E.7X",
"rXrXrX5XE.b.b.N.k.0.0.0.q.t.i.i.d.s.u 0 j f f z k k 1 < , < 7 7 , 7 , 9 n P.!.j 4 1 : < r r.h.i.y.t.t.t.q.9.t.M.N.N.c.x.j.n.[.rX",
"rXrXrXrX5XN.N.m.y.0.w.w.y.i.i.y.y 8 < < j f f f k 5 7 8 8 8 8 0 0 8 8 i n L.L.P.n 9 > 1 q a a r.i.y.t.t.q.9.9.f.).N.m.c.c.~.9XrX",
"rXrXrXrXrX[.R.k.q.q.w.w.y.y.y 7 : : : q 4 f f g 6 q 0 e t e e e e w e j n .X X!.s 8 , q a H.n q r e.y.y.w.q.0.t.N.N.N.b.~.9XrXrX",
"rXrXrXrXrXrX8XY.q.q.w.y.w.r > : : > > 2 g # # 4 i e t t t t t t t w t K.!.!.L.n q 8 8 q a H.g.q < , y y.y.w.0.q.N.).).].9XrXrXrX",
"rXrXrXrXrXrXrX7XJ.a.t.t.0 : > > > 7 7 q j f # 3 q 7 : : - - O O - - 6 M m XX!.g.e e 8 r u i i q < > > y y.t.q.w.m.~.8XrXrXrXrXrX",
"rXrXrXrXrXrXrXrXqX8XH.u > : : : > 7 7 i  Xg f ; O X X X X X X X X + v K.U.M m 2 w t w e 0 9 9 7 , : : > 9.y.w.g.[.fXrXrXrXrXrXrX",
"rXrXrXrXrXrXrXrXrXrXqX=Xb i < > 7 7 8 G.OX Xn o X X X X X X X X X + v m K.P.v O O 7 t w 0 7 7 > > : : : q H.^.9XrXrXrXrXrXrXrXrX",
"rXrXrXrXrXrXrXrXrXrXrXrXrX;XI.b i 0 t Q.+X+XG.o X X X X X X X X X + l .X.Xn # X X X , t w 8 8 7 : 9 p H.=X9XrXrXrXrXrXrXrXrXrXrX",
"rXrXrXtXrXrXrXrXrXrXrXrXrXrXrX9X8XU.K.@X+XOXh o X X X X X X X X ;  X XP.|.K.# X X X O w t y a b I.=X6XqXrXrXrXrXrXrXrXrXrXrXrXrX",
"rXrXrXrXrXrXrXrXrXrXrXrXrXrXrXrXrXrXrX0X#XXXI.v 6 4 # + + o o + .XOX+X+XOXm 3 + 3 4 b J.U.=X7XqXwXwXrXrXrXrXrXrXrXtXrXrXrXrXrXrX",
"rXrXrXrXrXrXrXrXrXrXrXrXtXrXrXrXrXrXrXrXrXrXrXqXqX6X;X=X=X&X&X|.:XfX$X$XoXXX;X:X6X9XrXrXtXrXrXrXrXrXrXrXrXrXrXrXrXrXrXrXrXrXrXrX",
"rXrXrXrXrXrXrXrXrXrXrXrXrXrXrXrXrXrXrXrXrXrXrXrXrXrXrXrXwXeXeXrXrXrXrXeXeXrXrXrXrXrXrXrXrXrXrXrXrXrXrXrXrXrXrXrXrXrXrXrXrXrXrXrX"
};
