/* XPM */
static char *_98A1721706120[] = {
/* columns rows colors chars-per-pixel */
"64 64 243 2 ",
"   c #02012A",
".  c #0C0B2E",
"X  c #040336",
"o  c #181835",
"O  c #292026",
"+  c #2F2B2F",
"@  c #36373B",
"#  c #51301F",
"$  c #4F3528",
"%  c #483B36",
"&  c #564237",
"*  c #6D4937",
"=  c #080545",
"-  c #060457",
";  c #07045A",
":  c #09065C",
">  c #0C095B",
",  c #141250",
"<  c #16165B",
"1  c #292D4D",
"2  c #383B49",
"3  c #28275A",
"4  c #3A3C57",
"5  c #0B0763",
"6  c #0E0969",
"7  c #130C6B",
"8  c #181667",
"9  c #0F0A75",
"0  c #120B74",
"q  c #160E77",
"w  c #1B1375",
"e  c #221877",
"r  c #182D70",
"t  c #373868",
"y  c #2F2C70",
"u  c #4B3362",
"i  c #3C434B",
"p  c #3C4458",
"a  c #344979",
"s  c #484648",
"d  c #554B49",
"f  c #424758",
"g  c #4E5056",
"h  c #575658",
"j  c #705851",
"k  c #504F6E",
"l  c #495569",
"z  c #495878",
"x  c #546070",
"c  c #536279",
"v  c #666468",
"b  c #6C6A6C",
"n  c #766868",
"m  c #6E6D72",
"M  c #78777A",
"N  c #D31D21",
"B  c #E71C23",
"V  c #D02825",
"C  c #B85417",
"Z  c #91532D",
"A  c #B65431",
"S  c #B07331",
"D  c #C57036",
"F  c #876650",
"G  c #AC764F",
"H  c #8E7871",
"J  c #B96C70",
"K  c #C17259",
"L  c #A3921C",
"P  c #B7AC08",
"I  c #B6AB13",
"U  c #AFA72D",
"Y  c #C8970E",
"T  c #CDB20C",
"R  c #C5B90A",
"E  c #CF882D",
"W  c #CAAE33",
"Q  c #D6C805",
"!  c #D2C80A",
"~  c #E7D903",
"^  c #E9D317",
"/  c #EAD719",
"(  c #EEE103",
")  c #F4E605",
"_  c #FBED02",
"`  c #FFF200",
"'  c #FDF00A",
"]  c #EEE01D",
"[  c #F6E916",
"{  c #D5C729",
"}  c #E2CA2D",
"|  c #EAD827",
" . c #E6D736",
".. c #EFE42E",
"X. c #A19851",
"o. c #AA9951",
"O. c #918D6E",
"+. c #B18D70",
"@. c #B7A871",
"#. c #DA9457",
"$. c #C9B648",
"%. c #CAB052",
"&. c #CAB458",
"*. c #C68F67",
"=. c #CCB070",
"-. c #D7C64D",
";. c #E2D650",
":. c #EFE552",
">. c #D6CD69",
",. c #D0C876",
"<. c #210F86",
"1. c #220F88",
"2. c #231284",
"3. c #25118A",
"4. c #29158D",
"5. c #2B1A8B",
"6. c #301E8A",
"7. c #2B1692",
"8. c #2E1894",
"9. c #311B95",
"0. c #341D9B",
"q. c #381E9F",
"w. c #32258B",
"e. c #342C89",
"r. c #372497",
"t. c #3A229C",
"y. c #3B22A0",
"u. c #4B3B93",
"i. c #4628A8",
"p. c #4C2AAE",
"a. c #4D32AC",
"s. c #5F30A7",
"d. c #4E2BB1",
"f. c #522DB2",
"g. c #5E29B2",
"h. c #5532B5",
"j. c #5737B7",
"k. c #5C32B6",
"l. c #5936B9",
"z. c #5C3BBB",
"x. c #613CA0",
"c. c #622CB4",
"v. c #6532B5",
"b. c #663AB7",
"n. c #6534B9",
"m. c #6A35BA",
"M. c #6D3ABD",
"N. c #703CBE",
"B. c #295E9B",
"V. c #316798",
"C. c #545293",
"Z. c #635296",
"A. c #586A87",
"S. c #556C94",
"D. c #687189",
"F. c #7B7B83",
"G. c #647A96",
"H. c #5846B0",
"J. c #6745B8",
"K. c #7349B8",
"L. c #6651B4",
"P. c #7758B2",
"I. c #5B79A2",
"U. c #637BA4",
"Y. c #7D63B4",
"T. c #756FB2",
"R. c #6F3FC0",
"E. c #723FC0",
"W. c #7442C2",
"Q. c #744FC2",
"!. c #7B49C4",
"~. c #5F70C0",
"^. c #837E87",
"/. c #8875AF",
"(. c #8570B2",
"). c #8A7BB1",
"_. c #8555C7",
"`. c #9D73D1",
"'. c #6E849D",
"]. c #5684B4",
"[. c #6985A7",
"{. c #7389A9",
"}. c #758EB5",
"|. c #7998BA",
" X c #348CD7",
".X c #3698E4",
"XX c #488FCB",
"oX c #7397C6",
"OX c #7DA2C7",
"+X c #4A99E3",
"@X c #858487",
"#X c #8B8A8D",
"$X c #8C8C94",
"%X c #938D90",
"&X c #979599",
"*X c #AD9A89",
"=X c #B09388",
"-X c #A59B98",
";X c #B5A787",
":X c #AAA39C",
">X c #B6B092",
",X c #8981A8",
"<X c #9388AD",
"1X c #9C99A7",
"2X c #8F8EB2",
"3X c #A29EA7",
"4X c #85A1BC",
"5X c #A4A2A5",
"6X c #A9A3A4",
"7X c #A7A6AB",
"8X c #A8A7A9",
"9X c #ABAAA8",
"0X c #AEAEB1",
"qX c #B4B4B5",
"wX c #B7B7BA",
"eX c #C3BC89",
"rX c #F7B683",
"tX c #DFDAA4",
"yX c #8999C5",
"uX c #87A8CA",
"iX c #92B0CA",
"pX c #88ACD3",
"aX c #8DB4D8",
"sX c #97B9DA",
"dX c #BEBFC3",
"fX c #95BEE2",
"gX c #C0BFC1",
"hX c #9BC4E6",
"jX c #A4CBEA",
"kX c #A4CFF0",
"lX c #ABD5F3",
"zX c #A9D5F6",
"xX c #AED9F5",
"cX c #C7C7C9",
"vX c #D0CFD0",
"bX c #D3D3D4",
"nX c #DADAD9",
"mX c #E5E3DA",
"MX c #DFDFE1",
"NX c #E0DFE1",
"BX c #E9E8E8",
"VX c #F0F0F0",
"CX c #F5F5F4",
/* pixels */
"7X7X7X7X7X7X7X7X7X7X7X7X7X7X7X7X7X7X7X7X7X7X7X7X7X7X7X7X7X7X7X7X7X7X7X7X7X7X7X7X7X7X7X7X7X7X7X7X7X7X7X7X7X7X7X7X7X7X8X7X7X7X7X7X",
"7X7X7X7X7X7X7X7X7X7X7X7X7X7X7X7X7X7X7X7X7X7X7X7X7X7X7X7X7X7X7X7X7X7X7X7X7X7X7X7X7X7X7X7X7X7X7X7X7X7X7X7X7X7X7X7X7X7X7X7X7X7X7X7X",
"7X7X7X7X7X7X7X7X7X7X7X7X7X7X7X0X7X7X7X7X7X7X7X7X7X7X7X7X7X7X7X7X7X7X7X7X7X7X7X7X7X7X7X7X7X7X7X7X7X7X8X7X7X7X7X7X7X7X7X7X7X7X7X7X",
"7X7X7X7X7X7X7X7X7X7X7X7X7X7X7X8X7X7X7X7X7X7X7X7X7X7X7X7X7X7X7X7X7X7X7X7X7X7X7X7X7X7X7X7X7X7X7X7X7X7X7X7X7X7X7X7X7X7X7X7X7X7X7X7X",
"7X7X7X7X7X7X7X7X7X7X7X7X7X7X7X7X7X7X7X7X7X7X7X7X7X7X7X7X7X7X7X7X7X7X7X7X7X7X7X7X7X7X7X7X7X7X8X8X7X7X7X7X7X7X7X7X7X7X7X7X7X7X7X7X",
"7X7X7X7X7X7X7X7X7X7X7X7X8X7X7X7X5X5X7X7X7X7X7X7X7X7X7X7X9X7X7X7X7X7X7X7X7X7X7X7X7X7X7X7X7X7X7X8X7X7X7X7X7X7X7X7X7X7X7X7X7X7X7X7X",
"7X7X7X7X7X7X7X7X7X7X7X7X7X8X-X=.;.,.9X7X7X7X7X7X7X7X7X7X7X7X7X7X7X7X7X7X7X7X7X7X7X7X8X8X9XeX&.:X7X0X7X7X7X7X7X7X7X7X7X7X7X0X7X7X",
"7X7X7X7X7X7X7X7X7X7X7X7X7X3X%._ ` ' ;.9X7X7X7X7X7X7X7X7X7X7X7X7X7X7X7X7X7X7X7X7X7X7X8X9X;.) ` / =X7X7X7X7X7X7X7X7X7X7X7X7X7X7X7X",
"7X7X7X7X7X7X7X7X7X7X7X7X7X:X/ ` ` ` [ qX9X9X7X7X7X7X7X7X7X7X7X7X7X7X7X7X7X7X7X7X7X7X7XeX' ` ` ` } 6X7X7X7X7X7X7X7X7X7X7X7X7X8X7X",
"7X7X7X7X7X7X7X7X7X7X7X7X7X:X] ` ` ` [ >X7X9X7X7X7X7X7X7X7X7X7X8X7X7X7X7X7X7X7X7X7X7X7X>.` ` ` ` } 6X7X7X7X7X7X7X7X7X7X7X7X7X7X7X",
"7X7X7X7X7X7X7X7X7X7X7X7X7X3X@.~ ` ' >.7X7X7X7X7X7X7X7X7X7X7X6X8X7X7X7X7X7X7X7X7X7X7X7X>X[ ` _ ) =.9X7X7X7X7X7X0X7X7X7X7X7X7X7X7X",
"7X7X7X7X7X7X7X7X7X7X7X7X7X7XJ C ) ' eX9X9X7X:X5X7X7X8X8X6X3X=X*.+.:X7X7X7X7X7X7X7X7X7X7X>._ ( S =X9X7X8X7X7X7X7X7X7X7X7X7X7X7X8X",
"0X7X7X7X7X7X7X7X7X7X7X7X7X7X-XG ~ ` ]  .>.=.-.-X7X7X7X3X=XK #.#.E K G 7X7X7X7X@.>X9XeX,...' ! A =X8X7X7X7X7X7X7X7X7X7X7X7X7X7X7X",
"8X7X7X7X7X7X7X7X7X7X7X7X7X7X6Xo.~ ` Q P ( _ -.3X7X7X6X3XG D S Z Z Z Z H 7X7X5X@.] ../ ! ~ ` R @.3X7X7X7X7X7X7X7X7X7X7X7X7X7X7X7X",
"7X7X7X7X7X7X7X7X7X7X7X7X8X8X6X$.Q ` ` P ( _ =.6X8X8X8X^.Z $ # $ # # # & 1X8X7X:X] _ R ! ) ` ! @.3X7X7X7X7X7X7X7X7X7X7X7X7X7X7X7X",
"7X7X7X7X7X7X7X7X7X7X7X7X7X8X3X%.I ! ! R ` | :X8X8X9X3Xn # * *.#.K * O # #X8X7X6X ._ Q R ` ( ! &.7X7X7X7X7X7X7X7X7X7X7X7X7X7X7X7X",
"7X7X7X7X7X7X7X7X7X7X7X7X7X7X7X6X@.$.W | -.;X7X7X7X7X5Xh O * *.=.+.Z O % v 7X7X7X;X| ' R R I U ;X7X7X7X7X7X7X7X7X7X7X7X7X7X7X7X7X",
"7X7X7X7X7X7X7X7X7X7X7X7X7X7X7X7X7X:X:X:X8X7X7X7X7X7XF.g * F J *.G F $ & v 7X7X7X7X:X@.-.&.@.:X5X7X7X7X7X7X7X7X7X7X7X7X7X7X7X7X7X",
"7X7X7X7X7X7X7X7X7X7X7X7X7X7X7X7X7X7X7X7X7X7X7X7X9X&XM b j X.rXeX+.*.& & @X5X7X7X7X7X7X7X7X7X7X7X7X7X7X7X7X7X7X7X7X7X7X7X7X7X7X7X",
"7X7X7X7X7X7X7X7X7X7X7X7X7X7X7X7X7X7X7X7X7X7X7X7X9X&X&Xb % * rX*.+.j + % @X7X7X7X7X7X7X7X7X7X7X7X7X7X7X7X7X7X7X7X7X7X7X7X7X7X7X7X",
"7X7X0X7X7X7X7X7X8X7X7X7X5X:X:X8X7X7X7X7X7X7X7X7X7X$X&XM & + n =.F + + & M 7X7X7X7X7X7X7X7X7X7X9X6X-X6X8X8X8X7X7X7X0X7X7X7X7X7X7X",
"7X7X7X7X7X7X7X7X7X7X5X-X@.} | >.>X7X7X7X0X0XcXMXvX&XqX5X#Xh & & $ O & g m 7X7X7X7X7X7X7X9X9X>X>. .} +.:X8X8X7X7X7X7X7X7X7X7X7X7X",
"7X7X7X7X7X7X7X7X7X7X-X*.( _ _ ~ ..>X7X0XcXbXBXCXCXmXnXcXqX8XO.M m m M m #XcXvX0X7X7X7X7X7X>X .( _ ` ( o.6X7X7X7X7X7X7X7X7X7X7X7X",
"7X7X7X7X7X7X7X7X7X7X=XW U ) R O.U ;.gXcXnXBXCXCXCXVXcX&X0XcXgXwXqX7X&Xh $XcXVXBXbX0X7X7X9X;.U X.! ( o.W =X7X7X7X7X7X7X7X7X7X7X7X",
"7X7X7X7X7X7X0X7X7X7X+.o.O.T I O.U :.mXmXBXBXVXVXVXnXqXF.b &X&XwXqXcX#Xb @X7XnXVXCXBXnXdXwX..L @XI Q O.o.+.7X7X7X7X7X7X7X7X7X7X7X",
"7X7X7X8X7X7X7X7X7X7X*X^ S V C R [ tXbXvXMXbXnXbXcX:X&Xm v #X'.vXcXdX@Xh g O.0XMXNXCXCXVXCXtX) I C V S { *X7X7X7X7X7X7X7X7X7X7X7X",
"7X7X7X7X7X7X7X7X7X7X8X+.V B N E tXBXcX:X9X5X5X&X&Xv b g m b x 7XwX5Xb F.s b b :XwXbXNXmXBXmXtXE N B N +.6X9X7X7X7X7X7X7X7X7X7X7X",
"7X7X7X7X7X7X7X7X7X7X3XJ B B B S mXmX>X'.#X&X5X5X9Xb i @ >X'.$XnXbXqXm qXb s #Xm n b @X&X&X&X>XS B B B K =X6X7X7X7X7X7X7X7X7X7X7X",
"7X7X7X7X7X7X7X7X7X7X7XJ V N N Y :.:.,.;X5X@.%X9X7X'.@ h 9X:X&XBXVXcX@X#X#Xh 5X5XO.X.%XO.&.{ | Y N B V A G ^.8X7X7X7X7X7X7X7X7X7X",
"7X7X7X7X7X7X7X7X7X7X7X5Xo.Y T Q ( ` ( I { ] ;X7X7XO.+ '.5XM $XbXmXnX#XM F.b 5X7X*X( { U ( ` ~ Q Y Y G j j %X7X8X7X7X7X7X7X7X7X7X",
"7X7X7X7X7X7X7X7X7X7X7X-X| ` ` Q Q ` ` ! L  .5X7X7X#Xs &XwXM &XcXbXMX&XF.'.m 5X7X5X .L ! _ ` Q ~ ` `  .:X3X3X7X0X7X7X7X7X7X7X7X7X",
"7X7X7X7X7X7X7X7X7X7X7X*X^ ` ` ( P ) _ ! R $.7X7X7X#Xh #X&XM 0XvXcXvXqXm n #X5X7X5X&.I ! _ ( P ( ` ` ^ -X7X7X7X7X7X7X7X7X7X7X7X7X",
"7X7X7X7X7X7X7X7X7X7X6X^.W _ _ _ ~ I I P { *X7X7X7X%X^.h F.$XqXdXvXdXdXD.M M 7X8X7X*X^ I I R Q ` ` _ %.:X7X7X7X7X7X7X7X7X7X7X7X7X",
"7X7X7X7X7X7X7X7X7X8X8X&XH %./ ) _ ) ^ $.*X7X7X7X3X^.#Xg #X7XqXdXwXwXdX3Xh M 1X3X5X6X-X$./ _ _ [ | %.-X7X7X7X7X7X7X7X7X7X7X7X7X7X",
"7X7X7X7X7X7X7X7X7X7X7X7X&X-X-X;X;X;X*X1X<X/.Y.P.K.Z.g d ^.7X8X-X$XO.M H s k J.K.K.Y.(.<X&X;X@.;X-X3X8X7X7X7X7X7X7X7X7X7X7X7X7X7X",
"7X7X7X7X7X7X7X7X7X7X7X7X7X8X3X1X).(.K.K.M.m.v.c.c.c.u O $ % * d j j * * u s.g.g.c.c.c.c.v.K.(.<X1X7X7X7X7X7X7X7X7X7X7X7X7X7X7X7X",
"7X7X7X7X7X8X7X7X8X7X7X3X<X/.P.m.c.c.m.K._.K.N.m.c.v.u.% d b j j j n H M j x.v.c.c.c.c.c.g.c.g.c.b.P.).3X8X8X7X7X7X7X7X7X7X7X7X7X",
"7X7X7X7X7X7X7X7X7X3X<XP.m.c.c.c.c.v.K._.`._.W.N.m.N.k D.{.{.pXsXyXaXpXuX}.T.K.m.m.c.v.c.c.c.c.c.g.g.g.v.P.<X7X7X7X7X7X7X7X7X7X7X",
"7X7X7X7X7X7X7X3X<XK.n.c.g.c.c.c.m.E.K._.`._.!.!.W.P.T.aXiX'.'.aXaXfXpXuXfXfX).W.E.R.R.m.m.m.n.n.v.c.c.c.c.c.P.1X7X7X7X7X7X7X7X7X",
"7X7X7X7X8X7X<XY.v.c.c.v.c.c.R.E.N.E.E._._.!.!.W.Q.T.pXhXjXhX4X|.}.|.|.pXiXjXfXY.E.E.E.E.E.E.m.R.m.v.v.c.c.c.g.c.(.3X7X7X7X7X7X7X",
"7X7X7X7X7X,XJ.g.c.c.m.c.m.E.E.E.E.E.E.E.E.R.k.f.L.uXkXjXiXiXiX}.A.A.'.{.4XjXxXsXL.n.b.W.E.W.W.E.E.R.m.m.m.c.c.c.g.b.<X7X7X7X7X7X",
"7X7X7X3X(.v.c.c.c.c.E.E.E.E.E.E.E.v.g.d.d.d.p.f.}.kXxXjXiX|.D.k 2 2 g {.OXaXxXxX4Xs.d.d.f.k.R.R.E.E.E.R.m.m.c.c.c.g.c./.8X7X7X7X",
"7X7X7X(.v.c.v.v.m.R.R.E.E.R.c.d.d.p.d.p.d.d.d.H.aXzXxXlXhXuXD.f + + l '.aXfXkXxXjXT.f.d.d.d.d.d.f.n.E.E.E.R.m.n.c.c.c.c.).7X7X7X",
"7X7X<Xn.c.v.m.m.m.E.R.n.g.p.d.d.d.p.p.d.j.j.h.T.hXxXxXlXiX|.[.u.u.1 2 S.[.aXkXzXlXyXj.f.h.d.d.d.f.f.d.k.R.E.E.m.n.c.c.c.b.<X7X7X",
"7X1XK.c.v.m.m.N.E.R.f.d.p.d.d.d.d.d.h.l.j.~.H.oXzXzXxXhXpX|.C.r.8.6.3 c }.OXhXkXlXsXL.l.l.h.h.f.f.f.d.d.d.k.R.R.m.v.c.c.g.P.3X6X",
"7X).v.c.n.M.N.N.l.d.d.d.d.d.f.h.h.h.l.H.j.a.a.OXzXxXxXfXoXS.w.<.1.1.5.3 A.I.oXhXlXjXU.0.y.d.h.j.l.h.h.d.d.d.f.n.N.M.m.c.v.c.<X7X",
"7XP.c.n.m.N.N.v.d.p.d.f.f.f.h.l.l.h.y.t.4.5.C.fXzXxXkXpXS.w.5.5.4.4.3.2.t A.'.aXkXkXyX5.1.1.7.q.d.l.l.h.f.f.d.p.k.N.m.m.v.c.(.7X",
"7XP.c.m.N.N.k.h.j.l.f.f.h.l.l.h.y.7.1.1.1.w.U.hXxXzXfX}.e.9.9.0.8.7.4.4.6.2 p [.uXuX[.w.1.1.1.<.<.8.d.l.l.j.f.f.d.k.N.N.M.c.P.3X",
"7XK.n.N.R.k.f.z.K.J.j.j.l.l.y.7.1.1.<.1.4.y x hXkXkXOXC.9.0.q.t.0.0.8.8.w.p f l l c u.4.4.4.3.3.3.<.3.8.a.k.l.h.f.f.n.R.M.v.P.7X",
"7XP.v.N.n.d.h.J.Q.J.z.z.a.8.1.1.1.1.3.4.5.u f G.uXOX[.y.0.q.t.t.q.q.q.0.e.p i i f p e.8.7.7.5.5.7.3.3.<.3.i.z.l.j.f.f.m.m.v.(.7X",
"7X).m.N.f.d.f.z.z.z.z.i.4.<.1.1.3.4.7.7.e.p s s h h B.e <.w w 0 0 7 7 w z z l 2 @ y y.y.0.0.r.t.r.9.4.3.1.1.q.z.z.j.f.k.m.M.<X7X",
"7X3XK.n.d.d.f.z.z.Q.a.7.1.4.3.4.7.8.9.q.u.p i d d 4 , : - ; - ; ; ; ; > k I.I.l p < 7 2.4.0.i.a.i.t.7.4.3.3.3.q.z.z.f.f.m.P.1X7X",
"7X7X<XR.p.d.l.z.J.z.7.<.1.4.4.4.9.q.t.6.t i i i f 3 > : : : 5 : > 5 5 y z S.I.U.z > ; ; ; 7 e r.t.r.9.7.4.3.1.1.i.z.j.h.J.<X7X7X",
"7X7X3X(.d.d.z.z.z.y.3.<.3.4.7.8.0.6.e t p @ i i 1 > 5 6 5 6 6 6 6 6 8 t A.].].S.3 5 ; ; - ; > 5 w 5.0.0.7.4.3.1.4.j.l.z.).7X7X7X",
"7X7X7X7XY.h.z.z.z.r.3.3.4.8.8.4.w 8 t Z.l + @ @ 3 6 7 6 6 9 9 9 0 q w c S.U.C.k 7 5 5 5 : ; ; - - > w 8.8.7.3.3.3.a.W.T.7X7X7X7X",
"7X7X7X7X1X).J.z.z.4.3.4.7.7.2.5 < 8 a C.V.+ + 3 7 6 0 9 9 9 q 9 9 0 C.c A.G.'.B.q 0 6 5 5 : ; ; ; - ; 7 7.7.4.3.3.u.).7X7X7X7X7X",
"7X7X7X7X7X7X1XQ.z.4.1.7.0.w 5 ; : 7 y a I.l p 8 9 9 9 7 > > - = X , p A.'.A.z r 6 q q 0 6 5 5 ; - - - - 7 4.9.w.Z.2X7X7X7X7X7X7X",
"7X7X7X7X7X7X0X7X2XC.7.7.1.5 - - - : > B..X XV.w q > = X           o c A.A.c p . X = 5 9 9 6 6 : ; - - - - e C.{.5X7X7X7X7X7X7X7X",
"7X7X7X7X7X7X7X7X3X1XT.C.e - - ; ; 5 r I..X.XB.8 X                 1 p '.[.c +         X 6 0 6 6 : ; > 3 k #X7X7X7X7X7X7X7X7X7X7X",
"7X7X7X7X7X7X7X7X7X7X9X7X%XA.t < ; ; r  X.X Xr .                 p XXXX].S.A.1           X 5 0 0 8 k D.,X3X7X7X7X7X7X7X7X7X7X7X7X",
"7X7X7X0X7X7X7X7X7X7X7X7X6X7X3X$XD.z y  X+X X<                 O 4X+X.X.X.Xa o .       . o 4 Z.G.<X3X5X7X7X7X7X7X7X7X7X7X7X7X7X7X",
"7X7X7X7X7X7X7X7X7X7X7X7X8X7X7X7X7X5X1XOXoX[.l 2 1 o o . . .   . & iX+X.X XB.o 1 i l b ^.$X&X6X7X7X7X7X7X7X7X7X7X7X7X7X7X7X7X7X7X",
"7X7X7X7X7X7X7X7X7X7X7X7X7X7X7X7X7X7X7X7X3X5X5X5X1X&X$X#X'.@XO.'.F.$X4X4X4X|.&X&X1X7X7X7X0X7X7X7X7X7X7X7X7X7X7X7X7X7X7X7X7X7X7X7X",
"7X7X7X7X7X7X7X7X7X7X7X7X7X7X7X7X7X7X7X7X7X7X7X7X7X7X7X7X7X7X7X7X7X7X9X5X9X7X7X9X7X7X7X7X7X7X7X7X7X7X7X7X7X7X7X7X7X7X7X7X7X7X7X7X"
};
