/* XPM */
static char *_993A1721706122[] = {
/* columns rows colors chars-per-pixel */
"64 64 248 2 ",
"   c #2D211B",
".  c #02012A",
"X  c #0B0A2D",
"o  c #050435",
"O  c #181832",
"+  c #2F2B2D",
"@  c #37373C",
"#  c #51301F",
"$  c #4F3528",
"%  c #483B35",
"&  c #564237",
"*  c #6E4936",
"=  c #060457",
"-  c #0F0D52",
";  c #07045A",
":  c #09065C",
">  c #0C0A5A",
",  c #29294A",
"<  c #373A48",
"1  c #3C3959",
"2  c #0A0763",
"3  c #0D0965",
"4  c #0B076A",
"5  c #0D096C",
"6  c #120C69",
"7  c #1B1767",
"8  c #0E0A73",
"9  c #120C74",
"0  c #160D78",
"q  c #1B1475",
"w  c #201A6D",
"e  c #221878",
"r  c #182666",
"t  c #303072",
"y  c #463B73",
"u  c #3D434C",
"i  c #3C4559",
"p  c #3A4273",
"a  c #484647",
"s  c #554C4A",
"d  c #424859",
"f  c #4E5056",
"g  c #575558",
"h  c #6F574F",
"j  c #444767",
"k  c #495669",
"l  c #4F516F",
"z  c #4B5B7A",
"x  c #625C60",
"c  c #546276",
"v  c #666469",
"b  c #6C6A6C",
"n  c #706B6F",
"m  c #78777A",
"M  c #D31D21",
"N  c #E71C23",
"B  c #D12A26",
"V  c #B85417",
"C  c #91532D",
"Z  c #BB5D2D",
"A  c #AC7130",
"S  c #C57036",
"D  c #B95B5E",
"F  c #876650",
"G  c #AC7351",
"H  c #8A7A75",
"J  c #B16E6E",
"K  c #C17E55",
"L  c #A9901D",
"P  c #B7AC08",
"I  c #B6AB13",
"U  c #AFA72D",
"Y  c #C79311",
"T  c #CDB20C",
"R  c #C5B90A",
"E  c #E7823A",
"W  c #CAB034",
"Q  c #D6C805",
"!  c #D2C80A",
"~  c #E7D903",
"^  c #E9D317",
"/  c #EBD71A",
"(  c #EEE103",
")  c #F4E605",
"_  c #FBED02",
"`  c #FFF200",
"'  c #FDF00A",
"]  c #EEE119",
"[  c #F7EA15",
"{  c #D6C828",
"}  c #E2CB2D",
"|  c #EBD727",
" . c #E7D937",
".. c #F0E52D",
"X. c #AB904C",
"o. c #A19851",
"O. c #8A8B69",
"+. c #B18D6F",
"@. c #B7A973",
"#. c #DB9455",
"$. c #CBB24E",
"%. c #CAB458",
"&. c #C68F67",
"*. c #CBB171",
"=. c #D7C750",
"-. c #E3D751",
";. c #F0E441",
":. c #D2CB73",
">. c #210F86",
",. c #220F88",
"<. c #231285",
"1. c #25118A",
"2. c #29148E",
"3. c #2C1B8C",
"4. c #2B1692",
"5. c #2E1994",
"6. c #311B95",
"7. c #341D9B",
"8. c #381E9F",
"9. c #193B80",
"0. c #312687",
"q. c #38388D",
"w. c #362597",
"e. c #3A229C",
"r. c #3B25A0",
"t. c #493995",
"y. c #4628A8",
"u. c #4C2AAE",
"i. c #4D31AB",
"p. c #5236AB",
"a. c #4E2AB1",
"s. c #512DB2",
"d. c #5E29B2",
"f. c #5532B5",
"g. c #5B32B6",
"h. c #5A3BB5",
"j. c #5735B8",
"k. c #5836B9",
"l. c #5C3BBB",
"z. c #622CB4",
"x. c #6532B5",
"c. c #663AB7",
"v. c #6534B9",
"b. c #6A35BA",
"n. c #6D3ABD",
"m. c #713DBE",
"M. c #2D5C97",
"N. c #2967A1",
"B. c #514C94",
"V. c #615B98",
"C. c #576987",
"Z. c #50668F",
"A. c #5A7599",
"S. c #7D7D82",
"D. c #737688",
"F. c #687490",
"G. c #5648AD",
"H. c #694DA7",
"J. c #6644B9",
"K. c #7349B7",
"L. c #7758B3",
"P. c #5874A9",
"I. c #6C72AA",
"U. c #7D63B4",
"Y. c #6F3FC0",
"T. c #723FC0",
"R. c #7542C2",
"E. c #744FC2",
"W. c #7B4BC3",
"Q. c #5F76C1",
"!. c #8875AF",
"~. c #8570B2",
"^. c #8A7BB1",
"/. c #8555C7",
"(. c #9477CC",
"). c #2986BD",
"_. c #6D829C",
"`. c #5B87B0",
"'. c #6985A6",
"]. c #748BA5",
"[. c #768FB5",
"{. c #7897BA",
"}. c #378FD5",
"|. c #2790E4",
" X c #3798E5",
".X c #498FCD",
"XX c #7B95C2",
"oX c #66A9DD",
"OX c #4899E3",
"+X c #848285",
"@X c #848389",
"#X c #8A8689",
"$X c #8B8A8D",
"%X c #938889",
"&X c #8C8C94",
"*X c #918F97",
"=X c #909294",
"-X c #97969A",
";X c #AC9B88",
":X c #B09287",
">X c #A69B98",
",X c #B6A686",
"<X c #AAA49C",
"1X c #B4AC91",
"2X c #B8B496",
"3X c #8981A8",
"4X c #9389AC",
"5X c #9C99A7",
"6X c #8E8EB3",
"7X c #A29EA7",
"8X c #8CA1B9",
"9X c #A4A2A5",
"0X c #A9A4A4",
"qX c #AAA8A6",
"wX c #A7A6AB",
"eX c #AAA9AC",
"rX c #B1AEAC",
"tX c #ADADB1",
"yX c #B4B4B5",
"uX c #B7B7BA",
"iX c #D4BA87",
"pX c #D8D191",
"aX c #8D9AC8",
"sX c #87A8CA",
"dX c #92B1CD",
"fX c #89ACD3",
"gX c #8DB4D8",
"hX c #97B9DA",
"jX c #BFBEC0",
"kX c #95BEE3",
"lX c #C0BFC2",
"zX c #BEC1C6",
"xX c #9BC4E6",
"cX c #A4CBEA",
"vX c #A4CFF0",
"bX c #ABD5F3",
"nX c #A9D5F6",
"mX c #AED9F5",
"MX c #C7C7C8",
"NX c #D0CFD0",
"BX c #D3D3D4",
"VX c #DADADA",
"CX c #E2DFD4",
"ZX c #E4E2DB",
"AX c #DFDFE1",
"SX c #E8E8E8",
"DX c #F0EFEF",
"FX c #F5F5F4",
/* pixels */
"wXwXwXwXwXwXwXwXwXwXwXwXeXwXwXwXwXwXwXwXwXwXwXwXwXwXwXwXwXwXwXwXwXwXwXwXwXwXwXwXwXwXwXwXwXwXwXwXwXwXwXwXwXwXwXwXwXwXwXwXwXwXwXwX",
"wXwXwXwXwXwXwXwXwXwXwXwXwXwXwXwXwXwXwXwXwXwXwXwXwXwXwXwXwXwXwXwXwXwXwXwXwXwXwXwXwXwXwXwXwXwXwXwXwXwXwXwXwXwXwXwXwXwXwXwXwXwXwXwX",
"wXwXwXwXwXwXwXwXwXwXwXwXwXwXwXwXwXwXwXwXwXwXwXwXwXwXwXwXwXwXwXwXwXeXwXwXwXwXwXwXwXwXwXwXwXeXwXwXwXwXwXwXwXwXwXwXwXwXeXwXwXwXwXwX",
"wXwXwXwXwXwXwXwXwXwXwXwXwXwXwXwXwXwXwXwXwXwXwXwXeXwXwXwXwXwXwXwXwXwXwXwXwXwXwXwXwXwXwXwXwXwXwXwXwXwXwXwXwXwXwXwXwXwXwXwXwXwXwXwX",
"wXwXwXwXwXwXwXwXwXwXwXwXwXwXwXwXwXwXwXwXwXwXwXwXwXwXwXwXwXwXwXwXwXwXwXwXwXwXwXwXwXwXwXwXwXwXwXwXwXwXwXwXwXwXeXwXwXwXwXwXwXwXwXwX",
"wXwXwXwXwXwXwXwXwXwXwXwXwXwXeXeX9X5XwXwXwXwXwXwXwXwXwXwXwXwXrXrXwXwXwXwXeXwXwXwXwXwXwXwXwXwXwXwXwXwXwXwXwXwXwXwXwXwXwXwXwXeXwXwX",
"wXwXwXwXwXwXwXwXwXwXwXwXwXwX>X*.-.:.qXeXwXwXwXwXwXwXwXwXwX>X:X:X+.-XwXwXwXwXwXwXeXwXwXeX0XiX%.1XwXeXwXwXwXwXwXwXeXwXwXwXwXwXwXwX",
"wXwXwXwXwXwXwXwXwXwXwXwXwX7X$._ ` ' -.qXwXwXwXwXwXwXwXwX-XX.E E E S J 7XwXwXwXwXwXwXwX<X=.[ ` / ;XwXwXwXwXwXwXwXwXwXwXwXwXwXwXwX",
"wXwXwXwXwXwXwXwXwXwXwXwXwX<X^ ` ` ` [ 2XtXtXwXwXwXwXqX-XG S D C C C C H wXwXwXwXwXwXwX:.' ` ` ` } 9XwXwXwXwXwXwXwXwXwXwXwXwXwXwX",
"wXwXwXwXwXwXwXwXwXwXwXwXwX<X| ` ` ` [ 2XwXwXwXwXwXwXwX%XC * # & $ # # * 9XwXwXwXwXwXwX:.` ` ` ` | 0XwXwXwXwXwXwXwXwXwXwXwXwXwXwX",
"wXwXwXwXwXwXwXwXwXwXwXwXwXqX@.~ ` ` :.wXwXwXwXwXwXwX9Xv # $ &.#.K #   % #XwXwXwXwXwXwX2X[ ` ` ( *.9XwXwXeXwXwXwXwXwXwXwXwXwXwXwX",
"wXwXwXwXwXwXwXwXwXwXwXwXwXqXJ V ( ' iXeXwXwX9X9XwXeX7Xx   * &.#.&.*   % v wXwXwXwXwXwXwX:.` ~ Z :XwXwXwXwXwXwXwXwXwXwXwXwXwXwXeX",
"wXwXwXwXwXwXwXwXwXwXwXwXwXwX:XG ~ ` ]  .:.@.=.>XwXwXm f * F &.#.G F % & x 9XwX@.<X<X2X:...` ! Z :XwXwXwXwXwXwXwXwXwXwXwXwXwXwXwX",
"wXwXwXwXwXwXwXwXwXwXwXwXwXwXtXX.~ ` ! P ) _ =.9XwX-Xm b h J iX*.G &.& s +XwX9X@.....] ! ~ ` R @.7XwXwXwXwXwXwXwXeXwXwXwXwXwXwXwX",
"wXwXwXwXwXwXwXwXwXwXwXwXwXwX0X$.Q ` ` P ( ` *.9XeX-X-Xb % s *.iX+.h   & +XwXwX<X] ` P ! ) ` ! @.wXwXwXwXwXwXwXwXwXwXwXwXwXwXwXwX",
"wXwXwXwXwXwXwXwXwXwXwXwXwXwX9X%.I ! ! R ` | 1XeXwX=X-Xm & + F &.H $ + & m eXwX9X} ' ~ R ` ( ! %.wXwXwXwXwXwXwXwXwXwXwXwXwXwXwXwX",
"wXwXwXwXwXwXwXwXwXwXwXwXwXwXwX0X@.W W | =.2XMXVXNX-XyX9X$Xg a s @ + a f n wXwXwX1X| ` I P I U ,XwXwXwXwXwXwXwXwXwXwXwXwXwXeXwXwX",
"wXwXwXwXwXwXwXwXwXwXwXwXwXwXwXwXwXwX<XrXMXBXDXFXFXZXCXzXuX<XO.m b b n n #XNXMXtXeX<X@.=.%.*.<XwXwXwXwXwXeXwXwXwXwXwXwXwXwXwXwXwX",
"wXwXwXwXwXwXwXwXwXwXwXwXwXwXwXwXwXtXjXMXVXSXFXFXFXDXMX-XrXMXzXyXyXqX-Xx *XMXDXSXBXeXwXwXwXwXqXqXwXwXwXwXwXwXwXwXwXwXwXwXwXwXwXwX",
"wXwXwXeXwXwXwXwXwXwXwXwXwXwXwXwXwXjXVXSXSXSXFXFXDXCXyX_.b =X=XjXyXMX&Xb H 0XVXDXFXSXBXjXuXtXrXqXwXwXwXwXwXwXwXwXwXwXwXwXwXwXwXwX",
"wXwXwXwXwXwXwXeXwXwXwXwXwX>X<XqXzXCXNXNXZXBXVXNXMXqX-Xn x ].+XBXMXjX+Xg f $XrXAXAXFXFXFXDXAXAXMX0X>XwXwXwXwXwXwXwXwXwXwXwXwXwXwX",
"wXwXwXwXwXwXwXwXwXwXwX>X@.| | :.CXSXMX9X9X9X<X-X-Xv v f n b x eXuX9Xb S.a b n <XuXNXSXAXSXSXZXpX .} &.7XwXwXwXwXwXwXwXwXwXwXwXwX",
"wXwXwXwXwXwXwXwXwXwX>X&.( _ _ ( ..CXeX@X#X-X9XwX9Xv f @ <X$X=XBXVX2Xn yXb a #Xn n n !.%X=X@. .) ` ' ( X.:X;X0XwXwXwXwXwXwXeXwXwX",
"eXwXwXwXwXwXwXwXwX9X:XW U ) ! O.I -.<X5X9XwXwXwXwXS.@ g tX9X-XSXDXMX_.$X$Xg 9X>X>X$X#XO.H  .U O.! ( U W G !.qX9XwXwXwXwXwXwXwXwX",
"wXwXwXwXwXwXwXwXwXwX@.X.o.T I m U  .qXwXwXwXwXwXwX_.+ O.5Xm =XBXZXVX=Xm m b wXwXwXwXwX9X9X..L O.U T O.o.A %XwXwXwXwXwXwXwXwXwXwX",
"wXwXwXwXwXwXwXwXwXwX@.{ A B V T ] :.wXwXwXwXwXwXwX=Xa -XuXm 5XMXBXZX=XS.+Xn 9XwXwXwXwXwXwX:.) I V B L { ;X9XwXwXwXwXwXeXwXwXwXwX",
"wXwXwXwXwXwXwXwXwXwX7XJ M N N L :.qXwXwXwXwXwXqXwX$Xg _.*XD.eXNXNXBXtXb m $X9XwXwXwXwX9XwXwX:.L N N M +.9XwXwXwXwXwXwXwXwXwXwXwX",
"wXwXwXwXwXwXwXwXwXwXwXD N N N A <XwXwXwXwX9XwXqXwX=XO.x D.&XyXzXMXzXuX_.m m 9XwXwX9XwX9XwXwXqXA N N N J wXwXwXwXwXwXwXwXwXwXwXwX",
"wXwXwXwXwXwXwXtXwXwX9XJ B M M Y  .-.:.2XqX@.=XqXwX+X+Xs &XeXyXjXjXyXlX7Xg m 7XwX;X@.9X1X:.-.;.Y M N B J wXwXwXwXwXwXwXwXwXwXwXwX",
"wXwXwXwXwXwXwXwXwXwXwX9XX.Y T Q ~ ` ~ I { ] ;XwXwX$Xs s +XqXqX7X&XH m H f m 9XwX;X( { U ) ` Q ~ T Y X.<XwXwXwXwXwXwXwXwXwXwXwXwX",
"wXwXwXwXwXwXwXwXwXwXwX<X| ` ` Q Q ` ` ! L  .9XwXwX9Xb   $ % & h h F * * g -XwXwXqX .L R ` ` Q ~ ` `  .7XwXwXwXwXwXwXwXwXwXwXwXwX",
"wXwXeXwXwXwXwXwXwXwXwX<X^ ` ` ( P ( _ ! R %.9XwXwXwX_.$ s v h h h x H m x =XwXwX9X%.I ! _ ( P ( ` _ ^ >XwXwXwXwXwXwXwXwXwXwXwXwX",
"wXwXwXwXwXwXwXwXwXwXwX7X$._ ` ` ~ P I P } ;XwXwXwX9Xv F.].].sXdXaXfXgXsX[.=XwXwX0X;X} P I R ~ _ _ _ $.7XwXwXwXwXwXwXwXwXwXwXwXwX",
"wXwXwXwXwXwXwXwXwXwXwXwX>X$./ ) ) _ ^ $.;XwXwX7XwX5X].gXdX]._.gXdXkXsXsXhXkX8X7XwX7X;X$./ ' ) [ / $.>XwXwXwXwXwXwXwXwXwXeXwXwXwX",
"wXwXwXwXwXwXwXwXwXwXwXwXqX7X>X,X,X,X>X5X4X!.~.K.H.'.dXxXvXxX8X{.[.XXXXdXdXcXhXU.L.U.!.4X-X,X,X@.>X7X0XwXwXwXwXwXwXwXwXwXwXwXwXwX",
"wXwXwXwXwXwXwXwXwXwXwXwXeX7X7X5X3X~.K.K.n.x.z.z.L.fXcXcXdXdXsX{.C.C.].].dXcXmXhXH.d.d.z.c.K.~.4X7XwXwXwXwXwXwXwXwXwXwXwXwXwXwXwX",
"wXwXwXwXwXwXwXwXwXeXwX7X5X~.K.c.z.z.b.K././.T.b.XXvXnXcXdX].F.k u u k _.8XgXbXbX6Xx.z.z.d.z.d.z.x.L.^.5XwXwXwXwXwXwXwXwXwXwXwXwX",
"wXwXwXwXwXwXwXwXwX7X4X/.x.z.z.z.v.x.T./.(./.T.K.fXnXmXnXxXsXF.d + + f _.fXkXvXmXcX/.x.x.z.z.z.z.z.z.z.x.U.4XwXeXwXwXwXwXwXwXwXwX",
"wXwXwXwXwXwX9X7X3XL.z.z.z.z.z.b.b.m.R./.(./.E.U.xXbXmXbXdX{.I.H.p.1 u A.'.gXcXmXmXaXn.b.b.b.v.v.z.z.z.z.z.z.L.4XwXwXwXwXwXwXwXwX",
"wXwXwXwXwXwX5XU.x.z.z.z.z.b.b.b.m.T.R././.W.E.aXvXmXbXcXfX{.I.c.c.h.t z {.{.hXbXmXhXE.T.T.T.Y.b.b.b.z.z.z.z.d.d.~.7XwXwXwXwXwXwX",
"wXwXwXwXwX3XK.d.z.z.b.z.b.T.T.T.T.T.T.R.T.b.J.fXnXmXmXkXXXP.i.u.u.u.i.y Z.A.XXxXnXvXXXb.R.R.R.Y.T.T.b.v.x.z.z.z.d.c.4XwXwXwXwXwX",
"wXwXwX7X~.x.z.z.b.x.b.T.T.T.T.T.T.x.d.a.a.a.P.gXnXnXnXfXP.i.a.s.a.a.a.u.y C._.gXvXnXaXu.s.g.Y.Y.T.T.T.T.Y.b.z.z.z.z.x.^.wXwXwXwX",
"wXwXwX~.x.z.z.b.b.b.Y.T.T.T.z.s.a.a.u.a.i.p.I.xXnXnXkX[.p.s.f.f.f.f.f.f.p.i k '.XXXX[.p.a.a.a.a.s.b.T.T.T.b.b.v.z.z.z.z.^.wXwXwX",
"wXwX^.c.z.z.b.b.n.n.Y.b.d.a.a.a.a.u.a.a.p.t.z kXnXvXXXI.l.j.j.j.j.j.g.g.G.i u c c C.B.f.f.a.a.a.s.a.s.g.Y.T.Y.b.z.z.z.z.x.4XwXwX",
"wX5XK.z.z.b.n.m.T.b.j.u.u.a.u.a.s.s.s.f.G.j j F.fXXX'.y.8.w.6.5.5.5.5.6.q.1 u u i j p.k.f.f.f.s.s.s.a.a.a.g.Y.T.b.b.z.z.d.L.7XqX",
"wX^.x.z.b.n.m.m.v.s.u.u.a.s.s.f.f.j.k.x.h.i a a g l p 1.,.,.<.<.>.<.>.e j c p u @ t 3.7.r.i.f.f.j.f.s.s.a.a.s.v.m.b.b.x.z.x.4XwX",
"wXL.z.v.n.T.n.g.u.u.a.a.s.s.j.j.f.f.y.e.M.i a f s 1 3.1.,.<.2.2.1.2.1.3.B.A.A.k i 0.<.,.1.,.4.e.a.j.j.j.f.s.a.u.g.n.b.b.x.z.~.wX",
"wXL.z.b.n.n.x.f.j.j.s.f.f.g.g.f.e.4.,.<.1 u u u i t 1.1.4.5.5.6.6.4.2.q.z Z.A.P.Z.w.3.1.1.>.>.>.1.5.a.k.k.j.s.s.a.g.n.m.n.z.L.7X",
"wXK.x.n.Y.g.s.c.J.J.j.j.k.j.r.5.,.,.,.0.i < u u t 3.5.5.5.7.e.r.e.7.w.t Z.`.P.A.P.q.6.2.1.1.1.1.1.<.1.5.i.g.l.s.s.s.v.J.n.b.L.wX",
"wXL.b.m.v.a.f.J.E.J.l.j.i.5.,.,.,.,.,.3.z O @ < e 7.7.8.e.e.8.8.8.8.e.V.Z.'.Z.Z.G.r.7.7.4.5.5.3.2.1.1.>.>.y.l.l.j.s.s.c.n.z.~.wX",
"eX^.b.n.s.a.f.k.J.l.l.i.4.,.,.<.,.4.4.0.z u + w w.5.4.<.<.q 9 q 9 7 z c C.'.'.B.w.r.8.8.7.7.w.w.e.6.1.1.,.1.8.l.l.j.s.d.b.Y.4X7X",
"eX7XK.x.a.a.f.k.l.J.j.4.,.1.1.2.2.4.7.q.`.i i r 5 2 ; ; = = = ; = 7 d F.A.C.z r 2 3 6 e 5.7.y.i.y.e.5.2.1.1.,.8.l.l.f.s.b.L.7XwX",
"wXwX6Xv.a.a.j.k.J.l.4.,.,.4.1.4.5.8.w.N.}..XM.> = ; ; > : : 2 : ; 7 c C.C.C.p - ; ; ; ; ; 6 e 7.e.w.6.4.2.2.,.,.r.l.j.f.n.4XwXwX",
"wXwXwXU.a.s.l.l.l.r.1.,.<.2.4.5.7.0.t Q. X XN.> : : 3 3 2 3 3 4 5 t k A.].c r > : : ; ; ; ; > 3 q 3.7.7.4.2.1.,.5.j.j.G.^.wXwXwX",
"wXwXwXwXU.f.k.l.l.7.,.1.4.4.5.2.7 7 t }. X}.9.3 2 3 6 8 5 8 9 q M..X.X`.A.C.t 5 3 2 2 2 : ; ; = = > 0 6.4.4.2.,.1.i.R.U.wXwXwXwX",
"wXwXwXwX7X^.J.J.J.2.1.1.4.4.<.3 6 7 p }.OX.Xr 5 5 5 9 8 8 8 8 <.3XOX X|. XM.<.0 0 9 4 3 2 : ; ; = = ; 6 4.4.2.1.>.G.^.wXwXwXwXwX",
"wXwXwXwXwXwX6XU.G.4.1.4.7.0 : ; > 6 r N.}.M.6 5 9 5 9 5 : - - - u dXOX X|.N.> 4 9 0 0 9 4 2 2 : = = = = 6 3.3.w.V.4XwXwXwXwXwXwX",
"wXwXwXwXwXwXtXwX6Xt.2.4.,.2 = ; ; 2 7 7 w q 8 0 9 > = o . . . . X f oXOX XN.X X o o : 9 0 5 2 2 ; = = = = e B.].7X9XwXwXwXwXwXwX",
"wXwXwXwXwXwXwXwXwX5X!.B.q = = = ; : 2 2 5 8 q 3 o . . . . . . . . X z OX X).X . . . . X 2 9 5 4 : ; = r l !.7XwXwXwXwXwXwXwXwXwX",
"wXwXwXwXwXwXwXwXwXwXwXwX=Xb t 7 ; ; 2 4 8 0 3 o . . . . . . . . . . + ].oX}.r . . . . . . 4 0 6 w j D.=X9X<XwXwXwXwXwXwXwXwXwXwX",
"wXwXwXwXwXwXwXwXwXwXwXwXwXwX5X*XD.j t q 8 0 = . . . . . . . . . . . . O k `.i X . . . X O 1 V.D.4X5XqXwXwXwXwXwXwXwXwXwXwXwXwXwX",
"wXwXwXwXwXwXwXwXwXwXwXwXwXwXtXwXwXwX5X4X!.F.j < , O O X X . . . . . X O O O , @ 1 k b _.&X5X7XwXeXwXwXwXwXwXwXwXwXwXwXwXwXwXwXwX",
"wXwXwXwXwXwXwXwXwXwXwXwXwXwXwXwXwXwXwXwX9X9X9X7X5X-X*X&X$X@X_.+X+X+X_.O.].=X=X-X7X9XwXwXwXwXwXwXwXwXwXwXeXwXwXwXwXwXwXwXwXwXwXwX",
"wXwXwXwXwXwXwXwXwXwXwXwXwXwXwXwXwXwXwXwXwXqXwXwXwXwXwXwXqX0XqXwXwXwXqXqXqXeXwXeXwXwXwXwXwXwXwXwXwXwXwXwXwXwXwXwXwXwXwXwXwXwXwXwX"
};
