/* XPM */
static char *_994B1721706122[] = {
/* columns rows colors chars-per-pixel */
"64 64 240 2 ",
"   c #31231B",
".  c #03022A",
"X  c #0B0A2E",
"o  c #151529",
"O  c #05033A",
"+  c #171635",
"@  c #342B26",
"#  c #2D2E37",
"$  c #5D3621",
"%  c #4D3C32",
"&  c #574234",
"*  c #6F462D",
"=  c #070445",
"-  c #060457",
";  c #0B0A57",
":  c #070459",
">  c #09065B",
",  c #0C095C",
"<  c #131353",
"1  c #1A385C",
"2  c #2A2A4E",
"3  c #363A45",
"4  c #3C3E57",
"5  c #0A0662",
"6  c #0D0965",
"7  c #0E096B",
"8  c #120D63",
"9  c #130C6D",
"0  c #191569",
"q  c #0E0A73",
"w  c #120C74",
"e  c #180E71",
"r  c #140D7A",
"t  c #1C1277",
"y  c #231C74",
"u  c #162C6D",
"i  c #302D6B",
"p  c #2A2473",
"a  c #443B75",
"s  c #3C4350",
"d  c #474648",
"f  c #554C46",
"g  c #444B58",
"h  c #595759",
"j  c #6C5348",
"k  c #7E694C",
"l  c #4C4F6F",
"z  c #495567",
"x  c #485674",
"c  c #69526D",
"v  c #526478",
"b  c #696668",
"n  c #766D6A",
"m  c #6B6C72",
"M  c #787678",
"N  c #B9301C",
"B  c #AC2E2A",
"V  c #C6261E",
"C  c #DF1D25",
"Z  c #E31B22",
"A  c #EB1C24",
"S  c #D42121",
"D  c #E32227",
"F  c #B94C17",
"G  c #AB6813",
"H  c #934D33",
"J  c #AC6B36",
"K  c #DA792F",
"L  c #8E6756",
"P  c #A97754",
"I  c #8D736A",
"U  c #857C7B",
"Y  c #B17678",
"T  c #CA4F4F",
"R  c #B6AC0E",
"E  c #918A2C",
"W  c #A99625",
"Q  c #A69332",
"!  c #CABB0C",
"~  c #EEAC16",
"^  c #D4983D",
"/  c #C6B733",
"(  c #D7C807",
")  c #DDD207",
"_  c #D4C714",
"`  c #E7DA04",
"'  c #EED614",
"]  c #EEE10D",
"[  c #F5E805",
"{  c #FAED02",
"}  c #FFF200",
"|  c #FEF108",
" . c #F5E619",
".. c #D7C830",
"X. c #EBD730",
"o. c #F3E627",
"O. c #EFE330",
"+. c #8F894A",
"@. c #AB944F",
"#. c #B7A345",
"$. c #938974",
"%. c #B18A6E",
"&. c #B7A973",
"*. c #D08F52",
"=. c #E98A41",
"-. c #C8B354",
";. c #CB9872",
":. c #C3AB6A",
">. c #CEAD79",
",. c #E6A470",
"<. c #DBC748",
"1. c #DACE5A",
"2. c #E5D54D",
"3. c #EADD56",
"4. c #D2CB72",
"5. c #D5CA73",
"6. c #210F86",
"7. c #220F88",
"8. c #241386",
"9. c #25128A",
"0. c #29148E",
"q. c #2C1B8C",
"w. c #2B1692",
"e. c #2E1994",
"r. c #311B95",
"t. c #341C9B",
"y. c #332D8B",
"u. c #372796",
"i. c #3A239C",
"p. c #3E26A1",
"a. c #4B3B8E",
"s. c #65349E",
"d. c #452AA4",
"f. c #4B27AE",
"g. c #4C2AAE",
"h. c #4C36AB",
"j. c #5338AC",
"k. c #4E2BB1",
"l. c #522DB3",
"z. c #5E29B2",
"x. c #4F31B0",
"c. c #5532B5",
"v. c #5C33B6",
"b. c #583BB6",
"n. c #5735B8",
"m. c #5A36B9",
"M. c #5C3BBB",
"N. c #622CB4",
"B. c #6532B4",
"V. c #673BB7",
"C. c #6633B8",
"Z. c #6A35B9",
"A. c #6D3ABD",
"S. c #713CBF",
"D. c #2F4E8C",
"F. c #1867A9",
"G. c #376DAA",
"H. c #504F90",
"J. c #576887",
"K. c #586F8F",
"L. c #5B7395",
"P. c #6E7592",
"I. c #5449AE",
"U. c #6844B9",
"Y. c #7448B9",
"T. c #6252BF",
"R. c #7556B2",
"E. c #596FA9",
"W. c #6C73AC",
"Q. c #7C64B4",
"!. c #6F3FC0",
"~. c #723FC0",
"^. c #6C48C1",
"/. c #7441C1",
"(. c #7D4BC5",
"). c #9D6D8E",
"_. c #857F81",
"`. c #8571B0",
"'. c #8877B1",
"]. c #8657C7",
"[. c #946FCC",
"{. c #3B81BD",
"}. c #7F8084",
"|. c #5A84B2",
" X c #728FB5",
".X c #358CCE",
"XX c #2890E3",
"oX c #3997E3",
"OX c #3EA5E1",
"+X c #498ECA",
"@X c #7A95C4",
"#X c #78A9D2",
"$X c #4298E4",
"%X c #56A6E4",
"&X c #828285",
"*X c #868388",
"=X c #8C8B8D",
"-X c #918E8D",
";X c #8C8B94",
":X c #939294",
">X c #9D9394",
",X c #95959A",
"<X c #9B9A9C",
"1X c #B09785",
"2X c #A79A99",
"3X c #9BA39B",
"4X c #B4AB8E",
"5X c #B2AA9A",
"6X c #8F8CAF",
"7X c #948AAE",
"8X c #9C98A9",
"9X c #A39EA7",
"0X c #95A5B8",
"qX c #A4A2A5",
"wX c #A7A6AB",
"eX c #AAA8A9",
"rX c #B0B0AC",
"tX c #B4B3B5",
"yX c #BBBABB",
"uX c #C1BC89",
"iX c #F7B583",
"pX c #CAC497",
"aX c #8C90C6",
"sX c #8CAFD6",
"dX c #B0B9C5",
"fX c #92BBE3",
"gX c #9AC7EB",
"hX c #A5C9E7",
"jX c #ADD5F2",
"kX c #ABD5F4",
"lX c #AAD6F5",
"zX c #C8C7C8",
"xX c #D4D0CA",
"cX c #D4D3D5",
"vX c #DAD9D9",
"bX c #E0DED6",
"nX c #E5E4E4",
"mX c #ECECEC",
"MX c #EFEFEE",
"NX c #F6F5F5",
/* pixels */
"wXwXwXwXwXwXwXwXwXwXwXwXwXwXwXwXwXwXwXwXwXwXwXwXwXwXwXwXwXwXwXwXwXwXwXwXwXwXwXwXwXwXwXeXwXwXwXwXwXwXwXwXwXwXwXwXwXwXwXwXwXwXwXwX",
"wXwXwXwXwXwXwXwXwXwXwXwXwXwXwXwXwXwXwXwXwXwXwXwXwXwXwXwXwXwXwXwXwXwXwXwXwXwXwXwXwXwXwXwXwXwXwXwXwXwXwXwXwXwXwXwXwXwXwXwXwXwXwXwX",
"wXwXwXwXwXwXwXwXwXwXwXwXeXwXwXwXwXwXwXwXwXwXwXwXwXwXwXwXwXwXwXwXwXeXwXwXwXwXwXwXwXwXwXwXwXwXwXwXwXwXwXwXwXwXwXwXwXwXwXwXwXwXwXwX",
"wXwXwXwXwXwXwXwXwXwXwXwXwXwXwXwXwXwXwXwXwXwXwXwXwXwXwXwXwXwXwXwXwXwXwXwXwXwXeXwXwXwXwXwXwXwXwXwXwXwXwXwXwXwXwXwXwXwXwXwXwXwXwXwX",
"wXwXwXwXwXwXwXwXwXwXwXeXwXwXwXwXwXwXwXwXwXwXwXwXwXwXwXwXwXwXrXuX5XeXwXwXwXwXwXwXwXwXwXwXwXwXwXwXrXwXwXwXwXwXwXwXwXwXwXwXwXwXwXwX",
"wXwXwXwXwXwXwXwXwXwXwXwXwXwXwXwXwXwXwXwXwXwXwXwXwXwXwXwXwX1X*.^ ^ %.3XwXwXwXwXwXwXwXwXwXwXwXwXwXwXwXwXwXwXwXwXwXwXwXwXwXwXwXwXwX",
"wXwXwXwXwXwXwXwXwXwXwXwXwXwXwXwXwXwXwXwXwXwXwXwXwXwXwXwX$.K =.=.^ K P <XwXwXwXwXwXwXwXwXwXeXwXwXwXwXwXwXwXwXwXwXwXwXwXwXwXwXwXwX",
"wXwXwXwXwXwXwXwXwXwXwXwXwXwXwXwXwXwXwXwXwXwXwXwXwXeXwX2XP J H * * * H I wXwXwXwXwXwXwXwXwXwXwXwXwXwXwXwXwXwXwXwXwXwXwXrXwXwXwXwX",
"wXwXwXwXwXwXwXwXwXwXwXwXwXwXwXwXwXwXwXwXwXwXwXwXwXwXwX$.* $ & * $ $   $ <XwXwXwXwXwXwXwXwXwXwXwXwXwXwXwXwXwXwXwXwXwXwXwXwXwXwXwX",
"wXwXwXwXwXwXwXwXwXwXwXwXwXwXwXwXwXwXwXwXwXwXwXwXwXwXwXb   * ,.,.*.*   % U wXwXwXwXwXwXwXwXwXwXwXwXwXwXwXwXwXwXwXwXwXwXwXwXwXwXwX",
"wXwXwXwXwXwXwXwXwXwXwXwXwXwXwXwXwXwXwXwXwXwXwXwXwXwX8Xh @ * P ,.P j   % b qXwXwXwXwXwXwXwXwXwXwXwXwXwXwXwXwXwXwXwXwXwXwXwXwXwXwX",
"wXwXwXwXwXwXwXwXwXwXwXwXwXwXeXwXwXwXwXwXwXwXwXwXwXwXM h j L 1X,.P L % % b qXwXwXwXwXwXwXwXwXwXwXwXwXwXwXwXwXwXwXwXwXwXwXwXwXwXwX",
"wXwXwXeXwXwXwX2X:.-.4XrXwXwXwXwXwXwXwXwXwXwXwXwX9X,X*XM f @.iX;.;.P % f $.wXwXwXwXwXwXwXwXwXwXwXwXwXwXwXwXwXqX&.:.4X9XeXwXwXwXwX",
"wXwXwXwXwXwX9X-.[ } o.5XwXwXwXwXwXwXwXwXwXwXwXwXwX,X,Xb % & ;.;.Y j @ % U wXwXwXwXwXwXwXwXwXwXwXwXwXwXwXwXeX4. .{ ' 1XwXwXwXwXwX",
"wXwXwXwXwXwXqX@.#.[ | 1.wXwXwXwXwXwXwXwXwXwXwXtXrX:X,X*Xf @ j %.k @ @ d M wXwXwXwXwXwXwXwXwXwXeXwXwXwXwXwXrXO.} ) @.@.9XwXwXwXwX",
"wXwXeXwXwX9X%.Q Q ` | 1.eXwXwXwXwXwXwXwXtXyXcXnXvXeXyXtX3Xm d f # @ d h b wXwXwXwXwXwXwXwXwXwXwXwXwXwXeXwXrXO.{ _ Q P 2XwXwXwXwX",
"wXwXwXwX9XY T ~ { { o.uXwXwXwXwXwXwXeXtXzXvXNXNXNXMXvXzXzXrX3X-X*X*X*Xm =XcXnXyXeXwXwXwXwXwXwXwXwXwXwXwXwXeX4.} } { K T Y wXwXwX",
"wXwXwXwXwX9X2X>.{ } 2.eXeXwXwXqXwXrXzXcXnXnXNXNXNXMXyX*X3XyXtXyXyXtX=Xh =XyXnXmXnXdXwX9XwXwXwXwXwXwXwXwXwXeX5Xo.} o.4X2X2XwXwXwX",
"wXwXwXwXwXwXeX5X .{ 3.uX5.5.uXuX5XzXbXnXmXMXMXMXnXxXrX}.m <X;XdXrXdX;Xn M 9XcXmXMXNXnXcXdXtXtXwXqX4XuXuX4.uXuXo.} <.eXwXwXwXwXwX",
"wXwXwXwXwXeX9X5Xo.} } | } ` _ 3.xXnXcXzXvXzXxXzXyX-X;Xb b }.M cXvXxXM h d _.2XcXvXNXNXMXNXMXmXzXrX<.o._ [ | | { } <.eXwXwXwXwXwX",
"wXwXwXwXwXwXwX5Xo.{ ( } } { / pXnXnXyX:X:X:X<X<X3Xh h s M m b 5XwX:Xm :Xh h m *X9XtXcXcXcXcXvXnXnX4X/ / ' | { ) } <.eXwXwXwXwXwX",
"wXwXwXwXwXwXeX2XX.} R [ }  .&.cXMXvXqX;X:X3XwXwXwXm g d eX&.-.vXvXyXM rXM f ;XU n m n _._._._.9XqXL %.iX;...) ( } 1.wXwXwXwXwXwX",
"wXwXwXwXwXwXwXwX:.{ ` R ( / 5XcXvXtX3X9XwXwXwXwXwX&X% k 1. .{  .2.5.$.}.=Xh qX9X9X9X>X;X_._.U U $.b j * L @.R [ ' 4XwXwXwXwXwXwX",
"wXwXwXwXwXwXwXwXwX&.<...#.@.$.2XwXqXqXwXwXwXwXwXwX=XW ] } } { { ` ] / M M m wXwXwXwXwX9XwXqXqXwX9XqX>XI k @...<.&.qXwXwXwXwXwXwX",
"wXwXwXwXwXwXwXwXwXwX9X9X1X;.%.I =XqXwXwXwXwXwXwXwX&.( R ` { { ` +.+.( $.$.M 9XwXwXwXwXwXwXwXwXwXwXwXwXqX9X2XqXeXwXwXwXwXwXwXwXwX",
"wXwXwXwXwXwXwXwXwXtX9X2X%.%.1X1XqXwXwXwXwXwXwXwXeX-.+.$.E ( ! R }.$._ #.M }.wXwXwXwXwXwXwXwXwXwXwXwXwXwXwXwXeXwXwXwXwXwXwXwXwXwX",
"wXwXwXwXwXwXwXwXwXwX9X-XI 2X>X2XwXwXwXwXwXwXwXwXwX..E +.E F S G E W ` @.M m 3XwXwXwXwXwXeXwXwXwXwXwXeXwXwXwXwXwXwXwXwXwXwXwXwXwX",
"wXwXwXwXwXwXwXwXwXwXwX2X*XqX2X9XwXwXwXwXwXwXwXwXwX&.[ ( G C A C F _ 1.rXh P.9XwXwXwXwXwXwXwXwXwXwXwXwXwXwXwXwXwXwXwXwXwXwXwXwXwX",
"wXwXwXwXwXwXwXwXwXwXwXwX9XwXwXwXwXwXwXwXwXwXwXwXwX,XJ G N Z A A D B k h d &XwXwXwXwXwXwXwXwXwXwXwXwXwXwXwXwXwXwXwXwXwXwXwXwXwXwX",
"wXwXwXwXwXwXwXwXwXwXwXwXwXwXwXwXwXwXwXwXwXwXwXwXwXwXM N A A A A A Z H * j 3XwXwXwXwXwXwXwXwXwXwXeXwXwXwXwXwXwXwXwXwXwXwXwXwXwXwX",
"wXwXwXwXwXwXwXwXwXwXwXwXwXwXwXwXwXwXwXwXwXwXwXwXwX3XI C Z C A A C A H $.m ;XwXwXwXwXwXwXwXwXwXwXwXwXwXwXwXwXwXwXwXwXwXwXwXwXwXwX",
"wXwXwXwXwXwXwXwXwXwXwXwXwXwXwXwXwXwXwXwXwXwXwXwXwXuXW N V N V N N F E ..3X6XwXwXwXwXeXwXwXwXwXwXwXwXwXwXwXwXwXwXwXwXwXwXwXwXwXwX",
"wXwXwXwXwXwXwXwXwXwXwXwXwXwXwXwXwXwXwXwXwXeXeXqX&./ ` ) ( ! ( ) ` ] ` ( o.rX0XwX9XwXwXwXwXwXwXwXwXwXwXwXwXwXwXwXwXwXwXwXwXwXwXwX",
"wXwXwXwXwXwXwXwXwXwXwXwXwXwXwXwXwXwXwXwXwXwXeX&. .! ` } } } { } } } ` R { 2.hX0X9X9XwXwXwXwXwXwXwXwXwXwXwXwXwXwXwXwXwXwXwXwXwXwX",
"wXwXwXwXwXwXwXwXwXwXwXwXwXwXwXwXwXwXqXqX8X7X'.%.) R [ } } } } } } } } R _ &.kXhX`.R.Q.`.7X8X9XwXwXwXwXwXwXwXwXwXwXwXwXwXwXwXwXwX",
"wXwXwXwXwXwXwXwXwXwXwXwXwXwXwX9X8X7XQ.R.V.N.c.s.Q ` } } } } } } } } } { W 0XjXkXsXV.B.C.A.S.Y.Q.'.7X9XwXwXwXwXwXwXwXwXwXwXwXwXwX",
"wXwXwXwXwXwXwXwXwXwXwXwX9X9X'.R.V.N.z.N.N.N.N.^.>X' { } } } } } { { { [ &.fXjXjXhX`.~.Y.].Y.Z.N.B.V.Y.`.8X9XwXwXwXwXeXwXwXwXwXwX",
"wXwXwXwXwXwXwXwXwXwXwX7XQ.Z.N.N.z.N.N.N.N.z.C.Q.gXtX<.' [ } } } { ] ( @.P.sXhXjXlXaX(.].[.].S.C.N.N.N.N.B.R.7X9XwXwXwXwXwXwXwXwX",
"wXwXwXwXwXwXwXwXwX7X`.N.z.z.N.N.N.C.N.Z.Z./.A.@XlXlXkXdX3X&.%.&.).).c l  X XsXjXlXhX].].[.]./.~.Z.B.N.N.N.N.N.R.7X9XwXwXwXwXwXwX",
"wXwXwXwXwXwXwX8X`.B.z.N.N.N.N.N.Z.A.A.A.A./.Y.#XlXlXlXfX XR.U.A.Z.A.V.a.z |. XfXlXlX'.].].].(.~.S.A.Z.Z.N.N.N.N.N.R.7XwXwXwXwXwX",
"wXwXwXwXwXeX7XY.N.z.N.N.N.Z.!.!./.Y.~././.!.W.fXlXlXlX#XE.j.k.k.g.f.f.f.a.v K.sXgXjXsXU.^././.~.~.~.S.A.Z.Z.Z.N.N.N.B.'.eXwXwXwX",
"wXwXwXwX9X'.V.N.N.N.N.Z.!.~.!.~.~.~.C.v.l.j.W.gXlXkXgXE.j.k.k.l.l.k.k.k.g.4 g L. X XW.d.g.k.c.m.A.~.~.~.S.S.A.Z.C.N.N.N.`.9XwXwX",
"wXwXwXwX7XV.z.N.N.Z.Z.!.~.!.!.!.l.k.k.k.k.a z sXkXhXaXI.c.c.c.c.c.c.c.l.h.s s z z z H.g.k.k.g.f.k.l.v.A.~.~.S.A.Z.C.C.N.N.`.9XwX",
"wXwXwX8XV.z.N.N.N.Z.~.~.!.z.k.f.l.l.k.l.k.l g v  X XE.b.v.m.m.n.n.n.n.m.I.s s s d a j.c.c.l.g.g.f.f.f.l.l.Z.S.A.A.Z.C.C.N.N.'.wX",
"wXeXeXR.z.z.N.Z.C.!.!.v.k.k.k.x.x.c.c.c.j.4 g d h g H.u.t.e.e.e.e.r.t.u.H.J.K.s # H.I.^.M.I.c.l.l.l.k.f.f.f.z.A.S.S.A.Z.N.N.V.8X",
"wXeX7XB.z.N.Z.Z.!.!.f.f.k.l.c.c.c.c.c.k.H.s d f f s 7.9.7.6.6.7.6.6.t q.x L.L.x l y.p.h.n.M.b.n.l.c.l.l.k.f.f.g.v.S.S.A.Z.N.N.`.",
"wXwX`.N.B.B.Z.A.m.k.k.l.c.c.c.c.x.p.e.q.4 s s s s y.q.q.9.8.7.0.9.0.9.y.x L.E.W.y.8.8.0.w.t.p.c.m.c.c.l.l.l.k.g.k.v.A.~.A.Z.N.R.",
"wXwX`.B.Z.A.A.B.k.l.l.n.n.n.k.t.9.7.7.y.s # # s D.^.D.u.0.0.w.w.e.r.u.x L.|.|.K.y.9.8.8.6.7.8.0.p.c.m.m.c.c.l.c.c.c.z.S.S.Z.B.U.",
"wXwX`.N.A.A.C.l.k.n.m.m.c.t.9.6.8.9.9.q.z # # 3 H.|.I.u.e.w.e.t.r.i.d.J.v |.K.H.w.w.0.7.0.6.6.6.6.9.p.c.b.n.n.M.U.U.c.c.A.A.C.Y.",
"wXwX`.N.Z.A.c.k.c.M.M.d.9.9.8.0.0.u.e.y.K.# 2 i I.I.I.p.i.t.t.t.t.u.H.v P.K.|.u.t.e.e.w.0.0.9.9.7.6.6.w.k.b.M.U.(.U.c.k.C.S.C.R.",
"wXwX7XA.Z.v.k.c.M.M.p.9.9.9.9.e.u.i.u.y.+Xv x y.u.y.q.u t e 0 w e p g v P.L.H.y.t.t.t.r.r.w.0.0.9.9.7.6.9.g.M.M.T.M.c.k.l.A.Z.`.",
"wXwX9X`.Z.l.c.M.M.p.9.9.9.9.0.i.d.h.u.G.oXoXG.8 7 , 5 5 : > > - ; < v |.J.z 4 8 6 r 8.w.t.t.r.e.w.0.9.9.8.0.x.V.M.b.k.k.f.Z.Y.7X",
"wXwXwX7XY.c.n.M.f.9.9.9.9.w.r.t.i.u.y.+XoXoXF.; > > - > > 5 5 > 8 D.x K.L.L.u - : > - 5 t q.u.i.r.w.w.w.9.6.0.c.M.M.c.k.g.B.'.wX",
"wXwXwXwX6XM.m.M.e.7.9.0.r.t.t.r.t 8 u .X$X.Xu 5 5 5 5 6 7 7 9 0 H.+XOX+X|.J.i , > > , 8 y i p q.t.r.w.0.7.7.6.d.M.V.n.x.g.Q.wXwX",
"wXwXwXwXwX'.U.g.9.9.0.0.e.r.t 5 - - u .XoX{.0 6 6 7 q w r q q y  X%XoXoXXXD.e 6 5 5 , 0 p H.l 0 9 9.r.e.0.7.7.w.M.^.M.n.Q.8XwXwX",
"wXwXwXwXwXwX6XI.8.9.0.e.0.9 : - - - - D.G.D.7 7 w r r r r r w r 2 0X%XoXXXF.w 9 e 6 8 0 p H.a.0 , , t r.e.0.7.0.n.^.T.Q.9XwXwXwX",
"wXwXwXwXwXwXwX8XP.e.r.w.e - - : > : 5 5 7 w r r w > > = = = O = + 3 #XOXoXF.r r w 9 9 e y p p 0 , : > t w.w.0.0.b.T.7XwXwXwXwXwX",
"wXwXwXwXwXwXwXwX9X6XH.y : - - - : > 5 q w q , = O . . . . . . . . . z %XoX{.< ; w r q 9 9 8 8 , ; : : > 7.w.w.a.6XwXwXwXwXwXwXwX",
"wXwXwXwXwXwXwXwX9XwX9X;Xc 0 , : : 5 w t 6 O . . . . . . . . . . . . o P.%XOX1 X O 5 r q 7 7 5 : : : > : 0 H.W.9X0XwXwXwXwXwXwXwX",
"wXwXwXwXwXwXwXwXwXwXwXwXwX:XP.l p 9 w 8 O . . . . . . . . . . . . . . o 3 v s . . . 5 r q 5 5 5 > < i J.;X8XwXwXwXwXwXwXwXwXwXwX",
"wXwXwXwXwXwXwXwXwXwXwXwXwXwXwXqX8XP.H.i + o . . . . . . . . . . . . . . X . . . . . O r w 0 p l P.;X9X9XwXwXwXwXwXwXwXwXwXwXwXwX",
"wXwXwXwXwXwXwXwXwXwXwXwXwXwXwXwXwXwXeXqX,XP.m h 4 2 # o + X . . . . X X X o o + 2 3 l J.P.7X8XwX9X9XwXwXwXwXwXwXwXwXwXwXwXwXwXwX",
"wXwXwXwXwXwXwXwXwXwXwXwXwXwXwXwXwXwXwXwXwXwXwXqXqX8X,X;X;X*X;X&X$.P.P.*X*X=X;X,X8X9XwXwXeXwXwXwXwXwXwXwXwXwXwXwXwXwXwXwXwXwXwXwX",
"wXwXwXwXwXwXwXwXwXwXwXwXwXwXwXwXwXwXwXeXwXwXwXwXwXwXwXwXwXwXwXeXeXeXwXwXwXwXwXwXwXwXwXwXwXwXwXwXwXwXwXwXwXwXwXwXwXrXwXwXwXwXwXwX"
};
