/* XPM */
static char *_9A1721706115[] = {
/* columns rows colors chars-per-pixel */
"64 64 245 2 ",
"   c #03022A",
".  c #0C0B2E",
"X  c #07063A",
"o  c #151535",
"O  c #282025",
"+  c #312A2A",
"@  c #252537",
"#  c #35353C",
"$  c #58311C",
"%  c #4A372E",
"&  c #663C28",
"*  c #49403C",
"=  c #57453D",
"-  c #734C33",
";  c #060457",
":  c #07045A",
">  c #09065C",
",  c #0C095B",
"<  c #121053",
"1  c #26274F",
"2  c #393B47",
"3  c #363B59",
"4  c #0A0663",
"5  c #0D0968",
"6  c #110C68",
"7  c #1A1765",
"8  c #0F0A75",
"9  c #130C77",
"0  c #1B1574",
"q  c #251F6E",
"w  c #221777",
"e  c #25256B",
"r  c #35356C",
"t  c #2A2573",
"y  c #38377A",
"u  c #41374E",
"i  c #3C424A",
"p  c #3B4455",
"a  c #3D4876",
"s  c #494747",
"d  c #534B48",
"f  c #464B58",
"g  c #534C5C",
"h  c #575457",
"j  c #6C544F",
"k  c #65615F",
"l  c #495568",
"z  c #595A65",
"x  c #4D5278",
"c  c #675673",
"v  c #686568",
"b  c #726A6D",
"n  c #6B6A74",
"m  c #766A73",
"M  c #777679",
"N  c #D31D21",
"B  c #E71C23",
"V  c #D12B27",
"C  c #B85417",
"Z  c #A25A31",
"A  c #AC6E2D",
"S  c #CF7637",
"D  c #885749",
"F  c #8B6856",
"G  c #A47253",
"H  c #917770",
"J  c #B56E6D",
"K  c #C97B49",
"L  c #A48F18",
"P  c #B7AC08",
"I  c #B5A614",
"U  c #B7AE13",
"Y  c #AF9227",
"T  c #AFA72D",
"R  c #C79311",
"E  c #CDB20C",
"W  c #C5B90A",
"Q  c #CAB035",
"!  c #D6C805",
"~  c #D2C80A",
"^  c #E7D903",
"/  c #EDD714",
"(  c #EBD71A",
")  c #EEE103",
"_  c #F4E606",
"`  c #FBED02",
"'  c #FFF200",
"]  c #FDF00A",
"[  c #EDE116",
"{  c #F7EA15",
"}  c #D3C727",
"|  c #E3CC2C",
" . c #EBD928",
".. c #E7D836",
"X. c #EFE32F",
"o. c #AF8D52",
"O. c #A19851",
"+. c #8A8B69",
"@. c #AF8C70",
"#. c #B6A972",
"$. c #CC8D53",
"%. c #E08640",
"&. c #C9B151",
"*. c #CC9472",
"=. c #CBB071",
"-. c #EBAA77",
";. c #D7C64D",
":. c #E3D751",
">. c #EADB5D",
",. c #D8CC69",
"<. c #D0C976",
"1. c #210F86",
"2. c #220F88",
"3. c #231285",
"4. c #25118A",
"5. c #29148E",
"6. c #271988",
"7. c #2C1B8D",
"8. c #2B1692",
"9. c #2E1994",
"0. c #311B95",
"q. c #331C9A",
"w. c #381E9F",
"e. c #352696",
"r. c #3A229C",
"t. c #393390",
"y. c #3D26A0",
"u. c #513A95",
"i. c #603B9C",
"p. c #4628A8",
"a. c #4C2AAE",
"s. c #4D32AC",
"d. c #5639AC",
"f. c #4E2BB1",
"g. c #522DB2",
"h. c #5E2AB2",
"j. c #5532B5",
"k. c #5C33B6",
"l. c #5837B7",
"z. c #5936B9",
"x. c #5C3BBB",
"c. c #6539AA",
"v. c #622CB4",
"b. c #6532B4",
"n. c #693BB4",
"m. c #6534B9",
"M. c #6A35BA",
"N. c #633DBC",
"B. c #6D3ABD",
"V. c #703CBE",
"C. c #514C8F",
"Z. c #675794",
"A. c #6D5093",
"S. c #586C87",
"D. c #586F94",
"F. c #6B6F88",
"G. c #767287",
"H. c #7C7D84",
"J. c #647A96",
"K. c #5248AC",
"L. c #6A46A5",
"P. c #7255AC",
"I. c #6D44B7",
"U. c #6343BB",
"Y. c #7347B9",
"T. c #7857B5",
"R. c #5B7AA4",
"E. c #667AA7",
"W. c #7A64B0",
"Q. c #6F3FC0",
"!. c #723FC0",
"~. c #7542C2",
"^. c #744FC2",
"/. c #7B49C4",
"(. c #8C708C",
"). c #A27A8D",
"_. c #866DAE",
"`. c #8675AC",
"'. c #8A7CB2",
"]. c #804FC7",
"[. c #8656C7",
"{. c #9D73D1",
"}. c #758599",
"|. c #5F85B6",
" X c #748BA7",
".X c #6E89B0",
"XX c #7B97B6",
"oX c #7B9CC3",
"OX c #878689",
"+X c #84848A",
"@X c #978A89",
"#X c #8C8A96",
"$X c #928F99",
"%X c #939295",
"&X c #99979B",
"*X c #AE8B88",
"=X c #AA9988",
"-X c #A79C98",
";X c #B4AB8B",
":X c #AAA59B",
">X c #AAA39D",
",X c #B3A99A",
"<X c #B8B496",
"1X c #8981A8",
"2X c #938AAF",
"3X c #9B99A6",
"4X c #829BBD",
"5X c #A39EA7",
"6X c #A59EB5",
"7X c #92A0B0",
"8X c #A5A2A5",
"9X c #A9A3A4",
"0X c #A7A6AB",
"qX c #A8A6A9",
"wX c #ABAAA8",
"eX c #B0ADAF",
"rX c #B4B3B5",
"tX c #B6B6B9",
"yX c #BDBBBD",
"uX c #C6BA91",
"iX c #DBB491",
"pX c #C8C282",
"aX c #D9CBB1",
"sX c #E7D9B1",
"dX c #86A7C8",
"fX c #8BADD0",
"gX c #8DB4D9",
"hX c #95B8D8",
"jX c #93BEE4",
"kX c #C0BDC0",
"lX c #9BC5E7",
"zX c #9FCCF0",
"xX c #A5CBE9",
"cX c #ABD5F3",
"vX c #ACD5F3",
"bX c #A9D5F5",
"nX c #AED9F5",
"mX c #C3C2C3",
"MX c #CBCBCD",
"NX c #D0CECE",
"BX c #D7D7D8",
"VX c #E1DBD5",
"CX c #E9E8E7",
"ZX c #F0EEED",
"AX c #F5F5F3",
/* pixels */
"0X0X0X0X0X0X0X0X0X0X0X0X0X0X0X0X0X0X0X0X0X0X0X0X0X0X0X0X0X0X0X0X0X0X0X0X0X0X0X0X0X0X0X0X0X0X0X0X0X0X0X0X0X0X0X0X0X0X0X0X0X0X0X0X",
"0X0X0X0X0X0X0X0X0X0X0X0X0X0X0X0X0X0X0X0X0X0X0X0X0X0X0X0X0X0X0X0X0X0X0X0X0X0X0X0X0X0X0X0X0X0X0X0X0X0X0X0XqX0X0X0X0X0X0X0X0X0X0X0X",
"0X0X0X0X0X0X0X0X0X0X0X0X0X0X0X0X0X0X0X0X0X0X0X0X0X0X0X0X0X0X0X0X0X0X0X0X0X0X0X0X0X0X0X0X0X0X0X0X0X0X0X0X0X0X0X0X0X0X0X0X0X0X0X0X",
"0X0X0X0X0X0X0X0X0X0X0X0X0X0X0X0X0X0X0X0X0X0X0X0X0X0X0XqX0X0X0X0X0X0X0X0X0X0X0X0X0X0X0X0X0X0X0X0X0X0X0X0X0X0X0X0X0X0XeX0X0X0X0X0X",
"0X0X0X0X0X0X0X0X0X0X0X0X0X0X0X0X8X0X0X0X0X0X0X0XqX0X0X0X0X0X0X0X0X0X0X0X0X0X0X0X0X0X0X0X0X0XqXqX0X0X0X0X0X0X0X0X0X0X0X0X0X0X0X0X",
"0X0X0X0X0X0X0X0X0X0X0X0X0X0X0XqX8X5X0X0X0X0X0X0X0X0X0X0X0X0X0X0X0X0X0X0X0X0X0X0X0X0X0X0X0X0X0XqX0X0X0X0X0X0X0X0X0X0X0X0X0X0X0X0X",
"0X0X0X0X0X0X0X0X0X0X0X0X0X8X>X=.:.<.wXqX0X0X0X0X0X0X0X0X0X0X0X0X0X0X0X0X0X0X0X0X0X0X0X0XwXuX&.>X0X0X0X0X0X0X0X0X0X0X0X0X0X0X0X0X",
"0X0X0X0X0X0X0X0X0X0X0X0X0X5X&.` ' ] :.wX0X0X0X0X0X0X0X0X0X0X0X0X0X0X0X0X0X0X0XwX0X0X0X,X:._ ' ( =X0X0X0X0X0XqX0X0X0X0X0X0X0X0X0X",
"0X0X0X0X0X0X0X0X0X0X0X0X0X>X/ ` ' ' { <XeX0X0X0X0X0X0X0X0X0X0X0X0X0X0X0X0X0X0X0X0X0X0X<.] ' ' ' | 0X0X0X0X0X0X0X0X0X0X0X0X0X0X0X",
"0X0X0X0X0X0X0X0X0X0X0X0X0X,X .' ' ' { <X0X0X0X0X0X0X0X0X0X0X0X0X0X0X0X0X0X0X0X0X0X0X0X<.' ' ' ' | 9X0X0X0X0X0X0X0X0X0X0X0X0X0X0X",
"0X0X0X0X0X0X0X0X0X0X0X0X0X0X#.^ ' ' ,.wX0X0X0XqX0X0X0X0X0X0X0X0X0X0X0X0X0X0X0XqX0X0X0X<X{ ` ` ) =.9X0X0X0X0X0X0X0X0X0X0X0X0X0X0X",
"0X0X0X0X0X0X0X0X0X0X0X0X0X9XJ C ) { pX:X0X0X8X0X0X0X0X0X0X0X0X0X0X0X0X0X0X0X0X7X0X0X0X0X,.` ^ S *XqX0X0X0X0X0X0X0X0X0X0X0X0X0X0X",
"0X0X0X0X0X0X0X0X0X0X0X0X0X0X*XG ^ ' [ :.,.#.;.-X0X0X0X0X0X0X0X0X0X0X0X0X0X0X0X#.;XwXuX<.X.] W Z *X0X0X0X0X0X0X0X0X0X0X0X0X0X0X0X",
"0X0X0X0X0X0X0X0X0X0X0X0X0X0X5X&.^ ' ~ P _ ` ;.8X0X0X0X0X0X0X0X0X0X0X0X0X0X0X0X#.X.X.[ ~ ^ ' ~ #.0X0X0X0X0X0X0X0X0X0X0X0X0X0X0X0X",
"0X0X0X0X0X0X0X0X0X0X0X0X0X0X5X&.! ' ' ~ ) ` =.8X0X0X0X0X0X0X0X0X0X0XeX0X0X0X0X:X[ ' P ! _ ' ~ #.0X0X0X0X0X0X0X0X0X0X0X0X0X0X0X0X",
"0X0X0X0X0X0X0X0X0X0X0X0X0X0X8X&.U ~ W P '  .,X0X0X0X0X0X0X0X0X0X0X0X0X0X0X0X0X0X..` ^ P ' ) ~ &.8X0X0X0X0X0XeX0X0X0X0X0X0X0X0X0X",
"0X0X0X0X0X0X0X0X0X0X0X0X0X0X0X9X#.&.Q  .;.;X0X0X0X0X0X0X0X0X0X0X0X0X0X0X0X0X0X0X;X .` W P U T ;X0X0X0X0X0X0X0X0X0X0X0X0X0X0X0X0X",
"0X0X0X0X0X0X0X0X0X0X0X0X0X0X0X0X9X-X>X:XwX0X0X0X0X0X0X0X0X0X0XeX0X0X0X0X0X0X0X0X0X:X#.;.=.=.>X8X0X0X0X0X0X0X0X0X0X0X0X0X0X0X0X0X",
"0X0X0X0X0X0X0X0X0X0X0X0X0X0XqX0X0X0X0X0X0X0X0X0X0X0X0X0X0X0X0X5X5X0X0X0X0X0X0X0X0X0X0X8X8X0X0X0X0X0X0X0X0X0X0X0X0X0X0X0X0X0X0X0X",
"0X0X0X0X0X0X0X0X0X0X0X0X0X0X0X0X0X0X0X0X0X0X0X0X0X0X0X0X8X@.$.K K G -X0X0X0X0X0X0X0X0X0X0X0X0X0X0X0X0X0X0X0X0X0X0X0X0X0X0X0X0X0X",
"0X0X0X0X0X0X0X0X0X0X0X0X8X-X:X5X0X0X0X0X0X0X0X0X0X0X0X8X@.S %.S S S Z $X0X0X0X0X0X0X0X0XqX8XqXwX9X-XwX8XqXqX0X0X0X0X0X0X0X0X0X0X",
"0XeX0X0X0X0X0X0X0X0X0X-X#.| ..,.,X0X0X0X0X0X0X0X0X0X0X@XZ Z - $ & & - b 8X0X0X0X0X0X0X0XwXwX<X,...| @.:X0XqX0X0X0X0X0X0X0X0X0X0X",
"0X0X0X0X0X0X0X0X0X0X0X$.) ' ` ) X.;X0X0X0X0X0X0X0X0X9X+.& $ D D Z $ O $ %X0X0X0X0X0X0X0XqX<X..) ' ` ) $.8X0X0X0X0X0X0X0X0X0X0X0X",
"0X0X0X0X0X0X0X0X0X0X=XT T _ ~ +.U :.wX0X0X0X0X0X0X0X9Xk O = -.-.$.- O % M 0X0X0X0X0X0X0X,X:.T +.~ ) O.Q =X0X0X0X0X0X0X0X0X0X0X0X",
"0X0X0X0X0X0X0X0X0X0X#.O.O.W I H T ..eX0X0X0X0X0X0X0X#Xh % - G @.G - + % j 0X0X0X0X0X0X0XwX..Y +.I ! +.O.#.0X0X0X0X0X0X0X0X0X0X0X",
"0X0X0X0X0X0X0X0X0X0X#.} A V C W [ <.0X0X0X0X0X0X0X8X}.h b G -.=.G @.= d M 9X0X0X0X0X0X0XwX<._ I C V A } =X0X0X0X0X0X0X0X0X0X0X0X",
"0X0X0X0X0X0X0X0XqXqX5X@.N B B Y pXqX0X0XqX0XqX8X0X#X+.M = G -.iX@.G % d OX0X0X0X0X0X0X0X0XqXpXY B B N @.8X0X0X0X0X0X0X0X0X0X0X0X",
"0X0X0X0X0X0X0X0XqX9X6XJ B B B A <X0X0X0XqX0X8XwX0X%X&XM % % @.=.@.% + % M 0X0X0X8X8X0X0X0XqX<XA B B B J 8X0X0X0X0X0X0X0X0X0X0X0X",
"0X0X0X0X0X0X0X0X0XqX9XJ V B N R ..>.<.<X:X#.;XyXtX%X&X%Xv + = F j O + s M 0X0X0X@X#.wX;X<.:.:.R N N V J 0X0X0X0X0X0X0X0X0X0X0X0X",
"0X0X0X0X0X0X0X0X0X0XqX5Xo.R E ! ^ ' ^ I } [ aXAXVXtXMXeX8XOXv d # s h v M 0XrX0X#.[ } T _ ' ^ ^ E R o.9XeX0X0X0X0X0X0X0X0X0X0X0X",
"0X0X0X0X0X0X0X0X0X0X0X9X .' ' ! ! ' ' ~ L >.AXAXAXAXBXaXMXkXwX8X:X%XOXn %XMXCXmXrX..L W ` ' ! ^ ' ' ..9X0X0X0X0X0X0X0X0X0X0X0X0X",
"0X0X0X0X0X0X0X0X0X0X0X-X .' ' ) P ) ` ~ W pXAXAXAXCXtX}.OXwXwXtXyXyX%Xk OXeXCXAXCX,.U ~ ` ) P ) ' ` ( -X0X0X0X0X0X0X0X0X0X0X0X0X",
"0X0X0X0X0X0X0X0X0X0X9X5X&.` ' ` ^ P I U  .aXCXCXBXaXwX}.v %X%XkXrXrXOXb v &XMXCXZXVX( P I W ^ ` ` ` &.5X0X0X0X0X0X0X0X0X0X0X0X0X",
"0X0X0X0X0X0X0X0X0X0X0X0X-X&.( { ` { ( ;.uXyXkXtXwXH.H.v v }.n MXBXmXn z s H.OXMXBXZXVX,. ._ _ _  .&.-X9X0X0X0X0X0X0X0X0X0X0X0X0X",
"0X0X0X0X0X0X0X0X0X0X0X0X9X5X-XuXsXaX,XM (.#X_.P.P.l h 2 H.M M qXeX%Xn 0Xh h v b (.%XkXkX,XuXuXaXNX*X,X,X9X0X0X0X0X0X0X0X0X0X0X0X",
"0X0X0X0X0X0X0X0X0X0X0X0X0X9XeXBXZXNX3XP.L.N.v.v.k.c i d tX&X#XCXCXmXH.:XM 2 L.Z.G.c b m H M M OX=Xj J *XJ -X0X0X0X0X0X0X0X0X0X0X",
"0X0X0X0X0X0X0XeX0X0X0X0X3X(.$XMXMX6XW.Y.]./.~.!.m.u.+ z &XOX%XCXCXBXOXM OXz B.v.v.c.L.L.A.A.A.Z.A.c j & D @XqXqX0X0X0X0X0X0X0X0X",
"0X0X0X0X0X0X0X0X0X5X2XT.c.(.H @X1XP.I.[.2X[.!.!.B.i.# %XrXM OXNXBXVXOX}.M n T.B.M.M.M.b.b.b.c.v.v.v.c.L.A.`.9XwX0X0X0X0X0X0X0X0X",
"0X0X0X0XqX0X5X5X1XP.b.c.(.*.*.H L.V.Y.[.{.]././.Y.L.d &XeXH.eXMXNXBX5Xn OXG.^.~.V.V.B.B.B.b.h.m.M.v.v.v.h.c.P.2X0X0X0X0X0X0X0X0X",
"0X0X0X0XqXqX2X_.b.h.h.L.J ).H ).Y.V.~.].[././.~.~.L.z M }.G.eXMXBXMXtXM M G.T.~.~.!.!.~.V.V.Q.Q.M.M.v.v.h.h.v.h.W.6X0X0X0X0X0X0X",
"0X0X0X0X8X1XI.h.h.v.Q.i.H P._._.V.Y.!.~.!.N.b.g.h.Z.$Xd H.3XeXrXtXrXqX}.M n d.j.k.m.N.~.~.~.~.Q.!.Q.Q.m.v.v.v.v.v.I.2X9XqX0X0X0X",
"0X0X0X6X_.m.v.v.v.v.Q.v.A.V.T.Y.V.b.g.h.f.f.a.f.a.C.v h -XrXkXmXkXrXkXeXd c d.j.j.g.f.f.g.l.Q.Q.!.!.!.!.!.M.v.v.h.h.c.'.0X0X0X0X",
"0X0X5X_.b.v.v.M.v.Q.Q.Q.V.V.m.h.f.a.a.f.f.f.f.f.a.u.u + s v b k j d = = u i.z.x.U.z.f.f.f.g.a.f.g.M.Q.!.!.Q.M.m.v.v.v.h.'.qX0X0X",
"0X0X2Xm.v.v.M.M.Q.Q.Q.Q.v.f.a.f.f.a.f.f.j.l.j.j.j.d.u.+ % j & D D F D F g K.x.U.U.x.z.g.f.f.f.f.f.f.f.h.Q.!.Q.M.b.v.v.h.M.2X0X0X",
"qX3XY.v.b.M.M.V.Q.Q.k.a.f.f.f.f.f.f.j.l.U.U.K.x.d.s.y l M }. X}.G. X4XXXn C.r.s.d.j.l.l.j.j.j.j.g.g.f.f.f.k.Q.Q.M.M.v.v.v.P.5X0X",
"0X'.b.v.M.B.!.!.z.f.a.a.f.g.j.j.j.j.l.x.d.s.y.e.6.6.x oXXX XoXlXhXlXgXfXhXXXC.7.6.5.8.0.y.s.j.j.k.j.g.f.f.f.f.M.V.M.M.b.v.v.2X0X",
"qXT.v.M.M.V.B.k.g.f.g.f.f.g.j.j.z.j.y.e.7.6.5.4.3.C.oXlXlXoX}.oXdXfXoXfXhXlX4Xt.e.6.3.3.4.2.8.r.f.z.z.k.j.g.f.a.k.B.M.M.b.v._.0X",
"0XP.v.M.V.V.k.j.j.j.g.g.j.z.j.j.y.9.2.2.2.2.4.4.a XXjXxXxXxXgX.XJ.R.XXXXdXxXvX4XK.t.7.4.2.2.2.2.2.9.f.z.z.j.g.g.f.k.V.V.M.v.T.0X",
"0XY.b.B.Q.k.g.U.Y.x.l.l.l.l.y.8.2.2.1.2.5.4.8.8.E.jXbXxX7XXX}.}.l l l }.dXhXnXxX.Xt.9.8.5.4.4.4.2.2.2.9.a.x.z.j.g.a.k.V.B.b.T.0X",
"0XT.M.Y.N.f.g.U.^.U.l.U.a.9.2.2.2.2.4.4.5.8.9.t.oXbXcXcXhX4X}.p # # l  XdXgXcXnXhXK.e.9.8.8.7.0.8.4.4.2.4.p.x.x.j.g.g.M.M.b._.0X",
"0X'.M.M.g.a.j.l.U.U.U.p.5.2.2.2.4.5.8.8.9.q.q.K.jXnXnXcXjXdX}.p @ @ i S.XXlXbXnXvXW.y.w.q.q.r.r.e.9.5.2.1.4.w.x.x.l.g.k.M.n.2X0X",
"0X6XY.M.a.f.g.l.U.~.p.5.3.5.2.5.8.8.0.q.q.9.4.E.xXnXnXxXoXoXD.e < 1 # R..XoXlXbXnXfXt 3.7.w.r.s.p.r.9.5.4.4.1.w.x.x.j.g.M.T.6X0X",
"0X0X2XN.f.f.j.x.U.x.9.2.2.5.5.8.9.w.r.7.0 4 e oXzXnXnXjXfXE.r 4 : 4 1 p |..XfXlXvXlXx ; : 6 w e.r.r.q.8.5.5.2.2.p.x.l.g.I.2X0X0X",
"0X0X0XW.f.g.l.x.x.y.4.2.2.5.9.9.e.7.t e e 7 a oXbXnXzXgX.Xy 6 5 5 5 5 7 p D. XlXcXvXXX< ; : , 6 0 7.q.q.8.5.4.2.5.l.l.U.'.0X0X0X",
"0X0X0X8XW.j.z.x.U.9.2.2.4.9.9.5.0 7 y C.t e D.lXnXbXzXoXC.6 8 8 9 9 8 8 t l S.oXjXlX4X7 > : : : : , 0 0.8.8.4.4.4.s.U.W.5X0X0X0X",
"0X0X0X0X0X'.U.~.x.8.2.5.9.9.3.4 , e y Z.y r }.zXnXbXgXR.0 8 8 8 9 9 9 9 0 2 p S.J.J.S.7 4 > : : : ; : 6 8.8.8.4.1.K.2X6X0X0X0X0X",
"0X0X0X0X0X0X7XW.U.2.4.5.q.w 4 > , 7 q t t 3 p oXlXlX.Xy ; ; < ; ; X X X 1 i p h f f t 9 5 4 4 : ; ; ; ; 5 8.5.e.Z.$X0X0X0X0X0X0X",
"0X0X0X0X0X0X6X6X2XC.5.5.3., ; ; : 4 , 7 e 3 h f J.}.x o                 1 p i # i # 7 5 8 8 4 4 : ; ; ; : q C.1X7X0X0X0X0X0X0X0X",
"0X0X0X0X0X0X0X0X6X3X XK.q ; ; ; : : 4 5 e p i d d * @                 . a D.R.p @ @   X 5 8 5 4 > : : e x +X8X0X0X0X0X0X0X0X0X0X",
"0X0X0X0X0X0X0X0X0X0X0X5X$Xc r 7 : 4 4 5 r p i s s #                   @ l D.D.S.l .       5 9 0 7 x F.$X5X0X0X0X0X0X0X0X0X0X0X0X",
"0X0X0X0X0X0X0X0X0X0X0X0X0X0X3X$XF.x t t p i i p i o                   2 l D.|.|.3     . o 3 C.G.$X3X0X0X0X0X0X0X0X0X0X0X0X0X0X0X",
"0X0X0X0X0X0X0X0X0X0X0X0X0X0X0X0X0X0X3X$X}.z z h i o o . .           o l |.|.|.n g l n H.$X3X0X0X0X0X0X0X0X0X0X0X0X0X0X0X0X0X0X0X",
"0X0X0X0X0X0X0X0X0X0X0X0X0X0X0X0X0X0X0X8X8X8X0X3X&X%X%X#XOX+X}.+XOX}.}.%X#X7X%X3X0X0X0X0X0X0X0X0X0X0X0X0X0X0X0X0X0X0X0X0X0X0X0X0X",
"0X0X0X0X0X0X0X0X0X0X0X0X0X0X0X0X0X0X0X8XwX8X0X0X0X0X0X0X0X9X>XqXqX:X0X0X0X0X0X0X0X0X0X0X0X0X0X0X0X0X0X0X0X0X0X0X0XqX0X0X0X0X0X0X"
};
