/* XPM */
static char *_A1721706111[] = {
/* columns rows colors chars-per-pixel */
"64 64 246 2 ",
"   c #2D211C",
".  c #03022A",
"X  c #0B0A2E",
"o  c #040236",
"O  c #161531",
"+  c #392D28",
"@  c #2D2D33",
"#  c #4D392F",
"$  c #563522",
"%  c #463A36",
"&  c #53423C",
"*  c #744B35",
"=  c #060457",
"-  c #07045A",
";  c #09065C",
":  c #0C095A",
">  c #100E53",
",  c #192949",
"<  c #26264F",
"1  c #373B46",
"2  c #383856",
"3  c #0A0763",
"4  c #0E0965",
"5  c #0B076A",
"6  c #0E096C",
"7  c #130C69",
"8  c #181866",
"9  c #0E0A74",
"0  c #120B74",
"q  c #160D78",
"w  c #1A1275",
"e  c #221F66",
"r  c #221875",
"t  c #1D2E7C",
"y  c #32326D",
"u  c #2B2879",
"i  c #443F58",
"p  c #3D4349",
"a  c #3D4454",
"s  c #394277",
"d  c #47474A",
"f  c #544B49",
"g  c #474B57",
"h  c #47505D",
"j  c #585657",
"k  c #6D554C",
"l  c #7D6151",
"z  c #464B68",
"x  c #485367",
"c  c #575A64",
"v  c #4B4D75",
"b  c #465778",
"n  c #526176",
"m  c #55657A",
"M  c #666669",
"N  c #6F6E71",
"B  c #787679",
"V  c #D31D21",
"C  c #E71C23",
"Z  c #D12A26",
"A  c #B85417",
"S  c #A75E32",
"D  c #AF6C2C",
"F  c #D27B3B",
"G  c #855C54",
"H  c #956A4E",
"J  c #AF7751",
"K  c #B05F61",
"L  c #8A7870",
"P  c #B46E6B",
"I  c #B7AC08",
"U  c #B6AB13",
"Y  c #A88D21",
"T  c #AFA72D",
"R  c #C79311",
"E  c #CDB20C",
"W  c #C5B90A",
"Q  c #CAB034",
"!  c #D6C805",
"~  c #D3C70C",
"^  c #E7D903",
"/  c #E9D317",
"(  c #EBD71A",
")  c #EEE103",
"_  c #F4E606",
"`  c #FBED02",
"'  c #FFF200",
"]  c #FDF00A",
"[  c #EEE11A",
"{  c #F7EA15",
"}  c #D4C726",
"|  c #EAD826",
" . c #E5D233",
".. c #F0E531",
"X. c #AF8C53",
"o. c #A19851",
"O. c #8E8A6B",
"+. c #B38C6D",
"@. c #B7AA72",
"#. c #D78F4B",
"$. c #CBB24E",
"%. c #CAB458",
"&. c #D69B6F",
"*. c #C7B36F",
"=. c #E9A97A",
"-. c #D7C64D",
";. c #E1D652",
":. c #EFE452",
">. c #D2CA70",
",. c #210F86",
"<. c #220F88",
"1. c #231285",
"2. c #25118A",
"3. c #29148E",
"4. c #2C1B8D",
"5. c #2B1692",
"6. c #2E1994",
"7. c #311B95",
"8. c #341D9B",
"9. c #381E9F",
"0. c #332888",
"q. c #33328B",
"w. c #352396",
"e. c #3A239C",
"r. c #3B25A0",
"t. c #493890",
"y. c #4628A8",
"u. c #4C2AAE",
"i. c #502FAF",
"p. c #4D31AA",
"a. c #533AAA",
"s. c #4E2AB1",
"d. c #512DB2",
"f. c #5E29B2",
"g. c #5532B5",
"h. c #5B33B6",
"j. c #593AB4",
"k. c #5735B8",
"l. c #5836B9",
"z. c #5C3BBB",
"x. c #622CB4",
"c. c #6532B5",
"v. c #663AB7",
"b. c #6534B9",
"n. c #6A35BA",
"m. c #6D3ABD",
"M. c #713DBE",
"N. c #1B5F98",
"B. c #2F71AB",
"V. c #514E8E",
"C. c #615B98",
"Z. c #566B89",
"A. c #526B92",
"S. c #597598",
"D. c #6A708B",
"F. c #7B7C84",
"G. c #657A99",
"H. c #584CAC",
"J. c #6A4FAC",
"K. c #6845B8",
"L. c #7349B7",
"P. c #7758B3",
"I. c #5477AE",
"U. c #657AA9",
"Y. c #7B65B5",
"T. c #726CB2",
"R. c #6F3FC0",
"E. c #723FC0",
"W. c #7442C2",
"Q. c #744FC2",
"!. c #7B49C4",
"~. c #837F81",
"^. c #8875AF",
"/. c #8570B2",
"(. c #8A7BB1",
"). c #8555C7",
"_. c #9D73D1",
"`. c #758393",
"'. c #5385B5",
"]. c #6B85A6",
"[. c #7490AF",
"{. c #7896B6",
"}. c #3891D6",
"|. c #248CE3",
" X c #3799E5",
".X c #468DD7",
"XX c #7583C1",
"oX c #7E9FC5",
"OX c #5FA3D9",
"+X c #848387",
"@X c #848389",
"#X c #8C8A8D",
"$X c #998B8A",
"%X c #97948F",
"&X c #8D8C93",
"*X c #918F99",
"=X c #939295",
"-X c #97959A",
";X c #9C9A9E",
":X c #AC9C88",
">X c #B09388",
",X c #A79B98",
"<X c #B5A687",
"1X c #B2AA8F",
"2X c #AAA49C",
"3X c #B9B596",
"4X c #9389AC",
"5X c #9C99A8",
"6X c #9188B3",
"7X c #A29FA2",
"8X c #A29EAC",
"9X c #83A0BC",
"0X c #A4A2A5",
"qX c #AAA6A3",
"wX c #A7A6AB",
"eX c #A8A7A9",
"rX c #ACAAAD",
"tX c #B2B0AD",
"yX c #B4B4B7",
"uX c #BCBBBD",
"iX c #C3BC89",
"pX c #CBC694",
"aX c #8595C4",
"sX c #86A6C7",
"dX c #8DAAD1",
"fX c #8CB3D9",
"gX c #96B8D8",
"hX c #A0BCDB",
"jX c #8DBDE3",
"kX c #95BEE3",
"lX c #9BC0DC",
"zX c #9AC4E8",
"xX c #A4CBEA",
"cX c #ADD3F0",
"vX c #AAD5F3",
"bX c #A8D4F5",
"nX c #AED9F5",
"mX c #C7C6C8",
"MX c #D0D0D2",
"NX c #D8D8D8",
"BX c #E0DFDE",
"VX c #E7E4CB",
"CX c #E8E7E8",
"ZX c #F0EFEF",
"AX c #F4F3F3",
"SX c #F9F9F7",
/* pixels */
"wXwXwXwXwXwXwXwXwXwXwXwXwXrXwXwXwXwXwXwXwXwXwXwXwXwXwXwXwXeXwXwXwXwXwXwXwXwXwXwXwXwXwXwXwXwXwXwXwXwXwXwXwXwXwXwXwXwXwXwXwXrXwXwX",
"wXwXwXwXwXwXwXwXwXwXwXwXwXwXwXwXwXwXwXwXwXwXwXwXwXwXwXwXwXwXwXwXwXwXwXwXwXwXwXwXwXwXwXwXwXwXwXrXwXwXwXwXwXwXwXwXwXwXwXwXwXwXwXwX",
"wXwXwXwXwXwXwXwXwXwXwXwXwXwXwXwXwXwXwXwXwXwXwXwXwXwXwXwXwXwXwXwXwXwXwXwXrXwXwXwXwXwXwXwXwXwXwXwXwXwXwXwXwXwXwXwXwXwXwXwXwXwXwXwX",
"wXwXwXwXwXwXwXwXwXwXwXwXwXwXwXwXwXwXwXwXwXwXwXwXwXwXwXwXwXwXwXwXwXwXwXwXwXwXwXwXwXwXwXwXwXwXwXwXwXwXwXwXwXwXwXwXwXwXwXwXwXwXwXwX",
"wXwXwXwXwXwXwXwXwXwXwXwXwXwXwXwXwXwXwXwXwXwXwXwXwXwXwXwXwXwXwXwXwXwXwXwXwXwXwXwXwXwXwXwXwXwXwXwXwXwXwXwXwXwXwXwXwXwXwXwXwXwXwXwX",
"wXwXwXwXwXwXwXwXwXwXwXwXwXwXeXwXwX8XwXwXwXwXwXwXwXrXwXwXwXwXwXwXwXwXwXwXwXwXwXwXwXwXwXwXwXwXwXwXwXwXwXwXwXrXwXwXwXwXwXwXwXwXwXwX",
"wXwXwXwXwXwXwXwXwXwXwXwXwXwXqX%. .>.qXrXwXwXwXwXwXwXwXwXwXwXwXwXwXwXwXwXwXwXwXwXwXwXwXwXqXiX%.1XwXeXwXwXwXwXwXwXwXwXwXwXwXwXwXwX",
"wXwXwXwXwXwXwXwXwXwXwXwXwX7X%._ ' ] ;.qXwXwXwXwXwXwXwXwXwXwX7X,X,X0XwXwXwXwXwXwXwXwXwX2X;.{ ' ( :XeXwXwXwXwXwXwXwXwXwXwXwXwXwXwX",
"wXwXwXwXwXwXwXwXwXwXrXwXwX2X/ ` ' ' { pXwXwXwXwXwXwXwX0X,XP #.#.F J >X7XwXwXwXwXwXwXwXiX] ' ' '  .qXwXrXwXwXwXwXwXwXwXwXwXwXwXwX",
"wXwXwXwXwXwXwXwXwXwXwXwXwX2X| ' ' ' { tXwXwXwXwXwXwXwX7XJ F F D D S S $XwXwXwXwXwXwXrX>.' ' ' '  .qXwXwXwXwXwXwXrXwXwXwXwXwXwXwX",
"wXwXwXwXwXwXwXwXwXwXwXwXrX8X@.^ ' ' >.eXwXwXwXwXwXwXwX$XS * $ + $ $ $ k 0XwXwX8XwXeXeX3X{ ' ' { %.8XwXwXwXwXwXwXwXwXwXwXwXwXwXwX",
"wXwXwXwXwXwXwXwXwXwXwXwXeXeXP A ) { >.2XwXwX0X0XwXwXqXB $ $ J J S $   $ &XwXwXwXwXeXeXeX>.' ^ A >XwXwXwXwXwXwXwXwXwXwXwXwXwXwXwX",
"wXwXwXwXwXeXwXwXwXwXwXwXeXeX>XJ ^ ' [ ;.>.@.-.,XwXwXwXc   * &.=.&.*   % M wXwX@.1XqXiX>...] ! S ~.rXeXwXwXwXwXwXwXwXwXwXwXwXwXwX",
"wXwXwXwXwXwXwXwXwXwXwXwXwXwXwXX.^ ' ! I _ ` -.0XwXwX+Xj & k J X.H k # # j 0X0X@.[ ..( ! ^ ` W @.tXrXwXwXwXwXwXwXwXwXwXrXwXwXwXwX",
"wXwXwXwXwXwXwXwXwXwXwXwXwXwXeX$.! ' ' I ) ' *.0XeX5XL M l X.=.=.X.P * f ~.0XwX2X[ ' ~ ! _ ' ~ @.8XwXwXwXwXwXwXwXwXwXwXwXwXwXwXwX",
"wXwXwXwXeXwXwXeXwXwXwXwXwXeX0X%.U ! ~ W ' | 1XwXwX;X&XN % l =.=.+.H + & @XwXwXwX-.' ! W ' ) ~ %.eXwXwXwXwXwXwXwXwXwXwXwXwXwXwXwX",
"wXwXwXwXwXwXwXwXwXwXwXwXwXwXwX7X*.$.Q | -.1XwXrXwX=X;XN + + O.&.+.@ + & F.wXwX0X<X| ` ~ I W T <XeXwXwXwXwXwXwXwXwXwXwXwXwXwXwXwX",
"wXwXrXwXwXwXwXwXwXwXwXwXwXwXwXwX8X7X,XqXrXwXyXMXuX#XwX=X~.d & k d   % j N 0XwXwXwX2X@.%.%.<X2XwXeXwXwXwXwXwXwXwXwXwXwXwXwXwXrXwX",
"wXwXwXwXwXwXwXwXwXwXwXwXwXwXwXwXqXwXwXrXuXmXCXAXZXMXNXuXtX#XN M j j M M F.mXuXrXwXwXwXwXwXwXwXwXwXwXwXwXwXwXwXwXwXwXwXwXwXwXwXwX",
"wXwXwXwXwXwXwXwXwXwXwXwXwXwXwXwXwXrXyXuXMXCXSXSXSXAXMXrXmXmXyXqX0X;X&XM %XmXAXNXmXwXwXwXwXwXwXwXwXwXwXwXwXwXwXwXwXwXwXwXwXwXwXwX",
"wXwXwXwXwXwXwXwXwXwXwXwXeX,X2X0XeXuXNXCXCXCXAXAXAXBXyXB B ;X7XuXuXmX&XM L rXNXZXZXNXmXyXrX0XeXrXqX,XrXrXeXeXwXwXwXwXrXwXwXwXwXwX",
"wXwXwXwXwXwXwXwXwXwXeX,X@.} ..>.iXNXMXNXCXBXBXBXMXtXeXB M =X%XmXyXyX+XM c =XmXCXCXZXAXCXCXMXmX;. . .+.8XwXwXwXwXwXwXwXwXwXwXwXwX",
"wXwXwXwXwXwXwXwXwXwXqXX.) ` ] ) :.VXmXeXyXtXtXqX2XN B c M N M uXMXuXM N g N L tXmXCXZXCXZXVX:.) ` ` ) X.7XwXwXwXwXwXwXwXwXwXwXwX",
"wXwXwXrXwXwXwXwXwXeX>XQ T _ W o.T :.tX#X#X=X0X0XqXc h @ %X`.`.uXuX;XB tXM f N N B B 5XrXrX:.U O.E _ T Q +.wXwXwXwXwXwXwXwXwXwXwX",
"wXwXwXwXwXwXwXwXwXwX@.o.o.W U B T :.2X=X0XwXwXwXwXB 1 j yX2X=XCXCXmX~.%X+Xd 0X;X#X~.B B L ( T L T ~ o.X.J $XwXwXwXwXwXwXwXwXwXrX",
"wXwXwXwXwXwXwXwXwXwX@.} D Z A E { >.7X0XwXwXwXwXwX`.@ M -XB =XBXCXNX+XN F.N eXeXwXwXeX0X=X>._ U A Z D } H $XwXwXwXwXwXwXwXwXwXwX",
"wXwXwXwXwXrXwXwXwXwX8XP V C C Y @.7X0XwXwXwXwXwXeX#Xp ;XuX`.=XmXNXBX=X`.B N 0XwXwXwXeX0XwXwX>.Y V C V O.$X,XwXwXwXwXwXwXwXwXwXwX",
"wXwXwXwXwXwXwXwXwXwXwXP C C C D 1XwXwXwXwXwXwXrXeX#Xj #X5XF.tXMXmXNXwXN `.+X0XwX0XeXwXeXwXwX3XS C C C P 0XeXwXwXwXwXwXwXwXwXwXwX",
"wXwXwXwXwXwXwXwXwXwX0XK V V V R ..;.>.3X0X@.O.rXeX#XB M `.F.yXmXMXmXuXB B B qXeX%X@.2X3X>.;.;.R V C Z P wXwXwXwXwXwXwXwXwXwXwXwX",
"wXwXwXwXwXwXwXwXwXwXwX#XY R E ! ) ' ^ U } [ 1XwXqX`.=Xf `.0XyXyXyXyXyX#XM N 0XeX:X_ } T _ ' ^ ^ E R X.qXwXwXwXwXwXwXwXrXwXwXwXwX",
"rXwXwXwXwXwXwXwXwXwXwX2X .' ' ! ! ' ` ~ Y  .0XeXrX#Xj f %XyXuXuX8X0X,X7Xf B 0XwX0X .Y ~ ' ' ! ^ ' '  .2XwXwXwXwXwXwXwXwXwXwXwXwX",
"wXwXwXwXwXwXwXwXwXwXwX2X( ' ' ) I ) ` ~ W %.eXeXrX;Xj + # f & k k k & & f =XwXwXwX%.I W ` ) I ) ' ` / 2XwXwXwXwXwXwXwXwXwXwXwXwX",
"wXwXwXwXwXwXwXwXwXwXwX7X$.` ` ` ^ I I W } :XwXwXwXwX+X+ & l * k l l G L k 5XwXwXwX:X/ U U W ^ ` ` _ $.7XwXwXwXwXwXwXwXrXwXwXwXwX",
"wXwXwXwXwXrXwXwXwXwXwXwX,X$.( _ _ _ / $.<X0XwX0X8X5XM m G.[.9X9X].oXsXsXG.F.5X8X0XqX,X$.( ` ` _ ( $.,XwXwXwXwXwXwXwXwXwXwXwXwXwX",
"wXwXwXwXwXwXwXwXwXwXwXwXqX7X,X<X<X<X,X4X6X^.Y.P.L.J.G.sX9X`.{.lXdXkXfXsXgXdXT.L.P.P./.4X-X<XiX<X,XqXeXwXwXwXwXwXwXwXwXwXwXwXwXwX",
"wXwXwXwXwXwXwXwXwXwXwXwXwXwX8X8X(./.P.M.M.n.c.x.j.J.sXzXxXgX[.{.oXsXsXdXgXxXdXJ.f.x.f.x.c.J./.(.8X8XwXwXwXwXwXwXwXwXwXwXwXwXwXwX",
"wXwXwXwXwXwXwXwXwXwXwX8X4X^.P.c.x.x.v.L.).!.M.n.J.aXxXxXhXlXgX{.Z.S.[.{.dXxXcXdXv.x.x.x.x.x.f.x.c.P.(.8X8XeXwXwXwXwXwXwXwXwXwXwX",
"wXwXwXwXwXwXwXwXwX8X(./.n.x.x.x.x.n.M.)._.).W.m.[.xXbXxXsX[.D.m g h h ].9XgXcXcX(.c.b.b.x.x.x.x.x.x.x.c./.4XwXqXwXwXwXwXwXwXwXwX",
"wXwXwXwXwXwX7X7X(.P.x.x.x.x.x.x.n.n.L.)._.).!.Q.dXvXnXvXlXsXG.g @ @ c ].dXjXcXnXhX).n.n.n.n.b.b.x.x.x.x.f.f.P.4XwXwXwXwXwXwXwXwX",
"wXwXwXwXwXrX4X/.c.x.x.x.x.x.R.E.M.E.!.).!.).!.Y.kXnXnXvXgXaXU.V.t.@ 1 Z.[.gXbXcXcXaXW.R.R.R.n.R.n.n.x.x.x.x.f.f./.8XwXwXwXwXwXwX",
"wXwXwXwX8X(.J.x.x.n.x.x.n.E.E.E.E.E.E.E.E.n.v.XXbXbXnXzXdXoXU.u.y.t.2 V.[.oXzXbXnXgXJ.W.W.W.W.R.R.R.n.n.n.x.x.x.f.v.4XwXwXwXwXwX",
"wXrXwX8X^.c.x.x.x.x.E.E.E.E.E.E.R.n.f.s.s.s.a.oXbXnXnXzXoXU.a.d.s.s.a.y S.].oXzXbXzXT.u.d.h.m.R.E.E.E.R.n.n.x.x.x.x.c.(.wXwXwXwX",
"wXwX8X^.c.x.x.c.n.R.R.E.E.R.x.s.s.u.u.u.s.g.H.jXbXnXbXfX].H.d.d.g.d.g.p.y Z.].zXbXbXaXs.d.s.s.s.f.b.E.E.E.R.n.b.x.x.x.f.(.wXwXwX",
"wXwX(.v.x.c.c.n.n.R.E.b.f.s.u.s.s.u.s.s.g.j.U.zXnXbXzX{.H.k.k.k.l.j.h.j.H.z n [.fXfXoXj.g.s.s.s.s.s.s.h.R.E.R.n.x.x.x.x.c.4XwXwX",
"wX8XL.x.x.n.m.M.E.n.h.u.u.u.s.s.s.g.g.g.H.V.A.zXbXbXfXH.e.8.7.7.7.6.7.7.w.2 g n Z.Z.C.k.g.g.g.s.g.s.s.s.d.h.R.E.n.n.x.x.x.P.7XwX",
"wX(.x.x.n.M.M.M.b.s.u.u.d.d.d.d.g.g.g.z.k.v z [.zXfXU.0.1.1.,.2.,.,.,.,.u 1 a h g g 0.7.r.u.g.k.k.g.g.d.s.s.d.b.M.n.n.x.x.c.4XwX",
"wXP.x.b.m.M.M.x.s.u.s.s.d.d.g.k.k.g.y.8.0.a p d c m v 2.2.2.2.3.2.3.2.2.V.x a @ 1 2 3.,.1.2.5.9.s.k.k.k.d.d.s.u.h.M.n.n.n.x./.0X",
"rXJ.x.n.M.M.b.d.g.k.g.g.g.h.j.g.r.5.,.,.q.a d f f i 0.2.4.5.7.8.7.4.3.4.v S.I.z 1 q.5.2.1.<.<.<.1.6.s.k.l.k.d.d.u.h.M.M.n.c.P.0X",
"wXL.n.m.R.h.g.z.K.K.k.k.k.k.r.6.<.,.,.<.v 2 p d d y 7.7.6.8.8.e.8.8.6.q.b Z.A.S.I.q.6.5.3.2.2.2.1.1.<.7.i.l.j.k.d.d.l.M.m.c.P.0X",
"wXP.n.M.b.s.g.K.Q.K.z.l.i.6.,.,.,.<.2.0.2 1 p 1 y w.8.9.9.9.e.r.9.9.8.t.n '.'.I.H.r.8.7.6.5.4.4.5.2.<.<.2.y.z.l.k.d.s.m.m.c./.wX",
"wX(.n.n.i.s.g.l.K.K.z.p.5.<.,.2.2.3.4.w.z @ 1 1 u 6.5.1.1.w w 0 7 w 8 m G.U.Z.b q.e.r.9.7.8.w.e.e.6.3.<.,.,.9.z.l.k.d.f.n.n.6XwX",
"wX8XL.n.u.u.g.l.z.z.g.5.<.2.2.2.5.6.7.0.b @ @ , 8 3 - ; = = = - = : y n Z.].].s > 7 7 1.5.8.y.p.y.e.7.3.2.2.2.9.z.z.g.d.n.P.8XwX",
"wXwX6Xb.u.u.g.l.K.z.6.<.<.4.3.5.6.e.e.0.I.p d > ; - ; ; ; ; 3 ; ; 8 z D.].m n e : - - = ; 7 r w.e.e.8.5.3.2.<.<.y.z.k.i.L.6XwXwX",
"wXwXwX/.u.s.k.z.z.r.<.<.2.2.5.6.w.4.u N.}.'.A.> ; ; 4 4 3 4 6 5 6 e x b Z.S.b 7 3 ; - - - - : 4 w 4.7.8.5.3.2.<.5.k.l.K.(.wXwXwX",
"wXwXwXwXY.g.l.W.z.w.<.<.3.6.6.3.w e q.I. X XN.> 3 4 6 6 6 9 9 9 9 t x ].].x y 6 4 4 3 : ; - - = = : w 6.6.5.2.2.<.p.v.Y.8XwXwXwX",
"wXwXwXwXwX(.K.z.z.3.<.3.5.6.1.3 4 8 y .X X}.N.4 6 6 0 0 9 9 q 9 4.I.'.S.S.Z.0.q q 0 5 5 3 ; - - = = - 7 5.5.3.2.,.H.6XwXwXwXwXwX",
"wXwXwXwXwXwX6XY.K.2.2.5.8.q 3 ; : 8 t }. X}.t 6 9 9 0 6 ; > = , '..X X X.Xb , 4 6 q q 0 5 3 3 - = = = = 4 3.6.w.C.*XwXwXwXwXwXwX",
"wXwXwXwXwXwXrX8X6XV.5.5.<.3 = = - : 8 B.}.B.0 q w > = o . . . O c fX X X|.N.X . . = ; 0 0 6 3 3 - = = = - r C.`.8X8XwXwXwXwXwXwX",
"wXwXwXwXwXwXwXwX8X8X[.V.r ; = = - - 4 8 t t q 4 o . . . . . . . O M OX X|.N.. . . . . o 4 0 6 4 ; - : e v @X8XwXwXwXwXwXwXwXwXwX",
"wXwXwXwXwXwXwXwX8XwXwX8X*XM y 8 - 3 3 6 0 w 4 o . . . . . . . . . O [. X XB.. . . . . . o 3 0 0 8 v D.*XwXwXwXwXwXwXwXwXwXwXwXwX",
"rXwXwXwXwXwXwXwXwXwXwXwXwXwX7X*XD.v u w 9 9 = . . . . . . . . . . . @ oX X}., X . . . X O 2 C.G.4X7X0XwXwXwXwXwXwXwXwXwXwXwXwXwX",
"wXwXwXwXwXwXwXwXwXwXwXwXwXwXwXwXwX0X5X*X^.D.z 2 < O O X X . . . X X O % {.OXx 1 2 c M ~.*X;X0XwXeXeXwXwXwXwXwXwXwXwXwXwXwXwXwXwX",
"wXwXwXwXwXwXwXwXwXwXwXwXwXwXwXwXwXwXwXwX2X0X0XwX;X-X=X#X&X`.O.`.~.`.`.`.F.`.=X;X8X0XwXwXwXwXwXwXwXwXwXwXwXwXwXwXwXwXwXwXwXwXwXwX",
"wXwXwXwXwXwXwXwXwXwXwXwXwXwXwXwXeXwXwXwXwXwXwXwXwXwXwXwXwXwXwXeXeX2XeXeXtXwXwXwXwXwXwXwXwXwXwXwXwXwXwXwXwXwXwXwXwXwXwXwXwXwXwXwX"
};
