/* XPM */
static char *AGU1721869112[] = {
/* columns rows colors chars-per-pixel */
"64 64 228 2 ",
"   c #262527",
".  c #252429",
"X  c #2B292C",
"o  c #322E2D",
"O  c #3B312E",
"+  c #343334",
"@  c #393536",
"#  c #3D3B3C",
"$  c #46322A",
"%  c #443C3A",
"&  c #5D3733",
"*  c #6A382A",
"=  c #4F423D",
"-  c #6E4B3A",
";  c #7B4334",
":  c #413F40",
">  c #444344",
",  c #4B4949",
"<  c #544A4A",
"1  c #524E4F",
"2  c #514F50",
"3  c #545253",
"4  c #595555",
"5  c #5B5759",
"6  c #5C5B5C",
"7  c #705A4F",
"8  c #625B5A",
"9  c #72605F",
"0  c #525E6D",
"q  c #615F61",
"w  c #656465",
"e  c #6B6667",
"r  c #6B6A6B",
"t  c #716D6D",
"y  c #6E6E71",
"u  c #636C78",
"i  c #716F70",
"p  c #6F7072",
"a  c #757375",
"s  c #7A7576",
"d  c #777678",
"f  c #787779",
"g  c #7B7A7C",
"h  c #8D3B1F",
"j  c #9A4728",
"k  c #925239",
"l  c #B4572D",
"z  c #B05530",
"x  c #B86638",
"c  c #CE5F2A",
"v  c #D36A2E",
"b  c #C76834",
"n  c #DB7A38",
"m  c #E77B34",
"M  c #865846",
"N  c #A05D4A",
"B  c #95694D",
"V  c #8B6851",
"C  c #89655B",
"Z  c #986856",
"A  c #A96648",
"S  c #B2744B",
"D  c #A57659",
"F  c #8F7167",
"G  c #877575",
"H  c #827C7D",
"J  c #957B76",
"K  c #A77E6D",
"L  c #CD7D52",
"P  c #DE8037",
"I  c #EE893B",
"U  c #F08A3B",
"Y  c #F3913F",
"T  c #9F897E",
"R  c #B88569",
"E  c #B38F7B",
"W  c #D88946",
"Q  c #CB8855",
"!  c #E28D44",
"~  c #F59742",
"^  c #CA8864",
"/  c #C89470",
"(  c #4F6887",
")  c #577497",
"_  c #687688",
"`  c #7E7E81",
"'  c #657C99",
"]  c #567CA6",
"[  c #607EA2",
"{  c #827F82",
"}  c #6A819C",
"|  c #75879D",
" . c #5982B1",
".. c #6C8BAB",
"X. c #788FA6",
"o. c #7D93AA",
"O. c #668AB3",
"+. c #6F93B4",
"@. c #769ABB",
"#. c #4D87C3",
"$. c #558DC7",
"%. c #5A92C9",
"&. c #5C9BD7",
"*. c #6E9AC7",
"=. c #779EC4",
"-. c #5FA0DB",
";. c #6EA0CE",
":. c #7CA5C6",
">. c #65A2D9",
",. c #66AAE6",
"<. c #838284",
"1. c #868689",
"2. c #878789",
"3. c #89878A",
"4. c #8B8B8D",
"5. c #968987",
"6. c #92908F",
"7. c #8E8D91",
"8. c #838B98",
"9. c #928F92",
"0. c #8A919E",
"q. c #939294",
"w. c #999496",
"e. c #95959A",
"r. c #99979A",
"t. c #9B9A9D",
"y. c #A78E83",
"u. c #AC9686",
"i. c #B6998A",
"p. c #A49A99",
"a. c #ADA19A",
"s. c #B4A897",
"d. c #848EA0",
"f. c #8296AB",
"g. c #8697A8",
"h. c #949BA6",
"j. c #9D9DA2",
"k. c #869DB3",
"l. c #A09FA3",
"z. c #9CA0A9",
"x. c #9DA2AC",
"c. c #8DA4B8",
"v. c #8CA4BA",
"b. c #94A3B3",
"n. c #9CA6B3",
"m. c #9AA9B6",
"M. c #96AABD",
"N. c #A3A2A5",
"B. c #A9A5A7",
"V. c #A7A6AB",
"C. c #A8A7AA",
"Z. c #AAAAAC",
"A. c #B1ADAC",
"S. c #BBB4AD",
"D. c #A3A9B3",
"F. c #AEADB1",
"G. c #A1AFBC",
"H. c #B1AFB3",
"J. c #A8B1BB",
"K. c #B2B2B3",
"L. c #BCB9B6",
"P. c #B5B5B9",
"I. c #B9B7BA",
"U. c #BBBABC",
"Y. c #CBA092",
"T. c #C1BEBD",
"R. c #E0C6BB",
"E. c #8DABC4",
"W. c #85ABC9",
"Q. c #94ADC3",
"!. c #8DB1CE",
"~. c #9CB3C6",
"^. c #94B3CB",
"/. c #84AED0",
"(. c #86B2D3",
"). c #8AB3D3",
"_. c #8CB7D9",
"`. c #94B7D2",
"'. c #9BBAD2",
"]. c #93BCDC",
"[. c #9ABEDA",
"{. c #A3B8CB",
"}. c #B6BDC6",
"|. c #BDBEC1",
" X c #A4BCD1",
".X c #C1BFC1",
"XX c #9AC1DE",
"oX c #A6C2D9",
"OX c #A4C2DB",
"+X c #9BC4E3",
"@X c #9BC5E6",
"#X c #A3C6E1",
"$X c #A4C9E5",
"%X c #A9CBE4",
"&X c #A4CCEA",
"*X c #AACEEA",
"=X c #A7D0ED",
"-X c #ADD1EC",
";X c #B1D4EE",
":X c #B3D6F0",
">X c #C3C3C4",
",X c #C6C6C9",
"<X c #C8C6C8",
"1X c #C8C7C9",
"2X c #CBCBCC",
"3X c #D0CECF",
"4X c #C7CBD1",
"5X c #CFCED1",
"6X c #D0CED1",
"7X c #CFD0D1",
"8X c #D4D3D4",
"9X c #D9D5D6",
"0X c #D7D7D8",
"qX c #DBDBDC",
"wX c #E0D5D3",
"eX c #DEDFE1",
"rX c #E1DFE1",
"tX c #E3E3E4",
"yX c #E7E7E6",
"uX c #E7E7E8",
"iX c #EBECEC",
"pX c #EFF0EF",
"aX c #EEEFF1",
"sX c #EFF0F0",
"dX c #F3F3F3",
"fX c #F7F7F7",
"gX c #F7F9F8",
"hX c #FAFBFB",
/* pixels */
"V.V.V.V.V.V.V.V.V.V.V.V.V.V.V.V.V.V.V.C.V.V.V.V.V.V.V.V.V.V.V.C.V.V.V.V.V.V.V.V.V.V.V.C.V.V.V.V.V.V.V.V.V.V.V.Z.V.V.V.V.V.V.V.V.",
"V.V.C.V.V.V.V.V.V.V.F.V.V.V.V.V.V.V.V.V.V.V.V.C.V.C.V.V.V.V.V.V.V.V.V.V.V.V.V.V.C.V.V.V.V.V.V.V.C.V.C.V.V.V.V.V.V.V.Z.V.V.V.V.V.",
"V.V.V.V.C.V.V.V.V.V.V.V.V.V.C.V.V.V.V.V.V.V.V.V.V.V.C.V.V.V.V.V.V.V.V.Z.V.V.V.V.V.V.V.V.V.C.V.V.V.C.V.V.V.V.V.V.V.V.V.V.V.V.V.V.",
"V.V.C.V.V.V.V.V.V.V.V.V.V.V.V.V.V.V.V.V.C.V.V.V.Z.V.V.V.V.V.V.V.C.V.V.V.V.V.V.V.V.V.C.V.D.C.V.C.V.V.V.V.V.V.V.Z.V.V.V.V.V.V.V.V.",
"V.C.C.V.V.V.V.V.V.V.V.V.V.V.V.V.Z.V.V.V.V.V.V.V.V.V.Z.C.V.Z.V.V.V.V.V.V.V.V.V.V.V.V.V.V.V.V.C.C.V.V.C.V.V.V.V.V.V.V.V.V.V.V.V.V.",
"V.V.V.V.V.V.V.V.V.V.V.V.V.l.V.l.l.B.V.V.V.V.V.C.V.V.l.l.V.V.V.V.V.V.V.V.Z.V.V.V.V.C.V.C.C.V.C.C.V.V.C.C.V.V.Z.Z.V.V.V.V.Z.V.V.V.",
"V.V.C.V.C.V.V.V.l.0.4.{ { { g s { w.r.r.r.t.j.j.j.j.r.j.l.l.l.l.V.l.V.V.V.V.V.V.V.V.C.C.V.N.N.N.V.l.C.l.l.l.V.l.B.B.Z.V.V.V.V.V.",
"V.V.V.V.V.V.V.e.{ q 1 1 1 : % & & 4 r r y a a d d d d ` { { 8.4.9.e.l.l.V.V.V.V.V.V.V.a.i.E E y.y.u.u.u.u.y.y.y.{ p.l.V.V.V.V.V.",
"V.V.C.V.C.V.e.r : : : 3 q 4 & * * < 8 1 < 1 3 5 7 0 w e t t t s ` { 9.j.l.P.H.V.V.V.V.a./ ^ Q S x L ^ / S S K S ^ Y.l.V.V.V.V.V.",
"V.V.V.V.V.l.` q 3 4 4 d 3.{ F D C e s t q 1 8 r a i e a s t w t ` { 4.9.l.A.P.H.C.V.C.l.p.i.R C D Q R R D F Z 5.i.a.V.V.V.V.V.Z.",
"V.C.V.V.V.j.g g f g a q.V.p.{ J 5.w.z.4.s e 3.r.l.w.6.Z.N.w.g 3.p.B.F.H.H.A.l.l.V.Z.C.P.T.}.r.j.M.G.D.G.{.m.8.p..X}.l.V.V.V.V.V.",
"V.V.V.C.V.e.3.9.q.9.{ Z..Xp.N N K S.A.w.<.s l.C.L.N.N.T.K.A.6.B.K..X.X6XrXrX.Xj.l.l.l.}.0X4XD. X*X$X'. X#X%X~.V.6X}.V.V.V.V.V.V.",
"V.C.V.V.V.j.r.N.l.{ w..X6Xa.A N R <XT.t.4.<.C.A.L.N.C.>X.XA.N.P..X.X6XrXaXfX9XC.V.V.V.}..X}.{.%X-X%XoXoX%X-X Xn.H.}.V.V.V.V.V.Z.",
"V.V.V.V.V.j.N.V.w.{ w..X6XY.L L / wX<XA.l.l.L.>X>XK.>X0X0X.XA.L..X2X9XyXfXhXqX.X.XF.V.V.}.{.%X;X-XoX^.oX%X-X-X{.z.z.V.V.V.V.V.V.",
"V.V.V.V.V.C.I.I.5.5.B..XwXwXR.R.9XtX0X>XK.>XyXiXpXtXyXiXyX8XL.U..X1X9XyXfXhX9X8X0XF.V.l.Q. X;X:X%XXX^.'.#X-X-X%X^.h.z.B.V.V.V.V.",
"V.V.V.V.C.H.2XT.u.i.T..XrXrXrXrXrXeX0X2X2X>X7X9X0XqX0X0X8X<X.XA.I.I.T.1XqXiX3XqXqXF.V.Q. X;X:X:X;X+Xo.v.OX*X*X&XOXQ.V.V.V.V.V.V.",
"V.V.V.V.V.F.|.T.s.s.S.9XyXtXtXrXrXrX9X9X0X8X8X8X9X9X8X0X9X8X8X3X6X0X0X9X8X6X.XrX0XZ.C.{.*X;X;X;X%X^.| k.[.%X*X*XOX'.z.V.V.V.V.V.",
"V.V.V.V.V.V.C.Z.S.T.2XyXiXiXaXiXiX9XH.>XrXyXtXqXeX8X.X8XtXyXeX7X6XrXiXiXrXrX6XtX5XA.D. X-X;X;X-XoX~.h.c.[.*X-X*XOX`.m.V.V.V.V.V.",
"V.V.V.V.V.C.V.C.B.l.B.H.T.>X2X6X6XT.r.N.>X3X|.j.P.K.6.A.qXtX1XN.B..XrXrXrXrX0XU.|.V.D. X*X:X:X;X$X^.b.c.XX=X-X-X&X'.m.V.V.V.V.V.",
"V.V.V.V.C.C.l.B.C.l.w.r.p.N.V.C.C.B.l.a.B.V.e.{ q.N.N.Z.1X8XU.r.r.B.8X0X8X6X9X.XH.l.C. X-X:X:X-X%X`.b.M.#X-X-X=X$X'.m.B.V.V.V.V.",
"C.V.V.C.V.V.V.j.t.t.w.w.4.<.{ ` H H { 1.4.9.3.<.T | 6.B.P.>XU.Z.j.C..X1X.X|..Xl.l.V.D. X*X;X:X;X$X`.b.v.XX&X=X-X$X`.b.V.V.C.V.V.",
"V.V.V.V.V.V.V.l.j.j.N.N.p.9.q.7.7.9.7.7.q.q.9.q.4.4.w.Z.P.P.P.K.H.H.I.I.|.H.V.V.l.Z.D. X*X;X;X;XOX^.h.c.+X=X=X*X+X^.b.V.V.V.V.V.",
"V.V.V.V.V.V.V.V.V.N.V.V.V.N.N.N.N.l.j.j.l.j.j.j.j.z.V.C.Z.Z.Z.V.V.C.j.j.V.Z.l.r.h.l.V.{.&X-X;X-XXXM.h.c.XX&X-X=XXX^.b.B.V.V.V.V.",
"V.V.V.V.C.V.V.V.V.V.V.V.V.V.N.j.7.7.7.q.j.j.q.q.t.V.V.C.C.C.C.Z.V.h._ u { l.8.( ( d.x.~.#X*X*X&XXXc.b.b.`.$X&X$XXXv.b.V.V.V.V.C.",
"C.V.V.V.V.V.V.V.V.V.V.V.V.V.r.` r u y p p g g d d q.x.Z.C.V.V.z.V.o.) ( _ h.} ) ) ' p.m.`.XX+X]./.o.j.b.!.+X+X+XW.k.z.B.V.V.V.V.",
"V.V.V.V.V.Z.V.V.V.V.Z.V.V.z.g 2 : # # # # # # # , p t.x.V.V.V.V.D.=.>.%.] 8.@.&.$.] h.m.W.(._./.@.X.j.n.E.W.).(.@.o.z.B.V.C.V.V.",
"V.V.V.V.V.V.V.V.V.V.V.V.V.j.w @ o + + + + + + + @ 6 6.N.V.V.Z.x.j.*.,.-.] 8.:.,.&.' j.n.^.]._./.:.f.z.n.`.]._.(.@.g.z.C.C.V.C.V.",
"V.V.V.V.V.V.V.V.V.V.V.V.j.3.` 5 > # # # # # # # 3 a 1.z.C.C.V.C.j.O.-.&.[ d.+.&.$.) j.D.[.+X+X].W.v.V.D.'.@X@X+X).k.N.C.V.V.V.V.",
"V.V.V.V.V.V.V.V.V.V.V.Z.V.4.1.r.q.| a p p a g T 6.2.g t.C.C.C.C.D.] $.#.' e...$.#.) r.m.XX@X@X@X!.k.V.V.'.$X+X+X].v.z.V.V.V.V.Z.",
"V.V.V.V.V.V.V.V.V.Z.P.1X8XP.{ 7.N.a.Z.Z.Z.Z.B.N.t.2.t.,X|.F.C.x.V.*.&.$.' j.=.>.%. .e.G.OX&X$X+X!.f.z.V.'.&X&X@XXXM.x.V.V.V.V.V.",
"V.V.V.Z.V.V.V.V.Z.}.5XrXdXrXC.w.l.N.t.B.Z.Z.Z.B.q.t.2XiXuX2XK.Z.x.*.,.$.' j.k.,.,.O.0.~.$X=X=X$XW.g.z.V.~.@X=X@XXXv.x.V.V.V.V.V.",
"V.V.V.V.V.V.Z.V.P.8XiXaXfXaX3X.XT.L.K.L.L.U.>X>XL.T.yXdXuXiX0XP.x.;.,.$.' e.=.,.>. .0.~.+X@X@X].W.X.z.V.~.+X@X@X_.k.z.V.V.V.V.V.",
"V.V.V.V.C.C.C.C.oXyXpXpXiXeX2X2X8X0X0XqXtXyXpXpX0X2XqXyXiXpXiXoXx.*.#.] ) r.X.%.$.] 8.Q.XXXX]._.@.X.l.l.M.(._._.:.@.j.z.C.V.V.V.",
"C.V.V.C.C.C.C..XyXpXsXpX0X>XK.K.K.>XqXqXeXyXyXyX2XK.T.8XiXpXpX7XV.' ( 0 _ j.' ) ( _ h.m._.XXXX).@.f.l.D.v.(._._.:.o.h.B.C.V.V.C.",
"V.V.V.V.C.C.Z.0XdXgXpXyX2XA.B.A.K.2X3X>X>X8X0X0XU.B.N.<XyXpXpXyX>Xe._ u { l.j._ _ 2.N.b.W.)._.W.@.g.V.D.!._._.:.:.o.z.B.V.C.V.V.",
"V.V.V.V.V.C.L.yXgXgXiX0XU.N.Z.T.2XeX3XK.L.rXpXpX2XK.N.L.wXpXgXdX5XZ.r.r.z.V.V.l.t.z.V.n.Q.W.).W.X.X.V.l.E.(.:.=...X.z.C.V.V.V.V.",
"V.V.V.V.C.C.P.wXpXsXyX<Xa.q.Z.,X0XpX8XT.>XiXgXdX8XK.6.N.2XuXdXpX6XF.V.V.V.V.V.V.V.V.V.V.b.W.:.+.' 8.N.V.b.W.:.@.} 8.V.V.V.C.V.V.",
"C.V.V.V.C.C.oXyXiXwX7XA.| <.B.,X0XpXyXyXiXdXgXpX2XA.<.<.A.0XuXpX0XH.V.V.V.V.V.V.V.V.V.V.V.b.c.f.8.r.V.V.C.v.k.k.g.z.V.V.V.V.V.V.",
"V.D.C.V.Z.Z.>XtXpXyX>X6.w g x.2XqXiXdXdXgXgXdXiX1XZ.g 6 6.2XyXgXaX.XV.V.V.V.V.F.V.V.V.V.B.V.V.N.V.V.V.V.V.V.V.x.V.V.V.V.V.V.V.V.",
"V.V.V.V.N.Z.,XtXiXyXT.2.6 g B.2XqXdXhXhXhXgXgXpX2XZ.g 4 ` >XyXsXuX.XV.V.V.V.V.V.V.V.N.t.w.5.5.5.5.t.j.V.V.V.V.V.V.V.V.C.V.V.V.C.",
"V.V.V.V.V.F.,XtXyXeXL.4.| T Z.0XtXfXhXhXhXhXhXiX2XZ.g 6 d U.qXyXrXH.V.V.V.V.V.V.V.p.{ K D A A A A Z F 9.V.C.C.V.V.V.V.V.V.C.V.V.",
"V.V.C.V.V.F.7XpXdXeXK.q.q.4.Z.0XyXfXgXfXhXhXhXiX2XK.` p ` L.tXpXrX|.V.V.V.V.V.V.p.{ N b b I n n n b z N 5.l.V.C.V.V.C.V.V.V.V.V.",
"V.V.C.V.V.P.tXhXgXiXJ.q.t.6.N.qXiXfXfXgXgXgXgXiX7XZ.T | | >XpXgXhX.XF.V.V.V.V.B.{ N b n U U ~ U U m v c k { V.C.V.V.V.V.V.V.V.V.",
"V.V.V.V.V.P.uXhXgXyXA.4.z.r.N.0XyXdXgXgXgXgXgXiX2XN.6.q.6.L.pXgXhX5XV.V.V.V.j.{ N c n ~ ~ ~ ~ ~ Y U m c l M 5.N.V.V.V.V.V.V.V.V.",
"V.V.V.V.V.F.eXgXdXeXC.4.t.t.s.2XqXpXdXdXdXdXdXtX>Xt.6.h.6.Z.qXpXuX|.V.V.V.V.` Z z v n I W ! W W W n b c l h V t.V.V.V.V.V.V.V.V.",
"V.V.V.V.V.F.7XuXiX8XC.6.w.w.C.<X8XtXpXpXpXiXiXeX>Xt.6.e.q.C.7XtXrX.XV.V.V.l.G M z b S A B B V M - k k j j h ; 3.V.V.V.V.V.V.V.V.",
"V.V.V.V.V.K.8XuXiXqXS.w.6.t.A.oX2X0XeXtXtXtXeX7X>XC.T 6.e.F.0XiXaX8XZ.V.V.e.e k k M 7 5 > % % O O o O $ * * * e e.z.V.V.V.V.V.V.",
"V.V.V.V.V.K.qXdXpXeXL.5.| t.L.U.U.>X2X7X7X2X>XK.P.F.q.| e.K.qXpXiX1XZ.V.j.` < * 7 G 9.3 X       . .   o X $ $ 2 w 4.V.V.V.V.V.V.",
"V.C.C.V.V.H.qXdXdXyX|.1.y e.K.F.4.q.J.L.L.C.<.<.S.K.q.| j.L.eXpXiX7XZ.N.q.f < = 4 Z.2Xu . . . . . .   : , o O < w 1.x.V.V.C.C.C.",
"V.D.V.V.V.H.0XdXdXtX|.<.w <.j.N.T a t.K.K.t.f r.L.N.<.<.C.U.eXpXpX8XA.z.<.a q , 4 7.7.2 . . . . . . . 6 a @ $ 3 r <.j.C.V.Z.V.V.",
"C.V.C.V.C.V.6XdXdXeXI.9.a 1.V.A.z.l.2X9X2X>X6.t.U.L.t.T N.U.tXdXpX<XC.z.<.r w = , > + X . . . . . . . 2 e @ @ 4 w g l.Z.V.V.V.C.",
"V.V.V.V.C.C.4XiXdXqXP.j.1.x.>XU.t.4.T.9X>XK.` 3.U.J.q.<.N.S.wXpXpXoXz.h.T w 8 % > @ . . . . . . . . . + + . o 2 4 f l.N.C.V.V.V.",
"V.V.V.V.V.C.U.9XqX>XN.N.4.7.V.z.9.| p.A.Z.t.1.4.N.e.` | t.t.oXyX9XK.Z.l.H 4 4 % > @ . . . . . . . . . X . . @ 6 w ` j.V.V.V.V.C.",
"V.V.V.V.V.V.}.5X0XU.t.N.j.r.t.t.t.t.t.l.N.z.j.z.N.t.t.t.t.q.s.<X3XA.B.N.6.| t 5 > @ . . . . . . . . . . X + r 7.e.j.C.V.V.V.V.V.",
"V.V.V.C.V.V.,XaXiXqXZ.t.V.V.V.B.V.V.C.V.B.V.C.V.Z.C.C.C.N.C.oXtXyXoXB.B.V.N.j.9.u : . . . . . . . . . X # 6 q.C.V.V.V.V.V.V.V.V.",
"C.V.V.V.V.F.5XaXiXqXP.j.V.V.V.V.V.V.V.V.V.V.V.V.C.C.z.C.N.A.wXpXdX8XC.C.V.V.V.C.e.r > + . . . . . X + > q 8.j.Z.V.V.C.V.V.V.C.V.",
"V.V.V.V.V.C.2XuX0XV.Z.K.C.C.C.V.V.V.V.V.V.V.V.V.C.V.C.Z.U.Z.t.<XyX3XC.V.V.V.V.V.V.e.d 5 > # @ @ # > 3 r 7.z.V.V.V.V.V.C.V.V.V.C.",
"V.V.V.V.V.V.|.qX>Xj.C.U.D.C.V.V.V.V.V.V.C.F.V.V.V.V.V.Z.P.C.q.K.9XT.B.C.V.V.V.V.V.V.N.7.g y e r y a 1.j.V.V.V.V.V.C.V.V.V.V.V.V.",
"V.V.V.V.V.V.V.U.V.j.C.V.V.V.V.C.V.V.V.Z.V.V.V.C.V.V.C.B.z.t.e.e.A.B.N.C.V.C.V.V.V.V.V.C.N.j.j.j.j.N.N.V.V.V.C.V.V.V.V.V.V.V.V.V.",
"V.V.V.V.V.V.j.t.e.q.z.V.V.V.V.V.V.V.V.V.C.V.V.V.V.V.C.C.B.z.t.r.r.N.B.C.V.V.V.V.V.V.V.V.V.V.V.V.V.V.V.V.V.V.V.V.V.V.C.V.V.C.V.V.",
"V.V.V.V.V.V.V.N.z.N.V.V.V.V.V.C.V.V.V.V.V.V.V.V.C.V.V.V.V.V.V.V.V.V.V.V.V.V.V.V.V.V.V.V.V.V.V.C.V.V.V.V.V.V.C.V.V.V.V.C.V.V.V.V.",
"V.C.V.V.C.V.V.V.V.V.V.V.V.V.V.V.V.V.V.V.V.V.V.V.V.V.V.V.V.V.V.V.V.V.V.V.V.V.V.V.V.V.V.V.C.V.V.V.V.V.V.V.V.V.V.V.C.V.V.V.V.C.V.V.",
"V.V.V.C.V.V.V.V.V.V.V.V.V.V.V.V.V.V.V.V.V.V.V.V.V.V.V.V.V.V.V.V.V.V.V.V.V.V.V.V.V.V.C.V.V.V.V.V.C.V.V.V.C.V.V.V.V.V.V.V.V.V.V.C.",
"C.V.V.V.V.V.C.C.V.V.C.V.V.V.C.V.V.V.V.V.V.V.V.V.V.V.V.V.V.V.V.V.V.V.V.V.V.V.V.V.V.V.V.V.V.V.V.V.V.V.V.V.V.V.V.C.V.V.V.V.D.V.V.V."
};
