/* XPM */
static char *_1721605361[] = {
/* columns rows colors chars-per-pixel */
"64 64 179 2 ",
"   c #02012A",
".  c #08072D",
"X  c #0C0B2E",
"o  c #030231",
"O  c #05033B",
"+  c #161534",
"@  c #24233E",
"#  c #080546",
"$  c #07054B",
"%  c #09054A",
"&  c #1C1B4A",
"*  c #070457",
"=  c #0A0754",
"-  c #070459",
";  c #09065C",
":  c #0D0A5D",
">  c #16145B",
",  c #37374E",
"<  c #39384E",
"1  c #3F3E52",
"2  c #0A0763",
"3  c #0D0964",
"4  c #0D096B",
"5  c #130E64",
"6  c #130B6C",
"7  c #161264",
"8  c #1D1964",
"9  c #1D1867",
"0  c #16126B",
"q  c #1A136C",
"w  c #0E0A74",
"e  c #0F0A79",
"r  c #120C73",
"t  c #1A0F73",
"y  c #130C7A",
"u  c #1B0F7A",
"i  c #1E1575",
"p  c #201D69",
"a  c #21137E",
"s  c #272469",
"d  c #363569",
"f  c #2A2372",
"g  c #2E2975",
"h  c #322C77",
"j  c #373577",
"k  c #444356",
"l  c #4A4A5B",
"z  c #504F60",
"x  c #565563",
"c  c #5C5B68",
"v  c #535379",
"b  c #64636F",
"n  c #6B6A74",
"m  c #71707A",
"M  c #210F86",
"N  c #220F88",
"B  c #221185",
"V  c #291A83",
"C  c #25128A",
"Z  c #29148E",
"A  c #271A8A",
"S  c #2B1B8D",
"D  c #2B1692",
"F  c #2E1993",
"G  c #311B96",
"H  c #341D9B",
"J  c #2C2087",
"K  c #31288A",
"L  c #2E2190",
"P  c #362394",
"I  c #342B95",
"U  c #3D2C95",
"Y  c #37219B",
"T  c #3A239D",
"R  c #3B2C9E",
"E  c #39339A",
"W  c #3E25A1",
"Q  c #3C2CA1",
"!  c #463F83",
"~  c #412A9E",
"^  c #4327A5",
"/  c #4429A5",
"(  c #4B27AE",
")  c #462AA8",
"_  c #4C29AE",
"`  c #4D36A7",
"'  c #4E2AB0",
"]  c #522DB3",
"[  c #5F28B2",
"{  c #4F30B0",
"}  c #5433B5",
"|  c #5A33B6",
" . c #573AB7",
".. c #5A3BB7",
"X. c #5735B8",
"o. c #5936B8",
"O. c #5C3BBA",
"+. c #622CB4",
"@. c #6532B5",
"#. c #6834B6",
"$. c #6739B2",
"%. c #693DB2",
"&. c #6534B8",
"*. c #6A35BA",
"=. c #623CBC",
"-. c #6D3ABD",
";. c #713DBE",
":. c #484588",
">. c #554E8C",
",. c #545385",
"<. c #4F4498",
"1. c #5D5796",
"2. c #645B9A",
"3. c #666587",
"4. c #7B7B84",
"5. c #7A7994",
"6. c #464CA4",
"7. c #4B4DAC",
"8. c #5C4AAA",
"9. c #525DAF",
"0. c #5C42BA",
"q. c #6247B6",
"w. c #6D45B3",
"e. c #6F4AB1",
"r. c #6242BC",
"t. c #714BB4",
"y. c #7342BD",
"u. c #744ABA",
"i. c #6353BF",
"p. c #7352B1",
"a. c #7758B1",
"s. c #7A5DB1",
"d. c #7854B8",
"f. c #5A70B3",
"g. c #7E65B1",
"h. c #7868B3",
"j. c #7E70B6",
"k. c #723EC0",
"l. c #6941C1",
"z. c #7443C2",
"x. c #7945C3",
"c. c #774AC4",
"v. c #794BC5",
"b. c #6F55C0",
"n. c #7553C2",
"m. c #7A53C6",
"M. c #7C5CC9",
"N. c #7D63C9",
"B. c #807F86",
"V. c #816DAF",
"C. c #8479A9",
"Z. c #826BB1",
"A. c #8772B2",
"S. c #8977B0",
"D. c #8C7BB1",
"F. c #907EB4",
"G. c #804FC6",
"H. c #8658C7",
"J. c #8859C7",
"K. c #8453C8",
"L. c #9E75D1",
"P. c #6683BD",
"I. c #89888F",
"U. c #838294",
"Y. c #8B8A93",
"T. c #95949D",
"R. c #9286AF",
"E. c #968CAE",
"W. c #988FAF",
"Q. c #9593A5",
"!. c #9C9BA4",
"~. c #9D96AE",
"^. c #9E99AC",
"/. c #8E81B0",
"(. c #9183B4",
"). c #938AB2",
"_. c #A19DAC",
"`. c #A2A1A7",
"'. c #A7A6AB",
/* pixels */
"'.'.'.'.'.'.'.'.'.'.'.'.'.'.'.'.'.'.'.'.'.'.'.'.'.'.'.'.'.'.'.'.'.'.'.'.'.'.'.'.'.'.'.'.'.'.'.'.'.'.'.'.'.'.'.'.'.'.'.'.'.'.'.'.",
"'.'.'.'.'.'.'.'.'.'.'.'.'.'.'.'.'.'.'.'.'.'.'.'.'.'.'.'.'.'.'.'.'.'.'.'.'.'.'.'.'.'.'.'.'.'.'.'.'.'.'.'.'.'.'.'.'.'.'.'.'.'.'.'.",
"'.'.'.'.'.'.'.'.'.'.'.'.'.'.'.'.'.'.'.'.'.'.'.'.'.'.'.'.'.'.'.'.'.'.'.'.'.'.'.'.'.'.'.'.'.'.'.'.'.'.'.'.'.'.'.'.'.'.'.'.'.'.'.'.",
"'.'.'.'.'.'.'.'.'.'.'.'.'.'.'.'.'.'.'.'.'.'.'.'.'.'.'.'.'.'.'.'.'.'.'.'.'.'.'.'.'.'.'.'.'.'.'.'.'.'.'.'.'.'.'.'.'.'.'.'.'.'.'.'.",
"'.'.'.'.'.'.'.'.'.'.'.'.'.'.'.'.'.'.'.'.'.'.'.'.'.'.'.'.'.'.'.'.'.'.'.'.'.'.'.'.'.'.'.'.'.'.'.'.'.'.'.'.'.'.'.'.'.'.'.'.'.'.'.'.",
"'.'.'.'.'.'.'.'.'.'.'.'.'.'.'.'.'.'.'.'.'.'.'.'.'.'.'.'.'.'.'.'.'.'.'.'.'.'.'.'.'.'.'.'.'.'.'.'.'.'.'.'.'.'.'.'.'.'.'.'.'.'.'.'.",
"'.'.'.'.'.'.'.'.'.'.'.'.'.'.'.'.'.'.'.'.'.'.'.'.'.'.'.'.'.'.'.'.'.'.'.'.'.'.'.'.'.'.'.'.'.'.'.'.'.'.'.'.'.'.'.'.'.'.'.'.'.'.'.'.",
"'.'.'.'.'.'.'.'.'.'.'.'.'.'.'.'.'.'.'.'.'.'.'.'.'.'.'.'.'.'.'.'.'.'.'.'.'.'.'.'.'.'.'.'.'.'.'.'.'.'.'.'.'.'.'.'.'.'.'.'.'.'.'.'.",
"'.'.'.'.'.'.'.'.'.'.'.'.'.'.'.'.'.'.'.'.'.'.'.'.'.'.'.'.'.'.'.'.'.'.'.'.'.'.'.'.'.'.'.'.'.'.'.'.'.'.'.'.'.'.'.'.'.'.'.'.'.'.'.'.",
"'.'.'.'.'.'.'.'.'.'.'.'.'.'.'.'.'.'.'.'.'.'.'.'.'.'.'.'.'.'.'.'.'.'.'.'.'.'.'.'.'.'.'.'.'.'.'.'.'.'.'.'.'.'.'.'.'.'.'.'.'.'.'.'.",
"'.'.'.'.'.'.'.'.'.'.'.'.'.'.'.'.'.'.'.'.'.'.'.'.'.'.'.'.'.'.'.'.'.'.'.'.'.'.'.'.'.'.'.'.'.'.'.'.'.'.'.'.'.'.'.'.'.'.'.'.'.'.'.'.",
"'.'.'.'.'.'.'.'.'.'.'.'.'.'.'.'.'.'.'.'.'.'.'.'.'.'.'.'.'.'.'.'.'.'.'.'.'.'.'.'.'.'.'.'.'.'.'.'.'.'.'.'.'.'.'.'.'.'.'.'.'.'.'.'.",
"'.'.'.'.'.'.'.'.'.'.'.'.'.'.'.'.'.'.'.'.'.'.'.'.'.'.'.'.'.'.'.'.'.'.'.'.'.'.'.'.'.'.'.'.'.'.'.'.'.'.'.'.'.'.'.'.'.'.'.'.'.'.'.'.",
"'.'.'.'.'.'.'.'.'.'.'.'.'.'.'.'.'.'.'.'.'.'.'.'.'.'.'.'.'.'.'.'.'.'.'.'.'.'.'.'.'.'.'.'.'.'.'.'.'.'.'.'.'.'.'.'.'.'.'.'.'.'.'.'.",
"'.'.'.'.'.'.'.'.'.'.'.'.'.'.'.'.'.'.'.'.'.'.'.'.'.'.'.'.'.'.'.'.'.'.'.'.'.'.'.'.'.'.'.'.'.'.'.'.'.'.'.'.'.'.'.'.'.'.'.'.'.'.'.'.",
"'.'.'.'.'.'.'.'.'.'.'.'.'.'.'.'.'.'.'.'.'.'.'.'.'.'.'.'.'.'.'.'.'.'.'.'.'.'.'.'.'.'.'.'.'.'.'.'.'.'.'.'.'.'.'.'.'.'.'.'.'.'.'.'.",
"'.'.'.'.'.'.'.'.'.'.'.'.'.'.'.'.'.'.'.'.'.'.'.'.'.'.'.'.'.'.'.'.'.'.'.'.'.'.'.'.'.'.'.'.'.'.'.'.'.'.'.'.'.'.'.'.'.'.'.'.'.'.'.'.",
"'.'.'.'.'.'.'.'.'.'.'.'.'.'.'.'.'.'.'.'.'.'.'.'.'.'.'.'.'.'.'.'.'.'.'.'.'.'.'.'.'.'.'.'.'.'.'.'.'.'.'.'.'.'.'.'.'.'.'.'.'.'.'.'.",
"'.'.'.'.'.'.'.'.'.'.'.'.'.'.'.'.'.'.'.'.'.'.'.'.'.'.'.'.'.'.'.'.'.'.'.'.'.'.'.'.'.'.'.'.'.'.'.'.'.'.'.'.'.'.'.'.'.'.'.'.'.'.'.'.",
"'.'.'.'.'.'.'.'.'.'.'.'.'.'.'.'.'.'.'.'.'.'.'.'.'.'.'.'.'.'.'.'.'.'.'.'.'.'.'.'.'.'.'.'.'.'.'.'.'.'.'.'.'.'.'.'.'.'.'.'.'.'.'.'.",
"'.'.'.'.'.'.'.'.'.'.'.'.'.'.'.'.'.'.'.'.'.'.'.'.'.'.'.'.'.'.'.'.'.'.'.'.'.'.'.'.'.'.'.'.'.'.'.'.'.'.'.'.'.'.'.'.'.'.'.'.'.'.'.'.",
"'.'.'.'.'.'.'.'.'.'.'.'.'.'.'.'.'.'.'.'.'.'.'.'.'.'.'.'.'.'.'.'.'.'.'.'.'.'.'.'.'.'.'.'.'.'.'.'.'.'.'.'.'.'.'.'.'.'.'.'.'.'.'.'.",
"'.'.'.'.'.'.'.'.'.'.'.'.'.'.'.'.'.'.'.'.'.'.'.'.'.'.'.'.'.'.'.'.'.'.'.'.'.'.'.'.'.'.'.'.'.'.'.'.'.'.'.'.'.'.'.'.'.'.'.'.'.'.'.'.",
"'.'.'.'.'.'.'.'.'.'.'.'.'.'.'.'.'.'.'.'.'.'.'.'.'.'.'.'.'.'.'.'.'.'.'.'.'.'.'.'.'.'.'.'.'.'.'.'.'.'.'.'.'.'.'.'.'.'.'.'.'.'.'.'.",
"'.'.'.'.'.'.'.'.'.'.'.'.'.'.'.'.'.'.'.'.'.'.'.'.'.'.'.'.'.'.'.'.'.'.'.'.'.'.'.'.'.'.'.'.'.'.'.'.'.'.'.'.'.'.'.'.'.'.'.'.'.'.'.'.",
"'.'.'.'.'.'.'.'.'.'.'.'.'.'.'.'.'.'.'.'.'.'.'.'.'.'.'.'.'.'.'.'.'.'.'.'.'.'.'.'.'.'.'.'.'.'.'.'.'.'.'.'.'.'.'.'.'.'.'.'.'.'.'.'.",
"'.'.'.'.'.'.'.'.'.'.'.'.'.'.'.'.'.'.'.'.'.'.'.'.'.'.'.'.'.'.'.'.'.'.'.'.'.'.'.'.'.'.'.'.'.'.'.'.'.'.'.'.'.'.'.'.'.'.'.'.'.'.'.'.",
"'.'.'.'.'.'.'.'.'.'.'.'.'.'.'.'.'.'.'.'.'.'.'.'.'.'.'.'.'.'.'.'.'.'.'.'.'.'.'.'.'.'.'.'.'.'.'.'.'.'.'.'.'.'.'.'.'.'.'.'.'.'.'.'.",
"'.'.'.'.'.'.'.'.'.'.'.'.'.'.'.'.'.'.'.'.'.'.'.'.'.'.'.'.'.'.'.'.'.'.'.'.'.'.'.'.'.'.'.'.'.'.'.'.'.'.'.'.'.'.'.'.'.'.'.'.'.'.'.'.",
"'.'.'.'.'.'.'.'.'.'.'.'.'.'.'.'.'.'.'.'.'.'.'.'.'.'.'.'.'.'.'.'.'.'.'.'.'.'.'.'.'.'.'.'.'.'.'.'.'.'.'.'.'.'.'.'.'.'.'.'.'.'.'.'.",
"'.'.'.'.'.'.'.'.'.'.'.'.'.'.'.'.'.'.'.'.'.'.'.'.'.'.'.'.'.'.'.'.'.'.'.'.'.'.'.'.'.'.'.'.'.'.'.'.'.'.'.'.'.'.'.'.'.'.'.'.'.'.'.'.",
"'.'.'.'.'.'.'.'.'.'.'.'.'.'.'.'.'.'.'.'.'.'.'.'.'.'.'.'._._.~.~._.'.'.'.'.'.'.'.'.'.'.'.'.'.'.'.'.'.'.'.'.'.'.'.'.'.'.'.'.'.'.'.",
"'.'.'.'.'.'.'.'.'.'.'.'.'.'.'.'.'.'.'._.~.R.A.Z.a.t.w.$.$.&.&.&.*.*.$.$.%.e.p.a.Z.D.W.~.'.'.'.'.'.'.'.'.'.'.'.'.'.'.'.'.'.'.'.'.",
"'.'.'.'.'.'.'.'.'.'.'.'.'.'._._.E.S.s.p.%.#.+.+.+.+.+.+.+.[ +.[ +.@.+.+.+.+.[ [ [ [ @.$.e.g.R.~.'.'.'.'.'.'.'.'.'.'.'.'.'.'.'.'.",
"'.'.'.'.'.'.'.'.'.'.'.'._.E.Z.w.$.+.#.y.y.y.*.*.+.*.&.&.#.&.k.+.*.#.*.*.#.@.@.+.+.+.+.+.[ +.[ $.p.D.~.'.'.'.'.'.'.'.'.'.'.'.'.'.",
"'.'.'.'.'.'.'.'.'.'.^.D.p.@.+.+.+.#.;.J.L.K.k.-.*.-.*.-.k.;.k.k.;.;.;.z.z.y.-.#.*.+.+.+.+.+.+.[ [ [ $.s.R.'.'.'.'.'.'.'.'.'.'.'.",
"'.'.'.'.'.'.'.'.~.A.e.[ +.+.+.+.+.*.y.J.L.H.x.z.k.k.z.k.k.z.x.z.x.z.c.m.N.M.n.y.=.*.*.*.*.*.+.*.+.+.+.+.+.p.R.'.'.'.'.'.'.'.'.'.",
"'.'.'.'.'.'._.D.e.+.+.+.+.+.*.k.;.;.G.K.K.K.v.z.x.x.x.x.x.x.z.z.z.x.c.M.N.N.c.z.k.k.k.k.-.-.-.*.@.@.+.+.+.[ +.a.~.'.'.'.'.'.'.'.",
"'.'.'.'.'._.Z.@.+.+.+.#.&.*.k.k.k.x.k.G.v.x.k.k.&.o.| | ] ] } ' ' ] } ..0.0.O.=.k.k.k.z.k.k.k.k.-.*.*.+.+.+.+.[ $.F.'.'.'.'.'.'.",
"'.'.'.'.R.p.+.+.+.+.*.*.k.k.k.k.k.k.-.+.] ' ( ' ( ( ' ( ( ( _ _ ' _ _ } { } } } ] ] } | &.k.z.z.z.k.-.*.*.+.+.+.[ +.V.'.'.'.'.'.",
"'.'.`.E.t.+.+.#.*.*.-.k.k.k.k.&.| ] _ ' _ ' _ _ ( ' ' ' ' ] ] ] } ] } ] } } } ....| ' ' ' ' ] o.k.z.k.k.k.*.*.+.+.[ [ g.'.'.'.'.",
"'.'.^.p.[ +.+.*.-.-.;.k.k.[ ' ' ( ' ' ' ' } } ' ] } ] } } } } o.X.} X.X.X.....r.r...] ] ] ' ' ( ( } &.k.k.k.*.*.+.+.[ [ A.'.'.'.",
"'.'.Z.+.+.+.*.;.k.-.=.[ ' ) ( ' ' ' ' }  .0. . .} } | } } ] ' ' { { ' { }  . .0.0.O.X.} } ' } ' ' ' ' ] =.k.k.*.*.@.+.+.@.~.'.'.",
"'.E.#.+.*.*.-.k.-.&.] ( ' ' ' ' ] ] } o.0.i.0.{ ) W G D Z C C C B B B C C D F Y R ) _ } X.} } } } } ' ' ' ] =.k.*.*.+.+.[ a.`.'.",
"'.Z.+.+.*.-.;.-.] _ _ _ ] ] } } X.X. .} ) R L A N N N N N N C C B B N N B C A A A C B D F / ' X.X.X.} ] ' ' ' &.y.*.*.@.[ $.~.'.",
"'.a.+.*.;.k.-.] ' ' ] ] ] } } o.X.) H D C B B B N N N N C C A Z D D C C C F I E I L C N M N C F ) } X.X.} ] ' ' | -.*.*.@.+.R.'.",
"_.t.@.*.-.-.| | X.X.} } } X.o.) G C N N C N C Z N Z Z D F G G P F D D D S I 6.f.6.U S B B N N N N D ^ X.X.X.] ] _ | -.y.*.@.S.'.",
"'.u.&.;.-.[ } q.d.=.X.X.X.} G B M M N N C C Z D D D D G G G H ^ H H F F Y Q 6.P.9.E F D Z Z C C B N N F { O.X.} ] ] &.;.*.@.D.'.",
"'.d.*.;.=.' ] r.n.r.O.O.) Z C M N N Z Z D D F F H H H H H H W T Y Y H H Q Q Q 7.6.Q H G F F G F D C B B C ^ &.O.} ] ] -.*.#.R.'.",
"'.D.*.*.] ( ] O.r.r.O.) C M M C N Z D D D H H H H D N M t r r 6 6 6 6 4 r i K K Y Y H H H Y Y ~ Y G C C C C T O.O.| ' &.*.u.~.'.",
"'.~.u.#.( ' } X.=.r.) C C C C C F G H G H F B t 3 ; - - - * - - - - * * - ; ; : : 3 6 B F T W ` / H F C C C C ^ O...] } -.A.'.'.",
"'.'.(.&.( ' } O.O. .F B C Z C F G H T S t 3 = = - - ; ; 2 ; ; ; 2 2 2 2 ; ; - ; ; - = ; ; 5 V Y T H G F Z C N C } O.} } d.~.'.'.",
"'.'.'.h.' ] X.O.=.^ N N C C F G G V f p 9 > ; ; ; 3 2 2 2 3 2 4 4 6 6 6 4 2 2 ; ; - - - - - : 5 a G G G D C N N G ..X.0.).'.'.'.",
"'.'.'.'.h.] O.r.O.F N N C G G C q p :.>.f 7 : : 2 3 6 4 4 w r r r r r r r 4 4 4 4 2 2 2 ; - - * = 5 M G G D C N Z  .q./.'.'.'.'.",
"'.'.'.'._.j.O.l...C N Z D G N 2 : p :.1.h 0 3 3 6 4 r w w w y y y y e y u M u y r r 4 2 2 ; - - = * - u D D Z N A 8.).'.'.'.'.'.",
"'.'.'.'.'.'.(.b...C Z Z G a : ; : 7 f g f 0 4 w w w y w 4 2 ; $ $ # $ $ $ ; 3 r y y r 6 4 2 ; - - - * * u D D P 1.Q.`.'.'.'.'.'.",
"'.'.'.'.'.'.'._.j.P Z F B 2 * * - : 7 0 0 6 w w r 6 $ O o                     o O = 6 y w 4 3 2 ; = = % = a <.C._.'.'.'.'.'.'.'.",
"'.'.'.'.'.'.'.'.'.Q.2.U r * * * ; ; 3 3 4 w e 0 # o                                 o $ r r 6 4 2 = = & l 5.!.'.'.'.'.'.'.'.'.'.",
"'.'.'.'.'.'.'.'.'.'.'.Q.3.d > - ; ; 2 4 w e 5 O                                         # w 4 4 5 s v P.^.'.'.'.'.'.'.'.'.'.'.'.",
"'.'.'.'.'.'.'.'.'.'.'.'.'.!.Y.3.j 8 4 4 w e #                                           . 8 h ,.5.T._.'.'.'.'.'.'.'.'.'.'.'.'.'.",
"'.'.'.'.'.'.'.'.'.'.'.'.'.'.'.'.`.T.U.3.:.K & X                             . X + @ < z m I.!._.'.'.'.'.'.'.'.'.'.'.'.'.'.'.'.'.",
"'.'.'.'.'.'.'.'.'.'.'.'.'.'.'.'.'.'.'.'.'.!.T.I.4.n c z k k < , , 1 k z x b m B.Y.T.!.'.'.'.'.'.'.'.'.'.'.'.'.'.'.'.'.'.'.'.'.'.",
"'.'.'.'.'.'.'.'.'.'.'.'.'.'.'.'.'.'.'.'.'.'.'.'.'.'.'.'.'.'.'.'.'.'.'.'.'.'.'.'.'.'.'.'.'.'.'.'.'.'.'.'.'.'.'.'.'.'.'.'.'.'.'.'.",
"'.'.'.'.'.'.'.'.'.'.'.'.'.'.'.'.'.'.'.'.'.'.'.'.'.'.'.'.'.'.'.'.'.'.'.'.'.'.'.'.'.'.'.'.'.'.'.'.'.'.'.'.'.'.'.'.'.'.'.'.'.'.'.'."
};
