/* XPM */
static char *_A1721605362[] = {
/* columns rows colors chars-per-pixel */
"64 64 188 2 ",
"   c #02012A",
".  c #08072D",
"X  c #0B0A2E",
"o  c #120F2F",
"O  c #030231",
"+  c #05033B",
"@  c #1A1431",
"#  c #1A1836",
"$  c #241E37",
"%  c #26223A",
"&  c #080546",
"*  c #07054B",
"=  c #09054A",
"-  c #1C1B4A",
";  c #070457",
":  c #0A0754",
">  c #070459",
",  c #09065C",
"<  c #0D0A5D",
"1  c #16145B",
"2  c #37374E",
"3  c #3F3E52",
"4  c #0A0763",
"5  c #0D0964",
"6  c #0D096B",
"7  c #130E64",
"8  c #130B6C",
"9  c #191565",
"0  c #1D1964",
"q  c #16126B",
"w  c #1A136C",
"e  c #0E0A74",
"r  c #0F0A79",
"t  c #120C73",
"y  c #1A0F73",
"u  c #130C7A",
"i  c #1B0F7A",
"p  c #1E1575",
"a  c #201D69",
"s  c #241E71",
"d  c #21137E",
"f  c #272469",
"g  c #363569",
"h  c #2A2372",
"j  c #2E2975",
"k  c #322C77",
"l  c #373577",
"z  c #413B7E",
"x  c #544C4F",
"c  c #47485A",
"v  c #504F60",
"b  c #565563",
"n  c #5C5B68",
"m  c #535379",
"M  c #64636F",
"N  c #6B6A74",
"B  c #71707A",
"V  c #9C886D",
"C  c #998C76",
"Z  c #9E9078",
"A  c #A99473",
"S  c #210F86",
"D  c #220F88",
"F  c #221185",
"G  c #291A83",
"H  c #25128A",
"J  c #29148E",
"K  c #271A8A",
"L  c #2B1B8D",
"P  c #2B1692",
"I  c #2E1993",
"U  c #311B96",
"Y  c #341D9B",
"T  c #31288A",
"R  c #2E2190",
"E  c #362394",
"W  c #342B95",
"Q  c #3D2C95",
"!  c #37219B",
"~  c #3A239D",
"^  c #3B2C9E",
"/  c #39339A",
"(  c #3E25A1",
")  c #3C2CA1",
"_  c #463F83",
"`  c #4327A5",
"'  c #4429A5",
"]  c #4B27AE",
"[  c #462AA8",
"{  c #4C29AE",
"}  c #4D36A7",
"|  c #4D30AE",
" . c #443DA8",
".. c #4E2AB0",
"X. c #522DB3",
"o. c #5F28B2",
"O. c #4F30B0",
"+. c #5433B5",
"@. c #5A33B6",
"#. c #573AB7",
"$. c #5A3BB7",
"%. c #5735B8",
"&. c #5936B8",
"*. c #5C3BBA",
"=. c #622CB4",
"-. c #6532B5",
";. c #6834B6",
":. c #6739B2",
">. c #693DB2",
",. c #6534B8",
"<. c #6A35BA",
"1. c #623CBC",
"2. c #6D3ABD",
"3. c #713DBE",
"4. c #554E8C",
"5. c #53508C",
"6. c #4F4498",
"7. c #645B9A",
"8. c #666587",
"9. c #7B7B84",
"0. c #7A7994",
"q. c #464CA4",
"w. c #4B4DAC",
"e. c #5C4AAA",
"r. c #525DAF",
"t. c #5C42BA",
"y. c #6247B6",
"u. c #6D45B3",
"i. c #6F4AB1",
"p. c #6242BC",
"a. c #714BB4",
"s. c #7342BD",
"d. c #744ABA",
"f. c #6353BF",
"g. c #7352B1",
"h. c #7758B1",
"j. c #7A5DB1",
"k. c #7854B8",
"l. c #5A70B3",
"z. c #7E65B1",
"x. c #7868B3",
"c. c #7E70B6",
"v. c #723EC0",
"b. c #6941C1",
"n. c #7443C2",
"m. c #7945C3",
"M. c #774AC4",
"N. c #794BC5",
"B. c #6F55C0",
"V. c #7553C2",
"C. c #7A53C6",
"Z. c #7C5CC9",
"A. c #7D63C9",
"S. c #816DAF",
"D. c #8479A9",
"F. c #826BB1",
"G. c #8772B2",
"H. c #8977B0",
"J. c #8C7BB1",
"K. c #907EB4",
"L. c #804FC6",
"P. c #8759C7",
"I. c #8453C8",
"U. c #9E75D1",
"Y. c #6683BD",
"T. c #89888F",
"R. c #969084",
"E. c #9D9482",
"W. c #838294",
"Q. c #8A8B95",
"!. c #86909A",
"~. c #88929A",
"^. c #95959D",
"/. c #BDAA89",
"(. c #AEA693",
"). c #9286AF",
"_. c #968CAE",
"`. c #988FAF",
"'. c #9593A5",
"]. c #9C9BA4",
"[. c #9D96AE",
"{. c #9E99AC",
"}. c #8E81B0",
"|. c #938AB2",
" X c #9F9AB0",
".X c #A19DAC",
"XX c #A2A1A7",
"oX c #A7A6AB",
/* pixels */
"oXoXoXoXoXoXoXoXoXoXoXoXoXoXoXoXoXoXoXoXoXoXoXoXoXoXoXoXoXoXoXoXoXoXoXoXoXoXoXoXoXoXoXoXoXoXoXoXoXoXoXoXoXoXoXoXoXoXoXoXoXoXoXoX",
"oXoXoXoXoXoXoXoXoXoXoXoXoXoXoXoXoXoXoXoXoXoXoXoXoXoXoXoXoXoXoXoXoXoXoXoXoXoXoXoXoXoXoXoXoXoXoXoXoXoXoXoXoXoXoXoXoXoXoXoXoXoXoXoX",
"oXoXoXoXoXoXoXoXoXoXoXoXoXoXoXoXoXoXoXoXoXoXoXoXoXoXoXoXoXoXoXoXoXoXoXoXoXoXoXoXoXoXoXoXoXoXoXoXoXoXoXoXoXoXoXoXoXoXoXoXoXoXoXoX",
"oXoXoXoXoXoXoXoXoXoXoXoXoXoXoXoXoXoXoXoXoXoXoXoXoXoXoXoXoXoXoXoXoXoXoXoXoXoXoXoXoXoXoXoXoXoXoXoXoXoXoXoXoXoXoXoXoXoXoXoXoXoXoXoX",
"oXoXoXoXoXoXoXoXoXoXoXoXoXoXoXoXoXoXoXoXoXoXoXoXoXoXoXoXoXoXoXoXoXoXoXoXoXoXoXoXoXoXoXoXoXoXoXoXoXoXoXoXoXoXoXoXoXoXoXoXoXoXoXoX",
"oXoXoXoXoXoXoXoXoXoXoXoXoXoXoXoXoXoXoXoXoXoXoXoXoXoXoXoXoXoXoXoXoXoXoXoXoXoXoXoXoXoXoXoXoXoXoXoXoXoXoXoXoXoXoXoXoXoXoXoXoXoXoXoX",
"oXoXoXoXoXoXoXoXoXoXoXoXoXoXoXoXoXoXoXoXoXoXoXoXoXoXoXoXoXoXoXoXoXoXoXoXoXoXoXoXoXoXoXoXoXoXoXoXoXoXoXoXoXoXoXoXoXoXoXoXoXoXoXoX",
"oXoXoXoXoXoXoXoXoXoXoXoXoXoXoXoXoXoXoXoXoXoXoXoXoXoXoXoXoXoXoXoXoXoXoXoXoXoXoXoXoXoXoXoXoXoXoXoXoXoXoXoXoXoXoXoXoXoXoXoXoXoXoXoX",
"oXoXoXoXoXoXoXoXoXoXoXoXoXoXoXoXoXoXoXoXoXoXoXoXoXoXoXoXoXoXoXoXoXoXoXoXoXoXoXoXoXoXoXoXoXoXoXoXoXoXoXoXoXoXoXoXoXoXoXoXoXoXoXoX",
"oXoXoXoXoXoXoXoXoXoXoXoXoXoXoXoXoXoXoXoXoXoXoXoXoXoXoXoXoXoXoXoXoXoXoXoXoXoXoXoXoXoXoXoXoXoXoXoXoXoXoXoXoXoXoXoXoXoXoXoXoXoXoXoX",
"oXoXoXoXoXoXoXoXoXoXoXoXoXoXoXoXoXoXoXoXoXoXoXoXoXoXoXoXoXoXoXoXoXoXoXoXoXoXoXoXoXoXoXoXoXoXoXoXoXoXoXoXoXoXoXoXoXoXoXoXoXoXoXoX",
"oXoXoXoXoXoXoXoXoXoXoXoXoXoXoXoXoXoXoXoXoXoXoXoXoXoXoXoXoXoXoXoXoXoXoXoXoXoXoXoXoXoXoXoXoXoXoXoXoXoXoXoXoXoXoXoXoXoXoXoXoXoXoXoX",
"oXoXoXoXoXoXoXoXoXoXoXoXoXoXoXoXoXoXoXoXoXoXoXoXoXoXoXoXoXoXoXoXoXoXoXoXoXoXoXoXoXoXoXoXoXoXoXoXoXoXoXoXoXoXoXoXoXoXoXoXoXoXoXoX",
"oXoXoXoXoXoXoXoXoXoXoXoXoXoXoXoXoXoXoXoXoXoXoXoXoXoXoXoXoXoXoXoXoXoXoXoXoXoXoXoXoXoXoXoXoXoXoXoXoXoXoXoXoXoXoXoXoXoXoXoXoXoXoXoX",
"oXoXoXoXoXoXoXoXoXoXoXoXoXoXoXoXoXoXoXoXoXoXoXoXoXoXoXoXoXoXoXoXoXoXoXoXoXoXoXoXoXoXoXoXoXoXoXoXoXoXoXoXoXoXoXoXoXoXoXoXoXoXoXoX",
"oXoXoXoXoXoXoXoXoXoXoXoXoXoXoXoXoXoXoXoXoXoXoXoXoXoXoXoXoXoXoXoXoXoXoXoXoXoXoXoXoXoXoXoXoXoXoXoXoXoXoXoXoXoXoXoXoXoXoXoXoXoXoXoX",
"oXoXoXoXoXoXoXoXoXoXoXoXoXoXoXoXoXoXoXoXoXoXoXoXoXoXoXoXoXoXoXoXoXoXoXoXoXoXoXoXoXoXoXoXoXoXoXoXoXoXoXoXoXoXoXoXoXoXoXoXoXoXoXoX",
"oXoXoXoXoXoXoXoXoXoXoXoXoXoXoXoXoXoXoXoXoXoXoXoXoXoXoXoXoXoXoXoXoXoXoXoXoXoXoXoXoXoXoXoXoXoXoXoXoXoXoXoXoXoXoXoXoXoXoXoXoXoXoXoX",
"oXoXoXoXoXoXoXoXoXoXoXoXoXoXoXoXoXoXoXoXoXoXoXoXoXoXoXoXoXoXoXoXoXoXoXoXoXoXoXoXoXoXoXoXoXoXoXoXoXoXoXoXoXoXoXoXoXoXoXoXoXoXoXoX",
"oXoXoXoXoXoXoXoXoXoXoXoXoXoXoXoXoXoXoXoXoXoXoXoXoXoXoXoXoXoXoXoXoXoXoXoXoXoXoXoXoXoXoXoXoXoXoXoXoXoXoXoXoXoXoXoXoXoXoXoXoXoXoXoX",
"oXoXoXoXoXoXoXoXoXoXoXoXoXoXoXoXoXoXoXoXoXoXoXoXoXoXoXoXoXoXoXoXoXoXoXoXoXoXoXoXoXoXoXoXoXoXoXoXoXoXoXoXoXoXoXoXoXoXoXoXoXoXoXoX",
"oXoXoXoXoXoXoXoXoXoXoXoXoXoXoXoXoXoXoXoXoXoXoXoXoXoXoXoXoXoXoXoXoXoXoXoXoXoXoXoXoXoXoXoXoXoXoXoXoXoXoXoXoXoXoXoXoXoXoXoXoXoXoXoX",
"oXoXoXoXoXoXoXoXoXoXoXoXoXoXoXoXoXoXoXoXoXoXoXoXoXoXoXoXoXoXoXoXoXoXoXoXoXoXoXoXoXoXoXoXoXoXoXoXoXoXoXoXoXoXoXoXoXoXoXoXoXoXoXoX",
"oXoXoXoXoXoXoXoXoXoXoXoXoXoXoXoXoXoXoXoXoXoXoXoXoXoXoXoXoXoXoXoXoXoXoXoXoXoXoXoXoXoXoXoXoXoXoXoXoXoXoXoXoXoXoXoXoXoXoXoXoXoXoXoX",
"oXoXoXoXoXoXoXoXoXoXoXoXoXoXoXoXoXoXoXoXoXoXoXoXoXoXoXoXoXoXoXoXoXoXoXoXoXoXoXoXoXoXoXoXoXoXoXoXoXoXoXoXoXoXoXoXoXoXoXoXoXoXoXoX",
"oXoXoXoXoXoXoXoXoXoXoXoXoXoXoXoXoXoXoXoXoXoXoXoXoXoXoXoXoXoXoXoXoXoXoXoXoXoXoXoXoXoXoXoXoXoXoXoXoXoXoXoXoXoXoXoXoXoXoXoXoXoXoXoX",
"oXoXoXoXoXoXoXoXoXoXoXoXoXoXoXoXoXoXoXoXoXoXoXoXoXoXoXoXoXoXoXoXoXoXoXoXoXoXoXoXoXoXoXoXoXoXoXoXoXoXoXoXoXoXoXoXoXoXoXoXoXoXoXoX",
"oXoXoXoXoXoXoXoXoXoXoXoXoXoXoXoXoXoXoXoXoXoXoXoXoXoXoXoXoXoXoXoXoXoXoXoXoXoXoXoXoXoXoXoXoXoXoXoXoXoXoXoXoXoXoXoXoXoXoXoXoXoXoXoX",
"oXoXoXoXoXoXoXoXoXoXoXoXoXoXoXoXoXoXoXoXoXoXoXoXoXoXoXoXoXoXoXoXoXoXoXoXoXoXoXoXoXoXoXoXoXoXoXoXoXoXoXoXoXoXoXoXoXoXoXoXoXoXoXoX",
"oXoXoXoXoXoXoXoXoXoXoXoXoXoXoXoXoXoXoXoXoXoXoXoXoXoXoXoXoXoXoXoXoXoXoXoXoXoXoXoXoXoXoXoXoXoXoXoXoXoXoXoXoXoXoXoXoXoXoXoXoXoXoXoX",
"oXoXoXoXoXoXoXoXoXoXoXoXoXoXoXoXoXoXoXoXoXoXoXoXoXoXoXoXoXoXoXoXoXoXoXoXoXoXoXoXoXoXoXoXoXoXoXoXoXoXoXoXoXoXoXoXoXoXoXoXoXoXoXoX",
"oXoXoXoXoXoXoXoXoXoXoXoXoXoXoXoXoXoXoXoXoXoXoXoXoXoXoXoX.X.X[.[..XoXoXoXoXoXoXoXoXoXoXoXoXoXoXoXoXoXoXoXoXoXoXoXoXoXoXoXoXoXoXoX",
"oXoXoXoXoXoXoXoXoXoXoXoXoXoXoXXXoXXXXX.X[.).G.F.h.a.u.:.>.,.;.=.<.<.:.:.>.i.g.h.F.J.`.[.oXoXoXoXoXoXoXoXoXoXoXoXoXoXoXoXoXoXoXoX",
"oXoXoXoXoXoXoXoXoXoXoXoXoXoXoX.X_.G.F.g.>.<.=.=.=.=.=.=.=.=.=.=.=.-.=.=.=.=.o.o.o.o.-.:.i.z.).[.oXoXoXoXoXoXoXoXoXoXoXoXoXoXoXoX",
"oXoXoXoXoXoXoXoXoXoXXXoX.X_.F.u.;.=.;.s.s.s.<.<.=.-.-.<.<.<.,.,.<.;.<.<.;.-.-.=.=.=.=.=.o.=.o.:.g.J.[.oXoXoXoXoXoXoXoXoXoXoXoXoX",
"oXoXoXoXoXoXoXoXoXXX.XJ.a.-.=.=.=.;.3.P.U.I.v.2.<.2.2.3.2.2.v.v.3.3.3.n.n.s.2.;.<.=.=.=.=.=.=.o.o.o.:.j.).oXoXoXoXoXoXoXoXoXoXoX",
"oXoXoXoXoXoXoXoX.XG.u.=.=.=.=.<.-.<.s.P.U.P.N.n.v.v.n.n.v.n.n.n.m.n.M.C.A.Z.V.s.1.<.<.<.<.<.=.<.=.=.=.=.=.g.).oXoXoXoXoXoXoXoXoX",
"oXoXoXoXoXXX.XK.a.=.=.=.=.=.<.<.2.3.L.I.I.L.N.n.m.m.m.m.m.n.n.m.n.m.M.Z.A.A.M.n.v.v.v.v.2.2.2.<.-.-.=.=.=.o.=.h.[.oXoXoXoXoXoXoX",
"oXoXoXoXXX.XF.-.=.=.-.-.<.<.v.v.v.m.v.L.N.m.v.v.,.@.@.@.X.X.X.X...X.+.$.t.t.*.1.v.v.v.n.v.v.v.v.2.<.<.=.=.=.=.o.:.K.oXoXoXoXoXoX",
"oXoXoXoX_.i.=.=.=.-.<.<.3.v.v.v.v.v.2.=.+...] ] ] ] ..] ] ] ......{ { +.O.+.+.+.X.X.+.@.,.v.n.n.n.v.2.<.<.=.=.=.o.=.S.oXoXoXoXoX",
"oXoXXX`.u.=.=.=.<.<.2.v.v.v.3.,.@.X.{ ..{ ..{ { ..............+.+.X.+.X.+.+.+.$.$.@.........X.&.v.n.v.v.v.<.<.=.=.o.o.z.oXoXoXoX",
"oXoX.Xa.=.-.<.<.<.3.3.v.2.@.X.] ] ........+.O.+.X.X.X.+.+.+.+.%.%.+.%.%.%.$.$.p.p.$.X.X.X.....] ] +.,.v.v.v.<.<.=.=.o.o.G.oXoXoX",
"oXXXF.=.=.<.<.2.3.3.2.o...] ] ......X.+.#.t.#.%.+.+.+.+.+...O...O.O...O.+.#.#.t.t.*.%.+.+...+.........X.1.v.v.<.<.-.=.=.-.[.oXoX",
"oX`.>.=.=.<.2.v.3.&.{ ] ......X.X.X.X.%.t.f.t.O.[ ( U U P J H H F F F H H P I ! ^ [ { +.%.+.+.+.+.+.......X.1.v.<.<.=.=.o.h.XXoX",
"oXF.=.=.<.2.v.<.X.{ { { X.X.+.+.%.%.*.+.[ ^ I K D D D D D F F F F F D D F H K K K H F P I ' ..%.%.%.+.X.......,.s.<.<.-.o.:.[.oX",
"oXh.=.;.v.v.2.o...{ X.X.X.+.+.&.%.[ Y H F K F F D D D D H J J J P P H H H I W / W R H D S D H I [ +.%.%.+.X.....@.2.<.<.-.=.).oX",
"oXu.-.<.3.<.@.+.&.&.X.+.+.%.%.[ U H D D F F H H J D H P I U Y ! I P P P L W q.l.q.Q L F F D D D D P ` %.%.%.X.X.{ @.2.s.<.-.H.oX",
"oXd.<.<.3.@.+.p.V.*.$.%.%.+.Y F S F D D J H P P P P I P Y U Y ( Y Y I I ! ) q.Y.r./ I P J J H H F D D I O.*.%.+.X.X.,.3.<.-.J.oX",
"oXk.<.3.1...X.p.V.p.*.$.[ P D S D D H P P P U U Y Y Y Y ~ Y ( ~ ! Y Y Y ! )  .w. .) Y U I P I I P H F F H ` ,.*.+.X.X.2.<.;.).oX",
"oXJ.<.2.X.] X.*.1.p.*.' H F S H D H P U I U Y U U P H S y t t 8 8 8 8 6 y p G W W ~ Y Y Y ! ~ ' ! U H H H H ~ *.*.@...,.<.d.[.oX",
"oX Xd.;.] ..+.&.p.1.| H H H H H I U Y U Y I F y 5 , > > > > > > > > > ; > > > < < 5 q d L ~ ( } ' Y I H H H H ` *.$.X.+.2.G.oXoX",
"oXoX}.,.] ..+.*.*.#.P F H H J I U Y ~ G i 4 ; : > > , , > > 4 4 , 4 4 4 , , > , , , ; , , 8 G ! ~ Y U I J H D H +.*.+.+.k.[.oXoX",
"oXoX.Xz.....%.*.1.` D D H P P U U R h h 0 7 , > , 4 4 4 4 5 5 4 8 8 8 8 8 4 4 , , > > > > > , 7 d U U U P H D D U $.%.t.|.oXoXoX",
"oXoXoXoXx.%.*.p.*.U D D P P P H w a z 4.j 9 , 4 4 5 8 6 6 e t t t u e t t t 6 6 5 5 4 5 , , > : : 7 S U U P H D J #.y.}.oXoXoXoX",
"oXoXoXoX{.c.t.b.$.H D J P U F 4 < 0 _ 7.k 9 5 5 8 6 u e e e u r u u r u i u i u t t 4 4 4 , > > : ; > i P P J D K e.|.oXoXoXoXoX",
"oXoXoXoXoXoX}.B.*.H H P P d < < , 9 h j h q 8 6 e e t t 6 4 , * = & * * : , 5 8 u u u e 4 4 4 , > > ; ; i P P E 7.'.XXoXoXoXoXoX",
"oXoXoXoXoXoXoX.Xc.E H I H 4 : > , < 9 q q 8 6 r u 7 * +     . $ # $ # #       O + : 6 e e 6 4 4 > > : : , s 6.D.{.oXoXoXoXoXoXoX",
"oXoXoXoXoXoXoXoXoX'.7.Q t : > : > , 4 5 6 e r q & O         % E.~.(.!.E.@           O : e t q 5 4 > > 1 g 0.].oXoXoXoXoXoXoXoXoX",
"oXoXoXoXoXoXoXoXoXoXoX'.8.g 1 > , 4 4 4 6 r 7 +             $ A R./.R.V @               & t e 5 7 f m W.XXoXoXoXoXoXoXoXoXoXoXoX",
"oXoXoXoXoXoXoXoXoXoXoXoXoX].Q.8.l 0 6 e r r *               % Z ~.^.!.C @               . 0 k 5.0.^.XXoXoXoXoXoXoXoXoXoXoXoXoXoX",
"oXoXoXoXoXoXoXoXoXoXoXoXoXoXoXoXXX^.W.8.5.T - X             @ x c v c x o   . X # % 2 b B Q.].XXoXoXoXoXoXoXoXoXoXoXoXoXoXoXoXoX",
"oXoXoXoXoXoXoXoXoXoXoXoXoXoXoXoXoXoXoXoX].].^.T.9.N n v c c 2 2 2 3 c v b M N Y.T.^.].oXoXoXoXoXoXoXoXoXoXoXoXoXoXoXoXoXoXoXoXoX",
"oXoXoXoXoXoXoXoXoXoXoXoXoXoXoXoXoXoXoXoXoXoXoXoXoXoXoXoXoXoXoXoXoXoXoXoXoXoX(.(.oXoXoXoXoXoXoXoXoXoXoXoXoXoXoXoXoXoXoXoXoXoXoXoX",
"oXoXoXoXoXoXoXoXoXoXoXoXoXoXoXoXoXoXoXoXoXoXoXoXoXoXoXoXoXoXoXoXoXoXoXoXoXoXoXoXoXoXoXoXoXoXoXoXoXoXoXoXoXoXoXoXoXoXoXoXoXoXoXoX"
};
