/* XPM */
static char *_1721605365[] = {
/* columns rows colors chars-per-pixel */
"64 64 235 2 ",
"   c #383B4A",
".  c #3A3F50",
"X  c #4D4C53",
"o  c #474B5C",
"O  c #55555C",
"+  c #58575C",
"@  c #7E5B43",
"#  c #615B5B",
"$  c #6B675F",
"%  c #6D695E",
"&  c #76695C",
"*  c #4C5263",
"=  c #4E5465",
"-  c #555762",
";  c #555A67",
":  c #5B5C62",
">  c #545A6B",
",  c #5C6474",
"<  c #6C6961",
"1  c #68686A",
"2  c #726C67",
"3  c #656A74",
"4  c #626B7B",
"5  c #757472",
"6  c #797873",
"7  c #83573E",
"8  c #805C43",
"9  c #8A664A",
"0  c #956B4B",
"q  c #99714F",
"w  c #8B6F55",
"e  c #947355",
"r  c #9A7251",
"t  c #9B7858",
"y  c #A67C55",
"u  c #B37C52",
"i  c #8D7E6E",
"p  c #8C7D7A",
"a  c #A57B6E",
"s  c #AA835C",
"d  c #B98558",
"f  c #BB965B",
"g  c #998877",
"h  c #AA8863",
"j  c #B88D62",
"k  c #A8936E",
"l  c #B6966C",
"z  c #B7996E",
"x  c #BA996B",
"c  c #A89577",
"v  c #B89B71",
"b  c #BCA175",
"n  c #C08C5C",
"m  c #C59B68",
"M  c #DB827C",
"N  c #F69E7F",
"B  c #CAA36D",
"V  c #C7A977",
"C  c #D4AC73",
"Z  c #D0AA74",
"A  c #D8AF73",
"S  c #D9B376",
"D  c #DAB67C",
"F  c #DCB97C",
"G  c #E9AB7F",
"H  c #F6A47D",
"J  c #F6AB7A",
"K  c #E5BE7C",
"L  c #F6BC76",
"P  c #F5B47A",
"I  c #F5BA7A",
"U  c #F8BC78",
"Y  c #DCC67C",
"T  c #F8CD6F",
"R  c #EFD76E",
"E  c #F5D76F",
"W  c #F8D36D",
"Q  c #F9DB6B",
"!  c #E8C87C",
"~  c #F6C677",
"^  c #F8C373",
"/  c #F8CB71",
"(  c #ECD87A",
")  c #F3D874",
"_  c #F9EA66",
"`  c #F7E569",
"'  c #F8E369",
"]  c #F9EA69",
"[  c #FAEB73",
"{  c #F4E278",
"}  c #FAED7C",
"|  c #6A7485",
" . c #6A7587",
".. c #6C7789",
"X. c #6E788B",
"o. c #727D8E",
"O. c #BF6494",
"+. c #B87A96",
"@. c #D75F8A",
"#. c #E95C96",
"$. c #F25C93",
"%. c #F15798",
"&. c #D26D90",
"*. c #D7799B",
"=. c #F36E8F",
"-. c #F3738D",
";. c #F47B89",
":. c #F26591",
">. c #F36B90",
",. c #ED7095",
"<. c #EA7695",
"1. c #F27394",
"2. c #D072A1",
"3. c #D578A2",
"4. c #E96FA2",
"5. c #7D848D",
"6. c #758194",
"7. c #7A8799",
"8. c #908E8E",
"9. c #818E9E",
"0. c #A59B84",
"q. c #B09793",
"w. c #B69A9B",
"e. c #9EA099",
"r. c #AAA184",
"t. c #ADA68A",
"y. c #B0A78E",
"u. c #B9AA9B",
"i. c #BDAA9C",
"p. c #BCB199",
"a. c #8492A4",
"s. c #8897A9",
"d. c #8C9CAD",
"f. c #909FAF",
"g. c #8E9EB0",
"h. c #AD8DA1",
"j. c #BB8BA4",
"k. c #AC9BA6",
"l. c #BD93A4",
"z. c #B49BA7",
"x. c #BD9CA3",
"c. c #8FA0B0",
"v. c #94A4B4",
"b. c #98A8B7",
"n. c #9BACBC",
"m. c #AAA6A7",
"M. c #A7A6AB",
"N. c #AAA5AA",
"B. c #ACA9AB",
"V. c #B4A4A4",
"C. c #B4ABA4",
"Z. c #B6A8A9",
"A. c #AEB4AF",
"S. c #B7B2A7",
"D. c #BCB4AA",
"F. c #B6AAB1",
"G. c #B9B1B2",
"H. c #D09788",
"J. c #C6879F",
"K. c #CA8C9F",
"L. c #D7889C",
"P. c #C8969B",
"I. c #D79898",
"U. c #EB8886",
"Y. c #F48487",
"T. c #F58C85",
"R. c #F48389",
"E. c #F38889",
"W. c #EA998B",
"Q. c #F59483",
"!. c #F69B81",
"~. c #F2958A",
"^. c #EC8D96",
"/. c #C5A885",
"(. c #D9AB86",
"). c #C9B483",
"_. c #D7B787",
"`. c #DBBA83",
"'. c #CCAB95",
"]. c #C5A899",
"[. c #D5A795",
"{. c #C9B697",
"}. c #C4B49B",
"|. c #D6B893",
" X c #E8A788",
".X c #F5A582",
"XX c #F6AA89",
"oX c #E5B685",
"OX c #F8B986",
"+X c #EFAF9A",
"@X c #C986A2",
"#X c #C597A6",
"$X c #D291AC",
"%X c #E991AE",
"&X c #C5A6A7",
"*X c #D2AFAC",
"=X c #C4BBA8",
"-X c #EDB4A6",
";X c #D9C489",
":X c #D9C896",
">X c #DCD096",
",X c #DCD09C",
"<X c #E5C987",
"1X c #F9C587",
"2X c #EAD686",
"3X c #F7D889",
"4X c #E6CC95",
"5X c #F7C796",
"6X c #E7D397",
"7X c #EDD493",
"8X c #F6D798",
"9X c #F9EC87",
"0X c #F5E98E",
"qX c #F7EB9A",
"wX c #FBF094",
"eX c #FBF19C",
"rX c #CCC2A6",
"tX c #D6CBA6",
"yX c #D8CDAC",
"uX c #EDCAAA",
"iX c #EAD9A8",
"pX c #F5D7A4",
"aX c #E9D9B4",
"sX c #EFE3A5",
"dX c #F4E4A4",
"fX c #F6EAA7",
"gX c #FBEDAB",
"hX c #FAF1A5",
"jX c #F6EAB9",
"kX c #FCF0B9",
"lX c #9FB1C0",
"zX c #A0B2C0",
"xX c #DEDED2",
"cX c #F8F0CC",
"vX c #FAF7E7",
/* pixels */
"M.M.M.M.M.M.M.M.M.M.M.M.M.M.M.M.M.M.M.M.M.M.M.M.M.M.M.M.M.M.M.M.M.M.M.M.M.M.M.M.M.M.M.M.M.M.M.M.M.M.M.M.M.M.M.M.M.M.M.M.M.M.M.M.",
"M.M.M.M.M.M.M.M.M.M.M.M.M.M.M.M.M.M.M.M.M.M.M.M.M.M.M.M.M.M.M.M.M.M.M.M.M.M.M.M.M.M.M.M.M.M.M.M.M.M.M.M.M.M.M.M.M.M.M.M.M.M.M.M.",
"M.M.M.M.M.M.M.M.M.M.M.M.M.M.M.M.M.M.M.M.M.M.M.M.M.M.M.M.M.M.M.M.M.M.M.M.M.M.M.M.M.M.M.M.M.M.M.M.M.M.M.M.M.M.M.M.M.M.M.M.M.M.M.M.",
"M.M.M.M.M.M.M.M.M.M.M.M.M.M.M.M.M.M.M.M.M.M.M.M.M.M.M.M.M.M.M.M.M.M.M.M.M.M.M.M.M.M.M.M.M.M.M.M.M.M.M.M.M.M.M.M.M.M.M.M.M.M.M.M.",
"M.M.M.M.M.M.M.M.M.M.M.M.M.M.M.M.M.M.M.M.M.M.M.M.M.M.M.M.M.M.M.M.M.M.M.M.M.M.M.M.M.M.M.M.M.M.M.M.M.M.M.M.M.M.M.M.M.M.M.M.M.M.M.M.",
"M.M.M.M.M.M.M.M.M.M.M.M.M.M.M.M.M.M.M.M.M.M.M.M.M.M.M.M.M.M.M.M.M.M.M.M.M.M.M.M.M.M.M.M.M.M.M.M.M.M.M.M.M.M.M.M.M.M.M.M.M.M.M.M.",
"M.M.M.M.M.M.M.M.M.M.M.M.M.M.M.M.M.M.M.M.M.M.M.M.M.M.M.M.M.M.M.M.M.M.M.M.M.M.M.M.M.M.M.M.M.M.M.M.M.M.M.M.M.M.M.M.M.M.M.M.M.M.M.M.",
"M.M.M.M.M.M.M.M.M.M.M.M.M.M.M.M.M.M.M.M.M.M.M.M.M.M.M.M.M.M.M.M.M.M.M.M.M.M.M.M.M.M.M.M.M.M.M.M.M.M.M.M.M.M.M.M.M.M.M.M.M.M.M.M.",
"M.M.M.M.M.M.M.M.M.M.N.N.M.N.M.M.M.M.M.N.M.M.M.M.M.M.M.M.M.N.M.M.M.M.M.M.M.M.M.k.M.M.M.M.M.M.M.M.N.N.M.M.N.b.M.M.M.M.M.M.M.M.M.M.",
"M.M.M.M.M.M.M.M.M.M.k.K.@XP.P.P.I.P.V.N.M.M.M.M.].'.'.'.'.'.m.M.M.M.N.'.'.'.'.'.].k.M.M.M.M.N.#XP.P.@X@X@X@X2.z.M.M.M.M.M.M.M.M.",
"M.M.M.M.M.M.M.M.M.M.N.*.>.-.-.R.E.T.W.B.M.M.M.M.[.P P P U I S.m.M.M.x.P L P J J  XN.M.M.M.M.z.U.;.-.=.>.$.%.%.@XM.M.M.M.M.M.M.M.",
"M.M.M.M.M.M.M.M.M.M.M.O.-.;.R.T.Q.Q.!.P.M.M.M.M.].L L ^ L ~ &XM.M.M.i.I L L L P [.M.M.M.N.k.I.T.R.;.-.>.>.$.3.k.M.M.M.M.M.M.M.M.",
"M.M.M.M.M.M.M.M.M.M.M.h.@.Y.T.Q.!.N H [.m.M.M.M.q.L / / T / '.M.M.M.'.~ ^ ^ ^ I ].M.M.M.M.z.~.Q.E.Y.;.-.>.<.z.M.M.M.M.M.M.M.M.M.",
"M.M.M.M.M.M.M.M.M.M.M.M.+.;.T.!.N J J P V.M.M.M.z.L T T W W {.M.M.M.).W T / / ~ V.M.M.M.N.[.N !.Q.T.Y.;.<.#XM.M.M.M.M.M.M.M.M.M.",
"M.M.M.M.F.N.M.M.M.M.M.M.k.&.!.H H J P U [.M.M.M.k.K E E Q Q {.M.M.M.`.E W W T oXN.M.M.N.V..XJ H N T.T.;.L.N.M.M.M.M.M.M.M.M.M.M.",
"M.M.M.M.2.%XB.M.M.M.M.M.e.+.U.H P P L ^ I C.M.M.M.D Q Q ' ` |.M.M.M.! Q Q Q Q |.N.M.M.N.(.J J H N N T.^.Z.M.M.M.M.M.M.M.M.M.M.M.",
"M.M.M.M.4.%.%XF.M.M.M.M.M.N.&.G P L L / / '.m.M.M./.' ` ' ] ;XB.M.m.( _ ` Q Q }.M.M.N.i.I U P J H N ~.P.M.M.M.M.M.M.M.M.M.b.N.M.",
"M.M.M.M.2.%.%.%XF.M.M.M.M.M.h.M L L / T W <Xm.M.N.y.' ` _ _ <XM.M.u.R _ _ _ ( C.M.M.N.(.^ ^ U J J H P.N.M.M.M.M.M.M.M.k.$X3.M.M.",
"M.M.M.M.*.$.:.>.%XG.M.M.M.M.M.+.P ^ T W Q Q &XM.M.w.R _ _ _ <XM.M.u.R _ _ _ <Xm.M.M.C.~ T ^ ^ I P  XV.M.M.M.M.M.M.M.z.%X%.2.M.M.",
"M.M.M.M.<.:.>.-.;.%XF.N.M.M.M.N.m ~ W E Q ] ;Xm.M.M.( _ _ _ ( m.M.p.` _ _ _ ;XM.M.N.`.Q T T ^ ^  X#XM.M.M.M.M.M.N.&X3.:.%.3.M.M.",
"M.M.M.M.*.:.>.;.Y.T.+XF.M.M.M.M.h.K Q Q ' ' { S.M.M.F _ _ _ ( C.M.{._ _ _ ` }.M.M.].R W Q / / U [.M.M.M.M.M.M.N.$X<.-.:.:.2.M.M.",
"M.M.M.M.*.:.-.;.Y.T.Q.-XF.M.M.M.m./.W Q ' ] ` :XM.M./.] _ _ { B.M._._ _ _ ( C.M.m.;X` Q Q W / oXB.M.M.M.M.M.Z.%XE.;.-.=.:.*.M.M.",
"M.M.M.M.*.>.-.;.T.Q.!.H +XF.N.M.N.k.F ` ' ] _ ( m.M.p.` _ _ R B.B.;X_ _ _ <XB.M.i.) _ ' Q W ! V.N.M.M.M.M.z.I.~.T.Y.;.=.>.*.M.M.",
"M.M.M.M.<.=.;.Y.T.!.!.H P -XF.N.M.M.w.E ] ] ] [ }.M.V.{ [ [ { S.m.;X[ [ [ :XN.B.;X] ] ' Q ) |.N.M.M.M.M.Z.+X.XQ.Q.E.;.-.>.J.M.M.",
"M.M.M.M.*.-.;.Y.T.Q..XH J I 5XD.M.M.M.(.] } } } 6Xm.k.2X} } 9XS.B.2X} } 9Xp.M.S.{ [ [ [ [ oXN.N.M.M.m.*XXXJ H !.Q.Y.;.;.=.*.M.M.",
"M.M.M.M.*.=.;.E.T.!.H J P U I uXF.M.M.q.2X} } } 9XS.N.>X9X9X0XS.S.0X9X9X0XB.B.>X9X} 9X} 2XS.N.M.M.B.[.OXU J H !.Q.E.;.;.-.L.M.M.",
"M.M.M.M.k.*.;.Y.Q.!.N J U U ~ ~ pXG.M.M.}.9X9XwX9X,XM.rXwXwXwXD.S.0XwXwX,XB.D.0X9X9X9X9X=XN.M.M.F.|.1X^ P J H N !.T.R.-.<.@XM.M.",
"M.M.M.M.M.M.@X^.Q.!..XJ I 1X1X3X3XiXA.M.B.,XwXwXeXsXB.D.eXeXeXD.D.eXeXeXrXB.tXwXwXwXwXtXB.N.M.D.uX3X1X~ U P H .X!.T.E.^.x.M.M.M.",
"M.M.M.M.M.M.M.k.I.!.XXOXOX1X3X3X3X0XsXG.M.G.fXeXhXhXD.S.fXhXhXrXrXhXhXfXD.D.fXhXeXeX6XA.M.M.S.pX0X3X3X~ 1XOX.X.XQ.N L.k.M.M.M.M.",
"M.M.M.M.M.M.M.M.k.*X-XOX1X8X4X_._.;X;XiXS.B.tXsXfXfXyXA.sX,X:X{.{.:XsXaXD.yXfXfXfXsXrXB.e.p.|.;X<X3X3X5X5XOXOXXXW.w.w.M.M.M.M.M.",
"M.M.M.M.M.M.M.M.N.M.G.uX5X5XV t q 0 h c 0.0.0.r.r.r.r.0.t.c r r e t b r.0.r.r.r.r.0.0.0.c y q q h `.8X8XpX5X-XI.x.N.M.M.M.M.M.M.",
"M.M.M.M.M.M.M.M.M.M.M.F.*X).t h ).V & : ; ; ; ; > > ; ; > w b _.).s & ; ; ; ; ; ; ; ; : + i ).V q h :X8XpX-X*XN.M.M.M.M.M.M.M.M.",
"M.M.M.M.M.M.M.M.M.M.M.M.p.y h :XsXrX5.d.v.v.v.v.v.b.v.b.b.S.6XaXsXtXM.v.v.b.v.v.b.v.v.b.9.8.yXiXV e b aX*XF.M.M.M.M.M.M.M.M.M.M.",
"M.M.M.M.M.M.M.M.M.M.M.M.}.r V jXvXxX7.v.lXlXlXzXn.lXlXn.n.A.pXcXvXxXn.lXn.zXn.n.n.zXn.n.s.N.vXvXaXh q.G.M.M.M.M.M.M.M.M.M.M.M.M.",
"M.M.M.M.M.M.M.M.M.M.M.M.=Xr {.cXkXyX5 6.a.g.n.n.b.n.v.c.a.m.fXkXvXxXa.a.v.b.n.b.b.v.d.a.X.8.jXkXjXh g N.M.M.M.M.M.M.M.M.M.M.M.M.",
"M.M.M.M.M.M.M.M.M.M.M.B.{.r _.gXhX:X3 6.7.7.7.d.c.c.c.a.6.e.fXkXgX,X8.6.d.f.f.f.d.a.9.6. .5 sXfXfXs 8.N.M.M.M.M.M.M.M.M.M.M.M.M.",
"M.M.M.M.M.M.M.M.M.M.M.M.}.t _.fXfX).3 7.v.b.s.v.n.b.b.b.d.e.;X4X;X;X8.n.n.b.b.n.v.d.v.f.6.6 6XgXdXs g z.N.N.M.M.M.M.M.M.M.M.M.M.",
"M.M.M.M.M.M.M.M.M.M.M.M.}.r B 2X<XV O >  . . .| .. ...X. .i B B Z x 3 4  . . . .| | | 4 * 2 ;X7X4Xy 8.M.M.M.M.M.M.M.M.M.M.M.M.M.",
"M.M.M.M.M.M.M.M.M.M.M.B.}.r m K K b O 4  . . . ... .X. .5 t.4X4XaXyXg 3  . ...| | ......> 2 D Y K y 0.F.M.M.M.M.M.M.M.M.M.M.M.M.",
"M.M.M.M.M.M.M.M.M.M.M.B.{.q x ;XC s O , | | | |  . . .4 t.jXvXcXvXvXaX5 | |  .| | | |  .> # m F F y V uX*XM.M.M.M.M.M.M.M.M.M.M.",
"M.M.M.M.M.M.M.M.M.M.A.*XuXq m K B s # O + : : : ; : + + p.gXcXsXcXvXcXi O : : : : : : + + & j A F y V pXpXuX&XB.M.M.M.M.M.M.M.M.",
"M.M.M.M.M.M.M.M.M.G.yXuX:Xq m oXF <X:X).:X,X,X,X,X:XV s ;XgX`.j x iXjXv s :X,X,X,X,X>X;X).:X_.F F y V 8X8X5X+X*XF.M.M.M.M.M.M.M.",
"M.M.M.M.M.M.M.M.&X-XOX5X:X9 y B m B K C Z `.`.D F `.Z d <XhXC u d 7XkXB d S D `.D F D Z C D B m m 9 B 3X5XOXOXXXI.P.N.N.M.M.M.M.",
"M.M.M.M.M.N.M.@X~.XXOX1X|.8 0 u u d l x l l l l x l l v 6XfXC u d 4XfX).l l l z v z z z l x d u u 7 m 1X1XOXXX.X.XT.P.V.M.M.M.M.",
"M.M.M.M.N.j.L.T.!..XXXOX_.@ 0 d u s # O O O O - O * O + t.6XZ d n `.4Xi O O O O O O O O X < d u u 7 f / U P J H !.T.Y.^.#XN.M.M.",
"M.M.M.N.2.*.E.Q.N H J U |.7 s C S l O o * ;  .o.6.o.6.4 2 b Y S S S k 1 | o.o.o.6.4 * * o < V C B 9 j U U P H H Q.T.Y.;.>.l.M.M.",
"M.M.M.l.,.;.Y.T.Q.H J OX`.@ j ! ! B X =  .7.v.n.v.d.v.a., 1 k k k g + | s.b.d.b.b.d.6. .* 2 _.! D 9 a  XoXJ H H Q.T.Y.-.-.@XM.M.",
"M.M.M.#X>.-.Y.T.Q.H H J _.@ l oX<XV O o , 4 o.s.d.s.v.d.6.> ; ; ; - , 5.d.d.s.d.7...4 , o 2 ;X<X`.9 g P.W..XH !.Q.T.Y.-.>.@XM.M.",
"M.M.M.l.>.-.R.T.Q.!..XXX|.9 v dXfX;X* > X.6.7.c.b.n.b.n.n.c.c.c.f.d.v.b.b.n.n.n.d.6.6.X.* 5 pXfXqXe p M.x.W.XXQ.Q.Y.;.>.>.J.N.N.",
"M.M.M.j.>.-.;.T.Q.!..X+X|.@ ).fXfX:XO  .7.6.7.n.n.n.lXlXn.n.n.n.n.lXn.n.lXlXn.n.b.7.7.7., 6 sXgXpXe p M.N.V.%X^.E.Y.;.>.:.@XM.N.",
"M.M.M.l.:.-.;.R.T.!.+X*X{.@ b 7X2X).O ; , , 6.d.g.d.d.g.d.g.g.v.f.d.d.g.g.d.g.d.s. .4 , * 5 6X7X<Xw p M.M.M.V.L.^.;.-.>.$.@XM.M.",
"M.M.M.l.:.-.-.R.T.~.*XM.p.@ ).gXfX:XO , 6.7.v.n.n.lXn.n.n.n.n.n.lXn.n.n.n.n.n.n.b.c.7.X.* 6 dXgXqXw p M.M.M.M.m.L.L.1.:.$.@XM.M.",
"M.M.M.l.:.=.=.;.^.*XM.M.}.@ ).gXhX:XO ; ,  .6.7.g.g.v.v.d.d.v.v.n.v.g.g.v.v.d.d.a. . ., * 6 fXgXdXe 5 f.M.M.M.M.N.N.$X4.%.@XM.M.",
"M.M.M.@X$.:.=.^.&XM.M.M.}.@ b 7X6XY O = , ,  .7.s.g.v.d.d.s.g.d.f.d.d.d.d.d.s.a.7., , > o 2 :X7X6Xw +.M.M.M.M.M.M.M.M.z.4.@XM.M.",
"M.M.M.j.$.:.4.*XM.M.M.M.C.9 9 0 q & .       . * * * * * * * * * * * * * * * * * * .       X w q 0 @ g M.M.M.M.M.M.M.M.M.N.k.M.M.",
"M.M.M.j.%.:.$XM.M.M.M.M.N.c e e e e < < < < $ $ $ $ % $ $ < $ $ < < $ $ $ < $ < < < < < % & e e e t H.k.M.M.M.M.M.M.M.M.M.M.M.M.",
"M.M.M.j.4.$XN.M.M.M.M.M.h.&._._.G `.`.`.}.p.u.u./.Y Y Y Y ;Xu.u.C.p.Y Y Y Y `.p.u.u.C.u._.D (. X(.(.U.$XM.M.M.M.M.M.M.M.M.M.M.M.",
"M.M.M.k.$XN.M.M.M.M.M.M.+.;.!.H J J L oXV.M.M.M./.W W Q E ! N.M.M.t.E W W W / i.M.M.M.M.[.H N N T.T.Y.E.l.M.M.M.M.M.M.M.M.M.M.M.",
"M.M.M.M.M.M.M.M.M.M.M.h.@.N H N N J J [.M.M.M.M.(./ T T W ! N.M.M.C./ / / / ^ [.M.M.M.M.u.W.H N T.Y.;.-.*.z.M.M.M.M.M.M.M.M.M.M.",
"M.M.M.M.M.M.M.M.M.M.k.&.;.Y.Y.T.N H  XV.M.M.M.k. X~ ^ T ^ <XN.M.M.C.K ^ ^ ^ L oXM.M.M.M.k.I.Q.T.Y.;.-.>.:.@XM.M.M.M.M.M.M.M.M.M.",
"M.M.M.M.M.M.M.M.M.M.j.@.-.;.T.T.Q.Q.I.M.M.M.M.z.G L L ^ ~ oXM.M.N.N.oXL L I P G V.M.M.M.M.z.U.Y.;.-.-.:.%.#.l.M.M.M.M.M.M.M.M.M.",
"M.M.M.M.M.M.M.M.M.N.J.>.-.-.Y.Y.T.~.&XM.M.M.M.V.G U P U I (.M.M.M.k.(.P P J J J P.M.M.M.M.N.I.;.;.-.>.:.%.%.4.M.M.M.M.M.M.M.M.M.",
"M.M.M.M.M.M.M.M.M.M.z.l.x.l.w.x.w.&Xm.M.M.M.M.B.].V.i.i.i.V.M.M.M.M.z.i.i.i.i.i.V.M.M.M.M.M.N.#Xx.l.l.l.l.#Xj.M.M.M.M.M.M.M.M.M.",
"M.M.M.M.M.M.M.M.M.M.M.M.M.M.M.N.M.M.N.M.M.M.M.M.N.M.M.M.M.M.M.M.M.M.M.M.N.M.M.M.M.M.M.M.M.M.M.M.M.M.M.M.M.M.M.M.M.M.M.M.B.M.M.M."
};
