/* XPM */
static char *_B1721605362[] = {
/* columns rows colors chars-per-pixel */
"64 64 187 2 ",
"   c #02012A",
".  c #08072B",
"X  c #09082D",
"o  c #040232",
"O  c #05033D",
"+  c #131132",
"@  c #1A1431",
"#  c #1D1A36",
"$  c #1C1B3B",
"%  c #211C3B",
"&  c #272138",
"*  c #06044A",
"=  c #09054A",
"-  c #110F43",
";  c #060457",
":  c #0B0755",
">  c #0D0957",
",  c #070459",
"<  c #09065C",
"1  c #0C0A5C",
"2  c #2E2D44",
"3  c #38374F",
"4  c #3C3B51",
"5  c #0A0763",
"6  c #0D0964",
"7  c #0D096B",
"8  c #120D64",
"9  c #130B6B",
"0  c #161365",
"q  c #191465",
"w  c #1B1769",
"e  c #0E0A73",
"r  c #0F0A79",
"t  c #120C74",
"y  c #190E74",
"u  c #120C7A",
"i  c #190F7E",
"p  c #1C1174",
"a  c #1E117A",
"s  c #231D6C",
"d  c #251A7E",
"f  c #242264",
"g  c #2A2966",
"h  c #3D3C6E",
"j  c #292471",
"k  c #2A237C",
"l  c #312A75",
"z  c #3E387D",
"x  c #544C4F",
"c  c #454455",
"v  c #484A5C",
"b  c #4B5063",
"n  c #585765",
"m  c #4E4D77",
"M  c #5F5E7D",
"N  c #62626E",
"B  c #6A6973",
"V  c #71707A",
"C  c #9C886D",
"Z  c #998C76",
"A  c #9E9078",
"S  c #A99473",
"D  c #210F86",
"F  c #220F88",
"G  c #231186",
"H  c #25128A",
"J  c #29148D",
"K  c #291A89",
"L  c #2A1A8C",
"P  c #2B1692",
"I  c #2E1994",
"U  c #321C95",
"Y  c #331C9B",
"T  c #2F268A",
"R  c #3C3987",
"E  c #2F2393",
"W  c #332396",
"Q  c #3C2C95",
"!  c #342698",
"~  c #3A229D",
"^  c #373397",
"/  c #3A379C",
"(  c #371FA0",
")  c #3C24A0",
"_  c #3F34A3",
"`  c #473B95",
"'  c #4126A2",
"]  c #432CA3",
"[  c #4B27AE",
"{  c #472DA8",
"}  c #4C29AE",
"|  c #413DA2",
" . c #4E31AF",
".. c #4E2AB0",
"X. c #522DB2",
"o. c #5F29B2",
"O. c #4F30B0",
"+. c #5432B5",
"@. c #5A34B6",
"#. c #5538B5",
"$. c #5B3BB4",
"%. c #5735B8",
"&. c #5A36B8",
"*. c #5C3BBA",
"=. c #622CB4",
"-. c #6532B5",
";. c #6834B7",
":. c #673AB2",
">. c #693CB3",
",. c #6434B8",
"<. c #6A35BA",
"1. c #633CBB",
"2. c #6D3ABD",
"3. c #703CBE",
"4. c #53518A",
"5. c #645B97",
"6. c #706F87",
"7. c #7C7C84",
"8. c #77778C",
"9. c #6B6895",
"0. c #706F90",
"q. c #79749F",
"w. c #4946AB",
"e. c #5344A0",
"r. c #5E44BA",
"t. c #6C43B2",
"y. c #6342BD",
"u. c #6849BA",
"i. c #6A4DBC",
"p. c #714BB3",
"a. c #7748BC",
"s. c #7554B2",
"d. c #7759B1",
"f. c #7A5DB2",
"g. c #5465AF",
"h. c #5F75B9",
"j. c #7D63B0",
"k. c #7C6AB7",
"l. c #6F3FC0",
"z. c #723FC0",
"x. c #6342C1",
"c. c #6849C2",
"v. c #7443C2",
"b. c #7946C2",
"n. c #764AC4",
"m. c #7B4BC5",
"M. c #7A53C7",
"N. c #7859C4",
"B. c #807F89",
"V. c #817F98",
"C. c #816BAF",
"Z. c #8C7CAF",
"A. c #836CB1",
"S. c #8573B3",
"D. c #8977B0",
"F. c #8C7BB1",
"G. c #907FB4",
"H. c #804FC4",
"J. c #8554C8",
"K. c #816ECD",
"L. c #9265CC",
"P. c #9C72D0",
"I. c #88878E",
"U. c #948F83",
"Y. c #969084",
"T. c #9D9482",
"R. c #8A8B98",
"E. c #86909A",
"W. c #88929A",
"Q. c #94949C",
"!. c #BDAA89",
"~. c #AEA693",
"^. c #8D81AF",
"/. c #9286AF",
"(. c #968CAE",
"). c #988FAF",
"_. c #9593A2",
"`. c #9896A7",
"'. c #9C9BA3",
"]. c #9C95AE",
"[. c #9E9AAC",
"{. c #9389B0",
"}. c #958BB4",
"|. c #9C97B0",
" X c #A19DAD",
".X c #A2A1A7",
"XX c #A7A6AB",
/* pixels */
"XXXXXXXXXXXXXXXXXXXXXXXXXXXXXXXXXXXXXXXXXXXXXXXXXXXXXXXXXXXXXXXXXXXXXXXXXXXXXXXXXXXXXXXXXXXXXXXXXXXXXXXXXXXXXXXXXXXXXXXXXXXXXXXX",
"XXXXXXXXXXXXXXXXXXXXXXXXXXXXXXXXXXXXXXXXXXXXXXXXXXXXXXXXXXXXXXXXXXXXXXXXXXXXXXXXXXXXXXXXXXXXXXXXXXXXXXXXXXXXXXXXXXXXXXXXXXXXXXXX",
"XXXXXXXXXXXXXXXXXXXXXXXXXXXXXXXXXXXXXXXXXXXXXXXXXXXXXXXXXXXXXXXXXXXXXXXXXXXXXXXXXXXXXXXXXXXXXXXXXXXXXXXXXXXXXXXXXXXXXXXXXXXXXXXX",
"XXXXXXXXXXXXXXXXXXXXXXXXXXXXXXXXXXXXXXXXXXXXXXXXXXXXXXXXXXXXXXXXXXXXXXXXXXXXXXXXXXXXXXXXXXXXXXXXXXXXXXXXXXXXXXXXXXXXXXXXXXXXXXXX",
"XXXXXXXXXXXXXXXXXXXXXXXXXXXXXXXXXXXXXXXXXXXXXXXXXXXXXXXXXXXXXXXXXXXXXXXXXXXXXXXXXXXXXXXXXXXXXXXXXXXXXXXXXXXXXXXXXXXXXXXXXXXXXXXX",
"XXXXXXXXXXXXXXXXXXXXXXXXXXXXXXXXXXXXXXXXXXXXXXXXXXXXXXXXXXXXXXXXXXXXXXXXXXXXXXXXXXXXXXXXXXXXXXXXXXXXXXXXXXXXXXXXXXXXXXXXXXXXXXXX",
"XXXXXXXXXXXXXXXXXXXXXXXXXXXXXXXXXXXXXXXXXXXXXXXXXXXXXXXXXXXXXXXXXXXXXXXXXXXXXXXXXXXXXXXXXXXXXXXXXXXXXXXXXXXXXXXXXXXXXXXXXXXXXXXX",
"XXXXXXXXXXXXXXXXXXXXXXXXXXXXXXXXXXXXXXXXXXXXXXXXXXXXXXXXXXXXXXXXXXXXXXXXXXXXXXXXXXXXXXXXXXXXXXXXXXXXXXXXXXXXXXXXXXXXXXXXXXXXXXXX",
"XXXXXXXXXXXXXXXXXXXXXXXXXXXXXXXXXXXXXXXXXXXXXXXXXXXXXXXXXXXXXXXXXXXXXXXXXXXXXXXXXXXXXXXXXXXXXXXXXXXXXXXXXXXXXXXXXXXXXXXXXXXXXXXX",
"XXXXXXXXXXXXXXXXXXXXXXXXXXXXXXXXXXXXXXXXXXXXXXXXXXXXXXXXXXXXXXXXXXXXXXXXXXXXXXXXXXXXXXXXXXXXXXXXXXXXXXXXXXXXXXXXXXXXXXXXXXXXXXXX",
"XXXXXXXXXXXXXXXXXXXXXXXXXXXXXXXXXXXXXXXXXXXXXXXXXXXXXXXXXXXXXXXXXXXXXXXXXXXXXXXXXXXXXXXXXXXXXXXXXXXXXXXXXXXXXXXXXXXXXXXXXXXXXXXX",
"XXXXXXXXXXXXXXXXXXXXXXXXXXXXXXXXXXXXXXXXXXXXXXXXXXXXXXXXXXXXXXXXXXXXXXXXXXXXXXXXXXXXXXXXXXXXXXXXXXXXXXXXXXXXXXXXXXXXXXXXXXXXXXXX",
"XXXXXXXXXXXXXXXXXXXXXXXXXXXXXXXXXXXXXXXXXXXXXXXXXXXXXXXXXXXXXXXXXXXXXXXXXXXXXXXXXXXXXXXXXXXXXXXXXXXXXXXXXXXXXXXXXXXXXXXXXXXXXXXX",
"XXXXXXXXXXXXXXXXXXXXXXXXXXXXXXXXXXXXXXXXXXXXXXXXXXXXXXXXXXXXXXXXXXXXXXXXXXXXXXXXXXXXXXXXXXXXXXXXXXXXXXXXXXXXXXXXXXXXXXXXXXXXXXXX",
"XXXXXXXXXXXXXXXXXXXXXXXXXXXXXXXXXXXXXXXXXXXXXXXXXXXXXXXXXXXXXXXXXXXXXXXXXXXXXXXXXXXXXXXXXXXXXXXXXXXXXXXXXXXXXXXXXXXXXXXXXXXXXXXX",
"XXXXXXXXXXXXXXXXXXXXXXXXXXXXXXXXXXXXXXXXXXXXXXXXXXXXXXXXXXXXXXXXXXXXXXXXXXXXXXXXXXXXXXXXXXXXXXXXXXXXXXXXXXXXXXXXXXXXXXXXXXXXXXXX",
"XXXXXXXXXXXXXXXXXXXXXXXXXXXXXXXXXXXXXXXXXXXXXXXXXXXXXXXXXXXXXXXXXXXXXXXXXXXXXXXXXXXXXXXXXXXXXXXXXXXXXXXXXXXXXXXXXXXXXXXXXXXXXXXX",
"XXXXXXXXXXXXXXXXXXXXXXXXXXXXXXXXXXXXXXXXXXXXXXXXXXXXXXXXXXXXXXXXXXXXXXXXXXXXXXXXXXXXXXXXXXXXXXXXXXXXXXXXXXXXXXXXXXXXXXXXXXXXXXXX",
"XXXXXXXXXXXXXXXXXXXXXXXXXXXXXXXXXXXXXXXXXXXXXXXXXXXXXXXXXXXXXXXXXXXXXXXXXXXXXXXXXXXXXXXXXXXXXXXXXXXXXXXXXXXXXXXXXXXXXXXXXXXXXXXX",
"XXXXXXXXXXXXXXXXXXXXXXXXXXXXXXXXXXXXXXXXXXXXXXXXXXXXXXXXXXXXXXXXXXXXXXXXXXXXXXXXXXXXXXXXXXXXXXXXXXXXXXXXXXXXXXXXXXXXXXXXXXXXXXXX",
"XXXXXXXXXXXXXXXXXXXXXXXXXXXXXXXXXXXXXXXXXXXXXXXXXXXXXXXXXXXXXXXXXXXXXXXXXXXXXXXXXXXXXXXXXXXXXXXXXXXXXXXXXXXXXXXXXXXXXXXXXXXXXXXX",
"XXXXXXXXXXXXXXXXXXXXXXXXXXXXXXXXXXXXXXXXXXXXXXXXXXXXXXXXXXXXXXXXXXXXXXXXXXXXXXXXXXXXXXXXXXXXXXXXXXXXXXXXXXXXXXXXXXXXXXXXXXXXXXXX",
"XXXXXXXXXXXXXXXXXXXXXXXXXXXXXXXXXXXXXXXXXXXXXXXXXXXXXXXXXXXXXXXXXXXXXXXXXXXXXXXXXXXXXXXXXXXXXXXXXXXXXXXXXXXXXXXXXXXXXXXXXXXXXXXX",
"XXXXXXXXXXXXXXXXXXXXXXXXXXXXXXXXXXXXXXXXXXXXXXXXXXXXXXXXXXXXXXXXXXXXXXXXXXXXXXXXXXXXXXXXXXXXXXXXXXXXXXXXXXXXXXXXXXXXXXXXXXXXXXXX",
"XXXXXXXXXXXXXXXXXXXXXXXXXXXXXXXXXXXXXXXXXXXXXXXXXXXXXXXXXXXXXXXXXXXXXXXXXXXXXXXXXXXXXXXXXXXXXXXXXXXXXXXXXXXXXXXXXXXXXXXXXXXXXXXX",
"XXXXXXXXXXXXXXXXXXXXXXXXXXXXXXXXXXXXXXXXXXXXXXXXXXXXXXXXXXXXXXXXXXXXXXXXXXXXXXXXXXXXXXXXXXXXXXXXXXXXXXXXXXXXXXXXXXXXXXXXXXXXXXXX",
"XXXXXXXXXXXXXXXXXXXXXXXXXXXXXXXXXXXXXXXXXXXXXXXXXXXXXXXXXXXXXXXXXXXXXXXXXXXXXXXXXXXXXXXXXXXXXXXXXXXXXXXXXXXXXXXXXXXXXXXXXXXXXXXX",
"XXXXXXXXXXXXXXXXXXXXXXXXXXXXXXXXXXXXXXXXXXXXXXXXXXXXXXXXXXXXXXXXXXXXXXXXXXXXXXXXXXXXXXXXXXXXXXXXXXXXXXXXXXXXXXXXXXXXXXXXXXXXXXXX",
"XXXXXXXXXXXXXXXXXXXXXXXXXXXXXXXXXXXXXXXXXXXXXXXXXXXXXXXXXXXXXXXXXXXXXXXXXXXXXXXXXXXXXXXXXXXXXXXXXXXXXXXXXXXXXXXXXXXXXXXXXXXXXXXX",
"XXXXXXXXXXXXXXXXXXXXXXXXXXXXXXXXXXXXXXXXXXXXXXXXXXXXXXXXXXXXXXXXXXXXXXXXXXXXXXXXXXXXXXXXXXXXXXXXXXXXXXXXXXXXXXXXXXXXXXXXXXXXXXXX",
"XXXXXXXXXXXXXXXXXXXXXXXXXXXXXXXXXXXXXXXXXXXXXXXXXXXXXXXXXXXXXXXXXXXXXXXXXXXXXXXXXXXXXXXXXXXXXXXXXXXXXXXXXXXXXXXXXXXXXXXXXXXXXXXX",
"XXXXXXXXXXXXXXXXXXXXXXXXXXXXXXXXXXXXXXXXXXXXXXXXXXXXXXXX X X]. X XXXXXXXXXXXXXXXXXXXXXXXXXXXXXXXXXXXXXXXXXXXXXXXXXXXXXXXXXXXXXXX",
"XXXXXXXXXXXXXXXXXXXXXXXXXXXXXXXXXXXX.X X]./.D.j.d.p.t.>.:.:.;.=.<.:.-.:.>.t.s.f.A.Z.). X XXXXXXXXXXXXXXXXXXXXXXXXXXXXXXXXXXXXXXX",
"XXXXXXXXXXXXXXXXXXXXXXXXXXXXXX X).D.f.t.-.=.=.o.o.=.=.=.=.=.=.=.=.=.=.=.=.=.=.=.=.=.>.t.s.A.Z. X XXXXXXXXXXXXXXXXXXXXXXXXXXXXXXX",
"XXXXXXXXXXXXXXXXXXXXXXXX X{.C.t.-.o.=.=.o.o.=.=.=.-.,.,.<.<.,.<.<.<.<.<.<.=.-.=.;.3.z.a.3.=.=.>.d.Z. X XXXXXXXXXXXXXXXXXXXXXXXXX",
"XXXXXXXXXXXXXXXXXXXX XZ.p.=.o.=.o.o.=.=.=.-.=.<.<.2.a.v.v.2.l.z.z.3.2.2.2.2.2.2.3.b.L.P.H.;.=.=.o.o.:.C.). XXXXXXXXXXXXXXXXXXXXX",
"XXXXXXXXXXXXXXXX].S.t.o.=.=.=.=.-.=.<.<.<.<.2.2.a.n.N.N.M.b.v.v.v.v.v.v.z.z.z.z.v.H.L.P.H.3.<.=.-.=.=.=.=.s.G. XXXXXXXXXXXXXXXXX",
"XXXXXXXXXXXX XZ.t.=.o.o.=.=.=.<.<.2.2.3.z.z.z.z.v.M.K.K.M.n.v.v.v.b.v.v.b.b.v.b.z.m.J.J.H.z.l.l.<.-.-.=.=.=.=.C. XXXXXXXXXXXXXXX",
"XXXXXXXXXX[.j.o.o.=.=.=.,.<.2.z.z.z.v.v.v.l.l.1.1.r.u.r.$.X.X...X.X.X.X.X.%.,.l.l.z.m.m.b.z.v.z.3.3.<.-.=.-.=.=.>.Z. XXXXXXXXXXX",
"XXXXXXXX).p.o.=.=.=.;.2.2.2.z.z.z.l.l.@.+.X.X.X.+.+.O.O.............[ ..[ [ [ [ ....X.@.<.z.z.z.3.3.3.3.<.<.=.=.o.-.D. XXXXXXXXX",
"XXXXXX(.t.o.o.=.,.<.2.3.z.z.l.1.@.X...[ ..X.%.*.%.%.+.+.X.X.X.+.X...............[ ..} } ......&.l.z.z.z.l.<.<.=.-.=.=.C. XXXXXXX",
"XXXX Xp.o.o.=.-.<.2.z.z.2.,.X.[ [ [ ....X.%.*.i.*.*.#.%.%.%.%.%.%.%.%.X.+.X...X.X.+.O.....[ [ ..[ X.<.z.z.l.l.<.-.-.=.=.D. XXXXX",
"XXXXC.o.=.=.-.<.2.z.2.@.......X.X.X.X.X.%.&.*.1.*.%.#.O.O. .}  .....X.%.+.%.+.+.#.*.r.+.+.......[ [ [ X.=.z.a.l.<.-.-.=.;./.XXXX",
"XX).-.o.=.-.<.3.z.&.........+.+.%.%.%.+.O.{ ] ~ E P J H H H H G H H J P I ~ ) } #.r.r.r.%.+.X.X.X.....[ [ X.<.3.3.3.<.-.=.C.XXXX",
"XXA.=.=.-.<.3.2.+.....X.+.%.%.%.+.{ ~ P H G H K L K G G D D G H H H F D D D D D L ! _  .#.#.#.+.X.X.X.X.[ [ [ ,.3.3.3.<.=.>. X X",
"XXs.=.-.<.3.<.......X.%.%.%.} ~ P H D D H L E ^ ^ E L H H J J J J J H H H H F F F F G H I ) O.+.&.X.X.X.X.X.X...-.3.3.<.=.=./.XX",
"XXp.-.3.3.2.X...X.+.%.&. .Y H G D D D F G E / g.g./ I P P P I U W I I P J J H H J F F D F F J ~ +.&.&.%.X.+.#.$.X.-.3.3.<.=.F.XX",
" Xp.-.2.2.X.X.X.%.*.%.' J G H H H H J J P E w.h.h._ ! Y I I Y ~ ) ~ Y U I P I P P J J J F F F F J ' %.%.%.*.u.a.$.O.<.3.<.=.F.XX",
"XXf.-.2.,...+.%.*.#.U H D H J U U L I I U ~ _ w.w.| ~ Y Y Y Y ) ) ( ( ( Y Y Y Y Y P P P J H F G D F U +.%.*.c.N.$.X.X.2.2.;./.XX",
"XXZ.;.<.X.+.&.*.%.P H H H J U ~ ' ~ Y Y Y ~ ! W T d p y 0 7 9 9 9 9 y i G P I U ( Y I I P P H H H D F I #.r.y.*.@...[ ,.2.p. XXX",
"XX Xa.-...%.*.#.I F H H J Y ' ` ] ~ Y H y 9 6 6 1 < ; ; < , ; < , , ; ; ; ; 5 9 y H U Y U U P J J H H F I *.*.*.%...[ X.<.S. XXX",
"XXXXG.1.+.*.*.~ D G H J U Y ) Y L d 6 : , ; : < < 5 , , 5 < 5 1 < < < < < < ; ; ; < 9 d W ( Y P P H J F F ) l.*.%.X.} X.a. XXXXX",
"XXXXXXk.+.&.O.H F H J P Y Y J p 6 > ; ; ; , < < 5 5 6 7 9 9 9 7 7 5 5 5 5 6 < : ; : q s j T L Y I P H H F H #.x.*.+.O.$.}.XXXXXX",
"XXXXXX[.k.1.~ D H J P U P y : : < , < 5 5 6 5 7 6 7 e t e t u t t t t 9 9 9 5 5 5 6 w z 4.j w a I I P H H F { l.*.@.$.Z.XXXXXXXX",
"XXXXXXXX[.k.Q H H P P J 6 ; ; ; ; , 5 5 5 7 t t u a D u u u u u u u r e e t 9 7 6 8 s ` 5.l 0 1 t J I P H F ( c.l.u.{.XXXXXXXXXX",
"XXXXXXXXXXXX^.R P P J 6 ; ; ; , , 5 5 7 t u u t 7 6 ; * * * = = ; < 5 e r r e t 7 9 w g l f 8 ; ; 9 P I J F Y c.k.|.XXXXXXXXXXXX",
"XXXXXXXXXXXXXX_.9.' 9 : ; ; ; : 5 6 e t e 6 * o             . % # % $ - O : 9 u e e 9 0 w 8 < ; ; ; 7 J P L e.}. XXXXXXXXXXXXXXX",
"XXXXXXXXXXXXXXXX X_.M g > ; < 5 6 e t 7 *                   & T.W.~.E.A # . o > t u e 6 6 5 < , ; ; , T e.q.[.XXXXXXXXXXXXXXXXXX",
"XXXXXXXXXXXXXXXXXXXX.XQ.6.h w 5 6 7 8                       & S U.!.Y.C @       * u e 7 5 5 < 5 1 f m V.`.XXXXXXXXXXXXXXXXXXXXXX",
"XXXXXXXXXXXXXXXXXXXXXXXXXX'.R.0.` k -                       & A W.Q.E.Z @         6 r e 7 0 g m 8.Q..XXXXXXXXXXXXXXXXXXXXXXXXXXX",
"XXXXXXXXXXXXXXXXXXXXXXXXXXXXXXXX.XQ.I.B v 2 $ + .           + x v b v x +     X + f R 4.0.R.'..XXXXXXXXXXXXXXXXXXXXXXXXXXXXXXXXX",
"XXXXXXXXXXXXXXXXXXXXXXXXXXXXXXXXXXXXXX.X.XQ.Q.I.7.B n n c c 4 3 4 4 c v n N V B.R._.[.XXXXXXXXXXXXXXXXXXXXXXXXXXXXXXXXXXXXXXXXXX",
"XXXXXXXXXXXXXXXXXXXXXXXXXXXXXXXXXXXXXXXXXXXXXXXXXXXXXXXXXXXXXXXXXXXXXXXXXXXXXXXXXXXXXXXXXXXXXXXXXXXXXXXXXXXXXXXXXXXXXXXXXXXXXXXX",
"XXXXXXXXXXXXXXXXXXXXXXXXXXXXXXXXXXXXXXXXXXXXXXXXXXXXXXXXXXXXXXXXXXXXXXXXXXXXXXXXXXXXXXXXXXXXXXXXXXXXXXXXXXXXXXXXXXXXXXXXXXXXXXXX"
};
