/* XPM */
static char *_A1721605363[] = {
/* columns rows colors chars-per-pixel */
"64 64 195 2 ",
"   c #040333",
".  c #070457",
"X  c #070459",
"o  c #09055B",
"O  c #0D0A5C",
"+  c #19175A",
"@  c #37364F",
"#  c #3F3F53",
"$  c #090763",
"%  c #0C0865",
"&  c #0E096D",
"*  c #120D64",
"=  c #130C6B",
"-  c #1A1569",
";  c #0F0A75",
":  c #1D107A",
">  c #251F6F",
",  c #221A78",
"<  c #3A366A",
"1  c #2B2377",
"2  c #393677",
"3  c #403F53",
"4  c #443B68",
"5  c #473D76",
"6  c #4D4444",
"7  c #4A464A",
"8  c #4C484B",
"9  c #554C4A",
"0  c #464756",
"q  c #4C4D5B",
"w  c #644846",
"e  c #644758",
"r  c #645C57",
"t  c #765656",
"y  c #726559",
"u  c #44436D",
"i  c #535663",
"p  c #595A69",
"a  c #7D5D76",
"s  c #5D6576",
"d  c #606672",
"f  c #626975",
"g  c #6B6A74",
"h  c #646C7C",
"j  c #7F6175",
"k  c #7A767B",
"l  c #926F54",
"z  c #80705E",
"x  c #97785A",
"c  c #AF7D54",
"v  c #827161",
"b  c #826E7C",
"n  c #837C78",
"m  c #B78457",
"M  c #8D826D",
"N  c #99856A",
"B  c #9B876C",
"V  c #8E8774",
"C  c #A68664",
"Z  c #AB8A66",
"A  c #A68B6A",
"S  c #AD946F",
"D  c #B3936F",
"F  c #B59B76",
"G  c #B5A17B",
"H  c #C89E69",
"J  c #CBA36D",
"K  c #C4A878",
"L  c #D4AD73",
"P  c #D6B17B",
"I  c #210F86",
"U  c #220F88",
"Y  c #231186",
"T  c #291985",
"R  c #25128A",
"E  c #29158D",
"W  c #2C1A8F",
"Q  c #2C1692",
"!  c #2E1994",
"~  c #311B94",
"^  c #341D99",
"/  c #312287",
"(  c #333081",
")  c #352196",
"_  c #3B239E",
"`  c #493E83",
"'  c #42348A",
"]  c #483E91",
"[  c #4226A4",
"{  c #4329A5",
"}  c #4B27AE",
"|  c #472BA9",
" . c #4C2AAE",
".. c #4B35AB",
"X. c #4E2AB1",
"o. c #522DB3",
"O. c #5F29B2",
"+. c #4F30B0",
"@. c #5432B5",
"#. c #5B33B6",
"$. c #5C3CB5",
"%. c #5735B8",
"&. c #5A35B8",
"*. c #5C3BBB",
"=. c #622CB4",
"-. c #6532B5",
";. c #6738B3",
":. c #6534B9",
">. c #6A35B9",
",. c #643BBB",
"<. c #6D3BBD",
"1. c #703CBF",
"2. c #4B438B",
"3. c #594785",
"4. c #575289",
"5. c #564795",
"6. c #575095",
"7. c #666682",
"8. c #6B7586",
"9. c #777988",
"0. c #7C7B93",
"q. c #5241A4",
"w. c #5B43B9",
"e. c #6D45B2",
"r. c #6343BC",
"t. c #6948B8",
"y. c #724DB3",
"u. c #7344BE",
"i. c #7948BF",
"p. c #7453B1",
"a. c #7B5DB3",
"s. c #7958B4",
"d. c #7F67AF",
"f. c #7D6ABC",
"g. c #6F3FC0",
"h. c #723FC0",
"j. c #6843C1",
"k. c #7442C2",
"l. c #7946C4",
"z. c #744AC2",
"x. c #7C4BC5",
"c. c #6F57C3",
"v. c #7654C5",
"b. c #826EAE",
"n. c #836BB2",
"m. c #8773B0",
"M. c #8E7EB1",
"N. c #8555C8",
"B. c #8A66CC",
"V. c #9D73D0",
"C. c #7A828C",
"Z. c #768394",
"A. c #798596",
"S. c #7A8799",
"D. c #7C899A",
"F. c #88898D",
"G. c #979588",
"H. c #878B9A",
"J. c #84909F",
"K. c #92919B",
"L. c #BCAC85",
"P. c #B3AB8A",
"I. c #B1AC94",
"U. c #8C84A8",
"Y. c #9188AB",
"T. c #948BAE",
"R. c #988FAE",
"E. c #8794A3",
"W. c #8C9BAC",
"Q. c #9B9AA7",
"!. c #9A93AE",
"~. c #8C83B2",
"^. c #948AB1",
"/. c #9E98B0",
"(. c #A19EAC",
"). c #9CA4A6",
"_. c #91A0AE",
"`. c #8FA0B1",
"'. c #94A4B5",
"]. c #A1A0A7",
"[. c #A7A6AB",
"{. c #C3AE84",
"}. c #CEB487",
"|. c #C1BFB1",
" X c #DAC189",
".X c #D9C596",
"XX c #E2C88B",
"oX c #E1C994",
"OX c #E9CF90",
"+X c #E9D598",
"@X c #DAD2B7",
"#X c #E8DAAC",
"$X c #F4E4A8",
"%X c #EEE0B7",
"&X c #EEE6CD",
/* pixels */
"[.[.[.[.[.[.[.[.[.[.[.[.[.[.[.[.[.[.[.[.[.[.[.[.[.[.[.[.[.[.[.[.[.[.[.[.[.[.[.[.[.[.[.[.[.[.[.[.[.[.[.[.[.[.[.[.[.[.[.[.[.[.[.[.",
"[.[.[.[.[.[.[.[.[.[.[.[.[.[.[.[.[.[.[.[.[.[.[.[.[.[.[.[.[.[.[.[.[.[.[.[.[.[.[.[.[.[.[.[.[.[.[.[.[.[.[.[.[.[.[.[.[.[.[.[.[.[.[.[.",
"[.[.[.[.[.[.[.[.[.[.[.[.[.[.[.[.[.[.[.[.[.[.[.[.[.[.[.[.[.[.[.[.[.[.[.[.[.[.[.[.[.[.[.[.[.[.[.[.[.[.[.[.[.[.[.[.[.[.[.[.[.[.[.[.",
"[.[.[.[.[.[.[.[.[.[.[.[.[.[.[.[.[.[.[.[.[.[.[.[.[.[.[.[.[.[.[.[.[.[.[.[.[.[.[.[.[.[.[.[.[.[.[.[.[.[.[.[.[.[.[.[.[.[.[.[.[.[.[.[.",
"[.[.[.[.[.[.[.[.[.[.[.[.[.[.[.[.[.[.[.[.[.[.[.[.[.[.[.[.[.[.[.[.[.[.[.[.[.[.[.[.[.[.[.[.[.[.[.[.[.[.[.[.[.[.[.[.[.[.[.[.[.[.[.[.",
"[.[.[.[.[.[.[.[.[.[.[.[.[.[.[.[.[.[.[.[.[.[.[.[.[.[.[.[.[.[.[.[.[.[.[.[.[.[.[.[.[.[.[.[.[.[.[.[.[.[.[.[.[.[.[.[.[.[.[.[.[.[.[.[.",
"[.[.[.[.[.[.[.[.[.[.[.[.[.[.[.[.[.[.[.[.[.[.[.[.[.[.[.[.[.[.[.[.[.[.[.[.[.[.[.[.[.[.[.[.[.[.[.[.[.[.[.[.[.[.[.[.[.[.[.[.[.[.[.[.",
"[.[.[.[.[.[.[.[.[.[.[.[.[.[.[.[.[.[.[.[.[.[.[.[.[.[.[.[.[.[.[.[.[.[.[.[.[.[.[.[.[.[.[.[.[.[.[.[.[.[.[.[.[.[.[.[.[.[.[.[.[.[.[.[.",
"[.[.[.[.[.[.[.[.[.[.[.[.[.[.[.[.[.[.[.[.[.[.[.[.[.[.[.[.[.[.[.[.[.[.[.[.[.[.[.[.[.[.[.[.[.[.[.[.[.[.[.[.[.[.[.[.[.[.[.[.[.[.[.[.",
"[.[.[.[.[.[.[.[.[.[.[.[.[.[.[.[.[.[.[.[.[.[.[.[.[.[.[.[.[.[.[.[.[.[.[.[.[.[.[.[.[.[.[.[.[.[.[.[.[.[.[.[.[.[.[.[.[.[.[.[.[.[.[.[.",
"[.[.[.[.[.[.[.[.[.[.[.[.[.[.[.[.[.[.[.[.[.[.[.[.[.[.[.[.[.[.[.[.[.[.[.[.[.[.[.[.[.[.[.[.[.[.[.[.[.[.[.[.[.[.[.[.[.[.[.[.[.[.[.[.",
"[.[.[.[.[.[.[.[.[.[.[.[.[.[.[.[.[.[.[.[.[.[.[.[.[.[.[.[.[.[.[.[.[.[.[.[.[.[.[.[.[.[.[.[.[.[.[.[.[.[.[.[.[.[.[.[.[.[.[.[.[.[.[.[.",
"[.[.[.[.[.[.[.[.[.[.[.[.[.[.[.[.[.[.[.[.[.[.[.[.[.[.[.[.[.[.[.[.[.[.[.[.[.[.[.[.[.[.[.[.[.[.[.[.[.[.[.[.[.[.[.[.[.[.[.[.[.[.[.[.",
"[.[.[.[.[.[.[.[.[.[.[.[.[.[.[.[.[.[.[.[.[.[.[.[.[.[.[.[.[.[.[.[.[.[.[.[.[.[.[.[.[.[.[.[.[.[.[.[.[.[.[.[.[.[.[.[.[.[.[.[.[.[.[.[.",
"[.[.[.[.[.[.[.[.[.[.[.[.[.[.[.[.[.[.[.[.[.[.[.[.[.[.[.[.[.[.[.[.[.[.[.[.[.[.[.[.[.[.[.[.[.[.[.[.[.[.[.[.[.[.[.[.[.[.[.[.[.[.[.[.",
"[.[.[.[.[.[.[.[.[.[.[.[.[.[.[.[.[.[.[.[.[.[.[.[.[.[.[.[.[.[.[.[.[.[.[.[.[.[.[.[.[.[.[.[.[.[.[.[.[.[.[.[.[.[.[.[.[.[.[.[.[.[.[.[.",
"[.[.[.[.[.[.[.[.[.[.[.[.[.[.[.[.[.[.[.[.[.[.[.[.[.[.[.[.[.[.[.[.[.[.[.[.[.[.[.[.[.[.[.[.[.[.[.[.[.[.[.[.[.[.[.[.[.[.[.[.[.[.[.[.",
"[.[.[.[.[.[.[.[.[.[.[.[.[.[.[.[.[.[.[.[.[.[.[.[.[.[.[.[.[.[.[.[.[.[.[.[.[.[.[.[.[.[.[.[.[.[.[.[.[.[.[.[.[.[.[.[.[.[.[.[.[.[.[.[.",
"[.[.[.[.[.[.[.[.[.[.[.[.[.[.[.[.[.[.[.[.[.[.[.[.[.[.[.[.[.[.[.[.[.[.[.[.[.[.[.[.[.[.[.[.[.[.[.[.[.[.[.[.[.[.[.[.[.[.[.[.[.[.[.[.",
"[.[.[.[.[.[.[.[.[.[.[.[.[.[.[.[.[.[.[.[.[.[.[.[.[.[.[.[.[.[.[.[.[.[.[.[.[.[.[.[.[.[.[.[.[.[.[.[.[.[.[.[.[.[.[.[.[.[.[.[.[.[.[.[.",
"[.[.[.[.[.[.[.[.[.[.[.[.[.[.[.[.[.[.[.[.[.[.[.[.[.[.[.[.[.[.[.[.[.[.[.[.[.[.[.[.[.[.[.[.[.[.[.[.[.[.[.[.[.[.[.[.[.[.[.[.[.[.[.[.",
"[.[.[.[.[.[.[.[.[.[.[.[.[.[.[.[.[.[.[.[.[.[.[.[.[.[.[.[.[.[.[.[.[.[.[.[.[.[.[.[.[.[.[.[.[.[.[.[.[.[.[.[.[.[.[.[.[.[.[.[.[.[.[.[.",
"[.[.[.[.[.[.[.[.[.[.[.[.[.[.[.[.[.[.[.[.[.[.[.[.[.[.[.[.[.[.[.[.[.[.[.[.[.[.[.[.[.[.[.[.[.[.[.[.[.[.[.[.[.[.[.[.[.[.[.[.[.[.[.[.",
"[.[.[.[.[.[.[.[.[.[.[.[.[.[.[.[.[.[.[.[.[.[.[.[.[.[.[.[.[.[.[.[.[.[.[.[.[.[.[.[.[.[.[.[.[.[.[.[.[.[.[.[.[.[.[.[.[.[.[.[.[.[.[.[.",
"[.[.[.[.[.[.[.[.[.[.[.[.[.[.[.[.[.[.[.[.[.[.[.[.[.[.[.[.[.[.[.[.[.[.[.[.[.[.[.[.[.[.[.[.[.[.[.[.[.[.[.[.[.[.[.[.[.[.[.[.[.[.[.[.",
"[.[.[.[.[.[.[.[.[.[.[.[.[.[.[.[.[.[.[.[.[.[.[.[.[.[.[.[.[.[.[.[.[.[.[.[.[.[.[.[.[.[.[.[.[.[.[.[.[.[.[.[.[.[.[.[.[.[.[.[.[.[.[.[.",
"[.[.[.[.[.[.[.[.[.[.[.[.[.[.[.[.[.[.[.[.[.[.[.[.[.[.[.[.[.[.[.[.[.[.[.[.[.[.[.[.[.[.[.[.[.[.[.[.[.[.[.[.[.[.[.[.[.[.[.[.[.[.[.[.",
"[.[.[.[.[.[.[.[.[.[.[.[.[.[.[.[.[.[.[.[.[.[.[.[.[.[.[.[.[.[.[.[.[.[.[.[.[.[.[.[.[.[.[.[.[.[.[.[.[.[.[.[.[.[.[.[.[.[.[.[.[.[.[.[.",
"[.[.[.[.[.[.[.[.[.[.[.[.[.[.[.[.[.[.[.[.[.[.[.[.[.[.[.[.[.[.[.[.[.[.[.[.[.[.[.[.[.[.[.[.[.[.[.[.[.[.[.[.[.[.[.[.[.[.[.[.[.[.[.[.",
"[.[.[.[.[.[.[.[.[.[.[.[.[.[.[.[.[.[.[.[.[.[.[.[.[.[.[.[.[.[.[.[.[.[.[.[.[.[.[.[.[.[.[.[.[.[.[.[.[.[.[.[.[.[.|.[.[.[.[.[.[.[.[.[.",
"[.[.[.[.[.[.[.[.[.[.[.[.[.[.[.[.[.[.[.[.[.[.[.[.[.[.[.[.[.[.[.[.[.[.[.[.[.[.[.[.[.[.[.[.[.[.[.[.[.[.[.[.[.[.[.[.[.[.[.[.[.[.[.[.",
"[.[.[.[.[.[.[.[.[.[.[.[.[.[.[.[.[.[.[.[.[.[.[.[.[.[.[.[.[.[.[.[.[.[.[.[.[.[.[.[.[.[.[.[.[.[.[.[.[.[.[.[.[.[.[.[.[.[.[.[.[.[.[.[.",
"[.[.[.[.[.[.[.[.[.[.[.[.[.[.[.[.[.[.[.[.[.[.[.[.[.[.[.[.[.[.[.[.[.[.[.[.[.[.[.[.[.[.[.[.[.[.[.[.[.[.[.[.[.[.[.[.[.[.[.[.[.[.[.[.",
"[.[.[.[.[.[.[.[.[.[.[.[.[.[.[.[.[.[.[.[.[.[.[.[.[.[.[.[.[.[.[.[.[.[.[.[.[.[.[.[.[.[.[.[.[.[.[.[.[.[.[.[.[.[.[.[.[.[.[.[.[.[.[.[.",
"[.[.[.[.[.[.[.[.[.[.[.[.[.[.[.[.[.[.[.[.[.[.[.[.[.[.[.[.[.[.[.[.[.[.[.[.[.[.[.[.[.[.[.[.[.[.[.[.[.[.[.[.[.[.[.[.[.[.[.[.[.[.[.[.",
"[.[.[.[.[.[.[.[.[.[.[.[.[.[.[.[.[.[.[.[.[.[.[.[.[.[.[.[.[.[.[.[.[.[.[.[.[.[.[.[.[.[.[.[.[.[.[.[.[.[.[.[.[.[.[.[.[.[.[.[.[.[.[.[.",
"[.[.[.[.[.[.[.[.[.[.[.[.[.[.[.[.[.[.[.[.(.(.(.(.R.M.m.n.s.p.y.y.i.y.p.p.n.d.m.M.T.!.(.[.[.[.[.[.[.[.[.[.[.[.[.[.[.[.[.[.[.[.[.[.",
"[.[.[.[.[.[.[.[.[.[.[.[.[.[.[.[.[.[.(.!.M.n.s.;.;.=.=.=.=.=.=.=.=.=.=.=.-.=.O.O.=.-.e.a.m.R.(.(.[.[.[.[.[.[.[.[.[.[.[.[.[.[.[.[.",
"[.[.[.[.[.[.[.[.[.[.[.[.[.[.[.(.R.b.y.;.-.<.i.1.1.=.=.=.-.>.>.>.:.>.:.;.;.:.=.=.=.=.=.=.=.=.e.n.R.(.[.[.[.[.[.[.[.[.[.[.[.[.[.[.",
"[.[.[.[.[.[.[.[.[.[.[.[.[.(.Y.p.;.=.=.=.>.i.V.B.i.1.1.1.<.h.h.h.1.1.k.z.z.u.<.>.-.-.=.-.=.=.=.=.=.y.M.(.[.[.[.[.[.[.[.[.[.[.[.[.",
"[.[.[.[.[.[.[.[.[.[.[.[.M.p.-.=.=.-.-.>.1.l.B.N.x.k.h.l.k.l.h.k.l.l.l.v.B.c.v.k.<.<.<.>.>.-.-.=.=.=.=.e.M.(.[.[.[.[.[.[.[.[.[.[.",
"[.[.[.[.[.[.[.[.[.[.R.a.;.=.=.-.-.>.1.1.h.N.N.N.l.k.h.<.,.,.,.,.&.,.,.j.c.c.j.k.k.k.h.h.h.h.>.>.=.=.=.=.=.p.R.[.[.[.[.[.[.[.[.[.",
"[.[.[.[.[.[.[.[.[.Y.e.=.=.=.>.>.<.1.h.k.h.1.-.=.o.o. . .X.X.} X. .X.o.@.@.+.@.@.#.#.:.g.h.k.k.<.>.>.=.=.=.O.;.Y.[.[.[.[.[.[.[.[.",
"[.[.[.[.[.[.[.[.Y.e.=.-.=.>.1.1.1.1.1.=.o.X.} X.} } X. .X.X.X.o.o.o.o.o.@.@.@.$.@.X.X.X.o.#.,.k.k.h.1.-.=.=.O.:.M.[.[.[.[.[.[.[.",
"[.[.[.[.[.[.[.T.<.=.=.-.>.g.g.g.:.o.X.} }  .o.@.@.+.o.o.@.@.@.@.%.%.%.%.%.*.$.r.*.@.o.X.X.X. .o.:.<.h.<.>.-.=.=.;.Y.[.[.[.[.[.[.",
"[.[.[.[.[.[.(.a.=.>.>.1.h.g.#.o.} } X.X.o.o.@.w.w.#.@.@.o.| | | { [ [ { |  .@.$.$.*.#.@.@.o.o.o.X.X.#.g.1.>.-.=.O.e.(.[.[.[.[.[.",
"[.[.[.[.[.[.T.;.=.>.<.h.>.o.} X.X.X.+.@.%.%.$.w...[ ^ Q E U R R I I I I Y R E Q ! ^ [  .@.@.@.@.o.X.X.o.:.1.>.-.=.O.M.[.[.[.[.[.",
"[.[.[.[.[.[.n.=.-.>.h.>.o.} X.X.o.@.%.%.+.{ ) W E / ` 3.( ' ' ( ' 3.3.' ' ' 2.] 3.2.Y Y Q _  .%.%.@.o.X. .:.1.>.-.=.a.[.[.[.[.[.",
"[.[.[.[.[.[.n.=.>.1.:.@.@.@.@.@.@.%.@._ E I U U W b Z N k k k k n D Z k k k k k A C 3.U I Y Y ~ X.%.%.@.X.X.&.1.<.-.y.[.[.[.[.[.",
"[.[.[.[.[.[.N.=.<.<.@.$.y.r.%.@.#.[ E I I I R R ] D #X].W.'.W._.).#X@X).'._._.J.|..Xj E R R R Y Y ^ @.*.%.@.o.:.1.-.y.[.[.[.[.[.",
"[.[.[.[.[.[.n.>.<.o.o.;.c.r.*.@.^ Y I U R E Q Q 5.F $XG.D.`.'.'.Q.#X@XE.'.`.W.A.I.$Xj ! ! ~ W W Y U E | *.%.o.o.<.-.a.[.[.[.[.[.",
"[.[.[.[.[.[.^.>.-. .o.#.*.r.@.~ U U U E E Q ! ^ 5.D OXV 8.A.S.D.F.}.{.C.D.A.Z.8.P.oXa ^ _ [ { ) Q R U E +.*.%.o.:.;.~.[.[.[.[.[.",
"[.[.[.[.[.[.(.n.%.} X.%.*.$._ Y E E E Q ^ _ ! T 5 D L v g h 7.h I.%X&XG.7.h h f x L t , ! _ { _ ~ Q R U E o.*.@.=.s./.[.[.[.[.[.",
"[.[.[.[.[.[.[.(.r.X.%.*.,.| Y U R E ! ^ ) 1 - * 4 m L K G {.L.S  XP .X}.F P.L.G G J t o o - T ) ^ ! Q R U ~ *.@.r.^.[.[.[.[.[.[.",
"[.[.[.[.[.[.[.[.Y.$.%.*.*.~ U E E ! W , > ( 2 - 4 l m Z N B B N  XH P {.N B B x H c w o X O . & R ^ Q R U E +.r.M.[.[.[.[.[.[.[.",
"[.[.[.[.[.[.[.[.[.T.t.j.*.Q U E ~ E = O 1 4.2.- 5 x L v p 8.S.Z.k G S n 0.D.8.p x J 3 $ X O . . o : ! Q E Y q.~.[.[.[.[.[.[.[.[.",
"[.[.[.[.[.[.[.[.[.[./.f.w.E R Q E * . O - 1 1 - u C OXM s A.'.'.J.C.C.J.'.'.A.s P. Xe % $ o . . . X I ! ) 6.U.[.[.[.[.[.[.[.[.[.",
"[.[.[.[.[.[.[.[.[.[.[.[.Y.5.Q Q = o . . O * = = 5 A +XV 8.D.'.'.'.'.'.'.'.'.A.s P.XXe & & % $ X . . + 2.0.Q.[.[.[.[.[.[.[.[.[.[.",
"[.[.[.[.[.[.[.[.[.[.[.[.[.].U.2.+ . . . O $ & ; 5 A $XV s A._.'.'.'.'.'._.W.Z.s P.+Xw * ; & $ O + u 0.Q.[.[.[.[.[.[.[.[.[.[.[.[.",
"[.[.[.[.[.[.[.[.[.[.[.[.[.[.[.).K.7.< - $ % & ; < x C y q i s f f f f f f d i q z C w   = 1 2 7.H.Q.[.[.[.[.[.[.[.[.[.[.[.[.[.[.",
"[.[.[.[.[.[.[.[.[.[.[.[.[.[.[.[.[.[.[.K.C.4.( 1 + 6 9 9 7 8 8 7 7 7 8 8 8 8 8 9 r t r i 9.H.Q.[.[.[.[.[.[.[.[.[.[.[.[.[.[.[.[.[.",
"[.[.[.[.[.[.[.[.[.[.[.[.[.[.[.[.[.[.[.[.[.[.[.Q.F.9.g p q 0 # @ @ @ # 0 q p f k F.K.).].[.[.[.[.[.[.[.[.[.[.[.[.[.[.[.[.[.[.[.[.",
"[.[.[.[.[.[.[.[.[.[.[.[.[.[.[.[.[.[.[.[.[.[.[.[.[.[.[.[.[.[.[.[.[.[.[.[.[.[.[.[.[.[.[.[.[.[.[.[.[.[.[.[.[.[.[.[.[.[.[.[.[.[.[.[.",
"[.[.[.[.[.[.[.[.[.[.[.[.[.[.[.[.[.[.[.[.[.[.[.[.[.[.[.[.[.[.[.[.[.[.[.[.[.[.[.[.[.[.[.[.[.[.[.[.[.[.[.[.[.[.[.[.[.[.[.[.[.[.[.[."
};
