/* XPM */
static char *_31721605366[] = {
/* columns rows colors chars-per-pixel */
"64 64 227 2 ",
"   c #363A4A",
".  c #3A3F50",
"X  c #4D4C53",
"o  c #474B5C",
"O  c #55555C",
"+  c #58575C",
"@  c #7E5B43",
"#  c #615B5B",
"$  c #6B675F",
"%  c #6D695E",
"&  c #76695C",
"*  c #4C5263",
"=  c #4E5465",
"-  c #555762",
";  c #555A67",
":  c #5B5C62",
">  c #545A6B",
",  c #5C6474",
"<  c #6C6961",
"1  c #68686A",
"2  c #726C67",
"3  c #78746E",
"4  c #656A74",
"5  c #626B7B",
"6  c #6D737C",
"7  c #797873",
"8  c #82573F",
"9  c #805C43",
"0  c #8A6649",
"q  c #946B4B",
"w  c #99714F",
"e  c #8B6F55",
"r  c #947354",
"t  c #9A7251",
"y  c #9A7858",
"u  c #A57B55",
"i  c #B37C52",
"p  c #BA7B5E",
"a  c #887D6A",
"s  c #907979",
"d  c #B57A6A",
"f  c #A9835C",
"g  c #B98558",
"h  c #99896C",
"j  c #95867A",
"k  c #9A877F",
"l  c #AB8863",
"z  c #B98C62",
"x  c #B5966C",
"c  c #B7996E",
"v  c #BA996C",
"b  c #AE9073",
"n  c #A79A7B",
"m  c #BB9C71",
"M  c #AAA17E",
"N  c #BCA174",
"B  c #C08C5C",
"V  c #C58F6D",
"C  c #C59A69",
"Z  c #F49D7F",
"A  c #CBA26D",
"S  c #C7A977",
"D  c #D4AC73",
"F  c #D0AA74",
"G  c #D9A779",
"H  c #D9B376",
"J  c #DAB77C",
"K  c #DDB97C",
"L  c #EAA97C",
"P  c #F6A47D",
"I  c #F6AC7A",
"U  c #E2BE7E",
"Y  c #ECB979",
"T  c #F6BB76",
"R  c #F8BF75",
"E  c #F5B479",
"W  c #F3BC7B",
"Q  c #D8C37D",
"!  c #DCCB7B",
"~  c #F8CE6E",
"^  c #F9D56D",
"/  c #F5D86D",
"(  c #F8DC6B",
")  c #EAC87A",
"_  c #F7C373",
"`  c #F8C373",
"'  c #F6CC73",
"]  c #F8C971",
"[  c #F1C67C",
"{  c #EBD679",
"}  c #F4D872",
"|  c #F9EA66",
" . c #F6E46B",
".. c #F8E469",
"X. c #F3E373",
"o. c #F2E47B",
"O. c #666F81",
"+. c #6A7485",
"@. c #6A7587",
"#. c #6C7789",
"$. c #797F86",
"%. c #727D8E",
"&. c #B57F9C",
"*. c #ED599A",
"=. c #F25C93",
"-. c #F15798",
";. c #D07390",
":. c #E86B89",
">. c #F36D8F",
",. c #E77A88",
"<. c #F4748D",
"1. c #F47C8A",
"2. c #EB689A",
"3. c #F26391",
"4. c #F36B90",
"5. c #E87699",
"6. c #F07594",
"7. c #D879A3",
"8. c #E070A4",
"9. c #7D848D",
"0. c #758194",
"q. c #788597",
"w. c #7C899C",
"e. c #818E9E",
"r. c #8C9194",
"t. c #A39A81",
"y. c #A89A81",
"u. c #B39098",
"i. c #9EA099",
"p. c #AFA68E",
"a. c #BBA69A",
"s. c #B4AC9B",
"d. c #BDAC9C",
"f. c #BDB19D",
"g. c #8492A4",
"h. c #8897A9",
"j. c #8C9CAD",
"k. c #909FAF",
"l. c #8E9EB0",
"z. c #B38DA1",
"x. c #AB9AA5",
"c. c #B798A7",
"v. c #B49DA5",
"b. c #8FA0B0",
"n. c #94A4B4",
"m. c #9DA9B4",
"M. c #96A7B8",
"N. c #97A8B8",
"B. c #9BACBC",
"V. c #ABA4A6",
"C. c #A7A6AB",
"Z. c #A9A7A8",
"A. c #AAA4AA",
"S. c #B3A4A4",
"D. c #B7A7A7",
"F. c #B4ABA5",
"G. c #B3B3A9",
"H. c #C8899F",
"J. c #C7979C",
"K. c #D49093",
"L. c #F48487",
"P. c #F48C85",
"I. c #F38289",
"U. c #F58C8A",
"Y. c #E7998B",
"T. c #F59383",
"R. c #F59B81",
"E. c #F09D8D",
"W. c #E88693",
"Q. c #E69499",
"!. c #F19196",
"~. c #C4A985",
"^. c #D9A98A",
"/. c #CBB381",
"(. c #C9B58A",
"). c #DCB583",
"_. c #D4BA86",
"`. c #DBBB82",
"'. c #DCB48C",
"]. c #C7A596",
"[. c #CBAB96",
"{. c #C4A59C",
"}. c #C3AB9B",
"|. c #D6AB94",
" X c #C3B292",
".X c #CCB896",
"XX c #C4B69D",
"oX c #D6B695",
"OX c #E7A887",
"+X c #F6A484",
"@X c #E7B984",
"#X c #EBA190",
"$X c #C588A4",
"%X c #C98CA1",
"&X c #C293A2",
"*X c #C796A7",
"=X c #D693AE",
"-X c #E494B3",
";X c #C5A4A9",
":X c #D4ADAA",
">X c #E7ACAB",
",X c #DAC488",
"<X c #D8C996",
"1X c #DCD09C",
"2X c #E4C383",
"3X c #E6CC86",
"4X c #E5CA8C",
"5X c #E5CD95",
"6X c #EDD493",
"7X c #E8D397",
"8X c #EBD991",
"9X c #F2E19F",
"0X c #D7CBA7",
"qX c #ECDAAA",
"wX c #E6D9B6",
"eX c #EFE1A5",
"rX c #F4E4A4",
"tX c #FAEAA6",
"yX c #F5E7A8",
"uX c #FBEDAB",
"iX c #F6EAB9",
"pX c #FCF0B9",
"aX c #9FB1C0",
"sX c #A0B2C0",
"dX c #DEDED2",
"fX c #F8F0CC",
"gX c #FAF7E7",
/* pixels */
"C.C.C.C.C.C.C.C.C.C.C.C.C.C.C.C.C.C.C.C.C.C.C.C.C.C.C.C.C.C.C.C.C.C.C.C.C.C.C.C.C.C.C.C.C.C.C.C.C.C.C.C.C.C.C.C.C.C.C.C.C.C.C.C.",
"C.C.C.C.C.C.C.C.C.C.C.C.C.C.C.C.C.C.C.C.C.C.C.C.C.C.C.C.C.C.C.C.C.C.C.C.C.C.C.C.C.C.C.C.C.C.C.C.m.C.C.C.C.C.C.C.C.C.C.C.C.C.C.C.",
"C.C.C.C.C.C.C.C.C.C.C.C.C.C.C.C.C.C.C.C.C.C.C.C.C.C.C.C.C.C.C.C.C.C.C.C.C.C.C.C.C.C.C.C.C.C.C.C.C.C.C.C.C.C.C.C.C.C.C.C.C.C.C.C.",
"C.C.C.C.C.C.C.C.C.C.C.C.C.C.C.C.C.C.C.C.C.C.C.C.C.C.C.C.C.C.C.C.C.C.C.C.C.C.C.C.C.C.C.C.C.C.C.C.C.C.C.C.C.C.C.C.C.C.C.C.C.C.C.C.",
"C.C.C.C.C.C.C.C.C.C.C.C.C.C.C.C.C.C.C.C.C.C.C.C.C.C.C.C.C.C.C.C.C.C.C.C.C.C.C.C.C.C.C.C.C.C.C.C.C.C.C.C.C.C.C.C.C.C.C.C.C.C.C.C.",
"C.C.C.C.C.C.C.C.C.C.C.C.C.C.C.C.C.C.C.C.C.C.C.C.C.C.C.C.C.C.C.C.C.C.C.C.C.C.C.C.C.C.C.C.C.C.C.C.C.C.C.C.C.C.C.C.C.C.C.C.C.C.C.C.",
"C.C.C.C.C.C.C.C.C.C.C.C.C.C.C.C.C.C.C.C.C.C.C.C.C.C.C.C.C.C.C.C.C.C.C.C.C.C.C.C.C.C.C.C.C.C.C.C.C.Z.C.C.C.C.C.C.C.C.C.C.C.C.C.C.",
"C.C.C.C.C.C.C.C.C.C.C.C.C.C.C.C.C.C.C.C.C.C.C.C.C.C.C.C.C.C.C.C.C.C.C.C.C.C.C.C.C.C.C.C.C.C.C.C.C.C.C.C.C.C.C.C.C.C.C.C.C.C.C.C.",
"C.C.C.C.C.C.C.C.C.C.C.C.C.C.C.C.C.C.C.C.C.C.C.C.C.C.C.C.C.C.C.C.C.C.C.C.C.C.C.C.C.C.C.C.C.C.C.C.C.C.C.C.C.C.C.C.C.C.C.C.C.C.C.C.",
"C.C.C.C.C.C.C.C.C.C.C.C.C.C.C.C.C.C.C.C.C.C.C.C.C.C.C.C.C.C.C.C.C.C.C.C.C.C.C.C.C.C.C.C.C.C.C.C.G.C.C.C.C.C.C.C.C.C.C.C.C.C.C.C.",
"C.C.C.C.C.C.C.C.C.C.C.C.C.C.C.C.C.C.C.C.C.C.C.C.C.V.C.C.C.C.C.C.C.C.C.C.C.C.C.C.C.C.C.C.C.C.C.C.m.C.C.C.C.C.C.C.C.C.C.C.C.C.C.C.",
"C.C.C.C.C.C.C.C.C.C.C.C.C.C.C.C.C.C.C.C.C.C.C.C.C.C.C.C.C.C.C.C.C.C.C.C.C.C.C.C.C.C.C.C.C.C.C.C.C.C.C.C.C.C.C.C.C.C.C.C.C.C.C.C.",
"C.C.C.C.C.C.C.C.C.C.C.C.C.C.C.C.C.C.C.C.C.C.C.C.C.C.C.C.C.C.C.C.C.C.C.C.C.C.C.C.C.C.C.C.C.C.C.C.C.C.C.C.C.C.C.C.C.C.C.C.C.C.C.C.",
"C.C.C.C.C.C.C.C.C.C.C.C.C.C.C.C.C.C.C.C.C.C.C.C.C.C.C.C.C.C.C.C.C.C.C.C.C.C.C.C.C.C.C.C.C.C.C.C.C.C.C.C.C.C.C.C.C.C.C.C.C.C.C.C.",
"C.C.C.C.C.C.C.C.C.C.C.C.C.C.C.C.C.C.C.C.C.C.C.C.C.C.C.C.C.C.C.C.C.C.C.C.C.C.C.C.C.C.C.C.C.C.C.C.C.C.C.C.C.C.C.C.C.C.C.C.C.C.C.C.",
"C.C.C.C.C.C.C.C.C.C.C.C.C.C.C.C.C.C.C.C.C.C.C.C.C.C.C.C.C.C.C.C.C.C.C.C.C.C.C.C.C.C.C.C.C.C.C.C.C.C.C.C.C.C.C.C.C.C.C.C.C.C.C.C.",
"C.C.C.C.C.C.C.C.C.C.C.C.C.C.V.A.C.C.Z.Z.A.C.C.C.C.C.C.C.C.C.C.C.C.C.C.C.A.A.C.C.C.C.Z.A.C.A.C.Z.C.C.C.C.C.C.C.C.C.C.C.C.C.C.C.C.",
"C.C.C.C.C.C.C.C.C.C.C.C.A.*X%X%XJ.J.J.c.A.C.C.C.a.].}.[.[.S.C.C.C.a.[.[.[.].S.A.C.C.A.A.&XJ.H.H.%X$X$XA.C.C.C.C.C.C.C.C.C.C.C.C.",
"C.C.C.C.C.C.C.C.C.C.C.C.C.;.3.6.I.L.T.Y.A.C.C.C.].E E T T |.C.C.C.|.E E E I |.A.C.C.A.%XI.1.>.3.=.*.7.x.C.C.C.C.C.C.C.C.C.C.C.C.",
"C.C.C.C.C.C.C.C.C.C.C.C.C.z.:.1.P.T.T.+X;XC.C.C.a.T ` ` ` oXC.C.x.'.` ` T E D.A.C.C.S.Y.L.I.1.>.3.2.c.A.C.C.C.C.C.C.C.C.C.C.C.C.",
"C.C.C.C.C.C.C.C.C.C.C.C.A.x.;.W.T.T.P P OXV.A.Z.v.Y ^ ~ ' ,XC.C.A.2X~ ] _ Y A.A.C.C.{.R.T.P.1.1.6.%XC.C.C.C.C.C.C.C.C.C.C.C.C.C.",
"C.C.C.C.C.C.C.C.C.C.C.C.C.j.z.,.R.P I E E F.C.C.V.@X^ ^ ^ 2XC.C.S.) ^ ^ ' @XZ.A.C.S.OXP Z T.P.1.W.A.C.C.C.C.C.C.C.C.C.C.C.C.C.C.",
"C.C.C.C.C.C.C.*X-XA.C.C.C.C.A.;.R.P I T ` oXA.C.A.).( (  .3XA.Z.F.} ( ^ ^ .XC.A.A.[.I I P Z T.!.c.C.C.C.C.C.C.C.C.C.C.C.C.C.C.C.",
"C.C.C.C.C.A.A.$X-.-XA.C.C.C.C.x.,.E T ` ] [ F.C.A.~...| | 3XZ.C.d. ...( } f.C.A.S.@XE E I P T.*Xm.A.C.C.C.C.C.A.C.C.C.C.C.C.C.C.",
"C.C.C.C.C.C.C.7.=.3.-XC.A.C.C.C.u.L R ~ ' ^ oXA.C.a...| | { C.Z. X..| | { G.Z.C.[.] ` T I P K.A.C.C.C.C.A.A.*X7.x.C.C.C.C.C.C.C.",
"C.C.C.C.C.C.C.$X3.:.6.>XF.C.C.C.x.K._ ~ ^ ( { Z.C.F./ | | { G.C.(.| | | ,XA.C.F.[ ' ] ` E OXS.C.C.C.C.C.A.*X2.-.A.C.C.C.C.C.C.C.",
"C.C.C.C.C.C.A.H.3.<.1.U.>XC.C.C.V.x.H ^ ( ( ..XXC.V.{ | | X.F.C.,X| |  ..XC.Z.(.^ ^ ~ _ W {.A.C.C.C.C.D.=X6.3.=.x.C.C.C.C.C.C.C.",
"C.C.C.C.C.C.C.H.4.<.1.U.R.>XA.C.C.x.~.~  .| | 3XC.C.K | |  .F.V.) | |  .f.A.S.) ..( ^ ] |.A.C.C.C.C.c.Q.1.4.>.=.A.C.C.C.C.C.C.C.",
"C.C.C.C.C.C.A.$X4.<.L.P.R.+X>XF.C.C.C.J  . .| X.F.Z.(.| |  .F.F.! | | { F.Z..X....( ^ @XS.Z.C.x.C.;XQ.P.L.1.>.3.A.C.C.C.C.C.C.C.",
"C.C.C.C.C.C.A.%X>.1.L.T.Z P L [.(.p.y.a.{ X.X.X.<XF.f.o.o.! (. X,XQ o.4XF.F.3XX.X.X.{ XXi.a. X X{.#XR.T.L.1.<.4.A.C.C.C.C.C.C.C.",
"C.C.C.C.C.C.C.$X<.1.L.T.Z OXm u t w l n n n M M n y.t.M y.c y w r y N t.t.t.M M M M y.t.n y t t l G Z T.L.I.<.4.A.A.C.C.C.C.C.C.",
"C.C.C.C.C.C.C.c.6.1.P.T.R.C y l J N & : ; ; > ; > ; > = : e N _.J f & ; ; ; ; : ; ; > > : y /.S w u G Z U.1.<.4.A.C.C.C.C.C.C.C.",
"C.C.C.C.C.C.C.C.c.5.U.T.'.u f <XqX0X9.j.n.n.n.n.n.n.n.n.n.G.7XqXwX<XZ.N.n.B.n.n.B.n.n.m.e.r.qXqXS 0 V R.Z ,.,.H.A.A.C.C.C.C.C.C.",
"C.C.C.C.C.C.C.C.A.S.%XE.'.t S fXgXdXw.n.aXaXaXaXaXaXaXaXaXG.rXfXgXdXB.B.B.B.B.B.B.B.B.B.g.m.gXgXwXf z +XZ W.c.A.C.C.C.C.C.C.C.C.",
"C.C.C.C.C.C.C.C.C.C.A.F.oXy .XpXpX0X6 0.g.b.n.N.N.N.N.l.g.Z.yXpXgXdXw.h.n.N.B.N.N.n.j.e.%.r.iXpXiXb V E.J.v.C.C.C.C.C.C.C.C.C.C.",
"C.C.C.C.C.C.C.C.C.C.C.C.XXt _.uXtX<X1 %.q.g.g.j.l.n.l.g.%.i.yXpXuX1X9.w.j.b.b.b.j.g.e.q.6 7 qXtXyXl b *XA.C.C.C.C.C.C.C.C.C.C.C.",
"C.C.C.C.C.C.C.C.C.C.C.C.XXt _.tXtX(.4 w.N.N.h.n.B.N.B.N.n.i.4X5X,X,Xr.N.N.N.B.N.n.h.N.k.0.7 7XuXrXf j V.C.C.C.C.C.C.C.C.C.C.C.C.",
"C.C.C.C.C.C.C.C.C.C.C.C.XXw A 6X3XN + > @.@.@.@.+.@.@.@.6 3 A A F c 1 +.@.@.#.6 +.+.+.5 = 2 ,X6X5Xu j V.C.C.C.C.C.C.C.C.C.C.C.C.",
"C.C.C.C.C.C.C.C.C.C.C.C.XXt C K U N + , @.#.#.#.#.#.@.+.2 p.1X7XwX0Xh 5 #.@.0.5 @.#.@.#.; 2 J Q ) u t.k.C.C.C.C.C.C.C.C.C.C.C.C.",
"C.C.C.C.C.C.C.C.C.C.C.A.XXw v ) D f O , +.+.O.+.@.+.@.5 p.iXgXfXgXgXwX7 6 +.+.@.+.@.+.@.> # C K U w &.i.C.C.C.C.C.C.C.C.C.C.C.C.",
"C.C.C.C.C.C.C.C.C.C.C.C.XXy C ,XA f + + : : : : : : O O f.uXfXrXfXgXfXa O : : : : : : : + % z H H u j C.C.C.C.C.C.C.C.C.C.C.C.C.",
"C.C.C.C.C.C.C.C.C.C.C.C.XXt C Y U 3X<X/.<X1X1X1X1X1XS f ,XuX`.g v qXiXv f <X1X1X1X1X<X,X/.<X`.K J r t.C.C.C.C.C.C.C.C.C.C.C.C.C.",
"C.C.C.C.C.C.C.C.C.C.C.C.XX0 f C C A U D D ).`.J K J F g 3XuXF i B 7XiXS g F J J J Q J F F H A C C 0 j C.C.C.C.C.C.C.C.C.C.C.C.C.",
"C.C.C.C.C.C.C.C.C.C.C.C.XX@ 0 i i g z c c x c x c x x c 7XtXF g p 4XyX/.x c x c c c c v c v g i i 8 s C.C.C.C.C.C.C.C.C.C.C.C.C.",
"C.C.C.C.C.C.C.C.C.C.C.A.XX@ q g i f + O O O O O O O = + p.8XF g B ) 4Xa - O O O O O O O O % z i i 8 d F.C.C.C.C.C.C.C.C.C.C.C.C.",
"C.C.C.C.C.C.C.C.C.C.x.:XoX8 f D D x O o * > +.%.0.%.0.5 1 S K H H H b 1 +.0.0.0.0., * * o < F D A @ z #XJ.A.C.C.C.C.C.C.C.C.C.C.",
"C.C.C.C.C.C.C.C.x.c.Q.+X'.0 g 2X) A O * #.q.n.B.n.j.N.w., 2 n h b h O 6 h.M.j.M.N.j.0.+.o 2 ,XJ U q d R.P.K.S.C.C.C.C.C.C.C.C.C.",
"C.C.C.C.C.C.C.C.z.W.T.P '.@ x 2X2XS O o , 5 %.h.j.h.n.j.0.> ; ; - = , w.l.j.h.j.g.+., , o 2 ,X2XU q p R.T.U.5.%XC.C.C.C.C.C.C.C.",
"C.C.C.C.C.C.C.7.6.P.T.R.'.@ S yXyX,XO > 0.0.q.b.N.N.B.aXN.b.b.b.b.j.n.B.N.B.B.B.j.0.0.#.* 3 qXtX7Xr p Z T.L.<.>.A.C.C.C.C.C.C.C.",
"C.C.C.C.C.C.C.6.<.L.T.R.'.@ ~.yXyX<XO +.q.0.w.N.aXN.B.aXaXB.B.B.B.B.B.B.aXaXB.B.n.w.w.w., 7 9XtXrXr p T.L.L.<.4.C.A.C.C.C.C.C.C.",
"C.C.C.C.C.C.C.>.<.L.P.R.'.@ N 8X8XS O ; , , 0.j.b.j.j.b.j.l.b.j.j.b.j.l.l.j.b.j.h.O., , * 3 5X6X5Xq p P.L.1.6.3.C.C.C.C.C.C.C.C.",
"C.C.C.C.C.C.C.3.<.L.P.T.'.@ /.uXtX<XO , 0.w.n.B.N.aXaXN.B.B.B.B.B.B.B.B.B.B.B.B.B.n.w.%.* 7 yXuX9Xr d U.L.<.4.3.C.C.C.C.C.C.C.C.",
"C.C.C.C.C.C.C.3.6.1.U.T.'.@ ~.uXuX<X+ ; 5 O.%.g.b.b.N.b.j.j.n.N.B.n.l.j.n.n.j.j.w.#.O., * 7 yXuXrXr s W.6.<.3.=.C.C.C.C.C.C.C.C.",
"C.C.C.C.C.C.C.3.4.<.L.!..X9 v rX8X/.+ * , , O.w.j.j.j.j.j.j.j.j.b.j.j.j.j.j.h.g.w., , , o 2 7X7X5Xr s c.*XW.-.-.C.C.C.C.C.C.C.C.",
"C.C.C.C.C.C.C.=.3.<.W.:Xf.0 9 t w & X       . * * * * * * * * * * * * * * * * * o . .     X e r r @ r.A.A.c.=X*.C.C.C.C.C.C.C.C.",
"C.C.C.C.C.C.C.-.4.6.;XC.Z.y.r r w e $ < < < < % < < $ $ $ < $ $ < < < % $ < $ % < % $ 1 % & r r r y y.A.C.C.A.$XC.C.C.C.C.C.C.C.",
"C.C.C.C.C.C.A.-.2.=XC.C.C.A.F.].@X).`.`.2X Xs.s.s.,X! ) !  Xs.s.,X! ! Q _.s.s.s.[.).).).^.^.^.{.f.s.C.C.C.C.C.C.C.C.C.C.C.C.C.C.",
"C.C.C.C.C.C.C.2.*XC.C.C.C.C.u.,.P I E R W D.C.C.a.} (  .( }.C.C._./ ( ^ ) F.C.C.Z.OXI I Z Z L.K.C.C.C.C.C.C.C.C.C.C.C.C.C.C.C.C.",
"C.C.C.C.C.C.C.c.C.C.C.C.A.x.;.P.Z P I W '.A.V.C.].~ ^ ^ } f.C.C. X( ^ ~ ' }.C.C.C.].P P Z Z 1.1.&XC.C.C.C.C.C.C.C.C.C.C.C.C.C.C.",
"C.C.C.C.C.C.C.C.C.C.C.C.C.z.,.P.T.R.P L ;XC.C.C.~._ ] ] ' F.C.C.}.' ] _ _ |.C.C.C.A.Y.T.P.L.1.>.5.c.C.C.C.C.C.C.C.C.C.C.C.C.C.C.",
"C.C.C.C.C.C.C.C.C.C.C.C.x.;.<.1.P.T.R.#XV.C.C.C.OX` R _ ` S.A.C.F.[ _ _ T OXA.Z.C.C.*XT.L.1.<.4.3.7.C.C.C.C.C.C.C.C.C.C.C.C.C.C.",
"C.C.C.C.C.C.C.C.C.C.C.C.x.:.<.<.I.T.T.J.C.C.C.V.OXE T T @XV.A.C.v.L E E I OXA.Z.C.C.V.W.1.<.4.3.*.*.z.C.C.C.C.C.C.C.C.C.C.C.C.C.",
"C.C.C.C.C.C.C.C.C.C.C.C.V.H.c.J.&XJ.J.A.C.C.C.V.{.{.a.}.d.A.C.C.V.{.{.{.{.{.Z.A.C.C.A.v.&X&Xc.&X$X$Xc.A.C.C.C.C.C.C.C.C.C.C.C.C.",
"C.C.C.C.C.C.C.C.C.C.C.C.C.C.C.A.C.C.C.C.C.C.C.C.C.C.C.C.C.C.C.C.C.A.C.C.C.C.C.A.C.C.C.C.C.Z.C.C.C.C.C.A.C.C.C.C.C.C.C.C.C.C.C.C."
};
