/* XPM */
static char *_B1721605362[] = {
/* columns rows colors chars-per-pixel */
"64 64 177 2 ",
"   c #02012A",
".  c #09082C",
"X  c #040232",
"o  c #05033D",
"O  c #121132",
"+  c #1D1C39",
"@  c #06044A",
"#  c #09054A",
"$  c #110F43",
"%  c #060457",
"&  c #0B0755",
"*  c #0D0957",
"=  c #070459",
"-  c #09065C",
";  c #0C0A5C",
":  c #2E2D44",
">  c #37374E",
",  c #38374F",
"<  c #3C3B51",
"1  c #0A0763",
"2  c #0D0964",
"3  c #0D096B",
"4  c #120D64",
"5  c #130B6B",
"6  c #161365",
"7  c #191465",
"8  c #1B1769",
"9  c #0E0A73",
"0  c #0F0A79",
"q  c #120C74",
"w  c #190E74",
"e  c #120C7A",
"r  c #190F7E",
"t  c #1C1174",
"y  c #1E117A",
"u  c #231D6C",
"i  c #251A7E",
"p  c #242264",
"a  c #282761",
"s  c #2B2A6B",
"d  c #3D3C6E",
"f  c #292471",
"g  c #2A237C",
"h  c #312A75",
"j  c #3E387D",
"k  c #454455",
"l  c #484758",
"z  c #545462",
"x  c #5F5F6A",
"c  c #4E4D77",
"v  c #5F5E7D",
"b  c #62626E",
"n  c #6A6973",
"m  c #71707A",
"M  c #210F86",
"N  c #220F88",
"B  c #231186",
"V  c #25128A",
"C  c #29148D",
"Z  c #291A89",
"A  c #2A1A8C",
"S  c #2B1692",
"D  c #2E1994",
"F  c #321C95",
"G  c #331C9B",
"H  c #2F268A",
"J  c #3C3987",
"K  c #2F2393",
"L  c #332396",
"P  c #332992",
"I  c #3C2C95",
"U  c #35249C",
"Y  c #3A229D",
"T  c #373397",
"R  c #3A379C",
"E  c #371FA0",
"W  c #3C24A0",
"Q  c #3F34A3",
"!  c #473B95",
"~  c #4126A2",
"^  c #432CA3",
"/  c #4B27AE",
"(  c #472DA8",
")  c #4533A5",
"_  c #413DA2",
"`  c #4E31AF",
"'  c #4E2AB0",
"]  c #522DB2",
"[  c #5F29B2",
"{  c #4F30B0",
"}  c #5432B5",
"|  c #5A34B6",
" . c #5538B5",
".. c #5B3BB4",
"X. c #5735B8",
"o. c #5A36B8",
"O. c #5C3BBA",
"+. c #622CB4",
"@. c #6532B5",
"#. c #6834B7",
"$. c #673AB2",
"%. c #693CB3",
"&. c #6434B8",
"*. c #6A35BA",
"=. c #633CBB",
"-. c #6D3ABD",
";. c #703CBE",
":. c #454183",
">. c #564E8C",
",. c #53518A",
"<. c #645B97",
"1. c #6B6A8C",
"2. c #706F87",
"3. c #7C7C84",
"4. c #77778C",
"5. c #6B669D",
"6. c #706F90",
"7. c #79749F",
"8. c #4946AB",
"9. c #5344A0",
"0. c #5E44BA",
"q. c #6C43B2",
"w. c #6342BD",
"e. c #6849BA",
"r. c #6A4DBC",
"t. c #714BB3",
"y. c #7644BD",
"u. c #784CBC",
"i. c #7554B2",
"p. c #7759B1",
"a. c #7A5DB2",
"s. c #5465AF",
"d. c #5F75B9",
"f. c #7D63B0",
"g. c #7C6AB7",
"h. c #6F3FC0",
"j. c #723FC0",
"k. c #6342C1",
"l. c #6849C2",
"z. c #7443C2",
"x. c #7946C2",
"c. c #764AC4",
"v. c #7B4BC5",
"b. c #7455C1",
"n. c #7A53C7",
"m. c #7C5EC8",
"M. c #817F98",
"N. c #816BAF",
"B. c #8C7CAF",
"V. c #836CB1",
"C. c #8573B3",
"Z. c #8977B0",
"A. c #8C7BB1",
"S. c #907FB4",
"D. c #804FC4",
"F. c #8554C8",
"G. c #816ECD",
"H. c #9265CC",
"J. c #9C72D0",
"K. c #88878E",
"L. c #8D8C94",
"P. c #8B8A9B",
"I. c #94939C",
"U. c #8D81AF",
"Y. c #9286AF",
"T. c #968CAE",
"R. c #988FAF",
"E. c #9593A2",
"W. c #9C9BA3",
"Q. c #9C95AE",
"!. c #9E9AAC",
"~. c #9389B0",
"^. c #958BB4",
"/. c #9C97B0",
"(. c #A19DAD",
"). c #A2A1A7",
"_. c #A7A6AB",
/* pixels */
"_._._._._._._._._._._._._._._._._._._._._._._._._._._._._._._._._._._._._._._._._._._._._._._._._._._._._._._._._._._._._._._._.",
"_._._._._._._._._._._._._._._._._._._._._._._._._._._._._._._._._._._._._._._._._._._._._._._._._._._._._._._._._._._._._._._._.",
"_._._._._._._._._._._._._._._._._._._._._._._._._._._._._._._._._._._._._._._._._._._._._._._._._._._._._._._._._._._._._._._._.",
"_._._._._._._._._._._._._._._._._._._._._._._._._._._._._._._._._._._._._._._._._._._._._._._._._._._._._._._._._._._._._._._._.",
"_._._._._._._._._._._._._._._._._._._._._._._._._._._._._._._._._._._._._._._._._._._._._._._._._._._._._._._._._._._._._._._._.",
"_._._._._._._._._._._._._._._._._._._._._._._._._._._._._._._._._._._._._._._._._._._._._._._._._._._._._._._._._._._._._._._._.",
"_._._._._._._._._._._._._._._._._._._._._._._._._._._._._._._._._._._._._._._._._._._._._._._._._._._._._._._._._._._._._._._._.",
"_._._._._._._._._._._._._._._._._._._._._._._._._._._._._._._._._._._._._._._._._._._._._._._._._._._._._._._._._._._._._._._._.",
"_._._._._._._._._._._._._._._._._._._._._._._._._._._._._._._._._._._._._._._._._._._._._._._._._._._._._._._._._._._._._._._._.",
"_._._._._._._._._._._._._._._._._._._._._._._._._._._._._._._._._._._._._._._._._._._._._._._._._._._._._._._._._._._._._._._._.",
"_._._._._._._._._._._._._._._._._._._._._._._._._._._._._._._._._._._._._._._._._._._._._._._._._._._._._._._._._._._._._._._._.",
"_._._._._._._._._._._._._._._._._._._._._._._._._._._._._._._._._._._._._._._._._._._._._._._._._._._._._._._._._._._._._._._._.",
"_._._._._._._._._._._._._._._._._._._._._._._._._._._._._._._._._._._._._._._._._._._._._._._._._._._._._._._._._._._._._._._._.",
"_._._._._._._._._._._._._._._._._._._._._._._._._._._._._._._._._._._._._._._._._._._._._._._._._._._._._._._._._._._._._._._._.",
"_._._._._._._._._._._._._._._._._._._._._._._._._._._._._._._._._._._._._._._._._._._._._._._._._._._._._._._._._._._._._._._._.",
"_._._._._._._._._._._._._._._._._._._._._._._._._._._._._._._._._._._._._._._._._._._._._._._._._._._._._._._._._._._._._._._._.",
"_._._._._._._._._._._._._._._._._._._._._._._._._._._._._._._._._._._._._._._._._._._._._._._._._._._._._._._._._._._._._._._._.",
"_._._._._._._._._._._._._._._._._._._._._._._._._._._._._._._._._._._._._._._._._._._._._._._._._._._._._._._._._._._._._._._._.",
"_._._._._._._._._._._._._._._._._._._._._._._._._._._._._._._._._._._._._._._._._._._._._._._._._._._._._._._._._._._._._._._._.",
"_._._._._._._._._._._._._._._._._._._._._._._._._._._._._._._._._._._._._._._._._._._._._._._._._._._._._._._._._._._._._._._._.",
"_._._._._._._._._._._._._._._._._._._._._._._._._._._._._._._._._._._._._._._._._._._._._._._._._._._._._._._._._._._._._._._._.",
"_._._._._._._._._._._._._._._._._._._._._._._._._._._._._._._._._._._._._._._._._._._._._._._._._._._._._._._._._._._._._._._._.",
"_._._._._._._._._._._._._._._._._._._._._._._._._._._._._._._._._._._._._._._._._._._._._._._._._._._._._._._._._._._._._._._._.",
"_._._._._._._._._._._._._._._._._._._._._._._._._._._._._._._._._._._._._._._._._._._._._._._._._._._._._._._._._._._._._._._._.",
"_._._._._._._._._._._._._._._._._._._._._._._._._._._._._._._._._._._._._._._._._._._._._._._._._._._._._._._._._._._._._._._._.",
"_._._._._._._._._._._._._._._._._._._._._._._._._._._._._._._._._._._._._._._._._._._._._._._._._._._._._._._._._._._._._._._._.",
"_._._._._._._._._._._._._._._._._._._._._._._._._._._._._._._._._._._._._._._._._._._._._._._._._._._._._._._._._._._._._._._._.",
"_._._._._._._._._._._._._._._._._._._._._._._._._._._._._._._._._._._._._._._._._._._._._._._._._._._._._._._._._._._._._._._._.",
"_._._._._._._._._._._._._._._._._._._._._._._._._._._._._._._._._._._._._._._._._._._._._._._._._._._._._._._._._._._._._._._._.",
"_._._._._._._._._._._._._._._._._._._._._._._._._._._._._._._._._._._._._._._._._._._._._._._._._._._._._._._._._._._._._._._._.",
"_._._._._._._._._._._._._._._._._._._._._._._._._._._._._._._._._._._._._._._._._._._._._._._._._._._._._._._._._._._._._._._._.",
"_._._._._._._._._._._._._._._._._._._._._._._._._._._._.(.(.Q.(.(._._._._._._._._._._._._._._._._._._._._._._._._._._._._._._._.",
"_._._._._._._._._._._._._._._._._._._.(.Q.Y.Z.f.p.t.q.%.$.$.@.@.*.$.@.$.%.q.i.a.V.B.R.(.(._._._._._._._._._._._._._._._._._._._.",
"_._._._._._._._._._._._._._._.(.T.B.i.q.@.+.[ [ [ [ +.+.+.+.+.+.+.+.+.+.+.+.+.+.+.+.%.y.i.N.B.(.)._._._._._._._._._._._._._._._.",
"_._._._._._._._._._._._.(.^.N.q.@.[ [ +.[ +.+.+.+.@.*.*.*.#.*.*.*.*.*.*.*.+.@.+.#.-.y.x.%.+.+.%.p.B.(.(._._._._._._._._._._._._.",
"_._._._._._._._._._.!.B.t.+.[ +.[ +.+.+.@.+.@.*.*.-.r.z.z.-.-.j.j.;.-.-.-.-.-.-.-.x.H.J.D.*.+.+.+.+.$.N.R.(._._._._._._._._._._.",
"_._._._._._._._.!.C.q.[ +.+.+.+.+.@.*.*.*.*.-.-.y.c.m.m.v.c.z.z.z.z.z.z.j.j.j.j.z.D.H.J.D.;.*.*.+.+.+.+.+.p.Y.(._._._._._._._._.",
"_._._._._.)._.A.q.+.[ +.+.+.+.*.*.-.-.-.;.j.j.j.c.n.G.m.n.v.z.z.z.x.z.z.x.x.z.x.z.v.F.F.D.j.*.;.*.@.+.+.+.+.+.N.(._._._._._._._.",
"_._._._.).(.f.[ +.+.+.+.@.*.-.j.h.h.j.z.y.h.-.=.w.w.0.0.} } ] ] ] ] ] ] ] X.&.h.h.j.x.v.x.x.z.j.;.;.*.*.+.+.+.+.%.S.(._._._._._.",
"_._._._.R.t.[ +.+.+.#.*.*.h.j.j.z.z.-.&.} ] } ] } { {  .] ' ' ' ' ' / ' / / / / / ' ] | *.j.j.j.j.j.;.*.*.*.+.+.[ @.Z.(._._._._.",
"_._.).R.q.[ +.+.+.*.-.j.j.j.h.=.| ' ' ' ' ] } O.o.} } ] ] } ] ] ] ' ' ' ' ' / / ' ' ' ' ' / ] o.h.j.j.j.j.*.*.@.+.+.+.V.(._._._.",
"_._.Q.t.+.+.+.+.*.-.j.j.-.&.] / ' / ' ' ' X.O.r.O.O.o.X.X.X.X.} X.X.X.] ] ] ] ] ' } { ' ' ' / / / [ @.j.j.j.-.*.#.@.+.+.Z._._._.",
"_._.N.[ +.+.#.*.-.j.-.X.' ' ' ] ] ' ] ] } O.=.w.O. .} { { { ` ` ' ' ] X.X.X.X.X.X.0.0.{ { ' ' ' / / / ] &.h.j.;.*.#.+.+.%.Y._._.",
"_.R.@.+.+.@.*.-.j.o.] ' ' ' } } } X.X.X.' ( ~ Y L A C V V N N V V V C S D G W (  .0.0.0.o.} ] ' ' ' ' / / ] *.j.;.;.*.+.+.N.(._.",
"_.V.+.+.@.*.-.*.] ' ' ' } } } X.' ( U S V V Z Z A Z V N M M V V V V N N M M N N A U Q {  .O.X.X.X.] ] ' / / / | ;.;.*.*.+.%.(.(.",
"_.i.+.#.-.;.*.] ' ' } X.} O.' W S V V N V A K T T K A V V C C C C C V N V N N V B N B V D W { X.X.} } ] ] ] ] ] +.j.j.*.+.+.Y._.",
"(.t.@.;.-.-.] ' ] X.X.o.{ Y V B V M N V V K R s.s.R D S C S D F U F D S C C V V V V N N N M V Y } O.X.] ] } | } } &.;.-.*.+.A._.",
"_.t.@.-.-.| ' ] X.O.X.~ V M V V V V C V S P _ d.d._ U D D G G Y Y U G F D D S S S C V C N N M M C W o.o.X...e.b...] *.;.*.#.A._.",
"_.a.@.-.&.] ] X.O.} G M M V C F F F S F F U ) 8.8.) U U G G G Y W W E G G G G D D S S S V V V N N N G } O.O.k.b...] ] -.-.*.Y.).",
"_.Z.@.*.] } O.O.} D V V V C F I ~ G G G E G U P H i t q 5 5 5 5 5 5 w r B S D G E G G D S C V V V N M D } 0.w.w.| ] / &.-.t.(._.",
"_.(.u.&.] } O.} D N V V C F ~ ( ^ Y F V w 5 ; ; ; - % % = = = = - = % % % - ; 5 w V F G G G S C V V V M F O.O.O.} ' / ] ;.C._._.",
"_._.A.=.] O.O.Y B V V V F F Y Y A i 4 - - % - - - - - - 1 - 1 ; - - = - - - % % % - 5 i L G G D S V C M N W k.O.| } ' ' u./._._.",
"_._._.g.} O.` V N V C D G G A t 4 - % = % - - - 1 1 1 5 5 3 5 2 3 1 1 1 1 2 - - % * 7 u f g F G D S V N N C ..h.O.} ' ..~._._._.",
"_._._.(.g.O.W V V C S D S w & % % - - - 1 1 1 3 3 3 q e 3 e e e q q q 5 5 5 1 1 1 2 8 j >.s 6 y D D S V N N ( k.O.} ..A._._._._.",
"_._._._.(.C.U V V S S C 2 % % % = = - 1 1 3 5 e e y r e e e e e e e 9 9 9 q 5 3 2 5 u :.<.h 6 ; 5 S D S V N E k.k.r.Y._._._._._.",
"_._._._._.).U.J S S C 2 % % % = - 1 1 3 q e e q 5 2 % @ # # # # % - 1 9 0 0 9 q 3 5 8 f h f ; = = 5 S D C V G l.g.!._._._._._._.",
"_._._._._._._.W.5.~ 6 % % % = - 1 1 9 e 9 1 @ o                       X @ & 5 e 9 9 5 8 8 2 ; = % % q D S C 9.^._._._._._._._._.",
"_._._._._._._._.(.I.v a * = = 1 1 9 e 1 o X                                 X * 9 e 3 3 2 1 - = % % - Z ! 7.!._._._._._._._._._.",
"_._._._._._._._._._.).I.2.d 7 2 9 9 1 X                                         @ e 9 3 1 1 = = * p c M.!._._._._._._._._._._._.",
"_._._._._._._._._._._._._.(.P.1.c g $                                           X 1 0 9 3 6 s c 4.I.)._._._._._._._._._._._._._.",
"_._._._._._._._._._._._._._._._.).I.K.b l : + O .                             . O p J ,.6.P.W.)._._._._._._._._._._._._._._._._.",
"_._._._._._._._._._._._._._._._._._._._.).I.I.K.3.n x z l k < > , < k l z b m K.L.E.)._._._._._._._._._._._._._._._._._._._._._.",
"_._._._._._._._._._._._._._._._._._._._._._._._._._._._._._._._._._._._._._._._._._._._._._._._._._._._._._._._._._._._._._._._.",
"_._._._._._._._._._._._._._._._._._._._._._._._._._._._._._._._._._._._._._._._._._._._._._._._._._._._._._._._._._._._._._._._."
};
