/* XPM */
static char *_B1721605364[] = {
/* columns rows colors chars-per-pixel */
"64 64 194 2 ",
"   c #2F2F48",
".  c #36364D",
"X  c #3D3D52",
"o  c #2A2269",
"O  c #474959",
"+  c #5A5451",
"@  c #5D5853",
"#  c #62444A",
"$  c #64435B",
"%  c #615E5B",
"&  c #63605D",
"*  c #6E685E",
"=  c #77685A",
"-  c #4D5363",
";  c #535766",
":  c #575A65",
">  c #555B6C",
",  c #5A5F6D",
"<  c #654461",
"1  c #6A436D",
"2  c #724C6E",
"3  c #635A75",
"4  c #5C626E",
"5  c #5C6271",
"6  c #6F6C69",
"7  c #746C63",
"8  c #796D61",
"9  c #797368",
"0  c #626976",
"q  c #6D6D76",
"w  c #626A7B",
"e  c #696F7A",
"r  c #6E747D",
"t  c #7E7B74",
"y  c #7D7879",
"u  c #835A41",
"i  c #8B6649",
"p  c #8F6F53",
"a  c #906F53",
"s  c #967657",
"d  c #95785B",
"f  c #A36F4B",
"g  c #A57D57",
"h  c #AE7F55",
"j  c #B27E53",
"k  c #865C77",
"l  c #817B6C",
"z  c #8C7B6A",
"x  c #977D6D",
"c  c #A9825B",
"v  c #B98256",
"b  c #B98759",
"n  c #98846F",
"m  c #8A8376",
"M  c #958972",
"N  c #AA8964",
"B  c #A78B6B",
"V  c #A98969",
"C  c #AE916A",
"Z  c #B69366",
"A  c #A99776",
"S  c #B59B75",
"D  c #AFA17F",
"F  c #BAA47A",
"G  c #C08F5F",
"H  c #C69A68",
"J  c #C7A26C",
"K  c #CCA46E",
"L  c #CFA771",
"P  c #CCAB76",
"I  c #C6A878",
"U  c #D2AC73",
"Y  c #D2AE78",
"T  c #D8B479",
"R  c #DDBA7C",
"E  c #E0BE7E",
"W  c #E2C07F",
"Q  c #25118A",
"!  c #2B168B",
"~  c #2E198B",
"^  c #2D1892",
"/  c #311A91",
"(  c #382B8E",
")  c #512DAE",
"_  c #5137AD",
"`  c #532EB2",
"'  c #5332B3",
"]  c #5A34B5",
"[  c #5735B8",
"{  c #5937B9",
"}  c #5B3AB9",
"|  c #632DB4",
" . c #6531B5",
".. c #6539B7",
"X. c #6A35BA",
"o. c #6C3ABC",
"O. c #713EBD",
"+. c #5B5398",
"@. c #656E80",
"#. c #736D80",
"$. c #677182",
"%. c #6B7586",
"&. c #6C7689",
"*. c #6E798B",
"=. c #767C87",
"-. c #717C8D",
";. c #727E90",
":. c #7554AE",
">. c #6B44B1",
",. c #6E48B1",
"<. c #6544BB",
"1. c #6F42BA",
"2. c #7656B1",
"3. c #756DA4",
"4. c #7E62B3",
"5. c #7867B3",
"6. c #694CC0",
"7. c #8167B2",
"8. c #846FB3",
"9. c #8472B3",
"0. c #8C7DB0",
"q. c #768193",
"w. c #798697",
"e. c #7A8698",
"r. c #868485",
"t. c #908A8D",
"y. c #92938D",
"u. c #848898",
"i. c #9D8A90",
"p. c #939699",
"a. c #AD9C83",
"s. c #A6948D",
"d. c #A58E93",
"f. c #AC9294",
"g. c #A59895",
"h. c #ABA28C",
"j. c #BCAB8A",
"k. c #BAB08D",
"l. c #A9A290",
"z. c #AAA39A",
"x. c #BFB692",
"c. c #9287AE",
"v. c #958BAE",
"b. c #928DAC",
"n. c #988EAF",
"m. c #8592A3",
"M. c #8896A6",
"N. c #8897A9",
"B. c #8C9BAB",
"V. c #9B99A5",
"C. c #9B94AE",
"Z. c #8F81B0",
"A. c #8F9FB0",
"S. c #A09EA7",
"D. c #A19DAC",
"F. c #9DA3A4",
"G. c #8FA0B2",
"H. c #94A5B5",
"J. c #97A8B8",
"K. c #9BADBC",
"L. c #A7A4A5",
"P. c #AAA6A3",
"I. c #AEA9A3",
"U. c #A7A6AB",
"Y. c #A8A7AA",
"T. c #B4AEA3",
"R. c #A1AFB8",
"E. c #ABB4B2",
"W. c #C9B687",
"Q. c #C4B98E",
"!. c #D3B782",
"~. c #D2B883",
"^. c #C3B991",
"/. c #D6C18C",
"(. c #D8C99E",
"). c #E3C789",
"_. c #E4CD98",
"`. c #ECD699",
"'. c #F0D997",
"]. c #F0DE9D",
"[. c #F5E29F",
"{. c #C6C5B5",
"}. c #DBD2BA",
"|. c #E5CFA0",
" X c #EAD9A7",
".X c #E7D7B5",
"XX c #F5E4A4",
"oX c #F8EAAA",
"OX c #EDE2B0",
"+X c #F6EBBB",
"@X c #D9D9CD",
"#X c #F3EACD",
"$X c #F9F1CE",
"%X c #FBF8E8",
/* pixels */
"U.U.U.U.U.U.U.U.U.U.U.U.U.U.U.U.U.U.U.U.U.U.U.U.U.U.U.U.U.U.U.U.U.U.Y.U.U.U.U.U.U.U.U.U.U.U.U.U.U.U.U.U.U.U.U.U.U.U.U.U.U.U.U.U.",
"U.U.U.U.U.U.U.U.U.U.U.U.U.U.U.U.U.Y.U.U.U.U.U.U.U.U.U.U.U.U.U.U.U.U.U.U.U.U.U.U.U.U.U.U.U.U.U.U.U.U.U.U.U.U.U.U.U.U.U.U.U.U.U.U.",
"U.U.U.U.U.U.U.U.U.U.U.U.U.U.U.U.U.U.U.U.U.U.U.U.U.U.U.U.U.U.U.U.U.U.U.U.U.U.U.U.U.U.U.U.U.U.U.U.U.U.U.U.U.U.U.U.U.U.U.U.U.U.U.U.",
"U.U.U.U.U.U.U.U.U.U.U.U.U.U.U.U.U.U.U.U.U.U.U.U.U.U.U.U.U.U.U.U.U.U.U.U.U.U.U.U.U.U.U.U.U.U.U.U.U.U.U.U.U.U.U.U.U.U.U.U.U.U.U.U.",
"U.U.U.U.U.U.U.U.U.U.U.U.U.U.U.U.U.U.U.U.U.U.U.U.U.U.U.U.U.U.U.U.U.U.U.U.U.U.U.U.U.U.U.U.U.U.U.U.U.U.U.U.U.U.U.U.U.U.U.U.U.U.U.U.",
"U.U.U.U.U.U.U.U.U.U.U.U.U.U.U.U.U.U.U.U.U.U.U.U.U.U.U.U.U.U.U.U.U.U.U.U.U.U.U.U.U.U.U.U.U.U.U.U.U.U.U.U.U.U.U.U.U.U.U.U.U.U.U.U.",
"U.U.U.U.U.U.U.U.U.U.U.U.U.U.U.U.U.U.U.U.U.U.U.U.U.U.U.Y.U.U.U.U.U.U.U.U.U.U.U.U.U.U.U.U.U.U.U.U.U.U.U.U.U.U.U.U.U.U.U.U.U.U.U.U.",
"U.U.U.U.U.U.U.U.U.U.U.U.U.U.U.U.U.U.U.U.U.U.U.U.U.U.U.U.U.U.U.U.U.U.U.U.U.U.U.U.U.U.U.U.U.U.U.U.U.U.U.U.U.U.U.U.U.U.U.U.U.U.U.U.",
"U.U.U.U.U.U.U.U.U.U.U.U.U.U.U.U.U.U.U.U.U.U.U.U.U.U.U.U.U.U.U.U.Y.U.U.U.U.U.U.U.U.U.U.U.U.U.U.U.U.U.U.U.U.U.U.U.U.U.U.U.U.U.U.U.",
"U.U.U.U.U.U.U.U.U.U.U.U.U.U.U.U.U.U.U.U.U.U.U.U.U.U.U.U.U.U.U.U.E.U.U.U.U.U.U.U.U.U.U.U.U.U.U.U.U.U.U.U.U.U.U.U.U.U.U.U.U.U.U.U.",
"U.U.U.U.U.U.U.U.U.U.U.U.U.U.U.U.U.U.U.U.U.U.U.U.U.U.U.U.U.U.U.U.U.U.U.U.U.U.U.U.U.U.U.U.U.U.U.U.U.U.U.U.U.U.U.U.U.U.U.U.U.U.U.U.",
"Y.U.U.U.U.U.U.U.U.U.U.U.U.U.U.U.U.U.U.U.Y.U.U.U.U.U.U.U.U.U.U.U.U.U.U.U.U.U.U.U.U.U.U.U.U.U.U.U.U.U.U.U.U.U.U.U.U.U.U.U.U.U.U.U.",
"U.U.U.U.U.U.U.U.U.U.U.U.U.U.U.U.U.U.U.U.U.U.U.U.U.U.U.U.U.U.U.U.U.U.U.U.U.U.U.U.U.U.U.U.U.U.U.U.U.U.U.U.U.U.U.U.U.U.U.U.U.U.U.U.",
"U.U.U.U.U.U.U.U.U.U.U.U.Y.Y.U.U.U.U.U.U.U.U.U.U.U.U.U.U.U.U.U.U.U.U.U.U.U.U.U.U.U.U.U.U.U.U.U.U.U.U.U.U.U.U.U.U.U.U.U.U.U.U.U.U.",
"U.U.U.U.U.U.U.U.U.U.U.U.U.U.U.U.U.U.U.U.U.U.U.U.U.U.U.U.U.U.U.U.U.U.U.U.U.U.U.U.U.U.U.U.U.U.U.U.U.U.U.U.U.U.U.U.U.U.U.U.U.U.U.U.",
"U.U.U.U.U.U.U.U.U.U.U.U.U.U.U.U.U.U.U.U.U.U.U.U.U.U.U.U.U.U.U.U.U.U.U.U.U.U.U.U.U.U.U.U.U.U.U.U.U.U.U.U.U.U.U.U.U.U.U.U.U.U.U.U.",
"U.U.U.U.U.U.U.U.U.U.U.U.U.U.U.U.U.U.U.U.U.U.U.U.U.U.U.U.U.U.U.U.U.U.U.U.U.U.U.U.U.U.U.U.U.U.U.U.U.U.U.U.U.U.U.U.U.U.U.U.U.U.U.U.",
"U.U.U.U.U.U.U.U.U.U.U.U.U.U.U.U.U.U.U.U.U.U.U.U.U.U.U.U.U.U.U.U.U.U.U.U.U.U.U.U.U.U.U.U.U.U.U.U.U.U.U.U.U.U.U.U.U.U.U.U.U.U.U.U.",
"U.U.U.U.U.U.U.U.U.U.U.U.U.U.U.U.U.U.U.U.U.U.U.U.U.U.U.U.U.U.U.U.U.U.U.U.U.U.U.U.U.U.U.U.U.U.U.U.U.U.U.U.U.U.U.U.U.U.U.U.U.U.U.U.",
"U.U.U.U.U.U.U.U.U.U.U.U.U.U.U.U.U.U.U.U.U.U.U.U.U.U.U.U.U.U.U.U.U.U.U.U.U.U.U.U.U.U.U.U.U.U.U.U.U.U.U.U.U.U.U.U.U.U.U.U.U.U.U.U.",
"U.U.U.U.U.U.U.U.U.U.U.U.U.U.U.U.U.U.U.U.U.U.U.U.U.U.U.U.U.U.U.U.U.U.U.U.U.U.U.U.U.U.U.U.U.U.U.U.U.U.U.U.U.U.U.U.U.U.U.U.U.U.U.U.",
"U.U.U.U.U.U.U.U.U.U.U.U.U.U.U.U.U.U.U.U.U.U.U.U.U.U.U.U.U.U.U.U.U.U.U.U.U.U.U.U.U.U.U.U.U.U.U.U.U.U.U.U.U.U.U.U.U.U.U.U.U.U.U.U.",
"U.U.U.U.U.U.U.U.U.U.U.U.U.U.U.U.U.U.U.U.U.U.U.U.U.U.U.U.U.U.U.U.U.U.U.U.U.U.U.U.U.U.U.U.U.U.U.U.U.U.U.U.U.U.U.U.U.U.U.U.U.U.U.U.",
"U.U.U.U.U.U.U.U.U.U.U.U.U.U.U.U.U.U.U.U.U.U.U.U.U.U.U.U.U.U.U.U.U.U.U.U.U.U.U.U.U.U.U.U.U.U.U.U.U.U.U.U.U.U.U.U.U.U.U.U.U.U.U.U.",
"U.U.U.U.U.U.U.U.U.U.U.U.U.U.U.U.U.U.U.U.U.U.U.U.U.U.U.U.U.U.U.U.U.U.U.U.U.U.U.U.U.U.U.U.U.U.U.U.U.U.U.U.U.U.U.U.U.U.U.U.U.U.U.U.",
"Y.U.U.U.U.U.U.U.U.U.U.U.U.U.U.U.U.U.U.U.U.U.U.U.U.U.U.U.U.U.U.U.U.U.U.U.U.U.U.U.U.U.U.U.U.U.U.U.U.U.U.U.U.U.U.U.U.U.U.U.U.U.U.U.",
"U.U.U.U.U.U.U.U.U.U.U.U.U.U.U.U.U.U.U.U.U.U.U.U.U.U.U.U.U.U.U.U.U.U.U.U.U.U.U.U.U.U.U.U.U.U.U.U.U.U.U.U.U.U.U.U.U.U.U.U.U.U.U.U.",
"U.U.U.U.U.U.U.U.U.U.U.U.U.U.U.U.U.U.U.U.U.U.U.U.U.U.U.U.U.U.U.U.U.U.U.U.U.U.U.U.U.U.U.U.U.U.U.U.U.U.U.U.U.U.U.U.U.U.U.U.U.U.U.U.",
"U.U.U.U.U.U.U.U.U.U.U.U.U.U.U.U.U.U.U.U.U.U.U.U.U.U.U.U.U.U.U.U.U.U.U.U.U.U.U.U.U.U.U.U.U.U.U.U.U.U.U.U.U.U.U.U.U.U.U.U.U.U.U.U.",
"U.U.U.U.U.U.U.U.U.U.U.U.U.U.U.U.U.U.U.U.U.U.U.U.U.U.U.U.U.U.U.U.U.U.U.U.U.U.U.U.U.U.U.U.U.U.U.U.U.U.U.U.U.U.U.U.U.U.U.U.U.U.U.U.",
"U.U.U.U.U.U.U.U.U.U.U.U.U.U.U.U.U.U.U.U.U.U.U.U.U.U.U.U.U.U.U.U.U.U.U.U.U.U.U.U.U.U.U.U.U.U.U.U.U.U.U.U.U.U.U.U.U.U.U.U.U.U.U.U.",
"U.U.U.U.U.U.U.U.U.U.U.U.U.U.U.U.U.U.U.U.U.U.U.U.U.U.U.U.U.U.U.U.E.U.U.U.U.U.U.U.U.U.U.U.U.U.U.U.U.U.U.U.U.U.U.U.U.U.U.U.U.U.U.U.",
"U.U.U.U.U.U.U.U.U.U.U.U.U.U.U.U.U.U.U.U.U.U.U.U.U.U.U.U.U.U.U.U.Y.U.U.U.U.U.U.U.U.U.U.U.U.U.U.U.U.U.U.U.U.U.U.U.U.U.U.U.U.U.U.U.",
"U.U.U.U.U.U.U.U.U.U.U.U.U.U.U.U.U.U.U.U.U.U.U.U.U.U.U.U.U.U.U.U.U.U.U.U.U.U.U.U.U.U.U.U.U.U.U.U.U.U.U.U.U.U.U.U.U.U.U.U.U.U.U.U.",
"U.U.U.U.U.U.U.U.U.U.U.U.U.U.U.U.U.U.U.U.U.U.U.U.U.U.U.U.U.U.U.U.U.U.U.U.U.U.U.U.U.U.U.U.U.U.U.U.U.U.U.U.U.U.U.U.U.U.U.U.U.U.U.U.",
"U.U.U.U.U.U.U.U.U.U.U.U.U.U.U.U.U.U.U.U.U.U.U.U.U.U.U.U.U.U.U.U.U.U.U.U.U.U.U.U.U.U.U.U.U.U.U.U.U.U.U.U.U.U.U.U.U.U.U.U.U.U.U.U.",
"U.U.U.U.U.U.U.U.U.U.U.U.U.U.U.U.U.U.U.U.U.U.U.U.U.U.U.U.U.U.U.U.U.U.U.U.U.U.U.U.U.U.U.U.U.U.U.U.U.U.U.U.U.U.U.U.U.U.U.U.U.U.U.U.",
"U.U.U.U.U.U.U.U.U.U.U.U.U.U.U.U.U.U.U.U.U.U.U.U.U.U.U.U.U.U.U.U.U.U.U.U.U.U.U.U.U.U.U.U.U.U.U.U.U.U.U.U.U.U.U.U.U.U.U.U.U.U.U.U.",
"U.U.U.U.U.U.U.U.U.U.U.U.U.U.U.U.U.U.U.U.U.U.U.U.U.U.U.U.U.U.U.Y.U.U.U.U.U.U.U.U.U.U.U.U.U.U.U.U.U.U.U.U.U.U.U.U.U.Y.U.U.U.U.U.U.",
"U.U.U.U.U.U.U.U.U.U.U.U.U.U.U.U.U.U.U.U.U.U.U.U.U.U.U.U.U.U.U.Y.U.U.U.U.U.U.U.U.U.U.U.U.U.U.U.U.U.U.U.U.U.U.U.U.Y.Y.U.U.U.U.U.U.",
"U.U.U.U.U.U.U.U.U.U.U.U.U.U.U.U.U.U.U.U.U.P.T.I.L.Y.Y.Y.Y.Y.Y.P.T.T.I.U.U.U.Y.Y.Y.U.P.T.T.P.U.U.U.U.U.U.U.U.U.U.Y.Y.U.U.U.U.U.U.",
"U.U.U.U.U.U.U.U.U.U.U.U.U.U.U.U.U.U.U.U.z.B N B h.l.l.l.l.l.h.h.V N V h.l.l.l.l.l.l.a.N N a.L.U.U.U.U.U.U.U.U.U.U.Y.U.U.U.U.U.U.",
"U.U.U.U.U.U.U.U.U.U.U.U.U.U.U.U.U.U.Y.z.B Z !.z q e e e e e e m I !.S y $.e e e e e 6 S P s s.L.U.U.U.U.U.U.U.U.U.U.U.U.U.U.U.U.",
"U.U.U.U.U.U.U.U.U.U.U.U.U.U.U.U.U.U.U.j.N |.#XV.H.K.K.K.K.K.K.E. X#X}.R.K.K.R.K.K.H.m.@X#XW.n L.U.U.U.U.U.U.U.U.U.U.U.U.U.U.U.U.",
"U.U.U.U.U.U.U.U.U.U.U.U.U.U.U.U.U.U.U.j.V +X+Xy.e.B.H.J.J.J.B.F.oX$X@XM.H.H.H.H.H.M.;.{.+X(.x U.U.U.U.U.U.U.U.U.U.U.U.U.U.U.U.U.",
"U.U.U.U.U.U.U.U.U.U.U.U.U.U.U.U.U.U.U.j.N oXXXm e.B.N.H.H.J.B.p. XoX(.M.A.H.H.A.N.m.&.x.oX_.k :.c.U.U.U.U.U.U.U.U.U.U.U.U.U.U.U.",
"U.U.U.U.U.U.U.U.U.U.U.U.U.U.U.U.U.n.4.f.c `.).9 5 e.q.q.w.w.e.r.Y T S ;.w.w.w.w.;.;.5 S '.R k  . .2.C.U.U.U.U.U.U.U.U.U.U.U.Y.U.",
"U.U.U.U.U.U.U.U.U.U.U.U.U.U.U.U.c.,. .f.g R R 8 w *.*.*.*.*.r h.|..X}.z %.=.&.%.*.&.> A W L k  .| | o.v.U.U.U.U.U.U.U.U.U.U.U.U.",
"U.U.U.U.U.U.U.U.U.U.U.U.U.U.U.c.>.| X.f.g !.H = : , , , 5 , t OX$X$X%X{.4 0 4 4 4 4 : d U L k 1.X. .| ..v.U.U.U.U.U.U.U.U.U.U.U.",
"U.U.U.U.U.U.U.U.U.U.U.U.U.U.C.:.| X.O.f.h E T W.F Q.^.Q.^.S C XXR H  X_.g k.Q.Q.Q.j.F W.T J k ..o.o.| | ,.D.U.U.U.U.U.U.U.U.U.U.",
"U.U.U.U.U.U.U.U.U.U.U.U.Y.Y.0. .X.o.o.d.i b H K L U Y Y Y H L XXJ j _.`.G L P Y Y U L H G j 2 ) ` o.X.| | Z.U.U.U.U.U.U.U.U.U.U.",
"U.U.U.U.U.U.U.U.U.U.U.U.Y.Y.5. .o.o.] i.u j j d 6 7 7 7 9 7 M `.K v E W.9 8 7 7 7 7 7 N v f 1 ] ` ) X.o. .7.U.U.U.U.U.U.U.U.U.U.",
"U.U.U.U.U.U.U.U.U.U.U.U.Y.U.7.X.o.] <.d.i U U 8 - > $.;.;.;.0 A T U P z %.q.q.q.5 ; - B U Z $ _ [ ` ` o.X.7.U.U.U.U.U.U.U.U.U.U.",
"U.U.U.U.U.U.U.U.U.U.U.U.U.U.8.X.[ ) <.d.i R E 8 ; %.m.H.B.H.e., 6 9 6 0 m.G.G.G.e.e - D E J $ ~ ' { ' ] X.8.U.U.U.U.U.U.U.U.U.U.",
"U.U.U.U.U.U.U.U.U.U.U.U.U.U.n.O.` ) } d.s '.].9 > *.;.A.H.J.J.B.m.m.m.B.J.J.J.N.-.%.; k.[.~.$ ! ! ' [ ' 1.n.U.U.U.U.U.U.U.U.U.U.",
"U.U.U.U.U.U.U.U.U.U.U.U.U.U.U.8.) ' <.s.s ].].l w *.e.H.H.J.J.J.J.J.J.J.J.J.J.B.q.*.5 k.[.~.< ~ Q ^ { [ 9.U.U.U.U.U.U.U.U.U.U.U.",
"U.U.U.U.U.U.U.U.U.U.U.U.U.U.U.U.5.{ 6.i.s ].].l , %.m.H.J.H.H.H.J.J.H.J.H.H.H.G.e.$.; k.[./.$ / Q ! _ 5.D.U.U.U.U.U.U.U.U.U.U.U.",
"U.U.U.U.U.U.U.U.U.U.U.U.U.U.U.U.U.5.6.i.s XXXXl > @.-.N.H.H.H.A.J.J.J.G.H.H.B.m.*.5 ; x.oX/.# ! ^ ( 3.D.U.U.U.U.U.U.U.U.U.U.U.U.",
"U.U.U.U.U.U.U.U.U.U.U.U.U.U.U.U.U.U.C.s.i J I * O - > %.-.-.*.-.-.-.q.*.*.q.*.w ; - O M I Z # o +.u.U.U.U.U.U.U.U.U.U.U.U.U.U.U.",
"U.U.U.U.U.U.U.U.U.U.U.U.U.U.U.U.U.U.U.P.x a p = : @ % & % % & & & & % & & & & & % % @ = p p m r.D.U.U.U.U.U.U.U.U.U.U.U.U.U.U.U.",
"U.U.U.U.U.U.U.U.U.U.U.U.U.U.U.U.U.U.U.Y.P.T.z.g.t.l #.3 + + + + + + + + + + + @ @ = 9 t.g.z.S.U.U.U.U.U.U.U.U.U.U.U.U.U.U.U.U.U.",
"U.U.U.U.U.U.U.U.U.U.U.U.U.U.U.U.U.U.U.U.U.U.U.U.U.V.b.u.q ; O X .     . X O 4 q 0.p.l.F.U.U.U.U.U.U.U.U.U.U.U.U.U.U.U.U.U.U.U.U.",
"U.U.U.U.U.U.U.U.U.U.U.U.U.U.U.U.U.U.U.U.U.U.U.U.U.U.U.U.U.U.U.U.U.U.U.U.U.U.L.Y.U.U.U.U.U.U.U.U.U.U.U.U.U.U.U.U.U.U.U.U.U.U.U.U.",
"U.U.U.U.U.U.U.U.U.U.U.U.U.U.U.U.U.U.U.U.U.U.U.U.U.U.U.U.U.U.U.U.U.U.U.U.U.U.Y.Y.U.U.U.U.U.U.U.U.U.U.U.U.U.U.U.U.U.U.U.U.U.U.U.U."
};
