/* XPM */
static char *_Da1721788814[] = {
/* columns rows colors chars-per-pixel */
"64 64 244 2 ",
"   c #0C0000",
".  c #180000",
"X  c #310C0A",
"o  c #34242B",
"O  c #470707",
"+  c #530A0A",
"@  c #660606",
"#  c #7B0606",
"$  c #462417",
"%  c #79371A",
"&  c #543530",
"*  c #6E332D",
"=  c #747C07",
"-  c #574537",
";  c #654B36",
":  c #6D4A34",
">  c #12214C",
",  c #162759",
"<  c #182D64",
"1  c #1D326B",
"2  c #1C3678",
"3  c #32336B",
"4  c #233B76",
"5  c #5F3450",
"6  c #3A4855",
"7  c #374B69",
"8  c #535655",
"9  c #7C4343",
"0  c #6D554B",
"q  c #795B59",
"w  c #4F6458",
"e  c #6F6453",
"r  c #4D5572",
"t  c #575975",
"y  c #705372",
"u  c #4F676F",
"i  c #5A657B",
"p  c #756D6D",
"a  c #67667A",
"s  c #797676",
"d  c #860808",
"f  c #930707",
"g  c #9B0909",
"h  c #951917",
"j  c #A90C0C",
"k  c #AD1313",
"l  c #B51212",
"z  c #89331A",
"x  c #8D3426",
"c  c #C91414",
"v  c #984A0F",
"b  c #954619",
"n  c #A05111",
"m  c #954D2C",
"M  c #A6592C",
"N  c #AF6633",
"B  c #894E4D",
"V  c #8F5149",
"C  c #8C5252",
"Z  c #895656",
"A  c #925353",
"S  c #955F58",
"D  c #936A59",
"F  c #B4784D",
"G  c #865B67",
"H  c #8D716B",
"J  c #8F7376",
"K  c #88787A",
"L  c #A57E6E",
"P  c #7B850B",
"I  c #7D887A",
"U  c #82880D",
"Y  c #889012",
"T  c #969B19",
"R  c #A69E1A",
"E  c #9BA41B",
"W  c #A7A71C",
"Q  c #A5AC1F",
"!  c #B2A21E",
"~  c #9EA030",
"^  c #A6AC21",
"/  c #ABAC21",
"(  c #A3A92A",
")  c #B5AB22",
"_  c #ADB125",
"`  c #B6B52B",
"'  c #BBBB2E",
"]  c #A5A437",
"[  c #B7B936",
"{  c #BCBB31",
"}  c #FB9804",
"|  c #EF9B16",
" . c #C4B12A",
".. c #CFB02F",
"X. c #D8B735",
"o. c #F7AC26",
"O. c #F9B528",
"+. c #E5AF35",
"@. c #F7AD36",
"#. c #F9AB33",
"$. c #F7B53A",
"%. c #FBC53B",
"&. c #9C9B51",
"*. c #BB875D",
"=. c #ABAE4E",
"-. c #B6B745",
";. c #918F73",
":. c #B88968",
">. c #AE8973",
",. c #ACBE6B",
"<. c #D99B52",
"1. c #DDAB51",
"2. c #E9BA49",
"3. c #F5BB42",
"4. c #FCBB43",
"5. c #E8BD57",
"6. c #CB9771",
"7. c #CC9A7A",
"8. c #D5AF71",
"9. c #AFC352",
"0. c #AFCB72",
"q. c #F5C64B",
"w. c #F1C451",
"e. c #D0C17A",
"r. c #E7C261",
"t. c #1E3B80",
"y. c #213E84",
"u. c #1F418F",
"i. c #26438A",
"p. c #294896",
"a. c #334F9B",
"s. c #2B52AE",
"d. c #3455A6",
"f. c #395DB3",
"g. c #355BB9",
"h. c #3E63BD",
"j. c #50558F",
"k. c #665A95",
"l. c #4A6687",
"z. c #596B87",
"x. c #516898",
"c. c #4B749C",
"v. c #58789B",
"b. c #71768F",
"n. c #687899",
"m. c #545FA8",
"M. c #4D79A7",
"N. c #5379A9",
"B. c #4767BA",
"V. c #516DB3",
"C. c #5674B8",
"Z. c #646AA0",
"A. c #647BA7",
"S. c #657BB8",
"D. c #3F65C1",
"F. c #4367C0",
"G. c #87788A",
"H. c #7A848A",
"J. c #7B8794",
"K. c #5681AA",
"L. c #5387B5",
"P. c #568AB7",
"I. c #698AAB",
"U. c #7985A4",
"Y. c #7799AC",
"T. c #7A88B5",
"R. c #6E93B3",
"E. c #78A8B8",
"W. c #5C95C6",
"Q. c #5E9ED2",
"!. c #679BCA",
"~. c #77ACC4",
"^. c #64A5D8",
"/. c #66ADE0",
"(. c #6CB7E9",
"). c #878688",
"_. c #94898B",
"`. c #928E8E",
"'. c #868998",
"]. c #8E939E",
"[. c #98979A",
"{. c #AD918A",
"}. c #AEA59F",
"|. c #B6AC9D",
" X c #BFB198",
".X c #858BA3",
"XX c #8B96A7",
"oX c #9C9CA3",
"OX c #9899A8",
"+X c #8C94B2",
"@X c #9197B1",
"#X c #A19FA5",
"$X c #9BA2AB",
"%X c #80B6BF",
"&X c #A3A2A6",
"*X c #A7A6AB",
"=X c #A9A8A8",
"-X c #AFAEB0",
";X c #B7B6B7",
":X c #CBB089",
">X c #C5A897",
",X c #E4AC84",
"<X c #F0B88E",
"1X c #B3D28E",
"2X c #9FDBB2",
"3X c #ADD9AC",
"4X c #B0D6AF",
"5X c #C8CC8B",
"6X c #CFCBB6",
"7X c #87BEC8",
"8X c #8BC8CB",
"9X c #91D1CE",
"0X c #95D9D3",
"qX c #A3DBC8",
"wX c #9DE0CD",
"eX c #96E2D7",
"rX c #9AE1D7",
"tX c #9BE1D8",
"yX c #B1E6C9",
"uX c #A3E4DB",
"iX c #A8E5DC",
"pX c #B3E7DD",
"aX c #ADEAE2",
"sX c #B3EBE3",
"dX c #BBE9E4",
"fX c #C5C3C2",
"gX c #CCCBCB",
"hX c #D2CFCE",
"jX c #D5D4D4",
"kX c #DBDBDA",
"lX c #E3DBD8",
"zX c #E7E2DF",
"xX c #C6EDE7",
"cX c #CCF0EB",
"vX c #D6F2EE",
"bX c #DCF4F1",
"nX c #E6E6E5",
"mX c #ECEBEB",
"MX c #F0EDEC",
"NX c #E4F5F2",
"BX c #E9F4F2",
"VX c #F3F3F3",
"CX c #F8F6F3",
"ZX c #FAFBFB",
/* pixels */
"*X*X*X*X*X*X*X*X*X*X*X*X*X*X*X*X*X*X*X*X*X*X*X*X*X*X*X*X*X*X*X*X*X*X*X*X*X*X*X*X*X*X*X*X*X*X*X*X*X*X*X*X*X*X*X*X*X*X*X*X*X*X*X*X",
"*X*X*X*X*X*X*X*X*X*X*X*X*X*X*X*X*X=X*X*X*X*X*X*X*X*X*X*X*X*X*X*X*X*X*X*X*X*X*X*X-X$X@X*X*X*X*X*X*X*X*X*X*X*X*X-X*X*X*X*X*X*X*X*X",
"*X*X*X*X*X*X*X*X*X*X*X*X*X*X*X*X*X*X*X*X*X*X*X*X*X*X*X*X*X*X*X*X*X*X*X*X*X*X*X*XT.F.S.*X*X*X*X*X*X*X*X*X*X*X*X*X*X*X*X*X*X*X*X*X",
"*X*X*X*X*X*X*X*X*X*X*X*X*X*X*X*X*X*X*X*X*X*X*X*X*X*X*X=X*X*X*X*X*X*X*X*X*X-X$XF.F.F.T.*X*X*X*X*X*X*X*X*X*X*X*X*X*X*X*X*X*X*X*X*X",
"*X*X*X*X*X*X=X=X*X*X*X*X*X*X*X*X*X*X*X*X*X*X*X*X*X*X*X*X*X*X*X*X*X*X*X-X@X!.B.D.D.D.T.*X*X*X*X*X*X*X*X*X*X*X*X*X*X*X*X*X*X*X*X*X",
"*X*X=X#XOX#X*X=X*X*X*X*X*X*X*X*X*X*X*X*X*X*X*X*X*X*X*X*X*X*X*X*X*X*XOXS.F.F.D.D.F.F.+X*X*X*X*X*X*X*X*X*X*X*X*X*X*X*X*X*X*X*X*X*X",
"*X*X*XA.x.A.A.A.A.U.G.XXXXOX#X$X&X&X*X*X=X*X*X*X*X*X*X*X*X*X*X*X#XG.F.F.D.D.D.D.F.F.+X*X*X*X*X*X*X*X*X*X*X*X*X*X*X*X*X*X*X*X*X*X",
"*X*X*Xn.n.9X0X9X7X7X%XE.E.E.E.R.I.I.n.A.U..XU.Y.@XOXoXoX&X*X$XT.F.D.D.D.D.D.h.f.F.F.@X*X*X*X*X*X*X*X*X*X*X*X*X*X*X*X*X*X*X*X*X*X",
"*X*X=Xn.Y.eXrXrX0XtXeXeX0XtXtX0X0X0X8X8X7XE.E.E.R.I.R.I.I.A.F.F.F.D.D.D.g.g.2 y.B.F.@X-X*X*X*X*X*X*X*X*X*X*X*X*X*X*X*X*X*X*X-X*X",
"*X*X*X.XY.eXrXrXrXtX0XeXtXtXtXtXeXrXrXrXrXrXrXrXeXeX0X0X8XN.F.D.F.F.D.F.p.< > a.F.m.G.G.J J J J J J J J J J J J K *X*X*X*X*X*X*X",
"*X*X*X.XR.eX0XtXwX4X4X2XrXtXeXtXrXrXrXeXrXrXrXtXaXsXpXtX9XN.D.D.D.f.D.p., 3 * k.m.k.m h h f g g g g g g g g g l O *X*X*X*X*X*X*X",
"*X*X*XXXY.eXuXwXe.+.| 1.2XtXtXeXrXtXeXrXrXrXdXvXbXNXNXcX0XV.B.h.a.< m.5 5 y x 0 A N F N % * f X d # j j l l # d + *X*X*X*X*X*X*X",
"*X*X*XOXR.tXtXqX+.} } | 5XtXeXeXrXrXtXrXrXtXdXvXbXbXcXxXtXC.m.9 5 & m v b b b * * b N b M x h . k @ + d c + O d + *X*X*X*X*X*X*X",
"*X*X*XoXR.tXtXqX+.} } | 8.tXtXrXrXrXrXrXrXrXtXuXiXuXuX0X9XV.k.x Z z n N L {.m y & % b b M z X . k @   + c .   # + *X*X*X*X*X*X*X",
"*X*X*XoXT.0X0XuX,.| | 1.4XrXrXrXrXtXtXrXrXrXrXtXtXrXtXtX9XV.y M L :X6XzXMXmXM p 5 $ % m % x X . k @   O l .   # + -X*X*X*X*X*X*X",
"*X*X*X$XI.0XtX0XqX4X1X4XrXtXeXrXrXrXrXrXrXtXrXrXeXrXrXrX9XS.b F zXCXMXgX-XMXN G p $ X $ o x k . k @   + l .   # + *X*X*X*X*X*X*X",
"*X*X*X*XR.9XeXrXrXrXrXrXrXrXrXrXrXrXrXrXrXrXrXrXtXtXtXtX0XC.G F mXfXjXhX*XnXM G L D - & o X c @ k @   + l .   # + *X*X*X*X*X*X*X",
"*X*X*X*XY.9XrXrXrXrXrXrXrXrXrXrXrXrXrXrX0XtXtXrXtXtXtXtX9XC.G *.fXoXgX;X;XzXA k.b.7.8.,Xq   # g g +   O j . . # + *X*X*X*X*X*X*X",
"*X*X*X*XY.0XeXrXrXeXrXeXrXrXrXtXtXuXuXpXpXdXpXiX0XtXaX0X0XF.S *.;X*XG.hXnXkXM k.C.>X<X<X:.x d f f d # d f # d g + *X*X*X*X*X*X*X",
"*X*X*X=XY.9XrXrXrXrXrXrXiXxXxXcXcXvXvXNXNXNXNXNXcXdX0XtX9XF.S 6.CXZXMXMXMXfXL ;XjXlXlXlXjXgX_.9 9 9 B * 9 9 9 9 0 *X*X*X*X*X*X*X",
"*X*X*X*XY.9XeXeXrXrXrXpXbXNXNXBXBXBXBXBXBXNXBXBXBXNXdX0X9XF.G :.MXkXfX>XG.lXMXZXZXZXZXZXZXZXCXjX*X*X*X*X*X*X*X*X*X*X*X*X*X*X*X*X",
"*X*X*X-XY.9XrXrXtXtXeXiXcXNXNXNXBXBXBXBXBXBXNXNXNXmXbXaX8Xm.B M S M v v }.VXCXZXZXZXZXZXZXZXZXZXMX-X*X*X*X*X*X*X*X*X*X*X*X*X*X*X",
"*X*X*X*XY.9XrXrXtXtXrXeXwXpXcXvXvXbXvXvXcXxXaXiXpXxXxXiX8XF.A v V m m A jXnXVXZXZXCXZXZXZXZXZXZXVXgX#X*X*X*X*X*X*X*X*X*X*X*X*X*X",
"*X*X*X*XY.8XrXrXeXrXeXrXrXrXtXuXuXuXuXuXuXtXuX0X0XuX0XuX7XF.Z.x y j.m.G.VXjXgXVXVXZXZXZXZXZXZXMXhXnX*X*X*X*X*X*X*X*X*X*X*X*X*X*X",
"*X*X*X*XU.8XeXrXrXrXrXrXeXeXtXtX0XrXrXrXrXrXeXeXtXtXrXrX~.D.h.j.y.p.m.fXmXkX#XgXnXZXZXZXZXZXZXgX=XBX;X&X*X*X*X*X*X*X*X*X*X*X*X*X",
"*X*X*X*X.X8XrXrXtXrXtXeXeXeXeXeXrXrXrXrXrXrXrXrXtXtXrXrX~.D.D.p.y.g.m.}.fXfXs [.nXZXZXZXZXVXBX[.&XjX;X&X*X*X*X*X*X*X*X*X*X*X*X*X",
"*X*X*X*XXX8XaXaXaXaXiXiXuXuXuXuXuXrXrXrXrXrXrXrXrXrXrXrX~.D.F.y.a.D.D.G.7.{.8 [.mXZXZXZXZXnXlXG.;.>X>.$X#X*X#X*X*X*X*X*X*X*X*X*X",
"*X*X*X*XOX8XaXaXaXaXaXaXuXaXuXuXtXrXrXrXrXtXtXtXtXuXtXtX~.F.g.p.g.g.m.G.<X,X8 [.nXZXZXZXVXnX6Xs L <X:.e 0 e s *X*X*X*X*X*X*X*X*X",
"*X*X*X*X$X~.wXeXtXtXeXeXeXtXrXrXrXrXuXuXiXiXsXsXsXsXsXaX~.D.D.h.f.1 j.7.<XG.b.|.gXCXVXVXnXVX;Xp D <X6.B B ; s #X*X*X*X*X*X*X*X*X",
"*X*X*X*X$XE.eXeXtXeXeXeXrXtXrXrXtXiXsXsXsXsXsXsXsXsXsXsX~.D.D.D.i.> Z 7.<Xb.Z.hXhXjXBXkXjXMX;XK A 8.7.B B - oX*X*X*X*X*X*X*X-X*X",
"*X*X*X*X$XR.eXwX2X2X2XeXrXtXuXaXsXsXsXsXsXsXsXsXsXsXsXsX~.D.D.d., 4 L ,X,XZ.Z.fXBXjXkXkX;XhXfXq A ,X,XS & p *X*X*X*X*X*X*X*X*X*X",
"*X*X*X*X$XR.wX2X9.0.0.eXpXaXsXsXpXsXsXsXsXsXsXsXsXsXsXsX!.F.h.1 , d.>.<X7.t -XhXzXCXnXnXfX[.-XZ C 7.,XS ; ).*X*X*X*X*X*X*X*X*X*X",
"*X*X*X*X$XI.1X1X9.0.1XyXyX3X6X5X5X1X1X1X5X3X3X4XyXyXpXyXW.D.i.> u.g.{.<XH w &XnXhXkXBXVXmX*Xp q B :.7.A : e &X*X*X*X*X*X*X*X=X*X",
"*X*X*X$X$XP.1X1X0.0.9.9.{ { 2.q.X.{ { { [ { { -.-.-.0.1XS.F.i.4 s.g.{.7.6 u gXmXMXkXgXnXnXnX-Xq C D :.A Z ; ).=X*X*X*X*X*X*X*X*X",
"*X=X=X=X=XY.0.-.[ [ ' ' { X.4.3.X.{ { { { { ' ' { { ' -.A.B.f.p.s.s.>.H 8 w ;XjXkXNXvXgXhXgX;XK B B D A A m 0 oX*X*X*X*X*X*X*X*X",
"*X*X=X=X&XI -.' { ' E ' ' X.$.q.X.' { { { { { [ { { ' -.S.g.F.d.p.d.0 0 w w b.$X;XgXkXgXhXgXfX).;.Z H K K K s &X*X*X*X*X*X*X*X*X",
"*X*X*X*X=XH.9.' { Q P ` _ ) X.$.%.' Q _ ` ' [ ^  .{ ' -.N.B.g.g.i.j.6.L e w c.L.K.l.u H.H.z.z.a >.e 7.#X*X*X*X*X*X*X*X*X*X*X*X*X",
"*X*X*X*X-XJ.=.' [ T P E Q Q ..q.q.%._ Q Q ^ E P ' {  .-.A.f.4 h.p.t L q H u K.L.L.c.r c.L.P.P.H.>.0 >.&X*X*X*X*X*X*X*X*X*X*X*X*X",
"*X*X*X*X=X;.;.[ Q E T E Q / X.4.q.$. .Q ^ Q P P ^ ` ' 9.C.f., s.B.V.L D w u P.W.K.u 7 7 c.L.L.H.[.L _.*X*X*X*X*X*X*X*X*X*X*X*X*X",
"*X*X*X*X=X].;.^ Q Q Q Q / ..3.4.$.%. .Q ^ E P P T / / [ C.g.< 7 h.h.a.6 1 u Q.Q.W.K.7 l.L.L.K.J.*X&X=X*X*X*X*X*X*X*X*X*X*X*X*X*X",
"*X*X*X*X*X].I Q Q Q Q ) X.4.4.4.4.q.` Q Q T = = P ^ Q ] C.h.2 1 f.a., < 4 u ^.(.(.K.u v.^.^.P.'.*X*X*X*X*X*X*X*X*X*X*X*X*X*X*X*X",
"*X*X*X*X*X$XI Q Q Q ) X.4.4.4.4.4.+._ ^ Q Y = = Y E Q &.V.d.i.2 p., 2 < g.c.Q.(./.v.H.v././.W.$X*X*X*X*X*X*X*X*X*X*X*X*X*X*X*X*X",
"*X=X*X*X*X[.I Q / / X.4.4.4.4.4.$. .^ Q E T Y U U E _ &.B.d.i.t.p.t.p.< h.B.W.Q.Q.v.).v.Q.^.N.`.[.[.[.[.[.oXoX*X*X*X*X*X*X*X*X*X",
"-X$X*X*X*X$XI Q ^  .3.4.4.4.4.4.+._ ^ Q Q W R T E ( _ &.B.d.u.2 d.u.p.< h.h.M.L.K.r 0 z.W.W.i ; ; ; ; ; ; ; e #X*X*X*X*X*X*X*X*X",
"*X*X*X*X*X&XH.Q Q X.4.4.4.4.4.4.+.Q Q Q Q Q Q ^ Q Q / &.B.d.y.2 d.p.p.1 D.h.M.L.K.i C z.P.N.t C C V C C B & s #X*X-X*X*X*X*X*X*X",
"*X*X*X*X*X$XH.( Q ..4.4.4.4.4.4.+.Q Q Q Q Q Q ^ Q Q Q &.B.a.2 < p.p.p.1 h.h.M.K.c.l.A t c.M.t C A A A A 0 - oX*X*X*X*X*X*X=X*X*X",
"*X*X*X*X=X$XH.( Q  .4.4.4.4.4.4.q.X.! W Q Q ^ ^ Q Q / ;.B.g.i.4 p.p.u.2 h.h.c.L.P.t Z t C.M.r C A A A A * e *X*X*X*X*X*X*X*X*X*X",
"*X*X*X*X*X$XJ.] Q  .$.$.$.@.$.$.@.@...! W E W Q Q Q / `.F.F.F.g.d.y.2 2 h.h.c.W./.K.Z a W.W.z.C A A A A - p *X*X*X*X*X*X*X*X*X*X",
"*X*X*X*X*X*XJ.~ R ..@.#.#.#.#.#.#.#.#.+.! R R R W / / `.F.D.D.D.D.g.p.p.D.B.N.^.(.!.G a ^.Q.a A A A A A : ; [.*X*X*X*X*X*X*X*X*X",
"*X*X*X*X*X&X'.&...#.#.@.#.#.#.#.#.#.#.#.#...! ! T ~ ] '.D.D.D.D.F.F.F.h.D.h.N.^.(.^.b.a !.W.i A A A A A B ; p =X*X*X*X*X*X*X*X*X",
"*X*X*X*X*X*X).>.<.<.<.<.<.<.<.:.6.:.:.:.L :.>.J s b.'.U.S.F.F.F.D.D.D.F.D.D.m.P.^.Q.v.t P.P.t V C C A B B 9 - [.*X*X*X*X*X*X*X*X",
"*X*X*X*X*X=X].n.G.G.G._.G.'..X.X.XXXOXXX_.OXOX#XoX#X*X&X*X+XS.F.D.D.D.D.D.D.Z.z.W.Q.N.r v.N.b.)._.`._._.'._._.#X*X*X*X*X*X*X*X=X",
"*X*X*X*X*X*X*X$X&X*X*X=X-X*X*X*X*X*X*X*X*X*X*X=X=X*X*X*X*X*X*X+XS.F.F.F.D.D.Z.a P.^.L.l.c.u OX=X*X*X*X*X*X*X*X*X*X*X*X*X*X*X*X*X",
"*X*X*X*X*X*X*X*X*X*X=X=X-X>X X X X:X:X:X:X X X>X X|.|.=X*X*X*X=X$X+XS.F.F.F.T.'.K.W.K.r z.i $X=X*X*X*X*X*X*X*X*X*X*X*X*X*X*X*X*X",
"*X*X*X*X*X*X*X*X=X>X:Xr.2.$.@.#.o.o.o.o.o.o.o.o.O.$.2.r.e.>X-X=X*X*X*X+XS.F.+X$Xn.M.M.l.7 i $X*X*X*X*X*X*X*X*X*X*X*X*X*X*X*X*X*X",
"*X*X*X*X*X*X*X|.e.w.O.| } } } } } } } } } } } } } } } o.q.q.5X=X*X*X*X*X*X@X$X$XH.K.P.c.r a &X*X*X*X*X*X*X*X*X*X*X*X*X*X*X*X*X*X",
"*X*X*X*X*X*X*X8.q.q.q.O.O.O.O.O.O.O.O.O.O.O.O.O.O.O.$.%.q.q.r.=X*X*X*X*X*X*X*X*X].K.-X;Xi J.*X*X*X*X*X*X*X*X*X*X*X*X=X*X*X*X*X*X",
"*X*X*X*X*X*X*X=X:Xr.5.5.r.2.2.w.w.5.3.w.w.2.w.5.5.r.5.5.8.7.}.*X*X*X*X*X*X*X*X*X[.J.[.).s oX*X*X*X-X*X*X*X*X*X*X*X*X*X*X*X*X*X*X",
"*X*X*X*X*X*X*X*X*X*X*X&X}.}.=X}.}.}.}.=X}.}.}.}.&X&X=X&X&X=X*X*X*X*X*X*X*X*X*X*X].l.b.;.`.&X=X*X*X*X*X*X*X*X*X*X*X*X*X*X*X*X*X*X",
"*X*X*X*X*X*X*X*X*X*X*X*X*X*X*X=X*X*X*X*X=X*X*X*X*X=X*X*X*X*X*X*X*X*X*X*X*X*X*X*X'.x.U.&XXX$X=X*X*X*X*X*X*X*X*X*X*X*X*X*X*X*X*X*X",
"*X*X*X*X*X*X*X*X*X*X*X*X*X*X*X*X*X*X*X*X*X*X*X*X*X*X*X*X*X*X*X*X*X*X*X*X*X*X*X*X'.XX$XXX'.*X*X*X*X*X*X*X*X*X*X*X*X*X*X*X*X*X*X=X",
"*X*X*X*X*X*X*X*X*X*X*X*X*X*X*X*X*X*X*X*X*X*X*X*X*X*X*X*X*X*X*X*X*X*X*X*X*X*X*X#XH.&X$XXX*X*X*X*X*X*X*X*X*X*X*X*X*X*X*X*X*X*X*X-X",
"*X*X*X*X*X*X*X*X*X*X*X*X*X*X*X&XT.+X*X*X*X*X*X*X*X*X*X*X*X*X*X*X*X*X*X*X*X*X*X[.'.XX].*X*X*X*X*X*X*X*X*X*X*X*X*X*X*X*X*X*X*X*X*X",
"*X*X*X*X*X*X*X*X*X*X*X*X*X*X*X*XC.F.+X*X*X*X*X*X*X*X*X*X*X*X*X*X*X*X*X*X*X*X*X#X'.OX*X*X*X*X*X*X*X*X*X*X*X*X*X*X*X*X*X*X*X*X*X*X"
};
