/* XPM */
static char *_Ea1721788814[] = {
/* columns rows colors chars-per-pixel */
"64 64 240 2 ",
"   c #010000",
".  c #0D0303",
"X  c #180707",
"o  c #220D0D",
"O  c #2D0E0E",
"+  c #2B1512",
"@  c #361111",
"#  c #3B1716",
"$  c #312C34",
"%  c #471D1C",
"&  c #501D1D",
"*  c #52322A",
"=  c #652D24",
"-  c #5A462F",
";  c #654833",
":  c #6D4D35",
">  c #6B543A",
",  c #0F1F4B",
"<  c #1F2245",
"1  c #162757",
"2  c #263151",
"3  c #172C62",
"4  c #1B326D",
"5  c #1C3778",
"6  c #293A6E",
"7  c #233B79",
"8  c #4E2E49",
"9  c #453F41",
"0  c #703A4F",
"q  c #354C55",
"w  c #395272",
"e  c #4E5650",
"r  c #73534E",
"t  c #496555",
"y  c #6C7156",
"u  c #4A5472",
"i  c #675F62",
"p  c #76556C",
"a  c #556F6C",
"s  c #7A6664",
"d  c #6F7072",
"f  c #8A392E",
"g  c #9A4607",
"h  c #974E1B",
"j  c #994919",
"k  c #A44E11",
"l  c #9B4823",
"z  c #934E2C",
"x  c #AB5828",
"c  c #AE6B37",
"v  c #894D4C",
"b  c #8D504E",
"n  c #91514E",
"m  c #8F5050",
"M  c #885B5D",
"N  c #935353",
"B  c #915658",
"V  c #936F5A",
"C  c #A46953",
"Z  c #AA7854",
"A  c #865965",
"S  c #875168",
"D  c #8B7169",
"F  c #D36C48",
"G  c #798655",
"H  c #6F8470",
"J  c #8B9514",
"K  c #9DA51C",
"L  c #B4A60F",
"P  c #A5AD1F",
"I  c #A8A81D",
"U  c #8D9636",
"Y  c #9CA434",
"T  c #A5AC21",
"R  c #A9AB25",
"E  c #B0AE2D",
"W  c #BAB92E",
"Q  c #BAB933",
"!  c #F99A08",
"~  c #F29917",
"^  c #CABC0B",
"/  c #F9A00D",
"(  c #F8A416",
")  c #E89F22",
"_  c #D3B232",
"`  c #F4A837",
"'  c #F9AB33",
"]  c #EBB232",
"[  c #FAB937",
"{  c #D5C90A",
"}  c #EBDF13",
"|  c #F9EB0F",
" . c #FFF200",
".. c #FDF009",
"X. c #FAC53A",
"o. c #EAD633",
"O. c #909256",
"+. c #B38757",
"@. c #9AA345",
"#. c #A8A955",
"$. c #908D71",
"%. c #AC8C71",
"&. c #B59776",
"*. c #CB9A52",
"=. c #D1B052",
"-. c #E6AF41",
";. c #F1BA42",
":. c #FDBA43",
">. c #E7BA58",
",. c #C99471",
"<. c #D0B370",
"1. c #E4BE67",
"2. c #ABC557",
"3. c #9FC96C",
"4. c #AEC96D",
"5. c #DAC44F",
"6. c #F0CF4B",
"7. c #DBC86F",
"8. c #1E3E88",
"9. c #213D83",
"0. c #274389",
"q. c #3D5387",
"w. c #254795",
"e. c #2D4A93",
"r. c #324E98",
"t. c #35559A",
"y. c #264DA5",
"u. c #2951AD",
"i. c #3454A4",
"p. c #3658AC",
"a. c #2B58BC",
"s. c #3A5DB4",
"d. c #3C5FB8",
"f. c #3E63BD",
"g. c #495192",
"h. c #6B5A91",
"j. c #486686",
"k. c #496C95",
"l. c #547491",
"z. c #697496",
"x. c #4E5DAA",
"c. c #476CAB",
"v. c #5965AC",
"b. c #4B78A5",
"n. c #557DA6",
"m. c #4865B7",
"M. c #4265BD",
"N. c #4B6BBC",
"B. c #536AB6",
"V. c #5873BB",
"C. c #6879AE",
"Z. c #3F65C1",
"A. c #4165C0",
"S. c #4569C0",
"D. c #8A798B",
"F. c #70878E",
"G. c #7A8397",
"H. c #5884A9",
"J. c #5788B5",
"K. c #6887A9",
"L. c #7887A6",
"P. c #7896A9",
"I. c #6E8CB3",
"U. c #77A4B2",
"Y. c #578EC1",
"T. c #5C97C8",
"R. c #619ACA",
"E. c #7DB2C2",
"W. c #63A7D9",
"Q. c #68AFE2",
"!. c #6BB4E6",
"~. c #8A878B",
"^. c #878888",
"/. c #878A97",
"(. c #939190",
"). c #949293",
"_. c #989697",
"`. c #9B999D",
"'. c #B2968B",
"]. c #B69996",
"[. c #92A79C",
"{. c #ABAC96",
"}. c #B9A897",
"|. c #858CA3",
" X c #8B93A6",
".X c #9D9DA3",
"XX c #979AA8",
"oX c #8B93B2",
"OX c #8F96B2",
"+X c #A09FA4",
"@X c #9CA3AB",
"#X c #94B3AD",
"$X c #A3A2A6",
"%X c #AAA5A4",
"&X c #A7A6AB",
"*X c #A8A9AA",
"=X c #B8B1A9",
"-X c #B2B3B1",
";X c #CAA687",
":X c #D9A985",
">X c #C9B58F",
",X c #EEB58B",
"<X c #D3B5A2",
"1X c #96C093",
"2X c #B2CE90",
"3X c #97CEBA",
"4X c #AED2AF",
"5X c #D2D2B3",
"6X c #81ACC2",
"7X c #82B9C3",
"8X c #88C8CA",
"9X c #98CBC5",
"0X c #8ED0CF",
"qX c #95D4CA",
"wX c #95DBD3",
"eX c #93D9D4",
"rX c #9ADDD3",
"tX c #A3D7C9",
"yX c #AAD2CB",
"uX c #9EE0CE",
"iX c #97E2D7",
"pX c #9AE1D6",
"aX c #9AE1D8",
"sX c #A6E4DB",
"dX c #AEE6D8",
"fX c #ADEAE2",
"gX c #B6EAE3",
"hX c #C8C8C7",
"jX c #CDD4D2",
"kX c #D8D8D7",
"lX c #E9E1DC",
"zX c #CFEDE8",
"xX c #E4E4E3",
"cX c #E9E8E7",
"vX c #EBECEB",
"bX c #EFF0EF",
"nX c #E6F4F3",
"mX c #F3F4F4",
"MX c #F7F7F8",
"NX c #FAFBFB",
/* pixels */
"&X&X&X&X&X&X&X&X&X&X&X&X&X&X&X&X&X&X&X&X&X&X&X&X&X&X&X&X&X&X&X&X&X&X&X&X&X&X&X&X&X&X&X&X&X&X&X&X&X&X&X&X&X&X&X&X&X&X&X&X&X&X&X&X",
"&X&X&X&X&X&X&X&X&X&X&X&X&X&X&X&X&X&X&X&X&X&X&X&X&X&X&X&X&X&X&X&X&X&X&X&X&X&X&X&X&X&X&X&X@XOX&X&X&X&X&X&X&X&X&X&X&X&X&X&X&X&X&X&X",
"&X&X&X&X&X&X&X&X&X&X&X&X&X&X&X&X&X&X&X&X&X&X&X&X&X&X&X&X&X&X&X&X&X&X&X&X&X&X&X&X&X&X@XI.S.oX&X&X&X&X&X&X&X&X&X&X&X&X&X&X&X&X&X&X",
"&X&X&X&X&X&X&X&X&X&X&X&X&X&X&X&X&X&X&X&X&X&X&X&X&X&X&X&X&X&X&X&X&X&X&X&X&X&X&X&X&XOXS.A.S.oX&X&X&X&X&X&X&X&X&X&X&X&X&X&X&X&X&X&X",
"&X&X&X&X&X&X&X&X&X&X&X&X&X&X&X&X&X&X&X&X&X&X&X&X&X&X&X&X&X&X&X&X&X&X&X&X&X*X&XOXV.S.S.A.S.OX&X&X&X&X&X&X&X&X&X&X&X&X&X&X&X&X&X&X",
"&X&X&X&X&X&X&X&X&X&X&X&X&X&X&X&X&X&X&X&X&X&X&X&X&X&X&X&X&X&X&X&X&X&X&X&X&XOXI.S.Z.Z.S.A.S.OX&X&X&X&X&X&X&X&X&X&X&X&X&X&X&X&X&X&X",
"&X&X&XL.z.C.L.|. XXX X+X+X$X&X&X&X&X*X*X&X&X&X&X&X&X&X&X&X&X&X&X&X&X&XOXI.S.Z.A.Z.Z.A.A.S.XX&X&X&X&X&X&X&X&X&X&X&X&X&X&X&X&X&X&X",
"&X&X&Xz.q.U.#XE.U.K.K.K.K.L.I.I.L.|.|./. XXX@X@X$X$X&X&X&X&X&X&X&X&XoXS.A.Z.Z.Z.Z.Z.A.S.S.@X&X&X&X&X&X&X&X&X&X&X&X&X&X&X&X&X&X&X",
"&X&X&XL.K.rXpXaXrXeXwXwXeXeXeX8X3XU.U.I.J.I.K.K.n.C.C.K.L.K.|.@XoXS.S.A.Z.Z.Z.Z.d.8.M.Z.V.XX*X&X&X&X&X&X&X&X&X&X&X&X&X&X&X&X&X&X",
"&X&X&XG.K.iXpXpXaXrXpXpXaXaXpXpXiXiXiXiXiXeXqXiX9X8X8X7XE.E.I.c.Z.Z.A.A.f.f.f.p.3 1 s.Z.V.&X&X&X&X&X&X&X&X&X&X&X&X&X&X$X&X&X&X&X",
"&X&X*X|.K.iXpXaXaXuXuXpXiXpXpXaXiXiXuX3X(.O.Z $.3XwXiXaXiXiX0Xc.Z.Z.A.A.f.M.8.1 1 8 M.f.B.~.~.~.~.~.~.~.~.~.~.~./.D./.D..X&X&X&X",
"&X&X*X/.K.iXaXpXrX4X<.2X4XpXpXpXiXuXqXy h x F x V 9XzXzXgXsX8Xc.Z.Z.Z.p.m.r.1 4 0 f m.Z.g.# @ @ @ @ @ @ @ @ @ # # @ @ % 9 &X&X&X",
"&X&X&XXXI.wXaXpX4X) ~ ! <.tXiXiXpXpXiXU.* j h h x _.nXnXnXzXqXc.Z.x.9.2 u 0 0 p 0 f h.Z.g.% o X o . O . + X % % % % X @ 9 &X&X&X",
"&X&X+X.XK.wXiXaX<.! ! ! ) 4XpXiXiXpXwXP.% = h x h @XzXzXgXgX9Xm.x.f 8 * f k g k k g p A.8.o . . = # #   % o X # * X X @ 9 &X&X&X",
"&X&X&X.XK.wXiXrX<.! ! ! ) 4XuXpXiXpXeX[.> + = = * (.sXpXpXpX8Xm.x.j B l k c +.].C z v.A.g.% X   % = X   % o   o %     @ 9 &X&X&X",
"&X&X&X+XK.eXpXwX4X_ ( ) <.uXpXpXiXiXiX3XD - + o e 3XpXpXpXpX8XB.S j Z ;X5XlXmXMX].x v.M.6 O . . % = X   & o   o %     @ 9 &X&X&X",
"&X&X&X+XK.0XrXaXuX4X2X2XtXaXiXiXaXaXpXqX'.,.Z V #XiXiXiXaXpX0Xv.k c lXMXbXkX&XvX>Xk h.d.1     X & @ &   % o   o %     @ e &X&X&X",
"&X&X&X&XK.0XaXaXpXpXsXpXaXaXpXpXaXpXpXpX#X<.,X,X#XwXiXiXaXpX0XV.S Z bXhXhXlX+XkX].l v.M.2 X . % o   & o & o   o %     @ * @X&X&X",
"&X&X&X&XP.0XaXaXpXpXpXaXaXaXpXaXpXsXrX9XyX<X<X5X=XyXrXrXpXpX8XN.S *.xX%XkXhX.XlX].m m.M.8 & @ @     X @ O X   X @     @ 9 &X&X&X",
"&X&X&X&XP.0XiXaXpXpXaXpXpXpXpXpXrXyXxXnXMXMXmXMXMXnXkX9XrXpX8XN.n Z -XD.D.&XhXlX].v x.s.* # @ @ @ @ @ @ @ @ @ @ @ @ @ # 9 &X&X&X",
"&X&X*X*XP.8XiXiXiXaXpXpXwXsXdXdXjXMXNXNXMXNXNXNXNXNXNXvXyXqX8XN.n +.vXmXlXkXMXmX'.l v.V.d i i i i i i i i i i i i i i i d &X&X&X",
"&X&X&X*XP.8XpXpXpXaXaXaXgXnXnXzXxXbXNXMXMXNXNXNXNXNXNXNXmXyX8XN.S +.mXMXvXkX<XD.z S S.C.+X&X&X&X&X&X&X&X&X&X&X&X&X&X&X&X&X&X&X&X",
"&X&X*X*XP.8XpXpXaXaXpXpXgXnXnXjXvXjXvXMXMXNXNXNXNXNXNXmXcXjX7XN.S C ].].C x l n l v.A.C.&X&X&X&X&X&X&X&X&X&X&X&X&X&X&X&X&X&X&X&X",
"&X&X*X*XP.8XpXpXrXpXpXiXsXgXzXlXmXjXhXxXbXNXMXNXNXNXmXjXhXxX6Xv.j g l k g g m D.0 A.Z.oX&X&X&X&X&X&X&X&X&X&X&X&X&X&X&X&X&X&X&X&X",
"&X&X&X*XP.7XaXaXiXaXaXaXiXpX3XhXxXhX~.-XbXMXNXNXNXMXvX`.hXcX&XB.S j S 0 B p x.8.9.M.Z.oX+X&X&X&X&X&X&X&X&X&X&X&X&X&X&X&X&X&X&X&X",
"&X&X&X&XP.E.aXaXiXaXaXaXpXpX9X_.}.%Xi =XmXNXNXNXMXvXlXd %X=XoXM.x.v g.9.x.e.u.8.e.A.A.oX&X&X&X&X&X&X&X&X&X&X&X&X&X&X&X&X&X&X&X&X",
"&X&X&X&X XU.iXiXpXpXpXpXpXpXqX;X,X,.e -XmXMXMXMXMXxXhXs '.:XD.S.M.g.w.9.d.9.y.8.r.A.S. X&X&X&X&X&X&X&X&X&X&X*X&X&X&X&X&X&X&X&X&X",
"&X&X&X&XoXE.sXsXaXsXpXpXpXsX#X:X,X'.z.=XvXNXMXMXbXkX-XH ;X,XD.S.M.8.8.M.f.y.w.8.i.A.M.|.&X&X&X&X&X&X*X&X&X&X*X*X&X&X&X&X&X&X&X&X",
"&X&X&X&X@XE.fXgXfXfXfXfXfXsX'.:X,X#XXXhXhXbXvXcXxXcX*X[.[.,XD.N.d.9.y.Z.Z.d.y.9.p.Z.m./.`._.`.`.`.`._.XX_.`.`.`.`.`.&X&X&X&X&X&X",
"&X&X&X&XXXE.gXfXfXfXfXfXsXpX;X<.<.3X[.xXkXjXcXkXhXcX&X#X[.,X].S.d.r.d.x.d.f.p.4 p.Z.m.i r > r > > > > > > r > > > r /.&X&X&X&X&X",
"&X&X&X&X@XU.aXaXpXpXpXpXpXqX;X,X;X3X#XhXMXxXkXkX*XhX$X9X*X,X:Xm.Z.Z.d.5 9.Z.d.8.d.Z.v.m b n N b b b v v b b m m v ; .X&X&X&X&X&X",
"&X&X&X&X@XI.eXiXpXiXpXpXpXqX:X,X+X9XkXkXkXmXbXcXhX^.).tX3X<.'.m.Z.Z.e.< 1 d.A.S.Z.Z.v.B N N N N N N N N N B m m - d &X&X&X&X&X&X",
"&X&X&X&X#XK.qXiXuXuXuXuXpX9X:X;XtXyXjXvXkXhXcXMXbXhXd 9XyX;XD.Z.Z.M.3 3 4 8.Z.Z.f.f.v.m m m N N N N N N N N N v * _.&X&X&X&X&X&X",
"&X&X&X&X$XH.qXuX3.3.2.2XsX9X:X{.fXyXhXcXMXcXjXjXkXkX-X9XyX'.D.Z.d.4 1 w.y.9.M.8.k.t.h.M N N N N N N N N N N N : e @X&X&X&X&X&X&X",
"&X&X*X&X*XP.4X2X2.2.4.4XdX[.V $.5X{.-XjXkXlXzXkXjXhX-X#X[.s d Z.r., 9.a.a.7 r.6 a q h.N N N N N N N N N N N N v : (.}.&X&X&X&X&X",
"&X&X*X$X#XP.1X2X2X4.2X4.4.#.%.&.>.O.l.F.|.XX-X-X*X@X/.$.&.C D.f.9.3 y.a.a.y.6 2 H w h.N N N N N N N N N N N N N : y +X&X&X&X&X&X",
"&X&X&X&X*XP.1X4.2.Q Q Q W =.$.Z =.D J.T.J.j.w k.j.k.l.O.+.r ).A.p.8.u.a.a.y.2 q a q.l.D B N N N N N N N N N N N v : $.&X&X&X&X&X",
"*X&X&X&X*X^.#.Q W W W W _ #.Z Z =.$.J.J.k.q.w l.J.R.J.O.O.V D.Z.f.t.y.a.a.6 t e t w u a s M M S M M M M M M M M M r d &X&X&X&X&X",
"&X&X&X&X*XF.#.W Q W K K W Q +.*.;.$.T.Y.J.j.q j.b.H.H.@.E $.c.f.f.s.w.y.w.q t q t w w a H +X+X+X@X$X`..X@X$X$X.X.X+X$X&X&X&X&X&X",
"&X&X&X&X*XP.#.W Q T J J T T T _ ;.(.Q.Q.W.k.t J.T.Y.F.#._ #.N.f.t.f.8.4 y.7 $ 9 a q.l.a ).&X&X&X*X*X*X*X*X*X&X&X&X$X&X&X&X&X&X&X",
"&X&X&X&X&X(.$.W Q T J J J P R _ :.%.Q.!.Q.l.y I.Q.W.H.E Q 2.N.p.3 s.p.t.f.s.4 q H k.F.F.&X&X&X&X&X&X&X&X&X&X&X&X&X&X&X&X&X&X&X&X",
"&X&X&X&X&X_.F.W T K K K P P W ] 6.&.W.!.W.a G J.!.Q.F.T Q #.N.p.1 e.Z.Z.f.0.w q t p.OX*X&X&X&X&X&X&X&X&X&X&X&X&X&X&X&X&X&X&X&X&X",
"&X&X&X&X%X+XF.P P P P P P W ] [ :.,.J.T.J.G U H.T.T.G P T #.Z.p.4 5 f.f.w., 4 t a x.OX*X&X&X&X&X&X&X&X&X&X&X&X&X&X&X&X&X&X&X&X&X",
"&X&X&X&X&X`.F.R P P P P _ ] 6.:.:.*.J.J.b.G U H.J.H.H P T #.Z.s.5 3 i.i.1 1 8.q q k. X@X&X&X&X&X&X&X&X&X&X&X&X&X&X&X&X&X&X&X&X&X",
"&X&X&X&X&X.XF.R P P I _ ;.:.:.:.6.*.b.b.k.G U j.H.k.y P P O.f.p.8.5 w.3 7 3 i.f.t.p.e ).+X&X+X&X&X&X&X&X&X&X&X&X&X&X*X*X&X&X&X&X",
"&X&X&X&X&X$Xz.R P I _ [ :.:.:.:.:.#.H.J.s.G U a H.s.t P P $.M.i.8.5 i.7 y.3 p.f.f.m.e D._._.).).(.).(.(.).).).(.)._..X$X&X&X&X&X",
"&X&X&X&X&X$XG.Y I R -.:.:.:.:.:.:.=.H.J.T.H U l.Y.J.G P T $.A.i.w.5 y.8.y.3 u.f.f.c.r - ; ; ; ; - ; * ; ; : ; ; ; - D.*X&X&X&X&X",
"&X&X*X&X&X*XG.Y I E 6.:.:.:.:.:.:._ F.!.!.F.Y F.W.Y.G P P (.f.i.w.5 t.w.u.3 s.f.Z.B.M v m m B m n b b b m v m v r - `.&X&X&X&X&X",
"&X&X&X&X&X$XG.@.P W 6.:.:.:.:.:.:._ G.!.!.I.O.F.W.Y.G R R ^.f.e.8.4 r.w.u.3 s.Z.M.v.N N N N N N N N N N N N N m * i &X&X&X&X&X&X",
"&X&X&X&X&X&XG.@.P I ] :.:.:.:.:.:.;.(.W.Q.W.H l.R.J.O.T R ~.Z.i.4 3 r.8.y.3 s.Z.M.v.N N N N N N N N N N N N N v * (.&X&X&X&X&X&X",
"&X&X&X&X*X&XG.O.P R ] :.:.:.' :.[ :.*.J.W.T.l.a J.b.U T E /.M.M.d.p.i.7 8.3 d.Z.Z.h.N N N N N N N N N N N N B : - `.*X&X&X&X&X&X",
"&X&X&X&X$X$X/.O.I L ] ' ' ' ' ' ' ' ` ~.J.R.b.j.k.a Y P E |.).5.<.C.d.i.w.4 d.A.A.h.N N N N N N N N N N N N N v - H &X*X&X&X&X&X",
"&X&X&X&X&X&X X$.I ) ' ' ' ' ' ' ` ` ` %.T.T.H.j.j.y K I Y &.o. ...o.I.Z.Z.s.d.Z.A.h.N N N N N N N N N N N N N N ; > _.*X&X&X&X&X",
"&X&X&X&X&X&X/.$._ ' ' ' ' ' ' ` ` ` ` *.H.H.k.u u a O.$.$.=. . . . .4.f.Z.Z.Z.Z.A.h.N N n n N N N N N N N N N N n ; d *X&X&X&X&X",
"&X&X&X&X&X&X_.z.D %.D.,.'.Z D.D.D.D.D.z.l.n.J.j.u a z. X.X5. . ...| {.S.Z.Z.A.A.S.p v r s s s A M s s s A s A A s r s $X&X&X&X&X",
"&X*X&X&X&X&X+X/.D. XD.XXXX+X`.+X.X+X%XXXz.J.I.z.u /.-X&X&X}.o... .6.I.A.Z.Z.A.A.M.p * ~..X$X$X$X$X$X+X+X$X$X$X$X+X+X&X&X&X&X&X&X",
"&X&X&X&X&X&X&X*X&X&X&X&X&X&X&X&X&X&X&X&X/. XhX Xz.+X*X*X&X].F o. .7.U.V.N.N.S.Z.S.D.r `.*X&X&X&X&X&X&X&X&X&X&X&X&X&X&X&X&X&X&X&X",
"&X&X&X&X&X&X&X*X&X&X*X}.>X>X>X<.<.1.1.1.&.l.$.D %.7.<.>X<X}.;X5. .| o.5.{.4.G.Z.S.&XXX$X&X&X&X&X&X&X&X&X&X&X&X&X&X&X&X&X&X&X&X&X",
"&X&X&X&X&X&X&X$X-X>X1.>.[ ( ( ( / ! ! ~ Z l.G.).'.! ( ( ' ;.5.{  .} L { ..o.`.C.V.&X&X&X&X&X&X&X&X&X&X&X&X&X*X&X&X&X&X&X&X&X&X&X",
"&X&X&X&X&X&X&X=X,X6.6.( / ! ! ! ! ! ! ~ $.C.XX@X+.! ! ! ! [ X.^  . .{ ^  .o.$X&X@X&X&X&X&X&X&X&X&X&X&X&X&X&X&X&X&X&X&X&X&X&X&X&X",
"&X&X&X&X&X&X&X}.>.:.6.X.X.[ [ X.[ [ [ ] ).@X*X*.;.[ X.X.[ 6.X.^ { { L } | <.$X&X&X&X&X&X&X&X&X&X&X&X&X&X&X&X&X&X&X&X&X&X&X&X&X&X",
"&X&X&X&X&X&X&X&X}.<.<.<.>.>.>.>.1.>.;.&.).#X&.>.>.>.1.1.<.<.<.<.=.Q } 6.<.&X*X&X&X&X&X*X&X&X&X&X&X&X&X&X&X&X&X&X&X&X&X&X&X&X&X&X",
"&X&X*X&X&X&X&X&X$X&X&X%X%X%X%X+XI.XX%X/.|.|.%X%X%X%X+X+X%X&X%X%X+X].].].$X&X&X&X&X&X&X&X&X&X&X&X&X&X*X&X&X&X&X&X&X&X&X&X&X&X&X&X",
"&X&X&X&X&X&X&X&X&X&X&X&X&X&X%X$XV.S.oX&X$X&X&X&X&X&X&X&X&X&X&X+X'.].'.].*X&X&X&X&X&X&X&X&X&X&X&X&X&X&X&X&X&X&X&X&X&X&X&X&X&X&X&X"
};
