/* XPM */
static char *_G1721788815[] = {
/* columns rows colors chars-per-pixel */
"64 64 244 2 ",
"   c #030000",
".  c #0B0303",
"X  c #120505",
"o  c #1C0909",
"O  c #0F111A",
"+  c #250B0B",
"@  c #2B0C0C",
"#  c #310D0D",
"$  c #341414",
"%  c #302A2C",
"&  c #441A1A",
"*  c #561E1E",
"=  c #692F1F",
"-  c #4B2222",
";  c #572928",
":  c #57382E",
">  c #65302D",
",  c #757C07",
"<  c #56473A",
"1  c #704F34",
"2  c #754C38",
"3  c #101C45",
"4  c #1A2750",
"5  c #16285A",
"6  c #343054",
"7  c #192E67",
"8  c #1E336C",
"9  c #1D3675",
"0  c #2C3C68",
"q  c #233B7A",
"w  c #4F344F",
"e  c #573F69",
"r  c #374F4F",
"t  c #354F71",
"y  c #5B4D4F",
"u  c #6E4F56",
"i  c #4D695A",
"p  c #6F6659",
"a  c #58527A",
"s  c #744F75",
"d  c #516D6B",
"f  c #79726C",
"g  c #747473",
"h  c #9B1E1C",
"j  c #8D3318",
"k  c #A8261B",
"l  c #B3251C",
"z  c #8D382B",
"x  c #E41B22",
"c  c #EC1C24",
"v  c #CD202B",
"b  c #994D0B",
"n  c #9C4817",
"m  c #A15114",
"M  c #914C34",
"N  c #99573A",
"B  c #A25230",
"V  c #A16334",
"C  c #CF3758",
"Z  c #8B4F4D",
"A  c #935353",
"S  c #9A5952",
"D  c #9B644A",
"F  c #A76F4B",
"G  c #875469",
"H  c #8C716A",
"J  c #897575",
"K  c #9C7579",
"L  c #A86577",
"P  c #7A8309",
"I  c #7A8826",
"U  c #728573",
"Y  c #8C9214",
"T  c #929917",
"R  c #9AA31B",
"E  c #A5AC1E",
"W  c #A9AA1E",
"Q  c #B8A815",
"!  c #BAB81B",
"~  c #8E9433",
"^  c #9FA430",
"/  c #A6AC21",
"(  c #A8AC26",
")  c #A8AC2E",
"_  c #B8AE25",
"`  c #B5B62B",
"'  c #BCBB2E",
"]  c #BCBB31",
"[  c #B8B83A",
"{  c #FB9905",
"}  c #F9990A",
"|  c #F09B17",
" . c #C9B815",
".. c #F9A00D",
"X. c #F8A615",
"o. c #E4B918",
"O. c #D2B130",
"+. c #F5B62C",
"@. c #F0AD32",
"#. c #F8AA34",
"$. c #E9BA3B",
"%. c #D5C905",
"&. c #D1CA12",
"*. c #E6D808",
"=. c #F0D911",
"-. c #F6EA05",
";. c #FEF101",
":. c #F5E714",
">. c #E6D529",
",. c #FCC63E",
"<. c #FAC938",
"1. c #E5D334",
"2. c #958B56",
"3. c #B49153",
"4. c #B1B24F",
"5. c #8D8E72",
"6. c #A99571",
"7. c #99A66B",
"8. c #B9B674",
"9. c #D29355",
"0. c #D1AE4C",
"q. c #EDB54B",
"w. c #F3BA44",
"e. c #FCBB43",
"r. c #E6AB52",
"t. c #E9B755",
"y. c #D2AA6D",
"u. c #CFB26E",
"i. c #D4B16E",
"p. c #C8AB78",
"a. c #B9C350",
"s. c #B6CD79",
"d. c #D9C94A",
"f. c #F8C745",
"g. c #EBD24B",
"h. c #CAC46F",
"j. c #E4C66F",
"k. c #1E3D86",
"l. c #213D83",
"z. c #1E4190",
"x. c #274389",
"c. c #284897",
"v. c #364F90",
"b. c #35549A",
"n. c #294FA7",
"m. c #3758A9",
"M. c #2B57B9",
"N. c #3A5DB4",
"B. c #3E61B7",
"V. c #3D63BC",
"C. c #4E5390",
"Z. c #6F5789",
"A. c #526B94",
"S. c #677488",
"D. c #7C7C83",
"F. c #69789A",
"G. c #767D98",
"H. c #525DAB",
"J. c #6C5BA5",
"K. c #4364BD",
"L. c #4A68BB",
"P. c #5469BA",
"I. c #5270B2",
"U. c #5873B9",
"Y. c #6578A5",
"T. c #7372AF",
"R. c #657BB7",
"E. c #3F65C1",
"W. c #4367C0",
"Q. c #8B7A91",
"!. c #A0608B",
"~. c #7A8397",
"^. c #748D91",
"/. c #5987B0",
"(. c #6888A8",
"). c #7784A5",
"_. c #6D93AC",
"`. c #7786B6",
"'. c #6897B8",
"]. c #7195B2",
"[. c #75A6B8",
"{. c #74A9BF",
"}. c #5A8FC7",
"|. c #649AC6",
" X c #74ABC9",
".X c #898785",
"XX c #8F928A",
"oX c #84859D",
"OX c #979798",
"+X c #AD9594",
"@X c #B79997",
"#X c #8FA894",
"$X c #B4A98F",
"%X c #B7A796",
"&X c #8B93A7",
"*X c #8990AE",
"=X c #9C9CA2",
"-X c #979BA9",
";X c #A49EA4",
":X c #90ABB3",
">X c #A2A1A6",
",X c #A7A6AB",
"<X c #ACA9A8",
"1X c #B2AAA2",
"2X c #A3ACB0",
"3X c #B8B8B8",
"4X c #C4A984",
"5X c #CFB38D",
"6X c #D3B9AB",
"7X c #B2D290",
"8X c #A3D1AE",
"9X c #AFD3B1",
"0X c #D5C083",
"qX c #C8C2B3",
"wX c #92BAC2",
"eX c #8CCBCC",
"rX c #95D1CE",
"tX c #97DBD4",
"yX c #ABDBCC",
"uX c #9CE0CC",
"iX c #9AE1D7",
"pX c #97E2D8",
"aX c #9AE1D8",
"sX c #B6E6C8",
"dX c #A5E4DB",
"fX c #A9E4DB",
"gX c #B5E8DD",
"hX c #ABE8E1",
"jX c #B3EBE4",
"kX c #B9E9E2",
"lX c #CDCECD",
"zX c #D9D9D9",
"xX c #E5DCD5",
"cX c #DCE2DC",
"vX c #C4ECE7",
"bX c #D0EEEA",
"nX c #D3F0ED",
"mX c #DBF3F1",
"MX c #E8E7E7",
"NX c #F3EEEB",
"BX c #E5F5F3",
"VX c #E9F4F2",
"CX c #F5F4F4",
"ZX c #FAFBFB",
/* pixels */
",X,X,X,X,X,X,X,X,X,X,X,X,X2X,X,X,X,X,X,X,X,X,X,X,X,X,X,X,X,X,X,X,X,X,X,X,X,X,X,X,X,X,X,X,X,X,X,X,X,X,X,X,X,X,X,X,X,X,X,X,X,X,X,X",
",X,X,X,X,X,X,X,X,X,X,X,X,X,X,X,X,X,X,X,X,X,X,X,X,X,X,X,X,X,X,X,X,X,X,X,X,X,X,X,X,X,X,X,X-X`.2X,X,X,X,X,X,X,X,X,X,X,X,X,X,X,X,X,X",
",X,X,X,X,X,X,X,X,X,X,X,X,X,X,X,X,X,X,X,X,X,X,X,X,X,X,X,X,X,X,X,X,X,X,X,X,X,X,X,X,X,X2X`.W.W.,X2X,X,X,X,X,X,X,X,X,X,X,X,X,X,X,X,X",
",X,X,X,X,X,X,X,X,X,X,X,X,X,X,X,X,X,X,X,X,X,X,X,X,X,X,X,X,X,X,X,X,X,X,X,X,X,X,X,X,X*XW.W.W.W.,X<X,X,X,X,X,X,X,X,X,X,X,X,X,X,X,X,X",
",X,X,X,X,X,X,X,X,X,X,X,X,X,X,X,X,X,X,X,X,X,X,X,X,X,X,X,X,X,X,X,X,X,X,X,X,X,X,X*XU.W.E.E.W.W.>X,X,X,X,X,X,X,X,X,X,X,X,X,X,X,X,X,X",
",X,X,X,X-X=X>X,X,X,X,X<X,X,X,X,X,X,X,X,X,X,X,X,X,X,X,X,X,X,X,X,X,X,X,X,X,X-XR.W.E.E.E.E.W.R.,X,X,X,X,X,X,X,X,X,X,X,X,X,X,X,X,X,X",
",X,X,X-XA.A.Y.T.).).).oX&X&X-X>X>X2X>X>X,X,X2X,X,X,X,X,X,X,X,X,X,X,X,X-X|.W.W.W.E.E.E.E.W.`.,X,X,X,X,X,X,X,X,X,X,X,X,X,X,X,X,X,X",
",X,X,X>XH.^.eXrXrX X[.[._._.[.].(.(.(.^.F.).&X-X&X-X-X-X>X>X,X,X,X,X*XW.K.E.E.W.E.E.V.E.E.`.,X,X,X,X,X,X,X,X,X,X,X,X,X,X,X,X,X3X",
",X,X2X>XY.:XaXpXiXiXiXpXiXpXiXtXpXrXeXeX{.{.{.[.'././.Y./.(.Y.~.`.W.W.W.E.E.W.E.N.l.l.W.V.`.<X,X,X,X,X,X,X,X,X,X,X,X,X,X,X,X,X,X",
",X,X,X>XY.:XpXiXpXiXiXiXiXiXaXpXiXiXpXpXiXiXiXiXtXtXpXrXtXrXeX].V.E.W.W.E.E.E.N.9 3 q W.V.*X2X,X,X,X,X,X,X,X,X,X,X,X,X,X,X,X,X,X",
",X,X,X,XA.:XpXpXiXuXuXuXuXiXiXiXiXiXiXiXiXiXiXiXpXpXiXdXdXpXtX{.K.E.W.E.W.E.c.4 5 > C.K.W.C.y y y y y y y y y y u y y y y XX,X,X",
",X,X,X,XY.:XaXaXuXyXh.0.0.9XiXiXiXaXaXiXiXiXiXiXdXgXvXmXmXbXfX[.N.E.E.m.l.H.6 0 C.j s K.W.6 @ @ @ + @ @ + @ + $ @ @ @ # o Q.,X,X",
",X,X,X,XG.wXtXpXtX8.| } } 0.9XtXiXiXpXiXiXiXiXiXkXmXVXVXVXBXvX{.V.H.e 4 w u j M u h z H.W.w & . & o # + X & + - > ; & X + D.,X,X",
",X,X,X,X). XtXtXtX0.} { } @.9XaXpXiXiXiXaXpXiXpXdXjXvXkXkXfXfX[.N.s z e j j b b B n M H.K.4 X   + ; * X X ;   . - +   X + D.,X,X",
",X,X,X,XoX:XpXaXiXu.} { { r.9XdXiXiXiXiXiXiXiXiXiXiXtXdXiXiXtX'.K.G n N V 3.y.6XlXN G K.K.w & X . > &   X ;     - o   X + Q.,X,X",
",X,X,X,X&X[.aXpXpX9Xu.@.0.7XiXpXiXiXiXiXiXiXiXiXiXiXpXiXaXiXiX{.Z.n F 6XxXNXCXZXNXV A L.m.O .   + * ;   X :     - o   X + D.,X,X",
",X,X,X,X&X_.iXpXiXiXuX9X9XiXdXiXiXiXiXiXiXiXiXiXiXiXpXpXiXiXiX Xs n 5XZXzXzX3XOXNXD Z H.m.O   . & @ & # X ;     - o   X + g ,X,X",
",X,X,X,X=X].iXtXiXiXdXiXiXpXiXiXiXiXiXpXpXiXiXiXiXaXiXiXpXiXtX XP.M 6XMX3XMXlX<XNXV G K.C.% @ $ & . . * + ;     - o   X + D.,X,X",
",X,X,X,X=X_.iXiXiXiXaXiXpXpXaXiXiXiXiXtXaXtXiXiXtXaXpXiXiXiXiX{.H.B 6X>X;X3X,X<XMXD Z.K.v.& $ @ o . . + + + . X o o . o @ D.,X,X",
",X,X,X,X>X].pXiXiXiXiXiXiXiXiXiXiXiXdXdXfXgXgXvXkXgXfXtXiXpXiX|.J.m 6X,X,X.XzXMXMXN G L.v.# # # # # # # # # # # # # @ # o .X,X,X",
",X,X,X,X>X_.tXpXiXiXiXaXpXuXgXvXvXbXbXmXmXBXBXBXBXmXmXvXfXiXiX|.J.m qXZXZXNXCXNXlXB G L.*X-X=X=XOX=X=X=X=X=XOX=X=X=X=X=X=XOX,X,X",
",X,X,X,X=X(.tXpXiXiXaXaXiXvXBXBXBXVXVXBXVXVXVXBXVXVXVXVXnXgXiX}.H.M 6XCXMXqX@XF B Z H.L.*X,X,X,X,X,X,X,X,X<X,X,X,X,X,X,X,X,X,X,X",
",X,X,X,X>X_.tXpXiXiXiXiXiXgXbXmXBXVXBXVXVXBXVXVXBXBXBXVXVXbXiX'.J.n F H V n j A B G L.W.*X2X,X,X,X,X,X,X,X,X,X,X,X,X,X,X,X,X,X,X",
",X,X,X,X>X_.tXpXiXiXiXdXwX2.F <XnXBXBXBXBXBXmXnXvXjXkXvXnXvXpX}.s m k M m n M J.e C.W.L.-X,X,X,X,X,X,X,X,X,X,X,X,X,X,X,X,X,X,X,X",
",X,X,X,X,X(.tXaXaXiXiXiX^.V 1 ^.dXfXfXgXgXfXdXdXiXiXdXtXdXiXrX}.I.G z s Z.Z.v.m.9 m.E.L.>X,X,X,X,X,X,X,X<X,X,X,X<X,X,X,X,X,X,X,X",
",X,X,X,X,XY.eXaXaXiXiXiX:X; 1 #XiXiXiXiXiXiXtXaXiXiXaXiXiXiXrXI.E.J.a x.c.b.l.M.9 N.E.P.-X,X,X,X,X,X,X,X2X,X,X,X,X,X,X,X,X,X,X,X",
",X,X,X,X,XY.rXiXiXpXiXiXtX$Xp.wXiXiXiXiXiXiXaXaXiXiXiXpXiXiXfXW.E.N.c.k.N.m.l.n.9 V.K.P.,X,X,X,X,X,X,X,X,X,X,X,X,X,X,X,X,X,X,X,X",
",X,X,X,X,X~.tXfXdXhXfXyXzXxXxXbXfXiXiXiXiXiXaXaXiXaXiXiXiXiXuXW.E.N.k.b.E.E.n.k.q V.W.Y.,X,X,X,X,X,X,X,X,X,X,X<X,X,X,X,X,X,X,X,X",
",X,X,X,X,X).rXjXjXjXkXBXZXZXZXZXNXyXhXaXaXaXpXaXaXiXpXpXpXpXrXW.V.m.l.E.E.E.K.k.q E.E.H..X.XQ..X5.J 5..X.X.X.X.X.XXXOX>X,X,X,X,X",
"<X,X,X,X<X).rXhXhXdXlXMXZXZXZXcXzXcXtXtXpXaXaXaXdXdXhXhXhXfXtXW.E.N.K.E.k.K.E.c.l.E.E.A.2 2 2 2 u 2 2 2 M 2 2 2 2 2 y >X,X,X,X,X",
",X,X,X,X<X&X XiXiXuX6X,XMXZXZX3X<XyXrXtXdXhXhXjXjXjXjXjXjXjXtXW.E.E.V.k.3 b.E.K.m.W.W.Z.S A A A A A A A A A A A A < J ,X,X,X,X,X",
",X,X,X,X2X&X XdXiXuX5XXXzXCXCX3X6.5XyXjXjXjXjXjXjXjXjXjXjXjXtXW.E.E.N.5 5 9 E.E.W.W.L.Z.A A A A A A A A A A A A Z < =X,X,X,X,X,X",
",X,X,X,X,X&X[.pXiX8X5X#XlXzXcXlX1X5XyXjXjXjXjXjXjXjXjXjXjXjXrXW.E.V.l.5 k.9 N.V.L.V.L.g A A A A A A A A A A A A > g ,X,X,X,X,X,X",
",X,X,X,X,X&X_.uX8X4.u.7.<XzXMXzXyX5X9XgXgXgXjXkXjXgXjXfXjXkXrXW.E.b.3 k.M.k.l.n.t t v.G A A A A A A A A A A A A 1 g ,X,X,X,X,X,X",
",X,X,X,X,XOX].7X7X4.6.7.qXzXzXzX6Xp.h.7Xs.s.7X7X7X9XsXsXgXgXrXW.N.7 5 n.M.M.9 x.i d v.G A A A A A A A A A A A A 2 1 =X,X,X,X,X,X",
",X,X,X,X2X-X_.8X7X7XH 5.2X3XyX[.6.3.4.] ] ] ] ] ] ] [ 4.d.s.#XV.m.9 k.M.M.M.k.6 i d C.f A A A A A A A A A A A A Z 1 f >X,X,X,X,X",
",X,X<X,X,X=X^.s.a.4.2.5./.d d /.+X3.3.] ] ] ' ' ] ] ] ] ] ] 7.V.V.b.z.M.M.M.9 r r d b.g H A A A A A A A A A A A A Z 1 OX,X,X,X,X",
",X,X,X,X<X=X^.[ ` ] a.I /./.A.}.+X$.O.O.' ' ' ] ] ] ] ] ' ' ^.E.E.B.c.n.M.n.r i i r b.d d J J J J J J J K J J J J J f OX,X,X,X,X",
",X,X,X,X,X>X^.[ ] ] [ I |./.^. X+Xe.d. .E ` ` ' ' ` ' ' O.' ^.E.V.V.m.z.c.q 6 r r r b.d i =X,X,X,X,X,X,X,X,X,X,X,X,X,X,X,X,X,X,X",
",X,X,X,X,X,XoX4.] ] ) I /.^.U /.6.w.w.$.E E E E ( Y / ' ' ' XXV.c.m.B.9 x.N.8 % i d b.U g <X,X,X,X,X,X,X,X,X,X,X,X,X,X,X,X,X,X,X",
",X,X,X,X,X,X~.4.' ` R I A.U U /.7.e.e.,._ E E E T , Y ` ' ' XXV.q 0 V.N.V.V.n.8 i d B.#X>X,X,X,X,X,X,X2X,X,X,X,X,X,X,X,X,X,X,X,X",
",X,X2X<X,X>XG.7.` E E ^ /.^.^.|.y.e.e.e.O.E E E T , Y / ( ` XXE.c.5 N.V.V.b.7 t i d I.-X,X,X,X,X,X,X,X<X,X,X,X,X,X,X,X,X,X,X,X,X",
",X,X,X,X>X<X~.5.E E E ^ _.^.'. Xr.e.e.e.' / E R , , P T E ( ^.V.c.7 x.V.m.5 5 0 d d R.,X,X,X,X,X,X,X,X,X,X,X,X,X,X,X,X,X,X,X,X,X",
",X,X,X,X<X<XoX5.E E E / U A.'.&Xt.e.e.w._ / / T , , Y T E / ^.E.c.z.8 m.7 5 8 b.t t U..X,X,X,X,X,X,X,X,X,X,X,X2X,X,X,X,X,X,X,X,X",
",X,X,X,X,X2X&X5.E E E _ 2.A.R.$Xe.e.w.O.E E E T , , , T / / F.V.x.z.9 x.8 z.7 V.N.N.C.u >X,X,X,X,X>X>X,X<X<X2X<X>X,X,X<X,X,X,X,X",
",X,X,X,X,X,X&X5./ E W O.3.S.(.r.e.e.$._ E E W R T Y Y T / / F.V.q c.q c.z.z.8 V.E.E.J.: g J f f f f f f J f f f J J .X>X,X,X,X,X",
",X,X,X,X,X,X-XU / E _ $.r.5.OXq.e.e.O.! ! ! E E E / / R / ) Y.V.z.c.q n.c.z.9 V.E.E.!.h l l l l k k k h k k k k k j < =X,X,X,X,X",
",X,X,X,X,X2X>XU / R O.w.q.OX~.r.<.<.O.! =.-.! E E  .&.&./ ( Y.V.q z.q b.c.z.9 V.E.E.!.x c c c c c c c c c c c c x h g ,X,X,X,X,X",
",X,X,X,X,X,X-X^./ E _ w.e.r.=Xy.:.:.$. .;.;.&.E ! =.;.;.&.^ Y.B.0 2.1.4.A.z.q E.E.E.L c c c c c c c c c c c c c v : OX,X,X,X,X,X",
",X,X,X,X,X,X=XG.( E / $.e.e.r.r.#.:.<.O.o.:.! E ! ;.;.;.>.) U.V.5.=.-.;.1.a q W.E.K.C c c c c c c c c c c c c c h p >X,X,X,X,X,X",
",X,X,X,X,X,X-XG.^ W W @.#.e.#.#.+.*.*.+.o.-.%.*. . .-.-.! ) R.V.t.;.;.;.;.2.q W.E.P.C c c c c c c c c c c c c c = p <X,X,X,X,X,X",
",X,X,X,X,X,X,X~.^ W _ #.#.#.#.#.#.o.+.#.o.*.%.*.Q | =.-.&.[ ).R.d.;.;.;.:.7.c.E.E.P.C c c c c c c c c c c c c c l = XX<X,X,X,X,X",
",X,X,X,X,X,X,X).~ Q @.#.#.#.#.#.#.#.#.#.#.| o.>.Q Q *.-. .*.g.#XoXg.;.;.h.Y.V.E.E.P.C c c c c c c c c c c c c c c h p ;X,X,X,X,X",
",X,X,X,X,X,X,XG.3.9.@.@.w.q.r.#.r.9.9.9.9.9.3.9.3.3.%.-.%.%.:.T.J.C g.;.s.U.E.E.W.J.c c c c x x x x x x x x x x x v = .X,X,X,X,X",
",X,X<X,X,X,X,XG.S.D.Q.Q.Q.Q.Q.Q.oXG.T.Q.G.oXG.oXoX@XO. .%.:.h.-X`.!.g.;.-.d.h.#X0X!.v z G L K K K K K K K K K K K K J OX,X,X,X,X",
",X,X,X,X,X,X,X,X-X-X=X;X;X;X;X;X,X,X,X,X,X,X,X,X,X,X,X4Xp.$X<X,X,X$X&.;.*.W *.;.d.Q.h y ;X,X,X,X<X,X,X,X>X,X2X,X<X<X<X,X,X,X,X,X",
",X,X,X,X,X,X,X,X;X,X,X>X,X2X<X1X1X1X1X1X1X1X1X1X1X1X1X@X@X;X,X,X<Xh.%.-.;.%.%.;.d.T.J XX,X,X,X,X,X,X,X,X,X,X,X,X,X,X,X,X,X,X,X,X",
",X,X,X,X,X,X,X,X,X,X,X6X5Xi.j.t.t.q.q.w.w.w.w.q.q.t.t.t.j.0X5X1X,X8.! &.%.Q -.:.XX`.<X,X,X,X,X,X,X,X,X,X,X,X,X,X,X,X,X,X,X,X,X,X",
",X,X,X,X,X,X,X,X<X5Xj.f.+.X.} } { { { { { { { { { { } } } +.f.g.5X1X8.0.O.>.d.8.`.*X,X,X,X,X,X,X,X,X<X2X,X,X,X,X,X,X,X,X,X,X,X,X",
",X,X,X,X,X,X,X<X5Xf.f.+...X.........} } ..............X.X.X.<.,.f.5X,X@X%X%X%X,X,X,X,X,X,X,X,X,X,X,X,X,X,X,X,X,X,X,X,X,X,X,X,X,X",
",X,X,X,X,X,X,X,X$Xt.w.f.f.f.,.,.f.,.f.,.,.,.,.f.f.f.f.f.f.f.w.t.i.%X@X@X@X+X@X;X,X,X,X,X,X,X,X,X,X,X,X,X,X<X,X,X,X,X,X,X,X,X,X,X",
",X,X,X,X,X,X,X,X<X1X%X$Xp.p.y.y.p.i.i.i.i.i.i.i.y.y.p.p.4X4X%X1X<X,X,X,X,X,X,X,X,X,X,X,X,X,X,X,X,X,X,X,X,X,X,X,X,X,X,X,X,X,X,X,X",
"<X,X,X,X,X,X,X,X<X>X,X,X,X,X,X,XR.-X,X,X,X,X,X,X,X,X,X,X,X,X,X,X,X,X,X,X,X,X,X,X,X,X,X,X,X,X2X,X,X,X,X,X,X,X,X,X,X,X,X<X,X,X,X,X",
",X,X,X,X,X,X,X,X,X,X,X,X,X,X,X,XU.W.*X,X,X,X,X,X,X,X,X,X,X,X,X,X,X,X,X,X,X,X,X,X,X,X,X,X,X,X,X,X,X,X,X,X,X,X,X,X,X,X,X,X,X,X,X,X"
};
