/* XPM */
static char *_H1721788816[] = {
/* columns rows colors chars-per-pixel */
"64 64 234 2 ",
"   c #030000",
".  c #0B0303",
"X  c #120505",
"o  c #1A0707",
"O  c #1D0B0B",
"+  c #250B0B",
"@  c #2C0C0C",
"#  c #310C0C",
"$  c #2C1212",
"%  c #341111",
"&  c #3B1616",
"*  c #441A1A",
"=  c #561E1E",
"-  c #692F1F",
";  c #4C2222",
":  c #562828",
">  c #54362F",
",  c #64302C",
"<  c #757D08",
"1  c #574637",
"2  c #6D4C31",
"3  c #132554",
"4  c #1B326C",
"5  c #1D3573",
"6  c #213976",
"7  c #493059",
"8  c #354D54",
"9  c #334F73",
"0  c #564D4D",
"q  c #5B4D4F",
"w  c #66584D",
"e  c #49695B",
"r  c #6D6559",
"t  c #5E497D",
"y  c #655F62",
"u  c #744978",
"i  c #52716B",
"p  c #78726B",
"a  c #6A7671",
"s  c #7A7874",
"d  c #8A1C16",
"f  c #AD1D1C",
"g  c #912C1A",
"h  c #A8281B",
"j  c #B3261D",
"k  c #A6321F",
"l  c #802E2D",
"z  c #AE3125",
"x  c #CA191F",
"c  c #D51C21",
"v  c #E41B23",
"b  c #EC1C24",
"n  c #CD2C33",
"m  c #E12229",
"M  c #99522B",
"N  c #BB593D",
"B  c #C65F32",
"V  c #BB3C41",
"C  c #914B49",
"Z  c #B15052",
"A  c #A66C5A",
"S  c #94506A",
"D  c #AF546B",
"F  c #916E6C",
"G  c #847975",
"H  c #9C7579",
"J  c #B66469",
"K  c #AC7273",
"L  c #CA4247",
"P  c #C6715D",
"I  c #7A840A",
"U  c #7A836C",
"Y  c #848910",
"T  c #8B9613",
"R  c #969C19",
"E  c #9CA31B",
"W  c #A5AD1E",
"Q  c #AAAB1E",
"!  c #B5B41B",
"~  c #9DA535",
"^  c #A6AC21",
"/  c #A7AB26",
"(  c #B0AD24",
")  c #B3B429",
"_  c #BCBA2E",
"`  c #BCBB31",
"'  c #B8B839",
"]  c #F99908",
"[  c #FA9D0A",
"{  c #EE9C1A",
"}  c #CDBB14",
"|  c #F8A515",
" . c #ED9A31",
".. c #D1B42C",
"X. c #ECB32F",
"o. c #F6AA35",
"O. c #F7B93A",
"+. c #D4CA11",
"@. c #E5D907",
"#. c #EDD314",
"$. c #F8EA04",
"%. c #FEF200",
"&. c #F7E313",
"*. c #DBC82C",
"=. c #F1CB2B",
"-. c #F7C836",
";. c #FCC43B",
":. c #919553",
">. c #A1A045",
",. c #B0AE4D",
"<. c #B4B647",
"1. c #8F9570",
"2. c #AC9578",
"3. c #ADB174",
"4. c #E29D44",
"5. c #D3B252",
"6. c #F9BA43",
"7. c #EBB252",
"8. c #EABA56",
"9. c #D7B169",
"0. c #CDB275",
"q. c #E6BB64",
"w. c #AFC353",
"e. c #AFCB72",
"r. c #D7C957",
"t. c #F9C845",
"y. c #F2CB59",
"u. c #CFC27C",
"i. c #1F3C84",
"p. c #213F87",
"a. c #24438D",
"s. c #294489",
"d. c #36528D",
"f. c #2B4A96",
"g. c #344E98",
"h. c #274DA3",
"j. c #3557A9",
"k. c #375AB1",
"l. c #395CB3",
"z. c #3E60B4",
"x. c #3D62BC",
"c. c #475494",
"v. c #655A9D",
"b. c #556E96",
"n. c #7D7C80",
"m. c #757989",
"M. c #737695",
"N. c #496AAB",
"B. c #546AAB",
"V. c #4565B6",
"C. c #4266BE",
"Z. c #546EB6",
"A. c #4D71B3",
"S. c #5A72B4",
"D. c #6E6FA5",
"F. c #6779B4",
"G. c #3F65C0",
"H. c #4065C0",
"J. c #9A4884",
"K. c #947B84",
"L. c #877395",
"P. c #798990",
"I. c #5A89B3",
"U. c #6C88A8",
"Y. c #798AA7",
"T. c #7B94AB",
"R. c #7583B2",
"E. c #7194B4",
"W. c #7CADB7",
"Q. c #7AA9BC",
"!. c #669DC2",
"~. c #77AFCA",
"^. c #8A8785",
"/. c #948B8C",
"(. c #878B97",
"). c #98969A",
"_. c #AA9691",
"`. c #96A69A",
"'. c #B3A698",
"]. c #858CA9",
"[. c #8896A9",
"{. c #9C9CA2",
"}. c #9398A8",
"|. c #9D9EA9",
" X c #8892B1",
".X c #A19EA3",
"XX c #8DA9B0",
"oX c #A3A2A6",
"OX c #ABA7A7",
"+X c #A7A6AB",
"@X c #B1B4AD",
"#X c #C7B28E",
"$X c #E7B098",
"%X c #D0B4AE",
"&X c #B4CE8D",
"*X c #9DD4A7",
"=X c #B5CDAE",
"-X c #A6DAB4",
";X c #B6E2B7",
":X c #C3C4B0",
">X c #85BBC6",
",X c #87C7CB",
"<X c #90CFCF",
"1X c #94D4CD",
"2X c #97D7D3",
"3X c #95DBD3",
"4X c #9BDFD6",
"5X c #A7DBC9",
"6X c #B3D3CE",
"7X c #A5DCD6",
"8X c #9DE0CE",
"9X c #97E2D7",
"0X c #9AE1D7",
"qX c #9BE1D8",
"wX c #B6E6C7",
"eX c #A3E3DA",
"rX c #ACE4DC",
"tX c #A9E8DF",
"yX c #B2E5DD",
"uX c #ADE9E2",
"iX c #B2ECE4",
"pX c #BBE9E2",
"aX c #C6C7C7",
"sX c #DBDAD9",
"dX c #D5E1DE",
"fX c #C8EEE8",
"gX c #D6EBE8",
"hX c #CFF1EC",
"jX c #D9F4F1",
"kX c #E5E9E8",
"lX c #F5ECE8",
"zX c #E4F5F3",
"xX c #E8F4F2",
"cX c #F6F8F7",
/* pixels */
"+X+X+X+X+X+X+X+X+X+X+X+X+X+X+X+X+X+X+X+X+X+X+X+X+X+X+X+X+X+X+X+X+X+X+X+X+X|.{.+X+X+X+X+X+X+X+X+X+X+X+X+X+X+X+X+X+X+X+X+X+X+X+X+X",
"+X+X+X+X+X+X+X+X+X+X+X+X+X+X+X+X+X+X+X+X+X+X+X+X+X+X+X+X+X+X+X+X+X+X+X+X+XY.|.+X+X+X+X+X+X+X+X+X+X+X+X+X+X+X+X@X+X+X+X+X+X+X+X+X",
"+X+X+X+X+X+X+X+X+X+X+X+X+X+X+X+X+X+X+X+X+X+X+X+X+X+X+X+X+X+X+X+X+X+X+X+X}.S..X+X+X+X+X+X+X+X+X+X+X+X+X+X+X+X+X+X+X+X+X+X+X+X+X+X",
"+X+X+X+X+X+X+X+X+X+X+X+X+X+X+X+X+X+X+X+X+X+X+X+X+X+X+X+X+X+X+X+X+X+X+X+XF.Z.+X+X+X+X+X+X+X+X+X+X+X+X+X+X+X+X+X+X+X+X+X+X+X+X+X+X",
"+X+X+X+X+X+X+X+X+X+X+X+X+X+X+X+X+X+X+X+X+X+X+X+X+X+X@X+X+X+X+X+X+X+X+X].C.Z..X+X+X+X+X+X+X+X+X+X+X+X+X+X+X+X+X+X+X+X+X+X+X+X+X+X",
"+X+X+X+X+X+X+X+X+X+X+X+X+X+X+X+X+X+X+X+X+X+X+X+X+X+X+X+X+X+X+X+X+X+X.XF.C.F.oX+X+X+X+X+X+X+X+X+X+X+X+X+X+X+X+X+X+X+X+X+X+X+X+X+X",
"+X+X+X+X+X+X+X+X+X+X+X+X+X+X@X+X+X+X+X+X+X+X+X+X+X+X+X+X+X+X+X+X+X+X XH.G.F.+X+X+X+X+X+X+X+X+X+X+X+X+X+X+X+X+X+X+X+X+X+X+X+X+X+X",
"+X+X+X+X+X+X+X+X+X+X+X+X+X+X+X+X+X+X+X+X+X+X+X+X+X+X+X+X+X+X+X+X+X|.S.G.l.F.+X+X+X+X+X+X+X+X+X+X+X+X+X+X+X+X+X+X+X+X+X+X+X+X+X+X",
"+X+X+X+X+X+X+X+X+X+XoX+X+X+X+X+X+X+X+X+X+X+X+X+X+X+X+X+X+X+X+X+X+X].G.j.f.F.OX+X+X+X+X+X+X+X+X+X+X+X+X+X+X+X+X+X+X+X+X+X+X+X+X+X",
"+X+X+X+X+X(.D.Y.].].}.}.{.{.oXoX+X+X+X+X+X+X+XoX+X+X+X+X+X+X+XOX|.Z.x.5 g.F.+X+X+X+X+XOX+X+X+X+X+X+X+X+X+X+X+X+X+X+X+X+X+X+X+X+X",
"+X+X+X+X+XM.T.>XXXXX~.U.U.T.T.T.Y.[.P.[.}.}.}.}.{.|.|.oX+X+XOXoXR.H.j.3 h.F.+X+Xs q q q q q q q q q q q q q q q q q q q 0 /.+X+X",
"+X+X+X+X+X].XXqXqXqX0X3X3X4X4X3X1X<X,X>XW.~.W.Q.E.U.U.Y.T.T.Y.Y.Z.H.p.5 j.R.+X+Xy & @ # # $ @ + # + @ + @ @ # $ % % # # O L.+X+X",
"+X+X+X+X+X(.XX9X9X9X0X4X0X0X0XqX0X0X0X9X0X0X0X0X0X3X<X3X<X<X~.N.H.G.s.p.g.R.+X+Xy % O : ; ; * X * o % + X * $ ; , : & o + P.+X+X",
"+X+X+X+X+X(.XXqX0X0X8X2X8X0X0X0X0X9XqXqX0X0X0X0X0X0X9X9XqX0X1XA.H.s.p.p.g. X+X+Xy % O : X X X   + = ; X X :     ; O . X + s +X+X",
"+X+X+X+X+X}.[.0X0X0X5X&X0.&X5X0X0X0X9XqX0X0X0X0X0XrXyXhXfXpX1XA.j.4 c.u g.L.+X+Xy % + , ; ; * X . , *   X :     ; O   X + n.+X+X",
"+X+X+X+X+X{.U.2X4X0X&X{ ] { u.0X0X9XqXqX0X0X0X0XiXjXzXxXxXxXyXN.s.7 S V c. X+X+Xy % + ; .       + = = . X >     ; O   X + G +X+X",
"OX+X+X+X+X{.F.3XqX7X5.] ] ] 5.5X0X0X0X0X0X0X0X0XeXpXhXhXfXrX7XS.v.Z B L c. X+X+Xy % O ;       . * + * % X :     ; O   X + n.+X+X",
"+X+X+X+X+X{.U.3X0X0X0.[ ] ] 5.5X0X0X0XqX0X0X0X0X0X4X0XqX0X0X1XD.J B $XP c. X+X+Xy % O , $ % $ % * . . = + :     ; O   X + n.+X+X",
"+X+X+X+X+X{.U.3XqXqX-X5...5.=X4X0X0X0X0XqX0X0X0X9X0XqXqX0X4X<XL.P $XlX_.v. X+X+Xy & X & & & & @ o . . + + + . . O o . o @ n.+X+X",
"+X+X+X+X+X.XT.3X0X0XqX5X-X5X2X4X0XqX0X0X0X0X0X0X0X9X9X0X9X0X<XL.$XlXsXP c. X+X+Xy % # @ % % # # # # # # # # # # # # @ # o n.+X+X",
"+X+X+X+X+X+XT.3X0X0X9X0X0X0X0X0X0X0X0X0X0X0X0XqX0X9X4X0XqXqX2XL.%XsX:XP B. X.X+X+X{.{.{..X{.{.).{.)..X{.)..X{.{.{.{.{.{.).{.+X+X",
"+X+X+X+X+X+X[.3X0X0X0XqX0X0X0X0X0X0X0X4X0X0X7X4X7X4X0X0XqX4X,XD.%XaXaXK B.|.+X+X+X+X+X+X+X+X+X+X+X+X+X+X+X+X+X+XOX+XOX+X+X+X+X+X",
"+X+X+X+X+X+XXX3X9X0X0X0X0X0X4X7XqXeXeXrXuXiXfXfXfXpXuX4XqXqX,XL.'.OXsXP v.}.+X+X+X+X+X+X+X+X+X+X+X+X+X+X+X+X+X+X+X+X+X+X+X+X+X+X",
"+X+X+X+X+XOXT.,X0XqX0X0X9X0XuXfXdX=XaXjXzXzXzXzXzXzXzXhXpXqX>XD.%XkX%XN B.|.+X+X+X+X+X+X+X+X+X+X+X+X+X+X+X+X+X+X+X+X+X+X+X+X+X+X",
"+X+X+X+X+X+X[.,X9X9X9X0XqXeXjXxX@XM F kXxXxXxXxXxXxXxXxXjXuX,XD.%X$XP Z D..X+X+X+X+X+X+X+X+X+X+X+X+X+X+X+X+X+X+X+X+X+X+X+X+X+X+X",
"@X+X+X+X+X+XXX,X9X9X0X0XqX0XuXhX@X, G gXxXxXxXxXjXjXjXxXxXfX>Xv.J n Z u Z..X+X+X+X+X+X+X+X+X+X+X+X+X+X+X+X+X+X+X+X+X+X+X+X+X+X+X",
"+X+X+X+X+X+XQ.,X0X0X0X0XqXqXqX7XwX'.%XhXhXhXfXpXrXeXeXrXpXrX~.v.N Z t p.S.|.+X+X+X+X{.).+X+X+X+X+X+X+X+X+X+X+X+X+X+X+X+X+X+X+X+X",
"+X+X+X+X+XoX[.,X0X0X0X0XqXqX4X6XkXlXlXdX7XqX0X0XqXqX4X0X4X4X~.B.S c.p.f.F.+X+X+X.X).C r +X+X+X+X+X+X+X+X+X+X+X+X+X+X+X+X+X+X+X+X",
"+X+X+X+X+X+X[.,X0X0X0X0X0X0X7XkXcXcXcXkX6X0X4XqX0X0XqXqX0X3XI.k.f.s.a.h.F.+X+X.XK n j w ^.^.^.^.^.^.^.G ^.^.^.1.^.^.).+X+X+X+X+X",
"+X+X+X+X+X+X[.>XeXeXqX9XqXqX=X=XcXcXdX@X=X8XqX4X0X0X0X0X0X3XI.j.p.j.a.f.F.+X.XD m b c h z h j z j k h k z k z k z k w oX+X+X+X+X",
"+X+X+X+X+X+XXX>XiXiXuXiXiXuX=X_.sXcXsX_.#X2X4XqX0XqX0X9X9X<XA.j.f.l.a.g.R._.L b b b b b b b b b b b b b b b b b b d G +X+X+X+X+X",
"+X+X+X+X+X+X`.>XiXuXuXtXuXtX:XOXaXsXsX@X#X5X4XeXqXeXuXqXeX2XA.j.j.G.f.g.D.n b b b b b b b b b b b b b b b b b b c 1 {.+X+X+X+X+X",
"+X+X+X+X+X+X|.W.9X8X9X9X9X9X@X*X+XkXkX=X#X5XtXiXiXiXiXiXiX7XN.l.g.g.l.l.J.v b b b b b b b b b b b b b b b b b b d s +X+X+X+X+X+X",
"+X+X+X+X+X+X|.Q.9X9X9X9X9X9X`.`.@X6XaXXX`.5XiXiXiXiXiXiXiX7XA.x.6 p.G.x.D b b b b b b b b b b b b b b b b b b b g s +X+X+X+X+X+X",
"+X+X+X+X+X+XoXQ.9X8X*X1X*X0XoXP.F.b.I.E.oX6XiXiXiXiXiXiXiX7XA.l.5 p.k.j.J.b b b b b b b b b b b b b b b b b b b j w .XOX+X+X+X+X",
"+X+X+X+X+X+X|.T.8X-Xw.w.e.-X5X<XE.b.!.~.5XwXiXiXiXiXiXiXiXeXA.f.p.p.9 d.L.Z v b b b b b b b b b b b b b b b b b b g p OX+X+X+X+X",
"+X+X+X+X+X+X+X[.*X&Xw.e.&X;X;X=X!.(.E.W.e.&X&X&X=X;X;X;XwX4XA.6 h.a.8 c. X.XD v b b b b b b b b b b b b b b b b b c 2 ).+X+X+X+X",
"+X+X+X+X+X+X+XY.*Xe.e.e.w.<.w.' U.1.P.P.` ` ` ` ` ` ` w.<.e.N.a.6 9 9 d.M.(.).K m b c z Z J J J J J J J J K J J J J F ).+X+X+X+X",
"+X+X+X+X+X+XOXY.3.w.<.) ` ` ` ' U.3.E.1.` ` _ _ _ ` *.` ..<.N.s.e e 8 9 i U /.+X_.L j w oX+X+X+X+X+X+X+X+X+X+X+XoXoX+X+X+X+X+X+X",
"+X+X+X+XOXOXoXY.,.` ` ` R ) ` ' U.(.!.3.) _ ` ` ` ` ` _ _ <.A.d.e e 8 9 i i P.+X+X_.S ^.+X+X+X+X+X+X+X+X+X+X+X+X+XOX+X+XOX+X+X+X",
"+X+X+X+X+X+X+X(.<.` ` ) T E ) / U b.T.5.Q W ! ) _ / / ` ` ,.B.g.e e 8 d.a i P.+X+X+X+X+X+X+X+X+X+X+X+X+X+X+X+X+X+X+X+X+X+X+X+X+X",
"+X+X+X+X+X+XOX(.1.` ` E I T W W U b.).6...E W W ^ Y E ` _ ,.N.j.9 s.9 b.P.P.{.OX+X+X+X+X+X+X+X+X+X+X+X+X+X+X+X+X+X+X+X+X+X+X+X+X",
"+X+X+X+X+X+X+X).1.' ) E R E E ^ >.(.3.6.X.W W W R < T ( ) >.N.j.h.z.9 b.|.+X+X+X+X+X+X+X+X+X+X+X+X+X+X+X+X+X+X+X+X+X+X+X+X+X+X+X",
"+X+X+X+X+X+X+X}.1.^ W W W ^ W +.5.^.2.6.*.^ W W T < Y W Q >.V.h.l.d.9 A.+X+X+X+X+X+X{.^.+X+X+X+X+X+X+X+X+X+X+X+X+X+X+X+X+X+X+X+X",
"+X+X+X+X+X+X+X).P.W W W W Q ..&.;.9._.6.5.Q W E < < < R W :.V.f.j.4 9 b.+X+X+X+X+X/.l w +X+X+X+X+XoXoX+XOXOXoXOX+X+X+X+X+X+X+X+X",
"+X+X+X+X+X+X+X`.a ^ W ! @.*.=.@.O.6.6.6.) Q W E < < I R W :.V.p.9 4 9 b.+X+X+X.XF n f 1 G s p p p p p p G p G s G G ^.oX+X+X+X+X",
"+X+X+X+X+X+X+X{.b.^ / +.$.-.-.X.O.6.6...+.@.! W Y Y Y T W :.z.s.5 5 k.S.+XoX).Z c b c f j j j j h h h h h h h h h g 1 {.+X+X+X+X",
"+X+X+X+X+X+X+X{.m.~ ! +.#.O.O.&.&.6.6.#.%.%.%.! W R E E W :.z.h.p.a.x.Z.|./.z b b b b b b b b b v b b v b b b b b d s +X+X+X+X+X",
"+X+X+X+X+X+X+XoXm./ +.+.#.O.;.$.&.O.O.$.%.%.$.+.W ^ W W / :.k.p.p.f.z.S.H n b b b b b b b b b b b b b b b b b b x > ).+X+X+X+X+X",
"+X+X+X+X+X+X+XoXm.~ W ..X.6.O.X.&.-.-...$.%.$.! W W W W / :.l.a.f.p.z.v.n b b b b b b b b b b b b b b b b b b b d y +X+X+X+X+X+X",
"+X+X+X+X+X+X+X+Xm.~ W ) O.6.6.=.@.@.=. .{ %.@.! / W ^ W ( >.B.p.f.p.k.v.c b b b b b b b b b b b b b b b b b b b g r oXoX+X+X+X+X",
"+X+X+X+X+X+X+XOXP.>.W ^ X.O.O.X.+.X.O.o.X.$.@.+.@.+.! W ( :.C.p.f.p.k.D.Z v b b b b b b b b b b b b b b b b b b f 2 /.OX+X+X+X+X",
"+X+X+X+X+X+X+X+XP.:.E ..o.o.o.o. .o.o.o.} $.$.! @.$.Q E Q :.H.z.f.i.k.F.{.D c b b b b b b b b b b b b b b b b b b g r oX+X+X+X+X",
"+X+X+X+X+X+X+X+X^.A (  .o.6.o. .4.4.4.4...+.@.} $.*.:.1.1.P.C.H.j.4 k.R.+X.XF n b b b b v v v v v v v v v v v b v c - ^.+X+X+X+X",
"+X+X+X+X+X+X+X+X(.b.K._.K.K./.K.L.L.L.K.2.' ..*.r.'.(.`.{.|.F.H.z.6 k.].+X+XOXK.z v x l S H H H H H H H H H H H H H G ).+X+X+X+X",
"+X+X+X+X+X+X+X+X).).|.|..X.X.X.X.XOX.XOX'._.#X_.OXOXOXOX.X+X XC.H.z.V.F.+X+X+XOX).Z f w +X+X+X+XOXoXOX+XoX+X+X+XOXOX+X+X+X+X+X+X",
"+X+X+X+X+X+X+X+X+X+XOX'.#X#Xu.q.q.q.8.8.8.6.7.7.8.q.q.q.#X#X'.F.H.H.H.].+X+X+X+X+XoXG ^.+X+X+X+X+X+X+X+X+X+X+X+XOXoX+X+X+X+X+X+X",
"+X+X+X+X+X+X+X+XOX#Xu.y.O.| | [ [ ] ] ] ] ] ] ] ] | | [ | O.y.#XZ.H.G. X+X+X+X+X+X+X+X+X+X+X+X+X+X+X+X+X+X+X+X+X+X+X+X+X+X+X+X+X",
"+X+X+X+X+X+X+X+X#Xy.t.X.| [ [ [ [ [ [ [ [ [ [ [ [ [ [ | | =.t.t.).x.x. X+X+X+X+X+X+X+X+X+X+X+X+X+X+X+X+X+X+X+X+X+X+X+X+X+X+X+X+X",
"+X+X+X+X+X+X+X+X#Xt.t.t.t.t.;.;.;.;.;.t.;.;.;.;.;.t.;.;.t.;.t.7.0.Z.H. X+X+X+X+X+X+X+X+X+X+X+X+X+X+X+X+X+X+X+X+X+X+X+X+X+X+X+X+X",
"+X+X+X+X+X+X+X+XoX'.'.'.0.0.9.9.9.9.9.9.9.9.9.9.9.9.0.0.#X#X_.'.+X].H. X+X+X+X+X+X+X+X+X+X+X+X+X+X+X+X+X+X+X+X+X+X+X+X+X+X+X+X+X",
"+X+X+X+X+X+X+X+XOXOX'.+XOX+X+XoX+X+X+X+X+X+X+X+X+X+X+X+X+X+XOXOX+X+XF.}.+X+X+X+X+X+X+X+X+X+X+X+X+X+X+X+X@X+X+X+X+X+X+X+X+X+X+X+X",
"+X+X+X+X+X+X+X+X+X+X+X+X+X+X+X+XR.|.+X+X+X+X+X+X+X+X+X+X+X+X+X+X+X+X+X+X+X+X+X+X+X+X+X+X+X+X+X+X+X+X+X+X+X+X+X+X+X+X+X+X+X+X+X+X",
"+X+X+X+X+X+X+X+X+X+X+X+X+X+X+X+XH.H. X+X+X+X+X+X+X+X+X+X+X+X+X+X+X+X+X+X+X+X+X+X+X+X+X+X+X+X+X+X+X+X+X+X+X+X+X+X+X+X+X+X+X+X+X+X"
};
