/* XPM */
static char *_2C1721788817[] = {
/* columns rows colors chars-per-pixel */
"64 64 211 2 ",
"   c #0A0000",
".  c #130000",
"X  c #1B0000",
"o  c #210000",
"O  c #290000",
"+  c #360101",
"@  c #3E0202",
"#  c #440101",
"$  c #4D0202",
"%  c #530404",
"&  c #5D0303",
"*  c #630606",
"=  c #6B0808",
"-  c #760505",
";  c #573B31",
":  c #713537",
">  c #57473B",
",  c #65482C",
"<  c #6C4336",
"1  c #764839",
"2  c #725A3B",
"3  c #0D1E4A",
"4  c #10224F",
"5  c #122555",
"6  c #12265A",
"7  c #14295D",
"8  c #192C5E",
"9  c #263B4C",
"0  c #142B62",
"q  c #1A2E62",
"w  c #142E6B",
"e  c #1A316A",
"r  c #1C336B",
"t  c #163272",
"y  c #1B3474",
"u  c #1B3679",
"i  c #20376E",
"p  c #213974",
"a  c #253E7D",
"s  c #36504F",
"d  c #304A75",
"f  c #4E584E",
"g  c #435E5A",
"h  c #7D4744",
"j  c #655649",
"k  c #715854",
"l  c #4B6A5C",
"z  c #6A6259",
"x  c #796F5C",
"c  c #695D60",
"v  c #7D5F61",
"b  c #4A6866",
"n  c #52716A",
"m  c #57776A",
"M  c #7C696B",
"N  c #79736C",
"B  c #7C7575",
"V  c #840505",
"C  c #8D0606",
"Z  c #850F0F",
"A  c #930606",
"S  c #990606",
"D  c #970A0A",
"F  c #9B0A0A",
"G  c #850F10",
"H  c #971E18",
"J  c #A30B0B",
"K  c #AA0C0C",
"L  c #B40D0D",
"P  c #AF1110",
"I  c #B31111",
"U  c #BC1515",
"Y  c #97301C",
"T  c #AC2E1E",
"R  c #B9271E",
"E  c #A8321F",
"W  c #873738",
"Q  c #B52B20",
"!  c #AB3327",
"~  c #B73321",
"^  c #C60F0F",
"/  c #C41616",
"(  c #C91819",
")  c #D61717",
"_  c #D2211C",
"`  c #D71C20",
"'  c #E61D25",
"]  c #EC1C24",
"[  c #D52E34",
"{  c #D3363C",
"}  c #E22229",
"|  c #814D2E",
" . c #D23D43",
".. c #8A4C4A",
"X. c #835455",
"o. c #8E5050",
"O. c #935353",
"+. c #B95257",
"@. c #B95D62",
"#. c #806163",
"$. c #80686B",
"%. c #916E69",
"&. c #827877",
"*. c #897B7E",
"=. c #BD6267",
"-. c #BC656A",
";. c #AA7377",
":. c #CD4248",
">. c #C2666A",
",. c #61836E",
"<. c #FB9905",
"1. c #FA9C09",
"2. c #F9A415",
"3. c #F8A618",
"4. c #F7AC27",
"5. c #FABC2F",
"6. c #FABD31",
"7. c #F4BA3B",
"8. c #FBC43A",
"9. c #E5BB5C",
"0. c #D9B66C",
"q. c #CBAC77",
"w. c #D6BB7E",
"e. c #E2B961",
"r. c #F9C945",
"t. c #EEC755",
"y. c #D9C07E",
"u. c #EBC863",
"i. c #1C3B82",
"p. c #1D3E8A",
"a. c #223E85",
"s. c #1E418F",
"d. c #1F4293",
"f. c #284487",
"g. c #22418B",
"h. c #2A468C",
"j. c #234594",
"k. c #284894",
"l. c #2C4A94",
"z. c #224699",
"x. c #24499C",
"c. c #2D4D9B",
"v. c #314E99",
"b. c #325190",
"n. c #325091",
"m. c #33529C",
"M. c #244CA3",
"N. c #2B4FA4",
"B. c #264FA9",
"V. c #2750AD",
"C. c #2851AD",
"Z. c #3253A4",
"A. c #3C5AA4",
"S. c #3456AA",
"D. c #3659AC",
"F. c #395BAD",
"G. c #2752B0",
"H. c #2954B5",
"J. c #2A56BA",
"K. c #2B59BF",
"L. c #3A5DB4",
"P. c #395EB6",
"I. c #3D60A9",
"U. c #3D60B1",
"Y. c #3D62BD",
"T. c #445B99",
"R. c #5169AC",
"E. c #4366BE",
"W. c #4768BC",
"Q. c #4C6ABA",
"!. c #546EB6",
"~. c #586FB4",
"^. c #516DB9",
"/. c #5B72B5",
"(. c #5670B8",
"). c #6B7BAD",
"_. c #727FAF",
"`. c #6175B3",
"'. c #6678B2",
"]. c #6B7CB3",
"[. c #3F65C1",
"{. c #4065C0",
"}. c #817C80",
"|. c #8A7D81",
" X c #7581AC",
".X c #7D86AC",
"XX c #8A8583",
"oX c #8C8889",
"OX c #908B88",
"+X c #989699",
"@X c #A8878B",
"#X c #A5959A",
"$X c #BAAC96",
"%X c #B4AB9A",
"&X c #8B8FA6",
"*X c #848BAB",
"=X c #8C90A7",
"-X c #8D91AA",
";X c #9C9BA2",
":X c #9396A9",
">X c #9698A9",
",X c #9C9DA9",
"<X c #A19FA3",
"1X c #9FA0AA",
"2X c #A3A2A6",
"3X c #AEAAA6",
"4X c #A7A6AB",
"5X c #A8A5A8",
"6X c #B5AEA2",
"7X c #C8B58B",
"8X c #CCB589",
/* pixels */
"4X4X4X4X4X4X4X4X4X4X4X4X4X4X4X4X4X4X4X4X4X4X4X4X4X4X4X4X4X4X4X4X4X4X4X3X4X4X4X4X4X4X4X4X4X4X4X4X4X4X4X4X4X4X4X4X4X4X4X4X4X4X4X4X",
"4X4X4X4X4X4X4X4X4X4X4X4X4X4X4X4X4X4X4X4X4X4X4X4X4X4X4X4X4X4X4X4X4X4X4X4X4X4X4X4X4X4X4X4X4X4X4X4X4X4X4X4X4X4X4X4X4X4X4X4X4X3X4X4X",
"4X4X4X4X4X4X4X4X4X4X4X4X4X4X4X4X4X4X4X4X4X4X4X4X4X4X4X4X4X4X4X4X4X4X4X4X4X4X4X4X4X4X4X4X4X4X4X4X4X4X4X4X4X4X4X4X4X4X4X4X4X4X4X4X",
"4X4X4X4X4X4X4X4X4X4X4X4X4X4X4X4X4X4X4X4X4X4X4X4X4X4X4X4X4X4X4X4X4X4X4X4X4X4X4X4X4X4X4X4X4X4X4X4X4X4X4X4X4X4X4X4X4X4X4X4X4X4X4X4X",
"4X4X4X4X4X4X4X4X4X4X4X4X4X4X4X4X4X4X4X4X4X4X4X4X4X4X4X4X4X4X4X4X4X4X4X4X4X4X4X4X4X4X4X4X4X4X4X4X4X4X4X4X4X4X4X4X4X4X4X4X4X4X4X4X",
"4X4X4X4X4X4X4X4X4X4X4X4X4X4X4X4X4X4X4X4X4X4X4X4X4X4X4X4X4X4X4X4X4X4X4X4X4X4X4X4X4X4X4X4X4X4X4X4X4X4X4X4X4X4X4X4X4X4X4X4X4X4X4X4X",
"4X4X4X4X>X>X,X,X2X2X4X4X4X4X4X4X4X4X4X4X4X4X4X4X4X4X4X4X4X4X4X4X4X4X4X4X4X4X4X4X4X4X4X4X4X4X4X4X4X4X4X4X4X4X4X4X4X4X4X4X4X4X4X4X",
"4X4X4X,XQ.Q.Q.!.(.`.]. X.X*X:X>X,X,X,X<X4X4X4X4X4X4X4X4X4X4X4X4X4X4X4X4X4X4X4X4X4X4X4X4X4X4X4X4X4X3X4X4X4X4X4X4X4X4X4X4X4X4X4X4X",
"4X4X4X,X^.[.[.[.{.{.[.[.[.[.E.W.Q.^.(./.'.]. X.X*X:X>X>X,X,X<X4X4X4X4X3X4X4X4X4X4X4X4X4X4X4X4X4X4X4X4X4X4X4X5X4X4X4X4X4X4X4X4X4X",
"4X4X4X,X!.[.[.[.[.[.[.[.[.[.[.[.[.[.{.{.{.{.[.[.{.W.{.Q.!.!.`.>X4X4X4X4X4X4X4X4X4X4X4X4X4X4X4X4X4X4X4X4X4X4X4X4X4X4X4X4X4X4X4X4X",
"4X4X4X4X/.{.[.[.[.{.[.[.[.[.[.[.[.[.[.[.[.[.[.[.[.[.[.[.{.[.{.-X4X4X4X4X4X4X4X4X4X4X4X4X4X4X4X4X4X4X4X5X4X4X4X4X4X4X4X4X4X4X4X4X",
"4X4X4X4X`.[.Y.Y.l.h.m.F.Y.Y.[.[.[.[.[.[.[.[.[.[.[.[.[.{.[.[.{.-X4X4X4X4X4X&.: W W W W W W W W W W W W W W W W W ..W W : }.4X4X4X",
"4X4X4X4X'.{.[.Y.r 6 4 5 0 r a h.Y.E.[.[.Y.P.P.[.[.{.{.[.[.[.Y.&X4X4X4X4X4X&.K C D S S S A V A V C A V A C S S S S S D D c 4X4X4X",
"4X4X4X4X].[.[.[.f.p.y y w 6 3 5 P.{.[.[.v.q e a h.l.m.P.[.[.E.&X4X4X4X4X5XM F # I / U U J # L & - A O J - P / ( U J * C c 4X4X4X",
"4X4X4X4X X[.[.Y.k.j.G.J.J.G.w 5 P.Y.[.[.Z.u 0 0 0 6 3 a [.[.E.&X4X4X4X4X4X$.J # ( = $ $ # o F ^ ^ * X U = + & ( % + $ C c 4X4X4X",
"4X4X4X4X X[.[.[.l.j.C.K.K.J.t 4 P.[.[.[.Z.z.G.H.H.C.6 h.[.[.E.-X4X4X4X4X4X$.F # ` U I I F X + ) L o X U *   + ( +   @ D c 4X4X4X",
"4X4X4X4X.X[.[.[.Z.s.C.J.K.K.y 3 P.{.[.[.c.j.J.K.K.H.6 v.[.[.W.>X4X4X4X4X4X$.F # ( = % $ # X & ) ^ O X U *   + / +   @ C c 4X4X4X",
"4X4X4X4X*X{.[.[.D.g.C.J.K.K.i.6 P.[.[.{.c.x.J.K.K.V.5 v.[.[.{.>X4X4X4X4X4XM F # ( #       o K F ^ V o U *   + ( +   # C c 4X4X4X",
"4X4X4X4X-X{.[.[.P.g.N.K.K.K.p.7 P.{.[.[.c.x.H.J.J.B.5 Z.[.[.W.>X4X4X4X4X4X$.F # ( % o O o = / # & ) $ U *   + / +   + C c 4X4X4X",
"4X4X4X4X:XW.[.[.Y.g.x.J.K.K.d.7 P.Y.[.[.m.j.H.K.K.z.6 S.[.[.Q.>X4X4X4X4X4X$.F @ / ( U U K L - . X J D P *   + U +   # C c 4X4X4X",
"4X4X4X4X>XQ.[.[.Y.g.x.J.K.K.d.7 P.[.[.[.c.x.H.J.K.z.6 F.{.{.Q.,X4X4X4X4X4XM K - V D C D C C - & & - V - - * * V = * = D c 4X4X4X",
"4X4X4X4X>XQ.[.[.E.x.j.J.K.K.d.6 F.[.[.[.c.x.J.K.J.d.7 L.{.{.Y.,X4X4X4X4X4XB = G G G G G Z Z Z Z G G G G G G Z Z G G G = c 4X4X4X",
"4X4X4X4X,X^.[.[.[.Z.x.J.K.K.d.6 P.[.[.[.Z.x.J.J.K.d.q E.{.{.^.,X4X4X4X4X4X4X4X4X4X4X4X4X4X4X4X4X5X4X4X4X4X4X4X4X4X4X4X4X4X4X4X4X",
"4X4X4X4X,XQ.[.[.[.S.j.J.K.K.M.7 F.[.[.[.Z.M.J.K.J.i.q {.{.{.Q.,X4X4X4X4X4X4X4X4X4X4X4X4X4X4X4X4X4X4X4X4X4X4X4X4X4X4X4X4X4X4X4X4X",
"4X4X4X4X,X!.E.[.[.D.g.H.K.K.B.7 F.[.[.[.N.M.J.K.K.t r E.[.[.^.,X4X4X4X4X4X4X4X4X4X4X4X4X4X4X4X4X4X4X4X4X4X4X4X4X4X4X4X4X4X4X4X4X",
"4X4X4X4X1X!.[.[.[.P.g.C.J.J.M.0 F.[.[.[.S.x.J.K.K.t i Y.[.[.!.2X4X4X4X4X4X4X4X4X4X4X4X4X4X4X4X4X4X4X4X4X4X4X4X4X4X4X4X4X4X4X4X4X",
"4X4X4X4X4X/.[.[.[.Y.j.M.H.B.p.g.Y.[.[.[.c.p.M.H.H.0 a {.[.[./.,X4X4X4X4X4X4X4X4X4X4X;X+X4X4X4X4X4X4X4X4X4X4X4X4X4X4X4X4X4X4X4X4X",
"4X4X4X4X4X`.[.[.[.Y.k.x.x.j.k.Y.[.[.[.[.Y.m.h.j.z.6 f.[.[.[./.<X4X4X4X4X4X4X4X4X5X@XO.z 5X4X4X4X4X4X4X4X4X4X5X5X4X4X4X4X4X4X4X4X",
"4X4X4X4X4X].[.[.[.[.x.j.g.Z.Y.[.[.[.Y.[.[.[.Y.c.j.y h.{.{.[./.4X4X4X4X4X4X4X4X4X;.[ R j OXOXXXXXXXXXXXXXOXOXOXXXXXoX+X4X4X4X4X4X",
"4X4X4X4X4X X[.[.[.[.c.a.D.Y.[.[.Y.c.p D.[.[.[.[.P.c.Z.[.{.[.`.2X4X4X4X4X4X4X#X@.} ] ) R ~ R T R ~ T T E ! E E ~ T E k 2X4X4X4X4X",
"4X4X4X4X4X X[.[.[.[.F.P.[.[.[.F.y 5 3 8 h.U.[.[.{.[.[.[.[.[.'.4X4X4X4X4X2X@X:.} ] ] ] ] ] ] ] ] ] ] ] ] ] ] ] ] ' H B 4X4X4X4X4X",
"4X4X4X4X4X.X{.[.[.[.[.[.[.[.S.r 6 y M.p.6 8 Z.Y.{.{.[.[.[.[.'.4X4X4X2X2X@X{ ] ] ] ] ] ] ] ] ] ] ] ] ] ] ] ] ] ] ( < <X4X4X4X4X4X",
"4X4X4X4X4X*X[.U.U.A.Y.{.Y.h.7 0 z.J.K.K.B.y 6 a.P.{.[.[.[.[.).4X4X4X5X;.[ ] ] ] ] ] ] ] ] ] ] ] ] ] ] ] ] ] ] ] H B 4X4X4X4X4X4X",
"4X4X4X4X4X-Xm.s n n I.A.y 6 u G.K.K.K.K.K.J.j.w 0 l.P.{.[.[._.4X4X4X#X{ ] ] ] ] ] ] ] ] ] ] ] ] ] ] ] ] ] ] ] ] Y B 4X4X4X4X4X4X",
"4X4X4X4X4X:Xb.g m n m.r 7 a.J.K.K.K.K.K.K.K.K.B.u 0 p P.[.[._.4X4X4X4X@X .] ] ] ] ] ] ] ] ] ] ] ] ] ] ] ] ] ] ] Q 2 +X4X4X4X4X4X",
"4X4X4X4X4X>Xm.s l s b.S.g.g.M.G.K.K.K.K.K.J.B.z.M.c.D.[.[.[..X4X4X4X4X4X#X+.] ] ] ] ] ] ] ] ] ] ] ] ] ] ] ] ] ] ' Y B 4X4X4X4X4X",
"4X4X4X4X4X,XT.g ,.,.d W.P.k.a.x.M.J.K.J.V.M.M.S.P.[.[.[.{.{.*X4X4X4X4X4X5X#X@.} ] ] ] ] ] ] ] ] ] ] ] ] ] ] ] ] ] _ | +X4X4X4X4X",
"4X4X4X4X4X,XT.s m l d U.[.[.S.k.x.x.x.M.M.N.P.[.{.[.[.[.{.{.*X4X4X4X4X4X4X4X<X;.} ] } ! +.@.>.=.>.>.-.>.-.-.>.-.>.=.%.+X4X4X4X4X",
"4X4X4X4X4X,XR.9 9 9 b.U.P.{.[.P.S.x.j.k.D.[.{.{.{.P.P.{.{.{.:X4X4X4X4X4X4X4X5X5X@X .U z 2X4X4X4X4X4X4X4X4X4X4X4X4X4X4X4X4X4X4X4X",
"4X4X4X4X4X2X/.d l b I.h.q N.[.[.{.P.S.Y.[.[.{.{.Z.q l.[.{.{.-X4X4X4X4X4X4X4X5X5X4X#X%.XX4X4X4X4X4X4X4X4X4X4X4X4X4X4X4X4X4X4X4X4X",
"4X4X4X4X4X4X`.b.n n A.c.t 5 d P.{.{.[.[.{.{.S.a 6 3 Z.{.[.E.&X4X4X4X4X4X4X4X4X4X4X4X4X4X4X4X4X4X4X4X4X4X4X4X4X4X4X4X4X4X4X4X4X4X",
"4X4X4X4X4X4X Xf.g b A.c.s.s.0 y S.Y.[.[.S.p 6 w i.6 F.{.[.W.>X4X4X4X4X4X4X4X4X4X4X4X4X4X4X4X4X4X4X4X4X4X4X4X4X4X4X4X4X4X4X4X4X4X",
"4X4X4X4X4X2X XN.d v.P.Z.s.H.V.i.7 a [.Y.r q j.H.M.t P.[.[.W.>X4X4X4X4X4X4X4X4X4X4X4X4X4X4X4X4X4X4X4X4X4X4X4X4X4X4X4X4X4X4X4X4X4X",
"4X4X4X4X4X4X XY.Y.[.[.S.s.H.J.J.y q Y.Y.g.B.K.K.z.e Y.[.[.W.>X4X4X4X4X4X4X4X4X4X4X4X;XoX2X4X4X4X4X4X4X3X4X4X4X4X4X4X4X4X4X4X4X4X",
"4X4X4X4X4X4X.XY.[.[.[.Z.p.J.K.K.y r [.Y.j.B.K.K.a.q {.[.{.{.,X4X4X4X4X4X4X4X4X4X4XoXj j 2X4X4X4X4X4X4X4X3X3X4X3X4X4X4X4X4X4X4X4X",
"4X4X4X4X4X4X*X{.[.[.[.D.y G.K.J.t i [.[.l.M.K.K.i.p [.{.{.W.,X4X4X4X4X4X4X4X4X,X&.X.: > ,.B N N N M N N N B ,.&.,.B XX2X4X4X4X4X",
"4X4X4X4X4X4X-XE.[.[.E.P.u G.K.J.t p [.Y.c.M.J.K.y a.{.{.{.(.,X4X4X4X4X4X4X4X+Xv ..O...1 ..1 1 ..1 < < < 1 1 < 1 | 1 > ;X4X4X4X4X",
"4X4X4X4X4X4X:XW.[.[.[.L.a.M.H.H.t r {.E.x.j.G.G.0 a.{.{.{.(.<X4X4X4X4X4X4XOXX.O.O.O.O.O.O.O.O.O.O.O.O.O.O.O.O.O.o.: B 4X4X4X4X4X",
"4X4X4X4X4X4X>XW.[.[.[.Y.y s.j.j.t r {.[.k.u z.a.y l.E.[.{.(.1X4X4X4X4X<X|.X.O.O.O.O.O.O.O.O.O.O.O.O.O.O.O.O.O.O.h ; +X4X4X4X4X4X",
"4X4X4X4X4X4X,X^.[.[.[.Y.f.h.k.Z.c.c.[.{.P.D.D.P.P.P.{.{.{./.4X4X4X4X<X*.X.O.O.O.O.O.O.O.O.O.O.O.O.O.O.O.O.O.O.O.; c 4X4X4X4X4X4X",
"4X4X4X4X4X4X1X(.[.[.[.[.[.[.{.{.[.[.[.[.{.{.{.[.[.[.{.{.[.`.4X4X4X4X+Xk o.O.O.O.O.O.O.O.O.O.O.O.O.O.O.O.O.O.O.O., x ,X4X4X4X4X4X",
"4X4X4X4X4X4X4X/.[.[.[.[.[.[.[.[.[.[.[.[.{.{.{.[.[.[.[.[.[.].4X4X4X4X4X+XX.o.O.O.O.O.O.O.O.O.O.O.O.O.O.O.O.O.O.O.1 , OX5X4X4X4X4X",
"4X4X4X4X4X4X2X/.[.{.[.[.[.[.[.[.{.{.{.[.{.{.{.{.{.^.{.!./.*X4X4X4X4X4X4X;XM o.O.O.O.O.O.O.O.O.O.O.O.O.O.O.O.O.O.o., z 2X4X4X4X4X",
"4X4X4X4X4X4X2X).^.(.(./././.'.)._._.*X*X*X-X>X>X>X,X,X<X<X<X4X4X4X4X4X4X4X<XB X.O.O.O.O.o.O.o.O.o.O.o.o.o.o.O.O.o..., oX4X4X4X4X",
"4X4X4X4X4X4X4X4X4X4X2X4X2X2X4X4X4X4X5X4X5X4X4X4X4X4X4X4X4X4X4X4X4X4X4X4X4X4X<X|.X.O...> M &.|.XX*.*.*.*.*.|.|.|.|.|.B +X4X4X4X4X",
"4X4X4X4X4X4X4X4X4X4X4X4X4X4X4X4X4X4X4X4X4X4X4X4X4X4X4X4X4X4X4X4X4X4X4X4X4X4X4X5X+XM : f <X4X4X4X4X4X4X4X4X4X4X4X4X4X4X4X4X4X4X4X",
"4X4X4X4X4X4X4X4X4X4X4X4X4X4X4X4X5X5X5X5X4X4X4X4X4X4X4X4X4X4X4X4X4X4X4X4X4X4X4X4X4X4X}.oX4X4X4X4X4X4X4X4X4X4X4X4X4X4X4X4X4X4X4X4X",
"4X4X4X4X4X4X4X4X4X4X3X6X$X7X7X8X8Xw.w.w.8X8X8X8X7X$X%X3X5X4X4X4X4X4X4X4X4X4X4X4X4X4X4X4X4X4X4X4X4X4X4X4X4X4X4X4X4X4X4X4X4X4X4X4X",
"4X4X4X4X4X4X4X3X$Xy.t.7.4.4.3.3.2.2.2.2.2.2.2.2.4.6.r.u.8X6X4X4X4X4X4X4X4X4X4X4X4X4X4X4X4X4X4X4X4X4X4X4X4X4X4X4X4X4X4X4X4X4X4X4X",
"4X4X5X4X4X4X3Xw.t.8.2.1.<.<.<.<.<.<.<.<.<.<.<.<.<.<.2.8.r.u.6X4X4X4X4X4X4X4X4X4X4X4X4X4X4X4X4X4X4X4X4X4X4X4X4X4X4X4X4X4X4X4X4X4X",
"4X4X4X4X4X4X%X9.r.r.8.6.6.6.6.6.6.6.6.6.6.6.6.6.6.r.8.r.t.9.$X4X4X4X4X4X4X4X4X4X4X4X4X4X4X4X4X4X4X4X4X4X4X4X4X4X4X4X4X4X4X4X4X4X",
"4X4X4X4X4X4X5X%X7Xq.0.0.e.e.e.e.e.e.9.e.e.e.e.e.0.0.q.q.7X6X5X4X4X4X4X4X4X4X4X4X4X4X4X4X4X4X4X4X4X4X4X4X4X4X4X4X4X4X4X4X4X4X4X3X",
"4X4X4X4X4X4X4X4X2X4X4X5X5X5X5X5X5X5X5X4X4X4X<X5X4X5X4X4X4X4X4X4X4X4X4X4X4X4X4X4X4X4X4X4X4X4X4X4X4X4X4X4X4X4X4X4X4X4X4X4X4X4X4X4X",
"4X4X4X4X4X4X4X4X4X4X4X4X4X4X4X4X4X4X4X4X4X4X4X4X4X4X4X4X4X4X4X4X4X4X4X4X4X4X4X4X4X4X4X4X4X4X4X4X4X4X4X4X4X4X4X4X4X4X4X4X4X4X4X4X"
};
