/* XPM */
static char *_Aa1721788816[] = {
/* columns rows colors chars-per-pixel */
"64 64 228 2 ",
"   c #0A0000",
".  c #1A0000",
"X  c #210000",
"o  c #290000",
"O  c #360101",
"+  c #3E0202",
"@  c #440101",
"#  c #4D0202",
"$  c #580303",
"%  c #670707",
"&  c #760505",
"*  c #6C382F",
"=  c #6D4C31",
"-  c #605C34",
";  c #233C7D",
":  c #3A5257",
">  c #3E566A",
",  c #334E74",
"<  c #495555",
"1  c #69574A",
"2  c #506A56",
"3  c #6D6C54",
"4  c #445A6A",
"5  c #695D60",
"6  c #537068",
"7  c #7C696A",
"8  c #78726B",
"9  c #7C7574",
"0  c #840505",
"q  c #8D0606",
"w  c #850F0F",
"e  c #930606",
"r  c #990606",
"t  c #9A0A0A",
"y  c #850F10",
"u  c #8A1C16",
"i  c #A60C0C",
"p  c #B40D0D",
"a  c #AB1716",
"s  c #B51414",
"d  c #BC1515",
"f  c #912C1A",
"g  c #A8281B",
"h  c #B3261D",
"j  c #A6321F",
"k  c #802E2D",
"l  c #873738",
"z  c #AE3125",
"x  c #C60F0F",
"c  c #C71718",
"v  c #D61717",
"b  c #D1211C",
"n  c #D51C21",
"m  c #E41B23",
"M  c #EC1C24",
"N  c #CE2E34",
"B  c #E12229",
"V  c #B93C41",
"C  c #CF3D42",
"Z  c #8A4946",
"A  c #B04F53",
"S  c #985E62",
"D  c #B35D62",
"F  c #82686B",
"G  c #926E6D",
"H  c #837875",
"J  c #9C7579",
"K  c #B66469",
"L  c #A47378",
"P  c #CA4247",
"I  c #7D8C0E",
"U  c #77874C",
"Y  c #69816F",
"T  c #8B9414",
"R  c #949D19",
"E  c #A49F19",
"W  c #99A31C",
"Q  c #A6AD1E",
"!  c #A8A81D",
"~  c #B3B61E",
"^  c #919631",
"/  c #A4992C",
"(  c #9BA432",
")  c #A8AD22",
"_  c #AEAF2E",
"`  c #B6AD23",
"'  c #B8B82C",
"]  c #BCBB31",
"[  c #B6B638",
"{  c #FB9904",
"}  c #F99807",
"|  c #F09916",
" . c #D8BC14",
".. c #F9A517",
"X. c #F0B51C",
"o. c #E99F21",
"O. c #C4A624",
"+. c #C9B22C",
"@. c #D7AD34",
"#. c #ECAE2D",
"$. c #F2BF29",
"%. c #FABA2D",
"&. c #F6AB34",
"*. c #EAB73A",
"=. c #F9B937",
"-. c #D5C812",
";. c #EAD216",
":. c #FAE908",
">. c #FEE815",
",. c #D9C921",
"<. c #F6C82B",
"1. c #F2CD2A",
"2. c #FAC639",
"3. c #9D9D5E",
"4. c #B2AF4B",
"5. c #848E70",
"6. c #B1A970",
"7. c #D1B250",
"8. c #ECAA4E",
"9. c #F4B846",
"0. c #FCBB43",
"q. c #E8BB57",
"w. c #D7B466",
"e. c #C8A977",
"r. c #D3B170",
"t. c #E5BA67",
"y. c #E0B575",
"u. c #B3C557",
"i. c #AEC96D",
"p. c #C5C251",
"a. c #F8C946",
"s. c #F0CB5B",
"d. c #CEC173",
"f. c #223E82",
"g. c #25448D",
"h. c #294489",
"j. c #284997",
"k. c #31509A",
"l. c #37549C",
"z. c #264BA1",
"x. c #2A4EA3",
"c. c #2D53A8",
"v. c #3758A7",
"b. c #3A5DB5",
"n. c #445C9B",
"m. c #566598",
"M. c #5C7B99",
"N. c #6F6D90",
"B. c #6B7699",
"V. c #767A95",
"C. c #747B9D",
"Z. c #445DA3",
"A. c #4B64A9",
"S. c #5369A9",
"D. c #5E75AC",
"F. c #506BB6",
"G. c #6976A6",
"H. c #747DA4",
"J. c #697AB1",
"K. c #8D7D81",
"L. c #5F889D",
"P. c #708A95",
"I. c #79849B",
"U. c #5A83A4",
"Y. c #7984A7",
"T. c #6D91AB",
"R. c #76AFB5",
"E. c #898584",
"W. c #8B8887",
"Q. c #968F8C",
"!. c #85879C",
"~. c #98959B",
"^. c #A2898A",
"/. c #A2959A",
"(. c #94A295",
"). c #BCA489",
"_. c #B2AB97",
"`. c #868CA7",
"'. c #8E92A2",
"]. c #8A94A8",
"[. c #9395A4",
"{. c #9D9DA5",
"}. c #9599AA",
"|. c #9C9DA9",
" X c #8A94B3",
".X c #A19EA4",
"XX c #99A3AC",
"oX c #8FA9B1",
"OX c #95BABC",
"+X c #A2A1A6",
"@X c #AAA5A5",
"#X c #A7A6AB",
"$X c #ABA8A8",
"%X c #AFB2AB",
"&X c #CCB68A",
"*X c #D0B686",
"=X c #B0D08D",
"-X c #99D2B7",
";X c #B0D0B2",
":X c #BFE2BA",
">X c #C1C585",
",X c #9BB8C2",
"<X c #B2BDC4",
"1X c #9BC6C5",
"2X c #8ED2CA",
"3X c #9AD6CA",
"4X c #99DDD4",
"5X c #B9C5C9",
"6X c #A3DBC7",
"7X c #B0D7D1",
"8X c #97E1D7",
"9X c #9AE1D6",
"0X c #9BE1D8",
"qX c #B3E7CD",
"wX c #A7E3D8",
"eX c #A3E4DB",
"rX c #B4E6DA",
"tX c #ADEAE2",
"yX c #B2ECE4",
"uX c #BBE8E3",
"iX c #CDD3D1",
"pX c #C8E4DE",
"aX c #C6ECE6",
"sX c #D5F2EE",
"dX c #D8F0EE",
"fX c #E4F5F2",
"gX c #E9F4F2",
"hX c #F0F3F3",
/* pixels */
"#X#X#X#X#X#X#X#X#X#X#X#X#X#X#X#X#X$X#X#X#X#X#X#X#X#X#XXXB.|.#X#X#X#X#X#X#X#X#X#X#X#X#X#X#X#X#X#X#X#X#X#X#X#X#X#X#X#X#X#X#X#X#X#X",
"#X#X#X#X#X#X#X#X#X#X#X#X#X#X#X#X#X#X#X#X#X#X#X#X#X#X$X+XS. X#X#X#X#X#X#X#X#X#X#X#X#X#X#X#X#X#X#X#X#X#X#X#X#X#X#X#X#X#X#X#X#X#X#X",
"#X#X#X#X#X#X#X#X#X#X#X$X#X#X#X#X#X#X#X#X#X#X#X#X#X#X#XXXS.J..X#X#X#X#X#X#X#X#X#X#X#X#X#X#X#X#X#X#X#X#X$X#X#X#X#X#X#X#X#X#X#X%X#X",
"#X#X#X#X#X#X#X#X#X#X#X#X#X#X#X#X#X#X#X#X#X#X#X#X#X#X#X.XS.F.|.#X#X#X#X#X#X#X#X#X#X#X#X#X#X#X#X#X#X#X#X#X#X#X#X#X#X#X#X#X#X#X#X#X",
"#X#X#X#X#X#X#X#X#X%X#X#X#X#X#X#X#X#X#X#X#X#X#X#X#X#X#X+XS.F. X#X#X#X#X#X#X#X#X#X#X#X#X#X#X#X#X#X#X#X#X#X#X#X#X#X#X#X#X#X#X#X#X#X",
"#X#X#X#X#X#X#X#X#X#X#X#X#X#X#X#X#X#X#X#X#X#X#X#X#X#X#X.XA.c.Y.#X#X#X#X#X#X#X#X#X#X#X#X#X#X#X#X#X#X#X#X#X#X#X#X#X#X#X#X#X#X#X#X#X",
"#X#X#X#X#X#X#X#X#X#X#X#X#X#X#X#X#X$X#X#X#X#X#X#X#X#X#X|.S.h.D..X#X#X#X#X#X#X#X#X#X#X#X#X#X#X#X#X#X#X#X#X#X#X#X#X#X#X#X#X#X#X#X#X",
"#X#X#X#X#X#X#X#X#X#X#X#X#X#X#X#X#X#X#X#X#X#X#X#X#X#X#X+XA.; F.}.#X#X#X#X#X#X#X#X#X#X#X#X#X#X#X#X#X#X#X#X#X#X#X#X#X#X#X#X#X#X#X#X",
"#X#X#X#X$X.X.X.X#X#X#X#X#X$X#X#X#X#X#X#X#X#XXX#X#X#X#X|.Z.f.b.K.#X#X#X#X#X#X#X#X#X#X#X#X#X#X#X#X#X#X#X#X#X#X#X#X#X#X#X#X#X#X#X#X",
"#X#X#X#X#X!.S.B.G.G.C.!.!.|.+X|.|.+X+X+X#X#X$X$X#X#X#X{.Z.z.b.J.#X#X#X#X#X#X#X#X#X#X#X#X#X#X#X#X#X#X#X#X#X#X#X#X#X#X#X#X#X#X#X#X",
"#X#X#X#X#X[.H.1X5X1X,XT.T.T.T.L.U.U.M.M.L.L.T.].].'.}.[.v.j.v.F.|.#X#X#X#X#X#X#X#X#X#X#X#X#X#X@X#X#X#X#X#X#X#X#X#X#X#X#X#X#X#X#X",
"#X#X#X#X.X[.H.6X9X9XeX4X0X4X4X2X2X2X-XR.,XT.L.R.T.U.G.m.v.j.f.Z.}.#X#X#X#XK.* l l l l l l l l l l l l l l l l l l l l * K.#X#X#X",
"#X#X#X#X#X[.Y.3X8X9X0X0X9X9X9X9X9X0X8X9X9X8X4X9X4X9X1X[.Z.z.g.l.}.#X#X#X#XF i q r r r r e 0 e 0 e q 0 r q e e r r r t t 5 #X#X#X",
"#X#X#X#X#X{.Y.3X8X9X9X0X6X6X6X9X9X0X9X9X9X9X9X0X0XuXpX{.n.z.j.l.}.#X#X#X#XF t @ s d d x i @ p # & e X i & s x c d i $ q 5 #X#X#X",
"#X#X#X#X#X{. X6X8X0X9X=X7.8.d.9X9X9X8X0X9X9X0X0XeXsXaX.Xn.z.j.v.}.#X#X#X#XF t @ c % # # @ X t x x % X d % O $ c $ O # q 5 #X#X#X",
"#X#X#X$X#X|.Y.1X4X0X;X7.} } o.=X9X8X9X9X9X9X0X4X4X0XwXXXn.j.j.A.|.#X#X#X#XF t # n d p s t . O m p X . d %   + c O   @ y 5 #X#X#X",
"#X#X#X#X#X.XH.,X9X0X;X@.} { | >X9X9X9X9X9X9X0X9X0X0X4XXXZ.j.f.Z.XX#X#X#X#XF t @ c % $ # @ . $ v c o . d %   O c O   + q 5 #X#X#X",
"#X#X#X#X#X#XH.1X8X9X9X7.| | @.;X9X0X9X9X0X9X0X9X4X0X4XXXn.g.g.A.|.#X#X#X#X7 t @ c @       X p t x 0 X d $   + c o   + q 5 #X#X#X",
"#X#X#X#X#X#XC.OX9X9X8X:X>Xd.;X4X9X0X0X0X9X0X9X9X4X0X4XXXZ.g.g.F..X#X#X#X#XF t @ c $ X X X % x + $ v # d %   O c O   + e 5 #X#X#X",
"#X#X#X#X#X#X!.OX8X8X8X9X9XeX9X8X9X9X9X9X8X9X9X0X0X4X3X|.n.g.g.Z.XX#X#X#X#X7 t + c c d c i p 0   . i e a %   O p O   + q 5 #X#X#X",
"#X#X$X#X#X#XV.oX9X9X9X9X9X8X0X0X9X0X9X9X9XeXeXrXuXuXrX#XZ.j.j.S.#X#X#X#X#XF p & w q q e q q & $ $ & 0 0 & $ % 0 % $ & t 5 #X#X#X",
"#X#X#X#X#X#X!.].9X9X9X9X9X0X9X0X0XeXwXyXuXaXsXfXfXfXfX<XZ.x.c.F..X#X#X#X#X9 % y w w w y y y y y y y y y w y y y y y u % 5 #X#X#X",
"#X#X#X#X#X#X`.OX9X9X8X9X0X0X0XwXaXsXfXfXfXgXfXgXgXgXgX5Xv.j.c.F.#X#X#X#X#X#X#X#X#X#X$X#X#X#X#X#X@X#X#X#X@X#X#X#X#X#X#X#X#X#X#X#X",
"#X#X#X#X#X$X!.oX9X8X0X9X9X0X0XaXgXgXfXgXgXgXgXfXfXfXdX<Xl.j.x.D.|.#X#X#X#X#X#X#X#X#X#X#X#X#X#X#X#X#X#X#X#X#X#X#X#X#X#X#X#X#X#X#X",
"#X#X#X#X#X#X'.,XwX0X0X0X9X0X0XeXaXsXfXfXfXsXsXsXaXrXwXoXv.j.x.D.#X#X#X#X#X#X#X#X#X#X#X#X#X#X#X#X#X#X#X#X#X#X#X#X#X#X#X#X#X#X#X#X",
"#X#X#X#X#X#X!.oX7X0X9X9X9X0X8X0X0XeXwXrXrXtXtXwX9X9X9XoXk.x.x.D.#X#X#X#X#X#X#X#X#X#X#X#X#X#X#X#X#X#X#X#X#X#X#X#X#X#X#X#X#X#X#X#X",
"#X#X#X#X#X#X'. XwX8X0X8X9X9X0X9X8X8X0X0X9X9X9X9X9X8X9XoXk.z.x.G.#X#X#X#X#X#X#X#X#X#XXX~.$X#X#X#X#X#X#X#X#X#X#X#X#X#X#X#X#X#X#X#X",
"#X#X#X#X#X#X[. XwX0X9X9X0X9X9X0X0X0X0X8X8X9X9X9X9X8X8XoXk.z.c.J.#X#X#X#X#X#X#X#X$X^.Z 5 #X#X#X#X#X#X#X#X#X#X#X#X#X#X#X#X#X#X#X#X",
"#X#X#X#X#X#X[.Y.7X0X0X0XeX0X0X0X0X3X^.oXwX9X9X9X9X9X8XOXk.c.c.J.#X#X#X#X#X#X#X.XK.N c 1 W.W.E.W.E.E.5.E.W.W.W.E.W.W.Q.#X#X#X#X#X",
"#X#X#X#X#X#X}.`.rXtXtXtXtXyXtXyXtX3X1 Q.wX9X9X9X0X0X0X,Xx.c.c.Y.#X#X#X#X#X#X/.D B M n h z g h h j g j g z j j z z j 1 |.#X#X#X#X",
"#X#X#X#X#X#X+X`.pXyXyXtXtXwXeXeXeXwX_.;X0X9X9XeXtXyXyX,Xv.b.b.Y.#X#X#X#X.X/.P m M M M M M M M M M M M M M M M M M u H #X#X#X#X#X",
"#X#X#X#X#X#X+XH.pXwXeXeX9X9X0X0X7XfXgXhXpXwXyXyXyXyXyX1Xv.b.b.Y.#X#X#X#XK.N m M M M M M M M M M M M M M M M M m n = .X#X#X#X#X#X",
"#X#X#X#X#X#X+XH.qX8X8X8X8X8X6X9XiXiXgXiXiXrXtXuXyXyXuX1Xv.v.b.`.#X#X@XK.B M M M M M M M M M M M M M M M M M M M u 9 #X#X#X#X#X#X",
"#X@X#X#X#X#X+XC.qX8X8X8X-X=X=X-X%X_.hXiXe.qXuXrXrXqXqX-Xv.c.c.Y.#X#X/.C M M M M M M M M M M M M M M M M M M M M * 9 $X#X#X#X#X#X",
"#X#X#X#X#X#X#XB.qXeX8X-Xi.u.i.;X%X%XiXiX&X6.i.u.u.u.u.3.k.k.j.].#X#X.X^.C M M M M M M M M M M M M M M M M M M M h - +X#X#X#X#X#X",
"#X#X#X#X#X#X#XI.7XwX8X=Xi.i.=Xi.6._.iX5Xe.4.] ] ] +.] ( 4 k.j.'.#X#X#X#X/.P M M M M M M M M M M M M M M M M M M M h 8 $X#X#X#X#X",
"#X#X#X#X#X#X#X!.5XrXqX=X=Xu.[ [ 4.P.M.T.6.4.+.] +.[ 4.( > c.g.'.#X#X#X#X#X.XD M M M M B M M M M M M M M M M M M M b = ~.#X#X#X#X",
"#X#X#X#X#X#X#XI.%XiXi.u.[ ] ' ` ] (.L.T.r.@.` ` _ U Y 3.> , : Y #X#X#X#X#X#X.XL B M B z A D K K K K K K K K K K K D G ~.#X#X#X#X",
"#X#X#X#X#X#X#X!.%Xp.] ] ] ] ) T ' 5.P.I.w.=.+.Q W 2 Y U : : 2 Y .X#X#X#X#X#X#X.X^.P d 5 @X#X#X#X#X#X#X#X#X#X#X#X$X#X#X#X#X#X#X#X",
"#X#X#X#X#X#X#X].(.p.] ] ] ] W I R 5.P.R.q.9.2.` ( 2 Y 2 : < 6 8 #X#X#X#X#X#X#X#X#X/.S E.#X#X#X#X#X#X#X#X#X#X#X#X#X#X#X#X#X#X#X#X",
"#X#X#X#X#X#X#X[.].p.] ] ] ' R T R 3.M.].9.0.0.+.) U U U 4 , 2 P.#X#X#X#X#X#X#X#X#X#X#X#X#X#X#X#X#X#X#X#X#X#X#X#X#X#X#X#X#X#X#X#X",
"#X#X#X#X#X#X#X}.Y.7.] ] ' Q Q ! Q ^ B.6.9.0.0.+.Q Q R - > l.n.[.#X#X#X#X#X#X#X#X#X#X#X#X#X#X#X#X#X#X#X#X#X#X#X#X#X#X#X#X#X#X#X#X",
"#X#X#X#X#X#X#X{.Y.p.] ' Q Q Q Q Q +.Q.w.0.0.9.' Q Q R - > v.F.XX#X#X#X#X#X#X#X#X#X#X#X#X#X#X#X#X#X#X#X#X#X#X$X#X#X#X#X#X#X$X#X#X",
"#X#X$X#X#X#X#X{.H.u.~ Q Q Q Q Q ,.1.e.e.0.0.*.` Q Q W ^ : k.Z.XX#X#X#X#X#X#X#X#X#X.X{.W.#X#X#X#X#X#X#X#X#X#X#X#X#X#X#X#X#X#X#X#X",
"#X#X#X#X#X#X#X.XB.4.) Q Q Q -.-.;.=.0.0.0.0.+.) Q Q ! ^ 4 j.A.|.#X#X#X#X#X#X#X#X#X^.Z < {.#X#X#X#X+X#X#X@X$X$X#X#X#X#X#X#X#X#X#X",
"#X#X#X#X#X#X#X#XP.6.) ) Q ~ ;.$.=.0.0.a.0.0.' Q Q ) Q ( < j.A.|.#X#X#X#X#X#X#X[.S N g * H 9 8 8 8 8 8 8 H 9 9 8 H 9 K.{.#X#X#X#X",
"#X#X#X#X#X#X#X+XB.6.Q Q Q -.-.<.1.a.a.1.2.0.+.! Q Q ! ( n.j.A..X#X#X#X#X#X#X/.A n M n h h h h h g g g g g g g g g f - [.#X#X#X#X",
"#X#X#X#X#X#X#X#XY.6.Q Q Q Q ` 1.>.2.1.:.:.2.*.` ! ) ! ( m.c.A..X#X#X#X#X#X^.V m M M M M M M m M M M m m M M M M M u 9 #X#X#X#X#X",
"#X#X#X#X#X#X#X#XH.).Q Q Q Q Q +.;.;.<.:.>.=.&.#.O.! ! ^ n.x.A..X#X#X|..XJ N M M M M M M M M M M M M M M M M M M c * ~.#X#X$X#X#X",
"#X#X#X#X#X#X#X#XV.(.Q Q Q Q Q O. .X.%.%.:.$.%.&.&.#.O./ m.g.A..X#X#X.XJ n M M M M M M M M M M M M M M M M M M M & 5 #X#X#X#X#X#X",
"#X#X#X#X#X#X#X#XI.(._ Q ! ! ! @.&.&.&. .:. .;.&.&.&.#.@.m.h.S.|.#X#X/.V n M M M M M M M M M M M M M M M M M M M k 3 $X#X#X#X#X#X",
"#X#X#X#X#X#X#X#X'.~._ Q E E O.&.&.&.&.#. .-.;.&.&.&.&.&.N.g.S.|.#X#X|.~.A m M M M M M M M M M M M M M M M M M M h = Q.#X#X#X#X#X",
"#X#X#X#X#X#X#X#X'.I.[ E ! O.@.&.8.&.8.w.8.w.y.t.y.*X*X).S.h.S.#X#X#X#X#X/.S B M M M M M M M M M M M M M M M M M M f 3 +X#X#X#X#X",
"#X#X#X#X#X#X#X#X~.m.H H 5.6./.K.~.!.!.K.K.K.`.C.J.K.N.H.n.f.J.#X#X#X#X#X#X.XL N M M M M M M m m m m m m n m m m m v * W.#X#X#X#X",
"#X#X#X#X#X#X#X#X~.V.`.|.[.|.[.`.'.[..X.X X|.|..X|.#X#X}.n.h.K.|.#X#X#X#X#X#X@XK.V n c k S L L K.L J J J J J J L J G H ~.#X#X#X#X",
"#X#X#X#X#X#X#X#X#X#X#X#X@X%X_.&X&X&X*X*X*X*Xr.*X&X&X&X&Xm.n.|.<X#X#X#X#X#X#X#X|./.A a 1 .X#X$X#X+X@X#X#X#X#X#X#X#X#X#X#X#X#X#X#X",
"#X#X#X#X#X#X#X#X#X$X_.>Xt.0.&.X.....................o.&.B.H.d.&X%X#X#X#X#X#X#X#X#X.XH W.#X#X#X#X#X#X#X#X#X#X#X#X#X$X#X#X#X#X#X#X",
"#X#X#X#X#X#X#X#X$X&Xs.2.....} } { } { { { { { { } } } | N.^.a.a.*X$X#X#X#X#X#X#X#X#X#X#X#X#X#X#X#X#X#X#X#X#X#X#X#X#X#X#X#X#X#X#X",
"#X#X#X#X#X#X#X#X$Xt.a.a.2.=.%.%.%.%.%.%.%.%.%.%.%.%.%.&.N.e.9.9.t.@X$X#X#X#X#X#X#X#X#X#X#X#X#X#X#X#X#X#X#X#X#X#X#X#X#X#X#X#X#X#X",
"#X#X#X#X#X#X#X#X$X_.e.e.w.w.q.q.q.q.q.q.q.q.q.q.q.q.t.w.N.).&X&X_.#X#X#X#X#X#X#X#X#X#X#X#X#X#X#X#X#X#X#X#X#X#X#X#X#X#X#X#X#X#X#X",
"#X#X#X#X#X#X#X#X#X#X#X#X$X#X@X@X#X#X#X#X@X@X@X#X#X@X@X.XC..X.X#X#X#X#X#X#X#X#X#X#X#X#X#X#X#X#X#X#X#X#X#X#X#X#X#X#X#X#X#X#X#X#X#X",
"#X#X#X#X#X#X#X#X#X#X#X#X#X#X#X#X#X#X#X#X#X#X#X#X#X#X#X@X|.#X#X#X#X#X#X#X#X#X#X#X#X#X#X#X#X#X#X#X#X#X#X#X#X#X#X#X#X#X#X#X#X$X#X#X",
"#X#X#X#X#X#X#X#X#X#X#X#X#X#X#X#XY. X#X#X#X#X#X#X#X#X#X#X#X#X#X#X#X#X#X#X#X#X#X#X#X#X#X#X#X#X#X#X#X#X#X#X#X#X#X#X#X#X#X#X#X#X#X#X",
"#X#X#X#X#X#X#X#X#X#X#X#X#X#X#X+XF.F. X#X#X#X#X#X#X#X#X#X#X#X#X#X#X#X#X#X#X#X#X#X%X#X#X#X#X#X#X#X#X#X#X#X#X#X$X#X#X#X#X#X#X#X#X#X"
};
