/* XPM */
static char *_1722099329[] = {
/* columns rows colors chars-per-pixel */
"32 32 20 1 ",
"  c #2B2A2A",
". c #2B3134",
"X c #2E3437",
"o c #32383B",
"O c #313E44",
"+ c #344851",
"@ c #37535E",
"# c #3A5D6B",
"$ c #3E6778",
"% c #417185",
"& c #447C93",
"* c #4786A0",
"= c #4B8AA4",
"- c #4A90AD",
"; c #4E9ABA",
": c #51A5C7",
"> c #54AFD4",
", c #57B9E1",
"< c #5AC3EE",
"1 c #5ECEFC",
/* pixels */
"11111111111111111111111111111111",
"1111111111111<>:---;111111111111",
"1111111111>&@X       +&<11111111",
"11111111>@              %1111111",
"111111<$                 O>11111",
"11111;X                    :1111",
"1111-X          @&%o       X,111",
"111;X           ;111-+      +111",
"11>X           .<11111@      &11",
"11@            +1111111@      <1",
"1;             +11111111o     *1",
"1+              <1111111=     O1",
",               #111111<+      <",
"-                #,111>+       ;",
"%                  @#O         %",
"@                              %",
"@                              #",
"#                              $",
"$                              &",
"*                              ;",
",                              <",
"1X                            #1",
"1-                            ;1",
"11X                          #11",
"11;                         +<11",
"111$                       X>111",
"1111@                     O>1111",
"11111%                   #<11111",
"111111-                O:1111111",
"1111111<%            +;<11111111",
"1111111111;%#OXX++$;>11111111111",
"11111111111111111111111111111111"
};
