/* XPM */
static char *_1722099328[] = {
/* columns rows colors chars-per-pixel */
"32 32 25 1 ",
"  c #2B2A2A",
". c #2E3437",
"X c #313E44",
"o c #354248",
"O c #344851",
"+ c #37535E",
"@ c #3C5762",
"# c #3A5D6B",
"$ c #3F616F",
"% c #3E6778",
"& c #417185",
"* c #447C93",
"= c #488096",
"- c #4D849B",
"; c #4786A0",
": c #4C8AA4",
"> c #4A90AD",
", c #4E9ABA",
"< c #51A5C7",
"1 c #54AFD4",
"2 c #58B3D8",
"3 c #57B9E1",
"4 c #5AC3EE",
"5 c #5FC8F3",
"6 c #5ECEFC",
/* pixels */
"66666666666666666666666666666666",
"666666666666666631<3466666666666",
"6666666666664;+.      +;46666666",
"66146666663&.            ;666666",
"666+46664;.               +66666",
"666%+661O                  +6666",
"6663 +>.     o+             ,666",
"6666.      $<666+           O666",
"6666;     =666661           .666",
"66663    ;6666662            466",
"66666#  #6666666,            666",
"66666> .46666666+           X666",
"666666.;6666666;            %666",
"666666>6666666<.            <666",
"66666666666664X            &6666",
"6666666666664+            #46644",
"666666666666&            %4666=6",
"66666666666>           .;66664+6",
"6666666666<.          #166666:#6",
"6666666664X         .>4666664X;6",
"666666664+         &46666666: >6",
"66666666&        O<6666641*+. 16",
"6666666;       .&46651*@.     46",
"666666,.      #161-#.        X66",
"666663X     X;>#X            #66",
"66664O      X                %66",
"6666&                        ;66",
"666;                         <66",
"66,.               ..XO+#%&;;466",
"63...OO+#&&;;>,11256666666666666",
"64466666666666666666666666666666",
"66666666666666666666666666666666"
};
