/* XPM */
static char *_1722099327[] = {
/* columns rows colors chars-per-pixel */
"32 32 22 1 ",
"  c #2B2A2A",
". c #2F2E2D",
"X c #2E3437",
"o c #313E44",
"O c #344851",
"+ c #37535E",
"@ c #3B5762",
"# c #3A5D6B",
"$ c #3E6778",
"% c #417185",
"& c #447C93",
"* c #4C849A",
"= c #4786A0",
"- c #4B8AA4",
"; c #4C8AA4",
": c #4A90AD",
"> c #4E9ABA",
", c #51A5C7",
"< c #54AFD4",
"1 c #57B9E1",
"2 c #5AC3EE",
"3 c #5ECEFC",
/* pixels */
"33333333333333333333333333333333",
"33333333333333333333333333333333",
"33333333333333333333333321<,::23",
"33333333333332<,:=%$#OoX   .%233",
"3333333333333%             :3333",
"333333333333>              <3333",
"333333333332X             o33333",
"33333333332+              #33333",
"3333333333&               &33333",
"333333333>X     #@        >33333",
"333333332o     +2$        <3333:",
"33333333#     o13$       o33332+",
"3333333&     X<33%       #3333;o",
"333333>X     :333%       &32=+ O",
"333332o     =3333&       &&X   O",
"33333#     $332,%O             O",
"3333&     o=%O                 O",
"333,X                          O",
"332o                           +",
"33$                        O%>++",
"3=                      X>2333-+",
",X   XoO+#$%==>><        233331+",
"<<<22333333333331        >33333*",
"3333333333333333>        %333331",
"3333333333333333:        +333333",
"3333333333333333%        X333333",
"3333333333333333+         233333",
"333333333333333&          #<3333",
"33333333333333%             $<33",
"3333333333333>#$%%&==:>><<122333",
"33333333333333333333333333333333",
"33333333333333333333333333333333"
};
