/* XPM */
static char *_1722010950[] = {
/* columns rows colors chars-per-pixel */
"32 32 21 1 ",
"  c #2B2A2A",
". c #2E3437",
"X c #313E44",
"o c #344851",
"O c #35505B",
"+ c #37535E",
"@ c #3A5D6B",
"# c #3F616F",
"$ c #3E6778",
"% c #417185",
"& c #447C93",
"* c #488096",
"= c #4786A0",
"- c #4C8AA4",
"; c #4A90AD",
": c #4E9ABA",
"> c #51A5C7",
", c #54AFD4",
"< c #57B9E1",
"1 c #5AC3EE",
"2 c #5ECEFC",
/* pixels */
"22222222222222222222222222222222",
"222222222222,>;==;:2222222222222",
"222222222,$.        o=<222222222",
"22222221@.             &22222222",
"2222221o    .+%.        +2222222",
"222222@   .%122&         =222222",
"22222<   X,2222@         o222222",
"22222>   +2222:.         X222222",
"22222<    X==#.          @222222",
"222222@                 .,222222",
"2222222+               X>2222222",
"22222222;.           .%122222222",
"22222221,%            +&:2222222",
"222221&.                 X=22222",
"2222=.                     X,222",
"221@                @@       :22",
"21$                .<2<#      >2",
"2%                 +2222=     X1",
"<.                 X22222;     ;",
"&                   <22222*    +",
"@                   X,2222;    o",
"o                     $;-O     X",
"@                              @",
"&                              =",
":                             .<",
"2o                            =2",
"2,                           @12",
"22>.                        %122",
"222<o                     o:2222",
"22222;+                 o>122222",
"2222222,=@.         o$=,22222222",
"222222222222<,>>,,11222222222222"
};
