/* XPM */
static char *_1722010950[] = {
/* columns rows colors chars-per-pixel */
"32 32 32 1 ",
"  c #2B2A2A",
". c #2F2E2D",
"X c #2E3437",
"o c #32383B",
"O c #313E44",
"+ c #354248",
"@ c #344851",
"# c #394D55",
"$ c #37535E",
"% c #3B5762",
"& c #3A5D6B",
"* c #3F616F",
"= c #3E6778",
"- c #426B7D",
"; c #417185",
": c #45768A",
"> c #447C93",
", c #4D849A",
"< c #4786A0",
"1 c #4C8AA4",
"2 c #4A90AD",
"3 c #4F94B1",
"4 c #4E9ABA",
"5 c #579DBA",
"6 c #51A5C7",
"7 c #55A9CB",
"8 c #54AFD4",
"9 c #58B3D8",
"0 c #57B9E1",
"q c #5AC3EE",
"w c #5EC7F2",
"e c #5ECEFC",
/* pixels */
"eeeeeeeeeeeeeeeeeeeeeeeeeeeeeeee",
"eeeeeeeeeeq8<>;;>>40eeeeeeeeeeee",
"eeeeeeeq<$X         X;6eeeeeeeee",
"eeeeeq<X               O8eeeeeee",
"eeee4@                   =eeeeee",
"eee2X                     @0eeee",
"ee2                        X0eee",
"e6X                         Oqee",
"e$                           &ee",
"4                             4e",
";                X.           Oe",
"@              =7ee9%          q",
"O             ;eeeeee&         >",
"$            Xqeeeeee;         ;",
"&            +eeeee0$          $",
"4             qe84&X           @",
"e@            XX               &",
"e8X                   X        &",
"ee8X                @4>        <",
"eeee;            X@6qe,        8",
"eeeee0>&     X@=4qeeee;       Oe",
"eeeeeeeeee00qqeeeeeeeqO       >e",
"ee1qeeeeeeeeeeeeeeeee1       Xqe",
"ee2o5eeeeeeeeeeeeeee4X       <ee",
"eeeX =8eeeeeeeeeeee1X       $eee",
"eee=   *3eeeeeeeq8$        Oqeee",
"eee0      #=:;-&X         O8eeee",
"eeeeX                    O0eeeee",
"eeee<$=                 ;qeeeeee",
"eeee0&e2@             @6eeeeeeee",
"eeeee>eee6;X       @>6eeeeeeeeee",
"eeeeeweeeeee064248qeeeeeeeeeeeee"
};
