/* XPM */
static char *__duck_bh1A1721200803[] = {
/* columns rows colors chars-per-pixel */
"64 64 239 2 ",
"   c #3D211D",
".  c #02012A",
"X  c #1C1A2F",
"o  c #060436",
"O  c #24233C",
"+  c #392E34",
"@  c #59321A",
"#  c #6A2D1C",
"$  c #6D3719",
"%  c #74371C",
"&  c #503630",
"*  c #6F382A",
"=  c #5C4C1D",
"-  c #6B4618",
";  c #764817",
":  c #7B5718",
">  c #5A4B2C",
",  c #785828",
"<  c #724F33",
"1  c #7B6A28",
"2  c #070545",
"3  c #060456",
"4  c #090655",
"5  c #070459",
"6  c #09065C",
"7  c #0D0A5D",
"8  c #1A1754",
"9  c #271D44",
"0  c #331E43",
"q  c #1B2257",
"w  c #2B2843",
"e  c #3A2142",
"r  c #383847",
"t  c #0A0663",
"y  c #0D0865",
"u  c #0B076D",
"i  c #0E096C",
"p  c #120D65",
"a  c #110B6B",
"s  c #191469",
"d  c #0E0A73",
"f  c #0F0A78",
"g  c #120C74",
"h  c #140D7A",
"j  c #1E137B",
"k  c #291B6F",
"l  c #292667",
"z  c #2A2677",
"x  c #342B70",
"c  c #483E51",
"v  c #384575",
"b  c #504A53",
"n  c #6E554D",
"m  c #726753",
"M  c #4C4970",
"N  c #67506E",
"B  c #696465",
"V  c #776C6C",
"C  c #7B7879",
"Z  c #80301E",
"A  c #8B5D0F",
"S  c #86461D",
"D  c #954C1E",
"F  c #865819",
"G  c #965819",
"H  c #936C17",
"J  c #996916",
"K  c #A9720E",
"L  c #B87D0D",
"P  c #A87516",
"I  c #B67E16",
"U  c #8B4F31",
"Y  c #A55725",
"T  c #B15623",
"R  c #896525",
"E  c #9A6D22",
"W  c #997531",
"Q  c #AE6C2D",
"!  c #B86A26",
"~  c #A97824",
"^  c #C36D2C",
"/  c #CC7827",
"(  c #DB7A29",
")  c #E27E29",
"_  c #866E47",
"`  c #8E6F54",
"'  c #967B58",
"]  c #A37E4A",
"[  c #8D7764",
"{  c #877B69",
"}  c #837B77",
"|  c #BD820E",
" . c #AE821A",
".. c #BA8615",
"X. c #998121",
"o. c #A88824",
"O. c #B99C27",
"+. c #B38E32",
"@. c #BEA129",
"#. c #C4850E",
"$. c #C2890F",
"%. c #CC8B0D",
"&. c #CB910F",
"*. c #D5920C",
"=. c #DA950A",
"-. c #D79D0F",
";. c #DD9B0E",
":. c #C78C15",
">. c #C99618",
",. c #D39513",
"<. c #DC9B13",
"1. c #D99A16",
"2. c #E19E0E",
"3. c #DCA415",
"4. c #D2AB1E",
"5. c #E4A30E",
"6. c #E5A80F",
"7. c #ECAC0E",
"8. c #EFB20F",
"9. c #F0B30F",
"0. c #E3A511",
"q. c #E5A917",
"w. c #ECAD11",
"e. c #EEB211",
"r. c #EAB51A",
"t. c #F1B311",
"y. c #F2BB14",
"u. c #F0BA19",
"i. c #CC8F2D",
"p. c #C79C26",
"a. c #E8852B",
"s. c #C9A724",
"d. c #D5AC25",
"f. c #D6B525",
"g. c #CBA633",
"h. c #D3B137",
"j. c #E3BD23",
"k. c #E9B925",
"l. c #EBBB2A",
"z. c #F4C017",
"x. c #F6C41A",
"c. c #F1C61E",
"v. c #F7C81D",
"b. c #F9CC1E",
"n. c #E6C123",
"m. c #EDC724",
"M. c #F5C725",
"N. c #F3CC24",
"B. c #FACE21",
"V. c #FDD623",
"C. c #F8D227",
"Z. c #FCD62B",
"A. c #ECC835",
"S. c #FBD836",
"D. c #9B844F",
"F. c #AE8D4E",
"G. c #BBA652",
"H. c #868061",
"J. c #988769",
"K. c #888379",
"L. c #94897A",
"P. c #9C9476",
"I. c #A5926C",
"U. c #ABA273",
"Y. c #B8AB77",
"T. c #CD8541",
"R. c #D2BA4F",
"E. c #CBB662",
"W. c #EBCC4C",
"Q. c #FBDA47",
"!. c #F8DB55",
"~. c #E6D267",
"^. c #EBD468",
"/. c #FBE26C",
"(. c #220F87",
"). c #251483",
"_. c #25118A",
"`. c #29148D",
"'. c #2B1692",
"]. c #2E1994",
"[. c #311C93",
"{. c #341C99",
"}. c #34318D",
"|. c #392499",
" X c #3B229D",
".X c #3F28A0",
"XX c #44388B",
"oX c #613F96",
"OX c #4A28AC",
"+X c #5535AC",
"@X c #4F2BB1",
"#X c #522DB2",
"$X c #5C2BB3",
"%X c #5533B5",
"&X c #5B37B7",
"*X c #5C3BBB",
"=X c #6539A7",
"-X c #622CB3",
";X c #6531B6",
":X c #6636B8",
">X c #6A35BA",
",X c #6D3ABC",
"<X c #713CBE",
"1X c #514F92",
"2X c #695A8D",
"3X c #747090",
"4X c #5548AA",
"5X c #6F4AAE",
"6X c #6944B8",
"7X c #7554B2",
"8X c #7B63B2",
"9X c #7E70B4",
"0X c #723FC0",
"qX c #6B4CC2",
"wX c #847F81",
"eX c #8470AE",
"rX c #8B7AB3",
"tX c #858483",
"yX c #8A8688",
"uX c #8C898B",
"iX c #918B87",
"pX c #96948B",
"aX c #888796",
"sX c #918E91",
"dX c #979598",
"fX c #A9A892",
"gX c #9187AE",
"hX c #928AAB",
"jX c #9E9CA2",
"kX c #9B96AB",
"lX c #A09FA4",
"zX c #A19EAC",
"xX c #A3A2A6",
"cX c #A7A6AB",
"vX c #B9B9A4",
"bX c #E8D88C",
"nX c #F9E78A",
"mX c #DBD6AA",
"MX c #EDE3A6",
/* pixels */
"cXcXcXcXcXcXcXcXcXcXcXcXcXcXcXcXcXcXcXcXcXcXcXcXcXcXcXcXcXcXcXcXcXcXcXcXcXcXcXcXcXcXcXcXcXcXcXcXcXcXcXcXcXcXcXcXcXcXcXcXcXcXcXcX",
"cXcXcXcXcXcXcXcXcXcXcXcXcXcXcXcXcXcXcXcXcXcXcXcXcXcXcXcXcXcXcXcXcXcXcXcXcXcXcXcXcXcXcXcXcXcXcXcXcXcXcXcXcXcXcXcXcXcXcXcXcXcXcXcX",
"cXcXcXcXcXcXcXcXcXcXcXcXcXcXcXcXcXcXcXcXcXcXcXcXcXcXcXcXcXcXcXcXcXcXcXcXcXcXcXcXcXcXcXcXcXcXcXcXcXcXcXcXcXcXcXcXcXcXcXcXcXcXcXcX",
"cXcXcXcXcXcXcXcXcXcXcXcXcXcXcXcXcXcXcXcXcXcXcXcXcXcXcXcXcXcXcXcXcXcXcXcXcXcXcXcXcXcXcXcXcXcXcXcXcXcXcXcXcXcXcXcXcXcXcXcXcXcXcXcX",
"cXcXcXcXcXcXcXcXcXcXcXcXcXcXcXcXcXcXcXcXcXcXcXcXcXjXtXK.P.P.fXU.U.P.P.tXpXdXcXcXcXcXcXcXcXcXcXcXcXcXcXcXcXcXcXcXcXcXcXcXcXcXcXcX",
"cXcXcXcXcXcXcXcXcXcXcXcXcXcXcXcXcXcXcXcXcXcXcXjXtXtXfXvXmXmXMXbX~.R.h.@.F.P.P.K.pXlXcXcXcXcXcXcXcXcXcXcXcXcXcXcXcXcXcXcXcXcXcXcX",
"cXcXcXcXcXcXcXcXcXcXcXcXcXcXcXcXcXcXcXcXcXcXjXtXpXvXmXMXMXnX/./.!.Q.C.m.n.h.@.+.D.J.L.tXyXsXjXcXcXcXcXcXcXcXcXcXcXcXcXcXcXcXcXcX",
"cXcXcXcXcXcXcXcXcXcXcXcXcXcXcXcXcXcXcXcXxXjXpXfXmXMXnX/.Q.Q.Q.S.S.Z.V.V.V.C.N.n.4.g.g.+.F.+.P.P.iXxXcXcXcXcXcXcXcXcXcXcXcXcXcXcX",
"cXcXcXcXcXcXcXcXcXcXcXcXcXcXcXcXcXcXcXcXjXpXfXmXnX/.S.Z.V.V.V.V.V.V.V.V.V.V.V.V.V.V.m.n.z.6.s.s.+.iXlXcXcXcXcXcXcXcXcXcXcXcXcXcX",
"cXcXcXcXcXcXcXcXcXcXcXcXcXcXcXcXcXcXcXxXaXfXmXnX!.S.V.V.V.V.V.V.V.V.V.V.V.V.V.V.V.V.V.V.V.b.b.z.e.i.L.xXcXcXcXcXcXcXcXcXcXcXcXcX",
"cXcXcXcXcXcXcXcXcXcXcXcXcXcXcXcXcXcXcXdXtXfX^.Q.Z.V.V.V.V.V.V.V.V.Z.V.V.C.Z.V.V.V.V.V.V.V.V.V.v.y.q.I.xXcXcXcXcXcXcXcXcXcXcXcXcX",
"cXcXcXcXcXcXcXcXcXcXcXcXcXcXcXcXcXcXjXC B P.Y.A.V.V.V.V.V.V.V.V.C.n.f.f.h.n.m.N.N.V.V.V.V.V.V.b.y.t.F.cXcXcXcXcXcXcXcXcXcXcXcXcX",
"cXcXcXcXcXcXcXcXcXcXcXcXcXcXcXcXcXxXdXB r B H.h.V.V.V.V.V.V.V.N.f.X.1 1 U.Y.U.G.s.n.N.V.V.V.V.c.y.w.F.cXcXcXcXcXcXcXcXcXcXcXcXcX",
"cXcXcXcXcXcXcXcXcXcXcXcXcXcXcXcXcXxXaXb + & m O.N.V.V.V.V.V.V.n.o.= + r tXuXB > X.4.m.V.V.V.b.z.t.7.] cXcXcXcXcXcXcXcXcXcXcXcXcX",
"cXcXcXcXcXcXcXcXcXcXcXcXcXcXcXcXcXxXtXB 1 > 1 s.N.Z.V.V.V.V.V.n.O.= . X O r + = X.n.V.V.V.V.c.z.t.2.[ cXcXcXcXcXcXcXcXcXcXcXcXcX",
"cXcXcXcXcXcXcXcXcXcXcXcXcXcXcXcXxXjXtXP.G.o.O.s.j.m.C.V.V.V.V.N.f.X.= > = = X.O.n.V.V.V.V.N.z.8.w.,.} cXcXcXxXdXxXcXcXcXcXcXcXcX",
"cXcXcXcXcXcXcXcXcXcXcXcXcXcXcXlXsXtXV [ F.o.~ ~ o.O.p.l.N.Z.V.Z.N.j.s.@.O.s.j.B.Z.V.V.B.b.y.t.w.<.] sXcXcXxXyXD.L.xXcXcXcXcXcXcX",
"cXcXcXcXcXcXcXcXcXcXcXcXcXcXlXL.[ J.[ ` W Q ! ! Y ~ ~ :.s.j.m.C.V.V.V.V.B.V.Z.V.V.V.B.v.y.t.7.q.i.[ xXcXcXiXD.>.[ xXcXcXcXcXcXcX",
"cXcXcXcXcXcXcXcXcXcXcXcXcXcXjXB U ' F.F.T.i.a.a.! ^ / / ! i.O.>.s.O.s.f.j.N.V.V.V.v.x.y.t.8.7.,.] dXcXcXjXJ.>.q.D.xXcXcXcXcXcXcX",
"cXcXcXcXcXcXcXcXcXcXcXcXcXcXjXB & > U ` ^ a.a.a.a.( a.a.a.a./ / ! J : ~ s.r.M.x.x.y.t.w.8.5.,.W iXxXcXxXiX+.q.e.J.xXcXcXcXcXcXcX",
"cXcXcXcXcXcXcXcXcXcXcXcXcXcXcXuXn # # * < D ! ( ( ) a.a.) ) / ! D ; - H >.r.y.y.t.t.8.7.5.&.P V lXcXxXtX] 3.t.e.[ xXcXcXcXcXcXcX",
"cXcXcXcXcXcXcXcXcXcXcXcXcXcXcXcXwXn * Z % # % Z D D Y Y Y G S % $ - F ..q.w.t.t.w.w.5.*.:.J < C cXcXyXn ..8.t.6.K.cXcXcXcXcXcXcX",
"cXcXcXcXcXcXcXcXcXcXcXcXcXcXcXcXkXwXN U U Z # # # # # # # @ @ $ ; J | 3.5.t.w.5.5.<.,.I ~ R < C dXiX_ , ..t.t.g.dXcXcXcXcXcXcXcX",
"cXcXcXcXcXcXcXcXcXcXcXcXcXcXcXcXcXzXkXwXwXN U n * @ @ @ $ ; F J L %.;.5.5.5.2.1.1.:.:.I I I , n C _ ~ E ..9.t.F.xXcXcXcXcXcXcXcX",
"cXcXcXcXcXcXcXcXcXcXcXcXcXcXcXcXcXcXcXcXjXdXsXuXC b > < : J P L %.*.2.2.<.<.1.1.1.,.:.:.,./ ~ n _ I >.P &.9.6.J.xXcXcXcXcXcXcXcX",
"cXcXcXcXcXcXcXcXcXcXcXcXcXcXcXcXcXcXcXcXcXcXcXcXxXdXtXm < : H I :.-.<.3.<.<.1.1.<.<.1.1.1.*.P R i.,.1.J <.t.-.{ xXcXcXcXcXcXcXcX",
"cXcXcXcXcXcXcXcXcXcXcXcXcXcXcXcXcXcXcXcXcXcXcXcXcXcXjXC m E I p.3.q.q.q.q.q.q.q.q.q.0.5.=.%.P :.=.<.<.A 0.t...V xXcXcXcXcXcXcXcX",
"cXcXcXcXcXcXcXcXcXcXcXcXcXcXcXcXcXcXcXcXcXcXcXxXdXsXP.I.F.g.d.k.k.r.k.q.k.e.e.u.w.w.t.5.=.L :.q.5.2.-.: 0.e.L C xXcXcXcXcXcXcXcX",
"cXcXcXvXcXcXcXcXcXcXcXcXcXcXcXcXcXcXcXcXcXlXpXtXK.P.Y.E.W.S.N.N.M.l.u.t.t.t.w.t.t.9.t.5.$.$.q.8.7.w.:.- 3.7.| { cXcXcXcXcXcXcXcX",
"cXcXcXcXcXcXcXcXcXcXcXcXcXcXcXcXcXcXzXlXiX} V H.U.E.^.!.S.S.C.C.B.u.y.t.t.t.t.t.t.t.w.-.$.3.8.8.t.w.P ; &.7...} cXcXcXcXcXcXcXcX",
"cXcXcXcXcXcXcXcXcXcXcXcXcXcXcXcXcXcXlXL._ _ D.G.~.!.S.S.Z.V.V.V.B.x.y.t.t.t.t.t.8.e.q.*.6.e.e.8.e.-.K : L 2.W pXcXcXcXcXcXcXcXcX",
"cXcXcXcXcXcXcXcXcXcXcXcXcXcXcXcXcXlX} ] ~ +.R.S.S.Z.V.V.V.V.V.V.B.v.y.t.t.t.t.t.8.8.6.0.8.u.u.e.q.| %.J J ~ } xXcXcXcXcXcXcXcXcX",
"cXcXcXcXcXcXcXcXcXcXcXcXcXcXcXcXlXtXo.O.f.m.V.V.V.V.V.V.V.V.V.V.V.b.v.z.y.9.9.9.9.w.7.9.t.l.u.w.1.L =.K - ` dXcXcXcXcXcXcXcXcXcX",
"cXcXcXcXcXcXcXcXcXcXcXcXcXcXcXxXpXD.f.n.m.V.V.V.V.V.V.V.V.V.V.V.V.V.V.v.y.y.9.9.9.9.t.9.t.u.u.5.%.%.=.L n sXcXcXcXcXcXcXcXcXcXcX",
"cXcXcXcXcXcXcXcXcXcXcXcXcXcXxXlXH.@.m.V.V.V.V.V.V.V.V.V.V.V.V.V.V.V.V.b.v.t.9.t.9.t.9.9.t.t.t.5.*.=.=.i.wXcXcXcXcXcXcXcXcXcXcXcX",
"cXcXcXcXcXcXcXcXcXcXcXcXcXzXdXeXH.f.C.V.V.V.V.V.V.V.V.V.V.V.V.V.Z.Z.Z.V.v.9.t.9.t.t.9.9.t.t.w.2.=.=.*.' lXcXcXcXcXcXcXcXcXcXcXcX",
"cXcXcXcXcXcXcXcXcXcXcXkXrXeX-X=XH.m.V.V.V.V.V.V.V.V.V.V.V.V.V.Z.Q.S.C.V.z.9.t.9.9.t.9.9.9.9.7.=.=.=.| m cXcXcXcXcXcXcXcXcXcXcXcX",
"cXcXcXcXcXcXcXcXcXkXeX<X-X-X-X=XD.C.V.Z.V.V.V.V.V.V.V.V.V.V.V.Q.!.Q.V.V.y.9.9.t.t.t.t.t.9.9.5.=.=.L F N 7XgXcXcXcXcXcXcXcXcXcXcX",
"cXcXcXcXcXcXxXzXrX5X-X-X-X-X>X=XD.C.V.V.V.V.V.V.V.V.V.V.V.V.V.Q.!.S.V.B.z.9.9.9.7.t.t.7.7.5.=.%.L G ; N -X-X7XkXcXcXcXcXcXcXcXcX",
"cXcXcXcXcXcXkXeX=X-X;X;X>X>X<X<X' N.V.Z.V.V.V.V.V.V.V.V.V.V.V.V.S.Z.V.b.y.9.t.t.t.w.7.5.;.%.#.K K K F N -X-X$X:XrXcXcXcXcXcXcXcX",
"cXcXcXcXcXrXeX-X-X>X;X;X0X0XqX5X[ j.V.V.V.V.V.V.V.V.V.V.V.V.V.V.V.V.V.b.9.t.w.0.2.<.%.%.#.L K K L L < 8X>X-X-X$X$XeXzXcXcXcXcXcX",
"cXcXcXcXkXeX-X-X;X;X0X0X0X0X,X+XV p.N.V.V.V.V.V.V.V.V.V.V.V.V.V.V.V.B.z.9.9.w.2.,.%.%.L #.#.%.*.=.~ V 6X>X>X-X-X-X$XeXzXcXcXcXcX",
"cXcXcXcXeX-X-X-X;X0X0X0X-X$XOX@X2XW f.V.V.V.V.V.V.V.V.V.V.V.V.V.V.B.x.9.9.t.w.w.5.2.2.2.5.2.=.=.%.U 2X0X0X0X>X;X-X$X-XgXcXcXcXcX",
"cXcXcXrX-X-X-X>X0X0X>X#XOXOX@X#X2Xn  .r.b.V.V.V.V.V.V.V.V.V.V.V.b.x.y.9.t.t.9.t.t.t.w.w.7.5.-.$.R M 4X@X$X0X,X>X;X-X-X5XzXcXcXcX",
"cXcXxX7X-X-X0X0X,X:X@XOX@X@X-XoXN & - I r.v.B.V.V.V.V.V.V.B.b.v.z.9.w.9.t.t.8.8.w.w.6.6.2.*.| : b 1X4X%X@X#X,X,X>X;X-X-XgXcXcXcX",
"cXcXcX<X-X>X0X0X:X#X@X@X@X-XN ` U D * $ P 3.u.z.v.b.v.b.v.v.y.y.9.8.8.8.w.w.6.-.&.$.| P K H - r 1X6X%X%X#X@X@X:X<X,X>X-XeXcXcXcX",
"cXcXkX,X-X0X0X-X&X*X&X%X$X+XN ^ ^ ^ D % $ F ..3.r.y.y.y.t.9.t.t.8.7.6.5.*.| P J G G S % S Z   v }.{.%X*X%X%X@X@X>X,X<X;X7XcXcXcX",
"cXcXkX-X0X0X$X$X6XqX6X*X&X+XXXn U U U * & + > , E ..*.<.0.6.0.0.2.-.$.P G G D D Y T Y T T S + v `.(._.OX*X&X%X@X#X,X>X>XeXcXcXcX",
"cXcXcX7X>X0XOX@X&XqXqX*X%X.X}.z l l x k x k k k c > R R E E E J E R ; ; D T ! ^ ) ) ) ( Y c v XX'.(.(._. X*X*X%X#X$X,X:XrXcXcXcX",
"cXcXcXrX0X:XOX@X%X*X*X*X X_.(.)._.`.`.].[.[.{.].z l q 8 9 9 9 0 9 9 w * U Y Y Y Q ! Q U > v 4X.X{.'.`._._.|.*X*X%X#X,X6XkXcXcXcX",
"cXcXcXzX7X$X@X@X%X*X0X.X_.).]._.`.].|. X[.j p 7 5 5 6 7 6 6 6 6 6 6 q 8 9 9 0 e e e w 9 l }..X.X X].`._._.(. X*X&X@X,XrXcXcXcXcX",
"cXcXcXcXkX&X@X#X*X*X%X_.(._._.'.].{.[.).k 8 7 4 6 6 y 6 t t y y i i y u u t t 6 y i 5 5 5 p s ).{.{.].'._._._.%X*X%X8XzXcXcXcXcX",
"cXcXcXcXcXhX*X%X*X*X.X_._.`.'.].`.j l M v l 7 6 6 y i a i g d i g g d g g i i y y t 6 y 5 5 5 5 i `.].].`._._. X*X8XzXcXcXcXcXcX",
"cXcXcXcXcXcXkX7X*XqX|._.`.'.].(.p 7 s 1X1Xz p p a a g d d f f g g h f f j h f h g i y y 6 5 5 5 3 6 j ].'.`.).}.9XzXcXcXcXcXcXcX",
"cXcXcXcXcXcXcXzX9XqX|.`.`.'.).6 4 7 s l z j p d g f f d t 7 4 2 2 o 2 2 2 7 t a h h d i t t 6 5 3 3 6 j '.{.1X9XzXcXcXcXcXcXcXcX",
"cXcXcXcXcXcXcXcXcXzX1X[.'.).t 5 3 5 y p s p d h h 7 2 o . . . . . . . . . . . o o 4 i d d t t 6 3 3 3 p }.3XkXcXcXcXcXcXcXcXcXcX",
"cXcXcXcXcXcXcXcXcXcXcXgX7Xz 3 3 6 6 t t u u f i 2 o . . . . . . . . . . . . . . . . . 6 g d u 6 7 q v 3XkXcXcXcXcXcXcXcXcXcXcXcX",
"cXcXcXcXcXcXcXcXcXcXcXcXcXjXaXM q 6 t t u d d 2 . . . . . . . . . . . . . . . . . . . . y g z x 2XaXdXcXcXcXcXcXcXcXcXcXcXcXcXcX",
"cXcXcXcXcXcXcXcXcXcXcXcXcXcXxXcXjXaX2XM z j p o . . . . . . . . . . . . . . . . . X X r M 3XdXjXxXcXcXcXcXcXcXcXcXcXcXcXcXcXcXcX",
"cXcXcXcXcXcXcXcXcXcXcXcXcXcXcXcXcXcXxXxXjXhXaXB M b r w w O O O O O w w r r M B 3XtXdXjXxXcXcXcXcXcXcXcXcXcXcXcXcXcXcXcXcXcXcXcX",
"cXcXcXcXcXcXcXcXcXcXcXcXcXcXcXcXcXcXcXcXcXcXcXcXxXxXxXxXlXlXjXjXjXjXjXjXlXxXcXcXcXcXcXcXcXcXcXcXcXcXcXcXcXcXcXcXcXcXcXcXcXcXcXcX",
"cXcXcXcXcXcXcXcXcXcXcXcXcXcXcXcXcXcXcXcXcXcXcXcXcXcXcXcXcXcXcXcXcXcXcXcXcXcXcXcXcXcXcXcXcXcXcXcXcXcXcXcXcXcXcXcXcXcXcXcXcXcXcXcX",
"cXcXcXcXcXcXcXcXcXcXcXcXcXcXcXcXcXcXcXcXcXcXcXcXcXcXcXcXcXcXcXcXcXcXcXcXcXcXcXcXcXcXcXcXcXcXcXcXcXcXcXcXcXcXcXcXcXcXcXcXcXcXcXcX",
"cXcXcXcXcXcXcXcXcXcXcXcXcXcXcXcXcXcXcXcXcXcXcXcXcXcXcXcXcXcXcXcXcXcXcXcXcXcXcXcXcXcXcXcXcXcXcXcXcXcXcXcXcXcXcXcXcXcXcXcXcXcXcXcX"
};
