/* XPM */
static char *__duck_bh2B1721200804[] = {
/* columns rows colors chars-per-pixel */
"64 64 239 2 ",
"   c #02012A",
".  c #0C0B2D",
"X  c #040236",
"o  c #100F32",
"O  c #171636",
"+  c #2E2A34",
"@  c #5C2C1C",
"#  c #682D1B",
"$  c #742E1E",
"%  c #6C391A",
"&  c #76371D",
"*  c #51322B",
"=  c #773526",
"-  c #693830",
";  c #754518",
":  c #7C521B",
">  c #48423A",
",  c #5D5131",
"<  c #754C2F",
"1  c #675525",
"2  c #75642D",
"3  c #0A074E",
"4  c #060457",
"5  c #090759",
"6  c #09065B",
"7  c #2D1A4F",
"8  c #1C235B",
"9  c #2F2D4F",
"0  c #0A0762",
"q  c #0E0965",
"w  c #0B0769",
"e  c #0D096C",
"r  c #110B63",
"t  c #110B6D",
"y  c #1A1667",
"u  c #0E0A73",
"i  c #120C73",
"p  c #140D79",
"a  c #1D1378",
"s  c #24197B",
"d  c #292866",
"f  c #312E75",
"g  c #452C4D",
"h  c #532E4B",
"j  c #663951",
"k  c #5A367C",
"l  c #613974",
"z  c #504C52",
"x  c #6B514F",
"c  c #795846",
"v  c #776652",
"b  c #766A5D",
"n  c #565375",
"m  c #6A536D",
"M  c #786A65",
"N  c #74706E",
"B  c #823B22",
"V  c #89481E",
"C  c #875817",
"Z  c #97521D",
"A  c #AE5F1E",
"S  c #996916",
"D  c #90671A",
"F  c #B87D0E",
"G  c #A76E12",
"H  c #A97716",
"J  c #B37B15",
"K  c #8C4F2E",
"L  c #9D5523",
"P  c #A75C23",
"I  c #B15F22",
"U  c #8E6F2C",
"Y  c #9C7338",
"T  c #B76825",
"R  c #A67627",
"E  c #B07029",
"W  c #A37632",
"Q  c #C36B25",
"!  c #C97529",
"~  c #D77A29",
"^  c #D07F33",
"/  c #8F544C",
"(  c #88674A",
")  c #91754F",
"_  c #8A785D",
"`  c #A36D4D",
"'  c #897667",
"]  c #897C7B",
"[  c #BA8415",
"{  c #B78816",
"}  c #9B8225",
"|  c #AD8A2F",
" . c #B68723",
".. c #B89826",
"X. c #B79632",
"o. c #BEA231",
"O. c #CA8A0D",
"+. c #D08E0E",
"@. c #D4920D",
"#. c #D9960C",
"$. c #DC9C0E",
"%. c #C48B13",
"&. c #C68A15",
"*. c #CB9315",
"=. c #D39414",
"-. c #DC9C13",
";. c #D89A16",
":. c #E19D0D",
">. c #E09E11",
",. c #D7A617",
"<. c #DCA315",
"1. c #E4A30F",
"2. c #E8A60E",
"3. c #EBAC0F",
"4. c #EFB20F",
"5. c #F0B40F",
"6. c #E3A411",
"7. c #E5A914",
"8. c #EBAD11",
"9. c #E5A919",
"0. c #EEB211",
"q. c #EAB51B",
"w. c #F1B311",
"e. c #F3BB15",
"r. c #F1B71C",
"t. c #C78326",
"y. c #D18B2E",
"u. c #C79925",
"i. c #E4832A",
"p. c #EA872B",
"a. c #E28632",
"s. c #CAA625",
"d. c #D5AA24",
"f. c #D8B524",
"g. c #D0B039",
"h. c #E9B725",
"j. c #E4BA24",
"k. c #F4C017",
"l. c #F6C41A",
"z. c #F1C61F",
"x. c #F9CB1E",
"c. c #EBC525",
"v. c #E9C526",
"b. c #F4CD24",
"n. c #F6CC24",
"m. c #F7D026",
"M. c #FDD623",
"N. c #FCD62A",
"B. c #EBC735",
"V. c #FBD632",
"C. c #FBD838",
"Z. c #9B8455",
"A. c #A78749",
"S. c #AA8B59",
"D. c #B29350",
"F. c #B8A353",
"G. c #998767",
"H. c #958F75",
"J. c #958879",
"K. c #A7916F",
"L. c #B9A969",
"P. c #CA8849",
"I. c #C89A44",
"U. c #CCA646",
"Y. c #D9BC49",
"T. c #CAB96B",
"R. c #ECCE4F",
"E. c #FBD944",
"W. c #F7DB59",
"Q. c #EDD568",
"!. c #FAE274",
"~. c #220F87",
"^. c #220F88",
"/. c #25118A",
"(. c #29148E",
"). c #2A188A",
"_. c #2C1692",
"`. c #2E1992",
"'. c #331B97",
"]. c #362E8A",
"[. c #382398",
"{. c #49378C",
"}. c #4127A3",
"|. c #4D29AE",
" X c #5339A6",
".X c #4F2BB1",
"XX c #522EB3",
"oX c #5F29B2",
"OX c #5432B4",
"+X c #5A37B7",
"@X c #5C3BBB",
"#X c #622CB4",
"$X c #6532B5",
"%X c #663DB6",
"&X c #6435B9",
"*X c #6A35BA",
"=X c #6D3ABC",
"-X c #713DBE",
";X c #514A8C",
":X c #664B89",
">X c #6C578D",
",X c #736F93",
"<X c #654BAD",
"1X c #6744B7",
"2X c #724AB5",
"3X c #7655B2",
"4X c #7C65B3",
"5X c #713FC1",
"6X c #6E46C1",
"7X c #827E84",
"8X c #826CB1",
"9X c #8776B1",
"0X c #8A8689",
"qX c #988C83",
"wX c #9A938C",
"eX c #8C8A96",
"rX c #939295",
"tX c #989598",
"yX c #9D9A9D",
"uX c #A69785",
"iX c #A59D97",
"pX c #B4AE8D",
"aX c #A7A39B",
"sX c #8F87AD",
"dX c #9188AC",
"fX c #9D9BA1",
"gX c #9B96AA",
"hX c #A09EA2",
"jX c #A19CAC",
"kX c #A3A2A5",
"lX c #A9A8A4",
"zX c #A7A6AB",
"xX c #B6B3A3",
"cX c #C5B982",
"vX c #C3BEA4",
"bX c #E3D595",
"nX c #F4E38F",
"mX c #D1CCA7",
"MX c #EAE2AC",
/* pixels */
"zXzXzXzXzXzXzXzXzXzXzXzXzXzXzXzXzXzXzXzXzXzXzXzXzXzXzXzXzXzXzXzXzXzXzXzXzXzXzXzXzXzXzXzXzXzXzXzXzXzXzXzXzXzXzXzXzXzXzXzXzXzXzXzX",
"zXzXzXzXzXzXzXzXzXzXzXzXzXzXzXzXzXzXzXzXzXzXzXzXzXzXzXzXzXzXzXzXzXzXzXzXzXzXzXzXzXzXzXzXzXzXzXzXzXzXzXzXzXzXzXzXzXzXzXzXzXzXzXzX",
"zXzXzXzXzXzXzXzXzXzXzXzXzXzXzXzXzXzXzXzXzXzXzXzXzXzXzXzXzXzXzXlXzXzXzXzXzXzXzXzXzXzXzXzXzXzXzXzXzXzXzXzXzXzXzXzXzXzXzXzXzXzXzXzX",
"zXzXzXzXzXzXzXzXzXzXzXzXzXzXzXzXzXzXzXzXzXzXzXzXzXzXzXzXzXzXzXlXzXzXzXzXzXzXzXzXzXzXzXzXzXzXzXzXzXzXzXzXzXzXzXzXzXzXzXzXzXzXzXzX",
"zXzXzXzXzXzXzXzXzXzXzXzXzXzXzXzXzXzXzXzXzXzXkXkXlXlXaXpXaXaXyXyXhXlXzXzXzXzXzXzXzXzXzXzXzXzXzXzXzXzXzXzXzXzXzXzXzXzXzXzXzXzXzXzX",
"zXzXzXzXzXzXzXzXzXzXzXzXzXzXzXzXzXzXzXzXkXlXlXpXpXpXcXcXL.F.F.H.H.wXhXlXzXzXzXzXzXzXzXzXzXzXzXzXzXzXzXzXzXzXzXzXzXzXzXzXzXzXzXzX",
"zXzXzXzXzXzXzXzXzXzXzXzXzXzXzXzXzXzXkXlXlXxXmXMXMXMXnX!.Q.B.B.f.o.F.K.wXaXaXfXfXaXhXkXzXzXzXzXzXzXzXzXzXzXzXzXzXzXzXxXzXzXzXzXzX",
"zXzXzXzXzXzXzXzXzXzXzXzXzXzXzXzXzXzXkXxXvXMXMX!.!.!.W.W.E.N.m.m.m.v.v.F.F.S.Z.G.' J.wXiXhXzXzXzXzXzXzXzXzXzXzXzXzXzXzXzXzXzXzXzX",
"zXzXzXzXzXzXzXzXzXzXzXzXzXzXzXzXlXlXvXmXMX!.W.W.C.C.C.N.N.M.M.M.M.M.M.b.z.v.j.f.,.s.X.S.G.wXhXzXzXzXzXzXzXzXzXzXzXzXzXzXzXzXzXzX",
"zXzXzXzXzXzXzXzXzXzXzXzXzXzXzXxXlXvXbX!.W.E.N.M.M.M.M.M.M.M.M.M.M.M.M.M.M.M.x.x.x.z.q.j.d.S.qXhXzXzXzXzXzXzXzXzXzXzXzXzXzXzXzXzX",
"zXzXzXzXzXzXzXzXzXzXzXzXzXzXzXzXxXbX!.E.C.M.M.M.M.M.M.M.M.M.M.M.m.N.M.M.M.M.M.M.M.M.x.l.r.9.S.iXzXzXzXzXzXzXzXzXzXzXzXzXzXzXzXzX",
"zXzXzXzXzXzXzXzXzXzXzXzXzXkXaXxXbXQ.E.N.M.M.M.M.M.M.M.M.M.m.b.b.m.m.N.m.M.M.M.M.M.M.M.x.e.r.I.iXzXzXzXzXzXzXzXzXzXzXzXzXzXzXzXzX",
"zXzXzXzXzXzXzXzXzXzXzXzXfX0XwXpXQ.C.m.M.M.M.M.M.M.M.M.M.v.f.s.o.U.Y.Y.v.v.b.M.M.M.M.M.x.e.5.I.uXzXzXzXzXzXzXzXzXzXzXzXzXzXzXzXzX",
"zXzXzXzXzXzXzXzXzXzXzXkX0XN H.L.Y.m.m.M.M.M.M.M.M.M.v.f.} } 2 _ H.iXH.F.o.f.v.M.M.M.M.x.e.3.I.iXzXzXzXzXzXzXzXzXzXzXzXzXzXzXzXzX",
"zXzXzXzXzXzXzXzXzXzXlXyXN z b Z.f.v.M.M.M.M.M.M.M.m.f...1 * > x N 7Xv 2 } s.v.m.M.M.x.l.w.3.D.iXzXzXzXzXzXzXzXzXzXzXzXzXzXzXzXzX",
"zXzXzXzXzXzXzXzXzXzXlX0Xz z b A.f.M.M.M.M.M.M.M.M.b.f.} 1 + + + > > , 2 ..v.M.M.M.m.l.e.5.1.` uXzXzXzXzXzXzXzXzXzXzXzXzXzXzXzXzX",
"zXzXzXzXzXzXzXzXzXzXyXN > > 2 X.B.b.M.N.M.M.M.M.M.b.f.s.} 2 1 1 2 U  .f.c.b.M.M.M.x.e.w.8.*.Z.yXzXzXzXiXiXlXzXzXzXzXzXzXzXzXzXzX",
"zXzXzXzXzXzXzXzXzXkX0Xb , , } f.v.m.M.M.M.M.M.N.M.m.b.v.f.s.s.s.f.f.v.n.M.M.M.M.l.e.w.0.;.D.qXhXzXzXtXG.' wXzXzXzXzXzXzXzXzXzXzX",
"zXzXzXzXzXzXzXzXzXrXJ.Z.2 } ..f.v.b.m.m.m.M.M.N.M.M.m.m.x.z.b.b.x.M.M.M.M.M.M.l.e.w.3.6.y.G.tXzXzXiXG.X.D.qXzXzXzXzXzXzXzXzXzXzX",
"zXzXzXzXzXzXzXzXkX0XH.F.o.o.o.f.f.f.f.j.v.v.v.v.c.c.v.j.f.f.f.f.v.z.n.M.x.l.e.e.w.8.6.t.S.iXhXzXhXqXD.<.I.uXzXzXzXzXzXzXzXzXzXzX",
"zXzXzXzXzXzXkXrXwXN L.F.|  .|  . .{ u.u.s.s.s.u.u.*... .H }  ...f.v.z.e.e.e.e.8.3.6.*.A.qXhXzXhXwXS.u.8.U.uXzXzXzXzXzXzXzXzXzXzX",
"zXzXzXzXzXlXrX7XN b Z.} R R R P E E E  .t.t.t.t.t.Q T L C : D [ ,.5.w.k.w.w.8.8.:.&.R _ tXzXkXrXG.y.<.4.I.uXzXzXzXzXzXzXzXzXzXzX",
"zXzXzXzXzXkX] G._ ( Y R E E E E E y.i.i.i.i.i.~ Q A Z ; ; C H *.7.4.5.5.8.2.6.=.%.R K ' yXkXrXN U &.9.4.g.uXzXzXzXzXzXzXzXzXzXzX",
"zXzXzXzXzXaXN Z.G.` E ! ! Q E Q ~ i.p.p.i.~ Q A Z ; % ; C { =.6.1.3.3.1.>.-.=.[ J S 2 M 0X0XG.Y U { 7.0.I.uXzXzXzXzXzXzXzXzXzXzX",
"zXzXzXzXzXyX' ) S.P.a.^ ~ ~ ~ ~ i.p.p.~ Q P V & ; ; C S F =.:.1.1.1.>.>.;.t.&.&.[ J Y ( M _ ` R H %.6.8.I.uXzXzXzXzXzXzXzXzXzXzX",
"zXzXzXzXzXhXb ( D.P.a.p.p.i.i.p.i.~ Q P V % % ; C S F O.@.-.:.:.<.$.;.;.=.=.&.&.=.&.J U U Y  .&.[ %.<.7.y.uXhXlXzXzXzXzXzXzXzXzX",
"zXzXzXzXzXyXx c ` P.a.p.p.p.i.~ Q P V % % ; C S G [ [ +.;.-.>.>.<.;.;.<.-.-.-.-.#.@.[ H R &.=.#.&.J =.2.d.K.iXjXzXzXzXzXzXzXzXzX",
"zXzXzXzXzXkXm - K E ~ ~ ~ ~ ! A V & @ # ; C C S G { %.@.;.-.9.9.6.9.9.9.9.9.9.6.$.@.O.[ &.-.6.>.=.H &.>.>.| ] hXzXzXzXzXzXzXzXzX",
"zXzXzXzXzXkXM = - K P T T I L & # @ @ ; < < 2 D H ..d.9.h.h.9.w.r.8.8.8.8.8.8.8.1.@.%.*.<.3.3.3.<.H S [ #.=.A.wXzXzXzXzXzXzXzXzX",
"zXzXzXzXzXkX] c $ = B V V B $ # @ @ , , c c U | s.f.h.r.r.r.r.r.8.w.w.w.w.w.w.0.1.*.O.<.0.4.0.0.7.%.G G F O.X.qXzXzXzXzXzXzXxXzX",
"zXzXzXzXzXzXyXb B $ $ $ $ $ # @ * z v b b Z.D.g.v.b.n.n.n.e.e.w.w.w.w.w.w.w.w.8.1.$.$.7.0.0.e.5.3.=.{ F J G Y qXzXzXzXzXzXzXzXzX",
"zXzXzXzXzXzXkX0X/ = $ $ $ $ - x x N ,XJ.H.F.Y.R.V.m.N.m.m.l.e.e.w.w.w.w.w.w.w.w.2.<.6.0.e.q.q.q.8.$.O.O.+.F Y qXjXzXzXzXzXzXzXzX",
"zXzXzXzXzXzXzXhX7X/ c B - / M 7XeXrXrXH.L.T.R.E.M.M.M.M.x.x.x.x.r.w.w.w.w.w.w.w.5.7.4.4.0.r.r.r.0.7.:.#.#.@.! S.hXzXzXzXzXzXzXzX",
"zXzXzXzXzXzXzXzXjX7X7X] 7X7XtXhXlXlXrXH.L.Q.W.V.M.M.M.M.M.M.M.M.l.e.e.e.w.w.5.w.5.5.5.5.w.0.w.w.w.0.3.:.#.#.O.W wXzXzXzXzXzXzXzX",
"zXzXzXzXzXzXzXzXjXlXzXzXzXzXzXzXzXzXrXH.T.Q.E.N.M.M.M.M.M.M.M.M.m.b.x.e.e.w.w.w.5.5.e.5.0.w.5.5.w.w.8.2.:.@.O.W J.zXzXzXzXzXzXzX",
"zXzXzXzXzXzXzXzXzXzXzXzXzXzXzXzXzXlXrXH.T.R.C.M.M.M.M.M.M.M.M.M.M.M.M.x.k.e.w.5.5.5.5.5.w.5.w.0.w.8.3.2.:.+.F Y ] zXzXzXzXzXzXzX",
"zXzXzXzXzXzXzXzXzXzXzXzXzXzXzXzXkXgXeXH.T.W.N.M.M.M.M.M.M.M.M.M.N.N.N.N.M.n.l.e.5.5.5.5.w.w.w.w.w.3.6.#.+.F F E K.zXzXzXzXzXzXzX",
"zXzXzXzXzXzXzXzXzXzXzXzXjXjXdX8X<X<X>XN T.R.N.M.M.M.M.M.M.M.M.M.N.C.E.C.V.N.M.n.k.e.5.5.5.w.8.8.2.:.=.O.F F F | K.zXzXzXzXzXzXzX",
"zXzXzXzXzXzXzXzXlXlXjX9X3X%X#X#XoXoX;Xb F.Y.M.M.M.M.M.M.M.M.M.M.M.V.E.W.W.E.V.M.M.x.k.e.w.0.8.2.$.=.+.+.=.@.@.y.uXzXzXzXzXzXzXzX",
"zXzXzXzXzXzXzXzXgX8X2X$X#X#X#X#X&X%X:Xv F.B.N.M.M.M.M.M.M.M.M.M.M.M.N.C.C.C.C.N.N.x.x.e.e.w.8.8.2.:.:.2.2.:.#.| qXzXzXzXzXzXzXzX",
"zXzXzXzXzXzXjX8X&X#X#X#X#X#X#X*X=X=X:X( A.g.b.N.M.M.M.M.M.M.M.M.M.M.M.M.M.M.M.M.M.M.M.M.e.5.5.5.5.8.0.8.2.:.[ _ 9XhXlXzXzXzXzXzX",
"zXzXzXzXjX9X-X#XoX#X#X#X*X5X5X5X-X3XN )  .g.v.m.M.M.M.M.M.M.M.M.M.M.M.M.M.M.M.M.M.M.M.k.e.w.5.5.w.5.8.2.-. .( :X<X2XdXlXzXzXzXzX",
"zXzXzXjX8X#XoX#XoX#X5X5X5X5X5X5X=X>X_ } s.f.b.m.M.M.M.M.M.M.M.M.M.M.M.M.M.M.M.M.M.M.x.k.w.5.4.4.3.6.;.*.J / :X<X$X#X$X9XzXzXlXzX",
"zXzXjX8X#X#X#X#XoX5X5X5X5X5XXX.X|.>X` s.f.c.b.N.M.M.M.M.M.M.M.M.M.M.M.M.M.M.M.M.M.k.k.k.5.3.3.$.%.J S C x :X<X%X$X$X$X#X8XjXzXzX",
"zXlX8X#X#X#X*X*X5X5X5XOXXX.X.X|. X,XA.s.q.m.M.M.M.M.M.M.M.M.M.M.M.M.M.M.M.M.M.x.x.k.5.5.3.1.O.J S V B j k <X1X5X*X*X#X#X$X9XlXzX",
"zXdX#X#X#X#X*X-X5X@X|.|..X.XOXOXOX>XZ.s.v.b.M.M.M.M.M.M.M.M.M.M.M.M.M.M.M.M.M.k.k.5.3.1.+.H A L Z L / l  XXX&X5X5X6X*X#X#X%XjXzX",
"jX8X#X#X$X*X*X*XXX.X.X.XXXOXOXOX|.:X_ X.f.b.m.N.M.M.M.M.M.M.M.M.M.M.M.M.M.k.k.5.5.3.#.F S L I I Q / :X X|.|.|.XX*X5X-X*X#X#X8XzX",
"hX%X$X*X=X=X$X.X.XOXOX@XOXOX}._.~.n M ) o.j.b.m.M.M.M.M.M.M.M.M.M.M.M.M.k.k.5.5.$.[ G G T Q ~ ~ / m  X#XXXXXXXXX#X*X-X-X*X#X3XzX",
"jX2X$X-X5X+X.X.XOX+X+XXX[.(.^./.s `.k m ) X.s.q.c.l.b.x.b.x.x.x.l.e.k.5.7.<.;.[ G L T T ! ~ ~ ( :X X#XXXOX+X@X@X@XOX&X=X*X$X2XzX",
"zX2X$X=X@X.X.X+X@X+X}.(.^./.(.(.`.'./.{.m 2 U H { ,.,.q.q.q.q.7.7.<.,.#.[ H D 1 ; V P L P L c n {.^.[.OX@X@X1X4X1XOX.X5X5X$X3XzX",
"zX8X$X*XOXOX+X@XOX'./.^.).).{.:Xm l k x / K = = : 2 S R R R W Y Y U 2 v x x z z h z x x x n n ].).^.^.`.OX@X@X6X@XXX.XXX5X-X9XzX",
"zXgX2X*XOXOX@X+X`././.(.(.'.{.v ` / ` K K K B - * * > > z h 9 g h 9 9 8 9 8 d d f f f ].{.].].`.)./.).^.).OX@X@X+XXX.X|.*X3XjXzX",
"zXzXdX=XXX@X@X'.~.^./.(.`.'.{.k l j j j j h h 7 7 8 8 8 8 0 6 0 0 6 0 6 6 6 6 6 6 6 q a ).[.[.'.`.(.(./.^._.+X@X@XOX.X|.=XdXzXzX",
"zXzXzX9X@X@X|./.^.(._.'.'.`.a r 6 6 5 5 6 6 6 0 0 6 e t t t i t t e w q w q 6 6 6 6 r d f f s `.'.`._./.^.^.}.@X@XOXOX+XsXjXzXzX",
"zXzXzXjXsX1X}./.^._._.`.a 0 6 4 6 6 6 0 0 0 q e i p p p p p p i u i i u e t t q q r y f ,Xf y r a `.`.(./.^.`.-X6X+X1XsXzXzXzXzX",
"zXzXzXzXjXgX>X`.(._._.i 6 4 4 6 6 6 0 0 t u p i i i t r q 0 0 q w w u u u u u t t r s f {.f y 5 6 t _.`.(./.(.@X6X4XjXzXzXzXzXzX",
"zXzXzXzXzXzXzXeX:X[.a 4 4 4 5 5 0 0 e u u e 5 3 X X               X X X 3 6 t p u i y y y y 6 5 4 5 e _._.~.[.4XgXzXzXzXzXzXzXzX",
"zXzXzXzXzXzXzXzXgXsXn d 6 6 6 6 q u p q 3 .                                 X 3 i u u e e 0 6 4 4 6 6 a }.,XgXzXzXzXzXzXzXzXzXzX",
"zXzXzXzXzXzXzXzXzXzXzXyX,Xn d y w u q X                                         X u i e w 0 6 4 8 d ;X7XgXzXzXzXzXzXzXzXzXzXzXzX",
"zXzXzXzXzXzXzXzXzXzXzXzXzXkXgXeX,X;X9 O .                                       . 6 p p a f n ,XeXyXzXzXzXzXzXzXzXzXzXzXzXzXzXzX",
"zXzXzXzXzXzXzXzXzXzXzXzXzXzXzXzXzXzXgXeX0XN n z 9 9 + O O o o o o o o O O O 9 9 z ;X,XeXgXgXkXzXzXzXzXzXzXzXzXzXzXzXzXzXzXzXzXzX",
"zXzXzXzXzXzXzXzXzXzXzXzXzXzXzXzXzXzXzXzXzXzXkXkXzXfXfXtXfXrXrXeXrXrXrXtXyXyXiXlXkXzXzXzXkXzXzXzXzXzXzXzXzXzXzXzXzXzXzXzXzXzXzXzX",
"zXzXzXzXzXzXzXzXzXzXzXzXzXzXzXzXzXzXzXzXzXzXzXzXzXzXzXzXzXzXzXzXzXzXzXzXzXzXzXzXzXzXzXzXzXzXzXzXzXzXzXzXzXzXzXzXzXzXzXzXzXzXzXzX",
"zXzXzXzXzXzXzXzXzXzXzXzXzXzXzXzXzXzXzXzXzXzXzXzXzXzXzXzXzXzXzXzXzXzXzXzXzXzXzXzXzXzXzXzXzXzXzXzXzXzXzXzXzXzXzXzXzXzXzXzXzXzXzXzX"
};
