/* XPM */
static char *__duck_bh3A1721200805[] = {
/* columns rows colors chars-per-pixel */
"64 64 240 2 ",
"   c #02012A",
".  c #050335",
"X  c #100F31",
"o  c #181736",
"O  c #2F2C37",
"+  c #71381E",
"@  c #473C27",
"#  c #70382B",
"$  c #794619",
"%  c #7C5214",
"&  c #544A31",
"*  c #6B542F",
"=  c #786627",
"-  c #74653A",
";  c #0A074C",
":  c #070457",
">  c #070459",
",  c #09055C",
"<  c #0D0A5C",
"1  c #33304F",
"2  c #0B0763",
"3  c #0D0965",
"4  c #0E096C",
"5  c #110B64",
"6  c #120B6B",
"7  c #1A1569",
"8  c #0E0A73",
"9  c #120C74",
"0  c #160D78",
"q  c #1D1477",
"w  c #231977",
"e  c #2F2B6E",
"r  c #543553",
"t  c #6C3548",
"y  c #51356D",
"u  c #613E6C",
"i  c #504A50",
"p  c #74434B",
"a  c #695154",
"s  c #776855",
"d  c #555073",
"f  c #6B506F",
"g  c #76706D",
"h  c #85481C",
"j  c #8A5919",
"k  c #95571A",
"l  c #A1571F",
"z  c #9A6913",
"x  c #936C1A",
"c  c #B57B0E",
"v  c #A96E15",
"b  c #B2691D",
"n  c #A97817",
"m  c #B47A15",
"M  c #8F4D26",
"N  c #954B23",
"B  c #A85A22",
"V  c #8D6D2E",
"C  c #957A25",
"Z  c #AA6824",
"A  c #B76725",
"S  c #A77625",
"D  c #B67526",
"F  c #A87B34",
"G  c #B57038",
"H  c #C36C25",
"J  c #C97628",
"K  c #D77B29",
"L  c #C87D35",
"P  c #E07F2A",
"I  c #905558",
"U  c #90734E",
"Y  c #86695A",
"T  c #A67745",
"R  c #835D76",
"E  c #8A7A69",
"W  c #8E7A68",
"Q  c #BC8313",
"!  c #BC8712",
"~  c #BA8718",
"^  c #9D8529",
"/  c #A98825",
"(  c #B58527",
")  c #B89A23",
"_  c #B2922D",
"`  c #AC8738",
"'  c #BFA123",
"]  c #C6870D",
"[  c #CC8C0D",
"{  c #D18E0C",
"}  c #D4930D",
"|  c #D9960C",
" . c #DC9A0E",
".. c #C58A13",
"X. c #C48916",
"o. c #CB8D14",
"O. c #CB9414",
"+. c #D39513",
"@. c #D69A16",
"#. c #DB9B13",
"$. c #E19F0E",
"%. c #E19E11",
"&. c #DEA111",
"*. c #D9A51B",
"=. c #E4A30F",
"-. c #E8A70F",
";. c #EAAB0F",
":. c #EEB20F",
">. c #F0B40F",
",. c #E3A412",
"<. c #E6A911",
"1. c #EBAD11",
"2. c #E5A91B",
"3. c #EEB212",
"4. c #ECB31B",
"5. c #EAB81B",
"6. c #F0B411",
"7. c #F3BB15",
"8. c #F2BA1A",
"9. c #CA8526",
"0. c #D9822A",
"q. c #C89725",
"w. c #CD9834",
"e. c #E2832A",
"r. c #C8A625",
"t. c #CCAB22",
"y. c #D6A626",
"u. c #DAB425",
"i. c #DDBA24",
"p. c #CFA937",
"a. c #D8B637",
"s. c #E3BC24",
"d. c #E8B924",
"f. c #E3B12E",
"g. c #EEC11E",
"h. c #F5C41B",
"j. c #F7C71C",
"k. c #F9CC1E",
"l. c #EAC424",
"z. c #EEC925",
"x. c #E8C429",
"c. c #F4CD24",
"v. c #FACE21",
"b. c #F2CB29",
"n. c #F7D125",
"m. c #FDD523",
"M. c #FCD62B",
"N. c #FDD82B",
"B. c #E7C533",
"V. c #F4CF33",
"C. c #FBD738",
"Z. c #9A8C5F",
"A. c #B7854A",
"S. c #B79948",
"D. c #AB8D52",
"F. c #BA9758",
"G. c #BDA655",
"H. c #928571",
"J. c #998675",
"K. c #AB8C6A",
"L. c #B79566",
"P. c #A68B77",
"I. c #AB9775",
"U. c #B5977A",
"Y. c #B8A773",
"T. c #CB9C4B",
"R. c #C39652",
"E. c #D7A54A",
"W. c #CFB14E",
"Q. c #C7A759",
"!. c #D1A653",
"~. c #C9B26B",
"^. c #E7C94F",
"/. c #FAD947",
"(. c #FBDD58",
"). c #D9C169",
"_. c #F7DC67",
"`. c #F2DA74",
"'. c #210F87",
"]. c #25128A",
"[. c #29158D",
"{. c #291889",
"}. c #2B1692",
"|. c #2E1893",
" X c #321B98",
".X c #3B2A86",
"XX c #39249A",
"oX c #483687",
"OX c #4E3591",
"+X c #4A2AAB",
"@X c #4D31AA",
"#X c #5636A4",
"$X c #4F2BB1",
"%X c #522DB2",
"&X c #5432B3",
"*X c #5936B7",
"=X c #5C3BBB",
"-X c #673DAB",
";X c #632DB4",
":X c #6532B6",
">X c #673AB6",
",X c #6435B9",
"<X c #6A35BA",
"1X c #6D3ABC",
"2X c #713CBE",
"3X c #6A4E90",
"4X c #64579E",
"5X c #726A90",
"6X c #6C48AE",
"7X c #6743B7",
"8X c #7657B3",
"9X c #723EC0",
"0X c #6B4CC2",
"qX c #86778E",
"wX c #8571AE",
"eX c #816AB1",
"rX c #918A8F",
"tX c #979599",
"yX c #AC9A83",
"uX c #A79889",
"iX c #B29F8A",
"pX c #A69D97",
"aX c #B6A58B",
"sX c #AFA893",
"dX c #AAA19A",
"fX c #8D86AA",
"gX c #9288AF",
"hX c #9B98A7",
"jX c #A19EA5",
"kX c #A5A2A4",
"lX c #AAA7A6",
"zX c #A7A6AB",
"xX c #B5B3A7",
"cX c #C1BA9B",
"vX c #C2BDA5",
"bX c #D6C98F",
"nX c #EBDB91",
"mX c #F2E08C",
"MX c #CBC6AB",
"NX c #D4CDA8",
/* pixels */
"zXzXzXzXzXzXzXzXzXzXzXzXzXzXzXzXzXzXzXzXzXzXzXzXzXzXzXzXzXzXzXzXzXzXzXzXzXzXzXzXzXzXzXzXzXzXzXzXzXzXzXzXzXzXzXzXzXzXzXzXzXzXzXzX",
"zXzXzXzXzXzXzXzXzXzXzXzXzXzXzXzXzXzXzXzXzXzXzXzXzXzXzXzXzXzXzXzXzXzXzXzXzXzXzXzXzXzXzXzXzXzXzXzXzXzXzXzXzXzXzXzXzXzXzXzXzXzXzXxX",
"zXzXzXzXzXzXzXzXzXzXzXzXzXzXzXzXzXzXzXzXzXzXzXzXzXzXzXzXzXzXzXzXzXzXzXzXzXzXzXzXzXzXzXzXzXzXzXzXzXzXzXzXzXzXzXzXzXzXzXzXzXzXzXzX",
"zXzXzXzXzXzXzXzXzXzXzXzXzXzXzXzXzXzXzXlXzXzXzXzXzXzXzXzXzXzXzXzXzXzXzXzXzXzXzXzXzXzXzXzXzXzXzXzXzXzXzXzXzXzXzXzXzXzXzXzXzXzXzXzX",
"zXzXzXzXzXzXzXzXzXzXzXzXzXzXzXzXkXkXdXdXsXsXdXdXzXlXzXzXzXzXzXlXkXkXzXzXzXzXzXzXzXzXzXzXzXzXzXzXzXzXzXzXzXzXzXzXzXzXzXzXzXzXzXzX",
"zXzXzXzXzXzXzXzXzXzXzXzXzXzXzXzXhXuXK.S.T.T.R.L.yXdXdXjXjXzXjXdXU.U.pXlXzXzXzXzXzXzXzXzXzXzXzXzXzXzXzXzXzXzXzXzXzXzXzXzXzXzXzXzX",
"zXzXzXzXzXzXzXzXzXzXzXzXzXzXzXlXuXF.r.2.5.5.7.5.a.!.L.iXdXjXlXzXU.w.L.iXlXzXzXzXzXzXzXzXzXzXzXzXzXzXzXzXzXzXzXzXzXzXzXzXzXzXzXzX",
"zXzXzXzXzXzXzXzXzXzXzXzXzXzXzXdXK.q.*.5.h.j.k.j.v.8.8.E.L.iXpXlXzXyXE.T.L.dXzXzXzXzXzXzXzXzXzXzXzXzXzXzXzXzXzXzXzXzXzXzXzXzXzXzX",
"zXzXzXzXzXzXzXzXzXzXzXzXzXkXkXuXS.u.5.g.k.m.m.m.v.m.k.h.8.E.L.uXkXlXiXQ.f.L.lXzXzXzXzXzXzXzXzXzXzXzXzXzXzXzXzXzXzXzXzXzXzXzXzXzX",
"zXzXzXzXzXzXzXzXzXzXzXzXzXkXuXD.t.s.h.k.v.m.m.m.m.m.m.m.k.8.2.T.yXkXkXiXR.f.Q.dXzXzXzXzXzXzXzXzXzXzXzXzXzXzXzXzXzXzXzXzXzXzXzXzX",
"zXzXzXzXzXzXzXzXzXzXzXzXdXyXF.u.l.j.n.m.m.m.m.m.m.m.m.m.m.k.h.4.E.yXkXkXiX!.f.Q.dXlXzXzXzXzXzXzXzXzXzXzXzXzXzXzXzXzXzXzXzXzXzXzX",
"zXzXzXzXzXzXzXzXzXzXzXdXyXQ.i.z.n.m.m.m.m.m.m.m.m.m.m.m.m.m.k.8.4.E.yXkXzXiXE.f.R.pXkXzXkXzXzXzXzXzXzXzXzXzXzXzXzXzXzXzXzXzXzXzX",
"zXzXzXzXzXzXzXzXkXjXyXY.W.x.c.m.m.m.m.n.m.n.n.n.n.n.n.n.m.m.m.v.8.4.!.uXjXlXaXf.f.R.L.L.P.tXjXkXzXzXzXzXzXzXzXzXzXzXzXzXzXzXzXzX",
"zXzXzXzXzXzXzXzXdXyXQ.a.V.m.m.m.m.m.n.N.V.V.x.a.i.s.l.c.c.M.m.m.j.6.2.R.pXzXpXR.2.f.w.q.G U K.H.rXpXzXzXzXzXzXzXzXzXzXzXzXzXzXzX",
"zXzXzXzXzXzXzXdXyXG.B.c.m.m.m.m.N.N.B.^.W.W.G._ _ ) t.i.b.v.m.m.v.8.6.E.U.pXzXiXT.2.%.%.X.S ( D V J.tXzXzXzXzXzXzXzXzXzXzXzXzXzX",
"zXzXzXzXzXzXkXsXQ.B.n.m.m.m.m.n.B.W.~.Y.I.Z.Z.- V / r.i.z.v.m.m.v.h.6.2.F.pXzXuXA.%.-.%.o.m ] ] c F K.pXzXzXzXzXzXzXzXzXzXzXzXzX",
"zXzXzXzXzXzXsXG.B.n.m.m.m.N.B.a.Y.Y.tXg g i - = C ) t.l.c.n.m.m.v.h.6.3.T.yXlXtXU ! &.&.] c { { ] c D L.pXjXzXzXzXzXzXzXzXzXzXzX",
"zXzXzXzXzXdXY.^.N.m.m.m.n.x.) Z.H.g g - = = C ) r.i.l.n.n.m.m.m.v.8.7.1.w.I.pXtXE ~ O.O.! c { | { c m w.P.jXzXzXzXzXzXzXzXzXzXzX",
"zXzXzXzXdXsX)./.N.m.m.n.x.t.Z.g i i - = ^ ) t.i.z.c.m.m.m.m.m.v.j.8.6.1.*.A.rXtXE x ! ! n c [ | | [ c o.R.uXlXzXzXzXzXzXzXzXzXzX",
"zXzXzXzXsXY._./.m.m.m.n.' - i & & - ^ ' i.x.n.n.M.m.m.m.m.m.k.j.h.7.7.1.#.F E rXH.C Q ! z v ] | $.%.c [ w.L.jXzXzXzXzXzXzXzXzXzX",
"zXzXzXzXsX)._./.m.m.m.i.^ & @ @ = ' i.g.z.n.z.n.c.v.n.v.v.v.v.8.7.6.>.-.@.F E rXH.F ~ m n n ] | $.$.{ [ | R.yXjXzXzXzXzXzXzXzXzX",
"zXzXzXzXcXnX_.C.m.m.n.' = @ @ x t.l.g.i.i.t.i.i.h.z.j.h.8.8.6.6.6.:.;.,.o.V g rXW F X...! ! [  .$.-.$.c %.e.L.tXzXzXzXzXzXzXzXzX",
"zXzXzXzXMXmX(.C.m.m.z.) & @ = ' z.i.t.) ! ) ' i.4.4.7.6.6.6.6.1.;.-.$.+.m V s g W F +.@.@.+.+.,.;.;.-.[ | ,.w.P.pXjXzXzXzXzXzXzX",
"zXzXzXzXNXmX(.N.m.m.l.) = & ^ i.g.t.! = = ^ ) t.,.1.3.6.6.6.;.2.,.#.+.X.n x Y s Y F +.%.,.,.,.1.>.>.-.%.+.=.=.w.J.hXzXzXzXzXzXzX",
"zXzXzXzXMXmX(.N.m.m.n.) = = ' z.i.! % % j z ! | =.;.;.;.1.2.-.%.#.+.X.m S S V U U D  .-.;.3.1.3.6.>.1.$.[ =.-.+.F H.tXlXlXzXzXzX",
"zXzXzXzXNXmX(.N.m.m.n.t.x ^ t.z.t.^ j % % z ! | &.-.-.=.%.%.%.#.+.o.X.X.X.m S Z V ~ &.-.3.3.4.6.6.>.1.,.+.=.;.=.X.U tXzXzXzXzXzX",
"zXzXzXzXMXmX(.N.m.m.n.i.) ^ t.z.y.S j + % z ! |  .=.$. .#.#.@.@.@.+.9.o.o.o.X.m n O.&.1.3.4.8.4.6.>.:.1.| $.;.-.+.S P.zXzXzXzXzX",
"zXzXzXzXMXmX(.C.m.m.m.l.t.' i.n.u.b k $ % z ! { | $. . .#.#.#.#.#.@.#.#.#.#.} o.! O.&.:.3.5.8.4.6.6.6.1. .,.;.1. .Q I.zXzXzXzXzX",
"zXzXzXzXvXnX_.C.m.m.m.m.l.t.i.z.5.( b h $ z ! [ }  .#.%.,.2.,.2.%.2.2.,.=.%.%.{ ] O.,.3.3.8.4.6.6.6.6.;.=.=.1.;.&...I.zXzXzXzXzX",
"zXzXzXzXxXNXmX/.m.m.m.m.n.i.i.z.l.y.b N + j c ] ..@.#.2.2.2.2.2.2.1.-.3.1.1.=.| [ +.&.:.3.6.6.6.>.>.6.3.<.<.3.;. .[ I.zXzXzXzXzX",
"zXzXzXzXzXvXnX_.N.m.m.m.m.z.l.z.c.s.9.b $ h v c ! O.y.2.2.4.4.4.3.3.3.1.6.1.1.-.#.} %.-.3.3.>.6.>.>.6.1.;.:.:.;.+.! I.zXzXzXzXzX",
"zXzXzXzXzXxXNX`.C.N.m.m.m.m.n.z.v.b.y.D l $ j z n ~ *.u.d.8.4.6.6.6.6.6.6.6.6.3.1.,.,.-.3.3.>.6.>.>.>.>.:.:.>.;.O.n I.zXzXzXzXzX",
"zXzXzXzXzXlXcXnX(.N.m.m.m.m.m.m.c.m.l.9.J k $ k z n ~ d.8.b.8.8.8.6.6.6.6.6.6.6.:.;.:.:.:.:.>.>.>.:.>.>.>.3.>.1.! z P.zXzXzXzXzX",
"zXzXzXzXzXzXxXNX`./.m.m.m.m.m.m.m.m.v.u.9.H h % j x S r.d.b.c.v.8.6.6.>.6.6.>.6.>.:.:.:.:.:.>.>.>.7.7.7.>.>.>.1.Q z J.zXzXzXzXzX",
"zXzXzXzXzXzXzXvXmX_.N.N.m.m.m.m.m.m.m.b.y.K b h % j = ` f.V.n.v.v.j.7.7.7.6.6.6.:.>.>.>.>.:.:.7.h.h.h.h.7.>.3.-.m k P.zXzXzXzXzX",
"zXzXzXzXzXzXzXlXNX`./.m.m.m.m.m.m.m.m.m.d.q.K A $ h M V _ E.V.M.v.v.v.j.j.h.7.7.h.>.h.h.h.h.h.j.j.k.k.j.h.7.6.,.v l P.jXzXzXzXzX",
"zXzXzXzXzXzXzXjXxXbX_.C.n.m.m.m.m.m.m.m.c.u.9.0.A $ $ * U S.^.V.m.m.m.m.k.k.m.k.m.m.m.n.m.N.N.N.m.m.m.v.j.7.:. .b A P.zXzXzXzXzX",
"zXzXzXzXzXzXzXzXkXsX).^.V.N.m.m.m.m.m.m.m.b.y.0.K B $ $ * Y G.^.C.m.m.m.m.m.m.m.m.m.m.m.N.C.C.N.C.m.m.n.j.7.;.O.A H U.zXzXzXzXzX",
"zXzXzXzXzXzXzXzXzXjXtXY.a.B.n.N.m.m.m.N.M.c.i.q.e.K N + # s W ~.^.N.m.m.m.m.m.m.N.m.N.C./.(././.N.N.m.m.j.>.;.Q A J U.zXzXzXzXzX",
"zXzXzXzXzXzXzXzXhX5Xg g Z.G.a.z.M.m.m.m.m.V.s.q.0.e.H $ + f qXqX~.(.N.m.m.m.m.m.N.N.N.N.C./.N.N.N.m.m.m.h.:.&.v H J U.zXzXzXzXzX",
"zXzXzXzXzXzXhX8X-X6Xd i a s ` p.l.m.m.M.m.b.s.q.9.e.K l + u -XeXtX)./.m.m.N.m.m.m.m.m.m.m.m.m.m.m.m.m.k.>.;.K B H A U.lXzXzXzXzX",
"zXzXzXzXzXfX6X=X;X-X3Xy i & s ^ r.l.c.v.c.l.u.q.J e.e.A + r OX$X6XaX^.N.m.m.m.m.m.m.m.m.m.m.m.m.m.m.m.j.>.-.c A G I qXdXzXzXzXzX",
"zXzXzXzXeX>X*X:X:X>X1X6X3Xs - = _ t.x.l.s.u.) ( J P P A + r #X$X&XrX).C.m.m.m.m.m.m.m.m.m.m.m.m.m.m.k.7.:.{ A A I 3X6XwXzXzXzXzX",
"zXzXjX8X;X;X:X<X<X1X2X7X5XJ.D.` _ ' r.t.O.( D D K P P A + r #X%X*XqX~./.m.m.m.m.m.m.m.m.m.m.m.m.m.m.h.>.$.b B I 3X-X;X;XeXjXzXzX",
"zXjXeX;X;X:X<X<X2X2X1X-X3XW D.S._ _ / ( S S Z G J P K N + y #X&X%X5X~.V.m.m.m.m.m.m.m.m.m.m.m.m.v.j.7.=.c A I qX-X:X;X;X;XwXzXzX",
"zXgX>X;X;X<X2X2X1X:X%X-XqXU Z.T F S D G D D J J K P H M t d .X].].g G.V.m.m.m.m.m.m.m.m.m.m.m.m.j.7.1...B p 3X2X1X<X;X;X;X:XhXzX",
"zX8X;X:X<X2X2X<X%X$X+X#X3XT T A.A.L K K K P P P K H N # y .X{.].].R p.b.m.m.m.m.m.m.m.m.m.m.m.k.6.,.` I f 3X#X%X1X1X<X:X;X;XeXzX",
"zX6X;X<X2X2X,X&X%X%X%X;X#Xf I U T G L L K K J H B M t y .X{.[.[.oXW a.n.m.m.m.m.m.m.m.m.m.m.m.j.2.A.qX3X#X#X%X$X%X,X2X1X<X:X8XzX",
"jX7X<X9X9X,X&X=X7X=X*X&X*X#Xf a t M M N N N N h # t OXOX X XXXOXf G.x.M.m.m.m.m.m.m.m.m.k.j.1.*.T f .XXX&X*X*X%X%X%X9X9X:X:X8XzX",
"zX6X<X9X=X$X&X7X0X7X=X*X&XXX Xy y d f t t p p a u OXOX X XXXXX3XD.f.M.m.N.m.m.m.m.m.n.j.g.*.w.T f oX].'.[.+X*X*X*X%X$X9X:X;X8XzX",
"zXeX<X<X$X$X&X=X0X0X*X+X}.'.'.'.{.oXoXoXOXu OXOXOX X[.].'.q w Y p.M.m.m.m.m.m.m.m.k.h.3.*.A.R 3XOX X[.'.'.].XX,X=X*X$X*X2X2XwXzX",
"zXhX2X<X$X$X$X=X7X=X+X].'.[.].].{.|. XXX X|.{.0 6 < , : > > < T a.n.m.m.m.m.n.n.h.5.w.( U f OX@X+XXX X}.].[.]. X=X=X%X%X<X0XhXzX",
"zXzXwX1X$X$X&X=X>X&X[.'.].[.}.}. XXXXX{.7 < : : : , , , , , 5 U a.j.n.v.c.c.8.2.*.` V a i 7 7 {. X X X|.}.[.'.'.XX=X*X*X7XgXzXzX",
"zXzXzXwX&X&X=X=X=X X'.].].}.}. X Xw e e 7 7 , , , , 6 2 4 4 9 s S.a.a.u.u.q.q.( V a 1 < > > < < 5 w |. X|.[.[.'.].&X=X7XwXzXzXzX",
"zXzXzXzXfX7X=X0X=X|.].].}.|.}.0 3 7 d 4Xe 7 5 3 3 4 4 9 8 8 8 e f Y U Y Y Y a i r 7 4 2 2 > > > : : 5 ]. X}.[.'.].XX0XgXzXzXzXzX",
"zXzXzXzXzXgX8X0X*X[.].}.|.[.5 , 2 7 e oXe w 5 8 9 8 8 8 8 4 4 6 5 5 5 5 6 9 q 9 '.0 9 4 2 2 , > : : : : q }.}.[..X4XjXzXzXzXzXzX",
"zXzXzXzXzXzXzXhX8X|.{.|.[.3 > > > 3 7 7 7 9 8 9 0 4 3 ; . .   .             . . ; < 6 8 8 4 2 2 < > > : : 7 XX4XgXzXzXzXzXzXzXzX",
"zXzXzXzXzXzXzXzXzXfX4X.X9 > > > > , , 4 4 9 0 4 ; .                                 . ; 6 8 4 2 < > : < e 5XhXzXzXzXzXzXzXzXzXzX",
"zXzXzXzXzXzXzXzXzXzXzXhX5Xd e ; > , 3 3 4 8 8 .                                         . 8 8 3 7 e d rXtXzXzXzXzXzXzXzXzXzXzXzX",
"zXzXzXzXzXzXzXzXzXzXzXzXzXzXhXrX5Xd e q 9 0 ;                                       X X o 1 4X5XrXjXzXzXzXzXzXzXzXzXzXzXzXzXzXzX",
"zXzXzXzXzXzXzXzXzXzXzXzXzXzXzXzXzXjXhXtXfX5Xd i 1 O o o X X X X X X X o o 1 1 1 i d g rXtXhXzXzXzXzXzXzXzXzXzXzXzXzXzXzXzXzXzXzX",
"zXzXzXzXzXzXzXzXzXzXzXzXzXzXzXzXzXzXzXzXzXzXzXkXkXjXhXhXtXtXtXrXtXtXtXtXtXjXjXtXhXzXzXzXzXzXzXzXzXzXzXzXzXzXzXzXzXzXzXzXzXzXzXzX",
"zXzXzXzXzXzXzXzXzXzXzXzXzXzXzXzXzXzXzXzXzXzXzXzXzXzXzXzXzXzXzXzXzXzXzXzXzXzXlXlXzXzXzXzXzXzXzXzXzXzXzXzXzXzXzXzXzXzXzXzXzXzXzXzX",
"zXzXzXzXzXzXzXzXzXzXzXzXzXzXzXzXzXzXzXzXzXzXzXzXzXzXzXzXzXzXzXzXzXzXzXzXzXzXzXzXzXzXzXzXzXzXzXzXzXzXzXzXzXzXzXzXzXzXzXzXzXzXzXzX"
};
