/* XPM */
static char *_2_duck_bh5A1721961509[] = {
/* columns rows colors chars-per-pixel */
"64 64 231 2 ",
"   c #03022A",
".  c #09082B",
"X  c #040337",
"o  c #16132F",
"O  c #241C15",
"+  c #584635",
"@  c #6B553B",
"#  c #63491B",
"$  c #060457",
"%  c #070459",
"&  c #09065B",
"*  c #0D095B",
"=  c #0F0C4E",
"-  c #2E2953",
";  c #0A0763",
":  c #0D0863",
">  c #0E096C",
",  c #120C67",
"<  c #181468",
"1  c #0E0A74",
"2  c #0F0A78",
"3  c #120C75",
"4  c #160D77",
"5  c #1D1376",
"6  c #221E6A",
"7  c #231878",
"8  c #2A2467",
"9  c #332B72",
"0  c #241D59",
"q  c #453676",
"w  c #493D5D",
"e  c #4E484B",
"r  c #6F585A",
"t  c #7B635E",
"y  c #5C5C69",
"u  c #504A74",
"i  c #735774",
"p  c #6A6A73",
"a  c #75757E",
"s  c #B46F1E",
"d  c #B5772B",
"f  c #987757",
"g  c #8E6F50",
"h  c #A27B54",
"j  c #866967",
"k  c #987674",
"l  c #8C7170",
"z  c #A37967",
"x  c #A07475",
"c  c #BA8A39",
"v  c #BD8428",
"b  c #BF8118",
"n  c #D59A16",
"m  c #CD9419",
"M  c #DBA219",
"N  c #E5AA16",
"B  c #EAB41B",
"V  c #EDB618",
"C  c #E9AE13",
"Z  c #C99929",
"A  c #D29A29",
"S  c #C58B38",
"D  c #C69839",
"F  c #CE9431",
"G  c #D9A727",
"H  c #DAB129",
"J  c #CCA63B",
"K  c #D5A73A",
"L  c #DCB337",
"P  c #CFA02B",
"I  c #EBBC23",
"U  c #E5B626",
"Y  c #E4BC3B",
"T  c #E2B734",
"R  c #E1AE24",
"E  c #F5C41D",
"W  c #EDC329",
"Q  c #F5CC27",
"!  c #FBD325",
"~  c #F8D12A",
"^  c #EBC93D",
"/  c #E9C439",
"(  c #F2CC33",
")  c #F6D135",
"_  c #AB864A",
"`  c #B6884A",
"'  c #BA9648",
"]  c #A88658",
"[  c #B38C53",
"{  c #BA9858",
"}  c #AB9357",
"|  c #BBA34D",
" . c #9D826C",
".. c #9E8C7F",
"X. c #BB9A62",
"o. c #B89A68",
"O. c #A38879",
"+. c #B79975",
"@. c #AC8D6B",
"#. c #BDA369",
"$. c #BCA778",
"%. c #BDB07F",
"&. c #C69A47",
"*. c #C49959",
"=. c #CC964A",
"-. c #CCA345",
";. c #CBA34C",
":. c #C8A649",
">. c #D5AD45",
",. c #D4A949",
"<. c #DAB444",
"1. c #D9B749",
"2. c #CAA858",
"3. c #D3A959",
"4. c #CEB35B",
"5. c #D4B454",
"6. c #D7BA56",
"7. c #CDB148",
"8. c #E1BB42",
"9. c #E0BE4D",
"0. c #C39B67",
"q. c #C6A766",
"w. c #CBB469",
"e. c #D2BB6B",
"r. c #D5BB63",
"t. c #C2A975",
"y. c #C3B37C",
"u. c #C9B674",
"i. c #D1BE75",
"p. c #D5AF6E",
"a. c #DCC15B",
"s. c #DFC154",
"d. c #E7C645",
"f. c #F5D346",
"g. c #E5C958",
"h. c #EED056",
"j. c #DBC367",
"k. c #DAC676",
"l. c #E5CD6D",
"z. c #EFD66D",
"x. c #210F86",
"c. c #220F88",
"v. c #241385",
"b. c #25128A",
"n. c #29148E",
"m. c #2C1A8B",
"M. c #2C1692",
"N. c #2E1993",
"B. c #311B95",
"V. c #341C9A",
"C. c #381F9B",
"Z. c #36268C",
"A. c #3A249A",
"S. c #322993",
"D. c #3D25A1",
"F. c #391FA0",
"G. c #473788",
"H. c #4B3891",
"J. c #4C29AE",
"K. c #4829AA",
"L. c #5233AC",
"P. c #4E2BB1",
"I. c #522DB3",
"U. c #5E29B2",
"Y. c #5533B5",
"T. c #5B32B6",
"R. c #5735B8",
"E. c #5937B9",
"W. c #5C3BBB",
"Q. c #5A3DB2",
"!. c #4E31AE",
"~. c #622CB4",
"^. c #6532B5",
"/. c #6633B8",
"(. c #6A35BA",
"). c #623DBC",
"_. c #6D3ABD",
"`. c #6838B4",
"'. c #713DBF",
"]. c #5A4988",
"[. c #534B91",
"{. c #6D568E",
"}. c #736D92",
"|. c #514FA6",
" X c #6946B5",
".X c #724BB2",
"XX c #7858B3",
"oX c #6B4FAE",
"OX c #5D6DAF",
"+X c #723EC0",
"@X c #7341C1",
"#X c #6B4BC1",
"$X c #8B728A",
"%X c #8555AD",
"&X c #826BAC",
"*X c #8978B2",
"=X c #835F9F",
"-X c #87878D",
";X c #98968F",
":X c #8C8A9B",
">X c #939293",
",X c #9C9A93",
"<X c #95959A",
"1X c #9B9A9D",
"2X c #999790",
"3X c #A39E96",
"4X c #AE9385",
"5X c #AEA68D",
"6X c #B6AC8C",
"7X c #B9AC87",
"8X c #BCB189",
"9X c #A6A294",
"0X c #ABA594",
"qX c #A4A29C",
"wX c #ABA49B",
"eX c #AEA897",
"rX c #B1A994",
"tX c #948BAE",
"yX c #9D9DA2",
"uX c #9A94AD",
"iX c #9C98AA",
"pX c #9991B1",
"aX c #8C89A9",
"sX c #A09FA4",
"dX c #A19DAD",
"fX c #A3A2A4",
"gX c #A7A6AB",
"hX c #A9A3A4",
"jX c #C4B786",
"kX c #D0C285",
"lX c #E8D482",
/* pixels */
"gXgXgXgXgXgXgXgXgXgXgXgXgXgXgXgXgXgXgXgXgXgXgXgXgXgXgXgXgXgXgXgXgXgXgXgXgXgXgXgXgXgXgXgXgXgXgXgXgXgXgXgXgXgXgXgXgXgXgXgXgXgXgXgX",
"gXgXgXgXgXgXgXgXgXgXgXgXgXgXgXgXgXgXgXgXgXgXgXgXgXgXgXgXgXgXgXgXgXgXgXgXgXgXgXgXgXgXgXgXgXgXgXgXgXgXgXgXgXgXgXgXgXgXgXgXgXgXgXgX",
"gXgXgXgXgXgXgXgXgXgXgXgXgXgXgXgXgXgXgXgXgXgXgXgXgXgXgXgXgXgXgXgXgXgXgXgXgXgXgXgXgXgXgXgXgXgXgXgXgXgXgXgXgXgXgXgXgXgXgXgXgXgXgXgX",
"gXgXgXgXgXgXgXgXgXgXgXgXgXgXgXgXgXgXgXgXgXgXgXgXgXgXgXgXgXgXgXgXgXgXgXgXgXgXgXgXgXgXgXgXgXgXgXgXgXgXgXgXgXgXgXgXgXgXgXgXgXgXgXgX",
"gXgXgXgXgXgXgXgXgXgXgXgXgXgXgXgXgXgXgXgXgXgXgXgXgXgXgXgXgXgXgXgXgXgXhXhXgXgXgXgXgXgXgXgXgXgXgXgXgXgXgXgXgXgXgXgXgXgXgXgXgXgXgXgX",
"gXgXgXgXgXgXgXgXgXgXgXgXgXgXgXgXgXgXgXgXgXgXgXgXgXgXgXgXgXgXgXrXt.0.=.=.*.+.wXgXgXgXgXgXgXgXgXgXgXgXgXgXgXgXgXgXgXgXgXgXgXgXgXgX",
"gXgXgXgXgXgXgXgXgXgXgXgXgXgXgXgXgXgXgXgXgXgXgXgXgXgXgXwX0.3.,.G N N N n n n S o.wXgXgXgXgXgXgXgXgXgXgXgXgXgXgXgXgXgXgXgXgXgXgXgX",
"gXgXgXgXgXgXgXgXgXgXgXgXgXgXgXgXgXgXgXgXgXgXgXgXgXwXq.K N C N n n n n n M M n m 5XgXgXgXgXgXgXgXgXgXgXgXgXgXgXgXgXgXgXgXgXgXgXgX",
"gXgXgXgXgXgXgXgXgXgXgXgXgXgXgXgXgXgXgXgXgXgXgXwXq.L V V V C N n b s s d *.0.o.+.hXgXgXgXgXgXgXgXgXgXgXgXgXgXgXgXgXgXgXgXgXgXgXgX",
"gXgXgXgXgXgXgXgXgXgXgXgXgXgXgXgXgXgXgXgXgXwXq.K B V I W W W I R M A m S *.4XwXsXdXhXgXgXgXgXgXgXgXgXgXgXgXgXgXgXgXgXgXgXgXgXgXgX",
"gXgXgXgXgXgXgXgXgXgXgXgXgXgXgXgXgXgXgXgXhX2.B V T -.' { { X.o.#.o.0.0.0.2.q.t.+.7XdXgXgXgXgXgXgXgXgXgXgXgXgXgXgXgXgXgXgXgXgXgXgX",
"gXgXgXgXgXgXgXgXgXgXgXgXgXgXgXgXgXgXgXhX3.B T { @.4X,X9X6Xy.w.4.6.6.6.6.5.4.4.w.t.jXwXgXgXgXgXgXgXgXgXgXgXgXgXgXgXgXgXgXgXgXgXgX",
"gXgXgXgXgXgXgXgXgXgXgXgXgXgXgXgXgXgXwX3.B 7.$.9XwX6Xu.j.s.6.j.r.e.w.w.w.w.r.r.6.,.5.$.0XgXgXgXgXgXgXgXgXgXgXgXgXgXgXgXgXgXgXgXgX",
"gXgXgXgXgXgXgXgXgXgXgXgXgXgXgXgXgXhX2.U 4.5X0X8Xa.d.s.j.u.w.w.6.9.d.d.d.9.5.4.w.p.e.5.;.$.wXgXgXgXgXgXgXgXgXgXgXgXgXgXgXgXgXgXgX",
"gXgXgXgXgXgXgXgXgXgXwXw.>.5XhXgXhX2.U 4.5X8Xa./ s.u.%.w.6.d.~ Q ) ) ) ^ d.1.6.4.2.2.r.e.7.{ wXgXgXgXgXgXgXgXgXgXgXgXgXgXgXgXgXgX",
"gXgXgXgXgXgXgXgXgXgXo.I B X.+.#.&.B 1.7Xe.^ ^ j.%.w.5.^ ~ ! ~ / <.<.<.<.1.,.,.;.{ @.[ ,.e.4.{ wXgXgXgXgXgXgXgXgXgXgXgXgXgXgXgXgX",
"gXgXgXgXgXgXgXgXgXgX| E W { &.P R Y 7Xi.^ d.jX%.w.<.( ! ! / <.5.6.u.y.%.t.y.e.6.<.D ` ` L j.4.| eXgXgXgXgXgXgXgXgXgXgXgXgXgXgXgX",
"gXgXgXgXgXgXgXgXgXgXK ! L X.P M B w.jXh.l.7Xt.5./ ~ ! ~ L 1.r.7X9X1X1X1X1X1X1X9XjXg.Y G G ^ k.7.q.gXgXgXgXgXgXgXgXgXgXgXgXgXgXgX",
"gXgXgXgXgXgXgXgXgXgXL ! L { G B Y 6XkXk.6Xt.<./ ! ! ^ L 1.y.9X1X1X<X<X<X<X1X<XyX<X9Xi.d.W W g.k.-.0XgXgXgXgXgXgXgXgXgXgXgXgXgXgX",
"gXgXgXgXgXgXgXgXgXgX/ ! L { n B 4.rXjXeX%.5.W ! ~ / <.<.%.3X1X<X<X<X<X<X<X1X1XyXyX1X,X8Xf.~ ) k.g.*.gXgXgXgXgXgXgXgXgXgXgXgXgXgX",
"gXgXgXgXgXgXgXgXgXgX^ ! >.' G W $.eX0XrX4.T ! ~ d.,.<.y.3X1X<X>X>X>X<X<XyXyXyXyXyXyX1X,Xk.f.( l.k.J 0XgXgXgXgXgXgXgXgXgXgXgXgXgX",
"gXgXgXgXgXgXgXgXgXgX^ Q :._ M d.6X1XqXt.>.( ( <.7.1.u.9XyX<X>X;X>X<XyXyXiXgXfXfXsXsXyX1X9Xk.^ z.lXH { gXgXgXgXgXgXgXgXgXgXgXgXgX",
"gXgXgXgXgXgXgXgXgXgX^ Q :._ B 1.qX1XeX5.<.( <.7.1.e.5X1X<X<X>X-X:X<XyXyXgXfXfXgXhXdXsXyX,X8Xz.z.lXY D gXgXgXgXgXgXgXgXgXgXgXgXgX",
"gXgXgXgXgXgXgXgXgXgXd.Q ;._ I 5.hXfX7X-.Y 8.;.9.j.5X1XyX<X>X>X>X>X<XyXyXfXfXgXfXgXgXgXsX1X9Xk.z.z./ &.gXgXgXgXgXgXgXgXgXgXgXgXgX",
"gXgXgXgXgXgXgXgXgXgXd.! :._ W 6.qXfXu.-.<.,.1.e.0X1XsX1X>X>X>X;X>X>X1XsXfXgXfXfXsXfXfXfXyX,XkXlXh.W D gXgXgXgXgXgXgXgXgXgXgXgXgX",
"gXgXgXgXgXgXgXgXgXgXL Q K } I d.eXhXw.K ,.-.6.6X1XyX1X<X>X>X>X-X>X>X<XfXgXfXfXyXqXsXfXgXsX>X8XlXf.H c gXgXgXgXgXgXgXgXgXgXgXgXgX",
"gXgXgXgXgXgXgXgXgXgX1.Q H ' U ^ %.qXw.D =.K r.eXyXyX<X>X>X>X;X;X-X>X<XsXgXfXfXsX3XsXfXfXsX>XrXlXf.G *.gXgXgXgXgXgXgXgXgXgXgXgXgX",
"gXgXgXgXgXgXgXgXgXgXJ Q V c H ~ 4.qXu.K &.J r.wXyX<X>X2X;X;X;X;X;X>X>X<XfXfXsXqX9XqXyXgXsX<XrXz./ m X.gXgXgXgXgXgXgXgXgXgXgXgXgX",
"gXgXgXgXgXgXgXgXgXgX| Q E m M ! d.t.8X<.D F 6.rXyX<X>X2X,X,X;X;X;X>X>X1XfXfXfXqX9X9XfXfXsX<XrXz.H m +.gXgXgXgXgXgXgXgXgXgXgXgXgX",
"gXgXgXgXgXgXgXgXgXgX| W E n n E ) 6.t.r.K K 1.8XfX<X2X2X,X9X9X2X;X>X<XyXgXfXsX9X9XqXfXgXyX<XjXh.M ' eXgXgXgXgXgXgXgXgXgXgXgXgXgX",
"gXgXgXgXgXgXgXgXgXgX@.W E M n V ! ) 1.u.1.L T w.wXyX<X>X;X2X,X;X>X>X<XsXfXsXqX0X9XfXfXfX1X,XjX^ m +.gXgXgXgXgXgXgXgXgXgXgXgXgXgX",
"gXgXgXgXgXgXgXgXgXgXfX| E C n C E ! ( 1.j.s.d.g.8XwXfX1X2X>X;X>X>X<XfXfXfXqX0X0XfXfXfXyX2X0Xl.H ` =XXXtXgXgXgXgXgXgXgXgXgXgXgXgX",
"gXgXgXgXgXgXgXhXgXuX&XO.H E M C V ~ ~ ( 8.6.a.g.j.8X0XfXfXfXyXyXsXfXfXfXqX0X0XqXfXfXfX1X,XkX9.A x ~.U.U.`.&XpXgXgXgXgXgXgXgXgXgX",
"gXgXgXgXgXgXgXuX&X`.~.@.} H E M V / 5.7./ / 1.a.j.e.y.6XwX9XhXhXqXqX0X0X5XeXqXfXfXsXyX,X8Xj.G h .X~.~.~.U.U.`.&XiXgXgXgXgXgXgXgX",
"gXgXgXgXgXdX*X X~.~.~.+.7.| L B B I :.g c T / <.1.g.j.i.y.8X6X6X6X6X6X6X0XqXfXfXfXyX,X8Xk./ ' XX(.(.^.~.U.U.~.U. X*XgXgXgXgXgXgX",
"gXgXgXgXiXXX~.~.~.~.~. X4X#.| J U B R ` d S K Y Y 8.<.g.s.j.i.i.kX8X6XeXqXyXyXyXyX0XjXl.d.P 4X+X'.'._.(.+X~.~.U.~.~.XXdXgXgXgXgX",
"gXgXgXpX.X~.~.~.^.(._.'.+X%X4Xo.:.H B H c d G L >.<.^ Y 7.>.8.d.g.i.jX5X9X9XqX9X8Xj.h.^ P k .X_.'.%X+X+X+X+XU.U.~.U.U..XiXgXgXgX",
"gXgXuX.X~.~.(.(.(.'.+X+X+X/.~.`.k 2.J H G Z v N I K -.1.d.5.&.K Y d.l.y.%.%.k.a.f.) W P k =XI.J.I.~.+X+X+X+X+XU.~.~.U.~..XiXgXgX",
"gXsXXXU.~.(.^.(.+X+X+X^.I.P.J.P.L.XX$X@.' R A v Z I I -.;.2.#.[ &.K L Y / / ( ~ Q I Z k  XoXI.I.P.I.P.I.T.+X+X+X(.~.~.~.U.XXgXgX",
"gX*X^.~.~.(.+X+X+X/.P.P.J.J.J.P.J.P.Y.E.oXO.J G Z Z G I U L -.{ [ [ c Z H I W I G D $X XT.I.Y.Y.I.I.P.P.P.I.+X+X+X(.^.~.U.U.aXgX",
"dX.X~.~._.'.'._.I.P.J.J.P.I.P.Y.L.T.R.Q.Q.=X}.k h &.Z Z Z G G U R T U H H M G D z {.G.N.L.oXL.T.R.R.Y.!.P.P.P.T.+X(.(./.~.~..XgX",
"uX`.~.(._.+X_.I.P.P.P.I.I.I.R.R.R.Y.K.A.Z.z i m.Z.q j z f ` D D F Z P Z ` `  .p Z.S.b.x.G.Z.v.C.K.Y.R.R.Y.I.P.J.I.(._.(./.~.^.uX",
"tX~.^._._._.T.Y.P.I.I.Y.R.R.T.P.V.n.v.b.j 0.k G.O.].M.Z.i i l l l l  . .x z [.|.|.S.S.b.i i v.x.b.M.K.!.E.R.Y.P.P.I.+X(._.^.^.tX",
"tX~.(._._.T.Y. X#XW.R.E.R.Y.D.b.x.x.x.v.H.G.G.Z.$XH.M.V.A.K.4Xq.;.,.=.` $X3.t.aXOX|.{.].z z m.v.c.v.x.M.K.E.W.R.I.P.P.+X'.(.`.tX",
"pX(.(.+XT.J.T.#X#X XE.E.K.n.c.c.c.b.b.n.n.M.M.$X$XV.V.[.{.D.=X[ *.,.F =.=X0.+.&X|.|.{.H.H.{.m.N.M.n.v.v.c.V.R.W.E.I.I.T._.(.`.uX",
"dX.X(.(.J.P.T. X#X).W.D.b.x.c.b.b.n.n.M.M.V.V.XX:XA.M.].z O.j z 0.F &.3.u u H.H.|.A.F.F.C.B.C.A.A.N.n.b.c.c.N.Y.W.E.Y.P.^.`.XXdX",
"gX*X_.T.J.J.R.W.W.W.K.b.c.b.b.n.n.M.B.V.V.N.n.5 < : & % 0 ] f r h =.h 3.j h h r { u 3 7 M.C.K.K.L.D.B.M.b.b.b.M.R.W.R.I.~._.*XgX",
"gXdXXXI.P.P.R.W. X!.b.x.b.M.n.M.V.V.C.S.5 , $ $ $ & & ; - j f ] z ;.q.o.r ,.=.g g w $ $ & , 7 B.A.A.V.N.n.b.b.b.N.W.E.Y.T.XXdXgX",
"gXgXtXW.P.Y.R.).W.F.x.b.b.n.M.V.S.m.7 < < * $ $ ; * : ; , 8 8 f ` +.*.*.h *.0.0 ; & $ $ % % * * 5 N.V.C.N.n.n.c.c.K.W.R. XpXgXgX",
"gXgXgXtXE.Y.W.).Y.n.c.b.n.M.M.n.5 6 [.].8 < * * ; ; > > , 9 9 8 @.o.g f j i h w ; : ; ; * & % % $ * 4 m.V.M.n.b.c.B.E.oXaXgXgXgX",
"gXgXgXgXpXXXW.#X!.b.b.n.N.N.v.; * 6 [.[.9 < > , > > 3 1 5 9 5 5 j z j t j q j q 4 1 > > ; ; & % $ $ $ : n.N.n.b.b.M.XXpXgXgXgXgX",
"gXgXgXgXgXpX*X#XD.n.b.N.N.5 $ $ & 6 8 9 6 < > 3 1 1 1 3 < j 0 0 g d g i - $ < , 2 4 4 4 > ; ; ; $ $ $ $ & v.M.v.Z.}.iXgXgXgXgXgX",
"gXgXgXgXgXgXgXpXOXm.M.N.x.% $ $ & * < < < > 1 1 4 > = X   . .   e { h e e .     X = ; 1 1 1 > * & & $ $ $ : S.OXaXgXgXgXgXgXgXgX",
"gXgXgXgXgXgXgXgXgX:X|.S.> $ $ $ % & ; > 1 1 4 , =             . + } g + .       .     X : 2 1 : ; & $ = 8 y :XdXgXgXgXgXgXgXgXgX",
"gXgXgXgXgXgXgXgXgXgXfX<Xa 9 < $ & ; : > 1 1 ; X                 O # # @ o               . * 1 > , 8 q }.<XdXgXgXgXgXgXgXgXgXgXgX",
"gXgXgXgXgXgXgXgXgXgXgXgXgXyX>X}.u 6 < > 2 2 = .                 O O O O                 . = 9 [.}.:XyXfXgXgXgXgXgXgXgXgXgXgXgXgX",
"gXgXgXgXgXgXgXgXgXgXgXgXgXgXgXgXgXyX:X}.[.G.- o .             .   . .     . . o o - e y a -X<XdXgXgXgXgXgXgXgXgXgXgXgXgXgXgXgXgX",
"gXgXgXgXgXgXgXgXgXgXgXgXgXgXgXgXgXgXgXgXgXgX1X<X-X..}.p p y y y y y y p p a -X-X<XsXgXgXgXgXgXgXgXgXgXgXgXgXgXgXgXgXgXgXgXgXgXgX",
"gXgXgXgXgXgXgXgXgXgXgXgXgXgXgXgXgXgXgXgXgXgXgXgXgXgXgXgXgXgXgXgXfXgXgXgXgXgXfXgXgXgXgXgXgXgXgXgXgXgXgXgXgXgXgXgXgXgXgXgXgXgXgXgX",
"gXgXgXgXgXgXgXgXgXgXgXgXgXgXgXgXgXgXgXgXgXgXgXgXgXgXgXgXgXgXgXgXfXgXgXgXgXgXgXgXgXgXgXgXgXgXgXgXgXgXgXgXgXgXgXgXgXgXgXgXgXgXgXgX",
"gXgXgXgXgXgXgXgXgXgXgXgXgXgXgXgXgXgXgXgXgXgXgXgXgXgXgXgXgXgXgXgXgXgXgXgXgXgXgXgXgXgXgXgXgXgXgXgXgXgXgXgXgXgXgXgXgXgXgXgXgXgXgXgX",
"gXgXgXgXgXgXgXgXgXgXgXgXgXgXgXgXgXgXgXgXgXgXgXgXgXgXgXgXgXgXgXgXgXgXgXgXgXgXgXgXgXgXgXgXgXgXgXgXgXgXgXgXgXgXgXgXgXgXgXgXgXgXgXgX",
"gXgXgXgXgXgXgXgXgXgXgXgXgXgXgXgXgXgXgXgXgXgXgXgXgXgXgXgXgXgXgXgXgXgXgXgXgXgXgXgXgXgXgXgXgXgXgXgXgXgXgXgXgXgXgXgXgXgXgXgXgXgXgXgX",
"gXgXgXgXgXgXgXgXgXgXgXgXgXgXgXgXgXgXgXgXgXgXgXgXgXgXgXgXgXgXgXgXgXgXgXgXgXgXgXgXgXgXgXgXgXgXgXgXgXgXgXgXgXgXgXgXgXgXgXgXgXgXgXgX"
};
