/* XPM */
static char *_3_duck_bh5B1721961508[] = {
/* columns rows colors chars-per-pixel */
"64 64 239 2 ",
"   c #2F2416",
".  c #02012A",
"X  c #090728",
"o  c #050435",
"O  c #191631",
"+  c #080610",
"@  c #4F3B15",
"#  c #534134",
"$  c #694F25",
"%  c #060457",
"&  c #070459",
"*  c #09065C",
"=  c #0C095B",
"-  c #0E0B4F",
";  c #2C2756",
":  c #0A0662",
">  c #0D0964",
",  c #0D096B",
"<  c #110B6C",
"1  c #120B65",
"2  c #191468",
"3  c #0E0972",
"4  c #0F0A78",
"5  c #120C74",
"6  c #140C77",
"7  c #1D1378",
"8  c #221778",
"9  c #211D6A",
"0  c #2C2775",
"q  c #352E6E",
"w  c #251D5D",
"e  c #443E58",
"r  c #473670",
"t  c #79625F",
"y  c #5C5B69",
"u  c #524B73",
"i  c #77597C",
"p  c #695176",
"a  c #706C74",
"s  c #5E4F4B",
"d  c #AD7D3B",
"f  c #8B6D59",
"g  c #977559",
"h  c #8F714B",
"j  c #A57D5A",
"k  c #A1794B",
"l  c #825E79",
"z  c #866867",
"x  c #927270",
"c  c #A47B69",
"v  c #A97D76",
"b  c #BD8D36",
"n  c #C5861A",
"m  c #D89C14",
"M  c #DFA516",
"N  c #E4AB16",
"B  c #E9B41B",
"V  c #F1BC19",
"C  c #C38727",
"Z  c #CB9729",
"A  c #D29B26",
"S  c #C89939",
"D  c #D29C39",
"F  c #C18B39",
"G  c #DBAD2A",
"H  c #D7A629",
"J  c #CCA43A",
"K  c #D5AC3B",
"L  c #D9A737",
"P  c #DCB33D",
"I  c #DDB435",
"U  c #D9AC2B",
"Y  c #E6B727",
"T  c #E3BB34",
"R  c #E2BC3C",
"E  c #E3B732",
"W  c #E2AF2D",
"Q  c #F0C31F",
"!  c #EDC329",
"~  c #F3CD2D",
"^  c #F4C623",
"/  c #F7D02B",
"(  c #EBC638",
")  c #F1CB33",
"_  c #F5D135",
"`  c #BC964B",
"'  c #A78557",
"]  c #BC9959",
"[  c #B48A50",
"{  c #BA9A68",
"}  c #A48875",
"|  c #B69B79",
" . c #B18E6C",
".. c #BDA46B",
"X. c #BCA879",
"o. c #BFB07F",
"O. c #A78C64",
"+. c #C69B47",
"@. c #C39955",
"#. c #CA9447",
"$. c #CBA648",
"%. c #D3AC44",
"&. c #D3A949",
"*. c #DAB443",
"=. c #DEBA42",
"-. c #DDBC4B",
";. c #D6B34A",
":. c #CBAD5C",
">. c #C9A758",
",. c #D0A757",
"<. c #CEB35E",
"1. c #D4B352",
"2. c #DBBC53",
"3. c #D1B55C",
"4. c #D5B95C",
"5. c #D9BA57",
"6. c #E1BC43",
"7. c #E1AB44",
"8. c #C39B6A",
"9. c #CAAC63",
"0. c #C4AC6C",
"q. c #C5A865",
"w. c #CCB364",
"e. c #CAB56B",
"r. c #CAB56C",
"t. c #D4BC63",
"y. c #D3BD6B",
"u. c #D2B962",
"i. c #C2AC75",
"p. c #C2B37C",
"a. c #C9B775",
"s. c #D3B36C",
"d. c #DCC159",
"f. c #DFC24F",
"g. c #E7C646",
"h. c #F1CC40",
"j. c #E3C657",
"k. c #F0D152",
"l. c #DBC267",
"z. c #D8C475",
"x. c #ECD26B",
"c. c #210F86",
"v. c #220F88",
"b. c #231285",
"n. c #25128A",
"m. c #29158E",
"M. c #2C198B",
"N. c #2C1692",
"B. c #2E1992",
"V. c #321B96",
"C. c #341D9A",
"Z. c #301E8F",
"A. c #36268B",
"S. c #3B239D",
"D. c #362995",
"F. c #362D94",
"G. c #3D24A1",
"H. c #4B368B",
"J. c #4B27AF",
"K. c #4D29AF",
"L. c #442AA6",
"P. c #4D36A9",
"I. c #5535AB",
"U. c #4E2AB1",
"Y. c #522DB3",
"T. c #5D2AB2",
"R. c #5432B5",
"E. c #5B32B5",
"W. c #5936B9",
"Q. c #5C3ABA",
"!. c #5838B7",
"~. c #622CB4",
"^. c #6631B6",
"/. c #6A35BA",
"(. c #623DBC",
"). c #6D3ABD",
"_. c #6737B6",
"`. c #713DBF",
"'. c #6534AE",
"]. c #594486",
"[. c #534892",
"{. c #785A88",
"}. c #67518F",
"|. c #726D91",
" X c #5352AB",
".X c #6845B5",
"XX c #734AB7",
"oX c #7756B3",
"OX c #7152AA",
"+X c #736EAD",
"@X c #723FC0",
"#X c #7441C1",
"$X c #6B4CC1",
"%X c #865999",
"&X c #8A6B95",
"*X c #8E738B",
"=X c #8556AD",
"-X c #8B7BAF",
";X c #8771B0",
":X c #95938F",
">X c #9B998F",
",X c #8B8A99",
"<X c #968E9A",
"1X c #939293",
"2X c #95959A",
"3X c #9B9A9D",
"4X c #9B9A94",
"5X c #89888F",
"6X c #B39C86",
"7X c #A19E9B",
"8X c #A49E95",
"9X c #AB8E87",
"0X c #ADA48C",
"qX c #BAAC84",
"wX c #B4AB8B",
"eX c #B7A686",
"rX c #BDB187",
"tX c #A6A294",
"yX c #ABA494",
"uX c #A4A29C",
"iX c #ACA39B",
"pX c #AEA894",
"aX c #B2A495",
"sX c #B1AA93",
"dX c #948BAE",
"fX c #9D9CA2",
"gX c #9B94AD",
"hX c #9A98AA",
"jX c #9A92B1",
"kX c #8D8BA4",
"lX c #A09FA4",
"zX c #A19DAC",
"xX c #A3A1A4",
"cX c #A9A5A6",
"vX c #A7A6AB",
"bX c #A8A5A8",
"nX c #C3B585",
"mX c #C6BB88",
"MX c #D2C486",
/* pixels */
"vXvXvXvXvXvXvXvXvXvXvXvXvXvXvXvXvXvXvXvXvXvXvXvXvXvXvXvXvXvXvXvXvXvXvXvXvXvXvXvXvXvXvXvXvXvXvXvXvXvXvXvXvXvXvXvXvXvXvXvXvXvXvXvX",
"vXvXvXvXvXvXvXvXvXvXvXvXvXvXvXvXvXvXvXvXvXvXvXvXvXvXvXvXvXvXvXvXvXvXvXbXvXvXvXvXvXvXvXvXvXvXvXvXvXvXvXvXvXvXvXvXvXvXvXvXvXvXvXvX",
"vXvXvXvXvXvXvXvXvXvXvXvXvXvXvXvXvXvXvXvXvXvXvXvXvXvXvXvXvXvXvXvXvXvXvXbXvXvXvXvXbXbXvXvXvXvXvXvXvXvXvXvXvXvXvXvXvXvXvXvXvXvXvXvX",
"vXvXvXvXvXvXvXvXvXvXvXvXvXvXvXvXvXvXvXvXvXvXvXvXvXvXvXvXvXvXvXvXvXaXaXeX6X6X6XaXzXvXvXvXvXvXvXvXvXvXvXvXvXvXvXvXvXvXvXvXvXvXvXvX",
"vXvXvXvXvXvXvXvXvXvXvXvXvXvXvXvXvXvXvXvXvXvXvXvXvXvXbXvXbXaX6X8.eX,.D D 7.A D @.| 8XcXvXvXvXvXvXvXvXvXvXvXvXvXvXvXvXvXvXvXvXvXvX",
"vXvXvXvXvXvXvXvXvXvXvXvXvXvXvXvXvXvXvXvXvXvXvXvXvXvXcXaX6X,.L 7.W M M m m m m A S { iXvXvXvXvXvXvXvXvXvXvXvXvXvXvXvXvXvXvXvXvXvX",
"vXvXvXvXvXvXvXvXvXvXvXvXvXvXvXvXvXvXvXvXvXvXcXcXbXaX6X,.L Y V N m m n n n C D #.#.| cXvXvXvXvXvXvXvXvXvXvXvXvXvXvXvXvXvXvXvXvXvX",
"vXvXvXvXvXvXvXvXvXvXvXvXvXvXvXvXvXvXvXvXvXvXzXiXnX,.P Y V Y V B N m n C C F 8.6X6X8XcXvXvXvXvXvXvXvXvXvXvXvXvXvXvXvXvXvXvXvXvXvX",
"vXvXvXvXvXvXvXvXvXvXvXvXvXvXvXvXvXvXvXvXvXbXaXq.K T T K K $.%.$.#.#.#.@.+.@.{ X.eXaX7XcXvXvXvXvXvXvXvXvXvXvXvXvXvXvXvXvXvXvXvXvX",
"vXvXvXvXvXvXvXvXvXvXvXvXvXvXvXvXvXvXvXvXbXaX9.I U $.] O.| | X...s.9.:.u.<.<.<.:.q.X.eXiXcXvXvXvXvXvXvXvXvXvXvXvXvXvXvXvXvXvXvXvX",
"vXvXvXvXvXvXvXvXvXvXvXvXvXvXvXvXvXvXvXvXaX9.P %...X.0XX.o...r.l.u.u.u.u.<.<.w.4.3.<.w.i.aXcXvXvXvXvXvXvXvXvXvXvXvXvXvXvXvXvXvXvX",
"vXvXvXvXvXvXvXvXvXvXvXvXvXvXvXvXvXvXbXaX9.*.,.X.0Xo.a.l.d.l.t.t.u.5.5.2.5.5.5.4.u.3.u.<.0.eXpXbXvXvXvXvXvXvXvXvXvXvXvXvXvXvXvXvX",
"vXvXvXvXvXvXvXvXvXvXvXbXsXnX6XlXxXvXyXq.=.:.o.p.l.d.d.r.u.w.4.f.g.( ( ) g.g.f.;.,.9.w.<.<.9...yXbXvXvXvXvXvXvXvXvXvXvXvXvXvXvXvX",
"vXvXvXvXvXvXvXvXvXvXvXiX0.6.,.| 0XX.:.*.:.p.r.f.f.d.l...4.f.( ~ ~ ( R ( ( =.;.;.1.>.] ] >.<.<...wXvXvXvXvXvXvXvXvXvXvXvXvXvXvXvX",
"vXvXvXvXvXvXvXvXvXvXvX0X*.Y K { ] J U f...l.f.d.l.X...f.( ~ / ( R -.3.<.w.w.w.w.,.1.>.[ ` $.4.u.q.aXbXvXvXvXvXvXvXvXvXvXvXvXvXvX",
"vXvXvXvXvXvXvXvXvXvXvXeX=.^ %.+.A U I r.a.j.d.a...d.R / / ~ T ;.:.i.qX0XtX0X0X0XX.0.:.%.D A E 5.u.q.aXvXvXvXvXvXvXvXvXvXvXvXvXvX",
"vXvXvXvXvXvXvXvXvXvXvXrX( ! $.+.M G 1.p.z.z.o.0.1.( ~ / ! P 1.r.wXtX3X2X2X3X2X3X3XtX0Xr.f.T ! g.t.3.| cXvXvXvXvXvXvXvXvXvXvXvXvX",
"vXvXvXvXvXvXvXvXvXvXvXrXh.! $.J M E r.rXnXrXo.;.( / / ( =.1.X.0X3X2X2X2X2X2X2X2X3X3X4XtXo.f.) ~ j.z.:.aXvXvXvXvXvXvXvXvXvXvXvXvX",
"vXvXvXvXvXvXvXvXvXvXvXrXh.! +.J G =.qXpXsXX.1.( ~ ~ ( =.1.o.0X3X2X1X2X1X2X2XfXfX3XfXfX3X>Xo.j._ h.z.4.| cXvXvXvXvXvXvXvXvXvXvXvX",
"vXvXvXvXvXvXvXvXvXvXvXmXh.T ` b Y 1.0XuXpX0.=.! ) P ;.1.0.tX3X1X1X1X,X2XfXfXfXlXxXlXlX7X4XtXa.k.k.x.l.,.aXvXvXvXbXvXvXvXvXvXvXvX",
"vXvXvXvXvXvXvXvXvXvXvXrX( T ` b Y w.uXuXX.1.I ( P ;.2.e.0X3X2X1X1X1X,X2XfXlXlXlXxXxXvXlXfX3X0Xl.k.x.j.%.6XbXvXvXvXvXvXvXvXvXvXvX",
"vXvXvXvXvXvXvXvXvXvXvXmXh.T ` J I o.uXiXX.;.( P ;.1.e.eX7X2X2X1X1X1X1X2XfXlXvXvXxXvXvXxXxXfX4XmXx.x.x.*.| bXvXvXvXvXvXvXvXvXvXvX",
"vXvXvXvXvXvXvXvXvXvXvXmXg.R ` J I p.xXsX9.%.;.;.1.y.wXuX3X2X1X1X5X1X1X2XfXxXvXxXxXxXlXxXxXlX4XwXMXx.k.6.| bXbXvXvXvXvXvXvXvXvXvX",
"vXvXvXvXvXvXvXvXvXvXvXrX( T ` J T r.iXwX>.$.%.%.w.wX3X3XfX2X1X:X:X1X1X2XfXxXxXxXxXxXlXxXxXlX3XtXMXx.k.E | bXvXvXvXvXvXvXvXvXvXvX",
"vXvXvXvXvXvXvXvXvXvXvXnX=.! J J ( u.pXwX,.J $.;.a.iXfX3X2X1X:X:X:X1X5X1X3XlXxXvXxX7X7XlXxXxX3XuXmXx.( S | vXvXvXvXvXvXvXvXvXvXvX",
"vXvXvXvXvXvXvXvXvXvXvXrX=.Q J Z Y f.qXeX,.$.+.&.i.uX3X2X2X1X:X:X:X:X1X1X2XlXxXxXuXuXuX7XxXxX7X4XmXx.W S 6XvXvXvXvXvXvXvXvXvXvXvX",
"vXvXvXvXvXvXvXvXvXvXvXwX=.Q M Z Y ( w.qX9.J S &.p.uX3X1X1X>X>X>X:X:X:X1X2XlXxXxXxXuXtXuXlXxX3X4Xp.j.G S 6XbXvXvXvXvXvXvXvXvXvXvX",
"vXvXvXvXvXvXvXvXvXvXvX0X;.Q N m B ~ f.0.e.%.J %.w.iX3X2X1X>X8X>X>X>X:X1X2XlXxXxXuXtXtXuXxXlX3XtXMXg.J @.aXvXvXvXvXvXvXvXvXvXvXvX",
"vXvXvXvXvXvXvXvXvXvXvX0X$.! B m N Q ) -.w.3.K I 4.wXxX3X1X>X>X>X>X>X:X1X2XlXxXxXuXpXuXxXxXlX3X0Xz.P J | bXvXvXvXvXvXvXvXvXvXvXvX",
"vXvXvXvXvXvXvXvXvXvXvXlX..I B M N V / ) 6.4.2.6.-.a.sX3X3X2X>X1X1X1X1X3XlXxXxXuXtXtXxXxXxXfX4XqX4.K ] iXvXvXvXvXvXvXvXvXvXvXvXvX",
"vXvXvXvXvXvXvXvXvXvXvXbX0X$.Y B N B ^ / ( 6.2.f.j.l.p.pXuX3X3X3X3X3XfXxXvXuXuXtXtXuXxXxXlX3XtXa.6.$.| vXvXvXvXvXvXvXvXvXvXvXvXvX",
"vXvXvXvXvXvXvXvXvXvXvXzX1X] J B N N V ( g.R 6.-.-.d.y.nXwXiXuXxXfXxXuXuXuXuXpXtXuXuXlXlX3X8XnX5.$.c &XdXvXvXvXvXvXvXvXvXvXvXvXvX",
"vXvXvXvXvXvXvXzXcXzX;X'.%X{ $.J B N ! I ` b L R 6.2.5.t.a.nXwXwXpXpXpXpXpXpXtXuX7XxXlX7XuXrXy.1.[ %X'.~..X;XgXbXbXvXvXvXvXvXvXvX",
"vXvXvXvXvXvXvXzX;X'.~.~.OX9X..>.J G B G +.d b L 6.6.g.2.5.t.y.a.a.p.rXrXwXpXuXxXlX7X7XtXrXl.-.$.&X`.~.~.~.~._.;XhXvXvXvXvXvXvXvX",
"vXvXvXvXvXzX;X.XT.~.~.~.^.XX&X9X..$.U Y U Z b C L I =.=.6.-.2.4.d.d.z.o.wXtX4XuX3XtXwXz.l.g.$.c =X`.^.^.~.~.~.~..X-XvXbXvXvXvXvX",
"vXvXvXbXzXoX~.~.~.~.^.^././.#X=X-X| ] K U H Z C A W I P *.=.;.&.;.f.f.l.z.rXwXwXo.l.d.g.( $.v =X`.`.`./././.~.~.~.'.oXhXvXvXvXvX",
"vXvXvXjXXXT.T.~.~./.).).@X@X#X@X.XOX&X} { $.J Z Z H G E P %.1.>.] $.*.-.1.4.5.f.g.( ) E +.v OX).`.`.#X`.`.)./.^.^.~.~.OXgXvXvXvX",
"vXvXgXXXT.~.~.~.~./.@X@X@X@XW.Y.L.I.OXOX*X{  .+.Z Z A H G L K $.] [ ` b J L E ! ~ Y G $.x }.I.J.T.^.).`.@X`.).)././.~.~.oXhXvXvX",
"bXzXOX~.~.~.~.^.@X@X@X/.R.J.U.U.U.U.OXK..XOXoX*XO.` S Z A H H A K J J S H G G B G J [ *XOXU.U.U.K.J.K.Y./.`.`.)././.^.~.~.oXzXvX",
"vX;X~.~.~.^./.@X@X/.Y.J.U.U.R.Y.R.R.E.Y.!.!.I.'.}.| S j ` F S D A H H H H J S ` [ *X|..X!.Y.R.U.K.K.J.J.J.Y./.`.@X/./.^.^.^.-XvX",
"zXXX~.~.^._.`.).E.U.U.U.Y.R.R.R.!.R.OXH.N.m.m.n.{.} D ] #.#.c j ' ' ' ' ' ' x p ].}.&X!.Q.!.R.R.R.R.Y.Y.J.J.J.E.@X@X)./.~.~.oXzX",
"gX'.~.^.).)./.Y.U.Y.Y.R.W.R.R.L.C.m.A.H.c.m.Z.F.F.}.#.D +.7.#.x x x } p p }.].A.b.a c Z.C.L.R.R.W.R.Y.R.U.Y.K.K.Y./.@X)./.~._.gX",
"dX^._.`.)./.Y.K.Y.R.E.W.R.G.N.n.c.M.i p b.Z.F. X X[.#.F 7.7.L &.} O.].i A.N.}.} H.v 8.i b.c.n.S.R.R.R.R.Y.R.R.!.E.R.).@X/.^.^.dX",
"dX~./.`.).R.U.Y.W.W.!.L.N.n.n.b.b.M.j x }.}. X+XdX8.,.l #.#.,.#.s.v L.D.B.m.].*XN.].r H.n.v.v.v.n.G.R.W.R.R.Q.$X.XR.E.).`.^._.dX",
"dX^./.@XE.Y.R.R.Q.I.C.c.n.n.m.M.M.V.}.H.[.|.P. X+X8. .&X#.A #.8.8.{.G.{.[.C.C.&X|.V.N.n.N.v.v.v.v.v.N.K.Q.Q..X$X$X!.Y.E.`./._.hX",
"hXXX/./.Y.R.Q.Q.T.B.c.c.n.M.V.Z.L.C.V.C.D.C.D.[.H.H.p p ,.F D @.j l } c ].V.C.<XOXC.V.B.N.N.N.n.n.v.c.n.L.Q.Q.(..XR.J.J.)./.XXzX",
"vX-X/.E.R.W.Q.R.B.n.n.m.m.V.L.P.L.S.C.B.8 6 u ] t f k t 8.j &.f s j j 2 = = > 2 7 M.V.S.C.N.B.N.n.n.n.b.n.L.$X(.Q.R.U.J.E.@X-XvX",
"vXzXoXR.R.Q.!.B.c.n.n.m.C.C.V.L.Z.8 < * & & e f f &.&.p 8.s.,.' [ f f ; * * & % % * > 7 B.S.C.C.N.m.M.m.n.n.U.(.Q.R.Y.J.T.oXzXvX",
"vXvXjX.XW.Q.L.v.n.n.m.B.C.C.M.7 1 * % * & & * : q @.@.g @.` ..' f q 0 2 : > * * * % > 9 9 A.Z.C.V.N.n.n.v.v.C.(.(.Q.R.U..XjXvXvX",
"vXvXvXdX.XQ.S.v.n.n.B.B.N.6 & % & & & * * : > , e g t f g f 8.' 8 r q 3 , , > : = = 2 0 [.q 9 9 M.V.N.N.n.v.n.!.(.Q.W. XdXzXvXvX",
"vXvXvXvXjX Xm.n.m.N.N.b.1 % % % * * * : , , 5 6 r z H.z z x ' t 7 7 q 7 5 5 3 , : < 9 0 |.H.9 = : c.V.N.m.v.v.U.$X$X$XjXvXvXvXvX",
"vXvXvXvXvXhX|.F.m.N.v.: % % & & * : : , 5 6 6 5 < 1 - q y f k h ; w t 2 6 3 3 3 3 < 2 9 0 9 2 = % & c.V.N.m.v.L.$X+XzXvXvXvXvXvX",
"vXvXvXvXvXvXzXkX XZ.> & % & & * : , , 5 , * - o o . . # s [ ` # . . X o o - , 3 4 3 < 2 2 2 = * % % = b.M.n.Z.+XjXvXvXvXvXvXvXvX",
"vXvXvXvXvXvXvXvXxXkXy w % % & : , 5 5 > o . . . . . . O @ t [ # . . . . . . . - < 5 3 3 : : * & % % % = F.}.kXzXvXvXvXvXvXvXvXvX",
"vXvXvXvXvXvXvXvXvXvXxX2X|.r 9 > 3 3 = o . . X . . . . O $ $ @   X . . . . . . . o > 4 3 , : : * & 2 q |.hXvXvXvXvXvXvXvXvXvXvXvX",
"vXvXvXvXvXvXvXvXvXvXvXvXxXfX2X|.].q - . . . X X . . . . O     + . . . . . . . . X - 4 4 , 2 0 u |.1XxXcXvXvXvXvXvXvXvXvXvXvXvXvX",
"vXvXvXvXvXvXvXvXvXvXvXvXvXvXvXvXvXfX5Xa y e ; O X X . . . X X . . . . . . . X O O ; [.[.|.,XlXvXvXvXvXvXvXvXvXvXvXvXvXvXvXvXvXvX",
"vXvXvXvXvXvXvXvXvXvXvXvXvXvXvXvXvXvXvXvXxXxX3X2X5X5X|.a a y y y y y y a a a 5X5X2XzXhXvXvXvXvXvXvXvXvXvXvXvXvXvXvXvXvXvXvXvXvXvX",
"vXvXvXvXvXvXvXvXvXvXvXvXvXvXvXvXvXvXvXvXvXvXvXvXvXvXvXvXvXvXvXvXbXvXvXvXvXvXzXxXvXvXvXvXvXvXvXvXvXvXvXvXvXvXvXvXvXvXvXvXvXvXvXvX",
"vXvXvXvXvXvXvXvXvXvXvXvXvXvXvXvXvXvXvXvXvXvXvXvXvXvXvXvXvXvXvXvXvXvXvXvXvXvXvXvXvXvXvXvXvXvXvXvXvXvXvXvXvXvXvXvXvXvXvXvXvXvXvXvX",
"vXvXvXvXvXvXvXvXvXvXvXvXvXvXvXvXvXvXvXvXvXvXvXvXvXvXvXvXvXvXvXvXvXvXvXvXvXvXvXvXvXvXvXvXvXvXvXvXvXvXvXvXvXvXvXvXvXvXvXvXvXvXvXvX",
"vXvXvXvXvXvXvXvXvXvXvXvXvXvXvXvXvXvXvXvXvXvXvXvXvXvXvXvXvXvXvXvXvXvXvXvXvXvXvXvXvXvXvXvXvXvXvXvXvXvXvXvXvXvXvXvXvXvXvXvXvXvXvXvX",
"vXvXvXvXvXvXvXvXvXvXvXvXvXvXvXvXvXvXvXvXvXvXvXvXvXvXvXvXvXvXvXvXvXvXvXvXvXvXvXvXvXvXvXvXvXvXvXvXvXvXvXvXvXvXvXvXvXvXvXvXvXvXvXvX",
"vXvXvXvXvXvXvXvXvXvXvXvXvXvXvXvXvXvXvXvXvXvXvXvXvXvXvXvXvXvXvXvXvXvXvXvXvXvXvXvXvXvXvXvXvXvXvXvXvXvXvXvXvXvXvXvXvXvXvXvXvXvXvXvX"
};
