/* XPM */
static char *_5_desapearB1721962743[] = {
/* columns rows colors chars-per-pixel */
"64 64 242 2 ",
"   c #060508",
".  c #0F0B11",
"X  c #22190D",
"o  c #382911",
"O  c #03022A",
"+  c #080727",
"@  c #070535",
"#  c #191833",
"$  c #4A3613",
"%  c #695237",
"&  c #58431A",
"*  c #060456",
"=  c #070459",
"-  c #09065C",
";  c #0D095B",
":  c #090757",
">  c #0F0C4F",
",  c #292656",
"<  c #0A0663",
"1  c #0D0964",
"2  c #0D096B",
"3  c #110B6B",
"4  c #120C64",
"5  c #191468",
"6  c #0E0973",
"7  c #0F0A78",
"8  c #120C74",
"9  c #140C77",
"0  c #1D1375",
"q  c #221D68",
"w  c #24187A",
"e  c #2D2676",
"r  c #362B78",
"t  c #36316F",
"y  c #4A3B74",
"u  c #403F52",
"i  c #5C5B69",
"p  c #514B6F",
"a  c #78747C",
"s  c #706775",
"d  c #6B5556",
"f  c #84642A",
"g  c #A47B34",
"h  c #996B19",
"j  c #9B7556",
"k  c #966F49",
"l  c #A67A54",
"z  c #856969",
"x  c #85677B",
"c  c #92776C",
"v  c #AA7C78",
"b  c #A97D67",
"n  c #BC882E",
"m  c #D18B1C",
"M  c #CA8A1E",
"N  c #EE9F18",
"B  c #F5A317",
"V  c #C88B28",
"C  c #CB912B",
"Z  c #D2942B",
"A  c #D8982A",
"S  c #C78F37",
"D  c #CB9432",
"F  c #CB963A",
"G  c #DA9D32",
"H  c #D49B38",
"J  c #E39C26",
"K  c #E09F30",
"L  c #DBA33B",
"P  c #D7A037",
"I  c #E6A229",
"U  c #E4A73A",
"Y  c #EFB137",
"T  c #B98B46",
"R  c #B38957",
"E  c #B38B57",
"W  c #A68468",
"Q  c #BC9A6A",
"!  c #A78B77",
"~  c #B99978",
"^  c #B28D73",
"/  c #BCA27D",
"(  c #BDA174",
")  c #BDA26E",
"_  c #978979",
"`  c #CA9848",
"'  c #D39D46",
"]  c #C99857",
"[  c #D19959",
"{  c #DBA342",
"}  c #D7A549",
"|  c #CDA25C",
" . c #DAAB54",
".. c #D8A858",
"X. c #DFB252",
"o. c #E4AC48",
"O. c #EAB44A",
"+. c #E3AF58",
"@. c #E8B758",
"#. c #F2BA4C",
"$. c #C79A67",
"%. c #C49D76",
"&. c #C18C69",
"*. c #CCA465",
"=. c #C7A46B",
"-. c #D5AB6B",
";. c #D7A965",
":. c #DCB669",
">. c #C3A375",
",. c #CCAB7C",
"<. c #C9A776",
"1. c #D3AA75",
"2. c #D9B576",
"3. c #E5BA68",
"4. c #E2B874",
"5. c #F7C657",
"6. c #EBC76E",
"7. c #210F86",
"8. c #220F88",
"9. c #231186",
"0. c #25118A",
"q. c #29158E",
"w. c #2C188B",
"e. c #2C1692",
"r. c #2E1993",
"t. c #321B96",
"y. c #341D9A",
"u. c #301E8F",
"i. c #36268A",
"p. c #3B239D",
"a. c #362498",
"s. c #372C93",
"d. c #3E28A1",
"f. c #4A3599",
"g. c #4E388C",
"h. c #4C27AF",
"j. c #4D2AAF",
"k. c #4529A6",
"l. c #4D35AC",
"z. c #5936AA",
"x. c #4E2AB0",
"c. c #522DB2",
"v. c #5E29B2",
"b. c #5432B5",
"n. c #5B32B6",
"m. c #5936B9",
"M. c #5B3ABA",
"N. c #5737B7",
"B. c #622CB4",
"V. c #6631B5",
"C. c #6C3CB3",
"Z. c #6A35B9",
"A. c #623CBC",
"S. c #6D3ABC",
"D. c #6736B6",
"F. c #713DBF",
"G. c #723EB7",
"H. c #5A4795",
"J. c #534A89",
"K. c #6E5890",
"L. c #736E8B",
"P. c #5B47B1",
"I. c #7A57A7",
"U. c #6844B5",
"Y. c #7549B8",
"T. c #7756B3",
"R. c #6E4EAD",
"E. c #7D63B1",
"W. c #723FC0",
"Q. c #7441C1",
"!. c #7B48C4",
"~. c #6B4CC1",
"^. c #885C9E",
"/. c #997688",
"(. c #88649B",
"). c #997598",
"_. c #8F6D8E",
"`. c #A87797",
"'. c #895BAA",
"]. c #8459B6",
"[. c #8966A9",
"{. c #8C79AD",
"}. c #9776AB",
"|. c #8668B2",
" X c #8876B3",
".X c #9668AC",
"XX c #A67CAC",
"oX c #8251C7",
"OX c #9265C8",
"+X c #96939B",
"@X c #8D8A96",
"#X c #AB8A85",
"$X c #B59A84",
"%X c #AC9B97",
"&X c #B88A89",
"*X c #BBA58A",
"=X c #B9A487",
"-X c #ADA49C",
";X c #ADA195",
":X c #B4A394",
">X c #B9A692",
",X c #B2A59B",
"<X c #B5A99C",
"1X c #BAAC9A",
"2X c #BCA995",
"3X c #BFB49C",
"4X c #9389AE",
"5X c #9B95AD",
"6X c #9C99A7",
"7X c #9A92B1",
"8X c #8D8BA4",
"9X c #A19DAC",
"0X c #A29BA7",
"qX c #AE8CA7",
"wX c #ABA5A4",
"eX c #ADA8A6",
"rX c #A7A6AB",
"tX c #A8A6A9",
"yX c #ACAAAA",
"uX c #A4A3A7",
"iX c #B3ABA3",
"pX c #B5AEA9",
"aX c #B5B4AA",
"sX c #BAB9B0",
"dX c #C19685",
"fX c #C4A885",
"gX c #D6B886",
"hX c #C2AF94",
"jX c #C8B394",
"kX c #D1B792",
"lX c #C3BCA7",
"zX c #E1BE82",
"xX c #D4CA98",
"cX c #E5CF8E",
"vX c #C6C1A7",
"bX c #D3D0B2",
"nX c #E8E7AE",
"mX c #EAE0A0",
"MX c #B68CC0",
"NX c #F9F9CB",
"BX c #EEEDCC",
"VX c #D9D9C0",
/* pixels */
"rXrXrXrXrXrXrXrXrXrXrXrXrXrXrXrXrXrXrXrXrXrXrXrXrXrXrXrXrXrXrXrXrXrXrXrXrXrXrXrXrXrXrXrXrXrXrXrXrXrXrXrXrXrXrXrXrXrXrXrXrXrXrXrX",
"rXrXrXrXrXrXrXrXrXrXrXrXrXrXrXrXrXrXrXrXrXrXrXrXrXrXrXrXrXrXrXrXrXrXrXrXrXrXrXrXrXrXrXrXrXrXrXrXrXrXrXrXrXrXrXrXrXrXrXrXrXrXrXrX",
"rXrXrXrXrXrXrXrXrXrXrXrXrXrXrXrXrXrXrXrXrXrXrXrXrXrXrXrXrXrXrXrXrXrXrXrXrXrXrXrXrXrXtXrXrXrXrXrXrXrXrXrXrXrXrXrXrXrXrXrXrXrXrXrX",
"rXrXrXrXrXrXrXrXrXrXrXrXrXrXrXrXrXrXrXrXrXrXrXrXrXrXrXrXrXrXrXrXrXrXrXrXrXrXrXrXrXrXrXrXrXrXrXrXrXrXrXrXrXrXrXrXrXrXrXrXrXrXyXrX",
"rXrXrXrXrXrXrXrXrXrXrXrXrXrXrXrXrXrXrXrXrXrXrXrXrXrXrXrXrXrXyXyXrXrXrXrXrXrXrXrXrXrXrXrXrXrXrXrXrXrXrXrXrXrXrXrXrXrXrXrXrXrXrXrX",
"rXrXrXrXrXrXrXrXrXrXrXrXrXrXrXrXrXrXrXrXrXrXrXrXrXrXrXrXrXrXrXrXrXrXrXrXrXrXrXrXrXrXrXrXrXrXrXrXrXrXrXrXrXrXrXrXrXrXrXrXrXrXrXrX",
"rXrXrXrXrXrXrXrXrXrXrXrXrXrXrXrXrXrXrXrXrXrXrXrXrXrXrXrXrXrXrXrXrXrXrXrXrXrXrXrXrXrXrXrXrXrXtXrXrXrXrXrXrXrXrXrXrXrXrXrXrXrXrXyX",
"rXrXrXrXrXrXrXrXrXrXrXrXrXrXrXrXrXrXrXrXrXrXrXrXrXrXrXrXrXrXrXrXrXrXrXrXrXrXrXrXrXrXrXrXrXrXrXrXrXrXrXrXrXrXrXrXrXrXrXrXrXrXrXrX",
"rXtXtXtXrXrXrXrXrXrXrXrXrXrXrXrXrXrXtX%.hXrXrXrXiXxX@.X.X.P n } fXtXtXrXwX%XrXrXrXrX;XS ' hX0XrXrXrXrX=...-XrXrXrXrX*X=.rXrXrXrX",
"rXtXyXvXaXrXrXrXrXrXrXrXrXrXrXrXrXtXwX[ ,.rXrXrXrX3XO.Y Y I D L } %.wXtX:X$.$XwXrXwX=XC [ tXrXrXrXrXeX=.<.yXrXrXrXrXwXdXwXrXrXrX",
"rXrXvXnXmXrXrXrXrXrXrXrXrXrXrXrXtXiXrXfX:XtXtXrXrX*XL B B A D 3.o.S >X0X=.A =.rXtXeX2.A Q rXrXrXrXrXrXyXrXrXrXrXrXyXtXwXwXrXrXrX",
"rXrXsXnXvXrXrXrXyXyXrXrXrX-XrXrXtXhXrXwX0XyXrXrXwXwX/ K B Y o.3.[ Z 1.eX,Xn Q 3X2X2.5.U *.yXrXrXrXrXrXrXrXrXrXrXrXiXeXrXrXrXrXrX",
"rXrXtXaXyXrXrXrXrXrXrXrX;X$XrXrXrXtXrXrXrXrXrXrXrXrXwX' J #.5.3.` H *XeX:X=X=X4.X.O.5.o. .iXrXrXrX-XyXrXrXrXrXrXtXeX*X=XwXrXrXrX",
"rXrXrXrXrXrXrXrXrXrXwX-XrXtXrXrXtXwXwXrXtX>.-XuXwXrX*XH Y 5.5.5.} -.:XtX*X( ,.:.X.,.gX3. .<XrXrXyXjXtXtXrXrXrXrXrXrX-X*X2XrXrXrX",
"rXrXrXrXtXtXrXrXrXwX( <.tXrXrXrXrXrXtXtX>X} =.=.Q :X<.=X' O.5.5.o.*XfX,.@.o.*X/ =.wXyXxX>XtXrXrX1X>.;X-XrXrXrXrXrX;X;XrXwXrXrXrX",
"rXrXrXeXwXrXrXrXrX/ } 3.eXrXrXrXrXrXtXhX' ` =.} H ` ) ) H J #.@. .=X-.) X.#.3. ./ tXwXvXyXrXrXrX1X| T :XrXrXrXuXeX$XwXrXrXrXrXrX",
"rXrXrX<X,.eXuXrXrXfX;.6.<XwXrXrXrXrXrX,XF m ~ Q C F ;X` P L I o.P ' %.=XdXgX6.-.rXrXrXVXbXyXyXyXrX/ n ~ tXrXrXrXtX,XrXrXrXrXrXrX",
"rXrXrXtX<XeXrXrXrXyXeX3XiXrXrXrXrXrXrX:X+.H <.] T E / ` G o.O.I L Z / fXtXwXjXiXrXrXrXsXBXVXVXpXtX/ V H :XrXrXrXrXrXrXrXrXrXrXrX",
"rXrXrXrXrXrXrXrXrXrXrXrXrXrXrXrXrXrXrXjX4.3.{ ` ;X:X` P I U Y X.L Z D =.wX:X>X0XtXeXbXBXNXNXmXrXuXfX` } ,XtXrXrXrXrXrXrXrXrXrXrX",
"rXrXrXrXrXrXrXrXrXrXrXrXrXrXrXrXrXrXrX3X=.P M $.tX<XU K L L m } { C m L fX[ fXtXhXjXlXBXNXNXnXpXrXrX$X2.yXrXrXrXrXrXrXrXrXrXrXrX",
"rXrXrXrXrXrXrXrXrXrXrXrXrXrXrXrXrXrXtXkX2.Z C ` -XfXI I @.L n D H D V H K { wXtX9XrXrXsXBXbXmXxXrXrXiX$.wXuXrXrXrXrXrXrXrXrXrXrX",
"rXrXrXrXrXrXrXrXrXrXrXrXrXrXrXrXrX1XfX4.;.m G L ( -.Y I K K G =./ G G P K =.tXtXtXtXrXpXbXyXgXgXeXrXtX~ wXrXtXwXyXrXrXrXrXrXrXrX",
"rXrXrXrXyX;XyXtXrXrXrXrXrXrXrXrXrX3XfX<XfXL A ) / F { L G G <.yXwX$.| P J <.pXrXrXrXrXhXiXwX-.>XrXrXrXtXuXrXrX*X1.wXrXrXrXrXrXrX",
"rXrXrXtXtX<XeXuXrXrXrXrXrXrXrXrXrXtXyXyX,.O.K ) | D | } L P ( -XwX=X-X| $.;.6.hXrXrX9XgXiXwX-.<XrXrXrXrXrXrX,X..fXrXrXrXrXrXrXrX",
"rXrXrXrXrXrXrXrXrXrXrXrXrXrXrXrXrXrXrXrX,.o.Z Z Z D ~  .o.I C 1.1X=XwX%.,X$X3.2.tXtXtXiXtXwX>XtXrXyXrXrXtXyXhXo.2XtXrXrXrXrXrXrX",
"rXrXrXrXrX,XtXrXrXrXrXrXrXrXrXrXrXrXrXrX:X` F G G Z } @.@.5.5.P 1.*X<XjX2X>XgX:X<X2XrXrXrXrXtXtXrXeXaXrXtX0X:XO.3.pXrXuXrXrXrXrX",
"rXrXrXtXwX=X,XrXrXrXrXrXrXrXrXrXrXrXrXrXtX] C A A L #.#.X.o.U I +.-.kXiX=.Q -XrX*X*.,XrXrXrXrX,X-XfXxXrXrXiXfX#.@.gX1XtXrXrXrXrX",
"rXrXrX-X>...*XwXrXyXrXrXrXrXrXrXtX:XrXuX1X' D *.$.H o.#.H D m U J J O.2.{ | uXrXtX-XwXwXrXrXrXwXfX:.kXrXtX<XfXo.fX1XgX,XrXrXrXrX",
"rXrXrXtX=.P | =XwXrXtXwXtXrXrXrXuX-X0XjX4.o.' %X0X~ Z U ` Q ..@.H A 3.hXQ $.qX6X0X0XwXrXrXrXrXrX,X:.3XwXrXrXtXhXeXrXeXrXrXrXrXrX",
"rXrXtXtX) ' ( uX-X-X<X-.,XrXrXuXrXiXcX#.Y 6.;.^.Y.v Z h Z ` ..H ~ >.+.>X%XG.D.D.C.Y.|. X4X5X9XrXrX<XtXrXrXrXrXtXtXrXrXrXrXrXrXrX",
"rXrXrXyX:X>X=XrXuXuX=X*.wXuX5X4XE.[.;.+.O.@.:.^.^.] V M K o.+. .` #X[ ` %.C.n.B.B.C.T.S.U.C.R.|.4XrXaXaXrXrXrXrXrXrXrXrXrXrXrXrX",
"rXrXrXrXrXrXwXrXrXrXrX0X4XT.C.B.n.V.^.'.^ -.).(.&X^ { Z D H G ` *.'.v C #XG.D.V.].`.1..X!.S.V.v.n.T.xXmXpXrXrXrXrXrXrXrXrXrXrXrX",
"rXrXrXrXrXrXrXrXuX5X|.G.B.B.B.B.B.B.B.V.G.'.Z.Z.T.}.+.Z n { G ' ..`.dX` '.F.].].(.+.3.qXOXW.B.B.B..XmXmX X|.5XuXrXrXrXrXrXrXrXrX",
"rXrXrXrXrXrXrX5X|.V.B.v.B.B.B.Z.Z.Z.Z.S.G.].].F.|.kX5. .b *.V  .+.`..X%..X.XkX1.&XXXXXOXoX!.W.W.W.G.pX].B.B.C. X5XrXrXrXrXrXrXrX",
"rXrXrXrXrXuX XC.v.v.B.B.B.Z.].&X.X].F.].}.`.).W.oXzX5.%.'.$.m X.$.[.'.dXXX[ 6.kX].oX!.!.oX!.!.W.F.Z.Y.V.B.B.B.v.U.{.rXrXrXrXrXrX",
"rXrXrXrX5XT.B.v.B.B.B.Z.Z.'.fX#.4.].F.XX;.[ [.U.(.+.X.#XU.[ A L v z.z.z.z.l ] Y.c.m.A.~.W.W.W.Q.W.F.F.S.Z.Z.B.B.B.B.E.6XrXrXrXrX",
"rXrXrX5XY.v.v.B.B.V.F.S.Y.qX:.@.4.`.^.-.X.O.gX[..XkX>XfX).<.L o./.v.R.I.^.T &.T.l.h.h.h.c.c.n.S.W.W.W.W.W.S.Z.V.V.B.B.R.5XrXrXrX",
"rXrX7XR.v.B.B.V.V.S.F.W.Q.!.T.).'.R.&.I L O.2.T.A./.*.@.4.=X| :.).R.^ gX#X_.(.hX(.b.b.j.h.x.h.h.c.B.Z.W.W.W.S.Z.V.V.V.B.R.5XrXrX",
"rX6XT.v.B.B.B.Z.Z.W.W.D.b.x.x.x.c.b.`.' $.P <.'.U.{.1. ...E F xX;.[ G -.I.M.n.I.I.N.m.m.x.x.x.h.c.h.h.n.V.W.W.W.W.V.V.B.n.T.rXrX",
"rX{.B.B.B.V.Z.W.W.S.c.x.x.x.c.c.b.b.I.$.<. .^ _.^.%. .F ' ~ =X/ T /.#X#XH.k.x.c.m.P.~.P.b.b.b.x.x.h.h.h.h.c.Z.W.W.W.S.V.B.V.{.rX",
"9XR.B.B.V.V.F.S.n.x.x.c.c.b.b.m.b.b.C.~ ..#X<.S } *.n n z W =.` T p q.w.7.0.i.q.r.d.l.N.m.m.b.b.c.b.c.c.h.h.h.n.W.W.F.Z.B.B.T.9X",
"7XD.B.V.S.S.Z.c.x.x.c.b.b.m.b.k.y.q.y R s i.x l L.J.j k y x -.*.} v w.7.0.J._.0 8.0.w.w.y.k.b.b.m.b.c.c.x.c.h.j.x.Z.F.S.Z.B.V.5X",
"4XV.D.F.S.S.c.x.c.b.n.m.b.d.e.0.9.g.k ] g.r.K.W H.H.E ` s b *./ R g.r.q.q.J.a 8.0.0.9.8.8.8.q.p.b.b.N.b.b.c.N.b.c.n.S.F.Z.V.V.5X",
"4XB.S.F.S.c.x.c.m.M.b.k.e.8.8.0.0.i.l ` g.y.s Q +X_.j c /.[ ^ x b f.y.r.r.r.e.q.q.0.0.0.8.8.8.8.q.d.b.m.b.N.M.~.S.b.b.S.S.D.V.4X",
"7XD.V.W.n.x.b.b.A.b.t.9.8.0.w.w.w.r.K.x g.y.f./.@XH.H.R.f.W W K.j H.y.y.y.y.t.f.t.r.e.0.e.8.8.8.8.7.e.j.M.M.U.~.~.N.c.n.F.Z.C.7X",
"5XU.Z.V.c.b.M.A.c.q.8.9.0.w.t.a.p.p.y.a.y.p.p.d.s.i.x ~ y E j e R W r 9.e.y.K.$Xf.y.y.r.e.q.q.8.8.8.7.0.k.M.M.A.U.n.h.h.S.Z.Y.9X",
"rX XW.n.c.m.M.N.r.0.0.q.r.t.p.l.k.d.a.e.9.5 5 4 t t z a d R n d l d > : = 1 z c w q.y.a.y.y.e.e.q.q.0.9.0.k.~.A.M.b.x.h.n.W. XrX",
"rX9XT.b.b.m.m.r.8.8.q.w.t.t.p.p.t.w 1 - * : : q _ @Xi , l ' S T z q ; : = = > : = - 1 0 r.y.a.y.e.q.w.0.8.q.x.A.M.b.c.h.c.T.uXrX",
"rXrX7XU.m.M.d.0.0.0.e.r.y.y.w.0 1 ; : - * = - 5 s p ; p *.S ` j e < < < - 4 < : ; ; ; q q i.u.a.r.e.q.8.8.8.y.M.M.M.b.d.~.7XrXrX",
"rXrXrX4XU.P.y.0.0.q.e.r.e.8 : = - = - - - < < 2 5 4 5 z _ fX3X! e 8 8 2 2 2 1 < - ; 5 e J.t q 5 q.y.e.q.0.8.0.P.A.M.N.P.4X9XrXrX",
"rXrXrXrX7XP.q.0.q.e.e.9.1 * = = = - - < < 2 8 9 8 y e w y ~ ) F p q 7 7 8 8 6 2 1 1 5 e K.J.q ; - 9.r.r.0.0.8.P.~.~.~.7XrXrXrXrX",
"rXrXrXrXrX5XL.s.q.e.8.< * * = = - < < 2 7 9 9 9 q j ^ k % f f h % , 1 2 8 7 6 2 6 3 7 q e e 5 ; : - 7.r.e.0.8.d.~.E.9XrXrXrXrXrX",
"rXrXrXrXrXrXrX8XH.u.1 = * = = = < 2 2 8 2 - > @ @ % g % $ $ & $ $ # + O @ * 1 6 7 6 5 5 5 5 - : * * : 9.e.0.u.T.7XrXrXrXrXrXrXrX",
"rXrXrXrXrXrXrXrXrX8Xi , : * = < 2 8 8 1 @ O O O O + o $ & o $ X     + O O O O > 3 7 6 6 1 < - ; * * * 1 s.K.8XrXrXrXrXrXrXrXrXrX",
"rXrXrXrXrXrXrXrXrXrXuX+XL.t 5 4 2 6 - @ O O + + O O . . $ o $ X     O O O O O O @ 1 7 6 2 < - ; : 5 t L.8XrXrXrXrXrXrXrXrXrXrXrX",
"rXrXrXrXrXrXrXrXrXrXrXrXrX9X+XL.J.t > O O O + + O O O +   X $     . + O O O O O O > 7 7 2 5 e J.L.8X-XuXrXrXrXrXrXrXrXrXrXrXrXrX",
"rXrXrXrXrXrXrXrXrXrXrXrXrXrXrXrXrX6X@Xa i u , # # @ + O + + + + O O O O O O + # # , J.J.L.8X6XrXrXrXrXrXrXrXrXrXrXrXrXrXrXrXrXrX",
"rXrXrXrXrXrXrXrXrXrXrXrXrXrXrXrXrXrXuXuXuX6X+X+X@Xa a a s i i i i i i s s L.L.@X6X9X9X9XrXrXrXrXrXrXrXrXrXrXrXrXrXrXrXrXrXrXrXrX",
"rXrXrXrXrXrXrXrXrXrXrXrXrXrXrXrXrXrXrXrXrXrXrXrXrXrXrXrXyXyXrXrXuXrXrXrXrXrXtXtXrXrXrXrXrXrXrXrXrXrXrXrXrXrXrXrXrXrXrXrXrXrXrXrX",
"rXrXrXrXrXrXrXrXrXrXrXrXrXrXrXrXrXrXrXrXrXrXrXrXrXrXrXrXrXrXrXrXrXrXrXrXrXrXuXtXrXrXrXrXrXrXrXrXrXrXrXrXrXrXrXrXrXrXrXrXrXrXrXrX",
"rXrXrXrXrXrXrXrXrXrXrXrXrXrXrXrXrXrXrXrXrXrXrXrXrXrXrXrXrXrXrXrXrXrXrXrXrXrXrXrXrXrXrXrXrXrXrXrXrXrXrXrXrXrXrXrXrXrXrXrXrXrXrXrX",
"rXrXrXyXrXrXrXrXrXrXrXrXrXrXrXrXrXrXrXrXrXrXrXrXrXrXrXrXrXrXrXrXrXrXrXrXrXrXrXrXrXrXrXrXrXrXrXrXrXrXrXrXrXrXrXrXrXrXrXrXrXrXrXrX",
"rXrXrXrXrXrXrXrXrXrXrXrXrXrXrXrXrXrXrXrXrXrXrXrXrXrXrXrXrXrXrXrXrXrXrXrXrXrXrXrXrXrXrXrXrXrXrXrXrXrXrXrXrXrXrXrXrXrXrXrXrXrXrXrX",
"rXrXrXrXrXrXrXrXrXrXrXrXrXrXrXrXrXrXrXrXrXrXrXrXrXrXrXrXrXrXrXrXrXrXrXrXrXrXrXrXrXrXrXrXrXrXrXrXrXrXrXrXrXrXrXrXrXrXrXrXrXrXrXrX"
};
