/* XPM */
static char *_8_desapearB21721961510[] = {
/* columns rows colors chars-per-pixel */
"64 64 232 2 ",
"   c #2F2416",
".  c #02012A",
"X  c #090728",
"o  c #040232",
"O  c #070638",
"+  c #181736",
"@  c #1A142B",
"#  c #080610",
"$  c #4F3B15",
"%  c #5E4419",
"&  c #534134",
"*  c #735931",
"=  c #070448",
"-  c #060457",
";  c #070459",
":  c #09065C",
">  c #0E0A5D",
",  c #0A0757",
"<  c #161355",
"1  c #251D5D",
"2  c #282558",
"3  c #302A54",
"4  c #0A0662",
"5  c #0D0964",
"6  c #0D096B",
"7  c #120B65",
"8  c #110B6C",
"9  c #1B146D",
"0  c #181466",
"q  c #0E0972",
"w  c #0F0A78",
"e  c #120C74",
"r  c #120C79",
"t  c #190E72",
"y  c #1D1378",
"u  c #211D6A",
"i  c #221778",
"p  c #2C2775",
"a  c #342C75",
"s  c #352F6B",
"d  c #443E58",
"f  c #483774",
"g  c #433364",
"h  c #574D46",
"j  c #79625F",
"k  c #5D5C6A",
"l  c #595965",
"z  c #524B73",
"x  c #644A7B",
"c  c #765A7D",
"v  c #705964",
"b  c #6A6A74",
"n  c #75747D",
"m  c #776667",
"M  c #6D5356",
"N  c #8B6D59",
"B  c #967558",
"V  c #8F714B",
"C  c #A67D5B",
"Z  c #A1794B",
"A  c #825E79",
"S  c #866867",
"D  c #97716C",
"F  c #8E6F71",
"G  c #A47B6B",
"H  c #A97A72",
"J  c #CD963E",
"K  c #D39B3B",
"L  c #D39938",
"P  c #CB9333",
"I  c #DDA337",
"U  c #EAA72E",
"Y  c #E6A83A",
"T  c #9D815C",
"R  c #A88658",
"E  c #BE9557",
"W  c #B48A4E",
"Q  c #A88269",
"!  c #BB8D66",
"~  c #BB9A69",
"^  c #A28777",
"/  c #B58E7A",
"(  c #BD9576",
")  c #AC9078",
"_  c #BFA06F",
"`  c #C28E4B",
"'  c #CB994B",
"]  c #D29B46",
"[  c #C28B56",
"{  c #C59856",
"}  c #D7A448",
"|  c #D3A559",
" . c #E2AA43",
".. c #ECB850",
"X. c #CA9C6B",
"o. c #C49C78",
"O. c #C28662",
"+. c #D4AB67",
"@. c #C7A876",
"#. c #CFAA6A",
"$. c #210F86",
"%. c #220F88",
"&. c #231286",
"*. c #25128A",
"=. c #29158E",
"-. c #2D198D",
";. c #2A1988",
":. c #321E8E",
">. c #2C1692",
",. c #2E1992",
"<. c #321B96",
"1. c #341D9A",
"2. c #31218D",
"3. c #38288A",
"4. c #3B239D",
"5. c #362995",
"6. c #362D94",
"7. c #3D24A1",
"8. c #432E88",
"9. c #553E87",
"0. c #49358C",
"q. c #442AA5",
"w. c #4C27AF",
"e. c #4D2AAF",
"r. c #4529A6",
"t. c #4D35A9",
"y. c #5836AB",
"u. c #4E2AB1",
"i. c #522DB2",
"p. c #5E29B2",
"a. c #5432B5",
"s. c #5B32B5",
"d. c #573AB5",
"f. c #5735B8",
"g. c #5936B9",
"h. c #5C3ABA",
"j. c #5C3AB3",
"k. c #522FAB",
"l. c #622CB4",
"z. c #6531B5",
"x. c #663AB3",
"c. c #6A3CB4",
"v. c #6534B9",
"b. c #6A35BA",
"n. c #623DBC",
"m. c #6D3ABC",
"M. c #6A35B7",
"N. c #713DBF",
"B. c #494585",
"V. c #5E4483",
"C. c #5A4689",
"Z. c #4E439C",
"A. c #5B4697",
"S. c #5C5795",
"D. c #685285",
"F. c #785A88",
"G. c #7B579E",
"H. c #635195",
"J. c #78778A",
"K. c #6D659C",
"L. c #716C8C",
"P. c #5D42B8",
"I. c #4F56A8",
"U. c #6745AA",
"Y. c #734BA6",
"T. c #6B55A9",
"R. c #7657A9",
"E. c #6C43B1",
"W. c #6342BB",
"Q. c #6948B5",
"!. c #714DB3",
"~. c #7B4BBE",
"^. c #7544BF",
"/. c #6955B6",
"(. c #7351B1",
"). c #7B57B6",
"_. c #7D67A5",
"`. c #7C61B1",
"'. c #617AB8",
"]. c #723EC0",
"[. c #6E3FC0",
"{. c #6443C1",
"}. c #7442C2",
"|. c #7945C3",
" X c #774AC2",
".X c #7552C1",
"XX c #6C50C2",
"oX c #7E66C6",
"OX c #8C6A88",
"+X c #986A8F",
"@X c #957696",
"#X c #8F7690",
"$X c #A77892",
"%X c #8654AD",
"&X c #865ABD",
"*X c #8566A8",
"=X c #956CAE",
"-X c #8B7CAE",
";X c #8672AF",
":X c #816BB0",
">X c #8668BD",
",X c #8876B3",
"<X c #9278B2",
"1X c #8354C5",
"2X c #8859C7",
"3X c #804FC7",
"4X c #8D69CA",
"5X c #89888F",
"6X c #8B8A99",
"7X c #938F9D",
"8X c #93929A",
"9X c #B18E87",
"0X c #8F81AF",
"qX c #8D8BA4",
"wX c #9185AE",
"eX c #948BAE",
"rX c #988FAE",
"tX c #9B9AA3",
"yX c #9B94AD",
"uX c #9E9AAD",
"iX c #9393A7",
"pX c #9E89B7",
"aX c #9A92B1",
"sX c #A19DAC",
"dX c #A09FA6",
"fX c #A189B9",
"gX c #A7A6AB",
"hX c #A1A0A6",
"jX c #AFAAB1",
"kX c #D6CDB0",
"lX c #A780D5",
"zX c #D1CBC3",
/* pixels */
"gXgXgXgXgXgXgXgXgXgXgXgXgXgXgXgXgXgXgXgXgXgXgXgXgXgXgXgXgXgXgXgXgXgXgXgXgXgXgXgXgXgXgXgXgXgXgXgXgXgXgXgXgXgXgXgXgXgXgXgXgXgXgXgX",
"gXgXgXgXgXgXgXgXgXgXgXgXgXgXgXgXgXgXgXgXgXgXgXgXgXgXgXgXgXgXgXgXgXgXgXgXgXgXgXgXgXgXgXgXgXgXgXgXgXgXgXgXgXgXgXgXgXgXgXgXgXgXgXgX",
"gXgXgXgXgXgXgXgXgXgXgXgXgXgXgXgXgXgXgXgXgXgXgXgXgXgXgXgXgXgXgXgXgXgXgXgXgXgXgXgXgXgXgXgXgXgXgXgXgXgXgXgXgXgXgXgXgXgXgXgXgXgXgXgX",
"gXgXgXgXgXgXgXgXgXgXgXgXgXgXgXgXgXgXgXgXgXgXgXgXgXgXgXgXgXgXgXgXgXgXgXgXgXgXgXgXgXgXgXgXgXgXgXgXgXgXgXgXgXgXgXgXgXgXgXgXgXgXgXgX",
"gXgXgXgXgXgXgXgXgXgXgXgXgXgXgXgXgXgXgXgXgXgXgXgXgXgXgXgXgXgXgXgXgXgXgXgXgXgXgXgXgXgXgXgXgXgXgXgXgXgXgXgXgXgXgXgXgXgXgXgXgXgXgXgX",
"gXgXgXgXgXgXgXgXgXgXgXgXgXgXgXgXgXgXgXgXgXgXgXjXgXgXgXgXgXgXgXgXgXgXgXgXgXgXgXgXgXgXgXgXgXgXgXgXgXgXgXgXgXgXgXgXgXgXgXgXgXgXgXgX",
"gXgXgXgXgXgXgXgXgXgXgXgXgXgXgXgXgXgXgXgXgXgXgXgXgXgXgXgXgXgXgXgXgXgXgXgXgXgXgXgXgXgXgXgXgXgXgXgXgXgXgXgXgXgXgXgXgXgXgXgXgXgXgXgX",
"gXgXgXgXgXgXgXgXgXgXgXgXgXgXgXgXgXgXgXgXgXgXgXgXgXgXgXgXgXgXgXgXgXgXgXgXgXgXgXgXgXgXgXgXgXgXgXgXgXgXgXgXgXgXgXgXgXgXgXgXgXgXgXgX",
"gXjXgXgXgXgXgXgXgXgXgXgXgXgXgXgXgXgXgXgXgXgXgXgXgXgXgXgXgXgXgXgXgXgXgXgXgXgXgXgXgXgXgXgXgXgXgXgXgXgXgXgXgXgXgXgXgXgXjXgXgXgXgXgX",
"gXgXgXgXgXgXgXgXgXgXgXgXgXgXgXgXgXgXgXgXgXgXgXgXgXgXgXgXgXgXgXgXgXgXgXgXgXgXgXgXgXgXgXgXgXgXgXgXgXgXgXgXgXgXgXgXgXgXgXgXgXgXgXgX",
"gXgXgXgXgXgXgXgXgXgXgXgXgXgXgXgXgXgXgXgXgXgXgXgXgXgXgXgXgXgXgXgXgXgXgXgXgXgXgXgXgXgXgXjXgXgXgXgXgXgXgXgXgXgXgXgXgXgXgXgXgXgXgXgX",
"gXgXgXgXgXgXgXgXgXgXgXgXgXgXgXgXgXgXgXgXgXgXgXgXgXgXgXgXgXgXgXgXgXgXgXgXgXgXgXgXgXgXgXgXgXgXgXgXgXgXgXgXgXgXgXgXgXgXgXgXgXgXgXgX",
"gXgXgXgXgXgXgXgXgXgXgXgXgXgXgXgXgXgXgXgXgXgXgXgXgXgXgXgXgXgXgXgXgXgXgXgXgXgXgXgXgXgXgXgXgXgXgXgXgXjXgXgXgXgXgXgXgXgXgXgXgXgXgXgX",
"gXgXgXgXgXgXgXgXgXgXgXgXgXgXgXgXgXgXgXgXgXgXgXgXgXgXgXgXgXgXgXgXgXgXgXgXgXgXgXgXgXgXgXgXgXgXgXgXgXgXgXgXgXgXgXgXgXgXgXgXgXgXgXgX",
"gXgXgXgXgXgXgXgXgXgXgXgXgXgXgXgXgXgXgXgXgXgXgXgXgXgXgXgXgXgXgXgXgXgXgXgXgXgXgXgXgXgXgXgXgXgXgXgXgXgXgXgXgXgXgXgXgXgXgXgXgXgXgXgX",
"gXgXgXgXgXgXgXgXgXgXgXgXgXgXgXgXgXgXgXgXgXgXgXgXgXgXgXgXgXgXgXgXgXgXgXgXgXgXgXgXgXgXgXgXgXgXgXgXgXgXgXgXgXgXgXgXgXgXgXgXgXgXgXgX",
"gXgXgXgXgXgXgXgXgXgXgXgXgXgXgXgXgXgXgXgXgXgXgXgXgXgXgXgXgXgXgXgXgXgXgXgXgXgXgXgXgXgXgXgXgXgXgXgXgXgXgXgXgXgXgXgXgXgXgXgXgXgXgXgX",
"gXgXgXgXgXgXgXgXgXgXgXgXgXgXgXgXgXgXgXgXgXgXgXgXgXgXgXgXgXgXgXgXgXgXgXgXgXgXgXgXgXgXgXgXgXgXgXgXgXgXgXgXgXgXgXgXgXgXgXgXgXgXgXgX",
"gXgXgXgXgXgXgXgXgXgXgXgXgXgXgXgXgXgXgXgXgXgXgXgXgXgXgXgXgXgXgXgXgXgXgXgXgXgXgXgXgXgXgXgXgXgXgXgXgXgXgXgXgXgXgXgXgXgXgXgXgXgXgXgX",
"gXgXgXgXgXgXgXgXgXgXgXgXgXgXgXgXgXgXgXgXgXgXgXgXgXgXgXgXgXgXgXgXgXgXgXgXgXgXgXgXgXgXgXgXgXgXgXgXgXgXgXgXgXgXgXgXgXgXgXgXgXgXgXgX",
"gXgXgXgXgXgXgXgXgXgXgXgXgXgXgXgXgXgXgXgXgXgXgXgXgXgXgXgXgXgXgXgXgXgXgXgXgXgXgXgXgXgXgXgXgXgXgXgXgXgXgXgXgXgXgXgXgXgXgXgXgXgXgXgX",
"gXgXgXgXgXgXgXgXgXgXgXgXgXgXgXgXgXgXgXgXgXgXgXgXgXgXgXgXgXgXgXgXgXgXgXgXgXgXgXgXgXgXgXgXgXgXgXgXgXgXgXgXgXgXgXgXgXgXgXgXgXgXgXgX",
"gXgXgXgXgXgXgXgXgXgXgXgXgXgXgXgXgXgXgXgXgXgXgXgXgXgXgXgXgXgXgXgXgXgXgXgXgXgXgXgXgXgXgXgXgXgXgXgXgXgXgXgXgXgXgXgXgXgXgXgXgXgXgXgX",
"gXgXgXgXgXgXgXgXgXgXgXgXgXgXgXgXgXgXgXgXgXgXgXgXgXgXgXgXgXgXgXgXgXgXgXgXgXgXgXgXgXgXgXgXgXgXgXgXgXgXgXgXgXgXgXgXgXgXgXgXgXgXgXgX",
"gXgXgXgXgXgXgXgXgXgXgXgXgXgXgXgXgXgXgXgXgXgXgXgXgXgXgXgXgXgXgXgXgXgXgXgXgXgXgXgXgXgXgXgXgXgXgXgXgXgXgXgXgXgXgXgXgXgXgXgXgXgXgXgX",
"gXgXgXgXgXgXgXgXgXgXgXgXgXgXgXgXgXgXgXgXgXgXgXgXgXgXgXgXgXgXgXgXgXgXgXgXgXgXgXgXgXgXgXgXgXgXgXgXgXgXgXgXgXgXgXgXgXgXgXgXgXgXgXgX",
"gXgXgXgXgXgXgXgXgXgXgXgXgXgXgXgXgXgXgXgXgXgXgXgXgXgXgXgXgXgXgXgXgXgXgXgXgXgXgXgXgXgXgXgXgXgXgXgXgXgXgXgXgXgXgXgXgXgXgXgXgXgXgXgX",
"gXgXgXgXgXgXgXgXgXgXgXgXgXgXgXgXgXgXgXgXgXgXgXgXgXgXgXgXgXgXgXgXgXgXgXgXgXgXgXgXgXgXgXgXgXgXgXgXgXgXgXgXgXgXgXgXgXgXgXgXgXgXgXgX",
"gXgXgXgXgXgXgXgXgXgXgXgXgXgXgXgXgXgXgXgXgXgXdXsXsXrXeXwX0X0X-X-X-X-X0X<XeXrXyXyXsXgXgXgXgXgXgXgXgXgXgXgXgXgXgXgXgXgXgXgXgXgXgXgX",
"gXgXgXgXgXgXgXgXgXgXgXgXgXgXgXgXgXgXuXwX,XR.!.E.x.z.l.p.p.p.l.l.p.l.l.l.l.z.x.x.E.(.`.,XwXyXgXgXgXgXgXgXgXgXgXgXgXgXgXgXgXgXgXgX",
"gXgXgXgXgXgXgXgXgXgXgXgXgXgXuXqX:XE.x.p.p.l.p.l.l.l.l.z.l.l.l.l.l.z.l.z.l.l.l.l.l.z.M.m.m.E.(.:XwXuXgXgXgXgXgXgXgXgXgXgXgXgXgXgX",
"gXgXgXgXgXgXgXgXgXgXgXgX0X).x.l.p.l.l.l.l.l.l.l.l.M.m.m.E.m.m.m.m.b.b.m.b.M.z.z.M.N.~.1X~.M.l.p.z.E._.eXhXgXgXgXgXgXgXgXgXgXgXgX",
"gXgXgXgXgXgXgXgXgXyX:Xc.l.l.l.l.l.l.z.l.z.b.v.m.m.XX.X.X X^.].].].].].].].].].N.N.|.2X4X4X3Xb.l.l.l.p.l.m.;XsXgXgXgXgXgXgXgXgXgX",
"gXgXgXgXgXgXgXyX:Xx.l.l.p.l.l.b.M.M.m.m.m.m.m.m.|..XoX4X&X~.~.|.|.|.|.].~.].].].|. X2X4X3X&Xb.b.b.b.l.l.p.p.x.:XsXgXgXgXgXgXgXgX",
"gXgXgXgXgXdX;Xc.p.l.l.l.l.z.b.m.].&X>X|.}.}.}.}.~.$XoX>X+.U P ! ).+X%X).[ %X].&X$X1X3X=X&X].|.].b.].b.l.l.l.l.l.c.-XdXgXgXgXgXgX",
"gXgXgXgXuX).l.l.l.l.l.b.b.m.].].].pXfX].n.x.(.x.`.!.y.j.+XU ..} OXH $Xo.| Y.i.p.a.p.!.;X&X].].].|.N.].b.[.l.l.l.l.l.`.sXgXgXgXgX",
"gXgXgXrXE.l.l.l.l.b.b.b.[.].}.].[.z.a.i.y.G.U.d.R.Y.@XG.+X} ..+.@Xo.@./ o.Y.x.G.k.w.T.@XU.p.s.n.].].].].].].l.b.l.l.l.(.yXgXgXgX",
"gXgXyX!.l.l.l.l.b.M.].].[.[.s.i.w.a.R.e.Y.o.!.W.P.+X` { X.} Y | o.#.@.Y.fX/.Y.Q Y.u.T.U.u.u.w.w.p.l.[.].].].].b.M.M.l.l.!.yXgXgX",
"gXdX(.l.l.l.z.z.[.].].v.i.i.u.u.u.k.U.d.j.R.Q.W.W.9X| G ! K  .K ! *X%X(.zXkX`.H +Xf.d.a.u.u.u.u.w.w.w.p.l.].].].m.b.z.l.z.R.dXgX",
"gX,Xp.p.l.v.b.].].b.i.u.u.i.i.i.a.a.f.s.f.a.a.y.y.9XL G ` Y L L L [ A.A.jXkXwXG._.P./.h.f.a.u.u.u.w.w.w.w.i.v.].].b.b.v.l.z.<XgX",
"dX!.l.l.z.M.m.m.s.u.u.u.i.a.a.f.g.a.T.9.1.>.=.;.c ^ L { } I R D ` [ V.;.L.F F.3.8.A.OXd.h.g.a.a.a.u.i.u.w.w.e.p.[.].N.b.l.l.(.gX",
"yXz.z.z.b.N.b.i.u.u.i.a.f.g.a.r.1.*.3.3.%.*.2.6.6.D.K J } } ' D D H ) 8.9.V.8.2.&.A G <.1.q.a.g.g.f.a.i.u.u.u.i.i.m.N.m.b.l.x.yX",
"eXl.M.N.m.m.i.i.i.a.f.g.a.7.>.%.%.;.c x ;.,.6.I.I.A.` J } } Y ' / Q D.A 3.=.D.^ 8.D X.c &.$.=.4.a.g.g.a.a.u.a.a.i.s.m.N.m.z.l.eX",
"eXz.b.N.m.i.u.i.g.g.g.r.>.%.&.*.*.-.C D S.F.Z.'.iX@.| A ` K } | #.$X8.<.1.>.B.OX2.9.V.8.*.%.%.%.*.4.a.g.f.g.P.{.W.s.s.m.m.b.z.eX",
"rXM.b.m.s.u.a.g.h.a.<.%.$.*.;.=.,.<.V.C.Z.F.t.I.J.( ( #X` P } ! ! F.4.F.A.1.1.#XL.1.>.=.=.%.%.%.%.$.>.e.h.h.{..X~.s.u.v.N.b.c.yX",
"sX!.v.v.i.a.g.h.p.-.*.&.*.-.<.5.1.1.1.1.5.1.5.Z.6.0.x x | P L E C F ^ Q V.,.1.7XK.1.1.,.>.=.=.*.*.%.$.&.r.P.h.P.P.a.u.w.m.b.!.sX",
"gX,Xv.s.a.g.n.a.-.*.*.=.=.<.q.t.r.q.1.>.i y z { j N R j +.C K B M Z T < : : 5 9 &.-.<.1.1.1.>.=.=.*.*.&.%.q.h.[.h.a.w.w.v.m.,XgX",
"gXsX).f.a.g.g.,.%.%.=.>.<.<.4.4.<.i 8 : ; : d N N ] ' v ~ #.| R R N N s : : - - - : 5 y ,.4.1.1.>.=.=.=.$.=.a.P.h.a.i.w.i.).sXgX",
"gXgXaXW.d.h.7.*.*.*.>.,.1.1.=.t 5 , - : ; : : 4 s E { B { E _ R N s s 0 4 5 : : , - 0 0 p p 2.5.1.>.*.*.%.%.1.{.h.g.a.u.P.aXgXgX",
"gXgXgXwXP.h.5.%.*.*.>.,.>.t : : : : , : : 4 5 5 g C m N B N ~ R p a s 6 8 8 5 : 4 , 0 p B.a 9 9 *.1.>.=.*.%.=.f.{.h.a.P.eXgXgXgX",
"gXgXgXgXaX/.=.*.=.>.>.&.5 - - - : ; : 4 4 6 e e f S f A m D R S r y a e q r e 6 4 5 9 a K.B.u > : $.1.>.=.%.*.t.{.{./.aXgXgXgXgX",
"gXgXgXgXgXtXK.3.=.>.&.4 - - - : : 4 4 6 r r r r 9 0 > 3 m N V V 2 2 S 9 r q q q q 8 9 9 p p 0 > - 4 y <.>.*.*.t.XX,XuXgXgXgXgXgX",
"gXgXgXgXgXgXgXqXS.2.5 - - - : : : 6 6 e q > = o . . . h h W E & . . X O O = 6 r e q 8 9 0 0 > ; - - , &.>.=.-.T.aXgXgXgXgXgXgXgX",
"gXgXgXgXgXgXgXgXsXqXk 2 , - - 4 6 e r 5 O . . . . . . @ & * R & . . . . . . . = 8 r q 6 6 4 : : - - - 7 6.S.qXgXgXgXgXgXgXgXgXgX",
"gXgXgXgXgXgXgXgXgXgXhX8XL.f 0 7 6 e > o . . . . . . . @ * % $   . . . . . . . . O 8 w q 6 4 4 : : < s L.iXgXgXgXgXgXgXgXgXgXgXgX",
"gXgXgXgXgXgXgXgXgXgXgXgXgXdX7XL.B.s < . . . X X . . . . @     # . . . . . . . . . = w w q 0 u z L.7XgXgXgXgXgXgXgXgXgXgXgXgXgXgX",
"gXgXgXgXgXgXgXgXgXgXgXgXgXgXgXgXhXtX5Xn l 3 3 @ + X . . . X X X . . . . . . X X + 3 B.S.L.qXtXhXgXgXgXgXgXgXgXgXgXgXgXgXgXgXgXgX",
"gXgXgXgXgXgXgXgXgXgXgXgXgXgXgXgXgXgXgXgXgXhXtX8X5X5Xn b b k l k k k k b b n 5X6X8XtXhXgXgXgXgXgXgXgXgXgXgXgXgXgXgXgXgXgXgXgXgXgX",
"gXgXgXgXgXgXgXgXgXgXgXgXgXgXgXgXgXgXgXgXgXgXgXgXgXgXgXgXhXgXgXgXgXgXgXgXgXgXhXgXgXgXgXgXgXgXgXgXgXgXgXgXgXgXgXgXgXgXgXgXgXgXgXgX",
"gXgXgXgXgXgXgXgXgXgXgXgXgXgXgXgXgXgXgXgXgXgXgXgXgXgXgXgXgXgXgXgXgXgXgXgXgXgXgXgXgXgXgXgXgXgXgXgXgXgXgXgXgXgXgXgXgXgXgXgXgXgXgXgX",
"gXgXgXgXgXgXgXgXgXgXgXgXgXgXgXgXgXgXgXgXgXgXgXgXgXgXgXgXgXgXgXgXgXgXgXgXgXgXgXgXgXgXgXgXgXgXgXgXgXgXgXgXgXgXgXgXgXgXgXgXgXgXgXgX",
"gXgXgXgXgXgXgXgXgXgXgXgXgXgXgXgXgXgXgXgXgXgXgXgXgXgXgXgXgXgXgXgXgXgXgXgXgXgXgXgXgXgXgXgXgXgXgXgXgXgXgXgXgXgXgXgXgXgXgXgXgXgXgXgX",
"gXgXgXgXgXgXgXgXgXgXgXgXgXgXgXgXgXgXgXgXgXgXgXgXgXgXgXgXgXgXgXgXgXgXgXgXgXgXgXgXgXgXgXgXgXgXgXgXgXgXgXgXgXgXgXgXgXgXgXgXgXgXgXgX",
"gXgXgXgXgXgXgXgXgXgXgXgXgXgXgXgXgXgXgXgXgXgXgXgXgXgXgXgXgXgXgXgXgXgXgXgXgXgXgXgXgXgXgXgXgXgXgXgXgXgXgXgXgXgXgXgXgXgXgXgXgXgXgXgX"
};
