/* XPM */
static char *_92_desapearA31721200810[] = {
/* columns rows colors chars-per-pixel */
"64 64 190 2 ",
"   c #02012C",
".  c #0B0A2E",
"X  c #121232",
"o  c #1A1B37",
"O  c #1D1D3A",
"+  c #090549",
"@  c #1C1B41",
"#  c #060457",
"$  c #0C0754",
"%  c #07055A",
"&  c #0A065B",
"*  c #100E59",
"=  c #191557",
"-  c #282B47",
";  c #2B3245",
":  c #2C324E",
">  c #3B3C4D",
",  c #2D3255",
"<  c #373A52",
"1  c #37395C",
"2  c #0A0663",
"3  c #0D0864",
"4  c #0E096C",
"5  c #120D64",
"6  c #130D6C",
"7  c #161264",
"8  c #19136A",
"9  c #1F1A6A",
"0  c #0E0A72",
"q  c #120B74",
"w  c #190E73",
"e  c #130C7A",
"r  c #1C1273",
"t  c #241E6B",
"y  c #261A7D",
"u  c #282669",
"i  c #302E68",
"p  c #35346A",
"a  c #2B2472",
"s  c #2E2875",
"d  c #3C3974",
"f  c #3B377C",
"g  c #3C424E",
"h  c #3E4253",
"j  c #3D425A",
"k  c #414357",
"l  c #424953",
"z  c #44465A",
"x  c #464B5B",
"c  c #494C5F",
"v  c #4E545E",
"b  c #4A4E61",
"n  c #464B6C",
"m  c #4D5164",
"M  c #565A66",
"N  c #525669",
"B  c #565B6D",
"V  c #4A4C74",
"C  c #47457B",
"Z  c #4C5178",
"A  c #5C6275",
"S  c #5F6678",
"D  c #636671",
"F  c #6B6B75",
"G  c #636A7C",
"H  c #6F6E79",
"J  c #75747E",
"K  c #210F86",
"L  c #220F88",
"P  c #231186",
"I  c #261887",
"U  c #291B83",
"Y  c #25118A",
"T  c #2A158E",
"R  c #2B198D",
"E  c #2B1692",
"W  c #2E1893",
"Q  c #331C96",
"!  c #341C9A",
"~  c #2E2484",
"^  c #31248A",
"/  c #383489",
"(  c #2F2191",
")  c #342093",
"_  c #392396",
"`  c #36209A",
"'  c #3B239C",
"]  c #3D2C98",
"[  c #3E25A0",
"{  c #4026A3",
"}  c #4429A5",
"|  c #4B27AE",
" . c #4C2AAE",
".. c #4E36AB",
"X. c #4E2BB0",
"o. c #522DB3",
"O. c #5E29B2",
"+. c #4F30B0",
"@. c #5432B5",
"#. c #5B33B6",
"$. c #563AB5",
"%. c #5939B6",
"&. c #5735B8",
"*. c #5836B8",
"=. c #5C3BBA",
"-. c #622CB4",
";. c #6632B5",
":. c #6639B2",
">. c #693CB2",
",. c #6434B8",
"<. c #6A35B9",
"1. c #633CBC",
"2. c #6D3ABD",
"3. c #713DBE",
"4. c #514A8A",
"5. c #5E5C90",
"6. c #5E618A",
"7. c #696984",
"8. c #6D7586",
"9. c #6F7885",
"0. c #6D7588",
"q. c #7C7B83",
"w. c #75798B",
"e. c #737C8D",
"r. c #69639C",
"t. c #767F92",
"y. c #797799",
"u. c #5B4EA1",
"i. c #5E48BC",
"p. c #6C42B4",
"a. c #6E49B1",
"s. c #6443BC",
"d. c #694CBB",
"f. c #714CB2",
"g. c #7547BA",
"h. c #7345BD",
"j. c #6E57B5",
"k. c #7453B1",
"l. c #7758B0",
"z. c #7A5EB1",
"x. c #7F68AF",
"c. c #7B68B6",
"v. c #6D3FC0",
"b. c #723EC0",
"n. c #6545C2",
"m. c #6F40C0",
"M. c #7442C2",
"N. c #7845C4",
"B. c #744AC2",
"V. c #7D4BC3",
"C. c #7A51C7",
"Z. c #7B5DC6",
"A. c #7D6BCB",
"S. c #826CAF",
"D. c #8470AF",
"F. c #8877AF",
"G. c #8C7CAF",
"H. c #826AB2",
"J. c #8D7DB0",
"K. c #8252C8",
"L. c #9266CD",
"P. c #976BCE",
"I. c #9D74D0",
"U. c #778191",
"Y. c #7B8594",
"T. c #7D8798",
"R. c #7F899A",
"E. c #838289",
"W. c #88888E",
"Q. c #8D8D93",
"!. c #818C9B",
"~. c #8D8C9B",
"^. c #95959B",
"/. c #96959E",
"(. c #8684A1",
"). c #8D81AE",
"_. c #908FA1",
"`. c #9083AE",
"'. c #948AAE",
"]. c #988FAF",
"[. c #8793A3",
"{. c #9392A4",
"}. c #9D9CA4",
"|. c #9792AE",
" X c #9C95AD",
".X c #9F9AAD",
"XX c #9388B2",
"oX c #A19DAC",
"OX c #A2A1A7",
"+X c #A7A6AB",
/* pixels */
"+X+X+X+X+X+X+X+X+X+X+X+X+X+X+X+X+X+X+X+X+X+X+X+X+X+X+X+X+X+X+X+X+X+X+X+X+X+X+X+X+X+X+X+X+X+X+X+X+X+X+X+X+X+X+X+X+X+X+X+X+X+X+X+X",
"+X+X+X+X+X+X+X+X+X+X+X+X+X+X+X+X+X+X+X+X+X+X+X+X+X+X+X+X+X+X+X+X+X+X+X+X+X+X+X+X+X+X+X+X+X+X+X+X+X+X+X+X+X+X+X+X+X+X+X+X+X+X+X+X",
"+X+X+X+X+X+X+X+X+X+X+X+X+X+X+X+X+X+X+X+X+X+X+X+X+X+X+X+X+X+X+X+X+X+X+X+X+X+X+X+X+X+X+X+X+X+X+X+X+X+X+X+X+X+X+X+X+X+X+X+X+X+X+X+X",
"+X+X+X+X+X+X+X+X+X+X+X+X+X+X+X+X+X+X+X+X+X+X+X+X+X+X+X+X+X+X+X+X+X+X+X+X+X+X+X+X+X+X+X+X+X+X+X+X+X+X+X+X+X+X+X+X+X+X+X+X+X+X+X+X",
"+X+X+X+X+X+X+X+X+X+X+X+X+X+X+X+X+X+X+X+X+X+X+X+X+X+X+X+X+X+X+X+X+X+X+X+X+X+X+X+X+X+X+X+X+X+X+X+X+X+X+X+X+X+X+X+X+X+X+X+X+X+X+X+X",
"+X+X+X+X+X+X+X+X+X+X+X+X+X+X+X+X+X+X+X+X+X+X+X+X+X+X+X+X+X+X+X+X+X+X+X+X+X+X+X+X+X+X+X+X+X+X+X+X+X+X+X+X+X+X+X+X+X+X+X+X+X+X+X+X",
"+X+X+X+X+X+X+X+X+X+X+X+X+X+X+X+X+X+X+X+X+X+X+X+X+X+X+X+X+X+X+X+X+X+X+X+X+X+X+X+X+X+X+X+X+X+X+X+X+X+X+X+X+X+X+X+X+X+X+X+X+X+X+X+X",
"+X+X+X+X+X+X+X+X+X+X+X+X+X+X+X+X+X+X+X+X+X+X+X+X+X+X+X+X+X+X+X+X+X+X+X+X+X+X+X+X+X+X+X+X+X+X+X+X+X+X+X+X+X+X+X+X+X+X+X+X+X+X+X+X",
"+X+X+X+X+X+X+X+X+X+X+X+X+X+X+X+X+X+X+X+X+X+X+X+X+X+X+X+X+X+X+X+X+X+X+X+X+X+X+X+X+X+X+X+X+X+X+X+X+X+X+X+X+X+X+X+X+X+X+X+X+X+X+X+X",
"+X+X+X+X+X+X+X+X+X+X+X+X+X+X+X+X+X+X+X+X+X+X+X+X+X+X+X+X+X+X+X+X+X+X+X+X+X+X+X+X+X+X+X+X+X+X+X+X+X+X+X+X+X+X+X+X+X+X+X+X+X+X+X+X",
"+X+X+X+X+X+X+X+X+X+X+X+X+X+X+X+X+X+X+X+X+X+X+X+X+X+X+X+X+X+X+X+X+X+X+X+X+X+X+X+X+X+X+X+X+X+X+X+X+X+X+X+X+X+X+X+X+X+X+X+X+X+X+X+X",
"+X+X+X+X+X+X+X+X+X+X+X+X+X+X+X+X+X+X+X+X+X+X+X+X+X+X+X+X+X+X+X+X+X+X+X+X+X+X+X+X+X+X+X+X+X+X+X+X+X+X+X+X+X+X+X+X+X+X+X+X+X+X+X+X",
"+X+X+X+X+X+X+X+X+X+X+X+X+X+X+X+X+X+X+X+X+X+X+X+X+X+X+X+X+X+X+X+X+X+X+X+X+X+X+X+X+X+X+X+X+X+X+X+X+X+X+X+X+X+X+X+X+X+X+X+X+X+X+X+X",
"+X+X+X+X+X+X+X+X+X+X+X+X+X+X+X+X+X+X+X+X+X+X+X+X+X+X+X+X+X+X+X+X+X+X+X+X+X+X+X+X+X+X+X+X+X+X+X+X+X+X+X+X+X+X+X+X+X+X+X+X+X+X+X+X",
"+X+X+X+X+X+X+X+X+X+X+X+X+X+X+X+X+X+X+X+X+X+X+X+X+X+X+X+X+X+X+X+X+X+X+X+X+X+X+X+X+X+X+X+X+X+X+X+X+X+X+X+X+X+X+X+X+X+X+X+X+X+X+X+X",
"+X+X+X+X+X+X+X+X+X+X+X+X+X+X+X+X+X+X+X+X+X+X+X+X+X+X+X+X+X+X+X+X+X+X+X+X+X+X+X+X+X+X+X+X+X+X+X+X+X+X+X+X+X+X+X+X+X+X+X+X+X+X+X+X",
"+X+X+X+X+X+X+X+X+X+X+X+X+X+X+X+X+X+X+X+X+X+X+X+X+X+X+X+X+X+X+X+X+X+X+X+X+X+X+X+X+X+X+X+X+X+X+X+X+X+X+X+X+X+X+X+X+X+X+X+X+X+X+X+X",
"+X+X+X+X+X+X+X+X+X+X+X+X+X+X+X+X+X+X+X+X+X+X+X+X+X+X+X+X+X+X+X+X+X+X+X+X+X+X+X+X+X+X+X+X+X+X+X+X+X+X+X+X+X+X+X+X+X+X+X+X+X+X+X+X",
"+X+X+X+X+X+X+X+X+X+X+X+X+X+X+X+X+X+X+X+X+X+X+X+X+X+X+X+X+X+X+X+X+X+X+X+X+X+X+X+X+X+X+X+X+X+X+X+X+X+X+X+X+X+X+X+X+X+X+X+X+X+X+X+X",
"+X+X+X+X+X+X+X+X+X+X+X+X+X+X+X+X+X+X+X+X+X+X+X+X+X+X+X+X+X+X+X+X+X+X+X+X+X+X+X+X+X+X+X+X+X+X+X+X+X+X+X+X+X+X+X+X+X+X+X+X+X+X+X+X",
"+X+X+X+X+X+X+X+X+X+X+X+X+X+X+X+X+X+X+X+X+X+X+X+X+X+X+X+X+X+X+X+X+X+X+X+X+X+X+X+X+X+X+X+X+X+X+X+X+X+X+X+X+X+X+X+X+X+X+X+X+X+X+X+X",
"+X+X+X+X+X+X+X+X+X+X+X+X+X+X+X+X+X+X+X+X+X+X+X+X+X+X+X+X+X+X+X+X+X+X+X+X+X+X+X+X+X+X+X+X+X+X+X+X+X+X+X+X+X+X+X+X+X+X+X+X+X+X+X+X",
"+X+X+X+X+X+X+X+X+X+X+X+X+X+X+X+X+X+X+X+X+X+X+X+X+X+X+X+X+X+X+X+X+X+X+X+X+X+X+X+X+X+X+X+X+X+X+X+X+X+X+X+X+X+X+X+X+X+X+X+X+X+X+X+X",
"+X+X+X+X+X+X+X+X+X+X+X+X+X+X+X+X+X+X+X+X+X+X+X+X+X+X+X+X+X+X+X+X+X+X+X+X+X+X+X+X+X+X+X+X+X+X+X+X+X+X+X+X+X+X+X+X+X+X+X+X+X+X+X+X",
"+X+X+X+X+X+X+X+X+X+X+X+X+X+X+X+X+X+X+X+X+X+X+X+X+X+X+X+X+X+X+X+X+X+X+X+X+X+X+X+X+X+X+X+X+X+X+X+X+X+X+X+X+X+X+X+X+X+X+X+X+X+X+X+X",
"+X+X+X+X+X+X+X+X+X+X+X+X+X+X+X+X+X+X+X+X+X+X+X+X+X+X+X+X+X+X+X+X+X+X+X+X+X+X+X+X+X+X+X+X+X+X+X+X+X+X+X+X+X+X+X+X+X+X+X+X+X+X+X+X",
"+X+X+X+X+X+X+X+X+X+X+X+X+X+X+X+X+X+X+X+X+X+X+X+X+X+X+X+X+X+X+X+X+X+X+X+X+X+X+X+X+X+X+X+X+X+X+X+X+X+X+X+X+X+X+X+X+X+X+X+X+X+X+X+X",
"+X+X+X+X+X+X+X+X+X+X+X+X+X+X+X+X+X+X+X+X+X+X+X+X+X+X+X+X+X+X+X+X+X+X+X+X+X+X+X+X+X+X+X+X+X+X+X+X+X+X+X+X+X+X+X+X+X+X+X+X+X+X+X+X",
"+X+X+X+X+X+X+X+X+X+X+X+X+X+X+X+X+X+X+X+X+X+X+X+X+X+X+X+X+X+X+X+X+X+X+X+X+X+X+X+X+X+X+X+X+X+X+X+X+X+X+X+X+X+X+X+X+X+X+X+X+X+X+X+X",
"+X+X+X+X+X+X+X+X+X+X+X+X+X+X+X+X+X+X+X+X+X+X+X+X+X+X+X+X+X+X+X+X+X+X+X+X+X+X+X+X+X+X+X+X+X+X+X+X+X+X+X+X+X+X+X+X+X+X+X+X+X+X+X+X",
"+X+X+X+X+X+X+X+X+X+X+X+X+X+X+X+X+X+X+X+X+X+X+X+X+X+X+X+X+X+X+X+X+X+X+X+X+X+X+X+X+X+X+X+X+X+X+X+X+X+X+X+X+X+X+X+X+X+X+X+X+X+X+X+X",
"+X+X+X+X+X+X+X+X+X+X+X+X+X+X+X+X+X+X+X+X+X+X+X+X+X+X+X+X+X+X+X+X+X+X+X+X+X+X+X+X+X+X+X+X+X+X+X+X+X+X+X+X+X+X+X+X+X+X+X+X+X+X+X+X",
"+X+X+X+X+X+X+X+X+X+X+X+X+X+X+X+X+X+X+X+X+X+X+X+X+X+XoXoXoX.X.X.X+X+XoXoXoXoXOX+X+X+X+X+X+X+X+X+X+X+X+X+X+X+X+X+X+X+X+X+X+X+X+X+X",
"+X+X+X+X+X+X+X+X+X+X+X+X+X+X+X+X+X+XoXoXoX'.J.D.z.k.p.p.>.:.;.,.g.H.:.:.:.>.a.k.z.H.`.]..X+X+X+X+X+X+X+X+X+X+X+X+X+X+X+X+X+X+X+X",
"+X+X+X+X+X+X+X+X+X+X+X+X+X+X+XoXoXJ.H.k.3.>.-.-.O.-.-.-.-.-.-.-.<.-.-.-.-.-.-.O.O.O.O.-.>.k.x.`..X+X+X+X+X+X+X+X+X+X+X+X+X+X+X+X",
"+X+X+X+X+X+X+X+X+X+X+X+XoX].S.k.;.-.;.3.g.g.3.;.<.-.;.;.<.<.<.<.2.<.<.2.<.<.;.-.-.-.-.-.-.O.O.O.:.l.G.oX+X+X+X+X+X+X+X+X+X+X+X+X",
"+X+X+X+X+X+X+X+X+X+X.XG.f.<.-.-.-.-.<.K.I.P.V.3.2.2.2.3.v.b.b.b.2.b.2.B.g.B.h.2.;.;.-.,.-.-.-.-.O.O.-.:.z.].+XOX+X+X+X+X+X+X+X+X",
"+X+X+X+X+X+X+X+X.XF.k.-.-.-.-.<.<.<.2.K.L.L.K.M.b.M.b.b.M.N.b.N.N.N.B.C.K.A.B.B.v.b.b.<.<.<.<.;.;.-.-.-.O.-.l.`.+X+X+X+X+X+X+X+X",
"+X+X+X+X+X+XOX).k.-.-.-.-.-.<.<.3.N.3.K.C.K.V.N.N.N.N.M.m.v.m.m.v.v.m.B.Z.A.C.B.N.b.b.b.b.b.v.2.<.;.;.-.-.-.-.-.z. X+X+X+X+X+X+X",
"+X+X+X+X+X.Xx.;.-.-.;.-.<.<.b.b.3.3.3.3.N.v.v.=.O.o.o.o.X.X.X.X.X.X. .@.$.$.%.%.*.,.v.v.b.b.b.b.3.3.<.<.-.-.-.O.O.:.J.+X+X+X+X+X",
"+X+X+X+X|.k.O.-.-.;.<.2.b.b.b.b.3.2.,.O.o.o.| | | | | | X.X.X.X.X.X.o.X.o.@.@.@.@.@. .X.o.&.v.v.N.N.b.b.b.<.;.-.-.O.-.H.oX+X+X+X",
"+X+X+X.Xk.-.-.,.<.<.2.b.b.b.v.-.X.O.X.|  .X.X. .X.X.X.X.X.X.o.o.o.@.o.@.@.@.%.#.s.%.#.X.X.X.| | o.,.v.b.b.b.<.;.-.-.-.-.H.oX+X+X",
"+X+XoXl.-.-.;.<.2.2.3.3.;.o.o.| | | X.o.+.@.$.@.@.@.@.@.&.&.&.&.&.&.*.=.*.=.=.=.s.=.%.o.X.o.o.X.X.| o.#.v.b.v.2.;.;.-.-.-.F.+X+X",
"+X+XF.-.-.;.<.2.b.3.;.o.| | | | X.X.o.o.%.i.i.%.&.@.X. .} [ [ ` Q _ _ ' _ { } +.$.%.$.#.&.@.@.X.o.o.o.| | #.v.m.2.;.-.-.O.:.oX+X",
"+XoXf.-.;.<.3.3.2.#.| | X.o.o.o.@.@.@.i.%.i...' ! E P P P P y d Z 7.G A 1 = r U R R W ! } X.@.&.&.@.o.o.X.X.X.,.3.2.<.;.-.-.S.OX",
"+X'.,.-.<.2.3.2.@. . .X.X.o.@.*.&.&.@.[ ` R I I P P K L U d 0.!.[.[.[.[.[.e.> , ~ R I L K Y E [ X.&.&.&.@.X.X.X.O.2.<.;.-.-.f.+X",
"+X`.-.;.2.3.2.o.@.@.o.o.@.&.&.*.X.` Y L L L L L Y P Y y V R.[.[.[.[.[.[.[.[.!.v 1 / ^ I P P L K P W | &.*.&.&.X.X.@.2.3.2.;.>.oX",
"+XJ.,.<.2.<.#.#.s.1.*.&.&.&.+.! P K L L T L Y T Y E R 4.R.[.[.[.[.[.[.[.[.[.[.!.l , ^ E Y Y Y Y P L L W  .=.&.&.X.X.O.3.2.<.>.oX",
"+X'.;.2.v.o.o.%.Z.d.1.=.$.} T K K L Y Y T T E W W W / Y.[.[.[.[.[.[.[.[.[.[.[.[.Y.g i W E E E R E Y P P L ! =.=.#.@.o.,.2.,.p.oX",
"+XoX2.2.,.X.X.#.s.s.=.=.' L K L Y Y T E W W ! ! ! ! 6.[.[.[.[.[.[.[.[.[.[.[.[.[.[.m j R ! ! Q ' ` _ E P L L Q #.=.*.@.o.<.<.z.+X",
"+X+XH.<.O.| X.&.1.s.=.' L Y L Y T E E Q ! ! W P w u t.[.[.[.[.[.[.[.[.[.[.[.[.[.[.9.h t E ! [ } ..' ! T L T L Q *.=.&.o.,.2.XX+X",
"+X+XoXg.o.X.o.&.=.=.} Y L T T E W ! ` ) Y w 2 % % 1 R.[.[.[.[.[.[.[.[.[.[.[.[.[.[.Y.h - & 5 y ) [ ' ! W T T L L ! =.=.o.#.H.oX+X",
"+X+X+X`.#. .o.=.s.$.E L L Y E W W ) ~ a t 7 % % % n [.[.[.[.[.[.[.[.[.[.[.[.[.[.[.!.g - # % & 5 y R ! ! W T Y L L ..=.@.k..X+X+X",
"+X+X+X+XG.%.&.=.n. .L L Y E W W P r a 4.f 9 * 2 2 n [.[.!.R.!.[.[.!.!.R.T.T.[.[.[.!.l : & % & # # & w R W E T Y L [ =.j.|.+X+X+X",
"+X+X+X+X+X'.d.i.n.' L Y E W E w & = s 5.4.t 5 3 3 V [.!.B B N 8.w.z 8.B m N S [.[.!.x , 2 2 % & # # # 3 T W T T L ( c.|.+X+X+X+X",
"+X+X+X+X+X+X.Xc.n.! L T E T 6 % % 5 t s a 8 6 4 0 Z [.[.B m N b e.h 9.A x B x R.[.R.x , 4 3 2 % # # & # & Y E T ] y..X+X+X+X+X+X",
"+X+X+X+X+X+X+X+XXXu.Y E E w # # % & 3 7 8 6 6 0 e Z [.[.B m N G t.> 0.A c B c !.[.Y.x , 6 q 4 2 2 # # # # 3 / r.{.+X+X+X+X+X+X+X",
"+X+X+X+X+X+X+X+X+X+X(.u.~ & # # % & 3 3 4 0 e 0 $ m [.[.B c c w.U.h 8.A k N A [.[.!.x ; & q 0 4 2 & % * i 7.{.+X+X+X+X+X+X+X+X+X",
"+X+X+X+X+X+X+X+X+X+X+X+X_.7.p * % & 2 2 4 0 0 +   c [.[.B m N N t.k 8.A z U.!.[.[.!.x ;   $ q 0 3 u V w.^.OX+X+X+X+X+X+X+X+X+X+X",
"+X+X+X+X+X+X+X+X+X+X+X+X+X+XOX~.7.C u 8 0 e 4     x [.!.m z c z G < S N k T.[.[.[.!.l ; . @ f 6.y./.OX+X+X+X+X+X+X+X+X+X+X+X+X+X",
"+X+X+X+X+X+X+X+X+X+X+X+X+X+X+X+X+XoX{.~.y.5.C ; O ; k < o X X X o X o O O < z m M D M F E.Q.}.OX+X+X+X+X+X+X+X+X+X+X+X+X+X+X+X+X",
"+X+X+X+X+X+X+X+X+X+X+X+X+X+X+X+X+X+X+X+X+X+X+X}./.Q.W.E.q.J H H F H H J q.E.W.^./.}.+X+X+X+X+X+X+X+X+X+X+X+X+X+X+X+X+X+X+X+X+X+X",
"+X+X+X+X+X+X+X+X+X+X+X+X+X+X+X+X+X+X+X+X+X+X+X+X+X+X+X+X+X+X+X+X+X+X+X+X+X+X+X+X+X+X+X+X+X+X+X+X+X+X+X+X+X+X+X+X+X+X+X+X+X+X+X+X",
"+X+X+X+X+X+X+X+X+X+X+X+X+X+X+X+X+X+X+X+X+X+X+X+X+X+X+X+X+X+X+X+X+X+X+X+X+X+X+X+X+X+X+X+X+X+X+X+X+X+X+X+X+X+X+X+X+X+X+X+X+X+X+X+X"
};
