/* XPM */
static char *_95_desapear1721200812[] = {
/* columns rows colors chars-per-pixel */
"64 64 160 2 ",
"   c #1F1C1D",
".  c #251C16",
"X  c #34261D",
"o  c #36281F",
"O  c #3E2C1F",
"+  c #2D2B2F",
"@  c #3E322A",
"#  c #3F3937",
"$  c #333438",
"%  c #482D17",
"&  c #4A301A",
"*  c #53351D",
"=  c #513E1E",
"-  c #5C3A1E",
";  c #633E1F",
":  c #473326",
">  c #4B3424",
",  c #48372C",
"<  c #513520",
"1  c #5C3E25",
"2  c #553D2B",
"3  c #583E2C",
"4  c #483D35",
"5  c #503D30",
"6  c #633F21",
"7  c #464824",
"8  c #514522",
"9  c #584520",
"0  c #5D422B",
"q  c #545529",
"w  c #4E433E",
"e  c #544134",
"r  c #5A483A",
"t  c #455134",
"y  c #634124",
"u  c #6C4523",
"i  c #654F24",
"p  c #64442B",
"a  c #694628",
"s  c #67482F",
"d  c #6E4A2C",
"f  c #724722",
"g  c #704A26",
"h  c #7C4E25",
"j  c #734C2A",
"k  c #794F28",
"l  c #6E5926",
"z  c #77512F",
"x  c #7C512C",
"c  c #634630",
"v  c #674831",
"b  c #694930",
"n  c #724E30",
"m  c #6E523C",
"M  c #795434",
"N  c #7D5839",
"B  c #5F6229",
"V  c #746129",
"C  c #6B772D",
"Z  c #343942",
"A  c #393D45",
"S  c #393A4E",
"D  c #3C3D51",
"F  c #3C424C",
"G  c #3E4353",
"H  c #4D4A4E",
"J  c #564A42",
"K  c #504B4B",
"L  c #5A514D",
"P  c #404554",
"I  c #424954",
"U  c #44465A",
"Y  c #444C5B",
"T  c #484C5F",
"R  c #4F5057",
"E  c #4C525D",
"W  c #5A5555",
"Q  c #54565C",
"!  c #5C595A",
"~  c #63544A",
"^  c #7C5F48",
"/  c #6A5C53",
"(  c #625D5E",
")  c #6A5F5A",
"_  c #63635F",
"`  c #716057",
"'  c #4A4E61",
"]  c #4E5265",
"[  c #505367",
"{  c #555A64",
"}  c #5C5D64",
"|  c #525669",
" . c #555B6D",
".. c #595E71",
"X. c #5D636F",
"o. c #5B6274",
"O. c #62666E",
"+. c #68676A",
"@. c #6B696C",
"#. c #786E6A",
"$. c #636972",
"%. c #6B6D74",
"&. c #616779",
"*. c #656B7D",
"=. c #6A6F78",
"-. c #716E71",
";. c #6C717B",
":. c #747172",
">. c #7A7576",
",. c #75777D",
"<. c #79777A",
"1. c #76787E",
"2. c #7B7A7D",
"3. c #855426",
"4. c #8A5727",
"5. c #8D5A27",
"6. c #82552C",
"7. c #8A5729",
"8. c #87582F",
"9. c #8C592B",
"0. c #945D2B",
"q. c #995F2A",
"w. c #8D5C30",
"e. c #96602D",
"r. c #9C622C",
"t. c #8A603C",
"y. c #A4662C",
"u. c #866348",
"i. c #666E80",
"p. c #6C7484",
"a. c #6E7788",
"s. c #6F7889",
"d. c #757B84",
"f. c #7B7D84",
"g. c #747D8C",
"h. c #797E88",
"j. c #767F90",
"k. c #827E80",
"l. c #77808E",
"z. c #768191",
"x. c #7A8494",
"c. c #7C8798",
"v. c #7E8999",
"b. c #858284",
"n. c #858589",
"m. c #89888C",
"M. c #918D8F",
"N. c #808997",
"B. c #8D8C90",
"V. c #818B9B",
"C. c #928E90",
"Z. c #84909F",
"A. c #929295",
"S. c #969599",
"D. c #9A9A9E",
"F. c #8793A3",
"G. c #9E9DA2",
"H. c #A09FA4",
"J. c #A1A0A5",
"K. c #A7A6AB",
/* pixels */
"K.K.K.K.K.K.K.K.K.K.K.K.K.K.K.K.K.K.K.K.K.K.K.K.K.K.K.K.K.K.K.K.K.K.K.K.K.K.K.K.K.K.K.K.K.K.K.K.K.K.K.K.K.K.K.K.K.K.K.K.K.K.K.K.",
"K.K.K.K.K.K.K.K.K.K.K.K.K.K.K.K.K.K.K.K.K.K.K.K.K.K.K.K.K.K.K.K.K.K.K.K.K.K.K.K.K.K.K.K.K.K.K.K.K.K.K.K.K.K.K.K.K.K.K.K.K.K.K.K.",
"K.K.K.K.K.K.K.K.K.K.K.K.K.K.K.K.K.K.K.K.K.K.K.K.K.K.K.K.K.K.K.K.K.K.K.K.K.K.K.K.K.K.K.K.K.K.K.K.K.K.K.K.K.K.K.K.K.K.K.K.K.K.K.K.",
"K.K.K.K.K.K.K.K.K.K.K.K.K.K.K.K.K.K.K.K.K.K.K.K.K.K.K.K.K.K.K.K.K.K.K.K.K.K.K.K.K.K.K.K.K.K.K.K.K.K.K.K.K.K.K.K.K.K.K.K.K.K.K.K.",
"K.K.K.K.K.K.K.K.K.K.K.K.K.K.K.K.K.K.K.K.K.K.K.K.K.K.K.K.K.K.K.K.K.K.K.K.K.K.K.K.K.K.K.K.K.K.K.K.K.K.K.K.K.K.K.K.K.K.K.K.K.K.K.K.",
"K.K.K.K.K.K.K.K.K.K.K.K.K.K.K.K.K.K.K.K.K.K.K.K.K.K.K.K.K.K.K.K.K.K.K.K.K.K.K.K.K.K.K.K.K.K.K.K.K.K.K.K.K.K.K.K.K.K.K.K.K.K.K.K.",
"K.K.K.K.K.K.K.K.K.K.K.K.K.K.K.K.K.K.K.K.K.K.K.K.K.K.K.K.K.K.K.K.K.K.K.K.K.K.K.K.K.K.K.K.K.K.K.K.K.K.K.K.K.K.K.K.K.K.K.K.K.K.K.K.",
"K.K.K.K.K.K.K.K.K.K.K.K.K.K.K.K.K.K.K.K.K.K.K.K.K.K.K.K.K.K.K.K.K.K.K.K.K.K.K.K.K.K.K.K.K.K.K.K.K.K.K.K.K.K.K.K.K.K.K.K.K.K.K.K.",
"K.K.K.K.K.K.K.K.K.K.K.K.K.K.K.K.K.K.K.K.K.K.K.K.K.K.K.K.K.K.K.K.K.K.K.K.K.K.K.K.K.K.K.K.K.K.K.K.K.K.K.K.K.K.K.K.K.K.K.K.K.K.K.K.",
"K.K.K.K.K.K.K.K.K.K.K.K.K.K.K.K.K.K.K.K.K.K.K.K.K.K.K.K.K.K.K.K.K.K.K.K.K.K.K.K.K.K.K.K.K.K.K.K.K.K.K.K.K.K.K.K.K.K.K.K.K.K.K.K.",
"K.K.K.K.K.K.K.K.K.K.K.K.K.K.K.K.K.K.K.K.K.K.K.K.K.K.K.K.K.K.K.K.K.K.K.K.K.K.K.K.K.K.K.K.K.K.K.K.K.K.K.K.K.K.K.K.K.K.K.K.K.K.K.K.",
"K.K.K.K.K.K.K.K.K.K.K.K.K.K.K.K.K.K.K.K.K.K.K.K.K.K.K.K.K.K.K.K.K.K.K.K.K.K.K.K.K.K.K.K.K.K.K.K.K.K.K.K.K.K.K.K.K.K.K.K.K.K.K.K.",
"K.K.K.K.K.K.K.K.K.K.K.K.K.K.K.K.K.K.K.K.K.K.K.K.K.K.K.K.K.K.K.K.K.K.K.K.K.K.K.K.K.K.K.K.K.K.K.K.K.K.K.K.K.K.K.K.K.K.K.K.K.K.K.K.",
"K.K.K.K.K.K.K.K.K.K.K.K.K.K.K.K.K.K.K.K.K.K.K.K.K.K.K.K.K.K.K.K.K.K.K.K.K.K.K.K.K.K.K.K.K.K.K.K.K.K.K.K.K.K.K.K.K.K.K.K.K.K.K.K.",
"K.K.K.K.K.K.K.K.K.K.K.K.K.K.K.K.K.K.K.K.K.K.K.K.K.K.K.K.K.K.K.K.K.K.K.K.K.K.K.K.K.K.K.K.K.K.K.K.K.K.K.K.K.K.K.K.K.K.K.K.K.K.K.K.",
"K.K.K.K.K.K.K.K.K.K.K.K.K.K.K.K.K.K.K.K.K.K.K.K.K.K.K.K.K.K.K.K.K.K.K.K.K.K.K.K.K.K.K.K.K.K.J.J.K.K.K.K.K.K.K.K.K.K.K.K.K.K.K.K.",
"K.K.K.K.K.K.K.K.K.K.K.K.K.K.K.K.K.K.K.K.K.K.K.K.K.K.K.K.K.K.K.K.K.K.K.K.K.K.K.K.G.m.d.=.=.=.O.{ ! +.B.K.K.K.K.K.K.K.K.K.K.K.K.K.",
"K.K.K.K.K.K.K.K.K.K.K.K.K.K.K.K.K.K.K.K.K.K.K.K.K.K.K.K.K.K.K.K.K.K.K.K.K.K.G.n.=.h.V.F.F.F.F.F.z.E $ +.D.K.K.K.K.K.K.K.K.K.K.K.",
"K.K.K.K.K.K.K.K.K.K.K.K.K.K.K.K.K.K.K.K.K.K.K.K.K.K.K.K.K.K.K.K.K.K.K.K.K.G.1.h.Z.F.F.F.F.F.F.F.F.F.s.A R A.K.K.K.K.K.K.K.K.K.K.",
"K.K.K.K.K.K.K.K.K.K.K.K.K.K.K.K.K.K.K.K.K.K.K.K.K.K.K.K.K.K.K.K.K.K.K.K.G.,.z.F.F.F.F.F.F.F.F.F.F.F.Z.x.Z I A.K.K.K.K.K.K.K.K.K.",
"K.K.K.K.K.K.K.K.K.K.K.K.K.K.K.K.K.K.K.K.K.K.K.K.K.K.K.K.K.K.K.K.K.K.K.J.f.z.F.F.F.F.F.F.F.F.F.F.F.F.F.F.l.Z R D.K.K.K.K.K.K.K.K.",
"K.K.K.K.K.K.K.K.K.K.K.K.K.K.K.K.K.K.K.K.K.K.K.K.K.K.K.K.K.K.K.K.K.K.K.S.d.F.F.F.F.F.F.F.F.F.F.F.F.F.F.F.F.X.F %.K.K.K.K.K.K.K.K.",
"K.K.K.K.K.K.K.K.K.K.K.K.K.K.K.K.K.K.K.K.K.K.K.K.K.K.K.K.K.K.K.K.K.K.J.f.V.F.F.F.F.F.F.F.F.F.F.F.F.F.F.F.F.V.A E A.K.K.K.K.K.K.K.",
"K.K.K.K.K.K.K.K.K.K.K.K.K.K.K.K.K.K.K.K.K.K.K.K.K.K.K.K.K.K.K.K.K.K.D.h.F.F.F.F.F.F.F.F.F.F.F.F.F.F.F.F.F.F.{ G %.K.K.K.K.K.K.K.",
"K.K.K.K.K.K.K.K.K.K.K.K.K.K.K.K.K.K.K.K.K.K.K.K.K.K.K.K.K.K.K.K.K.K.m.v.F.F.F.F.F.F.F.F.F.F.F.F.F.F.F.F.F.Z.p.F Q J.K.K.K.K.K.K.",
"K.K.K.K.K.K.K.K.K.K.K.K.K.K.K.K.K.K.K.K.K.K.K.K.K.K.K.K.K.K.K.K.K.J.f.V.F.F.F.F.F.F.F.F.F.F.F.F.F.F.F.F.F.Z.x.F Y S.K.K.K.K.K.K.",
"K.K.K.K.K.K.K.K.K.K.K.K.K.K.K.K.K.K.K.K.K.K.K.K.K.K.K.K.K.K.K.K.K.J.d.F.F.F.F.F.F.F.F.F.F.F.F.F.F.F.F.F.F.F.N.F I m.K.K.K.K.K.K.",
"K.K.K.K.K.K.K.K.K.K.K.K.K.K.K.K.K.K.K.K.K.K.K.K.K.K.K.K.K.K.K.K.K.J.d.F.F.F.F.F.F.F.F.F.F.F.F.F.F.F.F.F.F.F.V.F Y m.K.K.K.K.K.K.",
"K.K.K.K.K.K.K.K.K.K.K.K.K.K.K.K.K.K.K.K.K.K.K.K.K.K.K.K.K.K.K.K.K.H.d.F.F.z.*.*.i.x.F.i...p.i. .X.o.c.F.F.F.N.G Y m.K.K.K.K.K.K.",
"K.K.K.K.K.K.K.K.K.K.K.K.K.K.K.K.K.K.K.K.K.K.K.K.K.K.K.K.K.K.K.K.K.H.h.F.F.z.D | ] U v.o.D p.a.S o.Y T Z.F.F.V.I Y m.K.K.K.K.K.K.",
"K.K.K.K.K.K.K.K.K.K.K.K.K.K.K.K.K.K.K.K.K.K.K.K.K.K.K.K.K.K.K.K.K.J.h.F.F.c.G  ...D g.*.S a.g.D o.] G z.F.F.N.Y Y m.K.K.K.K.K.K.",
"K.K.K.K.K.K.K.K.K.K.K.K.K.K.K.K.K.K.K.K.K.K.K.K.K.K.K.K.K.K.K.K.K.J.h.F.F.c.G ]  .' x.*.D a.g.D  .] D z.F.F.N.Y Y m.K.K.K.K.K.K.",
"K.K.K.K.K.K.K.K.K.K.K.K.K.K.K.K.K.K.K.K.K.K.K.K.K.K.K.K.K.K.K.K.K.H.h.F.F.c.P U ' p.F.&.S a.s.D | ' ' V.F.F.V.I T m.K.K.K.K.K.K.",
"K.K.K.K.K.K.K.K.K.K.K.K.K.K.K.K.K.K.K.K.K.K.K.K.K.K.K.K.K.K.K.K.K.J.h.F.F.c.P |  .' v.i.S a.j.D [ i.j.F.F.F.N.I Y m.K.K.K.K.K.K.",
"K.K.K.K.K.K.K.K.K.K.K.K.K.K.K.K.K.K.K.K.K.K.K.K.K.K.K.K.K.K.K.K.K.H.h.F.F.x.U [ ..D j.i.S a.j.S ..F.F.F.F.F.V.I Y m.K.K.K.K.K.K.",
"K.K.K.K.K.K.K.K.K.K.K.K.K.K.K.K.K.K.K.K.K.K.K.K.K.K.K.K.K.K.K.K.K.J.h.F.F.g.' ] &.P p.o.D &.i.U  .F.F.F.F.F.N.I Y m.K.K.K.K.K.K.",
"K.K.K.K.K.K.K.K.K.K.K.K.K.K.K.K.K.K.K.K.K.K.K.K.K.K.K.K.K.K.K.K.K.H.g.F.F.F.x.v.Z.c.V.v.c.c.V.z.j.F.F.F.F.F.V.P Y m.K.K.K.K.K.K.",
"K.K.K.K.K.K.K.K.K.K.K.K.K.K.K.K.K.K.K.K.K.K.K.K.K.K.K.K.K.K.K.K.K.H.h.F.F.F.F.F.F.F.F.F.F.F.F.F.F.F.F.F.F.F.V.U Y m.K.K.K.K.K.K.",
"K.K.K.K.K.K.K.K.K.K.K.K.K.K.K.K.K.K.K.K.K.K.K.K.K.K.K.K.K.K.K.K.K.H.d.F.F.F.F.F.F.F.F.F.F.F.F.F.F.F.F.F.F.F.V.P Y m.K.K.K.K.K.K.",
"K.K.K.K.K.K.K.K.K.K.K.K.K.K.K.K.K.K.K.K.K.K.K.K.K.K.K.K.K.K.K.K.K.H.d.F.F.F.F.F.F.F.F.F.F.F.F.F.F.F.F.F.F.F.V.U E m.K.K.K.K.K.K.",
"K.K.K.K.K.K.K.K.K.K.K.K.K.K.K.K.K.K.K.K.K.K.K.K.K.K.K.K.K.K.K.K.K.K.d.F.F.F.F.F.F.F.F.F.F.F.F.F.F.F.F.F.F.F.N.I Y m.K.K.K.K.K.K.",
"K.K.K.K.K.K.K.K.K.K.K.K.K.K.K.K.K.K.K.K.K.K.K.K.K.K.K.K.K.K.K.K.K.H.d.F.F.F.F.F.F.F.F.F.F.F.F.F.F.F.F.F.F.F.V.I Y m.K.K.K.K.K.K.",
"K.K.K.K.K.K.K.K.K.K.K.K.K.K.K.K.K.K.K.K.K.K.K.K.K.K.K.K.K.K.K.K.K.H.d.F.F.F.F.F.F.F.F.F.F.F.F.F.F.F.F.F.F.F.V.G Y m.K.K.K.K.K.K.",
"K.K.K.K.K.K.K.K.K.K.K.K.K.K.K.K.K.K.K.K.K.K.K.K.K.K.K.K.K.K.K.K.K.H.d.F.F.F.F.F.F.F.F.F.F.F.F.F.F.F.F.F.F.F.V.I Y m.K.K.K.K.K.K.",
"K.K.K.K.K.K.K.K.K.K.K.K.K.K.K.K.K.K.K.K.K.K.K.K.K.K.K.K.K.K.K.K.K.H.d.F.F.F.F.F.F.F.F.F.F.F.F.F.F.F.F.F.F.F.V.I Y m.K.K.K.K.K.K.",
"K.K.K.K.K.K.K.K.K.K.K.K.K.K.K.K.K.K.K.K.K.K.K.K.K.K.K.K.K.K.K.K.K.H.d.F.F.F.F.F.F.F.F.F.F.F.F.F.F.F.F.F.F.F.N.I Y m.K.K.K.K.K.K.",
"K.K.K.K.K.K.K.K.K.K.K.K.K.K.K.K.K.K.K.K.K.K.K.K.K.K.K.K.K.K.K.K.K.H.d.F.F.F.F.F.F.F.F.Z.F.F.F.F.F.F.F.F.F.F.V.G Y m.K.K.K.K.K.K.",
"K.K.K.K.K.K.K.K.K.K.K.K.K.K.K.K.K.K.K.K.K.K.K.K.K.K.K.D.A.J.K.H.G.B.} $.( W } p.x.-.( W ! p.Z.F.F.F.F.F.F.Z.N.G Y m.K.K.K.K.K.K.",
"K.K.K.K.K.K.K.K.K.K.K.K.K.K.K.K.K.K.K.K.K.K.K.K.K.G.2.L t _ <.( ~ v 1 < j 0.7.6 @ j e.0.9.y H z.F.F.Z.F.F.F.V.I Y m.K.K.K.K.K.K.",
"K.K.K.K.K.K.K.K.K.K.K.K.K.K.K.K.K.K.K.K.K.K.K.K.C./ 6.9.7 9 x - h y.y.y.7.0.y.y.9.4.y.y.y.0.1 5 K l.F.F.F.F.N.G Y m.K.K.K.K.K.K.",
"K.K.K.K.K.K.K.K.K.K.K.K.K.K.K.K.K.K.K.K.K.K.J.m.L 4.y.r.7 i y.y.7.q.y.r.f 6 f y.y.y.y.y.y.4.0.r.0.r l.Z.F.F.N.P G m.K.K.K.K.K.K.",
"K.K.K.K.K.K.K.K.K.K.K.K.K.K.K.K.K.K.H.A.b.#.) 4 y r.y.r.q l y.y.y.y.y.7.h q.y.y.y.y.y.q.3.q.y.y.0.i e r ;.Z.V.P Y m.K.K.K.K.K.K.",
"K.K.K.K.K.K.K.K.K.K.K.K.K.K.K.K.H.b.` N w.q.r.q.4.9.y.r.B l y.y.y.y.y.y.y.y.y.y.y.y.y.y.3.% 0.y.5.0.y.r.3 $.V.G Y m.K.K.K.K.K.K.",
"K.K.K.K.K.K.K.K.K.K.K.K.K.K.J.m.( z y.y.y.r.0.q.y.y.y.r.C V y.y.y.y.y.y.y.y.y.y.y.y.y.y.y.k * y.y.y.y.r.z : { G I m.K.K.K.K.K.K.",
"K.K.K.K.K.K.K.K.K.K.K.K.J.b.W 2 < 1 0.y.y.3.f - y y.y.0.8 = 4.y.y.y.y.y.y.y.y.y.y.y.y.y.y.y.7.y.y.r.8.n b c o   + :.K.K.K.K.K.K.",
"K.K.K.K.K.K.K.K.H.D.D.S.:.m 0.r.y.y.q.r.r.y.y.r.& u y.y.q.5.u 7.y.y.r.3.; ; 3.y.y.y.y.y.y.r.0.w.k b v v v > : 2 0 e @.J.K.K.K.K.",
"K.K.K.K.K.K.M._ J m N t.x < r.y.y.0.; - ; 0.y.y.q.f y.y.y.y.y.q.y.y.y.q.r.7.* & 9.q.w.8.x n v v 2 > 2 v s c c s v s e ,.J.K.K.K.",
"K.K.K.K.K.M.^ g 7.y.y.y.y.5.g y.y.u f r.y.y.y.y.y.y.y.y.y.y.y.y.y.y.r.q.w.8.6.3 O v v v v v v c 2 : . X 0 v c s v v s w D.K.K.K.",
"K.K.K.K.M.u.r.9.r.y.y.y.y.y.r.y.y.r.y.y.y.y.r.r.r.r.q.0.w.8.6.M z n d b b v b v v c v b v v v v v v 0 o , b s s v s s 2 -.K.K.K.",
"K.K.H.m.~ 4.5.5.5.5.5.3.3.3.h h k j j n a a p p c 6 3 3 3 3 3 3 3 3 3 3 3 3 3 3 3 2 3 3 0 3 3 3 2 2 2 2 2 0 2 0 0 e 0 2 # D.K.K.",
"K.K.D.n.2.k.>.#.:.:.:.:.:.:.:.:.-.-.-.-.-.-.-.-.-.-.-.-.:.-.:.-.-.-.-.-.-.-.-.-.-.-.-.-.-.-.-.-.-.-.-.%.-.-.-.-.-.-.-.-.-.A.K.K.",
"K.K.K.K.K.K.K.K.K.K.K.K.K.K.K.K.K.K.K.K.K.K.K.K.K.K.K.K.K.K.K.K.H.K.K.K.K.K.K.K.K.K.K.K.K.K.K.K.K.K.K.K.K.K.K.K.K.K.K.K.K.K.K.K.",
"K.K.K.K.K.K.K.K.K.K.K.K.K.K.K.K.K.K.K.K.K.K.K.K.K.K.K.K.K.K.K.K.K.K.K.K.K.K.K.K.K.K.K.K.K.K.K.K.K.K.K.K.K.K.K.K.K.K.K.K.K.K.K.K.",
"K.K.K.K.K.K.K.K.K.K.K.K.K.K.K.K.K.K.K.K.K.K.K.K.K.K.K.K.K.K.K.K.K.K.K.K.K.K.K.K.K.K.K.K.K.K.K.K.K.K.K.K.K.K.K.K.K.K.K.K.K.K.K.K."
};
