/* XPM */
static char *_98_desapear1721200812[] = {
/* columns rows colors chars-per-pixel */
"64 64 185 2 ",
"   c #141312",
".  c #1C1C1C",
"X  c #251C16",
"o  c #242213",
"O  c #37281E",
"+  c #2B381B",
"@  c #232323",
"#  c #2A2927",
"$  c #2D3326",
"%  c #3D362B",
"&  c #383838",
"*  c #482D17",
"=  c #4A301A",
"-  c #53351D",
";  c #513E1E",
":  c #5C3A1E",
">  c #633E1F",
",  c #4B3424",
"<  c #473529",
"1  c #513520",
"2  c #5C3E25",
"3  c #553D2B",
"4  c #583E2C",
"5  c #483D35",
"6  c #503D30",
"7  c #633F21",
"8  c #3C4C2A",
"9  c #474119",
"0  c #665F1E",
"q  c #464824",
"w  c #554521",
"e  c #5D422B",
"r  c #42512D",
"t  c #545529",
"y  c #4E433E",
"u  c #574537",
"i  c #465039",
"p  c #634124",
"a  c #6C4523",
"s  c #64442B",
"d  c #674A29",
"f  c #6E4A2C",
"g  c #744B25",
"h  c #7C4E26",
"j  c #734C2A",
"k  c #6C5727",
"l  c #77512F",
"z  c #7C512C",
"x  c #634630",
"c  c #674831",
"v  c #694930",
"b  c #724E30",
"n  c #6E523C",
"m  c #7B5637",
"M  c #5F6229",
"N  c #5E772E",
"B  c #536A35",
"V  c #577333",
"C  c #7E7020",
"Z  c #363C46",
"A  c #393D45",
"S  c #393A4E",
"D  c #3C3D51",
"F  c #3C424C",
"G  c #3E4353",
"H  c #444444",
"J  c #464A44",
"K  c #4C4B4C",
"L  c #564A42",
"P  c #534C4A",
"I  c #4F5047",
"U  c #545B4D",
"Y  c #404554",
"T  c #424954",
"R  c #474A5A",
"E  c #444C5B",
"W  c #4D515B",
"Q  c #535254",
"!  c #5A5555",
"~  c #55565B",
"^  c #5C5A5B",
"/  c #63544A",
"(  c #7C5F48",
")  c #655D5A",
"_  c #6A5F5A",
"`  c #58634A",
"'  c #5C6154",
"]  c #60665A",
"[  c #716057",
"{  c #4A4E61",
"}  c #4E5265",
"|  c #535865",
" . c #5D5E63",
".. c #525669",
"X. c #555B6D",
"o. c #595E71",
"O. c #605F61",
"+. c #5D636F",
"@. c #5B6274",
"#. c #626263",
"$. c #6B6E67",
"%. c #66676A",
"&. c #6B6A6C",
"*. c #786E6A",
"=. c #6E716E",
"-. c #646A75",
";. c #6C6D74",
":. c #656B7D",
">. c #716E71",
",. c #6C717B",
"<. c #747273",
"1. c #77777B",
"2. c #78777A",
"3. c #7B7B7D",
"4. c #855426",
"5. c #8A5727",
"6. c #8D5A27",
"7. c #82552C",
"8. c #8A5729",
"9. c #87582F",
"0. c #8C592B",
"q. c #945D2B",
"w. c #995F2A",
"e. c #875C37",
"r. c #96602D",
"t. c #9C622C",
"y. c #A4662C",
"u. c #866348",
"i. c #807E67",
"p. c #817E72",
"a. c #63813B",
"s. c #6E9538",
"d. c #759E3E",
"f. c #968823",
"g. c #83B43B",
"h. c #B1A021",
"j. c #CAB722",
"k. c #8BC33F",
"l. c #F8DA1A",
"z. c #666E80",
"x. c #6C7484",
"c. c #6E7788",
"v. c #6F7889",
"b. c #757B84",
"n. c #7C7D83",
"m. c #747D8C",
"M. c #797E88",
"N. c #767F90",
"B. c #827E80",
"V. c #77808E",
"C. c #768191",
"Z. c #7A8494",
"A. c #7C8798",
"S. c #7E8999",
"D. c #848284",
"F. c #868589",
"G. c #8A898C",
"H. c #91908D",
"J. c #808997",
"K. c #8D8C90",
"L. c #818B9B",
"P. c #928E90",
"I. c #84909F",
"U. c #939295",
"Y. c #969599",
"T. c #9B9A9E",
"R. c #8793A3",
"E. c #9E9DA1",
"W. c #A09FA4",
"Q. c #A2A1A6",
"!. c #A7A6AB",
"~. c #A8A8AA",
"^. c #ACACAC",
"/. c #AFB0B0",
"(. c #B2B2B2",
"). c #BCBCBC",
"_. c #C3C4C2",
"`. c gray80",
"'. c #D3D3D3",
"]. c #D7D8D7",
"[. c #DCDCDC",
"{. c #E3E3E3",
"}. c #ECECEC",
"|. c #F4F4F4",
" X c #FCFCFC",
/* pixels */
"!.!.!.!.!.!.!.!.!.!.!.!.!.!.!.!.!.!.!.!.!.!.!.!.!.!.!.!.!.!.!.!.!.!.!.!.!.!.!.!.!.!.!.!.!.!.!.!.!.!.!.!.!.!.!.!.!.!.!.!.!.!.!.!.",
"!.!.!.!.!.!.!.!.!.!.!.!.!.!.!.!.^.!.!.!.!.!.!.!.!.!.!.!.!.!.!.!.!.!.!.!.!.!.!.!.!.!.!.!.!.!.!.!.!.!.!.!.!.!.!.!.!.!.!.!.!.!.!.!.",
"!.!.!.!.!.!.!.!.!.!.!.!.!.!.!.!.!.!.!.!.!.!.!.!.!.!.!.!.!.!.!.!.!.!.!.!.!.!.!.!.!.!.!.!.!.!.!.!.!.!.!.!.!.!.!.!.!.!.!.!.!.!.!.!.",
"!.!.!.!.!.!.!.!.!.!.!.!.!.!.!.!.!.!.!.!.!.!.!.!.!.!.!.!.!.!.!.!.!.!.!.!.!.!.!.!.!.!.!.!.!.!.!.!.!.!.!.!.!.!.!.!.!.!.!.!.!.!.!.!.",
"!.!.!.!.!.!.!.!.!.!.!.!.!.!.!.!.!.!.!.!.!.!.!.!.!.!.!.!.!.!.!.!.!.!.!.!.!.!.!.!.!.!.!.!.!.!.!.!.!.!.!.!.^.!.!.!.!.!.!.!.!.!.!.!.",
"!.!.!.!.!.!.!.!.!.!.!.!.!.!.!.!.!.!.!.!.!.!.!.!.!.!.!.!.!.!.!.!.!.!.!.!.!.!.!.!.!.!.!.!.!.!.!.!.!.!.!.!.!.!.!.!.!.!.!.!.!.!.!.!.",
"!.!.!.!.!.!.!.!.!.!.!.!.!.!.!.!.!.!.!.!.!.!.!.!.!.!.!.!.!.!.!.!.!.!.!.!.!.!.!.!.!.!.!.!.!.!.!.!.!.!.!.!.!.!.!.!.!.!.!.!.!.!.!.!.",
"!.!.!.!.!.!.!.!.!.!.!.!.!.!.!.!.!.!.!.!.!.!.!.!.!.!.!.!.!.!.!.!.!.!.!.!.!.!.!.!.!.!.!.!.!.!.!.!.!.!.!.!.!.!.!.!.!.!.!.!.!.!.!.!.",
"!.!.!.!.!.!.!.!.!.!.!.!.!.!.!.!.!.!.!.!.!.!.!.!.!.!.!.!.!.!.!.!.!.!.!.!.!.!.!.!.!.!.!.!.!.!.!.!.!.!.!.!.!.!.!.!.!.!.!.!.!.!.!.!.",
"!.!.!.!.!.!.!.!.!.!.!.!.!.!.!.!.!.!.!.!.!.!.!.!.!.!.!.!.!.!.!.!.!.!.!.!.!.!.!.!.!.!.!.!.!.!.!.!.!.!.!.!.!.!.!.!.!.!.!.!.!.!.!.!.",
"!.!.!.!.!.!.!.!.!.!.!.!.!.!.!.!.!.!.!.!.!.!.!.!.!.!.!.!.!.!.!.!.!.!.!.!.!.!.!.!.!.!.!.!.!.!.!.!.!.!.!.!.!.!.!.!.!.!.!.!.!.!.!.!.",
"!.!.!.!.!.!.!.!.!.!.!.!.!.!.!.!.!.!.!.!.!.!.!.!.!.!.!.!.!.!.!.!.!.!.!.!.!.!.!.!.!.!.!.!.!.!.!.!.!.!.!.!.!.!.!.!.!.!.!.!.!.!.!.!.",
"!.!.!.!.!.!.!.!.!.!.!.!.!.!.!.!.!.!.!.!.!.!.!.!.!.!.!.!.!.!.!.!.!.!.!.!.!.!.!.!.!.!.!.!.!.!.!.!.!.!.!.!.^.!.!.!.!.!.!.!.!.!.!.!.",
"!.!.!.!.!.!.!.!.!.!.!.!.!.!.!.!.!.!.!.!.!.!.!.!.!.!.!.!.!.!.!.!.!.!.!.!.!.!.!.!.!.!.!.!.!.!.!.!.!.!.!.!.!.!.!.!.!.!.!.!.!.!.!.!.",
"!.!.!.!.!.!.!.!.!.!.!.!.!.!.!.!.!.!.!.!.!.!.!.!.!.!.!.!.!.!.!.!.^.!.!.!.!.!.!.!.!.!.!.!.!.!.!.!.!.!.!.!.!.!.!.!.!.!.!.!.!.!.!.!.",
"!.!.!.!.!.!.!.!.!.!.!.!.!.!.!.!.!.!.!.!.!.!.!.!.!.!.!.!.!.!.!.!.!.!.!.!.!.!.!.!.!.!.!.W.W.W.!.W.!.!.!.!.!.!.!.!.!.!.!.!.!.!.!.!.",
"!.!.!.!.!.!.!.!.!.!.!.!.!.!.!.!.!.!.!.!.!.!.!.!.!.!.!.!.!.!.!.^.!.!.!.!.!.!.!.Q.E.G.b.,.,.,.-. .| &.K.!.!.!.!.!.!.!.!.!.!.!.!.!.",
"!.!.!.!.!.!.!.!.!.!.!.!.!.!.!.!.!.!.!.!.!.!.!.!.!.!.!.!.!.!.!.!.!.!.!.!.!.!.W.F.,.M.L.R.I.I.I.R.N.W & %.T.!.!.!.!.!.!.!.!.!.!.!.",
"!.!.!.!.!.!.!.!.!.!.!.!.!.!.!.!.!.!.!.!.!.!.!.!.!.!.!.!.!.!.!.!.!.!.!.!.!.E.1.m.I.R.R.R.I.R.R.R.R.R.c.A Q U.!.!.!.!.!.!.!.!.!.!.",
"!.!.!.!.!.!.!.!.!.!.!.!.!.!.!.!.!.!.!.!.!.!.!.!.!.!.!.!.!.!.!.!.!.!.!.!.E.1.Z.R.I.R.R.R.R.R.R.R.R.R.R.N.A T U.!.!.!.!.!.!.!.!.!.",
"!.!.!.!.!.!.!.!.!.!.!.!.!.!.!.!.!.!.!.!.!.!.!.!.!.!.!.!.!.!.!.!.!.!.!.Q.n.N.R.R.R.R.R.R.R.R.R.R.R.R.R.R.M.Z W T.!.!.!.!.!.!.!.!.",
"!.!.!.!.!.!.!.!.!.!.!.!.!.!.!.!.!.!.!.!.!.!.!.!.!.!.!.!.!.!.!.!.!.!.!.Y.b.R.R.R.R.R.R.R.R.R.R.R.R.R.R.R.R.@.S ;.Q.!.!.!.!.!.!.!.",
"!.!.!.!.!.!.!.!.!.!.!.!.!.!.!.!.!.!.!.!.!.!.!.!.!.!.!.!.!.!.!.!.!.!.Q.M.I.R.R.R.R.R.R.R.R.R.R.R.R.R.R.R.R.J.A W Y.!.!.!.!.!.!.!.",
"!.!.!.!.!.^.!.!.!.!.!.!.!.!.!.!.!.!.!.!.!.!.!.!.!.!.!.!.!.!.!.!.!.!.T.M.R.R.R.R.R.R.R.R.R.R.R.R.R.R.R.R.R.R.| Y ;.!.!.!.!.!.!.!.",
"!.!.!.!.!.!.!.!.!.!.!.!.!.!.!.!.!.!.!.!.!.!.!.!.!.!.!.!.!.!.!.!.!.Q.G.J.R.R.R.R.R.R.R.R.R.R.R.R.R.R.R.R.R.I.x.F ~ W.!.!.!.!.!.!.",
"!.!.!.!.!.!.!.!.!.!.!.!.!.!.!.!.!.!.!.!.!.!.!.!.!.!.!.!.!.!.!.!.!.!.n.I.R.R.R.R.R.R.R.R.R.R.R.R.R.R.R.R.R.I.Z.F R Y.!.!.!.!.!.!.",
"!.!.!.!.!.!.!.!.!.!.!.!.!.!.!.!.!.!.!.!.!.!.!.!.!.!.!.!.!.!.!.!.!.W.b.R.R.R.R.R.R.R.R.R.R.R.R.R.R.R.R.R.R.R.J.F T G.!.!.!.!.!.!.",
"!.!.!.!.!.!.!.!.!.!.!.!.!.!.!.!.!.!.!.!.!.!.!.!.!.!.!.!.!.!.!.!.!.W.b.R.R.R.R.R.R.R.R.R.R.R.R.R.R.R.R.R.R.R.L.F E G.!.!.!.!.!.!.",
"^.!.!.!.!.!.!.!.!.!.!.!.!.!.!.!.!.!.!.!.!.!.!.!.!.!.!.!.!.!.!.!.!.W.b.R.R.Z.:.z.z.A.I.z.o.x.x.X.+.@.A.R.R.R.S.G E G.!.!.!.!.!.!.",
"!.!.!.!.!.!.!.!.!.!.!.!.!.!.!.!.!.!.!.W.E.Q.!.!.!.!.!.!.!.!.!.!.!.W.M.R.R.N.D } { { S.o.S x.c.S @.E E I.R.R.L.T { G.!.!.!.!.!.!.",
"!.!.!.!.!.!.!.!.!.!.!.!.!.!.!.!.^.!.U.2.G.&.Y.!.!.!.!.!.!.!.!.!.!.W.m.R.R.A.G ..X.D v.:.S c.v.D @.} G C.R.R.S.E E G.!.!.!.!.!.!.",
"!.!.!.!.!.!.!.!.!.!.!.!.!.!.!.W.E.!.b.'. X[.2.!.!.!.!.!.!.!.!.!.!.Q.M.R.R.S.D ..X.{ A.z.S c.m.D o.} D C.R.R.L.G E G.!.!.!.!.!.!.",
"!.!.!.!.!.!.!.!.!.!.!.!.!.!.G.G.T.&.#.}. X XU.Y.U.D.E.!.!.!.!.!.!.W.M.R.R.A.Y R { x.I.z.S c.m.D ..{ } L.R.R.J.T E G.!.!.!.!.!.!.",
"!.!.!.!.!.!.!.!.!.!.!.!.!.E.p.}. X].J ]. X XD.^ G.~.>.Y.!.!.!.!.!.Q.M.R.R.A.G ..X.R S.z.S c.m.D } z.N.R.R.R.L.T E G.!.!.!.!.!.!.",
"!.!.!.!.!.!.!.!.!.!.!.!.!.Y.V. X X XU.<. X[.*.(.|. X'.<.!.!.!.!.!.Q.M.R.R.N.Y ..o.D N.:.S c.v.D o.R.R.R.R.R.J.R { G.!.!.!.!.!.!.",
"!.!.!.!.!.!.!.!.!.!.!.!.!.Q.) ). X X(.# p.^ Q. X X}.^.n.!.!.!.!.!.W.M.R.R.v.{ ..:.Y x.@.D :.x.D ..R.R.R.R.R.L.Y E G.!.!.!.!.!.!.",
"!.!.!.!.!.!.!.!.!.!.!.!.!.!.E.Q G._.i.f.j.0 =.~.D.K 8 Y.!.!.!.!.!.W.b.R.R.R.L.S.R.A.L.S.Z.A.L.C.N.R.R.R.R.R.L.Y E G.!.!.!.!.!.!.",
"!.!.!.!.!.!.!.!.!.!.!.!.!.!.U.O.. o f.l.l.j.o H K K Q ~ K.!.!.!.!.W.b.R.R.R.R.R.R.R.R.R.R.R.R.R.R.R.R.R.R.R.L.Y E G.!.!.!.!.!.!.",
"!.!.!.!.!.!.!.!.!.!.!.!.Q.<.&.~.`.U.f.l.l.h.o E.|.|.|./.! !.!.!.!.W.b.R.R.R.R.R.R.R.R.R.R.R.R.R.R.R.R.R.R.R.L.R E G.!.!.!.!.!.!.",
"!.!.!.!.!.!.!.!.!.!.!.!.D.#.{. X X[.% C f.;   @ b.)._.B.;.Q.!.Q.K.W.m.R.R.R.R.R.R.R.R.R.R.R.R.R.R.R.R.R.R.R.L.Y E G.!.!.!.!.!.!.",
"!.!.!.!.!.!.!.!.!.!.!.!.G.H `.|.|.^.$ & @ . T.(.%.. & B.E.!.E.=.i B.M.R.R.R.R.R.R.R.R.R.R.R.R.R.R.R.R.R.R.R.L.T E K.!.!.!.!.!.!.",
"!.!.!.!.!.!.!.!.!.!.!.!.~.;.K #.+.@ Q [._.& ]. X X/.Q Q.!.Q.$.a.s.&.b.R.R.R.R.R.R.R.R.R.R.R.R.R.R.R.R.R.R.R.J.G E G.!.!.!.!.!.!.",
"!.!.!.!.!.!.!.!.!.!.!.!.!.!.T.Y.H.K ~. X|.K ^. X X}.#.E.!.2.V k.s.>.b.R.R.R.R.R.R.R.R.R.R.R.R.R.R.R.R.R.R.R.L.T E G.!.!.!.!.!.!.",
"!.!.!.!.!.!.!.!.!.!.!.!.!.!.!.!.T.&.{. X}.K H ]. X_.& 3.T.` g.k.B F.b.R.R.R.R.R.R.R.R.R.R.R.R.R.R.R.R.R.R.R.L.T E G.!.!.!.!.!.!.",
"!.!.!.!.!.!.!.!.!.!.!.!.!.!.!.!.E.^ }. X).Q n.^ 1.K $ J <.B k.d.] T.b.R.R.R.R.R.R.R.R.R.R.R.R.R.R.R.R.R.R.R.S.G G G.!.!.!.!.!.!.",
"!.!.!.!.!.!.!.!.!.!.!.!.!.!.!.!.!.#.G.(.#.D.!.Q.Y.Y.%.8 @ N d.` U.W.b.R.R.R.R.R.R.R.R.R.R.R.R.R.R.R.R.R.R.R.L.T E G.!.!.!.!.!.!.",
"!.!.!.!.!.!.!.!.!.!.!.!.!.!.!.!.!.T.&.%.G.~.!.!.!.!.K.B + $ ' K.!.W.b.R.R.R.R.R.R.R.R.R.R.R.R.R.R.R.R.R.R.R.I.G E G.!.!.!.!.!.!.",
"!.!.!.!.!.!.!.!.!.!.!.!.!.!.!.!.!.!.!.Q.~.!.!.!.!.!.W.U B ] E.Q.E.K. .-.) !  .x.Z.;.) Q ^ x.R.R.R.R.R.R.R.R.S.G E G.!.!.!.!.!.!.",
"!.!.!.!.!.!.!.!.!.!.!.!.!.!.!.!.!.!.!.!.!.!.!.!.!.T.p.P r I 2.^ L c 2 1 g q.8.s % j q.w.8.p K Z.R.R.R.R.R.R.L.G E G.!.!.!.!.!.!.",
"!.!.!.!.!.!.!.!.!.!.!.!.!.!.!.!.!.!.!.!.!.!.!.!.U.) 7.8.9 w h : 4.y.y.y.8.w.y.y.8.4.y.y.y.q.2 < I V.R.R.R.R.L.G T G.!.!.!.!.!.!.",
"!.!.!.!.!.!.!.!.!.!.!.!.!.!.!.!.!.!.!.!.!.!.!.G./ 0.y.r.q k y.y.8.w.y.w.a 7 a y.y.y.y.y.y.8.q.y.q.u V.I.R.R.L.G E G.~.!.!.!.!.!.",
"!.!.!.!.!.!.!.!.!.!.!.!.!.!.!.!.!.!.W.U.B.*._ 5 7 r.y.t.t k y.y.y.y.y.8.4.t.y.y.y.y.y.w.4.t.y.y.r.a u u ,.I.L.G G K.~.~.!.!.!.!.",
"!.!.!.!.!.!.!.!.!.!.!.!.!.!.!.!.W.B.[ m q.w.t.w.8.0.y.t.M k y.y.y.y.y.y.y.y.y.y.y.y.y.y.7.* q.y.0.6.y.t.4 -.S.G G G.!.!.!.!.!.!.",
"!.!.!.!.!.!.!.!.!.!.!.!.!.!.Q.G.) m y.y.y.t.q.w.y.y.y.w.N m y.y.y.y.y.y.y.y.y.y.y.y.y.y.y.h - y.y.y.y.t.z <  .F E F.!.!.!.!.!.!.",
"!.!.!.!.!.!.!.!.!.!.!.!.Q.D.! 6 1 7 6.y.y.7.a 2 7 y.y.w.w w 6.y.y.y.y.y.y.y.y.y.y.y.y.y.y.y.9.y.y.r.9.b c s O . $ 1.!.~.!.!.!.!.",
"!.!.!.!.!.!.!.!.E.T.T.Y.<.n q.t.y.y.t.w.t.y.y.t.1 7 y.y.t.6.a 8.y.y.y.4.> > 4.y.y.y.y.y.y.t.w.9.l f v v c < < 3 4 y &.!.!.!.!.!.",
"!.!.!.!.!.Q.K._ L n e.u.z - t.y.y.w.7 > > q.y.y.y.> y.y.y.y.y.q.y.y.y.w.w.8.1 = 9.t.0.e.z b v c 3 , 3 x c x x c d c 4 1.!.!.!.!.",
"!.!.!.!.!.P.( a 8.y.y.y.y.5.a y.y.a a t.y.t.y.y.y.y.y.y.y.y.y.y.y.y.t.w.r.9.7.4 * x v v c c c x 3 < X O s c c v c c c H T.!.!.!.",
"!.!.!.!.P.u.w.q.y.y.y.y.y.y.t.y.y.t.y.y.y.y.y.t.y.w.w.r.e.9.7.7.b b f v v c c c x x c x c c c c s x e O < c s v c c v 3 >.Q.!.!.",
"!.!.W.G./ 0.5.q.5.5.5.4.5.4.h h h j j b a s 7 x 7 4 4 4 4 4 4 4 4 4 4 4 4 4 4 4 4 4 4 4 4 4 4 4 4 4 4 4 3 4 4 4 4 4 4 4 5 T.!.!.",
"!.!.T.F.B.B.2.<.<.*.<.<.=.<.>.>.>.>.>.>.>.>.>.>.1.>.>.>.<.>.>.>.>.>.>.>.>.<.>.>.>.>.>.>.>.>.>.>.;.>.>.>.>.>.>.>.;.>.>.>.;.Y.!.!.",
"!.!.!.!.!.!.!.!.!.!.!.!.~.!.!.!.!.!.!.!.!.!.!.!.!.!.!.!.!.!.!.!.!.!.!.!.W.!.!.!.!.!.!.!.!.!.!.!.!.!.!.!.!.!.!.!.!.!.!.!.!.!.!.!.",
"!.!.!.!.!.!.!.!.!.!.!.!.!.!.!.!.!.!.!.!.!.!.!.!.!.!.!.!.!.!.!.!.!.!.!.!.!.!.!.!.!.!.!.!.!.!.!.!.!.!.!.!.!.!.!.!.!.!.!.!.!.!.!.!.",
"!.!.!.!.!.!.!.!.!.!.!.!.!.!.!.!.!.!.!.!.!.!.!.!.!.!.!.!.!.!.!.!.!.!.!.!.!.!.!.!.!.!.!.!.!.!.!.!.!.!.!.!.!.!.!.!.!.!.!.!.!.!.!.!."
};
