/* XPM */
static char *__agu_BHA1721706382[] = {
/* columns rows colors chars-per-pixel */
"64 64 216 2 ",
"   c #02012A",
".  c #0A0A2E",
"X  c #030233",
"o  c #06033B",
"O  c #171735",
"+  c #1F1E3B",
"@  c #2A2C3D",
"#  c #2D313E",
"$  c #4B3F3B",
"%  c #644836",
"&  c #080548",
"*  c #060457",
"=  c #0C0A57",
"-  c #070459",
";  c #09055B",
":  c #0C095C",
">  c #110C5C",
",  c #16125C",
"<  c #292942",
"1  c #2F3342",
"2  c #333647",
"3  c #34315A",
"4  c #0A0662",
"5  c #0C0867",
"6  c #0D096B",
"7  c #120D64",
"8  c #130C6B",
"9  c #161263",
"0  c #1A146D",
"q  c #120B74",
"w  c #120E75",
"e  c #1A0E74",
"r  c #130C79",
"t  c #211C6A",
"y  c #271D79",
"u  c #2A276B",
"i  c #312F6B",
"p  c #35306E",
"a  c #2B2776",
"s  c #3A3577",
"d  c #403F53",
"f  c #403C76",
"g  c #3D4253",
"h  c #5D4847",
"j  c #464958",
"k  c #454C5D",
"l  c #555658",
"z  c #5F5F5D",
"x  c #6F574F",
"c  c #6A5656",
"v  c #7B624B",
"b  c #64615C",
"n  c #796655",
"m  c #746B5C",
"M  c #474F61",
"N  c #484F60",
"B  c #4A5364",
"V  c #4D5669",
"C  c #4E586A",
"Z  c #545767",
"A  c #4A487A",
"S  c #535D71",
"D  c #57567A",
"F  c #684964",
"G  c #6B5665",
"H  c #7D5D6F",
"J  c #566173",
"K  c #5A6475",
"L  c #5A677A",
"P  c #5C697C",
"I  c #696766",
"U  c #766E60",
"Y  c #777466",
"T  c #7E7B6D",
"R  c #666A77",
"E  c #8B684A",
"W  c #946F4C",
"Q  c #98734F",
"!  c #836B55",
"~  c #87735D",
"^  c #825F71",
"/  c #887A66",
"(  c #937C64",
")  c #836573",
"_  c #A5865D",
"`  c #86816D",
"'  c #8B846D",
"]  c #938264",
"[  c #95856C",
"{  c #8B8975",
"}  c #948875",
"|  c #94927B",
" . c #A68A61",
".. c #A68D66",
"X. c #AC9468",
"o. c #B09769",
"O. c #B39A6B",
"+. c #AB9A72",
"@. c #B6A373",
"#. c #BAAA7B",
"$. c #210F86",
"%. c #220F88",
"&. c #271686",
"*. c #25118A",
"=. c #29148E",
"-. c #2B1692",
";. c #2E1895",
":. c #321C94",
">. c #351D9A",
",. c #32238C",
"<. c #38229A",
"1. c #3C25A0",
"2. c #483987",
"3. c #4B3697",
"4. c #4327A5",
"5. c #442AA4",
"6. c #4B27AE",
"7. c #4D29AF",
"8. c #502DAD",
"9. c #4A31A8",
"0. c #4E2BB0",
"q. c #522DB3",
"w. c #5E29B2",
"e. c #5432B5",
"r. c #5B32B5",
"t. c #5839B6",
"y. c #5734B8",
"u. c #5936B9",
"i. c #5C3BBA",
"p. c #602CAE",
"a. c #622CB4",
"s. c #6531B5",
"d. c #6739B2",
"f. c #6A3DB3",
"g. c #6634B9",
"h. c #6A35BA",
"j. c #653ABC",
"k. c #6D3ABC",
"l. c #703CBE",
"z. c #51488F",
"x. c #655C97",
"c. c #5F6D82",
"v. c #6F6E8B",
"b. c #637286",
"n. c #67768A",
"m. c #6A7A8E",
"M. c #7A798A",
"N. c #6B659A",
"B. c #6D7D92",
"V. c #5B41B6",
"C. c #6348A7",
"Z. c #7153AB",
"A. c #6D48B5",
"S. c #6241BC",
"D. c #714CB3",
"F. c #7445BC",
"G. c #6852BA",
"H. c #7759B2",
"J. c #7770A4",
"K. c #7E63B2",
"L. c #6E3FC0",
"P. c #723FC0",
"I. c #6848C1",
"U. c #7441C2",
"Y. c #7B49C4",
"T. c #817F9A",
"R. c #825BB6",
"E. c #8572AF",
"W. c #8875AE",
"Q. c #826CB0",
"!. c #8574B3",
"~. c #8455C6",
"^. c #8F63CA",
"/. c #A57DD5",
"(. c #6F8094",
"). c #718397",
"_. c #74869A",
"`. c #77899D",
"'. c #788A9E",
"]. c #7A8DA1",
"[. c #7E91A5",
"{. c #968D86",
"}. c #959689",
"|. c #8A8998",
" X c #97999C",
".X c #A29F95",
"XX c #BAAC82",
"oX c #BFB483",
"OX c #A8A596",
"+X c #A5A49B",
"@X c #B3AF95",
"#X c #9186AE",
"$X c #948AAE",
"%X c #8194A7",
"&X c #8195A8",
"*X c #9693A7",
"=X c #9E9DA3",
"-X c #9B93AE",
";X c #9E9AAC",
":X c #9185B1",
">X c #A09DA4",
",X c #A19DAC",
"<X c #A09CB0",
"1X c #9BA3A5",
"2X c #A4A2A4",
"3X c #A5AAA0",
"4X c #A7A6AB",
"5X c #AEB3B0",
"6X c #C1B787",
"7X c #C2BB8C",
"8X c #C6C08E",
"9X c #C6C192",
"0X c #C8C394",
"qX c #C6C4A8",
"wX c #C9CBB6",
"eX c #C7CBC2",
/* pixels */
"4X4X4X4X4X4X4X4X4X4X4X4X4X4X4X4X4X4X4X4X4X4X4X4X4X4X4X4X4X4X4X4X4X4X4X4X4X4X4X4X4X4X4X4X4X4X4X4X4X4X4X4X4X4X4X4X4X4X4X4X4X4X4X4X",
"4X4X4X4X4X4X4X4X4X4X4X4X4X4X4X4X4X4X4X4X4X4X4X4X4X4X4X4X4X4X4X4X4X4X4X4X4X4X4X4X4X4X4X4X4X4X4X4X4X4X4X4X4X4X4X4X4X4X4X4X4X4X4X4X",
"4X4X4X4X4X4X4X4X4X4X4X4X4X4X4X4X4X4X4X5X4X4X4X4X4X4X4X4X4X4X4X4X4X4X4X4X4X4X4X4X4X4X4X4X4X4X4X4X4X4X4X4X4X4X4X4X4X4X4X4X4X4X4X4X",
"4X4X4X4X4X4X4X4X4X4X4X4X4X4X4X4X4X4X4X4X4X4X4X4X4X4X4X4X4X4X4X4X4X4X4X4X4X4X4X4X4X4X4X4X4X4X4X4X4X4X4X4X4X4X4X4X4X4X4X4X4X4X4X4X",
"4X4X4X4X4X4X4X4X4X4X4X4X4X4X4X4X4X4X4X4X4X4X4X4X4X4X4X4X4X4X4X4X4X4X4X4X4X4X4X4X4X4X4X4X4X4X4X4X4X4X4X4X4X4X4X4X4X4X4X4X4X4X4X4X",
"4X4X4X4X4X4X4X4X4X4X4X4X4X4X4X4X4X4X4X4X4X4X4X4X4X4X4X4X4X4X4X4X4X4X4X4X4X4X4X4X4X4X4X4X4X4X4X4X4X4X4X4X4X4X4X4X4X4X4X4X4X4X4X4X",
"4X4X4X4X4X4X4X4X4X4X4X4X4X4X4X4X4X4X4X4X4X4X4X4X4X4X4X4X4X4X4X4X4X4X4X4X4X4X4X4X4X4X4X4X4X4X4X4X4X4X4X4X4X4X4X4X4X4X4X4X4X4X4X4X",
"4X4X4X4X4X4X4X4X4X4X4X4X4X4X4X4X4X4X4X4X4X4X4X4X4X4X4X4X4X4X4X4X4X4X4X4X4X4X4X4X4X4X4X4X4X4X4X4X4X4X4X4X4X4X4X4X4X4X4X4X4X4X4X4X",
"4X4X4X4X4X4X4X4X4X4X4X4X4X4X4X4X4X4X4X4X4X4X4X4X4X4X4X4X4X4X4X4X4X4X4X4X5X4X4X4X4X4X4X4X4X4X4X4X4X4X4X4X4X4X4X4X4X4X4X4X4X4X4X4X",
"4X4X4X4X4X4X4X4X4X4X4X4X4X4X4X4X4X4X4X4X4X4X4X4X4X4X4X4X4X4X4X4X4X4X4X4X4X4X4X4X4X4X4X4X4X4X4X4X4X4X4X4X4X4X4X4X4X4X4X4X4X4X5X4X",
"4X4X4X4X4X4X4X4X4X4X4X4X4X4X4X4X4X4X4X4X4X4X4X4X4X4X4X4X4X4X4X4X4X4X4X4X4X4X4X4X4X4X4X4X4X4X4X4X4X4X4X4X4X4X4X4X4X4X4X4X4X4X4X4X",
"4X4X4X4X4X4X4X4X4X4X4X4X4X4X4X4X4X4X4X4X4X4X4X4X4X4X4X4X4X4X4X4X4X4X4X4X4X4X4X4X4X4X4X4X4X4X4X4X4X4X4X4X4X4X4X4X4X4X4X4X4X4X4X4X",
"4X4X4X4X4X4X4X4X4X4X4X4X4X4X4X4X4X4X4X4X4X4X4X4X4X4X4X4X4X4X4X4X4X4X4X4X4X4X4X4X4X4X4X4X4X4X4X4X4X4X4X4X4X4X4X4X4X4X4X4X4X4X4X4X",
"4X4X4X4X4X4X4X4X4X4X4X4X4X4X4X4X4X4X4X4X4X4X4X4X4X4X4X4X4X4X4X4X4X4X4X4X4X4X4X4X4X4X4X4X4X4X4X4X4X4X4X4X4X4X4X4X4X4X4X4X4X4X4X4X",
"4X4X4X4X4X4X4X4X4X4X4X4X4X4X4X4X4X4X4X4X4X4X4X4X4X4X4X4X4X4X4X4X4X4X4X4X4X4X4X4X4X4X4X4X4X4X4X4X4X4X4X4X4X4X4X4X4X4X4X4X4X4X4X4X",
"4X4X4X4X4X4X4X4X4X4X4X4X4X4X4X4X4X4X4X4X4X4X4X4X4X4X4X4X4X4X4X4X4X4X4X4X4X4X4X4X4X4X4X4X4X4X4X4X4X4X4X4X4X4X4X4X4X4X4X4X4X4X4X4X",
"4X4X4X4X4X4X4X4X4X4X4X4X4X4X4X4X4X4X4X4X4X4X4X4X4X4X4X4X4X4X4X4X4X4X4X4X4X4X4X4X4X4X4X4X4X4X4X4X4X4X4X4X4X4X4X4X4X4X4X4X4X4X4X4X",
"4X4X4X4X4X4X4X4X4X4X4X4X4X4X4X4X4X4X4X4X4X4X4X4X4X4X4X4X4X4X4X4X4X4X4X4X4X4X4X4X4X4X4X4X4X4X4X4X4X4X4X4X4X4X4X4X4X4X4X4X4X4X4X4X",
"4X4X4X4X4X4X4X4X4X4X4X4X4X4X4X4X4X4X4X4X4X4X4X4X4X4X4X4X4X4X4X4X4X4X4X4X4X4X4X4X4X4X4X4X4X4X4X4X4X4X4X4X4X4X4X4X4X4X4X4X4X4X4X4X",
"4X4X4X4X4X4X4X4X4X4X4X4X4X4X4X4X4X4X4X4X4X4X4X4X4X4X4X4X4X4X4X4X4X4X4X4X4X4X4X4X4X4X4X4X4X4X4X4X4X4X4X4X4X4X4X4X4X4X4X4X4X4X4X4X",
"4X4X4X4X4X4X4X4X4X4X4X4X4X4X4X4X4X4X4X4X4X4X4X4X4X4X4X4X4X4X4X4X4X4X4X4X4X4X4X4X4X4X4X4X4X4X4X4X4X4X4X4X4X4X4X4X4X4X4X4X4X4X4X4X",
"4X4X4X4X4X4X4X4X4X4X4X4X4X4X4X4X4X4X4X4X4X4X4X4X4X4X4X4X4X4X4X4X4X4X4X4X4X4X4X4X4X4X4X4X4X4X4X4X4X4X4X4X4X4X4X4X4X4X4X4X4X4X4X4X",
"4X4X4X4X4X4X4X4X4X4X4X4X4X4X4X4X4X4X4X4X4X4X4X4X4X4X4X4X4X4X4X4X4X4X4X4X4X4X4X4X4X4X4X4X4X4X4X4X4X4X4X4X4X4X4X4X4X4X4X4X4X4X4X4X",
"4X4X4X4X4X4X4X4X4X4X4X4X4X4X4X4X4X4X4X4X4X4X4X4X4X4X4X4X4X4X4X4X4X4X4X4X4X4X4X4X4X4X4X4X4X4X4X4X4X4X4X4X4X4X4X4X4X4X4X4X4X4X4X4X",
"4X4X4X4X4X4X4X4X4X4X4X4X4X4X4X4X4X4X4X4X4X4X4X4X4X4X4X4X4X4X4X4X4X4X4X4X4X4X4X4X4X4X4X4X4X4X4X4X4X4X4X4X4X4X4X4X4X4X4X4X4X4X4X4X",
"4X4X4X4X4X4X4X4X4X4X4X4X4X4X4X4X4X4X4X4X4X4X4X4X4X4X4X4X4X4X4X4X4X4X4X4X4X4X4X4X4X4X4X4X4X4X4X4X4X4X4X4X4X4X4X4X4X4X4X5X4X4X4X4X",
"4X4X4X4X4X4X4X4X5X4X4X4X4X4X4X4X4X4X4X4X4X4X4X4X4X4X4X4X4X4X4X4X4X4X4X4X4X4X4X4X4X4X4X4X4X4X4X4X4X4X4X4X4X4X4X4X4X4X4X4X4X4X4X4X",
"4X4X4X4X4X4X4X4X4X4X4X4X4X4X4X4X4X4X4X4X4X4X4X4X+X2X4X4X4X4X4X2X4X2X4X4X4X4X4X+X2X4X4X4X4X4X4X4X4X4X4X4X4X4X4X4X4X4X4X4X4X4X4X4X",
"4X4X4X4X4X4X4X4X4X4X4X4X4X4X4X4X4X4X4X4X4X4X4X.X[ [ .XOXOXOX+X| ] | OXOXOX+XOX[ ( <X4X4X4X4X4X4X4X4X4X4X4X4X4X4X4X4X4X4X4X4X4X4X",
"4X4X4X4X4X4X4X4X4X4X4X4X4X4X4X4X4X4X4X4X4X4X4X{.! v b z z z b n ! v b b c z b n E {.4X4X4X4X4X4X4X4X4X4X4X4X4X4X4X4X4X4X4X4X4X4X",
"4X4X4X4X4X4X4X4X4X4X4X4X4X4X4X4X4X4X4X4X4X4X4X( ..[ K K J K K ` #.} K K K K J ' +./ 4X4X4X4X4X4X4X4X4X4X4X4X4X4X4X4X4X4X4X4X4X4X",
"4X4X4X4X4X4X4X4X4X4X4X4X4X4X4X4X4X4X4X4X4X4X+X] @X1X`.%X%X%X%X+XqX+X%X%X%X%X'.1X7X( +X4X4X4X4X4X4X4X4X4X4X4X4X4X4X4X4X4X4X4X4X4X",
"4X4X4X4X4X4X4X4X4X4X4X4X4X4X4X4X4X4X4X4X4X4X+X[ qX1X_.[.[.[.[.3XwX5X[.&X&X[.`.1XwX} >X4X4X4X4X4X4X4X4X4X4X4X4X4X4X4X4X4X4X4X4X4X",
"4X4X4X4X4X4X4X4X4X4X4X4X4X4X4X4X4X4X4X4X,X,X>X( 0X| J n._.).(.}.qX1XR ).`.(.K }.0X} >X4X4X4X4X4X4X4X4X4X4X4X4X4X4X4X4X4X4X4X4X4X",
"4X4X4X4X4X4X4X4X4X4X4X4X4X4X4X4X,X,X$XW.Q.D.R.( 9X| (.(.].[.`.}.0X.X`.].`.).(.| 9X) Z.K.:X-X,X4X4X4X4X4X4X4X4X4X4X4X4X4X4X4X4X4X",
"4X4X4X4X4X4X4X4X4X4X4X4X4X,X$XQ.Z.f.h.l.l.h.Z.( 6X` L (.(.(.(.{ @.' (.(.(.(.L ` 6X^ p.a.w.a.A.H.#X-X4X4X4X4X4X4X4X4X4X4X4X4X4X4X",
"4X4X4X4X4X4X4X4X4X4X,X-XQ.A.a.a.a.s.l.R.^.Y.H.~ @.` j C C C C U ..~ B C B C M T @.^ p.a.a.a.w.a.a.d.H.#X,X4X4X4X4X4X4X4X4X4X4X4X",
"4X4X4X4X4X4X4X4X,X#XH.d.a.a.a.a.a.h.P.^./.~.R.~ O.m K P b.b.P @XqX5XP c.c.c.K U O.^ d.h.a.a.a.a.a.w.w.a.A.Q.,X4X4X4X4X4X4X4X4X4X",
"4X4X4X4X4X4X2X$XH.s.a.a.a.s.g.h.h.l.~.~.^.~.Q.~ X.v g B g C R qXwXeXI B B g g m X.^ k.P.P.h.h.g.a.a.a.a.w.p.d.Q.,X4X4X4X4X4X4X4X",
"4X4X4X4X4X,XQ.f.a.a.a.s.s.g.P.P.U.U.U.Y.Y.Y.R.~ o.] I T Y I U oXXXqXY Y Y Y m ` X.^ F.U.P.P.P.k.h.h.h.a.a.p.a.w.D.$X4X4X4X4X4X4X",
"4X4X4X4X-XZ.a.a.a.a.h.h.h.P.P.P.P.P.L.j.r.q.C./ X.@.#.6X8X#...#.Q XX..#.8X6X#.@.o.H r.r.k.U.U.U.P.P.L.h.h.a.a.a.p.a.E.4X4X4X4X4X",
"4X4X2X$XA.a.a.a.h.h.P.P.P.P.P.k.a.a.w.6.0.0.d.v W _ _  . ._ X.#.Q oXo.]  . ._ _ W F 9.7.0.q.e.j.L.P.P.L.P.h.a.a.a.a.p.K.>X4X4X4X",
"4X4X-XA.a.a.s.h.h.k.L.U.k.a.q.6.6.6.6.q.q.e.C.x E ! m m m m ] #.W #.' m m m m ~ E F e.8.0.0.0.6.6.w.L.L.P.L.h.h.a.a.a.a.E.4X4X4X",
"4X,XH.a.a.s.h.l.L.L.k.w.0.6.6.0.6.0.0.q.t.V.C.v Q v g g k k l +._ X.b k N g 2 n Q F r.e.q.q.0.q.q.0.0.q.g.P.P.h.s.a.a.a.a.:X4X4X",
"4X:Xs.a.s.h.l.P.k.r.6.6.0.0.0.0.q.q.y.t.V.G.G.n O.U j K (.(.K ' o.] K m.(.P k Y o.F 7.e.t.e.t.e.e.q.0.0.0.q.k.L.h.g.s.a.w.D.2X4X",
"4XH.a.a.h.P.P.h.q.0.6.0.0.0.e.t.y.y.t.e.9.<.z.n O.~ N n.`.`.n.j l l c.`.'.n.V T O.c &.&.:.4.7.e.y.y.e.q.0.0.0.r.l.k.h.s.a.s.$X4X",
",Xf.a.h.k.F.h.q.0.0.q.0.e.y.u.u.e.1.:.&.*.*.2.n #.' g S (.(.`.L S K B._.(.S k ` #.c =.$.$.$.*.-.1.q.y.y.e.q.q.7.r.k.k.h.g.a.W.4X",
";Xf.g.h.k.g.r.r.y.r.e.e.y.y.y.1.-.*.$.$.$.&.2.~ 8X{ J m.`.[.[.[.[.[.&X&X[.m.K { 7XG :.*.$.$.$.$.%.=.1.e.u.y.e.q.q.q.k.l.k.a.E.4X",
",Xf.h.P.j.q.e.F.Y.V.u.y.u.5.-.*.$.$.%.*.*.=.2.~ 6X' C P _.].].].].].].]._.c.S { oXG :.=.=.=.=.&.*.*.$.=.5.j.u.e.q.q.u.l.h.s.E.4X",
"4XD.h.L.w.q.t.S.G.S.i.y.<.*.$.%.%.=.=.-.-.;.3.! oX` N K _._._.].`.`._.]._.c.M { oXG <.;.;.;.:.:.;.=.*.*.$.>.u.i.y.q.q.h.h.h.:X4X",
"4X!.h.g.6.6.q.i.S.S.u.<.$.%.*.*.*.-.-.:.;.>.3.~ 8X{ C n.].[.[.].[.[.].].].m.S { 8XG <.>.>.>.1.9.<.:.=.*.*.*.>.u.i.u.q.r.h.D.-X4X",
"4X-XF.r.6.0.y.i.I.i.<.%.*.-.*.*.-.>.>.>.;.$.f ~ 8X{ j S m._._._.].].`.`.m.S M { 7Xc 7 8 &.:.<.9.5.<.;.=.*.$.$.:.i.i.q.q.h.!.4X4X",
"4X4X:Xr.0.q.y.i.i.7.%.%.*.=.-.;.>.<.,.y 9 : 3 v o.Y g k L P b.b.c.c.b.c.P g g Y ..h , - - : 0 &.<.<.>.-.=.*.%.$.4.i.t.e.H.<X4X4X",
"4X4X4XE.q.q.y.i.S.:.%.*.*.-.;.;.&.a a a t > u x % $ # # # 2 1 1 1 1 1 1 1 1 1 $ % h , ; - - ; ; 7 &.>.:.-.-.*.%.-.u.y.G.<X4X4X4X",
"4X4X4X4X!.t.i.I.t.*.%.*.-.;.-.e > t z.x.a 9 9 I ] ` ` ` ` T T T T T T T T T ` [ [ I 9 4 ; ; ; - * - 8 =.;.-.=.*.*.9.H.$X4X4X4X4X",
"4X4X4X4X4X#XG.I.e.*.*.=.:.=.8 ; , 9 s z.a 0 6 u f f s s f s s p p p i p p s s ,.s a q 5 4 4 ; ; * * * 4 *.;.-.*.,.J.<X4X4X4X4X4X",
"4X4X4X4X4X4X<X!.V.$.*.-.=.6 - * ; 9 0 t 0 w 6 r r q 5 - & & X X X X   X X o & & > q r q 8 5 : ; ; * * * 4 =.:.z.W.1X4X4X4X4X4X4X",
"4X4X4X4X4X4X4X4X*Xx.<.-.e - - - - ; 7 7 8 8 w w ; o X                             X & 6 r q 6 4 ; - * * , A J.=X4X4X4X4X4X4X4X4X",
"4X4X4X4X4X4X4X4X4X1X*XN.i = - - - 4 4 5 6 r w & X                                     X - r q 5 4 : t V ). X4X4X4X4X4X4X4X4X4X4X",
"4X4X4X4X4X4X4X4X4X4X4X4X X|.D i 7 4 5 6 w r &                                             8 e a A v. X2X4X4X4X4X4X4X4X4X4X4X4X4X",
"4X4X4X4X4X4X4X4X4X4X4X4X4X4X4X=X|.v.z.s a e o                             .     . . O @ d R T.*X>X4X4X4X4X4X4X4X4X4X4X4X4X4X4X4X",
"4X4X4X4X4X4X4X4X4X4X4X4X4X4X4X4X4X4X2X1X*X%XM.G k j 2 < + @ + + + + @ < 1 2 k Z I T.|. X>X2X4X4X4X4X4X4X4X4X4X4X4X4X4X4X4X4X4X4X",
"4X4X4X4X4X4X4X4X4X4X4X4X4X4X4X4X4X4X4X4X4X4X4X4X4X4X>X>X>X>X X=X=X=X>X>X>X2X4X4X4X4X4X4X4X4X4X4X4X4X4X4X4X4X4X4X4X4X4X4X4X4X4X4X",
"4X4X4X4X4X4X4X4X4X4X4X4X4X4X4X4X4X4X4X4X4X4X4X4X4X4X4X4X4X4X4X4X4X4X4X4X4X4X4X4X4X4X4X4X4X4X4X4X4X4X4X4X4X4X4X4X4X4X4X4X4X4X4X4X"
};
