/* XPM */
static char *__agu_BHB1721706384[] = {
/* columns rows colors chars-per-pixel */
"64 64 224 2 ",
"   c #02012A",
".  c #040234",
"X  c #08073A",
"o  c #1F1E3B",
"O  c #201F3C",
"+  c #2C2D3F",
"@  c #57463C",
"#  c #714F3A",
"$  c #070544",
"%  c #060457",
"&  c #0A0754",
"*  c #07055A",
"=  c #09065B",
"-  c #100C5E",
";  c #18155D",
":  c #211D5F",
">  c #2A2943",
",  c #302F47",
"<  c #313442",
"1  c #363946",
"2  c #36384A",
"3  c #0B0763",
"4  c #0D0967",
"5  c #110D64",
"6  c #110B6D",
"7  c #1B166B",
"8  c #0D0972",
"9  c #120C74",
"0  c #140C77",
"q  c #1E137B",
"w  c #211C6D",
"e  c #21157C",
"r  c #27256C",
"t  c #3B376A",
"y  c #3B3574",
"u  c #3B3679",
"i  c #433D40",
"p  c #5B3D55",
"a  c #423D6C",
"s  c #443D78",
"d  c #623D64",
"f  c #3E4251",
"g  c #424554",
"h  c #464857",
"j  c #454A5B",
"k  c #4A4E5D",
"l  c #4C505E",
"z  c #57575A",
"x  c #655B55",
"c  c #6A625A",
"v  c #7C6957",
"b  c #4E5462",
"n  c #515564",
"m  c #525867",
"M  c #575967",
"N  c #545B6B",
"B  c #474175",
"V  c #524A7B",
"C  c #575F70",
"Z  c #674368",
"A  c #7F5672",
"S  c #5A606E",
"D  c #5A6273",
"F  c #5C6575",
"G  c #6C6964",
"H  c #66666F",
"J  c #726B63",
"K  c #7B7569",
"L  c #6C6678",
"P  c #646E7E",
"I  c #68717E",
"U  c #77787C",
"Y  c #865F43",
"T  c #8D6548",
"R  c #946B4A",
"E  c #8A6D56",
"W  c #906F50",
"Q  c #8C7057",
"!  c #8C715A",
"~  c #987655",
"^  c #A8754D",
"/  c #AB7D54",
"(  c #847662",
")  c #867963",
"_  c #84776F",
"`  c #877A69",
"'  c #997D65",
"]  c #A5835C",
"[  c #AA855B",
"{  c #B58759",
"}  c #B68A5C",
"|  c #998769",
" . c #848173",
".. c #8C8675",
"X. c #8F8974",
"o. c #928A74",
"O. c #998F78",
"+. c #9E9575",
"@. c #A18362",
"#. c #A68D68",
"$. c #B48F60",
"%. c #AB926C",
"&. c #BC9464",
"*. c #B9986B",
"=. c #A59171",
"-. c #A79475",
";. c #AD9576",
":. c #B8A276",
">. c #C19A67",
",. c #C19C6A",
"<. c #C5AA76",
"1. c #CCAB73",
"2. c #CDAD75",
"3. c #D2B276",
"4. c #D3B67C",
"5. c #220F87",
"6. c #25118A",
"7. c #291588",
"8. c #29158D",
"9. c #2C1692",
"0. c #2F1A94",
"q. c #321B95",
"w. c #341C99",
"e. c #392398",
"r. c #453597",
"t. c #4928AC",
"y. c #4B2BAC",
"u. c #4D31AD",
"i. c #4E2BB1",
"p. c #512DB2",
"a. c #5F29B2",
"s. c #5432B5",
"d. c #5C33B6",
"f. c #5A38B6",
"g. c #5836B9",
"h. c #5C3BBB",
"j. c #622CB4",
"k. c #6532B5",
"l. c #6839B5",
"z. c #6435B9",
"x. c #6934B9",
"c. c #633CBC",
"v. c #6D3ABD",
"b. c #703CBE",
"n. c #595585",
"m. c #665E8D",
"M. c #656D81",
"N. c #687486",
"B. c #6A7586",
"V. c #6E7A8C",
"C. c #707C8D",
"Z. c #6D6792",
"A. c #75659B",
"S. c #787B92",
"D. c #6945B6",
"F. c #6A4AB1",
"G. c #7348B7",
"H. c #7657B3",
"J. c #7C6CAA",
"K. c #723FC0",
"L. c #6444C1",
"P. c #7341C1",
"I. c #7A5BC3",
"U. c #846AAE",
"Y. c #8777AD",
"T. c #886DB1",
"R. c #8775B3",
"E. c #9272B8",
"W. c #758294",
"Q. c #798697",
"!. c #7D8B9D",
"~. c #7F8EA0",
"^. c #868787",
"/. c #838B9C",
"(. c #8F9697",
"). c #95949C",
"_. c #A69D8C",
"`. c #AEA28C",
"'. c #BAAA84",
"]. c #A8A296",
"[. c #B4AE9C",
"{. c #818FA0",
"}. c #8F86AF",
"|. c #948BAC",
" X c #8493A4",
".X c #8797A8",
"XX c #8B9BAC",
"oX c #9896A6",
"OX c #9D9DA3",
"+X c #9A93AD",
"@X c #9E9AAC",
"#X c #9285B3",
"$X c #A09BA6",
"%X c #A19DAC",
"&X c #93A1AC",
"*X c #93A4B4",
"=X c #A4A3A6",
"-X c #AAA7A3",
";X c #ADA9A1",
":X c #A7A6AB",
">X c #A7ADA9",
",X c #B3AEA7",
"<X c #B0B4AF",
"1X c #CBB483",
"2X c #C1B38C",
"3X c #D4BC84",
"4X c #D9C289",
"5X c #D9C48B",
"6X c #DECD95",
"7X c #DBCB9B",
"8X c #E0CC8E",
"9X c #E1CE93",
"0X c #E4D498",
"qX c #E9DD9E",
"wX c #DAD0B0",
"eX c #E6DBA6",
"rX c #EADEA1",
"tX c #E5DBB7",
"yX c #EBE1A7",
"uX c #E8E0BB",
"iX c #E2DAC2",
"pX c #EAE4C5",
"aX c #E9E6D4",
"sX c #E9E9E1",
/* pixels */
":X:X:X:X:X:X:X:X:X:X:X:X:X:X:X:X:X:X:X:X:X:X:X:X:X:X:X:X:X:X:X:X:X:X:X:X:X:X:X:X:X:X:X:X:X:X:X:X:X:X:X:X:X:X:X:X:X:X:X:X:X:X:X:X",
":X:X:X:X:X:X:X:X:X:X:X:X:X:X:X:X:X:X:X:X:X:X:X:X:X:X:X:X:X:X:X:X:X>X:X:X:X:X:X:X:X:X:X:X:X:X:X:X:X:X:X:X:X:X:X:X:X:X:X:X:X:X:X:X",
":X:X:X:X:X:X:X:X:X:X:X:X:X:X:X:X:X:X:X:X:X:X:X:X:X:X:X:X:X:X:X:X:X:X:X:X:X:X:X:X:X:X:X:X:X:X:X:X:X:X:X:X:X:X:X:X:X:X:X:X:X:X:X:X",
":X:X:X:X:X:X:X:X:X:X:X:X:X:X:X:X:X:X:X:X:X:X:X:X:X:X:X:X:X:X:X:X:X:X:X:X:X:X:X:X:X:X:X:X:X:X:X:X:X:X:X:X:X:X:X:X:X:X:X:X:X:X:X:X",
":X:X:X:X:X:X:X:X:X:X:X:X:X:X:X:X:X:X:X:X:X:X:X:X:X:X:X:X:X:X:X:X:X:X:X:X:X:X:X:X:X:X:X:X:X:X:X:X:X:X:X:X:X:X:X:X:X:X:X:X:X:X:X:X",
":X:X:X:X:X:X:X:X:X:X:X:X:X:X:X:X:X:X:X:X:X:X:X:X:X:X:X:X:X:X:X:X:X:X:X:X:X:X:X:X:X:X:X:X:X:X:X:X:X:X:X:X:X:X:X:X:X:X:X:X:X:X:X:X",
":X:X:X:X:X:X:X:X:X:X:X:X:X:X:X:X:X:X:X:X:X:X:X:X:X:X:X:X:X:X:X:X:X:X:X:X:X:X:X:X:X:X:X:X:X:X:X:X:X:X:X:X:X:X:X:X:X:X:X:X:X:X:X:X",
":X:X:X:X:X:X:X:X:X:X:X:X:X:X:X:X:X:X:X:X:X:X:X:X:X:X:X:X:X:X:X:X:X:X:X:X:X:X:X:X:X:X:X:X:X:X:X:X:X:X:X:X:X:X:X:X:X:X:X:X:X:X:X:X",
":X:X:X:X:X:X:X:X:X:X:X:X:X:X:X:X:X:X:X:X:X:X:X:X:X:X:X:X:X:X:X:X:X:X:X:X:X:X:X:X:X:X:X:X:X:X:X:X:X:X:X:X:X:X:X:X:X:X:X:X:X:X:X:X",
":X:X:X>X:X:X:X:X:X:X:X:X:X:X:X:X:X:X:X:X:X:X:X:X:X:X:X:X:X:X:X:X:X:X:X:X:X:X:X:X:X:X:X:X:X:X:X:X:X:X:X:X:X:X:X:X:X:X:X:X:X:X:X:X",
":X:X:X:X:X:X:X:X:X:X:X:X:X:X:X:X:X:X:X:X:X:X:X:X:X:X:X:X:X:X:X:X:X:X:X:X:X:X:X:X:X:X:X:X:X:X:X:X:X:X:X:X:X:X:X:X:X:X:X:X:X:X:X:X",
":X:X:X:X:X:X:X:X:X:X:X:X:X:X:X:X:X:X:X:X:X:X:X:X:X:X:X:X:X:X:X:X:X:X:X:X:X:X:X:X:X:X:X:X:X:X:X:X:X:X:X:X:X:X:X:X:X:X:X:X:X:X:X:X",
":X:X:X:X:X:X:X:X:X:X:X:X:X:X:X:X:X:X:X:X:X:X:X:X:X:X:X:X:X:X:X:X:X:X:X:X:X:X:X:X<X:X:X:X:X:X:X:X:X:X:X:X:X:X:X:X:X:X:X:X:X:X:X:X",
":X:X:X:X:X:X:X:X:X:X:X:X:X:X:X:X:X:X:X:X:X:X:X:X:X:X:X:X:X:X:X:X:X:X:X:X:X:X:X:X:X:X:X:X:X:X:X:X:X:X:X:X:X:X:X:X:X:X:X:X:X:X:X:X",
":X:X:X:X:X:X:X:X:X:X:X:X:X:X:X:X:X:X:X:X:X:X:X:X:X:X:X:X:X:X:X:X:X:X:X:X:X:X:X:X:X:X:X:X:X:X:X:X:X:X:X:X:X:X:X:X:X:X:X:X:X:X:X:X",
":X:X:X:X:X:X:X:X:X:X:X:X:X:X:X:X:X:X:X:X:X:X:X:X:X:X>X:X:X:X:X:X:X:X:X:X:X:X:X:X:X:X:X:X:X:X:X:X:X:X:X:X:X:X:X<X:X:X:X:X:X:X:X:X",
":X:X:X:X:X:X:X:X:X:X:X:X:X:X:X:X:X:X:X:X:X:X:X:X:X:X:X:X:X:X:X:X:X:X:X:X:X:X:X:X:X:X:X:X:X:X:X:X:X:X:X:X:X:X:X:X:X:X:X:X:X:X:X:X",
":X:X:X:X:X:X:X:X:X:X:X:X:X:X:X:X:X:X:X:X:X:X:X:X:X:X:X:X:X:X:X:X:X:X:X:X:X:X:X:X:X:X:X:X:X:X:X:X:X:X:X:X:X:X:X:X:X:X:X:X:X:X:X:X",
":X:X:X:X:X:X:X:X:X:X:X:X:X:X:X:X:X:X:X:X:X:X:X:X:X:X:X:X:X:X:X:X:X:X:X:X:X:X:X:X:X:X:X:X:X:X:X:X:X:X:X:X:X:X:X:X:X:X:X:X:X:X:X:X",
":X:X:X:X:X:X:X:X:X:X:X:X:X:X:X:X:X:X:X:X:X:X:X:X:X:X:X:X:X:X:X:X:X:X:X:X:X:X:X:X:X:X:X:X:X:X:X:X:X:X:X:X:X:X:X:X:X:X:X:X:X:X:X:X",
":X:X:X:X:X:X:X:X:X:X:X:X:X:X:X:X:X:X:X:X:X:X:X:X:X:X:X:X:X:X:X:X:X:X:X:X:X:X:X:X:X:X:X:X:X:X:X:X:X:X:X:X:X:X:X:X:X:X:X:X:X:X:X:X",
":X:X:X:X:X:X:X:X:X:X:X:X:X:X:X:X:X:X:X:X:X:X:X:X:X:X:X:X:X:X:X:X:X:X:X:X:X:X:X:X:X:X:X:X:X:X:X:X:X:X:X:X:X:X:X:X:X:X:X:X:X:X:X:X",
":X:X:X:X:X:X:X:X:X:X:X:X:X:X:X:X:X:X:X:X:X:X:X:X:X:X:X:X:X:X:X:X:X:X:X:X:X:X:X:X:X:X:X:X:X:X:X:X:X:X:X:X:X:X:X:X:X:X:X:X:X:X:X:X",
":X:X:X:X:X:X:X:X:X:X:X:X:X:X:X:X:X:X:X:X:X:X:X:X:X:X:X:X:X:X:X:X:X:X:X:X:X:X:X:X:X:X:X:X:X:X:X:X:X:X:X:X:X:X:X:X:X:X:X:X:X:X:X:X",
":X:X:X:X:X:X:X:X:X:X:X:X:X:X:X:X:X:X:X:X:X:X:X:X:X:X:X:X:X:X:X:X:X:X:X:X:X:X:X:X:X:X:X:X:X:X:X:X:X:X:X:X:X:X:X:X:X:X:X:X:X:X:X:X",
":X:X:X:X:X:X:X:X:X:X:X:X:X:X:X:X:X:X:X:X:X:X:X:X:X:X:X:X:X:X:X:X:X:X:X:X:X:X:X:X:X:X:X:X:X:X:X:X:X:X:X:X:X:X:X:X:X:X:X:X:X:X:X:X",
":X:X:X:X:X:X>X:X:X:X:X:X:X:X:X:X:X:X:X:X:X:X:X:X:X:X:X:X:X:X:X:X:X:X:X:X:X:X:X:X:X:X:X:X:X:X:X:X:X:X:X:X:X:X:X:X:X:X:X:X:X:X:X:X",
":X:X:X:X:X:X:X:X:X:X:X:X:X:X:X:X:X:X;X,X].=X:X:X:X:X:X:X:X:X=X[.,X[.=X:X:X:X:X:X:X:X:X=X].;X-X:X:X:X:X:X:X:X:X:X:X:X:X:X:X:X:X:X",
":X:X:X:X:X:X:X:X:X:X:X:X:X:X:X:X:X].-.%.%.`.[.[.[.[.[.[.[.[.`.=.%.%.`.[.[.[.[.[.[.[.[.[.=.%.;.].:X:X:X:X:X:X:X:X:X:X:X:X:X:X:X:X",
":X:X:X:X:X:X:X:X:X:X:X:X:X:X:X:X$X| W ~ T v G G G G G G G G Q W ~ W W J G G G G G G G v W ~ R ' ].:X:X:X:X:X:X:X:X:X:X:X:X:X:X:X",
":X:X:X:X:X:X:X:X:X:X:X:X:X:X:X,X-.W *.5X=.H N.P M.I I P I I ..2X5X3X| I M.I P I I M.P F ..3X,.T =.:X:X:X:X:X:X:X:X:X:X:X:X:X:X:X",
":X:X:X:X:X:X:X:X:X:X:X:X:X:X:X,X@.@.7XiX:XQ.&X*X*X*X*X*X*X*X>X7XtXtX,X*X*X*X*X*X*X*X*X{.@XiXwX$.` :X:X:X:X:X:X:X:X:X:X:X<X:X:X:X",
":X:X:X:X:X:X:X:X:X:X:X:X:X:X:X,X] =.uXaX>XQ.XX*X*X*X*X*X*X*X&X0XpXsX<X*X*X*X*X*X*X*X&X!.&XpXpX'. .=X:X:X:X:X:X:X:X:X:X:X:X:X:X:X",
":X:X:X:X:X:X:X:X:X:X:X:X:X:X:X,X| :.yXyX+.S P W.~. X.X.X~.N.^.eXyXtX).N.!. X.X X~.!.N.F ^.yXyX'.' -X:X:X:X:X:X:X:X:X:X:X:X:X:X:X",
":X:X:X:X:X:X:X:X:X:X:X:X:X:X-X,X/ ;.qXqX+.N. X.X~.XX*XXX&X.X(.6XeX0X]. X&XXX&XXX~..X!.W.X.qXyX<.` :X:X:X:X:X:X:X:X:X:X:X:X:X:X:X",
":X:X:X:X:X:X:X:X:X:X:X:X:X%X#X@X] %.0X6X| S W./.Q.!.~.~.!.!.^.<.1X2.o.Q. X~.~.{.Q.!.W.F  .5X0X:.! oX%X:X:X:X:X:X:X:X:X:X:X:X:X:X",
":X:X:X:X:X:X:X:X:X:X-X+XU.D.j.U.' [ 4.4.| j N S D S D C C N J *.*.:.) m D D N C N S N k K 4.3X} _ j.K.T.+X:X:X:X:X:X:X:X:X:X:X:X",
":X:X:X:X:X:X:X:X%X#XH.k.j.j.j.U.' [ 3.1.! l N.W.V.V.V.V.V.U 2XtXtXaXwXK N.V.V.V.W.W.V.N J 1.3.&._ j.a.a.G.E.@X:X:X:X:X:X:X:X:X:X",
":X:X:X:X:X:X=X|.H.j.j.j.j.j.x.T./ ] 3.>.v g m m m m N N n ..eXaXuXaXaX_.m m m m b b m l x $.3.{ T a.a.a.j.j.D.R.@X:X:X:X:X:X:X:X",
":X:X:X:X:X%XU.k.a.j.j.j.j.x.x.T.' [ 3.>.%.K K  . .U  .K c +.qX6X1X7XpX'.c K  . . . .` K | &.1.{ A K.K.a.j.j.j.a.G.|.:X:X:X:X:X:X",
":X:X:X:X+XH.a.a.j.j.x.j.K.K.K.E.' ] 1.3.4X4X3X6X9X9X0X5X$.1.qX*.^ &.eX1X[ 3X9X9X9X0X3X3X4X3.1.[ _ b.K.x.x.x.j.a.a.l.Y.%X:X:X:X:X",
":X:X=X|.l.j.a.j.j.z.v.K.K.K.P.E.E T / / } &.>.&.,.&.*.&.} 1.qX1.^ >.eX3X} &.>.>.>.>.&.&.{ [ [ R d K.K.K.K.x.x.x.j.j.k.T.:X:X:X:X",
":X:X+XD.j.j.j.k.z.x.K.K.K.d.i.J.! # ^ ^ [ ) ) ! ) K ! K ! :.0X*.^ $.9X2X) ) ) ) ) ) ) ) | ^ ^ T d j.z.K.K.K.x.x.k.k.j.j.T.:X:X:X",
":X%XH.j.j.j.k.x.K.K.K.f.y.i.i.H.! Y } { E h h g l b m b b K '.<.{ ,.2.' b m b b b g g g c } } R d t.i.p.d.K.K.K.v.k.k.j.k.}.:X:X",
">XY.j.j.j.k.x.b.K.d.i.i.y.p.s.U.W ~ 2.3.! f b D W.!.Q.!.Q.S  .<.<.<.| H N.!.!.!.Q.P N g K 2.3.] d i.i.i.i.p.x.P.b.v.x.j.a.H.OX:X",
":XH.j.j.k.x.v.x.p.i.i.i.s.s.s.T.Q ~ 3.3.' f D V. X*X X.XXXM.l c c c z F /.XX XXX XV.M.j K 4.3.] d a.p.i.y.t.i.a.K.K.v.x.k.k.|.:X",
"%Xl.j.v.v.v.x.y.i.i.s.s.g.g.y.A.Q ~ 5X5X| g b F M.!. X X.X~.N.F P H F Q. XXX X XN.F N j U 4X4X} Z s.p.p.p.p.p.y.a.K.K.x.k.j.R.:X",
"%Xl.k.b.v.z.p.p.s.s.g.g.y.0.5.Z.! #.eXyX+.b N.W.Q.XX*X*X*X*X*X*X*X*X*X*X*X*X*X*X!.Q.W.m  .rXrX:.d d.g.g.p.s.f.f.s.g.b.v.x.j.R.:X",
"%Xl.x.v.K.i.i.s.g.h.u.e.6.5.6.Z.Q @.9X9X+.l P P W..XXXXXXXXXXXXXXXXXXXXXXXXXXXXXW.M.N.N  .9X0X%.p e.s.f.g.h.D.I.f.y.d.K.v.j.R.:X",
"%XH.k.v.g.i.s.g.h.t.8.5.5.6.6.A.Q @.9X8X| h C F W.~.XX.X.X.X.XXX XXXXXXXXXXXXXXX~.N.D j _ 9X9X%.p 7.0.y.h.h.L.I.h.u.p.c.v.k.Y.:X",
":XR.x.k.i.g.h.h.t.6.6.6.8.q.e.A.! #.rXrX+.l P V.~.XXXX*X*XXXXX&X*X*XXXXXXXXXXXXX~.Q.M.b ..yXyX:.Z 7.5.6.u.h.L.h.g.i.y.a.v.G.%X:X",
":X@XG.k.i.g.h.y.6.6.6.6.9.w.e.J.W #.qXqX+.k M D P W. X.XXX X XXXXXXX XXX XXX X!.N.F S k  .0XrX:.p 7.8.5.8.s.h.h.g.i.i.p.v.E.:X:X",
":X:X#Xh.p.h.s.6.5.6.8.8.w.w.w.A.E W <.<.` g j l N N.W.V.V.V.V.V.V.W.V.V.V.W.N.N.D b b f J <.<.~ p 7.8.5.5.q.h.h.g.p.i.p.H.%X:X:X",
":X:X=XR.f.h.t.5.6.8.8.q.q.8.q t ) # # # @ < , < + 1 1 2 1 1 1 1 1 1 1 1 1 1 1 1 < < + + i # # # c q.8.5.5.5.y.K.h.g.i.F.+X:X:X:X",
":X:X:X:XR.L.0.5.6.9.0.q.q 3 % & z =.=.=.=.X.O.o.o.X.o.o.o.o.X.o.X.X.X.X.X.X.X.o.X.X.X.o.O.-.=.#.L w.q.8.6.5.e.L.L.g.F.+X:X:X:X:X",
":X:X:X:X:X}.n.5.6.9.9.0 * % % % ; t a B B B B s B B u a t t y y y u u u u u t y t t B V C B t t : e q.9.8.5.w.K.L.J.@X:X:X:X:X:X",
":X:X:X:X:X:XXXA.e.9.0 & % & % * = 3 8 9 9 9 4 * $ X . . .   .   . X X % 3 8 0 0 8 8 7 7 w 7 - * % * 5.8.6.6.e.I.#X:X:X:X:X:X:X:X",
":X:X:X:X:X:X:X=X|.m.r * % % * * 3 6 9 6 * X .                             . & 8 8 8 8 4 5 - * * % % = 6.0.n.J.*X:X:X:X:X:X:X:X:X",
":X:X:X:X:X:X:X:X:X=X(.M.t 5 * 4 6 9 6 X                                       . 3 5.8 3 3 3 * * % & 7 n.J.*X:X:X:X:X:X:X:X:X:X:X",
":X:X:X:X:X:X:X:X:X:X:X=XOX^.n.u e 0 $                                           . 8 9 8 4 3 3 : B N.).:X:X:X:X:X:X:X:X:X:X:X:X:X",
":X:X:X:X:X:X:X:X:X:X:X:X:X:X:XOX/.S.n 1 O X                                       5 q u r.M.S.).$X:X:X:X:X:X:X:X:X:X:X:X:X:X:X:X",
":X:X:X:X:X:X:X:X:X:X:X:X:X:X:X:X:X:X%X$X).^.U H n g 2 > > o o o o o + + < 2 j M L S..XOX].:X:X:X:X:X:X:X:X:X:X:X:X:X:X:X:X:X:X:X",
":X:X:X:X:X:X:X:X:X:X:X:X:X:X:X:X:X:X:X:X-X:X:X:X:X:X=XOX=XOX).OXOXOX$X=X$X$X:X:X:X:X:X:X:X:X:X:X:X:X:X:X:X:X:X:X:X:X:X:X:X:X:X:X",
":X:X:X:X:X:X:X:X:X:X:X:X:X:X:X:X:X:X:X:X:X:X:X:X:X:X:X:X:X:X:X:X:X:X:X:X:X:X:X:X:X:X:X:X:X:X:X:X:X:X:X:X:X>X:X:X:X:X:X:X:X:X:X:X"
};
