/* XPM */
static char *_1721605756[] = {
/* columns rows colors chars-per-pixel */
"64 64 180 2 ",
"   c #02012A",
".  c #0B0A2E",
"X  c #040234",
"o  c #05033D",
"O  c #161635",
"+  c #181736",
"@  c #1D1C39",
"#  c #23233E",
"$  c #070447",
"%  c #060457",
"&  c #0A0757",
"*  c #0D0851",
"=  c #070459",
"-  c #09065C",
";  c #0D095C",
":  c #18165C",
">  c #252540",
",  c #2C2B43",
"<  c #37364C",
"1  c #3C3C51",
"2  c #0A0662",
"3  c #0D0963",
"4  c #0A0769",
"5  c #0E096B",
"6  c #120C64",
"7  c #120B6D",
"8  c #171362",
"9  c #1A1665",
"0  c #1A1860",
"q  c #1A146E",
"w  c #1E1969",
"e  c #0E0A73",
"r  c #0F0B79",
"t  c #120C75",
"y  c #1A0E73",
"u  c #140D78",
"i  c #190F7F",
"p  c #1B1374",
"a  c #1C117D",
"s  c #211B6E",
"d  c #201B77",
"f  c #21137C",
"g  c #271B7E",
"h  c #282567",
"j  c #36346B",
"k  c #282377",
"l  c #2F2A73",
"z  c #37327A",
"x  c #474657",
"c  c #49485A",
"v  c #585764",
"b  c #5E5D6A",
"n  c #4F4E7A",
"m  c #59597A",
"M  c #676679",
"N  c #1E1280",
"B  c #210F86",
"V  c #220F88",
"C  c #231187",
"Z  c #291C87",
"A  c #25128A",
"S  c #29158D",
"D  c #2A1A8D",
"F  c #2C1692",
"G  c #2E1994",
"H  c #311B95",
"J  c #341C9A",
"K  c #381F9C",
"L  c #2B2187",
"P  c #3C308E",
"I  c #2F2592",
"U  c #342394",
"Y  c #36219C",
"T  c #3B239D",
"R  c #393599",
"E  c #3E29A1",
"W  c #3F36A3",
"Q  c #433C81",
"!  c #4429A5",
"~  c #442AA5",
"^  c #4B27AE",
"/  c #4C2AAE",
"(  c #4738A7",
")  c #4C30AD",
"_  c #4E2AB0",
"`  c #522DB3",
"'  c #5F28B2",
"]  c #4F31B0",
"[  c #5432B5",
"{  c #5A32B5",
"}  c #5739B0",
"|  c #5B3AB7",
" . c #5735B8",
".. c #5936B8",
"X. c #5C3BBA",
"o. c #622CB4",
"O. c #6532B5",
"+. c #673BB1",
"@. c #693EB1",
"#. c #6534B9",
"$. c #6A35BA",
"%. c #633CBD",
"&. c #6D3ABD",
"*. c #713DBE",
"=. c #4E4689",
"-. c #524C8B",
";. c #525180",
":. c #5C5598",
">. c #646387",
",. c #7D7C84",
"<. c #79788E",
"1. c #6A619B",
"2. c #6E689E",
"3. c #777691",
"4. c #787790",
"5. c #4643A8",
"6. c #5B43BA",
"7. c #6C43B2",
"8. c #6F49B1",
"9. c #6242BC",
"0. c #6C42BD",
"q. c #6548BA",
"w. c #644CBE",
"e. c #724EB1",
"r. c #7343BF",
"t. c #7948BF",
"y. c #6B53BD",
"u. c #7554B0",
"i. c #7759B0",
"p. c #7A5CB1",
"a. c #5666B2",
"s. c #5D75B7",
"d. c #7D64AF",
"f. c #7F68AF",
"g. c #7772A0",
"h. c #7D63B2",
"j. c #7866B7",
"k. c #6F3FC0",
"l. c #723FC0",
"z. c #6443C1",
"x. c #6F40C0",
"c. c #7442C2",
"v. c #7846C5",
"b. c #7349C1",
"n. c #7C4BC5",
"m. c #7955C6",
"M. c #7B57C6",
"N. c #816BAF",
"B. c #8575AE",
"V. c #826BB1",
"C. c #8673B0",
"Z. c #8874B3",
"A. c #8D7DB1",
"S. c #8454C5",
"D. c #8556C8",
"F. c #816ACC",
"G. c #9367CC",
"H. c #8476CF",
"J. c #A37AD3",
"K. c #878695",
"L. c #8B8A9C",
"P. c #95959C",
"I. c #99999E",
"U. c #8986A3",
"Y. c #8E81AE",
"T. c #9286AE",
"R. c #948CAE",
"E. c #988FAE",
"W. c #9796A3",
"Q. c #9E9DA4",
"!. c #9B95AD",
"~. c #9E99AC",
"^. c #8D81B9",
"/. c #9589B0",
"(. c #9A90B0",
"). c #9F9BB0",
"_. c #A09FA6",
"`. c #A19EAC",
"'. c #A2A1A6",
"]. c #A7A6AB",
/* pixels */
"].].].].].].].].].].].].].].].].].].].].].].].].].].].].].].].].].].].].].].].].].].].].].].].].].].].].].].].].].].].].].].].].",
"].].].].].].].].].].].].].].].].].].].].].].].].].].].].].].].].].].].].].].].].].].].].].].].].].].].].].].].].].].].].].].].].",
"].].].].].].].].].].].].].].].].].].].].].].].].].].].].].].].].].].].].].].].].].].].].].].].].].].].].].].].].].].].].].].].].",
"].].].].].].].].].].].].].].].].].].].].].].].].].].].].].].].].].].].].].].].].].].].].].].].].].].].].].].].].].].].].].].].].",
"].].].].].].].].].].].].].].].].].].].].].].].].].].].].].].].].].].].].].].].].].].].].].].].].].].].].].].].].].].].].].].].].",
"].].].].].].].].].].].].].].].].].].].].].].].].].].].].].].].].].].].].].].].].].].].].].].].].].].].].].].].].].].].].].].].].",
"].].].].].].].].].].].].].].].].].].].].].].].].].].].].].].].].].].].].].].].].].].].].].].].].].].].].].].].].].].].].].].].].",
"].].].].].].].].].].].].].].].].].].].].].].].].].].].].].].].].].].].].].].].].].].].].].].].].].].].].].].].].].].].].].].].].",
"].].].].].].].].].].].].].].].].].].].].].].].].].].].].].].].].].].].].].].].].].].].].].].].].].].].].].].].].].].].].].].].].",
"].].].].].].].].].].].].].].].].].].].].].].].].].].].].].].].].].].].].].].].].].].].].].].].].].].].].].].].].].].].].].].].].",
"].].].].].].].].].].].].].].].].].].].].].].].].].].].].].].].].].].].].].].].].].].].].].].].].].].].].].].].].].].].].].].].].",
"].].].].].].].].].].].].].].].].].].].].].].].].].].].].].].].].].].].].].].].].].].].].].].].].].].].].].].].].].].].].].].].].",
"].].].].].].].].].].].].].].].].].].].].].].].].].].].].].].].].].].].].].].].].].].].].].].].].].].].].].].].].].].].].].].].].",
"].].].].].].].].].].].].].].].].].].].].].].].].].].].].].].].].].].].].].].].].].].].].].].].].].].].].].].].].].].].].].].].].",
"].].].].].].].].].].].].].].].].].].].].].].].].].].].].].].].].].].].].].].].].].].].].].].].].].].].].].].].].].].].].].].].].",
"].].].].].].].].].].].].].].].].].].].].].].].].].].].].].].].].].].].].].].].].].].].].].].].].].].].].].].].].].].].].].].].].",
"].].].].].].].].].].].].].].].].].].].].].].].].].].].].].].].].].].].].].].].].].].].].].].].].].].].].].].].].].].].].].].].].",
"].].].].].].].].].].].].].].].].].].].].].].].].].].].].].].].].].].].].].].].].].].].].].].].].].].].].].].].].].].].].].].].].",
"].].].].].].].].].].].].].].].].].].].].].].].].].].].].].].].].].].].].].].].].].].].].].].].].].].].].].].].].].].].].].].].].",
"].].].].].].].].].].].].].].].].].].].].].].].].].].].].].].].].].].].].].].].].].].].].].].].].].].].].].].].].].].].].].].].].",
"].].].].].].].].].].].].].].].].].].].].].].].].].].].].].].].].].].].].].].].].].].].].].].].].].].].].].].].].].].].].].].].].",
"].].].].].].].].].].].].].].].].].].].].].].].].].].].].].].].].].].].].].].].].].].].].].].].].].].].].].].].].].].].].].].].].",
"].].].].].].].].].].].].].].].].].].].].].].].].].].].].].].].].].].].].].].].].].].].].].].].].].].].].].].].].].].].].].].].].",
"].].].].].].].].].].].].].].].].].].].].].].].].].].].].].].].].].].].].].].].].].].].].].].].].].].].].].].].].].].].].].].].].",
"].].].].].].].].].].].].].].].].].].].].].].].].].].].].].].].].].].].].].].].].].].].].].].].].].].].].].].].].].].].].].].].].",
"].].].].].].].].].].].].].].].].].].].].].].].].].].].].].].].].].].].].].].].].].].].].].].].].].].].].].].].].].].].].].].].].",
"].].].].].].].].].].].].].].].].].].].].].].].].].].].].].].].].].].].].].].].].].].].].].].].].].].].].].].].].].].].].].].].].",
"].].].].].].].].].].].].].].].].].].].].].].].].].].].].].].].].].].].].].].].].].].].].].].].].].].].].].].].].].].].].].].].].",
"].].].].].].].].].].].].].].].].].].].].].].].].].].].].].].].].].].].].].].].].].].].].].].].].].].].].].].].].].].].].].].].].",
"].].].].].].].].].].].].].].].].].].].].].].].].].].].].].].].].].].].].].].].].].].].].].].].].].].].].].].].].].].].].].].].].",
"].].].].].].].].].].].].].].].].].].].].].].].].].].].].].].].].].].].].].].].].].].].].].].].].].].].].].].].].].].].].].].].].",
"].].].].].].].].].].].].].].].].].].].].].].].].].].].].].].].].].].].].].].].].].].].].].].].].].].].].].].].].].].].].].].].].",
"].].].].].].].].].].].].].].].].].].].].].].].].].].].].].].].].].].].].].].].].].].].].].].].].].].].].].].].].].].].].].].].].",
"].].].].].].].].].].].].].].].].].].].].].].].].].].].`.].].].].].].].].].].].].].].].].].].].].].].].].].].].].].].].].].].].].",
"].].].].].].].].].].].].].].].].].].].].].`.`.E.T.A.V.V.V.i.u.u./.d.p.d.N.N.C.A.R.!.`.`.].].].].].].].].].].].].].].].].].].].].",
"].].].].].].].].].].].].].].].].`.`.A.Z.N.e.@.O.o.o.o.o.o.o.o.o.&.O.o.o.' ' ' ' ' O.@.e.d.Y.!.`.].].].].].].].].].].].].].].].].",
"].].].].].].].].].].].].].`.E.C.u.@.O.&.*.*.$.O.o.O.o.O.O.#.O.o.O.O.O.#.o.O.o.o.o.o.' o.' ' O.7.p.T.!.].].].].].].].].].].].].].",
"].].].].].].].].].].`.!.Z.t.+.o.' O.O.S.G.D.r.$.$.$.$.&.$.k.l.k.k.&.&.k.r.*.&.O.$.o.o.o.o.o.o.o.' ' @.i.R.`.].].].].].].].].].].",
"].].].].].].].].`.E.N.+.o.o.o.o.o.O.&.S.J.G.S.l.l.l.l.l.l.l.l.l.l.l.c.n.m.m.t.0.&.$.$.$.o.#.o.o.o.o.' o.o.8.A._.].].].].].].].].",
"].].].].].].].!.N.+.o.o.o.o.o.o.$.$.*.S.D.D.n.v.l.l.v.v.v.v.v.v.v.v.n.m.F.H.m.b.l.*.*.*.&.&.&.#.$.O.o.o.o.' o.8.T.].].].].].].].",
"].].].].].`.A.7.o.o.o.o.$.$.k.l.l.v.c.S.n.n.c.l.&.%.#... .'  . .` '  .X.q.w.q.0.k.x.c.c.c.c.k.k.&.$.$.O.o.o.o.o.o.u.!.].].].].].",
"].].].].`.d.o.o.o.O.O.$.l.l.k.l.l.*.*.*.O.` ` _ ^ ^ _ ^ _ _ _ _ _ _ _ _ ] ] [ [ ` ` ` { #.k.c.c.l.k.k.k.$.O.o.o.o.' @.T.].].].].",
"].].].!.d.o.o.o.O.$.$.*.l.l.l.k.O.o._ _ _ _ _ ^ ^ _ / / _ _ [ _ ` ` [ ` ` [ [  .| ..[ / ^ ^ ` { $.l.l.l.l.&.$.#.o.o.o.O.T.].].].",
"].].`.d.o.o.$.O.$.&.l.l.k.o.' ^ ^ ^ ^ ^ _ _ [ ` ` ` ` ` [ _ [ [ [  . . . ...| X.q.X. .` ` _ _ _ ^ ` { k.l.l.&.$.o.o.o.' O.T.'.].",
"].].B.O.o.O.$.$.*.*.&.{ _ ^ ^ ^ _ _ _ ]  .6.6. .[ [  . .[ [ ` [ _ ] ] [ ] [ ..X.9.%.| [ [ [ ` _ ` _ ^ ^ ` &.c.&.$.O.o.o.' @.~.].",
"].~.7.o.o.$.&.*.l.#.` ^ ^ _ _ _ _ _ [ | 6.6.6.} ^ E J H S S A A C C C C C S D I U ! ) ) [ [ [ [  . .` _ _ _ { &.*.&.$.o.o.' N.].",
"].B.o.o.$.&.*.*.` ` ^ _ _ ` [  . . . . .) E U D C V B B C C V V C C C V V A A D D D C A S J ! [  .[  . .` _ ^ ` #.*.$.$.o.o.@.`.",
"].h.o.#.$.c.&.' ` ` _ ` ` .. . . .] Y G N A A N C C V A C A S D F F A A A D I R R I D C B B B A H ^  . . .[ ` / ` { &.*.$.o.O.!.",
"].i.o.&.*.&.{ } } | [ [  ... .! J V V B V C V S S A F F S H J K J H F F S I R a.s.W I A A V V V V B G ! ....[ ` ` ` #.k.&.$.O.R.",
"].p.O.&.*.{ ` 9.m.%.X.....] J S B B V V S A S F F F F G J J J T Y J H H J Y W a.s.5.Y F S S S A A V V V G ` X...[ ` _ $.&.&.O.E.",
"].V.O.k.O./ [ X.y.q.%...^ S C C V A A S F F H G J J J J J K J K J J H H H Y W 5.5.W E J G G H H H D A V V A ! #.....` ` &.$.7.~.",
"].(.$.&.` / ` ..%.%.X.! S B B C A S G G H J J J F A B i 7 6 3 3 ; 3 2 ; 4 5 q p L L H J K J T T ! Y H S A V V ! X.X. ._ #.$.p.'.",
"].].V.#.^ ^ `  .X.9.) A B S S A F G H J J S p 5 2 % % % - % % % - = = = % - - - ; - - 5 y Z J ! ( ! J F S S V V ! X...` ` r.T.].",
"].].!.r.^ ` [ X.k...G B C A S F H Y Y Z q : % % - - - % 3 2 2 - 2 2 4 3 3 ; - - = - - % % & 6 d H H Y H F A A V S [ X.[ | Z.`.].",
"].].]./.} ` [ X.z.E V V A A G G G g k l h 9 ; - - - 6 5 4 5 5 5 5 t 7 5 7 5 4 2 2 2 - - - - - ; * y D J H F S A C T X.| h.`.].].",
"].].].].R.9...%.z.Y V V F G G C 6 9 z 1.Q w 3 3 3 5 7 7 5 e e e t t u r t u t e 5 4 2 2 - - - - & % ; f G G F V C F 6.j.`.].].].",
"].].].].].(.j.z.6.F A A F F a ; - 0 l =.z w 8 5 5 5 e r r r u t e t 7 e t u t N a u t 5 4 ; - = % % % % y G F A A P f.].].].].].",
"].].].].].].'.^.y.G A S H B - = & 6 w s w q 7 e u r e 3 & $ o X X   X X X X o $ ; 5 u u e 4 4 - = % % % % t G I :.U.].].].].].].",
"].].].].].].].].).2.P F C - % % = - ; 5 5 5 t t 7 * o                               X * u u 5 4 - - % % % : -.U.'.].].].].].].].",
"].].].].].].].].].].!.g.Q : % % = = 2 2 5 r r 3 o                                       o 5 t 5 4 - : h m K.Q.].].].].].].].].].",
"].].].].].].].].].].].].Q.L.M j 8 2 2 4 e r 7 X                                           $ e u l n <.P.].].].].].].].].].].].].",
"].].].].].].].].].].].].].].].~.P.3.;.z k a ;                                     . . + # x >.K.W.'.].].].].].].].].].].].].].].",
"].].].].].].].].].].].].].].].].].].]._.W.L.4.b c 1 , > # + + + + O + @ # , < x v M ,.L.I.'.].].].].].].].].].].].].].].].].].].",
"].].].].].].].].].].].].].].].].].].].].].].].].].'.Q.Q.I.I.P.P.P.P.I.I.W.Q.Q.'.].].].].].].].].].].].].].].].].].].].].].].].]."
};
