/* XPM */
static char *_1721605757[] = {
/* columns rows colors chars-per-pixel */
"64 64 168 2 ",
"   c #02012A",
".  c #040237",
"X  c #100F31",
"o  c #110F3E",
"O  c #1E1E3A",
"+  c #070446",
"@  c #080547",
"#  c #07054A",
"$  c #09064A",
"%  c #060457",
"&  c #090653",
"*  c #070459",
"=  c #09065B",
"-  c #0D095D",
";  c #120E5F",
":  c #323148",
">  c #0A0662",
",  c #0E0865",
"<  c #0B076A",
"1  c #0D096B",
"2  c #100B64",
"3  c #130C6C",
"4  c #141163",
"5  c #191369",
"6  c #0E0A73",
"7  c #0F0A78",
"8  c #110B73",
"9  c #190E73",
"0  c #120C79",
"q  c #190F7C",
"w  c #1F1976",
"e  c #1D127B",
"r  c #241E6B",
"t  c #201674",
"y  c #251E73",
"u  c #20117E",
"i  c #282761",
"p  c #28246F",
"a  c #2C2A6B",
"s  c #2D2A75",
"d  c #26227D",
"f  c #332C77",
"g  c #373178",
"h  c #434356",
"j  c #454558",
"k  c #4D4C5C",
"l  c #545463",
"z  c #4D4C78",
"x  c #59587A",
"c  c #61606C",
"v  c #676774",
"b  c #6E6D75",
"n  c #210F87",
"m  c #231186",
"M  c #25128A",
"N  c #29148E",
"B  c #2B198D",
"V  c #2B1692",
"C  c #2E1993",
"Z  c #311B95",
"A  c #341C9A",
"S  c #381F9A",
"D  c #2C218D",
"F  c #31218D",
"G  c #3A3684",
"H  c #2F2492",
"J  c #332393",
"K  c #36209B",
"L  c #3A239D",
"P  c #35299A",
"I  c #38289E",
"U  c #3E3D9E",
"Y  c #3F25A1",
"T  c #443E81",
"R  c #4227A4",
"E  c #432AA3",
"W  c #4C27AE",
"Q  c #472AA9",
"!  c #4C2AAE",
"~  c #433BA7",
"^  c #4C32AD",
"/  c #4E2AB0",
"(  c #522DB3",
")  c #5E29B2",
"_  c #4F30B0",
"`  c #5433B5",
"'  c #5A33B6",
"]  c #573BB7",
"[  c #5B3BB5",
"{  c #5735B8",
"}  c #5936B8",
"|  c #5C3BBA",
" . c #622CB4",
".. c #6531B5",
"X. c #6835B5",
"o. c #6639B2",
"O. c #683CB2",
"+. c #6633B8",
"@. c #6934B9",
"#. c #643CBC",
"$. c #6D3ABD",
"%. c #713CBE",
"&. c #4E4D83",
"*. c #574E96",
"=. c #5F549E",
"-. c #635C97",
";. c #655D9A",
":. c #6B6A8A",
">. c #7E7D84",
",. c #78778E",
"<. c #4A4BAA",
"1. c #5B49A8",
"2. c #4B53AA",
"3. c #4C58A8",
"4. c #5A45B8",
"5. c #6C43B2",
"6. c #6E49B1",
"7. c #6343BB",
"8. c #6E4EBE",
"9. c #704CB1",
"0. c #7342BE",
"q. c #6A53B7",
"w. c #7757B3",
"e. c #7A5BB2",
"r. c #7F69AF",
"t. c #7D63B0",
"y. c #6E3FC0",
"u. c #723FC0",
"i. c #6242C0",
"p. c #6F40C0",
"a. c #7442C2",
"s. c #7846C3",
"d. c #7349C2",
"f. c #7D4CC6",
"g. c #7950C6",
"h. c #745AC6",
"j. c #7B5EC8",
"k. c #7F68CB",
"l. c #807F90",
"z. c #826DAF",
"x. c #8674AE",
"c. c #8067B0",
"v. c #826BB1",
"b. c #8D7DB1",
"n. c #8353C6",
"m. c #9569CE",
"M. c #9E74D0",
"N. c #6581BC",
"B. c #87878E",
"V. c #878696",
"C. c #94939B",
"Z. c #8582A2",
"A. c #928FA6",
"S. c #9287AE",
"D. c #948BAE",
"F. c #988FAE",
"G. c #9695A4",
"H. c #9C9BA3",
"J. c #9792AF",
"K. c #9A93AD",
"L. c #9E9AAD",
"P. c #9087B2",
"I. c #9589B1",
"U. c #9A94B2",
"Y. c #A09EA7",
"T. c #A19DAD",
"R. c #A3A2A7",
"E. c #A7A6AB",
/* pixels */
"E.E.E.E.E.E.E.E.E.E.E.E.E.E.E.E.E.E.E.E.E.E.E.E.E.E.E.E.E.E.E.E.E.E.E.E.E.E.E.E.E.E.E.E.E.E.E.E.E.E.E.E.E.E.E.E.E.E.E.E.E.E.E.E.",
"E.E.E.E.E.E.E.E.E.E.E.E.E.E.E.E.E.E.E.E.E.E.E.E.E.E.E.E.E.E.E.E.E.E.E.E.E.E.E.E.E.E.E.E.E.E.E.E.E.E.E.E.E.E.E.E.E.E.E.E.E.E.E.E.",
"E.E.E.E.E.E.E.E.E.E.E.E.E.E.E.E.E.E.E.E.E.E.E.E.E.E.E.E.E.E.E.E.E.E.E.E.E.E.E.E.E.E.E.E.E.E.E.E.E.E.E.E.E.E.E.E.E.E.E.E.E.E.E.E.",
"E.E.E.E.E.E.E.E.E.E.E.E.E.E.E.E.E.E.E.E.E.E.E.E.E.E.E.E.E.E.E.E.E.E.E.E.E.E.E.E.E.E.E.E.E.E.E.E.E.E.E.E.E.E.E.E.E.E.E.E.E.E.E.E.",
"E.E.E.E.E.E.E.E.E.E.E.E.E.E.E.E.E.E.E.E.E.E.E.E.E.E.E.E.E.E.E.E.E.E.E.E.E.E.E.E.E.E.E.E.E.E.E.E.E.E.E.E.E.E.E.E.E.E.E.E.E.E.E.E.",
"E.E.E.E.E.E.E.E.E.E.E.E.E.E.E.E.E.E.E.E.E.E.E.E.E.E.E.E.E.E.E.E.E.E.E.E.E.E.E.E.E.E.E.E.E.E.E.E.E.E.E.E.E.E.E.E.E.E.E.E.E.E.E.E.",
"E.E.E.E.E.E.E.E.E.E.E.E.E.E.E.E.E.E.E.E.E.E.E.E.E.E.E.E.E.E.E.E.E.E.E.E.E.E.E.E.E.E.E.E.E.E.E.E.E.E.E.E.E.E.E.E.E.E.E.E.E.E.E.E.",
"E.E.E.E.E.E.E.E.E.E.E.E.E.E.E.E.E.E.E.E.E.E.E.E.E.E.E.E.E.E.E.E.E.E.E.E.E.E.E.E.E.E.E.E.E.E.E.E.E.E.E.E.E.E.E.E.E.E.E.E.E.E.E.E.",
"E.E.E.E.E.E.E.E.E.E.E.E.E.E.E.E.E.E.E.E.E.E.E.E.E.E.E.E.E.E.E.E.E.E.E.E.E.E.E.E.E.E.E.E.E.E.E.E.E.E.E.E.E.E.E.E.E.E.E.E.E.E.E.E.",
"E.E.E.E.E.E.E.E.E.E.E.E.E.E.E.E.E.E.E.E.E.E.E.E.E.E.E.E.E.E.E.E.E.E.E.E.E.E.E.E.E.E.E.E.E.E.E.E.E.E.E.E.E.E.E.E.E.E.E.E.E.E.E.E.",
"E.E.E.E.E.E.E.E.E.E.E.E.E.E.E.E.E.E.E.E.E.E.E.E.E.E.E.E.E.E.E.E.E.E.E.E.E.E.E.E.E.E.E.E.E.E.E.E.E.E.E.E.E.E.E.E.E.E.E.E.E.E.E.E.",
"E.E.E.E.E.E.E.E.E.E.E.E.E.E.E.E.E.E.E.E.E.E.E.E.E.E.E.E.E.E.E.E.E.E.E.E.E.E.E.E.E.E.E.E.E.E.E.E.E.E.E.E.E.E.E.E.E.E.E.E.E.E.E.E.",
"E.E.E.E.E.E.E.E.E.E.E.E.E.E.E.E.E.E.E.E.E.E.E.E.E.E.E.E.E.E.E.E.E.E.E.E.E.E.E.E.E.E.E.E.E.E.E.E.E.E.E.E.E.E.E.E.E.E.E.E.E.E.E.E.",
"E.E.E.E.E.E.E.E.E.E.E.E.E.E.E.E.E.E.E.E.E.E.E.E.E.E.E.E.E.E.E.E.E.E.E.E.E.E.E.E.E.E.E.E.E.E.E.E.E.E.E.E.E.E.E.E.E.E.E.E.E.E.E.E.",
"E.E.E.E.E.E.E.E.E.E.E.E.E.E.E.E.E.E.E.E.E.E.E.E.E.E.E.E.E.E.E.E.E.E.E.E.E.E.E.E.E.E.E.E.E.E.E.E.E.E.E.E.E.E.E.E.E.E.E.E.E.E.E.E.",
"E.E.E.E.E.E.E.E.E.E.E.E.E.E.E.E.E.E.E.E.E.E.E.E.E.E.E.E.E.E.E.E.E.E.E.E.E.E.E.E.E.E.E.E.E.E.E.E.E.E.E.E.E.E.E.E.E.E.E.E.E.E.E.E.",
"E.E.E.E.E.E.E.E.E.E.E.E.E.E.E.E.E.E.E.E.E.E.E.E.E.E.E.E.E.E.E.E.E.E.E.E.E.E.E.E.E.E.E.E.E.E.E.E.E.E.E.E.E.E.E.E.E.E.E.E.E.E.E.E.",
"E.E.E.E.E.E.E.E.E.E.E.E.E.E.E.E.E.E.E.E.E.E.E.E.E.E.E.E.E.E.E.E.E.E.E.E.E.E.E.E.E.E.E.E.E.E.E.E.E.E.E.E.E.E.E.E.E.E.E.E.E.E.E.E.",
"E.E.E.E.E.E.E.E.E.E.E.E.E.E.E.E.E.E.E.E.E.E.E.E.E.E.E.E.E.E.E.E.E.E.E.E.E.E.E.E.E.E.E.E.E.E.E.E.E.E.E.E.E.E.E.E.E.E.E.E.E.E.E.E.",
"E.E.E.E.E.E.E.E.E.E.E.E.E.E.E.E.E.E.E.E.E.E.E.E.E.E.E.E.E.E.E.E.E.E.E.E.E.E.E.E.E.E.E.E.E.E.E.E.E.E.E.E.E.E.E.E.E.E.E.E.E.E.E.E.",
"E.E.E.E.E.E.E.E.E.E.E.E.E.E.E.E.E.E.E.E.E.E.E.E.E.E.E.E.E.E.E.E.E.E.E.E.E.E.E.E.E.E.E.E.E.E.E.E.E.E.E.E.E.E.E.E.E.E.E.E.E.E.E.E.",
"E.E.E.E.E.E.E.E.E.E.E.E.E.E.E.E.E.E.E.E.E.E.E.E.E.E.E.E.E.E.E.E.E.E.E.E.E.E.E.E.E.E.E.E.E.E.E.E.E.E.E.E.E.E.E.E.E.E.E.E.E.E.E.E.",
"E.E.E.E.E.E.E.E.E.E.E.E.E.E.E.E.E.E.E.E.E.E.E.E.E.E.E.E.E.E.E.E.E.E.E.E.E.E.E.E.E.E.E.E.E.E.E.E.E.E.E.E.E.E.E.E.E.E.E.E.E.E.E.E.",
"E.E.E.E.E.E.E.E.E.E.E.E.E.E.E.E.E.E.E.E.E.E.E.E.E.E.E.E.E.E.E.E.E.E.E.E.E.E.E.E.E.E.E.E.E.E.E.E.E.E.E.E.E.E.E.E.E.E.E.E.E.E.E.E.",
"E.E.E.E.E.E.E.E.E.E.E.E.E.E.E.E.E.E.E.E.E.E.E.E.E.E.E.E.E.E.E.E.E.E.E.E.E.E.E.E.E.E.E.E.E.E.E.E.E.E.E.E.E.E.E.E.E.E.E.E.E.E.E.E.",
"E.E.E.E.E.E.E.E.E.E.E.E.E.E.E.E.E.E.E.E.E.E.E.E.E.E.E.E.E.E.E.E.E.E.E.E.E.E.E.E.E.E.E.E.E.E.E.E.E.E.E.E.E.E.E.E.E.E.E.E.E.E.E.E.",
"E.E.E.E.E.E.E.E.E.E.E.E.E.E.E.E.E.E.E.E.E.E.E.E.E.E.E.E.E.E.E.E.E.E.E.E.E.E.E.E.E.E.E.E.E.E.E.E.E.E.E.E.E.E.E.E.E.E.E.E.E.E.E.E.",
"E.E.E.E.E.E.E.E.E.E.E.E.E.E.E.E.E.E.E.E.E.E.E.E.E.E.E.E.E.E.E.E.E.E.E.E.E.E.E.E.E.E.E.E.E.E.E.E.E.E.E.E.E.E.E.E.E.E.E.E.E.E.E.E.",
"E.E.E.E.E.E.E.E.E.E.E.E.E.E.E.E.E.E.E.E.E.E.E.E.E.E.E.E.E.E.E.E.E.E.E.E.E.E.E.E.E.E.E.E.E.E.E.E.E.E.E.E.E.E.E.E.E.E.E.E.E.E.E.E.",
"E.E.E.E.E.E.E.E.E.E.E.E.E.E.E.E.E.E.E.E.E.E.E.E.E.E.E.E.E.E.E.E.E.E.E.E.E.E.E.E.E.E.E.E.E.E.E.E.E.E.E.E.E.E.E.E.E.E.E.E.E.E.E.E.",
"E.E.E.E.E.E.E.E.E.E.E.E.E.E.E.E.E.E.E.E.E.E.E.E.E.E.E.E.E.E.E.E.E.E.E.E.E.E.E.E.E.E.E.E.E.E.E.E.E.E.E.E.E.E.E.E.E.E.E.E.E.E.E.E.",
"E.E.E.E.E.E.E.E.E.E.E.E.E.E.E.E.E.E.E.E.E.E.E.E.E.E.E.E.E.E.E.E.E.E.E.E.E.E.E.E.E.E.E.E.E.E.E.E.E.E.E.E.E.E.E.E.E.E.E.E.E.E.E.E.",
"E.E.E.E.E.E.E.E.E.E.E.E.E.E.E.E.E.E.E.E.E.E.E.E.E.E.E.E.E.E.E.E.E.E.E.E.E.E.E.E.E.E.E.E.E.E.E.E.E.E.E.E.E.E.E.E.E.E.E.E.E.E.E.E.",
"E.E.E.E.E.E.E.E.E.E.E.E.E.E.E.E.E.E.E.E.E.E.E.E.E.E.E.E.E.E.E.E.E.E.E.E.E.E.E.E.E.E.E.E.E.E.E.E.E.E.E.E.E.E.E.E.E.E.E.E.E.E.E.E.",
"E.E.E.E.E.E.E.E.E.E.E.E.E.E.E.E.E.E.E.E.E.E.E.E.E.E.E.E.E.E.E.E.E.E.E.E.E.E.E.E.E.E.E.E.E.E.E.E.E.E.E.E.E.E.E.E.E.E.E.E.E.E.E.E.",
"E.E.E.E.E.E.E.E.E.E.E.E.E.E.E.E.E.E.E.E.E.E.E.E.E.E.E.E.E.E.E.E.E.E.E.E.E.E.E.E.E.E.E.E.E.E.E.E.E.E.E.E.E.E.E.E.E.E.E.E.E.E.E.E.",
"E.E.E.E.E.E.E.E.E.E.E.E.E.E.E.E.E.E.E.E.E.E.E.E.E.E.E.E.E.E.E.E.E.E.E.E.E.E.E.E.E.E.E.E.E.E.E.E.E.E.E.E.E.E.E.E.E.E.E.E.E.E.E.E.",
"E.E.E.E.E.E.E.E.E.E.E.E.E.E.E.E.E.E.E.E.E.E.T.T.K.D.S.x.v.c.t.e.t.t.t.t.F.I.S.F.K.H.T.E.E.E.E.E.E.E.E.E.E.E.E.E.E.E.E.E.E.E.E.E.",
"E.E.E.E.E.E.E.E.E.E.E.E.E.E.E.E.E.E.T.F.S.z.w.6.o. . . . . . . . . . . . . . . ...O.9.e.b.K.T.E.E.E.E.E.E.E.E.E.E.E.E.E.E.E.E.E.",
"E.E.E.E.E.E.E.E.E.E.E.E.E.E.E.T.S.z.9.o.X.%.0.%.@.@... .+.+.+.@.@...@.@.+. . . . . .)  . . .5.e.D.T.E.E.E.E.E.E.E.E.E.E.E.E.E.E.",
"E.E.E.E.E.E.E.E.E.E.E.E.E.F.z.9. . . . .$.n.M.n.u.$.$.u.$.$.u.u.$.%.$.a.8.0.$.@.+. .+. . . . . .) O.r.K.E.E.E.E.E.E.E.E.E.E.E.E.",
"E.E.E.E.E.E.E.E.E.E.E.K.r.O. . . . .@.$.%.n.m.n.s.a.u.a.u.a.a.a.a.s.s.g.k.j.d.0.$.$.$.@.@.+. . . .) ) ..w.F.E.E.E.E.E.E.E.E.E.E.",
"E.E.E.E.E.E.E.E.E.T.x.o.)  ... .@.%.%.%.s.f.n.n.s.s.a.p.y.y.+.#.#.#.#.d.h.h.d.0.a.a.u.u.u.y.$.@.X. . .) ) ..r.T.E.E.E.E.E.E.E.E.",
"E.E.E.E.E.E.E.E.K.e. . .....@.$.%.%.%.u.u.%.#. .( / / / / / W W W / / _ ` ` ` { ' } +.y.u.a.u.u.%.@.@. . .) ) 6.F.E.E.E.E.E.E.E.",
"E.E.E.E.E.E.E.F.6. . .@.+.$.u.u.a.$.@.' ( / W / / W / / / / / / ( ( ( ( ( ` ` [ ' ` ! / ( ) #.y.a.a.$.$.+. . . .o.D.E.E.E.E.E.E.",
"E.E.E.E.E.E.T.9. .@.@.+.$.u.u.@.' ( W W W ( _ ` ` / / / ` ` ` ` { { { { { { | 7.7.{ ( / / / W / ) #.a.%.$.@. . .) o.F.E.E.E.E.E.",
"E.E.E.E.E.T.e. . .+.@.u.u.+.( / W / W / / ` [ 4.] ] ` ` / _ / ! Q Q Q Q Q ^ { ] [ | { { ` _ ( ( / W ( #.p.$.@... .) 9.T.E.E.E.E.",
"E.E.E.E.E.S.X. .+.$.u.y.) / W / / ( ( ` { | ] 4.^ L A V M M n n n n n n m M B B Z K R Q ` ` { ` ( ( ( ! ) $.%.@. . . .b.E.E.E.E.",
"E.E.E.E.E.v...@.@.u.#.( / ! / ( ` { { { ! E A C M m m m n n M M M N N n m B D D D N n m N A Q ` { { ( / / / #.$.@... .w.R.E.E.E.",
"E.E.E.E.E.e...@.%.$.' ` ' ( ( { { ' Q A M m n n m M m M M N C C C V N N N J U 3.U J M n n n m N R ` { { ` / / +.$.%.@.6.E.E.E.E.",
"E.E.E.E.E.e.+.$.@.) ] 8.#.[ ' { ( A M n n m M M N N V V C A A L Y A A C C I <.N.2.P V M M M M m n N E { { { ( ( #.$.X.6.E.E.E.E.",
"E.E.E.E.E.v.+.%.' ( [ 8.7.#.{ R N n n n M N C V A A A A K A A A K Z Z Z A I ~ <.U I A C C Z F B M m n Z ` | { ( ) $.@.w.E.E.E.E.",
"E.E.E.E.E.F.$.@.! / ' | 4.| L M n M M M V C C A A V N u 9 9 3 , 1 , > , , 9 t D D H A K K L E L Z M n n C ' | | ( +.@.b.E.E.E.E.",
"E.E.E.E.E.E.e.' W / { | #.Q m M N M C Z A K B e < > * * = % * = * = = & * * = & = = , 9 B L E E S Z N M n C ' } ( ' w.L.E.E.E.E.",
"E.E.E.E.E.E.K.5./ ( | i.` N m M N V C A F y 5 - * * = > = = > , , , 1 3 , > > = = * * * & 2 t C A A C M n n S | { 7.P.E.E.E.E.E.",
"E.E.E.E.E.E.E.D.[ ` | i.Y n n N C Z m w f T p 4 > - > 2 , 1 1 1 6 6 3 6 8 1 < > < > = - = - & > 9 C Z V N n N { 4.b.R.E.E.E.E.E.",
"E.E.E.E.E.E.E.E.J.q.i.i.K M N V C e - 4 g -.f 5 , , < 6 6 6 7 7 6 7 0 6 0 e q 0 8 1 , > = = % % % , M Z V M m 1.P.E.E.E.E.E.E.E.",
"E.E.E.E.E.E.E.E.E.L.r.8.C M N C 9 = = ; r s y 5 8 8 6 8 6 1 & $ $ # @ + $ & = 3 0 q 6 1 > > = % % & - M V J -.J.E.E.E.E.E.E.E.E.",
"E.E.E.E.E.E.E.E.E.E.E.U.=.H V n * % % & 2 4 3 6 6 8 ; # .                       . # , 0 6 < = = % % % 5 *.Z.R.E.E.E.E.E.E.E.E.E.",
"E.E.E.E.E.E.E.E.E.E.E.E.E.A.;.a * % = = - , 1 7 3 $ .                                 # 8 6 1 = ; i x B.Y.E.E.E.E.E.E.E.E.E.E.E.",
"E.E.E.E.E.E.E.E.E.E.E.E.E.E.E.G.,.z a ; > < 6 0 $                                       & w f z ,.C.R.R.E.E.E.E.E.E.E.E.E.E.E.E.",
"E.E.E.E.E.E.E.E.E.E.E.E.E.E.E.E.E.E.C.C.:.&.G d o                               X O : k v V.G.R.E.E.E.E.E.E.E.E.E.E.E.E.E.E.E.E.",
"E.E.E.E.E.E.E.E.E.E.E.E.E.E.E.E.E.E.E.E.E.E.R.C.B.l.b c l k j h h h j k l c b >.B.C.H.R.E.E.E.E.E.E.E.E.E.E.E.E.E.E.E.E.E.E.E.E.",
"E.E.E.E.E.E.E.E.E.E.E.E.E.E.E.E.E.E.E.E.E.E.E.E.E.E.E.E.E.E.E.E.E.E.E.E.E.E.E.E.E.E.E.E.E.E.E.E.E.E.E.E.E.E.E.E.E.E.E.E.E.E.E.E."
};
