/* XPM */
static char *_1721605757[] = {
/* columns rows colors chars-per-pixel */
"64 64 157 2 ",
"   c #02012A",
".  c #0A092E",
"X  c #030233",
"o  c #05033A",
"O  c #151435",
"+  c #1C1B39",
"@  c #24233F",
"#  c #070549",
"$  c #0A064A",
"%  c #1A1942",
"&  c #070457",
"*  c #090655",
"=  c #0C0855",
"-  c #07055A",
";  c #09065B",
":  c #0C095B",
">  c #2E2D46",
",  c #3C3B4F",
"<  c #3E3D52",
"1  c #0A0763",
"2  c #0E0963",
"3  c #0E096B",
"4  c #110C64",
"5  c #120B6C",
"6  c #191465",
"7  c #1C1961",
"8  c #151169",
"9  c #1E196E",
"0  c #0E0A73",
"q  c #120B74",
"w  c #1A0F72",
"e  c #130C79",
"r  c #1E1475",
"t  c #211E6C",
"y  c #24197D",
"u  c #282663",
"i  c #312F69",
"p  c #2A2471",
"a  c #2F257D",
"s  c #393871",
"d  c #36327A",
"f  c #40397E",
"g  c #51505F",
"h  c #565477",
"j  c #5A597B",
"k  c #676670",
"l  c #220F87",
"z  c #230F88",
"x  c #231185",
"c  c #291B86",
"v  c #25118A",
"b  c #29158E",
"n  c #2B1A8D",
"m  c #2B1692",
"M  c #2E1994",
"N  c #311B96",
"B  c #341C9A",
"V  c #33238F",
"C  c #332492",
"Z  c #332C95",
"A  c #36219B",
"S  c #3B239D",
"D  c #3D2A9E",
"F  c #3D3E9C",
"G  c #3F25A1",
"H  c #4126A3",
"J  c #462EA2",
"K  c #4C27AF",
"L  c #4629A8",
"P  c #4C2AAE",
"I  c #423EA4",
"U  c #4C33AC",
"Y  c #5133AF",
"T  c #4E2BB1",
"R  c #522DB2",
"E  c #5B2DB3",
"W  c #4F30B1",
"Q  c #5433B5",
"!  c #5B33B6",
"~  c #5738B6",
"^  c #5A3AB7",
"/  c #5735B8",
"(  c #5C36B8",
")  c #5C3ABB",
"_  c #622CB4",
"`  c #6532B5",
"'  c #6A37B7",
"]  c #6738B2",
"[  c #693CB1",
"{  c #6434B9",
"}  c #6A35B9",
"|  c #643ABA",
" . c #6D3ABD",
".. c #713DBE",
"X. c #574E8E",
"o. c #585786",
"O. c #4F4790",
"+. c #5D5797",
"@. c #7C7B83",
"#. c #6C6995",
"$. c #7B7A90",
"%. c #4A4DA9",
"&. c #5B42B9",
"*. c #675EA2",
"=. c #6D46B2",
"-. c #6140BA",
";. c #6A4ABE",
":. c #714DB1",
">. c #7445BE",
",. c #7846BE",
"<. c #6650B4",
"1. c #7654B6",
"2. c #7857B3",
"3. c #755BB1",
"4. c #795BB0",
"5. c #5F77B7",
"6. c #7E64B1",
"7. c #723EC0",
"8. c #6241C0",
"9. c #7443C2",
"0. c #7846C1",
"q. c #774BC4",
"w. c #7B4AC4",
"e. c #6C50C1",
"r. c #7550C3",
"t. c #7851C5",
"y. c #7A59C7",
"u. c #7F6DCC",
"i. c #8674AF",
"p. c #8877AF",
"a. c #8C7DAD",
"s. c #856CB4",
"d. c #8773B1",
"f. c #8679B6",
"g. c #8B7AB0",
"h. c #8657C9",
"j. c #9468CD",
"k. c #898997",
"l. c #96959C",
"z. c #98979D",
"x. c #9A999F",
"c. c #8380A1",
"v. c #8E80AE",
"b. c #9185AE",
"n. c #948AAD",
"m. c #988FAE",
"M. c #9593A3",
"N. c #9D9CA3",
"B. c #9693AA",
"V. c #9A93AD",
"C. c #9E9AAC",
"Z. c #9289B0",
"A. c #9A96B0",
"S. c #A09FA5",
"D. c #A29EAC",
"F. c #A2A1A7",
"G. c #A7A6AB",
/* pixels */
"G.G.G.G.G.G.G.G.G.G.G.G.G.G.G.G.G.G.G.G.G.G.G.G.G.G.G.G.G.G.G.G.G.G.G.G.G.G.G.G.G.G.G.G.G.G.G.G.G.G.G.G.G.G.G.G.G.G.G.G.G.G.G.G.",
"G.G.G.G.G.G.G.G.G.G.G.G.G.G.G.G.G.G.G.G.G.G.G.G.G.G.G.G.G.G.G.G.G.G.G.G.G.G.G.G.G.G.G.G.G.G.G.G.G.G.G.G.G.G.G.G.G.G.G.G.G.G.G.G.",
"G.G.G.G.G.G.G.G.G.G.G.G.G.G.G.G.G.G.G.G.G.G.G.G.G.G.G.G.G.G.G.G.G.G.G.G.G.G.G.G.G.G.G.G.G.G.G.G.G.G.G.G.G.G.G.G.G.G.G.G.G.G.G.G.",
"G.G.G.G.G.G.G.G.G.G.G.G.G.G.G.G.G.G.G.G.G.G.G.G.G.G.G.G.G.G.G.G.G.G.G.G.G.G.G.G.G.G.G.G.G.G.G.G.G.G.G.G.G.G.G.G.G.G.G.G.G.G.G.G.",
"G.G.G.G.G.G.G.G.G.G.G.G.G.G.G.G.G.G.G.G.G.G.G.G.G.G.G.G.G.G.G.G.G.G.G.G.G.G.G.G.G.G.G.G.G.G.G.G.G.G.G.G.G.G.G.G.G.G.G.G.G.G.G.G.",
"G.G.G.G.G.G.G.G.G.G.G.G.G.G.G.G.G.G.G.G.G.G.G.G.G.G.G.G.G.G.G.G.G.G.G.G.G.G.G.G.G.G.G.G.G.G.G.G.G.G.G.G.G.G.G.G.G.G.G.G.G.G.G.G.",
"G.G.G.G.G.G.G.G.G.G.G.G.G.G.G.G.G.G.G.G.G.G.G.G.G.G.G.G.G.G.G.G.G.G.G.G.G.G.G.G.G.G.G.G.G.G.G.G.G.G.G.G.G.G.G.G.G.G.G.G.G.G.G.G.",
"G.G.G.G.G.G.G.G.G.G.G.G.G.G.G.G.G.G.G.G.G.G.G.G.G.G.G.G.G.G.G.G.G.G.G.G.G.G.G.G.G.G.G.G.G.G.G.G.G.G.G.G.G.G.G.G.G.G.G.G.G.G.G.G.",
"G.G.G.G.G.G.G.G.G.G.G.G.G.G.G.G.G.G.G.G.G.G.G.G.G.G.G.G.G.G.G.G.G.G.G.G.G.G.G.G.G.G.G.G.G.G.G.G.G.G.G.G.G.G.G.G.G.G.G.G.G.G.G.G.",
"G.G.G.G.G.G.G.G.G.G.G.G.G.G.G.G.G.G.G.G.G.G.G.G.G.G.G.G.G.G.G.G.G.G.G.G.G.G.G.G.G.G.G.G.G.G.G.G.G.G.G.G.G.G.G.G.G.G.G.G.G.G.G.G.",
"G.G.G.G.G.G.G.G.G.G.G.G.G.G.G.G.G.G.G.G.G.G.G.G.G.G.G.G.G.G.G.G.G.G.G.G.G.G.G.G.G.G.G.G.G.G.G.G.G.G.G.G.G.G.G.G.G.G.G.G.G.G.G.G.",
"G.G.G.G.G.G.G.G.G.G.G.G.G.G.G.G.G.G.G.G.G.G.G.G.G.G.G.G.G.G.G.G.G.G.G.G.G.G.G.G.G.G.G.G.G.G.G.G.G.G.G.G.G.G.G.G.G.G.G.G.G.G.G.G.",
"G.G.G.G.G.G.G.G.G.G.G.G.G.G.G.G.G.G.G.G.G.G.G.G.G.G.G.G.G.G.G.G.G.G.G.G.G.G.G.G.G.G.G.G.G.G.G.G.G.G.G.G.G.G.G.G.G.G.G.G.G.G.G.G.",
"G.G.G.G.G.G.G.G.G.G.G.G.G.G.G.G.G.G.G.G.G.G.G.G.G.G.G.G.G.G.G.G.G.G.G.G.G.G.G.G.G.G.G.G.G.G.G.G.G.G.G.G.G.G.G.G.G.G.G.G.G.G.G.G.",
"G.G.G.G.G.G.G.G.G.G.G.G.G.G.G.G.G.G.G.G.G.G.G.G.G.G.G.G.G.G.G.G.G.G.G.G.G.G.G.G.G.G.G.G.G.G.G.G.G.G.G.G.G.G.G.G.G.G.G.G.G.G.G.G.",
"G.G.G.G.G.G.G.G.G.G.G.G.G.G.G.G.G.G.G.G.G.G.G.G.G.G.G.G.G.G.G.G.G.G.G.G.G.G.G.G.G.G.G.G.G.G.G.G.G.G.G.G.G.G.G.G.G.G.G.G.G.G.G.G.",
"G.G.G.G.G.G.G.G.G.G.G.G.G.G.G.G.G.G.G.G.G.G.G.G.G.G.G.G.G.G.G.G.G.G.G.G.G.G.G.G.G.G.G.G.G.G.G.G.G.G.G.G.G.G.G.G.G.G.G.G.G.G.G.G.",
"G.G.G.G.G.G.G.G.G.G.G.G.G.G.G.G.G.G.G.G.G.G.G.G.G.G.G.G.G.G.G.G.G.G.G.G.G.G.G.G.G.G.G.G.G.G.G.G.G.G.G.G.G.G.G.G.G.G.G.G.G.G.G.G.",
"G.G.G.G.G.G.G.G.G.G.G.G.G.G.G.G.G.G.G.G.G.G.G.G.G.G.G.G.G.G.G.G.G.G.G.G.G.G.G.G.G.G.G.G.G.G.G.G.G.G.G.G.G.G.G.G.G.G.G.G.G.G.G.G.",
"G.G.G.G.G.G.G.G.G.G.G.G.G.G.G.G.G.G.G.G.G.G.G.G.G.G.G.G.G.G.G.G.G.G.G.G.G.G.G.G.G.G.G.G.G.G.G.G.G.G.G.G.G.G.G.G.G.G.G.G.G.G.G.G.",
"G.G.G.G.G.G.G.G.G.G.G.G.G.G.G.G.G.G.G.G.G.G.G.G.G.G.G.G.G.G.G.G.G.G.G.G.G.G.G.G.G.G.G.G.G.G.G.G.G.G.G.G.G.G.G.G.G.G.G.G.G.G.G.G.",
"G.G.G.G.G.G.G.G.G.G.G.G.G.G.G.G.G.G.G.G.G.G.G.G.G.G.G.G.G.G.G.G.G.G.G.G.G.G.G.G.G.G.G.G.G.G.G.G.G.G.G.G.G.G.G.G.G.G.G.G.G.G.G.G.",
"G.G.G.G.G.G.G.G.G.G.G.G.G.G.G.G.G.G.G.G.G.G.G.G.G.G.G.G.G.G.G.G.G.G.G.G.G.G.G.G.G.G.G.G.G.G.G.G.G.G.G.G.G.G.G.G.G.G.G.G.G.G.G.G.",
"G.G.G.G.G.G.G.G.G.G.G.G.G.G.G.G.G.G.G.G.G.G.G.G.G.G.G.G.G.G.G.G.G.G.G.G.G.G.G.G.G.G.G.G.G.G.G.G.G.G.G.G.G.G.G.G.G.G.G.G.G.G.G.G.",
"G.G.G.G.G.G.G.G.G.G.G.G.G.G.G.G.G.G.G.G.G.G.G.G.G.G.G.G.G.G.G.G.G.G.G.G.G.G.G.G.G.G.G.G.G.G.G.G.G.G.G.G.G.G.G.G.G.G.G.G.G.G.G.G.",
"G.G.G.G.G.G.G.G.G.G.G.G.G.G.G.G.G.G.G.G.G.G.G.G.G.G.G.G.G.G.G.G.G.G.G.G.G.G.G.G.G.G.G.G.G.G.G.G.G.G.G.G.G.G.G.G.G.G.G.G.G.G.G.G.",
"G.G.G.G.G.G.G.G.G.G.G.G.G.G.G.G.G.G.G.G.G.G.G.G.G.G.G.G.G.G.G.G.G.G.G.G.G.G.G.G.G.G.G.G.G.G.G.G.G.G.G.G.G.G.G.G.G.G.G.G.G.G.G.G.",
"G.G.G.G.G.G.G.G.G.G.G.G.G.G.G.G.G.G.G.G.G.G.G.G.G.G.G.G.G.G.G.G.G.G.G.G.G.G.G.G.G.G.G.G.G.G.G.G.G.G.G.G.G.G.G.G.G.G.G.G.G.G.G.G.",
"G.G.G.G.G.G.G.G.G.G.G.G.G.G.G.G.G.G.G.G.G.G.G.G.G.G.G.G.G.G.G.G.G.G.G.G.G.G.G.G.G.G.G.G.G.G.G.G.G.G.G.G.G.G.G.G.G.G.G.G.G.G.G.G.",
"G.G.G.G.G.G.G.G.G.G.G.G.G.G.G.G.G.G.G.G.G.G.G.G.G.G.G.G.G.G.G.G.G.G.G.G.G.G.G.G.G.G.G.G.G.G.G.G.G.G.G.G.G.G.G.G.G.G.G.G.G.G.G.G.",
"G.G.G.G.G.G.G.G.G.G.G.G.G.G.G.G.G.G.G.G.G.G.G.G.G.G.G.G.G.G.G.G.G.G.G.G.G.G.G.G.G.G.G.G.G.G.G.G.G.G.G.G.G.G.G.G.G.G.G.G.G.G.G.G.",
"G.G.G.G.G.G.G.G.G.G.G.G.G.G.G.G.G.G.G.G.G.G.G.G.G.G.G.G.G.G.G.G.G.G.G.G.G.G.G.G.G.G.G.G.G.G.G.G.G.G.G.G.G.G.G.G.G.G.G.G.G.G.G.G.",
"G.G.G.G.G.G.G.G.G.G.G.G.G.G.G.G.G.G.G.G.G.G.G.G.G.G.G.G.G.G.G.G.G.G.G.G.G.G.G.G.G.G.G.G.G.G.G.G.G.G.G.G.G.G.G.G.G.G.G.G.G.G.G.G.",
"G.G.G.G.G.G.G.G.G.G.G.G.G.G.G.G.G.G.G.G.G.G.G.G.G.G.G.G.G.G.G.G.G.G.G.G.G.G.G.G.G.G.G.G.G.G.G.G.G.G.G.G.G.G.G.G.G.G.G.G.G.G.G.G.",
"G.G.G.G.G.G.G.G.G.G.G.G.G.G.G.G.G.G.G.G.G.G.G.G.G.G.G.G.G.G.G.G.G.G.G.G.G.G.G.G.G.G.G.G.G.G.G.G.G.G.G.G.G.G.G.G.G.G.G.G.G.G.G.G.",
"G.G.G.G.G.G.G.G.G.G.G.G.G.G.G.G.G.G.G.G.G.G.G.G.G.G.G.G.G.G.G.G.G.G.G.G.G.G.G.G.G.G.G.G.G.G.G.G.G.G.G.G.G.G.G.G.G.G.G.G.G.G.G.G.",
"G.G.G.G.G.G.G.G.G.G.G.G.G.G.G.G.G.G.G.G.G.G.G.G.G.G.G.G.G.G.G.G.G.G.G.G.G.G.G.G.G.G.G.G.G.G.G.G.G.G.G.G.G.G.G.G.G.G.G.G.G.G.G.G.",
"G.G.G.G.G.G.G.G.G.G.G.G.G.G.G.G.G.G.G.G.G.G.G.G.G.G.G.G.G.G.G.G.G.G.G.G.G.G.G.G.G.G.G.G.G.G.G.G.G.G.G.G.G.G.G.G.G.G.G.G.G.G.G.G.",
"G.G.G.G.G.G.G.G.G.G.G.G.G.G.G.G.G.G.G.G.G.G.G.G.G.G.G.G.G.G.G.G.G.G.G.G.G.G.G.G.G.G.G.G.G.G.G.G.G.G.G.G.G.G.G.G.G.G.G.G.G.G.G.G.",
"G.G.G.G.G.G.G.G.G.G.G.G.G.G.G.G.G.G.G.G.G.G.G.G.G.G.G.G.G.G.G.G.G.G.G.G.G.G.G.G.G.G.G.G.G.G.G.G.G.G.G.G.G.G.G.G.G.G.G.G.G.G.G.G.",
"G.G.G.G.G.G.G.G.G.G.G.G.G.G.G.G.G.G.G.G.G.G.G.G.G.G.G.G.G.G.G.G.G.G.G.G.G.G.G.G.G.G.G.G.G.G.G.G.G.G.G.G.G.G.G.G.G.G.G.G.G.G.G.G.",
"G.G.G.G.G.G.G.G.G.G.G.G.G.G.G.G.G.G.G.G.G.G.G.G.F.D.D.V.n.n.b.a.A.n.a.b.b.b.n.V.C.D.G.G.G.G.G.G.G.G.G.G.G.G.G.G.G.G.G.G.G.G.G.G.",
"G.G.G.G.G.G.G.G.G.G.G.G.G.G.G.G.G.G.G.G.G.D.m.a.s.1.=.] ` _ _ _ _ _ _ _ E _ _ ] ] =.4.i.n.D.G.G.G.G.G.G.G.G.G.G.G.G.G.G.G.G.G.G.",
"G.G.G.G.G.G.G.G.G.G.G.G.G.G.G.G.G.G.D.b.s.:.] ' ,.0. .} ` } } ` } } } } ' } ` _ _ _ _ _ _ [ 2.a.C.G.G.G.G.G.G.G.G.G.G.G.G.G.G.G.",
"G.G.G.G.G.G.G.G.G.G.G.G.G.G.G.G.C.p.:.` _ _ } ..j.j.0.7.7.7.7.7.7.7.7.9.q.r.>. .} ` { _ _ _ _ E [ 6.B.F.G.G.G.G.G.G.G.G.G.G.G.G.",
"G.G.G.G.G.G.G.G.G.G.G.G.G.F.D.p.=._ _ _ _ }  .,.t.h.w.9.9.9.9.9.9.9.9.0.y.u.t.9.7... . . . ._ _ _ _ ] 6.V.G.G.G.G.G.G.G.G.G.G.G.",
"G.G.G.G.G.G.G.G.G.G.G.G.G.V.2.` _ } }  .7.7.7.9.9.7.7.{ Q Q R R R R T R ~ &.^ ( | ' 9.9.7.7.7.{ ` _ _ _ [ v.G.G.G.G.G.G.G.G.G.G.",
"G.G.G.G.G.G.G.G.G.G.G.F.n.=._ _ } '  .7.7. .{ E T K K K K T T T R R R R Q W Q / Q R T R {  .7.7.7. .` _ _ _ s.G.G.G.G.G.G.G.G.G.",
"G.G.G.G.G.G.G.G.G.G.G.m.=._ _ }  ... .} R P K P T Q W W W Q R Q Q Q / / / ^ ) &.-.Q R T R T R ( 7.7.7.{ _ _ _ p.G.G.G.G.G.G.G.G.",
"G.G.G.G.G.G.G.G.G.G.D.3._ } } 7. .{ R K K T R R / &.&.~ W P L G G S S S G G P W / Q / Q R R R T K E 7.7.} _ _ ` B.G.G.G.G.G.G.G.",
"G.G.G.G.G.G.G.G.G.G.m.' `  ... .R P P T R Q Q / Y U D M v v l l v l v l l v v n n n N G T Q ! R R T K !  .} ` _ 6.G.G.G.G.G.G.G.",
"G.G.G.G.G.G.G.G.G.G.g._ } 7.' R T R R Q / / L B b v x v v z v b b m b v v b Z F Z n x l v M H Q / Q R T !  .} } :.G.G.G.G.G.G.G.",
"G.G.G.G.G.G.G.G.G.G.d._  .} Q -.) ^ / Q L N v z v v b b b b m B B A N M M N I 5.%.N v v z z z b H / / Q T !  .' =.G.G.G.G.G.G.G.",
"G.G.G.G.G.G.G.G.G.G.a.}  .R Q ;.;.^ Q S z z x v b m M M B B B B S A B N N A F %.F G M M N N n x z m Q ( Q R } } 1.G.G.G.G.G.G.G.",
"G.G.G.G.G.G.G.G.G.G.A.>.` P Q ^ | ~ B z z v b m M N N m l e w 5 3 2 2 2 2 3 r p c n N A S J S M z z m U ) Q R } d.G.G.G.G.G.G.G.",
"G.G.G.G.G.G.G.G.G.G.G.s.E T R ) | S z b b b N B n r 3 : - - - ; ; ; ; ; - 1 - ; ; ; 2 q c S D B m v z b Q ( / 1.V.G.G.G.G.G.G.G.",
"G.G.G.G.G.G.G.G.G.G.G.D.3.T / 8.U v z v m N c a p 6 : - : 2 1 1 3 3 3 3 3 5 1 1 1 ; - - : 4 y M B m v x S ) &.Z.G.G.G.G.G.G.G.G.",
"G.G.G.G.G.G.G.G.G.G.G.G.C.3.) 8.D v m m m w 6 f X.p 2 1 3 3 q 0 0 q e q q e q 3 3 2 1 ; - - & 2 x m m v n <.n.G.G.G.G.G.G.G.G.G.",
"G.G.G.G.G.G.G.G.G.G.G.G.G.D.f.e.A v m b 5 ; 6 p d 9 5 3 0 0 5 3 2 : = * : : 3 5 e q 5 1 ; - - & ; x m V +.B.G.G.G.G.G.G.G.G.G.G.",
"G.G.G.G.G.G.G.G.G.G.G.G.G.G.G.A.*.C b 3 & & ; 4 8 3 q q 1 # o                 X o : 3 q 3 1 - & * 7 O.c.C.G.G.G.G.G.G.G.G.G.G.G.",
"G.G.G.G.G.G.G.G.G.G.G.G.G.G.G.G.G.M.#.i : ; ; 1 3 0 0 $                             X 2 q 3 : u h $.F.G.G.G.G.G.G.G.G.G.G.G.G.G.",
"G.G.G.G.G.G.G.G.G.G.G.G.G.G.G.G.G.G.G.N.k.j s t q 0 =                               . % d o.$.l.F.G.G.G.G.G.G.G.G.G.G.G.G.G.G.G.",
"G.G.G.G.G.G.G.G.G.G.G.G.G.G.G.G.G.G.G.G.G.G.S.l.k.#.h < > @ + O O O O O + @ > , g k @.k.N.G.G.G.G.G.G.G.G.G.G.G.G.G.G.G.G.G.G.G.",
"G.G.G.G.G.G.G.G.G.G.G.G.G.G.G.G.G.G.G.G.G.G.G.G.G.G.G.F.F.x.z.l.l.l.l.l.z.x.N.N.F.G.G.G.G.G.G.G.G.G.G.G.G.G.G.G.G.G.G.G.G.G.G.G."
};
