/* XPM */
static char *__11721605757[] = {
/* columns rows colors chars-per-pixel */
"64 64 168 2 ",
"   c #02012A",
".  c #0A092E",
"X  c #030233",
"o  c #05033A",
"O  c #151435",
"+  c #1C1B39",
"@  c #24233F",
"#  c #070549",
"$  c #0A064A",
"%  c #1A1942",
"&  c #070457",
"*  c #090655",
"=  c #0C0855",
"-  c #07055A",
";  c #09065B",
":  c #0C095B",
">  c #2E2D46",
",  c #3C3B4F",
"<  c #3E3D52",
"1  c #0A0763",
"2  c #0E0963",
"3  c #0E096B",
"4  c #110C64",
"5  c #120B6C",
"6  c #191465",
"7  c #1C1961",
"8  c #151169",
"9  c #1E196E",
"0  c #0E0A73",
"q  c #120B74",
"w  c #1A0F72",
"e  c #130C79",
"r  c #1E1475",
"t  c #1C1078",
"y  c #211E6C",
"u  c #24197D",
"i  c #282663",
"p  c #312F69",
"a  c #2A2471",
"s  c #2F257D",
"d  c #393871",
"f  c #36327A",
"g  c #40397E",
"h  c #51505F",
"j  c #565477",
"k  c #555478",
"l  c #5E5D7E",
"z  c #676670",
"x  c #220F87",
"c  c #230F88",
"v  c #231185",
"b  c #291B86",
"n  c #25118A",
"m  c #29158E",
"M  c #2B1A8D",
"N  c #2B1692",
"B  c #2E1994",
"V  c #311B96",
"C  c #341C9A",
"Z  c #33238F",
"A  c #332492",
"S  c #332C95",
"D  c #36219B",
"F  c #3B239D",
"G  c #3D2A9E",
"H  c #3D3E9C",
"J  c #3F25A1",
"K  c #4126A3",
"L  c #4C27AF",
"P  c #4629A8",
"I  c #4C2AAE",
"U  c #462EA2",
"Y  c #4035A4",
"T  c #423EA4",
"R  c #4C33AC",
"E  c #5133AF",
"W  c #4E2BB1",
"Q  c #522DB2",
"!  c #5B2DB3",
"~  c #4F30B1",
"^  c #5433B5",
"/  c #5B33B6",
"(  c #5738B6",
")  c #5A3AB7",
"_  c #5735B8",
"`  c #5C36B8",
"'  c #5C3ABB",
"]  c #622CB4",
"[  c #6532B5",
"{  c #6A37B7",
"}  c #6738B2",
"|  c #693CB1",
" . c #6434B9",
".. c #6A35B9",
"X. c #643ABA",
"o. c #6D3ABD",
"O. c #713DBE",
"+. c #574E8E",
"@. c #4F4790",
"#. c #5D5797",
"$. c #585786",
"%. c #7C7B83",
"&. c #6C6995",
"*. c #7B7A90",
"=. c #4A4DA9",
"-. c #5B42B9",
";. c #675EA2",
":. c #6147B4",
">. c #6D46B2",
",. c #6F49B2",
"<. c #6140BA",
"1. c #6F41BC",
"2. c #6A4ABE",
"3. c #714DB1",
"4. c #7445BE",
"5. c #7846BE",
"6. c #6650B4",
"7. c #6E57B1",
"8. c #7654B6",
"9. c #7857B3",
"0. c #755BB1",
"q. c #795BB0",
"w. c #5F77B7",
"e. c #7F69AF",
"r. c #7E64B1",
"t. c #723EC0",
"y. c #6241C0",
"u. c #7443C2",
"i. c #7846C1",
"p. c #774BC4",
"a. c #7B4AC4",
"s. c #6C50C1",
"d. c #7550C3",
"f. c #7851C5",
"g. c #7A59C7",
"h. c #7F6DCC",
"j. c #846FAF",
"k. c #8674AF",
"l. c #8877AF",
"z. c #8C7DAD",
"x. c #856CB4",
"c. c #8773B1",
"v. c #8679B6",
"b. c #8B7AB0",
"n. c #8353C7",
"m. c #8657C9",
"M. c #9468CD",
"N. c #848492",
"B. c #898997",
"V. c #96959C",
"C. c #98979D",
"Z. c #9A999F",
"A. c #8380A1",
"S. c #8E80AE",
"D. c #9185AE",
"F. c #948AAD",
"G. c #988FAE",
"H. c #9593A3",
"J. c #9D9CA3",
"K. c #9A93AD",
"L. c #9E9AAC",
"P. c #9693AA",
"I. c #9289B0",
"U. c #9A96B0",
"Y. c #A09FA5",
"T. c #A29EAC",
"R. c #A2A1A7",
"E. c #A7A6AB",
/* pixels */
"E.E.E.E.E.E.E.E.E.E.E.E.E.E.E.E.E.E.E.E.E.E.E.E.E.E.E.E.E.E.E.E.E.E.E.E.E.E.E.E.E.E.E.E.E.E.E.E.E.E.E.E.E.E.E.E.E.E.E.E.E.E.E.E.",
"E.E.E.E.E.E.E.E.E.E.E.E.E.E.E.E.E.E.E.E.E.E.E.E.E.E.E.E.E.E.E.E.E.E.E.E.E.E.E.E.E.E.E.E.E.E.E.E.E.E.E.E.E.E.E.E.E.E.E.E.E.E.E.E.",
"E.E.E.E.E.E.E.E.E.E.E.E.E.E.E.E.E.E.E.E.E.E.E.E.E.E.E.E.E.E.E.E.E.E.E.E.E.E.E.E.E.E.E.E.E.E.E.E.E.E.E.E.E.E.E.E.E.E.E.E.E.E.E.E.",
"E.E.E.E.E.E.E.E.E.E.E.E.E.E.E.E.E.E.E.E.E.E.E.E.E.E.E.E.E.E.E.E.E.E.E.E.E.E.E.E.E.E.E.E.E.E.E.E.E.E.E.E.E.E.E.E.E.E.E.E.E.E.E.E.",
"E.E.E.E.E.E.E.E.E.E.E.E.E.E.E.E.E.E.E.E.E.E.E.E.E.E.E.E.E.E.E.E.E.E.E.E.E.E.E.E.E.E.E.E.E.E.E.E.E.E.E.E.E.E.E.E.E.E.E.E.E.E.E.E.",
"E.E.E.E.E.E.E.E.E.E.E.E.E.E.E.E.E.E.E.E.E.E.E.E.E.E.E.E.E.E.E.E.E.E.E.E.E.E.E.E.E.E.E.E.E.E.E.E.E.E.E.E.E.E.E.E.E.E.E.E.E.E.E.E.",
"E.E.E.E.E.E.E.E.E.E.E.E.E.E.E.E.E.E.E.E.E.E.E.E.E.E.E.E.E.E.E.E.E.E.E.E.E.E.E.E.E.E.E.E.E.E.E.E.E.E.E.E.E.E.E.E.E.E.E.E.E.E.E.E.",
"E.E.E.E.E.E.E.E.E.E.E.E.E.E.E.E.E.E.E.E.E.E.E.E.E.E.E.E.E.E.E.E.E.E.E.E.E.E.E.E.E.E.E.E.E.E.E.E.E.E.E.E.E.E.E.E.E.E.E.E.E.E.E.E.",
"E.E.E.E.E.E.E.E.E.E.E.E.E.E.E.E.E.E.E.E.E.E.E.E.E.E.E.E.E.E.E.E.E.E.E.E.E.E.E.E.E.E.E.E.E.E.E.E.E.E.E.E.E.E.E.E.E.E.E.E.E.E.E.E.",
"E.E.E.E.E.E.E.E.E.E.E.E.E.E.E.E.E.E.E.E.E.E.E.E.E.E.E.E.E.E.E.E.E.E.E.E.E.E.E.E.E.E.E.E.E.E.E.E.E.E.E.E.E.E.E.E.E.E.E.E.E.E.E.E.",
"E.E.E.E.E.E.E.E.E.E.E.E.E.E.E.E.E.E.E.E.E.E.E.E.E.E.E.E.E.E.E.E.E.E.E.E.E.E.E.E.E.E.E.E.E.E.E.E.E.E.E.E.E.E.E.E.E.E.E.E.E.E.E.E.",
"E.E.E.E.E.E.E.E.E.E.E.E.E.E.E.E.E.E.E.E.E.E.E.E.E.E.E.E.E.E.E.E.E.E.E.E.E.E.E.E.E.E.E.E.E.E.E.E.E.E.E.E.E.E.E.E.E.E.E.E.E.E.E.E.",
"E.E.E.E.E.E.E.E.E.E.E.E.E.E.E.E.E.E.E.E.E.E.E.E.E.E.E.E.E.E.E.E.E.E.E.E.E.E.E.E.E.E.E.E.E.E.E.E.E.E.E.E.E.E.E.E.E.E.E.E.E.E.E.E.",
"E.E.E.E.E.E.E.E.E.E.E.E.E.E.E.E.E.E.E.E.E.E.E.E.E.E.E.E.E.E.E.E.E.E.E.E.E.E.E.E.E.E.E.E.E.E.E.E.E.E.E.E.E.E.E.E.E.E.E.E.E.E.E.E.",
"E.E.E.E.E.E.E.E.E.E.E.E.E.E.E.E.E.E.E.E.E.E.E.E.E.E.E.E.E.E.E.E.E.E.E.E.E.E.E.E.E.E.E.E.E.E.E.E.E.E.E.E.E.E.E.E.E.E.E.E.E.E.E.E.",
"E.E.E.E.E.E.E.E.E.E.E.E.E.E.E.E.E.E.E.E.E.E.E.E.E.E.E.E.E.E.E.E.E.E.E.E.E.E.E.E.E.E.E.E.E.E.E.E.E.E.E.E.E.E.E.E.E.E.E.E.E.E.E.E.",
"E.E.E.E.E.E.E.E.E.E.E.E.E.E.E.E.E.E.E.E.E.E.E.E.E.E.E.E.E.E.E.E.E.E.E.E.E.E.E.E.E.E.E.E.E.E.E.E.E.E.E.E.E.E.E.E.E.E.E.E.E.E.E.E.",
"E.E.E.E.E.E.E.E.E.E.E.E.E.E.E.E.E.E.E.E.E.E.E.E.E.E.E.E.E.E.E.E.E.E.E.E.E.E.E.E.E.E.E.E.E.E.E.E.E.E.E.E.E.E.E.E.E.E.E.E.E.E.E.E.",
"E.E.E.E.E.E.E.E.E.E.E.E.E.E.E.E.E.E.E.E.E.E.E.E.E.E.E.E.E.E.E.E.E.E.E.E.E.E.E.E.E.E.E.E.E.E.E.E.E.E.E.E.E.E.E.E.E.E.E.E.E.E.E.E.",
"E.E.E.E.E.E.E.E.E.E.E.E.E.E.E.E.E.E.E.E.E.E.E.E.E.E.E.E.E.E.E.E.E.E.E.E.E.E.E.E.E.E.E.E.E.E.E.E.E.E.E.E.E.E.E.E.E.E.E.E.E.E.E.E.",
"E.E.E.E.E.E.E.E.E.E.E.E.E.E.E.E.E.E.E.E.E.E.E.E.E.E.E.E.E.E.E.E.E.E.E.E.E.E.E.E.E.E.E.E.E.E.E.E.E.E.E.E.E.E.E.E.E.E.E.E.E.E.E.E.",
"E.E.E.E.E.E.E.E.E.E.E.E.E.E.E.E.E.E.E.E.E.E.E.E.E.E.E.E.E.E.E.E.E.E.E.E.E.E.E.E.E.E.E.E.E.E.E.E.E.E.E.E.E.E.E.E.E.E.E.E.E.E.E.E.",
"E.E.E.E.E.E.E.E.E.E.E.E.E.E.E.E.E.E.E.E.E.E.E.E.E.E.E.E.E.E.E.E.E.E.E.E.E.E.E.E.E.E.E.E.E.E.E.E.E.E.E.E.E.E.E.E.E.E.E.E.E.E.E.E.",
"E.E.E.E.E.E.E.E.E.E.E.E.E.E.E.E.E.E.E.E.E.E.E.E.E.E.E.E.E.E.E.E.E.E.E.E.E.E.E.E.E.E.E.E.E.E.E.E.E.E.E.E.E.E.E.E.E.E.E.E.E.E.E.E.",
"E.E.E.E.E.E.E.E.E.E.E.E.E.E.E.E.E.E.E.E.E.E.E.E.E.E.E.E.E.E.E.E.E.E.E.E.E.E.E.E.E.E.E.E.E.E.E.E.E.E.E.E.E.E.E.E.E.E.E.E.E.E.E.E.",
"E.E.E.E.E.E.E.E.E.E.E.E.E.E.E.E.E.E.E.E.E.E.E.E.E.E.E.E.E.E.E.E.E.E.E.E.E.E.E.E.E.E.E.E.E.E.E.E.E.E.E.E.E.E.E.E.E.E.E.E.E.E.E.E.",
"E.E.E.E.E.E.E.E.E.E.E.E.E.E.E.E.E.E.E.E.E.E.E.E.E.E.E.E.E.E.E.E.E.E.E.E.E.E.E.E.E.E.E.E.E.E.E.E.E.E.E.E.E.E.E.E.E.E.E.E.E.E.E.E.",
"E.E.E.E.E.E.E.E.E.E.E.E.E.E.E.E.E.E.E.E.E.E.E.E.E.E.E.E.E.E.E.E.E.E.E.E.E.E.E.E.E.E.E.E.E.E.E.E.E.E.E.E.E.E.E.E.E.E.E.E.E.E.E.E.",
"E.E.E.E.E.E.E.E.E.E.E.E.E.E.E.E.E.E.E.E.E.E.E.E.E.E.E.E.E.E.E.E.E.E.E.E.E.E.E.E.E.E.E.E.E.E.E.E.E.E.E.E.E.E.E.E.E.E.E.E.E.E.E.E.",
"E.E.E.E.E.E.E.E.E.E.E.E.E.E.E.E.E.E.E.E.E.E.E.E.E.E.E.E.E.E.E.E.E.E.E.E.E.E.E.E.E.E.E.E.E.E.E.E.E.E.E.E.E.E.E.E.E.E.E.E.E.E.E.E.",
"E.E.E.E.E.E.E.E.E.E.E.E.E.E.E.E.E.E.E.E.E.E.E.E.E.E.E.E.E.E.E.E.E.E.E.E.E.E.E.E.E.E.E.E.E.E.E.E.E.E.E.E.E.E.E.E.E.E.E.E.E.E.E.E.",
"E.E.E.E.E.E.E.E.E.E.E.E.E.E.E.E.E.E.E.E.E.E.E.E.E.E.E.E.E.E.E.E.E.E.E.E.E.E.E.E.E.E.E.E.E.E.E.E.E.E.E.E.E.E.E.E.E.E.E.E.E.E.E.E.",
"E.E.E.E.E.E.E.E.E.E.E.E.E.E.E.E.E.E.E.E.E.E.E.E.E.E.E.E.E.E.E.E.E.E.E.E.E.E.E.E.E.E.E.E.E.E.E.E.E.E.E.E.E.E.E.E.E.E.E.E.E.E.E.E.",
"E.E.E.E.E.E.E.E.E.E.E.E.E.E.E.E.E.E.E.E.E.E.E.E.E.E.E.E.E.E.E.E.E.E.E.E.E.E.E.E.E.E.E.E.E.E.E.E.E.E.E.E.E.E.E.E.E.E.E.E.E.E.E.E.",
"E.E.E.E.E.E.E.E.E.E.E.E.E.E.E.E.E.E.E.E.E.E.E.E.E.E.E.E.E.E.E.E.E.E.E.E.E.E.E.E.E.E.E.E.E.E.E.E.E.E.E.E.E.E.E.E.E.E.E.E.E.E.E.E.",
"E.E.E.E.E.E.E.E.E.E.E.E.E.E.E.E.E.E.E.E.E.E.E.E.E.E.E.E.E.E.E.E.E.E.E.E.E.E.E.E.E.E.E.E.E.E.E.E.E.E.E.E.E.E.E.E.E.E.E.E.E.E.E.E.",
"E.E.E.E.E.E.E.E.E.E.E.E.E.E.E.E.E.E.E.E.E.E.E.E.E.E.E.E.E.E.E.E.E.E.E.E.E.E.E.E.E.E.E.E.E.E.E.E.E.E.E.E.E.E.E.E.E.E.E.E.E.E.E.E.",
"E.E.E.E.E.E.E.E.E.E.E.E.E.E.E.E.E.E.E.E.E.E.E.E.E.E.E.E.E.E.E.E.E.E.E.E.E.E.E.E.E.E.E.E.E.E.E.E.E.E.E.E.E.E.E.E.E.E.E.E.E.E.E.E.",
"E.E.E.E.E.E.E.E.E.E.E.E.E.E.E.E.E.E.E.E.E.E.E.E.E.E.E.E.E.E.E.E.E.E.E.E.E.E.E.E.E.E.E.E.E.E.E.E.E.E.E.E.E.E.E.E.E.E.E.E.E.E.E.E.",
"E.E.E.E.E.E.E.E.E.E.E.E.E.E.E.E.E.E.E.E.E.E.E.E.E.E.E.E.E.E.E.E.E.E.E.E.E.E.E.E.E.E.E.E.E.E.E.E.E.E.E.E.E.E.E.E.E.E.E.E.E.E.E.E.",
"E.E.E.E.E.E.E.E.E.E.E.E.E.E.E.E.E.E.E.E.E.E.E.E.E.E.E.E.E.E.E.E.E.E.E.E.E.E.E.E.E.E.E.E.E.E.E.E.E.E.E.E.E.E.E.E.E.E.E.E.E.E.E.E.",
"E.E.E.E.E.E.E.E.E.E.E.E.E.E.E.E.E.E.E.E.E.E.T.L.K.F.D.D.z.z.z.z.L.G.F.U.K.L.T.E.E.E.E.E.E.E.E.E.E.E.E.E.E.E.E.E.E.E.E.E.E.E.E.E.",
"E.E.E.E.E.E.E.E.E.E.E.E.E.E.E.E.E.E.L.F.k.q.,.} [ [ ] ] ] ] ] ] ] ] ] [ } >.9.x.S.G.T.E.E.E.E.E.E.E.E.E.E.E.E.E.E.E.E.E.E.E.E.E.",
"E.E.E.E.E.E.E.E.E.E.E.E.E.E.E.T.S.q.| ] ! ] ] ] ] [ X.{ [ ......[ ........{ 5.5.{ } ,.r.D.T.E.T.E.E.E.E.E.E.E.E.E.E.E.E.E.E.E.E.",
"E.E.E.E.E.E.E.E.E.E.E.E.E.K.r.{ ! ] ] ] ] ] ....o.4.d.p.u.t.t.t.t.t.t.t.t.u.M.M.4.] ] ] [ 3.l.T.E.E.E.E.E.E.E.E.E.E.E.E.E.E.E.E.",
"E.E.E.E.E.E.E.E.E.E.E.K.r.[ ] ] ] [ o...O.O.t.t.u.f.h.g.p.u.u.t.u.u.u.u.u.a.m.n.5.o...[ ] ] ] >.b.T.E.E.E.E.E.E.E.E.E.E.E.E.E.E.",
"E.E.E.E.E.E.E.E.E.E.z.} ! ] ] [ ..t.u.u.u.o...X.( ) ' ( Q W W Q Q Q ! ! /  .u.u.u.t.t.t.o.[ [ ] [ 9.G.E.E.E.E.E.E.E.E.E.E.E.E.E.",
"E.E.E.E.E.E.E.E.E.j.] ] ] [ ..t.t.t...` Q W Q _ _ ^ ^ ^ Q W W Q W W W W W W W W ! ` o.t.t.t.o...[ ] >.F.E.E.E.E.E.E.E.E.E.E.E.E.",
"E.E.E.E.E.E.E.E.k.] ] ] ..o.t.o./ Q W W W W ^ -.X.) _ _ _ ^ _ ^ ^ ^ ^ ~ ~ ^ ~ I L L Q Q  .o.O.o.....] >.G.E.E.E.E.E.E.E.E.E.E.E.",
"E.E.E.E.E.E.E.G.[ ] [ [ O.o./ Q Q Q Q ! ^ _ ( ^ R R K J F F F J J P I ~ ( -.-.( Q W W L L Q  .o.O.....] 9.T.E.E.E.E.E.E.E.E.E.E.",
"E.E.E.E.E.E.E.r.] [ ..O. .Q W Q / ^ ^ W J C N M M v n x x c v n x x n m B G R ^ _ ^ ^ Q W I L Q ..O...[ } F.E.E.E.E.E.E.E.E.E.E.",
"E.E.E.E.E.E.E.3.] { o.^ W Q ^ _ ^ K M n x c M S H S m n m m m m m n n v n v n m C P _ _ ^ Q E I ! ..O...] l.E.E.E.E.E.E.E.E.E.E.",
"E.E.E.E.E.E.E.>...o./ Q ^ _ _ K m n c n n m Z =.w.T V B B V F D B N N N N c c c c n V P / _ _ X.<.^ X.O.] k.E.E.E.E.E.E.E.E.E.E.",
"E.E.E.E.E.E.E.8... .Q ^ _ ~ B c n M V M N B D T =.H D B B D D C C C C V B B N N n n c v D ^ ' 2.2.^ Q o...b.E.E.E.E.E.E.E.E.E.E.",
"E.E.E.E.E.E.E.x.o.! ^ ' R m c n M F U J C B M b b r 4 3 1 3 2 4 4 q e n m C C V N m n c c C ( <.' Q I [ 4.K.E.E.E.E.E.E.E.E.E.E.",
"E.E.E.E.E.E.E.T.8.^ _ _ m c n N V J F b q 3 ; ; - - : ; : ; ; - ; ; - - ; 5 w M C B N m m c F ' ' ^ W ! x.E.E.E.E.E.E.E.E.E.E.E.",
"E.E.E.E.E.E.E.E.F.:.' D n m m C B u 4 ; ; & ; 1 1 2 3 3 5 3 3 3 1 1 1 2 ; ; 6 a s b V N m c n E -._ Q 7.T.E.E.E.E.E.E.E.E.E.E.E.",
"E.E.E.E.E.E.E.E.R.I.6.N n m B v 3 * & - ; 1 1 3 3 q e e e q q 0 q q 5 1 1 2 y +.g 6 r m N m v J y.' 0.L.E.E.E.E.E.E.E.E.E.E.E.E.",
"E.E.E.E.E.E.E.E.E.E.G.#.Z N v - - - ; : 1 0 q e 5 3 : - = = = 1 1 3 q 0 q 4 y f a 6 ; 4 m N n D s.v.E.E.E.E.E.E.E.E.E.E.E.E.E.E.",
"E.E.E.E.E.E.E.E.E.E.E.R.A.@.7 * & - 1 3 q 5 = o X               X o # 1 q q 5 5 4 - - * 5 m A ;.U.E.E.E.E.E.E.E.E.E.E.E.E.E.E.E.",
"E.E.E.E.E.E.E.E.E.E.E.E.E.J.N.k i : 3 q : X                             $ 3 0 3 1 - - = p &.P.E.E.E.E.E.E.E.E.E.E.E.E.E.E.E.E.E.",
"E.E.E.E.E.E.E.E.E.E.E.E.E.E.E.J.V.*.$.f % .                               = e q 9 d l B.J.E.E.E.E.E.E.E.E.E.E.E.E.E.E.E.E.E.E.E.",
"E.E.E.E.E.E.E.E.E.E.E.E.E.E.E.E.E.E.E.J.B.%.z h , > @ + O O O O O + @ > < k &.B.H.T.E.E.R.E.E.E.E.E.E.E.E.E.E.E.E.E.E.E.E.E.E.E.",
"E.E.E.E.E.E.E.E.E.E.E.E.E.E.E.E.E.E.E.E.E.E.E.E.R.Z.Z.V.V.V.V.V.C.Z.J.J.R.E.E.E.E.E.E.E.E.E.E.E.E.E.E.E.E.E.E.E.E.E.E.E.E.E.E.E."
};
