/* XPM */
static char *_z31721605760[] = {
/* columns rows colors chars-per-pixel */
"64 64 216 2 ",
"   c #2A354E",
".  c #2B3751",
"X  c #2C3954",
"o  c #2E3C5C",
"O  c #333E55",
"+  c #313E5D",
"@  c #2F3E60",
"#  c #303F61",
"$  c #34415E",
"%  c #3D465D",
"&  c #3F495E",
"*  c #334263",
"=  c #3A4662",
"-  c #3D4963",
";  c #34456B",
":  c #384668",
">  c #36496E",
",  c #3A4B6C",
"<  c #374A71",
"1  c #3A4D74",
"2  c #3A4F79",
"3  c #3F5174",
"4  c #3D517B",
"5  c #41495C",
"6  c #434D64",
"7  c #414E6B",
"8  c #44516C",
"9  c #4C5569",
"0  c #4C546C",
"q  c #515665",
"w  c #52596D",
"e  c #435374",
"r  c #42557C",
"t  c #4A5B79",
"y  c #4A5B7B",
"u  c #555D73",
"i  c #595F72",
"p  c #4F627C",
"a  c #546077",
"s  c #5D6375",
"d  c #55647B",
"f  c #5A657C",
"g  c #5A687E",
"h  c #636879",
"j  c #696D7B",
"k  c #6D717E",
"l  c #72747F",
"z  c #3E5482",
"x  c #415783",
"c  c #435A85",
"v  c #4B5E83",
"b  c #435B8B",
"n  c #455F91",
"m  c #4E6184",
"M  c #47608F",
"N  c #4C628C",
"B  c #526585",
"V  c #5D6B84",
"C  c #586B89",
"Z  c #5E708E",
"A  c #476195",
"S  c #496395",
"D  c #4B6698",
"F  c #49659B",
"G  c #4C699D",
"H  c #536A93",
"J  c #566B91",
"K  c #536D9C",
"L  c #5D7196",
"P  c #626D84",
"I  c #6B7282",
"U  c #65738A",
"Y  c #727683",
"T  c #777A86",
"R  c #7B7E8A",
"E  c #647494",
"W  c #66789A",
"Q  c #4D6CA3",
"!  c #516FA1",
"~  c #4F70A7",
"^  c #4F71A9",
"/  c #5272A5",
"(  c #5A75A3",
")  c #5275AC",
"_  c #5A78AA",
"`  c #5B79AB",
"'  c #5277B0",
"]  c #547AB3",
"[  c #597DB4",
"{  c #567EB8",
"}  c #5A7FB9",
"|  c #647DA6",
" . c #6A7EA4",
".. c #76808F",
"X. c #7E818D",
"o. c #5C82B9",
"O. c #5B83BC",
"+. c #6A81A9",
"@. c #6D83AA",
"#. c #6988B7",
"$. c #6285BB",
"%. c #718AB3",
"&. c #768BB2",
"*. c #718AB4",
"=. c #738DBA",
"-. c #5D86C1",
";. c #5F89C3",
":. c #6086C1",
">. c #638BC4",
",. c #688DC4",
"<. c #648EC9",
"1. c #6D97C7",
"2. c #6692CA",
"3. c #6A93CA",
"4. c #6E9ACC",
"5. c #7494C3",
"6. c #7996C6",
"7. c #7A98C5",
"8. c #729DCD",
"9. c #7A9BC9",
"0. c #6D9CD0",
"q. c #729DD0",
"w. c #74A3CE",
"e. c #7CA3CE",
"r. c #7BA9CE",
"t. c #74A3D1",
"y. c #79A4D2",
"u. c #76A9D3",
"i. c #7CACD4",
"p. c #76ABD9",
"a. c #7EB2D6",
"s. c #7CB3D9",
"d. c #81838E",
"f. c #87888F",
"g. c #848691",
"h. c #868993",
"j. c #8B8C94",
"k. c #8D8F99",
"l. c #8F9098",
"z. c #93949B",
"x. c #99999F",
"c. c #9C9CA2",
"v. c #A09FA5",
"b. c #9FA0A6",
"n. c #A1A1A6",
"m. c #A7A6AB",
"M. c #82A5CF",
"N. c #80ADCF",
"B. c #82A5D1",
"V. c #83ABD4",
"C. c #89AED5",
"Z. c #83AED9",
"A. c #83B3D5",
"S. c #8BB4D6",
"D. c #8CB9D6",
"F. c #83B5D9",
"G. c #8CB5D9",
"H. c #85BADB",
"J. c #8BBBDB",
"K. c #93BAD6",
"L. c #90B7D8",
"P. c #92BDDA",
"I. c #87BDE0",
"U. c #8EC1DD",
"Y. c #93C3DD",
"T. c #9AC4DD",
"R. c #95C8DF",
"E. c #9DC8DF",
"W. c #A4C6DD",
"Q. c #A4CCDF",
"!. c #87C1E0",
"~. c #8CC2E1",
"^. c #94C5E1",
"/. c #9AC7E4",
"(. c #96C9E2",
"). c #9CCAE3",
"_. c #9ECCE8",
"`. c #A3CCE4",
"'. c #AACEE5",
"]. c #A4CEE9",
"[. c #AACFE9",
"{. c #B3CFE6",
"}. c #A6D0E3",
"|. c #ACD1E5",
" X c #A5D1EC",
".X c #ABD2EB",
"XX c #ADD9ED",
"oX c #B1D2E5",
"OX c #B4D4EB",
"+X c #B9D5EC",
"@X c #BCD9ED",
"#X c #B3D5F1",
"$X c #BBD7F1",
"%X c #B3D9F2",
"&X c #BCDAF3",
"*X c #C0D8EF",
"=X c #C0D7F0",
"-X c #C3DCF4",
";X c #C9DEF6",
":X c #C4DEF9",
">X c #C9DEF9",
",X c #CDE2F7",
"<X c #C5E2FA",
"1X c #CBE4FA",
"2X c #CDEAFC",
"3X c #D1E7FB",
"4X c #D2ECFC",
"5X c #CFF1FD",
"6X c #D4F4FC",
"7X c #DAF6FD",
"8X c #D6F8FD",
"9X c #DCFAFD",
"0X c #E3FCFD",
"qX c #EBFCFD",
"wX c #F4FCFD",
"eX c #FBFCFD",
/* pixels */
"m.m.m.m.m.m.m.m.m.m.m.m.m.m.m.m.m.m.m.m.m.m.m.m.m.m.m.m.m.m.m.m.m.m.m.m.m.m.m.m.m.m.m.m.m.m.m.m.m.m.m.m.m.m.m.m.m.m.m.m.m.m.m.m.",
"m.m.m.m.m.m.m.m.m.m.m.m.m.m.m.m.m.m.m.m.m.m.m.m.m.m.m.m.m.m.m.m.m.m.m.m.m.m.m.m.m.m.m.m.m.m.m.m.m.m.m.m.m.m.m.m.m.m.m.m.m.m.m.m.",
"m.m.m.m.m.m.m.m.m.m.m.m.m.m.m.m.m.m.m.T 5 5 5 5 6 - 6 6 8 6 6 - 6 6 & & 5 & & & 5 f.m.m.m.m.m.m.m.m.m.m.m.m.m.m.m.m.m.m.m.m.m.m.",
"m.m.m.m.m.m.m.m.m.m.m.m.m.m.m.m.m.m.x.w . X X O $ $ $ = * * $ $ $ o X X X . . .   q n.m.m.m.m.m.m.m.m.m.m.m.m.m.m.m.m.m.m.m.m.m.",
"m.m.m.m.m.m.m.m.m.m.m.m.m.m.m.m.m.c.s $ $ + * * ; > , 3 1 , , > ; ; ; * $ $ $ $ o O l n.m.m.m.m.m.m.m.m.m.m.m.m.m.m.m.m.m.m.m.m.",
"m.m.m.m.m.m.m.m.m.m.m.m.m.m.m.m.l.s + = , , , < 3 3 4 4 c z r 4 4 3 1 1 1 > < > * + + w R c.n.m.m.m.m.m.m.m.m.m.m.m.m.m.m.m.m.m.",
"m.m.m.m.m.m.m.m.m.m.m.m.m.m.c.Y 6 $ * , 4 r x r z M M M S S M M b c z z z z z 4 < , * * # 7 u g.m.m.m.m.m.m.m.m.m.m.m.m.m.m.m.m.",
"m.m.m.m.m.m.m.m.m.m.m.m.c.d.s % = * 1 r c b S S D G G ~ ) ) ~ G G G F S S A S b x 4 1 < , < ; 6 j.m.m.m.m.m.m.m.m.m.m.m.m.m.m.m.",
"m.m.m.m.m.m.m.m.m.m.m.c.j % = > , 1 r c S K / / / ) [ } O.$.O.[ [ ' ^ ~ / ^ ) G A b b x x x e # 9 x.m.m.m.m.m.m.m.m.m.m.m.m.m.m.",
"m.m.m.m.m.m.m.m.m.m.m.Y = : , 3 r x c S Q _ } } $.:.,.<.2.3.<.<.>.>.O.o.O.} } ) Q Q F A F n 2 ; + j n.m.m.m.m.m.m.m.m.m.m.m.m.m.",
"m.m.m.m.m.m.m.m.m.m.l.9 = , 4 r c A F / ] O.2.3.3.8.q.q.8.y.y.q.8.4.3.3.3.3.3.:.} ' ) ' ' G x < * - z.m.m.m.m.m.m.m.m.m.m.m.m.m.",
"m.m.m.m.m.m.m.m.m.c.s = , e c M K ! / [ $.2.8.y.y.y.V.F.F.G.F.A.V.i.r.y.r.y.8.3.,.>.>.>.O.Q n z < * w c.m.m.m.m.m.m.m.m.m.m.m.m.",
"m.m.m.m.m.m.m.m.c.j % : 3 r M H / [ } >.3.8.i.H.G.J.J.Y.P.Y.T.P.P.J.S.H.H.D.a.w.8.8.q.q.>.' F b 4 < @ f n.m.m.m.m.m.m.m.m.m.m.m.",
"m.m.m.m.m.m.m.c.j & , 3 r v S / [ >.3.6.q.p.G.Y././.(.).`.].'.`.E.).T.Y.R./.Y.D.Z.i.F.i.3.} ~ F b 2 , * d.n.m.m.m.m.m.m.m.m.m.m.",
"m.m.m.m.m.m.n.k - , 3 e m N K [ $.3.t.y.Z.G.^.E.'.'.[.OXOX+X+XOXoXoX`.`.`.|.(.Y.P.(.^.Z.4.>.] Q A b 2 ; - j.m.m.m.m.m.m.m.m.m.m.",
"m.m.m.m.m.m.x.w , 8 r M N G _ o.2.q.Z.J./.Y.).'.OX-X*X*X-X-X;X;X-X$X+X+X$X+X'.`.`. X).H.y.3.>.] ~ n z > * h m.m.m.m.m.m.m.m.m.m.",
"m.m.m.m.m.m.z.0 3 r v H K ( } ,.8.M.S.Y.).`.'.+X*X;X1X>X1X1X1X1X<X>X-X-X:X;X+X+X#X&X].R.F.w.2.-.] Q b 2 ; # g.m.m.m.m.m.m.m.m.m.",
"m.m.m.m.m.m.k.e e v N K _ O.,.1.y.Z.Y.).|.OX@X-X:X,X3X1X3X4X4X4X2X1X1X1X1X1X:X:X,X-X'.).U.i.w.<.} ^ A z 1 @ = j.m.m.m.m.m.m.m.m.",
"m.m.m.m.m.m.X.t y m J / +.,.8.y.Z.J.).'.OX=X>X>X,X3X6X8X6X6X7X8X7X6X6X5X6X4X1X1X4X:XOX`.R.J.a.4.;.] Q n z > @ t n.m.m.m.m.m.m.m.",
"m.m.m.m.m.b.j t y N K _ O.3.y.Z.G./.`..X@X>X1X3X3X6X7X9X9X9X9X0X9X7X7X7X9X6X6X6X4X1X$XoX).Y.F.w.2.{ ' n z 2 ; @ T m.m.m.m.m.m.m.",
"m.m.m.m.m.j.p t B H ( +.,.8.V.J.Y.`.'.OX-X>X3X4X6X8X9X0XqX0XqXqXqX0X0X0X0X9X9X0X7X1X:X$X[./.D.i.0.;.] ~ A z < @ # Y n.m.m.m.m.m.",
"m.m.m.m.m...t p J L | #.5.e.Z.P.Q.|.+X-X:X1X4X7X9X0X0XqXwXwXwXwXwXwXqXwXwX0XqX0X7X2X1X:XOX`.Y.i.t.<.-.' Q z z 2 : + Y m.m.m.m.m.",
"m.m.m.m.m.I p B L L +.=.9.B.S.T.}.XX-X>X1X3X7X9X0XqXwXwXeXeXeXwXeXwXeXeXeXwXwXqX9X6X2X<X$X[.T.J.s.4.2.O.' F z z < # w n.m.m.m.m.",
"m.m.m.m.b.U p C L +.#.5.B.V.P.Q.}.+X;X1X3X7X7X0X0XqXwXeXeXwXeXeXeXeXeXeXeXeXeXqX0X7X5X1X-XOX`.Y.H.y.4.2.-.' Q z 2 ; i n.m.m.m.m.",
"m.m.m.m.c.B B Z W @.=.9.C.L.T.`.oX@X;X,X4X9X0XqXqXwXeXeXeXeXeXeXeXeXeXeXeXeXwXwXqX9X5X2X&X&X.X_.Y.F.s.t.2.{ ~ n 2 : g.m.m.m.m.m.",
"m.m.m.m.X.d V E  .%.5.e.S.P.`.'.@X<X,X3X4X9X0XqXwXeXeXeXeXeXeXeXeXwXeXeXeXeXeXeXwX0X8X5X<X:X$XOX].).J.u.2.] Q z < : k.m.m.m.m.m.",
"m.m.m.m.Y a V E  .*.6.B.S.T.Q.oX*X;X2X4X7X9X0XwXeXwXeXeXeXeXeXeXeXeXeXeXeXeXeXeXeX0X9X7X5X2X1X<X#X).H.t.<.] Q z < # X.m.m.m.m.m.",
"m.m.m.b.I a V E  .&.6.y.L.E.}.+X-X3X3X7X7X0XqXeXeXeXeXeXeXeXeXeXeXeXeXeXeXeXeXeXeXwXqX0X9X7X2X:X[.Y.F.q.;.] Q z 2 # w v.m.m.m.m.",
"m.m.m.c.h g V E  .*.6.B.L./.}.+X;X,X4X7X0XqXwXeXeXeXeXeXeXeXeXeXeXeXeXeXeXeXeXeXeXeXwXqX9X2X<X$X'.P.A.8.<.{ Q n x # @ I m.m.m.m.",
"m.m.m.k.u g V U  .%.6.B.G.T.Q.+X-X,X4X7X9XqXwXeXeXeXeXeXeXeXeXeXeXeXeXeXeXeXeXeXeXeXeX0X8X2X<XOX`.T.S.r.3.;.' F x 1 # 6 z.m.m.m.",
"m.m.m.h.u f P E  .*.6.B.L.T.Q.oX-X,X4X7X0XqXeXeXeXeXeXeXeXeXeXeXeXeXeXeXeXeXeXeXeXeXwX0X8X4X1X-XOX`.P.a.q.<.] Q b z # @ T m.m.m.",
"m.m.m.X.w f V E  .*.6.B.L.E.|.+X;X,X4X0X0XwXeXeXeXeXeXeXeXeXeXeXeXeXeXeXeXeXeXeXeXeXeXwX9X8X3X1X$X|.T.J.y.2.O.^ n z < @ h m.m.m.",
"m.m.m.R u f P E @.*.7.B.K.E.}.@X>X3X4X9X0XwXeXeXeXeXeXeXeXeXeXeXeXeXeXeXeXeXeXeXeXeXeXeXqX0X7X3X,X&X|.(.U.t.2.o.Q z 2 ; u n.m.m.",
"m.m.m.d.u V P W @.&.M.C.L.E.|.@X-X3X4X9X0XwXeXeXeXeXeXeXeXeXeXeXeXeXeXeXeXeXeXeXeXeXeXqX0X7X4X1X&XOX`.Y.a.w.;.o.Q A 4 > 7 c.m.m.",
"m.m.m.R u B V E @.*.7.M.L.E.Q.@X-X,X4X9X0XwXeXeXeXeXeXeXeXeXeXeXeXeXeXeXeXeXeXeXeXeXqX9X8X4X1X-X+X'.T.F.w.2.o.~ F z < @ % z.m.m.",
"m.m.v.I V U T @.&.7.M.L.T.`.+X*X,X3X4X7X0XqXeXeXeXeXeXeXeXeXeXeXeXeXeXeXeXeXeXeXeXeXqX0X8X2X<X-X+XQ.E.J.a.w.O._ G b 4 , = Y z.m.",
"m.m.m.R U U W @.&.M.M.L.T.W.oX@X;X,X4X6X9X0XeXeXeXeXeXeXeXeXeXeXeXeXeXeXeXeXeXeXeXeXwX0X6X1X:X$X{.W.K.N.r.5.O.o.K n r e u Y z.m.",
"m.m.m.c.h V U E @.&.=.M.S.K.W.'.{.;X,X3X7X0XwXeXeXeXeXeXeXeXeXeXeXeXeXeXeXeXeXeXeXeXeX0X6X1X-X{.W.K.N.w.#.o.~ M x , : Y z.m.m.m.",
"m.m.m.m.h.d P E W @.&.9.M.L.T.Q.{.=X,X,X6X9XqXeXeXeXeXeXeXeXeXeXeXeXeXeXeXeXeXeXeXeXwX0X7X2X-XOXW.K.e.8.;.' F b 1 ; 9 c.m.m.m.m.",
"m.m.m.m.c.j f P E  .%.6.e.V.Y.Q.Q.+X-X,X4X9XqXeXeXeXeXeXeXeXeXeXeXeXeXeXeXeXeXeXwXeXqX0X7X4X>X$XW.K.i.1.$.o.F z 1 # s m.m.m.m.m.",
"m.m.m.m.m.h.d B U W  .5.9.B.S.R.Q.oX*X2X6X0X0XqXwXwXeXeXeXeXeXeXeXeXeXeXeXeXeXwXqXqX0X9X7X1X1X&X'.S.i.1.-.) n x > # Y m.m.m.m.m.",
"m.m.m.m.m.m...d C E | =.6.y.S.Y.Q.oX&X2X6X7X0X0X0X0XqXeXeXeXeXeXeXeXeXeXeXeXwXqX0X7X7X7X6X1X>X$X.X/.A.q.O./ n z > : h.m.m.m.m.m.",
"m.m.m.m.m.m.z.V B C W [ =.8.Z.J.).XX&X1X2X4X4X6X8X7X9X9XqXeXeXeXeXwXwXwXwXqX9X0X9X6X6X2X1X1X-XOX`.^.F.q.-.^ n z ; 7 c.m.m.m.m.m.",
"m.m.m.m.m.m.c.g m C L | =.8.V.P._.XXXX:X<X,X,X,X2X5X8X8X9XqXwXwXwXqX0X0XqX0X9X8X8X4X1X:X:X-X$X[./.G.i.0.<.' n z ; = z.m.m.m.m.m.",
"m.m.m.m.m.m.g.p y B L | #.q.V.I.(.). X%X#X%X@X-X1X<X2X5X9XqXqX0X0X9X8X8X8X9X8X5X6X2X:X+X#X{.'.`.Y.H.t.2.-.) n z : # j.m.m.m.m.m.",
"m.m.m.m.m.m.Y > t B H | #.9.q.Z.H.^._.).).]..X%X&X&X1X5X8X9X9X8X8X8X5X5X8X8X2X1X<X1X:XOX`././.~.J.i.4.>.{ ~ n z < = z.m.m.m.m.m.",
"m.m.m.m.m.m.X., e m H | } ,.4.y.Z.F.J.~.U.(.`.]. X%X&X<X8X8X5X8X5X2X2X2X2X5X2X:X&X&X$X].P.P.J.F.i.t.2.-./ n x 2 # # j.m.m.m.m.m.",
"m.m.m.m.m.m.d.- e v N ! | | ,.0.q.u.u.s.F.U.U.R._. X%X<X2X2X2X2X<X<X&X:X<X<X<X%X.X[. X].P.S.y.t.1.<.;.' Q b 2 : = h x.m.m.m.m.m.",
"m.m.m.m.m.m.z.8 e t m N K _ #.$.,.3.4.8.u.i.s.H.U.(.XX&X<X<X<X<X&X#X.X#X%X&X&X X`.T.Y.R.A.y.3.<.;.} ' Q n b 1 # u c.m.m.m.m.m.m.",
"m.m.m.m.m.m.m.l , e r m H K _ _ [ $.>.3.4.4.u.s.a.U._.%X%X%X%X#X[.].]._._. XXX_.^.H.H.F.i.8.>.} ' / Q A b 2 ; : g.n.m.m.m.m.m.m.",
"m.m.m.m.m.m.m.x.s - e p N N F G / / O.O.;.;.4.w.s.s.(. X X X X(./.^.Y.^.^.^.(.(.!.i.w.w.t.2.-.' Q A b z 2 < # w c.m.m.m.m.m.m.m.",
"m.m.m.m.m.m.m.m.c.a 3 e r r y N S D / ` [ O.;.3.t.s.!.(.!.~.(.U.F.s.s.s.I.s.U.U.i.4.4.2.>.;.{ Q n z 2 < # @ 6 X.n.m.m.m.m.m.m.m.",
"m.m.m.m.m.m.m.m.m.z.9 - - e 3 3 c b S G Q ' { >.0.p.!.s.s.!.!.s.y.u.w.w.u.u.p.u.0.2.;.O.{ ] Q n z 2 > # 6 i g.n.m.m.m.m.m.m.m.m.",
"m.m.m.m.m.m.m.m.m.m.l.6 = = : 3 3 x c b A Q ' [ -.0.p.0.t.p.u.0.4.1.4.2.2.2.0.0.2.;.o.) Q G G b 2 > # u j.n.m.m.m.m.m.m.m.m.m.m.",
"m.m.m.m.m.m.m.m.m.m.m.f.& $ $ = , 1 1 r b A G / { 2.2.2.2.2.2.;.;.;.;.;.-.-.;.;.-.] Q F n b x r < @ - z.m.m.m.m.m.m.m.m.m.m.m.m.",
"m.m.m.m.m.m.m.m.m.m.m.m.f.l s - * * , < 4 x n G ' O.-.-.O.-.-.O.o.{ ] ' ' ' ] O.] Q F z x 2 2 1 * * j n.m.m.m.m.m.m.m.m.m.m.m.m.",
"m.m.m.m.m.m.m.m.m.m.m.m.m.m.n.z.i + # : , 1 x n Q ) ) ' ' ] ' ) ~ Q Q Q F Q Q Q Q n b 2 < # # # 6 Y m.m.m.m.m.m.m.m.m.m.m.m.m.m.",
"m.m.m.m.m.m.m.m.m.m.m.m.m.m.m.m.v.d.6 + # : 2 c n Q n A F F F n A b A z z z z z n x 2 < # # 6 P g.n.m.m.m.m.m.m.m.m.m.m.m.m.m.m.",
"m.m.m.m.m.m.m.m.m.m.m.m.m.m.m.m.m.m.x.h # # < 2 b b x x z b z z 4 z 2 2 2 2 z 2 x 1 < # 7 I k.n.m.m.m.m.m.m.m.m.m.m.m.m.m.m.m.m.",
"m.m.m.m.m.m.m.m.m.m.m.m.m.m.m.m.m.m.m.n.f.6 # < 1 1 1 2 2 2 1 < < > ; ; * ; ; ; < : # s j.n.m.m.m.m.m.m.m.m.m.m.m.m.m.m.m.m.m.m.",
"m.m.m.m.m.m.m.m.m.m.m.m.m.m.m.m.m.m.m.m.m.j.# ; ; ; # ; > ; # # # + o o o * = * # # w c.m.m.m.m.m.m.m.m.m.m.m.m.m.m.m.m.m.m.m.m.",
"m.m.m.m.m.m.m.m.m.m.m.m.m.m.m.m.m.m.m.m.m.m.f.w + + + + o = - 9 w w 6 s j R l.z.j.R z.m.m.m.m.m.m.m.m.m.m.m.m.m.m.m.m.m.m.m.m.m.",
"m.m.m.m.m.m.m.m.m.m.m.m.m.m.m.m.m.m.m.m.m.m.m.v.R R h.X.Y d.z.c.n.n.c.n.m.m.m.m.m.m.m.m.m.m.m.m.m.m.m.m.m.m.m.m.m.m.m.m.m.m.m.m.",
"m.m.m.m.m.m.m.m.m.m.m.m.m.m.m.m.m.m.m.m.m.m.m.m.m.m.m.m.m.m.m.m.m.m.m.m.m.m.m.m.m.m.m.m.m.m.m.m.m.m.m.m.m.m.m.m.m.m.m.m.m.m.m.m."
};
