/* XPM */
static char *b0a35b42f04f4603d596f33a3db1e140y0nv7mK7oCVD3JC8[] = {
/* columns rows colors chars-per-pixel */
"48 48 184 2 ",
"   c #040423",
".  c #1D0924",
"X  c #1F1C24",
"o  c #181734",
"O  c #5B1C1A",
"+  c #7F1D16",
"@  c #7A2918",
"#  c #743217",
"$  c #4D3D31",
"%  c #723F38",
"&  c #4A471C",
"*  c #7D5017",
"=  c #7B6514",
"-  c #787515",
";  c #585623",
":  c #282842",
">  c #39384B",
",  c #4A3D4C",
"<  c #5E5854",
"1  c #694F4E",
"2  c #764B45",
"3  c #6A555A",
"4  c #755657",
"5  c #6F6E4F",
"6  c #7D6246",
"7  c #7C7A49",
"8  c #656457",
"9  c #767352",
"0  c #7C7A57",
"q  c #7E6B6B",
"w  c #7B796E",
"e  c #7E7877",
"r  c #8E0512",
"t  c #851F15",
"y  c #931012",
"u  c #AA0F0F",
"i  c #B10E0C",
"p  c #B51C0F",
"a  c #982511",
"s  c #8B3618",
"d  c #9B3616",
"f  c #BD3D0E",
"g  c #A53510",
"h  c #8B2429",
"j  c #893F29",
"k  c #C60C09",
"l  c #D50E07",
"z  c #D80E06",
"x  c #C2110B",
"c  c #DC1005",
"v  c #EB1103",
"b  c #F11101",
"n  c #F11A02",
"m  c #C92C07",
"M  c #875110",
"N  c #AD5C0D",
"B  c #AB431B",
"V  c #B6431B",
"C  c #8C472B",
"Z  c #92432B",
"A  c #8B592C",
"S  c #8B4836",
"D  c #8C4D3C",
"F  c #954D37",
"G  c #9E553D",
"H  c #AA4420",
"J  c #A54B2C",
"K  c #A14D32",
"L  c #847F2A",
"P  c #937C39",
"I  c #B0602C",
"U  c #CE430C",
"Y  c #DC4607",
"T  c #D1440B",
"R  c #C34A19",
"E  c #C15F13",
"W  c #E24706",
"Q  c #EA4904",
"!  c #E44C09",
"~  c #F34C04",
"^  c #FC4E00",
"/  c #E75B06",
"(  c #F35205",
")  c #FB5201",
"_  c #F45B05",
"`  c #FB5A02",
"'  c #F86403",
"]  c #F66E06",
"[  c #FB6B03",
"{  c #F67305",
"}  c #FB7302",
"|  c #FA7C04",
" . c #885847",
".. c #815953",
"X. c #82734B",
"o. c #836361",
"O. c #887472",
"+. c #847B7C",
"@. c #957775",
"#. c #8C8613",
"$. c #9A951C",
"%. c #9F9A19",
"&. c #BC9E17",
"*. c #BBB40E",
"=. c #B4A218",
"-. c #B9B415",
";. c #908C2B",
":. c #AA9D26",
">. c #B1A323",
",. c #DB8E0F",
"<. c #C3930E",
"1. c #FC8204",
"2. c #FB8B02",
"3. c #F38F08",
"4. c #EC9507",
"5. c #F59205",
"6. c #FB9304",
"7. c #FA9C05",
"8. c #D9B00B",
"9. c #C4BE12",
"0. c #FAA304",
"q. c #F9A804",
"w. c #E8B709",
"e. c #FBB304",
"r. c #F6B805",
"t. c #FBBA04",
"y. c #C9C20B",
"u. c #CEC90E",
"i. c #D9C308",
"p. c #DBD40A",
"a. c #CBC512",
"s. c #D4CD1B",
"d. c #F3C307",
"f. c #FCC404",
"g. c #FCCC04",
"h. c #E2D90B",
"j. c #FBD304",
"k. c #FCDB03",
"l. c #EAE106",
"z. c #EEE707",
"x. c #F2E305",
"c. c #FCE403",
"v. c #F3EB05",
"b. c #FDEC02",
"n. c #FFF502",
"m. c #878447",
"M. c #928F4F",
"N. c #99894E",
"B. c #848165",
"V. c #868479",
"C. c #93917D",
"Z. c #7E7D89",
"A. c #867F84",
"S. c #878685",
"D. c #898589",
"F. c #8D8B8C",
"G. c #948182",
"H. c #8F8E93",
"J. c #938E92",
"K. c #949397",
"L. c #969499",
"P. c #999898",
"I. c #9B9A9E",
"U. c #9E9DA2",
"Y. c #A09FA4",
"T. c #A2A1A6",
"R. c #A6A5AA",
"E. c #A8A7AC",
"W. c #A7A8AC",
"Q. c #AAA9AE",
"!. c #ADADB1",
"~. c #B0AFB4",
"^. c #AEB0B4",
"/. c #B2B1B6",
"(. c #B5B4B9",
"). c #B8B7BC",
"_. c #B7B9BD",
"`. c #B9B9BA",
"'. c #B9B8BC",
"]. c #BCBBBE",
"[. c #BDBCBE",
"{. c #BCBBC0",
"}. c #BDBDC1",
"|. c #C1C0C5",
/* pixels */
"'.`.`.].].'.).`.).).).'.'.{.}.}.'.{.).).'.).'.'.}.|.|.'.'.'.).).'.'.(./.^.!.^.!.!.!.^./.(.(.(.^.",
"[.}.[.}.}.'.'.'.`.).'.'.'.'.}.{.'.'.).).).).'.).'.'.'.'.).)./.).).).)././.^.!.^./././.).).).).(.",
"'.}.[.'.}.[.[.}.'.).'.'.).).'.).(.(./.).).(.).(.)./.~./.).(./.~./././././.!.!.!.!.!./.).).).)./.",
"[.}.}.].`.`.].[.'.).'.).).).).).)././.).)./.).)./.~.!././.~.!.!././.~.!.!.!.!./.!./.(.).).).(.(.",
"`.[.'.'.'.].[.'.`.'.).).).(.(.(./.!.!.!.^./.(./.!.!.!.!.!.!.!.!.~.!.!.!./.!.!././.(.).).).).'.).",
"'.[.[.[.'.'.[.[.'.'.).'.).(.(.)./.!.!.!.!.Q.~././.~.!.!.Q.!.!.!.!.!.!.!.!.!./.(.(.).).).).'.'.).",
"`.].`.[.'.}.}.'.'.'.'.'.).(././././.!.!.Q.Q.!.!.!.!.!.!.!.~.!.!.~.~.!.Q.!.!.!.(.(.).).).).'.'.'.",
").'.'.'.'.].}.'.'.).'.`.).)././.!./.!.!.!.!.!.Q.Q.Q.Q.Q.Q.!.!.!.!.!.!.!.!.!././.(.(.(.).).).'.`.",
"(.'.'.'.'.'.'.'.'.).).).).).)././.!.!.Q.Q.!.!.!.!.Q.Q.E.E.!.Q.!.!.!.!.!.!.~././.(.).).).).).'.`.",
"/.).).)._._.'.).).).).).).(.)././.~.!.!.Q.Q.Q.!.!.Q.Q.E.E.Q.Q.!.!./.!.!.!./././././.(.).).'.).(.",
"~./././.(.).).).).).).).(.(.).)./.!.Q.!.Q.!.!.!.!.Q.Q.Q.Q.Q.!.!.!.!.!.!.!.!./././././.(.).).).(.",
"!./././.).).).).).(.).).).(.(.(./.~.!.!.Q.!.!.!.!.!.Q.Q.Q.!.!.!.!./.!.!.!.!.!.!./.!.~././.(./.(.",
"!./.~././.(././././././././.(./././.!.!.!.Q.!.Q.Q.!.!.!.Q.!.!.~././.!.!.!.!.!.!.!.!.!.~././././.",
"!.!.!.!././././.^.^././././././././.!.~.!.Q.!.Q.Q.Q.Q.Q.!.!.!.!.~.~.!.!.!.!.!.!.!.!.!.!.!.~././.",
"Q.!.!.!.!.~.!.!.!.!.~./././.!.~././.!.!.!.!.!.Q.!.!.!.!.!.Q.E.Q.!.!.Q.!.!.!.Q.!.!.!.!.!.!.!.~./.",
"Q.Q.!.!.!.!.!.!.!.!.!././.~.!.~./.~.!.!.!.!.!.Q.Q.!.!.Q.Y.q P 7 L.!.!.!.!.Q.Q.!.!.Q.!.!.!.!.!.!.",
"E.Q.Q.!.!.!.!.!.!.!.!./.!.!.!.!.!.!.!.!.!.!.Q.!.!.!.!.Q.O.E j.v.;.P.!.!.!.E.Q.Q.Q.!.!.!.!.!.!.!.",
"E.!.Q.Q.Q.!.~.~.!.!.~.~.!.!.!.Q.Q.!.!.!.!.Q.W.T.K.F.C.O.I r.n.n.v.M.Q.!.!.E.E.E.Q.Q.!.Q.!.!.!.!.",
"E.!.!.!.Q.!.!.~.!.!.!.!.!.!.!.!.!.Q.Q.Q.Q.I.+.X.:.9.p.w.d.n.n.n.n.M.E.!.Q.Q.Q.E.E.E.!.Q.!.!.!.!.",
"E.Q.!.!.!.!.!.!.!.!.!.!.!.!.!.!.!.Q.E.R.D.6 &.l.n.n.n.n.n.n.n.n.l.7 T.!.E.E.E.Q.Q.Q.Q.Q.Q.!.!.Q.",
"Q.Q.Q.Q.Q.!.!.!.!.!.!.!.!.!.!.!.!.E.R.+.A w.n.n.n.n.n.n.n.n.n.n.n.u.9 I.E.E.E.Q.E.Q.Q.Q.Q.!.!.Q.",
"E.Q.Q.Q.!.!.!.!.!.!.Q.!.!.!.!.!.Q.E.S.C w.n.n.n.n.n.n.n.n.n.n.n.n.n.p.9 T.E.E.E.E.Q.Q.Q.Q.!.!.Q.",
"E.!.!.!.!.Q.!.!.!.!.!.!.!.!.!.!.Q.U.2 ,.b.n.n.n.n.n.n.n.n.n.n.n.n.n.n.a.w E.T.E.E.E.E.Q.Q.!.!.!.",
"!.!.!.!.!.!.Q.!.!.!.!.!.!.!.!.!.Q.A.B f.n.n.n.n.n.n.n.n.n.n.n.n.n.n.n.n.;.L.T.R.R.E.E.Q.Q.!.!.!.",
"!.!.Q.!.Q.!.!.!.!.!.!.!.!.!.!.!.E.4 / k.n.n.n.n.n.n.n.n.n.n.n.n.n.n.n.n.u.e T.E.E.E.E.Q.E.!.!.!.",
"!.!.!.!.Q.!.!.!.~.!.!.!.!.!.Q.Q.I.S [ b.n.n.n.n.n.n.n.n.n.n.n.n.n.v.p.v.z.0 T.E.E.E.E.E.Q.Q.!.!.",
"!.~.!.!.Q.Q.Q.!.~.!.!.!.Q.Q.Q.E.K.H } b.n.s.%.y.n.n.n.n.n.n.n.n.n.$.w ; l.m.Y.E.E.E.E.E.Q.!.!.!.",
"~.~.!.!.!.!.Q.!.!.!.Q.Q.Q.Q.Q.E.F.V } b.*.C.Z.X y.n.n.n.n.n.n.b.x.& > > -.m.U.E.E.E.E.E.Q.!.Q.!.",
"~./.!.!.!.!.Q.!.!.Q.Q.Q.Q.E.Q.E.H.B [ b.- o : : #.n.n.n.n.k.7._ ~ a . 8 a.7 U.R.E.E.E.E.Q.!.Q.Q.",
"~./.!.~.~.!.!.!.!.!.Q.Q.P.B.U.Q.I.j ) g.%.  o S.-.n.n.n.c.' n b b b i = p.9 T.R.E.E.E.E.Q.!.Q.Q.",
"!./././.~./.!.~.!.!.Q.Y.N.h.M.T.E.1 Q 1.x.- & $.v.n.n.n.5.n b b b b b p * < I.E.T.E.E.E.Q.!.!.!.",
"~./.~./.~./.~.!.!.!.Q.@.,.n.z.m.K.F.s ) 0.n.v.n.n.n.n.i.m b b b b b b b c u 3 E.R.E.Q.Q.!.!.!.!.",
"/././.~.!.~.!.!.Q.!.T.G r.n.n.x.>.m.$ g ) 0.b.n.n.n.n.9.y v b b b b b b v x 4 E.E.E.Q.Q.!.!.!.!.",
"/././.~././.~.!.Q.!.J.R g.n.j.c.k.d.8.s d ~ | g.n.n.n.x.# r k z z l k u h 4 K.Q.Q.E.E.Q.!.!.!.!.",
"~./.~././././.~.!.!.G.! g.c.7.n.n.n.c.g.<.N _ ` 2.f.c.n.i.M # @ + t O , J.T.E.Q.Q.Q.Q.!.!.Q.!.!.",
"!././././.~.~.!.!.!.@.Q t.c.{ b.n.n.n.n.n.b.j.t.6.| 1.6.0.e.r.w.4.3.8.5 E.Q.Q.!.!.Q.!.!.!.!.!.~.",
"Q.~././././.~.~./.~.@.~ 7.b._ f.n.n.n.n.n.n.n.n.n.b.c.k.j.g.j.k.c.b.n.9.V.E.Q.!.!.!.!.Q.!.!.~.~.",
"Q.!.!./././.~.~./.!.@.Q } b.0._ b.n.n.n.n.n.n.n.n.n.d.n.n.n.n.n.n.n.n.n.L I.Q.!.!.~././.~./././.",
"!.!.!.!.!.!.!.!././.G.Y ) f.b.] ] c.n.n.n.n.n.n.n.n.6.b.n.n.n.n.n.n.n.n.a.S.E.!.~.!./././.(.(./.",
"Q.!.!.!.!.!.!.~././.L.R ^ } b.b.| ( t.n.n.n.n.n.n.c.0.b.n.n.n.n.n.n.n.n.h.V.Q.Q.!.~././././././.",
"E.Q.Q.Q.Q.!.Q.!.~.!.T.D ^ ^ 7.n.n.q.~ ( 7.g.c.b.c.e.f.n.n.n.n.n.n.n.n.n.p.V.Q.!.!.~./././././.(.",
"E.Q.Q.Q.Q.Q.E.Q.!.Q.E.e U ^ ) q.n.n.c.0._ ~ _ { 5.f.n.n.n.n.n.n.n.n.n.b.=.S.Q.Q.Q.~.~.!./././.(.",
"E.Q.E.Q.Q.Q.Q.Q.!.Q.E.Y.2 Q ^ ) 2.k.n.n.n.c.k.k.b.n.n.n.n.n.n.n.n.b.j.4. .Y.Q.!.!.!.~.!.~./././.",
"E.E.E.Q.Q.E.Q.E.E.Q.E.Q.K.% Y ^ ^ ' 7.j.b.n.n.n.n.n.n.n.n.n.c.j.e.1./ Z D.Q.E.!.!.Q.Q.!.~.!.~.~.",
"T.E.R.E.E.E.E.E.E.E.Q.Q.Q.I.3 d W ^ ^ ` } 2.0.e.t.t.e.0.6.1.[ ` ~ U S A.E.E.E.!.Q.E.Q.!.~.!.~.!.",
"T.R.R.E.E.E.E.E.E.E.Q.Q.E.Q.E.F.4 Z f W ~ ^ ^ ^ ) ) ^ ^ ~ Q T B  .q K.E.E.R.E.Q.E.Q.Q.!.!.!.Q.Q.",
"U.T.T.E.E.E.E.E.E.E.Q.Q.Q.Q.E.E.E.L.D.q ..D F J J J K F  .o.+.J.Y.E.E.E.E.T.T.E.E.Q.Q.!.!.!.Q.Q.",
"U.Y.Y.T.E.E.E.E.E.E.Q.E.E.E.E.E.E.T.R.E.T.Y.Y.T.Y.Y.T.T.E.E.E.Q.E.E.E.E.E.R.E.E.E.E.E.Q.Q.!.Q.Q."
};
