/* XPM */
static char *_3158ec30b364a07d99e89041ad3194dsIiNSO8nJJuaGLtI[] = {
/* columns rows colors chars-per-pixel */
"48 48 224 2 ",
"   c #4E1B17",
".  c #511D19",
"X  c #55211C",
"o  c #5C241E",
"O  c #5F281F",
"+  c #5E2B21",
"@  c #582824",
"#  c #4F322C",
"$  c #4A3A38",
"%  c #642723",
"&  c #652924",
"*  c #6B2B26",
"=  c #6E2E28",
"-  c #702F29",
";  c #69362C",
":  c #73312B",
">  c #79342D",
",  c #663734",
"<  c #773933",
"1  c #6C4331",
"2  c #7A4735",
"3  c #77523E",
"4  c #294456",
"5  c #2C5976",
"6  c #3D647C",
"7  c #4C4C4C",
"8  c #584A43",
"9  c #564B4A",
"0  c #4C4F50",
"q  c #545454",
"w  c #575657",
"e  c #5B5B5B",
"r  c #6F4F4D",
"t  c #764441",
"y  c #6F524B",
"u  c #695853",
"i  c #635E5B",
"p  c #776457",
"a  c #535B61",
"s  c #5A6165",
"d  c #526776",
"f  c #626465",
"g  c #6B6866",
"h  c #6A6C6C",
"j  c #786868",
"k  c #7A6B6B",
"l  c #78736B",
"z  c #767171",
"x  c #737474",
"c  c #76787A",
"v  c #865A42",
"b  c #A85F41",
"n  c #8B6349",
"m  c #98684B",
"M  c #846C5A",
"N  c #9D6B54",
"B  c #997659",
"V  c #BC714D",
"C  c #A37B5A",
"Z  c #B87C54",
"A  c #826A6B",
"S  c #8A7469",
"D  c #8A7A6D",
"F  c #857776",
"G  c #CB7A53",
"H  c #DB8527",
"J  c #E89627",
"K  c #E28831",
"L  c #AA825D",
"P  c #B5815D",
"I  c #978376",
"U  c #908576",
"Y  c #A68666",
"T  c #B78E66",
"R  c #B78E70",
"E  c #BD9B7D",
"W  c #D78648",
"Q  c #D78957",
"!  c #CC935F",
"~  c #E38D5B",
"^  c #E79756",
"/  c #C78C6C",
"(  c #D48B65",
")  c #D98B64",
"_  c #C89569",
"`  c #CA9A6B",
"'  c #DE9969",
"]  c #CA9975",
"[  c #D59D7B",
"{  c #E89B6A",
"}  c #DDA368",
"|  c #C6A07F",
" . c #CDAC7C",
".. c #D9A378",
"X. c #D4AD7B",
"o. c #E7A46D",
"O. c #EBA36E",
"+. c #E6A675",
"@. c #EBA572",
"#. c #EBAA73",
"$. c #E2A97A",
"%. c #ECAE79",
"&. c #F0AA74",
"*. c #EAB47B",
"=. c #EDB57C",
"-. c #F1B37C",
";. c #F1B87F",
":. c #5A7385",
">. c #807F83",
",. c #8A7F82",
"<. c #858586",
"1. c #878789",
"2. c #8E868A",
"3. c #938D8E",
"4. c #8D8D91",
"5. c #889499",
"6. c #949395",
"7. c #979497",
"8. c #999599",
"9. c #9B9A9D",
"0. c #AE8E85",
"q. c #AA958B",
"w. c #B49788",
"e. c #BC968A",
"r. c #BB9A8D",
"t. c #A79F9C",
"y. c #B79C93",
"u. c #BB9D92",
"i. c #B29E9B",
"p. c #B3A29E",
"a. c #B9A699",
"s. c #9D9CA1",
"d. c #A19EA3",
"f. c #9DA5AB",
"g. c #9DA7AB",
"h. c #9EACB2",
"j. c #A4A3A6",
"k. c #ABA2A4",
"l. c #ACA9A6",
"z. c #A7A6AB",
"x. c #A8A5A8",
"c. c #A5A9AD",
"v. c #AAAAAD",
"b. c #B2A8A6",
"n. c #B8B1AB",
"m. c #A6AEB3",
"M. c #AAACB1",
"N. c #A4B1B6",
"B. c #ACB2B6",
"V. c #A5B3B9",
"C. c #ABB6BB",
"Z. c #ABB9BD",
"A. c #B3B3B5",
"S. c #B9B7B4",
"D. c #B3B6BA",
"F. c #B4B9BC",
"G. c #B9BBBE",
"H. c #C49A84",
"J. c #C69A84",
"K. c #C49D8A",
"L. c #C5A28C",
"P. c #CCA388",
"I. c #D5A986",
"U. c #D5B28E",
"Y. c #C3A291",
"T. c #C8AD94",
"R. c #DCBD92",
"E. c #E5AD80",
"W. c #E6B483",
"Q. c #E9B481",
"!. c #ECBA84",
"~. c #E4BA8A",
"^. c #F2BC82",
"/. c #C8BDB4",
"(. c #E2BEA5",
"). c #EDC38C",
"_. c #F2C286",
"`. c #F5C68A",
"'. c #F2C88D",
"]. c #F8CB8F",
"[. c #E7C899",
"{. c #F5CC91",
"}. c #FAD194",
"|. c #CBC6BB",
" X c #DAC8B6",
".X c #E9CAB6",
"XX c #AFB9C0",
"oX c #B2BEC3",
"OX c #BABFC3",
"+X c #B6C2C6",
"@X c #BCC3C6",
"#X c #B8C5C9",
"$X c #BECACD",
"%X c #C3C4C5",
"&X c #C2CACE",
"*X c #CACAC9",
"=X c #CFD3CF",
"-X c #C4CED2",
";X c #CCCFD1",
":X c #CCD2D5",
">X c #CBD4D7",
",X c #CDD6D9",
"<X c #D4D4D5",
"1X c #DEDCD5",
"2X c #D4D7D8",
"3X c #D5DBDD",
"4X c #DADDDD",
"5X c #E6D5C9",
"6X c #E4DDD4",
"7X c #EBE1D9",
"8X c #D7DEE1",
"9X c #DADFE1",
"0X c #DDE2E4",
"qX c #DFE5E8",
"wX c #E3E5E5",
"eX c #E2E6E9",
"rX c #E6EAEC",
"tX c #EAEDED",
"yX c #EBEFF0",
"uX c #EEF0F2",
"iX c #F3F4F5",
"pX c #F7F7F8",
"aX c #F7F9F9",
"sX c #FCFCFC",
/* pixels */
"z.z.z.z.z.z.z.z.z.z.z.z.z.z.z.z.z.z.z.z.z.z.z.z.z.9.z.z.z.z.z.z.z.z.z.z.z.z.z.z.z.z.z.z.z.z.z.z.",
"z.z.z.z.z.z.z.z.z.z.z.z.z.z.z.z.z.z.8.2.,.,.2.8.j.<.2.z.z.z.z.z.z.z.z.z.z.z.z.z.z.z.z.z.z.z.z.z.",
"z.z.z.z.z.z.z.z.z.z.z.z.z.z.z.z.j.8.A , = : : , r j r 9.6.j.z.z.z.z.z.z.z.z.z.z.z.z.z.z.z.z.z.z.",
"z.z.z.z.z.z.z.z.z.z.z.z.z.z.j.7.A t < > > > : : = % & j j j.z.z.z.z.z.z.z.z.z.z.z.z.z.z.z.z.z.z.",
"z.z.z.z.z.z.z.z.z.z.z.z.x.d.F t > > > : : - = = * * % + j z.z.z.z.z.z.z.z.z.z.z.z.z.z.z.z.z.z.z.",
"z.z.z.z.z.z.z.z.z.z.z.z.d.A < > : : : = * = * * & % % % , 2.z.z.z.z.z.z.z.z.z.z.z.z.z.z.z.z.z.z.",
"z.z.z.z.z.z.z.z.z.z.z.z.<.; : : : = * * o o * = > : * * & , 6.z.z.z.z.z.z.z.z.z.z.z.z.z.z.z.z.z.",
"z.z.z.z.z.z.z.z.z.z.z.z.,.2 2 + & = = * % . X o & = o o . . u j.z.z.z.z.z.z.z.z.z.z.z.z.z.z.z.z.",
"z.z.z.z.z.z.z.z.z.z.z.z.F P T C v ; o . .   ; 3 ; + X . . . @ 7.z.9.j.z.z.z.z.z.z.z.z.z.z.z.z.z.",
"z.z.z.z.z.z.z.z.x.p.i.j.j O o + B ~.X.T m n v C  .m - + . . X F 1.h 4.z.x.z.z.z.z.z.z.z.z.z.z.z.",
"z.z.z.z.z.z.z.z.r.W.!.w.p b G V 2 T }.}.}.'.X.Y 1 @ # $ $ @ @ 9 f e <.z.x.z.z.z.z.z.z.z.z.z.z.z.",
"z.z.z.z.z.z.z.k.) #.].+.0.{ @.@.@.Z ~.L n 3 , $ $ 7 0 q e 9 9 u 0 e 4.z.x.z.z.z.z.z.z.z.z.z.z.z.",
"z.z.z.z.z.z.p.H.~ Q ' P S B Y Y Y B Y B q q e e s h x q 1.6.B ` I s.z.z.z.z.z.z.z.z.z.z.z.z.z.z.",
"z.z.z.z.z.z.L.`.`.O.Z 8 7 7 q q q e p P i x 1.9.5.m.4Xg F E ' +.K.z.z.z.z.z.z.z.z.z.z.z.z.z.z.z.",
"z.z.z.z.z.z.K.;.=.O.+.y <.6.7.6.s a M +.M ;XpXXXd 4 h.z B } @.O.H.z.z.z.z.z.z.z.z.z.z.z.z.z.z.z.",
"z.z.z.z.z.z.L._.;.@.~ N j.pXaX&X:.4 l T.U S.sXC.5 6 5.l X.*.%...y.z.z.z.z.z.z.z.z.z.z.z.z.z.z.z.",
"z.z.z.z.z.z.H.;.-.#.) 0.x rXaX3Xd g U a.q.<.wX2X5.x D R Q.$.K.i.x.z.z.z.z.z.z.z.z.z.z.z.z.z.z.z.",
"z.z.z.z.z.k./ ~ ~ ) e.k.j 3.S.S.E =.!.].'.Y D I ` *.-.=...p.x.z.z.z.z.z.z.z.z.z.z.z.z.z.z.z.z.z.",
"z.z.z.z.z.k.' &.^.K.x.z.y. . . .X.o.].}.}.}.).R.~.-.%.H.k.z.z.z.z.z.x.x.z.z.z.z.z.z.z.z.z.z.z.z.",
"z.z.z.z.z.p.{ ^.).p.z.z.x.H._.}.%.%.`._.^.^.~.[.!.+.K.k.z.z.z.z.z.z.x.x.z.z.z.z.z.v.M.M.z.z.z.z.",
"z.z.z.z.z.a.O.].~.k.z.z.z.k.H.!._.;.^.^.^.`.}._.+.r.x.z.z.z.z.z.z.x.v.v.A.D.G.@X&X2X0X9XM.z.z.z.",
"z.z.z.z.z.a.@.].U.k.z.z.z.z.x.y...;.`.].].`.^.o.e.x.z.z.z.M.F.%X;X2X9XwXtXyXiXpXaXsXsX2Xv.z.z.z.",
"z.z.z.z.z.k.+.].I.x.z.z.z.z.z.z.k.e.( ~ { o.^ J ! x.z.z.z.&XiXaXsXsXsXsXsXsXsXsXsXsXiXG.z.z.z.z.",
"z.z.z.z.z.k...`.W.k.z.z.z.z.z.z.z.z._ J H J H J W t.z.z.c.-XtXuX*X2Xv.x wXsXsXsXsXsX2Xv.z.z.z.z.",
"z.z.z.z.z.z.u.^.`.u.z.z.z.z.z.M.B.D.] K Q } I./ R k.x.z.m.,XeXD.v.tX<X6.wXsXaXaXiXtXA.z.z.z.z.z.",
"z.z.z.z.z.z.k.P._.Q.Y.p.k.t.G.wXeX8X%X X7XiXtX-XB.z.z.z.m.3X:X1.G.2Xz.j.wXiXwX2X4X%Xz.z.z.z.z.z.",
"z.z.z.z.z.z.z.k.P.Q.^.!.Q.*.T.3X>XoX,XpXpXsXiX-X3XB.c.c.B.qXF.s x h j.j.<XpXaXaX2Xv.z.z.z.z.z.z.",
"z.z.z.z.z.z.z.z.z.p.Y.K.K.y.9.B.c.F.iXpXaXwX9X,X,X&X&X+X#XyXyX4X:Xc %XwX6X7XpXwXA.z.z.z.z.z.z.z.",
"z.z.z.z.z.z.z.z.z.z.z.z.z.z.z.z.c.2XsXaXsXtX$X,X>X$X$X#X-XpXpXiXtX5X(.~.E.*./.D.z.z.z.z.z.z.z.z.",
"z.z.z.z.z.z.z.z.z.z.z.z.z.z.z.z.B.uXsXaXsXsXpX-XV.+X+XZ.3XsXaXiX.X!.#._.!.U.k.z.z.z.z.z.z.z.z.z.",
"z.z.z.z.z.z.z.z.z.z.z.z.z.z.z.z.@XaXsXsXsXsXaXqXM.z.j.c.&X=X|.a.[ _.#.*.I.p.z.z.z.z.z.z.z.z.z.z.",
"z.z.z.z.z.z.z.z.z.z.z.z.z.z.z.z.&XsXsXsXsXsXaXtXD.z.k.J.R.[.{.#.Q [ K.u.k.z.z.z.z.z.z.z.z.z.z.z.",
"z.z.z.z.z.z.z.z.z.z.z.z.z.z.z.j.c f.:XwXtXtX4XOXM.z.z.k.P.W.Q.[ i.k.z.z.z.z.z.z.z.z.z.z.z.z.z.z.",
"z.z.z.z.z.z.z.z.z.z.z.z.z.z.z.s.q 7 0 e f f e 7 4.z.z.z.z.k.p.k.z.z.z.z.z.z.z.z.z.z.z.z.z.z.z.z.",
"z.z.z.z.z.z.z.z.z.z.z.z.z.z.z.6.q q 7 7 q 7 7 7 f j.z.z.z.z.z.z.z.z.z.z.z.z.z.z.z.z.z.z.z.z.z.z.",
"z.z.z.z.z.z.z.z.z.z.z.z.z.z.z.1.e e q g 6.e q q 7 4.z.z.z.z.z.z.z.z.z.z.z.z.z.z.z.z.z.z.z.z.z.z.",
"z.z.z.z.z.z.z.z.z.z.z.z.z.z.z.9.g i e c z.>.i i x 9.z.z.z.z.z.z.z.z.z.z.z.z.z.z.z.z.z.z.z.z.z.z.",
"z.z.z.z.z.z.z.z.z.z.z.z.z.z.z.z.r._ q.j.z.z.q...L.z.z.z.z.z.z.z.z.z.z.z.z.z.z.z.z.z.z.z.z.z.z.z.",
"z.z.z.z.z.z.z.z.z.z.z.z.z.z.z.z.P.`.Y.z.z.z.k.$.!.p.z.z.z.z.z.z.z.z.z.z.z.z.z.z.z.z.z.z.z.z.z.z.",
"z.z.z.z.z.z.z.z.z.z.z.z.z.z.z.z.T.[.L.z.z.z.z.J.'.T.z.z.z.z.z.z.z.z.z.z.z.z.z.z.z.z.z.z.z.z.z.z.",
"z.z.z.z.z.z.z.z.z.z.z.M.F.OXF.x.|.6Xn.z.z.z.z.l.|.1Xb.z.z.z.z.z.z.z.z.z.z.z.z.z.z.z.z.z.z.z.z.z.",
"z.z.z.z.z.z.z.z.z.z.D.4XiXpXtX;X` ^ Q k.z.z.z.k.] o.! b.A.v.z.z.z.z.z.z.z.z.z.z.z.z.z.z.z.z.z.z.",
"z.z.z.z.z.z.z.z.z.B.eXsXpXiXtXqXG.W W k.z.z.z.k.W }  XtXiXrX@Xz.z.z.z.z.z.z.z.z.z.z.z.z.z.z.z.z.",
"z.z.z.z.z.z.z.z.z.;XaXpXiXtXeX0X3X] | V.x.x.z.z.w.*XtXpXsXsXaX&Xz.z.z.z.z.z.z.z.z.z.z.z.z.z.z.z.",
"z.z.z.z.z.z.z.z.z.+X0XqX0X8X3X9X9Xl.t.z.z.z.z.c.Z.3XrXyXpXsXsXiXB.z.z.z.z.z.z.z.z.z.z.z.z.z.z.z.",
"z.z.z.z.z.z.z.z.z.f.f.h.N.V.V.N.f.z.z.z.z.z.z.z.XX,X9XeXrXuXiXrXF.z.z.z.z.z.z.z.z.z.z.z.z.z.z.z.",
"z.z.z.z.z.z.z.z.z.z.z.z.z.z.z.z.z.z.z.z.z.z.z.z.f.N.Z.oXoXoXC.h.f.z.z.z.z.z.z.z.z.z.z.z.z.z.z.z.",
"z.z.z.z.z.z.z.z.z.z.z.z.z.z.z.z.z.z.z.z.z.z.z.z.z.z.z.f.f.f.z.z.z.z.z.z.z.z.z.z.z.z.z.z.z.z.z.z."
};
