/* XPM */
static char *_L1721706773[] = {
/* columns rows colors chars-per-pixel */
"64 64 212 2 ",
"   c #1F1917",
".  c #3F261C",
"X  c #363435",
"o  c #482719",
"O  c #6B321D",
"+  c #75371E",
"@  c #442F23",
"#  c #56382B",
"$  c #533D36",
"%  c #723D27",
"&  c #644633",
"*  c #78643B",
"=  c #3E4B5C",
"-  c #4D4D4F",
";  c #5A4E4A",
":  c #6F5A4E",
">  c #72635B",
",  c #455368",
"<  c #425874",
"1  c #4C637F",
"2  c #69696C",
"3  c #766E6D",
"4  c #646C7B",
"5  c #77777A",
"6  c #833D1E",
"7  c #823D20",
"8  c #B2551C",
"9  c #BD6E18",
"0  c #864425",
"q  c #8D573D",
"w  c #AD4F28",
"e  c #B27A34",
"r  c #C47B17",
"t  c #D27019",
"y  c #C46F22",
"u  c #855948",
"i  c #956F4D",
"p  c #9A684B",
"a  c #866555",
"s  c #986B57",
"d  c #B67B48",
"f  c #AB7855",
"g  c #B07A5E",
"h  c #89766A",
"j  c #987B68",
"k  c #8C7E79",
"l  c #967C73",
"z  c #AB7B62",
"x  c #9E8535",
"c  c #D3891B",
"v  c #E29A19",
"b  c #DDA51C",
"n  c #E6A419",
"m  c #ECB219",
"M  c #F2B919",
"N  c #C98522",
"B  c #CC932E",
"V  c #D89324",
"C  c #CE8931",
"Z  c #D2A83B",
"A  c #DCB537",
"S  c #E1A125",
"D  c #E8B922",
"F  c #F7C41B",
"G  c #DAC130",
"H  c #ECCC21",
"J  c #F9CD28",
"K  c #F5D724",
"L  c #FDD429",
"P  c #FEDB2D",
"I  c #F2CB33",
"U  c #F9DD37",
"Y  c #FEE331",
"T  c #BA855D",
"R  c #B69151",
"E  c #B38769",
"W  c #BD936C",
"Q  c #A58977",
"!  c #AC977C",
"~  c #B7AD7E",
"^  c #C59441",
"/  c #D5B853",
"(  c #C08B61",
")  c #CD946A",
"_  c #D99A6A",
"`  c #D39B73",
"'  c #DC9E73",
"]  c #E79F6C",
"[  c #D0AC72",
"{  c #C2B173",
"}  c #E5A576",
"|  c #EAA977",
" . c #F3AC76",
".. c #F2AD7A",
"X. c #F7B079",
"o. c #E8D34F",
"O. c #4C6583",
"+. c #4B688B",
"@. c #5A708C",
"#. c #496C94",
"$. c #456D9E",
"%. c #526E92",
"&. c #4C709C",
"*. c #5B7393",
"=. c #53759E",
"-. c #59769B",
";. c #677487",
":. c #797E87",
">. c #687B95",
",. c #4B74A5",
"<. c #4C7BAC",
"1. c #5577A3",
"2. c #5A7CA3",
"3. c #557CAA",
"4. c #5B7EAB",
"5. c #4C7DB2",
"6. c #7D828C",
"7. c #68829F",
"8. c #788598",
"9. c #5B80AA",
"0. c #5D82AC",
"q. c #4D81B7",
"w. c #5E86B5",
"e. c #5887B9",
"r. c #6583A7",
"t. c #768BA7",
"y. c #6386B2",
"u. c #648BB5",
"i. c #6A8DB6",
"p. c #638DBC",
"a. c #6891BE",
"s. c #7896B8",
"d. c #4885C6",
"f. c #578AC2",
"g. c #5D95CD",
"h. c #4A8ED5",
"j. c #5A99D7",
"k. c #648FC0",
"l. c #6593C3",
"z. c #6A96C5",
"x. c #6998CA",
"c. c #6C9ACB",
"v. c #749DC5",
"b. c #729DCC",
"n. c #659ED5",
"m. c #629FDA",
"M. c #76A2CD",
"N. c #6AA1D4",
"B. c #75A4D5",
"V. c #79A8D6",
"C. c #7BAAD8",
"Z. c #878689",
"A. c #9C8A84",
"S. c #978C8A",
"D. c #868A96",
"F. c #8B8D95",
"G. c #838D9B",
"H. c #918E92",
"J. c #8F9093",
"K. c #8D929C",
"L. c #939295",
"P. c #94969B",
"I. c #989699",
"U. c #9A979A",
"Y. c #9B9A9E",
"T. c #A68E84",
"R. c #A89688",
"E. c #B69987",
"W. c #A49796",
"Q. c #A29C9D",
"!. c #BEA086",
"~. c #A9A49D",
"^. c #8793A4",
"/. c #9196A2",
"(. c #9699A2",
"). c #9D9DA2",
"_. c #8D9CB1",
"`. c #A39FA2",
"'. c #9DA1A7",
"]. c #91A5BD",
"[. c #A2A1A6",
"{. c #A7A6AB",
"}. c #A8A7AB",
"|. c #A7A8AB",
" X c #A9A8AD",
".X c #AFB0B3",
"XX c #B5B6B9",
"oX c #B7B8BC",
"OX c #C09A81",
"+X c #C3AA97",
"@X c #BCBDC1",
"#X c #BFC0C4",
"$X c #C2C2C6",
"%X c #C4C5C9",
"&X c #C8C9CD",
"*X c #CCCDD1",
"=X c #C1CADA",
"-X c #CED0D5",
";X c #D2D2D5",
":X c #D5D6DA",
">X c #D9DADE",
",X c #CED5E1",
"<X c #DCDDE2",
"1X c #DFE0E4",
"2X c #E1E2E5",
"3X c #E4E5E9",
"4X c #E7E8ED",
"5X c #E9EAEE",
"6X c #ECEDF2",
"7X c #EFF0F5",
"8X c #F1F2F6",
"9X c #F3F4FA",
/* pixels */
"{.{.{.{.{.{.{.{.{.{.{.{.{.{.{.{.{.{.{.{.{.{.{.{.{.{.{.{.{.{.{.{.{.{.{.{.{.{.{.{.{.{.{.{.{.{.{.{.{.{.{.{.{.{.{.{.{.{.{.{.{.{.{.{.",
"{.{.{.{.{.{.{.{.{.{.{.{.`.`.`.{.{.{.{.{.{.{.{.{.{.{.{.{.{.{.{.{.{.{.{.{.{.{.{.{.{.{.{.{.{.{.{.{.{.{.{.{.{.{.{.{.{.{.{.{.{.{.{.{.",
"{.{.{.{.{.{.{.}.{.Q.S.l a q : k `.{.{.{.{.{.{.{.{.{.{.{.{.{.{.{.{.{.{.{.{.{.{.{.{.{. X{.{.{.{.{.{.{.{.{.{.{.{.{.{.{.{.{.{.{.{.{.",
"{.{.{.{.{.{.{.}.U.u 0 % + O o $ U.{.{.{.{.{.{.{.{.{.{.{.{.{.{.{.{.{.{.{.{.{.{.{.{.{.{.{.{.{.{.{.{.{.{.{.{.{.{.{.{.{.{.{.{.{.{.{.",
"{.{.{.{.{.{.}.[.> % 6 7 + o o ; ).{.{.{.{.{.{.{.{.{.{.{.{.{.{.{.{.{.{.{.{.{.{.{.{.{.{.{.{.{.{.{.{.{.{.{.{.{.{.{.{.{.{.{.{.{.{.{.",
"{.{.{.{.{.{.}.L.% 6 + + O o E E.{.{.{.{.{.{.{.{.{.{.{.{.{.{.{.{.{.{.{.{.{.{.{.{.{.{.{.{.{.{.{.{.{.{.{.{.{.{.{.{.{.{.{.{.{.{.{.{.",
"{.{.{.}.{.{.{.F.# O O o . p ( j {.{.}.{.{.{.{.{.{.{.{.{.{.{.{.{.{.{.{.{.{.{.{.{.{.{.{.{.{.{.{.{.{.{.{.{.{.{. X{.{.{.{.{. X{.{.{.",
"{.{.{.{.{.{.{.Y.$ . # & & g * k `.{.{.{.{.{.{.{.{.{.{.{.{.{.{.{.{.{.{.{.{.{.{.{.{.{.{.{.{.{.{.{.{.{.{.{.{.{.{.{.{.{.{.{.{.{.{.{.",
"{.{.{.{.{.{.{.{.2   & f )  ._ Q U.{.{.}.{.{.{.{.{.{.{.{.{.{.{.{.{.{.{.{.{.{.{.{.{.{.{.{.{.{.{.{.{.{.{.{.{.{.{.{.{.{.{.{.{.{.{.{.",
"{.{.{.{.{.{.{.{.U.X @ p  . .} Q {.{.{.{.{.{.{.{.{.{.{.{.{.{.{.{.{.{.{.{.{.{.{.{.{.{.{.{.{.{.{.{.{.{.{.{.{.{.{.{.{.{.{.{.{.{.{.{.",
"{.{.{.{.{.{.{.{.`.> g d E ..' S.{.{.{.{.{.{.{.{.{.{.{.{.{.{.{.{.{.{.{.{.{.{.{.{.{.{.{.{.{.{.{.{.{.{.{.{.{.{.{.{.{.{.{.{.{.{.{.{.",
"{.{.{.{.{.{.{.[.Z.E  ._ # > ) W.{.{.{.{.{.{.{.{.{.{.{.{.{.{.{.{.{.{.{.{.{.{.{.{.{.{.{.{.{.{.{.{.{.{.{.{.{.{.{.{.{.{.{.{.{.{.{.{.",
"{.{.{.{. X{.'.XX$X!.|  .h Y.).`.{.{.{.{.{.{.{.{.{.{.{.{.{.{.{.{.{.{.{.{.{.{.{.{.{.{.{.{.{.{.{.{.{.{.{.{.{.{.{.{.{.{.{. X{.{.{.{.",
"{.{.{.{.[.Y.&X7X8X2X+X` > U.{.{.{.{.{.{.{.{. X{.{.{.{.{.{.{.{.{.{.{.{.{.{.{.{.{.{.{.{. X{.{.{.{.{.{.{.{.{.{.{.{.{.{.{.{.{.{.{.{.",
"{.{.{.{.'.:X3X2X9X9X6X;X@X X{.{.{.{.{.{.{.{.{.{.{.{.{.{.{.{.{.{.{.{.{.{.{.{.{.{.{.{.{.{.{.{.{.{.{.{.{.{.{.{.{.{.{.{.{.{.{.{.{.{.",
"{.{.{.).@X7X9X3X9X9X9X9X7X>X`.{.{.{.{.{.{.{.{.{.{.{.{.{.{.{.{.{.{. X{.{.{.{.{.{.{.{.{.{.{.{.{.{.{.{. X{.{.{.{.{.{.{.{.{.{.{.{.{.",
"{.{.{.Y.>X9X9X2X6X9X9X9X9X6X|.|.|.}.{.{.{.{.{.{.{.{.{.{.{.{.{.{.{.{.{.{.{.{.{.{.{.{.{.{.{.{.{.{.{.{.{.{.{.{.{.{.{. X{.{.{.{.{.{.",
"{.{.Y..X6X9X9X:X5X8X9X9X9X7X X{.{.{.{.{.{.{.{.{.{.{.{.{.{.{.{.{.{.{.{.{.{.{.{.{.{.{.{.{.{.{.{.{.{.{.{.{.{.{.{.{.{.{.{.{.{.{.{.{.",
"{.[.[.2X9X9X1XXX<X#X#XXX(.4X[.|.{.}.{.{.{.{.{.{.{.{.{.{.{.{.{.{.{.{.{.{.{.{.{.{.{. X{.{.{.{.{.{.{.{.{.{.{.{.{.{.{.{.{.{.{.{.{.{.",
"{.[.-X6X9X5XP.Y.%X|.5X#X.X1X'.|.{.{.{.{.{.{.{.{.{.{.{.{.{.{.{.{.{.{.{.{.{.{.{.{.}.}.{.{.{.{.{.{.{.{.{.{.{.{.{.{.{.{.{.{.{.{.{.{.",
"'..X4X7X7X X5 %XU.2 |.L.%X$XY.{.{.{.{.{.{.{.}.{.{.{.{.{.{.{.{.{.{.{.{.{.{.{.{.{.}.{.{.{.{.{.{.{.{.{.{.{.{.{.{.{.{.{.{.{.{.{.{.{.",
"P.*X3X5X%X- P.;X;XoXk oX$XY.).{.{.{.{.{.{.{.{.{.{.{.{.{.{.{.{.{.{.{.{.{.{.{.{.{.{.{.{.{.{.{.{.{.{.{.{.{.{.{.{.{.{.{.{.{.{.{.{.{.",
".X%X1X>X5 - .X1X5X6XXX;X&X3 l `.{.{.{.{.{.{.{.{.{.{.{.{.{.{.{.{.{.{.{.{.{.{.}.{.{.{.{.{.{.{.{.{.{.{.{.{.{.{.{.{.{.{.{.{.{.{.{.{.",
" X<X:X|.5 2 #X3X7X7X2X:XXX> i S.{.{.{.{.{.{.{.{.{.{.{.{.{.{.{.{.{.{.{.{.{.{.{.{.{.{.{.{.{.{.{.{.{.{.{.{.{.{.{.{.{.{.{.{.{.{.{.{.",
"T Q @X.XZ.5 %X3X7X3X<X4X%Xh u A.{.{.{.{.{.{.{.{.{.{.{.{.{.{.{.{.{.{.{.{.{.{.{.{.{.{. X{. X{. X{.{.{.{.{.{.{.{.{.{.{.{.{.{.{.{.{.",
"_ ] j L.F.Z.*X1X5X2X3X5X*XZ.h `.{.{.{.{.}.{.{.{.{.{.{.{.{.{.{.{.{.{.{.{.{.{.{.{.{.{.{.{.{.{.{.{.{.{.{.{.{.{.{.{.{.{.{.{.{.{.{.{.",
"_ X._ ~.J. X:X2X3X3X5X5X-X[.{.{.{.{.{.{.{.{.{.{.{.{.{.{.{.{.{.{.{.{.{.{.{.{.{.{.{.{.{.{.{.{.{.{.{.{.{.{.{.{.{.{.{. X{.{.{.{.{.{.",
"' X.' Y.U.XX>X5X4X2X5X2X;X'.{.{.{.{.{.{.{.{.{.{.{.{.{.{.{.{.{.{.{.{.{.{.{.{.{.{.{.{.{.{.{.{.{.{.{.{.{.{.{.{.{.{.{.{.{.{.{.{.{.{.",
"} X.OXP.Y.$X>X>X;X1X3X>X#X(.{.{.{.{.{.{.{.{.{.{.{.{.{.{.{.{.{.{.{.{.}. X{.{.{.{.{.{.{.{.{.{.{.{.{.{.{.{.{.{.{.{.{.{.{.{.{.{.{.{.",
"} X.R.Z. X%X&X;X1X3X<X<X'.Y.{.{.{.{.{.{.{.{.{.{.{.{.{.{.{.{.{.{.{.{.{.{.{.{.{.{.{.{.{.{.{.{.{.{.{.{.{.{.{.{. X{.{.{.{.{.{.{.{.{.",
"} | U.5 , ;.L.K.L.|.'.6.5 [.|.{.{.{.{.{.{.{.{.{.{.{.{.{.{.{.{.{.{.{.{.{. X{.{.{.{.{.{.{. X{.{.{.{.{.{.{.{.{.{.{.{.{.{.{.{.{.{.{.",
"} ` L.@.-.r.r.1 O.*.= , Z.[.{.{.{.{.{.{.{.{.{.{.{.}.{.{.{.{.{.{.{.{.{.{.{.{.{.{.{.{.{.{.{.{.{.{.{.{.{.{.{.{.{.{.{.{.{.{.{.{.{.{.",
"} ` H.%.-.i.i.%.a.v.O.O.G.{.{.{.{.{.{.{.{.{.{.{.{.{.{.{.{.{. X{.}.{.{.{.{.{.{.{.{.{.{.{.{.{.{.{.{.{.{.{.{.{.{.{.{.{.{.{.{.{.{.{.",
"} ` H.*.2.a.y.-.b.b.O.O.D.{.{.{.{.{.{.{.{.{.{.{.{.{.{.{.{.{.{.{.{.{.{.{.{.{.{.{.{.{.{.{.{.{.{. X{.{.{.{. X{.{.{.{.{.{.{.{.{.{.{.",
"| } A.*.*.1.1.z.B.y., 4.8.{.{.{.{.{.{.{. X{.{.{.{.{.{.{.{.{.{.{.{.{.{.{.{.{.{.{.{.{.{.{.{.{.{.{.{.{.{.{.{.{.{.{.{.{.{.{.{.{.{.{.",
"|  .! ;.%.4.u.b.V.1 #.B.t.{.{.{.{.{.{.{.{.{.{.{.{.{.{.{.{.{.{.{.{.{.{.{.{.{.{.{.{.{.{.{.{.{.{.{.{.{.{.{.{.{.{.{.{.{.{.{.{.{.{.{.",
"' ) T.4 < y.z.B.B.O.a.V.s.).|.{.{.{.{.{.{.{.{.{.{.{.{.{.{.{.{.{.{.{.{.{.{.{.{.{.{.{.{.{.{.{.{.{.{.{.{.{.{.{.{.{.{.{.{.{.{.{.{.{.",
"g g T.*.< +.b.B.b.+.z.V.M._.{.{.{.{.{.{.{.{.{.{.{.{.{.{.{.{.{.{.{.{.{.{.{.{.{.{.{.{.{.{.{.{.{.{.{.{.{.{.{.{.{.{.{.{. X{.{.{.{.{.",
"s A.K.1.=.< 2.B.u.=.l.V.C._.{.{.{.{.{.{.{.{.{.{.{.{.{.{.{.{.{.{.{.{.{.{.{.{.{.{.{.{.{.{.{.{.{.{.{.{.{.{.{.{.{.{.{.{.{.{.{.{.{.{.",
"H.`.G.1.w.0.< r.1.w.l.V.].t.{.{.{.{.{.{.{.{.{.{.{.{.{.{.{.{.{.{.{.{.{.{.{.{.{.{.{.{.{.{.{.{.{.{.{.{.{.{.{.{.{.{.{.{.{.{.{.{.{.{.",
"{.`.>.1.p.z.4.< O.w.k.B.C.s.[.{.{.{.{.{.{.{.{.{.{.{.{.{.{.{.{.{.{.{.{.{.{.{.{.{.{.{.{.{.{.{.{.{.{.{.{.}.{.{.{.{.{.{.{.{.{.{.{.{.",
" X[.>.1.k.z.v.>.6.y.p.B.C.s.).{.{.{.{.{.{.{.{.{.{.{.{.{.{.{.{.{.{.{.{.{.{.{.{.{. X{.{.{.{.{.{. X{.{.{.{.{.{.}.{.{.{.{.{.{.{.{.{.",
" X`.%.1.l.c.z./.).r.p.z.B.v.(.{.{.{.{.{.{.{.{.{.{.{.{.{.{.{.{.{.{.{.{.{.{.{.{.{.{.{.{.{.{.{.{.{.{.{.{.{.{.{.{.{.{.{.{.{.{.{.{.{.",
"[.G.%.=.l.x.t.`.{./.p.p.B.V.^.[.{.{.{.{.{.{.{.{.{.{.{.{.{.{.{.{.{.{.{.{.{.{.{.{.{.{.{.{.{.{.{.{.{.{.{.{.{.{.}.{.{.{.{.{.{.{.{.{.",
"F.*.&.3.l.c.G.`.{.).7.e.x.B.v.K.{.{.{.{.{. X{.{.{.{.{.{.{.{.{.{.{.{.{.{.{.{.{.{.{.{.{.{.{.{.{.{.{.{.{.{.}.}.{.{.{.{.{. X{.{.{.{.",
";.+.&.4.x.r.`.}.{.{.:.&.w.x.B.G.{.{.{.{.{.{.{.{.{.{.{.{.{.{.{.{.{.{.{.{.{.{.{.{.{.{.{.{.{.{.{.{.{.{.{.{.}.}.{.{.{.{.{.{.{.{.{.{.",
"*.=.4.f.4.G. X}.}.{.8.3.3.x.b.^.{.{.{.{.{.{.{.{.{.{.{.{.{.{.{.{.{.{.{.{.{.{.{.{.{.{.{.{.{.{.{.{.{.{.{.{.}.}.{.{.{.{.{.{.{.{.{.{.",
"3.3.4.4.G.{.{.{.}.}.P.9.e.N.x.(.{.{.{.{.{.{.{.{.{.{.{. X{.{.{.{.{.{.{.{.{.{.{.{.{.{.{.{.{.{.{.{.{.{.{.~.{ ! Q.{.{.{.{.{.{.{.{.{.",
"3.3.2./.{.{.{.{.{.{.).4.k.n.p.(.{.{.{.{.{.{.{.{.{.{.{.{.{.{.{.{.{.{.{.{.{.{.{.{.{.{.{.{.{.{.{.{.{.[.~ o.Y K A ! [.|.{.{.{.{.{.{.",
"1.3.4.`.{.{.{.{.{.{.`.t.f.m.k.(.{.{.{.{.{.{.{.{.{.{.{.{.{.{.{.{.{.{.{.{.{.{.{.{.{.{.{.{.{.}.{.{.{.R.o.Y H H F B Y.|.{.{.{.{.{.{.",
"2.4.U.}.{.{.{.{.{.{.`.r.f.m.x./.{.{.{.{.{.{.{.{.{.{.{.{.{.{.{.{.{.{.{.{.{.}.{.{.{.{.{.{.{.{.{.{.{.h G K x * m n T.{.{.{.{.{.{.{.",
"4.t.}.`.{.{.{.{.{.{.{.4.e.m.m.^.{.{.{.{.{.{.{.{.{.{.{.{.{.{.{.{.{.{.{.{.{.{.{.{.{.{.{.{.{.{.{.{.Q.i N H * h b v ! {.{.{.{.{.{.{.",
"-.`.{.{.{.{.{.{.}.}.}.8.q.g.j.t.{.{.{.{.{.{.{.{.{.{.{.{.{.{.{.{.{.{.{.{.{.{.{.{.{.{.{.{.{.{.{.Q.p y t t e A m V R.{.{.{.|.{.{.{.",
":.`.{.{.{.{.{.{.{.}.}./.3.f.m.i.`.{.{.{.{.{.{.{.{.{.{.{.{.{.{.{.{.{.{.{.{.{.{.{.{.{.{.{.{.{.{.{.W.s w 8 c m S W `.{.{.{.{.{.{.{.",
"'.}.}.{.{.{.{.{.{.{.}.).0.q.j.l.(.{.{.{.{.{.{.{.{.{.{.{.{.{.{.{.{.{.{.{.{.{.{.{.{.{.{.{.{.{.{.{.{.{.R.e r c j A.A.`.[.~.{.{.{.{.",
" X X}.}.{.{.{.{.{.{.}.[.8.5.j.g.K.{.{.{.{.{.{.{.{.{.{.{.{.{.{.{.{.{.{.{.{.{.{.{.{.{.{.}.{.{.{.{.`.Q.[ I M n ^ Z N e A R [.{.{.{.",
"{.{.{.{.{.{.{.{.{.{.}.`.>.$.5.5.@.P.{.{.{.{.{.{.{.{.{.{.{.{.{.{.}.{.{.{.{.{.{.{.{.{.{.{.{.{.{.{.{.{ U P P L I J m r V R {.{.{.{.",
"{.{.{.}.{.{.{.{.{.{. X).>.+.$.,.&.G.{.{.{.{.{.{.{.{.{.{.{.{.{.{.{.{.{.{.{.{.{.{.{.{.{.{.{.{.{.{.`./ P P L L M v c r y S.{.{.{.{.",
"`.{.}.}.{.{.{.{.{.{.{.{.H.O.<.,.+.6.'.{.{.{.{.{.{.{.{.{.{.{.{.{.{.{.{.{.{.{.{.{.{.{.{.{.{.{.{.{.{./ L P L M M n v V C `.{.{.{.{.",
">.(.}.{.{.{.{.{.{.{.{.{.K.=.$.$.<.e.4.8.8.G.).{.{.{.{.{.{.{.{.{.{.{.{.{.{.{.{.{.{.{.{.{.{.{.{.{.{.R.D F M M n v v V z {.{.{.{.{.",
"e.r.Y.|.{.{.{.{.{.}.}.[.P.].].d.h.h.d.f.k._.U.{.{.{.{.{.{.{.{.{.{.{.{.{.{.{.{.{.{.{.{.{.{.{.{.{.{.W.d e C V 9 y d Q `.{.{.{.{.{.",
"'.F.).|.{.{.{.{.{.}.}.'.|.,X=Xi.w.w.s.]./.L.`.{.{.{.{.{.{.{.{.{.{.{.{.{.{.{.{.{.{.{.{.{.{.{.{.{.{.{.Q.Q.Q.Q E R.Q.{.{.{.{.{.{.{.",
"L.Y.|. X X X{.{.{.|.|.[.6.Y.'.Y.(.Z.Z.H.).{. X X X X X X X X X X X{. X X X X X X X{. X X X X X X{.{. X X X X X X}.}. X X X X{.}.",
"{.{.{.}.{.{.{.}.}.}.|.|.P.P.P.Y.).).[.{.{.{.{.{.{.{.{.{.{.{.{.{.{.{.{.{.{.{.{.{.{.{.{.{.{.{.{.{.{.}.}.}.{.}.}.}.}.}.{.{.{.{.{.{."
};
