/* XPM */
static char *_L1721706773[] = {
/* columns rows colors chars-per-pixel */
"64 64 214 2 ",
"   c #1E1816",
".  c #3F271D",
"X  c #322F30",
"o  c #472517",
"O  c #632F1B",
"+  c #6D321A",
"@  c #76381E",
"#  c #4C3529",
"$  c #503226",
"%  c #683D2B",
"&  c #57443C",
"*  c #6C4D38",
"=  c #78643B",
"-  c #3F4B5C",
";  c #3F536F",
":  c #4F4F52",
">  c #5F5552",
",  c #6F584D",
"<  c #756159",
"1  c #465469",
"2  c #445B76",
"3  c #4B617D",
"4  c #5E6879",
"5  c #696667",
"6  c #7E726C",
"7  c #676C77",
"8  c #78797C",
"9  c #823D20",
"0  c #854424",
"q  c #8D573D",
"w  c #B05222",
"e  c #B27A34",
"r  c #C47B17",
"t  c #D27019",
"y  c #C46F22",
"u  c #875A49",
"i  c #8C624B",
"p  c #9F694D",
"a  c #956C58",
"s  c #9D7653",
"d  c #B57B51",
"f  c #877468",
"g  c #997766",
"h  c #8A7C76",
"j  c #917B72",
"k  c #AF7D62",
"l  c #9E8535",
"z  c #D3891B",
"x  c #E29A19",
"c  c #DDA51C",
"v  c #E6A419",
"b  c #ECB219",
"n  c #F2B919",
"m  c #C98522",
"M  c #D38E2A",
"N  c #CC932E",
"B  c #D7AE39",
"V  c #E1A125",
"C  c #E8B922",
"Z  c #F7C41B",
"A  c #DAC130",
"S  c #F9CD28",
"D  c #F9D527",
"F  c #FEDB2D",
"G  c #F2CB33",
"H  c #F4D730",
"J  c #FEE331",
"K  c #B9865F",
"L  c #B69151",
"P  c #9C8579",
"I  c #B2896B",
"U  c #A58977",
"Y  c #AC977C",
"T  c #B7AD7E",
"R  c #C58E4F",
"E  c #D5B853",
"W  c #C68F64",
"Q  c #CB946C",
"!  c #D69669",
"~  c #C89775",
"^  c #D49C76",
"/  c #E29E6C",
"(  c #E19C72",
")  c #C9B768",
"_  c #C2B173",
"`  c #E6A676",
"'  c #EEAA77",
"]  c #F4AD75",
"[  c #F4AD79",
"{  c #F7B07A",
"}  c #E8D34F",
"|  c #415B81",
" . c #486588",
".. c #4C6789",
"X. c #526B8B",
"o. c #556C8A",
"O. c #4A6B94",
"+. c #486C97",
"@. c #516E92",
"#. c #46719F",
"$. c #4E719D",
"%. c #557195",
"&. c #5A7495",
"*. c #53739B",
"=. c #636E80",
"-. c #687589",
";. c #777D89",
":. c #677B97",
">. c #4C74A3",
",. c #4A77A9",
"<. c #5576A1",
"1. c #5579A5",
"2. c #5B7BA3",
"3. c #557BAA",
"4. c #5C7FAA",
"5. c #497BB4",
"6. c #607FA5",
"7. c #887F80",
"8. c #7C818A",
"9. c #69849E",
"0. c #768498",
"q. c #5C81AB",
"w. c #4E80B9",
"e. c #5C84B3",
"r. c #5886B8",
"t. c #6381A4",
"y. c #6285AC",
"u. c #6D89AA",
"i. c #7D8DA4",
"p. c #748CAA",
"a. c #6589B4",
"s. c #638DBC",
"d. c #6891BC",
"f. c #7A97B8",
"g. c #4785C9",
"h. c #578BC3",
"j. c #5E92C8",
"k. c #4A8DD5",
"l. c #5B9AD8",
"z. c #6592C3",
"x. c #6A95C3",
"c. c #6A98CA",
"v. c #6B9ACB",
"b. c #729AC3",
"n. c #719ECC",
"m. c #639ED8",
"M. c #7AA0C8",
"N. c #67A1D8",
"B. c #76A4D4",
"V. c #7AA7D5",
"C. c #7AA9D9",
"Z. c #848489",
"A. c #8B898D",
"S. c #978B88",
"D. c #99908D",
"F. c #878B95",
"G. c #8C8D92",
"H. c #858D9C",
"J. c #928F93",
"K. c #8B9098",
"L. c #8D929B",
"P. c #939295",
"I. c #9A9294",
"U. c #95959A",
"Y. c #97989C",
"T. c #9B9A9E",
"R. c #A68E85",
"E. c #A89787",
"W. c #A3938C",
"Q. c #B89984",
"!. c #A39694",
"~. c #A69B97",
"^. c #A39C9D",
"/. c #A9A49D",
"(. c #8B95A4",
"). c #9498A2",
"_. c #9C9DA3",
"`. c #8297B1",
"'. c #A19EA2",
"]. c #9CA2A7",
"[. c #99A8BB",
"{. c #A3A2A6",
"}. c #A7A6AB",
"|. c #A8A7AB",
" X c #A6A8AD",
".X c #A9A8AD",
"XX c #B1AEAE",
"oX c #A9ADB4",
"OX c #AFB0B4",
"+X c #B5B6BA",
"@X c #C2A692",
"#X c #87A0C0",
"$X c #A7B4C3",
"%X c #BCBDC1",
"&X c #BFC1C5",
"*X c #BEC8D9",
"=X c #C3C3C5",
"-X c #C7C8CC",
";X c #D4D0CE",
":X c #CBCCD0",
">X c #CFD0D3",
",X c #D4D4D8",
"<X c #D5D6D9",
"1X c #DADADE",
"2X c #CED5E1",
"3X c #DDDEE2",
"4X c #E1E2E6",
"5X c #E5E6EB",
"6X c #E7E8EC",
"7X c #EAEBEE",
"8X c #EDEEF2",
"9X c #EFF0F5",
"0X c #F1F2F7",
"qX c #F3F4FA",
/* pixels */
"}.}.}.}.}.}.}.}.}.|.}.}.}.}.}.}.}.}.}.}.}.}..X.X.X}.}.}.|.|.|.}.}.}.}.}.}.}.}.}.}.}.}.}.}.}.}.}.}.}.}.}.}.}.}.}.}.}.}.}.}.}.}.}.",
"}.}.}.}.}.}.}.}.}.}.}.}.}.}.}.}.}.}.}.}.}.}..X'.}.}..X'.'./.}.}.}.}.}.}.}.}.}.|.}.}.}.}..X}.}.}.}.}.}.}.}.}.}.}.}.}.}.}.}.}.}.}.",
"}.}.}.}.}.}.}.}.}.}.}.}.}.}.|.}.}.}.}.}.}.}.}..X'.A.j u q , Z.{.}.}.}.}.}.}.}.}.}.}.}.}.}.}.}.}.}.}.}.}.}.}.}.}.}.}.}.}.}.}.}.}.",
"}.}.}.}.}.}.}.}.}.}.}.}.}.}.}.}.}.}.}.}.}.}.}.I.u 0 @ + O o & _.}.}.}.}.}.}.}.}.}.}.}.}.}.}.}.}.}.}.}.}.}.}.}.}.}.}..X}.}.}.}.}.",
"}.}.}.}.}.}.}.}.}.}.}.}.}.}.}.}..X}.}.}.}.}.'.< @ 9 9 @ o o > _.}.}.}.}.}.}.}.}.}.}.}.}.}.}.}.}.}.}..X}.}.}.}.}.}.}.}.}.}.}.}.}.",
"}.}.}.}.}.}.}.}.}.}.}.}.}.}.}.}..X.X}.}.}..XA.% 9 9 + O # W Q.}.}.}.}.}.}.}.}.}.}.}.}.}.}.}..X}.}.}.}.}.}.}.}.}.}.}.}..X}.}.}.}.",
"}.}.}.}.}.}.}.|.}.}.}.}.|.}.}.}..X'.}.}.}.}.A.$ O O o . p K f {.}.}.}.}.}.}.}.}.}.}.}.}.}.}.}.}.}.}.}.}.}.}.}.}.}.}.}.}.}.}.}.}.",
"|.}.}.}.}.}.}.}.}.}.}.}.}.}.}.}.}.}.}.}.}.}.P.# o % % , K , h {.}.}.}.}.}.|.}.}.}.}.}.}.}.}.}.}.}.}.}.}.}.}.}.}.}.}.}.}.}.}.}.}.",
"}.}.}.}.}.}.}.}.}.}.}.}.}.}.}.}.}.}.}.}.}.}.{.5   * d ! [ Q U I.}.}.}.}.}.}.}.}.}.}.}.|.}.}.}.}.}.}.}.}.}.}.}.}.}.}.}.}.}.}.}.}.",
"}.}.}.}.}.}.}.}.}.}.}.}.}.}.}.}.}.}.}.}.}.}.|.P.X # p ] [ ` U {.}.|.}.}.}.}.}.}.}.}.}.}.}.}.}.}.}.}.}.}.}.}.}.}.}.}.}.}.}.}.}.}.",
"}.}.}.}.}.|.}.}.|.}.}.}.}.}.}.}.}.}.}.}.}.}.}.{.> R p W ' ^ I.}.}.}.}.}.}.}.}.}.}.}.}.}.}.}.}.|.}.}.}.}.}.}.}.}.}.}.}.}.}.}.}.}.",
".X}.}.}.}.}.}.}.}.}.}.}.}.}.}.|.}.}.|.}.}.}.'.A.K ] W # f ~ ~.}.}.}.}.}.}.}.}.}.}.}.}.}.}.}.}.}.}.}.}.}.}.}.}.}.}.}.}.}..X}.}.}.",
"}.}.}.}.}.}.}.}.}.}.}.}.}.}.}.}.}.}.}.}.{.{.+X=XQ.] ] f T.T.}.}.}.}.}.}.}.}.}.|.}.}.}.}.}.}.}.}.}.}.}..X.X}.}.}.}.}.}.}.}.}.}.}.",
"}.}.}.}.}.}.}.}.}.}.}.}.}.}.}.}.}.}.}.{._.:X9XqX3X@XQ 5 T. X}.}.}.}.}.}.}.}.}.}.}.}.}.}.}.}.}.}.}.}.}.}.}.}.}.}.}.}.}.}.}.}.}.}.",
"}.}.}.}.}.|.}.}.}.}.}.}.}.}.}.}.}.}..X.X<X4X6XqXqX0X;X+X X{.}.}.}.}.|.}.}.}.}.}.}.}.}.|.}.}.}.}.}.}.}.}.}.}.}.}.}.}.}.}.}.}.}.}.",
"}.}.}.}.}.}.}.}.}.}.}.|.}.}.}.}.|.|._.+X0XqX7XqXqXqXqX0X<X/.}.}.}.}.}.}.}.}.}.}.}.}.}.}.}.}.}.}.}.}.}.}.}.}.}.}.}.}.}.}.}.}.}.}.",
"}.}.}.}.}.}.}.}.}.}.}.}.}.}.}.}.}.}.{.3XqXqX3X8XqXqXqXqX7X}.}.}.}.}.}.}.}.}.}.}.}.}.}.}.}.}.}.}.}.}.}.}.}.}.}.}.}.}.}.}.}.}.}.}.",
"}.}.}.}.}.}.}.}.}.}.}.}.}.}.}.}.}.Y.OX7XqXqX1X8XqXqXqXqX8X X}.}.}.}.}.}.}.}.}.}.}.}.}.}.}.}.}.}.}.}.}.}.}.}.}.}.}.}.}.}.}.}.}.}.",
"}.}.}.}.}.}.}.}.}.}.}.}.|.}.}.}.{.{.5XqXqX3X+X3X=X+X%XT.5X{. X}.}.}.}.}.}.}.}.}.}.}.}.}.}.|.}.}.}.}.}.}.}.}.}.}.}.}.}..X}.}.}.}.",
"}.}.}.}.}.}.}..X}.}.}.}.}.}.}.}.{.>X8XqX7XP.].:X}.5X-X X<X_. X X}.}.}.}.}..X}.}.}.}.}.}.}.}.}.}.}.}.}.}.}.}.}.}.}.}.}.}.}.}.}.}.",
"}.}.}.}.}.}.}.}.}.}.}.}.}.}.}._.XX7X9X9X}.8 -X{.5 }.P.&X%X_.|.}.}.}.}.}.}.}.}.}.}..X}.}.}.}.}.}.}.}.}.}..X}.}.}.}.}..X}.}.}.}.}.",
"}.}.}.}.}.}.}.}.}.}.}.}.}.}.{.Y.<X5X8X%X: T.<X<X&X8 +X&XU.'.}.}.}.}.}.}.}.}.}.}.}.}.}.}.}.}.}.}.}.}.}.}.}.}.}.}.}.}.}.}.}.}.}.}.",
"}.}.}.}.}.}.}.}.}.}.}.}.}.}.Y.+X-X3X<X7 : OX1X8X8X+X<X=X6 P '.}.}.}.}.}.}.}.}.}.}.}.}.}.}.|.}.}.}.}.}.}.}.}.}.}.}.}.}.}.}.}.}.}.",
"}.}.}.}.}.}.}.}.}.}.}.}.}.{.A..X3X<X{.8 7 =X5X9X7X5X<X}.< p D.}.}.}.}.}.}.}.}.}.}.}.}.}.}.}.}.}.}.}.}.}.}.}.}.}.}.}.}.}.}.}.}.}.",
"}.}.}.}.}.}.}.}.}.}.}.}.}.}.S.K U -XXX8.8 >X5X8X5X1X5X+Xf i S.}.}.}.}.}.}.}.}.}.}.}..X|.|.|.|.|.}.}.}.}.}.}.}.}.}.}.}.}.}.}.}.}.",
"}.}.}..X}.}.}.}.}.}.}.}.}.}.A.! / s Y.Z.J.>X4X7X3X5X8X=Xh h _.|.}.}.}.}.}.}.}.}.}.}.}.}.}.}.}.}.}.}..X}.}.}.}..X}.}.}.}.}.}.}.}.",
"}.}.}.}.}.}..X}.}.}.}.}.}.}.S./ ] ^ ~.J.OX<X4X5X4X6X6X:X{.{.}.}.}.}.}.}.|.}.}.}.}.}.}.}.}.}.}.}.}.}.}.}.}.}.}.}.}.}.}.}.}.}.}.}.",
"}.}.}.}.}.}.}.}.}.}.}.}.}.}.S.( { ^ T.Y.%X1X6X5X4X7X4X<X{.}.}.}.}.}..X}.}.}.}.}.}.}.}.}.}.}.}.}.}.}.}.}.}.}.}.}.}.}.}.}.}.}.}.}.",
"}.}.}.}.}.}.}.}.}.}.}.}.}.}.W.` { Q.Y.T.=X4X1X>X5X5X3X%X).|.}.}.}.}.}.|.}.}.}.}.}.}.}.}.}.}.}.}.}.}.}.}.}.}.}.}.}.}.}.}.}..X.X}.",
"}.}.}.}.}.}.}.}.}.}..X}.}.}.D.' ' E.A.OX-X:X>X4X5X3X3XY._.|.}.}.}.}.|.}.}.}.}.}.}.}.}.}.}.}.}.}.}.}.}.}.}.}.}.}.}.}.}.}..X'.}.}.",
"}.}.}.}.}.}.}.}.}.}.}.}.}.}.!.` ` !.7 1 8 K.K.K. X].8.8 {.}.}.}.}.}.}.}.|.}.}.}.}.}.}.}.|.}.}.}.}.}.}.}.}.}.}.}.}.}.}.}.}.}.}..X",
"}.}.}.}.}.}.}.}.}.}.}.}.}.}.!.' ^ L.%.%.4.4.3 o.%.- 1 Z.|.}.}.}.}.}.}.}.}.}.}.}.}.}.}.}.}.}.}..X}.}.}.}.}.}.}.}.}.}.}.}.}.}.}.}.",
"}.}.}.}.}.}.}.}.}.}.}.}..X.XR.] ~ J.%.2.a.d.%.d.b.....L.}.|.}.}.}.}..X}.}.}.}.}.}.}.}.}.}.}.}.}.}.}.}.}.}.}.}.}.}.}.}.}.}.}.}.}.",
"}.}.}.}.}.}.}.}.}.}.}..X.X.XR.] ~ A.%.6.d.a.&.n.b.2 ..K.}.}.}.}.}.}.}.}.}.}.}.}.}.}..X}.}.}.}.}.}.}.}.}.}.}.}.}..X}.}.}.}.}.}.}.",
"}.}.}.}.}.}.}.}.}.}.}.}..X^.k @X` S.&.*.2.*.x.V.y.1 q.H.}.}.}.|.}.}.}.}.}.}.}.}.}.}.}.}.}.}.}.}.}.}.}.}.}.}.}.}.}.}.}.}.}.}.}.}.",
"}.}.}.}.}.}.}..X}.}.}.}.'.g ! [ ] R.7 *.y.a.n.C.2 *.n.i.{.}.}.}.}.}.}.}.}.}.}.}.}.}.}.}.}.}.}.}.}.}.}.}.}.}.}.}.}.}.}.}.}.}.}.}.",
"}.}.}.}.}.}.}.}.}.}.}.}.7.a k ( Q R.4 1 a.b.B.B...x.B.f.].}.}.}.}..X}.}.}.}.}.}.}.}.}.}.}.}.}.}.}.}.}.}.}.}.}.}.}.}.}.}.}.}.}.}.",
"}.}.}.}.}.}.}.}.}.}.}.}.I., u k k I.&.; +.n.B.v.X.x.C.n.).}.}.}.}.}.}.}.}.}.}.}.}.}.}.}.}.}.}.}.}.}.}.}.}.}.}.}.}.}.}.}.}.}.}.}.",
"}.}.}.}.}.}.}.}.}.}.}.}.}.U.f a S.(.<.*.; q.B.a.,.c.C.V.(.}.}.}.}.}.}.}.}.}.}.}.}.}.}.}.}.}..X}.}.}..X}.}.}.}.}.}.}.}.}.}.}.}.}.",
"}.}..X}.}.}.}.}.}.}.}.}..X.X'.J.'.;.1.a.q.2 y.*.e.c.C.`.(.}.}.}.}.}.}.}.}.}.}.}.}.}.}.}.}.}.}.}.}.}.}.}.}.}.}.}.}.}.}.}..X}.}.}.",
"}.}.}.}.}.}.}.}.}.}.}.}.}.}.}.}.'.:.1.z.x.4.2 X.e.s.C.C.`.{.}.}.}.}.}.}.}.}.}.}.}.}.}.}.}.}.}.}.}.}.}.}.}.}.}.|.}.}.}.}.}.}.}.}.",
"}.}.}.}.}.}.}.}.}.}.}.}.}.}.}.}.'.:.<.z.c.x.:.;.a.s.B.C.f.].}.}.}.}.}.}.}.}.}.}.}.}.}.}.}.}.}.}.}.}.}.}.}.}.}.}.}.}.}.}.}.}.}.}.",
"}.}.}.}.}.}.}.}.}.}.}.}.}.}.}.}._.X.<.z.c.x.)._.u.s.c.B.M._. X}.}.}.}.}.}.}.}.}.}.}.}.}.}.}.}.}.|.}.}.}.}.}.}.}.}.}.}.}.}.}.}.}.",
"}.}.}.}.}.}.}.}.}.}.}.}.}.}.}.}.F.@.<.z.v.p.'.}.H.s.j.B.B.H.].|.}.}.}.}.}.}.}.}.}.}.}.}.}.}.}.}.}.}.}.}.}.}.}.}.}.}.}.}.}.}.}..X",
"}.}.}.}.}.}.}.}.}.}.}.}..X.X'.H.&.O.1.z.x.H.}..X_.t.e.n.C.b.).{.}.}.}.}.}.}.}.}.}.}.}.}.}.}.}.}.}.}.}.}.}.}.}.}.}.}.}.}.}.}.}.}.",
"}.}.}.}.}.}..X}.}.}.}.}.}..X'.7 O.>.3.c.p.'.}.}.].;.*.e.c.n.H. X}.}.}.}.}.}.}..X}.}.}.}.}.}.}.}.}.}.}.}.|.|.}.}.}.}.}.}.}.}.}.}.",
"}.}.}.}.}.}.}.}.}.}.}.}.}.}.L.*.<.3.r.6.L.}.}.}. X0.,.q.c.c.L. X}.}.}.}..X.X}.}.}..X}.}.}.}.}.}.}.|.}.}.|.|.}.}.}.}.}.}.}.}.}.}.",
"}.}.}.}.}.}.}.}.}.}.}.}.}._.6.3.4.4.6.H.'.}.}.}. XL.q.s.N.x._.}.}.}.}.}.'..X}.}.}.}.}.}.}.}.}.}.}.|.|./._ Y ^.}.}.}.}.}.}.}.}.}.",
"}.}.}.}.}.}.}.}.}.}..X.X{.:.3.3.3.:.).}.}.}.}.}.}._.4.h.N.a._.}.}.}.}.}.}.}.}.}.}.}.}.}.}.}.}.}.|.{.T } H D B Y ].].}.}.}.}.}.}.",
"}.}.}.}.}.}.}.}.}.}..X[.7.$.3.3.3.p.].}.}.}.}.}.}._.t.z.l.j._.}. X}.}.}.}.}.}.}.}.}.}.}.}.}.}.}.}.E.} J D Z Z c _. X}.}.}.}.}.}.",
"}.}.}.}.}.}.}.}.}.}.}.7.X.>.$.3.t.).}.}.}.}.}.}.}.{.t.h.N.c.).}.}.}.}.}.}.}.}.}.}.}.}.}.}.}.}.}.}.8 A D l = b v E. X X}.}.}.}.}.",
"}.}.}.}..X}.}.}.}.}.'.-.$.O.$.3.0.}.}.}.}.}.}.}.}.{.t.h.m.m.(.}.}.}.}.}.}.}.}.}.}.}.}.}.}.}.}.}.^.l m n = f c v Y {.}.}.}.}.}.}.",
"}.}.}.}.}.}.}.}.}.}.{.-.O.| 3.6._.}.}.}.}.}.}.}.}.}.0.w.l.N.i.}.}.}.|.}.}.}.}.}.}.}.}.}.}.}.|.!.p y t t e B b M W.}.}.|.}.}.}.}.",
"}..X}.}.}.}.}..X}.}.L.X.|  . .;.}.}.}.}.}.}.}.}.}.}.L.q.h.l.u.{.}.}.}.}.}.}.}.}.}.}.}.}.}.}.}.}.I.a w w z n V I {.}.}.|.}.}.}.}.",
"}.}.}.}.}.}.}..X_.;.X. .$...;.'.}.}.}.}.|.}.}.}.}.}._.t.g.l.s.].}.}.}.}.}.}.}.}.}.}.}.}.}.}.}.}.}.'.R.e t z k S.R.!.{./.}.}.}.}.",
"}.}.}.}.}.}.}.'.G.f.$.| O.*.L.}.}.}.}.}.}.}.}.}.}.}.}.:.w.l.j.).}.}.}.}.}.}.}.}.}.}.}.}.}.}.}.}.}.'.) G C v R B m e B L {.}.}.}.",
"}.}.}.}.}.}.}.'.G.#X3.O. . .)..X}.}.}.}.}.}.}.}.}.}.].&.#.w.,.4 ).|.}.}.}.}.}.}.}.}.}.}.}.}.}.}.|._ H F F S G S C r z L }.}.}.}.",
"}.}.}.}.}.}.}.}.U.7.6.5.g.g.U. X}.}.}.}.}.}.}.}.}.}._.-.+.#.>.+.H.|.}.}.}.}.}.}.}.}.}.}.}.}.}.}.{.E F F F S n x z r y R.}.}.}.}.",
"}.}.}.}.}.}.}.}..XG.F.[.c.g.:.{.|.|.}.}.}.}.}.}.}.}.|.G. .,.>. .G.'.|.}.}.|.}.}.}.}.}.}.}.}.}.}.}.E S F S Z n v x x N '.}.}.}.}.",
"}..X}.}.}.}.}.}..X}.T.G.$X5.,.:.).}.|.}.}.|.}.}.}.}.|.L.*.*.$.5.w.6.0.i.H._.}.}.}.}.}.}.}.|.}.}.|.E.C Z n n v v x M g }.}..X}.}.",
"}.}.}.}.}.}.}.}.}.}.}.'.).#Xz.4.9.T.|.}.}.}.|.}.}.}.{.).[.#Xg.k.k.g.h.z.(.Y.}.}.}.}.}.|.}.}.|.}.|.~.d e N z y y d U '.}.}.}.}.}.",
"}.}.}.}.}.}.}.}.}.}.}.}.'.J.).].F._.|.}.}.}.}.}.}.}.].oX2X*Xp.r.r.f.oXU.L.'.}.}.}.}.}.}.}.}.}.}.|.{.^.~.^.R.I R.~.'..X}.}.}.}.}.",
".X.X.X.X.X.X.X.X}.}..X.X}.'.U.U.T..X.X.X.X.X.X.X.X|._.Z.Y.].Y.Y.8.A.J._.|..X.X.X.X.X.X.X.X.X.X.X.X|.|.|..X.X.X.XXX.X.X.X.X.X.X.X",
"}.}.}.}.}.}.}.}.}.}.}.}.}.}.}.}.}.}.}.}.}.}.}.}.|.}.}.Y.U.Y.Y.)._.{.}.}.}.}.}.}.}.}.}.}.}.}.}.}.|.|.|.|.}.}.}.}.}.}.}.}.}.}.}.}."
};
