/* XPM */
static char *_L1721706774[] = {
/* columns rows colors chars-per-pixel */
"64 64 218 2 ",
"   c #33241D",
".  c #3B2E28",
"X  c #45271C",
"o  c #5C2A16",
"O  c #662F18",
"+  c #783619",
"@  c #563A30",
"#  c #613D2C",
"$  c #55433A",
"%  c #714934",
"&  c #78643B",
"*  c #2F3747",
"=  c #3A4454",
"-  c #3D526C",
";  c #3C5373",
":  c #474748",
">  c #574F4B",
",  c #4D4D53",
"<  c #595655",
"1  c #70594E",
"2  c #4B596D",
"3  c #695F60",
"4  c #58667A",
"5  c #676667",
"6  c #796864",
"7  c #6C7078",
"8  c #77787B",
"9  c #8C3E15",
"0  c #9A451D",
"q  c #AC511D",
"w  c #BD6E18",
"e  c #8E4C34",
"r  c #88543B",
"t  c #9E5B3D",
"y  c #A85129",
"u  c #B86E27",
"i  c #B27A34",
"p  c #C47B17",
"a  c #D27019",
"s  c #C46F22",
"d  c #9C6347",
"f  c #8E6952",
"g  c #9A6B59",
"h  c #A3684A",
"j  c #B77648",
"k  c #A87556",
"l  c #8C6F67",
"z  c #877369",
"x  c #967769",
"c  c #8A7B78",
"v  c #A67D67",
"b  c #C77E54",
"n  c #9E8535",
"m  c #B88032",
"M  c #D3891B",
"N  c #E29A19",
"B  c #DDA51C",
"V  c #E6A419",
"C  c #ECB219",
"Z  c #F2B919",
"A  c #C98522",
"S  c #D38E2A",
"D  c #CC932E",
"F  c #D7AE39",
"G  c #E1A125",
"H  c #E8B922",
"J  c #F7C41B",
"K  c #DAC130",
"L  c #F9CD28",
"P  c #F9D527",
"I  c #FEDB2D",
"U  c #F3D231",
"Y  c #FEE331",
"T  c #B69151",
"R  c #9C8478",
"E  c #A9846A",
"W  c #B5876D",
"Q  c #A48878",
"!  c #AC977C",
"~  c #BD9279",
"^  c #B7AD7E",
"/  c #CC864E",
"(  c #DB8E5E",
")  c #E7945D",
"_  c #D5B853",
"`  c #CB8C67",
"'  c #D9966B",
"]  c #C6977A",
"[  c #D69A74",
"{  c #E69A69",
"}  c #E79E71",
"|  c #D3AE72",
" . c #C2B173",
".. c #E9A578",
"X. c #F2A979",
"o. c #FCB17F",
"O. c #E8D34F",
"+. c #3D5C83",
"@. c #3D6694",
"#. c #435E82",
"$. c #415F88",
"%. c #496486",
"&. c #43638B",
"*. c #4C688E",
"=. c #566A86",
"-. c #5B7087",
";. c #456A95",
":. c #4B6993",
">. c #426B9B",
",. c #4B739E",
"<. c #577496",
"1. c #52749B",
"2. c #6D7483",
"3. c #6A7689",
"4. c #69778B",
"5. c #787C84",
"6. c #647A95",
"7. c #4A74A3",
"8. c #4A77A9",
"9. c #557CA7",
"0. c #4D7EB4",
"q. c #517EB2",
"w. c #76808D",
"e. c #778497",
"r. c #5A84AD",
"t. c #5787B8",
"y. c #5485BA",
"u. c #6B8BAD",
"i. c #768BA6",
"p. c #628CB4",
"a. c #6B95BC",
"s. c #6C96BC",
"d. c #7897B8",
"f. c #588DC3",
"g. c #5B94CA",
"h. c #5F9AD2",
"j. c #6594C4",
"k. c #6599C7",
"l. c #6E9AC2",
"z. c #729DC2",
"x. c #719FC8",
"c. c #649DD2",
"v. c #6EA2CE",
"b. c #77A3CA",
"n. c #7BA8CD",
"m. c #7AABD4",
"M. c #86878B",
"N. c #998680",
"B. c #9E8B84",
"V. c #9E928F",
"C. c #868A95",
"Z. c #8E919B",
"A. c #949194",
"S. c #9A9395",
"D. c #94959B",
"F. c #99979B",
"G. c #9B9A9D",
"H. c #A68E86",
"J. c #A7978A",
"K. c #B59789",
"L. c #A19595",
"P. c #A89A96",
"I. c #A39C9C",
"U. c #B99D91",
"Y. c #A9A49D",
"T. c #B8A295",
"R. c #8A96A7",
"E. c #939BA7",
"W. c #9C9DA3",
"Q. c #8699B1",
"!. c #A19FA3",
"~. c #9EA0A7",
"^. c #88A4BD",
"/. c #96A4B4",
"(. c #A3A2A6",
"). c #A8A4A5",
"_. c #A7A6AB",
"`. c #A8A7AB",
"'. c #A9A8AD",
"]. c #B1AAAA",
"[. c #AEADB1",
"{. c #B0AFB4",
"}. c #B3B3B4",
"|. c #B6B6B9",
" X c #B7B8BA",
".X c #BABBBC",
"XX c #D4A58B",
"oX c #D6AB93",
"OX c #EFAF82",
"+X c #D7B8A3",
"@X c #C0C0BF",
"#X c #85ABC9",
"$X c #82AED2",
"%X c #85B2D5",
"&X c #85B4D8",
"*X c #92BADA",
"=X c #BDBEC1",
"-X c #BFC0C3",
";X c #C3C3C4",
":X c #C6C7C9",
">X c #C8C8CA",
",X c #CCCCCD",
"<X c #D4D1CE",
"1X c #CFCFD1",
"2X c #CFD0D1",
"3X c #D2D3D3",
"4X c #D8D8D8",
"5X c #DBDBDB",
"6X c #EBDED6",
"7X c #E8E1DB",
"8X c #E4E4E3",
"9X c #EAE7E4",
"0X c #ECECEB",
"qX c #F0EFED",
"wX c #F1F1EF",
"eX c #F5F5F4",
"rX c #F8F8F7",
"tX c #F9F9F8",
/* pixels */
"_._._._._._._._._._._._._._._._._._._._._._._._._._._._._._._._._._.'.'._._._._.`._._._._._._._._._._._._._._._._._._._._._._._.",
"_._._._._._._._.`._._._._._._._._._._._._._._.'._._._._._._.!.!.V.c S.!._._._._._._._._._._._._.`._._._._._._._._._._._._._._._.",
"_._._._._._._._._._._._._._._._._._._._._._._._._._._.!.A.l g h t y e l S.!._._._._._._._._._._._._._._._._._._._._._._._._._.'.",
"_._._._._._._._._._._._._._._.`._._._._._._._._._._._.c t y 0 0 0 + + + c _._._._._._._._._._._._._._._._._._._._._._._._._._._.",
"_._._._._._._._._._._._._._._._._._._._._._._._._._.W.$ + 9 + + # # X # D.'.!.'._._._._._._._._._._._._._._._._._._._._._._._._.",
"_._._._._._._.`._._._._._._._._._._._._._.'._._._._.W.@ o O O + X.OXg 3 !.'.'.'._._._._._._._._._._._._._._.'._._._._._._._._._.",
"_._._._._._._._._._._._._._._._._._._._._._._._._._.W.$ X X X f E Q K.L.!._._._._._._._._._._._._._.`._._._._._._._._._._._._._.",
"`._._._._._._._._._.`._._._._._._._._._._._._._._._.!.< @ + 1 [ z e.6 5._._._._._.`._._._._._._._._._._._._._._._._._._._._._._.",
"_._._._._._._._._._._._._._._._._._._._._._._._._._._.M.. d ' o.~ c x Z._._._._._._._._._._._._._._._._._._._._._._._._._._._._.",
"_._._._._._._._._._._._._._._._._._._._._._._._._._._.(.3 % ' o.OX..R ).`._._._._._._._._._.`._._._._._._._._._._._._._._._._._.",
"_._.`._._._._._._.`._._.`._._._._._._._._._._._._._._.).R r % ' ..OXL._._._._._._._._._._._._._._._._._._._._._._._._._._._._._.",
"_._._._._._._._._._._._._._._._._._._._._._._._._._.).I.] j #   z K.)._._._._._._._._._._._._._._._._._._._._._._._._.'._._._._.",
"_._._._._._.`._._._._.`._._._._._._._._._._._._.'.[.|.T.} ( / % l _._.`._._._._._._._._._._._._._.'._._._._._._._._._._._._._._.",
"_._._._._._._._._._._._._._._._._._._._._.).[.:X5X0XqX8X+X| ..' XX<X2X{._._._._._._._._._._._._._._._._._._._._._._._._._._._._.",
"_._._.`._._._._._._._._._._._._._._._._._._.-X9XeXeXeXeXwX7X6X7X9XrXrX0X2X'.`._._._._._._._._._._._._._._._._._._._._._._._._._.",
"_._._._._._._._._._._._._._._._._.'._.'.!.[.5X0XqXeXeXrXrXrXrXrXrXrXtXrXeX2X`._._._._._._.`._._._._._._._._._._._.'._._._._._._.",
"_.'._._._._._._._._._._._._._._._._._._._.|.9XwX8XwXeXrXrXrXrXrXtXtXtXtXqX5X_._._._._._._._._._._._._._._._._._._._._._._._._._.",
"_._._._._._._._._._._._._._._._._._._._.(.=X8XwX4X8XwXeXrXwXeXwXeXeXtXwX3X5X'._._._._._._._._._._._._._._._._._._._._._._._._._.",
"_._._._._._._._._._._._._._._._._._._._.~.=X5X8X[.F.8XwX4Xw.;X;X].5 1X9XG.4X|._._._._._._._._._._._._._._._._._._._._._._._._._.",
"_._._._._._._._._._._._._._._._._.'._._.'.-X3X=X7 5 ,X2XR _.wX0X=X5 3X4X5.1X-X'._._._._._._._._._._._._._._._._._._._._._._.'._.",
"_._._._._._._._._.'._._._._._._._._._._.'.{.@X;X5., `.5 8 ,X5X,X7 .XqX,X5.@X}.!._.'._._._._._._._._._._._._._._._._._._._._._._.",
"_._._._._._._._._._._._._._._._._._._._.F.1 % > : , [.5 5 , > _.> {.<X@X1 f Q _._._._._._._._._._._._._._._._._._._._._._._._._.",
"_._._._._.'._._._._._._._._._._._._._._.V./ b k 5 : 8 @X7X`.: 4X4X5X9X.X> b ] '._._._._._._._._._._._._._.'._._._._._._._._._._.",
"_._._._._._._._._._._._._._._._._._._._.H./ t H.C.5 D.>X5X5X:X5X3X;X>X|.6 j ' !._._._._._._._._._._._._._._._._._._._._._._._._.",
"_._._._._._._._._._.'._._._._._._._._._.! ) h S.A.M.W.2X8X0X0X8X4X<X>X=XR b ..U.!.'.'._._.'._.'._._._._._._._._._._._.'._._._._.",
"_._._._._._._._._._._._._._._._._._._._.Q { ( L.S.W.-X>X8X0X0XwX8X0X9X=XB.b ..oX_._._._._._._._._._.'._._._._._._._._._._._._._.",
"_._._._._._._._._._._._._._._._._._._._.Q { { S.(.w.=X8X5X5X8X0X9XqX8X2XG.h ..oX_._._._._._._._._._._._._._._._._._._._._._._._.",
"_._._._._._._._._._._._._._._._._._._._.R { { I.).`.{.{.,X8X4X4X8X0X8X5X_.z [ oX_._._._._._._._._._._._._._._._._._._._._._._._.",
"_._._._._._._._._._._._._._._.'.`._._._.I.' } Y.W.8  X5X=X>X8X8X5X4X4X:X).F.W oX_.'._._._._._._._._._._._._._._._._._._._._._._.",
"_._._._._._._._._._._._._._._._._._._._.!.] ' (.G.(.D.[.:X2X3X,X2X4X2X1X'.!.Q XX!._._._._._._._._._._._._._._._._._._._._._._._.",
"_._.'._._._._._._._._._._._._._._._._._.).x k G.~.M.(.}. X:X,X>X2X-X-X-X X_.c v G._._._.'._._._._._._._._._._._._._._._._._._._.",
"_._._._._._._._._._._._._._._._._._._._.S.: $ M.(.G._..X>X:X X~.w.-.-.6.e.!.x [ !._._._._._._.'._._._._._._.'._._._._._._._._._.",
"_._._._._._._._._._._._._._._._._.'._._.I.6 E K.~.5.7 7 7 -.-.<.p.s.b.m.&XR.] OX)._._._._._._._._._._._._._._._._._._._._._._._.",
"_._._._._._._._._._._._._._._._._._._._.!.v { X.P.4.7.r.l.b.k.l.l.s.l.#X*XR.` ' K.)._._._._._._._._._._._._._.`._._._._.`._._._.",
"_._._._._._._._._._._._._._._._._._._._.P.' X.` U.6.9.p.n.m.j.9.%.*.r.z.#X#Xg k XX(._._._._._._._._._._._.`._.`.`._._.`._._.`._.",
"_.'._._._._._._._._._._._._._._._._.'.'.S.r k g P.5.9.s.b.a.<.- * %.r.b.%X#X1 & x (._._._._._._._._._._._._._._._._._._._._._._.",
"_._._._._._._._._._._._._._._._._._._._.(.C.6 f L.5.:.x.n.s.<.= * 2 p.n.&X%Xc c F._._._._.`._._._._._._._._._._._._._._._._._._.",
"_._._._._._._._._._._._._._._._._._._._._._._.W.).C.*.b.#Xz.9.5.- 2 9.l.%X&XE.!._._._._._._._._._._.`._._._._._._._._._._._._._.",
"_._._._._._._._._._._._.'._._._._._._._._._._._._.A.=.l.x.z.p.Z.=.2 u.x.&X&XQ.`._._._._._._._._._._._._._._._._._._._._._.`._._.",
"_._._._._._._._._._._.'._._._._._._._._._._._._._.E.=.a.z.l.u.E.D.$.7.j.m.%X^.`._._._._._._._._._._._._._._._._._._._._._._._._.",
"_._._._._._._._._._._._._._._._._._._._._._._._.'.!.=.p.s.z.d.E.!.3.q.k.v.m.^.(.`._._._._._._._._._._._._._._._._._._._._._._._.",
"_._._._._._._._._._._._._._._._._._._._._._._._.'.!.-.p.l.z.s.W.'.F.#.9.g.m.n.(._._._.`._._._._._._._._._._._._._._._._._._._._.",
"_._._._._._._._._._._._._._._._._._._._._.'._._.!._.3.r.x.b.d.E._.).4 9.y.v.#XW._._._._._._._._._._._._.`._._._.`._._._._._._._.",
"_._._._._._._._._._._._._._._._._._._._._._._._.'.!.=.9.s.%XQ.W._.`.2.#.8.k.*X/._._._._._._._._._._._._._._._._._._._._._._._.`.",
"_._._._._._._._._._._._._._._._._._._._._._._._._.W.4 $.u.$XQ.~._._.5.;.$.q.$X/._._._._._._._._._.`._._._._._._._._._._._._._._.",
"_._._._._.'._._._._._._._._._._._._._._._._._._._.!.2 $.7.j.9.~._._.C.,.t.#.p.E._._._._._._._._._._._._._._._._._._._._._._._._.",
"_._._._._._._._._._.'._._._._._._._._._._._._._._.!.=.#.$.9.d.~._._.C.#.y.t.1.E._._._._._._._._.`.`._._.`.`._._._._._._._._._._.",
"_._._._._._._._._._._._._._._._._._._._._._._._._.D.*.q.q.j.Q.~._._.E.#.f.c.t.E._._._._._._._._.`.`.).Y. .! I._._._.`._._._._._.",
"_._._._._._._._._._._._._._._._._._._._._._._.'._.Z.:.f.j.j.Q.~._._.!.#.f.c.c.Q._._._._._._._._.`.(.^ O.Y P F ! ~.Y.`.`.`.`._._.",
"_._._._._._._._._._._._._._._._._._._._._._._._._.D.:.y.f.j.i._._._.W.*.0.h.c.Q._._._._._._._._._.J.O.Y P J J D G.`.`.~.`.`._._.",
"_._._._._._._._._._._._._._._._._._._._._._._._._.!.:.y.f.f.Q._._._.W.=.0.g.c.Q._._._._._._._._.`.6 K P n & C V J.`.`.`._._._._.",
"_._._._._._._._._._._.'._._._._._._._._._._._._._.!.=.q.g.g.6.`._._._.=.8.g.g.d._._._._._._._._.Y.k M K & z B N ! ~.`.`._._._._.",
"_._._._._._._._._._._._._._._._._._._._._._._._._.!.=.7.f.y.Q.'._._.!.3.@.0.g.Q._._._._._._._.L.d w a a m F C S J._._._._._._._.",
"_._._._._._._._._._._._._._._._._._._._._._._._._._.3.>.0.0.6.!._._._.5.+.8.8.u._._._._._._._._.G.g y q M Z G W ~.`._.`._.`._._.",
"_._._._._._._._._._._._._._._._._._._._._._._._._._.5.&.8.7.1.W._._.'.M.>.0.>.r.R._._._._._._._._.(.H.u p M E N.B.I.Y.)._._._._.",
"_.'._._._._._._._.'._._._._._._._.'._._._._._._._.W.6.>.0.7.7.R._.'.'.6.>.@.8.q.d.)._._._._._._._.Y. .U H V D _ A i F T ~._._._.",
"_._._._._._._._._._._._._._._._._._._._._._._._._.W.4 ; $.q.1.Z._._.!.<.;.@.8.,.6.`.`.`.`._._._._. .Y I I L U L C p S T )._._._.",
"_._._._._._._._._._._._._._._._._.'._._._._._._._._.5.- 7.:.*.R._._.!.2.$.$.; ; 2._.`.`._._._._.!._ I I I L Z N M p s H.)._._._.",
"_._._._._._._._._._._._._._._._._._._._._._._._._.!.M.- #.; 4 !._._._.e.+.+.+.+.%.C._.'._._._._._._ L P L L Z V N N D !._._._._.",
"_._._._._._._._._._._._._._._._._._._._._._._._.'.'.C.$.>.;.C._._._._.C.#.&.8.q.7.1.e.!._._._._._.J.H J Z C N V V S v W._._._._.",
"_._._._._._._._._._._._._._._._._._._._._._._._._.W.<.q.q.9.C.]._._.!.D.3.=.<.9.8.q.j.d.R._._._._.I.j m D M p s j Q !._._._._._.",
"_._._._._._._._._._._._._._._._._._._._._._._._._.E.6.d.z.d.C.!._.'.'.W.A.A.D.M.3.i.Q.R.C._._._._.).I.F.F.H.W H.I._._._._._._._.",
"'.'.'.'.'.'.'.'.'.'.'.'.'.'.'.'.'.'.'.'.'.'.'.'.'.'.}.|.|.W.W.'.'.'.'.'._.!.!.W.D.S.D.A.W.`.'.'.'.'.'.'.'.'.'.'.'.'.'.'.'.'._.'.",
"_._._._._._._._._._._._._._._._._._._._._._._.'.!._._.'._.'.!._._._._._.'.'.'.!._._._._._._._._._._._._._._._._._.'._._._._._._."
};
