/* XPM */
static char *Player_Z21721606381[] = {
/* columns rows colors chars-per-pixel */
"64 64 212 2 ",
"   c #0F0C0C",
".  c #110E0E",
"X  c #13100E",
"o  c #1A1717",
"O  c #241C19",
"+  c #2E231F",
"@  c #201F26",
"#  c #262327",
"$  c #2D2A2B",
"%  c #332C2A",
"&  c #282A35",
"*  c #383130",
"=  c #393638",
"-  c #493C36",
";  c #663C2A",
":  c #52453D",
">  c #6D442F",
",  c #2B3648",
"<  c #343D4A",
"1  c #323F51",
"2  c #3A4557",
"3  c #35445B",
"4  c #2F4763",
"5  c #334965",
"6  c #3B4C63",
"7  c #334C6B",
"8  c #38516E",
"9  c #334E71",
"0  c #345276",
"q  c #3C5473",
"w  c #34547B",
"e  c #37597D",
"r  c #3A597D",
"t  c #48464B",
"y  c #524D4C",
"u  c #5E504B",
"i  c #454C5A",
"p  c #524E50",
"a  c #4D505A",
"s  c #555455",
"d  c #585559",
"f  c #5C5B5D",
"g  c #685144",
"h  c #7A5A4A",
"j  c #625C5A",
"k  c #716058",
"l  c #434F66",
"z  c #4B5567",
"x  c #545B67",
"c  c #5E5E63",
"v  c #4A5B72",
"b  c #605E61",
"n  c #57616F",
"m  c #5D6877",
"M  c #646264",
"N  c #6A6667",
"B  c #65666B",
"V  c #6B6A6C",
"C  c #7B6C67",
"Z  c #726D6C",
"A  c #636B77",
"S  c #6C6E74",
"D  c #717073",
"F  c #747375",
"G  c #77777B",
"H  c #7A7778",
"J  c #7C7B7C",
"K  c #8C5C37",
"L  c #A5623F",
"P  c #876B5C",
"I  c #9B725C",
"U  c #AA714B",
"Y  c #8A7769",
"T  c #967768",
"R  c #897974",
"E  c #847E7E",
"W  c #A77B64",
"Q  c #C77B48",
"!  c #8C827F",
"~  c #93837A",
"^  c #B58F73",
"/  c #D9874A",
"(  c #C78356",
")  c #E38D4A",
"_  c #EB964D",
"`  c #C99675",
"'  c #365C87",
"]  c #3B5D82",
"[  c #38628A",
"{  c #3B6793",
"}  c #3D6895",
"|  c #3E6D9A",
" . c #3D709E",
".. c #3F73A4",
"X. c #44658B",
"o. c #586C88",
"O. c #406C99",
"+. c #47719B",
"@. c #6E7885",
"#. c #727B86",
"$. c #7C7D83",
"%. c #6D7C95",
"&. c #416DA1",
"*. c #4275A4",
"=. c #457AAC",
"-. c #497BA8",
";. c #457DB2",
":. c #447EB8",
">. c #637EA4",
",. c #807E81",
"<. c #7E8086",
"1. c #76869A",
"2. c #4980AF",
"3. c #4582B5",
"4. c #4984B7",
"5. c #4483BA",
"6. c #4B8BBD",
"7. c #6C8BAC",
"8. c #6393BC",
"9. c #7090B0",
"0. c #7E9BB8",
"q. c #4C8CC3",
"w. c #498CC7",
"e. c #578DC2",
"r. c #4C94CA",
"t. c #4C93CC",
"y. c #5193C4",
"u. c #5295CC",
"i. c #4E98D3",
"p. c #5793D2",
"a. c #549CD2",
"s. c #6399C9",
"d. c #58A4D7",
"f. c #5CAADC",
"g. c #79A5C6",
"h. c #61ABD9",
"j. c #5DADE1",
"k. c #5DB0E1",
"l. c #64B3E4",
"z. c #69B7E6",
"x. c #68B8E8",
"c. c #6BBCEB",
"v. c #6FC0ED",
"b. c #71C0EE",
"n. c #848384",
"m. c #858589",
"M. c #86888C",
"N. c #8B8A8D",
"B. c #948C8A",
"V. c #9A918D",
"C. c #868A95",
"Z. c #8D8D92",
"A. c #908F93",
"S. c #8E919A",
"D. c #939294",
"F. c #96959A",
"G. c #99979A",
"H. c #9B9A9D",
"J. c #A79085",
"K. c #A69995",
"L. c #A29B9C",
"P. c #8594A7",
"I. c #949AA4",
"U. c #9D9DA2",
"Y. c #8B9EB3",
"T. c #A19EA3",
"R. c #9BA2A9",
"E. c #97A4B6",
"W. c #A3A2A5",
"Q. c #ABA6A2",
"!. c #A7A6AB",
"~. c #A6A8AC",
"^. c #ABABAC",
"/. c #B3AEAC",
"(. c #ACAFB5",
"). c #B2B2B3",
"_. c #B3B3B4",
"`. c #B9B7B6",
"'. c #B6B8BB",
"]. c #BBBABB",
"[. c #CBAA97",
"{. c #C1BCBA",
"}. c #D3BEB4",
"|. c #C2C1BF",
" X c #B3BAC3",
".X c #C1BFC0",
"XX c #BDC1C3",
"oX c #C4C4C4",
"OX c #C5C7C9",
"+X c #C9C8C9",
"@X c #CCCCCC",
"#X c #CDCECF",
"$X c #CED2D6",
"%X c #D4D3D3",
"&X c #D7D7D9",
"*X c #DCDCDC",
"=X c #E0DFDF",
"-X c #DDE0DF",
";X c #D6DAE0",
":X c #DDDFE1",
">X c #DEE1E4",
",X c #E4E4E4",
"<X c #E8E7E7",
"1X c #EAE9E7",
"2X c #E5E6E8",
"3X c #EBEBEA",
"4X c #F0EFED",
"5X c #F2F1EF",
"6X c #EEEFF0",
"7X c #EFF1F1",
"8X c #F3F3F1",
"9X c #F9F9F7",
/* pixels */
"!.!.!.!.!.!.!.!.!.!.!.!.!.!.!.!.~.!.!.!.!.!.!.!.!.!.!.!.~.~.~.~.W.W.W.L.K.T.T./.!.!.!.!.!.!.~.!.!.!.!.!.!.!.!.!.!.!.!.!.!.!.!.!.",
"!.!.!.!.!.!.!.!.~.!.!.!.!.!.!.!.!.!.!.!.!.!.!.!.!.!.!.W.~.~.W.~.H.R U Q Q ( Q J.W.~.!.!.!.!.!.!.!.!.!.!.!.!.!.!.!.!.!.!.!.!.!.!.",
"!.!.!.!.!.!.!.!.!.!.!.!.!.!.!.!.!.!.!.!.!.!.!.!.U.G.I.U.^.^.^.D.k L Q ) _ _ _ / W H.!.~.!.!.!.!.!.!.!.!.!.!.!.!.!.!.!.!.!.!.!.!.",
"!.!.!.!.!.!.!.!.!.!.!.!.!.!.!.!.!.!.!.!.!.!.!.W.F.F.H.`.oX].U.g > L Q ) ) _ _ ) Q T W.~.!.!.!.!.!.!.!.!.!.!.!.!.!.!.!.!.!.!.!.!.",
"!.!.!.!.!.!.!.!.!.!.!.!.!.!.!.!.!.!.!.!.~.~.^.D.N.^._.#X@XH.V + ; I }.[.( Q U K > : J W.!.!.!.!.!.!.!.!.!.^.!.!.!.!.!.!.!.!.!.!.",
"!.!.!.!.!.!.!.!.!.!.!.!.!.!.~.!.!.!.!.!.W.!.!.m.$._.+X&X].V.y O u L.+X{.K.h > : O % J !.!.!.!.!.!.!.!.!.!.!.!.!.!.!.!.!.!.!.!.!.",
"!.!.!.!.!.!.!.!.!.!.!.!.!.!.!.!.!.!.!.!.!.G.D.M.N.G.).|.^.N.s f B.M.F E F : ^./.= O n.W.!.!.!.!.!.!.!.!.!.!.!.!.!.!.!.!.!.!.!.!.",
"!.!.!.!.!.!.!.!.!.!.!.!.!.!.!.!.!.!.!.~.U.G n.^.-X&X%X&X).J f G.^.H s Z y * y y # o n.!.!.!.!.!.!.!.!.!.!.!.!.!.!.!.!.!.^.!.!.!.",
"!.!.!.!.!.!.!.!.!.!.!.!.!.!.!.!.!.!.!.!.Z.B G L.%X-X=X>X^.V y <.!.H M Z f o X X . o m.~.!.!.!.!.!.!.!.!.!.!.!.!.!.!.!.!.!.!.!.!.",
"!.!.!.!.!.!.!.!.!.!.!.^.!.!.!.!.!.!.!.W.D B H ^.+X`.,X@XW.V n.<.D.^.|.+XM X . . . $ D.~.!.!.!.!.!.!.!.!.!.!.!.!.!.!.!.!.!.!.!.!.",
"!.!.!.!.!.!.^.!.!.!.!.~.!.!.!.!.!.!.^.G.N M ,.D.W._.-X|.J c N.`./.Q.).].V o   . X y L.!.!.!.!.!.!.!.!.!.!.!.!.!.!.!.!.!.!.!.!.!.",
"!.!.!.!.!.!.!.!.!.!.!.!.!.!.!.!.!.!.!.M.B H ^.`.W.Q.-X`.M Z R ~ Q.+X`.^.m.- . . $ n.W.!.!.!.!.!.!.!.!.!.!.!.!.!.!.!.!.!.!.!.!.!.",
"!.!.!.!.!.!.!.!.!.!.!.!.!.!.!.!.!.!.!.$.V D.%X%X).oX@XB.k C H B.V.V.Q.`.K.V * % J W.!.!.!.!.!.!.!.!.!.!.!.!.!.!.!.!.!.!.!.!.!.!.",
"!.!.!.!.!.!.!.!.!.!.!.!.!.!.!.!.!.~.W.J M ! `.@X/.oX`.k d <.OX<X5X,X{.~ /.G.f f W.!.!.!.!.!.!.!.!.!.!.!.!.!.!.!.!.!.!.!.!.!.!.!.",
"!.!.!.!.!.!.!.!.!.!.!.!.!.!.!.!.W.~.R.V J D.`.+X+X+X! t n (.>X3X5X5X1X/.! G.F n.!.!.!.!.!.!.!.!.!.!.!.!.!.!.!.!.^.!.!.!.!.!.!.!.",
"!.!.!.!.!.!.!.!.!.!.!.!.!.!.!.!.~.~.W.F G.|.%X-X*XOX<.2 @.'.@X-X1X1X1X*XB.Q.J R.!.!.!.!.!.!.!.!.!.!.!.!.!.!.!.!.!.!.!.!.!.!.!.!.",
"!.!.!.!.!.!.!.!.!.!.!.!.!.!.!.!.!.!.F.S T.%X3X1X-X%Xn.6 <.R.XX8X9X9X8X,X/.Z D.N.T.!.!.!.!.!.!.!.!.!.!.!.!.!.!.!.!.!.!.!.!.!.!.!.",
"!.!.!.!.!.!.!.!.!.!.!.!.!.!.!.!.!.!.A.,._.=X4X<X,X%XB 6 A H.`.-X,X<X<X%XoXN F b H.!.!.!.!.!.!.!.!.!.!.!.!.!.!.!.!.!.!.!.!.!.!.!.",
"!.!.!.!.!.!.!.!.!.!.!.!.!.!.!.!.!.!.,.F.oX,X4X3X1XoXx v x <.R.oX@X%X@X{.'.D F ,.M C.!.!.!.!.!.!.!.!.!.!.!.!.!.!.!.!.!.!.!.!.^.!.",
"!.!.!.!.!.!.!.!.!.!.!.!.!.!.!.!.!.!.,.T.@X1X8X1X3X].i r 2 c M.|.@X%X@X(.F.V c b # ,.!.!.!.!.!.!.!.!.!.^.!.!.!.!.!.!.!.!.!.!.!.!.",
"!.!.!.!.^.!.!.!.!.!.!.!.!.!.!.!.!.R.F T.@X3X5X=X,X^.2 [ 3 = <.XX*X*X*X_.F.D p c # ,.!.!.!.!.!.!.!.!.!.!.!.!.!.!.!.!.!.!.!.!.!.!.",
"!.!.!.!.!.!.!.!.!.!.!.!.!.!.!.!.!.G.N N./.@X=X=X,XG.2 r e # B XX,X6X7X*X!.F.p c d Z.!.!.!.!.!.!.!.!.!.!.!.!.!.!.!.!.!.!.!.!.!.!.",
"!.!.!.!.!.!.!.!.!.!.!.!.!.!.!.!.!.D.D W.+X&X@X,X*XB.2 r 0 # s XX;X2X8X>X!.H.s c G.!.!.!.!.!.!.!.!.!.!.!.!.!.!.!.!.!.!.!.!.!.!.!.",
"!.!.!.!.!.!.!.!.!.!.!.!.!.!.!.!.!.A.E `.=X4X1X,X#XV.2 7 0 @ p R.&X8X6X$X!.F.D Z U.!.!.!.!.!.!.!.!.!.!.!.!.!.!.!.!.!.!.!.!.!.!.!.",
"!.!.!.!.!.!.!.!.!.!.!.!.!.!.^.!.!.N.n.].,X5X3X1XOXH G.A v & = R.;X6X7X;X(.F.H.(.!.!.!.!.!.!.!.!.!.!.!.!.!.!.!.!.!.!.!.!.!.!.!.!.",
"!.!.!.!.!.!.!.!.!.!.!.!.!.!.!.!.!.,.n.|.1X8X3X1X].t <._.R.f = Z. X$X;X2X*XH.!.].!.!.!.!.!.!.!.!.!.!.!.!.!.!.!.!.!.!.!.!.!.!.!.!.",
"!.!.!.!.!.!.!.!.!.!.!.!.!.!.!.!.W.G E |.1X5X,X=X^.2 3 x A a # s R.@X>X6X8X!.`.].!.!.!.!.!.!.!.!.!.!.!.!.!.!.!.!.!.!.!.!.!.!.!.!.",
"!.!.!.!.!.!.!.!.!.!.!.!.!.!.!.!.W.D J ].=X3X=X/.R t 5 q l y - % $.OX;X7X9X%X]./.W.!.!.!.!.!.!.!.!.!.!.!.!.!.!.!.!.!.!.!.!.!.!.!.",
"!.!.!.!.!.!.^.!.!.!.!.!.!.!.!.!.U.B m.].*X*X@XW.j P Y Y T P : # 2 I.#X7X6X2X!.T.!.!.!.!.!.!.!.!.!.!.!.!.!.!.!.!.!.!.!.!.!.!.!.!.",
"!.!.!.!.!.!.!.!.!.!.!.!.!.!.!.!.H.N J ~.@X*X@XF.: f Z Z N z 3 & O x R.$X3X9XoXF.!.!.!.!.!.!.!.!.!.!.!.!.!.!.!.!.!.!.!.!.!.!.!.^.",
"!.!.!.!.!.!.!.!.!.!.!.!.!.!.!.!.!.Z.F.G.G.H.D.J B & < X.-.3.} 3 & # S '.2X*X].@X!.!.!.!.!.!.!.!.!.!.!.!.!.!.!.!.!.!.!.!.!.!.!.!.",
"!.!.!.!.!.!.!.!.!.!.!.!.!.!.!.!.!.!.!.W.W.W.~.!.W.M 7 3.u.d.6.e , o & A U._.,X,X!.!.!.!.!.!.!.!.!.!.!.!.!.!.!.!.!.!.!.!.!.!.!.!.",
"!.!.!.!.!.!.!.!.!.!.!.^.!.!.!.!.!.!.!.!.!.!.!.!.~.S 0 =.a.f.a.| 7 & # 6 m '.&X/.V.!.!.!.!.!.!.!.!.!.!.!.!.!.!.!.!.!.!.!.!.!.!.!.",
"!.!.!.!.!.!.!.!.!.!.!.!.!.!.!.!.!.!.!.!.!.!.!.!.W.$.4 | a.k.d.4.[ , & r o.F ~ ^ ^ T.!.!.!.!.!.!.!.!.!.!.!.!.!.!.!.!.!.!.!.!.!.!.",
"!.!.!.!.!.!.!.!.!.!.!.!.!.!.!.!.!.!.!.!.!.!.!.!.!.Z.< [ r.d.d.a.q.r 2 5 >.m.W ` ` J.!.!.!.!.!.!.!.!.!.!.!.!.!.!.!.!.!.!.!.!.!.!.",
"!.!.!.!.!.!.!.!.!.!.!.!.!.!.!.!.!.!.!.!.!.!.!.!.!.!.B 8 { 3.f.l.f.+.8 q %.F.T ` ` ^ T.!.!.!.!.!.!.!.!.!.!.!.!.!.!.!.!.!.!.!.!.!.",
"!.^.!.!.!.!.!.!.!.!.!.!.!.!.!.!.!.!.!.!.!.!.!.!.!.!.U.a , *.d.l.l.-.5 3 A T.Y W I P L.!.!.!.!.!.!.!.!.!.!.!.!.!.!.!.!.!.!.!.!.!.",
"!.!.!.!.!.!.!.!.!.!.!.!.!.!.!.!.!.!.!.!.!.!.!.!.!.!.~.m.& ] y.l.c.f.X.q v I.E h P P T.T.!.!.^.!.!.!.!.!.!.!.!.!./.!.!.!.!.!.!.!.",
"!.!.!.!.!.!.!.!.!.!.!.!.!.!.!.!.!.!.!.!.!.!.!.!.!.!.~.W.i w u.x.b.c.s.;.X.S.R u g R !.!.!.!.!.!.!.!.!.!.!.!.!.!.!.!.!.!.!.!.!.!.",
"!.!.!.!.!.!.!.!.!.!.!.!.!.!.!.!.!.!.!.!.!.!.!.!.!.!.~.~.S } r.l.b.b.z.u.=.I.H.m.N.T.!.!.!.!.!.!.!.!.!.!.!.!.!.!.!.!.!.!.!.!.!.!.",
"!.!.!.!.!.!.!.!.!.!.!.!.!.!.!.!.!.!.!.!.!.!.!.!.!.~.!.!.$.' w.j.c.b.b.h.6.P.~.!.!.!.!.!.!.!.!.!.!.!.!.!.!.!.!.!.!.!.!.!.!.!.!.!.",
"!.!.!.!.!.!.!.!.!.!.!.!.!.!.!.!.!.!.!.!.!.!.!.!.!.!.!.!.N.5 *.a.c.b.b.l.d.0.^.!.!.!.!.!.!.!.!.!.!.!.!.!.!.!.!.!.!.!.!.!.!.!.!.!.",
"!.!.!.!.!.!.!.!.!.!.!.!.!.!.!.!.!.!.!.!.!.!.!.!.!.!.!.!.D.3 ] 6.l.b.c.l.l.g.!.!.!.!.!.!.!.!.!.!.!.!.!.!.!.!.!.!.!.!.!.!.!.!.!.!.",
"!.!.!.!.!.!.!.!.!.!.!.!.!.!.!.!.!.!.!.!.!.!.!.!.!.!.!.!.U.i ' 6.f.c.c.z.x.g.!.!.!.!.!.!.!.!.!.!.!.!.!.!.!.!.!.!.!.!.!.!.!.!.!.!.",
"!.!.!.!.!.!.!.!.!.!.!.!.!.!.!.!.!.!.!.~.!.!.!.!.!.!.!.!.W.A [  .6.f.z.x.v.g.!.!.!.!.!.!.!.!.!.!.!.!.^.!.!.!.!.!.!.!.!.!.!.!.!.!.",
"!.!.!.!.!.!.!.!.!.!.!.!.!.!.!.!.!.!.!.!.!.!.!.!.!.!.!.!.!.F.2 4 | y.f.l.z.g.W.^.!.!.!.!.!.!.!.!.!.!.!.!.!.!.!.!.!.!.!.!.!.!.!.!.",
"!.!.!.!.!.!.!.!.!.^.!.!.!.!.!.!.!.!.!.!.!.!.!.!.!.!.!.!.!.Z.t 4 { =.y.f.l.0.~.W.!.!.!.!.!.!.!.!.!.!.!.!.!.!.!.!.!.!.!.!.!.!.!.!.",
"!.!.!.!.!.!.!.!.!.!.!.!.!.!.!.!.!.!.!.!.!.!.!.!.!.!.!.!.W.B , 7 [ X.*.6.d.Y.~.~.!.!.!.!.!.!.!.!.!.!.!.!.!.!.!.!.!.!.!.!.!.!.!.!.",
"!.!.!.!.!.!.!.!.!.!.!.!.!.!.!.!.!.!.!.!.!.!.!.!.!.!.!.!.U.a ' 3.2.-.4.e.s.E.!.!.!.!.!.!.!.!.!.!.!.!.!.!.!.!.!.!.!.!.!.!.!.!.!.!.",
"^.!.!.!.!.!.!.!.!.!.!.!.!.!.!.!.!.!.!.!.!.!.!.!.!.!.!.!.$.3 ..w.u.6.6.s.E.!.!.!.!.!.!.!.!.!.!.!.!.!.!.!.!.!.!.!.!.^.!.!.!.!.!.!.",
"!.!.!.!.!.!.!.!.!.!.!.!.!.!.!.!.!.!.!.!.!.!.!.!.!.!.!.I.q ' :.t.q.2.X.C.T.T.!.!.!.!.!.!.!.!.!.!.!.!.!.!.!.!.!.!.!.!.!.!.!.!.!.!.",
"!.!.!.!.!.!.!.!.!.!.!.!.!.!.!.!.!.!.!.!.!.!.!.!.!.!.!.%.9 :.w.w.4.O.o.T.!.!.!.!.!.!.!.!.!.!.!.!.!.!.!.!.!.!.!.!.!.!.!.!.!.!.!.!.",
"!.!.!.!.!.!.!.!.!.!.!.!.!.!.!.!.!.!.!.!.!.!.!.!.!.!.S.X.' t.d.i.=.r @.!.!.!.!.!.!.!.!.!.!.!.!.!.!.!.!.!.!.!.!.!.!.!.!.!.!.!.!.!.",
"!.!.!.!.!.!.!.!.!.!.!.!.!.!.!.!.!.!.!.!.!.!.!.!.!.!.%.0 [ i.l.j.d.r.7.!.!.!.!.!.!.!.!.!.!.!.!.!.!.!.!.!.!.!.!.!.!.!.!.!.!.!.!.!.",
"!.!.!.!.!.!.!.!.!.!.!.!.!.!.!.!.!.!.!.!.!.!.!.!.!.T.o.w ' t.j.x.l.u.8.W.!.!.!.!.!.!.!.!.!.!.!.!.!.!.!.!.!.!.!.!.!.!.!.!.!.!.!.!.",
"!.!.!.!.!.!.!.!.!.!.!.!.!.!.!.!.!.!.!.!.!.!.!.!.!.,.6 ' w :.i.j.f.5.s.W.!.!.!.!.!.!.!.!.!.!.!.!.!.!.!.!.!.!.!.!.!.!.!.!.!.!.!.!.",
"!.!.!.!.!.!.!.!.!.!.!.!.!.!.!.!.!.!.!.!.!.!.!.!.T.m 9 5 7 } w.w.;.=.7.T.~.!.!.!.!.!.!.!.!.!.!.!.!.!.!.!.!.!.!.!.!.!.!.!.^.!.!.!.",
"!.!.!.!.!.!.!.^.!.!.!.!.!.!.!.!.!.!.!.!.!.!.!.!.S.l &.w w *.| ..=.5.P.!.!.~.!.!.!.!.!.!.!.!.!.!.!.!.!.!.!.!.!.!.!.!.!.!.!.!.!.!.",
"!.!.!.!.!.!.!.!.!.!.!.!.!.!.!.!.!.!.!.!.^.!.!.!.#.3 ] ] 9 =.e.p.w.5.1.W.!.(.!.!.!.!.!.!.!.!.!.!.!.!.!.!.!.!.!.!.!.!.!.!.!.!.!.!.",
"!.!.!.!.!.!.!.!.!.!.!.!.!.!.!.!.!.!.!.!.!.!.!.!.,.z q 0 4 } =.5.5.5.*.7.9.T.T.!.!.!.!.!.!.!.!.!.!.!.!.!.!.!.!.!.!.!.!.!.!.!.!.!.",
"!.!.!.!.!.!.!.!.!.!.!.!.!.!.!.!.!.!.!.!.!.!.!.T.$.F.S.A 2 7 ' &.:.w.t.t.e.7.P.S.!.!.!.!.!.!.!.!.!.!.!.!.!.!.!.!.!.!.!.!.!.(.!.!.",
"!.!.!.!.!.!.!.!.!.!.!.!.!.!.!.!.!.!.!.!.!.!.!.!.N.Z.A.m.z ]  .:.w.p.w.p.s.8.1.C.!.!.!.!.!.!.!.!.!.!.!.!.!.!.!.!.!.!.!.!.!.!.!.!.",
"!.!.!.!.!.!.!.!.!.!.!.!.!.!.!.!.!.!.!.!.!.!.!.!.!.T.U.Z.S C.E.E.E.E.E. X X(.!.H.!.!.!.!.!.!.!.!.!.!.!.!.!.!.!.!.!.!.!.!.!.!.!.!.",
"!.!.!.!.!.!.!.!.(.!.!.!.!.!.!.!.!.!.!.!.!.!.!.!.!.!.!.T.G.Z.T.T.!.T.!.!.T.T.T.T.!.!.!.!.!.!.!.!.!.!.!.!.!.!.!.!.!.!.!.!.!.!.!.!."
};
