/* XPM */
static char *Player_B1721606380[] = {
/* columns rows colors chars-per-pixel */
"64 64 204 2 ",
"   c #151211",
".  c #251D1B",
"X  c #35251E",
"o  c #21242E",
"O  c #362824",
"+  c #3B3635",
"@  c #3C393B",
"#  c #462D27",
"$  c #4E342A",
"%  c #4C3934",
"&  c #5C3C33",
"*  c #6E3E2F",
"=  c #59443C",
"-  c #6C4839",
";  c #704A38",
":  c #293447",
">  c #323A48",
",  c #423F41",
"<  c #32425B",
"1  c #344865",
"2  c #344C6C",
"3  c #334F71",
"4  c #395273",
"5  c #38567A",
"6  c #4D4A4B",
"7  c #534C4C",
"8  c #434856",
"9  c #545253",
"0  c #585758",
"q  c #5A585A",
"w  c #6F564D",
"e  c #735743",
"r  c #695855",
"t  c #635D5D",
"y  c #6F635D",
"u  c #49566A",
"i  c #4A5E7C",
"p  c #605D60",
"a  c #4F637C",
"s  c #586577",
"d  c #666467",
"f  c #6D6B6C",
"g  c #756C6A",
"h  c #646A77",
"j  c #6A6D75",
"k  c #726F70",
"l  c #6E7079",
"z  c #747274",
"x  c #787578",
"c  c #7C7A7D",
"v  c #965537",
"b  c #AC5736",
"n  c #AF6937",
"m  c #B66838",
"M  c #C2763C",
"N  c #D3753A",
"B  c #E37E39",
"V  c #835C48",
"C  c #8D644C",
"Z  c #996D53",
"A  c #AE6E47",
"S  c #A27656",
"D  c #876F66",
"F  c #997968",
"G  c #8D7B73",
"H  c #877C79",
"J  c #A87D73",
"K  c #CC7A44",
"L  c #DD823E",
"P  c #EB873C",
"I  c #AA805E",
"U  c #9F8376",
"Y  c #A88268",
"T  c #A7887C",
"R  c #BA8573",
"E  c #DF924D",
"W  c #F49241",
"Q  c #3E5D83",
"!  c #3A5E88",
"~  c #3E628C",
"^  c #3E6592",
"/  c #415F87",
"(  c #49668A",
")  c #5E718B",
"_  c #466A95",
"`  c #446D9C",
"'  c #49709B",
"]  c #597696",
"[  c #6B7586",
"{  c #787C86",
"}  c #667891",
"|  c #4572A3",
" . c #4A75A3",
".. c #4777AA",
"X. c #4C7CAC",
"o. c #537EAB",
"O. c #457CB6",
"+. c #4C7EB3",
"@. c #7C8595",
"#. c #78869A",
"$. c #5482AB",
"%. c #4E83B6",
"&. c #4B84BE",
"*. c #5586B5",
"=. c #5085BB",
"-. c #538ABD",
";. c #5C90BD",
":. c #6690BB",
">. c #4D86C1",
",. c #548DC5",
"<. c #588EC4",
"1. c #4E90CF",
"2. c #5692CB",
"3. c #5A95C8",
"4. c #5995CC",
"5. c #5C9AD2",
"6. c #5998D5",
"7. c #6199CB",
"8. c #619FD4",
"9. c #63A1D6",
"0. c #64A4DA",
"q. c #68A8DD",
"w. c #5FA4E0",
"e. c #65AAE3",
"r. c #6BADE3",
"t. c #6EB1E6",
"y. c #6DB2E8",
"u. c #71B2E6",
"i. c #72B5EA",
"p. c #75B9ED",
"a. c #78BBEF",
"s. c #77BDF1",
"d. c #7ABDF1",
"f. c #848284",
"g. c #8A8587",
"h. c #85858A",
"j. c #8C8A8C",
"k. c #938C8D",
"l. c #9A8B88",
"z. c #9D918F",
"x. c #858994",
"c. c #8D8D92",
"v. c #918F92",
"b. c #8F9097",
"n. c #8E929B",
"m. c #949395",
"M. c #9B9595",
"N. c #95959A",
"B. c #9A9699",
"V. c #999999",
"C. c #9C9A9D",
"Z. c #A68882",
"A. c #A09D9D",
"S. c #AA9E9D",
"D. c #B59992",
"F. c #8B98A7",
"G. c #9197A3",
"H. c #969AA4",
"J. c #9D9DA2",
"K. c #889CB6",
"L. c #A09EA2",
"P. c #9BA1A7",
"I. c #A3A2A5",
"U. c #ABA6A5",
"Y. c #A7A6AB",
"T. c #AAA7AA",
"R. c #AAA9AD",
"E. c #B0ADAD",
"W. c #B3B1AF",
"Q. c #ADADB1",
"!. c #AEB1B6",
"~. c #B4B3B4",
"^. c #B9B7B7",
"/. c #B5B5B9",
"(. c #BCBBBC",
"). c #C1BFBE",
"_. c #BEBEC0",
"`. c #BAC3CD",
"'. c #C4C3C4",
"]. c #C8C7C6",
"[. c #C9C8C6",
"{. c #C7C7C9",
"}. c #C8C8C9",
"|. c #CBCACB",
" X c #D0CFCF",
".X c #D2D0CF",
"XX c #CBCFD4",
"oX c #D4D4D3",
"OX c #D8D6D5",
"+X c #D9D8D6",
"@X c #D7D7D9",
"#X c #DCDBDB",
"$X c #E1DFDE",
"%X c #E3E1DF",
"&X c #E1DFE0",
"*X c #E5E4E4",
"=X c #E9E8E7",
"-X c #EBECEB",
";X c #F0EFED",
":X c #EFF0EF",
">X c #F1F1EE",
",X c #EFF0F0",
"<X c #F4F4F3",
"1X c #F8F8F6",
/* pixels */
"Y.Y.Y.Y.Y.Y.Y.Y.Y.Y.Y.Y.R.Y.Y.Y.Y.Y.Y.Y.Y.Y.Y.Y.Y.Y.Y.Y.Y.Y.Y.Y.Y.Y.L.R.R.R.R.R.Y.Y.Y.Y.Y.Y.Y.Y.Y.Y.Y.Y.Y.Y.Y.Y.Y.Y.Y.Y.Y.Y.Q.Y.",
"Y.Y.Y.Y.Y.Y.Y.Y.Y.Y.Y.Y.Y.Y.Y.Y.Y.Y.Y.Y.Y.Y.Y.Y.Y.Y.Y.Y.T.L.A.Z.l.M.A.L.R.L.Y.Y.Y.Y.Y.Y.Y.Y.Y.Y.Y.Y.Y.Y.Y.Y.Y.Y.Y.Y.Y.Y.Y.Y.R.Y.",
"Y.Y.Y.Y.Y.Y.Y.Y.Y.Y.Y.Y.Y.Y.Y.Y.Y.Y.Y.Y.Y.Y.Y.Y.Y.Y.Y.Y.B.F K K K N A G L.R.Y.Y.Y.Y.Y.Y.Y.Y.Y.Y.Y.Y.Y.Y.Y.Y.Y.Y.Y.Y.Y.Y.Y.Y.R.Y.",
"Y.Y.Y.Y.Y.Y.Y.Y.Y.Y.Y.Y.Y.Y.Y.Y.Y.Y.Y.Y.Y.Y.Y.Y.Y.Y.Y.P.F N P W W W P M D L.Y.Y.Y.Y.Y.Y.Y.Y.Y.Y.Y.Y.Y.Y.Y.Y.Y.Y.Y.Y.Y.Y.Y.Y.R.Y.",
"Y.Y.Y.Y.Y.Y.Y.Y.Y.Y.Y.Y.Y.Y.Y.Y.Y.Y.Y.Y.Y.Y.Y.Y.Y.Y.Y.H b P W W P P B N V g.L.Y.Y.Y.Y.Y.Y.Y.Y.Y.Y.Y.Y.Y.Y.Y.Y.Y.Y.Y.Y.Y.Y.Y.R.Y.",
"Y.Y.Y.Y.Y.Y.Y.Y.Y.Y.Y.Y.Y.Y.Y.Y.Y.Y.Y.Y.Y.Y.Y.Y.T.J.m.t b B L M m m m m b & v.Y.Y.Y.Y.Y.Y.Y.Y.Y.Y.Y.Y.Y.Y.Y.Y.Y.Y.Y.Y.Y.Y.Y.R.Y.",
"Y.Y.Y.Y.Y.Y.Y.Y.Y.Y.Y.Y.Y.Y.Y.Y.Y.Y.Y.Y.Y.Y.Y.Y.Y.f.p f b n - $ e e X X * # 7 L.Y.Y.Y.Y.Y.Y.Y.Y.Y.Y.Y.Y.Y.Y.Y.Y.Y.Y.Y.Y.Y.Y.R.Y.",
"Y.Y.Y.Y.Y.Y.Y.Y.Y.Y.Y.Y.Y.Y.Y.Y.Y.Y.Y.Y.Y.Y.Y.Y.V.f @ % - $ # $ C C X . . O @ n.Y.Y.Y.Y.Y.Y.Y.Y.Y.Y.Y.Y.Y.Y.Y.Y.Y.Y.Y.Y.Y.Y.R.Y.",
"R.Y.Y.Y.Y.Y.Y.Y.Y.Y.Y.Y.Y.Y.Y.Y.Y.Y.Y.Y.Y.Y.Y.Y.j.k + O O . $ & ; * & #   . = h.I.T.Y.Y.Y.Y.Y.Y.Y.Y.R.Y.Y.Y.Y.Y.Y.Y.Y.Y.Y.Y.R.Y.",
"Y.Y.Y.Y.Y.Y.Y.Y.Y.Y.Y.Y.Y.Y.Y.Y.Y.Y.Y.Y.Y.Y.Y.Y.m.N.p % g ].$X$X$XOXOX}.].W.q @.I.T.Y.Y.Y.Y.Y.Y.Y.Y.Y.Y.Y.Y.Y.Y.Y.Y.Y.Y.Y.Y.R.Y.",
"Y.Y.Y.Y.Y.Y.Y.Y.Y.Y.Y.Y.Y.R.Y.Y.Y.Y.Y.Y.Y.Y.Y.Y.C.^.g.7 W.%X1X1X1X1X1X1X1X>XA.j.P.Y.Y.Y.Y.Y.Y.Y.Y.Y.Y.Y.Y.Y.Y.Y.Y.Y.Y.Y.Y.Y.Y.Y.",
"Y.Y.Y.Y.Y.Y.Y.Y.Y.Y.Y.Y.Y.Y.Y.Y.Y.Y.Y.Y.Y.Y.Y.Y.J.~.k.A.[.%X1X1X1X<X<X<X1X<XI.c I.Y.Y.Y.Y.Y.Y.Y.Y.Y.Y.Y.Y.Y.Y.Y.Y.Y.Y.Y.Y.Y.R.Y.",
"Y.Y.Y.Y.Y.Y.Y.Y.Y.Y.Y.Y.Y.Y.Y.Y.Y.Y.Y.T.Y.Y.T.T.v.f.f V.^.OX>X>X>X;X;X;X;X=XC.t P.T.Y.Y.Y.Y.Y.Y.Y.Y.Y.Y.Y.Y.Y.Y.Y.Y.Y.Y.Y.Y.R.Y.",
"Y.Y.Y.Y.Y.Y.Y.Y.Y.Y.Y.Y.Y.Y.Y.Y.Y.Y.Y.Y.Y.Y.T.P.c p x M.^.)..XOXOX$X$XOX X).f.@ h.I.Y.Y.Y.Y.Y.Y.Y.Y.Y.Y.Y.Y.Y.Y.Y.Y.Y.Y.Y.Y.R.Y.",
"Y.Y.Y.Y.Y.Y.Y.Y.Y.Y.Y.Y.Y.Y.Y.Y.Y.Y.Y.Y.Y.Y.P.W.~.T.I.g.|.W..XOXOX$X#X#X|.U.H 6 d c A.T.Y.Y.Y.Y.Y.Y.Y.Y.Y.Y.Y.Y.Y.Y.Y.Y.Y.Y.Y.Y.",
"Y.Y.Y.Y.Y.Y.Y.Y.Y.Y.Y.Y.Y.Y.Y.Y.Y.Y.Y.Y.I.Y.W.#X*X].W.M..X].].OX$X%X#X*X$XS.C.t V.R.m.C.Y.Y.T.Y.Y.Y.Y.Y.Y.Y.Y.Y.Y.Y.Y.Y.Y.Y.R.Y.",
"Y.Y.Y.Y.Y.Y.Y.Y.Y.Y.Y.Y.Y.Y.Y.Y.Y.Y.Y.Y.Y._.,X@X<X#X|.k. X X|.$X%X#X%X#X.XE.A.f.^.oXP.h P.T.Y.Y.Y.Y.Y.Y.Y.Y.Y.Y.Y.Y.Y.Y.Y.Y.R.Y.",
"Y.Y.Y.Y.Y.Y.Y.Y.Y.Y.Y.Y.Y.Y.R.Y.Y.Y.Y.Y.Y.*X<X=X>X-X|.T.|.[.)..XOXOXOXOX|.U.U.I.}.%XR.n.m.I.Y.Y.Y.Y.Y.Y.Y.Y.Y.Y.Y.Y.Y.Y.Y.Y.R.Y.",
"Y.Y.Y.Y.Y.Y.Y.Y.Y.Y.Y.Y.Y.Y.Y.Y.Y.Y.Y.Y.Q.*X&X=X>X+X[.~.|.[.[.#X+X#X+XOX[.U.U.V.'.*X+XR.J.I.Y.Y.Y.Y.Y.Y.Y.Y.Y.Y.Y.Y.Y.Y.Y.Y.R.Y.",
"Y.Y.Y.Y.Y.Y.Y.Y.Y.Y.Y.Y.Y.Y.Y.Y.Y.Y.Y.Y.XX,X'.@X<X+XR.R.|.).'.+X+X+XOXOX[.A.U.j.^.=X=X_.{.T.Y.Y.Y.Y.Y.Y.Y.Y.Y.Y.Y.Y.Y.Y.Y.Y.R.Y.",
"Y.Y.R.Y.Y.Y.Y.Y.Y.Y.Y.Y.Y.Y.Y.Y.Y.Y.Y.J.@X<X}.*X<XoXm.A.[.W.T._.'.[.[.`.R.k.I.x (.=X-X%X.X^.P.Y.Y.Y.Y.Y.Y.Y.Y.Y.Y.Y.Y.Y.Y.Y.R.Y.",
"Y.Y.Y.Y.Y.Y.Y.Y.Y.Y.Y.Y.Y.Y.Y.Y.Y.Y.Y.B./.}.|.<X-X|.c C.[.R.P.#X+X#XOXoX(.m.I.g ^.*X-X=X`.W.C.Y.Y.Y.Y.Y.Y.Y.Y.Y.Y.Y.Y.Y.Y.Y.Y.Y.",
"Y.Y.Y.Y.Y.Y.Y.Y.Y.Y.Y.Y.Y.R.Y.Y.Y.Y.Y.N.R.[.*X<X=X^.f k.'.T.~.oXoXXX.X X(.B.I.f Y.*X-X=XR.d N.Y.Y.Y.Y.Y.Y.Y.Y.Y.Y.Y.Y.Y.Y.Y.Q.Y.",
"Y.Y.Y.Y.Y.Y.Y.Y.Y.Y.Y.Y.Y.Y.Y.Y.Y.Y.I.R.=X=X<X=X[.N.9 m.'.T.P.}.|.}.}.[.^.m.I.q f.|.#X#X'.g.b.Y.Y.Y.Y.Y.R.Y.Y.Y.Y.Y.Y.Y.Y.Y.Y.Y.",
"Y.Y.Y.Y.Y.Y.Y.Y.Y.R.Y.Y.Y.Y.Y.Y.Y.Y.L.'.-X<X,X#XI.9 6 Y._.U.l.D.U./.S.D.A.m.C.q 6 Y.|.OXoX~.j.T.Y.Y.Y.Y.Y.Y.Y.Y.Y.Y.Y.Y.Y.Y.Q.Y.",
"Y.Y.Y.Y.Y.Y.Y.Y.Y.Y.Y.Y.Y.Y.Y.Y.Y.Y.C.OX-X,X-XoXc.@ 0 I._.L.D.b J }.Z.b R v.M.9 + j.'.oXoX].N.I.Y.Y.Y.Y.Y.Y.Y.Y.Y.Y.Y.Y.Y.Y.Y.Y.",
"Y.Y.Y.Y.Y.Y.Y.Y.Y.Y.Y.Y.Y.Y.Y.Y.Y.T.L.}.*X*X*X_.f.6 0 B.(.J.l.T z.~.S.T Z.m.m.0 6 H ).oX+X[.E.C.Y.Y.Y.Y.R.Y.Y.Y.Y.Y.Y.Y.Y.Y.R.Y.",
"Y.Y.Y.Y.Y.Y.Y.Y.Y.Y.Y.Y.Y.Y.Y.Y.Y.I.^.-X*XoX'.c.z 0 f (.~.m.k c.m.m.v.j.k C.A.C.d p U.'.oX}.T.V.Y.Y.Y.Y.Y.Y.Y.Y.Y.Y.Y.Y.Y.Y.Y.Y.",
"Y.Y.Y.Y.Y.Y.Y.Y.Y.Y.Y.Y.Y.Y.Y.Y.Y.L.'.<X<X-XoXc.0 r C.'.~.c.h.T.Q.R.U.P.@.k.I.OXw 7 J.oX#X/.J.N.Y.Y.Y.Y.Y.Y.Y.Y.Y.Y.Y.Y.Y.Y.Q.Y.",
"Y.Y.Y.Y.Y.Y.Y.Y.Y.Y.Y.Y.Y.Y.Y.Y.Y.I.(.=X<X-X'.x.H * l.I.'.J.c.R.C.m.V.m.M.k.W.].w g M.}.&X'.#XQ.Y.Y.Y.Y.Y.Y.Y.Y.Y.Y.Y.Y.Y.Y.Y.Y.",
"Y.Y.Y.Y.Y.Y.Y.Y.Y.Y.Y.Y.Y.Y.Y.Y.Y.I.}.<X,X=X/.N.I.d > x. XP.G.J.V.P.P.C.P.I.).I.f J.h._.@X{./.J.Y.Y.Y.Y.Y.Y.Y.Y.Y.Y.Y.Y.Y.Y.R.Y.",
"Y.Y.Y.Y.Y.Y.Y.Y.Y.Y.Y.Y.Y.Y.Y.Y.Y.L./.=X-XXXn.J.Y.h 5 :.XX_.F.G.n.P.P.H.C.P.`.#.j Y.j.h./._.c.n.Y.Y.Y.Y.Y.Y.Y.Y.Y.Y.Y.Y.Y.Y.Y.Y.",
"Y.Y.Y.Y.Y.Y.Y.Y.Y.Y.Y.Y.Y.Y.Y.Y.Y.P.v.`.'.Y.h.I.P.#.&.0.t.t.u.u.i.t.t.r.q.q.3.' h U.B.t v.C.x N.Y.Y.Y.Y.Y.Y.Y.Y.Y.Y.Y.Y.Y.Y.R.Y.",
"Y.Y.Y.Y.Y.Y.Y.Y.Y.Y.Y.Y.Y.Y.Y.Y.Y.I.x U g.g g.Y.J.] 3.q.u.i.p.p.i.i.t.t.t.q.7. .s U.M.C r G C B.Y.Y.Y.Y.Y.Y.Y.Y.Y.Y.Y.Y.Y.Y.R.Y.",
"Y.Y.Y.Y.Y.Y.Y.Y.Y.Y.Y.Y.Y.Y.Y.Y.Y.Y.T n v e H I.N.' ,.q.u.p.p.p.i.r.q.9.9.9.;._ u L.A.V = - C M.Y.Y.Y.Y.Y.Y.Y.Y.Y.Y.Y.Y.Y.Y.R.Y.",
"Y.Y.Y.Y.Y.Y.Y.Y.Y.Y.Y.Y.Y.Y.Y.Y.Y.Y.T E S y D I.J.#.3.9.r.i.i.t.q.;.$.| =.%.X.^ u C.z.D D e Z C.Y.Y.Y.Y.Y.Y.Y.Y.Y.Y.Y.Y.Y.Y.R.Y.",
"Y.Y.Y.Y.Y.Y.Y.Y.Y.Y.Y.Y.Y.Y.Y.Y.Y.Y.z.A F k.G I.N.F.4.e.q.q.0.3.+.4 : 1 ' +.%.` a J.B.G F Z J Y.Y.Y.Y.Y.Y.Y.Y.Y.Y.Y.Y.Y.Y.Y.R.Y.",
"Y.Y.Y.Y.Y.Y.Y.Y.Y.Y.Y.Y.Y.Y.Y.Y.Y.Y.I.Y I C.Y.P.J.K.0.y.y.t.8.$.2 o : | 2.5.2.+.) P.Y.l.S J B.Y.Y.Y.Y.Y.Y.Y.Y.Y.Y.Y.Y.Y.Y.Y.R.Y.",
"Y.Y.Y.Y.Y.Y.Y.Y.Y.Y.Y.R.Y.Y.Y.Y.Y.T.T.V.F F I.I.J.K.4.e.i.y.q.-.( : 1 +.6.6.2.X.{ Y.T.C.g.A.Y.Y.Y.Y.Y.Y.Y.Y.Y.Y.Y.Y.Y.Y.Y.Y.Y.Y.",
"Y.Y.Y.Y.Y.Y.Y.Y.Y.Y.Y.Y.Y.Y.Y.Y.Y.T.T.T.I.C.Y.Y.C.K.0.e.r.e.q.5...: >  .<.4.<.' @.Y.T.T.I.Y.Y.Y.Y.Y.Y.Y.Y.Y.Y.Y.Y.Y.Y.Y.Y.Y.R.Y.",
"R.Y.Y.Y.Y.Y.Y.Y.Y.Y.Y.Y.Y.Y.Y.Y.Y.Y.Y.Y.Y.Y.Y.Y.V.K.y.t.t.e.q.8.o., 1 ` =.=.=.Q l Y.Y.Y.Y.Y.Y.Y.Y.Y.Y.Y.Y.Y.Y.Y.Y.Y.Y.Y.Y.Y.R.Y.",
"Y.Y.Y.Y.Y.Y.Y.Y.Y.Y.Y.Y.T.Y.Y.Y.Y.Y.Y.Y.Y.Y.Y.Y.L.K.t.s.i.t.8.,.] d 2 ^ | X.` 4 l Y.Y.Y.Y.Y.Y.Y.Y.Y.Y.Y.Y.Y.Y.Y.Y.Y.Y.Y.Y.Y.R.Y.",
"Y.Y.Y.Y.Y.Y.Y.Y.Y.Y.Y.Y.Y.Y.Y.Y.Y.Y.Y.Y.Y.Y.Y.Y.P.#.8.p.p.i.0.%.s l 4 / 5 3 2 < c.Y.Y.Y.Y.Y.Y.Y.Y.Y.Y.Y.Y.Y.Y.Y.Y.Y.Y.Y.Y.Y.R.Y.",
"Y.Y.Y.Y.Y.Y.Y.Y.Y.Y.Y.Y.Y.Y.Y.Y.Y.Y.Y.Y.Y.Y.Y.Y.P.#.,.e.i.8.%.~ h x.> 4 5 ( 5 1 { Y.Y.Y.Y.Y.Y.Y.Y.Y.Y.Y.Y.Y.Y.Y.Y.Y.Y.Y.Y.Y.R.Y.",
"Y.Y.Y.Y.Y.Y.Y.Y.Y.Y.Y.Y.Y.Y.Y.Y.Y.Y.Y.Y.Y.Y.Y.Y.Y.n.| 2.0.0.-._ @.L.8 3 `  .| _ h Y.Y.Y.Y.Y.Y.Y.Y.Y.Y.Y.Y.Y.Y.Y.Y.Y.Y.Y.Y.Y.R.Y.",
"Y.Y.Y.Y.Y.Y.Y.Y.Y.Y.Y.Y.Y.Y.Y.Y.Y.Y.Y.Y.Y.Y.Y.Y.T.H.( $.*.$.X.( x.B.u _ >.4.2.` { Y.Y.Y.Y.Y.Y.Y.Y.Y.Y.Y.Y.Y.Y.Y.Y.Y.Y.Y.Y.Y.R.Y.",
"Y.Y.Y.Y.Y.Y.Y.Y.Y.Y.Y.Y.Y.Y.Y.Y.Y.Y.Y.Y.Y.Y.Y.Y.Y.C.] 3.7.;.-.o.@.J./ X.,.5.<.' x.Y.Y.Y.Y.Y.Y.Y.Y.Y.Y.Y.Y.Y.Y.Y.Y.Y.Y.Y.Y.Y.R.Y.",
"Y.Y.Y.Y.Y.Y.Y.Y.Y.Y.Y.Y.Y.Y.Y.Y.Y.Y.Y.Y.Y.Y.Y.Y.T.C.*.e.a.a.p.e.} H.u  .<.2.+.! [ L.Y.Y.Y.Y.Y.Y.Y.Y.Y.Y.Y.Y.Y.Y.Y.Y.Y.Y.Y.Y.R.Y.",
"Y.Y.Y.Y.Y.Y.Y.Y.Y.Y.Y.R.Y.Y.Y.Y.Y.Y.Y.Y.Y.Y.Y.Y.Y.H.o.y.d.d.d.u.<.N.( | +.>.+. .) Y.Y.Y.Y.Y.R.R.Y.Y.Y.Y.Y.Y.Y.Y.Y.Y.Y.Y.Y.Y.Q.Y.",
"Y.Y.Y.Y.Y.Y.Y.Y.Y.Y.Y.Y.Y.Y.Y.Y.Y.Y.Y.Y.Y.Y.Y.Y.Y.H.<.y.d.d.a.u.7.N.i +.6.6.7.+.} L.Y.Y.Y.Y.Y.L.Y.Y.Y.Y.Y.Y.Y.Y.Y.Y.Y.Y.Y.Y.Y.Y.",
"Y.Y.R.Y.Y.Y.Y.Y.Y.Y.Y.Y.Y.Y.Y.Y.Y.Y.Y.Y.Y.Y.Y.Y.Y.H.<.w.p.a.p.r.7.B.h _ ,.6.<.` [ L.Y.Y.Y.Y.Y.R.Y.Y.Y.Y.Y.Y.Y.Y.Y.Y.Y.Y.Y.Y.R.Y.",
"Y.Y.Y.Y.Y.Y.Y.Y.Y.Y.Y.Y.Y.Y.Y.Y.Y.Y.Y.Y.R.Y.Y.Y.Y.L.o.8.t.t.0.<.o.G.l Q ..>.o./ x.R.Y.R.Y.Y.Y.Y.Y.Y.Y.Y.Y.Y.Y.Y.Y.Y.Y.Y.Y.Y.R.Y.",
"Y.Y.Y.Y.Y.Y.Y.Y.Y.Y.Y.Y.Y.Y.Y.Y.Y.Y.Y.Y.Y.Y.Y.Y.Y.L.@.+.4.=.+. .( J.k 2 | ..^ ( L.R.R.L.Y.Y.Y.Y.Y.Y.Y.Y.Y.Y.Y.Y.Y.Y.Y.Y.Y.Y.Q.Y.",
"Y.Y.Y.Y.Y.Y.Y.Y.Y.Y.Y.Y.Y.Y.Y.Y.Y.Y.Y.Y.Y.Y.Y.Y.Y.R.J.( >.8.4.,._ L.{ 1 | O.! s L.R.R.R.Y.Y.Y.Y.Y.Y.Y.Y.Y.Y.Y.Y.Y.Y.Y.Y.Y.Y.Y.Y.",
"Y.Y.Y.Y.Y.Y.Y.Y.Y.Y.Y.Y.Y.Y.Y.Y.Y.Y.Y.Y.Y.Y.Y.Y.Y.Y.n. .1.e.w.6. .G.x > ` | 4 u L.Y.R.L.Y.Y.Y.Y.Y.Y.Y.Y.Y.Y.Y.Y.Y.Y.Y.Y.Y.Y.Y.Y.",
"Y.Y.Y.Y.Y.Y.Y.Y.Y.Y.Y.Y.Y.Y.Y.Y.Y.Y.Y.Y.Y.Y.Y.Y.Y.Y.@.| >.5.6.2._ x.x h #.{ s 9 c.R.R.R.Y.Y.Y.Y.Y.Y.Y.R.Y.Y.Y.Y.Y.Y.Y.Y.Y.Y.Q.Y.",
"Y.Y.Y.Y.Y.Y.Y.Y.Y.Y.Y.Y.Y.Y.Y.Y.Y.Y.Y.Y.Y.Y.Y.Y.Y.Y.L.s ^ O.>.&._ b.c , H N.t g G.R.R.Y.Y.Y.Y.Y.Y.Y.Y.Y.Y.Y.Y.Y.Y.Y.Y.Y.Y.Y.Y.Y.",
"Y.Y.Y.Y.Y.Y.Y.Y.Y.Y.Y.Y.Y.Y.R.Y.Y.R.Y.Y.Y.Y.Y.Y.Y.Y.Y.c.Q O.6.2./ N.B.z g.N.c { H.Y.Y.Y.Y.Y.Y.Y.Y.Y.Y.Y.Y.Y.Y.Y.Y.Y.Y.Y.Y.Y.Q.Y.",
"Y.Y.Y.Y.Y.Y.Y.Y.Y.Y.Y.Y.Y.Y.Y.Y.Y.Y.Y.Y.Y.Y.Y.Y.Y.Y.L.h.4 O.6.>./ h.Y.b.b.m.c.L.Y.Y.Y.Y.Y.Y.Y.Y.Y.Y.Y.Y.Y.Y.Y.Y.Y.Y.Y.Y.Y.Y.Y.Y.",
"Y.Y.Y.Y.Y.Y.Y.Y.Y.Y.Y.Y.Y.Y.Y.Y.Y.Y.Y.Y.Y.Y.Y.Y.Y.L.g.p h } o.} s x.Y.Y.L.R.Y.L.Y.Y.Y.Y.Y.Y.Y.Y.Y.Y.Y.Y.Y.Y.Y.Y.Y.Y.Y.Y.Y.Y.Y.Y.",
"Y.Y.Y.Y.Y.Y.Y.Y.Y.Y.Y.Y.Y.Y.Y.Y.Y.Y.Y.Y.Y.Y.Y.Y.Y.m.L.Q.L.v.B.A.r { Y.Y.R.Y.Y.Y.Y.Y.Y.Y.Y.Y.Y.Y.Y.Y.Y.Y.Y.Y.Y.Y.Y.Y.Y.Y.Y.Y.Q.Y.",
"Y.Y.Y.Y.Y.R.Y.Y.Y.Y.Y.Y.Y.Y.Y.Y.Y.Y.Y.Y.Y.Y.Y.Y.Y.H.L./.!.v.f.g.x g.L.R.R.Y.Y.Y.Y.Y.Y.Y.Y.Y.Y.Y.Y.Y.Y.Y.Y.Y.Y.Y.Y.Y.Y.Y.Y.Y.Y.Y.",
"Y.Y.R.Y.Y.Y.Y.Y.Y.Y.Y.Y.Y.Y.Y.Y.Y.Y.Y.Y.Y.Y.Y.Y.Y.Y.B.v.x.g.g.j.{ m.Y.Y.Y.Y.Y.Y.Y.Y.Y.Y.Y.Y.Y.Y.Y.Y.Y.Y.Y.Y.Y.Y.Y.Y.Y.Y.Y.Y.Y.Y.",
"Y.Y.Y.Y.Y.Y.Y.Y.Y.Y.Y.Y.Y.Y.Y.Y.Y.Y.Y.Y.Y.Y.Y.Y.Y.R.R.L.R.R.L.L.R.L.Y.Y.Y.Y.Y.Y.Y.Y.Y.Y.Y.Y.Y.Y.Y.Y.Y.Y.Y.Y.Y.Y.Y.Y.Y.Y.Y.Y.Q.Y."
};
