/* XPM */
static char *Player_Z31721606381[] = {
/* columns rows colors chars-per-pixel */
"64 64 205 2 ",
"   c #0F0D0C",
".  c #110F0E",
"X  c #13110F",
"o  c #1B1716",
"O  c #27211F",
"+  c #211E25",
"@  c #292527",
"#  c #362A26",
"$  c #322D2E",
"%  c #272B38",
"&  c #302F34",
"*  c #383538",
"=  c #4D3429",
"-  c #704D33",
";  c #2C3649",
":  c #383C45",
">  c #2E3E55",
",  c #38404D",
"<  c #2F435D",
"1  c #32425B",
"2  c #3B4859",
"3  c #334663",
"4  c #334965",
"5  c #3B4D64",
"6  c #354D6C",
"7  c #3D526D",
"8  c #324E71",
"9  c #365273",
"0  c #3B5473",
"q  c #39587A",
"w  c #46474A",
"e  c #564E4B",
"r  c #484D57",
"t  c #535254",
"y  c #575558",
"u  c #5B5A5C",
"i  c #695449",
"p  c #705347",
"a  c #635D5C",
"s  c #776358",
"d  c #424E61",
"f  c #495566",
"g  c #525965",
"h  c #5C5E63",
"j  c #525F71",
"k  c #615F61",
"l  c #5F626E",
"z  c #4B637F",
"x  c #586577",
"c  c #646365",
"v  c #64656A",
"b  c #696768",
"n  c #6B6A6C",
"m  c #776A64",
"M  c #736E6E",
"N  c #78726E",
"B  c #626771",
"V  c #6E6E70",
"C  c #716F71",
"Z  c #6F737A",
"A  c #747375",
"S  c #797577",
"D  c #757579",
"F  c #7C7B7D",
"G  c #98593A",
"H  c #96633E",
"J  c #865D46",
"K  c #876657",
"L  c #B5744C",
"P  c #846D63",
"I  c #887568",
"U  c #927668",
"Y  c #897C74",
"T  c #A17964",
"R  c #C97A46",
"E  c #918377",
"W  c #B4876F",
"Q  c #AB8A78",
"!  c #D98749",
"~  c #CD8656",
"^  c #E28D4A",
"/  c #EB964D",
"(  c #C89675",
")  c #375D86",
"_  c #3A5D84",
"`  c #39618A",
"'  c #3C618A",
"]  c #3C6A95",
"[  c #3D6996",
"{  c #3D76A8",
"}  c #3D78B0",
"|  c #415F87",
" . c #456589",
".. c #5A718F",
"X. c #456B95",
"o. c #42719D",
"O. c #6A778A",
"+. c #7C7D83",
"@. c #777D88",
"#. c #4475A3",
"$. c #477AA9",
"%. c #447BAC",
"&. c #437BB1",
"*. c #827F80",
"=. c #7A818A",
"-. c #7B8698",
";. c #5A84AA",
":. c #4583BA",
">. c #4885B8",
",. c #4C8BBC",
"<. c #538EBE",
"1. c #7992AC",
"2. c #7092B2",
"3. c #7398B9",
"4. c #488AC5",
"5. c #538DC6",
"6. c #4790C7",
"7. c #4E91C4",
"8. c #4E93CB",
"9. c #5397CA",
"0. c #4E95D1",
"q. c #5699D2",
"w. c #6594C3",
"e. c #5FA0CE",
"r. c #5BA4D5",
"t. c #56A4DA",
"y. c #58A5DB",
"u. c #5CABDC",
"i. c #6FA3CC",
"p. c #6EACD6",
"a. c #62AEDE",
"s. c #5DAEE3",
"d. c #60AEE1",
"f. c #63B3E3",
"g. c #66B7E8",
"h. c #6BBCEA",
"j. c #6FC0EE",
"k. c #71C1EE",
"l. c #858385",
"z. c #83858B",
"x. c #8A8789",
"c. c #8C8B8D",
"v. c #96918F",
"b. c #878B97",
"n. c #8D8D92",
"m. c #918F92",
"M. c #8D919B",
"N. c #939294",
"B. c #9B9292",
"V. c #95959A",
"C. c #99979A",
"Z. c #999899",
"A. c #9B9A9D",
"S. c #A18C83",
"D. c #AA9387",
"F. c #BA9581",
"G. c #A49C99",
"H. c #959AA5",
"J. c #9D9DA2",
"K. c #8D9FB2",
"L. c #A29FA3",
"P. c #9DA3AC",
"I. c #96A4B7",
"U. c #A3A2A5",
"Y. c #ABA6A4",
"T. c #A7A6AB",
"R. c #A6A8AC",
"E. c #ABAAAC",
"W. c #B0AEAE",
"Q. c #B0B0AF",
"!. c #ADAEB3",
"~. c #ADB2B7",
"^. c #B4B3B5",
"/. c #BBB9B7",
"(. c #B7B7B8",
"). c #BCBBBC",
"_. c #C0BAB7",
"`. c #C0C0BF",
"'. c #A6B3C4",
"]. c #B8BDC2",
"[. c #BEC2C6",
"{. c #C4C4C5",
"}. c #CAC8C7",
"|. c #CBCBCC",
" X c #D3CBC7",
".X c #D1D0CF",
"XX c #C7CCD1",
"oX c #CDCFD1",
"OX c #D3D3D3",
"+X c #D8D7D6",
"@X c #D7D9DB",
"#X c #DCDCDC",
"$X c #E0DFDE",
"%X c #E1E1DF",
"&X c #DBDDE1",
"*X c #DFE2E3",
"=X c #E4E3E3",
"-X c #E6E7E9",
";X c #E8E9E8",
":X c #ECEBEB",
">X c #F0EFEE",
",X c #F1F0EE",
"<X c #F0F0F1",
"1X c #F3F3F2",
"2X c #F8F8F5",
/* pixels */
"T.T.T.T.T.T.T.T.T.T.T.T.T.T.T.T.T.T.T.T.T.T.T.T.T.R.R.T.L.T.T.T.T.T.T.T.T.T.T.T.T.T.T.T.T.T.T.T.T.T.T.T.T.T.T.T.T.T.T.T.T.T.T.T.",
"T.T.T.T.T.T.T.T.T.T.T.T.T.T.T.T.T.T.T.T.T.T.T.J.S.Q Q S.B.L.T.T.T.T.T.T.T.T.T.T.T.T.T.T.T.T.T.T.T.T.T.T.T.T.T.T.T.T.T.T.T.T.T.T.",
"T.T.T.T.T.T.T.T.T.T.T.T.T.T.T.T.T.T.T.T.T.U.B.~ ! ^ ! ~ L m C.U.L.T.T.T.L.L.T.T.T.T.T.T.T.T.T.T.T.T.T.T.T.T.T.T.T.T.T.T.!.T.T.T.",
"T.T.T.T.T.T.T.T.T.T.T.T.T.T.T.T.T.T.T.T.T.Q ~ ^ / / ^ ^ R G i B.(.^.(.T.M.V.L.T.T.T.T.T.T.T.T.T.T.T.T.T.T.T.T.T.T.T.T.T.T.T.T.T.",
"T.T.T.T.T.T.T.T.T.T.T.T.T.T.T.T.R.T.T.T.E H L ! / ^ ^ ~ ~ J = i A./.|.^.V.V.N.T.T.T.T.T.T.T.T.T.T.T.T.T.T.T.T.T.T.T.T.T.T.T.T.T.",
"T.T.T.T.T.T.T.T.T.T.T.T.T.T.T.T.T.T.T.U.l # = - H L Q  X XK = O *.R.+X|.{.E.A L.T.T.T.T.T.T.T.T.T.T.T.T.T.T.T.T.T.T.T.T.T.T.T.T.",
"T.T.T.T.T.T.T.T.T.T.T.T.T.T.T.T.T.T.R.P.A o * N i e Y.A.^.m.e @ n A.`.|./.N.n V.U.T.T.T.T.T.T.T.T.T.T.T.T.T.T.T.T.T.T.T.T.T.T.T.",
"T.T.T.T.T.T.T.T.T.T.T.T.T.T.T.T.T.T.R.R.N X e Y.x.= M M n m.U.M c A.^.|.W.^.Q.V.l.C.T.T.T.T.R.T.T.T.T.T.T.T.T.T.T.T.T.T.T.T.T.T.",
"T.T.T.T.T.E.T.T.T.T.T.T.T.T.T.T.R.T.T.T.M . o O O $ t l t z.R.E w N.{.;XOX<X}.N.A F U.E.T.T.T.T.T.T.T.T.T.T.T.T.T.T.T.T.T.T.T.T.",
"T.T.T.T.T.T.T.T.T.T.T.T.T.T.T.T.T.T.T.U.S X . . . O l.A.E Z.V.A y *.).=X+X.X`.N.n v V.T.T.T.T.T.T.T.T.T.T.T.T.T.T.T.T.T.T.T.T.T.",
"T.T.T.T.T.T.T.T.T.T.T.T.T.T.E.T.T.T.T.U.c.O X     o E oX].P.Z.G.A C R.%X.X}._.N.n a z.T.T.T.T.T.T.T.T.T.T.T.T.T.T.T.T.T.T.T.T.T.",
"T.T.T.T.T.T.T.T.T.T.T.T.T.T.T.T.T.T.T.T.Z.t X   X * x.E.Y./.).Z.*.h l..XOXZ.J.Z.F c A T.T.T.T.T.T.T.T.T.T.T.T.T.T.T.T.T.T.T.T.T.",
"T.T.T.T.T.T.T.T.T.T.T.T.T.T.T.T.T.T.T.T.R.x.* X $ b v./._.G.E E I m M )..XP.^.|.T.F n J.R.R.T.T.T.T.T.T.T.T.T.T.T.T.T.T.T.T.T.T.",
"T.T.T.T.T.T.T.T.T.T.T.T.T.T.T.T.T.T.T.T.R.R.x.* t c.Q.G.G._. X/.=.a s v.+X).^.%X^.F v Z.T.T.T.T.T.T.T.T.T.T.T.T.T.T.T.T.T.T.T.T.",
"T.T.T.T.T.T.T.T.T.T.T.T.T.T.T.T.T.T.T.T.R.R.V.l E G.x.Y.;X2X2X;X|.=.w s (._.].}.Y.F h c.T.T.T.T.T.T.T.T.T.T.T.T.T.T.T.T.T.T.T.T.",
"T.T.T.T.T.T.T.T.T.T.T.T.T.T.T.T.T.T.T.T.T.R.R.c.F G.v.+X=X;X=X%XOXP.f r U..X|.}./.A.A l.T.T.T.T.T.T.T.T.T.T.T.T.T.T.T.T.T.T.T.T.",
"T.T.T.T.T.T.T.T.T.T.T.T.T.T.T.T.T.T.T.T.T.T.T.V.=.=./.#X1X1X<X=X].U.x r W.+X%X;X#X{.l.+.T.T.T.T.T.T.T.T.T.T.T.T.T.T.T.T.T.T.T.T.",
"T.T.T.T.T.T.T.T.T.T.T.T.T.T.T.T.T.T.T.E.T.T.V.n E C .X%X2X1X<X*X~.V.x 5 U.=X$X:X;X}.m.A U.T.T.T.T.T.R.R.T.Q.T.T.T.T.T.T.T.T.T.T.",
"T.T.T.T.T.T.T.T.T.T.T.T.T.T.T.T.T.T.T.T.L.V.m.M D E }.oX#X+X+X}.J.F j 5 c.#X=X>X:XOXT.F J.T.T.T.T.T.T.T.T.T.T.T.T.T.T.T.T.T.T.T.",
"T.T.T.!.T.T.T.T.T.T.T.T.T.T.T.T.T.T.T.T.T.c w V n D ~.).OX.X|.).z.h f 7 A +X;X>X,X#X(.l.C.T.T.T.T.T.T.T.T.T.T.T.T.T.T.T.T.T.T.T.",
"T.T.T.T.T.T.T.T.T.T.T.T.T.T.T.T.T.T.T.T.T.c * u y n A.).OXXX|.~.Z : 7 q l |.;X:X,X$X`.E c.T.T.T.T.T.T.T.T.T.T.T.T.T.T.T.T.T.T.T.",
"T.T.T.T.T.T.T.T.T.T.T.T.E.T.T.T.T.T.T.T.T.n w y y Z.P.#X,X<X#X!.t %  .7 g }.;X=X;X+XQ.F F T.T.T.T.T.T.T.T.T.T.T.T.T.T.T.T.T.T.T.",
"T.T.T.T.T.T.T.T.T.T.T.T.T.T.T.T.T.T.T.T.T.J.x.y a U.~.-X:X=X=XR.* ; ' 7 w {.=XOX}.`.R.=.A T.T.T.T.T.T.T.T.T.T.T.T.T.T.T.T.T.T.T.",
"T.T.T.T.T.T.T.T.T.T.T.T.T.T.T.T.T.T.T.T.T.L.m.y c P.~.-X2X*XXXP.$ % ` 2 w ^.;X$X;X%X|.B.A U.T.T.T.T.T.T.T.T.T.T.T.T.T.T.T.T.T.T.",
"T.T.T.T.T.T.T.T.T.T.T.T.T.T.T.T.T.T.T.T.T.T.L.C.l.L.!.&X<X1XXX=.@ ; q f E P.%X=X,X>X+XY.A U.T.T.T.T.T.T.T.T.T.T.T.T.T.T.T.T.T.T.",
"T.T.T.T.T.T.T.T.T.T.T.T.T.T.T.T.T.T.T.T.T.T.T.[.m.U.oX-X&X&X[.@.& h b.T.+.D #X=X,X,X+XT.A A.T.T.T.T.T.T.T.T.T.T.T.T.T.T.T.T.T.T.",
"T.T.T.T.T.T.T.T.T.T.T.E.T.T.T.T.T.T.T.T.T.T.T.{.J.(.<X:X@X[.V.t * D n.Z : c OX;X>X,X#XU.n V.T.T.T.T.T.T.T.T.T.T.T.T.T.T.T.T.T.T.",
"T.T.T.T.T.T.T.T.T.T.T.T.T.T.T.T.T.T.T.T.T.T.T.{.!.+X2X-X@X[.D $ & 2 7 6 < u U.#X>X:X#XL.n N.T.T.T.T.T.T.T.T.T.T.T.T.T.T.T.T.T.T.",
"T.T.T.T.T.T.T.T.T.T.T.T.T.T.T.T.T.T.T.T.T.T.U.T.^.:X2X-XXXH.: # i P N n a s A }.$X#X|.A.C z.T.T.T.T.T.T.T.T.T.T.T.T.E.T.T.T.T.T.",
"T.T.T.T.T.T.T.T.T.T.T.T.T.T.T.T.T.T.T.T.T.T.L.m.OX<X;X&XP.g + $ t s K Y Y a c `.#X=X.XL.C D T.T.T.T.E.T.T.T.T.T.T.T.T.T.T.T.T.T.",
"T.T.T.T.T.T.T.T.T.T.T.T.T.T.T.T.T.T.T.T.T.T.!.^.OX<X=X~.B $ % < ] X. .f : = u c.T.E.J.M.x.x.T.T.T.T.T.T.T.T.T.T.T.T.T.T.T.T.T.T.",
"T.T.T.T.T.T.T.T.T.T.T.T.T.T.T.T.T.T.T.T.T.T.(.:X{.).].@.& + ; ` 4.9.6.] ; S A.Z.J.J.L.L.L.T.T.T.T.T.T.T.T.T.T.T.T.T.T.T.T.T.T.T.",
"T.T.T.T.T.T.T.T.T.T.T.T.E.T.T.T.T.T.T.T.T.T.G.$X:XR.l , + % 4 o.y.t.7.{ 1 n.T.T.T.T.T.T.T.T.T.T.T.T.T.T.T.T.T.T.T.T.T.T.T.T.T.T.",
"T.T.T.T.E.T.T.T.T.T.T.T.T.T.T.T.T.T.T.T.T.B.W D.G.=. .5 % , ] ,.u.u.7.] 2 V.T.T.!.T.T.T.T.T.T.T.T.T.T.T.T.T.T.T.T.T.T.T.T.T.T.T.",
"T.T.T.T.T.T.T.T.T.T.T.T.T.T.T.T.T.T.T.T.T.D.( ( K z.o.2 , q >.9.y.t.,.6 r J.T.T.T.T.T.T.T.T.T.T.T.T.T.T.T.T.T.T.T.T.T.T.E.T.T.T.",
"T.T.T.T.T.T.T.T.T.T.T.T.T.T.T.T.T.T.T.T.Y.W ( ( U A. .7 9 %.u.f.r.>.{ 1 D T.T.T.T.T.T.T.T.T.T.T.T.T.T.T.T.T.T.T.T.T.T.T.T.T.T.T.",
"T.T.T.T.T.T.T.T.T.T.T.T.T.T.T.T.T.T.T.T.B.T W T E P.x 1 0 <.g.f.8.) > v J.T.T.T.T.T.T.T.T.T.T.T.T.T.T.T.T.T.T.T.T.T.T.T.T.T.T.T.",
"T.T.T.T.T.T.T.T.T.T.T.T.T.T.T.T.T.T.T.T.B.K K K =.V.7 4  .r.g.a.,.6 : V.T.T.T.T.T.T.T.T.T.T.T.T.T.T.T.T.T.T.T.T.T.T.T.T.T.T.T.T.",
"T.T.T.T.T.T.T.T.T.T.T.T.T.T.T.T.T.T.T.T.L.s p p c.b._ #.e.j.j.f.%.< h T.T.T.T.T.T.T.T.T.T.T.T.T.T.T.T.T.T.T.T.T.T.T.T.T.T.T.T.T.",
"T.T.T.T.T.T.T.T.T.T.T.T.T.T.T.T.T.T.T.T.T.m.N N V.-.$.q.g.j.j.u.:.9 z.T.T.T.T.T.T.T.T.T.T.T.T.T.T.T.T.T.T.T.T.T.T.T.T.T.T.T.T.T.",
"T.T.T.T.T.T.T.T.T.T.T.T.T.T.T.T.T.T.T.T.T.T.T.T.T.2.<.a.k.k.j.r.:. .N.U.T.T.T.T.T.T.T.T.T.T.T.T.T.T.T.T.T.T.T.T.T.T.T.T.T.T.T.T.",
"T.T.T.T.T.T.T.T.T.T.T.T.T.T.T.T.T.T.T.T.T.T.T.T.Y.3.r.f.k.k.g.8.] d J.Y.T.T.T.T.T.T.T.T.T.T.T.T.T.T.T.T.T.T.T.T.T.T.T.T.T.T.T.T.",
"T.T.T.T.T.E.T.T.T.T.T.T.T.T.T.T.T.T.T.T.T.T.T.T.P.i.a.f.k.j.d.>.8 g P.T.T.T.T.T.T.T.T.T.T.T.T.T.T.T.T.T.T.T.T.T.T.T.T.T.T.T.T.T.",
"T.T.T.T.T.T.T.T.T.T.T.T.T.T.T.T.T.T.T.T.T.T.T.T.P.p.h.f.k.g.t.%.6 l U.T.T.T.T.T.T.T.T.T.T.T.T.T.T.T.E.T.T.T.T.T.T.T.T.T.T.T.T.T.",
"T.T.T.T.T.T.T.T.T.T.T.T.T.T.T.T.T.T.T.T.T.T.T.T.P.p.h.k.j.u.:.{ 0 +.T.T.T.T.T.T.T.T.T.T.T.T.T.T.T.T.T.T.T.T.T.T.T.T.T.T.E.T.T.T.",
"T.T.T.T.T.T.T.T.T.T.T.T.T.T.T.T.T.T.T.T.T.T.T.T.P.p.h.a.u.6.] < j C.T.T.T.T.T.T.T.T.T.T.T.T.T.T.T.T.T.T.T.T.T.T.T.T.T.T.T.T.T.T.",
"T.T.T.T.T.T.T.T.T.T.T.T.T.T.T.T.T.T.T.T.T.T.T.T.P.i.f.r.,.{ ` , v U.T.T.T.T.T.T.T.T.T.T.T.T.T.T.T.T.T.T.T.T.T.T.T.T.T.T.T.T.T.T.",
"T.T.T.T.T.T.T.T.T.T.T.T.T.T.T.T.T.T.T.T.T.T.T.T.T.3.r.,.>.] q 1 * b.T.T.T.T.T.T.T.T.T.T.T.T.T.T.T.T.T.T.T.T.T.T.T.T.T.T.T.T.T.T.",
"T.T.T.T.T.T.T.T.T.T.T.T.T.T.T.T.T.T.T.T.T.T.T.T.T.I.5.&.%.o.>.] > O.T.T.T.T.T.T.T.T.T.T.T.T.T.T.T.T.T.T.T.T.T.T.T.T.T.T.T.T.T.T.",
"T.T.T.T.T.T.T.T.T.T.T.T.T.T.T.T.T.T.T.T.T.T.T.T.T.P.3.e.<.7.7.>._ g L.T.T.T.T.T.T.T.T.T.T.T.T.T.T.T.T.T.T.T.T.T.T.T.T.T.T.T.T.T.",
"T.T.T.T.T.T.T.T.T.T.T.T.T.T.T.T.T.T.T.T.T.T.T.T.T.T.L...X.,.8.6.{ > O.T.T.T.T.T.T.T.T.T.T.T.T.T.T.T.T.T.T.T.T.T.T.T.T.T.T.T.T.T.",
"T.T.T.T.T.T.T.T.T.T.T.T.T.T.T.T.T.T.T.T.T.T.T.T.T.T.T.M. .#.4.6.4._ f H.T.T.T.T.T.T.T.T.T.T.T.T.T.T.T.T.T.T.T.T.T.T.T.T.T.T.T.T.",
"T.T.E.T.T.T.T.T.T.T.T.T.E.T.T.T.T.T.T.T.T.T.T.T.T.T.T.L. .| &.0.t.:.8 ..P.T.T.T.T.T.T.T.T.T.T.T.T.T.T.T.T.T.T.T.T.T.E.T.T.T.T.T.",
"T.T.T.T.T.T.T.T.T.T.T.T.T.T.T.T.T.T.T.T.T.T.T.T.T.T.T.L.;.5.q.s.s.4.8 | H.T.T.T.T.T.T.T.T.T.T.T.T.T.T.T.E.T.T.T.T.T.T.T.T.T.T.T.",
"T.T.T.T.T.T.T.T.T.T.T.T.T.T.T.T.T.T.T.T.T.T.T.T.T.T.T.P.5.y.g.g.t.4.8 ) @.T.T.T.T.T.T.T.T.T.T.T.T.T.T.T.T.T.T.T.T.T.T.T.T.T.T.T.",
"T.T.T.T.T.T.T.T.T.T.T.T.T.T.T.T.T.T.T.T.T.T.T.T.T.T.T.I.5.5.d.s.0.} 8 ) g L.T.T.T.T.T.T.T.T.T.T.T.T.T.T.T.T.T.T.T.T.T.T.T.T.T.T.",
"T.T.T.T.T.T.T.T.T.T.T.T.T.T.T.T.T.T.T.T.T.T.T.T.T.T.T.H.&.#.5.0.:.) 4 8 6 *.~.T.T.T.T.T.T.T.T.T.T.T.T.T.T.T.T.T.T.T.T.T.T.T.T.T.",
"T.T.T.T.T.T.T.T.T.T.T.T.T.T.T.T.T.T.T.T.T.T.T.T.T.T.T.L.1.&.&.#.X.{ 4 ` ) h P.T.T.T.T.T.T.T.T.T.T.T.T.T.T.T.E.T.T.T.T.T.T.T.T.T.",
"T.T.T.!.T.T.T.T.T.T.T.T.T.T.T.T.T.T.T.T.T.T.T.T.T.T.L.J...0.4.5.:.#.8 ) 8 d C.T.T.T.T.T.T.T.!.T.T.T.T.T.T.T.T.T.T.T.T.T.T.T.T.T.",
"T.T.T.T.T.T.T.T.T.T.T.T.T.T.T.T.T.T.T.T.T.T.T.T.T.P.K.1.&.4.5.&.#.) 4 ) f g V.T.T.T.T.T.T.T.T.T.T.T.T.T.T.T.T.T.T.T.T.T.T.T.T.T.",
"T.T.T.T.T.T.T.T.T.T.T.T.T.T.T.T.T.T.T.T.T.T.L.H.1.w.5.5.0.&.&.o.) 4 w O.M.n.n.L.T.T.T.T.T.T.T.T.T.T.T.T.T.T.T.T.T.T.T.T.T.T.T.T.",
"T.T.T.T.T.T.T.T.T.T.T.T.E.T.T.T.T.T.T.T.T.T.J.*.O.i.q.5.0.0.4.&.X.q h c.b.b.J.T.T.T.T.T.T.T.T.T.T.T.T.T.T.T.T.T.T.T.T.T.T.T.T.T.",
"T.T.T.T.T.T.T.T.T.T.T.T.T.T.T.T.T.T.T.T.T.T.T.H.L.'.'.'.I.I.I.I.H.@.O.m.J.T.L.T.T.T.T.T.T.T.T.T.T.T.T.T.T.T.T.T.T.T.T.T.T.T.T.T.",
"T.T.T.T.T.T.T.T.T.T.T.T.T.T.T.T.T.T.T.T.T.T.T.L.G.H.L.T.T.!.T.T.L.M.J.T.T.T.T.T.T.T.T.T.T.T.T.T.T.T.T.T.T.T.T.T.T.T.T.T.T.T.T.T."
};
